<svg width="256" height="256" viewBox="0 0 256 256" fill="none" xmlns="http://www.w3.org/2000/svg"><rect width="256" height="256" rx="60" fill="#242938"/><g clip-path="url(#a)"><path d="M128.999 183.531c-.071.001-.142.008-.214.008a11.3 11.3 0 0 1-5.668-1.469l-39.842-22.567a7.53 7.53 0 0 1-3.818-6.484v-45.888c-.02-1.958.366-3.846 1.159-5.509l-31.15-17.5c-1.312 2.749-1.951 5.869-1.919 9.106l.001 75.744a12.42 12.42 0 0 0 6.301 10.703l65.765 37.251a18.7 18.7 0 0 0 9.357 2.425l.001-.054c.073-4.723.05-23.778.027-35.766" fill="#083042"/><path d="M80.619 101.615c.853-1.79 2.179-3.318 3.983-4.387l37.507-22.188a11.31 11.31 0 0 1 11.342-.11l37.917 21.477a12.75 12.75 0 0 1 4.254 3.913l.013.019 30.648-18.354c-1.788-2.644-4.232-4.877-7.022-6.46l-62.589-35.45a18.67 18.67 0 0 0-18.721.181L56.04 76.881c-2.979 1.764-5.166 4.286-6.575 7.24l31.15 17.501z" fill="#3DDC84"/><path d="m206.283 81.985-30.648 18.354c1.173 1.735 1.888 3.754 1.909 5.862l-.001 43.668a11.38 11.38 0 0 1-5.577 9.904l-37.508 22.192a11.3 11.3 0 0 1-5.459 1.566c.023 11.989.046 31.043-.027 35.767l-.001.053a18.64 18.64 0 0 0 9.364-2.599l61.912-36.631a18.79 18.79 0 0 0 9.206-16.348l.001-72.081c-.034-3.492-1.221-6.836-3.171-9.707" fill="#4285F4"/><path d="M96.269 110.817a8.2 8.2 0 0 0-.602 2.384q-.045.482-.041.976v30.759q.004.338.051.668a5.06 5.06 0 0 0 1.45 2.879c.311.308.666.578 1.058.799l26.707 15.127a7.6 7.6 0 0 0 3.799.985c.095-.001.19-.008.285-.012a7.56 7.56 0 0 0 3.518-1.044l25.141-14.875a8 8 0 0 0 1.216-.893 7.6 7.6 0 0 0 1.54-1.923 8 8 0 0 0 .63-1.463c.236-.753.36-1.547.353-2.36v-29.271a6.7 6.7 0 0 0-.204-1.563 7.6 7.6 0 0 0-.55-1.471 8 8 0 0 0-.301-.541 9 9 0 0 0-.232-.367 8 8 0 0 0-.593-.773 8.6 8.6 0 0 0-2.259-1.85l-25.417-14.396a7.6 7.6 0 0 0-3.811-.985q-.27.004-.539.025a7.6 7.6 0 0 0-1.558.295 7.6 7.6 0 0 0-1.694.738l-25.141 14.873a6.7 6.7 0 0 0-2.44 2.499 7 7 0 0 0-.23.442c-.052.109-.09.226-.136.338" fill="#D6F0FF"/><path d="M128.976 165.382c-.095.004-.19.011-.285.012a7.6 7.6 0 0 1-3.799-.985l-26.707-15.127a5 5 0 0 1-1.86-1.829 5.06 5.06 0 0 1-.699-2.517v-30.759q-.005-.494.041-.976c.08-.837.29-1.638.602-2.384l-7.212-4.453-8.441-4.742c-.793 1.664-1.179 3.551-1.16 5.51l.001 45.887a7.53 7.53 0 0 0 3.818 6.484l39.842 22.568a11.3 11.3 0 0 0 5.668 1.469c.072-.001.143-.007.214-.009-.011-5.85-.022-10.017-.022-10.017z" fill="#083042"/><path d="M128.976 165.382c-.095.004-.19.011-.285.012a7.6 7.6 0 0 1-3.799-.985l-26.707-15.127a5 5 0 0 1-1.86-1.829 5.06 5.06 0 0 1-.699-2.517v-30.759q-.005-.494.041-.976c.08-.837.29-1.638.602-2.384l-7.212-4.453-8.441-4.742c-.793 1.664-1.179 3.551-1.16 5.51l.001 45.887a7.53 7.53 0 0 0 3.818 6.484l39.842 22.568a11.3 11.3 0 0 0 5.668 1.469c.072-.001.143-.007.214-.009-.011-5.85-.022-10.017-.022-10.017z" fill="#041619"/><path d="M171.368 96.407 133.451 74.93a11.31 11.31 0 0 0-11.342.109L84.602 97.228c-1.804 1.069-3.13 2.597-3.983 4.387l-.003.007 8.44 4.742 7.212 4.453c.047-.112.085-.229.137-.339a7 7 0 0 1 .777-1.268 6.7 6.7 0 0 1 1.892-1.672l25.142-14.873a7.6 7.6 0 0 1 1.935-.807 7.6 7.6 0 0 1 4.288.124c.473.156.936.359 1.379.61l25.417 14.395a8.6 8.6 0 0 1 2.259 1.851 8 8 0 0 1 .825 1.14l6.484-4.35 8.832-5.289-.013-.019a12.75 12.75 0 0 0-4.254-3.913" fill="#3DDB85"/><path d="M171.368 96.407 133.451 74.93a11.31 11.31 0 0 0-11.342.109L84.602 97.228c-1.804 1.069-3.13 2.597-3.983 4.387l-.003.007 8.44 4.742 7.212 4.453c.047-.112.085-.229.137-.339a7 7 0 0 1 .777-1.268 6.7 6.7 0 0 1 1.892-1.672l25.142-14.873a7.6 7.6 0 0 1 1.935-.807 7.6 7.6 0 0 1 4.288.124c.473.156.936.359 1.379.61l25.417 14.395a8.6 8.6 0 0 1 2.259 1.851 8 8 0 0 1 .825 1.14l6.484-4.35 8.832-5.289-.013-.019a12.75 12.75 0 0 0-4.254-3.913" fill="#37BF6E"/><path d="M160.319 109.978q.162.265.301.541a7.6 7.6 0 0 1 .55 1.471c.128.508.199 1.031.204 1.563v29.271a7.7 7.7 0 0 1-.694 3.247 8 8 0 0 1-.289.576 7.64 7.64 0 0 1-2.756 2.816l-25.141 14.875a7.56 7.56 0 0 1-3.519 1.044l.001 8.132s.012 4.167.023 10.017a11.3 11.3 0 0 0 5.459-1.566l37.508-22.192a11.38 11.38 0 0 0 5.577-9.904l.001-43.668c-.021-2.108-.736-4.127-1.909-5.862l-8.832 5.29z" fill="#4285F4"/><path d="M160.319 109.978q.162.265.301.541a7.6 7.6 0 0 1 .55 1.471c.128.508.199 1.031.204 1.563v29.271a7.7 7.7 0 0 1-.694 3.247 8 8 0 0 1-.289.576 7.64 7.64 0 0 1-2.756 2.816l-25.141 14.875a7.56 7.56 0 0 1-3.519 1.044l.001 8.132s.012 4.167.023 10.017a11.3 11.3 0 0 0 5.459-1.566l37.508-22.192a11.38 11.38 0 0 0 5.577-9.904l.001-43.668c-.021-2.108-.736-4.127-1.909-5.862l-8.832 5.29z" fill="#3870B2"/></g><defs><clipPath id="a"><path fill="#fff" d="M11 1h235v255H11z"/></clipPath></defs></svg>