<svg xmlns="http://www.w3.org/2000/svg" width="256" height="256" fill="none" viewBox="0 0 256 256">
    <rect width="256" height="256" fill="#242938" rx="60"/>
    <g transform="translate(128, 128) scale(0.23) translate(-640, -512)">
        <path d="M714.5728 150.5792L320 229.1968v565.6064l394.5728 78.6304V150.5792z m-202.2144 384.768l-40.9856 88.9216-47.296-3.3024 59.8656-108.7232-53.5552-118.4768 47.2576-3.3024 31.5392 88.8704h6.2592l34.688-95.4752 50.432-3.264-63.04 125.0816 63.0784 128.4352-50.432-3.3024-37.8112-95.4624z" fill="#23B08D" />
        <path d="M714.5728 243.6608H960V817.792H714.5728z" fill="#E5E7E6" />
        <path d="M714.5728 371.2512h173.4784v53.7216H714.5728zM714.5728 484.4288h173.4784v53.7216H714.5728zM714.5728 612.5056h173.4784v53.7216H714.5728z" fill="#FFFFFF" />
    </g>
</svg>