<svg width="256" height="256" viewBox="0 0 256 256" fill="none" xmlns="http://www.w3.org/2000/svg">
    <rect width="256" height="256" rx="60" fill="#242938" />
    <path
        d="M137.915 87.1609C135.1 87.2785 130.343 88.0343 130.343 88.3534C130.343 88.4861 133.696 90.1658 133.953 90.1658C134.188 90.1658 138.08 92.1074 138.945 92.6449C140.073 93.3672 140.881 94.0222 140.644 94.0222C140.493 94.0222 136.497 92.4753 134.982 91.8253C133.75 91.3062 128.625 89.7778 126.131 89.1882C124.78 88.8725 124.209 88.7549 121.913 88.335C118.527 87.7169 114.545 87.6799 112.813 88.2493C110.332 89.0555 109.774 90.0465 109.774 93.7014C109.774 95.717 109.873 96.5686 110.312 98.3792C110.503 99.167 111.041 100.899 111.291 101.483C111.363 101.668 111.598 102.239 111.795 102.743C111.998 103.242 112.61 104.533 113.147 105.59C116.165 111.581 120.685 116.575 127.056 120.969C129.065 122.346 134.524 124.958 136.714 125.583C137.272 125.734 137.456 126.048 137.003 126.048C136.499 126.048 131.88 124.775 130.934 124.375C130.575 124.215 130.209 124.069 129.839 123.935C126.552 122.61 122.353 119.88 118.881 116.776C115.077 113.392 112.035 109.237 109.959 104.587C108.627 101.581 107.722 98.0786 107.498 95.0267C107.367 93.2815 107.23 92.8616 106.776 92.8818C106.625 92.8818 105.189 92.8297 103.607 92.744C99.3035 92.5593 93.4247 93.0329 87.6048 94.0373C76.4772 95.932 64.4711 100.309 52.1157 106.981C50.0609 108.093 48.0309 109.251 46.027 110.452C45.7919 110.59 45.0495 111.042 44.3742 111.462C43.7041 111.882 42.9113 112.349 42.6224 112.532C41.9841 112.906 34.9195 117.702 34.073 118.338C33.7572 118.568 32.8788 119.224 32.1381 119.763C28.7838 122.242 21.4824 128.2 21.0625 128.804C20.8593 129.107 21.1801 129.258 21.6134 129.107C21.8368 129.019 22.4079 128.902 22.8665 128.838C23.3384 128.764 24.5528 128.45 25.5623 128.116C26.5869 127.793 27.6887 127.459 28.0045 127.373C30.5038 126.789 31.5149 126.585 32.9762 126.369C33.6397 126.285 34.6172 126.134 35.1681 126.048C42.0177 125.043 45.2863 124.795 48.3365 125.023C54.9627 125.561 61.3016 126.691 64.9297 127.976C67.6456 128.954 73.17 131.94 75.5987 133.731C77.0029 134.789 81.5161 139.282 82.5138 140.639C83.2864 141.716 84.1464 142.655 84.3497 142.655C84.4168 142.655 84.5008 139.228 84.521 135.056L84.5663 127.477L93.4382 127.427C100.419 127.393 102.354 127.445 102.473 127.595C102.643 127.813 103.049 128.535 104.381 130.994C105.647 133.363 106.271 134.505 106.659 135.187C106.86 135.561 107.327 136.428 107.722 137.117C108.088 137.805 108.777 139.079 109.25 139.95C109.722 140.824 110.109 141.564 110.109 141.596C110.109 141.747 110.804 142.655 110.923 142.655C110.989 142.655 111.158 142.398 111.276 142.117C111.409 141.815 111.763 141.145 112.052 140.639C112.354 140.135 112.892 139.151 113.265 138.462C113.639 137.773 114.145 136.816 114.414 136.363C115.154 135.036 115.929 133.6 116.572 132.426C117.254 131.128 117.956 129.841 118.678 128.566C118.895 128.146 119.165 127.706 119.249 127.595C119.387 127.444 121.374 127.392 128.559 127.424L137.68 127.476L137.73 142.285C137.764 153.95 137.811 157.074 137.982 157.074C138.08 157.054 138.755 156.666 139.45 156.181C140.428 155.499 140.848 155.079 141.301 154.304C142.331 152.546 145.25 149.778 147.205 148.701C149.581 147.388 152.137 146.429 154.79 145.856C157.486 145.285 158.281 145.201 164.403 144.982C175.576 144.596 177.229 144.529 177.314 144.445C177.366 144.4 177.217 143.96 176.994 143.454C176.758 142.969 176.355 142.063 176.068 141.46C175.005 139.164 175.005 138.395 176.12 137.268C176.876 136.478 178.829 135.79 182.189 135.121C182.741 135.004 183.437 134.853 183.717 134.755C184.008 134.669 184.36 134.604 184.512 134.604C184.938 134.604 188.291 133.783 189 133.514C189.487 133.312 192.117 132.741 195.253 132.137C196.617 131.868 200.161 131.166 203.093 130.575C204.949 130.208 206.886 129.82 207.39 129.721C207.896 129.624 208.624 129.473 208.992 129.407C209.365 129.323 209.851 129.217 210.087 129.184C210.323 129.138 211.505 128.902 212.704 128.653C213.604 128.456 214.507 128.28 215.415 128.127C216.262 128.048 222.619 126.52 224.082 126.048C226.412 125.292 227.101 124.991 228.57 124.007C230.151 122.932 230.591 122.348 232.158 119.224C233.898 115.753 234.147 115.169 234.639 113.706C235.395 111.378 235.348 110.491 234.383 109.514C233.707 108.845 232.257 108.156 231.201 108.005C230.408 107.906 230.302 107.938 229.916 108.358C229.679 108.61 229.476 108.911 229.476 109.015C229.476 109.166 229.207 109.902 228.451 111.712C228.379 111.897 228.229 112.349 228.11 112.715C228.013 113.089 227.808 113.609 227.69 113.891C227.473 114.361 227.455 114.277 227.539 112.972C227.625 111.679 227.841 110.59 228.333 108.942C228.419 108.628 228.537 108.091 228.584 107.755L228.668 107.15L226.916 106.45C225.093 105.694 223.523 105.039 222.619 104.633C222.31 104.522 221.556 104.219 220.933 103.982C220.29 103.747 219.515 103.445 219.194 103.294C218.61 103.035 218.019 102.79 217.422 102.56C216.294 102.12 212.35 100.781 208.991 99.7246C206.748 99.0369 204.502 98.3594 202.254 97.6922C201.462 97.4909 200.675 97.2736 199.892 97.0405C199.623 96.9683 198.96 96.7852 198.454 96.6542C195.488 95.8346 194.715 95.6296 193.651 95.3273C193.064 95.1584 192.473 95.0016 191.88 94.857C191.559 94.7781 190.688 94.5748 189.945 94.3901C188.645 94.0693 183.2 92.8162 180.247 92.1394L178.141 91.6539C177.768 91.57 177.099 91.4373 176.626 91.3516C176.167 91.2676 175.208 91.0829 174.513 90.9317C173.824 90.8024 172.341 90.5118 171.226 90.3287C170.117 90.1322 168.785 89.897 168.28 89.8114C163.622 88.9716 163.308 88.9245 154.96 88.0007C149.817 87.4162 142.9 86.9241 141.216 87.0097C140.947 87.0097 139.452 87.0752 137.915 87.1609ZM118.423 95.4264C122.877 96.8709 127.207 98.8327 130.174 100.748C132.535 102.271 135.468 104.705 136.262 105.793L136.597 106.247L135.96 105.996C135.607 105.845 134.865 105.526 134.307 105.256C131.341 103.878 131.02 103.766 131.02 104.068C131.02 104.147 131.709 105.256 132.535 106.495C133.382 107.755 134.05 108.864 134.05 108.964C134.05 109.048 133.736 108.911 133.341 108.642C131.826 107.604 128.269 106.109 128.067 106.411C128.015 106.495 129.109 107.886 130.515 109.514C131.892 111.141 133.041 112.532 133.041 112.638C133.041 112.886 132.772 112.853 131.492 112.381C130.174 111.915 129.839 111.863 129.839 112.184C129.839 112.401 132.686 116.239 133.815 117.564C134.136 117.932 134.391 118.286 134.391 118.37C134.391 118.772 130.442 116.207 127.647 113.995C123.65 110.807 119.787 106.529 117.754 102.993C116.08 100.104 115.509 98.5505 115.509 96.8373C115.509 95.8346 115.556 95.6313 115.929 95.2752C116.147 95.0468 116.421 94.8553 116.52 94.8553C116.617 94.8553 117.464 95.1123 118.423 95.4264ZM171.652 101.398C173.266 101.686 175.477 102.068 176.54 102.257C177.603 102.442 178.902 102.657 179.407 102.743C179.913 102.842 180.633 102.973 181.008 103.057C181.377 103.143 182.105 103.294 182.61 103.411C184.276 103.781 184.683 103.865 187.412 104.501C190.345 105.19 190.988 105.321 191.88 105.504C192.641 105.655 193.395 105.944 193.395 106.075C193.395 106.129 192.844 106.45 192.169 106.798C190.785 107.486 190.496 107.538 184.8 107.755C180.924 107.92 178.85 107.873 176.96 107.57C173.147 106.982 171.18 105.912 169.645 103.596C169.108 102.808 168.753 102.572 167.519 102.257C167.065 102.12 166.371 101.935 166.004 101.817C165.629 101.7 164.992 101.515 164.586 101.398C163.372 101.083 164.062 100.899 166.509 100.899C168.194 100.899 169.376 101.011 171.652 101.398ZM191.932 124.828C191.794 124.861 191.65 124.861 191.512 124.828C191.395 124.775 191.479 124.743 191.716 124.743C191.946 124.743 192.031 124.776 191.934 124.827L191.932 124.828ZM191.205 125.025C191.205 125.109 191.008 125.227 190.751 125.28C190.227 125.411 188.173 126.003 187.498 126.218C187.261 126.303 186.5 126.54 185.812 126.738C184.073 127.242 179.861 128.613 178.732 129.053C176.606 129.859 171.614 132.504 170.912 133.213C169.862 134.236 169.539 135.338 169.697 137.451C169.743 138.343 169.862 139.467 169.966 139.95C170.169 141.008 170.05 141.296 169.645 140.772C169.239 140.253 168.379 138.376 168.128 137.451C167.991 137.038 167.841 136.48 167.756 136.211C167.453 135.259 167.571 134.13 168.044 133.448C168.681 132.471 170.977 130.916 173.673 129.624C174.953 129.001 178.678 127.726 182.105 126.723C182.793 126.522 183.554 126.285 183.791 126.219C186.218 125.398 191.205 124.61 191.205 125.025ZM137.883 126.152C137.829 126.199 137.68 126.219 137.561 126.165C137.423 126.12 137.477 126.068 137.66 126.068C137.85 126.048 137.949 126.102 137.883 126.152Z"
        fill="#F5F5F5" />
    <path
        d="M111.504 157.263V169H119.902C126.208 169 128.346 168.95 128.497 168.798C128.752 168.547 128.806 145.525 128.549 145.525C128.465 145.525 128.347 145.656 128.294 145.808C128.227 145.959 126.391 148.826 124.199 152.178C120.729 157.479 119.764 158.771 119.764 158.116C119.764 157.998 114.017 149.029 112.547 146.862C112.35 146.582 112.177 146.286 112.028 145.977C111.89 145.722 111.726 145.524 111.642 145.524C111.57 145.524 111.504 150.806 111.504 157.263Z"
        fill="#F5F5F5" />
</svg>