<svg xmlns="http://www.w3.org/2000/svg" width="256" height="256" fill="none" viewBox="0 0 256 256">
    <rect width="256" height="256" fill="#F4F2ED" rx="60"/>
    <g transform="translate(128, 128) scale(0.175) translate(-512, -512)">
        <path d="M578.844444 56.888889a465.92 465.92 0 1 1-303.957333 880.64c1.706667-11.377778 3.754667-22.812444 6.087111-32.199111 8.021333-31.516444 102.627556-65.308444 116.622222-71.68 14.051556-6.371556 54.897778-44.657778 85.504-57.400889 30.606222-12.743111 61.212444-14.051556 103.253334 2.56 42.097778 16.554667 72.817778 95.687111 72.817778 95.687111 16.782222-65.024-60.017778-114.801778-108.487112-155.648-48.469333-40.789333-71.452444-89.258667-75.264-178.517333-3.811556-89.315556 52.337778-156.842667 81.749334-205.312 29.411556-48.469333 50.858667-121.173333 24.632889-160.654223-26.168889-39.537778-26.055111-66.332444-23.665778-89.998222 1.080889-10.467556 10.524444-20.081778 20.707555-27.477333z m427.064889 180.565333l5.290667 0.227556c58.652444 378.311111-226.986667 630.784-226.986667 630.784v1.024c-0.455111 3.128889-4.494222 14.051556-34.872889 42.382222-37.376 34.816-102.513778 25.201778-102.513777 25.201778a477.184 477.184 0 0 0 97.223111-58.368s70.883556-52.224 137.898666-182.784c97.792-190.464 64-376.832 64-376.832 52.906667 193.080889-58.993778 395.832889-64.227555 405.162666l-0.113778 0.227556 9.557333-14.506667c159.516444-248.035556 114.744889-472.519111 114.744889-472.519111zM438.442667 67.697778c36.181333 0 72.248889 4.494222 107.292444 13.368889a31.914667 31.914667 0 0 0-0.284444 2.104889c-2.503111 25.031111-2.844444 55.239111 25.770666 98.304 13.141333 19.854222 13.539556 62.919111-6.940444 111.786666a981.617778 981.617778 0 0 0-113.095111-66.56c-76.515556-38.286222-168.96-68.835556-176.298667-66.332444-7.338667 2.56-14.961778 44.657778-6.030222 58.652444 8.931556 14.051556 122.424889 61.212444 87.950222 167.082667-34.417778 105.813333-26.737778 204.003556 57.457778 266.524444 36.465778 27.079111 80.213333 49.891556 117.987555 67.015111 3.299556 3.072 6.712889 6.087111 10.24 9.045334 6.485333 5.518222 13.368889 11.036444 20.650667 16.896 8.192 6.542222 16.497778 13.255111 24.632889 20.138666a181.304889 181.304889 0 0 0-42.894222-10.922666 105.130667 105.130667 0 0 0-50.346667-20.593778c-56.092444-7.623111-100.693333 2.56-135.168 20.423111-34.417778 17.863111-28.444444 20.423111-94.549333 14.051556-66.104889-6.428444-99.271111 21.617778-99.271111 21.617777s51.256889 58.311111 113.208889 94.151112a45.226667 45.226667 0 0 0-9.614223 16.099555A433.720889 433.720889 0 0 1 438.442667 67.697778z" fill="#A4C6F0">
        </path>
    </g>
</svg>