<svg version="1.1" xmlns="http://www.w3.org/2000/svg" width="256" height="256" viewBox="0 0 378 371" fill="none" xmlns:xlink="http://www.w3.org/1999/xlink">
<path d="M0 0 C0.83371124 0.00087616 1.66742249 0.00175232 2.52639771 0.00265503 C51.0629188 0.17026833 94.80622048 18.80510067 129.625 52.375 C130.45128906 53.138125 131.27757812 53.90125 132.12890625 54.6875 C144.12178586 66.08362316 153.72308337 79.89633289 161.625 94.375 C161.96869629 95.00196777 162.31239258 95.62893555 162.66650391 96.27490234 C177.18108835 123.11768849 184.07847346 152.30949928 184 182.75 C183.99912384 183.58371124 183.99824768 184.41742249 183.99734497 185.27639771 C183.82973167 233.8129188 165.19489933 277.55622048 131.625 312.375 C130.4803125 313.61443359 130.4803125 313.61443359 129.3125 314.87890625 C117.91637684 326.87178586 104.10366711 336.47308337 89.625 344.375 C88.68454834 344.89054443 88.68454834 344.89054443 87.72509766 345.41650391 C60.88231151 359.93108835 31.69050072 366.82847346 1.25 366.75 C-0.00056686 366.74868576 -0.00056686 366.74868576 -1.27639771 366.74734497 C-49.8129188 366.57973167 -93.55622048 347.94489933 -128.375 314.375 C-129.20128906 313.611875 -130.02757812 312.84875 -130.87890625 312.0625 C-142.87178586 300.66637684 -152.47308337 286.85366711 -160.375 272.375 C-160.89054443 271.43454834 -160.89054443 271.43454834 -161.41650391 270.47509766 C-175.93108835 243.63231151 -182.82847346 214.44050072 -182.75 184 C-182.74912384 183.16628876 -182.74824768 182.33257751 -182.74734497 181.47360229 C-182.57973167 132.9370812 -163.94489933 89.19377952 -130.375 54.375 C-129.611875 53.54871094 -128.84875 52.72242188 -128.0625 51.87109375 C-116.66637684 39.87821414 -102.85366711 30.27691663 -88.375 22.375 C-87.74803223 22.03130371 -87.12106445 21.68760742 -86.47509766 21.33349609 C-59.63231151 6.81891165 -30.44050072 -0.07847346 0 0 Z " fill="#6A1E9B" transform="translate(188.375,-0.375)"/>
<path d="M0 0 C1 2 1 2 0.22167969 4.47875977 C-0.20725586 5.53893311 -0.63619141 6.59910645 -1.078125 7.69140625 C-1.31591171 8.2864798 -1.55369843 8.88155334 -1.7986908 9.49465942 C-2.32648349 10.81346518 -2.85775632 12.13088187 -3.39193726 13.44711304 C-4.9038272 17.17438392 -6.38893052 20.91236577 -7.87890625 24.6484375 C-8.36856621 25.87305946 -8.36856621 25.87305946 -8.86811829 27.12242126 C-12.64606735 36.58457519 -16.31712672 46.08784718 -19.99041748 55.59100342 C-26.60177796 72.69262739 -33.24288756 89.78256237 -39.92080688 106.85830688 C-40.72027331 108.90258989 -41.51940942 110.9470021 -42.31820679 112.99154663 C-43.42204824 115.81638214 -44.52719114 118.64070449 -45.6328125 121.46484375 C-45.961035 122.30509094 -46.28925751 123.14533813 -46.62742615 124.01104736 C-48.88492793 129.76985585 -48.88492793 129.76985585 -50 132 C-49.0965535 131.99111755 -48.19310699 131.98223511 -47.26228333 131.9730835 C-38.7432457 131.89289613 -30.22433504 131.83201449 -21.7050066 131.79275131 C-17.32522784 131.77188694 -12.94576123 131.74359065 -8.56616211 131.69824219 C-4.33863449 131.65474288 -0.11140688 131.63085424 4.11632729 131.62049103 C5.72828201 131.61310694 7.34022053 131.59868733 8.95204735 131.57707977 C11.21212465 131.54799022 13.47096642 131.54404613 15.73120117 131.54589844 C17.01693527 131.53701599 18.30266937 131.52813354 19.62736511 131.51898193 C23.57479592 132.08197959 25.20193817 133.21730936 28 136 C29.67013268 139.34026535 29.69645309 142.4147806 29 146 C27.13418737 149.69206739 24.58725626 152.78604338 22 156 C21.51740723 156.60440918 21.03481445 157.20881836 20.53759766 157.83154297 C17.2388394 161.95779326 13.89997677 166.04962426 10.54101562 170.12695312 C8.4748286 172.6383262 6.42629835 175.1639603 4.375 177.6875 C1.10529055 181.68314494 -2.21880599 185.62891014 -5.5625 189.5625 C-9.35891086 194.02959065 -13.06855021 198.5503267 -16.7109375 203.14453125 C-21.53052889 209.15668365 -26.46431017 215.0765703 -31.36816406 221.02001953 C-34.92521442 225.33594988 -38.46207083 229.6683909 -42 234 C-47.92745959 241.25719387 -53.87677481 248.49596879 -59.83544922 255.72753906 C-64.56986563 261.4745482 -69.28979017 267.23312713 -74 273 C-78.13374677 278.0610892 -82.27013616 283.11957065 -86.43359375 288.15625 C-95.37029291 298.95527348 -95.37029291 298.95527348 -104 310 C-105 308 -105 308 -104.47094727 306.16821289 C-104.17244873 305.4436792 -103.8739502 304.71914551 -103.56640625 303.97265625 C-103.24736328 303.18052734 -102.92832031 302.38839844 -102.59960938 301.57226562 C-102.25736328 300.74404297 -101.91511719 299.91582031 -101.5625 299.0625 C-100.89250988 297.43027644 -100.22694793 295.79622629 -99.56640625 294.16015625 C-99.11696655 293.07166382 -99.11696655 293.07166382 -98.65844727 291.96118164 C-97.84085978 289.87079577 -97.84085978 289.87079577 -98 287 C-99.06476563 286.5875 -100.12953125 286.175 -101.2265625 285.75 C-120.18920883 278.26514968 -136.12831553 268.03704911 -151 254 C-151.67546875 253.37738281 -152.3509375 252.75476563 -153.046875 252.11328125 C-178.01668378 228.29208367 -191.44315414 192.56998272 -192.28320312 158.49072266 C-192.63793322 126.06247938 -182.55672535 92.69447176 -161 68 C-159.89978516 66.73542969 -159.89978516 66.73542969 -158.77734375 65.4453125 C-156.55040097 62.9318848 -154.28541093 60.46027333 -152 58 C-151.39929688 57.33355469 -150.79859375 56.66710937 -150.1796875 55.98046875 C-127.04244398 31.39088743 -91.39396151 17.86288636 -58.12109375 16.81640625 C-44.13892104 16.55243998 -30.66832656 17.98046597 -17 21 C-15.1004337 18.81565024 -13.20532789 16.62767717 -11.3125 14.4375 C-10.78205078 13.82841797 -10.25160156 13.21933594 -9.70507812 12.59179688 C-6.2155603 8.54566884 -3.04571726 4.39057943 0 0 Z " fill="#762EA4" transform="translate(236,27)"/>
<path d="M0 0 C5.71285238 0.52342888 10.11492659 2.11782447 15.25 4.625 C15.99870361 4.9861792 16.74740723 5.3473584 17.51879883 5.71948242 C51.94149878 22.61749424 76.22087469 52.20932663 89 88 C100.6051289 123.79530336 95.9500252 162.68860067 79.03417969 195.89599609 C74.819757 203.92356793 69.96536129 211.1663347 64 218 C63.26652344 218.84304688 62.53304687 219.68609375 61.77734375 220.5546875 C59.55040097 223.0681152 57.28541093 225.53972667 55 228 C54.39929688 228.66644531 53.79859375 229.33289063 53.1796875 230.01953125 C30.04244398 254.60911257 -5.60603849 268.13711364 -38.87890625 269.18359375 C-50.13842483 269.39504011 -61.0169038 268.52266373 -72.12304688 266.64013672 C-76.81991924 265.8480165 -76.81991924 265.8480165 -81 268 C-79.36831478 264.14664168 -76.785109 261.23971748 -74.0625 258.125 C-70.10333148 253.52786739 -66.27582611 248.86020101 -62.5625 244.0625 C-58.35991891 238.64597356 -53.9748897 233.42616655 -49.48071289 228.25024414 C-46.0307012 224.25651996 -42.73147816 220.17197865 -39.5 216 C-35.24657401 210.50942368 -30.80988644 205.21321567 -26.26513672 199.9621582 C-22.8301692 195.98779257 -19.51169188 191.9418534 -16.25390625 187.8203125 C-12.62364056 183.27776168 -8.91147152 178.80285788 -5.21020508 174.31811523 C-1.89858245 170.30533328 1.40284594 166.28492577 4.6875 162.25 C7.41428097 158.90830724 10.17930274 155.60463647 12.97900391 152.32421875 C18.76733418 145.53776087 24.40353804 138.64869457 29.81347656 131.55566406 C30.8752223 130.16359742 31.94857606 128.7804022 33.0234375 127.3984375 C35.56575458 123.92513107 37.36351293 121.10762616 37.6875 116.75 C36.83999136 112.12722557 35.64867854 110.89108776 32 108 C28.56146015 107.24280172 28.56146015 107.24280172 24.73120117 107.34057617 C24.01846039 107.33009247 23.3057196 107.31960876 22.57138062 107.30880737 C20.22812988 107.28012905 17.88636302 107.28633961 15.54296875 107.29296875 C13.91341812 107.27984918 12.28388374 107.26454415 10.65437317 107.24714661 C6.3750449 107.20731331 2.09614219 107.1971073 -2.18334961 107.19311523 C-6.55400488 107.18378056 -10.92441044 107.14636498 -15.29492188 107.11132812 C-23.86328586 107.04676936 -32.43140418 107.01351536 -41 107 C-39.08473097 101.12681925 -37.04376265 95.32150939 -34.83984375 89.55078125 C-34.53762405 88.75560593 -34.23540436 87.9604306 -33.92402649 87.14115906 C-32.93078283 84.53073658 -31.93437506 81.92153769 -30.9375 79.3125 C-30.59384399 78.41136475 -30.25018799 77.51022949 -29.89611816 76.58178711 C-22.62932682 57.53243053 -15.21513783 38.54102332 -7.765625 19.5625 C-7.44330399 18.74118088 -7.12098297 17.91986176 -6.78889465 17.07365417 C-4.54837868 11.37340035 -2.28020441 5.68448755 0 0 Z " fill="#762EA4" transform="translate(227,52)"/>
<path d="M0 0 C1 2 1 2 0.22167969 4.47875977 C-0.20725586 5.53893311 -0.63619141 6.59910645 -1.078125 7.69140625 C-1.31591171 8.2864798 -1.55369843 8.88155334 -1.7986908 9.49465942 C-2.32648349 10.81346518 -2.85775632 12.13088187 -3.39193726 13.44711304 C-4.9038272 17.17438392 -6.38893052 20.91236577 -7.87890625 24.6484375 C-8.20534622 25.46485214 -8.53178619 26.28126678 -8.86811829 27.12242126 C-12.64606735 36.58457519 -16.31712672 46.08784718 -19.99041748 55.59100342 C-26.60177796 72.69262739 -33.24288756 89.78256237 -39.92080688 106.85830688 C-40.72027331 108.90258989 -41.51940942 110.9470021 -42.31820679 112.99154663 C-43.42204824 115.81638214 -44.52719114 118.64070449 -45.6328125 121.46484375 C-45.961035 122.30509094 -46.28925751 123.14533813 -46.62742615 124.01104736 C-48.88492793 129.76985585 -48.88492793 129.76985585 -50 132 C-49.0965535 131.99111755 -48.19310699 131.98223511 -47.26228333 131.9730835 C-38.7432457 131.89289613 -30.22433504 131.83201449 -21.7050066 131.79275131 C-17.32522784 131.77188694 -12.94576123 131.74359065 -8.56616211 131.69824219 C-4.33863449 131.65474288 -0.11140688 131.63085424 4.11632729 131.62049103 C5.72828201 131.61310694 7.34022053 131.59868733 8.95204735 131.57707977 C11.21212465 131.54799022 13.47096642 131.54404613 15.73120117 131.54589844 C17.01693527 131.53701599 18.30266937 131.52813354 19.62736511 131.51898193 C23.57479592 132.08197959 25.20193817 133.21730936 28 136 C29.67013268 139.34026535 29.69645309 142.4147806 29 146 C27.13418737 149.69206739 24.58725626 152.78604338 22 156 C21.51740723 156.60440918 21.03481445 157.20881836 20.53759766 157.83154297 C17.2388394 161.95779326 13.89997677 166.04962426 10.54101562 170.12695312 C8.4748286 172.6383262 6.42629835 175.1639603 4.375 177.6875 C1.10529055 181.68314494 -2.21880599 185.62891014 -5.5625 189.5625 C-9.35891086 194.02959065 -13.06855021 198.5503267 -16.7109375 203.14453125 C-21.53052889 209.15668365 -26.46431017 215.0765703 -31.36816406 221.02001953 C-34.92521442 225.33594988 -38.46207083 229.6683909 -42 234 C-47.92745959 241.25719387 -53.87677481 248.49596879 -59.83544922 255.72753906 C-64.56986563 261.4745482 -69.28979017 267.23312713 -74 273 C-78.13374677 278.0610892 -82.27013616 283.11957065 -86.43359375 288.15625 C-95.37029291 298.95527348 -95.37029291 298.95527348 -104 310 C-105 308 -105 308 -103.94628906 304.78686523 C-103.39394622 303.37433528 -102.83296437 301.96516743 -102.265625 300.55859375 C-101.96093292 299.78513611 -101.65624084 299.01167847 -101.34231567 298.21478271 C-100.67306115 296.51850779 -100.00024789 294.82363383 -99.32440186 293.12997437 C-98.23511905 290.40020801 -97.15465898 287.66710198 -96.07666016 284.93286133 C-94.92711662 282.01730143 -93.77703557 279.10196665 -92.6242981 276.18766785 C-88.56034261 265.91042538 -84.56690388 255.60620996 -80.57919312 245.29919434 C-78.58513588 240.14645219 -76.58716027 234.99522943 -74.58984375 229.84375 C-71.98436047 223.12215083 -69.38042841 216.3999542 -66.77832031 209.67704773 C-65.47011427 206.29828838 -64.16035628 202.92013228 -62.85015869 199.54214478 C-62.2481669 197.98901562 -61.64687364 196.43561551 -61.04632568 194.88192749 C-60.22926815 192.76825033 -59.40984859 190.65550389 -58.58984375 188.54296875 C-58.13472412 187.36758545 -57.67960449 186.19220215 -57.21069336 184.98120117 C-56.23475672 182.57806299 -55.17572067 180.30693721 -54 178 C-54.9034465 178.01110306 -55.80689301 178.02220612 -56.73771667 178.03364563 C-65.25672358 178.13387948 -73.77553212 178.20998112 -82.2949934 178.25906086 C-86.67486436 178.28514188 -91.05424762 178.3205118 -95.43383789 178.37719727 C-99.66138302 178.43157163 -103.88845943 178.46143179 -108.11632729 178.47438622 C-109.72830903 178.48361648 -111.34026545 178.50164159 -112.95204735 178.52865028 C-115.21232664 178.56501547 -117.47067585 178.56994264 -119.73120117 178.56762695 C-121.01693527 178.57873001 -122.30266937 178.58983307 -123.62736511 178.60127258 C-127.87611012 177.84380729 -129.31814552 176.30088587 -132 173 C-133.47258776 169.91513236 -133.5909562 167.35746799 -133 164 C-130.84997343 159.89936961 -127.99162 156.51654711 -125 153 C-124.09832968 151.92109799 -123.1973047 150.84165637 -122.296875 149.76171875 C-120.43053187 147.53600949 -118.54861193 145.32470802 -116.65625 143.12109375 C-114.37757223 140.45966932 -112.17368698 137.74828866 -110 135 C-106.97499012 131.18023192 -103.85231169 127.45397319 -100.6875 123.75 C-96.86447224 119.27140724 -93.17148636 114.71506434 -89.5625 110.0625 C-85.28991888 104.5580041 -80.83665186 99.24325106 -76.27636719 93.97558594 C-72.72450814 89.86693644 -69.29119757 85.68225808 -65.921875 81.421875 C-62.33623264 76.90338259 -58.65876306 72.45931292 -55 68 C-53.49971683 66.16689838 -51.99971592 64.33356573 -50.5 62.5 C-37 46 -37 46 -23.5 29.5 C-22.75621094 28.58992188 -22.01242188 27.67984375 -21.24609375 26.7421875 C-19.76308949 24.93163273 -18.27618081 23.12426814 -16.78515625 21.3203125 C-11.02527559 14.33557146 -5.48413172 7.20150073 0 0 Z " fill="#FEFDFE" transform="translate(236,27)"/>
</svg>
