<svg width="256" height="256" viewBox="0 0 256 256" fill="none" xmlns="http://www.w3.org/2000/svg">
<g clip-path="url(#clip0_1_5)">
<path d="M196 0H60C26.8629 0 0 26.8629 0 60V196C0 229.137 26.8629 256 60 256H196C229.137 256 256 229.137 256 196V60C256 26.8629 229.137 0 196 0Z" fill="#FEF200"/>
<g clip-path="url(#clip1_1_5)">
<mask id="mask0_1_5" style="mask-type:luminance" maskUnits="userSpaceOnUse" x="-827" y="-150" width="1924" height="1923">
<path d="M-826.057 1772.24H1096.08V-149.817H-826.057V1772.24Z" fill="white"/>
</mask>
<g mask="url(#mask0_1_5)">
<path d="M132.336 164.829C128.413 164.568 123.889 163.88 120.321 162.847C119.653 162.653 116.885 161.636 116.181 161.313C103.76 155.559 95.1058 142.999 95.1058 128.427C95.1058 108.441 111.367 92.1608 131.367 92.1608C151.19 92.1608 167.342 108.163 167.619 127.924H180.719C180.442 100.943 158.417 79.0775 131.367 79.0775C104.157 79.0775 82.009 101.211 82.009 128.427C82.009 147.19 92.5614 163.509 108.012 171.846C110.802 173.321 114.806 174.842 116.165 175.259C120.57 176.57 125.975 177.441 130.786 177.806C132.42 177.929 138.126 177.994 139.789 178H230V164.952H139.94C138.742 164.952 133.508 164.907 132.336 164.829ZM139.94 144.342C138.988 144.342 134.005 144.31 133.085 144.233C131.526 144.1 129.265 143.868 127.812 143.535C126.172 143.096 124.632 142.515 123.937 142.134C119.071 139.502 115.755 134.356 115.755 128.427C115.755 119.803 122.74 112.809 131.367 112.809C139.814 112.809 146.682 119.529 146.957 127.924H159.543C159.279 112.587 146.776 100.227 131.367 100.227C115.787 100.227 103.159 112.851 103.159 128.427C103.159 139.412 109.455 148.898 118.626 153.545C120.037 154.371 122.691 155.237 123.447 155.434C126.036 156.115 129.514 156.58 132.336 156.786C133.379 156.874 138.487 156.912 139.566 156.919V156.938H229.997V144.342H139.94ZM73.9366 177.952H60.7494V92.1899H41.4788V79H73.9366V177.952ZM27 98.78V111.463H41.4788V177.952H54.1493V98.78H27Z" fill="#D91920"/>
<path d="M206.698 79.9211C201.949 79.9211 198.009 83.7086 198.009 88.4614C198.009 93.2143 201.949 97.1535 206.698 97.1535C211.594 97.1535 215.381 93.2143 215.381 88.4614C215.381 83.7086 211.594 79.9211 206.698 79.9211ZM206.698 95.7522C202.775 95.7522 199.394 92.6686 199.394 88.4614C199.394 84.4673 202.775 81.3063 206.698 81.3063C210.618 81.3063 213.983 84.4673 213.983 88.4614C213.983 92.6686 210.618 95.7522 206.698 95.7522Z" fill="#D91920"/>
<path d="M210.007 90.8018C210.007 89.8428 209.865 88.9517 208.767 88.5997C210.142 88.1218 210.278 87.221 210.278 86.6753C210.278 84.47 208.276 84.1891 207.453 84.1891H203.665V92.7294H205.244V89.2261H206.487C208.276 89.2261 208.425 90.0495 208.425 90.8018C208.425 92.258 208.425 92.5325 208.767 92.7294H210.349C210.007 92.3839 210.142 92.1159 210.007 90.8018ZM207.107 87.9798H205.244V85.2901H206.839C207.943 85.2901 208.693 85.6388 208.693 86.6753C208.693 87.221 208.425 87.9798 207.107 87.9798Z" fill="#D91920"/>
</g>
</g>
</g>
<defs>
<clipPath id="clip0_1_5">
<rect width="256" height="256" fill="white"/>
</clipPath>
<clipPath id="clip1_1_5">
<rect width="203" height="99" fill="white" transform="translate(27 79)"/>
</clipPath>
</defs>
</svg>
