<svg width="256" height="256" title="8th" viewBox="0 0 256 256" fill="none" xmlns="http://www.w3.org/2000/svg" id="8th">
<style>
#\38 th {
    rect {fill: #15191C}

    @media (prefers-color-scheme: light) {
        rect {fill: #F4F2ED}
    }
}
</style>
<rect width="256" height="256" rx="40" fill="#15191C"/>
<path d="M147.187 47.9793C152.205 51.2514 157.327 54.3209 162.485 57.3627C179.906 67.6376 179.906 67.6376 186.905 72.1774C188.536 73.2125 188.536 73.2125 190.324 74.059C194.149 76.0885 196.186 77.7341 197.534 81.9228C197.943 83.5625 198.321 85.2102 198.672 86.8632C198.885 87.7613 199.101 88.6589 199.319 89.5558C199.886 91.9177 200.419 94.2861 200.943 96.6577C201.468 99.0011 202.023 101.337 202.576 103.674C203.336 106.893 204.085 110.115 204.82 113.341C205.746 117.406 206.709 121.459 207.736 125.501C207.845 125.93 207.954 126.359 208.066 126.801C208.581 128.826 209.102 130.849 209.63 132.87C209.812 133.581 209.994 134.292 210.182 135.024C210.424 135.951 210.424 135.951 210.671 136.897C211.39 140.507 210.967 142.414 209.049 145.549C208.623 146.255 208.197 146.962 207.758 147.689C207.413 148.249 207.413 148.249 207.061 148.82C206.085 150.406 205.124 152.002 204.162 153.597C203.663 154.425 203.163 155.252 202.662 156.079C200.164 160.208 197.756 164.386 195.357 168.574C191.852 174.675 188.306 180.75 184.714 186.8C184.386 187.353 184.058 187.905 183.72 188.474C183.245 189.252 183.245 189.252 182.761 190.045C181.914 191.45 181.914 191.45 181.407 192.839C180.906 194.056 180.906 194.056 179.287 196.13C177.67 196.8 177.67 196.8 175.638 197.385C174.863 197.609 174.089 197.832 173.291 198.063C172.425 198.302 171.56 198.539 170.694 198.774C170.249 198.895 169.804 199.016 169.345 199.141C165.809 200.095 162.263 201.012 158.716 201.924C157.582 202.217 156.448 202.509 155.314 202.802C152.955 203.41 150.595 204.016 148.236 204.622C145.217 205.396 142.201 206.178 139.184 206.96C136.85 207.564 134.515 208.164 132.18 208.763C131.067 209.05 129.954 209.337 128.842 209.627C127.29 210.03 125.737 210.427 124.184 210.823C123.729 210.942 123.275 211.062 122.807 211.185C118.658 212.229 115.7 212.575 111.936 210.349C111.548 210.108 111.16 209.867 110.761 209.619C110.344 209.369 109.927 209.119 109.497 208.861C108.133 208.041 106.777 207.209 105.421 206.376C104.47 205.8 103.518 205.225 102.566 204.65C99.7098 202.924 96.864 201.18 94.0194 199.435C93.2108 198.94 92.4021 198.446 91.5933 197.951C88.7154 196.19 85.8386 194.428 82.9741 192.645C79.4998 190.483 76.0089 188.369 72.4598 186.331C71.4061 185.717 71.4061 185.717 70.3312 185.091C69.0064 184.322 67.6748 183.564 66.3352 182.821C65.4496 182.302 65.4496 182.302 64.5461 181.773C64.0289 181.481 63.5118 181.188 62.979 180.886C59.9007 177.959 59.1374 172.661 58.1382 168.621C58.0015 168.079 57.8648 167.536 57.7239 166.977C57.2774 165.202 56.8357 163.425 56.3948 161.649C56.0848 160.406 55.7749 159.163 55.4649 157.921C54.8181 155.324 54.1741 152.727 53.5317 150.13C52.7086 146.804 51.8754 143.481 51.0398 140.159C50.3972 137.597 49.7615 135.034 49.1279 132.469C48.8236 131.243 48.5169 130.018 48.2075 128.793C47.776 127.082 47.3543 125.368 46.935 123.654C46.7414 122.9 46.7414 122.9 46.5439 122.13C45.3951 117.347 46.0663 114.411 48.5559 110.257C48.7737 109.889 48.9916 109.522 49.2161 109.143C49.9336 107.935 50.6597 106.732 51.3857 105.529C51.8935 104.677 52.4006 103.825 52.9071 102.973C53.9617 101.199 55.0191 99.4267 56.0785 97.6557C58.3259 93.8928 60.5348 90.1075 62.7456 86.323C63.9046 84.3405 65.0671 82.36 66.2295 80.3795C67.5564 78.1187 68.8827 75.8575 70.2067 73.5951C71.4086 71.5416 72.613 69.4897 73.818 67.438C74.1735 66.8293 74.529 66.2205 74.8953 65.5933C75.2206 65.0407 75.5458 64.488 75.881 63.9186C76.1625 63.4383 76.4441 62.958 76.7341 62.4631C78.6217 59.5326 81.1628 59.2159 84.3542 58.4041C84.9272 58.2545 85.5002 58.105 86.0905 57.9509C87.9912 57.4564 89.8936 56.969 91.7963 56.4822C93.1171 56.1418 94.4379 55.8012 95.7586 55.4605C98.5311 54.7466 101.305 54.0365 104.079 53.3287C107.63 52.4219 111.178 51.503 114.725 50.5809C117.454 49.8735 120.185 49.174 122.916 48.4767C124.225 48.1414 125.532 47.8032 126.84 47.4622C128.671 46.9854 130.505 46.5196 132.34 46.0565C132.878 45.914 133.415 45.7716 133.969 45.6248C139.124 44.3478 142.776 44.9783 147.187 47.9793Z" fill="#98CA23"/>
<path d="M144.915 70.5366C146.007 70.9788 146.007 70.9788 147.12 71.43C154.312 74.6727 161.135 80.3069 164.249 87.7024C167.043 95.8516 166.723 102.9 163.423 110.859C159.936 117.482 155.149 121.931 148.22 124.74C145.773 125.485 143.504 125.45 140.949 125.401C141.774 127.05 142.348 127.15 144.006 127.88C150.68 131.151 154.952 136.775 157.391 143.786C159.964 152.718 158.827 161.463 154.995 169.896C150.375 178.135 143.873 183.335 134.941 186.3C130.645 187.404 126.229 187.176 121.835 186.946C120.62 186.884 119.403 186.855 118.187 186.832C106.026 186.36 94.8505 181.38 86.0875 172.994C79.9299 166.057 78.9093 157.337 79.2272 148.415C79.706 140.743 82.5935 133.445 88.1376 128.004C93.6438 123.49 99.7008 121.06 106.578 119.452C106.202 119.227 105.827 119.002 105.439 118.77C99.0768 114.776 94.1569 109.417 92.2868 101.948C91.1086 94.1128 92.2052 85.7753 96.6633 79.1298C108.419 64.8055 128.541 63.6745 144.915 70.5366Z" fill="#FCFDF9"/>
<path d="M136.116 134.738C139.509 137.277 142.253 141.691 142.932 145.893C143.471 154.393 142.908 160.993 137.407 167.869C133.316 172.243 128.587 174.06 122.664 174.425C115.133 174.639 107.086 172.945 101.264 167.848C100.042 166.54 99.0023 165.213 97.9853 163.74C97.6982 163.329 97.411 162.919 97.1152 162.495C94.0481 157.045 94.406 149.353 95.9946 143.476C98.3774 137.515 101.614 133.757 107.239 130.689C117.01 126.585 127.361 129.309 136.116 134.738Z" fill="#BDE810"/>
<path d="M143.054 84.1262C147.177 87.3983 149.766 91.294 150.389 96.5667C150.604 102.275 149.219 107.706 145.576 112.181C140.523 116.904 135.838 118.354 129.075 118.272C122.968 117.84 116.402 116.126 112.011 111.638C108.257 106.947 106.788 102.434 106.971 96.4221C107.604 91.4911 109.411 87.1452 113.064 83.7156C121.54 77.3033 134.428 78.2884 143.054 84.1262Z" fill="#B9E512"/>
<path d="M178.626 116.147C180.153 116.147 181.679 116.147 183.253 116.147C183.034 119.419 182.816 122.691 182.592 126.062C183.028 125.844 183.464 125.626 183.914 125.401C188.191 125.168 188.191 125.168 190.523 126.723C190.43 128.087 190.333 129.45 190.234 130.813C190.154 131.952 190.154 131.952 190.072 133.114C189.893 134.996 189.614 136.779 189.201 138.621C189.856 138.621 190.51 138.621 191.184 138.621C191.184 139.058 191.184 139.494 191.184 139.943C189.003 139.725 186.822 139.507 184.575 139.282C184.575 138.846 184.575 138.41 184.575 137.96C184.892 137.697 185.21 137.434 185.538 137.162C187.052 135.403 186.899 133.839 187.012 131.557C187.055 130.777 187.099 129.997 187.144 129.194C187.168 128.597 187.193 127.999 187.218 127.384C184.95 127.559 184.95 127.559 182.592 128.045C181.144 130.216 181.036 131.238 180.856 133.788C180.807 134.445 180.758 135.102 180.707 135.778C180.674 136.28 180.642 136.782 180.609 137.299C181.045 137.299 181.481 137.299 181.931 137.299C181.931 137.736 181.931 138.172 181.931 138.621C179.472 138.286 177.479 137.884 175.321 136.638C175.975 136.202 176.629 135.766 177.304 135.316C177.826 133.468 177.826 133.468 178.076 131.283C178.189 130.482 178.301 129.681 178.418 128.856C178.527 128.016 178.637 127.176 178.75 126.31C178.867 125.465 178.984 124.619 179.105 123.748C179.393 121.656 179.674 119.563 179.948 117.469C179.511 117.469 179.075 117.469 178.626 117.469C178.626 117.033 178.626 116.596 178.626 116.147Z" fill="#F3F9E4"/>
<path d="M172.677 118.13C172.895 119.657 173.113 121.184 173.338 122.757C174.21 122.975 175.083 123.193 175.982 123.418C175.982 123.854 175.982 124.291 175.982 124.74C174.455 124.74 172.928 124.74 171.355 124.74C171.137 128.23 170.919 131.72 170.694 135.316C171.784 135.098 172.875 134.88 173.999 134.655C173.999 135.092 173.999 135.528 173.999 135.977C172.193 136.88 170.706 136.723 168.711 136.638C168.05 135.977 168.05 135.977 167.926 133.375C167.953 129.954 168.595 126.739 169.372 123.418C168.717 123.418 168.063 123.418 167.389 123.418C167.389 122.982 167.389 122.545 167.389 122.096C168.261 122.096 169.134 122.096 170.033 122.096C170.033 121.005 170.033 119.915 170.033 118.791C172.016 118.13 172.016 118.13 172.677 118.13Z" fill="#F6FAE6"/>
</svg>