<svg width="256" height="256" title="Adobe Dreamweaver" viewBox="0 0 256 256" fill="none" xmlns="http://www.w3.org/2000/svg">
<rect width="256" height="256" rx="40" fill="#470137"/>
<path d="M36.0119 80.6787C35.9187 80.1191 36.385 79.5596 36.9445 79.4663H37.0378C38.4367 79.373 40.5816 79.2798 43.2862 79.2798C46.0839 79.1865 49.2547 79.1865 52.9851 79.0933C56.7155 79 60.6323 79 64.829 79C76.2066 79 85.719 81.0517 93.1798 85.1551C100.361 88.9787 106.236 94.854 110.06 102.035C113.79 109.216 115.655 117.423 115.655 126.749C115.748 133.277 114.816 139.712 112.764 145.867C110.992 151.089 108.288 155.939 104.744 160.229C101.48 164.146 97.563 167.503 93.273 170.207C89.0764 172.819 84.4134 174.777 79.5639 176.083C74.901 177.295 70.0515 177.948 65.202 177.948H54.6638C50.9334 177.948 47.3896 177.948 44.2187 177.855C40.9547 177.761 38.5299 177.761 36.9445 177.668C36.2917 177.668 36.0119 177.109 36.0119 176.176V80.6787ZM55.6896 97.0923V159.296C56.7155 159.296 57.6481 159.296 58.5806 159.389C59.42 159.483 60.3526 159.483 61.1919 159.576C62.1245 159.669 63.1503 159.669 64.2695 159.669C68.5594 159.762 72.8493 159.016 76.9527 157.524C80.6831 156.219 83.9471 154.074 86.7449 151.183C89.5427 148.198 91.6876 144.654 92.9933 140.831C94.4854 136.354 95.2315 131.598 95.2315 126.842C95.3247 122.365 94.5787 117.889 93.0865 113.692C90.4753 106.418 84.5999 100.823 77.1392 98.5844C73.1291 97.372 69.0257 96.7192 64.829 96.8125C62.9638 96.8125 61.3784 96.8125 60.0728 96.9057C58.7672 96.9057 57.275 96.999 55.6896 97.0923Z" fill="#FF61F6"/>
<path d="M199.402 176.736H181.962C181.589 176.829 181.123 176.642 180.843 176.363C180.564 175.989 180.377 175.616 180.284 175.243C178.512 167.783 177.02 161.068 175.807 155.379C174.595 149.597 173.569 144.748 172.823 140.738C172.077 136.727 171.424 133.37 170.865 130.572C170.398 127.775 169.932 125.443 169.652 123.485H169.559C168.626 127.588 167.787 131.598 166.948 135.422C166.202 139.245 165.269 143.162 164.336 147.079C163.404 150.996 162.378 155.286 161.166 159.949C160.047 164.612 158.741 169.741 157.342 175.243C157.156 176.269 156.689 176.736 155.85 176.736H138.41C137.944 176.829 137.478 176.642 137.105 176.456C136.825 176.176 136.639 175.803 136.452 175.43L118.266 103.341C117.987 102.501 118.36 102.128 119.386 102.128H137.012C137.851 102.128 138.317 102.408 138.41 103.061C140.276 111.268 141.861 118.355 143.073 124.324C144.286 130.293 145.312 135.328 145.964 139.525C146.617 143.722 147.27 147.172 147.736 149.784C148.203 152.395 148.576 154.633 148.855 156.312H149.135C149.322 154.82 149.508 153.421 149.788 151.929C150.161 150.157 150.627 147.825 151.187 144.934C151.746 142.043 152.399 138.686 153.239 134.769C154.078 130.852 155.011 126.376 156.13 121.153C157.156 116.024 158.648 110.149 160.42 103.527C160.42 103.154 160.606 102.688 160.793 102.315C160.886 102.128 161.259 102.035 161.818 102.035H180.097C180.657 102.035 180.937 102.408 181.03 103.061C182.615 109.869 183.921 115.837 185.04 120.967C186.066 126.096 186.998 130.666 187.838 134.676C188.584 138.593 189.237 142.043 189.61 144.841C189.983 147.732 190.449 150.063 190.822 152.022C191.102 153.607 191.382 155.193 191.475 156.778H191.755C192.221 154.913 192.594 152.675 192.967 150.157C193.34 147.639 193.806 144.841 194.459 141.67C195.019 138.499 195.672 135.049 196.418 131.225C197.07 127.401 198.003 123.205 199.029 118.449C200.055 113.786 201.174 108.656 202.479 103.154C202.666 102.315 203.039 101.942 203.692 101.942H220.012C220.851 101.942 221.131 102.408 220.945 103.247L200.801 175.15C200.708 175.523 200.521 175.896 200.241 176.176C200.241 176.642 199.868 176.829 199.402 176.736Z" fill="#FF61F6"/>
</svg>