<svg width="256" height="256" title="Adobe Lightroom" viewBox="0 0 256 256" fill="none" xmlns="http://www.w3.org/2000/svg">
<rect width="256" height="256" rx="40" fill="#001E36"/>
<path d="M128.551 189.574H54.8641C53.558 189.574 53.0138 188.921 53.0138 187.506V68.6493C52.905 67.8874 53.4492 67.1255 54.3199 67.0167C54.4288 67.0167 54.5376 67.0167 54.7553 67.0167H77.5036C78.0478 66.9078 78.8097 67.3432 78.8097 67.9963C78.8097 68.1051 78.8097 68.214 78.8097 68.3228V165.955H132.578C133.776 165.955 134.102 166.5 133.884 167.588L130.51 187.833C130.51 188.377 130.184 188.921 129.857 189.248C129.422 189.465 128.987 189.574 128.551 189.574Z" fill="#31A8FF"/>
<path d="M147.163 96.5132H167.517C168.714 96.5132 169.585 97.2751 169.912 98.3636C170.347 99.1255 170.674 100.105 170.891 101.085C171.109 102.282 171.327 103.479 171.435 104.676C171.544 105.983 171.653 107.398 171.653 108.813C175.136 104.785 179.381 101.411 184.061 98.7989C189.395 95.8602 195.381 94.4452 201.367 94.6629C202.129 94.554 202.891 95.0983 203 95.969C203 96.0779 203 96.1867 203 96.4044V119.153C203 120.132 202.456 120.459 201.15 120.459C193.639 120.023 186.02 121.438 179.163 124.377C176.878 125.466 174.592 126.772 172.85 128.731V188.051C172.85 189.248 172.415 189.683 171.327 189.683H148.687C147.708 189.792 146.946 189.248 146.837 188.268C146.837 188.159 146.837 187.942 146.837 187.833V123.398C146.837 120.568 146.837 117.738 146.728 114.69C146.619 111.642 146.619 108.595 146.51 105.656C146.401 103.044 146.184 100.54 145.857 97.9282C145.748 97.384 146.075 96.7309 146.619 96.6221C146.837 96.4044 146.946 96.4044 147.163 96.5132Z" fill="#31A8FF"/>
</svg>