<svg width="256" height="256" title="Airflow" viewBox="0 0 256 256" fill="none" xmlns="http://www.w3.org/2000/svg" id="airflow">
<style>
#airflow {
    rect {fill: #15191C}

    @media (prefers-color-scheme: light) {
        rect {fill: #F4F2ED}
    }
}
</style>
<rect width="256" height="256" rx="40" fill="#15191C"/>
<path d="M55.4179 202.399L127.236 128.782C127.457 128.563 127.595 128.273 127.624 127.963C127.653 127.653 127.573 127.342 127.396 127.085C123.029 120.988 114.97 119.931 111.984 115.834C103.137 103.698 100.893 96.829 97.0913 97.2545C96.826 97.2926 96.582 97.4214 96.4008 97.6188L70.4581 124.214C55.5324 139.501 53.3873 173.197 53 201.415C52.9988 201.696 53.0814 201.971 53.2376 202.204C53.3938 202.437 53.6164 202.619 53.8765 202.724C54.1366 202.83 54.4222 202.856 54.697 202.798C54.9717 202.74 55.2228 202.601 55.4179 202.399Z" fill="#017CEE"/>
<path d="M202.399 200.582L128.782 128.759C128.563 128.537 128.273 128.399 127.962 128.37C127.651 128.34 127.34 128.421 127.083 128.599C120.986 132.968 119.928 141.025 115.831 144.011C103.696 152.857 96.8264 155.102 97.2519 158.903C97.2906 159.168 97.4192 159.411 97.6161 159.591L124.211 185.534C139.498 200.46 173.195 202.605 201.413 202.992C201.692 202.993 201.965 202.91 202.197 202.754C202.429 202.598 202.609 202.377 202.715 202.118C202.821 201.86 202.847 201.576 202.791 201.302C202.735 201.028 202.598 200.778 202.399 200.582Z" fill="#00AD46"/>
<path d="M124.212 185.542C115.854 177.389 111.981 161.26 127.998 128.003C101.961 139.639 92.8364 154.934 97.3232 159.314L124.212 185.542Z" fill="#04D659"/>
<path d="M200.579 53.6039L128.764 127.22C128.542 127.439 128.404 127.729 128.375 128.04C128.346 128.35 128.427 128.661 128.604 128.917C132.974 135.015 141.027 136.072 144.016 140.169C152.862 152.304 155.11 159.174 158.908 158.748C159.174 158.71 159.418 158.582 159.599 158.384L185.542 131.789C200.467 116.501 202.613 82.8054 203 54.5874C203.001 54.3066 202.917 54.0321 202.761 53.7991C202.604 53.5661 202.381 53.3851 202.121 53.2794C201.861 53.1737 201.576 53.1482 201.301 53.206C201.026 53.2638 200.775 53.4024 200.579 53.6039Z" fill="#00C7D4"/>
<path d="M185.555 131.789C177.401 140.146 161.273 144.019 128.013 128.003C139.649 154.04 154.944 163.164 159.324 158.677L185.555 131.789Z" fill="#11E1EE"/>
<path d="M53.5961 55.4206L127.212 127.236C127.431 127.457 127.722 127.595 128.032 127.624C128.342 127.654 128.653 127.573 128.909 127.396C135.007 123.027 136.064 114.97 140.161 111.984C152.297 103.138 159.166 100.893 158.74 97.0914C158.701 96.8263 158.573 96.5826 158.376 96.401L131.781 70.4582C116.494 55.5326 82.7975 53.3873 54.5795 53C54.2982 52.9982 54.0228 53.0808 53.7889 53.2372C53.555 53.3935 53.3735 53.6163 53.2676 53.877C53.1618 54.1376 53.1363 54.424 53.1949 54.6991C53.2534 54.9743 53.3933 55.2256 53.5961 55.4206Z" fill="#E43921"/>
<path fill-rule="evenodd" clip-rule="evenodd" d="M131.794 70.4608C140.151 78.6141 144.024 94.7422 128.007 128.003C154.044 116.366 163.169 101.069 158.682 96.6914L131.794 70.4608Z" fill="#FF7557"/>
<path d="M70.4581 124.214C78.6113 115.857 94.7373 111.986 127.998 128.003C116.361 101.966 101.069 92.8416 96.6888 97.3284L70.4581 124.214Z" fill="#0CB6FF"/>
</svg>