<svg width="256" height="256" title="AI SDK" viewBox="0 0 256 256" fill="none" xmlns="http://www.w3.org/2000/svg">
<rect width="256" height="256" rx="40" fill="#000000"/>
<path d="M140.097 90H154.831L155.314 91.0931L159.662 103.238L161.957 109.675L166.063 121.091L167.995 126.435L175.845 148.418L178.382 155.341L181.159 163.114L182.367 166.514V166.879L181.884 167H170.29L169.928 166.757L168.237 161.899L166.425 156.798L163.043 147.082L162.923 146.961H131.884L131.28 148.418L129.469 153.762L127.657 158.984L125.725 164.692L125 166.757L124.879 166.879L123.309 167H112.923L112.56 166.879L112.681 166.028L113.527 163.842L114.734 160.32L115.7 157.77L116.908 154.248L118.599 149.632L121.256 142.224L126.932 126.314L128.865 120.97L130.435 116.598L132.367 111.254L139.13 92.3076L139.855 90.3644L140.097 90Z" fill="#FEFEFE"/>
<path d="M188.406 90H200V166.879L188.647 167L188.406 166.879V90Z" fill="#FEFEFE"/>
<path d="M147.222 101.416L147.585 101.538L149.034 105.667L150.362 109.675L152.174 114.897L153.382 118.298L154.71 122.306L156.159 126.435L157.729 130.929L159.179 135.301L159.42 135.909V136.273H135.507L135.386 136.03L135.99 134.573L138.647 126.557L140.459 121.334L142.15 116.476L143.599 112.104L145.411 106.882L146.981 102.267L147.222 101.416Z" fill="black"/>
<path d="M84.058 118.298H87.9227L88.0435 118.541L88.5266 122.913L89.0097 125.342L89.9758 128.136L91.1836 130.443L92.5121 132.386L93.599 133.601L94.4444 134.573L96.256 136.03L98.3092 137.366L100.242 138.338L102.536 139.188L104.589 139.674L107.367 140.038L109.662 140.281L109.903 140.402V144.289L109.783 144.41L105.556 144.896L102.536 145.503L100.483 146.232L98.5507 147.203L96.7391 148.297L95.5314 149.268L94.4444 150.24H94.2029V150.483L93.599 151.09L92.5121 152.304L91.6667 153.519L90.7005 155.219L89.6135 157.527L88.7681 160.32L88.285 163.721L88.0435 166.271L87.9227 166.393L84.2995 166.514L83.9372 166.271L83.5749 163.235L83.0918 160.199L82.3672 157.648L81.401 155.462L80.314 153.64L79.3478 152.304L78.1401 150.968L77.4155 150.118L76.4493 149.268L74.6377 147.932L72.7053 146.839L70.7729 145.989L68.9614 145.382L66.3043 144.896L62.5604 144.532L62.0773 144.41L61.9565 144.046V140.402L62.3188 140.281L66.5459 139.795L68.9614 139.309L71.1353 138.58L73.43 137.487L75.1208 136.394L76.6908 135.18L77.657 134.33L78.5024 133.358L79.4686 132.265L80.6763 130.565L81.7633 128.5L82.8502 125.464L83.3333 123.399L83.9372 118.42L84.058 118.298Z" fill="#FEFEFE"/>
<path d="M60.0242 106.274H64.0097L64.1304 109.068L64.4928 110.768L65.0966 112.226L66.0628 113.562L66.9082 114.412L68.1159 115.262L69.5652 115.869L70.5314 116.112L73.3092 116.233H73.913L74.0338 116.355V120.241L73.7923 120.363L70.7729 120.484L68.9614 120.97L67.2705 121.942L66.0628 123.035L64.9758 124.614L64.4928 125.828L64.1304 127.528L64.0097 130.2L63.8889 130.322L60.628 130.443L60.0242 130.322L59.9034 127.407L59.4203 125.464L58.6957 124.006L57.8502 122.913L57.0048 122.063L55.314 121.091L53.8647 120.606L53.2609 120.484L50.1208 120.363L50 119.148V116.598L50.2415 116.233H51.9324L53.5024 116.112L55.314 115.505L56.6425 114.776L58.0918 113.44L58.9372 112.226L59.5411 110.768L59.9034 109.189V106.517L60.0242 106.274Z" fill="#FEFEFE"/>
<path d="M80.1932 94.2508H84.1787L84.2995 97.1656L84.7826 98.2587L85.628 99.2303L87.0773 99.959L87.4396 100.08L90.0966 100.202V104.088L89.9758 104.21L87.3188 104.331L86.2319 104.696L85.2657 105.424L84.5411 106.639L84.2995 107.368L84.1787 110.161L83.5749 110.282H80.314L80.0725 109.797V107.975L79.8309 106.882L79.3478 105.91L78.6232 105.06L77.0531 104.331L74.2754 104.21L74.1546 104.088V100.323L74.2754 100.202L76.6908 100.08L78.1401 99.5946L79.2271 98.623L79.8309 97.4085L80.0725 96.3155V94.3722L80.1932 94.2508Z" fill="#FEFEFE"/>
</svg>