<svg width="256" height="256" title="Alchemy" viewBox="0 0 256 256" fill="none" xmlns="http://www.w3.org/2000/svg">
<rect width="256" height="256" rx="40" fill="#363FF9"/>
<path d="M181.107 141.705L130.477 55.4124C130.231 54.9863 129.876 54.6313 129.447 54.3834C129.018 54.1354 128.53 54.0032 128.033 54.0001C127.535 53.9969 127.045 54.123 126.613 54.3655C126.181 54.6081 125.822 54.9585 125.571 55.3815L110.407 81.2386C109.911 82.0848 109.65 83.0451 109.65 84.0224C109.65 84.9996 109.911 85.96 110.407 86.8062L143.422 143.101C143.919 143.948 144.634 144.652 145.496 145.14C146.357 145.629 147.334 145.886 148.328 145.885H178.655C179.151 145.883 179.638 145.754 180.068 145.509C180.498 145.264 180.854 144.912 181.103 144.489C181.351 144.066 181.482 143.586 181.483 143.098C181.484 142.609 181.354 142.129 181.107 141.705Z" fill="white"/>
<path d="M48.3904 186.805L99.0212 100.512C99.2696 100.089 99.6269 99.7386 100.057 99.4945C100.486 99.2505 100.974 99.1219 101.47 99.1219C101.966 99.1219 102.454 99.2505 102.884 99.4945C103.314 99.7386 103.671 100.089 103.919 100.512L119.09 126.346C119.587 127.194 119.848 128.155 119.848 129.134C119.848 130.112 119.587 131.074 119.09 131.922L86.0755 188.216C85.5804 189.063 84.8667 189.767 84.0069 190.256C83.147 190.745 82.1711 191.001 81.1778 191H50.8432C50.3435 191.002 49.8521 190.875 49.4188 190.63C48.9856 190.384 48.6261 190.031 48.3769 189.605C48.1277 189.178 47.9977 188.695 48 188.203C48.0024 187.711 48.1371 187.229 48.3904 186.805Z" fill="white"/>
<path d="M103.912 190.982H205.174C205.67 190.981 206.158 190.852 206.588 190.607C207.018 190.362 207.375 190.01 207.623 189.587C207.87 189.163 208.001 188.683 208 188.194C207.999 187.705 207.868 187.225 207.619 186.802L192.471 160.953C191.974 160.105 191.259 159.402 190.397 158.913C189.536 158.425 188.559 158.168 187.565 158.169H121.536C120.542 158.168 119.565 158.425 118.704 158.913C117.843 159.402 117.127 160.105 116.63 160.953L101.467 186.802C101.218 187.225 101.086 187.705 101.086 188.194C101.085 188.683 101.215 189.163 101.463 189.587C101.71 190.01 102.067 190.362 102.497 190.607C102.927 190.852 103.415 190.981 103.912 190.982Z" fill="white"/>
</svg>