<svg width="256" height="256" title="Alpine Linux" viewBox="0 0 256 256" fill="none" xmlns="http://www.w3.org/2000/svg" id="alpinelinux">
<style>
#alpinelinux {
    rect {fill: #15191C}

    @media (prefers-color-scheme: light) {
        rect {fill: #F4F2ED}
    }
}
</style>
<rect width="256" height="256" rx="40" fill="#15191C"/>
<path d="M103.23 147.043V128.057L89.5702 141.722C91.045 142.746 92.4231 143.584 93.7287 144.274C95.0343 144.959 96.2552 145.483 97.3915 145.894C98.5291 146.298 99.5796 146.574 100.559 146.753C101.531 146.93 102.42 147.01 103.23 147.021M173.103 145.449C173.127 145.47 173.26 145.582 173.505 145.738C173.752 145.895 174.112 146.097 174.591 146.297C175.068 146.495 175.666 146.692 176.38 146.839C177.1 146.986 177.939 147.083 178.919 147.083C179.73 147.083 180.623 147.011 181.602 146.841C182.584 146.669 183.645 146.397 184.794 145.996C185.946 145.593 187.187 145.061 188.505 144.375C189.823 143.683 191.237 142.827 192.736 141.787L182.376 131.629L148.044 97.164L132.933 112.28L112.624 91.3594L61.6103 141.787C63.1093 142.827 64.5116 143.674 65.8293 144.375C67.1469 145.066 68.3921 145.597 69.5405 145.996C70.6901 146.397 71.7527 146.669 72.7319 146.84C73.7111 147.011 74.6056 147.083 75.4156 147.083C76.3875 147.083 77.2289 146.986 77.9542 146.839C78.6747 146.692 79.2719 146.495 79.7433 146.296C80.222 146.097 80.5811 145.895 80.8277 145.738C81.0743 145.581 81.2073 145.468 81.2314 145.448L104.321 122.35L112.553 114.453L135.401 137.309L143.367 145.508C143.391 145.529 143.524 145.641 143.771 145.797C144.017 145.955 144.376 146.156 144.855 146.356C145.334 146.554 145.931 146.751 146.644 146.898C147.365 147.045 148.216 147.142 149.183 147.142C149.993 147.142 150.887 147.071 151.867 146.9C152.847 146.728 153.91 146.456 155.058 146.055C156.209 145.652 157.452 145.12 158.769 144.434C160.087 143.743 161.501 142.887 163 141.847L144.746 123.949L148.155 120.539L163.992 136.38L173.227 145.535M173.03 50L218 128L173.03 206H82.9698L38 128L82.9698 50H173.03Z" fill="#0D597F"/>
</svg>