<svg width="256" height="256" title="Amazon S3" viewBox="0 0 256 256" fill="none" xmlns="http://www.w3.org/2000/svg">
<rect width="256" height="256" rx="40" fill="#7AA116"/>
<path d="M193.6,138.6 L194.8,130.5 C206.0,137.3 206.2,140.0 206.2,140.1 C206.1,140.1 204.3,141.7 193.6,138.6 Z M187.4,136.8 C167.9,130.9 140.9,118.4 129.9,113.2 C129.9,113.1 129.9,113.1 129.9,113.0 C129.9,108.8 126.4,105.4 122.2,105.4 C118.0,105.4 114.5,108.8 114.5,113.0 C114.5,117.3 118.0,120.7 122.2,120.7 C124.0,120.7 125.7,120.0 127.1,118.9 C140.1,125.1 167.1,137.4 186.8,143.2 L179.0,197.9 C179.0,198.0 179.0,198.2 179.0,198.3 C179.0,203.2 157.6,212.1 122.5,212.1 C87.1,212.1 65.4,203.2 65.4,198.3 C65.4,198.2 65.3,198.1 65.3,197.9 L48.9,79.1 C63.1,88.8 93.5,93.7 122.5,93.7 C151.5,93.7 181.8,88.9 196.0,79.2 L187.4,136.8 Z M45.7,66.4 C45.9,62.2 70.1,45.7 122.5,45.7 C174.9,45.7 199.1,62.2 199,66.4 L199,67.9 C196.5,77.3 165.2,87 122.5,87 C79.5,87 48.1,77.3 45.7,67.8 L45.7,66.4 Z M202.5,66.5 C202.5,55.4 170.7,39 122.5,39 C74.3,39 42.5,55.4 42.5,66.5 L42.8,68.9 L60.5,198.6 C60.9,213.1 99.6,218.5 123.9,218.5 C154.0,218.5 186.2,211.5 186.6,198.6 L194.3,146.9 C198.5,147.9 202.0,148.5 203.9,148.5 C207.7,148.5 210.2,147.5 211.8,145.7 C213.0,144.2 213.5,142.3 213.2,140.4 C212.3,136.0 207.1,131.2 196.4,125.1 L204.0,68.6 L202.5,66.5 Z" fill="#FFFFFF"/>
</svg>