<svg width="256" height="256" title="Amplify" viewBox="0 0 256 256" fill="none" xmlns="http://www.w3.org/2000/svg">
<rect width="256" height="256" rx="40" fill="#402D6C"/>
<path fill-rule="evenodd" clip-rule="evenodd" d="M189.784 189.747L126.959 67.253H144.931L207.76 189.747H189.784ZM215.653 191.444L149.622 62.7008C149.09 61.6566 148.015 61 146.843 61H121.843C120.752 61 119.744 61.5659 119.174 62.4976C118.609 63.4262 118.565 64.5861 119.062 65.5553L185.094 194.302C185.628 195.343 186.703 196 187.875 196H212.875C213.963 196 214.976 195.434 215.541 194.502C216.109 193.574 216.153 192.417 215.653 191.444ZM152.247 189.747L104.171 99.5562L114.018 83.2639L170.19 189.747H152.247ZM116.968 75.457C116.44 74.4596 115.421 73.8218 114.296 73.7906C113.215 73.7249 112.116 74.3346 111.531 75.2976L97.9058 97.8429C97.3339 98.7871 97.3027 99.9595 97.8183 100.932L147.616 194.346C148.159 195.362 149.221 196 150.375 196H175.375C176.469 196 177.484 195.425 178.05 194.487C178.616 193.549 178.65 192.382 178.138 191.413L116.968 75.457ZM49.6649 189.747L93.7651 116.777L102.749 133.626L82.0432 169.422C81.4838 170.391 81.4838 171.582 82.0401 172.551C82.5994 173.517 83.6307 174.114 84.7495 174.114H124.334L132.666 189.747H49.6649ZM128.965 169.515C128.421 168.499 127.359 167.861 126.206 167.861H90.1682L109.028 135.255C109.572 134.32 109.59 133.173 109.084 132.219L96.6964 108.979C96.1651 107.989 95.1464 107.356 94.0214 107.325C92.8214 107.272 91.8432 107.872 91.2651 108.833L41.4492 191.254C40.8679 192.223 40.8492 193.426 41.4023 194.408C41.9554 195.393 42.9929 196 44.1242 196H137.875C138.971 196 139.987 195.425 140.553 194.484C141.119 193.539 141.15 192.37 140.631 191.401L128.965 169.515Z" fill="white"/>
</svg>