<?xml version="1.0" encoding="UTF-8"?>
<svg id="android" width="256" height="256" fill="none" title="android" version="1.1" viewBox="0 0 256 256" xmlns="http://www.w3.org/2000/svg">
 <style>#android {
    rect {fill: #15191C}

    @media (prefers-color-scheme: light) {
        rect {fill: #F4F2ED}
    }
}</style>
 <rect width="256" height="256" rx="40" fill="#f4f2ed"/>
 <path d="m210.54 172.36c-0.054-0.338-0.105-0.671-0.162-1.005-0.34-2.069-0.764-4.114-1.257-6.131-0.865-3.523-1.954-6.963-3.253-10.293-1.098-2.821-2.348-5.565-3.736-8.225-1.784-3.415-3.797-6.693-6.02-9.811-2.726-3.821-5.771-7.401-9.095-10.699-1.394-1.387-2.838-2.724-4.329-4.006-3.228-2.784-6.677-5.32-10.31-7.586 0.032-0.052 0.059-0.108 0.091-0.16 1.664-2.873 3.334-5.742 4.998-8.614 1.628-2.805 3.255-5.609 4.883-8.4136 1.172-2.0129 2.341-4.0299 3.505-6.0428 0.277-0.4782 0.496-0.9723 0.66-1.4784 0.456-1.4103 0.475-2.8929 0.11-4.2711-0.093-0.3414-0.206-0.6748-0.343-1.0002-0.137-0.3257-0.297-0.643-0.478-0.9483-0.623-1.0446-1.512-1.9527-2.63-2.6157-0.988-0.5865-2.094-0.9361-3.226-1.0365-0.476-0.0401-0.954-0.0362-1.429 0.012-0.392 0.0402-0.782 0.1126-1.17 0.213-1.377 0.3656-2.657 1.1209-3.652 2.2137-0.358 0.3937-0.681 0.8278-0.958 1.3058-1.17 2.0129-2.339 4.0299-3.506 6.0428l-4.883 8.4132c-1.664 2.8731-3.334 5.7411-4.998 8.6141-0.181 0.313-0.365 0.627-0.547 0.944-0.252-0.1-0.502-0.201-0.755-0.297-9.177-3.496-19.135-5.408-29.543-5.408-0.284 0-0.566 0-0.853 4e-3 -9.254 0.092-18.145 1.699-26.44 4.584-0.958 0.334-1.9069 0.687-2.8482 1.057-0.1691-0.293-0.3432-0.587-0.5098-0.88-1.6645-2.873-3.3338-5.741-4.9982-8.6142-1.6277-2.8042-3.2554-5.6087-4.8831-8.4132-1.1717-2.0129-2.341-4.0297-3.5053-6.0426-0.2795-0.4782-0.6006-0.912-0.9585-1.3057-0.9952-1.093-2.2748-1.8484-3.6524-2.214-0.3873-0.1003-0.7771-0.1726-1.1718-0.2127-0.4731-0.0483-0.9511-0.0524-1.4266-0.0123-1.1325 0.0965-2.2381 0.4461-3.2284 1.0367-1.1178 0.6628-2.0003 1.571-2.6278 2.6155-0.1814 0.3053-0.3432 0.6229-0.478 0.9483-0.1373 0.3254-0.2549 0.6589-0.3432 1.0004-0.3652 1.378-0.3456 2.8606 0.1079 4.2709 0.1667 0.5063 0.3824 1.0004 0.6594 1.4786 1.1717 2.0129 2.341 4.0297 3.5053 6.0426 1.6302 2.8047 3.2578 5.6087 4.8855 8.4137 1.6644 2.872 3.3313 5.741 4.9958 8.614 0.0122 0.024 0.0294 0.048 0.0416 0.072-3.3583 2.085-6.5523 4.395-9.5674 6.923-1.8066 1.514-3.5471 3.101-5.2139 4.761-3.3216 3.298-6.3637 6.878-9.0944 10.699-2.2258 3.118-4.2408 6.392-6.0204 9.811-1.3875 2.66-2.6376 5.404-3.7358 8.225-1.2992 3.331-2.3876 6.77-3.2529 10.293-0.4927 2.017-0.9119 4.058-1.2575 6.131-0.0564 0.334-0.1079 0.671-0.1594 1.005-0.1863 1.201-0.3431 2.411-0.4755 3.628h165c-0.132-1.217-0.289-2.427-0.473-3.628l0.012-8e-3z" fill="#34A853"/>
 <path d="m171.42 153.21c3.302-2.195 3.782-7.274 1.071-11.344-2.709-4.07-7.582-5.589-10.881-3.394-3.302 2.196-3.783 7.275-1.072 11.344 2.709 4.07 7.582 5.59 10.882 3.394z" fill="#f4f2ed"/>
 <path d="m96.607 149.83c2.7111-4.07 2.2307-9.149-1.0713-11.344-3.3019-2.196-8.1726-0.676-10.884 3.393-2.7087 4.07-2.2282 9.149 1.0712 11.344 3.302 2.196 8.1752 0.676 10.884-3.393z" fill="#f4f2ed"/>
</svg>
