<svg width="256" height="256" title="Anime.js" viewBox="0 0 256 256" fill="none" xmlns="http://www.w3.org/2000/svg" id="animejs">
<rect width="256" height="256" rx="40" fill="#F4F2ED"/>
<path d="M208.208 92.9953C207.752 93.2153 207.282 93.4703 206.811 93.4712C196.53 93.4913 186.25 93.4837 175.97 93.4775C175.65 93.4772 175.332 93.4338 174.875 93.4004C174.987 92.3827 175.065 91.4374 175.199 90.5008C176.261 83.1019 177.344 75.7062 178.387 68.3046C178.5 67.5029 178.826 67.2626 179.588 67.2684C183.293 67.2973 186.997 67.2793 190.803 67.2433C191.557 67.2343 192.208 67.2817 192.86 67.2824C198.705 67.2887 204.55 67.2869 210.395 67.2875C210.753 67.2875 211.111 67.2875 211.625 67.2875C211.516 68.2421 211.438 69.105 211.314 69.9611C210.268 77.2498 209.209 84.537 208.167 91.8263C208.116 92.1795 208.181 92.5497 208.208 92.9953Z" fill="#FD4C4D"/>
<path d="M102.647 175.71C98.6587 175.392 94.6602 175.169 90.6856 174.73C86.7018 174.289 82.8065 173.395 79.0903 171.806C72.1387 168.835 68.7788 163.412 68.2248 156.011C67.8357 150.812 68.6517 145.71 69.5055 140.628C69.9729 137.847 70.6969 135.086 71.55 132.394C73.9094 124.949 79.1265 120.424 86.4388 118.14C92.3444 116.296 98.4445 115.663 104.574 115.353C113.642 114.894 122.717 114.759 131.778 115.509C136.761 115.921 141.699 116.636 146.313 118.762C148.646 119.837 150.712 121.263 152.379 123.247C152.584 123.492 152.908 123.638 153.334 123.942C153.647 121.045 153.971 118.383 154.212 115.712C154.416 113.44 154.677 111.158 154.639 108.885C154.566 104.505 152.51 101.816 148.262 100.955C145.225 100.339 142.076 100.032 138.975 100.023C132.626 100.003 126.273 100.203 119.929 100.474C118.085 100.552 116.241 101.089 114.44 101.571C111.158 102.449 109.354 104.749 108.638 108C108.553 108.391 108.446 108.776 108.348 109.173C97.6442 109.173 87.0046 109.173 76.2833 109.173C76.9049 103.31 78.0227 97.6814 81.2491 92.6889C84.7212 87.3163 90.0424 84.7289 95.9029 83.0065C101.25 81.4347 106.758 80.7265 112.293 80.3735C118.412 79.9833 124.547 79.8314 130.857 79.5638C131.273 79.5308 131.507 79.5096 131.74 79.4884C135.215 79.5106 138.689 79.5327 142.334 79.5508C142.736 79.5316 142.971 79.5164 143.205 79.5012C143.516 79.5292 143.827 79.5573 144.307 79.5822C144.641 79.5705 144.806 79.5617 144.97 79.5529C148.414 79.7322 151.879 79.737 155.298 80.1334C159.991 80.6776 164.652 81.5145 169.324 82.2396C169.711 82.2996 170.082 82.4631 170.497 82.5898C169.701 88.0436 168.916 93.4223 168.116 98.9086C174.387 98.9086 180.58 98.9086 186.811 98.9086C187.782 102.884 188.203 106.853 187.906 110.82C187.469 116.69 186.857 122.554 186.099 128.392C184.909 137.555 183.534 146.694 182.237 155.843C181.379 161.893 180.52 167.944 179.547 174.084C168.901 174.173 158.37 174.173 147.839 174.175C147.474 174.175 147.11 174.212 146.745 174.232C145.945 174.079 146.328 173.503 146.391 173.109C146.842 170.311 147.327 167.518 147.794 164.722C147.845 164.411 147.845 164.09 147.868 163.774C147.719 163.648 147.568 163.523 147.418 163.397C147.239 163.755 147.13 164.177 146.871 164.462C143.782 167.858 140.458 170.96 136.115 172.702C132.505 174.151 128.714 174.836 124.864 175.181C122.232 175.417 119.588 175.51 116.758 175.677C111.926 175.695 107.287 175.703 102.647 175.71ZM104.695 137.78C104.004 138.936 103.064 140.017 102.681 141.269C102.116 143.115 101.875 145.075 101.627 147.004C101.291 149.616 102.407 151.832 104.846 152.826C106.724 153.592 108.757 154.172 110.766 154.379C119.741 155.305 128.745 155.221 137.728 154.539C140.403 154.336 143.062 153.602 145.666 152.881C147.763 152.3 149.174 150.727 149.896 148.68C150.817 146.073 151.49 143.395 151.401 140.589C151.387 140.15 151.345 139.704 151.25 139.276C150.756 137.064 149.199 135.806 147.143 135.448C143.827 134.87 140.468 134.352 137.113 134.222C129.112 133.911 121.097 133.747 113.124 134.763C110.168 135.14 107.245 135.734 104.695 137.78Z" fill="#FEFEFE"/>
<path d="M116.338 41.8523C142.424 38.4265 165.586 45.3453 185.72 62.2916C187.538 63.8222 189.197 65.5425 190.862 67.2753C187.058 67.3773 183.322 67.3951 179.588 67.3667C178.82 67.3609 178.491 67.598 178.378 68.3892C177.326 75.6966 176.235 82.9988 175.164 90.3037C175.028 91.2284 174.95 92.1616 174.836 93.1663C175.297 93.1992 175.619 93.2421 175.94 93.2423C186.304 93.2485 196.669 93.2561 207.033 93.2363C207.508 93.2354 207.983 92.9834 208.458 92.8485C213.734 104.792 216.319 117.295 215.969 130.343C215.383 152.108 207.823 171.175 193.205 187.319C181.09 200.699 166.144 209.454 148.572 213.636C137.092 216.367 125.508 216.729 113.873 214.735C95.0755 211.513 78.9799 203.063 65.6984 189.411C53.1141 176.475 45.0472 161.086 42.2588 143.237C37.5362 113.006 46.1071 86.8834 67.8808 65.4019C81.2902 52.1725 97.6297 44.3094 116.338 41.8523ZM131.932 79.3755C131.66 79.4175 131.388 79.4595 130.922 79.5763C124.808 79.8304 118.689 79.9819 112.584 80.3698C107.063 80.7207 101.568 81.4241 96.2337 82.9863C90.3872 84.6985 85.0787 87.2712 81.615 92.6119C78.3965 97.5746 77.2808 103.17 76.6606 108.997H108.648C108.746 108.603 108.853 108.22 108.939 107.832C109.653 104.6 111.452 102.314 114.725 101.441C116.523 100.962 118.362 100.429 120.202 100.35C126.53 100.081 132.868 99.8823 139.202 99.9019C142.295 99.9115 145.436 100.217 148.467 100.829C152.704 101.685 154.756 104.358 154.828 108.712C154.866 110.971 154.605 113.241 154.402 115.499C154.162 118.153 153.838 120.8 153.527 123.678C153.102 123.377 152.779 123.232 152.573 122.988C150.911 121.017 148.849 119.599 146.522 118.531C141.919 116.416 136.993 115.706 132.022 115.296C122.983 114.551 113.929 114.684 104.884 115.141C98.7689 115.449 92.6836 116.078 86.7923 117.912C79.4977 120.182 74.2924 124.681 71.9388 132.081C71.0877 134.757 70.3662 137.501 69.8999 140.266C69.0481 145.318 68.2334 150.389 68.6216 155.558C69.1742 162.915 72.5268 168.306 79.4617 171.26C83.1688 172.839 87.0549 173.727 91.0289 174.165C94.9938 174.602 98.9824 174.823 103.015 175.302C103.151 175.365 103.288 175.475 103.424 175.501C103.287 175.473 103.148 175.355 102.988 175.221C107.589 175.132 112.218 175.124 116.938 175.134C116.8 175.273 116.569 175.502 116.339 175.503C116.569 175.502 116.8 175.273 117.228 175.096C119.861 174.94 122.499 174.848 125.125 174.613C128.965 174.27 132.747 173.59 136.349 172.149C140.681 170.417 143.997 167.334 147.079 163.958C147.337 163.676 147.446 163.256 147.624 162.899C147.774 163.024 147.924 163.149 148.074 163.274C148.05 163.588 148.051 163.908 147.999 164.217C147.534 166.996 147.049 169.773 146.6 172.553C146.536 172.945 146.155 173.517 147.025 173.818C147.228 173.864 147.431 173.943 147.633 173.967C147.429 173.943 147.222 173.853 146.988 173.745C147.316 173.651 147.679 173.614 148.043 173.614C158.523 173.611 169.003 173.612 179.568 173.611C179.639 173.556 179.714 173.497 179.789 173.434C180.647 167.42 181.504 161.405 182.36 155.39C183.654 146.296 185.025 137.211 186.212 128.103C186.969 122.3 187.578 116.471 188.016 110.635C188.311 106.692 187.891 102.746 186.922 98.794H168.271C169.07 93.3406 169.854 87.9941 170.648 82.5728C170.234 82.447 169.864 82.2841 169.478 82.2244C164.817 81.5037 160.168 80.6715 155.486 80.1307C152.075 79.7366 148.618 79.7321 145.147 79.4327C144.942 79.4648 144.737 79.4967 144.352 79.5856C144.042 79.5578 143.731 79.5298 143.372 79.3866C143.099 79.4204 142.826 79.4548 142.384 79.5557C138.917 79.5337 135.45 79.5114 131.932 79.3755ZM113.413 134.435C121.367 133.425 129.363 133.589 137.345 133.898C140.692 134.027 144.042 134.542 147.349 135.116C149.4 135.472 150.955 136.722 151.448 138.922C151.543 139.347 151.585 139.79 151.599 140.227C151.687 143.016 151.016 145.678 150.098 148.271C149.377 150.305 147.97 151.869 145.877 152.446C143.28 153.162 140.626 153.893 137.958 154.095C128.997 154.772 120.014 154.855 111.061 153.935C109.057 153.729 107.028 153.153 105.155 152.393C102.722 151.403 101.608 149.201 101.943 146.604C102.191 144.686 102.431 142.738 102.995 140.902C103.377 139.658 104.315 138.584 105.062 137.38C107.548 135.401 110.465 134.809 113.413 134.435ZM145.164 79.4933C145.018 79.5626 144.854 79.5716 144.611 79.5549C144.737 79.4974 144.942 79.465 145.164 79.4933ZM131.957 79.4327C131.751 79.5107 131.519 79.532 131.201 79.5275C131.388 79.4601 131.66 79.4178 131.957 79.4327ZM143.397 79.4447C143.188 79.5174 142.954 79.5326 142.637 79.5182C142.826 79.4548 143.099 79.4209 143.397 79.4447Z" fill="#252422"/>
</svg>