<svg width="256" height="256" title="Ant Design" viewBox="0 0 256 256" fill="none" xmlns="http://www.w3.org/2000/svg" id="antdesign">
<style>
#antdesign {
    rect {fill: #15191C}

    @media (prefers-color-scheme: light) {
        rect {fill: #F4F2ED}
    }
}
</style>
<rect width="256" height="256" rx="40" fill="#15191C"/>
<path d="M133.604 53.1137L163.64 83.1494C166.46 85.9694 166.46 90.5399 163.64 93.3584C160.82 96.1784 156.249 96.1784 153.431 93.3584L133.604 73.5332C130.784 70.7131 126.214 70.7131 123.396 73.5332L73.5341 123.396C70.7141 126.216 70.7141 130.786 73.5341 133.605L123.396 183.467C126.216 186.287 130.786 186.287 133.604 183.467L153.431 163.64C156.251 160.82 160.821 160.82 163.64 163.64C166.46 166.46 166.46 171.031 163.64 173.849L133.604 203.885C130.784 206.705 126.214 206.705 123.396 203.885L53.115 133.605C50.295 130.785 50.295 126.214 53.115 123.396L123.394 53.1152C126.214 50.2952 130.786 50.2952 133.604 53.1137Z" fill="url(#linearGradient1)"/>
<path d="M173.85 103.569C176.67 100.749 181.24 100.749 184.059 103.569L203.885 123.396C206.705 126.216 206.705 130.786 203.885 133.605L184.059 153.431C181.239 156.251 176.668 156.251 173.85 153.431C171.03 150.611 171.03 146.041 173.85 143.222L183.466 133.606C186.286 130.786 186.286 126.216 183.466 123.397L173.85 113.781C171.03 110.959 171.03 106.389 173.85 103.569Z" fill="url(#linearGradient2)"/>
<path d="M128.5 151.365C141.127 151.365 151.364 141.128 151.364 128.5C151.364 115.872 141.127 105.636 128.5 105.636C115.873 105.636 105.636 115.872 105.636 128.5C105.636 141.128 115.873 151.365 128.5 151.365ZM128.5 140.384C121.937 140.384 116.617 135.063 116.617 128.5C116.617 121.937 121.937 116.616 128.5 116.616C135.063 116.616 140.383 121.937 140.383 128.5C140.383 135.063 135.063 140.384 128.5 140.384Z" fill="url(#linearGradient3)"/>
<linearGradient id="linearGradient1" x1="239.9" y1="128.5" x2="38.39" y2="128.5" gradientUnits="userSpaceOnUse">
<stop stop-color="#47B4E0"/>
<stop offset="0.1718" stop-color="#1588E0"/>
<stop offset="1" stop-color="#6EB4E0"/>
</linearGradient>
<linearGradient id="linearGradient2" x1="128.497" y1="205.997" x2="128.497" y2="51.0024" gradientUnits="userSpaceOnUse">
<stop offset="0.0322" stop-color="#F0776F"/>
<stop offset="0.5032" stop-color="#F0656F"/>
<stop offset="1" stop-color="#F0606F"/>
</linearGradient>
<linearGradient id="linearGradient3" x1="128.5" y1="105.636" x2="128.5" y2="151.364" gradientUnits="userSpaceOnUse">
<stop offset="0.0322" stop-color="#F0776F"/>
<stop offset="0.5032" stop-color="#F0656F"/>
<stop offset="1" stop-color="#F0606F"/>
</linearGradient>
</svg>