<svg width="256" height="256" title="Anyscale" viewBox="0 0 256 256" fill="none" xmlns="http://www.w3.org/2000/svg">
<rect width="256" height="256" rx="40" fill="#0163FB"/>
<path d="M166.566 130.861L146.207 166.25H187.199C188.704 166.25 190.099 165.447 190.858 164.136L210 130.861H166.566ZM210 126.139L190.858 92.864C190.487 92.2197 189.954 91.685 189.312 91.3138C188.669 90.9426 187.941 90.7482 187.199 90.75H146.207L166.566 126.139H210ZM105.496 90.75H146.207L125.711 55.1209C125.341 54.4753 124.808 53.9392 124.166 53.5668C123.523 53.1944 122.794 52.9989 122.052 53H83.7685L105.496 90.75ZM79.6994 55.3542L60.5643 88.6291C60.1946 89.2732 60 90.0033 60 90.7466C60 91.4898 60.1946 92.22 60.5643 92.864L81.0603 128.493L101.413 93.1042L79.6994 55.3542ZM101.42 163.882L81.0671 128.5L60.5643 164.136C60.1946 164.78 60 165.51 60 166.253C60 166.997 60.1946 167.727 60.5643 168.371L79.6994 201.646L101.413 163.896H101.42V163.882ZM83.7685 204H122.052C123.557 204 124.952 203.197 125.711 201.886L146.207 166.25H105.496L83.7753 204H83.7685Z" fill="white"/>
</svg>