<svg width="256" height="256" title="Apache Hadoop" viewBox="0 0 256 256" fill="none" xmlns="http://www.w3.org/2000/svg" id="apachehadoop">
<style>
#apachehadoop {
    rect {fill: #15191C}

    @media (prefers-color-scheme: light) {
        rect {fill: #F4F2ED}
    }
}
</style>
<rect width="256" height="256" rx="40" fill="#15191C"/>
<path fill-rule="evenodd" clip-rule="evenodd" d="M194.499 152C198.405 152 202.311 152 206.216 152C206.7 149.816 207.184 147.632 207.667 145.448C211.011 145.448 214.463 145.47 217.808 145.47C219.441 145.47 220.886 144.966 222.17 144.105C223.721 143.066 224.878 141.473 225.313 139.508C226.048 136.184 226.788 132.861 227.527 129.538C227.949 127.641 228.497 125.498 227.126 123.785C225.866 122.208 224.192 122.086 222.355 122.086C209.126 122.1 195.896 122.085 182.667 122.085C181.332 122.085 180.213 122.514 179.046 123.111C177.951 122.343 176.963 122.085 175.62 122.085C169.568 122.085 163.515 122.085 157.462 122.085C157.958 119.871 158.453 117.657 158.949 115.443C155.038 115.443 151.126 115.443 147.214 115.443C146.73 117.603 146.247 119.763 145.763 121.923C142.323 121.923 138.883 121.923 135.442 121.923C134.017 121.923 132.647 122.367 131.452 123.129C130.293 122.414 129.4 122.103 128.027 122.103C116.671 122.103 105.316 122.103 93.9612 122.103C94.4812 119.859 95.0012 117.615 95.521 115.371C91.6154 115.366 87.7098 115.359 83.804 115.353C81.5524 125.348 79.3007 135.342 77.049 145.336C80.951 145.337 84.853 145.338 88.7548 145.339C89.9287 140.224 91.1023 135.11 92.276 129.995C93.5962 129.995 94.9165 129.995 96.2371 129.995C96.7085 129.995 96.6157 130.261 96.5367 130.613C95.4265 135.522 94.3162 140.431 93.2062 145.339C119.074 145.339 144.943 145.339 170.812 145.339C172.128 145.339 173.159 145.069 174.344 144.469C175.512 145.244 176.544 145.501 177.971 145.489L195.946 145.339C195.464 147.559 194.981 149.78 194.499 152ZM143.814 130.016C142.662 130.016 141.511 130.016 140.359 130.016C139.753 130.016 139.59 130.29 139.469 130.829C139.037 132.754 138.605 134.68 138.172 136.604C138.049 137.158 138.331 137.248 138.819 137.248C139.939 137.248 141.06 137.248 142.181 137.248C142.725 134.837 143.269 132.427 143.814 130.016ZM163.629 130.156C164.859 130.156 166.089 130.156 167.319 130.156C168.029 130.156 167.99 130.525 167.863 131.096C167.44 132.981 167.017 134.867 166.595 136.753C166.447 137.411 166.034 137.4 165.464 137.4C164.212 137.4 162.961 137.4 161.709 137.4C161.158 137.4 161.153 137.077 161.251 136.634C161.672 134.749 162.093 132.863 162.513 130.978C162.669 130.28 162.946 130.156 163.629 130.156ZM187.919 130.156C189.148 130.156 190.378 130.156 191.608 130.156C192.318 130.156 192.28 130.525 192.152 131.096C191.729 132.981 191.306 134.867 190.884 136.753C190.737 137.411 190.323 137.4 189.753 137.4C188.502 137.4 187.25 137.4 185.998 137.4C185.447 137.4 185.442 137.077 185.54 136.634C185.961 134.749 186.382 132.863 186.802 130.978C186.958 130.28 187.235 130.156 187.919 130.156ZM209.579 137.454C210.73 137.454 211.882 137.454 213.034 137.454C213.64 137.454 213.803 137.18 213.923 136.641C214.356 134.716 214.788 132.791 215.221 130.866C215.344 130.313 215.062 130.222 214.574 130.222C213.453 130.222 212.333 130.222 211.212 130.222C210.668 132.633 210.123 135.044 209.579 137.454Z" fill="black"/>
<path fill-rule="evenodd" clip-rule="evenodd" d="M160.928 123.77H175.645C177.942 123.77 179.404 125.635 178.896 127.914L176.273 139.66C175.765 141.939 173.469 143.804 171.173 143.804H156.456C154.159 143.804 152.696 141.939 153.205 139.66L155.827 127.914C156.336 125.635 158.631 123.77 160.928 123.77ZM163.595 128.486H170.872C172.088 128.486 172.862 129.473 172.592 130.679L171.205 136.896C170.935 138.101 169.721 139.088 168.505 139.088H161.229C160.013 139.088 159.239 138.101 159.508 136.896L160.896 130.679C161.165 129.472 162.38 128.486 163.595 128.486Z" fill="#1F1917"/>
<path fill-rule="evenodd" clip-rule="evenodd" d="M185.188 123.77H199.905C202.202 123.77 203.665 125.635 203.156 127.914L200.534 139.66C200.025 141.939 197.73 143.804 195.433 143.804H180.716C178.419 143.804 176.956 141.939 177.465 139.66L180.087 127.914C180.596 125.635 182.891 123.77 185.188 123.77ZM187.856 128.486H195.132C196.348 128.486 197.122 129.473 196.853 130.679L195.465 136.896C195.196 138.101 193.981 139.088 192.766 139.088H185.489C184.273 139.088 183.499 138.101 183.768 136.896L185.156 130.679C185.425 129.472 186.64 128.486 187.856 128.486Z" fill="#1F1917"/>
<path fill-rule="evenodd" clip-rule="evenodd" d="M205.286 123.77H222.949C225.246 123.77 226.708 125.636 226.2 127.914L223.578 139.66C223.069 141.938 220.773 143.805 218.477 143.804L200.814 143.795L205.286 123.77ZM209.903 128.486H218.176C219.392 128.486 220.166 129.473 219.897 130.679L218.509 136.896C218.24 138.101 217.024 139.088 215.809 139.088H207.529" fill="#1F1917"/>
<path fill-rule="evenodd" clip-rule="evenodd" d="M151.069 143.646H133.406C131.109 143.646 129.647 141.781 130.155 139.502L132.777 127.756C133.286 125.478 135.582 123.611 137.878 123.613L155.542 123.621L151.069 143.646ZM146.452 138.93H138.179C136.963 138.93 136.189 137.943 136.458 136.738L137.846 130.521C138.115 129.316 139.33 128.328 140.545 128.328H148.826" fill="#1F1917"/>
<path fill-rule="evenodd" clip-rule="evenodd" d="M90.5795 123.77H104.08C106.377 123.77 107.84 125.635 107.331 127.914L105.414 136.501H99.7284L101.028 130.679C101.297 129.472 100.523 128.486 99.3076 128.486H90.9428C89.7279 128.486 90.817 129.473 90.5481 130.679L89.2655 136.423H83.5794L85.4791 127.914C85.9878 125.635 88.2828 123.77 90.5795 123.77Z" fill="#1F1917"/>
<path fill-rule="evenodd" clip-rule="evenodd" d="M81.9756 143.646L85.8567 126.311H91.5273L87.64 143.646" fill="#1F1917"/>
<path fill-rule="evenodd" clip-rule="evenodd" d="M128.026 143.646H109.146C106.849 143.646 105.386 141.781 105.895 139.502L106.656 136.094H106.659L106.806 135.439C107.314 133.16 109.61 131.294 111.906 131.295L125.116 131.301L125.311 130.431C125.519 129.295 124.797 128.374 123.662 128.328H108.37L109.423 123.615L128.401 123.62C130.65 123.664 132.072 125.511 131.57 127.762L131.212 129.362H131.216L130.782 131.303H130.786L128.559 141.275H128.555L128.026 143.646ZM113.35 138.93H123.408L124.062 136.01H114.176C114.129 136.006 114.08 136.003 114.03 136.003C113.22 136.003 112.411 136.66 112.233 137.464C112.056 138.258 112.558 138.909 113.352 138.924C113.351 138.926 113.351 138.928 113.35 138.93Z" fill="#1F1917"/>
<path fill-rule="evenodd" clip-rule="evenodd" d="M160.928 123.77H175.645C177.942 123.77 179.404 125.635 178.896 127.914L176.273 139.66C175.765 141.939 173.469 143.804 171.173 143.804H156.456C154.159 143.804 152.696 141.939 153.205 139.66L155.827 127.914C156.336 125.635 158.631 123.77 160.928 123.77ZM163.595 128.486H170.872C172.088 128.486 172.862 129.473 172.592 130.679L171.205 136.896C170.935 138.101 169.721 139.088 168.505 139.088H161.229C160.013 139.088 159.239 138.101 159.508 136.896L160.896 130.679C161.165 129.472 162.38 128.486 163.595 128.486Z" fill="#66CCFF"/>
<path fill-rule="evenodd" clip-rule="evenodd" d="M185.188 123.77H199.905C202.202 123.77 203.665 125.635 203.156 127.914L200.534 139.66C200.025 141.939 197.73 143.804 195.433 143.804H180.716C178.419 143.804 176.956 141.939 177.465 139.66L180.087 127.914C180.596 125.635 182.891 123.77 185.188 123.77ZM187.856 128.486H195.132C196.348 128.486 197.122 129.473 196.853 130.679L195.465 136.896C195.196 138.101 193.981 139.088 192.766 139.088H185.489C184.273 139.088 183.499 138.101 183.768 136.896L185.156 130.679C185.425 129.472 186.64 128.486 187.856 128.486Z" fill="#66CCFF"/>
<path fill-rule="evenodd" clip-rule="evenodd" d="M205.289 123.766L201.6 140.257L199.319 150.506H204.978L206.483 143.792L218.48 143.802C220.776 143.803 223.067 141.938 223.576 139.66L226.197 127.918C226.705 125.64 225.242 123.766 222.945 123.766L205.289 123.766ZM209.9 128.486H218.179C219.395 128.486 220.166 129.477 219.897 130.682L218.509 136.895C218.24 138.1 217.026 139.092 215.811 139.092H207.531L209.9 128.486Z" fill="#66CCFF"/>
<path fill-rule="evenodd" clip-rule="evenodd" d="M151.379 116.908L149.874 123.622L137.877 123.612C135.581 123.611 133.29 125.476 132.781 127.754L130.151 139.506C129.642 141.784 131.106 143.648 133.402 143.648H151.068L157.038 116.908L151.379 116.908ZM140.546 128.332H148.826L146.448 138.928H138.178C136.962 138.928 136.191 137.946 136.46 136.741L137.848 130.519C138.117 129.314 139.331 128.332 140.546 128.332Z" fill="#66CCFF"/>
<path fill-rule="evenodd" clip-rule="evenodd" d="M87.9371 116.908L85.6464 127.157H85.6755L85.5785 127.562C85.5421 127.679 85.5081 127.798 85.4814 127.918L83.5789 136.423H83.5983L81.9773 143.648H87.6362L89.2572 136.423H89.2669L90.5482 130.682C90.5503 130.673 90.5463 130.663 90.5482 130.654L91.0432 128.486H99.3035C100.519 128.486 101.3 129.476 101.031 130.682L98.1387 143.648H103.807L105.409 136.5H105.419L107.331 127.918C107.839 125.639 106.376 123.766 104.079 123.766H92.0721L93.6057 116.908L87.9371 116.908Z" fill="#66CCFF"/>
<path fill-rule="evenodd" clip-rule="evenodd" d="M128.026 143.646H109.146C106.849 143.646 105.386 141.781 105.895 139.502L106.656 136.094H106.659L106.806 135.439C107.314 133.16 109.61 131.294 111.906 131.295L125.116 131.301L125.311 130.431C125.519 129.295 124.797 128.374 123.662 128.328H108.37L109.423 123.615L128.401 123.62C130.65 123.664 132.072 125.511 131.57 127.762L131.212 129.362H131.216L130.782 131.303H130.786L128.559 141.275H128.555L128.026 143.646ZM113.35 138.93H123.408L124.062 136.01H114.176C114.129 136.006 114.08 136.003 114.03 136.003C113.22 136.003 112.411 136.66 112.233 137.464C112.056 138.258 112.558 138.909 113.352 138.924C113.351 138.926 113.351 138.928 113.35 138.93Z" fill="#66CCFF"/>
<path fill-rule="evenodd" clip-rule="evenodd" d="M34.2853 131.349C34.0531 131.976 33.8206 132.604 33.5884 133.232C33.0133 133.796 32.4382 134.362 31.863 134.927C31.2342 135.545 31.099 135.541 31.2466 136.415C31.4201 137.443 31.9179 138.502 32.8342 139.413C33.7977 140.372 35.8206 141.728 37.2762 141.089C37.1409 141.574 36.9613 142.083 36.7327 142.581C35.7566 144.704 38.1354 145.12 39.8001 145.567C41.1837 145.939 44.5791 146.928 45.0691 145.123C45.2894 144.311 45.3236 143.875 45.2452 143.1C45.6757 142.146 45.8132 141.994 46.1695 141.469C46.6585 140.75 46.6234 140.476 46.5164 139.583C46.4957 139.41 46.4705 139.223 46.4414 139.026C48.0889 139.271 49.673 139.269 51.2876 139.07C50.7974 139.353 50.3057 139.601 49.6574 139.932C48.1186 140.717 49.5687 143.033 50.2319 144.047C51.6238 146.176 52.8718 147.64 55.2231 146.378C56.013 145.953 56.074 145.501 56.5669 144.771C56.8392 144.623 58.2426 143.438 59.0771 142.769C59.3934 143.146 59.9989 143.215 60.9171 143.281C61.3791 143.314 63.191 143.303 63.6713 143.306C65.1122 143.315 65.9769 143.167 66.0896 141.608C66.143 140.869 66.1111 140.712 65.7447 140.066C65.7226 139.251 65.7007 138.436 65.6788 137.621C65.6537 136.703 65.477 136.139 65.114 135.282C64.7838 134.502 64.5989 133.838 64.2134 133.082C64.2663 132.786 64.3082 132.48 64.3367 132.161C64.8266 132.629 65.3163 133.098 65.8062 133.566C66.74 134.459 67.5117 135.188 68.9355 135.121C70.4183 135.052 72.1159 133.892 72.5506 132.474C72.6955 132.001 72.84 131.528 72.985 131.055C75.2211 131.474 77.8345 131.378 79.7815 130.347C82.6451 128.831 83.9849 125.781 84.3143 122.556C84.5807 119.947 84.0678 115.559 82.8143 113.178C82.4457 112.478 80.7812 111.593 80.0515 112.326C79.5017 112.879 79.1241 113.722 78.5306 114.225C78.0709 114.615 77.5014 114.808 77.0024 115.012C76.6161 113.977 76.0609 113.172 75.3811 112.369C74.8404 111.73 74.3311 111.411 73.6182 110.968C72.2094 110.093 71.1162 108.988 69.8344 107.939C65.9554 104.765 62.6244 104.863 57.7914 106.881C55.4857 107.844 54.3736 109.151 52.9594 111.029C52.1047 111.073 51.5176 111.237 50.6142 112.028C49.9474 112.612 49.3265 113.213 48.7256 113.836C44.208 114.55 41.4023 115.405 38.434 118.016C37.2261 119.079 36.348 120.256 35.6632 121.58C35.0273 122.277 34.3952 122.992 33.5557 123.313C32.9647 123.538 32.9756 123.538 32.7674 122.986C33.4701 122.462 33.459 121.476 33.5241 120.583C33.9674 120.604 34.1336 121.097 34.435 121.475C34.6129 120.685 34.716 119.459 33.8787 119.029C34.0148 118.668 34.1689 118.304 34.31 117.905C33.0749 118.118 28.8407 120.95 31.0999 123.11C31.2486 123.71 31.3657 124.123 31.5622 124.529C32.0791 125.596 33.2415 125.779 34.2543 125.387C33.9767 126.649 33.9205 128.023 34.0876 129.952C34.1276 130.415 34.1949 130.881 34.2853 131.349Z" fill="black"/>
<path d="M34.5537 131.447C34.4604 131.699 34.3668 131.951 34.2735 132.204L33.7368 132.008C33.8301 131.756 33.9238 131.504 34.017 131.252L34.5537 131.447ZM34.2735 132.204C34.1346 132.579 33.9955 132.954 33.8567 133.329L33.32 133.134C33.4588 132.759 33.5979 132.383 33.7368 132.008L34.2735 132.204ZM33.8567 133.329L33.7895 133.432L33.5884 133.232L33.8567 133.329ZM33.7895 133.432C33.4849 133.732 33.1799 134.031 32.8752 134.331L32.4728 133.929C32.7776 133.63 33.0825 133.33 33.3872 133.031L33.7895 133.432ZM32.8752 134.331C32.605 134.596 32.3344 134.862 32.0641 135.128L31.6618 134.726C31.9321 134.461 32.2026 134.195 32.4728 133.929L32.8752 134.331ZM32.0641 135.128C31.9406 135.249 31.8986 135.289 31.8614 135.325L31.4657 134.914C31.5482 134.836 31.6393 134.748 31.6618 134.726L32.0641 135.128ZM31.8614 135.325C31.4954 135.675 31.423 135.744 31.5284 136.369L30.9649 136.462C30.8095 135.541 30.9179 135.438 31.4657 134.914L31.8614 135.325ZM31.5284 136.369C31.6134 136.872 31.7819 137.385 32.0465 137.885L31.539 138.149C31.247 137.598 31.0601 137.026 30.9649 136.462L31.5284 136.369ZM32.0465 137.885C32.2922 138.349 32.6192 138.798 33.0365 139.214L32.6319 139.613C32.1688 139.152 31.808 138.657 31.539 138.149L32.0465 137.885ZM33.0365 139.214C33.5705 139.745 34.4422 140.403 35.3494 140.745L35.1482 141.276C34.1568 140.902 33.21 140.188 32.6319 139.613L33.0365 139.214ZM35.3494 140.745C35.9805 140.983 36.6236 141.065 37.1611 140.829L37.3913 141.348C36.698 141.653 35.9074 141.562 35.1482 141.276L35.3494 140.745ZM37.1611 140.829L37.7132 140.587L37.5523 141.164L37.2762 141.089L37.1611 140.829ZM37.5523 141.164C37.4806 141.422 37.3966 141.686 37.3001 141.951L36.7612 141.758C36.8528 141.506 36.9323 141.256 37.0001 141.013L37.5523 141.164ZM37.3001 141.951C37.2099 142.198 37.1079 142.449 36.9932 142.698L36.4722 142.463C36.5786 142.231 36.6749 141.995 36.7612 141.758L37.3001 141.951ZM36.9932 142.698C36.5097 143.75 37.0164 144.304 37.8018 144.66L37.5647 145.177C36.4902 144.69 35.7997 143.926 36.4722 142.463L36.9932 142.698ZM37.8018 144.66C38.3037 144.887 38.911 145.044 39.4754 145.19L39.3323 145.738C38.7393 145.584 38.1013 145.419 37.5647 145.177L37.8018 144.66ZM39.4754 145.19C39.6245 145.228 39.769 145.265 39.8728 145.293L39.7275 145.841C39.5747 145.8 39.4534 145.769 39.3323 145.738L39.4754 145.19ZM39.8728 145.293C40.5534 145.476 41.73 145.811 42.7877 145.877L42.7518 146.445C41.6435 146.376 40.4301 146.03 39.7275 145.841L39.8728 145.293ZM42.7877 145.877C43.7435 145.937 44.5957 145.778 44.7929 145.051L45.3452 145.195C45.0525 146.273 43.9616 146.521 42.7518 146.445L42.7877 145.877ZM44.7929 145.051C44.8973 144.666 44.9578 144.369 44.983 144.075L45.5553 144.121C45.528 144.441 45.461 144.768 45.3452 145.195L44.7929 145.051ZM44.983 144.075C45.0083 143.779 44.998 143.491 44.9612 143.127L45.5291 143.073C45.5705 143.484 45.5825 143.802 45.5553 144.121L44.983 144.075ZM44.9612 143.127L44.9835 142.985L45.2452 143.1L44.9612 143.127ZM44.9835 142.985C45.3685 142.132 45.5272 141.901 45.8074 141.494L46.2791 141.814C46.0201 142.19 45.8734 142.403 45.5068 143.215L44.9835 142.985ZM45.8074 141.494C45.8361 141.452 45.8605 141.417 45.9326 141.311L46.4065 141.628C46.3883 141.655 46.3287 141.742 46.2791 141.814L45.8074 141.494ZM45.9326 141.311C46.151 140.989 46.2515 140.774 46.2837 140.552L46.8494 140.63C46.8034 140.948 46.6767 141.23 46.4065 141.628L45.9326 141.311ZM46.2837 140.552C46.3172 140.319 46.2834 140.04 46.2325 139.615L46.8004 139.55C46.8563 140.018 46.8936 140.323 46.8494 140.63L46.2837 140.552ZM46.2325 139.615C46.2185 139.499 46.207 139.407 46.1989 139.346L46.7646 139.276C46.7818 139.403 46.7936 139.493 46.8004 139.55L46.2325 139.615ZM46.1989 139.346C46.1926 139.298 46.1783 139.201 46.1585 139.067L46.7242 138.984C46.7331 139.045 46.7464 139.139 46.7646 139.276L46.1989 139.346ZM46.1585 139.067L46.1027 138.688L46.4839 138.745L46.4414 139.026L46.1585 139.067ZM46.4839 138.745C47.2934 138.866 48.0877 138.925 48.878 138.93L48.8757 139.498C48.0588 139.493 47.2369 139.431 46.3989 139.306L46.4839 138.745ZM48.878 138.93C49.6706 138.935 50.459 138.886 51.254 138.788L51.3211 139.352C50.5019 139.452 49.6904 139.504 48.8757 139.498L48.878 138.93ZM51.254 138.788L51.4307 139.316L51.2876 139.07L51.254 138.788ZM51.4307 139.316C50.9687 139.583 50.5077 139.818 49.9194 140.118L49.6579 139.612C50.2385 139.316 50.6935 139.084 51.1445 138.823L51.4307 139.316ZM49.9194 140.118C49.8765 140.14 49.8325 140.163 49.7882 140.185L49.5266 139.679C49.571 139.657 49.615 139.634 49.6579 139.612L49.9194 140.118ZM49.7882 140.185C49.1836 140.494 49.1781 141.141 49.3916 141.819L48.8462 141.988C48.5536 141.059 48.5926 140.156 49.5266 139.679L49.7882 140.185ZM49.3916 141.819C49.6338 142.589 50.1482 143.399 50.4712 143.893L49.9926 144.201C49.6524 143.681 49.1099 142.826 48.8462 141.988L49.3916 141.819ZM50.4712 143.893C51.147 144.927 51.7845 145.797 52.5165 146.242L52.2191 146.726C51.3914 146.223 50.7083 145.296 49.9926 144.201L50.4712 143.893ZM52.5165 146.242C53.2081 146.663 54.0168 146.702 55.0879 146.127L55.3584 146.628C54.0784 147.316 53.0871 147.254 52.2191 146.726L52.5165 146.242ZM55.0879 146.127C55.5941 145.855 55.764 145.56 55.9928 145.162L56.4913 145.441C56.2149 145.922 56.0096 146.279 55.3584 146.628L55.0879 146.127ZM55.9928 145.162C56.0838 145.004 56.1837 144.83 56.33 144.613L56.8039 144.928C56.6868 145.102 56.5845 145.28 56.4913 145.441L55.9928 145.162ZM56.33 144.613L56.4295 144.521L56.5669 144.771L56.33 144.613ZM56.4295 144.521C56.5965 144.43 57.3103 143.845 58.0044 143.276L58.3689 143.713C57.6511 144.302 56.9127 144.907 56.7044 145.02L56.4295 144.521ZM58.0044 143.276C58.3618 142.983 58.7143 142.694 58.8972 142.547L59.2571 142.991C58.9223 143.26 58.6468 143.485 58.3689 143.713L58.0044 143.276ZM58.8972 142.547L59.1164 142.372L59.2974 142.587L59.0771 142.769L58.8972 142.547ZM59.2974 142.587C59.4115 142.723 59.592 142.807 59.8373 142.865L59.7055 143.418C59.3396 143.331 59.0589 143.192 58.8569 142.951L59.2974 142.587ZM59.8373 142.865C60.119 142.932 60.489 142.965 60.9373 142.997L60.897 143.565C60.4271 143.531 60.0349 143.496 59.7055 143.418L59.8373 142.865ZM60.9373 142.997C61.2888 143.022 62.4118 143.022 63.137 143.022V143.589C62.3961 143.59 61.2488 143.59 60.897 143.565L60.9373 142.997ZM63.137 143.022C63.367 143.021 63.5581 143.021 63.6724 143.022L63.6701 143.59C63.5559 143.589 63.3659 143.589 63.137 143.589V143.022ZM63.6724 143.022C64.3482 143.026 64.8839 142.996 65.2377 142.798L65.5194 143.292C65.0526 143.555 64.4349 143.595 63.6701 143.59L63.6724 143.022ZM65.2377 142.798C65.5609 142.616 65.7551 142.258 65.8035 141.588L66.3758 141.628C66.3116 142.517 66.0169 143.013 65.5194 143.292L65.2377 142.798ZM65.8035 141.588C65.8282 141.244 65.8341 141.039 65.7951 140.863L66.354 140.741C66.4091 140.99 66.4042 141.233 66.3758 141.628L65.8035 141.588ZM65.7951 140.863C65.7562 140.687 65.6644 140.505 65.4943 140.205L65.9951 139.928C66.1912 140.273 66.2989 140.493 66.354 140.741L65.7951 140.863ZM65.4943 140.205L65.4586 140.073L65.7447 140.066L65.4943 140.205ZM65.4586 140.073C65.4475 139.665 65.4363 139.258 65.4255 138.85L65.9978 138.837C66.0086 139.244 66.0199 139.652 66.0308 140.06L65.4586 140.073ZM65.4255 138.85C65.4146 138.443 65.4034 138.035 65.3926 137.627L65.9649 137.614C65.9757 138.021 65.9869 138.429 65.9978 138.837L65.4255 138.85ZM65.3926 137.627C65.3807 137.19 65.3331 136.839 65.2459 136.497L65.8004 136.36C65.8985 136.744 65.9518 137.134 65.9649 137.614L65.3926 137.627ZM65.2459 136.497C65.158 136.153 65.027 135.809 64.8501 135.391L65.3778 135.172C65.5638 135.611 65.7029 135.978 65.8004 136.36L65.2459 136.497ZM64.8501 135.391C64.7249 135.096 64.6176 134.809 64.5125 134.527L65.0491 134.332C65.1493 134.6 65.2515 134.874 65.3778 135.172L64.8501 135.391ZM65.0491 134.331V134.332L64.7808 134.43L65.0491 134.331ZM64.5125 134.528C64.3489 134.091 64.1902 133.666 63.9573 133.21L64.4693 132.955C64.7138 133.433 64.879 133.875 65.0491 134.331L64.5125 134.528ZM63.9573 133.21L63.9316 133.033L64.2134 133.082L63.9573 133.21ZM63.9316 133.033C63.9598 132.875 63.9834 132.728 64.0014 132.595L64.5671 132.666C64.5437 132.839 64.5196 132.993 64.4951 133.131L63.9316 133.033ZM64.0014 132.595C64.0176 132.474 64.0341 132.322 64.0506 132.138L64.6229 132.184C64.6109 132.319 64.592 132.48 64.5671 132.666L64.0014 132.595ZM64.0506 132.138L64.1038 131.544L64.5346 131.956L64.3367 132.161L64.0506 132.138ZM64.5346 131.956C64.8148 132.224 65.0953 132.492 65.3755 132.76L64.9797 133.17C64.6995 132.902 64.4191 132.634 64.1389 132.366L64.5346 131.956ZM65.3755 132.76L66.0041 133.361L65.6083 133.771L64.9797 133.17L65.3755 132.76ZM66.0041 133.361C66.4579 133.795 66.8724 134.189 67.3324 134.458L67.0418 134.949C66.5268 134.647 66.0882 134.23 65.6083 133.771L66.0041 133.361ZM67.3324 134.458C67.7748 134.717 68.2738 134.867 68.9221 134.837L68.9489 135.405C68.1735 135.441 67.5744 135.26 67.0418 134.949L67.3324 134.458ZM68.9221 134.837C69.6216 134.804 70.3772 134.506 71.0052 134.047L71.3451 134.504C70.6298 135.027 69.7611 135.367 68.9489 135.405L68.9221 134.837ZM71.0052 134.047C71.6046 133.608 72.0825 133.026 72.2766 132.392L72.8245 132.557C72.5926 133.313 72.0372 133.997 71.3451 134.504L71.0052 134.047ZM72.2766 132.392C72.3436 132.174 72.4106 131.955 72.4774 131.736L73.0253 131.9C72.9585 132.119 72.8914 132.338 72.8245 132.557L72.2766 132.392ZM72.4774 131.736C72.5551 131.482 72.6332 131.227 72.7111 130.973L73.2589 131.137C73.1811 131.391 73.103 131.646 73.0253 131.9L72.4774 131.736ZM72.7111 130.973L72.7857 130.729L73.0375 130.776L72.985 131.055L72.7111 130.973ZM73.0375 130.776C74.1963 130.994 75.4582 131.07 76.6709 130.943L76.7269 131.507C75.4589 131.639 74.1413 131.56 72.9325 131.333L73.0375 130.776ZM76.6709 130.943C77.7364 130.833 78.764 130.564 79.6473 130.096L79.9157 130.598C78.9666 131.1 77.8662 131.388 76.7269 131.507L76.6709 130.943ZM79.6473 130.096C80.9412 129.411 81.9129 128.399 82.6125 127.196L83.1089 127.478C82.3571 128.77 81.311 129.859 79.9157 130.598L79.6473 130.096ZM82.6125 127.196V127.195L82.8607 127.337L82.6125 127.196ZM82.6125 127.195C83.412 125.821 83.8598 124.2 84.0303 122.529L84.5982 122.583C84.4195 124.334 83.9491 126.035 83.1089 127.479L82.6125 127.195ZM84.0303 122.529C84.1692 121.168 84.0923 119.312 83.8051 117.516L84.3686 117.428C84.6631 119.269 84.7415 121.178 84.5982 122.583L84.0303 122.529ZM83.8051 117.516C83.5519 115.933 83.1353 114.401 82.5605 113.309L83.0681 113.047C83.6713 114.193 84.1062 115.786 84.3686 117.428L83.8051 117.516ZM82.5605 113.309C82.5155 113.224 82.4406 113.13 82.3446 113.036L82.7447 112.63C82.8827 112.765 82.9945 112.907 83.0681 113.047L82.5605 113.309ZM82.3446 113.036C82.0992 112.796 81.7347 112.568 81.3572 112.44L81.5428 111.903C82.0013 112.059 82.445 112.337 82.7447 112.63L82.3446 113.036ZM81.3572 112.44C81.007 112.32 80.6541 112.287 80.402 112.418L80.1381 111.914C80.5448 111.703 81.057 111.737 81.5428 111.903L81.3572 112.44ZM80.402 112.418C80.3492 112.445 80.2999 112.481 80.2561 112.525L79.8469 112.128C79.9345 112.04 80.0325 111.969 80.1381 111.914L80.402 112.418ZM80.2561 112.525C80.0221 112.76 79.8167 113.058 79.6109 113.356L79.1392 113.037C79.3616 112.714 79.5835 112.393 79.8469 112.128L80.2561 112.525ZM79.6109 113.356C79.3402 113.749 79.0682 114.143 78.7161 114.441L78.345 114.009C78.6428 113.756 78.8916 113.395 79.1392 113.037L79.6109 113.356ZM78.7161 114.441C78.2852 114.807 77.7855 115.006 77.3215 115.19L77.1091 114.662C77.5311 114.494 77.9854 114.313 78.345 114.009L78.7161 114.441ZM77.3215 115.19C77.2406 115.222 77.1612 115.254 77.1108 115.275L76.894 114.749C76.9829 114.713 77.0462 114.687 77.1091 114.662L77.3215 115.19ZM77.1108 115.275L76.8376 115.386L76.7341 115.109L77.0024 115.012L77.1108 115.275ZM76.7341 115.109C76.5491 114.613 76.3221 114.171 76.0592 113.754L76.5444 113.453C76.8256 113.898 77.0697 114.375 77.2708 114.914L76.7341 115.109ZM76.0592 113.754C75.7937 113.333 75.4926 112.941 75.1619 112.55L75.6002 112.187C75.9491 112.599 76.266 113.012 76.5444 113.453L76.0592 113.754ZM75.1619 112.55C74.9065 112.249 74.6586 112.022 74.391 111.82L74.7374 111.37C75.0377 111.597 75.3151 111.85 75.6002 112.187L75.1619 112.55ZM74.391 111.82C74.1239 111.618 73.8203 111.429 73.4662 111.209L73.7701 110.728C74.1287 110.95 74.4365 111.142 74.7374 111.37L74.391 111.82ZM73.4662 111.209C72.4684 110.589 71.632 109.861 70.7788 109.118L71.1544 108.69C71.9896 109.417 72.8083 110.13 73.7701 110.728L73.4662 111.209ZM70.7788 109.118C70.4196 108.806 70.0572 108.49 69.6521 108.159L70.0166 107.719C70.3916 108.026 70.7748 108.36 71.1544 108.69L70.7788 109.118ZM69.6521 108.159C67.7622 106.612 66.0119 105.863 64.1527 105.747L64.1886 105.179C66.1727 105.303 68.0279 106.092 70.0166 107.719L69.6521 108.159ZM64.1527 105.747C62.2797 105.63 60.2783 106.15 57.9022 107.143L57.6807 106.619C60.1372 105.593 62.2182 105.056 64.1886 105.179L64.1527 105.747ZM57.9022 107.143C56.7823 107.611 55.9536 108.161 55.2345 108.821L54.8477 108.403C55.6145 107.7 56.4951 107.114 57.6807 106.619L57.9022 107.143ZM55.2345 108.821C54.51 109.486 53.887 110.271 53.1885 111.198L52.7302 110.859C53.4457 109.909 54.0865 109.102 54.8477 108.403L55.2345 108.821ZM53.1885 111.198L53.1077 111.306L52.9739 111.313L52.9594 111.029L53.1885 111.198ZM52.9739 111.313C52.5759 111.333 52.2427 111.381 51.9113 111.512L51.6989 110.985C52.1001 110.825 52.4881 110.768 52.9448 110.745L52.9739 111.313ZM51.9113 111.512C51.5748 111.646 51.228 111.869 50.8032 112.241L50.4253 111.815C50.9035 111.397 51.3025 111.142 51.6989 110.985L51.9113 111.512ZM50.8032 112.241C50.476 112.528 50.1572 112.821 49.8441 113.122L49.4462 112.714C49.7603 112.412 50.0856 112.113 50.4253 111.815L50.8032 112.241ZM49.8441 113.122L49.8431 113.123L49.6452 112.918L49.8441 113.122ZM49.8431 113.123C49.533 113.42 49.2303 113.724 48.9324 114.032L48.5189 113.639C48.8216 113.326 49.1302 113.017 49.4473 112.713L49.8431 113.123ZM48.9324 114.032L48.7703 114.115L48.7256 113.836L48.9324 114.032ZM48.7703 114.115C46.5334 114.469 44.7206 114.857 43.1016 115.48L42.8959 114.949C44.5513 114.313 46.4004 113.917 48.681 113.556L48.7703 114.115ZM43.1016 115.48C41.4965 116.097 40.0799 116.947 38.6229 118.229L38.245 117.803C39.7561 116.474 41.2272 115.591 42.8959 114.949L43.1016 115.48ZM38.6229 118.229C38.0326 118.748 37.5235 119.295 37.0794 119.872L36.6255 119.528C37.0934 118.92 37.6276 118.346 38.245 117.803L38.6229 118.229ZM37.0794 119.872C36.6351 120.449 36.2533 121.061 35.9181 121.709L35.4083 121.451C35.7577 120.776 36.1578 120.136 36.6255 119.528L37.0794 119.872ZM35.9181 121.709L35.8756 121.77L35.6632 121.58L35.9181 121.709ZM35.8756 121.77C35.5501 122.127 35.2254 122.488 34.877 122.8L34.4947 122.376C34.831 122.075 35.1405 121.731 35.4507 121.39L35.8756 121.77ZM34.877 122.8C34.5118 123.126 34.116 123.403 33.6585 123.578L33.4529 123.048C33.8346 122.902 34.1751 122.661 34.4947 122.376L34.877 122.8ZM33.6585 123.578H33.6574L33.5557 123.313L33.6585 123.578ZM33.6574 123.578C33.2902 123.718 33.1107 123.788 32.9073 123.703L33.1287 123.179C33.138 123.183 33.2302 123.133 33.454 123.048L33.6574 123.578ZM32.9073 123.703L32.9062 123.702L33.018 123.441L32.9073 123.703ZM32.9062 123.702C32.6917 123.611 32.6319 123.436 32.4991 123.085L33.0358 122.887C33.1111 123.087 33.1096 123.172 33.1298 123.18L32.9062 123.702ZM32.4991 123.085L32.4245 122.887L32.5964 122.759L32.7674 122.986L32.4991 123.085ZM32.5964 122.759C33.1223 122.367 33.1721 121.586 33.22 120.834L33.7923 120.869C33.7364 121.749 33.6779 122.662 32.9385 123.213L32.5964 122.759ZM33.22 120.834C33.2262 120.735 33.2325 120.637 33.2379 120.563L33.8102 120.603C33.8027 120.706 33.7974 120.788 33.7923 120.869L33.22 120.834ZM33.2379 120.563L33.2583 120.286L33.5375 120.299L33.5241 120.583L33.2379 120.563ZM33.5375 120.299C34.0096 120.321 34.2246 120.652 34.4566 121.008L33.9759 121.314C33.8276 121.087 33.6901 120.875 33.5106 120.867L33.5375 120.299ZM34.4566 121.008C34.5213 121.108 34.588 121.21 34.6586 121.298L34.2115 121.651C34.1226 121.54 34.0482 121.425 33.9759 121.314L34.4566 121.008ZM34.7145 121.536L34.5836 122.117L34.2115 121.651L34.435 121.475L34.7145 121.536ZM34.1556 121.414C34.2522 120.985 34.3263 120.422 34.2216 119.962L34.7783 119.838C34.9062 120.4 34.8242 121.049 34.7145 121.536L34.1556 121.414ZM34.2216 119.962C34.1552 119.669 34.0127 119.418 33.7479 119.282L34.0094 118.776C34.4472 119.001 34.6768 119.391 34.7783 119.838L34.2216 119.962ZM33.7479 119.282L33.5217 119.165L33.6103 118.93L33.8787 119.029L33.7479 119.282ZM33.6103 118.93C33.6526 118.818 33.7142 118.662 33.7774 118.502L34.3094 118.709C34.2599 118.834 34.2103 118.96 34.147 119.127L33.6103 118.93ZM33.7774 118.502C33.8617 118.288 33.9484 118.069 34.0395 117.812L34.5805 117.998C34.4991 118.228 34.4029 118.472 34.3094 118.709L33.7774 118.502ZM34.2619 117.626L34.742 117.543L34.5805 117.998L34.31 117.905L34.2619 117.626ZM34.3581 118.185C33.804 118.28 32.5836 118.96 31.6978 119.872L31.2842 119.479C32.2506 118.484 33.6232 117.736 34.2619 117.626L34.3581 118.185ZM31.6978 119.872C31.3767 120.203 31.1046 120.56 30.9327 120.924L30.4141 120.687C30.6167 120.258 30.9253 119.849 31.2842 119.479L31.6978 119.872ZM30.9327 120.924C30.7687 121.271 30.6938 121.626 30.7541 121.971L30.1906 122.067C30.1089 121.599 30.2033 121.133 30.4141 120.687L30.9327 120.924ZM30.7541 121.971C30.8089 122.285 30.9784 122.6 31.2978 122.905L30.902 123.316C30.488 122.92 30.2658 122.497 30.1906 122.067L30.7541 121.971ZM31.2978 122.905L31.3772 123.043L31.0999 123.11L31.2978 122.905ZM31.3772 123.043C31.4498 123.336 31.515 123.584 31.5858 123.808L31.0404 123.977C30.9666 123.743 30.8985 123.484 30.8227 123.178L31.3772 123.043ZM31.5858 123.808C31.6536 124.023 31.7276 124.215 31.8204 124.407L31.304 124.651C31.2004 124.437 31.1173 124.22 31.0404 123.977L31.5858 123.808ZM31.8204 124.407C32.0262 124.832 32.3518 125.09 32.7271 125.21L32.5528 125.751C32.034 125.586 31.5853 125.231 31.304 124.651L31.8204 124.407ZM32.7271 125.21C33.165 125.349 33.6744 125.307 34.1503 125.123L34.3583 125.65C33.7634 125.881 33.1178 125.931 32.5528 125.751L32.7271 125.21ZM34.1503 125.123L34.6472 124.93L34.5337 125.446L34.2543 125.387L34.1503 125.123ZM34.5337 125.446C34.3989 126.06 34.3176 126.703 34.2903 127.43L33.718 127.41C33.7465 126.651 33.8324 125.976 33.9749 125.327L34.5337 125.446ZM34.2903 127.43C34.2631 128.156 34.2908 128.971 34.3737 129.929L33.8014 129.976C33.7174 129.004 33.6896 128.168 33.718 127.41L34.2903 127.43ZM34.3737 129.929C34.3949 130.173 34.4202 130.397 34.4492 130.603L33.8835 130.678C33.8475 130.423 33.8198 130.188 33.8014 129.976L34.3737 129.929ZM34.4492 130.603C34.4813 130.829 34.5204 131.061 34.5659 131.296L34.0048 131.403C33.9588 131.165 33.9181 130.923 33.8835 130.678L34.4492 130.603ZM34.5659 131.296L34.5537 131.447L34.2853 131.349" fill="black"/>
<path fill-rule="evenodd" clip-rule="evenodd" d="M48.8827 114.288L45.1151 114.896L41.6771 116.391L38.7571 118.214L35.9785 121.579L34.4087 123.229L32.8909 123.784L32.4894 122.81L33.1914 121.805L33.3491 120.387L33.8193 120.406L34.333 120.871L34.1945 119.426L33.625 119.047L33.6423 118.497L32.2933 119.254L31.0717 120.684L30.8171 121.962L31.3394 122.986L31.8266 124.725L32.8175 125.191L33.8599 125.14L34.8482 124.57L34.1889 127.888L34.8482 131.58L34.1225 133.285L31.7454 135.827L32.168 137.345L33.2941 139.105L35.4174 140.588L36.5436 140.74L37.7958 140.783L37.0146 143.965L39.8874 145.134L43.4667 145.601L44.6911 144.807L44.7853 142.657L46.1512 140.413L46.2454 138.637L49.542 138.871L52.6032 138.591L49.542 140.413L50.0601 142.61L51.991 145.601L53.8748 146.396L55.3818 145.788L55.9941 144.573L59.1495 142.189L59.7617 142.703L64.7067 142.89L65.6957 142.096L65.7899 140.694L65.4603 140.086L65.2248 136.301L63.5765 133.029L63.859 131.58L64.8481 132.094L67.6267 134.665L68.9924 134.758L70.4994 134.151L72.0066 133.029L72.76 130.599L77.187 130.879L79.8715 129.851L82.0378 127.841L83.592 124.944L83.9688 121.532L83.6391 117.56L82.7914 114.008L81.9436 112.886L80.7663 112.512L78.6941 114.755L76.8103 115.41L75.1619 112.699L73.5136 111.204L72.6187 110.643L69.0395 107.698L66.1667 106.156L63.2938 105.922L59.9501 106.483L57.0302 107.558L55.0051 109.194L53.4039 111.11L51.7556 111.577L48.8827 114.288Z" fill="#FFFF00"/>
<path fill-rule="evenodd" clip-rule="evenodd" d="M37.9556 122.723C34.7282 126.458 35.4451 130.989 36.3396 135.427C35.8623 134.23 35.3848 133.034 34.9075 131.837C34.7316 130.74 34.5558 129.643 34.3799 128.546C34.4301 127.424 34.4804 126.302 34.5307 125.18C34.9829 124.108 35.4351 123.036 35.8873 121.963C36.5657 120.966 37.2442 119.969 37.9226 118.971C38.9778 118.099 40.033 117.226 41.0882 116.353C42.244 115.88 43.3998 115.406 44.5555 114.932C45.9122 114.758 47.269 114.583 48.6258 114.409C47.3695 115.83 46.1133 117.251 44.857 118.672C41.8309 119.646 40.0463 120.302 37.9556 122.723Z" fill="#FFFFCC"/>
<path fill-rule="evenodd" clip-rule="evenodd" d="M53.1483 111.342C50.9047 113.514 49.6792 115.152 48.2514 117.696C47.2301 119.515 46.0845 121.268 45.0107 123.061C44.4676 123.97 44.4163 124.731 44.254 125.778C43.7264 125.155 43.1987 124.531 42.6711 123.908C42.9224 123.16 43.1736 122.412 43.4249 121.664C44.2792 120.143 45.1334 118.622 45.9876 117.101C47.7966 115.331 49.6057 113.561 51.4147 111.791C51.9925 111.641 52.5704 111.491 53.1483 111.342Z" fill="#FFFFCC"/>
<path fill-rule="evenodd" clip-rule="evenodd" d="M64.2284 105.956C62.4315 106.625 59.4473 106.845 59.2403 108.892C59.0928 110.345 59.3507 111.076 60.2335 112.613C58.053 110.374 57.5137 110.721 53.299 111.417C53.902 110.569 54.505 109.721 55.108 108.873C56.1633 108.225 57.2186 107.577 58.2738 106.929C59.6305 106.629 60.9873 106.33 62.3441 106.031C62.9722 106.006 63.6003 105.981 64.2284 105.956Z" fill="#FFFFCC"/>
<path fill-rule="evenodd" clip-rule="evenodd" d="M69.1869 133.641C69.7851 134.008 69.7723 134.273 69.6722 134.524C70.1442 134.337 70.616 134.15 71.0879 133.962C71.3937 133.555 71.6993 133.148 72.005 132.74C72.232 132.16 72.4589 131.58 72.6858 130.999C72.3959 130.783 72.106 130.566 71.816 130.35C70.5486 130.51 69.2812 130.671 68.0139 130.832C67.9196 131.086 67.8251 131.34 67.7307 131.594C67.7578 131.956 67.7848 132.317 67.8117 132.678C67.933 132.892 68.0544 133.106 68.1757 133.32C68.3645 133.414 68.5533 133.508 68.7419 133.601C68.8904 133.615 69.0386 133.628 69.1869 133.641Z" fill="#CCCC00"/>
<path fill-rule="evenodd" clip-rule="evenodd" d="M68.8329 127.189C66.9271 127.735 66.942 127.885 66.3792 129.761C67.1222 128.579 67.6723 127.982 68.8329 127.189Z" fill="#CCCC00"/>
<path fill-rule="evenodd" clip-rule="evenodd" d="M81.5051 113.148C81.1664 113.303 80.8365 113.378 80.6248 113.685C80.1688 114.347 79.7781 114.904 79.0241 115.369C78.6444 115.603 78.2516 115.755 77.8489 115.879C77.5149 115.982 77.3143 115.89 77.03 116.093C77.1987 116.122 77.3673 116.152 77.536 116.181C77.9079 116.181 78.2798 116.181 78.6517 116.181C79.1101 115.9 79.5686 115.619 80.0269 115.338C80.2967 115.057 80.5662 114.776 80.8359 114.495C81.0589 114.046 81.282 113.597 81.5051 113.148Z" fill="#CCCC00"/>
<path fill-rule="evenodd" clip-rule="evenodd" d="M51.147 117.345C50.3972 119.381 49.7421 121.126 48.6062 122.969C50.0617 121.413 50.944 120.091 51.7776 118.331C52.1013 117.648 52.1625 116.846 53.0645 117.144C53.105 117.827 53.2504 118.509 53.2909 119.191C53.7782 115.725 55.1524 114.275 58.3468 112.93C57.4435 113.037 56.5401 113.144 55.6368 113.251C54.7874 113.438 53.938 113.625 53.0886 113.813C52.6706 114.415 52.2526 115.017 51.8347 115.619C51.6054 116.194 51.3763 116.77 51.147 117.345Z" fill="#CCCC00"/>
<path fill-rule="evenodd" clip-rule="evenodd" d="M57.3356 117.265C58.0244 120.482 59.0163 123.57 59.4472 126.839C59.727 128.963 59.7576 129.983 58.6807 131.816C57.5039 131.74 56.7732 131.872 55.6348 132.242C51.103 133.716 48.504 135.884 45.4504 131.516C46.4252 131.972 47.4001 132.428 48.3748 132.884C49.0697 132.748 49.7646 132.613 50.4595 132.477C51.6864 131.768 52.9133 131.059 54.1403 130.35C55.0975 130.163 56.0548 129.975 57.012 129.788C57.3222 128.504 57.6322 127.219 57.9423 125.935C57.7131 124.235 57.4838 122.536 57.2547 120.837C57.2278 120.034 57.2009 119.231 57.1738 118.429C57.2278 118.041 57.2818 117.653 57.3356 117.265Z" fill="#CCCC00"/>
<path fill-rule="evenodd" clip-rule="evenodd" d="M65.1421 137.174C64.7614 139.788 66.0186 141.193 65.4982 141.915C65.3507 142.119 65.1509 142.476 64.928 142.574C64.1314 142.923 63.0363 142.508 62.9579 142.713C62.0815 142.713 61.2052 142.713 60.3287 142.713C59.9783 142.565 59.6278 142.418 59.2771 142.271C59.8164 141.642 60.3558 141.013 60.8951 140.385C61.4208 139.247 61.9467 138.11 62.4726 136.973C62.8097 135.822 63.1468 134.672 63.4837 133.521C63.659 133.521 63.8343 133.521 64.0095 133.521C64.3871 134.739 64.7646 135.956 65.1421 137.174Z" fill="#CCCC00"/>
<path fill-rule="evenodd" clip-rule="evenodd" d="M60.7232 129.574C60.9367 130.761 61.3076 131.043 61.8702 132.192C61.4957 134.066 60.8941 136.295 60.1701 137.949C59.8648 138.647 59.6184 139.031 59.0801 139.57C58.1714 140.481 57.2526 141.274 56.2219 142.064C55.4801 142.631 54.9623 142.346 54.047 142.218C53.6577 142.918 53.5501 143.307 52.8337 143.663C51.7318 144.209 50.7457 143.031 49.8808 142.338C50.5052 143.306 51.1295 144.274 51.7538 145.242C52.1853 145.643 52.6168 146.044 53.0482 146.446C53.4121 146.499 53.7762 146.553 54.1403 146.606C54.6257 146.312 55.111 146.017 55.5963 145.723C55.8526 145.242 56.1088 144.76 56.3649 144.278C56.9042 143.877 57.4436 143.475 57.9828 143.074C58.6435 142.512 59.3042 141.95 59.9648 141.388C60.3828 140.799 60.8007 140.211 61.2187 139.622C61.5961 138.926 61.9737 138.231 62.3512 137.535C62.8365 136.09 63.3219 134.645 63.8074 133.2C63.8477 132.651 63.8882 132.103 63.9286 131.554C63.3219 131.286 62.7152 131.019 62.1085 130.751C61.6635 130.336 61.1682 129.989 60.7232 129.574Z" fill="#CCCC00"/>
<path fill-rule="evenodd" clip-rule="evenodd" d="M46.2125 137.936C48.2539 137.936 50.4098 137.824 52.2796 136.973C52.8088 136.185 53.331 135.542 53.9785 134.846C53.3892 135.95 53.2045 136.574 53.0482 137.816C52.8459 138.11 52.6437 138.404 52.4414 138.699C50.9043 138.739 49.3674 138.779 47.8303 138.819C47.3314 138.766 46.8325 138.712 46.3337 138.659C46.2798 138.605 46.2259 138.552 46.172 138.498C46.1855 138.311 46.199 138.123 46.2125 137.936Z" fill="#CCCC00"/>
<path fill-rule="evenodd" clip-rule="evenodd" d="M45.9293 136.531C45.8765 136.056 45.8236 135.581 45.7708 135.106C45.422 137.19 45.5059 138.586 44.5397 140.452C43.8179 141.282 42.9293 142.037 41.9115 142.441C41.9974 142.953 42.0231 143.272 41.9732 143.648C41.794 144.997 39.0738 144.401 37.9549 144.347C39.7502 144.806 41.5455 145.264 43.3406 145.723C43.7451 145.563 44.1495 145.402 44.5541 145.242C44.6889 144.466 44.8237 143.689 44.9586 142.913C45.3361 142.218 45.7137 141.522 46.0911 140.826C46.1584 140.398 46.2259 139.97 46.2933 139.542C46.172 138.538 46.0507 137.535 45.9293 136.531Z" fill="#CCCC00"/>
<path fill-rule="evenodd" clip-rule="evenodd" d="M42.8956 124.771C42.8392 125.784 42.7733 126.206 43.2234 127.101C43.7957 128.238 44.4985 129.306 45.1204 130.43C45.1877 129.681 45.2551 128.932 45.3225 128.182C44.5136 127.045 43.7047 125.908 42.8956 124.771Z" fill="#CCCC00"/>
<path fill-rule="evenodd" clip-rule="evenodd" d="M34.5925 132.423C34.4174 132.793 34.2423 133.163 34.0672 133.532C34.5492 135.143 34.9775 136.164 35.8952 137.571C35.7354 138.141 35.6158 138.391 35.248 138.855C34.4404 138.732 33.7233 138.696 32.905 138.699C33.8085 139.395 34.7119 140.09 35.6151 140.786C36.0599 140.706 36.5049 140.626 36.9499 140.545C37.3947 140.104 37.8397 139.662 38.2847 139.221C37.6508 138.244 37.0172 137.267 36.3836 136.29C35.7866 135.001 35.1895 133.712 34.5925 132.423Z" fill="#CCCC00"/>
<path fill-rule="evenodd" clip-rule="evenodd" d="M81.5111 112.615C82.0612 115.071 82.7707 117.338 82.7049 119.853C82.6241 122.94 82.0179 126.838 79.1363 128.7C75.9091 130.784 72.1209 129.798 68.5801 128.905C70.0229 129.494 71.4655 130.082 72.9081 130.671C74.2564 130.738 75.6047 130.805 76.9529 130.872C77.8698 130.604 78.7866 130.336 79.7034 130.069C80.418 129.48 81.1326 128.892 81.8471 128.303C82.3864 127.179 82.9257 126.055 83.465 124.931C83.6673 123.633 83.8695 122.335 84.0717 121.038C83.9099 119.767 83.7481 118.496 83.5863 117.225C83.2897 115.967 82.993 114.709 82.6965 113.451C82.3014 113.173 81.9063 112.894 81.5111 112.615Z" fill="#CCCC00"/>
<path fill-rule="evenodd" clip-rule="evenodd" d="M33.3513 119.936C31.8862 120.882 31.3108 121.297 31.4714 123.051C31.6173 123.576 31.7634 124.102 31.9094 124.627C32.1162 124.766 32.3231 124.905 32.53 125.044C32.7855 125.128 33.0411 125.213 33.2966 125.297C33.759 125.188 34.2213 125.08 34.6838 124.971C34.9211 124.241 35.1584 123.51 35.3956 122.779C34.7385 123.099 34.0814 123.419 33.4244 123.739C33.2723 123.739 33.1202 123.739 32.9681 123.739C32.7977 123.48 32.6273 123.22 32.457 122.961C32.6639 122.659 32.8707 122.357 33.0776 122.055C33.1871 121.481 33.2966 120.908 33.4061 120.334C33.546 120.377 33.686 120.419 33.8259 120.461C33.9963 120.594 34.1666 120.727 34.337 120.859C34.3127 120.558 34.2884 120.256 34.2639 119.954C34.1483 119.761 34.0328 119.567 33.9171 119.374C33.8015 119.278 33.686 119.181 33.5703 119.084C33.4973 119.368 33.4244 119.652 33.3513 119.936Z" fill="#CCCC00"/>
<path fill-rule="evenodd" clip-rule="evenodd" d="M66.2204 106.116C67.5205 107.315 69.1164 108.356 70.1564 109.82C70.5589 110.387 71.0061 110.677 70.1496 111.478C71.0546 111.221 71.3908 111.249 72.1152 111.336C73.433 111.494 74.6682 113.353 74.747 114.686C74.7315 114.81 74.381 115.093 73.362 115.372C73.3418 115.411 72.787 115.297 72.8008 115.334C72.9066 115.622 73.0482 115.666 73.2642 115.8C73.3111 116.12 73.3413 116.613 73.5607 116.963C74.2019 116.952 74.8284 117.021 75.4563 117.144C75.6676 117.492 75.6357 117.84 75.6181 118.188C75.8608 118.148 76.1035 118.108 76.3462 118.067C76.2787 117.519 76.2114 116.97 76.144 116.422C76.3596 116.06 76.5753 115.699 76.7911 115.338C76.4809 114.642 76.1708 113.947 75.8608 113.251C75.2675 112.689 74.6743 112.127 74.081 111.565C74.0241 111.562 73.9667 111.559 73.9097 111.556C73.2425 111.15 72.5755 110.744 71.9084 110.338C70.8202 109.454 69.7321 108.571 68.644 107.687C67.836 107.164 67.0282 106.64 66.2204 106.116Z" fill="#CCCC00"/>
<path fill-rule="evenodd" clip-rule="evenodd" d="M68.4107 116.006C68.3421 116.125 68.2385 116.315 68.1058 116.447C68.6474 116.956 68.9146 117.296 69.1076 118.015C68.4954 118.317 67.8833 118.618 67.271 118.92C66.753 119.413 66.2349 119.906 65.7169 120.398C65.0351 120.034 64.8651 119.755 64.5352 119.06C64.1509 119.161 63.7869 119.258 63.4696 119.143C63.6709 119.144 63.7946 119.094 63.9957 118.971C64.3254 118.631 64.655 118.291 64.9847 117.951C65.567 117.514 66.1493 117.076 66.7315 116.638C67.1125 116.515 67.4936 116.392 67.8747 116.269C68.0202 116.209 68.265 116.066 68.4107 116.006Z" fill="#CCCC00"/>
<path fill-rule="evenodd" clip-rule="evenodd" d="M70.1006 117.819C68.1528 118.86 66.2872 119.907 65.2913 121.883C65.2913 119.374 67.8297 118.27 70.1006 117.819Z" fill="#CCCC00"/>
<path fill-rule="evenodd" clip-rule="evenodd" d="M64.9045 112.884C63.4582 113.863 62.4355 115.837 62.564 117.762C62.0929 116.096 62.2598 114.521 63.7064 113.37C63.9506 113.252 64.1945 113.134 64.4385 113.016C64.5939 112.972 64.7492 112.928 64.9045 112.884Z" fill="#CCCC00"/>
<path fill-rule="evenodd" clip-rule="evenodd" d="M67.6691 127.741C67.968 127.58 68.5107 127.358 68.8096 127.197C68.5021 127.248 67.9508 127.36 67.6433 127.412C66.8219 127.549 66.7253 127.745 66.5979 128.548C66.5378 128.926 66.455 129.395 66.3949 129.773C66.5559 129.345 66.7496 128.849 66.9373 128.441C67.1359 128.01 67.2477 127.969 67.6691 127.741ZM52.4291 107.073C53.0746 106.112 53.4462 105.8 54.4395 105.191C53.0908 105.513 52.8337 105.761 52.4291 107.073ZM52.2167 109.19C53.3462 106.936 54.2015 106.107 56.5663 105C53.8915 105.651 53.1052 106.113 52.2167 109.19ZM28.0282 120.919C28.2761 119.79 28.5071 119.365 29.2081 118.438C28.0709 119.227 27.9227 119.551 28.0282 120.919ZM53.3464 139.804C53.3122 139.53 53.2779 139.256 53.2434 138.982C53.1814 138.486 53.1839 138.083 53.2237 137.583C53.2621 137.1 53.3003 136.617 53.3386 136.133C53.1967 136.625 52.9132 137.116 52.7715 137.607C52.7148 137.804 52.6678 137.963 52.6409 138.11C50.5244 138.539 48.4233 138.566 46.3062 138.191C46.1712 137.413 46.0068 136.603 45.8689 136.022C45.8271 136.673 45.854 138.471 45.8506 139.479C45.8479 140.259 45.8148 140.526 45.4094 141.19C45.0297 141.812 44.8689 141.953 44.3374 143.003C44.3816 143.665 44.3824 144.103 44.205 144.732C43.9099 145.778 40.9341 144.968 40.1489 144.754C39.1822 144.492 37.1834 144.101 37.686 142.822C38.1285 141.697 38.4088 140.51 38.6249 138.935C36.8537 136.403 35.2063 132.933 34.8903 129.858C34.6449 127.471 34.7922 126.001 35.3128 124.541C36.1376 122.227 37.2915 120.225 39.1432 118.612C41.6409 116.437 43.9757 115.563 47.6315 115.011C46.7524 115.988 45.8826 117.021 44.9346 118.128C43.9749 119.249 43.4045 120.381 42.7953 121.607C41.9535 123.301 41.9715 123.945 43.0875 125.432C44.0492 126.713 44.5683 127.29 44.9882 128.543C44.6414 129.253 44.5154 129.852 44.3987 130.821C45.5762 132.098 46.4512 132.973 47.5945 133.243C48.7159 133.508 49.6524 133.456 50.6556 132.947C52.884 131.817 54.9457 130.357 57.4593 130.297C58.6222 127.459 58.5047 125.089 57.9463 122.344C57.5651 120.469 57.4122 118.694 57.2936 116.783C56.8221 118.751 56.7337 120.482 57.0834 122.443C57.5051 124.806 57.8329 127.416 56.6598 129.492C54.387 129.665 52.4391 131.037 50.3905 132.09C49.5672 132.513 48.7099 132.554 47.7984 132.306C46.9524 132.076 46.3815 131.52 45.4701 130.477C45.4559 129.43 45.694 128.947 46.1786 127.998C46.9572 126.475 47.8168 125.057 48.7599 123.558C47.6049 124.942 46.5108 126.098 45.6019 127.488C45.2544 126.506 44.7577 126.007 43.9347 124.901C43.1309 123.821 43.0466 123.348 43.6477 122.098C44.252 120.841 44.7645 119.737 45.7932 118.635C47.5705 116.73 49.1986 114.61 51.1422 112.735C52.1974 111.716 52.6259 111.752 54.0257 111.541C55.2908 111.351 56.5262 111.11 57.8165 110.813C56.5686 110.928 55.3624 110.971 54.1476 111.001C54.1349 111.001 54.1225 111.002 54.1099 111.002C55.3052 109.487 55.9988 108.643 57.94 107.806C62.7195 105.746 65.7564 105.523 69.5108 108.655C70.4838 109.466 71.3337 110.254 72.3204 110.955C71.9627 110.985 71.6544 111.049 71.2466 111.208C71.7429 111.114 72.3159 111.207 72.8309 111.3C72.9755 111.393 73.124 111.484 73.2763 111.573C73.9727 111.98 74.368 112.205 74.839 112.857C75.3369 113.545 75.7519 114.233 76.1177 114.991C75.878 114.906 75.677 114.834 75.4979 114.781C75.366 114.721 75.2226 114.681 75.0705 114.667C74.7693 114.638 74.481 114.712 74.2409 114.858C74.2312 114.863 74.2216 114.867 74.2118 114.872C73.8266 115.058 73.2298 115.27 72.8304 115.335C73.034 115.404 73.4845 115.431 73.6971 115.347C73.7256 115.336 73.7545 115.327 73.7842 115.32C73.6884 115.482 73.6257 115.666 73.6065 115.865C73.581 116.128 73.6349 116.381 73.749 116.6C73.7494 116.601 73.7498 116.602 73.7502 116.602C73.7863 116.686 73.8364 116.764 73.8915 116.82C73.7088 116.887 73.5226 116.963 73.3306 117.046C74.2211 116.911 75.0242 116.888 75.8936 117.002C75.9509 117.274 76.0087 117.562 76.0622 117.855C75.9545 117.864 75.847 117.872 75.7394 117.88C75.7307 117.881 75.7219 117.882 75.7132 117.882C75.3019 117.556 74.8436 117.611 74.2176 117.753C72.3138 118.184 72.7612 119.244 71.8852 120.841C72.7947 119.738 72.7273 118.584 74.2093 118.235C74.5546 118.154 74.7897 118.053 75.0234 118.088C74.6027 118.298 74.2387 118.646 74.0945 119.05C73.6877 120.19 73.9403 121.15 73.4934 122.215C74.047 121.263 74.0804 120.334 74.5753 119.333C74.7531 118.973 75.4128 118.397 75.8179 118.389C75.929 118.386 76.0399 118.384 76.1512 118.381C76.2488 119.015 76.3082 119.644 76.2703 120.166C76.2013 121.118 75.952 122.531 75.8028 123.072C76.3042 122.433 76.5326 121.078 76.7528 120.124C76.9822 119.131 76.9243 117.94 76.7235 116.873C76.448 115.409 77.9671 115.647 78.849 114.957C79.4972 114.45 79.9434 113.64 80.5378 113.067C81.1274 112.498 82.0554 113.334 82.2872 113.89C83.2928 116.304 83.7508 120.102 83.4853 122.535C83.1872 125.266 81.8581 128.247 79.4312 129.591C76.3374 131.304 72.6896 130.258 69.6159 129.23C68.9598 129.011 68.5036 128.691 67.9269 128.33C68.0839 129.032 68.1553 129.775 67.9464 130.475C67.6148 131.587 67.0792 133.406 68.6004 133.742C69.1793 133.869 69.4418 133.851 70.2591 133.432C69.5976 133.581 69.2641 133.544 68.8094 133.461C68.3974 133.386 68.1789 133.126 68.0638 132.82C68.2078 132.923 68.4425 132.979 68.8437 133.075C69.9714 133.344 71.0459 132.806 71.2561 132.03C71.3786 131.576 71.3578 131.338 71.6174 130.721C71.8506 130.792 72.092 130.857 72.3394 130.917C72.1998 131.368 72.06 131.821 71.9204 132.273C71.5579 133.446 70.146 134.392 68.8992 134.37C67.7466 134.35 67.016 133.633 66.2203 132.931C65.6721 132.447 65.1447 131.984 64.6217 131.525C63.1874 131.076 62.0376 130.551 60.7063 129.573C61.6537 130.678 62.2964 131.29 63.6177 131.84C63.4254 133.785 62.7443 135.203 62.1635 137.064C61.9008 137.906 59.8256 141.279 59.2506 141.608C58.8405 141.842 56.2722 143.989 55.7889 144.272C55.4291 144.746 55.1133 145.402 54.5724 145.685C52.9239 146.55 51.8646 144.894 50.9774 143.495C50.5734 142.858 49.4519 141.022 50.4297 140.508C51.3541 140.022 51.8718 139.675 52.815 139.06C52.9536 139.311 53.1915 139.553 53.3464 139.804ZM59.0771 142.769C58.2426 143.438 56.8392 144.623 56.5669 144.771C56.074 145.501 56.013 145.953 55.2231 146.378C52.8718 147.64 51.6238 146.176 50.2319 144.047C49.5687 143.033 48.1186 140.717 49.6574 139.932C50.3057 139.601 50.7972 139.354 51.2874 139.07C49.673 139.269 48.0889 139.271 46.4414 139.026C46.4705 139.223 46.4957 139.41 46.5164 139.583C46.6234 140.476 46.6585 140.75 46.1695 141.469C45.8132 141.994 45.6757 142.146 45.2452 143.1C45.3236 143.875 45.2894 144.311 45.0691 145.123C44.5791 146.928 41.1837 145.939 39.8001 145.567C38.1354 145.12 35.7566 144.704 36.7327 142.581C36.9613 142.083 37.1409 141.574 37.2762 141.089C35.8206 141.728 33.7977 140.372 32.8342 139.413C31.9179 138.502 31.4201 137.443 31.2466 136.415C31.099 135.541 31.2342 135.545 31.863 134.927C32.4382 134.362 33.0133 133.796 33.5884 133.232C33.8206 132.604 34.0532 131.977 34.2853 131.35C34.1949 130.882 34.1276 130.415 34.0876 129.952C33.9205 128.023 33.9766 126.65 34.2543 125.387C33.2415 125.779 32.0791 125.596 31.5622 124.529C31.3656 124.123 31.2486 123.71 31.1002 123.111C28.8408 120.95 33.0748 118.118 34.31 117.905C34.1688 118.303 34.0141 118.668 33.8779 119.029C34.7156 119.459 34.6129 120.685 34.435 121.475C34.1336 121.097 33.9674 120.604 33.5241 120.583C33.459 121.476 33.4701 122.462 32.7674 122.986C32.9756 123.538 32.9647 123.538 33.5557 123.313C34.3952 122.992 35.0276 122.278 35.6635 121.58C36.3484 120.256 37.2262 119.079 38.434 118.016C41.4019 115.405 44.2074 114.55 48.7246 113.836C49.3259 113.213 49.9473 112.613 50.6142 112.028C51.5178 111.237 52.1045 111.073 52.9591 111.029C54.3733 109.151 55.4858 107.844 57.7914 106.881C62.6244 104.863 65.9554 104.765 69.8344 107.939C71.1162 108.988 72.2094 110.093 73.6182 110.968C74.3311 111.411 74.8404 111.73 75.3811 112.369C76.0608 113.172 76.6159 113.976 77.0023 115.011C77.5016 114.807 78.0709 114.615 78.5306 114.225C79.1241 113.722 79.5017 112.879 80.0515 112.326C80.7812 111.593 82.4457 112.478 82.8143 113.178C84.0678 115.559 84.5807 119.947 84.3143 122.556C83.9849 125.781 82.6451 128.831 79.7815 130.347C77.8345 131.378 75.2211 131.474 72.985 131.055C72.84 131.528 72.6955 132.001 72.5506 132.474C72.1159 133.892 70.4183 135.052 68.9355 135.121C67.5117 135.188 66.74 134.459 65.8062 133.566C65.3164 133.098 64.8263 132.63 64.3364 132.161C64.3079 132.48 64.2659 132.786 64.2129 133.082C64.5986 133.838 64.7839 134.502 65.114 135.282C65.477 136.139 65.6537 136.703 65.6788 137.621C65.7007 138.436 65.7226 139.251 65.7447 140.066C66.1111 140.712 66.143 140.869 66.0896 141.608C65.9768 143.166 65.1123 143.315 63.6713 143.306C63.191 143.303 61.3791 143.314 60.9171 143.281C59.9989 143.215 59.3934 143.146 59.0771 142.769ZM63.9361 134.271C63.6462 135.298 63.2566 136.268 62.9009 137.379C62.5644 138.432 60.838 141.487 59.8218 142.227C60.0196 142.374 60.3827 142.431 61.0294 142.486C61.4869 142.525 63.2906 142.534 63.7435 142.541C64.7406 142.559 65.119 142.484 65.2199 141.358C65.2691 140.806 65.2257 140.703 64.9476 140.219C64.923 139.357 64.8984 138.494 64.8739 137.632C64.8507 136.815 64.6926 136.344 64.3686 135.582C64.1747 135.126 64.0695 134.7 63.9361 134.271ZM33.5649 120.158C33.7888 120.133 33.9272 120.25 34.1003 120.421C34.0683 120.011 33.9919 119.707 33.7017 119.539C33.6814 119.606 33.6622 119.672 33.6442 119.74C33.609 119.872 33.584 120.013 33.5649 120.158ZM34.9714 123.122C34.8102 123.536 34.6608 123.962 34.52 124.403C34.4967 124.476 34.4743 124.549 34.4525 124.622C33.6011 124.98 32.4816 125.208 32.053 124.32C31.8449 123.889 31.7275 123.466 31.5757 122.921C30.1736 121.48 32.2695 119.577 33.4112 118.894C33.246 119.247 33.1286 119.514 33.0485 119.788C32.7014 120.979 33.2057 122.041 32.1169 122.904C32.6286 123.929 32.605 124.338 33.7955 123.864C34.2548 123.681 34.6335 123.425 34.9714 123.122ZM34.6433 132.823C35.2886 135.038 36.3877 137.214 37.6061 139.044C37.606 139.054 37.6059 139.065 37.6058 139.076C37.5295 139.39 37.4412 139.697 37.256 139.943C36.3852 141.099 34.1698 139.402 33.5286 138.752C32.8276 138.042 32.3584 137.201 32.2467 136.412C32.1655 135.836 32.2443 135.822 32.6489 135.415C33.1941 134.868 33.7399 134.319 34.2849 133.772C34.4042 133.455 34.524 133.139 34.6433 132.823ZM75.8824 115.045C76.0066 115.167 76.1069 115.312 76.176 115.472C76.2137 115.438 76.254 115.406 76.2961 115.375C76.245 115.261 76.1931 115.148 76.14 115.037C76.0518 115.039 75.966 115.042 75.8824 115.045ZM65.2147 119.029C65.1011 118.793 65.0467 118.543 65.0448 118.297C64.6268 118.628 64.1723 118.943 63.7007 119.124C64.3518 118.547 65.2362 117.186 65.8771 116.757C66.6044 116.269 67.5914 116.364 68.4393 115.975C68.1498 116.236 67.7788 116.446 67.4011 116.646C67.8172 116.797 68.1768 117.103 68.3819 117.53C68.4684 117.71 68.5202 117.898 68.5411 118.086C69.1107 117.9 69.6701 117.812 70.1426 117.819C68.4525 118.29 66.6547 119.391 65.4151 120.849C65.5543 120.469 65.7489 120.126 65.9833 119.819C65.6584 119.651 65.3842 119.381 65.2147 119.029ZM57.377 112.961C56.4437 113.323 55.5924 113.594 54.6825 113.821C53.8524 114.904 53.3467 115.465 53.1556 116.916C52.9309 115.488 52.8841 115.223 53.5244 114.157C53.3389 114.251 53.1663 114.38 52.919 114.59C52.0244 115.349 50.8584 118.332 50.3921 119.398C50.6881 118.114 51.6138 114.906 52.5672 113.971C53.1942 113.355 53.3364 113.37 54.2205 113.287C55.2736 113.188 56.3245 113.079 57.377 112.961ZM76.8577 116.074C77.6148 116.145 78.0477 116.261 78.7256 115.928C79.9893 115.308 80.9191 114.295 81.522 113.083C81.1532 114.528 80.4109 115.757 78.8713 116.302C78.1152 116.569 77.6277 116.293 76.8577 116.074ZM62.3271 116.215C62.6123 114.962 63.1188 113.754 65.0807 112.819C62.4804 113.465 61.9928 114.549 62.3271 116.215ZM28.6088 122.966C28.8319 120.459 29.3232 119.377 31.1181 117.491C28.8667 119.065 28.3049 119.78 28.6088 122.966Z" fill="black"/>
<path fill-rule="evenodd" clip-rule="evenodd" d="M65.5539 119.433C65.3801 119.072 65.5355 118.637 65.8998 118.465C66.2641 118.293 66.703 118.447 66.8768 118.808C66.8933 118.842 66.9064 118.877 66.917 118.912C66.5691 119.169 66.2501 119.471 65.9827 119.82C65.8025 119.748 65.6431 119.618 65.5539 119.433Z" fill="#FFFFCC"/>
<path fill-rule="evenodd" clip-rule="evenodd" d="M73.6949 116.307C73.7239 116.008 73.9807 115.788 74.2817 115.817C74.5827 115.846 74.8049 116.113 74.776 116.412C74.7698 116.475 74.7524 116.535 74.7265 116.59C74.4509 116.636 74.1754 116.717 73.8915 116.82C73.7727 116.7 73.6782 116.48 73.6949 116.307Z" fill="#FFFFCC"/>
</svg>