<?xml version="1.0" encoding="UTF-8"?>
<svg id="apachejmeter" width="256" height="256" fill="none" title="Apache JMeter" version="1.1" viewBox="0 0 256 256" xmlns="http://www.w3.org/2000/svg">
 <style>#apachejmeter {
    rect {fill: #15191C}
    path.jmeter {fill: white}

    @media (prefers-color-scheme: light) {
        rect {fill: #F4F2ED}
        path.jmeter {fill: #212121}
    }
}</style>
 <rect width="256" height="256" rx="40" fill="#f4f2ed"/>
 <path d="m56.78 94.321c-1.8751 1.4255-3.5408 3.1089-4.9478 5.0005l1.9421 3.7111c1.2522-1.834 2.637-3.574 4.1432-5.2048l0.1665-0.1762c-0.0555 0.0649-0.1203 0.1113-0.1665 0.1762-1.4361 1.6559-2.7381 3.4238-3.8935 5.2878 2.527-0.175 5.0429-0.485 7.5373-0.927 0.7491-4.1659-0.7214-6.0678-0.7214-6.0678s-1.8774-3.1079-4.0599-1.7998z" fill="url(#linearGradient1)"/>
 <path d="m48.05 112.47c0.5919-1.104 1.193-2.189 1.7849-3.238 0.5919-1.048 1.2578-2.152 1.8496-3.182 0.0432-0.057 0.0834-0.115 0.1203-0.176 0.6165-1.002 1.2546-1.967 1.9143-2.895l-1.9421-3.6551-0.4439 0.5381c-0.5549 0.705-1.1375 1.457-1.7386 2.254-0.6012 0.798-1.3503 1.856-2.0624 2.858s-1.3039 1.855-1.9606 2.913c-0.5549 0.863-1.1097 1.735-1.6739 2.635-0.016 0.037-0.0378 0.071-0.0647 0.102l2.5247 5 1.6924-3.154z" fill="url(#linearGradient2)"/>
 <path d="m36.564 140.63c-0.3329 0.928-0.6751 1.856-0.9988 2.783 0 0.14-0.1017 0.269-0.1387 0.409-0.2219 0.649-0.4162 1.233-0.8693 2.551 0.8428 0.544 1.5032 1.329 1.8959 2.254-0.0598-1.064-0.5309-2.062-1.3133-2.783 3.6993 0.167 6.8251-0.761 8.4436-3.451 0.1387-0.241 0.2774-0.501 0.4069-0.77-0.7491 0.928-1.6554 1.354-3.3941 1.252 2.0556-0.766 3.797-2.2 4.9478-4.072 0.2712-0.427 0.5394-0.9 0.8046-1.42-0.9346 1.032-2.1218 1.801-3.4439 2.23-1.3221 0.43-2.7332 0.506-4.0934 0.219l-2.0438 0.232c-0.074 0.223-0.1387 0.39-0.2035 0.566z" fill="url(#linearGradient3)"/>
 <path d="m37.489 136.05c0.4346-1.15 0.9248-2.301 1.3502-3.47s0.9248-2.235 1.3687-3.367 0.9248-2.264 1.4335-3.396c0.5086-1.132 0.9988-2.301 1.5167-3.442s1.0358-2.263 1.5629-3.377c0.185-0.408 0.3792-0.798 0.5826-1.206 0.3237-0.686 0.6659-1.373 1.0081-2.059 0.0147-0.039 0.0333-0.077 0.0555-0.112l-2.497-4.982c-0.0365 0.072-0.0799 0.141-0.1295 0.204-0.5826 0.928-1.1745 1.939-1.7479 2.941s-1.156 2.051-1.7109 3.108c-0.4624 0.928-0.9248 1.772-1.378 2.681-0.0924 0.177-0.1757 0.362-0.2682 0.539-0.5456 1.131-1.045 2.235-1.4889 3.293s-0.9248 2.338-1.3502 3.414c-0.2497 0.714-0.4902 1.401-0.7029 2.06-0.2127 0.658-0.3422 1.132-0.5086 1.688-0.3792 1.327-0.6936 2.644-0.9249 3.971l2.534 5.019c0.3237-0.928 0.6844-1.809 1.0266-2.737l0.2682-0.77z" fill="url(#linearGradient4)"/>
 <path d="m33.614 134.72c-0.3191 1.587-0.5384 3.192-0.6566 4.806v0.158c-0.7882-1.008-1.7613-1.855-2.8669-2.496 1.5167 2.208 2.6727 4.388 2.8299 6.494-1.0958 0.097-2.1981-0.091-3.1998-0.547 0.7648 0.786 1.7212 1.359 2.7744 1.66-1.4175 0.276-2.7322 0.938-3.801 1.912 1.8496-0.78 3.4218-1.086 4.5038-0.826-1.7294 4.917-3.468 10.353-5.1974 16.124 0.2391-0.072 0.4569-0.202 0.6343-0.378 0.1773-0.177 0.3088-0.394 0.383-0.633 0.3052-1.039 2.3768-7.895 5.5489-16.904 0.0925-0.259 0.1942-0.51 0.2774-0.779l0.0832-0.213c0.3422-0.928 0.6937-1.911 1.0636-2.895l0.2497-0.677-2.534-5.019c-0.0197 0.057-0.0352 0.116-0.0462 0.176l-0.0463 0.037z" fill="url(#linearGradient5)"/>
 <path d="m46.811 116.05c-0.074 0.158-0.1387 0.297-0.2219 0.445l-0.6567 1.383-0.7306 1.568c-0.1294 0.269-0.2589 0.528-0.3791 0.807-0.3792 0.825-0.7584 1.679-1.1561 2.56-0.4809 1.076-0.9248 2.199-1.4519 3.368-0.5272 1.169-0.9248 2.254-1.4335 3.442-0.5086 1.187-0.9248 2.282-1.3964 3.488-0.4162 1.067-0.8324 2.18-1.267 3.303-0.0162 0.058-0.0379 0.113-0.0648 0.167l-1.2763 3.46c-0.0052 0.025-0.0052 0.05 0 0.075l2.0439-0.232h-0.1295c2.9877-0.613 5.7083-2.151 7.7777-4.398 1.0235-1.129 1.9112-2.374 2.6449-3.711 0.6466-1.152 1.2181-2.345 1.7109-3.572 0.4748-1.138 0.9279-2.375 1.3595-3.711-0.6061 0.304-1.2499 0.526-1.9143 0.659l-0.3792 0.074-0.3977 0.065c2.1267-0.865 3.8323-2.53 4.7536-4.638-0.8437 0.568-1.784 0.977-2.7745 1.206-0.1583 0.038-0.3189 0.066-0.4809 0.083h-0.1295c0.7263-0.293 1.413-0.676 2.0439-1.141 0.1231-0.091 0.2405-0.191 0.3514-0.297 0.1757-0.148 0.3422-0.315 0.5087-0.482l0.3051-0.334c0.2346-0.272 0.445-0.564 0.6289-0.872 0.0654-0.095 0.1241-0.194 0.1757-0.297 0.0833-0.149 0.1573-0.288 0.222-0.427 0.3144-0.64 0.5641-1.206 0.7676-1.716 0.1017-0.251 0.1942-0.483 0.2682-0.696s0.0647-0.167 0.0925-0.26c0.0739-0.241 0.1479-0.454 0.2034-0.649s0.1202-0.501 0.148-0.668c-0.0805 0.071-0.1708 0.131-0.2682 0.176-0.8726 0.449-1.8081 0.761-2.7744 0.928-0.0968 7e-3 -0.1927 0.022-0.2867 0.046h0.0462l-6.409 0.705c-0.0011 0.022-0.0088 0.042-0.0221 0.059-0.0133 0.016-0.0313 0.028-0.0518 0.034z" fill="url(#linearGradient6)"/>
 <path d="m54.024 103.07c-0.5641 0.872-1.1837 1.855-1.8496 2.997-0.0373 0.056-0.0713 0.115-0.1017 0.176-0.5827 0.928-1.193 2.041-1.8496 3.228-0.5549 1.012-1.1376 2.097-1.7387 3.275-0.5364 1.021-1.0728 2.097-1.6369 3.238l6.4089-0.696c1.4136-0.565 2.6318-1.533 3.5051-2.783 0.2127-0.297 0.4346-0.631 0.6473-0.928 0.6567-1.029 1.304-2.161 1.8497-3.293 0.5256-1.02 0.9979-2.067 1.4149-3.136 0.2405-0.621 0.4347-1.197 0.5734-1.698s0.2035-0.872 0.2775-1.271c-2.46 0.344-5.5397 0.789-7.5003 0.891z" fill="url(#linearGradient7)"/>
 <path d="m49.89 125.22-0.3977 0.065c0.1307-0.032 0.2636-0.054 0.3977-0.065z" fill="url(#linearGradient8)"/>
 <path d="m64.364 160.23c-0.9278 8e-3 -1.855-0.051-2.7744-0.176-0.6922-0.075-1.3783-0.199-2.0531-0.371v-6.383c0.6104 0.13 1.2577 0.241 1.9328 0.343 0.7196 0.105 1.4462 0.155 2.1734 0.148 0.7075 6e-3 1.4129-0.078 2.0993-0.25 0.6259-0.152 1.2082-0.448 1.7016-0.863 0.5125-0.43 0.9045-0.986 1.1376-1.614 0.3018-0.815 0.4432-1.682 0.4161-2.551v-35.152h7.6575v34.91c0.0403 1.834-0.2738 3.658-0.9248 5.372-0.5365 1.418-1.3982 2.689-2.5155 3.711-1.1026 1.013-2.4219 1.759-3.8565 2.18-1.6114 0.48-3.2854 0.715-4.9662 0.696" fill="#D22128"/>
 <g fill="#15191c">
  <path class="jmeter" d="m83.359 112.88v36.182h6.8436v-16.848-1.558-1.809c0-0.631 0-1.262-0.0648-1.902-0.0647-0.64 0-1.271-0.0832-1.856-0.0647-1.419-0.148-2.894-0.2404-4.407h0.2219l7.9257 28.408h7.0289l8.545-28.361h0.194c0 1.503-0.102 2.941-0.166 4.332 0 0.594 0 1.206-0.074 1.856-0.074 0.649 0 1.243-0.056 1.855-0.055 0.613 0 1.197 0 1.745v18.601h7.14v-36.182h-10.552l-8.324 27.684h-0.12l-7.7961-27.684-10.423-0.056zm71.664 2.635-2.173 5.835-4.134 2.515v3.2h3.597v13.341c-0.041 1.513 0.175 3.022 0.638 4.463 0.398 1.056 1.03 2.008 1.85 2.783 0.764 0.703 1.688 1.206 2.691 1.466 1.092 0.29 2.218 0.43 3.348 0.417 1.148 0.01 2.293-0.111 3.413-0.362 0.914-0.195 1.8-0.506 2.635-0.927v-5.548c-0.684 0.241-1.368 0.454-2.043 0.621-0.688 0.168-1.393 0.249-2.1 0.242-0.38 0.018-0.761-0.041-1.118-0.173-0.358-0.133-0.685-0.336-0.963-0.598-0.285-0.321-0.502-0.697-0.637-1.106-0.135-0.408-0.186-0.84-0.149-1.269v-13.34h6.714v-5.678h-6.751v-5.882h-4.818zm-19.329 5.372c-1.754-0.02-3.495 0.295-5.132 0.927-1.513 0.61-2.864 1.563-3.949 2.784-1.154 1.319-2.023 2.864-2.553 4.536-0.649 2.058-0.961 4.207-0.925 6.364-0.038 2.134 0.3 4.257 0.999 6.272 0.593 1.658 1.54 3.165 2.775 4.416 1.226 1.164 2.69 2.047 4.291 2.588 1.76 0.599 3.608 0.894 5.465 0.872 1.018 0 1.952 1e-3 2.775-0.12 0.806-0.057 1.606-0.171 2.395-0.343 0.711-0.161 1.412-0.363 2.099-0.603 0.687-0.263 1.354-0.573 1.998-0.928v-5.845c-0.721 0.362-1.424 0.687-2.118 0.928-0.688 0.267-1.392 0.49-2.108 0.668-0.721 0.187-1.453 0.33-2.192 0.427-0.786 0.084-1.577 0.124-2.368 0.12-0.918 0.019-1.831-0.138-2.691-0.464-0.757-0.298-1.442-0.757-2.007-1.345-0.565-0.629-1.001-1.364-1.285-2.162-0.306-0.925-0.471-1.891-0.49-2.866h16.841v-3.665c0.033-1.82-0.252-3.632-0.842-5.353-0.491-1.478-1.299-2.83-2.368-3.961-1.046-1.092-2.332-1.924-3.754-2.431-1.582-0.577-3.256-0.86-4.939-0.835l0.083 0.019zm45.316 0c-1.754-0.018-3.495 0.296-5.132 0.927-1.513 0.61-2.865 1.563-3.949 2.784-1.147 1.322-2.013 2.866-2.544 4.536-0.649 2.058-0.961 4.207-0.924 6.364-0.042 2.133 0.293 4.256 0.989 6.272 0.592 1.658 1.539 3.165 2.775 4.416 1.228 1.166 2.696 2.05 4.3 2.588 1.756 0.599 3.601 0.894 5.456 0.872 1.018 0 1.961 1e-3 2.775-0.12 0.808-0.057 1.612-0.171 2.404-0.343 0.708-0.16 1.406-0.361 2.09-0.603 0.69-0.263 1.36-0.573 2.007-0.928v-5.845c-0.721 0.362-1.433 0.687-2.127 0.928-0.685 0.266-1.386 0.489-2.099 0.668-0.722 0.186-1.454 0.328-2.192 0.427-0.789 0.084-1.583 0.124-2.377 0.12-0.918 0.018-1.831-0.139-2.691-0.464-0.753-0.301-1.434-0.759-1.998-1.345-0.565-0.629-1.001-1.364-1.285-2.162-0.31-0.924-0.475-1.891-0.49-2.866h16.831v-3.665c0.032-1.819-0.25-3.63-0.832-5.353-0.491-1.48-1.302-2.833-2.377-3.961-1.046-1.092-2.332-1.924-3.755-2.431-1.582-0.577-3.255-0.86-4.938-0.835l0.083 0.019zm28.309 0c-0.833-0.014-1.663 0.102-2.46 0.343-0.691 0.201-1.344 0.514-1.933 0.928-0.575 0.418-1.088 0.914-1.526 1.475-0.479 0.604-0.909 1.246-1.286 1.92h-0.369l-1.11-4.156h-5.706v27.693h7.528v-14.093c-0.024-1.116 0.136-2.228 0.471-3.293 0.279-0.822 0.745-1.569 1.36-2.18 0.598-0.564 1.32-0.977 2.108-1.206 0.871-0.26 1.774-0.388 2.682-0.381h0.62c0.248 0 0.495 0.019 0.74 0.056 0.259 0 0.508 0.046 0.74 0.074 0.183 0.025 0.365 0.059 0.545 0.102v-7.088c-0.146-0.033-0.294-0.054-0.444-0.065-0.431-0.072-0.867-0.115-1.304-0.129h-0.656zm-73.597 5.371c0.719-0.016 1.431 0.137 2.081 0.445 0.584 0.287 1.092 0.71 1.48 1.234 0.43 0.549 0.745 1.181 0.925 1.856 0.203 0.76 0.312 1.542 0.323 2.328h-9.636c-9e-3 -1.606 0.522-3.168 1.507-4.434 0.424-0.458 0.94-0.82 1.514-1.063s1.193-0.361 1.815-0.347l-9e-3 -0.019zm45.316 0c0.716-0.014 1.425 0.138 2.072 0.445 0.585 0.289 1.095 0.712 1.488 1.234 0.411 0.555 0.71 1.186 0.879 1.856 0.212 0.758 0.321 1.541 0.324 2.328h-9.591c-0.015-1.605 0.513-3.169 1.499-4.434 0.426-0.458 0.943-0.82 1.519-1.063 0.575-0.243 1.195-0.361 1.819-0.347l-9e-3 -0.019z"/>
  <path class="jmeter" d="m216.67 121.3h-1.674v-6.55h-1.988v-1.401h5.65v1.401h-1.988v6.55z"/>
  <path class="jmeter" d="m223.06 121.3-1.739-6.234h-0.056c0 0.334 0.047 0.649 0.056 0.927v0.418 0.417 0.39 0.343 3.711h-1.508v-7.951h2.294l1.711 6.077 1.849-6.077h2.331v7.951h-1.563v-4.082-0.38-0.408-0.409-0.927h-0.046l-1.85 6.225h-1.544"/>
 </g>
 <g fill="#D22128">
  <path d="m68.858 107.79 5.4009-12.988h1.045l5.4102 12.988h-1.3595l-1.6832-4.045h-5.8078l-1.6554 4.045h-1.3502zm5.928-11.467-2.6542 6.4107h5.2437l-2.5895-6.4107z"/>
  <path d="m82.092 107.79v-12.988h5.3361c1.037 0.0549 2.0128 0.509 2.7243 1.2677s1.1038 1.7634 1.0952 2.8051c0.0262 0.513-0.0488 1.0262-0.2207 1.5104-0.1719 0.484-0.4372 0.929-0.7808 1.31-0.3437 0.381-0.7588 0.69-1.2217 0.91-0.4629 0.219-0.9645 0.345-1.476 0.37h-4.1894v4.787l-1.267 0.028zm1.267-5.919h4.1339c0.36-0.027 0.711-0.125 1.0327-0.289 0.3217-0.165 0.6075-0.392 0.8408-0.668 0.2333-0.277 0.4094-0.597 0.518-0.9421 0.1086-0.3453 0.1476-0.7089 0.1147-1.0695 0.0433-0.7309-0.2024-1.4495-0.6836-2-0.4812-0.5504-1.1593-0.8885-1.8874-0.9409h-4.0691v5.9095z"/>
  <path d="m90.564 107.79 5.4009-12.988h1.045l5.4105 12.988h-1.388l-1.6734-4.045h-5.8079l-1.6554 4.045h-1.3317zm5.928-11.467-2.6542 6.4107h5.2437l-2.5895-6.4107z"/>
  <path d="m108.51 94.757c0.989-0.0492 1.971 0.1923 2.826 0.695 0.854 0.5026 1.543 1.2445 1.983 2.1346l-1.017 0.6123c-0.345-0.7145-0.89-1.3127-1.568-1.7213-0.678-0.4087-1.461-0.61-2.252-0.5795-3.088 0-4.781 2.7833-4.781 5.3805 0 2.858 2.09 5.456 4.837 5.456 0.821 0.014 1.629-0.204 2.332-0.629s1.273-1.04 1.645-1.774l1.054 0.547c-0.487 0.929-1.223 1.704-2.125 2.237-0.902 0.532-1.934 0.802-2.98 0.778-3.542 0-6.048-3.405-6.048-6.68-0.027-0.826 0.109-1.6499 0.402-2.4231 0.292-0.7733 0.734-1.4806 1.301-2.0812 0.567-0.6005 1.247-1.0823 2.001-1.4174 0.753-0.3351 1.566-0.5169 2.39-0.5349z"/>
  <path d="m125.5 94.832v12.988h-1.276v-6.058h-7.648v6.058h-1.258v-12.988h1.258v5.7704h7.648v-5.7704h1.276z"/>
  <path d="m137.09 106.66v1.132h-8.675v-12.988h8.518v1.1318h-7.26v4.6384h6.326v1.086h-6.326v4.935l7.417 0.065z"/>
 </g>
 <linearGradient id="linearGradient1" x1="21.485" x2="219.86" y1="175.22" y2="27.076" gradientUnits="userSpaceOnUse">
  <stop stop-color="#F69923" offset="0"/>
  <stop stop-color="#F79A23" offset=".31"/>
  <stop stop-color="#E97826" offset=".84"/>
 </linearGradient>
 <linearGradient id="linearGradient2" x1="-449.02" x2="-418.7" y1="384.94" y2="70.937" gradientUnits="userSpaceOnUse">
  <stop stop-color="#9E2064" offset=".32"/>
  <stop stop-color="#C92037" offset=".63"/>
  <stop stop-color="#CD2335" offset=".75"/>
  <stop stop-color="#E97826" offset="1"/>
 </linearGradient>
 <linearGradient id="linearGradient3" x1="-49.188" x2="-4.7297" y1="257.7" y2="-8.6465" gradientUnits="userSpaceOnUse">
  <stop stop-color="#282662" offset="0"/>
  <stop stop-color="#662E8D" offset=".1"/>
  <stop stop-color="#9F2064" offset=".79"/>
  <stop stop-color="#CD2032" offset=".95"/>
 </linearGradient>
 <linearGradient id="linearGradient4" x1="-166.4" x2="-153.96" y1="222.51" y2="44.732" gradientUnits="userSpaceOnUse">
  <stop stop-color="#9E2064" offset=".32"/>
  <stop stop-color="#C92037" offset=".63"/>
  <stop stop-color="#CD2335" offset=".75"/>
  <stop stop-color="#E97826" offset="1"/>
 </linearGradient>
 <linearGradient id="linearGradient5" x1="-62.348" x2="-57.65" y1="159.87" y2="61.366" gradientUnits="userSpaceOnUse">
  <stop stop-color="#282662" offset="0"/>
  <stop stop-color="#662E8D" offset=".1"/>
  <stop stop-color="#9F2064" offset=".79"/>
  <stop stop-color="#CD2032" offset=".95"/>
 </linearGradient>
 <linearGradient id="linearGradient6" x1="-63.175" x2="-39.46" y1="235.68" y2="39.969" gradientUnits="userSpaceOnUse">
  <stop stop-color="#9E2064" offset=".32"/>
  <stop stop-color="#C92037" offset=".63"/>
  <stop stop-color="#CD2335" offset=".75"/>
  <stop stop-color="#E97826" offset="1"/>
 </linearGradient>
 <linearGradient id="linearGradient7" x1="-261.11" x2="-199.54" y1="438.05" y2="74.253" gradientUnits="userSpaceOnUse">
  <stop stop-color="#9E2064" offset=".32"/>
  <stop stop-color="#C92037" offset=".63"/>
  <stop stop-color="#CD2335" offset=".75"/>
  <stop stop-color="#E97826" offset="1"/>
 </linearGradient>
 <linearGradient id="linearGradient8" x1="-9940.8" x2="29820" y1="46145" y2="5350.4" gradientUnits="userSpaceOnUse">
  <stop stop-color="#9E2064" offset=".32"/>
  <stop stop-color="#C92037" offset=".63"/>
  <stop stop-color="#CD2335" offset=".75"/>
  <stop stop-color="#E97826" offset="1"/>
 </linearGradient>
</svg>
