<svg width="256" height="256" title="Apache Beam" viewBox="0 0 256 256" fill="none" xmlns="http://www.w3.org/2000/svg" id="apachebeam">
<rect width="256" height="256" rx="40" fill="#15191C"/>
<path d="M76.8278 51.0062H73.0001V204.993H76.8278V51.0062Z" fill="url(#linearGradient1)"/>
<path d="M181.197 148.411C180.174 144.748 178.55 141.282 176.389 138.153C174.181 134.992 171.426 132.252 168.253 130.062C164.73 127.658 160.815 125.886 156.684 124.827C164.009 121.725 169.573 117.354 173.378 111.712C177.174 106.097 179.165 99.455 179.084 92.6755C179.24 86.262 177.996 79.8915 175.438 74.009C173.095 68.8638 169.476 64.4041 164.925 61.0534C159.875 57.4545 154.166 54.8852 148.125 53.4916C140.787 51.7534 133.265 50.9188 125.725 51.0062L73.0001 51.0062V204.993L129.423 204.993C136.969 205.093 144.492 204.132 151.77 202.137C157.89 200.472 163.607 197.575 168.57 193.623C173.178 189.86 176.804 185.033 179.136 179.557C181.678 173.373 182.919 166.731 182.782 160.045C182.793 156.112 182.26 152.197 181.197 148.411Z" fill="white"/>
<path d="M73.0001 103.616L111.151 128L152.654 101.615V81.3006L73.0864 56.5823L73.0001 103.616Z" fill="#FEE900"/>
<path d="M73.0864 56.5823L73.0001 103.616V151.966L152.654 101.615V81.3006L73.0864 56.5823Z" fill="url(#linearGradient2)"/>
<path d="M73.0001 89.9447V94.0642L152.464 103.582V80.6038L73.0001 89.9447Z" fill="url(#linearGradient3)"/>
<path d="M143.454 92.0931C143.454 93.2912 143.689 94.4775 144.147 95.5844C144.605 96.6912 145.277 97.6969 146.123 98.5441C146.97 99.3912 147.974 100.063 149.08 100.522C150.186 100.98 151.371 101.216 152.568 101.216V82.9702C150.151 82.9702 147.832 83.9314 146.123 85.6423C144.414 87.3531 143.454 89.6736 143.454 92.0931Z" fill="white"/>
<path d="M73.0001 151.966L111.151 127.955L73.0001 103.616V151.966Z" fill="url(#linearGradient4)"/>
<path d="M73.0001 103.616V151.966L73 199.05L152.568 174.332V154.016L73.0001 103.616Z" fill="url(#linearGradient5)"/>
<path d="M73 199.05L152.568 174.332V154.016L111.151 128L73.0001 151.966L73 199.05Z" fill="url(#linearGradient6)"/>
<path d="M73.0005 161.947V166.354L152.568 175.64V152.662L73.0005 161.947Z" fill="url(#linearGradient7)"/>
<path d="M143.454 164.151C143.454 165.349 143.689 166.535 144.147 167.642C144.605 168.749 145.277 169.754 146.123 170.601C146.97 171.449 147.974 172.121 149.08 172.579C150.186 173.038 151.371 173.273 152.568 173.273V155.028C150.151 155.028 147.832 155.989 146.123 157.7C144.414 159.411 143.454 161.731 143.454 164.151Z" fill="white"/>
<path d="M181.197 148.411C180.174 144.748 178.55 141.282 176.389 138.153C174.181 134.992 171.426 132.252 168.253 130.062C164.73 127.658 160.815 125.886 156.684 124.827C164.009 121.725 169.573 117.354 173.378 111.712C177.174 106.097 179.165 99.455 179.084 92.6755C179.24 86.262 177.996 79.8915 175.438 74.009C173.095 68.8638 169.476 64.4041 164.925 61.0534C159.875 57.4545 154.166 54.8852 148.125 53.4916C140.787 51.7534 133.265 50.9188 125.725 51.0062L73.0001 51.0062V55.8769L151.088 81.3006C151.518 81.4406 151.893 81.7133 152.159 82.0797C152.425 82.446 152.568 82.8871 152.568 83.3399V100.791C152.568 101.172 152.467 101.546 152.274 101.875C152.082 102.204 151.805 102.475 151.473 102.662L111.465 127.999L151.473 153.337C151.805 153.524 152.082 153.795 152.274 154.124C152.467 154.453 152.568 154.827 152.568 155.208V172.659C152.568 173.112 152.425 173.553 152.159 173.919C151.893 174.286 151.519 174.558 151.088 174.698L73.0001 200.122V204.993L129.423 204.993C136.969 205.093 144.492 204.132 151.77 202.137C157.89 200.472 163.607 197.575 168.57 193.623C173.178 189.86 176.804 185.033 179.136 179.557C181.678 173.373 182.919 166.731 182.782 160.045C182.793 156.112 182.26 152.197 181.197 148.411Z" fill="white"/>
<path d="M181.197 148.411C180.174 144.748 178.55 141.282 176.389 138.153C174.181 134.992 171.426 132.252 168.253 130.062C164.73 127.658 160.815 125.886 156.684 124.827C164.009 121.725 169.573 117.354 173.378 111.712C177.174 106.097 179.165 99.455 179.084 92.6755C179.24 86.262 177.996 79.8915 175.438 74.009C173.095 68.8638 169.476 64.4041 164.925 61.0534C159.875 57.4545 154.166 54.8852 148.125 53.4916C140.787 51.7534 133.265 50.9188 125.725 51.0062L73.0001 51.0062L73.0864 56.5823L151.088 81.3006C151.518 81.4406 151.893 81.7133 152.159 82.0797C152.425 82.446 152.568 82.8871 152.568 83.3399V100.791C152.568 101.172 152.467 101.546 152.274 101.875C152.082 102.204 151.805 102.475 151.473 102.662L111.465 127.999L151.473 153.337C151.805 153.524 152.082 153.795 152.274 154.124C152.467 154.453 152.568 154.827 152.568 155.208V172.659C152.568 173.112 152.425 173.553 152.159 173.919C151.893 174.286 151.519 174.558 151.088 174.698L73 199.05L73.0001 204.993L129.423 204.993C136.969 205.093 144.492 204.132 151.77 202.137C157.89 200.472 163.607 197.575 168.57 193.623C173.178 189.86 176.804 185.033 179.136 179.557C181.678 173.373 182.919 166.731 182.782 160.045C182.793 156.112 182.26 152.197 181.197 148.411Z" fill="#FF6D00"/>
<path d="M151.77 202.137C157.89 200.472 163.607 197.575 168.57 193.623C173.178 189.86 176.804 185.033 179.136 179.557C181.678 173.373 182.919 166.731 182.782 160.045C182.793 156.112 182.26 152.197 181.197 148.411C180.174 144.748 178.55 141.282 176.389 138.153C174.181 134.992 171.426 132.252 168.253 130.062C164.73 127.658 160.815 125.886 156.684 124.827C164.009 121.725 169.573 117.354 173.378 111.712C174.58 109.923 175.606 108.02 176.441 106.032L152.167 81.736H151.817C152.05 81.9337 152.238 82.1793 152.367 82.4561C152.497 82.7328 152.565 83.0343 152.568 83.3399V100.791C152.568 101.172 152.467 101.546 152.274 101.875C152.082 102.204 151.805 102.475 151.473 102.662L111.465 127.999L151.473 153.337C151.805 153.524 152.082 153.795 152.274 154.124C152.467 154.453 152.568 154.827 152.568 155.208V172.659C152.568 173.112 152.425 173.553 152.159 173.919C151.893 174.286 151.519 174.558 151.088 174.698L73 199.05L73.0001 204.993L129.423 204.993C136.969 205.093 144.492 204.132 151.77 202.137Z" fill="#E64A19"/>
<path d="M151.77 202.137C157.89 200.472 163.607 197.575 168.57 193.623C173.178 189.86 176.804 185.033 179.136 179.557C181.678 173.373 182.919 166.731 182.782 160.045C182.793 156.112 182.26 152.197 181.197 148.411C180.174 144.748 178.55 141.282 176.389 138.153C174.181 134.992 171.426 132.252 168.253 130.062C164.73 127.658 160.815 125.886 156.684 124.827C161.117 123.014 165.19 120.421 168.711 117.172L152.747 101.193H152.514C152.458 101.499 152.336 101.789 152.156 102.043C151.976 102.296 151.743 102.508 151.473 102.662L111.465 127.999L151.473 153.337C151.805 153.524 152.082 153.795 152.274 154.124C152.467 154.453 152.568 154.827 152.568 155.208V172.659C152.568 173.112 152.425 173.553 152.159 173.919C151.893 174.286 151.519 174.558 151.088 174.698L73 199.05L73.0001 204.993L129.423 204.993C136.969 205.093 144.492 204.132 151.77 202.137Z" fill="#E64A19"/>
<path d="M151.77 202.137C157.89 200.472 163.607 197.575 168.57 193.623C172.946 190.045 176.435 185.503 178.765 180.351L152.474 154.035H152.205C152.439 154.382 152.565 154.79 152.568 155.208V172.659C152.568 173.112 152.425 173.553 152.159 173.919C151.893 174.286 151.519 174.558 151.088 174.698L73 199.05L73.0001 204.993L129.423 204.993C136.969 205.093 144.492 204.132 151.77 202.137Z" fill="#E64A19"/>
<path d="M151.77 202.137C157.89 200.472 163.607 197.575 168.57 193.623C169.251 193.067 169.901 192.484 170.534 191.887L152.312 173.647H152.298C152.048 174.143 151.614 174.52 151.088 174.698L73 199.05L73.0001 204.993L129.423 204.993C136.969 205.093 144.492 204.132 151.77 202.137Z" fill="#E64A19"/>
<linearGradient id="linearGradient1" x1="67.0224" y1="128" x2="3222.21" y2="128" gradientUnits="userSpaceOnUse">
<stop stop-color="#FFC400"/>
<stop offset="0.13695" stop-color="#FECD00"/>
<stop offset="0.36528" stop-color="#FED400"/>
<stop offset="1" stop-color="#FED600"/>
</linearGradient>
<linearGradient id="linearGradient2" x1="73" y1="166.128" x2="224.388" y2="166.128" gradientUnits="userSpaceOnUse">
<stop stop-color="#FFF176" stop-opacity="0.7"/>
<stop offset="0.05838" stop-color="#FFEF5F" stop-opacity="0.68061"/>
<stop offset="0.1703" stop-color="#FFED3C" stop-opacity="0.65121"/>
<stop offset="0.2969" stop-color="#FEEB21" stop-opacity="0.62829"/>
<stop offset="0.44466" stop-color="#FEEA0E" stop-opacity="0.61215"/>
<stop offset="0.63299" stop-color="#FEE903" stop-opacity="0.60275"/>
<stop offset="1" stop-color="#FEE900" stop-opacity="0.6"/>
</linearGradient>
<linearGradient id="linearGradient3" x1="72.857" y1="368.656" x2="224.64" y2="368.656" gradientUnits="userSpaceOnUse">
<stop stop-color="white" stop-opacity="0.1"/>
<stop offset="0.01007" stop-color="white" stop-opacity="0.13207"/>
<stop offset="0.07239" stop-color="white" stop-opacity="0.31249"/>
<stop offset="0.14048" stop-color="white" stop-opacity="0.47688"/>
<stop offset="0.21288" stop-color="white" stop-opacity="0.61839"/>
<stop offset="0.29078" stop-color="white" stop-opacity="0.73733"/>
<stop offset="0.37589" stop-color="white" stop-opacity="0.83389"/>
<stop offset="0.47118" stop-color="white" stop-opacity="0.90827"/>
<stop offset="0.58234" stop-color="white" stop-opacity="0.96063"/>
<stop offset="0.72402" stop-color="white" stop-opacity="0.99108"/>
<stop offset="1" stop-color="white"/>
</linearGradient>
<linearGradient id="linearGradient4" x1="73" y1="128.141" x2="387.844" y2="128.141" gradientUnits="userSpaceOnUse">
<stop stop-color="#FFC400"/>
<stop offset="0.13695" stop-color="#FECD00"/>
<stop offset="0.36528" stop-color="#FED400"/>
<stop offset="1" stop-color="#FED600"/>
</linearGradient>
<linearGradient id="linearGradient5" x1="73" y1="90.0712" x2="224.388" y2="90.0712" gradientUnits="userSpaceOnUse">
<stop stop-color="#FFC400"/>
<stop offset="0.13695" stop-color="#FECD00"/>
<stop offset="0.36528" stop-color="#FED400"/>
<stop offset="1" stop-color="#FED600"/>
</linearGradient>
<linearGradient id="linearGradient6" x1="73" y1="51" x2="224.388" y2="51" gradientUnits="userSpaceOnUse">
<stop stop-color="#FFAB00" stop-opacity="0.7"/>
<stop offset="0.02342" stop-color="#FFAD04" stop-opacity="0.72443"/>
<stop offset="0.13953" stop-color="#FDB413" stop-opacity="0.82494"/>
<stop offset="0.27082" stop-color="#FCB91E" stop-opacity="0.90329"/>
<stop offset="0.42404" stop-color="#FCBD27" stop-opacity="0.95848"/>
<stop offset="0.61939" stop-color="#FBBF2C" stop-opacity="0.99059"/>
<stop offset="1" stop-color="#FBC02D"/>
</linearGradient>
<linearGradient id="linearGradient7" x1="72.7111" y1="-114.3" x2="224.497" y2="-114.3" gradientUnits="userSpaceOnUse">
<stop stop-color="white" stop-opacity="0"/>
<stop offset="0.00958" stop-color="#FFFFFC" stop-opacity="0.01588"/>
<stop offset="0.17414" stop-color="#FFFAD1" stop-opacity="0.2726"/>
<stop offset="0.33615" stop-color="#FFF6AC" stop-opacity="0.49416"/>
<stop offset="0.4916" stop-color="#FEF38E" stop-opacity="0.67545"/>
<stop offset="0.63917" stop-color="#FEF076" stop-opacity="0.81653"/>
<stop offset="0.77694" stop-color="#FEEE65" stop-opacity="0.91757"/>
<stop offset="0.90112" stop-color="#FEED5B" stop-opacity="0.9787"/>
<stop offset="1" stop-color="white"/>
</linearGradient>
</svg>