<?xml version="1.0" encoding="UTF-8"?>
<svg id="apachehive" width="256" height="256" fill="none" title="Apache Hive" version="1.1" viewBox="0 0 256 256" xmlns="http://www.w3.org/2000/svg">
 <style>#apachehive {
    rect {fill: #15191C}

    @media (prefers-color-scheme: light) {
        rect {fill: #F4F2ED}
    }
}</style>
 <rect width="256" height="256" rx="40" fill="#f4f2ed"/>
 <g clip-rule="evenodd" fill-rule="evenodd">
  <g fill="#000" stroke="#FDEE21">
   <path d="m144.7 172.62v33.837h8.308v-15.551l1.714 0.032v15.519h8.401v-33.837h-8.401v12.554h-1.714v-12.554h-8.308z"/>
   <path d="m173.46 172.62h-8.092v33.837h8.092v-33.837z"/>
   <path d="m174.79 172.62 6.392 33.837h9.647l6.392-33.837h-8.589l-2.117 14.478c-0.177 0.555-0.773 0.555-0.879 0l-2.116-14.479-8.73 1e-3z"/>
   <path d="m215 172.62h-16.061v33.837h16.061v-8.873l-8.931-0.076v-3.804h4.255v-8.808h-4.255v-3.404h8.931v-8.872z"/>
  </g>
  <path d="m128.27 70.002c-1.353-3.7048-47.886-21.796-48.481-19.81-8.545 2.2275-12.023 12.076-17.9 18.315l-13.053-0.7476c-5.75 7.3942-8.7672 14.949-6.7128 22.801 7.3697 9.9848 15.925 18.481 21.257 31.023 0.4215 5.912 25.586 0.62 30.979-0.55-7.3679 5.274-13.784 13.449-11.027 36.994 2.5172 11.057 4.239 23.401 26.564 35.906 2.939 1.647 9.02 3.546 12.781 4.931 3.596 1.649 7.801 2.327 19.664-1.301 6.864-2.959 14.276-4.741 20.993-7.693l-8.074 0.379c-11.119 0.242-19.702 1.071-22.35-2.035l-10.233-17.666 5.966-11.587c8.256 0.847 10.997 7.542 18.274 10.092l8.577-6.354c24.914 14.706 34.826-9.321 37.667-28.034-0.303-7.613-16.485 2.389-15.504-1.172 0.38-8.184-6.291-18.891-10.602-27.235l4.989-19.302c2.263-2.016-10.479-23.487-20.884-26.165-9.129-2.3496-22.89 9.2103-22.89 9.2103z" fill="#FDEE21"/>
  <g fill="#C8C037">
   <path d="m169.2 111.02c0.089 2.073 0.079 4.595 0.28 6.167-0.035 1.2-0.934 1.244-1.678 1.495l4.848 1.776c0.962 1.62 1.736 3.239 2.517 4.859 0.906 3.985 0.23 4.098-0.373 4.392-1.759 0.018-3.513 0.021-5.151-0.327 0.734 0.387 0.895 0.669 0.973 1.165 0.143 0.915-0.446 2.164-1.416 3.367 1.434 0.796 4.048 1.574 5.99 2.313l2.215-4.929c-1.003-7.242-4.044-13.916-8.205-20.278z"/>
   <path d="m178.24 135.31c2.688 1.121 6.403 0.792 11.553-1.862 0.766-0.545 1.48-0.219 0.109 0.677-6.755 6.061-9.988 3.029-11.662 1.185z"/>
   <path d="m190.32 132.66c0.798 1.53 0.314 2.774 0.046 4.065-0.834 6.571-2.881 11.766-6.899 17.194-13.068 21.01-26.261 7.864-36.78-0.692l-4.351 10.903c-0.231 0.955-1.192 1.7 5.603 4.691l6.923-4.889c26.4 20.086 45.107-28.116 35.457-31.271l1e-3 -1e-3z"/>
   <path d="m149.86 151.43c-1.781 0.127-7.081 1.929-7.317 2.973l2.439-3.634 4.878 0.661z"/>
   <path d="m146.4 129.15c0.326 0 1.893 0.42 1.725 0.327-0.241-0.134-0.027 2.196 0.466 3.41l-1.911 4.159c3.661-4.222 9.45-3.941 14.824-4.486l-2.564-1.588c0.445-1.486-0.079-2.661-0.327-3.925l-12.213 2.103z"/>
   <path d="m155.4 116.63c-3.928 1.204-7.688 3.171-10.213 7.365 1.926-6.913 2.319-6.65 2.941-6.992 2.693-1.204 4.899-0.453 7.272-0.373z"/>
  </g>
  <g fill="#FCF6A0">
   <path d="m134.42 197.65c-4.75 5.241-15.348-0.397-24.149-3.271-22.364-14.221-26.733-27.609-27.037-40.742-1.1498-18.813 4.6269-29.744 11.934-32.332-4.8359 9.322-7.0903 26.056-4.8481 38.5 1.8098 6.923 1.8474 18.599 13.43 24.848 5.673 3.194 4.136 5.68 7.972 8.67 4.203 3.278 15.922 6.394 22.697 4.327h1e-3z"/>
   <path d="m141.52 110.71c-8.041-11.403-19.351-15.684-32.106-16.151 2.557-0.8332 5.113-1.2671 7.669-2.4996 0.626-0.6577 0.421-1.8149 0.186-2.9902-12.277-3.2056-20.025-7.1675-29.833-10.84l26.478 6.3543c17.882 0.6795 16.346 5.094 27.607 26.128l-1e-3 -1e-3z"/>
   <path d="m150.13 105.21c-5.943-8.4831-11.707-18.779-19.531-25.327-18.886-8.5246-37.569-14.856-59.465-20.617l6.9881-8.9864c23.235 5.3036 45.058 14.179 64.607 28.809 3.307 8.3625 5.512 16.736 7.399 26.12l2e-3 1e-3z"/>
   <path d="m162.11 90.216s-3.331-7.4745-4.953-10.329c-3.763-4.17-5.666-11.941-13.373-15.602 2.438 0.6582 4.106-0.126 9.082 4.3851l7.838 14.868 1.406 6.6784z"/>
   <path d="m166.25 103.16c0.768-6.4759 2.227-16.864 0.553-20.968-4.659-6.2506-9.35-12.711-14.044-18.709-0.777-0.7234-1.337-1.7052-1.949-2.4712 6.599 1.7097 13.486 6.298 22.773 24.412l-7.333 17.736z"/>
  </g>
  <g fill="#000">
   <path d="m138.51 103.93c-2.628-2.069-4.971-9.3853-8.954-10.907-3.686-0.3084-5.038-1.4683-9.886-0.4805 1.758-0.881 3.418-2.0083 5.287-2.6117 1.266-0.2989 2.454 0.0322 3.662 0.1988 0.298-0.141 0.494-0.3163 0.421-0.5813-4.88-3.0157-14.891-3.0586-21.649-4.7801 7.843 0.2625 16.521-0.1722 22.415 1.718 4.74 4.2063 6.28 12.128 8.704 17.443z"/>
   <path d="m152.88 68.646c1.088 0.0989 6.944 9.3614 7.219 10.903 0.487 3.3692 1.688 7.1462 2.01 10.671-0.964-3.381-2.015-6.7618-3.329-10.143-0.384-0.9311-1.355-3.0358-4.054-6.0129-1.257-2.0983-1.528-3.7476-1.846-5.4182v-2e-4z"/>
   <path d="m172.72 119.1h-2.505l2.768 0.727-0.263-0.727z"/>
   <path d="m155.63 116.59c-2.519-0.31-5.104-0.351-7.623 0.203-1.027 1.379-1.098 2.782-1.546 4.079 3.062-3.376 4.277-3.582 9.169-4.282z"/>
   <path d="m189.99 134.01c-1.402 1.119-1.542 2.172-5.687 3.434-3.023 0.715-4.731-0.497-6.154-2.126 2.158 0.618 2.502 2.248 8.287 0.42l3.554-1.728z"/>
   <path d="m177.42 134.71c-1.009 2.774-2.096 5.578-3.193 8.176-2.611 3.063-1.499 1.318-5.408 6.074 1.251-1.929 2.878-3.784 3.73-5.793 0.598-1.324 1.343-2.728 1.672-3.903-1.036-0.518-3.158-0.559-3.446-0.373-3.475 2.05-4.102 4.219-6.151 6.331 1.485-2.374 2.753-4.965 4.475-7.101 0.196-0.278 1.471-0.331 2.254-0.495-1.217-0.209-3.471-0.647-3.653-0.627-2.267 0.545-3.537 2.52-5.221 3.832 1.228-1.772 2.358-3.617 3.916-5.14 0.154-0.179 4.366 0.19 6.549 1.061l0.043 0.868 1.24 0.501 0.932-2.337 2.261-1.074z"/>
   <path d="m149.92 151.44c-0.56-0.192-5.501-0.827-5.501-0.678-1.897 1.35-2.185 2.642-2.144 3.761 3.156-3.105 3.038-3.114 7.645-3.083z"/>
   <path d="m146.17 129.11s3.565-0.52 3.496-0.187c-0.259 1.237 0.436 4.252 0.513 3.831l-2.005 1.636c4.198-2.111 8.617-1.687 13.099-2.009 0 0-3.773-1.042-3.543-1.075 0.842-0.119-0.224-3.936-0.512-4.018 0.717-0.243 1.419-0.426 2.144-0.608-5.397-1.412-8.517-0.58-13.193 2.43h1e-3z"/>
   <path d="m177.03 131.77-0.793 0.397c-0.112-2.322-2.606-2.151-4.708-2.173l-1.725-0.42c0.524 0.485 2.146 0.447 1.492 1.495-0.551 0.294-0.804 1.556-1.119 2.616l-0.932 0.047c1.647 0.644 3.175 1.208 4.988 1.962l1.072 0.164 2.564-1.378-0.839-2.71z"/>
  </g>
  <path d="m153.39 130.2c-0.401-0.793-2.42-0.681-2.856-0.167-0.353 0.417-0.022 3.095 0.432 2.644 0.656-0.577 1.512-0.818 2.541-0.771 0.129-0.495 0.083-1.029-0.117-1.706z" fill="#fff"/>
  <path d="m172.76 134.19c0.19-0.138 0.591-1.481 0.462-1.883-0.266-0.948-2.143-0.748-2.143-0.748-0.458 0.269-0.86 1.747-0.692 2.235 0.08 0.413 2.072 0.544 2.373 0.396z" fill="#fff"/>
  <g fill="#000">
   <path d="m92.471 180.52 1.186 0.116c7.0314 3.452 18.607 8.571 35.367 5.82l2.63 4.138c-7.381 3.587-15.32 2.762-22.759 3.013l-16.424-13.087z"/>
   <path d="m82.376 153.23 3.522 14.786c9.4292 5.894 25.536 12.645 38.962 12.1l-2.967-6.808c-28.026-5.951-30.397-13.475-39.517-20.079l-5e-4 1e-3z"/>
   <path d="m91.141 122.94c1.7214 11.458 4.0193 20.144 13.982 27.421 6.107 4.391 12.168 8.765 19.541 12.374 0 0-0.646 3.364-1.187 3.304-21.941-2.438-38.004-20.631-39.95-28.941 1.8846-6.374 4.5881-10.356 7.613-14.158h7e-4z"/>
   <path d="m101.69 116.45c2.923 12.699 9.895 25.561 16.824 37.229 2.54 3.223 3.205 4.645 7.12 6.608 5.292 1.675 9.034 1.247 12.875 0.995-1.052-1.948-1.988-3.984-3.196-5.814-8.601-6.802-4.626-12.995-2.342-16.916-4.782-1.208-11.119-3.777-11.991-7.155-1.404-10.926-0.691-14.392 0.713-20.004-6.476 1.365-13.038 2.719-20.004 5.057h1e-3z"/>
   <path d="m77.93 49c-2.1285 1.3905-4.1791 3.3787-6.3852 5.6384-3.6571 3.7856-6.0883 7.4783-9.8109 10.216-0.7445 0.642-2.8338 1.6759-5.4605 1.8292-1.2373 0.0618-2.0434 0.2665-4.317-0.0189-2.0052-1.0858-3.9102-0.3797-5.7693 1.8441-2.0387 2.9317-4.6206 8.4987-5.6943 12.003-2.2127 8.9375 3.4287 16.301 8.8387 21.976 4.8127 4.702 7.5874 7.64 9.5635 11.951 1.4961 2.795 2.6045 6.632 3.8045 9.322 0.4327 0.853 0.3427 0.848 1.5074 1.105 2.5149 0.537 6.0034 0.541 9.1091 0.808 1.3437 0.019 3.189-0.031 4.9374-0.213 2.4093-0.455 5.2398-0.901 7.6122-1.722 2.3184-0.571 4.3839-1.361 6.2459-2.089-0.2402 0.815-2.014 1.599-2.679 2.632-6.3113 9.035-8.0401 17.074-6.9414 29.758 0.6216 5.623 1.9119 10.283 3.8588 15.616 0.8909 2.44 2.7866 6.305 4.6034 8.872 5.4024 7.634 17.488 17.436 34.314 21.21 2.935 0.401 6.266 0.187 9.399-0.647 8.304-2.518 25.228-8.471 25.228-8.471s-15.023 1.243-21.903 0.563c-1.593-0.249-3.348-0.334-4.457-1.419-0.187-0.241-0.863-1.603-0.426-1.615 0.596-0.016 2.306-0.726 4.946-0.962-5.637-0.607-5.557-0.599-5.968-1.626-0.64-1.594-1.619-3.773-2.628-5.679 2.477 0.209 7.962 0.516 9.823-1.405 0 0-3.246 0.375-6.114 0.039-0.966-0.114-2.612-0.701-3.107-0.883-1.288-0.501-2.348-0.657-2.595-0.984-0.447-1.138-0.75-1.521-1.289-3.045-0.731-2.019-0.789-4.27-0.929-6.331 1.877 2.312 4.267 4.259 7.432 5.253 0.041-0.085 4.106 1.767 7.058 0.815l0.612-0.198c0 0.055-1.956 0.172-2.673-0.184-6.004-2.552-6.908-4.785-7.877-5.895l-2.593-3.883c0.788-1.573 1.234-1.632 2.279-1.647 3.16 0.351 4.535 0.621 6.458 0.157 1.299 2.674 1.651 5.364 4.609 7.31 9.855 2.926 11.996-0.868 14.383-4.221 7.09 5.204 18.634 6.809 26.65 0.091 10.192-11.793 13.419-30.385 12.515-31.446-1.273-2.16-2.943-4.387-4.377-4.079-5.111 1.395-6.996 3.988-12.06 3.397 0.603-0.034 1.617-0.051 1.625-0.108 0.39-4.289-0.031-6.364-0.219-6.72-1.537-3.389-3.555-6.956-4.962-9.629-0.363-0.555-1.428-4.767-3.212-6.431-0.766-0.653-2.639-2.376-2.639-2.376l-0.159 1.831s0.732 0.111 1.011 1.246c1.057 4.301 6.437 14.472 6.832 14.96 1.907 3.078 0.194 6.913 1.644 9.065 0.139 0.273 2.958-0.024 5.142 0.11 3.592-0.773 3.441-2.356 6.544-2.594 2.09-0.16 2.3 3.766 2.272 4.07-0.39 4.335-1.708 9.375-3.726 13.977-4.196 8.083-8.894 15.343-15.558 16.356-8.129 1.42-12.352-2.133-16.759-4.396l-1.685 1.437c-5.727 5.703-12.526 5.196-15.307-2.255-1.385-2.89-3.189-4.661-4.734-7.141l-8.192 5.9c-0.681 1.399-1.52 3.604-2.538 6.068-0.709 1.713-1.302 4.654-1.264 7.098-1.05 1.789 3.637 9.044 6.599 13.457 0.874 1.302 2.506 3.576 2.56 3.718 0.588 1.524 1.874 2.869 1.952 3.033 5.498 7.171-6.936 5.52-9.504 5.087-5.067-0.808-10.023-2.924-14.681-5.754-0.27-0.164-0.54-0.331-0.808-0.5-5.536-3.485-10.63-7.945-14.96-12.356-2.5824-2.924-5.0413-8.918-6.8575-13.168-2.7219-10.216-6.6282-27.924 3.9535-41.343 0.6707-0.767 1.3945-2.045 2.0108-2.297 3.1439-2.127 6.5578-3.576 10.229-4.381l-0.37-2.38c-1.834 0.417-8.007 2.675-9.7525 3.62-3.9695 1.151-7.262 2.352-12.321 3.619-1.6445 0.201-3.2621 0.205-4.839-9e-3 -3.6392-0.495-9.8423-0.053-10.238-0.421-2.4641-3.436-3.1388-9.593-5.3871-12.888l-0.0266-0.033-0.0284-0.032c-1.3107-1.761-2.8385-3.198-4.343-4.693-5.3881-5.353-9.9997-10.53-11.291-16.014-0.3246-1.6195-1.1605-3.2969-0.7162-8.0887l0.0082-0.0235 0.0078-0.0235c1.2963-4.4765 3.4051-8.1255 6.9844-11.783 3.7246 0.0602 7.4114 0.142 10.283 0.6906 1.3175 0.2204 4.0573 0.5783 6.8872 1.6324 7.1626 2.6683 16.627 7.0551 16.627 7.0551-7.104-3.9015-15.048-8.9686-20.064-9.9912-0.7463-0.1057-1.2051-0.4461-1.4267-1.0405 7.5446-4.4328 8.9248-9.6519 13.887-14.333 2.2678-0.9871 3.1521-1.4911 5.0791-1.7005 17.822 2.8179 29.04 9.9162 37.915 14.663 3.602 1.9588 6.877 3.44 10.004 5.2239 2.741 0.9018 11.014 7.1473 13.435 10.514 2.459 5.1928 4.255 10.802 5.893 16.214 1.174 5.5051 2.204 7.7381 2.204 7.7381s-0.998-4.605-0.832-5.432c1.035 0.387 3.482 1.151 4.496 1.032 0 0-4.53-2.3416-5.124-4.4112-1.905-6.6407-3.815-16.978-4.33-17.518-1.452-1.8267-7.506-6.4597-11.219-8.6028-1.405-0.8107-2.164-1.3136-2.224-1.67 1.187-1.1984 2.652-2.7837 3.966-3.791 1.259-0.9656 2.405-2.0545 4.16-2.7061 7.714-3.4742 12.125 1.3365 13.171 0.3624 0 0-1.659-1.9022-0.922-1.5891 0.755 0.4089 3.215 0.8911 3.485 1.1422 2.811 2.1992 10.161 10.237 14.591 18.718 1.064 2.0775 1.497 3.4454 1.003 5.9469-0.494 2.5038-0.877 3.8807-1.417 5.5528-0.487 1.1179-3.246 8.7713-3.235 9.7993-0.555 4.199 1.801 9.456 1.801 9.456 0.022-1.427-0.088-2.187 0.042-3.208l0.158-1.823s-0.1-0.485-0.082-0.678c0.12-1.261 0.429-2.321 0.52-3.043 0.885-5.4841 2.425-9.4319 4.171-14.244 0.519-1.2145 1.198-1.8899 1.164-2.8145 0.028-1.6409-1.44-3.8433-2.501-5.9943-1.07-2.174-2.349-4.5974-4.029-7.1518-3.828-5.5052-7.092-9.8126-13.068-12.508-1.672-0.7338-8.252-1.4512-10.524-1.0249-2.756 0.5743-5.127 1.1406-7.017 2.3508-2.974 1.9045-5.311 4.8531-8.052 6.5905-6.063-3.0323-8.99-5.3017-9.536-5.6146-3.604-1.9311-7.931-4.1721-12.586-6.2973-2.231-2.0813-16.091-7.0593-28.782-8.0522l-0.0016-1e-3zm77.568 113.1c-3.737-2.921-6.883-5.929-8.957-9.026-0.677 3.643-3.135 6.237-5.034 8.788-0.378 0.598-0.651 1.414 1.211 4.014 0.502 0.693 2.317 0.812 3.543 0.748-1.247-0.943-3.144-1.939-3.45-2.803 2.194 1.493 4.225 1.922 6.06 1.682 0.42-0.047 0.941-0.492 1.344-1.177 0.818-1.758 1.459-2.181 2.106-2.655l1.492 1.869 1.685-1.44z" stroke="#000" stroke-width=".11397"/>
  </g>
 </g>
</svg>
