<?xml version="1.0" encoding="UTF-8"?>
<svg id="apache" width="256" height="256" fill="none" title="Apache" version="1.1" viewBox="0 0 256 256" xmlns="http://www.w3.org/2000/svg">
 <style>#apache {
    rect {fill: #15191C}

    @media (prefers-color-scheme: light) {
        rect {fill: #F4F2ED}
    }
}</style>
 <rect width="256" height="256" rx="40" fill="#f4f2ed"/>
 <path d="m162.04 33.851c-2.986 1.7514-7.955 6.7102-13.882 13.902l5.432 10.202c3.823-5.4186 7.701-10.312 11.568-14.45 0.308-0.3284 0.452-0.4817 0.452-0.4817-0.144 0.1533-0.309 0.3284-0.452 0.4817-1.267 1.3793-5.112 5.8455-10.907 14.668 5.586-0.2737 14.102-1.4122 21.153-2.5944 2.093-11.603-2.038-16.858-2.038-16.858s-5.244-8.4289-11.348-4.8275l0.022-0.0437z" fill="url(#linearGradient1)"/>
 <path d="m143.76 119.55c-0.694 0.121-1.399 0.252-2.137 0.373 0 0-0.011 0-0.011 0.011 0.374-0.055 0.738-0.11 1.101-0.165 0.342-0.076 0.695-0.142 1.047-0.219z" fill="#BD202E"/>
 <path d="m143.76 119.55c-0.694 0.121-1.399 0.252-2.137 0.373 0 0-0.011 0-0.011 0.011 0.374-0.055 0.738-0.11 1.101-0.165 0.342-0.076 0.695-0.142 1.047-0.219z" fill="#000"/>
 <path d="m145.63 110.69c-0.011 0-0.011 0-0.011 0.011 0.11-0.011 0.231-0.033 0.342-0.055 0.462-0.066 0.914-0.142 1.355-0.252-0.551 0.099-1.102 0.197-1.686 0.296z" fill="#BD202E"/>
 <path d="m145.63 110.69c-0.011 0-0.011 0-0.011 0.011 0.11-0.011 0.231-0.033 0.342-0.055 0.462-0.066 0.914-0.142 1.355-0.252-0.551 0.099-1.102 0.197-1.686 0.296z" fill="#000"/>
 <path d="m137.58 84.304c1.653-3.076 3.328-6.0754 5.013-8.9872 1.752-3.0432 3.537-5.9769 5.333-8.823 0.099-0.1642 0.22-0.3393 0.319-0.5035 1.774-2.7914 3.57-5.4843 5.366-8.0458l-5.432-10.202c-0.408 0.4926-0.815 0.9962-1.234 1.5216-1.575 1.9485-3.195 4.0284-4.87 6.2505-1.884 2.4959-3.812 5.1668-5.784 7.9692-1.807 2.5834-3.657 5.2872-5.508 8.1005-1.576 2.3863-3.14 4.8384-4.705 7.3561-0.055 0.0876-0.11 0.1861-0.165 0.2846l7.084 13.902c1.498-3.0103 3.041-5.9549 4.583-8.8229z" fill="url(#linearGradient2)"/>
 <path d="m105.3 162.57c-0.936 2.55-1.884 5.167-2.82 7.827-0.011 0.032-0.022 0.076-0.044 0.109-0.132 0.372-0.276 0.755-0.397 1.128-0.639 1.795-1.19 3.415-2.4567 7.082 2.0827 0.941 3.7567 3.437 5.3437 6.261-0.165-2.922-1.377-5.67-3.702-7.794 10.279 0.46 19.17-2.123 23.687-9.589 0.408-0.668 0.783-1.357 1.124-2.112-2.082 2.627-4.671 3.732-9.53 3.47 7.161-3.186 10.742-6.24 13.882-11.275 0.749-1.205 1.487-2.507 2.237-3.963-6.258 6.382-13.442 8.199-21.154 6.82l-5.729 0.624c-0.187 0.481-0.352 0.952-0.54 1.434l0.099-0.022z" fill="url(#linearGradient3)"/>
 <path d="m108.06 149.88c1.234-3.175 2.512-6.393 3.812-9.633 1.256-3.109 2.534-6.24 3.856-9.371 1.322-3.13 2.666-6.294 4.032-9.447 1.388-3.207 2.821-6.403 4.286-9.589 1.443-3.153 2.898-6.283 4.385-9.37 0.529-1.117 1.08-2.233 1.619-3.3389 0.937-1.9157 1.884-3.8204 2.843-5.7032 0.055-0.0985 0.099-0.208 0.154-0.3065l-7.084-13.902c-0.11 0.186-0.231 0.3831-0.353 0.5582-1.652 2.682-3.294 5.4186-4.902 8.21-1.631 2.8242-3.228 5.7032-4.793 8.6259-1.311 2.463-2.6 4.9367-3.867 7.4547-0.253 0.504-0.496 1.018-0.749 1.522-1.543 3.163-2.931 6.195-4.198 9.14-1.432 3.317-2.688 6.491-3.779 9.502-0.727 1.981-1.377 3.886-1.983 5.725-0.496 1.565-0.958 3.141-1.4211 4.707-1.0577 3.678-1.9721 7.356-2.7213 11.056l7.1174 14.012c0.936-2.496 1.906-5.036 2.897-7.597 0.298-0.734 0.562-1.456 0.849-2.157v-0.098z" fill="url(#linearGradient4)"/>
 <path d="m97.041 146.15c-0.8924 4.466-1.5314 8.91-1.8509 13.355l-0.033 0.459c-2.2256-3.535-8.1639-6.984-8.1529-6.951 4.2637 6.13 7.4918 12.261 7.9656 18.172-2.2806 0.459-5.3986-0.208-9.0013-1.522 3.757 3.437 6.5774 4.379 7.6902 4.642-3.4595 0.218-7.0511 2.572-10.676 5.287 5.2994-2.146 9.5852-3 12.67-2.31-4.8697 13.683-9.7393 28.79-14.653 44.881 1.4984-0.438 2.3908-1.445 2.8866-2.791 0.8703-2.901 6.6324-22.003 15.645-46.961 0.2644-0.712 0.5177-1.434 0.7817-2.146 0.067-0.208 0.144-0.405 0.221-0.591 0.947-2.627 1.95-5.309 2.964-8.046 0.231-0.624 0.462-1.248 0.705-1.872 0-0.01 0.011-0.021 0.011-0.032l-7.1286-14.012c-0.022 0.142-0.0551 0.306-0.0881 0.471l0.044-0.033z" fill="url(#linearGradient5)"/>
 <path d="m134.06 94.266c-0.21 0.416-0.408 0.832-0.617 1.248-0.617 1.2588-1.234 2.5396-1.873 3.8532-0.683 1.4231-1.366 2.8681-2.06 4.3571-0.353 0.744-0.706 1.499-1.058 2.266-1.058 2.287-2.126 4.652-3.217 7.093-1.333 2.988-2.71 6.108-4.088 9.348-1.311 3.087-2.666 6.273-4.01 9.579-1.289 3.13-2.589 6.371-3.911 9.698-1.179 2.967-2.369 6.032-3.559 9.174-0.055 0.142-0.11 0.306-0.165 0.448-1.19 3.12-2.391 6.328-3.592 9.612-0.022 0.076-0.055 0.142-0.077 0.229l5.729-0.623c-0.11-0.022-0.231-0.033-0.341-0.055 6.842-0.843 15.975-5.933 21.814-12.26 2.71-2.89 5.167-6.306 7.437-10.301 1.686-2.967 3.283-6.273 4.803-9.918 1.323-3.185 2.59-6.644 3.813-10.377-1.576 0.821-3.372 1.434-5.355 1.85-0.352 0.076-0.705 0.142-1.069 0.208-0.363 0.065-0.727 0.12-1.101 0.164 0 0 0.011 0 0.011-0.011 6.39-2.441 10.411-7.148 13.331-12.917-1.675 1.138-4.407 2.627-7.679 3.339-0.441 0.098-0.893 0.175-1.356 0.251-0.11 0.011-0.231 0.033-0.341 0.055h0.022c2.225-0.919 4.087-1.959 5.707-3.174 0.352-0.263 0.694-0.526 1.003-0.81 0.495-0.427 0.958-0.876 1.421-1.336 0.286-0.306 0.562-0.613 0.837-0.93 0.639-0.756 1.234-1.566 1.785-2.441 0.165-0.274 0.341-0.537 0.496-0.821 0.22-0.405 0.418-0.81 0.617-1.1936 0.892-1.7733 1.608-3.3715 2.17-4.7618 0.287-0.7005 0.529-1.3354 0.749-1.9485 0.088-0.2408 0.166-0.4707 0.243-0.7005 0.231-0.6678 0.407-1.2589 0.551-1.7843 0.22-0.7882 0.352-1.4122 0.418-1.861-0.22 0.1642-0.463 0.3394-0.749 0.5036-1.928 1.1494-5.233 2.1784-7.899 2.671-0.034 0.0109-0.078 0.0109-0.122 0.0218-0.275 0.0438-0.528 0.0876-0.804 0.1205l0.132-0.0657-17.958 1.9594c0 0.0438-0.033 0.1204-0.066 0.1861l-0.022 0.0547z" fill="url(#linearGradient6)"/>
 <path d="m154.33 58.142c-1.598 2.4411-3.338 5.2106-5.233 8.3523-0.1 0.1532-0.21 0.3393-0.298 0.4926-1.619 2.7148-3.338 5.6922-5.167 8.9653-1.565 2.8242-3.195 5.8455-4.892 9.0966-1.476 2.8352-2.997 5.8455-4.572 9.031l17.958-1.9595c5.245-2.3973 7.58-4.5538 9.85-7.6954 0.595-0.8648 1.212-1.7624 1.807-2.7039 1.851-2.868 3.658-6.0206 5.277-9.1623 1.565-3.0322 2.942-6.0316 3.999-8.7463 0.672-1.7187 1.212-3.3169 1.587-4.729 0.33-1.2369 0.584-2.4192 0.782-3.5467-6.974 1.1932-15.534 2.3317-21.153 2.6053h0.055z" fill="url(#linearGradient7)"/>
 <path d="m142.65 119.77c-0.363 0.066-0.727 0.121-1.101 0.165 0.374-0.033 0.749-0.099 1.101-0.165z" fill="#BD202E"/>
 <path d="m142.65 119.77c-0.363 0.066-0.727 0.121-1.101 0.165 0.374-0.033 0.749-0.099 1.101-0.165z" fill="#BD202E" opacity=".35"/>
 <path d="m142.65 119.77c-0.363 0.066-0.727 0.121-1.101 0.165 0.374-0.033 0.749-0.099 1.101-0.165z" fill="url(#linearGradient8)"/>
 <path d="m145.63 110.69c0.11-0.011 0.231-0.033 0.342-0.055-0.111 0.011-0.221 0.044-0.342 0.055z" fill="#BD202E"/>
 <path d="m145.63 110.69c0.11-0.011 0.231-0.033 0.342-0.055-0.111 0.011-0.221 0.044-0.342 0.055z" fill="#BD202E" opacity=".35"/>
 <path d="m145.63 110.69c0.11-0.011 0.231-0.033 0.342-0.055-0.111 0.011-0.221 0.044-0.342 0.055z" fill="url(#linearGradient9)"/>
 <path d="m145.63 110.69c0.011-0.011 0.011 0 0 0 0.011-0.011 0.011 0 0 0z" fill="#BD202E"/>
 <path d="m145.63 110.69c0.011-0.011 0.011 0 0 0 0.011-0.011 0.011 0 0 0z" fill="#BD202E" opacity=".35"/>
 <linearGradient id="linearGradient1" x1="153.04" x2="192.83" y1="49.346" y2="38.091" gradientUnits="userSpaceOnUse">
  <stop stop-color="#F59723" offset="0"/>
  <stop stop-color="#F69822" offset=".312"/>
  <stop stop-color="#E87726" offset=".838"/>
 </linearGradient>
 <linearGradient id="linearGradient2" x1="65.85" x2="146" y1="227.13" y2="53.906" gradientUnits="userSpaceOnUse">
  <stop stop-color="#9C2063" offset=".323"/>
  <stop stop-color="#C82037" offset=".63"/>
  <stop stop-color="#CC2135" offset=".751"/>
  <stop stop-color="#E87726" offset="1"/>
 </linearGradient>
 <linearGradient id="linearGradient3" x1="93.108" x2="140.84" y1="214.29" y2="111.11" gradientUnits="userSpaceOnUse">
  <stop stop-color="#282661" offset="0"/>
  <stop stop-color="#662E8C" offset=".0955"/>
  <stop stop-color="#9E2064" offset=".788"/>
  <stop stop-color="#CC2032" offset=".949"/>
 </linearGradient>
 <linearGradient id="linearGradient4" x1="68.749" x2="148.89" y1="216.68" y2="43.454" gradientUnits="userSpaceOnUse">
  <stop stop-color="#9C2063" offset=".323"/>
  <stop stop-color="#C82037" offset=".63"/>
  <stop stop-color="#CC2135" offset=".751"/>
  <stop stop-color="#E87726" offset="1"/>
 </linearGradient>
 <linearGradient id="linearGradient5" x1="77.04" x2="119.15" y1="205.12" y2="114.11" gradientUnits="userSpaceOnUse">
  <stop stop-color="#282661" offset="0"/>
  <stop stop-color="#662E8C" offset=".0955"/>
  <stop stop-color="#9E2064" offset=".788"/>
  <stop stop-color="#CC2032" offset=".949"/>
 </linearGradient>
 <linearGradient id="linearGradient6" x1="86.821" x2="166.97" y1="225.04" y2="51.815" gradientUnits="userSpaceOnUse">
  <stop stop-color="#9C2063" offset=".323"/>
  <stop stop-color="#C82037" offset=".63"/>
  <stop stop-color="#CC2135" offset=".751"/>
  <stop stop-color="#E87726" offset="1"/>
 </linearGradient>
 <linearGradient id="linearGradient7" x1="80.876" x2="161.02" y1="235.32" y2="62.1" gradientUnits="userSpaceOnUse">
  <stop stop-color="#9C2063" offset=".323"/>
  <stop stop-color="#C82037" offset=".63"/>
  <stop stop-color="#CC2135" offset=".751"/>
  <stop stop-color="#E87726" offset="1"/>
 </linearGradient>
 <linearGradient id="linearGradient8" x1="92.161" x2="172.31" y1="227.51" y2="54.286" gradientUnits="userSpaceOnUse">
  <stop stop-color="#9C2063" offset=".323"/>
  <stop stop-color="#C82037" offset=".63"/>
  <stop stop-color="#CC2135" offset=".751"/>
  <stop stop-color="#E87726" offset="1"/>
 </linearGradient>
 <linearGradient id="linearGradient9" x1="91.545" x2="171.69" y1="227.22" y2="54.001" gradientUnits="userSpaceOnUse">
  <stop stop-color="#9C2063" offset=".323"/>
  <stop stop-color="#C82037" offset=".63"/>
  <stop stop-color="#CC2135" offset=".751"/>
  <stop stop-color="#E87726" offset="1"/>
 </linearGradient>
</svg>
