<svg width="256" height="256" title="Apache Hive" viewBox="0 0 256 256" fill="none" xmlns="http://www.w3.org/2000/svg" id="apachehive">
<style>
#apachehive {
    rect {fill: #15191C}

    @media (prefers-color-scheme: light) {
        rect {fill: #F4F2ED}
    }
}
</style>
<rect width="256" height="256" rx="40" fill="#15191C"/>
<path fill-rule="evenodd" clip-rule="evenodd" d="M144.703 172.618V206.455H153.011V190.904L154.725 190.936V206.455H163.126V172.618H154.725V185.172H153.011V172.618L144.703 172.618Z" fill="black" stroke="#FDEE21"/>
<path fill-rule="evenodd" clip-rule="evenodd" d="M173.465 172.618H165.373V206.455H173.465V172.618Z" fill="black" stroke="#FDEE21"/>
<path fill-rule="evenodd" clip-rule="evenodd" d="M174.79 172.618L181.182 206.455H190.829L197.221 172.618H188.632L186.515 187.096C186.338 187.651 185.742 187.651 185.636 187.096L183.52 172.617L174.79 172.618Z" fill="black" stroke="#FDEE21"/>
<path fill-rule="evenodd" clip-rule="evenodd" d="M215 172.618H198.939V206.455H215V197.582L206.069 197.506L206.069 193.702H210.324V184.894H206.069L206.069 181.49H215V172.618Z" fill="black" stroke="#FDEE21"/>
<path fill-rule="evenodd" clip-rule="evenodd" d="M128.268 70.0016C126.915 66.2968 80.3815 48.2059 79.7867 50.1921C71.2417 52.4196 67.7641 62.2684 61.8862 68.5067L48.8331 67.7591C43.0831 75.1533 40.0659 82.7081 42.1203 90.5602C49.49 100.545 58.0451 109.041 63.3774 121.583C63.7989 127.495 88.9631 122.203 94.3567 121.033C86.9888 126.307 80.5724 134.482 83.3297 158.027C85.8469 169.084 87.5687 181.428 109.894 193.933C112.833 195.58 118.914 197.479 122.675 198.864C126.271 200.513 130.476 201.191 142.339 197.563C149.203 194.604 156.615 192.822 163.332 189.87L155.258 190.249C144.139 190.491 135.556 191.32 132.908 188.214L122.675 170.548L128.641 158.961C136.897 159.808 139.638 166.503 146.915 169.053L155.492 162.699C180.406 177.405 190.318 153.378 193.159 134.665C192.856 127.052 176.674 137.054 177.655 133.493C178.035 125.309 171.364 114.602 167.053 106.258L172.042 86.956C174.305 84.94 161.563 63.4689 151.158 60.7913C142.029 58.4417 128.268 70.0016 128.268 70.0016L128.268 70.0016Z" fill="#FDEE21"/>
<path fill-rule="evenodd" clip-rule="evenodd" d="M169.196 111.024C169.285 113.097 169.275 115.619 169.476 117.191C169.441 118.391 168.542 118.435 167.798 118.686L172.646 120.462C173.608 122.082 174.382 123.701 175.163 125.321C176.069 129.306 175.393 129.419 174.79 129.713C173.031 129.731 171.277 129.734 169.639 129.386C170.373 129.773 170.534 130.055 170.612 130.551C170.755 131.466 170.166 132.715 169.196 133.918C170.63 134.714 173.244 135.492 175.186 136.231L177.401 131.302C176.398 124.06 173.357 117.386 169.196 111.024Z" fill="#C8C037"/>
<path fill-rule="evenodd" clip-rule="evenodd" d="M178.245 135.313C180.933 136.434 184.648 136.105 189.798 133.451C190.564 132.906 191.278 133.232 189.907 134.128C183.152 140.189 179.919 137.157 178.245 135.313Z" fill="#C8C037"/>
<path fill-rule="evenodd" clip-rule="evenodd" d="M190.315 132.656C191.113 134.186 190.629 135.43 190.361 136.721C189.527 143.292 187.48 148.487 183.462 153.915C170.394 174.925 157.201 161.779 146.682 153.223L142.331 164.126C142.1 165.081 141.139 165.826 147.934 168.817L154.857 163.928C181.257 184.014 199.964 135.812 190.314 132.657L190.315 132.656Z" fill="#C8C037"/>
<path fill-rule="evenodd" clip-rule="evenodd" d="M149.865 151.431C148.084 151.558 142.784 153.36 142.548 154.404L144.987 150.77L149.865 151.431Z" fill="#C8C037"/>
<path fill-rule="evenodd" clip-rule="evenodd" d="M146.402 129.153C146.728 129.153 148.295 129.573 148.127 129.48C147.886 129.346 148.1 131.676 148.593 132.89L146.682 137.049C150.343 132.827 156.132 133.108 161.506 132.563L158.942 130.975C159.387 129.489 158.863 128.314 158.615 127.05L146.402 129.153Z" fill="#C8C037"/>
<path fill-rule="evenodd" clip-rule="evenodd" d="M155.398 116.632C151.47 117.836 147.71 119.803 145.185 123.997C147.111 117.084 147.504 117.347 148.126 117.005C150.819 115.801 153.025 116.552 155.398 116.632Z" fill="#C8C037"/>
<path fill-rule="evenodd" clip-rule="evenodd" d="M134.422 197.649C129.672 202.89 119.074 197.252 110.273 194.378C87.9087 180.157 83.5397 166.769 83.2361 153.636C82.0863 134.823 87.863 123.892 95.1699 121.304C90.334 130.626 88.0796 147.36 90.3218 159.804C92.1316 166.727 92.1692 178.403 103.752 184.652C109.425 187.846 107.888 190.332 111.724 193.322C115.927 196.6 127.646 199.716 134.421 197.649L134.422 197.649Z" fill="#FCF6A0"/>
<path fill-rule="evenodd" clip-rule="evenodd" d="M141.517 110.706C133.476 99.303 122.166 95.0224 109.411 94.5546C111.968 93.7214 114.524 93.2875 117.08 92.055C117.706 91.3973 117.501 90.2401 117.266 89.0648C104.989 85.8592 97.2409 81.8973 87.4326 78.2247L113.911 84.579C131.793 85.2585 130.257 89.673 141.518 110.707L141.517 110.706Z" fill="#FCF6A0"/>
<path fill-rule="evenodd" clip-rule="evenodd" d="M150.127 105.207C144.184 96.7239 138.42 86.4279 130.596 79.8797C111.71 71.3551 93.0268 65.0241 71.1311 59.2631L78.1192 50.2767C101.354 55.5803 123.177 64.4553 142.726 79.0855C146.033 87.448 148.238 95.8215 150.125 105.206L150.127 105.207Z" fill="#FCF6A0"/>
<path fill-rule="evenodd" clip-rule="evenodd" d="M162.107 90.2161C162.107 90.2161 158.776 82.7416 157.154 79.8874C153.391 75.7174 151.488 67.9466 143.781 64.2851C146.219 64.9433 147.887 64.1591 152.863 68.6702L160.701 83.5377L162.107 90.2161Z" fill="#FCF6A0"/>
<path fill-rule="evenodd" clip-rule="evenodd" d="M166.252 103.165C167.02 96.6891 168.479 86.3015 166.805 82.1975C162.146 75.9469 157.455 69.4861 152.761 63.4881C151.984 62.7647 151.424 61.7829 150.812 61.0169C157.411 62.7266 164.298 67.3149 173.585 85.4288L166.252 103.165Z" fill="#FCF6A0"/>
<path fill-rule="evenodd" clip-rule="evenodd" d="M138.508 103.93C135.88 101.861 133.537 94.5447 129.554 93.0234C125.868 92.715 124.516 91.5551 119.668 92.5429C121.426 91.6619 123.086 90.5346 124.955 89.9312C126.221 89.6323 127.409 89.9634 128.617 90.13C128.915 89.989 129.111 89.8137 129.038 89.5487C124.158 86.533 114.147 86.4901 107.389 84.7686C115.232 85.0311 123.91 84.5964 129.804 86.4866C134.544 90.6929 136.084 98.6143 138.508 103.93Z" fill="black"/>
<path fill-rule="evenodd" clip-rule="evenodd" d="M152.88 68.6461C153.968 68.745 159.824 78.0075 160.099 79.5487C160.586 82.9179 161.787 86.6949 162.109 90.2201C161.145 86.8391 160.094 83.4583 158.78 80.0774C158.396 79.1463 157.425 77.0416 154.726 74.0645C153.469 71.9662 153.198 70.3169 152.88 68.6463L152.88 68.6461Z" fill="black"/>
<path fill-rule="evenodd" clip-rule="evenodd" d="M172.723 119.095H170.218L172.986 119.822L172.723 119.095Z" fill="black"/>
<path fill-rule="evenodd" clip-rule="evenodd" d="M155.629 116.593C153.11 116.283 150.525 116.242 148.006 116.796C146.979 118.175 146.908 119.578 146.46 120.875C149.522 117.499 150.737 117.293 155.629 116.593Z" fill="black"/>
<path fill-rule="evenodd" clip-rule="evenodd" d="M189.988 134.013C188.586 135.132 188.446 136.185 184.301 137.447C181.278 138.162 179.57 136.95 178.147 135.321C180.305 135.939 180.649 137.569 186.434 135.741L189.988 134.013Z" fill="black"/>
<path fill-rule="evenodd" clip-rule="evenodd" d="M177.425 134.713C176.416 137.487 175.329 140.291 174.232 142.889C171.621 145.952 172.733 144.207 168.824 148.963C170.075 147.034 171.702 145.179 172.554 143.17C173.152 141.846 173.897 140.442 174.226 139.267C173.19 138.749 171.068 138.708 170.78 138.894C167.305 140.944 166.678 143.113 164.629 145.225C166.114 142.851 167.382 140.26 169.104 138.124C169.3 137.846 170.575 137.793 171.358 137.629C170.141 137.42 167.887 136.982 167.705 137.002C165.438 137.547 164.168 139.522 162.484 140.834C163.712 139.062 164.842 137.217 166.4 135.694C166.554 135.515 170.766 135.884 172.949 136.755L172.992 137.623L174.232 138.124L175.164 135.787L177.425 134.713Z" fill="black"/>
<path fill-rule="evenodd" clip-rule="evenodd" d="M149.922 151.44C149.362 151.248 144.421 150.613 144.421 150.762C142.524 152.112 142.236 153.404 142.277 154.523C145.433 151.418 145.315 151.409 149.922 151.44Z" fill="black"/>
<path fill-rule="evenodd" clip-rule="evenodd" d="M146.169 129.107C146.169 129.107 149.734 128.587 149.665 128.92C149.406 130.157 150.101 133.172 150.178 132.751L148.173 134.387C152.371 132.276 156.79 132.7 161.272 132.378C161.272 132.378 157.499 131.336 157.729 131.303C158.571 131.184 157.505 127.367 157.217 127.285C157.934 127.042 158.636 126.859 159.361 126.677C153.964 125.265 150.844 126.097 146.168 129.107L146.169 129.107Z" fill="black"/>
<path fill-rule="evenodd" clip-rule="evenodd" d="M177.029 131.769L176.236 132.166C176.124 129.844 173.63 130.015 171.528 129.993L169.803 129.573C170.327 130.058 171.949 130.02 171.295 131.068C170.744 131.362 170.491 132.624 170.176 133.684L169.244 133.731C170.891 134.375 172.419 134.939 174.232 135.693L175.304 135.857L177.868 134.479L177.029 131.769Z" fill="black"/>
<path fill-rule="evenodd" clip-rule="evenodd" d="M153.394 130.203C152.993 129.41 150.974 129.522 150.538 130.036C150.185 130.453 150.516 133.131 150.97 132.68C151.626 132.103 152.482 131.862 153.511 131.909C153.64 131.414 153.594 130.88 153.394 130.203Z" fill="white"/>
<path fill-rule="evenodd" clip-rule="evenodd" d="M172.756 134.193C172.946 134.055 173.347 132.712 173.218 132.31C172.952 131.362 171.075 131.562 171.075 131.562C170.617 131.831 170.215 133.309 170.383 133.797C170.463 134.21 172.455 134.341 172.756 134.193Z" fill="white"/>
<path fill-rule="evenodd" clip-rule="evenodd" d="M92.4706 180.522L93.6566 180.638C100.688 184.09 112.264 189.209 129.024 186.458L131.654 190.596C124.273 194.183 116.334 193.358 108.895 193.609L92.4706 180.522Z" fill="black"/>
<path fill-rule="evenodd" clip-rule="evenodd" d="M82.3765 153.231L85.8985 168.017C95.3277 173.911 111.435 180.662 124.861 180.117L121.894 173.309C93.8679 167.358 91.4974 159.834 82.377 153.23L82.3765 153.231Z" fill="black"/>
<path fill-rule="evenodd" clip-rule="evenodd" d="M91.1406 122.945C92.862 134.403 95.1599 143.089 105.123 150.366C111.23 154.757 117.291 159.131 124.664 162.74C124.664 162.74 124.018 166.104 123.477 166.044C101.536 163.606 85.4727 145.413 83.5269 137.103C85.4115 130.729 88.115 126.747 91.1399 122.945H91.1406Z" fill="black"/>
<path fill-rule="evenodd" clip-rule="evenodd" d="M101.688 116.453C104.611 129.152 111.583 142.014 118.512 153.682C121.052 156.905 121.717 158.327 125.632 160.29C130.924 161.965 134.666 161.537 138.507 161.285C137.455 159.337 136.519 157.301 135.311 155.471C126.71 148.669 130.685 142.476 132.969 138.555C128.187 137.347 121.85 134.778 120.978 131.4C119.574 120.474 120.287 117.008 121.691 111.396C115.215 112.761 108.653 114.115 101.687 116.453L101.688 116.453Z" fill="black"/>
<path fill-rule="evenodd" clip-rule="evenodd" d="M77.9302 49C75.8017 50.3905 73.7511 52.3787 71.545 54.6384C67.8879 58.424 65.4567 62.1167 61.7341 64.8544C60.9896 65.4964 58.9003 66.5303 56.2736 66.6836C55.0363 66.7454 54.2302 66.9501 51.9566 66.6647C49.9514 65.5789 48.0464 66.285 46.1873 68.5088C44.1486 71.4405 41.5667 77.0075 40.493 80.512C38.2803 89.4495 43.9217 96.8132 49.3317 102.488C54.1444 107.19 56.9191 110.128 58.8952 114.439C60.3913 117.234 61.4997 121.071 62.6997 123.761C63.1324 124.614 63.0424 124.609 64.2071 124.866C66.722 125.403 70.2105 125.407 73.3162 125.674C74.6599 125.693 76.5052 125.643 78.2536 125.461C80.6629 125.006 83.4934 124.56 85.8658 123.739C88.1842 123.168 90.2497 122.378 92.1117 121.65C91.8715 122.465 90.0977 123.249 89.4327 124.282C83.1214 133.317 81.3926 141.356 82.4913 154.04C83.1129 159.663 84.4032 164.323 86.3501 169.656C87.241 172.096 89.1367 175.961 90.9535 178.528C96.3559 186.162 108.442 195.964 125.267 199.738C128.202 200.139 131.533 199.925 134.666 199.091C142.97 196.573 159.894 190.62 159.894 190.62C159.894 190.62 144.871 191.863 137.991 191.183C136.398 190.934 134.643 190.849 133.534 189.764C133.347 189.523 132.671 188.161 133.108 188.149C133.704 188.133 135.414 187.423 138.054 187.187C132.417 186.58 132.497 186.588 132.086 185.561C131.446 183.967 130.467 181.788 129.458 179.882C131.935 180.091 137.42 180.398 139.281 178.477C139.281 178.477 136.035 178.852 133.167 178.516C132.201 178.402 130.555 177.815 130.06 177.633C128.772 177.132 127.712 176.976 127.465 176.649C127.018 175.511 126.715 175.128 126.176 173.604C125.445 171.585 125.387 169.334 125.247 167.273C127.124 169.585 129.514 171.532 132.679 172.526C132.72 172.441 136.785 174.293 139.737 173.341L140.349 173.143C140.349 173.198 138.393 173.315 137.676 172.959C131.672 170.407 130.768 168.174 129.799 167.064L127.206 163.181C127.994 161.608 128.44 161.549 129.485 161.534C132.645 161.885 134.02 162.155 135.943 161.691C137.242 164.365 137.594 167.055 140.552 169.001C150.407 171.927 152.548 168.133 154.935 164.78C162.025 169.984 173.569 171.589 181.585 164.871C191.777 153.078 195.004 134.486 194.1 133.425C192.827 131.265 191.157 129.038 189.723 129.346C184.612 130.741 182.727 133.334 177.663 132.743C178.266 132.709 179.28 132.692 179.288 132.635C179.678 128.346 179.257 126.271 179.069 125.915C177.532 122.526 175.514 118.959 174.107 116.286C173.744 115.731 172.679 111.519 170.895 109.855C170.129 109.202 168.256 107.479 168.256 107.479L168.097 109.31C168.097 109.31 168.829 109.421 169.108 110.556C170.165 114.857 175.545 125.028 175.94 125.516C177.847 128.594 176.134 132.429 177.584 134.581C177.723 134.854 180.542 134.557 182.726 134.691C186.318 133.918 186.167 132.335 189.27 132.097C191.36 131.937 191.57 135.863 191.542 136.167C191.152 140.502 189.834 145.542 187.816 150.144C183.62 158.227 178.922 165.487 172.258 166.5C164.129 167.92 159.906 164.367 155.499 162.104L153.814 163.541C148.087 169.244 141.288 168.737 138.507 161.286C137.122 158.396 135.318 156.625 133.773 154.145L125.581 160.045C124.9 161.444 124.061 163.649 123.043 166.113C122.334 167.826 121.741 170.767 121.779 173.211C120.729 175 125.416 182.255 128.378 186.668C129.252 187.97 130.884 190.244 130.938 190.386C131.526 191.91 132.812 193.255 132.89 193.419C138.388 200.59 125.954 198.939 123.386 198.506C118.319 197.698 113.363 195.582 108.705 192.752C108.435 192.588 108.165 192.421 107.897 192.252C102.361 188.767 97.2675 184.307 92.9366 179.896C90.3542 176.972 87.8953 170.978 86.0791 166.728C83.3572 156.512 79.4509 138.804 90.0326 125.385C90.7033 124.618 91.4271 123.34 92.0434 123.088C95.1873 120.961 98.6012 119.512 102.272 118.707L101.902 116.327C100.068 116.744 93.895 119.002 92.1495 119.947C88.18 121.098 84.8875 122.299 79.8286 123.566C78.1841 123.767 76.5665 123.771 74.9896 123.557C71.3504 123.062 65.1473 123.504 64.7516 123.136C62.2875 119.7 61.6128 113.543 59.3645 110.248L59.3379 110.215L59.3095 110.183C57.9988 108.422 56.471 106.985 54.9665 105.49C49.5784 100.137 44.9668 94.9605 43.6759 89.4756C43.3513 87.8561 42.5154 86.1787 42.9597 81.3869L42.9679 81.3634L42.9757 81.3399C44.272 76.8634 46.3808 73.2144 49.9601 69.5572C53.6847 69.6174 57.3715 69.6992 60.2433 70.2478C61.5608 70.4682 64.3006 70.8261 67.1305 71.8802C74.2931 74.5485 83.7571 78.9353 83.7571 78.9353C76.6531 75.0338 68.7094 69.9667 63.6932 68.9441C62.9469 68.8384 62.4881 68.498 62.2665 67.9036C69.8111 63.4708 71.1913 58.2517 76.1537 53.5709C78.4215 52.5838 79.3058 52.0798 81.2328 51.8704C99.0543 54.6883 110.273 61.7866 119.148 66.533C122.75 68.4918 126.025 69.973 129.152 71.7569C131.893 72.6587 140.166 78.9042 142.587 82.2714C145.046 87.4642 146.842 93.0733 148.48 98.4859C149.654 103.991 150.684 106.224 150.684 106.224C150.684 106.224 149.686 101.619 149.852 100.792C150.887 101.179 153.334 101.943 154.348 101.824C154.348 101.824 149.818 99.4824 149.224 97.4128C147.319 90.7721 145.409 80.4343 144.894 79.8953C143.442 78.0686 137.388 73.4356 133.675 71.2925C132.27 70.4818 131.511 69.9789 131.451 69.6225C132.638 68.4241 134.103 66.8388 135.417 65.8315C136.676 64.8659 137.822 63.777 139.577 63.1254C147.291 59.6512 151.702 64.4619 152.748 63.4878C152.748 63.4878 151.089 61.5856 151.826 61.8987C152.581 62.3076 155.041 62.7898 155.311 63.0409C158.122 65.2401 165.472 73.278 169.902 81.759C170.966 83.8365 171.399 85.2044 170.905 87.7059C170.411 90.2097 170.028 91.5866 169.488 93.2587C169.001 94.3766 166.242 102.03 166.253 103.058C165.698 107.257 168.054 112.514 168.054 112.514C168.076 111.087 167.966 110.327 168.096 109.306L168.254 107.483C168.254 107.483 168.154 106.998 168.172 106.805C168.292 105.544 168.601 104.484 168.692 103.762C169.577 98.2779 171.117 94.3301 172.863 89.5177C173.382 88.3032 174.061 87.6278 174.027 86.7032C174.055 85.0623 172.587 82.8599 171.526 80.7089C170.456 78.5349 169.177 76.1115 167.497 73.5571C163.669 68.0519 160.405 63.7445 154.429 61.0487C152.757 60.3149 146.177 59.5975 143.905 60.0238C141.149 60.5981 138.778 61.1644 136.888 62.3746C133.914 64.2791 131.577 67.2277 128.836 68.9651C122.773 65.9328 119.846 63.6634 119.3 63.3505C115.696 61.4194 111.369 59.1784 106.714 57.0532C104.483 54.9719 90.6229 49.9939 77.9318 49.001L77.9302 49ZM155.498 162.1C151.761 159.179 148.615 156.171 146.541 153.074C145.864 156.717 143.406 159.311 141.507 161.862C141.129 162.46 140.856 163.276 142.718 165.876C143.22 166.569 145.035 166.688 146.261 166.624C145.014 165.681 143.117 164.685 142.811 163.821C145.005 165.314 147.036 165.743 148.871 165.503C149.291 165.456 149.812 165.011 150.215 164.326C151.033 162.568 151.674 162.145 152.321 161.671L153.813 163.54L155.498 162.1Z" fill="black" stroke="black" stroke-width="0.11397"/>
</svg>