<?xml version="1.0" encoding="UTF-8"?>
<svg id="spark" width="256" height="256" fill="none" title="Spark" version="1.1" viewBox="0 0 256 256" xmlns="http://www.w3.org/2000/svg">
 <style>#spark {
    rect {fill: #15191C}
    path.ss {fill: #F4F2ED}

    @media (prefers-color-scheme: light) {
        rect {fill: #F4F2ED}
        path.ss {fill: #15191C}
    }
}</style>
 <rect width="256" height="256" rx="40" fill="#f4f2ed"/>
 <path d="m205.23 128.88c-0.158-0.335-0.232-0.507-0.319-0.668-2.318-4.347-4.63-8.699-6.967-13.034-0.237-0.434-0.207-0.693 0.114-1.064 3.687-4.248 7.355-8.513 11.028-12.775 0.128-0.147 0.245-0.308 0.294-0.573-1.074 0.276-2.149 0.549-3.22 0.829-4.456 1.165-8.912 2.326-13.362 3.504-0.414 0.109-0.602-8e-3 -0.81-0.349-2.527-4.166-5.071-8.3247-7.613-12.483-0.131-0.2182-0.273-0.4281-0.551-0.6081-0.204 1.1098-0.414 2.2196-0.613 3.3295l-2.119 11.764c-0.076 0.425-0.183 0.845-0.218 1.273-0.038 0.404-0.246 0.554-0.619 0.668-5.249 1.626-10.493 3.267-15.739 4.909-0.229 0.071-0.456 0.163-0.701 0.384l12.936 5.072c-0.158 0.123-0.262 0.218-0.376 0.295-2.684 1.712-5.372 3.416-8.045 5.137-0.321 0.204-0.575 0.234-0.935 0.073-3.204-1.42-6.422-2.816-9.628-4.232-1.443-0.635-2.738-1.477-3.747-2.694-2.282-2.754-1.832-5.884 1.208-7.798 0.995-0.628 2.127-1.094 3.25-1.457 5.143-1.652 10.305-3.244 15.462-4.845 0.433-0.134 0.635-0.325 0.714-0.785 0.687-3.9271 1.402-7.8455 2.116-11.767 0.384-2.0942 0.589-4.2457 1.622-6.1627 0.399-0.7417 0.873-1.4643 1.44-2.0833 2.045-2.2414 4.906-2.3287 7.071-0.1908 0.731 0.7198 1.358 1.5706 1.903 2.4405 2.383 3.8366 4.731 7.6978 7.063 11.562 0.278 0.4609 0.526 0.5509 1.036 0.4172 5.754-1.5215 11.513-3.0186 17.269-4.5183 1.189-0.3109 2.389-0.4227 3.608-0.1991 2.655 0.4909 3.817 2.4814 2.917 5.0119-0.409 1.1508-1.115 2.127-1.909 3.0436-4.016 4.662-8.027 9.325-12.058 13.975-0.33 0.381-0.338 0.654-0.109 1.079 2.405 4.472 4.789 8.953 7.183 13.43 0.572 1.072 1.009 2.182 1.022 3.414 0.028 2.801-2.045 5.091-4.867 5.497-1.582 0.229-3.049-0.103-4.527-0.553-3.607-1.102-7.22-2.182-10.836-3.253-0.335-0.101-0.464-0.229-0.521-0.587-0.417-2.508-0.87-5.011-1.309-7.517-0.011-0.069 8e-3 -0.142 0.019-0.298l12.443 3.387z" clip-rule="evenodd" fill="#E25A1C" fill-rule="evenodd"/>
 <path class="ss" d="m198.2 165.42c-3.253-5e-3 -6.506-0.022-9.762-8e-3 -0.428 0-0.671-0.123-0.911-0.483-3.85-5.786-7.717-11.559-11.583-17.334-0.123-0.186-0.254-0.363-0.475-0.671l-2.459 18.452h-8.519c0.101-0.818 0.188-1.608 0.292-2.399 0.832-6.261 1.666-12.527 2.503-18.788 0.796-5.985 1.59-11.971 2.4-17.956 0.024-0.178 0.144-0.404 0.291-0.499 2.932-1.882 5.874-3.752 8.814-5.623 0.043-0.027 0.103-0.03 0.256-0.074l-2.656 19.972 0.104 0.071 13.942-15.243 0.371 2.105c0.33 1.903 0.646 3.806 1 5.704 0.071 0.382-0.03 0.622-0.289 0.886-2.983 3.082-5.958 6.171-8.933 9.261l-0.401 0.433c0.096 0.15 0.175 0.295 0.273 0.428l15.399 21.308c0.092 0.131 0.226 0.232 0.343 0.346v0.112zm-100.97-18.469c-0.1309-0.654-0.2236-1.617-0.5181-2.514-1.4261-4.341-5.9445-6.722-10.618-5.647-5.1264 1.175-8.7913 5.153-9.3203 10.313-0.3926 3.817 1.6907 7.496 5.5655 8.875 3.1222 1.113 6.1272 0.647 8.9167-1.003 3.7031-2.19 5.71-5.44 5.9745-10.024zm-22.518 16.135c-0.2536 1.868-0.4963 3.627-0.7308 5.391-0.3108 2.339-0.6217 4.682-0.9216 7.024-0.0355 0.273-0.12 0.396-0.4172 0.393-2.3397-8e-3 -4.6793-8e-3 -7.0189-0.011-0.0545 0-0.1063-0.027-0.2318-0.063 0.1391-1.107 0.2782-2.214 0.4254-3.321 0.5181-3.886 1.0307-7.769 1.5543-11.652 0.5999-4.439 1.0744-8.9 1.8406-13.312 1.3607-7.81 8.0769-14.542 15.963-16.219 4.5702-0.971 8.944-0.521 12.933 2.017 3.9809 2.528 6.2639 6.198 6.7839 10.818 0.737 6.528-1.701 11.949-6.4022 16.432-3.0868 2.945-6.7816 4.815-11.044 5.448-4.3902 0.652-8.5186-0.071-12.222-2.623-0.1364-0.093-0.2809-0.175-0.5127-0.322zm-3.8148-37.115-7.6924 5.647c-0.409-0.635-0.7771-1.27-1.2053-1.862-1.1016-1.519-2.4705-2.653-4.4638-2.792-1.6552-0.115-3.0704 0.425-4.1993 1.627-1.0089 1.078-1.1398 2.61-0.1963 3.826 1.0362 1.336 2.1705 2.607 3.3294 3.848 1.9224 2.053 3.9321 4.03 5.8409 6.097 1.737 1.879 3.1195 3.987 3.5476 6.555 0.5099 3.054-0.1091 5.964-1.5734 8.647-2.7104 4.968-6.9807 7.853-12.614 8.753-2.4896 0.398-4.971 0.319-7.4006-0.387-3.2231-0.935-5.4619-3.016-6.9071-5.961-0.5099-1.036-0.8998-2.138-1.3634-3.253l8.3441-4.404c0.0954 0.229 0.1636 0.42 0.2536 0.6 0.4745 0.935 0.8644 1.928 1.4507 2.79 1.7424 2.555 4.5538 3.332 7.4115 2.072 0.7308-0.327 1.437-0.785 2.0397-1.309 1.8406-1.611 2.1842-3.853 0.8235-5.879-0.7826-1.164-1.7616-2.209-2.7132-3.253-2.2769-2.492-4.6465-4.908-6.8716-7.444-1.5298-1.751-2.5714-3.791-2.9014-6.136-0.3599-2.557 0.1582-4.971 1.508-7.125 3.354-5.353 8.235-8.139 14.684-7.908 3.6758 0.131 6.6044 1.827 8.8786 4.644 0.6708 0.834 1.3034 1.702 1.9906 2.607zm62.308 28.743c-0.425 3.226-0.829 6.291-1.249 9.354-0.022 0.155-0.144 0.365-0.278 0.428-6.351 2.898-14.711 2.495-19.925-3.346-2.803-3.136-3.978-6.861-3.801-11.006 0.406-9.59 8.467-17.961 18.109-19.131 5.633-0.685 10.574 0.818 14.389 5.132 2.599 2.939 3.801 6.451 3.624 10.326-0.117 2.558-0.523 5.108-0.845 7.654-0.458 3.608-0.96 7.213-1.443 10.818-0.016 0.128-0.043 0.256-0.07 0.417h-7.597c0.1-0.829 0.193-1.639 0.3-2.449 0.55-4.164 1.156-8.322 1.636-12.494 0.3-2.596 0.111-5.176-1.091-7.581-1.282-2.56-3.433-3.913-6.258-4.207-5.849-0.611-11.415 3.398-12.661 9.075-0.823 3.746 0.475 7.338 3.501 9.326 2.948 1.936 6.109 1.941 9.321 0.684 1.63-0.635 3.018-1.642 4.338-3zm31.986-22.973-1.036 7.766c-1.609 0-3.183-8e-3 -4.756 5e-3 -1.276 9e-3 -2.44 0.821-2.825 1.996-0.15 0.459-0.204 0.952-0.27 1.435-0.799 5.963-1.59 11.927-2.383 17.893-0.202 1.503-0.396 3.008-0.597 4.535h-7.905c0.147-1.145 0.286-2.258 0.436-3.365 0.513-3.867 1.025-7.731 1.546-11.594 0.45-3.344 0.851-6.695 1.382-10.027 0.709-4.467 5.214-8.434 9.784-8.628 2.182-0.095 4.369-0.016 6.624-0.016z" clip-rule="evenodd" fill="#15191c" fill-rule="evenodd"/>
 <path class="ss" d="m207.52 165.38v-3.291h-0.017l-1.309 3.291h-0.419l-1.309-3.291h-0.019v3.288h-0.66v-3.943h1.017l1.194 2.997 1.173-2.997h1.009v3.946h-0.66zm-5.8-3.417v3.417h-0.66v-3.417h-1.254v-0.526h3.163v0.526h-1.249zm-120.23-41.521h1.9633l-0.4635-2.926-1.4998 2.926zm2.2687 1.892h-3.2613l-1.0362 2.002h-2.3096l5.0937-9.389h2.2279l1.7342 9.389h-2.1405l-0.3082-2.002zm11.668-5.494h-1.1616l-0.3899 2.165h1.1589c0.7008 0 1.2625-0.453 1.2625-1.309 0-0.567-0.3545-0.856-0.8699-0.856zm-2.814-1.893h3.054c1.5952 0 2.7132 0.941 2.7132 2.555 0 2.029-1.4561 3.395-3.5258 3.395h-1.317l-0.6163 3.436h-1.9851l1.677-9.386zm12.519 5.495h1.96l-0.463-2.926-1.497 2.926zm2.266 1.892h-3.259l-1.036 2.002h-2.31l5.094-9.389h2.225l1.737 9.389h-2.143l-0.308-2.002zm12.895 1.669c-0.671 0.303-1.413 0.485-2.154 0.485-2.52 0-4.104-1.865-4.104-4.199 0-2.98 2.549-5.494 5.573-5.494 0.756 0 1.44 0.179 1.999 0.482l-0.278 2.253c-0.42-0.456-1.091-0.775-1.933-0.775-1.735 0-3.272 1.549-3.272 3.34 0 1.369 0.867 2.433 2.236 2.433 0.842 0 1.652-0.319 2.197-0.761l-0.264 2.236zm12.145-3.449h-4.142l-0.673 3.782h-1.986l1.677-9.389h1.988l-0.671 3.714h4.143l0.67-3.714h1.988l-1.677 9.389h-1.988l0.671-3.782zm7.289 3.782 1.68-9.389h5.276l-0.335 1.893h-3.292l-0.332 1.821h3.021l-0.335 1.893h-3.024l-0.336 1.889h3.289l-0.336 1.893h-5.276z" fill="#15191c"/>
</svg>
