<?xml version="1.0" encoding="UTF-8"?>
<svg id="apachehadoop" width="256" height="256" fill="none" title="Apache Hadoop" version="1.1" viewBox="0 0 256 256" xmlns="http://www.w3.org/2000/svg">
 <style>#apachehadoop {
    rect {fill: #15191C}

    @media (prefers-color-scheme: light) {
        rect {fill: #F4F2ED}
    }
}</style>
 <rect width="256" height="256" rx="40" fill="#f4f2ed"/>
 <g clip-rule="evenodd" fill-rule="evenodd">
  <path d="m194.5 152h11.717c0.484-2.184 0.968-4.368 1.451-6.552 3.344 0 6.796 0.022 10.141 0.022 1.633 0 3.078-0.504 4.362-1.365 1.551-1.039 2.708-2.632 3.143-4.597 0.735-3.324 1.475-6.647 2.214-9.97 0.422-1.897 0.97-4.04-0.401-5.753-1.26-1.577-2.934-1.699-4.771-1.699-13.229 0.014-26.459-1e-3 -39.688-1e-3 -1.335 0-2.454 0.429-3.621 1.026-1.095-0.768-2.083-1.026-3.426-1.026h-18.158c0.496-2.214 0.991-4.428 1.487-6.642h-11.735c-0.484 2.16-0.967 4.32-1.451 6.48h-10.321c-1.425 0-2.795 0.444-3.99 1.206-1.159-0.715-2.052-1.026-3.425-1.026h-34.066c0.52-2.244 1.04-4.488 1.5598-6.732-3.9056-5e-3 -7.8112-0.012-11.717-0.018-2.2516 9.995-4.5033 19.989-6.755 29.983 3.902 1e-3 7.804 2e-3 11.706 3e-3 1.1739-5.115 2.3475-10.229 3.5212-15.344h3.9611c0.4714 0 0.3786 0.266 0.2996 0.618-1.1102 4.909-2.2205 9.818-3.3305 14.726h77.606c1.316 0 2.347-0.27 3.532-0.87 1.168 0.775 2.2 1.032 3.627 1.02l17.975-0.15c-0.482 2.22-0.965 4.441-1.447 6.661zm-50.685-21.984h-3.455c-0.606 0-0.769 0.274-0.89 0.813-0.432 1.925-0.864 3.851-1.297 5.775-0.123 0.554 0.159 0.644 0.647 0.644h3.362c0.544-2.411 1.088-4.821 1.633-7.232zm19.815 0.14h3.69c0.71 0 0.671 0.369 0.544 0.94-0.423 1.885-0.846 3.771-1.268 5.657-0.148 0.658-0.561 0.647-1.131 0.647h-3.755c-0.551 0-0.556-0.323-0.458-0.766 0.421-1.885 0.842-3.771 1.262-5.656 0.156-0.698 0.433-0.822 1.116-0.822zm24.29 0h3.689c0.71 0 0.672 0.369 0.544 0.94-0.423 1.885-0.846 3.771-1.268 5.657-0.147 0.658-0.561 0.647-1.131 0.647h-3.755c-0.551 0-0.556-0.323-0.458-0.766 0.421-1.885 0.842-3.771 1.262-5.656 0.156-0.698 0.433-0.822 1.117-0.822zm21.66 7.298h3.455c0.606 0 0.769-0.274 0.889-0.813 0.433-1.925 0.865-3.85 1.298-5.775 0.123-0.553-0.159-0.644-0.647-0.644h-3.362c-0.544 2.411-1.089 4.822-1.633 7.232z" fill="#000"/>
  <g fill="#1F1917">
   <path d="m160.93 123.77h14.717c2.297 0 3.759 1.865 3.251 4.144l-2.623 11.746c-0.508 2.279-2.804 4.144-5.1 4.144h-14.717c-2.297 0-3.76-1.865-3.251-4.144l2.622-11.746c0.509-2.279 2.804-4.144 5.101-4.144zm2.667 4.716h7.277c1.216 0 1.99 0.987 1.72 2.193l-1.387 6.217c-0.27 1.205-1.484 2.192-2.7 2.192h-7.276c-1.216 0-1.99-0.987-1.721-2.192l1.388-6.217c0.269-1.207 1.484-2.193 2.699-2.193z"/>
   <path d="m185.19 123.77h14.717c2.297 0 3.76 1.865 3.251 4.144l-2.622 11.746c-0.509 2.279-2.804 4.144-5.101 4.144h-14.717c-2.297 0-3.76-1.865-3.251-4.144l2.622-11.746c0.509-2.279 2.804-4.144 5.101-4.144zm2.668 4.716h7.276c1.216 0 1.99 0.987 1.721 2.193l-1.388 6.217c-0.269 1.205-1.484 2.192-2.699 2.192h-7.277c-1.216 0-1.99-0.987-1.721-2.192l1.388-6.217c0.269-1.207 1.484-2.193 2.7-2.193z"/>
   <path d="m205.29 123.77h17.663c2.297 0 3.759 1.866 3.251 4.144l-2.622 11.746c-0.509 2.278-2.805 4.145-5.101 4.144l-17.663-9e-3 4.472-20.025zm4.617 4.716h8.273c1.216 0 1.99 0.987 1.721 2.193l-1.388 6.217c-0.269 1.205-1.485 2.192-2.7 2.192h-8.28"/>
   <path d="m151.07 143.65h-17.663c-2.297 0-3.759-1.865-3.251-4.144l2.622-11.746c0.509-2.278 2.805-4.145 5.101-4.143l17.664 8e-3 -4.473 20.025zm-4.617-4.716h-8.273c-1.216 0-1.99-0.987-1.721-2.192l1.388-6.217c0.269-1.205 1.484-2.193 2.699-2.193h8.281"/>
   <path d="m90.58 123.77h13.5c2.297 0 3.76 1.865 3.251 4.144l-1.917 8.587h-5.6856l1.2996-5.822c0.269-1.207-0.505-2.193-1.7204-2.193h-8.3648c-1.2149 0-0.1258 0.987-0.3947 2.193l-1.2826 5.744h-5.6861l1.8997-8.509c0.5087-2.279 2.8037-4.144 5.1004-4.144z"/>
   <path d="m81.976 143.65 3.8811-17.335h5.6706l-3.8873 17.335"/>
   <path d="m128.03 143.65h-18.88c-2.297 0-3.76-1.865-3.251-4.144l0.761-3.408h3e-3l0.147-0.655c0.508-2.279 2.804-4.145 5.1-4.144l13.21 6e-3 0.195-0.87c0.208-1.136-0.514-2.057-1.649-2.103h-15.292l1.053-4.713 18.978 5e-3c2.249 0.044 3.671 1.891 3.169 4.142l-0.358 1.6h4e-3l-0.434 1.941h4e-3l-2.227 9.972h-4e-3l-0.529 2.371zm-14.676-4.716h10.058l0.654-2.92h-9.886c-0.047-4e-3 -0.096-7e-3 -0.146-7e-3 -0.81 0-1.619 0.657-1.797 1.461-0.177 0.794 0.325 1.445 1.119 1.46-1e-3 2e-3 -1e-3 4e-3 -2e-3 6e-3z"/>
  </g>
  <g fill="#6cf">
   <path d="m160.93 123.77h14.717c2.297 0 3.759 1.865 3.251 4.144l-2.623 11.746c-0.508 2.279-2.804 4.144-5.1 4.144h-14.717c-2.297 0-3.76-1.865-3.251-4.144l2.622-11.746c0.509-2.279 2.804-4.144 5.101-4.144zm2.667 4.716h7.277c1.216 0 1.99 0.987 1.72 2.193l-1.387 6.217c-0.27 1.205-1.484 2.192-2.7 2.192h-7.276c-1.216 0-1.99-0.987-1.721-2.192l1.388-6.217c0.269-1.207 1.484-2.193 2.699-2.193z"/>
   <path d="m185.19 123.77h14.717c2.297 0 3.76 1.865 3.251 4.144l-2.622 11.746c-0.509 2.279-2.804 4.144-5.101 4.144h-14.717c-2.297 0-3.76-1.865-3.251-4.144l2.622-11.746c0.509-2.279 2.804-4.144 5.101-4.144zm2.668 4.716h7.276c1.216 0 1.99 0.987 1.721 2.193l-1.388 6.217c-0.269 1.205-1.484 2.192-2.699 2.192h-7.277c-1.216 0-1.99-0.987-1.721-2.192l1.388-6.217c0.269-1.207 1.484-2.193 2.7-2.193z"/>
   <path d="m205.29 123.77-3.689 16.491-2.281 10.249h5.659l1.505-6.714 11.997 0.01c2.296 1e-3 4.587-1.864 5.096-4.142l2.621-11.742c0.508-2.278-0.955-4.152-3.252-4.152h-17.656zm4.611 4.72h8.279c1.216 0 1.987 0.991 1.718 2.196l-1.388 6.213c-0.269 1.205-1.483 2.197-2.698 2.197h-8.28l2.369-10.606z"/>
   <path d="m151.38 116.91-1.505 6.714-11.997-0.01c-2.296-1e-3 -4.587 1.864-5.096 4.142l-2.63 11.752c-0.509 2.278 0.955 4.142 3.251 4.142h17.666l5.97-26.74h-5.659zm-10.833 11.424h8.28l-2.378 10.596h-8.27c-1.216 0-1.987-0.982-1.718-2.187l1.388-6.222c0.269-1.205 1.483-2.187 2.698-2.187z"/>
   <path d="m87.937 116.91-2.2907 10.249h0.0291l-0.097 0.405c-0.0364 0.117-0.0704 0.236-0.0971 0.356l-1.9025 8.505h0.0194l-1.621 7.225h5.6589l1.621-7.225h0.0097l1.2813-5.741c0.0021-9e-3 -0.0019-0.019 0-0.028l0.495-2.168h8.2603c1.2155 0 1.9965 0.99 1.7275 2.196l-2.8923 12.966h5.6683l1.602-7.148h0.01l1.912-8.582c0.508-2.279-0.955-4.152-3.252-4.152h-12.007l1.5336-6.858h-5.6686z"/>
   <path d="m128.03 143.65h-18.88c-2.297 0-3.76-1.865-3.251-4.144l0.761-3.408h3e-3l0.147-0.655c0.508-2.279 2.804-4.145 5.1-4.144l13.21 6e-3 0.195-0.87c0.208-1.136-0.514-2.057-1.649-2.103h-15.292l1.053-4.713 18.978 5e-3c2.249 0.044 3.671 1.891 3.169 4.142l-0.358 1.6h4e-3l-0.434 1.941h4e-3l-2.227 9.972h-4e-3l-0.529 2.371zm-14.676-4.716h10.058l0.654-2.92h-9.886c-0.047-4e-3 -0.096-7e-3 -0.146-7e-3 -0.81 0-1.619 0.657-1.797 1.461-0.177 0.794 0.325 1.445 1.119 1.46-1e-3 2e-3 -1e-3 4e-3 -2e-3 6e-3z"/>
  </g>
  <path d="m34.285 131.35c-0.2322 0.627-0.4647 1.255-0.6969 1.883-0.5751 0.564-1.1502 1.13-1.7254 1.695-0.6288 0.618-0.764 0.614-0.6164 1.488 0.1735 1.028 0.6713 2.087 1.5876 2.998 0.9635 0.959 2.9864 2.315 4.442 1.676-0.1353 0.485-0.3149 0.994-0.5435 1.492-0.9761 2.123 1.4027 2.539 3.0674 2.986 1.3836 0.372 4.779 1.361 5.269-0.444 0.2203-0.812 0.2545-1.248 0.1761-2.023 0.4305-0.954 0.568-1.106 0.9243-1.631 0.489-0.719 0.4539-0.993 0.3469-1.886-0.0207-0.173-0.0459-0.36-0.075-0.557 1.6475 0.245 3.2316 0.243 4.8462 0.044-0.4902 0.283-0.9819 0.531-1.6302 0.862-1.5388 0.785-0.0887 3.101 0.5745 4.115 1.3919 2.129 2.6399 3.593 4.9912 2.331 0.7899-0.425 0.8509-0.877 1.3438-1.607 0.2723-0.148 1.6757-1.333 2.5102-2.002 0.3163 0.377 0.9218 0.446 1.84 0.512 0.462 0.033 2.2739 0.022 2.7542 0.025 1.4409 9e-3 2.3056-0.139 2.4183-1.698 0.0534-0.739 0.0215-0.896-0.3449-1.542-0.0221-0.815-0.044-1.63-0.0659-2.445-0.0251-0.918-0.2018-1.482-0.5648-2.339-0.3302-0.78-0.5151-1.444-0.9006-2.2 0.0529-0.296 0.0948-0.602 0.1233-0.921 0.4899 0.468 0.9796 0.937 1.4695 1.405 0.9338 0.893 1.7055 1.622 3.1293 1.555 1.4828-0.069 3.1804-1.229 3.6151-2.647 0.1449-0.473 0.2894-0.946 0.4344-1.419 2.2361 0.419 4.8495 0.323 6.7965-0.708 2.8636-1.516 4.2034-4.566 4.5328-7.791 0.2664-2.609-0.2465-6.997-1.5-9.378-0.3686-0.7-2.0331-1.585-2.7628-0.852-0.5498 0.553-0.9274 1.396-1.5209 1.899-0.4597 0.39-1.0292 0.583-1.5282 0.787-0.3863-1.035-0.9415-1.84-1.6213-2.643-0.5407-0.639-1.05-0.958-1.7629-1.401-1.4088-0.875-2.502-1.98-3.7838-3.029-3.879-3.174-7.21-3.076-12.043-1.058-2.3057 0.963-3.4178 2.27-4.832 4.148-0.8547 0.044-1.4418 0.208-2.3452 0.999-0.6668 0.584-1.2877 1.185-1.8886 1.808-4.5176 0.714-7.3233 1.569-10.292 4.18-1.2079 1.063-2.086 2.24-2.7708 3.564-0.6359 0.697-1.268 1.412-2.1075 1.733-0.591 0.225-0.5801 0.225-0.7883-0.327 0.7027-0.524 0.6916-1.51 0.7567-2.403 0.4433 0.021 0.6095 0.514 0.9109 0.892 0.1779-0.79 0.281-2.016-0.5563-2.446 0.1361-0.361 0.2902-0.725 0.4313-1.124-1.2351 0.213-5.4693 3.045-3.2101 5.205 0.1487 0.6 0.2658 1.013 0.4623 1.419 0.5169 1.067 1.6793 1.25 2.6921 0.858-0.2776 1.262-0.3338 2.636-0.1667 4.565 0.04 0.463 0.1073 0.929 0.1977 1.397z" fill="#000"/>
 </g>
 <path d="m34.554 131.45c-0.0933 0.252-0.1869 0.504-0.2802 0.757l-0.5367-0.196c0.0933-0.252 0.187-0.504 0.2802-0.756l0.5367 0.195zm-0.2802 0.757c-0.1389 0.375-0.278 0.75-0.4168 1.125l-0.5367-0.195c0.1388-0.375 0.2779-0.751 0.4168-1.126l0.5367 0.196zm-0.4168 1.125-0.0672 0.103-0.2011-0.2 0.2683 0.097zm-0.0672 0.103c-0.3046 0.3-0.6096 0.599-0.9143 0.899l-0.4024-0.402c0.3048-0.299 0.6097-0.599 0.9144-0.898l0.4023 0.401zm-0.9143 0.899c-0.2702 0.265-0.5408 0.531-0.8111 0.797l-0.4023-0.402c0.2703-0.265 0.5408-0.531 0.811-0.797l0.4024 0.402zm-0.8111 0.797c-0.1235 0.121-0.1655 0.161-0.2027 0.197l-0.3957-0.411c0.0825-0.078 0.1736-0.166 0.1961-0.188l0.4023 0.402zm-0.2027 0.197c-0.366 0.35-0.4384 0.419-0.333 1.044l-0.5635 0.093c-0.1554-0.921-0.047-1.024 0.5008-1.548l0.3957 0.411zm-0.333 1.044c0.085 0.503 0.2535 1.016 0.5181 1.516l-0.5075 0.264c-0.292-0.551-0.4789-1.123-0.5741-1.687l0.5635-0.093zm0.5181 1.516c0.2457 0.464 0.5727 0.913 0.99 1.329l-0.4046 0.399c-0.4631-0.461-0.8239-0.956-1.0929-1.464l0.5075-0.264zm0.99 1.329c0.534 0.531 1.4057 1.189 2.3129 1.531l-0.2012 0.531c-0.9914-0.374-1.9382-1.088-2.5163-1.663l0.4046-0.399zm2.3129 1.531c0.6311 0.238 1.2742 0.32 1.8117 0.084l0.2302 0.519c-0.6933 0.305-1.4839 0.214-2.2431-0.072l0.2012-0.531zm1.8117 0.084 0.5521-0.242-0.1609 0.577-0.2761-0.075-0.1151-0.26zm0.3912 0.335c-0.0717 0.258-0.1557 0.522-0.2522 0.787l-0.5389-0.193c0.0916-0.252 0.1711-0.502 0.2389-0.745l0.5522 0.151zm-0.2522 0.787c-0.0902 0.247-0.1922 0.498-0.3069 0.747l-0.521-0.235c0.1064-0.232 0.2027-0.468 0.289-0.705l0.5389 0.193zm-0.3069 0.747c-0.4835 1.052 0.0232 1.606 0.8086 1.962l-0.2371 0.517c-1.0745-0.487-1.765-1.251-1.0925-2.714l0.521 0.235zm0.8086 1.962c0.5019 0.227 1.1092 0.384 1.6736 0.53l-0.1431 0.548c-0.593-0.154-1.231-0.319-1.7676-0.561l0.2371-0.517zm1.6736 0.53c0.1491 0.038 0.2936 0.075 0.3974 0.103l-0.1453 0.548c-0.1528-0.041-0.2741-0.072-0.3952-0.103l0.1431-0.548zm0.3974 0.103c0.6806 0.183 1.8572 0.518 2.9149 0.584l-0.0359 0.568c-1.1083-0.069-2.3217-0.415-3.0243-0.604l0.1453-0.548zm2.9149 0.584c0.9558 0.06 1.808-0.099 2.0052-0.826l0.5523 0.144c-0.2927 1.078-1.3836 1.326-2.5934 1.25l0.0359-0.568zm2.0052-0.826c0.1044-0.385 0.1649-0.682 0.1901-0.976l0.5723 0.046c-0.0273 0.32-0.0943 0.647-0.2101 1.074l-0.5523-0.144zm0.1901-0.976c0.0253-0.296 0.015-0.584-0.0218-0.948l0.5679-0.054c0.0414 0.411 0.0534 0.729 0.0262 1.048l-0.5723-0.046zm-0.0218-0.948 0.0223-0.142 0.2617 0.115-0.284 0.027zm0.0223-0.142c0.385-0.853 0.5437-1.084 0.8239-1.491l0.4717 0.32c-0.259 0.376-0.4057 0.589-0.7723 1.401l-0.5233-0.23zm0.8239-1.491c0.0287-0.042 0.0531-0.077 0.1252-0.183l0.4739 0.317c-0.0182 0.027-0.0778 0.114-0.1274 0.186l-0.4717-0.32zm0.1252-0.183c0.2184-0.322 0.3189-0.537 0.3511-0.759l0.5657 0.078c-0.046 0.318-0.1727 0.6-0.4429 0.998l-0.4739-0.317zm0.3511-0.759c0.0335-0.233-3e-4 -0.512-0.0512-0.937l0.5679-0.065c0.0559 0.468 0.0932 0.773 0.049 1.08l-0.5657-0.078zm-0.0512-0.937c-0.014-0.116-0.0255-0.208-0.0336-0.269l0.5657-0.07c0.0172 0.127 0.029 0.217 0.0358 0.274l-0.5679 0.065zm-0.0336-0.269c-0.0063-0.048-0.0206-0.145-0.0404-0.279l0.5657-0.083c0.0089 0.061 0.0222 0.155 0.0404 0.292l-0.5657 0.07zm-0.0404-0.279-0.0558-0.379 0.3812 0.057-0.0425 0.281-0.2829 0.041zm0.3254-0.322c0.8095 0.121 1.6038 0.18 2.3941 0.185l-0.0023 0.568c-0.8169-5e-3 -1.6388-0.067-2.4768-0.192l0.085-0.561zm2.3941 0.185c0.7926 5e-3 1.581-0.044 2.376-0.142l0.0671 0.564c-0.8192 0.1-1.6307 0.152-2.4454 0.146l0.0023-0.568zm2.376-0.142 0.1767 0.528-0.1431-0.246-0.0336-0.282zm0.1767 0.528c-0.462 0.267-0.923 0.502-1.5113 0.802l-0.2615-0.506c0.5806-0.296 1.0356-0.528 1.4866-0.789l0.2862 0.493zm-1.5113 0.802c-0.0429 0.022-0.0869 0.045-0.1312 0.067l-0.2616-0.506c0.0444-0.022 0.0884-0.045 0.1313-0.067l0.2615 0.506zm-0.1312 0.067c-0.6046 0.309-0.6101 0.956-0.3966 1.634l-0.5454 0.169c-0.2926-0.929-0.2536-1.832 0.6804-2.309l0.2616 0.506zm-0.3966 1.634c0.2422 0.77 0.7566 1.58 1.0796 2.074l-0.4786 0.308c-0.3402-0.52-0.8827-1.375-1.1464-2.213l0.5454-0.169zm1.0796 2.074c0.6758 1.034 1.3133 1.904 2.0453 2.349l-0.2974 0.484c-0.8277-0.503-1.5108-1.43-2.2265-2.525l0.4786-0.308zm2.0453 2.349c0.6916 0.421 1.5003 0.46 2.5714-0.115l0.2705 0.501c-1.28 0.688-2.2713 0.626-3.1393 0.098l0.2974-0.484zm2.5714-0.115c0.5062-0.272 0.6761-0.567 0.9049-0.965l0.4985 0.279c-0.2764 0.481-0.4817 0.838-1.1329 1.187l-0.2705-0.501zm0.9049-0.965c0.091-0.158 0.1909-0.332 0.3372-0.549l0.4739 0.315c-0.1171 0.174-0.2194 0.352-0.3126 0.513l-0.4985-0.279zm0.3372-0.549 0.0995-0.092 0.1374 0.25-0.2369-0.158zm0.0995-0.092c0.167-0.091 0.8808-0.676 1.5749-1.245l0.3645 0.437c-0.7178 0.589-1.4562 1.194-1.6645 1.307l-0.2749-0.499zm1.5749-1.245c0.3574-0.293 0.7099-0.582 0.8928-0.729l0.3599 0.444c-0.3348 0.269-0.6103 0.494-0.8882 0.722l-0.3645-0.437zm0.8928-0.729 0.2192-0.175 0.181 0.215-0.2203 0.182-0.1799-0.222zm0.4002 0.04c0.1141 0.136 0.2946 0.22 0.5399 0.278l-0.1318 0.553c-0.3659-0.087-0.6466-0.226-0.8486-0.467l0.4405-0.364zm0.5399 0.278c0.2817 0.067 0.6517 0.1 1.1 0.132l-0.0403 0.568c-0.4699-0.034-0.8621-0.069-1.1915-0.147l0.1318-0.553zm1.1 0.132c0.3515 0.025 1.4745 0.025 2.1997 0.025v0.567c-0.7409 1e-3 -1.8882 1e-3 -2.24-0.024l0.0403-0.568zm2.1997 0.025c0.23-1e-3 0.4211-1e-3 0.5354 0l-0.0023 0.568c-0.1142-1e-3 -0.3042-1e-3 -0.5331-1e-3v-0.567zm0.5354 0c0.6758 4e-3 1.2115-0.026 1.5653-0.224l0.2817 0.494c-0.4668 0.263-1.0845 0.303-1.8493 0.298l0.0023-0.568zm1.5653-0.224c0.3232-0.182 0.5174-0.54 0.5658-1.21l0.5723 0.04c-0.0642 0.889-0.3589 1.385-0.8564 1.664l-0.2817-0.494zm0.5658-1.21c0.0247-0.344 0.0306-0.549-0.0084-0.725l0.5589-0.122c0.0551 0.249 0.0502 0.492 0.0218 0.887l-0.5723-0.04zm-0.0084-0.725c-0.0389-0.176-0.1307-0.358-0.3008-0.658l0.5008-0.277c0.1961 0.345 0.3038 0.565 0.3589 0.813l-0.5589 0.122zm-0.3008-0.658-0.0357-0.132 0.2861-7e-3 -0.2504 0.139zm-0.0357-0.132c-0.0111-0.408-0.0223-0.815-0.0331-1.223l0.5723-0.013c0.0108 0.407 0.0221 0.815 0.033 1.223l-0.5722 0.013zm-0.0331-1.223c-0.0109-0.407-0.0221-0.815-0.0329-1.223l0.5723-0.013c0.0108 0.407 0.022 0.815 0.0329 1.223l-0.5723 0.013zm-0.0329-1.223c-0.0119-0.437-0.0595-0.788-0.1467-1.13l0.5545-0.137c0.0981 0.384 0.1514 0.774 0.1645 1.254l-0.5723 0.013zm-0.1467-1.13c-0.0879-0.344-0.2189-0.688-0.3958-1.106l0.5277-0.219c0.186 0.439 0.3251 0.806 0.4226 1.188l-0.5545 0.137zm-0.3958-1.106c-0.1252-0.295-0.2325-0.582-0.3376-0.864l0.5366-0.195c0.1002 0.268 0.2024 0.542 0.3287 0.84l-0.5277 0.219zm0.199-1.06v1e-3l-0.2683 0.098 0.2683-0.099zm-0.5366 0.197c-0.1636-0.437-0.3223-0.862-0.5552-1.318l0.512-0.255c0.2445 0.478 0.4097 0.92 0.5798 1.376l-0.5366 0.197zm-0.5552-1.318-0.0257-0.177 0.2818 0.049-0.2561 0.128zm-0.0257-0.177c0.0282-0.158 0.0518-0.305 0.0698-0.438l0.5657 0.071c-0.0234 0.173-0.0475 0.327-0.072 0.465l-0.5635-0.098zm0.0698-0.438c0.0162-0.121 0.0327-0.273 0.0492-0.457l0.5723 0.046c-0.012 0.135-0.0309 0.296-0.0558 0.482l-0.5657-0.071zm0.0492-0.457 0.0532-0.594 0.4308 0.412-0.1979 0.205-0.2861-0.023zm0.484-0.182c0.2802 0.268 0.5607 0.536 0.8409 0.804l-0.3958 0.41c-0.2802-0.268-0.5606-0.536-0.8408-0.804l0.3957-0.41zm0.8409 0.804 0.6286 0.601-0.3958 0.41-0.6286-0.601 0.3958-0.41zm0.6286 0.601c0.4538 0.434 0.8683 0.828 1.3283 1.097l-0.2906 0.491c-0.515-0.302-0.9536-0.719-1.4335-1.178l0.3958-0.41zm1.3283 1.097c0.4424 0.259 0.9414 0.409 1.5897 0.379l0.0268 0.568c-0.7754 0.036-1.3745-0.145-1.9071-0.456l0.2906-0.491zm1.5897 0.379c0.6995-0.033 1.4551-0.331 2.0831-0.79l0.3399 0.457c-0.7153 0.523-1.584 0.863-2.3962 0.901l-0.0268-0.568zm2.0831-0.79c0.5994-0.439 1.0773-1.021 1.2714-1.655l0.5479 0.165c-0.2319 0.756-0.7873 1.44-1.4794 1.947l-0.3399-0.457zm1.2714-1.655c0.067-0.218 0.134-0.437 0.2008-0.656l0.5479 0.164c-0.0668 0.219-0.1339 0.438-0.2008 0.657l-0.5479-0.165zm0.2008-0.656c0.0777-0.254 0.1558-0.509 0.2337-0.763l0.5478 0.164c-0.0778 0.254-0.1559 0.509-0.2336 0.763l-0.5479-0.164zm0.2337-0.763 0.0746-0.244 0.2518 0.047-0.0525 0.279-0.2739-0.082zm0.3264-0.197c1.1588 0.218 2.4207 0.294 3.6334 0.167l0.056 0.564c-1.268 0.132-2.5856 0.053-3.7944-0.174l0.105-0.557zm3.6334 0.167c1.0655-0.11 2.0931-0.379 2.9764-0.847l0.2684 0.502c-0.9491 0.502-2.0495 0.79-3.1888 0.909l-0.056-0.564zm2.9764-0.847c1.2939-0.685 2.2656-1.697 2.9652-2.9l0.4964 0.282c-0.7518 1.292-1.7979 2.381-3.1932 3.12l-0.2684-0.502zm2.9652-2.9v-1e-3l0.2482 0.142-0.2482-0.141zm0-1e-3c0.7995-1.374 1.2473-2.995 1.4178-4.666l0.5679 0.054c-0.1787 1.751-0.6491 3.452-1.4893 4.896l-0.4964-0.284zm1.4178-4.666c0.1389-1.361 0.062-3.217-0.2252-5.013l0.5635-0.088c0.2945 1.841 0.3729 3.75 0.2296 5.155l-0.5679-0.054zm-0.2252-5.013c-0.2532-1.583-0.6698-3.115-1.2446-4.207l0.5076-0.262c0.6032 1.146 1.0381 2.739 1.3005 4.381l-0.5635 0.088zm-1.2446-4.207c-0.045-0.085-0.1199-0.179-0.2159-0.273l0.4001-0.406c0.138 0.135 0.2498 0.277 0.3234 0.417l-0.5076 0.262zm-0.2159-0.273c-0.2454-0.24-0.6099-0.468-0.9874-0.596l0.1856-0.537c0.4585 0.156 0.9022 0.434 1.2019 0.727l-0.4001 0.406zm-0.9874-0.596c-0.3502-0.12-0.7031-0.153-0.9552-0.022l-0.2639-0.504c0.4067-0.211 0.9189-0.177 1.4047-0.011l-0.1856 0.537zm-0.9552-0.022c-0.0528 0.027-0.1021 0.063-0.1459 0.107l-0.4092-0.397c0.0876-0.088 0.1856-0.159 0.2912-0.214l0.2639 0.504zm-0.1459 0.107c-0.234 0.235-0.4394 0.533-0.6452 0.831l-0.4717-0.319c0.2224-0.323 0.4443-0.644 0.7077-0.909l0.4092 0.397zm-0.6452 0.831c-0.2707 0.393-0.5427 0.787-0.8948 1.085l-0.3711-0.432c0.2978-0.253 0.5466-0.614 0.7942-0.972l0.4717 0.319zm-0.8948 1.085c-0.4309 0.366-0.9306 0.565-1.3946 0.749l-0.2124-0.528c0.422-0.168 0.8763-0.349 1.2359-0.653l0.3711 0.432zm-1.3946 0.749c-0.0809 0.032-0.1603 0.064-0.2107 0.085l-0.2168-0.526c0.0889-0.036 0.1522-0.062 0.2151-0.087l0.2124 0.528zm-0.2107 0.085-0.2732 0.111-0.1035-0.277 0.2683-0.097 0.1084 0.263zm-0.3767-0.166c-0.185-0.496-0.412-0.938-0.6749-1.355l0.4852-0.301c0.2812 0.445 0.5253 0.922 0.7264 1.461l-0.5367 0.195zm-0.6749-1.355c-0.2655-0.421-0.5666-0.813-0.8973-1.204l0.4383-0.363c0.3489 0.412 0.6658 0.825 0.9442 1.266l-0.4852 0.301zm-0.8973-1.204c-0.2554-0.301-0.5033-0.528-0.7709-0.73l0.3464-0.45c0.3003 0.227 0.5777 0.48 0.8628 0.817l-0.4383 0.363zm-0.7709-0.73c-0.2671-0.202-0.5707-0.391-0.9248-0.611l0.3039-0.481c0.3586 0.222 0.6664 0.414 0.9673 0.642l-0.3464 0.45zm-0.9248-0.611c-0.9978-0.62-1.8342-1.348-2.6874-2.091l0.3756-0.428c0.8352 0.727 1.6539 1.44 2.6157 2.038l-0.3039 0.481zm-2.6874-2.091c-0.3592-0.312-0.7216-0.628-1.1267-0.959l0.3645-0.44c0.375 0.307 0.7582 0.641 1.1378 0.971l-0.3756 0.428zm-1.1267-0.959c-1.8899-1.547-3.6402-2.296-5.4994-2.412l0.0359-0.568c1.9841 0.124 3.8393 0.913 5.828 2.54l-0.3645 0.44zm-5.4994-2.412c-1.873-0.117-3.8744 0.403-6.2505 1.396l-0.2215-0.524c2.4565-1.026 4.5375-1.563 6.5079-1.44l-0.0359 0.568zm-6.2505 1.396c-1.1199 0.468-1.9486 1.018-2.6677 1.678l-0.3868-0.418c0.7668-0.703 1.6474-1.289 2.833-1.784l0.2215 0.524zm-2.6677 1.678c-0.7245 0.665-1.3475 1.45-2.046 2.377l-0.4583-0.339c0.7155-0.95 1.3563-1.757 2.1175-2.456l0.3868 0.418zm-2.046 2.377-0.0808 0.108-0.1338 7e-3 -0.0145-0.284 0.2291 0.169zm-0.2146 0.115c-0.398 0.02-0.7312 0.068-1.0626 0.199l-0.2124-0.527c0.4012-0.16 0.7892-0.217 1.2459-0.24l0.0291 0.568zm-1.0626 0.199c-0.3365 0.134-0.6833 0.357-1.1081 0.729l-0.3779-0.426c0.4782-0.418 0.8772-0.673 1.2736-0.83l0.2124 0.527zm-1.1081 0.729c-0.3272 0.287-0.646 0.58-0.9591 0.881l-0.3979-0.408c0.3141-0.302 0.6394-0.601 0.9791-0.899l0.3779 0.426zm-0.9591 0.881-1e-3 1e-3 -0.1979-0.205 0.1989 0.204zm-1e-3 1e-3c-0.3101 0.297-0.6128 0.601-0.9107 0.909l-0.4135-0.393c0.3027-0.313 0.6113-0.622 0.9284-0.926l0.3958 0.41zm-0.9107 0.909-0.1621 0.083-0.0447-0.279 0.2068 0.196zm-0.1621 0.083c-2.2369 0.354-4.0497 0.742-5.6687 1.365l-0.2057-0.531c1.6554-0.636 3.5045-1.032 5.7851-1.393l0.0893 0.559zm-5.6687 1.365c-1.6051 0.617-3.0217 1.467-4.4787 2.749l-0.3779-0.426c1.5111-1.329 2.9822-2.212 4.6509-2.854l0.2057 0.531zm-4.4787 2.749c-0.5903 0.519-1.0994 1.066-1.5435 1.643l-0.4539-0.344c0.4679-0.608 1.0021-1.182 1.6195-1.725l0.3779 0.426zm-1.5435 1.643c-0.4443 0.577-0.8261 1.189-1.1613 1.837l-0.5098-0.258c0.3494-0.675 0.7495-1.315 1.2172-1.923l0.4539 0.344zm-1.1613 1.837-0.0425 0.061-0.2124-0.19 0.2549 0.129zm-0.0425 0.061c-0.3255 0.357-0.6502 0.718-0.9986 1.03l-0.3823-0.424c0.3363-0.301 0.6458-0.645 0.956-0.986l0.4249 0.38zm-0.9986 1.03c-0.3652 0.326-0.761 0.603-1.2185 0.778l-0.2056-0.53c0.3817-0.146 0.7222-0.387 1.0418-0.672l0.3823 0.424zm-1.2185 0.778h-0.0011l-0.1017-0.265 0.1028 0.265zm-0.0011 0c-0.3672 0.14-0.5467 0.21-0.7501 0.125l0.2214-0.524c0.0093 4e-3 0.1015-0.046 0.3253-0.131l0.2034 0.53zm-0.7501 0.125-0.0011-1e-3 0.1118-0.261-0.1107 0.262zm-0.0011-1e-3c-0.2145-0.091-0.2743-0.266-0.4071-0.617l0.5367-0.198c0.0753 0.2 0.0738 0.285 0.094 0.293l-0.2236 0.522zm-0.4071-0.617-0.0746-0.198 0.1719-0.128 0.171 0.227-0.2683 0.099zm0.0973-0.326c0.5259-0.392 0.5757-1.173 0.6236-1.925l0.5723 0.035c-0.0559 0.88-0.1144 1.793-0.8538 2.344l-0.3421-0.454zm0.6236-1.925c0.0062-0.099 0.0125-0.197 0.0179-0.271l0.5723 0.04c-0.0075 0.103-0.0128 0.185-0.0179 0.266l-0.5723-0.035zm0.0179-0.271 0.0204-0.277 0.2792 0.013-0.0134 0.284-0.2862-0.02zm0.2996-0.264c0.4721 0.022 0.6871 0.353 0.9191 0.709l-0.4807 0.306c-0.1483-0.227-0.2858-0.439-0.4653-0.447l0.0269-0.568zm0.9191 0.709c0.0647 0.1 0.1314 0.202 0.202 0.29l-0.4471 0.353c-0.0889-0.111-0.1633-0.226-0.2356-0.337l0.4807-0.306zm0.2579 0.528-0.1309 0.581-0.3721-0.466 0.2235-0.176 0.2795 0.061zm-0.5589-0.122c0.0966-0.429 0.1707-0.992 0.066-1.452l0.5567-0.124c0.1279 0.562 0.0459 1.211-0.0638 1.698l-0.5589-0.122zm0.066-1.452c-0.0664-0.293-0.2089-0.544-0.4737-0.68l0.2615-0.506c0.4378 0.225 0.6674 0.615 0.7689 1.062l-0.5567 0.124zm-0.4737-0.68-0.2262-0.117 0.0886-0.235 0.2684 0.099-0.1308 0.253zm-0.1376-0.352c0.0423-0.112 0.1039-0.268 0.1671-0.428l0.532 0.207c-0.0495 0.125-0.0991 0.251-0.1624 0.418l-0.5367-0.197zm0.1671-0.428c0.0843-0.214 0.171-0.433 0.2621-0.69l0.541 0.186c-0.0814 0.23-0.1776 0.474-0.2711 0.711l-0.532-0.207zm0.4845-0.876 0.4801-0.083-0.1615 0.455-0.2705-0.093-0.0481-0.279zm0.0962 0.559c-0.5541 0.095-1.7745 0.775-2.6603 1.687l-0.4136-0.393c0.9664-0.995 2.339-1.743 2.9777-1.853l0.0962 0.559zm-2.6603 1.687c-0.3211 0.331-0.5932 0.688-0.7651 1.052l-0.5186-0.237c0.2026-0.429 0.5112-0.838 0.8701-1.208l0.4136 0.393zm-0.7651 1.052c-0.164 0.347-0.2389 0.702-0.1786 1.047l-0.5635 0.096c-0.0817-0.468 0.0127-0.934 0.2235-1.38l0.5186 0.237zm-0.1786 1.047c0.0548 0.314 0.2243 0.629 0.5437 0.934l-0.3958 0.411c-0.414-0.396-0.6362-0.819-0.7114-1.249l0.5635-0.096zm0.5437 0.934 0.0794 0.138-0.2773 0.067 0.1979-0.205zm0.0794 0.138c0.0726 0.293 0.1378 0.541 0.2086 0.765l-0.5454 0.169c-0.0738-0.234-0.1419-0.493-0.2177-0.799l0.5545-0.135zm0.2086 0.765c0.0678 0.215 0.1418 0.407 0.2346 0.599l-0.5164 0.244c-0.1036-0.214-0.1867-0.431-0.2636-0.674l0.5454-0.169zm0.2346 0.599c0.2058 0.425 0.5314 0.683 0.9067 0.803l-0.1743 0.541c-0.5188-0.165-0.9675-0.52-1.2488-1.1l0.5164-0.244zm0.9067 0.803c0.4379 0.139 0.9473 0.097 1.4232-0.087l0.208 0.527c-0.5949 0.231-1.2405 0.281-1.8055 0.101l0.1743-0.541zm1.4232-0.087 0.4969-0.193-0.1135 0.516-0.2794-0.059-0.104-0.264zm0.3834 0.323c-0.1348 0.614-0.2161 1.257-0.2434 1.984l-0.5723-0.02c0.0285-0.759 0.1144-1.434 0.2569-2.083l0.5588 0.119zm-0.2434 1.984c-0.0272 0.726 5e-4 1.541 0.0834 2.499l-0.5723 0.047c-0.084-0.972-0.1118-1.808-0.0834-2.566l0.5723 0.02zm0.0834 2.499c0.0212 0.244 0.0465 0.468 0.0755 0.674l-0.5657 0.075c-0.036-0.255-0.0637-0.49-0.0821-0.702l0.5723-0.047zm0.0755 0.674c0.0321 0.226 0.0712 0.458 0.1167 0.693l-0.5611 0.107c-0.046-0.238-0.0867-0.48-0.1213-0.725l0.5657-0.075zm0.1167 0.693-0.0122 0.151-0.2684-0.098" fill="#000"/>
 <g clip-rule="evenodd" fill-rule="evenodd">
  <path d="m48.883 114.29-3.7676 0.608-3.438 1.495-2.92 1.823-2.7786 3.365-1.5698 1.65-1.5178 0.555-0.4015-0.974 0.702-1.005 0.1577-1.418 0.4702 0.019 0.5137 0.465-0.1385-1.445-0.5695-0.379 0.0173-0.55-1.349 0.757-1.2216 1.43-0.2546 1.278 0.5223 1.024 0.4872 1.739 0.9909 0.466 1.0424-0.051 0.9883-0.57-0.6593 3.318 0.6593 3.692-0.7257 1.705-2.3771 2.542 0.4226 1.518 1.1261 1.76 2.1233 1.483 1.1262 0.152 1.2522 0.043-0.7812 3.182 2.8728 1.169 3.5793 0.467 1.2244-0.794 0.0942-2.15 1.3659-2.244 0.0942-1.776 3.2966 0.234 3.0612-0.28-3.0612 1.822 0.5181 2.197 1.9309 2.991 1.8838 0.795 1.507-0.608 0.6123-1.215 3.1554-2.384 0.6122 0.514 4.945 0.187 0.989-0.794 0.0942-1.402-0.3296-0.608-0.2355-3.785-1.6483-3.272 0.2825-1.449 0.9891 0.514 2.7786 2.571 1.3657 0.093 1.507-0.607 1.5072-1.122 0.7534-2.43 4.427 0.28 2.6845-1.028 2.1663-2.01 1.5542-2.897 0.3768-3.412-0.3297-3.972-0.8477-3.552-0.8478-1.122-1.1773-0.374-2.0722 2.243-1.8838 0.655-1.6484-2.711-1.6483-1.495-0.8949-0.561-3.5792-2.945-2.8728-1.542-2.8729-0.234-3.3437 0.561-2.9199 1.075-2.0251 1.636-1.6012 1.916-1.6483 0.467-2.8729 2.711z" fill="#ff0"/>
  <g fill="#ffc">
   <path d="m37.956 122.72c-3.2274 3.735-2.5105 8.266-1.616 12.704-0.4773-1.197-0.9548-2.393-1.4321-3.59-0.1759-1.097-0.3517-2.194-0.5276-3.291 0.0502-1.122 0.1005-2.244 0.1508-3.366 0.4522-1.072 0.9044-2.144 1.3566-3.217 0.6784-0.997 1.3569-1.994 2.0353-2.992 1.0552-0.872 2.1104-1.745 3.1656-2.618 1.1558-0.473 2.3116-0.947 3.4673-1.421 1.3567-0.174 2.7135-0.349 4.0703-0.523-1.2563 1.421-2.5125 2.842-3.7688 4.263-3.0261 0.974-4.8107 1.63-6.9014 4.051z"/>
   <path d="m53.148 111.34c-2.2436 2.172-3.4691 3.81-4.8969 6.354-1.0213 1.819-2.1669 3.572-3.2407 5.365-0.5431 0.909-0.5944 1.67-0.7567 2.717-0.5276-0.623-1.0553-1.247-1.5829-1.87 0.2513-0.748 0.5025-1.496 0.7538-2.244 0.8543-1.521 1.7085-3.042 2.5627-4.563 1.809-1.77 3.6181-3.54 5.4271-5.31 0.5778-0.15 1.1557-0.3 1.7336-0.449z"/>
   <path d="m64.228 105.96c-1.7969 0.669-4.7811 0.889-4.9881 2.936-0.1475 1.453 0.1104 2.184 0.9932 3.721-2.1805-2.239-2.7198-1.892-6.9345-1.196 0.603-0.848 1.206-1.696 1.809-2.544 1.0553-0.648 2.1106-1.296 3.1658-1.944 1.3567-0.3 2.7135-0.599 4.0703-0.898l1.8843-0.075z"/>
  </g>
  <g fill="#cc0">
   <path d="m69.187 133.64c0.5982 0.367 0.5854 0.632 0.4853 0.883 0.472-0.187 0.9438-0.374 1.4157-0.562 0.3058-0.407 0.6114-0.814 0.9171-1.222 0.227-0.58 0.4539-1.16 0.6808-1.741-0.2899-0.216-0.5798-0.433-0.8698-0.649-1.2674 0.16-2.5348 0.321-3.8021 0.482-0.0943 0.254-0.1888 0.508-0.2832 0.762 0.0271 0.362 0.0541 0.723 0.081 1.084 0.1213 0.214 0.2427 0.428 0.364 0.642 0.1888 0.094 0.3776 0.188 0.5662 0.281 0.1485 0.014 0.2967 0.027 0.445 0.04z"/>
   <path d="m68.833 127.19c-1.9058 0.546-1.8909 0.696-2.4537 2.572 0.743-1.182 1.2931-1.779 2.4537-2.572z"/>
   <path d="m81.505 113.15c-0.3387 0.155-0.6686 0.23-0.8803 0.537-0.456 0.662-0.8467 1.219-1.6007 1.684-0.3797 0.234-0.7725 0.386-1.1752 0.51-0.334 0.103-0.5346 0.011-0.8189 0.214 0.1687 0.029 0.3373 0.059 0.506 0.088h1.1157c0.4584-0.281 0.9169-0.562 1.3752-0.843 0.2698-0.281 0.5393-0.562 0.809-0.843 0.223-0.449 0.4461-0.898 0.6692-1.347z"/>
   <path d="m51.147 117.34c-0.7498 2.036-1.4049 3.781-2.5408 5.624 1.4555-1.556 2.3378-2.878 3.1714-4.638 0.3237-0.683 0.3849-1.485 1.2869-1.187 0.0405 0.683 0.1859 1.365 0.2264 2.047 0.4873-3.466 1.8615-4.916 5.0559-6.261-0.9033 0.107-1.8067 0.214-2.71 0.321-0.8494 0.187-1.6988 0.374-2.5482 0.562-0.418 0.602-0.836 1.204-1.2539 1.806-0.2293 0.575-0.4584 1.151-0.6877 1.726z"/>
   <path d="m57.336 117.26c0.6888 3.217 1.6807 6.305 2.1116 9.574 0.2798 2.124 0.3104 3.144-0.7665 4.977-1.1768-0.076-1.9075 0.056-3.0459 0.426-4.5318 1.474-7.1308 3.642-10.184-0.726 0.9748 0.456 1.9497 0.912 2.9244 1.368 0.6949-0.136 1.3898-0.271 2.0847-0.407 1.2269-0.709 2.4538-1.418 3.6808-2.127 0.9572-0.187 1.9145-0.375 2.8717-0.562 0.3102-1.284 0.6202-2.569 0.9303-3.853-0.2292-1.7-0.4585-3.399-0.6876-5.098-0.0269-0.803-0.0538-1.606-0.0809-2.408 0.054-0.388 0.108-0.776 0.1618-1.164z"/>
   <path d="m65.142 137.17c-0.3807 2.614 0.8765 4.019 0.3561 4.741-0.1475 0.204-0.3473 0.561-0.5702 0.659-0.7966 0.349-1.8917-0.066-1.9701 0.139h-2.6292c-0.3504-0.148-0.7009-0.295-1.0516-0.442 0.5393-0.629 1.0787-1.258 1.618-1.886 0.5257-1.138 1.0516-2.275 1.5775-3.412 0.3371-1.151 0.6742-2.301 1.0111-3.452h0.5258c0.3776 1.218 0.7551 2.435 1.1326 3.653z"/>
   <path d="m60.723 129.57c0.2135 1.187 0.5844 1.469 1.147 2.618-0.3745 1.874-0.9761 4.103-1.7001 5.757-0.3053 0.698-0.5517 1.082-1.09 1.621-0.9087 0.911-1.8275 1.704-2.8582 2.494-0.7418 0.567-1.2596 0.282-2.1749 0.154-0.3893 0.7-0.4969 1.089-1.2133 1.445-1.1019 0.546-2.088-0.632-2.9529-1.325 0.6244 0.968 1.2487 1.936 1.873 2.904 0.4315 0.401 0.863 0.802 1.2944 1.204 0.3639 0.053 0.728 0.107 1.0921 0.16 0.4854-0.294 0.9707-0.589 1.456-0.883 0.2563-0.481 0.5125-0.963 0.7686-1.445 0.5393-0.401 1.0787-0.803 1.6179-1.204 0.6607-0.562 1.3214-1.124 1.982-1.686 0.418-0.589 0.8359-1.177 1.2539-1.766 0.3774-0.696 0.755-1.391 1.1325-2.087 0.4853-1.445 0.9707-2.89 1.4562-4.335 0.0403-0.549 0.0808-1.097 0.1212-1.646-0.6067-0.268-1.2134-0.535-1.8201-0.803-0.445-0.415-0.9403-0.762-1.3853-1.177z"/>
   <path d="m46.212 137.94c2.0414 0 4.1973-0.112 6.0671-0.963 0.5292-0.788 1.0514-1.431 1.6989-2.127-0.5893 1.104-0.774 1.728-0.9303 2.97-0.2023 0.294-0.4045 0.588-0.6068 0.883-1.5371 0.04-3.074 0.08-4.6111 0.12-0.4989-0.053-0.9978-0.107-1.4966-0.16-0.0539-0.054-0.1078-0.107-0.1617-0.161 0.0135-0.187 0.027-0.375 0.0405-0.562z"/>
   <path d="m45.929 136.53c-0.0528-0.475-0.1057-0.95-0.1585-1.425-0.3488 2.084-0.2649 3.48-1.2311 5.346-0.7218 0.83-1.6104 1.585-2.6282 1.989 0.0859 0.512 0.1116 0.831 0.0617 1.207-0.1792 1.349-2.8994 0.753-4.0183 0.699 1.7953 0.459 3.5906 0.917 5.3857 1.376 0.4045-0.16 0.8089-0.321 1.2135-0.481 0.1348-0.776 0.2696-1.553 0.4045-2.329 0.3775-0.695 0.7551-1.391 1.1325-2.087 0.0673-0.428 0.1348-0.856 0.2022-1.284-0.1213-1.004-0.2426-2.007-0.364-3.011z"/>
   <path d="m42.896 124.77c-0.0564 1.013-0.1223 1.435 0.3278 2.33 0.5723 1.137 1.2751 2.205 1.897 3.329 0.0673-0.749 0.1347-1.498 0.2021-2.248-0.8089-1.137-1.6178-2.274-2.4269-3.411z"/>
   <path d="m34.592 132.42c-0.1751 0.37-0.3502 0.74-0.5253 1.109 0.482 1.611 0.9103 2.632 1.828 4.039-0.1598 0.57-0.2794 0.82-0.6472 1.284-0.8076-0.123-1.5247-0.159-2.343-0.156 0.9035 0.696 1.8069 1.391 2.7101 2.087 0.4448-0.08 0.8898-0.16 1.3348-0.241 0.4448-0.441 0.8898-0.883 1.3348-1.324-0.6339-0.977-1.2675-1.954-1.9011-2.931-0.597-1.289-1.1941-2.578-1.7911-3.867z"/>
   <path d="m81.511 112.62c0.5501 2.456 1.2596 4.723 1.1938 7.238-0.0808 3.087-0.687 6.985-3.5686 8.847-3.2272 2.084-7.0154 1.098-10.556 0.205 1.4428 0.589 2.8854 1.177 4.328 1.766 1.3483 0.067 2.6966 0.134 4.0448 0.201 0.9169-0.268 1.8337-0.536 2.7505-0.803 0.7146-0.589 1.4292-1.177 2.1437-1.766l1.6179-3.372c0.2023-1.298 0.4045-2.596 0.6067-3.893l-0.4854-3.813c-0.2966-1.258-0.5933-2.516-0.8898-3.774-0.3951-0.278-0.7902-0.557-1.1854-0.836z"/>
   <path d="m33.351 119.94c-1.4651 0.946-2.0405 1.361-1.8799 3.115 0.1459 0.525 0.292 1.051 0.438 1.576 0.2068 0.139 0.4137 0.278 0.6206 0.417 0.2555 0.084 0.5111 0.169 0.7666 0.253 0.4624-0.109 0.9247-0.217 1.3872-0.326 0.2373-0.73 0.4746-1.461 0.7118-2.192-0.6571 0.32-1.3142 0.64-1.9712 0.96h-0.4563c-0.1704-0.259-0.3408-0.519-0.5111-0.778 0.2069-0.302 0.4137-0.604 0.6206-0.906 0.1095-0.574 0.219-1.147 0.3285-1.721 0.1399 0.043 0.2799 0.085 0.4198 0.127 0.1704 0.133 0.3407 0.266 0.5111 0.398-0.0243-0.301-0.0486-0.603-0.0731-0.905-0.1156-0.193-0.2311-0.387-0.3468-0.58-0.1156-0.096-0.2311-0.193-0.3468-0.29-0.073 0.284-0.1459 0.568-0.219 0.852z"/>
   <path d="m66.22 106.12c1.3001 1.199 2.896 2.24 3.936 3.704 0.4025 0.567 0.8497 0.857-0.0068 1.658 0.905-0.257 1.2412-0.229 1.9656-0.142 1.3178 0.158 2.553 2.017 2.6318 3.35-0.0155 0.124-0.366 0.407-1.385 0.686-0.0202 0.039-0.575-0.075-0.5612-0.038 0.1058 0.288 0.2474 0.332 0.4634 0.466 0.0469 0.32 0.0771 0.813 0.2965 1.163 0.6412-0.011 1.2677 0.058 1.8956 0.181 0.2113 0.348 0.1794 0.696 0.1618 1.044 0.2427-0.04 0.4854-0.08 0.7281-0.121-0.0675-0.548-0.1348-1.097-0.2022-1.645 0.2156-0.362 0.4313-0.723 0.6471-1.084-0.3102-0.696-0.6203-1.391-0.9303-2.087-0.5933-0.562-1.1865-1.124-1.7798-1.686-0.0569-3e-3 -0.1143-6e-3 -0.1713-9e-3 -0.6672-0.406-1.3342-0.812-2.0013-1.218-1.0882-0.884-2.1763-1.767-3.2644-2.651-0.808-0.523-1.6158-1.047-2.4236-1.571z"/>
   <path d="m68.411 116.01c-0.0686 0.119-0.1722 0.309-0.3049 0.441 0.5416 0.509 0.8088 0.849 1.0018 1.568-0.6122 0.302-1.2243 0.603-1.8366 0.905-0.518 0.493-1.0361 0.986-1.5541 1.478-0.6818-0.364-0.8518-0.643-1.1817-1.338-0.3843 0.101-0.7483 0.198-1.0656 0.083 0.2013 1e-3 0.325-0.049 0.5261-0.172 0.3297-0.34 0.6593-0.68 0.989-1.02 0.5823-0.437 1.1646-0.875 1.7468-1.313 0.381-0.123 0.7621-0.246 1.1432-0.369 0.1455-0.06 0.3903-0.203 0.536-0.263z"/>
   <path d="m70.101 117.82c-1.9478 1.041-3.8134 2.088-4.8093 4.064 0-2.509 2.5384-3.613 4.8093-4.064z"/>
   <path d="m64.904 112.88c-1.4463 0.979-2.469 2.953-2.3405 4.878-0.4711-1.666-0.3042-3.241 1.1424-4.392 0.2442-0.118 0.4881-0.236 0.7321-0.354 0.1554-0.044 0.3107-0.088 0.466-0.132z"/>
  </g>
  <path d="m67.669 127.74c0.2989-0.161 0.8416-0.383 1.1405-0.544-0.3075 0.051-0.8588 0.163-1.1663 0.215-0.8214 0.137-0.918 0.333-1.0454 1.136-0.0601 0.378-0.1429 0.847-0.203 1.225 0.161-0.428 0.3547-0.924 0.5424-1.332 0.1986-0.431 0.3104-0.472 0.7318-0.7zm-15.24-20.668c0.6455-0.961 1.0171-1.273 2.0104-1.882-1.3487 0.322-1.6058 0.57-2.0104 1.882zm-0.2124 2.117c1.1295-2.254 1.9848-3.083 4.3496-4.19-2.6748 0.651-3.4611 1.113-4.3496 4.19zm-24.188 11.729c0.2479-1.129 0.4789-1.554 1.1799-2.481-1.1372 0.789-1.2854 1.113-1.1799 2.481zm25.318 18.885c-0.0342-0.274-0.0685-0.548-0.103-0.822-0.062-0.496-0.0595-0.899-0.0197-1.399 0.0384-0.483 0.0766-0.966 0.1149-1.45-0.1419 0.492-0.4254 0.983-0.5671 1.474-0.0567 0.197-0.1037 0.356-0.1306 0.503-2.1165 0.429-4.2176 0.456-6.3347 0.081-0.135-0.778-0.2994-1.588-0.4373-2.169-0.0418 0.651-0.0149 2.449-0.0183 3.457-0.0027 0.78-0.0358 1.047-0.4412 1.711-0.3797 0.622-0.5405 0.763-1.072 1.813 0.0442 0.662 0.045 1.1-0.1324 1.729-0.2951 1.046-3.2709 0.236-4.0561 0.022-0.9667-0.262-2.9655-0.653-2.4629-1.932 0.4425-1.125 0.7228-2.312 0.9389-3.887-1.7712-2.532-3.4186-6.002-3.7346-9.077-0.2454-2.387-0.0981-3.857 0.4225-5.317 0.8248-2.314 1.9787-4.316 3.8304-5.929 2.4977-2.175 4.8325-3.049 8.4883-3.601-0.8791 0.977-1.7489 2.01-2.6969 3.117-0.9597 1.121-1.5301 2.253-2.1393 3.479-0.8418 1.694-0.8238 2.338 0.2922 3.825 0.9617 1.281 1.4808 1.858 1.9007 3.111-0.3468 0.71-0.4728 1.309-0.5895 2.278 1.1775 1.277 2.0525 2.152 3.1958 2.422 1.1214 0.265 2.0579 0.213 3.0611-0.296 2.2284-1.13 4.2901-2.59 6.8037-2.65 1.1629-2.838 1.0454-5.208 0.487-7.953-0.3812-1.875-0.5341-3.65-0.6527-5.561-0.4715 1.968-0.5599 3.699-0.2102 5.66 0.4217 2.363 0.7495 4.973-0.4236 7.049-2.2728 0.173-4.2207 1.545-6.2693 2.598-0.8233 0.423-1.6806 0.464-2.5921 0.216-0.846-0.23-1.4169-0.786-2.3283-1.829-0.0142-1.047 0.2239-1.53 0.7085-2.479 0.7786-1.523 1.6382-2.941 2.5813-4.44-1.155 1.384-2.2491 2.54-3.158 3.93-0.3475-0.982-0.8442-1.481-1.6672-2.587-0.8038-1.08-0.8881-1.553-0.287-2.803 0.6043-1.257 1.1168-2.361 2.1455-3.463 1.7773-1.905 3.4054-4.025 5.349-5.9 1.0552-1.019 1.4837-0.983 2.8835-1.194 1.2651-0.19 2.5005-0.431 3.7908-0.728-1.2479 0.115-2.4541 0.158-3.6689 0.188-0.0127 0-0.0251 1e-3 -0.0377 1e-3 1.1953-1.515 1.8889-2.359 3.8301-3.196 4.7795-2.06 7.8164-2.283 11.571 0.849 0.973 0.811 1.8229 1.599 2.8096 2.3-0.3577 0.03-0.666 0.094-1.0738 0.253 0.4963-0.094 1.0693-1e-3 1.5843 0.092 0.1446 0.093 0.2931 0.184 0.4454 0.273 0.6964 0.407 1.0917 0.632 1.5627 1.284 0.4979 0.688 0.9129 1.376 1.2787 2.134-0.2397-0.085-0.4407-0.157-0.6198-0.21-0.1319-0.06-0.2753-0.1-0.4274-0.114-0.3012-0.029-0.5895 0.045-0.8296 0.191-0.0097 5e-3 -0.0193 9e-3 -0.0291 0.014-0.3852 0.186-0.982 0.398-1.3814 0.463 0.2036 0.069 0.6541 0.096 0.8667 0.012 0.0285-0.011 0.0574-0.02 0.0871-0.027-0.0958 0.162-0.1585 0.346-0.1777 0.545-0.0255 0.263 0.0284 0.516 0.1425 0.735 4e-4 1e-3 8e-4 2e-3 0.0012 2e-3 0.0361 0.084 0.0862 0.162 0.1413 0.218-0.1827 0.067-0.3689 0.143-0.5609 0.226 0.8905-0.135 1.6936-0.158 2.563-0.044 0.0573 0.272 0.1151 0.56 0.1686 0.853-0.1077 9e-3 -0.2152 0.017-0.3228 0.025-0.0087 1e-3 -0.0175 2e-3 -0.0262 2e-3 -0.4113-0.326-0.8696-0.271-1.4956-0.129-1.9038 0.431-1.4564 1.491-2.3324 3.088 0.9095-1.103 0.8421-2.257 2.3241-2.606 0.3453-0.081 0.5804-0.182 0.8141-0.147-0.4207 0.21-0.7847 0.558-0.9289 0.962-0.4068 1.14-0.1542 2.1-0.6011 3.165 0.5536-0.952 0.587-1.881 1.0819-2.882 0.1778-0.36 0.8375-0.936 1.2426-0.944 0.1111-3e-3 0.222-5e-3 0.3333-8e-3 0.0976 0.634 0.157 1.263 0.1191 1.785-0.069 0.952-0.3183 2.365-0.4675 2.906 0.5014-0.639 0.7298-1.994 0.95-2.948 0.2294-0.993 0.1715-2.184-0.0293-3.251-0.2755-1.464 1.2436-1.226 2.1255-1.916 0.6482-0.507 1.0944-1.317 1.6888-1.89 0.5896-0.569 1.5176 0.267 1.7494 0.823 1.0056 2.414 1.4636 6.212 1.1981 8.645-0.2981 2.731-1.6272 5.712-4.0541 7.056-3.0938 1.713-6.7416 0.667-9.8153-0.361-0.6561-0.219-1.1123-0.539-1.689-0.9 0.157 0.702 0.2284 1.445 0.0195 2.145-0.3316 1.112-0.8672 2.931 0.654 3.267 0.5789 0.127 0.8414 0.109 1.6587-0.31-0.6615 0.149-0.995 0.112-1.4497 0.029-0.412-0.075-0.6305-0.335-0.7456-0.641 0.144 0.103 0.3787 0.159 0.7799 0.255 1.1277 0.269 2.2022-0.269 2.4124-1.045 0.1225-0.454 0.1017-0.692 0.3613-1.309 0.2332 0.071 0.4746 0.136 0.722 0.196-0.1396 0.451-0.2794 0.904-0.419 1.356-0.3625 1.173-1.7744 2.119-3.0212 2.097-1.1526-0.02-1.8832-0.737-2.6789-1.439-0.5482-0.484-1.0756-0.947-1.5986-1.406-1.4343-0.449-2.5841-0.974-3.9154-1.952 0.9474 1.105 1.5901 1.717 2.9114 2.267-0.1923 1.945-0.8734 3.363-1.4542 5.224-0.2627 0.842-2.3379 4.215-2.9129 4.544-0.4101 0.234-2.9784 2.381-3.4617 2.664-0.3598 0.474-0.6756 1.13-1.2165 1.413-1.6485 0.865-2.7078-0.791-3.595-2.19-0.404-0.637-1.5255-2.473-0.5477-2.987 0.9244-0.486 1.4421-0.833 2.3853-1.448 0.1386 0.251 0.3765 0.493 0.5314 0.744zm5.7307 2.965c-0.8345 0.669-2.2379 1.854-2.5102 2.002-0.4929 0.73-0.5539 1.182-1.3438 1.607-2.3513 1.262-3.5993-0.202-4.9912-2.331-0.6632-1.014-2.1133-3.33-0.5745-4.115 0.6483-0.331 1.1398-0.578 1.63-0.862-1.6144 0.199-3.1985 0.201-4.846-0.044 0.0291 0.197 0.0543 0.384 0.075 0.557 0.107 0.893 0.1421 1.167-0.3469 1.886-0.3563 0.525-0.4938 0.677-0.9243 1.631 0.0784 0.775 0.0442 1.211-0.1761 2.023-0.49 1.805-3.8854 0.816-5.269 0.444-1.6647-0.447-4.0435-0.863-3.0674-2.986 0.2286-0.498 0.4082-1.007 0.5435-1.492-1.4556 0.639-3.4785-0.717-4.442-1.676-0.9163-0.911-1.4141-1.97-1.5876-2.998-0.1476-0.874-0.0124-0.87 0.6164-1.488 0.5752-0.565 1.1503-1.131 1.7254-1.695 0.2322-0.628 0.4648-1.255 0.6969-1.882-0.0904-0.468-0.1577-0.935-0.1977-1.398-0.1671-1.929-0.111-3.302 0.1667-4.565-1.0128 0.392-2.1752 0.209-2.6921-0.858-0.1966-0.406-0.3136-0.819-0.462-1.418-2.2594-2.161 1.9746-4.993 3.2098-5.206-0.1412 0.398-0.2959 0.763-0.4321 1.124 0.8377 0.43 0.735 1.656 0.5571 2.446-0.3014-0.378-0.4676-0.871-0.9109-0.892-0.0651 0.893-0.054 1.879-0.7567 2.403 0.2082 0.552 0.1973 0.552 0.7883 0.327 0.8395-0.321 1.4719-1.035 2.1078-1.733 0.6849-1.324 1.5627-2.501 2.7705-3.564 2.9679-2.611 5.7734-3.466 10.291-4.18 0.6013-0.623 1.2227-1.223 1.8896-1.808 0.9036-0.791 1.4903-0.955 2.3449-0.999 1.4142-1.878 2.5267-3.185 4.8323-4.148 4.833-2.018 8.164-2.116 12.043 1.058 1.2818 1.049 2.375 2.154 3.7838 3.029 0.7129 0.443 1.2222 0.762 1.7629 1.401 0.6797 0.803 1.2348 1.607 1.6212 2.642 0.4993-0.204 1.0686-0.396 1.5283-0.786 0.5935-0.503 0.9711-1.346 1.5209-1.899 0.7297-0.733 2.3942 0.152 2.7628 0.852 1.2535 2.381 1.7664 6.769 1.5 9.378-0.3294 3.225-1.6692 6.275-4.5328 7.791-1.947 1.031-4.5604 1.127-6.7965 0.708-0.145 0.473-0.2895 0.946-0.4344 1.419-0.4347 1.418-2.1323 2.578-3.6151 2.647-1.4238 0.067-2.1955-0.662-3.1293-1.555-0.4898-0.468-0.9799-0.936-1.4698-1.405-0.0285 0.319-0.0705 0.625-0.1235 0.921 0.3857 0.756 0.571 1.42 0.9011 2.2 0.363 0.857 0.5397 1.421 0.5648 2.339 0.0219 0.815 0.0438 1.63 0.0659 2.445 0.3664 0.646 0.3983 0.803 0.3449 1.542-0.1128 1.558-0.9773 1.707-2.4183 1.698-0.4803-3e-3 -2.2922 8e-3 -2.7542-0.025-0.9182-0.066-1.5237-0.135-1.84-0.512zm4.859-8.498c-0.2899 1.027-0.6795 1.997-1.0352 3.108-0.3365 1.053-2.0629 4.108-3.0791 4.848 0.1978 0.147 0.5609 0.204 1.2076 0.259 0.4575 0.039 2.2612 0.048 2.7141 0.055 0.9971 0.018 1.3755-0.057 1.4764-1.183 0.0492-0.552 0.0058-0.655-0.2723-1.139-0.0246-0.862-0.0492-1.725-0.0737-2.587-0.0232-0.817-0.1813-1.288-0.5053-2.05-0.1939-0.456-0.2991-0.882-0.4325-1.311zm-30.371-14.113c0.2239-0.025 0.3623 0.092 0.5354 0.263-0.032-0.41-0.1084-0.714-0.3986-0.882-0.0203 0.067-0.0395 0.133-0.0575 0.201-0.0352 0.132-0.0602 0.273-0.0793 0.418zm1.4065 2.964c-0.1612 0.414-0.3106 0.84-0.4514 1.281-0.0233 0.073-0.0457 0.146-0.0675 0.219-0.8514 0.358-1.9709 0.586-2.3995-0.302-0.2081-0.431-0.3255-0.854-0.4773-1.399-1.4021-1.441 0.6938-3.344 1.8355-4.027-0.1652 0.353-0.2826 0.62-0.3627 0.894-0.3471 1.191 0.1572 2.253-0.9316 3.116 0.5117 1.025 0.4881 1.434 1.6786 0.96 0.4593-0.183 0.838-0.439 1.1759-0.742zm-0.3281 9.701c0.6453 2.215 1.7444 4.391 2.9628 6.221-1e-4 0.01-2e-4 0.021-3e-4 0.032-0.0763 0.314-0.1646 0.621-0.3498 0.867-0.8708 1.156-3.0862-0.541-3.7274-1.191-0.701-0.71-1.1702-1.551-1.2819-2.34-0.0812-0.576-0.0024-0.59 0.4022-0.997 0.5452-0.547 1.091-1.096 1.636-1.643 0.1193-0.317 0.2391-0.633 0.3584-0.949zm41.239-17.778c0.1242 0.122 0.2245 0.267 0.2936 0.427 0.0377-0.034 0.078-0.066 0.1201-0.097-0.0511-0.114-0.103-0.227-0.1561-0.338-0.0882 2e-3 -0.174 5e-3 -0.2576 8e-3zm-10.668 3.984c-0.1136-0.236-0.168-0.486-0.1699-0.732-0.418 0.331-0.8725 0.646-1.3441 0.827 0.6511-0.577 1.5355-1.938 2.1764-2.367 0.7273-0.488 1.7143-0.393 2.5622-0.782-0.2895 0.261-0.6605 0.471-1.0382 0.671 0.4161 0.151 0.7757 0.457 0.9808 0.884 0.0865 0.18 0.1383 0.368 0.1592 0.556 0.5696-0.186 1.129-0.274 1.6015-0.267-1.6901 0.471-3.4879 1.572-4.7275 3.03 0.1392-0.38 0.3338-0.723 0.5682-1.03-0.3249-0.168-0.5991-0.438-0.7686-0.79zm-7.8377-6.068c-0.9333 0.362-1.7846 0.633-2.6945 0.86-0.8301 1.083-1.3358 1.644-1.5269 3.095-0.2247-1.428-0.2715-1.693 0.3688-2.759-0.1855 0.094-0.3581 0.223-0.6054 0.433-0.8946 0.759-2.0606 3.742-2.5269 4.808 0.296-1.284 1.2217-4.492 2.1751-5.427 0.627-0.616 0.7692-0.601 1.6533-0.684 1.0531-0.099 2.104-0.208 3.1565-0.326zm19.481 3.113c0.7571 0.071 1.19 0.187 1.8679-0.146 1.2637-0.62 2.1935-1.633 2.7964-2.845-0.3688 1.445-1.1111 2.674-2.6507 3.219-0.7561 0.267-1.2436-9e-3 -2.0136-0.228zm-14.531 0.141c0.2852-1.253 0.7917-2.461 2.7536-3.396-2.6003 0.646-3.0879 1.73-2.7536 3.396zm-33.718 6.751c0.2231-2.507 0.7144-3.589 2.5093-5.475-2.2514 1.574-2.8132 2.289-2.5093 5.475z" fill="#000"/>
  <path d="m65.554 119.43c-0.1738-0.361-0.0184-0.796 0.3459-0.968s0.8032-0.018 0.977 0.343c0.0165 0.034 0.0296 0.069 0.0402 0.104-0.3479 0.257-0.6669 0.559-0.9343 0.908-0.1802-0.072-0.3396-0.202-0.4288-0.387z" fill="#ffc"/>
  <path d="m73.695 116.31c0.029-0.299 0.2858-0.519 0.5868-0.49s0.5232 0.296 0.4943 0.595c-0.0062 0.063-0.0236 0.123-0.0495 0.178-0.2756 0.046-0.5511 0.127-0.835 0.23-0.1188-0.12-0.2133-0.34-0.1966-0.513z" fill="#ffc"/>
 </g>
</svg>
