<?xml version="1.0" encoding="UTF-8"?>
<svg width="256" height="256" fill="none" version="1.1" viewBox="0 0 256 256" xmlns="http://www.w3.org/2000/svg">
 <rect width="256" height="256" rx="60" fill="#F4F2ED"/>
 <path d="m53.329 26.999c-0.3467 0.8183-0.675 1.8769-0.9802 3.1532l-0.2245 0.9978c-0.0733 0.3459-0.1452 0.7051-0.2154 1.0773l-0.2058 1.1547-0.1959 1.2301-0.1855 1.3034-0.1747 1.3744-0.1633 1.4435-0.1516 1.5105c-0.0243 0.2572-0.0481 0.5171-0.0713 0.7796l-0.1333 1.6069-0.1204 1.6686-0.1071 1.7281c-0.0168 0.2929-0.0329 0.5881-0.0485 0.8857l10.704 5.1807c-0.162-6.2493 0.0392-12.159 0.6022-17.588l0.1104-0.9677-0.0763 0.8866-0.0952 1.4658-0.0348 0.6993-0.0587 1.5955-0.0219 0.8973-0.0239 1.9965 0.0033 1.6762 0.0252 1.8316 0.0307 1.3084 0.0691 2.0949 0.063 1.4856 0.0777 1.5575c0.0143 0.2656 0.0291 0.5343 0.0447 0.8059 1.9938-1.6258 4.3818-3.76 6.8651-6.093l1.6663-1.5814c0.279-0.2674 0.5583-0.5363 0.8376-0.8064l1.6718-1.6315 1.6509-1.6394 1.6102-1.6269 1.5499-1.594c-1.7126-3.499-3.5595-6.0698-5.2775-7.9475l-0.5676-0.6006c-0.3746-0.3837-0.7415-0.7345-1.0977-1.0549l-0.5259-0.4582-0.5076-0.4146c-0.166-0.1312-0.3285-0.2554-0.4873-0.373l-0.4647-0.3332-0.44-0.2955-0.6088-0.3765-0.5411-0.3025-0.6033-0.2992-0.4524-0.1946-0.8256-0.2984-0.6013-0.1929-0.5871-0.1658-0.4469-0.1125-0.4858-0.1087c-0.0839-0.0176-0.1692-0.0349-0.2559-0.0517l-0.5346-0.0951-0.5612-0.0806c-2.9593-0.3709-6.7824 0.018-8.4217 3.8886z" fill="url(#paint0_linear_404_120)"/>
 <path d="m63.852 83.69c-0.4941-3.562-0.9452-7.0654-1.3532-10.51-0.3312-2.8606-0.6023-5.6786-0.8243-8.4691l-0.1904-2.5016c-0.0033-0.0661-0.0051-0.1299-0.0045-0.1905-0.234-3.392-0.4034-6.6961-0.479-9.9337l-10.683-5.1513-0.0292 0.6546-0.0717 1.3592c-0.1065 2.5592-0.1856 5.2788-0.2079 8.1372-0.0261 3.222 0.0046 6.5828 0.0627 10.104 0.0755 3.2376 0.2079 6.614 0.3833 10.049 0.1299 2.2053 0.2719 4.4271 0.4351 6.6777l0.1961 2.6029 14.291 7.2399-0.5039-3.3727-1.0212-6.6954z" fill="url(#paint1_linear_404_120)"/>
 <path d="m84.523 166.68 0.2213 0.762 1.4193 4.823c0.2039 0.685 0.4104 1.373 0.6206 2.065l0.6774 2.192 0.2316 0.789c0.0409 0.129 0.0849 0.257 0.1344 0.386l2.3022 7.378c2.0389-0.422 4.5242 0.339 7.1495 1.484l1.0568 0.477c-1.9326-2.325-4.6078-3.881-7.8045-4.241 8.7526-5.838 14.512-13.357 13.702-22.327-0.087-0.794-0.194-1.617-0.353-2.447-0.132 3.306-1.452 5.733-5.2775 8.327l-0.4711 0.312c3.9566-6.963 5.0456-11.687 4.5776-17.795-0.116-1.448-0.296-2.985-0.563-4.639-1.265 9.094-6.1487 14.979-13.291 18.461l-4.3329 3.993z" fill="url(#paint2_linear_404_120)"/>
 <path d="m79.402 156.01-0.9089-3.408-1.8284-6.899c-0.8674-3.333-1.7055-6.687-2.5359-10.093-0.8303-3.405-1.6313-6.832-2.4323-10.259-0.8147-3.507-1.5786-7.007-2.3131-10.527l-0.7253-3.481-1.3924-6.965c-0.2488-1.261-0.476-2.492-0.6955-3.775-0.3997-2.1423-0.7701-4.3065-1.1405-6.4706l-0.0764-0.3499-14.21-7.2536 0.0465 0.4503c0.0054 0.0779 0.0078 0.1564 0.0046 0.2339 0.2867 3.218 0.5656 6.4868 0.9462 9.7712 0.3728 3.3357 0.7965 6.6787 1.2924 10.059 0.4215 2.848 0.8723 5.675 1.3446 8.531l0.3096 1.713c0.6544 3.534 1.3538 6.946 2.1136 10.132 0.85 3.617 1.7604 7.009 2.6806 10.168 0.6186 2.072 1.2235 4.064 1.8441 5.954l0.5506 1.593 1.1385 3.167c1.3583 3.695 2.8632 7.282 4.4854 10.783l14.363 7.277c-0.7655-2.641-1.4724-5.325-2.2516-8.047l-0.398-1.525-0.211-0.779z" fill="url(#paint3_linear_404_120)"/>
 <path d="m68.107 159.56c1.731 3.703 3.6192 7.29 5.7037 10.734l1.1559 1.869c-1.3609-0.548-3.0822-0.82-4.7546-0.942l-0.8302-0.049c-0.1371-6e-3 -0.2733-0.011-0.4085-0.016l-0.7968-0.017-1.123 4e-3 -1.0025 0.029-0.8435 0.044-1.1809 0.097c-0.0099 1e-3 -0.0142 2e-3 -0.013 2e-3 7.2625 2.519 13.632 5.604 17.649 10.279-1.5966 1.758-4.5854 3.095-8.3427 4.183 2.7973 0.303 4.9283 0.18 6.4649-0.071l0.6224-0.114c0.0978-0.02 0.1925-0.041 0.2843-0.061l0.5156-0.128 0.4459-0.131 0.5411-0.188 0.2773-0.114c-2.3075 1.924-3.7514 5.202-4.9517 8.876l-0.4145 1.312c-0.0677 0.221-0.1348 0.442-0.2015 0.665 3.0558-4.995 6.0868-8.302 9.0385-9.566 3.2965 10.931 7.1089 22.564 11.293 34.704l1.9569 5.638c0.6608 1.891 1.3301 3.793 2.0061 5.706 0.974-1.255 1.083-2.644 0.675-4.059l-1.338-3.779-1.5239-4.417-2.361-7.005-1.9347-5.874-2.1379-6.627-2.0413-6.466-1.8737-6.059-1.3783-4.538-1.1218-3.746c-0.1501-0.492-0.2872-0.992-0.4349-1.499l-0.4226-1.391-1.2114-4.185-1.232-4.306-0.554-1.985-0.0216-0.029-14.363-7.277c0.0326 0.126 0.0687 0.23 0.1123 0.335l0.0716 0.162z" fill="url(#paint4_linear_404_120)"/>
 <path d="m67.047 94.065 0.2547 1.3919c0.1842 0.9475 0.3553 1.9045 0.5371 2.8671l1.5538 7.9723 0.5708 2.776 0.8313 3.923c0.1418 0.663 0.2849 1.331 0.4289 2.003 0.429 1.986 0.8812 4.003 1.3549 6.064l0.9757 4.18 0.9711 4.078c0.1661 0.689 0.3343 1.382 0.5044 2.079l1.0429 4.22 1.0428 4.101c0.5293 2.073 1.074 4.179 1.6496 6.328 0.42 1.586 0.8562 3.195 1.3021 4.824l1.4939 5.439 1.1287 3.997 1.1655 4.083c0.1975 0.687 0.3967 1.376 0.5975 2.068 0.0138 0.08 0.0275 0.16 0.0705 0.219l4.3329-3.992-0.105 0.043-0.2313 0.113c5.142-4.856 9.5488-14.587 10.556-23.356 0.4637-4.039 0.4209-8.338-0.1343-13.028-0.4002-3.496-1.1113-7.169-2.0885-11.144-0.8519-3.434-1.9052-7.082-3.1892-10.921-0.7951 1.621-1.9245 3.216-3.3081 4.773l-0.7504 0.822-0.2568 0.267-0.5445 0.546c3.7925-5.896 4.2435-12.226 3.1187-18.799-0.6894 1.9495-2.0431 4.8377-4.2885 7.433-0.2872 0.3462-0.6253 0.6841-0.9634 1.0231-0.0587 0.043-0.1077 0.099-0.1687 0.157l-0.103 0.087c1.2583-2.0961 2.1881-4.0867 2.7836-6.1027 0.095-0.2802 0.1675-0.564 0.2324-0.8488l0.0936-0.428c0.1522-0.653 0.2536-1.3139 0.355-1.9747l0.1442-1.2787c0.0569-0.7523 0.0731-1.5254 0.0362-2.3103l-0.0989-1.4447c-0.0097-0.1065-0.0223-0.2125-0.0406-0.3194l-0.151-0.9251c-0.0254-0.1484-0.0522-0.2942-0.0822-0.4375-0.2939-1.7176-0.6165-3.2484-0.9493-4.6061l-0.3118-1.2187-0.2819-1.0294-0.3664-1.2177-0.4762-1.4267c-0.0504-0.1435-0.1008-0.2813-0.1521-0.4127l-0.2876-0.7196c-0.0923-0.2214-0.1807-0.4238-0.2645-0.6062l-0.2366-0.4863c-0.0455 0.1838-0.1041 0.3771-0.1821 0.5714l-0.1323 0.2909c-0.8946 2.1001-2.9756 4.9808-4.8732 7.0051-0.0293 0.0215-0.0587 0.043-0.0665 0.0939l-0.3914 0.3909c-0.0667 0.0707-0.133 0.1443-0.1968 0.2213l0.0742-0.1447-13.651 12.5c0.1154 0.0958 0.1291 0.1759 0.1213 0.2268z" fill="url(#paint5_linear_404_120)"/>
 <path d="m61.772 51.843c0.0551 0.9971 0.1211 2.0363 0.1972 3.1166l0.1654 2.215c0.0298 0.3781 0.0605 0.7608 0.0924 1.1479l0.203 2.3755c0.0359 0.4047 0.0727 0.8138 0.1104 1.2272l0.032 0.3942c0.0077 0.0628 0.0184 0.1251 0.0347 0.1884 0.1156 1.2177 0.2441 2.4703 0.3863 3.7621l0.3028 2.637c0.1072 0.8973 0.2206 1.8131 0.3405 2.7489l0.5681 4.2892c0.2656 1.9472 0.5531 3.9646 0.8747 6.0686l0.2478 1.5944c0.245 1.6246 0.5169 3.2858 0.8048 4.9918l0.9002 5.2601 13.651-12.5c2.8466-5.1567 3.4689-8.3653 3.4302-12.352-0.0135-0.8021-0.0512-1.6371-0.1041-2.4928l-0.0575-0.8621c-0.2185-3.4937-0.6383-7.2003-1.2341-10.778-0.5605-3.4681-1.2461-6.7994-2.0313-9.6515-0.4973-1.8454-1.0258-3.4875-1.564-4.8969-0.4893-1.2198-0.9942-2.3379-1.5068-3.4052l-1.5478 1.5802c-0.2636 0.2669-0.5297 0.5353-0.7979 0.8048l-1.6315 1.6259-1.6627 1.6305-1.674 1.6143c-0.2789 0.2666-0.5574 0.5317-0.8352 0.7947l-1.6542 1.5514c-2.1847 2.0279-4.2684 3.8748-6.0407 5.3199z" fill="url(#paint6_linear_404_120)"/>
 <path d="m193.2 29.676c-0.437 0.1803-0.914 0.4068-1.427 0.6778l-0.797 0.4398c-0.549 0.3152-1.134 0.6742-1.752 1.0756l-0.952 0.6336-1 0.696-1.047 0.7572-1.092 0.8173c-0.186 0.1412-0.373 0.2848-0.562 0.4308l-1.156 0.9054-1.197 0.9627-1.237 1.0189-1.273 1.0739-1.309 1.1279-1.343 1.1807-1.376 1.2324c-0.231 0.2096-0.465 0.4214-0.699 0.6352l4.501 12.675c4.869-5.1956 9.76-9.821 14.559-13.762l1.688-1.3698 0.122-0.0934-1.161 0.9447-1.138 0.9844-1.235 1.1163-1.171 1.0973-0.984 0.9468-0.706 0.6921-1.53 1.5341-1.251 1.2856-1.803 1.8999-0.959 1.0317-0.997 1.0875-1.565 1.7378-1.091 1.2309c1.12 0.1064 2.347 0.1985 3.654 0.2768l2.016 0.1074 2.115 0.0874 2.193 0.0679 2.248 0.0489 2.284 0.0305c0.382 0.0035 0.765 0.0064 1.148 0.0084l2.297 0.0038c0.382-8e-4 0.764-0.0024 1.144-0.0046l2.262-0.0218c0.374-5e-3 0.746-0.0107 1.115-0.0171l2.181-0.0462c1.791-5.3378 2.201-9.63 2.062-12.835l-0.048-0.8114-0.07-0.7619c-0.013-0.1229-0.027-0.2437-0.042-0.3624l-0.096-0.6874-0.109-0.6374c-0.019-0.1021-0.039-0.2021-0.059-0.3l-0.123-0.5623-0.128-0.5121-0.131-0.4615-0.129-0.4109-0.241-0.6693-0.195-0.4649-0.465-0.9588-0.271-0.5118-0.227-0.4021-0.263-0.4417-0.298-0.4734-0.333-0.4972-0.368-0.5133c-2.054-2.7657-5.561-5.878-10.183-3.9708z" fill="url(#paint7_linear_404_120)"/>
 <path d="m156.63 83.683c2.432-3.26 4.853-6.4386 7.261-9.5359 2.508-3.2074 5.038-6.2867 7.598-9.2786 0.152-0.1856 0.304-0.3712 0.45-0.5161 2.506-2.9165 4.995-5.7109 7.506-8.3773l-4.507-12.635-0.543 0.5038-1.138 1.0372c-2.119 1.9756-4.343 4.1021-6.632 6.3854-1.291 1.2865-2.597 2.6122-3.925 3.9764l-2.686 2.7795c-0.453 0.4717-0.908 0.9476-1.367 1.4277-2.511 2.6664-5.087 5.4896-7.675 8.3942-1.648 1.8785-3.299 3.7799-4.955 5.7214l-1.911 2.2512 5.752 17.182 2.274-3.1154 4.498-6.2013z" fill="url(#paint8_linear_404_120)"/>
 <path d="m107.33 166.91-0.855 1.579-2.261 4.221c-0.38 0.713-0.761 1.431-1.142 2.155l-1.196 2.303c-0.229 0.424-0.451 0.807-0.639 1.237l-1.2582 2.428-2.7502 5.34c2.2399 1.451 3.7344 4.581 5.0474 8.099 0.292-3.407-0.626-6.785-2.9126-9.615 11.684 2.255 22.295 0.777 28.77-7.087 0.561-0.707 1.128-1.455 1.661-2.25-2.742 2.564-5.742 3.467-10.909 2.502l-0.584-0.114c8.718-2.463 13.348-5.4 17.824-10.689 1.058-1.258 2.133-2.638 3.233-4.182-8.244 6.316-16.851 7.173-25.368 4.302l-6.66-0.229z" fill="url(#paint9_linear_404_120)"/>
 <path d="m111.24 155.04 2.425-4.26 4.009-7.006c1.95-3.373 3.94-6.739 5.978-10.14 2.037-3.401 4.115-6.796 6.193-10.192 2.131-3.47 4.296-6.894 6.502-10.312 2.159-3.383 4.4-6.755 6.594-10.091 0.802-1.213 1.597-2.385 2.44-3.5917 1.38-2.0424 2.801-4.0789 4.223-6.1153l0.216-0.3424-5.676-17.13-0.321 0.3996c-0.057 0.067-0.118 0.132-0.182 0.1919-2.326 2.8183-4.698 5.6714-7.001 8.6178-2.35 2.9811-4.665 6.0089-6.952 9.124-1.924 2.6279-3.807 5.2618-5.696 7.936l-1.111 1.625c-2.282 3.365-4.429 6.667-6.349 9.836-2.189 3.587-4.151 7.04-5.92 10.315-1.149 2.159-2.244 4.243-3.247 6.258-0.832 1.707-1.63 3.461-2.422 5.174-1.842 4.054-3.48 8.137-4.9561 12.244l5.7811 17.27 1.125-2.05 2.3-4.124c0.386-0.693 0.771-1.39 1.155-2.092l0.892-1.545z" fill="url(#paint10_linear_404_120)"/>
 <path d="m99.781 148.14c-1.5486 4.356-2.8791 8.745-3.937 13.173l-0.5548 2.423c-0.5206-1.2-1.3572-2.44-2.3002-3.61l-0.5769-0.693c-0.0977-0.114-0.1961-0.227-0.2949-0.338l-0.5964-0.658-0.5968-0.628-0.5872-0.592-0.8406-0.81-0.7624-0.702-0.8361-0.734-0.7519-0.619c3.8447 7.798 6.521 15.341 6.0409 22.296-2.6822 0.147-6.1502-1.151-10.04-3.26 1.6742 2.053 3.2116 3.502 4.5082 4.517l0.581 0.439c0.0939 0.068 0.1862 0.134 0.277 0.197l0.5255 0.354 0.4856 0.301 0.4434 0.253 0.3991 0.209 0.3525 0.168 0.3034 0.13c0.0464 0.019 0.0907 0.037 0.1327 0.053-3.2592-0.274-6.8712 1.098-10.602 2.988l-1.2479 0.648-1.2547 0.677c6.4282-1.593 11.496-1.847 14.876-0.519-1.6603 3.143-3.3315 6.361-5.0127 9.646l-2.5292 4.98c-3.8047 7.543-7.6581 15.417-11.55 23.558l-2.6006 5.466c-0.8687 1.835-1.7393 3.682-2.6115 5.541 1.7809-0.238 2.9715-1.269 3.7682-2.732l2.9449-6.244 2.7102-5.614 3.4633-7.05 3.059-6.129 3.0308-5.989 2.8793-5.617 3.9959-7.682 2.8372-5.377 0.9751-1.833 0.8406-1.552 0.7647-1.455 1.1652-2.152 2.39-4.389c0.405-0.741 0.813-1.486 1.225-2.237l1.13-2.037 6e-3 -0.041-5.78-17.27c-0.0746 0.128-0.128 0.24-0.1763 0.359l-0.0705 0.187z" fill="url(#paint11_linear_404_120)"/>
 <path d="m150.96 94.578-0.9 1.3229c-0.605 0.9091-1.228 1.8155-1.846 2.7348l-2.966 4.4723-2.117 3.18-0.537 0.823c-0.804 1.233-1.612 2.487-2.427 3.76l-2.476 3.877c-1.644 2.586-3.298 5.25-4.989 8.01l-1.274 2.088c-2.025 3.32-4.115 6.797-6.217 10.355l-2.42 4.13c-1.22 2.089-2.455 4.217-3.699 6.405-0.738 1.288-1.479 2.596-2.225 3.921l-3.679 6.562-1.127 2.044-2.289 4.166c-0.769 1.404-1.543 2.824-2.318 4.257-0.053 0.075-0.106 0.15-0.118 0.232l6.66 0.229c-0.116-0.059-0.238-0.077-0.395-0.141 7.998 0.175 19.277-4.156 27.055-10.415 3.582-2.884 6.964-6.379 10.243-10.595 2.455-3.132 4.801-6.654 7.172-10.63 2.044-3.442 4.094-7.215 6.111-11.326-1.928 0.673-4.106 1.06-6.456 1.214l-1.257 0.065c-0.279 0.015-0.556 0.011-0.845 0.012l-0.446 7e-3c7.737-1.733 13.13-6.471 17.447-12.656-2.104 1.021-5.489 2.271-9.358 2.576-0.507 0.051-1.048 0.054-1.589 0.058-0.081-0.012-0.165-6e-3 -0.26-7e-3l-0.153-0.012c2.679-0.688 5.009-1.551 7.09-2.701 0.299-0.15 0.583-0.321 0.862-0.499l0.415-0.27c0.642-0.405 1.248-0.856 1.855-1.308l1.132-0.915c0.858-0.747 1.687-1.581 2.447-2.509l0.486-0.563c0.077-0.094 0.151-0.189 0.221-0.29l0.613-0.864c0.098-0.14 0.192-0.278 0.282-0.418 1.151-1.65 2.124-3.167 2.946-4.547l0.343-0.5827c0.445-0.7661 0.837-1.4569 1.183-2.1129l0.404-0.7722 0.613-1.242c0.126-0.2576 0.242-0.5034 0.343-0.738l0.179-0.417 0.304-0.7541c0.09-0.2328 0.167-0.4466 0.233-0.6399l0.089-0.2743c-0.183 0.1118-0.384 0.2209-0.601 0.3153l-0.338 0.129c-2.389 0.9799-6.353 1.6455-9.488 1.7674-0.041-6e-3 -0.082-0.012-0.129 0.0228l-0.625 0.0036c-0.11 0.0039-0.222 0.0106-0.334 0.0218l0.174-0.0575-20.921-0.7832c0.017 0.1687-0.036 0.2442-0.083 0.2789z" fill="url(#paint12_linear_404_120)"/>
 <path d="m180.26 56.38c-0.747 0.8464-1.52 1.7355-2.317 2.6656l-1.627 1.9145-1.691 2.0213-2.044 2.4682c-0.044 0.0567-0.084 0.1153-0.122 0.1792-1.166 1.4295-2.362 2.9272-3.596 4.5027l-1.88 2.4225c-0.319 0.4139-0.64 0.8329-0.963 1.2572l-2.701 3.5715-1.766 2.3659c-0.894 1.2057-1.805 2.4469-2.734 3.73l-0.934 1.2974c-0.938 1.2879-1.88 2.6131-2.838 3.9743l-1.939 2.7699-1.996 2.8634 20.921 0.7832c6.389-1.8896 9.439-3.9781 12.575-7.218 0.627-0.6564 1.26-1.3586 1.897-2.0894l0.639-0.7397c2.6-2.986 5.207-6.3036 7.57-9.6569 2.304-3.2373 4.399-6.4637 6.033-9.3835 1.066-1.8808 1.945-3.6226 2.631-5.1848 0.576-1.3707 1.057-2.6719 1.493-3.9384l-2.17 0.0379-2.232 0.0232-2.272 0.0079-2.291-0.0081c-0.383-0.0028-0.765-0.0062-1.146-0.0103l-2.28-0.0334-2.246-0.051c-0.37-0.01-0.738-0.0207-1.103-0.0323l-2.155-0.0787c-0.353-0.0147-0.701-0.0302-1.046-0.0465l-2.016-0.1078c-1.307-0.0785-2.534-0.1706-3.654-0.277z" fill="url(#paint13_linear_404_120)"/>
 <defs>
  <linearGradient id="paint0_linear_404_120" x1="55.992" x2="90.686" y1="41.491" y2="30.178" gradientUnits="userSpaceOnUse">
   <stop stop-color="#F69923" offset="0"/>
   <stop stop-color="#F79A23" offset=".3123"/>
   <stop stop-color="#E97826" offset=".8383"/>
  </linearGradient>
  <linearGradient id="paint1_linear_404_120" x1="53.254" x2="95.823" y1="231.88" y2="62.871" gradientUnits="userSpaceOnUse">
   <stop stop-color="#9E2064" offset=".3233"/>
   <stop stop-color="#C92037" offset=".6302"/>
   <stop stop-color="#CD2335" offset=".7514"/>
   <stop stop-color="#E97826" offset="1"/>
  </linearGradient>
  <linearGradient id="paint2_linear_404_120" x1="91.431" x2="119.4" y1="226.55" y2="90.357" gradientUnits="userSpaceOnUse">
   <stop stop-color="#282662" offset="0"/>
   <stop stop-color="#662E8D" offset=".095484"/>
   <stop stop-color="#9F2064" offset=".7882"/>
   <stop stop-color="#CD2032" offset=".9487"/>
  </linearGradient>
  <linearGradient id="paint3_linear_404_120" x1="60.553" x2="122.45" y1="222.64" y2="72.125" gradientUnits="userSpaceOnUse">
   <stop stop-color="#9E2064" offset=".3233"/>
   <stop stop-color="#C92037" offset=".6302"/>
   <stop stop-color="#CD2335" offset=".7514"/>
   <stop stop-color="#E97826" offset="1"/>
  </linearGradient>
  <linearGradient id="paint4_linear_404_120" x1="76.02" x2="125.86" y1="215.68" y2="153.58" gradientUnits="userSpaceOnUse">
   <stop stop-color="#282662" offset="0"/>
   <stop stop-color="#662E8D" offset=".095484"/>
   <stop stop-color="#9F2064" offset=".7882"/>
   <stop stop-color="#CD2032" offset=".9487"/>
  </linearGradient>
  <linearGradient id="paint5_linear_404_120" x1="79.861" x2="125.37" y1="248.89" y2="33.476" gradientUnits="userSpaceOnUse">
   <stop stop-color="#9E2064" offset=".3233"/>
   <stop stop-color="#C92037" offset=".6302"/>
   <stop stop-color="#CD2335" offset=".7514"/>
   <stop stop-color="#E97826" offset="1"/>
  </linearGradient>
  <linearGradient id="paint6_linear_404_120" x1="66.756" x2="109.58" y1="302.14" y2="52.84" gradientUnits="userSpaceOnUse">
   <stop stop-color="#9E2064" offset=".3233"/>
   <stop stop-color="#C92037" offset=".6302"/>
   <stop stop-color="#CD2335" offset=".7514"/>
   <stop stop-color="#E97826" offset="1"/>
  </linearGradient>
  <linearGradient id="paint7_linear_404_120" x1="180.3" x2="225.33" y1="45.929" y2="33.926" gradientUnits="userSpaceOnUse">
   <stop stop-color="#F69923" offset="0"/>
   <stop stop-color="#F79A23" offset=".3123"/>
   <stop stop-color="#E97826" offset=".8383"/>
  </linearGradient>
  <linearGradient id="paint8_linear_404_120" x1="113.92" x2="205.54" y1="239.48" y2="71.614" gradientUnits="userSpaceOnUse">
   <stop stop-color="#9E2064" offset=".3233"/>
   <stop stop-color="#C92037" offset=".6302"/>
   <stop stop-color="#CD2335" offset=".7514"/>
   <stop stop-color="#E97826" offset="1"/>
  </linearGradient>
  <linearGradient id="paint9_linear_404_120" x1="88.54" x2="129.92" y1="203.46" y2="133.97" gradientUnits="userSpaceOnUse">
   <stop stop-color="#282662" offset="0"/>
   <stop stop-color="#662E8D" offset=".095484"/>
   <stop stop-color="#9F2064" offset=".7882"/>
   <stop stop-color="#CD2032" offset=".9487"/>
  </linearGradient>
  <linearGradient id="paint10_linear_404_120" x1="104.58" x2="197.49" y1="227.59" y2="70.311" gradientUnits="userSpaceOnUse">
   <stop stop-color="#9E2064" offset=".3233"/>
   <stop stop-color="#C92037" offset=".6302"/>
   <stop stop-color="#CD2335" offset=".7514"/>
   <stop stop-color="#E97826" offset="1"/>
  </linearGradient>
  <linearGradient id="paint11_linear_404_120" x1="82.398" x2="133.36" y1="213.61" y2="137.79" gradientUnits="userSpaceOnUse">
   <stop stop-color="#282662" offset="0"/>
   <stop stop-color="#662E8D" offset=".095484"/>
   <stop stop-color="#9F2064" offset=".7882"/>
   <stop stop-color="#CD2032" offset=".9487"/>
  </linearGradient>
  <linearGradient id="paint12_linear_404_120" x1="80.94" x2="188.05" y1="227.74" y2="56.105" gradientUnits="userSpaceOnUse">
   <stop stop-color="#9E2064" offset=".3233"/>
   <stop stop-color="#C92037" offset=".6302"/>
   <stop stop-color="#CD2335" offset=".7514"/>
   <stop stop-color="#E97826" offset="1"/>
  </linearGradient>
  <linearGradient id="paint13_linear_404_120" x1="81.295" x2="149.89" y1="159.73" y2="46.672" gradientUnits="userSpaceOnUse">
   <stop stop-color="#9E2064" offset=".3233"/>
   <stop stop-color="#C92037" offset=".6302"/>
   <stop stop-color="#CD2335" offset=".7514"/>
   <stop stop-color="#E97826" offset="1"/>
  </linearGradient>
 </defs>
</svg>
