<svg width="256" height="256" title="Apache JMeter" viewBox="0 0 256 256" fill="none" xmlns="http://www.w3.org/2000/svg" id="apachejmeter">
<style>
#apachejmeter {
    rect {fill: #15191C}
    path.jmeter {fill: white}

    @media (prefers-color-scheme: light) {
        rect {fill: #F4F2ED}
        path.jmeter {fill: #212121}
    }
}
</style>
<rect width="256" height="256" rx="40" fill="#15191C"/>
<path d="M56.7802 94.3214C54.9051 95.7469 53.2394 97.4303 51.8324 99.3219L53.7745 103.033C55.0267 101.199 56.4115 99.459 57.9177 97.8282L58.0842 97.652C58.0287 97.7169 57.9639 97.7633 57.9177 97.8282C56.4816 99.4841 55.1796 101.252 54.0242 103.116C56.5512 102.941 59.0671 102.631 61.5615 102.189C62.3106 98.0231 60.8401 96.1212 60.8401 96.1212C60.8401 96.1212 58.9627 93.0133 56.7802 94.3214Z" fill="url(#linearGradient1)"/>
<path d="M48.0499 112.468C48.6418 111.364 49.2429 110.279 49.8348 109.23C50.4267 108.182 51.0926 107.078 51.6844 106.048C51.7276 105.991 51.7678 105.933 51.8047 105.872C52.4212 104.87 53.0593 103.905 53.719 102.977L51.7769 99.3219L51.333 99.86C50.7781 100.565 50.1955 101.317 49.5944 102.114C48.9932 102.912 48.2441 103.97 47.532 104.972C46.8199 105.974 46.2281 106.827 45.5714 107.885C45.0165 108.748 44.4617 109.62 43.8975 110.52C43.8815 110.557 43.8597 110.591 43.8328 110.622L46.3575 115.622L48.0499 112.468Z" fill="url(#linearGradient2)"/>
<path d="M36.5637 140.634C36.2308 141.562 35.8886 142.49 35.5649 143.417C35.5649 143.557 35.4632 143.686 35.4262 143.826C35.2043 144.475 35.01 145.059 34.5569 146.377C35.3997 146.921 36.0601 147.706 36.4528 148.631C36.393 147.567 35.9219 146.569 35.1395 145.848C38.8388 146.015 41.9646 145.087 43.5831 142.397C43.7218 142.156 43.8605 141.896 43.99 141.627C43.2409 142.555 42.3346 142.981 40.5959 142.879C42.6515 142.113 44.3929 140.679 45.5437 138.807C45.8149 138.38 46.0831 137.907 46.3483 137.387C45.4137 138.419 44.2265 139.188 42.9044 139.617C41.5823 140.047 40.1712 140.123 38.811 139.836L36.7672 140.068C36.6932 140.291 36.6285 140.458 36.5637 140.634Z" fill="url(#linearGradient3)"/>
<path d="M37.4886 136.051C37.9232 134.901 38.4134 133.75 38.8388 132.581C39.2642 131.412 39.7636 130.346 40.2075 129.214C40.6514 128.082 41.1323 126.95 41.641 125.818C42.1496 124.686 42.6398 123.517 43.1577 122.376C43.6756 121.235 44.1935 120.113 44.7206 118.999C44.9056 118.591 45.0998 118.201 45.3032 117.793C45.6269 117.107 45.9691 116.42 46.3113 115.734C46.326 115.695 46.3446 115.657 46.3668 115.622L43.8698 110.64C43.8333 110.712 43.7899 110.781 43.7403 110.844C43.1577 111.772 42.5658 112.783 41.9924 113.785C41.419 114.787 40.8364 115.836 40.2815 116.893C39.8191 117.821 39.3567 118.665 38.9035 119.574C38.8111 119.751 38.7278 119.936 38.6353 120.113C38.0897 121.244 37.5903 122.348 37.1464 123.406C36.7025 124.464 36.2216 125.744 35.7962 126.82C35.5465 127.534 35.306 128.221 35.0933 128.88C34.8806 129.538 34.7511 130.012 34.5847 130.568C34.2055 131.895 33.8911 133.212 33.6598 134.539L36.1938 139.558C36.5175 138.63 36.8782 137.749 37.2204 136.821L37.4886 136.051Z" fill="url(#linearGradient4)"/>
<path d="M33.6136 134.715C33.2945 136.302 33.0752 137.907 32.957 139.521C32.957 139.567 32.957 139.632 32.957 139.679C32.1688 138.671 31.1957 137.824 30.0901 137.183C31.6068 139.391 32.7628 141.571 32.92 143.677C31.8242 143.774 30.7219 143.586 29.7202 143.13C30.485 143.916 31.4414 144.489 32.4946 144.79C31.0771 145.066 29.7624 145.728 28.6936 146.702C30.5432 145.922 32.1154 145.616 33.1974 145.876C31.468 150.793 29.7294 156.229 28 162C28.2391 161.928 28.4569 161.798 28.6343 161.622C28.8116 161.445 28.9431 161.228 29.0173 160.989C29.3225 159.95 31.3941 153.094 34.5662 144.085C34.6587 143.826 34.7604 143.575 34.8436 143.306L34.9268 143.093C35.269 142.165 35.6205 141.182 35.9904 140.198L36.2401 139.521L33.7061 134.502C33.6864 134.559 33.6709 134.618 33.6599 134.678L33.6136 134.715Z" fill="url(#linearGradient5)"/>
<path d="M46.8107 116.049C46.7367 116.207 46.672 116.346 46.5888 116.494L45.9321 117.877L45.2015 119.445C45.0721 119.714 44.9426 119.973 44.8224 120.252C44.4432 121.077 44.064 121.931 43.6663 122.812C43.1854 123.888 42.7415 125.011 42.2144 126.18C41.6872 127.349 41.2896 128.434 40.7809 129.622C40.2723 130.809 39.8561 131.904 39.3845 133.11C38.9683 134.177 38.5521 135.29 38.1175 136.413C38.1013 136.471 38.0796 136.526 38.0527 136.58L36.7764 140.04C36.7712 140.065 36.7712 140.09 36.7764 140.115L38.8203 139.883H38.6908C41.6785 139.27 44.3991 137.732 46.4685 135.485C47.492 134.356 48.3797 133.111 49.1134 131.774C49.76 130.622 50.3315 129.429 50.8243 128.202C51.2991 127.064 51.7522 125.827 52.1838 124.491C51.5777 124.795 50.9339 125.017 50.2695 125.15L49.8903 125.224L49.4926 125.289C51.6193 124.424 53.3249 122.759 54.2462 120.651C53.4025 121.219 52.4622 121.628 51.4717 121.857C51.3134 121.895 51.1528 121.923 50.9908 121.94H50.8613C51.5876 121.647 52.2743 121.264 52.9052 120.799C53.0283 120.708 53.1457 120.608 53.2566 120.502C53.4323 120.354 53.5988 120.187 53.7653 120.02L54.0704 119.686C54.305 119.414 54.5154 119.122 54.6993 118.814C54.7647 118.719 54.8234 118.62 54.875 118.517C54.9583 118.368 55.0323 118.229 55.097 118.09C55.4114 117.45 55.6611 116.884 55.8646 116.374C55.9663 116.123 56.0588 115.891 56.1328 115.678C56.2068 115.465 56.1975 115.511 56.2253 115.418C56.2992 115.177 56.3732 114.964 56.4287 114.769C56.4842 114.574 56.5489 114.268 56.5767 114.101C56.4962 114.172 56.4059 114.232 56.3085 114.277C55.4359 114.726 54.5004 115.038 53.5341 115.205C53.4373 115.212 53.3414 115.227 53.2474 115.251C53.2474 115.251 53.2474 115.251 53.2936 115.251L46.8846 115.956C46.8835 115.978 46.8758 115.998 46.8625 116.015C46.8492 116.031 46.8312 116.043 46.8107 116.049Z" fill="url(#linearGradient6)"/>
<path d="M54.0242 103.07C53.4601 103.942 52.8405 104.925 52.1746 106.067C52.1373 106.123 52.1033 106.182 52.0729 106.243C51.4902 107.171 50.8799 108.284 50.2233 109.471C49.6684 110.483 49.0857 111.568 48.4846 112.746C47.9482 113.767 47.4118 114.843 46.8477 115.984L53.2566 115.288C54.6702 114.723 55.8884 113.755 56.7617 112.505C56.9744 112.208 57.1963 111.874 57.409 111.577C58.0657 110.548 58.713 109.416 59.2587 108.284C59.7843 107.264 60.2566 106.217 60.6736 105.148C60.9141 104.527 61.1083 103.951 61.247 103.45C61.3857 102.949 61.4505 102.578 61.5245 102.179C59.0645 102.523 55.9848 102.968 54.0242 103.07Z" fill="url(#linearGradient7)"/>
<path d="M49.8903 125.224L49.4926 125.289C49.6233 125.257 49.7562 125.235 49.8903 125.224Z" fill="url(#linearGradient8)"/>
<path d="M64.3636 160.228C63.4358 160.236 62.5086 160.177 61.5892 160.052C60.897 159.977 60.2109 159.853 59.5361 159.681V153.298C60.1465 153.428 60.7938 153.539 61.4689 153.641C62.1885 153.746 62.9151 153.796 63.6423 153.789C64.3498 153.795 65.0552 153.711 65.7416 153.539C66.3675 153.387 66.9498 153.091 67.4432 152.676C67.9557 152.246 68.3477 151.69 68.5808 151.062C68.8826 150.247 69.024 149.38 68.9969 148.511V113.359H76.6544V148.269C76.6947 150.103 76.3806 151.927 75.7296 153.641C75.1931 155.059 74.3314 156.33 73.2141 157.352C72.1115 158.365 70.7922 159.111 69.3576 159.532C67.7462 160.012 66.0722 160.247 64.3914 160.228" fill="#D22128"/>
<path d="M83.3593 112.876V149.058H90.2029V132.21C90.2029 131.746 90.2029 131.227 90.2029 130.652C90.2029 130.076 90.2029 129.473 90.2029 128.843C90.2029 128.212 90.2029 127.581 90.1381 126.941C90.0734 126.301 90.1381 125.67 90.0549 125.085C89.9902 123.666 89.9069 122.191 89.8145 120.678H90.0364L97.9621 149.086H104.991L113.536 120.725H113.73C113.73 122.228 113.628 123.666 113.564 125.057C113.564 125.651 113.564 126.263 113.49 126.913C113.416 127.562 113.49 128.156 113.434 128.768C113.379 129.381 113.434 129.965 113.434 130.513V149.114H120.574V112.932H110.022L101.698 140.616H101.578L93.7819 112.932L83.3593 112.876ZM155.023 115.511L152.85 121.346L148.716 123.861V127.061H152.313V140.402C152.272 141.915 152.488 143.424 152.951 144.865C153.349 145.921 153.981 146.873 154.801 147.648C155.565 148.351 156.489 148.854 157.492 149.114C158.584 149.404 159.71 149.544 160.84 149.531C161.988 149.541 163.133 149.42 164.253 149.169C165.167 148.974 166.053 148.663 166.888 148.242V142.694C166.204 142.935 165.52 143.148 164.845 143.315C164.157 143.483 163.452 143.564 162.745 143.557C162.365 143.575 161.984 143.516 161.627 143.384C161.269 143.251 160.942 143.048 160.664 142.786C160.379 142.465 160.162 142.089 160.027 141.68C159.892 141.272 159.841 140.84 159.878 140.411V127.071H166.592V121.393H159.841V115.511H155.023ZM135.694 120.883C133.94 120.863 132.199 121.178 130.562 121.81C129.049 122.42 127.698 123.373 126.613 124.594C125.459 125.913 124.59 127.458 124.06 129.13C123.411 131.188 123.099 133.337 123.135 135.494C123.097 137.628 123.435 139.751 124.134 141.766C124.727 143.424 125.674 144.931 126.909 146.182C128.135 147.346 129.599 148.229 131.2 148.77C132.96 149.369 134.808 149.664 136.665 149.642C137.683 149.642 138.617 149.643 139.44 149.522C140.246 149.465 141.046 149.351 141.835 149.179C142.546 149.018 143.247 148.816 143.934 148.576C144.621 148.313 145.288 148.003 145.932 147.648V141.803C145.211 142.165 144.508 142.49 143.814 142.731C143.126 142.998 142.422 143.221 141.706 143.399C140.985 143.586 140.253 143.729 139.514 143.826C138.728 143.91 137.937 143.95 137.146 143.946C136.228 143.965 135.315 143.808 134.455 143.482C133.698 143.184 133.013 142.725 132.448 142.137C131.883 141.508 131.447 140.773 131.163 139.975C130.857 139.05 130.692 138.084 130.673 137.109H147.514V133.444C147.547 131.624 147.262 129.812 146.672 128.091C146.181 126.613 145.373 125.261 144.304 124.13C143.258 123.038 141.972 122.206 140.55 121.699C138.968 121.122 137.294 120.839 135.611 120.864L135.694 120.883ZM181.01 120.883C179.256 120.865 177.515 121.179 175.878 121.81C174.365 122.42 173.013 123.373 171.929 124.594C170.782 125.916 169.916 127.46 169.385 129.13C168.736 131.188 168.424 133.337 168.461 135.494C168.419 137.627 168.754 139.75 169.45 141.766C170.042 143.424 170.989 144.931 172.225 146.182C173.453 147.348 174.921 148.232 176.525 148.77C178.281 149.369 180.126 149.664 181.981 149.642C182.999 149.642 183.942 149.643 184.756 149.522C185.564 149.465 186.368 149.351 187.16 149.179C187.868 149.019 188.566 148.818 189.25 148.576C189.94 148.313 190.61 148.003 191.257 147.648V141.803C190.536 142.165 189.824 142.49 189.13 142.731C188.445 142.997 187.744 143.22 187.031 143.399C186.309 143.585 185.577 143.727 184.839 143.826C184.05 143.91 183.256 143.95 182.462 143.946C181.544 143.964 180.631 143.807 179.771 143.482C179.018 143.181 178.337 142.723 177.773 142.137C177.208 141.508 176.772 140.773 176.488 139.975C176.178 139.051 176.013 138.084 175.998 137.109H192.829V133.444C192.861 131.625 192.579 129.814 191.997 128.091C191.506 126.611 190.695 125.258 189.62 124.13C188.574 123.038 187.288 122.206 185.865 121.699C184.283 121.122 182.61 120.839 180.927 120.864L181.01 120.883ZM209.319 120.883C208.486 120.869 207.656 120.985 206.859 121.226C206.168 121.427 205.515 121.74 204.926 122.154C204.351 122.572 203.838 123.068 203.4 123.629C202.921 124.233 202.491 124.875 202.114 125.549H201.745L200.635 121.393H194.929V149.086H202.457V134.993C202.433 133.877 202.593 132.765 202.928 131.7C203.207 130.878 203.673 130.131 204.288 129.52C204.886 128.956 205.608 128.543 206.396 128.314C207.267 128.054 208.17 127.926 209.078 127.933H209.698C209.946 127.933 210.193 127.952 210.438 127.989C210.697 127.989 210.946 128.035 211.178 128.063C211.361 128.088 211.543 128.122 211.723 128.165V121.077C211.577 121.044 211.429 121.023 211.279 121.012C210.848 120.94 210.412 120.897 209.975 120.883C209.744 120.883 209.522 120.883 209.319 120.883ZM135.722 126.254C136.441 126.238 137.153 126.391 137.803 126.699C138.387 126.986 138.895 127.409 139.283 127.933C139.713 128.482 140.028 129.114 140.208 129.789C140.411 130.549 140.52 131.331 140.531 132.117H130.895C130.886 130.511 131.417 128.949 132.402 127.683C132.826 127.225 133.342 126.863 133.916 126.62C134.49 126.377 135.109 126.259 135.731 126.273L135.722 126.254ZM181.038 126.254C181.754 126.24 182.463 126.392 183.11 126.699C183.695 126.988 184.205 127.411 184.598 127.933C185.009 128.488 185.308 129.119 185.477 129.789C185.689 130.547 185.798 131.33 185.801 132.117H176.21C176.195 130.512 176.723 128.948 177.709 127.683C178.135 127.225 178.652 126.863 179.228 126.62C179.803 126.377 180.423 126.259 181.047 126.273L181.038 126.254Z" class="jmeter" fill="white"/>
<path d="M216.671 121.3H214.997V114.75H213.009V113.349H218.659V114.75H216.671V121.3Z" class="jmeter" fill="white"/>
<path d="M223.062 121.3L221.323 115.066H221.267C221.267 115.4 221.314 115.715 221.323 115.993C221.323 116.123 221.323 116.262 221.323 116.411C221.323 116.559 221.323 116.689 221.323 116.828C221.323 116.968 221.323 117.097 221.323 117.218C221.323 117.339 221.323 117.459 221.323 117.561V121.272H219.815V113.321H222.109L223.82 119.398L225.669 113.321H228V121.272H226.437V117.19C226.437 117.07 226.437 116.94 226.437 116.81C226.437 116.68 226.437 116.541 226.437 116.402C226.437 116.262 226.437 116.123 226.437 115.993C226.437 115.696 226.437 115.372 226.437 115.066H226.391L224.541 121.291H222.997" class="jmeter" fill="white"/>
<path d="M68.8583 107.792L74.2592 94.8038H75.3042L80.7144 107.792H79.3549L77.6717 103.747H71.8639L70.2085 107.792H68.8583ZM74.7863 96.3253L72.1321 102.736H77.3758L74.7863 96.3253Z" fill="#D22128"/>
<path d="M82.0923 107.792V94.8038H87.4284C88.4654 94.8587 89.4412 95.3128 90.1527 96.0715C90.8642 96.8302 91.2565 97.8349 91.2479 98.8766C91.2741 99.3896 91.1991 99.9028 91.0272 100.387C90.8553 100.871 90.59 101.316 90.2464 101.697C89.9027 102.078 89.4876 102.387 89.0247 102.607C88.5618 102.826 88.0602 102.952 87.5487 102.977H83.3593V107.764L82.0923 107.792ZM83.3593 101.873H87.4932C87.8532 101.846 88.2042 101.748 88.5259 101.584C88.8476 101.419 89.1334 101.192 89.3667 100.916C89.6 100.639 89.7761 100.319 89.8847 99.9739C89.9933 99.6286 90.0323 99.265 89.9994 98.9044C90.0427 98.1735 89.797 97.4549 89.3158 96.9044C88.8346 96.354 88.1565 96.0159 87.4284 95.9635H83.3593V101.873Z" fill="#D22128"/>
<path d="M90.5636 107.792L95.9645 94.8038H97.0095L102.42 107.792H101.032L99.3586 103.747H93.5507L91.8953 107.792H90.5636ZM96.4916 96.3253L93.8374 102.736H99.0811L96.4916 96.3253Z" fill="#D22128"/>
<path d="M108.514 94.7574C109.503 94.7082 110.485 94.9497 111.34 95.4524C112.194 95.955 112.883 96.6969 113.323 97.587L112.306 98.1993C111.961 97.4848 111.416 96.8866 110.738 96.478C110.06 96.0693 109.277 95.868 108.486 95.8985C105.398 95.8985 103.705 98.6818 103.705 101.279C103.705 104.137 105.795 106.735 108.542 106.735C109.363 106.749 110.171 106.531 110.874 106.106C111.577 105.681 112.147 105.066 112.519 104.332L113.573 104.879C113.086 105.808 112.35 106.583 111.448 107.116C110.546 107.648 109.514 107.918 108.468 107.894C104.926 107.894 102.42 104.489 102.42 101.214C102.393 100.388 102.529 99.5641 102.822 98.7909C103.114 98.0176 103.556 97.3103 104.123 96.7097C104.69 96.1092 105.37 95.6274 106.124 95.2923C106.877 94.9572 107.69 94.7754 108.514 94.7574Z" fill="#D22128"/>
<path d="M125.503 94.8316V107.82H124.227V101.762H116.579V107.82H115.321V94.8316H116.579V100.602H124.227V94.8316H125.503Z" fill="#D22128"/>
<path d="M137.091 106.66V107.792H128.416V94.8038H136.934V95.9356H129.674V100.574H136V101.66H129.674V106.595L137.091 106.66Z" fill="#D22128"/>
<linearGradient id="linearGradient1" x1="21.4846" y1="175.22" x2="219.858" y2="27.076" gradientUnits="userSpaceOnUse">
<stop stop-color="#F69923"/>
<stop offset="0.31" stop-color="#F79A23"/>
<stop offset="0.84" stop-color="#E97826"/>
</linearGradient>
<linearGradient id="linearGradient2" x1="-449.018" y1="384.935" x2="-418.705" y2="70.9367" gradientUnits="userSpaceOnUse">
<stop offset="0.32" stop-color="#9E2064"/>
<stop offset="0.63" stop-color="#C92037"/>
<stop offset="0.75" stop-color="#CD2335"/>
<stop offset="1" stop-color="#E97826"/>
</linearGradient>
<linearGradient id="linearGradient3" x1="-49.1875" y1="257.704" x2="-4.72973" y2="-8.6465" gradientUnits="userSpaceOnUse">
<stop stop-color="#282662"/>
<stop offset="0.1" stop-color="#662E8D"/>
<stop offset="0.79" stop-color="#9F2064"/>
<stop offset="0.95" stop-color="#CD2032"/>
</linearGradient>
<linearGradient id="linearGradient4" x1="-166.396" y1="222.508" x2="-153.962" y2="44.7324" gradientUnits="userSpaceOnUse">
<stop offset="0.32" stop-color="#9E2064"/>
<stop offset="0.63" stop-color="#C92037"/>
<stop offset="0.75" stop-color="#CD2335"/>
<stop offset="1" stop-color="#E97826"/>
</linearGradient>
<linearGradient id="linearGradient5" x1="-62.3479" y1="159.867" x2="-57.6498" y2="61.3661" gradientUnits="userSpaceOnUse">
<stop stop-color="#282662"/>
<stop offset="0.1" stop-color="#662E8D"/>
<stop offset="0.79" stop-color="#9F2064"/>
<stop offset="0.95" stop-color="#CD2032"/>
</linearGradient>
<linearGradient id="linearGradient6" x1="-63.1751" y1="235.682" x2="-39.4598" y2="39.9692" gradientUnits="userSpaceOnUse">
<stop offset="0.32" stop-color="#9E2064"/>
<stop offset="0.63" stop-color="#C92037"/>
<stop offset="0.75" stop-color="#CD2335"/>
<stop offset="1" stop-color="#E97826"/>
</linearGradient>
<linearGradient id="linearGradient7" x1="-261.108" y1="438.053" x2="-199.544" y2="74.2533" gradientUnits="userSpaceOnUse">
<stop offset="0.32" stop-color="#9E2064"/>
<stop offset="0.63" stop-color="#C92037"/>
<stop offset="0.75" stop-color="#CD2335"/>
<stop offset="1" stop-color="#E97826"/>
</linearGradient>
<linearGradient id="linearGradient8" x1="-9940.84" y1="46144.8" x2="29820.1" y2="5350.4" gradientUnits="userSpaceOnUse">
<stop offset="0.32" stop-color="#9E2064"/>
<stop offset="0.63" stop-color="#C92037"/>
<stop offset="0.75" stop-color="#CD2335"/>
<stop offset="1" stop-color="#E97826"/>
</linearGradient>
</svg>