<svg width="256" height="256" title="Apache Hop" viewBox="0 0 256 256" fill="none" xmlns="http://www.w3.org/2000/svg">
<rect width="256" height="256" rx="40" fill="#0E3A5A"/>
<path d="M115.511 110.526C111.466 114.93 108.876 121.13 107.741 129.123L102.231 167.907C101.096 175.901 101.926 182.099 104.719 186.503C105.788 188.136 107.516 189.727 109.902 191.275C112.286 192.825 115.635 193.6 119.951 193.6C124.347 193.6 127.937 192.825 130.722 191.275C133.506 189.727 135.665 188.136 137.199 186.503C141.245 182.099 143.834 175.901 144.969 167.907L150.479 129.123C151.614 121.13 150.785 114.93 147.991 110.526C146.92 108.895 145.213 107.304 142.869 105.754C140.525 104.205 137.155 103.429 132.759 103.429C130.561 103.429 128.575 103.655 126.802 104.103C125.029 104.552 123.421 105.123 121.979 105.816C120.538 106.509 119.29 107.265 118.239 108.079C117.186 108.895 116.277 109.711 115.511 110.526ZM121.412 120.986C122.375 119.07 123.448 117.683 124.629 116.826C125.807 115.97 126.959 115.461 128.082 115.297C129.203 115.135 130.211 115.052 131.108 115.052C131.921 115.052 132.885 115.135 134.004 115.297C135.119 115.461 136.146 115.97 137.084 116.826C138.019 117.683 138.698 119.07 139.118 120.986C139.537 122.903 139.498 125.616 139.001 129.122L133.491 167.906C132.982 171.496 132.244 174.249 131.28 176.164C130.315 178.082 129.243 179.468 128.064 180.325C126.883 181.181 125.712 181.691 124.55 181.854C123.386 182.019 122.397 182.099 121.584 182.099C120.688 182.099 119.703 182.019 118.628 181.854C117.552 181.691 116.544 181.181 115.609 180.325C114.672 179.468 113.993 178.082 113.575 176.164C113.154 174.249 113.2 171.496 113.71 167.906L119.219 129.122C119.716 125.616 120.447 122.903 121.412 120.986ZM202.53 110.234C201.36 118.473 198.641 124.713 194.376 128.953C189.819 133.522 183.674 135.805 175.941 135.805L177.592 124.182C180.767 124.182 182.975 123.815 184.22 123.081C185.464 122.346 186.277 121.776 186.661 121.367C188.718 119.492 190.141 115.782 190.929 110.234C191.347 107.296 191.438 104.933 191.204 103.137C190.971 101.344 190.454 99.9561 189.658 98.9772C188.86 97.9989 187.773 97.3466 186.396 97.0201C185.016 96.6942 183.391 96.53 181.519 96.53H174.316L170.389 124.181L168.737 135.804L163.159 175.077H163.156C160.475 197.094 140.381 215 118.345 215C107.424 215 97.6182 210.714 90.7342 202.932C84.1152 195.449 81.007 185.651 81.8833 175.2H81.8189L82.0306 173.67C82.0312 173.666 82.0312 173.663 82.0318 173.658H82.0324L84.7675 153.892H67.4284L64.4798 175.2H53L65.8078 85.029H77.2863L69.0774 142.269H86.4164L97.8036 62.9799L88.3998 62.266L105.271 42L118.901 64.5816L109.283 63.8511L93.4183 175.201H93.3956C92.5119 182.858 94.6082 189.996 99.3132 195.315C103.991 200.604 110.75 203.516 118.345 203.516C134.793 203.516 149.792 190.122 151.781 173.659L151.88 173.671L164.488 84.9078H183.17C190.821 84.9078 196.323 87.1521 199.675 91.6369C202.724 95.9607 203.677 102.159 202.53 110.234Z" fill="white"/>
</svg>