<?xml version="1.0" encoding="UTF-8"?>
<svg id="apidog" width="256" height="256" fill="none" title="ApiDog" version="1.1" viewBox="0 0 256 256" xmlns="http://www.w3.org/2000/svg">
 <style>#apidog {
    rect {fill: #15191C}

    @media (prefers-color-scheme: light) {
        rect {fill: #F4F2ED}
    }
}</style>
 <rect width="256" height="256" rx="40" fill="#f4f2ed"/>
 <path d="m173.87 162.24-2.828-2.822-0.53-0.483c-11.274-10.958-26.376-17.086-42.097-17.083-15.733 0-30.836 6.128-42.097 17.089l-0.3654 0.353-2.7931 2.829-5.9809 5.969c-1.6927 1.711-3.7079 3.07-5.9291 3.997-2.2211 0.928-4.6041 1.406-7.0111 1.406-4.8352 2e-3 -9.4737-1.914-12.899-5.327-1.6922-1.687-3.0349-3.692-3.951-5.9-0.916-2.207-1.3876-4.573-1.3876-6.963s0.4716-4.757 1.3876-6.964c0.9161-2.207 2.2588-4.212 3.951-5.9l12.899-12.869-12.74-12.663c-1.7245-1.681-3.098-3.688-4.0406-5.904-0.9426-2.217-1.4357-4.598-1.4505-7.006s0.449-4.7957 1.3643-7.0233 2.264-4.2512 3.9677-5.9533c3.4243-3.4148 8.0629-5.3324 12.899-5.3324s9.4746 1.9176 12.899 5.3324l9.3398 9.3106c11.279 10.95 26.382 17.074 42.103 17.071 15.727 0 30.83-6.129 42.097-17.071 0.114-0.154 0.251-0.289 0.406-0.401l5.292-5.3269 3.523-3.4648c1.684-1.6955 3.687-3.0395 5.895-3.954 2.207-0.9145 4.574-1.3812 6.963-1.3729 4.833 0 9.469 1.9155 12.893 5.3269 2.561 2.5482 4.303 5.8019 5.005 9.3457 0.703 3.543 0.332 7.216-1.063 10.548-0.938 2.225-2.317 4.237-4.054 5.916l-12.781 12.746 12.781 12.745c1.733 1.688 3.109 3.707 4.046 5.937 0.938 2.23 1.417 4.626 1.411 7.045 0 4.82-1.921 9.445-5.345 12.857-3.417 3.413-8.049 5.329-12.878 5.329s-9.461-1.916-12.878-5.329l-6.064-6.046 0.041 6e-3z" fill="url(#linearGradient1)"/>
 <path d="m161.19 47.373c2.216 0.9134 4.225 2.2569 5.917 3.9481 3.401 3.4124 5.308 8.0363 5.3 12.854s-1.929 9.4358-5.342 12.837l-12.899 12.864-0.324 0.2828c-6.805 6.6319-15.932 10.344-25.435 10.344s-18.63-3.7119-25.435-10.344l-0.325-0.2828-12.904-12.864c-3.3834-3.4161-5.2746-8.0342-5.2591-12.842 0.0154-4.808 1.9363-9.4139 5.3416-12.808 3.4103-3.407 8.0315-5.3242 12.852-5.3319 4.821-0.0077 9.448 1.8946 12.869 5.2907l12.905 12.864 12.858-12.864c3.425-3.4128 8.064-5.3267 12.899-5.321 2.398-0.0059 4.773 0.4596 6.982 1.3729z" fill="url(#linearGradient2)"/>
 <path d="m95.698 209.62c-2.213-0.913-4.2236-2.255-5.9162-3.948-3.4014-3.413-5.308-8.036-5.3003-12.855 0.0078-4.818 1.9292-9.435 5.3416-12.837l12.905-12.869 0.318-0.277c6.806-6.634 15.934-10.347 25.439-10.347 9.504 0 18.632 3.713 25.438 10.347l0.324 0.277 12.899 12.869c3.383 3.416 5.274 8.034 5.259 12.842s-1.936 9.414-5.342 12.809c-3.41 3.407-8.031 5.324-12.852 5.332-4.82 7e-3 -9.448-1.895-12.869-5.291l-12.899-12.87-12.857 12.87c-1.697 1.691-3.709 3.031-5.924 3.944-2.214 0.913-4.586 1.381-6.981 1.377-2.395 7e-3 -4.7685-0.46-6.9829-1.373z" fill="url(#linearGradient3)"/>
 <linearGradient id="linearGradient1" x1="46" x2="241.87" y1="48.908" y2="104.36" gradientUnits="userSpaceOnUse">
  <stop stop-color="#3bf" offset="0"/>
  <stop stop-color="#33f" offset="1"/>
 </linearGradient>
 <linearGradient id="linearGradient2" x1="215.68" x2="-.41188" y1="217.69" y2="134.42" gradientUnits="userSpaceOnUse">
  <stop stop-color="#99C2FF" offset="0"/>
  <stop stop-color="#EBF3FF" offset="1"/>
 </linearGradient>
 <linearGradient id="linearGradient3" x1="128.4" x2="105.29" y1="210.99" y2="159.43" gradientUnits="userSpaceOnUse">
  <stop stop-color="#99C2FF" offset="0"/>
  <stop stop-color="#EBF3FF" offset="1"/>
 </linearGradient>
</svg>
