<?xml version="1.0" encoding="UTF-8"?>
<svg id="apifox" width="256" height="256" fill="none" title="ApiFox" version="1.1" viewBox="0 0 256 256" xmlns="http://www.w3.org/2000/svg">
 <style>#apifox {
    rect {fill: #15191C}

    @media (prefers-color-scheme: light) {
        rect {fill: #F4F2ED}
    }
}</style>
 <rect width="256" height="256" rx="40" fill="#f4f2ed"/>
 <path d="m189.12 154.32c-0.866 0.058-1.734 0.087-2.602 0.085h-0.864c1.278-4.963 1.636-10.118 1.056-15.209-5.225 2.603-10.944 4.073-16.779 4.31 0.543-2.732 0.817-5.51 0.816-8.296 0-2.996-0.315-5.986-0.944-8.913-4.355 2.575-9.145 4.335-14.134 5.194l-0.032-0.048c0.532-2.7 0.8-5.444 0.8-8.195 1e-3 -2.534-0.226-5.063-0.677-7.557-4.392 4.633-9.686 8.321-15.557 10.84-5.864 2.512-12.179 3.805-18.561 3.8-7.534 0.01-14.959-1.797-21.642-5.269 3.045-1.185 5.94-2.725 8.624-4.587-7.144-3.45-13.165-8.844-17.371-15.56-5.6052-8.9504-7.6593-19.667-5.7601-30.05 0.8843-4.9391 2.6588-9.6773 5.2374-13.985 1.4471-2.4372 3.1254-4.7059 5.0347-6.8061-14.275 6.5331-26.366 17.022-34.835 30.218-8.4685 13.196-12.957 28.543-12.931 44.212-0.0246 13.675 3.3899 27.138 9.9308 39.155 0.4427-3.937 1.44-7.801 2.9654-11.462 4.9192 11.936 12.73 22.468 22.731 30.651 9.9766 8.164 21.837 13.716 34.507 16.151-2.169-2.849-3.97-5.96-5.36-9.259 6.741 2.197 13.76 3.4 20.838 3.576l1.893 0.021c11.254 0.015 22.359-2.571 32.443-7.556-1.678-0.956-3.289-2.025-4.821-3.199 16.556-6.384 30.075-18.786 37.84-34.711-3.81 1.388-7.797 2.212-11.846 2.448z" fill="url(#linearGradient1)"/>
 <path d="m207.83 115.55c-0.407-5.349-1.427-10.634-3.04-15.752-0.641 1.7335-1.454 3.3985-2.427 4.9705-1.258-8.3509-4.178-16.366-8.586-23.574-7.933-12.962-20.297-22.622-34.811-27.198 5.398 7.0084 8.724 15.384 9.6 24.181l0.08 0.9206v0.1596l0.064 0.9153c0.034 0.5582 0.055 1.1171 0.064 1.6763v1.1068c0.016 9.6628-2.93 19.1-8.443 27.044 1.018 4.831 1.186 9.803 0.496 14.692 2.667-0.633 5.269-1.532 7.76-2.687 1.849-0.852 3.628-1.834 5.339-2.948 0.352 1.217 0.645 2.458 0.88 3.725 0.497 2.625 0.746 5.273 0.746 7.945 0 2.121-0.16 4.232-0.48 6.332 5.639-0.593 11.096-2.329 16.038-5.103 0.441 2.47 0.662 4.973 0.661 7.482 0 2.921-0.298 5.832-0.896 8.69 4.344-0.184 8.633-1.046 12.71-2.555 2.922-7.854 4.416-16.177 4.405-24.563 0.032-1.841-0.021-3.661-0.16-5.46z" fill="url(#linearGradient2)"/>
 <linearGradient id="linearGradient1" x1="48" x2="196.08" y1="53.926" y2="220.17" gradientUnits="userSpaceOnUse">
  <stop stop-color="#FF4385" offset=".01"/>
  <stop stop-color="#FF4274" offset=".276"/>
  <stop stop-color="#FF5C65" offset=".724"/>
  <stop stop-color="#FF5C35" offset="1"/>
 </linearGradient>
 <linearGradient id="linearGradient2" x1="48" x2="196.62" y1="54" y2="213.6" gradientUnits="userSpaceOnUse">
  <stop stop-color="#FF4385" offset=".01"/>
  <stop stop-color="#FF4274" offset=".276"/>
  <stop stop-color="#FF5C65" offset=".724"/>
  <stop stop-color="#FF5C35" offset="1"/>
 </linearGradient>
</svg>
