<?xml version="1.0" encoding="UTF-8"?>
<svg id="apktool" width="256" height="256" fill="none" title="Apktool" version="1.1" viewBox="0 0 256 256" xmlns="http://www.w3.org/2000/svg">
 <style>#apktool {
    rect {fill: #15191C}

    @media (prefers-color-scheme: light) {
        rect {fill: #F4F2ED}
    }
}</style>
 <rect width="256" height="256" rx="40" fill="#f4f2ed"/>
 <path d="m112.64 80.695h-27.016-27.016c0-14.863 12.096-24.502 27.016-24.502 14.921 0 27.016 9.6389 27.016 24.502z" fill="#AFCC4A"/>
 <path d="m71.516 67.038h4.0323v4.0167h-4.0323v-4.0167z" fill="#f4f2ed"/>
 <path d="m95.71 67.038h4.0322v4.0167h-4.0322v-4.0167z" fill="#f4f2ed"/>
 <g fill="#AFCC4A">
  <path d="m69.902 50 6.5374 11.082-2.0858 1.221-6.5374-11.082 2.0858-1.221z"/>
  <path d="m101.77 50-6.5378 11.082 2.0859 1.221 6.5369-11.082-2.085-1.221z"/>
  <path d="m58.613 82.302h54.032v33.74h-54.032v-33.74z"/>
  <path d="m58.613 82.302h25v52.217h-25v-52.217z"/>
  <path d="m87.645 82.302h25v52.217h-25v-52.217z"/>
 </g>
 <path d="m83.613 98.369h4.0323v4.0163h-4.0323v-4.0163z" fill="#f4f2ed"/>
 <g fill="#AFCC4A">
  <path d="m87.645 126.49h25v23.297h-25v-23.297z"/>
  <path d="m115.06 82.302h35.483v16.067h-35.483v-16.067z"/>
  <path d="m115.06 92.745h16.129v57.038h-16.129v-57.038z"/>
  <path d="m134.42 98.369 8.065-9.8687 8.064 9.8687v32.133h-16.129v-32.133z"/>
  <path d="m115.06 116.04h35.483v14.46h-35.483v-14.46z"/>
 </g>
 <path d="m131.19 98.369h3.225v17.673h-3.225v-17.673z" fill="#f4f2ed"/>
 <g fill="#AFCC4A">
  <path d="m152.97 82.302h16.129v67.481h-16.129v-67.481z"/>
  <path d="m172.32 82.302h16.935v23.297h-16.935v-23.297z"/>
  <path d="m165.87 98.369h16.129v18.477h-16.129v-18.477z"/>
  <path d="m172.32 108.81h16.935v40.167h-16.935v-40.167z"/>
 </g>
 <path d="m57 134.52h36.29v16.87h-36.29v-16.87z" fill="#11C9B9"/>
 <path d="m66.677 144.96h16.936v57.037h-16.936v-57.037z" fill="#11C9B9"/>
 <path d="m104.58 144.96h20.161v49.807h-20.161v-49.807z" fill="#f4f2ed"/>
 <g fill="#11C9B9">
  <path d="m94.903 185.93h36.291v16.067h-36.291v-16.067z"/>
  <path d="m94.903 134.52h36.291v16.067h-36.291v-16.067z"/>
  <path d="m94.903 144.96h16.936v47.397h-16.936v-47.397z"/>
  <path d="m114.26 144.96h16.936v47.397h-16.936v-47.397z"/>
 </g>
 <path d="m142.48 144.96h20.161v49.807h-20.161v-49.807z" fill="#f4f2ed"/>
 <path d="m132.81 185.93h36.291v16.067h-36.291v-16.067z" fill="#11C9B9"/>
 <path d="m132.81 134.52h36.291v16.067h-36.291v-16.067z" fill="#11C9B9"/>
 <path d="m132.81 144.96h16.936v47.397h-16.936z" fill="#11c9b9"/>
 <path d="m152.16 144.96h16.936v47.397h-16.936z" fill="#11c9b9"/>
 <path d="M170.71 134.519H188.452V202H170.71V134.519Z" fill="#11C9B9"/>
 <path d="M175.548 185.933H207V202H175.548V185.933Z" fill="#11C9B9"/>
</svg>
