<svg width="256" height="256" title="Appian" viewBox="0 0 256 256" fill="none" xmlns="http://www.w3.org/2000/svg">
<rect width="256" height="256" rx="40" fill="#2621F6"/>
<path d="M142.375 115.245C141.45 116.24 141.237 117.52 141.237 118.87V147.156H150.842V106.361L142.375 115.245Z" fill="white"/>
<path d="M141.165 93V108.067L150.771 97.9039V93H141.165Z" fill="white"/>
<path d="M136.327 111.763C136.113 103.163 132.983 99.8228 124.587 99.8228C120.673 99.8228 106.229 99.8228 106.229 99.8228V164H115.621V147.085C117.187 147.085 121.456 147.085 124.587 147.085C132.983 147.085 136.113 143.603 136.327 135.003C136.327 134.79 136.327 111.976 136.327 111.763ZM121.171 139.054C117.4 139.054 115.621 139.054 115.621 135.785V110.981C115.621 107.712 117.4 107.712 121.171 107.712C124.729 107.712 126.721 107.712 126.721 110.981V135.785C126.721 139.054 124.729 138.983 121.171 139.054Z" fill="white"/>
<path d="M101.248 111.763C101.035 103.163 97.9039 99.8228 89.5077 99.8228C85.5942 99.8228 71.15 99.8228 71.15 99.8228V164H80.4712V147.085C82.0366 147.085 86.3058 147.085 89.4366 147.085C97.8327 147.085 100.963 143.603 101.177 135.003C101.248 134.79 101.248 111.976 101.248 111.763ZM86.0923 139.054C82.3212 139.054 80.5423 139.054 80.5423 135.785V110.981C80.5423 107.712 82.3212 107.712 86.0923 107.712C89.65 107.712 91.6423 107.712 91.6423 110.981V135.785C91.6423 139.054 89.65 138.983 86.0923 139.054Z" fill="white"/>
<path d="M211.394 111.052C211.394 107.783 209.402 107.783 205.844 107.783C202.073 107.783 200.294 107.783 200.294 111.052V147.085H190.76V99.8228C190.76 99.8228 205.417 99.8228 209.26 99.8228C217.656 99.8228 220.787 103.305 221 111.905C221 112.118 221 147.156 221 147.156H211.394V111.052Z" fill="white"/>
<path d="M185.85 111.834C185.637 103.234 182.363 99.7518 173.967 99.7518C173.54 99.7518 164.646 99.7518 161.515 99.7518V107.783C170.623 107.783 170.125 107.783 170.552 107.783C174.11 107.783 176.102 107.783 176.102 111.052V115.743C174.394 115.743 170.338 115.672 167.35 115.672C158.954 115.672 155.823 119.154 155.61 127.754C155.61 127.967 155.61 134.932 155.61 135.145C155.823 143.745 158.954 147.156 167.35 147.156C171.263 147.156 185.85 147.156 185.85 147.156V111.834ZM176.387 135.856C176.387 139.125 174.608 139.125 170.837 139.125C167.279 139.125 165.287 139.125 165.287 135.856V126.901C165.287 123.632 167.279 123.632 170.837 123.632C174.608 123.632 176.387 123.632 176.387 126.901V135.856Z" fill="white"/>
<path d="M66.2404 111.834C66.0269 103.234 62.7538 99.7518 54.3577 99.7518C53.9308 99.7518 45.0365 99.7518 41.9058 99.7518V107.783C51.0135 107.783 50.5154 107.783 50.9423 107.783C54.5 107.783 56.4923 107.783 56.4923 111.052V115.743C54.8558 115.743 50.8 115.672 47.7404 115.672C39.3442 115.672 36.2135 119.083 36 127.754C36 127.967 36 134.932 36 135.145C36.2135 143.247 38.9885 146.73 46.3885 147.156L54.0019 139.125C53.2192 139.196 52.2942 139.196 51.1558 139.196C47.5981 139.196 45.6058 139.196 45.6058 135.927V126.901C45.6058 123.632 47.5981 123.632 51.1558 123.632C54.9269 123.632 56.7058 123.632 56.7058 126.901V147.085C57.0615 147.085 66.2404 147.085 66.2404 147.085V111.834Z" fill="white"/>
</svg>