<?xml version="1.0" encoding="UTF-8"?>
<svg id="appium" width="256" height="256" fill="none" title="Appium" version="1.1" viewBox="0 0 256 256" xmlns="http://www.w3.org/2000/svg">
 <style>#appium {
    rect {fill: #15191C}

    @media (prefers-color-scheme: light) {
        rect {fill: #F4F2ED}
    }
}</style>
 <rect width="256" height="256" rx="40" fill="#f4f2ed"/>
 <path d="m168.39 120.56c-1.02 2.421-2.151 4.786-3.395 7.094-13.691-17.427-33.654-28.812-55.624-31.722-3.714-0.4856-7.455-0.7296-11.2-0.7305-19.786-0.0296-38.958 6.8733-54.184 19.508 2.1161-13.361 7.3904-26.024 15.384-36.937 7.9941-10.913 18.477-19.76 30.578-25.807 12.102-6.0469 25.47-9.1185 38.998-8.9596 13.526 0.1589 26.82 3.5437 38.776 9.8732v0.0578c1.801 4.0657 3.284 8.2652 4.435 12.561 4.933 18.259 3.607 37.646-3.768 55.062z" fill="#FCBA11"/>
 <path d="m158.04 207.62c-12.535 4.747-26.014 6.462-39.338 5.005-13.324-1.456-26.114-6.042-37.328-13.383-11.214-7.342-20.532-17.231-27.196-28.861-6.6632-11.629-10.482-24.67-11.145-38.056l0.0315-0.042c11.441-16.146 28.177-27.774 47.3-32.863 3.6167-0.9697 7.2929-1.7017 11.005-2.1916 2.596-0.3504 5.18-0.5676 7.752-0.6517-4.184 10.493-6.235 21.715-6.034 33.01s2.651 22.437 7.206 32.775c4.555 10.337 11.124 19.664 19.324 27.435s17.865 13.83 28.433 17.823h-0.011z" fill="#61C2D9"/>
 <path d="m213 128.07c0.012 12.521-2.748 24.891-8.082 36.22s-13.109 21.336-22.768 29.305c-3.248 2.691-6.969 5.471-8.671 6.307-11.667-1.186-22.965-4.755-33.195-10.487-10.23-5.731-19.174-13.503-26.277-22.833-1.576-2.078-3.06-4.239-4.451-6.485 20.395-2.756 39.099-12.815 52.643-28.31s21.01-35.377 21.013-55.957c-6e-3 -4.4492-0.358-8.8912-1.051-13.286 9.654 7.9721 17.425 17.981 22.757 29.309 5.332 11.329 8.092 23.696 8.082 36.217z" fill="#EC366D"/>
 <path d="m213 128.08c0.012 12.522-2.748 24.891-8.082 36.22s-13.109 21.337-22.768 29.306c-3.248 2.69-6.969 5.465-8.666 6.306-11.666-1.185-22.964-4.753-33.194-10.484s-19.174-13.501-26.278-22.83c-1.576-2.078-3.06-4.24-4.451-6.486 19.648 6.117 40.848 4.903 59.669-3.418 18.821-8.32 33.988-23.183 42.687-41.832l0.048-0.094c0.688 4.404 1.034 8.854 1.035 13.312z" fill="url(#linearGradient1)" style="mix-blend-mode:multiply"/>
 <path d="m82.458 154.27c-0.9278 19.043 4.5509 37.848 15.562 53.412-15.629-5.873-29.182-16.219-38.966-29.747-9.7849-13.529-15.368-29.639-16.053-46.321 0 0.221 0.042 0.452 0.0631 0.678 11.441-16.146 28.177-27.774 47.3-32.863 3.6166-0.9696 7.2928-1.7017 11.005-2.1915 2.596-0.3504 5.18-0.5676 7.752-0.6517-15.989 15.075-25.537 35.743-26.651 57.69l-0.0105-6e-3z" fill="#61C2D9"/>
 <path d="m82.458 154.27c-0.9278 19.043 4.5509 37.848 15.562 53.412-15.629-5.873-29.182-16.219-38.966-29.747-9.7849-13.529-15.368-29.639-16.053-46.321 0 0.221 0.042 0.452 0.0631 0.678 11.441-16.146 28.177-27.774 47.3-32.863 3.6166-0.9696 7.2928-1.7017 11.005-2.1915 2.596-0.3504 5.18-0.5676 7.752-0.6517-15.989 15.075-25.537 35.743-26.651 57.69l-0.0105-6e-3z" fill="url(#linearGradient2)" style="mix-blend-mode:multiply"/>
 <path d="m168.39 120.56c-1.02 2.421-2.151 4.786-3.395 7.094-5.043-21.582-18.323-40.339-37.004-52.266-3.161-2.0083-6.449-3.8095-9.844-5.3921-13.792-6.463-29.074-9.0796-44.23-7.5732 12.946-10.677 28.763-17.281 45.458-18.979 16.694-1.6976 33.518 1.5872 48.347 9.4399v0.0578c1.802 4.0656 3.285 8.2652 4.436 12.561 4.932 18.258 3.606 37.641-3.768 55.057z" fill="url(#linearGradient3)" style="mix-blend-mode:multiply"/>
 <path d="m213 128.08c0.012 12.522-2.748 24.891-8.082 36.22s-13.109 21.337-22.768 29.306c-3.248 2.69-6.969 5.465-8.666 6.306-11.666-1.185-22.964-4.753-33.194-10.484s-19.174-13.501-26.278-22.83c-1.576-2.078-3.06-4.24-4.451-6.486 19.648 6.117 40.848 4.903 59.669-3.418 18.821-8.32 33.988-23.183 42.687-41.832l0.048-0.094c0.688 4.404 1.034 8.854 1.035 13.312z" fill="url(#linearGradient1)" style="mix-blend-mode:multiply"/>
 <linearGradient id="linearGradient1" x1="209.35" x2="81.113" y1="151.45" y2="196.84" gradientUnits="userSpaceOnUse">
  <stop stop-color="#EE376D" stop-opacity="0" offset="0"/>
  <stop stop-color="#E9376D" stop-opacity=".06" offset=".14"/>
  <stop stop-color="#DB386E" stop-opacity=".22" offset=".37"/>
  <stop stop-color="#C6396F" stop-opacity=".48" offset=".68"/>
  <stop stop-color="#AB3B70" stop-opacity=".8" offset="1"/>
 </linearGradient>
 <linearGradient id="linearGradient2" x1="99.117" x2="135.15" y1="184.15" y2="-19.233" gradientUnits="userSpaceOnUse">
  <stop stop-color="#65C9D3" stop-opacity="0" offset="0"/>
  <stop stop-color="#65C9D3" offset="1"/>
 </linearGradient>
 <linearGradient id="linearGradient3" x1="43" x2="213.02" y1="128.1" y2="128.1" gradientUnits="userSpaceOnUse">
  <stop stop-color="#FFCA04" stop-opacity="0" offset="0"/>
  <stop stop-color="#FFCA04" stop-opacity=".07" offset=".1"/>
  <stop stop-color="#FFCA04" stop-opacity=".25" offset=".31"/>
  <stop stop-color="#FFCA04" stop-opacity=".54" offset=".59"/>
  <stop stop-color="#FFCA04" stop-opacity=".94" offset=".95"/>
  <stop stop-color="#FFCA04" offset="1"/>
 </linearGradient>
</svg>
