<svg width="256" height="256" title="Appwrite" viewBox="0 0 256 256" fill="none" xmlns="http://www.w3.org/2000/svg">
<rect width="256" height="256" rx="40" fill="#FD366E"/>
<path d="M208 162.813V198.08H118.38C100.496 198.082 83.2792 191.29 70.213 179.079C57.1468 166.868 49.2069 150.15 48 132.307L48 122.773C48.32 117.873 49.16 113.02 50.4933 108.3C58.8667 78.6933 86.0867 57 118.38 57C150.673 57 177.893 78.6933 186.267 108.3H147.94C144.74 103.376 140.359 99.3303 135.196 96.5312C130.033 93.7322 124.253 92.2685 118.38 92.2733C112.507 92.2678 106.726 93.7313 101.563 96.5304C96.4007 99.3296 92.0199 103.376 88.82 108.3C85.0733 114.015 83.0889 120.706 83.1133 127.54C83.1055 132.346 84.0835 137.102 85.987 141.514C87.8905 145.926 90.679 149.902 94.18 153.193C100.717 159.382 109.379 162.825 118.38 162.813H208ZM208 117.92V153.193H142.58C146.08 149.901 148.869 145.926 150.773 141.513C152.678 137.101 153.658 132.346 153.653 127.54C153.653 124.207 153.187 120.98 152.327 117.92H208Z" fill="white"/>
</svg>