<?xml version="1.0" encoding="UTF-8"?>
<svg id="arcbrowser" width="256" height="256" fill="none" title="Arc Browser" version="1.1" viewBox="0 0 256 256" xmlns="http://www.w3.org/2000/svg">
 <style>#arcbrowser {
    rect {fill: #15191C}

    @media (prefers-color-scheme: light) {
        rect {fill: #F4F2ED}
    }
}</style>
 <rect width="256" height="256" rx="40" fill="#f4f2ed"/>
 <path d="m125.68 58.008c8.918 0.2566 16.972 5.4914 20.831 13.592l15.315 32.216 0.246-0.622c0.608-1.606 1.107-3.2511 1.492-4.9244l0.214-0.9978c2.581-12.903 15.123-21.255 28.05-18.702 3.071 0.6133 5.99 1.8256 8.592 3.5675 2.602 1.742 4.835 3.9794 6.572 6.5846 1.736 2.6052 2.943 5.5271 3.55 8.5987 0.608 3.072 0.604 6.233-0.011 9.303-3.44 17.178-12.307 33.12-25.026 45.751l-0.403 0.391 5.369 11.288c6.231 13.103-0.225 28.941-13.793 33.386l-0.612 0.192-0.468 0.141c-2.076 0.584-4.222 0.882-6.379 0.885-4.508 0-8.925-1.278-12.737-3.685-3.813-2.407-6.865-5.845-8.803-9.916l-4.144-8.713-1.046 0.259c-5.602 1.324-11.284 2.058-16.969 2.17l-1.55 0.016c-5.471 0-11.032-0.636-16.587-1.869l-1.096-0.256-3.981 8.371c-2.6848 5.644-7.4793 10.008-13.351 12.151l-0.709 0.246c-3.0579 1.008-6.2886 1.386-9.4967 1.111-3.2082-0.275-6.3273-1.198-9.1689-2.712-11.318-6.016-15.634-20.101-10.111-31.734l4.9435-10.395-0.4318-0.419c-6.7773-6.686-12.15-14.285-15.714-22.454l-0.475-1.117-0.0684-0.181c-4.9055-12.197 0.9855-26.081 13.175-31.016 9.5609-3.8704 20.16-1.0911 26.677 6.1729l0.1224 0.141 15.756-33.143c1.868-3.9921 4.81-7.3859 8.496-9.8017 3.687-2.4159 7.973-3.7585 12.378-3.8778l0.668-0.0064 0.684 0.0077z" fill="#fff"/>
 <path d="m102.15 167.6 14.112-29.692c-10.779-2.289-21.624-8.957-27.758-17.069l-14.757 31.025c8.2003 6.956 18.046 12.424 28.403 15.736z" fill="#1A007F"/>
 <path d="m161.05 119.95c-7.09 8.69-16.935 15.135-27.47 17.647l14.068 29.603c10.268-3.468 19.869-9.068 28.16-16.246l-14.758-31.004z" fill="#4E000A"/>
 <path d="m73.748 151.86-7.3786 15.514c-3.7563 7.889-0.9339 17.602 6.8004 21.713 8.201 4.356 18.291 0.956 22.247-7.334l6.7343-14.157c-10.399-3.353-20.046-8.697-28.403-15.736z" fill="#1A007F"/>
 <path d="m190.34 86.079c-2.087-0.4178-4.236-0.4204-6.323-0.0076-2.088 0.4127-4.074 1.2328-5.845 2.4133s-3.292 2.6983-4.476 4.4667-2.008 3.7528-2.425 5.8397c-1.555 7.779-5.2 15.024-10.223 21.181l14.735 31.025c13.602-11.801 23.647-27.869 27.248-45.85 1.755-8.8007-3.935-17.335-12.691-19.068z" fill="#FF9396"/>
 <path d="m133.58 137.6c-3.156 0.755-6.378 1.155-9.601 1.155-2.511 0-5.111-0.289-7.712-0.844-10.779-2.289-21.624-8.957-27.758-17.069-1.534-2.022-2.7779-4.134-3.6448-6.29-3.3561-8.289-12.802-12.289-21.092-8.956-8.2899 3.356-12.289 12.802-8.9564 21.091 3.8002 9.423 10.512 18.068 18.936 25.18 8.3489 7.038 17.988 12.383 28.38 15.736 7.134 2.289 14.535 3.556 21.825 3.556 8.09 0 16.068-1.401 23.669-3.956l-14.046-29.603z" fill="#002DC8"/>
 <path d="m183.56 167.31-22.513-47.361-0.022 0.023s0-0.023 0.022-0.023l-21.424-45.072c-1.315-2.7652-3.387-5.1012-5.975-6.7374-2.589-1.6363-5.588-2.5057-8.65-2.5077-6.245 0-11.934 3.6003-14.623 9.2458l-21.847 45.96c6.134 8.112 16.979 14.78 27.758 17.069l7.068-14.846c0.667-1.401 2.667-1.401 3.334 0l6.912 14.535h0.044-0.045l20.981 44.138c1.314 2.77 3.388 5.11 5.981 6.747s5.598 2.504 8.664 2.498c1.445 0 2.89-0.199 4.312-0.6 9.757-2.689 14.38-13.912 10.023-23.069z" fill="#FF536A"/>
</svg>
