<svg width="256" height="256" title="Arc Browser" viewBox="0 0 256 256" fill="none" xmlns="http://www.w3.org/2000/svg" id="arcbrowser">
<style>
#arcbrowser {
    rect {fill: #15191C}

    @media (prefers-color-scheme: light) {
        rect {fill: #F4F2ED}
    }
}
</style>
<rect width="256" height="256" rx="40" fill="#15191C"/>
<path d="M125.685 58.0077C134.603 58.2643 142.657 63.4991 146.516 71.6002L161.831 103.816L162.077 103.194C162.685 101.588 163.184 99.9429 163.569 98.2696L163.783 97.2718C166.364 84.3684 178.906 76.0172 191.833 78.5702C194.904 79.1835 197.823 80.3958 200.425 82.1377C203.027 83.8797 205.26 86.1171 206.997 88.7223C208.733 91.3275 209.94 94.2494 210.547 97.321C211.155 100.393 211.151 103.554 210.536 106.624C207.096 123.802 198.229 139.744 185.51 152.375L185.107 152.766L190.476 164.054C196.707 177.157 190.251 192.995 176.683 197.44L176.071 197.632L175.603 197.773C173.527 198.357 171.381 198.655 169.224 198.658C164.716 198.658 160.299 197.38 156.487 194.973C152.674 192.566 149.622 189.128 147.684 185.057L143.54 176.344L142.494 176.603C136.892 177.927 131.21 178.661 125.525 178.773L123.975 178.789C118.504 178.789 112.943 178.153 107.388 176.92L106.292 176.664L102.311 185.035C99.6262 190.679 94.8317 195.043 88.9604 197.186L88.2514 197.432C85.1935 198.44 81.9628 198.818 78.7547 198.543C75.5465 198.268 72.4274 197.345 69.5858 195.831C58.2679 189.815 53.9521 175.73 59.4745 164.097L64.418 153.702L63.9862 153.283C57.2089 146.597 51.8361 138.998 48.2719 130.829L47.7969 129.712L47.7285 129.531C42.823 117.334 48.714 103.45 60.9034 98.5151C70.4643 94.6447 81.063 97.424 87.5805 104.688L87.7029 104.829L103.459 71.6859C105.327 67.6938 108.269 64.3 111.955 61.8842C115.642 59.4683 119.928 58.1257 124.333 58.0064L125.001 58L125.685 58.0077Z" fill="white"/>
<path d="M102.151 167.599L116.263 137.907C105.484 135.618 94.6387 128.95 88.5047 120.838L73.7476 151.863C81.9479 158.819 91.7937 164.287 102.151 167.599Z" fill="#1A007F"/>
<path d="M161.046 119.949C153.956 128.639 144.111 135.084 133.576 137.596L147.644 167.199C157.912 163.731 167.513 158.131 175.804 150.953L161.046 119.949Z" fill="#4E000A"/>
<path d="M73.7476 151.863L66.369 167.377C62.6127 175.266 65.4351 184.979 73.1694 189.09C81.3704 193.446 91.4605 190.046 95.4167 181.756L102.151 167.599C91.7516 164.246 82.1046 158.902 73.7476 151.863Z" fill="#1A007F"/>
<path d="M190.338 86.0789C188.251 85.6611 186.102 85.6585 184.015 86.0713C181.927 86.484 179.941 87.3041 178.17 88.4846C176.399 89.6651 174.878 91.1829 173.694 92.9513C172.51 94.7197 171.686 96.7041 171.269 98.791C169.714 106.57 166.069 113.815 161.046 119.972L175.781 150.997C189.383 139.196 199.428 123.128 203.029 105.147C204.784 96.3463 199.094 87.8121 190.338 86.0789Z" fill="#FF9396"/>
<path d="M133.576 137.596C130.42 138.351 127.198 138.751 123.975 138.751C121.464 138.751 118.864 138.462 116.263 137.907C105.484 135.618 94.6387 128.95 88.5047 120.838C86.9707 118.816 85.7268 116.704 84.8599 114.548C81.5038 106.259 72.0582 102.259 63.7683 105.592C55.4784 108.948 51.4791 118.394 54.8119 126.683C58.6121 136.106 65.3242 144.751 73.7476 151.863C82.0965 158.901 91.7361 164.246 102.128 167.599C109.262 169.888 116.663 171.155 123.953 171.155C132.043 171.155 140.021 169.754 147.622 167.199L133.576 137.596Z" fill="#002DC8"/>
<path d="M183.559 167.31L161.046 119.949L161.024 119.972C161.024 119.972 161.024 119.949 161.046 119.949L139.622 74.877C138.307 72.1118 136.235 69.7758 133.647 68.1396C131.058 66.5033 128.059 65.6339 124.997 65.6319C118.752 65.6319 113.063 69.2322 110.374 74.8777L88.5266 120.838C94.6606 128.95 105.506 135.618 116.285 137.907L123.353 123.061C124.02 121.66 126.02 121.66 126.687 123.061L133.599 137.596H133.643H133.598L154.579 181.734C155.893 184.504 157.967 186.844 160.56 188.481C163.153 190.118 166.158 190.985 169.224 190.979C170.669 190.979 172.114 190.78 173.536 190.379C183.293 187.69 187.916 176.467 183.559 167.31Z" fill="#FF536A"/>
</svg>