<svg width="256" height="256" title="Arch Linux" viewBox="0 0 256 256" fill="none" xmlns="http://www.w3.org/2000/svg">
<rect width="256" height="256" rx="40" fill="#1793D1"/>
<path d="M123.933 52C117.173 68.58 113.093 79.4333 105.567 95.5133C110.187 100.407 115.853 106.107 125.053 112.54C115.16 108.473 108.413 104.38 103.373 100.14C93.7333 120.247 78.64 148.887 48 203.933C72.08 190.033 90.7467 181.467 108.14 178.187C107.355 174.806 106.973 171.344 107 167.873L107.02 167.107C107.407 151.673 115.427 139.807 124.933 140.62C134.44 141.42 141.827 154.593 141.453 170.013C141.395 172.8 141.069 175.575 140.48 178.3C157.68 181.667 176.16 190.213 199.907 203.927C195.227 195.307 191.04 187.533 187.047 180.127C180.76 175.26 174.207 168.913 160.827 162.04C170.027 164.433 176.607 167.187 181.74 170.267C141.14 94.7067 137.853 84.6667 123.933 52ZM200.653 190.367V186.213H199.093V185.653H202.84V186.213H201.28V190.367H203.487V185.653H204.433L205.547 188.987L205.773 189.7C205.851 189.444 205.936 189.191 206.027 188.94L207.16 185.653H208V190.367H207.393V186.413L206.02 190.367H205.46L204.093 186.353V190.367H203.487" fill="white"/>
</svg>