<svg width="256" height="256" title="Arturo" viewBox="0 0 256 256" fill="none" xmlns="http://www.w3.org/2000/svg">
<rect width="256" height="256" rx="40" fill="#580059"/>
<path d="M182.254 47.2799C182.346 47.3483 182.438 47.4167 182.529 47.4853C182.655 47.531 182.783 47.5721 182.912 47.6095C183.722 47.8706 184.348 48.3301 185.004 48.8548C185.067 48.9048 185.13 48.9547 185.195 49.0062C185.325 49.1102 185.439 49.2149 185.553 49.3341C185.595 49.3741 185.636 49.4141 185.678 49.4553C185.838 49.6177 185.981 49.787 186.125 49.9633C186.179 50.0291 186.233 50.0951 186.288 50.163C186.469 50.3886 186.645 50.6176 186.818 50.8492C186.926 50.9838 186.926 50.9838 187.076 51.0845C187.203 51.183 187.203 51.183 187.272 51.3884C187.324 51.4401 187.377 51.4918 187.43 51.5451C187.625 51.74 187.76 51.9333 187.904 52.1673C187.95 52.2412 187.997 52.3152 188.044 52.3914C188.171 52.6309 188.239 52.8388 188.303 53.1002C188.349 53.1002 188.394 53.1002 188.44 53.1002C188.544 53.4953 188.618 53.8557 188.578 54.2643C188.487 54.4017 188.395 54.5386 188.303 54.6752C188.261 54.88 188.244 55.0826 188.234 55.2914C188.307 55.3147 188.307 55.3147 188.38 55.3385C189.272 55.744 189.689 56.8003 190.022 57.6605C190.039 57.7076 190.055 57.7549 190.073 57.8036C190.143 58.0242 190.143 58.0242 190.261 58.1526C190.398 58.352 190.422 58.5295 190.464 58.7665C190.542 59.163 190.542 59.163 190.704 59.5282C190.917 59.9063 190.989 60.3402 191.086 60.7587C191.296 61.8744 191.296 61.8744 191.74 62.892C191.755 63.0876 191.763 63.2742 191.761 63.4698C191.761 63.5249 191.761 63.5801 191.761 63.6369C191.75 64.2391 191.654 64.8382 191.328 65.3571C191.279 65.4008 191.232 65.4447 191.182 65.4898C191.002 65.6866 190.998 65.8493 190.984 66.1103C191.03 66.3166 191.03 66.3166 191.165 66.3928C191.335 66.4645 191.335 66.4645 191.559 66.4655C191.851 66.5307 191.946 66.6004 192.124 66.8312C192.337 67.2024 192.452 67.6174 192.565 68.0276C192.582 68.0871 192.599 68.1466 192.615 68.2079C192.764 68.7607 192.842 69.313 192.908 69.8807C192.932 70.0712 192.955 70.2616 192.979 70.452C192.988 70.5212 192.988 70.5212 192.997 70.5919C193.033 70.8807 193.078 71.1662 193.132 71.4523C193.418 72.998 193.401 74.6284 193.41 76.196C193.411 76.3156 193.412 76.4361 193.413 76.5557C193.415 76.7234 193.415 76.8912 193.415 77.0598C193.415 77.1088 193.416 77.1578 193.416 77.2085C193.414 77.5573 193.335 77.7857 193.184 78.093C193.145 78.1819 193.145 78.1819 193.105 78.2733C192.891 78.7301 192.621 79.0274 192.244 79.3572C192.11 79.5116 192.095 79.667 192.102 79.8671C192.193 80.1229 192.437 80.2126 192.66 80.3489C192.978 80.598 193.095 80.9502 193.252 81.3115C193.298 81.3796 193.343 81.4469 193.39 81.5166C193.48 81.9809 193.471 82.4668 193.475 82.9377C193.476 83.0415 193.476 83.0415 193.477 83.147C193.479 83.3696 193.48 83.5922 193.48 83.8148C193.481 83.9294 193.481 83.9294 193.481 84.0465C193.482 85.1728 193.416 86.2592 193.253 87.3721C193.163 87.9917 193.128 88.613 193.099 89.2376C193.076 89.6603 193.032 89.9726 192.84 90.3505C192.814 90.451 192.79 90.5523 192.767 90.6537C192.586 91.2093 191.992 91.4925 191.517 91.7783C191.296 91.922 191.103 92.0831 190.997 92.3273C190.993 92.3754 190.988 92.4236 190.984 92.4726C190.975 92.5523 190.967 92.6313 190.958 92.7126C190.96 92.956 190.96 92.956 191.121 93.1063C191.538 93.348 191.945 93.4552 192.42 93.5258C192.565 93.5681 192.565 93.5681 192.702 93.7741C192.957 94.7235 192.735 95.9145 192.477 96.8439C192.416 97.1105 192.389 97.3754 192.363 97.647C192.322 98.0548 192.243 98.3954 192.084 98.7766C191.978 99.0847 191.935 99.4012 191.883 99.7226C191.832 100.032 191.76 100.316 191.649 100.61C191.591 100.795 191.566 100.978 191.539 101.169C191.489 101.493 191.404 101.748 191.258 102.039C191.18 102.22 191.144 102.397 191.104 102.59C191.032 102.872 190.969 102.998 190.718 103.15C190.623 103.198 190.528 103.245 190.434 103.292C190.375 103.341 190.315 103.39 190.254 103.442C190.09 103.566 190.09 103.566 189.871 103.63C189.665 103.684 189.665 103.684 189.587 103.87C189.572 103.928 189.557 103.985 189.541 104.045C189.518 104.113 189.495 104.18 189.471 104.25C189.78 104.733 190.217 105.145 190.635 105.535C191.013 105.896 191.146 106.272 191.259 106.771C191.327 107.066 191.401 107.351 191.502 107.636C191.624 107.994 191.673 108.352 191.721 108.727C191.77 109.065 191.848 109.375 191.951 109.702C192.143 110.359 192.122 111.027 192.116 111.705C192.114 111.924 192.114 112.142 192.115 112.36C192.115 113.037 192.094 113.666 191.926 114.323C191.843 114.664 191.827 115.01 191.809 115.359C191.78 115.719 191.69 115.95 191.479 116.244C191.391 116.379 191.343 116.505 191.293 116.657C191.2 116.924 191.067 117.078 190.846 117.261C190.799 117.282 190.753 117.303 190.704 117.325C190.492 117.441 190.408 117.599 190.296 117.808C190.325 118.052 190.403 118.27 190.494 118.498C190.517 118.555 190.539 118.612 190.563 118.671C190.641 118.836 190.737 118.963 190.846 119.11C191.026 119.888 190.914 120.62 190.625 121.351C190.561 121.536 190.518 121.722 190.472 121.913C190.397 122.227 190.296 122.503 190.156 122.793C190.087 122.952 190.041 123.107 189.996 123.273C189.79 123.989 189.39 124.813 188.853 125.341C188.782 125.476 188.713 125.613 188.647 125.752C188.447 126.121 188.218 126.447 187.959 126.778C187.902 126.854 187.902 126.854 187.843 126.931C187.445 127.449 187.029 127.922 186.55 128.366C186.495 128.418 186.495 128.418 186.439 128.47C186.068 128.808 185.705 129.101 185.223 129.265C185.126 129.298 185.126 129.298 185.028 129.332C184.866 129.38 184.866 129.38 184.729 129.38C184.616 129.773 184.572 130.12 184.578 130.527C184.578 130.578 184.578 130.629 184.578 130.681C184.581 130.919 184.584 131.14 184.66 131.366C185.017 131.581 185.452 131.535 185.843 131.444C185.919 131.424 185.919 131.424 185.996 131.405C187.197 131.115 188.445 131.125 189.652 131.375C189.747 131.394 189.747 131.394 189.844 131.414C190.359 131.536 190.845 131.757 191.157 132.2C191.199 132.274 191.242 132.347 191.285 132.424C191.328 132.497 191.371 132.57 191.415 132.645C191.534 132.873 191.534 132.873 191.639 133.125C191.731 133.333 191.798 133.439 191.963 133.587C192.189 133.798 192.393 134.022 192.594 134.256C192.7 134.38 192.7 134.38 192.813 134.487C192.908 134.585 192.908 134.585 193.008 134.756C193.103 134.931 193.103 134.931 193.252 135.025C193.441 135.172 193.495 135.326 193.596 135.543C193.808 135.944 194.027 136.332 194.284 136.707C194.333 136.792 194.381 136.878 194.43 136.964C194.544 137.184 194.544 137.184 194.696 137.323C194.743 137.449 194.792 137.576 194.835 137.703C194.894 137.851 194.962 137.984 195.038 138.125C195.212 138.468 195.274 138.817 195.343 139.192C195.454 139.744 195.618 140.127 196.071 140.473C196.353 140.796 196.566 141.118 196.758 141.5C196.802 141.53 196.846 141.56 196.891 141.591C197.082 141.747 197.137 141.919 197.23 142.144C197.399 142.529 197.611 142.896 197.83 143.255C197.927 143.419 198 143.585 198.073 143.76C198.142 143.917 198.218 144.069 198.296 144.223C198.325 144.281 198.355 144.34 198.385 144.401C198.445 144.518 198.505 144.635 198.568 144.75C198.8 145.205 198.888 145.64 198.94 146.144C198.974 146.405 198.995 146.532 199.176 146.733C199.392 146.854 199.588 146.918 199.829 146.978C200.422 147.136 200.947 147.321 201.46 147.66C201.571 147.736 201.571 147.736 201.707 147.8C201.707 147.846 201.707 147.89 201.707 147.937C201.59 148.022 201.59 148.022 201.437 148.112C201.252 148.216 201.252 148.216 201.088 148.348C200.79 148.369 200.49 148.367 200.191 148.369C200.066 148.372 200.066 148.372 199.937 148.375C199.509 148.378 199.182 148.37 198.812 148.148C198.667 148.065 198.526 148.014 198.367 147.962C197.716 147.744 197.188 147.536 196.69 147.047C196.637 146.998 196.584 146.949 196.53 146.9C196.157 146.542 195.838 146.152 195.521 145.746C195.452 145.662 195.452 145.662 195.381 145.576C195.09 145.225 194.838 144.866 194.602 144.475C194.495 144.304 194.495 144.304 194.347 144.166C194.215 144.034 194.15 143.929 194.073 143.76C194 143.606 193.938 143.483 193.833 143.349C193.6 143.027 193.523 142.665 193.463 142.279C193.37 141.747 193.13 141.49 192.701 141.184C192.656 141.153 192.611 141.122 192.565 141.09C192.448 141.002 192.332 140.912 192.221 140.816C192.221 140.771 192.221 140.725 192.221 140.679C192.178 140.672 192.136 140.665 192.092 140.659C191.946 140.611 191.946 140.611 191.814 140.385C191.768 140.29 191.724 140.194 191.68 140.096C191.53 139.782 191.385 139.478 191.182 139.194C190.779 138.617 190.539 137.966 190.353 137.293C190.266 136.988 190.148 136.753 189.953 136.502C189.786 136.417 189.786 136.417 189.609 136.434C189.481 136.518 189.481 136.518 189.335 136.639C189.18 136.713 189.025 136.779 188.868 136.846C188.706 136.914 188.706 136.914 188.522 137.02C188.252 137.141 187.981 137.202 187.691 137.266C187.472 137.319 187.472 137.319 187.25 137.425C186.961 137.543 186.694 137.596 186.388 137.64C186.331 137.649 186.274 137.658 186.216 137.666C185.784 137.729 185.354 137.759 184.918 137.78C184.562 137.797 184.243 137.833 183.904 137.939C183.747 138.175 183.754 138.281 183.767 138.556C184.018 138.628 184.27 138.695 184.522 138.762C184.588 138.778 184.654 138.796 184.722 138.813C185.361 138.965 186.004 139.029 186.657 139.086C187.127 139.13 187.541 139.223 187.986 139.383C188.195 139.456 188.403 139.501 188.621 139.54C189.179 139.665 189.636 139.875 189.979 140.345C190.127 140.587 190.204 140.821 190.28 141.094C190.405 141.5 190.587 141.665 190.93 141.906C191.147 142.067 191.332 142.245 191.521 142.438C191.581 142.498 191.641 142.56 191.703 142.622C191.76 142.681 191.818 142.741 191.877 142.802C191.937 142.858 191.997 142.915 192.059 142.974C192.216 143.138 192.316 143.29 192.428 143.486C192.516 143.61 192.607 143.733 192.698 143.854C192.857 144.069 193.008 144.28 193.136 144.513C193.235 144.711 193.235 144.711 193.352 144.815C193.476 144.943 193.547 145.071 193.631 145.228C193.742 145.439 193.863 145.625 194.009 145.814C194.078 145.928 194.147 146.042 194.215 146.157C194.375 146.424 194.531 146.681 194.738 146.915C194.886 147.096 194.96 147.245 195.044 147.46C195.124 147.627 195.226 147.766 195.336 147.915C195.569 148.236 195.742 148.567 195.909 148.925C195.989 149.101 195.989 149.101 196.115 149.203C196.256 149.36 196.237 149.502 196.242 149.709C196.252 150.026 196.295 150.212 196.483 150.47C196.74 150.706 196.74 150.706 197.042 150.877C197.2 150.967 197.269 151.082 197.363 151.234C197.462 151.386 197.573 151.527 197.686 151.669C198.201 152.324 198.201 152.324 198.201 152.525C198.244 152.542 198.287 152.56 198.33 152.577C198.499 152.674 198.534 152.735 198.61 152.91C198.729 153.17 198.871 153.405 199.029 153.643C199.095 153.758 199.095 153.758 199.095 153.895C199.138 153.91 199.18 153.927 199.224 153.944C199.405 154.052 199.434 154.132 199.507 154.326C199.614 154.586 199.738 154.773 199.92 154.99C199.991 155.125 200.06 155.263 200.126 155.4C200.195 155.515 200.263 155.629 200.332 155.743C200.951 156.803 200.951 156.803 200.951 157.112C201.019 157.135 201.087 157.158 201.157 157.181C201.245 157.366 201.245 157.366 201.329 157.601C201.418 157.845 201.505 158.08 201.617 158.315C201.704 158.542 201.736 158.73 201.767 158.97C201.808 159.234 201.833 159.356 201.991 159.577C202.454 159.899 202.862 160.031 203.421 160.091C203.853 160.138 204.206 160.216 204.598 160.404C204.748 160.475 204.899 160.525 205.058 160.571C205.319 160.653 205.483 160.771 205.694 160.947C205.854 161.022 206.012 161.088 206.175 161.153C206.323 161.214 206.47 161.275 206.618 161.336C206.745 161.39 206.872 161.442 207 161.495C207 161.518 207 161.54 207 161.563C206.943 161.575 206.887 161.586 206.829 161.599C206.459 161.679 206.114 161.757 205.771 161.919C205.285 162.123 204.706 162.135 204.201 161.988C204.09 161.941 203.98 161.893 203.872 161.841C203.677 161.759 203.491 161.72 203.284 161.679C202.898 161.596 202.544 161.472 202.18 161.324C202.129 161.303 202.078 161.283 202.027 161.262C201.785 161.16 201.613 161.065 201.432 160.879C201.111 160.704 200.809 160.572 200.44 160.635C200.359 160.647 200.278 160.66 200.195 160.673C200.079 160.587 200.079 160.587 199.989 160.468C199.916 160.427 199.916 160.427 199.843 160.385C199.582 160.223 199.37 160.023 199.147 159.813C199.101 159.77 199.056 159.728 199.009 159.684C198.055 158.781 198.055 158.781 197.928 158.437C197.875 158.268 197.875 158.268 197.729 158.214C197.558 158.127 197.485 158.038 197.37 157.886C197.332 157.836 197.294 157.786 197.254 157.733C197.215 157.681 197.176 157.629 197.136 157.575C197.097 157.523 197.058 157.472 197.017 157.419C196.849 157.195 196.685 156.972 196.533 156.737C196.431 156.557 196.431 156.557 196.272 156.501C196.093 156.402 196.066 156.275 195.996 156.091C195.848 155.755 195.63 155.441 195.371 155.183C195.209 155.022 195.141 154.852 195.04 154.647C194.961 154.527 194.883 154.407 194.804 154.288C194.456 153.746 194.256 153.278 194.24 152.63C194.208 152.409 194.153 152.286 194.009 152.114C193.813 152.066 193.813 152.066 193.596 152.072C193.212 152.067 193.212 152.067 193.065 151.956C192.782 151.581 192.57 151.177 192.374 150.752C192.293 150.587 192.293 150.587 192.084 150.47C192.014 150.334 191.946 150.197 191.877 150.06C191.786 149.945 191.695 149.831 191.603 149.718C191.443 149.479 191.297 149.233 191.15 148.987C191.114 148.925 191.077 148.865 191.04 148.802C191.006 148.744 190.973 148.688 190.938 148.629C190.85 148.478 190.85 148.478 190.709 148.348C190.661 148.243 190.618 148.135 190.576 148.027C190.498 147.826 190.419 147.631 190.331 147.436C190.221 147.166 190.155 146.906 190.095 146.623C189.991 146.135 189.842 145.67 189.678 145.198C189.371 145.196 189.064 145.195 188.758 145.194C188.654 145.194 188.55 145.194 188.446 145.193C187.26 145.15 187.26 145.15 186.126 145.419C185.729 145.55 185.289 145.567 184.875 145.613C184.682 145.635 184.489 145.657 184.295 145.679C184.25 145.685 184.203 145.69 184.155 145.696C183.837 145.733 183.529 145.792 183.216 145.858C183.042 145.89 182.888 145.885 182.714 145.861C182.66 145.855 182.607 145.848 182.551 145.841C182.444 145.823 182.337 145.802 182.231 145.779C182.053 145.747 181.894 145.738 181.714 145.739C181.653 145.739 181.592 145.739 181.529 145.74C181.467 145.74 181.404 145.741 181.339 145.742C181.275 145.742 181.211 145.742 181.146 145.743C180.988 145.743 180.83 145.744 180.673 145.746C180.648 146.295 180.629 146.788 180.98 147.246C181.095 147.401 181.171 147.557 181.253 147.732C181.41 148.049 181.549 148.26 181.863 148.438C182.124 148.601 182.32 148.81 182.529 149.032C182.567 149.072 182.605 149.112 182.645 149.154C182.886 149.419 183.016 149.659 183.148 149.991C183.182 150.033 183.216 150.076 183.251 150.12C183.358 150.27 183.399 150.39 183.453 150.565C183.54 150.844 183.666 151.051 183.835 151.292C183.882 151.401 183.929 151.511 183.974 151.621C184.274 152.297 184.274 152.297 184.729 152.867C184.795 152.994 184.861 153.122 184.924 153.251C185.016 153.439 185.115 153.624 185.215 153.809C185.248 153.87 185.281 153.932 185.316 153.996C185.412 154.168 185.412 154.168 185.525 154.312C185.622 154.441 185.675 154.553 185.734 154.703C185.84 154.956 185.973 155.172 186.127 155.399C186.57 156.064 186.722 156.795 186.722 157.591C186.81 157.607 186.898 157.623 186.989 157.639C187.416 157.777 187.62 158.117 187.866 158.467C188.02 158.676 188.187 158.847 188.372 159.03C188.44 159.155 188.506 159.282 188.567 159.411C188.739 159.771 188.938 160.118 189.128 160.468C189.165 160.537 189.203 160.605 189.241 160.675C189.389 160.947 189.537 161.217 189.695 161.482C189.809 161.689 189.886 161.885 189.953 162.111C189.999 162.111 190.044 162.111 190.09 162.111C190.124 162.187 190.124 162.187 190.158 162.264C190.203 162.364 190.203 162.364 190.25 162.466C190.279 162.532 190.308 162.598 190.339 162.666C190.43 162.865 190.43 162.865 190.543 163.042C190.633 163.195 190.686 163.325 190.734 163.493C190.83 163.792 190.96 164.06 191.103 164.337C191.235 164.595 191.35 164.859 191.465 165.124C191.491 165.179 191.516 165.234 191.543 165.291C191.62 165.519 191.66 165.749 191.701 165.987C191.74 166.152 191.79 166.28 191.877 166.425C191.923 166.448 191.968 166.47 192.015 166.493C192.057 166.719 192.081 166.944 192.107 167.171C192.155 167.395 192.172 167.464 192.359 167.589C192.694 167.729 193.037 167.771 193.394 167.82C194.415 167.971 195.563 168.268 196.402 168.899C196.665 169.053 196.893 169.081 197.193 169.125C197.368 169.162 197.48 169.208 197.63 169.301C197.893 169.459 198.109 169.512 198.408 169.575C198.164 169.737 197.961 169.746 197.677 169.772C197.284 169.812 196.967 169.883 196.61 170.062C196.011 170.347 195.107 170.248 194.49 170.054C194.437 170.039 194.385 170.024 194.331 170.009C193.894 169.885 193.47 169.733 193.046 169.575C192.995 169.557 192.943 169.538 192.891 169.519C192.61 169.418 192.349 169.299 192.084 169.164C191.976 169.12 191.869 169.076 191.761 169.032C191.52 168.927 191.405 168.838 191.259 168.616C191.083 168.547 190.967 168.549 190.777 168.569C190.392 168.608 190.125 168.614 189.792 168.4C189.56 168.201 189.356 167.978 189.149 167.752C189.076 167.676 189.003 167.6 188.929 167.525C188.617 167.199 188.365 166.904 188.166 166.493C188.12 166.471 188.075 166.449 188.028 166.425C187.821 166.321 187.781 166.151 187.685 165.946C187.595 165.831 187.503 165.716 187.409 165.603C187.203 165.287 187.203 165.287 187.203 165.124C187.135 165.101 187.067 165.079 186.997 165.056C186.919 164.953 186.919 164.953 186.842 164.82C186.67 164.532 186.481 164.26 186.286 163.987C186.171 163.822 186.069 163.653 185.966 163.481C185.924 163.417 185.881 163.354 185.837 163.288C185.566 162.882 185.313 162.468 185.073 162.042C185.031 161.97 184.99 161.899 184.948 161.824C184.637 161.227 184.516 160.689 184.471 160.017C184.44 159.626 184.44 159.626 184.192 159.332C183.958 159.228 183.76 159.181 183.509 159.145C183.289 159.078 183.173 158.986 183.011 158.824C182.927 158.649 182.858 158.485 182.796 158.302C182.674 157.927 182.674 157.927 182.392 157.66C182.34 157.542 182.289 157.424 182.242 157.304C182.16 157.125 182.035 156.989 181.91 156.839C181.84 156.702 181.772 156.566 181.704 156.428C181.659 156.361 181.614 156.295 181.567 156.227C181.421 156.004 181.324 155.783 181.223 155.537C181.191 155.478 181.158 155.419 181.125 155.357C180.992 155.074 180.917 154.792 180.841 154.489C180.827 154.434 180.812 154.379 180.798 154.322C180.755 154.157 180.713 153.992 180.673 153.826C180.66 153.773 180.648 153.721 180.634 153.667C180.544 153.281 180.494 152.898 180.458 152.503C180.427 152.213 180.376 152.003 180.192 151.772C179.95 151.711 179.736 151.703 179.487 151.708C179.269 151.704 179.098 151.679 178.886 151.635C178.476 151.559 178.082 151.547 177.666 151.551C177.589 151.551 177.513 151.551 177.434 151.551C177.185 151.551 176.935 151.552 176.686 151.553C176.513 151.554 176.34 151.554 176.166 151.555C174.46 151.561 172.755 151.593 171.05 151.635C171.048 151.854 171.046 152.074 171.045 152.293C171.045 152.355 171.044 152.417 171.043 152.48C171.04 152.935 171.082 153.332 171.256 153.758C171.281 153.818 171.306 153.88 171.331 153.943C171.54 154.4 171.759 154.638 172.197 154.891C172.368 154.997 172.445 155.105 172.562 155.263C172.63 155.287 172.698 155.309 172.769 155.332C172.816 155.445 172.862 155.56 172.906 155.674C172.992 155.804 173.083 155.931 173.177 156.056C173.248 156.151 173.248 156.151 173.32 156.248C173.401 156.356 173.484 156.462 173.57 156.567C173.709 156.771 173.75 156.989 173.81 157.226C173.873 157.401 173.944 157.463 174.074 157.591C174.145 157.763 174.145 157.763 174.208 157.955C174.312 158.258 174.435 158.495 174.624 158.756C174.693 158.893 174.762 159.03 174.831 159.167C174.863 159.209 174.896 159.252 174.929 159.295C175.051 159.46 175.137 159.635 175.226 159.818C175.437 160.239 175.658 160.659 175.904 161.06C175.989 161.204 176.045 161.333 176.098 161.491C176.191 161.749 176.325 161.952 176.48 162.179C176.55 162.339 176.619 162.498 176.686 162.659C176.72 162.715 176.754 162.772 176.789 162.83C176.893 163.001 176.893 163.001 176.996 163.249C177.08 163.475 177.08 163.475 177.211 163.592C177.469 163.85 177.396 164.369 177.409 164.715C177.43 165.127 177.469 165.444 177.772 165.738C177.849 165.807 177.927 165.875 178.006 165.941C178.087 166.014 178.168 166.086 178.249 166.159C178.289 166.193 178.328 166.228 178.368 166.263C178.969 166.794 179.38 167.397 179.756 168.105C179.866 168.307 179.994 168.494 180.124 168.684C180.192 168.822 180.26 168.959 180.33 169.096C180.364 169.14 180.397 169.183 180.432 169.228C180.546 169.384 180.613 169.544 180.686 169.722C180.743 169.85 180.808 169.968 180.879 170.088C180.975 170.249 181.046 170.397 181.12 170.572C181.214 170.806 181.214 170.806 181.347 170.992C181.627 171.413 181.856 171.872 182.026 172.348C182.101 172.58 182.101 172.58 182.217 172.719C182.33 172.871 182.39 173.01 182.456 173.187C182.539 173.401 182.625 173.608 182.731 173.812C183.295 174.904 183.822 176.217 183.832 177.457C183.835 177.655 183.839 177.81 183.904 177.997C184.265 178.312 184.694 178.508 185.152 178.64C185.312 178.693 185.419 178.787 185.553 178.887C185.652 178.922 185.751 178.955 185.85 178.986C186.142 179.078 186.394 179.204 186.654 179.366C186.712 179.401 186.77 179.436 186.83 179.472C187.456 179.852 187.988 180.296 188.44 180.873C188.44 180.918 188.44 180.964 188.44 181.01C188.51 181.018 188.581 181.025 188.652 181.033C189.386 181.131 189.805 181.335 190.366 181.831C190.416 181.873 190.466 181.914 190.518 181.956C190.706 182.109 190.849 182.246 190.984 182.448C190.984 182.516 190.984 182.583 190.984 182.654C190.727 182.627 190.523 182.567 190.292 182.457C189.901 182.275 189.486 182.17 189.059 182.106C189.014 182.128 188.968 182.15 188.922 182.174C188.317 182.221 187.822 182.187 187.253 181.969C187.079 181.905 186.916 181.866 186.735 181.831C186.435 181.771 186.227 181.648 185.966 181.489C185.891 181.459 185.816 181.43 185.739 181.4C185.457 181.284 185.224 181.107 184.978 180.93C184.8 180.807 184.619 180.695 184.432 180.586C184.194 180.447 183.978 180.299 183.767 180.12C183.698 180.075 183.631 180.029 183.56 179.983C183.56 179.915 183.56 179.847 183.56 179.777C183.484 179.761 183.484 179.761 183.405 179.743C183.195 179.629 183.174 179.584 183.079 179.376C182.956 179.11 182.867 178.959 182.598 178.819C182.388 178.795 182.18 178.784 181.97 178.773C181.7 178.743 181.565 178.652 181.361 178.477C181.295 178.42 181.295 178.42 181.228 178.364C181.133 178.282 181.038 178.199 180.944 178.114C180.835 178.018 180.72 177.929 180.604 177.843C180.347 177.633 180.17 177.357 179.981 177.088C179.891 176.961 179.797 176.837 179.698 176.716C179.573 176.559 179.573 176.559 179.505 176.418C179.441 176.277 179.441 176.277 179.315 176.17C179.088 175.937 178.926 175.666 178.749 175.395C178.516 175.048 178.516 175.048 178.198 174.779C178.179 174.705 178.159 174.632 178.138 174.557C178.05 174.263 177.918 174.118 177.718 173.889C177.646 173.753 177.578 173.616 177.511 173.478C177.444 173.385 177.375 173.294 177.305 173.204C177.236 173.091 177.167 172.976 177.099 172.861C176.943 172.609 176.785 172.358 176.618 172.113C176.442 171.845 176.29 171.567 176.136 171.287C176.098 171.216 176.06 171.145 176.02 171.073C175.775 170.624 175.532 170.174 175.311 169.712C175.29 169.668 175.268 169.625 175.245 169.58C175.055 169.183 174.965 168.802 174.895 168.368C174.825 167.944 174.757 167.561 174.556 167.178C174.358 167.047 174.273 167.018 174.048 166.981C173.692 166.907 173.49 166.773 173.275 166.476C173.177 166.28 173.102 166.083 173.032 165.875C172.978 165.734 172.978 165.734 172.874 165.608C172.723 165.405 172.653 165.184 172.566 164.949C172.492 164.778 172.401 164.655 172.287 164.508C172.239 164.418 172.193 164.326 172.15 164.233C172.051 164.032 171.943 163.864 171.806 163.686C171.737 163.549 171.668 163.412 171.6 163.275C171.534 163.182 171.534 163.182 171.467 163.087C171.316 162.851 171.219 162.621 171.12 162.361C171.067 162.223 171.009 162.087 170.947 161.953C170.838 161.686 170.767 161.428 170.702 161.148C170.642 160.891 170.581 160.638 170.493 160.389C170.302 159.787 170.462 159.226 170.644 158.642C170.728 158.333 170.768 158.045 170.706 157.728C170.577 157.533 170.482 157.478 170.272 157.382C170.023 157.388 169.915 157.497 169.722 157.645C169.437 157.851 169.051 157.832 168.713 157.797C168.501 157.742 168.299 157.667 168.094 157.591C167.513 157.388 166.921 157.297 166.315 157.204C166.193 157.184 166.072 157.162 165.952 157.138C165.43 157.038 164.912 157.027 164.382 157.022C164.307 157.022 164.231 157.02 164.153 157.019C164.046 157.019 164.046 157.019 163.936 157.019C163.871 157.019 163.806 157.018 163.74 157.018C163.522 157.049 163.394 157.127 163.214 157.249C163.161 157.283 163.107 157.317 163.052 157.352C163.001 157.386 162.949 157.42 162.895 157.455C162.844 157.488 162.792 157.522 162.739 157.557C162.595 157.654 162.595 157.654 162.488 157.768C162.378 157.876 162.281 157.927 162.14 157.99C161.924 158.092 161.733 158.208 161.538 158.345C161.22 158.562 160.893 158.695 160.533 158.824C160.44 158.859 160.347 158.893 160.254 158.927C160.209 158.944 160.165 158.959 160.119 158.976C159.971 159.035 159.827 159.102 159.682 159.171C159.357 159.319 159.029 159.385 158.677 159.44C158.677 159.486 158.677 159.531 158.677 159.577C158.566 159.611 158.566 159.611 158.453 159.645C158.355 159.675 158.256 159.706 158.157 159.736C158.085 159.758 158.085 159.758 158.011 159.78C157.778 159.851 157.562 159.927 157.34 160.028C157.05 160.144 156.778 160.184 156.469 160.223C156.001 160.29 155.57 160.387 155.121 160.538C154.81 160.63 154.494 160.684 154.172 160.733C153.891 160.779 153.68 160.841 153.453 161.016C153.356 161.163 153.287 161.312 153.212 161.471C153.005 161.795 152.799 161.948 152.432 162.043C152.336 162.057 152.24 162.07 152.143 162.081C151.699 162.146 151.291 162.245 150.865 162.387C150.545 162.479 150.222 162.532 149.892 162.576C149.625 162.614 149.625 162.614 149.435 162.791C149.377 163.011 149.394 163.125 149.466 163.344C149.716 163.713 150.025 163.961 150.401 164.194C150.645 164.354 150.867 164.539 151.091 164.724C151.253 164.85 151.421 164.952 151.597 165.056C152.085 165.477 152.416 166.009 152.634 166.609C152.693 166.759 152.763 166.89 152.847 167.028C153.28 167.787 153.122 169.003 153.122 169.855C153.122 170.04 153.123 170.226 153.125 170.411C153.126 171.004 153.111 171.589 153.048 172.178C153.04 172.253 153.04 172.253 153.031 172.331C152.993 172.65 152.917 172.911 152.766 173.194C152.649 173.442 152.602 173.708 152.54 173.973C152.491 174.163 152.491 174.163 152.387 174.398C152.26 174.699 152.2 175.003 152.13 175.322C152.078 175.532 152.078 175.532 151.971 175.78C151.878 175.997 151.854 176.141 151.829 176.371C151.752 176.853 151.461 177.185 151.116 177.518C151.048 177.541 150.98 177.563 150.91 177.586C150.901 177.628 150.892 177.67 150.883 177.713C150.805 177.985 150.535 178.081 150.304 178.22C150.025 178.372 149.74 178.494 149.445 178.61C149.25 178.683 149.25 178.683 149.028 178.793C148.787 178.884 148.563 178.935 148.311 178.986C147.952 179.057 147.638 179.156 147.304 179.301C147.103 179.376 146.905 179.42 146.695 179.465C145.882 179.601 145.882 179.601 145.249 180.052C145.198 180.21 145.168 180.367 145.136 180.531C145.092 180.633 145.047 180.734 144.998 180.835C144.898 181.052 144.822 181.264 144.757 181.493C144.695 181.714 144.622 181.908 144.513 182.11C144.361 182.393 144.298 182.681 144.242 182.996C144.197 182.996 144.152 182.996 144.105 182.996C144.087 183.032 144.071 183.067 144.053 183.105C143.629 183.917 143.077 184.67 142.346 185.231C142.24 185.32 142.24 185.32 142.193 185.459C142.074 185.662 141.909 185.705 141.699 185.803C141.569 185.89 141.442 185.98 141.316 186.073C141.254 186.119 141.191 186.165 141.127 186.212C140.766 186.483 140.766 186.483 140.44 186.796C140.213 187.006 139.983 187.113 139.705 187.241C139.662 187.264 139.619 187.287 139.574 187.312C139.197 187.515 138.813 187.616 138.399 187.72C138.281 187.755 138.165 187.789 138.047 187.823C137.673 187.926 137.296 187.987 136.915 188.049C136.606 188.101 136.32 188.175 136.023 188.277C135.677 188.392 135.367 188.427 135.006 188.439C134.594 188.456 134.316 188.469 134 188.748C133.902 188.9 133.819 189.053 133.737 189.214C133.539 189.581 133.263 189.734 132.9 189.912C132.858 189.957 132.815 190.002 132.772 190.048C132.596 190.213 132.438 190.262 132.214 190.337C132.058 190.392 132.058 190.392 131.869 190.528C131.661 190.666 131.475 190.74 131.239 190.815C131.107 190.864 131.107 190.864 131.01 190.973C130.891 191.091 130.803 191.124 130.645 191.175C130.38 191.266 130.177 191.399 129.945 191.555C129.788 191.629 129.629 191.697 129.47 191.765C129.298 191.841 129.143 191.938 128.982 192.034C128.865 192.085 128.748 192.135 128.63 192.184C128.398 192.284 128.175 192.4 127.951 192.513C127.784 192.597 127.617 192.68 127.45 192.763C127.319 192.829 127.187 192.895 127.056 192.962C126.723 193.13 126.396 193.292 126.044 193.415C125.83 193.494 125.622 193.586 125.412 193.678C125.095 193.815 124.78 193.937 124.45 194.04C124.296 194.092 124.151 194.157 124.003 194.225C123.733 194.349 123.463 194.435 123.178 194.513C122.99 194.568 122.99 194.568 122.772 194.668C122.52 194.773 122.275 194.844 122.009 194.91C121.736 194.979 121.469 195.047 121.21 195.159C120.973 195.254 120.743 195.282 120.488 195.312C120.04 195.37 119.647 195.493 119.222 195.643C118.774 195.795 118.308 195.879 117.845 195.974C117.723 196.003 117.605 196.039 117.486 196.076C117.116 196.171 116.744 196.197 116.364 196.233C115.789 196.29 115.242 196.37 114.684 196.519C111.936 197.209 108.764 197.001 105.959 196.841C105.873 196.836 105.787 196.831 105.699 196.826C105.297 196.798 104.916 196.748 104.525 196.658C103.922 196.52 103.316 196.483 102.701 196.44C102.138 196.4 101.602 196.341 101.056 196.191C100.701 196.1 100.336 196.062 99.9719 196.018C99.5289 195.959 99.5289 195.959 99.3246 195.835C99.051 195.674 98.7573 195.665 98.4454 195.629C98.0191 195.58 97.6295 195.514 97.2258 195.37C97.0439 195.306 96.8587 195.264 96.6711 195.223C96.3691 195.15 96.1172 195.057 95.8461 194.909C95.6525 194.812 95.4507 194.753 95.2438 194.692C95.0945 194.636 95.0945 194.636 94.9268 194.536C94.7466 194.429 94.5756 194.361 94.3771 194.294C94.0993 194.197 93.8424 194.087 93.5821 193.952C93.4712 193.907 93.4712 193.907 93.3585 193.861C92.9581 193.693 92.5202 193.494 92.2758 193.13C92.209 193.097 92.1423 193.065 92.0739 193.032C91.8587 192.922 91.792 192.841 91.6577 192.65C91.5893 192.628 91.5209 192.606 91.4508 192.582C91.4508 192.537 91.4508 192.492 91.4508 192.445C91.5442 192.451 91.6376 192.459 91.7302 192.467C91.8078 192.473 91.8078 192.473 91.8871 192.479C92.0697 192.513 92.0697 192.513 92.2983 192.616C92.5661 192.725 92.8021 192.763 93.0883 192.775C93.1383 192.777 93.1884 192.78 93.2401 192.782C94.0217 192.809 94.7766 192.709 95.5282 192.501C96.0696 192.352 96.5501 192.36 97.0982 192.477C97.5052 192.564 97.9023 192.611 98.3177 192.635C98.3794 192.64 98.442 192.644 98.5062 192.648C98.7039 192.66 98.9008 192.673 99.0985 192.684C101.09 192.807 101.09 192.807 101.83 192.993C102.314 193.03 102.773 192.992 103.247 192.896C103.888 192.776 104.529 192.73 105.18 192.692C105.379 192.68 105.578 192.668 105.779 192.655C106.207 192.626 106.637 192.6 107.067 192.573C108.176 192.512 108.176 192.512 109.249 192.24C109.506 192.156 109.762 192.11 110.028 192.064C110.314 192.015 110.589 191.965 110.861 191.859C111.519 191.626 112.273 191.63 112.964 191.592C113.013 191.589 113.061 191.586 113.11 191.584C113.355 191.57 113.598 191.557 113.842 191.547C114.338 191.522 114.774 191.469 115.235 191.281C115.33 191.25 115.426 191.22 115.523 191.191C115.883 191.072 116.227 190.917 116.575 190.767C117.057 190.563 117.548 190.393 118.048 190.241C118.358 190.121 118.632 189.919 118.912 189.74C119.096 189.623 119.281 189.507 119.468 189.395C120.16 188.978 120.833 188.354 121.055 187.552C121.075 187.448 121.094 187.344 121.112 187.239C121.186 186.943 121.382 186.787 121.627 186.625C121.728 186.59 121.83 186.557 121.932 186.527C122.113 186.469 122.235 186.427 122.388 186.312C122.533 186.204 122.633 186.181 122.808 186.141C122.938 186.11 122.938 186.11 123.07 186.077C123.157 185.905 123.146 185.782 123.144 185.589C123.143 185.496 123.143 185.496 123.142 185.4C123.141 185.352 123.14 185.305 123.139 185.255C122.418 184.977 121.687 184.724 120.931 184.555C120.77 184.512 120.625 184.461 120.471 184.4C120.186 184.292 119.908 184.239 119.608 184.194C119.286 184.142 118.977 184.089 118.667 183.984C118.285 183.858 117.891 183.829 117.491 183.792C117.259 183.754 117.093 183.691 116.882 183.593C116.596 183.488 116.288 183.476 115.986 183.445C115.542 183.394 115.12 183.341 114.693 183.201C114.171 183.034 113.639 182.986 113.095 182.93C113.024 182.923 112.953 182.915 112.881 182.908C112.786 182.898 112.787 182.898 112.69 182.889C112.485 182.859 112.485 182.859 112.235 182.79C111.871 182.696 111.506 182.692 111.131 182.681C111.016 182.677 111.016 182.677 110.9 182.673C110.656 182.665 110.412 182.657 110.17 182.649C109.927 182.641 109.685 182.633 109.443 182.625C109.293 182.62 109.143 182.615 108.993 182.61C108.551 182.596 108.113 182.568 107.673 182.532C106.999 182.482 106.384 182.542 105.723 182.675C105.645 182.689 105.567 182.704 105.487 182.719C105.105 182.793 104.785 182.875 104.442 183.064C103.601 183.3 102.726 183.126 101.915 182.875C101.584 182.774 101.252 182.725 100.91 182.684C100.731 182.654 100.617 182.596 100.456 182.517C100.09 182.428 99.7333 182.444 99.3604 182.461C99.2912 182.464 99.2228 182.467 99.1519 182.47C98.4937 182.504 97.8464 182.591 97.1941 182.682C96.4583 182.782 95.7226 182.841 94.9827 182.893C94.2478 182.945 93.5329 183.007 92.8122 183.169C92.451 183.246 92.0931 183.291 91.7244 183.321C91.651 183.327 91.651 183.326 91.5767 183.333C91.3323 183.353 91.0888 183.371 90.8452 183.385C90.2821 183.429 89.8725 183.527 89.3887 183.817C89.2878 183.868 89.186 183.918 89.0842 183.967C88.8406 184.085 88.8407 184.085 88.6329 184.228C88.4136 184.237 88.4135 184.237 88.22 184.228C88.2484 184.066 88.2684 183.975 88.3877 183.857C88.5303 183.714 88.6029 183.545 88.6905 183.364C89.367 181.98 89.367 181.98 90.0969 181.687C90.2379 181.625 90.2379 181.625 90.3513 181.421C90.4681 181.351 90.5849 181.282 90.7042 181.218C90.8919 181.114 91.0671 180.993 91.2447 180.873C91.3031 180.839 91.3607 180.805 91.4207 180.77C91.5943 180.669 91.5943 180.669 91.7603 180.531C91.9938 180.345 92.2416 180.207 92.5035 180.064C92.7446 179.928 92.9606 179.766 93.1809 179.598C93.331 179.485 93.487 179.39 93.6505 179.298C93.7615 179.233 93.7615 179.233 93.8741 179.165C94.2236 178.968 94.5915 178.815 94.9635 178.665C95.0369 178.635 95.1095 178.606 95.1846 178.575C95.2521 178.548 95.3197 178.521 95.3898 178.493C95.5658 178.412 95.6967 178.318 95.8502 178.203C95.9904 178.15 95.9904 178.15 96.138 178.108C96.4291 178.018 96.6736 177.889 96.9363 177.737C97.1232 177.635 97.3125 177.566 97.5119 177.496C97.652 177.447 97.652 177.447 97.8347 177.351C98.2585 177.14 98.7039 176.982 99.1469 176.818C99.5415 176.672 99.931 176.524 100.313 176.349C100.681 176.184 101.055 176.037 101.439 175.917C101.709 175.831 101.958 175.717 102.212 175.596C102.454 175.483 102.678 175.378 102.939 175.322C103.24 175.25 103.495 175.13 103.774 175C103.988 174.904 104.203 174.831 104.426 174.761C104.811 174.635 105.185 174.474 105.555 174.308C106.086 174.07 106.632 173.864 107.174 173.651C107.634 173.469 108.091 173.283 108.546 173.088C108.591 173.069 108.637 173.049 108.685 173.029C108.922 172.926 109.119 172.813 109.323 172.656C109.456 172.601 109.456 172.601 109.589 172.557C109.851 172.466 110.055 172.333 110.286 172.177C110.445 172.106 110.605 172.038 110.766 171.971C111.079 171.825 111.383 171.662 111.686 171.497C112.1 171.27 112.521 171.06 112.946 170.854C113.037 170.81 113.037 170.81 113.129 170.764C113.184 170.738 113.238 170.712 113.295 170.684C113.45 170.601 113.581 170.502 113.722 170.396C113.838 170.347 113.954 170.299 114.071 170.252C114.26 170.165 114.43 170.052 114.603 169.936C114.762 169.843 114.927 169.775 115.097 169.704C115.423 169.56 115.733 169.38 116.046 169.21C116.368 169.037 116.679 168.907 117.027 168.8C117.188 168.743 117.302 168.654 117.434 168.547C117.592 168.493 117.592 168.493 117.761 168.449C118.037 168.372 118.273 168.273 118.525 168.14C118.758 168.026 119.001 167.944 119.246 167.859C119.394 167.807 119.537 167.748 119.681 167.688C120 167.566 120.337 167.518 120.672 167.464C120.9 167.426 121.088 167.379 121.298 167.281C121.715 167.091 122.199 167.099 122.649 167.06C123.056 167.02 123.427 166.955 123.818 166.834C124.336 166.677 124.838 166.644 125.378 166.622C125.559 166.614 125.739 166.605 125.919 166.596C125.997 166.592 126.076 166.589 126.157 166.586C126.37 166.562 126.525 166.526 126.714 166.425C126.736 166.357 126.759 166.289 126.782 166.219C126.637 165.966 126.444 165.776 126.181 165.65C126.054 165.624 125.926 165.599 125.798 165.58C125.157 165.478 124.812 165.155 124.37 164.704C123.98 164.325 123.556 164.008 123.071 163.762C122.933 163.686 122.933 163.686 122.794 163.579C122.648 163.462 122.648 163.462 122.396 163.4C122.092 163.292 121.944 163.115 121.746 162.869C121.597 162.691 121.429 162.552 121.248 162.407C121.146 162.317 121.146 162.317 121.008 162.111C120.941 162.079 120.941 162.079 120.871 162.047C120.699 161.956 120.681 161.87 120.596 161.7C120.554 161.681 120.511 161.663 120.467 161.643C120.279 161.541 120.221 161.431 120.115 161.247C120.08 161.185 120.045 161.125 120.008 161.062C119.921 160.902 119.841 160.743 119.763 160.579C119.658 160.365 119.548 160.209 119.359 160.057C119.045 159.953 118.711 159.918 118.398 160.042C118.309 160.091 118.221 160.139 118.134 160.189C117.958 160.275 117.787 160.317 117.597 160.361C117.249 160.449 117.074 160.565 116.816 160.81C116.702 160.88 116.587 160.949 116.472 161.016C116.411 161.063 116.411 161.063 116.348 161.112C115.682 161.591 114.85 161.778 114.066 161.974C113.985 161.997 113.904 162.019 113.821 162.042C113.466 162.13 113.11 162.16 112.746 162.187C112.672 162.193 112.598 162.199 112.521 162.205C111.701 162.263 110.882 162.267 110.06 162.263C109.803 162.261 109.546 162.261 109.289 162.261C109.125 162.26 108.961 162.26 108.797 162.259C108.721 162.259 108.644 162.259 108.565 162.259C108.495 162.259 108.425 162.258 108.352 162.258C108.259 162.258 108.259 162.258 108.165 162.258C108.017 162.248 108.017 162.248 107.88 162.179C107.837 161.644 107.966 161.341 108.224 160.879C108.257 160.798 108.291 160.718 108.326 160.635C108.652 159.89 108.652 159.89 108.928 159.646C109.094 159.456 109.115 159.29 109.133 159.042C109.128 158.872 109.128 158.872 108.971 158.696C108.485 158.338 108.14 158.277 107.536 158.345C107.307 158.448 107.307 158.448 107.123 158.619C106.684 158.929 106.224 159.189 105.749 159.44C105.588 159.526 105.427 159.611 105.267 159.698C105.194 159.737 105.12 159.776 105.044 159.817C104.848 159.92 104.848 159.92 104.649 160.057C104.436 160.106 104.218 160.124 104 160.147C103.941 160.155 103.882 160.162 103.821 160.17C103.393 160.217 103.393 160.217 103.169 160.116C102.747 159.586 102.885 158.42 102.956 157.771C102.964 157.704 102.973 157.639 102.982 157.571C103.015 157.302 103.015 157.302 102.875 157.07C102.65 156.929 102.531 156.905 102.268 156.899C101.837 156.858 101.64 156.661 101.349 156.36C101.295 156.307 101.241 156.256 101.185 156.203C100.92 155.948 100.713 155.716 100.524 155.4C100.463 155.352 100.402 155.305 100.34 155.255C100.287 155.213 100.235 155.17 100.18 155.127C100.18 155.059 100.18 154.991 100.18 154.921C100.094 154.894 100.094 154.894 100.004 154.866C99.7684 154.784 99.7683 154.784 99.554 154.68C99.2503 154.55 98.9542 154.537 98.6272 154.523C98.5638 154.52 98.5004 154.517 98.4353 154.513C98.1676 154.498 97.8998 154.484 97.632 154.471C96.7436 154.425 95.9003 154.321 95.0319 154.129C94.8175 154.086 94.6031 154.058 94.3854 154.031C94.0276 153.98 93.8182 153.878 93.5129 153.689C93.341 153.63 93.1667 153.581 92.9915 153.532C92.7671 153.466 92.5586 153.371 92.345 153.278C92.1832 153.227 92.0205 153.177 91.8579 153.13C91.7261 153.072 91.7261 153.072 91.5884 152.867C91.4791 152.818 91.3699 152.771 91.2589 152.727C91.0729 152.647 90.8952 152.556 90.7167 152.46C90.6224 152.411 90.6224 152.411 90.5265 152.361C90.348 152.249 90.2237 152.125 90.0761 151.977C89.9634 151.906 89.8483 151.837 89.7324 151.772C89.6156 151.694 89.4996 151.616 89.3845 151.536C89.2986 151.477 89.2986 151.477 89.2102 151.416C89.0484 151.294 88.9116 151.164 88.7706 151.018C88.5904 150.865 88.4553 150.751 88.2133 150.735C87.9497 150.758 87.7395 150.812 87.4909 150.909C87.1481 151.04 86.7961 151.116 86.4374 151.194C86.3732 151.208 86.3089 151.223 86.2422 151.237C86.1137 151.265 85.9853 151.293 85.856 151.321C85.7484 151.345 85.6416 151.37 85.5348 151.398C84.9309 151.553 84.2944 151.563 83.6746 151.602C83.059 151.642 82.4984 151.695 81.9153 151.915C81.3498 152.071 80.7355 152.061 80.1514 152.081C80.0713 152.084 79.9911 152.086 79.9085 152.089C79.1132 152.115 78.3177 152.125 77.522 152.135C77.2887 152.139 77.0554 152.142 76.8221 152.145C76.7439 152.146 76.6658 152.147 76.5854 152.149C76.4259 152.15 76.2665 152.153 76.1071 152.155C75.6997 152.161 75.2923 152.166 74.8849 152.17C74.4851 152.174 74.0853 152.179 73.6855 152.186C73.5346 152.189 73.3836 152.19 73.2326 152.191C73.0228 152.193 72.8131 152.196 72.6034 152.2C72.5112 152.2 72.5112 152.2 72.4171 152.2C71.986 152.212 71.7788 152.318 71.4482 152.593C71.2954 152.677 71.2954 152.677 71.169 152.734C70.9256 152.851 70.7097 152.991 70.4859 153.141C70.3502 153.213 70.2125 153.282 70.0734 153.346C70.0116 153.375 70.0116 153.375 69.9486 153.405C69.2649 153.719 68.5476 153.993 67.8196 154.186C67.656 154.236 67.656 154.236 67.4691 154.339C67.2517 154.444 67.0666 154.492 66.8298 154.536C66.4273 154.616 66.032 154.713 65.6355 154.819C65.1866 154.939 64.7374 155.051 64.2831 155.149C64.0926 155.192 64.0926 155.192 63.9127 155.262C62.7543 155.613 61.4073 155.491 60.2061 155.487C59.9461 155.486 59.6862 155.487 59.4262 155.488C59.2226 155.488 59.0189 155.488 58.8153 155.488C58.7195 155.488 58.6236 155.488 58.5279 155.488C57.777 155.49 57.0647 155.439 56.354 155.185C56.0049 155.062 55.65 154.957 55.2948 154.853C55.2369 154.836 55.179 154.818 55.1194 154.8C54.7433 154.7 54.4904 154.705 54.1262 154.853C53.8791 155.126 53.7634 155.459 53.6335 155.8C53.5763 155.949 53.5763 155.949 53.5075 156.086C53.4622 156.086 53.4168 156.086 53.3701 156.086C53.3672 156.136 53.3644 156.187 53.3615 156.239C53.2761 156.507 53.1284 156.564 52.8889 156.702C52.835 156.737 52.7811 156.772 52.7257 156.809C52.5738 156.891 52.4367 156.949 52.2745 157.006C52.0859 157.072 51.9626 157.135 51.7934 157.249C51.5667 157.397 51.3598 157.464 51.1036 157.543C50.9369 157.601 50.8263 157.687 50.6893 157.797C50.6069 157.84 50.5238 157.881 50.4401 157.921C49.5938 158.339 49.0791 158.738 48.7646 159.646C48.7141 159.696 48.7141 159.696 48.6626 159.748C48.5423 159.867 48.5072 159.961 48.4553 160.121C48.3783 160.341 48.2871 160.488 48.146 160.673C48.0985 160.775 48.0529 160.878 48.0085 160.981C47.914 161.2 47.8174 161.378 47.6648 161.563C47.6336 161.618 47.6024 161.674 47.5703 161.73C47.4401 161.934 47.2889 162.079 47.1149 162.248C47.08 162.302 47.045 162.355 47.0091 162.409C46.8716 162.604 46.7655 162.733 46.5649 162.865C46.1993 162.922 45.8269 162.856 45.4652 162.796C45.4198 162.931 45.3744 163.067 45.3277 163.207C45.2596 163.207 45.1916 163.207 45.1215 163.207C45.1059 163.263 45.0903 163.32 45.0742 163.378C45.0009 163.572 44.9324 163.708 44.8208 163.879C44.6653 164.117 44.5487 164.359 44.4362 164.62C44.2468 165.052 44.0514 165.444 43.7467 165.809C43.7183 165.875 43.69 165.941 43.6608 166.01C43.5004 166.289 43.2851 166.493 42.9906 166.63C42.7737 166.621 42.6766 166.588 42.5129 166.445C42.4735 166.397 42.434 166.35 42.3934 166.301C42.3335 166.23 42.3335 166.23 42.2724 166.159C41.9546 165.728 41.9812 165.302 42.0283 164.782C42.0957 164.539 42.1937 164.322 42.3032 164.097C42.3373 164.01 42.3703 163.924 42.402 163.836C42.4916 163.596 42.5841 163.356 42.6769 163.117C42.7865 162.834 42.8928 162.551 42.9948 162.265C43.2025 161.695 43.4666 161.161 43.7416 160.621C43.938 160.233 44.11 159.836 44.2743 159.433C44.3577 159.252 44.4519 159.119 44.5716 158.961C44.6293 158.815 44.6293 158.815 44.6704 158.662C44.758 158.383 44.8792 158.172 45.0528 157.934C45.1223 157.821 45.191 157.706 45.259 157.591C45.4652 157.244 45.6733 156.897 45.8905 156.557C45.9226 156.505 45.9548 156.454 45.9879 156.401C46.0354 156.346 46.0354 156.346 46.0838 156.291C46.1519 156.291 46.2199 156.291 46.29 156.291C46.307 156.24 46.324 156.189 46.3416 156.137C46.4275 155.949 46.4275 155.949 46.559 155.832C46.7441 155.629 46.8082 155.415 46.8828 155.157C46.8969 155.112 46.9109 155.067 46.9253 155.021C47.1213 154.372 47.1989 153.721 47.2438 153.047C47.29 152.444 47.3851 151.929 47.5961 151.361C47.6326 151.237 47.6685 151.113 47.7034 150.988C47.7802 150.73 47.8877 150.506 48.0085 150.265C48.0317 150.173 48.0531 150.08 48.0729 149.987C48.1333 149.723 48.2471 149.584 48.4209 149.375C48.4965 149.219 48.5637 149.06 48.6314 148.9C48.703 148.743 48.7944 148.62 48.9021 148.485C48.972 148.348 49.0406 148.211 49.1083 148.074C49.1631 147.965 49.219 147.856 49.2758 147.748C49.3027 147.697 49.3296 147.645 49.3572 147.591C49.4661 147.438 49.5576 147.397 49.7269 147.321C49.798 147.208 49.8663 147.094 49.9332 146.978C50.1402 146.707 50.3098 146.51 50.6205 146.362C50.7367 146.249 50.8509 146.135 50.9642 146.02C51.2461 145.763 51.5355 145.54 51.8578 145.335C51.9315 145.284 52.0053 145.233 52.0812 145.181C52.2702 145.061 52.2702 145.061 52.4077 145.061C52.4121 145.02 52.4164 144.979 52.4209 144.937C52.5002 144.723 52.6151 144.685 52.8158 144.581C52.8841 144.547 52.9523 144.512 53.0226 144.475C53.2674 144.36 53.516 144.262 53.7691 144.166C53.9349 144.102 53.9349 144.102 54.1219 143.965C54.3727 143.802 54.6241 143.715 54.9062 143.619C55.099 143.554 55.099 143.554 55.3205 143.452C55.6217 143.328 55.9277 143.235 56.2399 143.142C56.3721 143.102 56.504 143.062 56.6351 143.019C57.0345 142.891 57.4382 142.813 57.8508 142.742C58.0976 142.698 58.3267 142.645 58.5598 142.553C59.4935 142.222 60.7142 142.375 61.6881 142.374C61.9546 142.374 62.2211 142.371 62.4875 142.369C62.6589 142.369 62.8301 142.368 63.0015 142.368C63.1195 142.367 63.1195 142.367 63.24 142.366C63.6657 142.366 64.0221 142.411 64.4255 142.547C64.6188 142.611 64.8061 142.634 65.0083 142.651C65.0836 142.659 65.1589 142.666 65.2366 142.674C65.3908 142.688 65.5451 142.701 65.6994 142.714C66.1344 142.758 66.4899 142.836 66.8896 143.012C67.1389 143.111 67.3899 143.14 67.6547 143.174C68.4147 143.285 69.0432 143.507 69.661 143.965C69.8421 144.046 70.0224 144.108 70.2109 144.171C70.2109 144.216 70.2109 144.261 70.2109 144.308C70.2532 144.314 70.2954 144.32 70.339 144.326C70.7998 144.405 70.7998 144.405 70.9498 144.603C70.9782 144.664 71.0066 144.724 71.0357 144.787C71.0882 144.836 71.1407 144.886 71.1947 144.937C71.4055 145.157 71.5432 145.387 71.6937 145.65C71.8621 145.962 71.8621 145.962 72.1517 146.14C72.5612 146.18 72.8385 146.149 73.1666 145.883C73.2016 145.849 73.2365 145.814 73.2724 145.779C73.73 145.333 74.2998 145.111 74.8763 144.853C75.1283 144.739 75.3728 144.62 75.6079 144.475C75.7931 144.368 75.9702 144.304 76.1739 144.239C76.2466 144.216 76.3192 144.193 76.3942 144.169C76.4632 144.147 76.5324 144.125 76.6035 144.102C76.7067 144.067 76.8098 144.031 76.9129 143.995C77.2089 143.897 77.5089 143.822 77.8122 143.75C77.9639 143.713 78.1151 143.672 78.2653 143.629C78.9427 143.435 79.6211 143.322 80.3185 143.225C80.5052 143.199 80.6919 143.173 80.8785 143.145C82.8613 142.861 85.5782 142.542 87.4359 143.479C87.6161 143.561 87.7988 143.62 87.9873 143.679C88.5003 143.838 88.9132 143.984 89.2561 144.42C89.4204 144.62 89.5564 144.703 89.8016 144.787C90.1695 144.704 90.4798 144.454 90.7426 144.192C90.9011 144.034 90.9011 144.034 91.1071 143.965C91.1071 143.92 91.1071 143.875 91.1071 143.828C91.369 143.68 91.6084 143.598 91.9021 143.529C92.2291 143.444 92.4159 143.356 92.6195 143.076C92.7513 142.741 92.8088 142.405 92.8647 142.052C92.8731 141.999 92.8814 141.947 92.8906 141.892C92.9073 141.787 92.9239 141.684 92.9398 141.579C92.9615 141.444 92.9857 141.311 93.0099 141.177C93.0332 140.942 93.0074 140.798 92.9331 140.576C92.7738 140.092 92.8172 139.705 92.9506 139.219C93.0849 138.701 93.1492 138.185 93.2042 137.653C93.2634 137.081 93.3385 136.552 93.522 136.004C93.6388 135.638 93.6588 135.283 93.6722 134.901C93.7106 134.141 93.8507 133.317 94.2695 132.667C94.2978 132.62 94.327 132.571 94.3562 132.522C94.5773 132.191 94.7842 132.041 95.157 131.9C95.3105 131.847 95.3105 131.847 95.4723 131.734C95.6801 131.62 95.8753 131.585 96.1072 131.54C96.2823 131.503 96.2823 131.503 96.5117 131.392C97.1065 131.15 97.6946 131.413 98.256 131.64C98.4328 131.743 98.5772 131.854 98.7373 131.983C98.8174 132.013 98.8174 132.013 98.8991 132.044C99.574 132.325 100.204 133.023 100.589 133.63C100.732 133.832 100.873 133.959 101.061 134.118C101.373 134.389 101.58 134.667 101.79 135.02C101.891 135.188 102.001 135.338 102.122 135.492C102.304 135.727 102.407 135.954 102.518 136.228C102.569 136.288 102.569 136.288 102.62 136.35C102.756 136.548 102.781 136.724 102.823 136.959C102.879 137.243 102.933 137.497 103.063 137.756C103.23 138.094 103.3 138.449 103.382 138.815C103.438 139.065 103.496 139.305 103.588 139.545C103.716 139.895 103.757 140.266 103.806 140.635C103.853 140.964 103.945 141.211 104.104 141.503C104.207 141.721 104.237 141.944 104.27 142.181C104.331 142.545 104.411 142.863 104.577 143.194C104.701 143.464 104.775 143.749 104.859 144.033C104.909 144.193 104.962 144.341 105.031 144.492C105.114 144.682 105.173 144.859 105.229 145.057C105.308 145.33 105.411 145.568 105.544 145.818C105.613 145.956 105.667 146.093 105.719 146.238C105.775 146.395 105.829 146.518 105.916 146.662C106.015 146.826 106.08 146.979 106.148 147.158C106.363 147.707 106.656 148.203 106.986 148.69C107.013 148.765 107.04 148.84 107.067 148.917C107.171 149.11 107.171 149.11 107.333 149.147C107.626 149.188 107.831 149.198 108.086 149.032C108.435 148.657 108.467 148.222 108.456 147.733C108.434 147.238 108.374 146.779 108.194 146.316C108.069 145.99 107.992 145.658 107.914 145.318C107.884 145.189 107.854 145.062 107.824 144.934C107.803 144.842 107.803 144.842 107.781 144.748C107.733 144.546 107.682 144.343 107.63 144.141C107.537 143.777 107.461 143.41 107.388 143.042C107.343 142.857 107.291 142.692 107.227 142.514C107.099 142.144 107.061 141.772 107.02 141.385C106.959 140.85 106.881 140.335 106.757 139.811C106.509 138.593 106.549 137.199 106.765 135.981C106.857 135.465 106.896 134.949 106.923 134.426C106.951 134.023 107.029 133.826 107.261 133.489C107.31 133.273 107.324 133.058 107.339 132.838C107.349 132.715 107.359 132.592 107.369 132.469C107.374 132.41 107.379 132.35 107.384 132.288C107.479 131.159 107.664 130.145 108.567 129.38C108.959 129.078 109.413 128.75 109.924 128.734C110.265 128.801 110.548 128.988 110.835 129.175C110.9 129.218 110.966 129.26 111.033 129.303C111.657 129.925 111.667 130.715 111.72 131.55C111.763 132.125 111.841 132.649 111.998 133.204C112.113 133.621 112.178 134.048 112.252 134.473C112.268 134.565 112.268 134.565 112.283 134.658C112.293 134.711 112.302 134.765 112.311 134.82C112.346 135.004 112.346 135.004 112.418 135.215C112.498 135.524 112.514 135.812 112.524 136.129C112.526 136.19 112.529 136.253 112.531 136.316C112.54 136.512 112.546 136.708 112.554 136.904C112.563 137.162 112.573 137.42 112.584 137.678C112.586 137.766 112.586 137.766 112.59 137.855C112.61 138.356 112.677 138.83 112.901 139.283C113.089 139.734 113.095 140.197 113.117 140.679C113.122 140.773 113.127 140.868 113.132 140.964C113.147 141.233 113.159 141.504 113.173 141.774C113.157 142.977 113.157 142.977 113.674 144.003C113.946 144.233 114.181 144.307 114.534 144.312C115.057 144.218 115.498 143.89 115.83 143.488C115.994 143.239 116.048 142.975 116.107 142.686C116.121 142.621 116.134 142.557 116.149 142.491C116.276 141.865 116.34 141.233 116.402 140.598C116.448 140.13 116.51 139.689 116.622 139.232C116.721 138.761 116.782 138.282 116.847 137.805C116.913 137.338 117.003 136.885 117.114 136.427C117.169 136.184 117.198 135.949 117.223 135.702C117.269 135.327 117.352 135.027 117.507 134.684C117.581 134.49 117.611 134.307 117.641 134.101C117.687 133.777 117.771 133.518 117.915 133.225C117.986 133.074 118.038 132.924 118.087 132.766C118.169 132.511 118.275 132.28 118.399 132.043C118.458 131.927 118.51 131.807 118.56 131.687C118.597 131.603 118.634 131.518 118.672 131.434C118.703 131.36 118.703 131.36 118.735 131.283C119.061 130.601 119.608 130.125 120.145 129.607C120.289 129.467 120.433 129.326 120.578 129.185C120.667 129.098 120.756 129.012 120.845 128.925C121.147 128.634 121.423 128.327 121.696 128.011C122.511 127.091 122.511 127.091 122.946 126.795C123.08 126.707 123.08 126.707 123.228 126.571C123.446 126.413 123.63 126.36 123.891 126.295C124.138 126.233 124.35 126.177 124.574 126.054C125.032 125.846 125.606 125.864 126.095 125.957C126.426 126.087 126.676 126.32 126.92 126.573C126.962 126.606 127.003 126.638 127.045 126.671C127.441 127.022 127.463 127.394 127.495 127.893C127.503 128.071 127.511 128.248 127.517 128.426C127.527 128.66 127.539 128.893 127.552 129.126C127.556 129.183 127.559 129.24 127.562 129.299C127.592 129.748 127.691 130.145 127.819 130.578C127.923 130.977 127.943 131.375 127.964 131.786C127.972 131.917 127.972 131.917 127.979 132.052C128.019 132.755 128.04 133.459 128.062 134.163C128.093 135.121 128.192 136.051 128.383 136.989C128.417 137.175 128.446 137.355 128.467 137.542C128.472 137.588 128.477 137.635 128.482 137.683C128.496 137.812 128.508 137.94 128.52 138.069C128.578 138.319 128.636 138.409 128.844 138.556C129.677 138.744 130.925 138.404 131.663 138.008C131.769 137.863 131.769 137.863 131.817 137.696C131.919 137.405 131.919 137.405 132.144 137.255C132.224 137.122 132.224 137.122 132.29 136.967C132.316 136.91 132.342 136.852 132.369 136.794C132.422 136.674 132.476 136.554 132.529 136.434C132.667 136.129 132.787 135.909 133.038 135.68C133.105 135.538 133.105 135.538 133.145 135.394C133.188 135.249 133.188 135.249 133.244 135.132C133.312 135.11 133.38 135.087 133.45 135.064C133.497 134.927 133.542 134.79 133.588 134.653C133.686 134.498 133.784 134.351 133.893 134.204C134.076 133.948 134.253 133.692 134.413 133.42C134.619 133.105 134.836 132.797 135.054 132.489C135.145 132.359 135.233 132.228 135.319 132.094C135.444 131.914 135.444 131.914 135.567 131.793C135.749 131.61 135.906 131.412 136.063 131.208C136.092 131.17 136.121 131.134 136.151 131.095C136.3 130.901 136.435 130.707 136.554 130.493C136.686 130.261 136.828 130.109 137.024 129.929C137.099 129.85 137.099 129.85 137.174 129.77C137.3 129.655 137.3 129.655 137.437 129.655C137.452 129.605 137.468 129.556 137.484 129.504C137.662 129.124 138.012 128.891 138.331 128.627C138.506 128.456 138.677 128.282 138.847 128.106C139.695 127.234 140.605 126.644 141.799 126.365C142.048 126.304 142.048 126.304 142.291 126.192C142.504 126.102 142.658 126.068 142.884 126.047C143.375 125.968 143.81 125.674 144.131 125.297C144.305 125.15 144.495 125.124 144.715 125.071C144.808 125.047 144.901 125.024 144.996 125.001C145.042 124.988 145.089 124.977 145.138 124.965C145.334 124.914 145.526 124.854 145.72 124.792C146.131 124.664 146.546 124.553 146.964 124.445C147.194 124.386 147.194 124.386 147.396 124.31C148.183 124.072 149.097 124.13 149.912 124.105C150.093 124.098 150.274 124.091 150.455 124.081C150.718 124.069 150.981 124.061 151.245 124.054C151.325 124.049 151.405 124.044 151.487 124.039C151.838 124.033 152.06 124.045 152.349 124.254C152.754 124.651 153.076 125.075 153.286 125.601C153.39 125.833 153.46 125.882 153.659 126.025C153.73 126.161 153.799 126.298 153.865 126.436C154.031 126.705 154.195 126.97 154.419 127.194C154.784 127.557 154.988 128.05 155.204 128.508C155.35 128.778 155.35 128.778 155.584 128.969C155.843 128.997 156.097 128.979 156.357 128.961C156.426 128.958 156.496 128.954 156.568 128.951C157.294 128.929 157.294 128.929 157.902 128.585C157.96 128.512 158.016 128.437 158.071 128.362C158.339 128.022 158.619 127.718 158.939 127.429C158.993 127.38 158.993 127.38 159.049 127.33C159.41 127.006 159.75 126.719 160.189 126.504C160.315 126.42 160.435 126.332 160.557 126.243C160.841 126.039 161.14 125.896 161.46 125.758C161.642 125.679 161.822 125.596 162.002 125.512C162.316 125.369 162.634 125.247 162.959 125.135C163.1 125.083 163.238 125.025 163.375 124.964C163.63 124.86 163.882 124.79 164.15 124.728C164.895 124.554 164.895 124.554 165.62 124.313C165.73 124.093 165.722 123.867 165.688 123.629C165.629 123.502 165.629 123.502 165.551 123.385C165.389 123.107 165.364 122.986 165.413 122.67C165.511 122.454 165.632 122.255 165.757 122.054C165.915 121.788 166.058 121.523 166.175 121.238C166.258 121.05 166.351 120.867 166.444 120.684C166.553 120.468 166.658 120.256 166.754 120.034C166.849 119.811 166.952 119.593 167.059 119.375C167.092 119.307 167.126 119.238 167.16 119.169C167.271 118.969 167.398 118.805 167.544 118.63C167.614 118.516 167.682 118.402 167.75 118.287C167.796 118.243 167.841 118.197 167.888 118.15C167.916 118.066 167.916 118.066 167.944 117.979C168.05 117.758 168.147 117.76 168.369 117.671C168.389 117.62 168.41 117.569 168.431 117.516C168.518 117.301 168.627 117.177 168.786 117.008C168.841 116.949 168.897 116.889 168.954 116.827C169.039 116.737 169.039 116.737 169.125 116.645C169.224 116.532 169.323 116.419 169.422 116.307C169.948 115.725 170.515 115.204 171.187 114.796C171.256 114.75 171.323 114.705 171.393 114.659C171.484 114.635 171.577 114.615 171.668 114.599C171.852 114.555 171.935 114.529 172.081 114.406C172.18 114.178 172.18 114.015 172.15 113.768C172.105 113.712 172.059 113.655 172.012 113.597C171.875 113.426 171.875 113.426 171.844 113.199C171.919 112.58 172.217 112.201 172.595 111.728C172.985 111.243 172.985 111.243 173.249 110.687C173.364 110.573 173.479 110.459 173.593 110.345C173.64 110.254 173.686 110.163 173.731 110.071C173.822 109.979 173.914 109.888 174.006 109.797C174.098 109.66 174.19 109.524 174.28 109.386C174.326 109.341 174.371 109.296 174.418 109.249C174.436 109.197 174.455 109.145 174.474 109.091C174.576 108.859 174.713 108.737 174.899 108.564C175.196 108.296 175.196 108.296 175.381 107.948C175.43 107.921 175.48 107.895 175.531 107.867C175.717 107.747 175.788 107.669 175.913 107.494C176.158 107.152 176.452 106.87 176.755 106.579C176.81 106.522 176.865 106.466 176.923 106.407C177.092 106.243 177.268 106.088 177.447 105.932C177.7 105.708 177.876 105.493 178.062 105.209C178.196 105.084 178.335 104.967 178.476 104.849C178.6 104.739 178.699 104.629 178.8 104.498C178.966 104.307 179.002 104.306 179.229 104.25C179.249 104.199 179.269 104.146 179.29 104.092C179.395 103.841 179.549 103.772 179.78 103.635C179.842 103.586 179.842 103.586 179.904 103.537C180.431 103.159 181.078 102.955 181.704 102.812C181.744 102.62 181.775 102.459 181.773 102.265C181.659 102.086 181.659 102.086 181.498 101.922C181.422 101.785 181.354 101.645 181.287 101.503C181.218 101.357 181.218 101.357 181.085 101.169C181.013 100.522 181.113 99.9452 181.287 99.3248C181.365 99.0407 181.417 98.7542 181.468 98.4643C181.524 98.1454 181.594 97.8538 181.722 97.5557C181.796 97.3339 181.832 97.1063 181.872 96.8763C181.96 96.3754 182.095 95.9012 182.254 95.417C182.29 95.2932 182.326 95.1695 182.362 95.0449C182.439 94.7874 182.546 94.5623 182.666 94.3215C182.69 94.2293 182.711 94.1362 182.731 94.0432C182.792 93.7791 182.902 93.6412 183.079 93.4319C183.144 93.3048 183.209 93.1778 183.273 93.0507C183.417 92.7849 183.534 92.5798 183.822 92.4477C184.097 92.3688 184.377 92.3298 184.661 92.2949C184.827 92.2724 184.98 92.2434 185.141 92.1994C185.22 91.7999 185.22 91.7999 185.141 91.4111C185.096 91.3547 185.05 91.2982 185.004 91.2401C184.969 91.1919 184.934 91.1429 184.897 91.0922C184.711 90.8397 184.56 90.6487 184.295 90.4743C184.06 90.3165 184.032 90.2118 183.973 89.9394C183.902 89.5357 183.894 89.1437 183.895 88.7351C183.895 88.6653 183.895 88.5964 183.895 88.5241C183.894 88.3779 183.895 88.2309 183.895 88.0839C183.895 87.8621 183.895 87.6412 183.894 87.4203C183.893 85.2185 183.893 85.2185 184.181 84.196C184.26 83.8904 184.289 83.5847 184.316 83.2716C184.354 82.8621 184.418 82.5266 184.597 82.152C184.668 81.9751 184.682 81.8214 184.699 81.6329C184.781 81.108 185.172 80.7035 185.553 80.353C185.754 80.2077 185.923 80.0947 186.155 80.0108C186.316 79.9543 186.316 79.9543 186.4 79.8223C186.459 79.6288 186.457 79.4585 186.448 79.2575C186.409 79.24 186.371 79.2234 186.332 79.206C185.963 79.0075 185.551 78.7018 185.417 78.299C185.371 78.299 185.326 78.299 185.279 78.299C185.256 78.2417 185.232 78.1852 185.208 78.1263C185.178 78.0515 185.147 77.9776 185.115 77.9004C185.085 77.8264 185.055 77.7533 185.024 77.6769C184.939 77.4693 184.939 77.4693 184.798 77.2716C184.765 77.1088 184.765 77.1088 184.744 76.9136C184.732 76.8032 184.732 76.8032 184.719 76.691C184.707 76.5689 184.707 76.569 184.694 76.446C184.682 76.3173 184.682 76.3173 184.668 76.1861C184.505 74.5123 184.441 72.8501 184.436 71.1689C184.436 71.0923 184.436 71.0158 184.436 70.9369C184.428 68.8232 184.428 68.8232 184.738 67.9077C184.898 67.4326 184.959 66.9356 184.798 66.4527C184.755 66.4329 184.712 66.4131 184.668 66.3928C184.47 66.288 184.424 66.17 184.316 65.9733C184.261 65.8831 184.205 65.7933 184.149 65.7037C184.104 65.6328 184.104 65.6328 184.059 65.5604C183.986 65.4459 183.907 65.3346 183.827 65.2244C183.696 65.0113 183.625 64.8209 183.552 64.5836C183.486 64.3831 183.408 64.1902 183.329 63.9949C183.139 63.5075 183.013 63.016 182.899 62.5069C182.878 62.4166 182.857 62.3263 182.836 62.2361C182.708 61.6745 182.598 61.1123 182.521 60.5414C182.494 60.3454 182.468 60.1698 182.391 59.9864C182.237 59.5866 182.251 59.1521 182.249 58.7292C182.248 58.6466 182.248 58.564 182.248 58.4788C182.246 58.3074 182.247 58.136 182.249 57.9647C182.253 57.5238 182.253 57.5238 182.084 57.1306C181.886 56.9571 181.684 56.8527 181.443 56.7551C181.223 56.6609 181.223 56.6609 181.085 56.387C180.791 56.387 180.496 56.387 180.192 56.387C180.17 56.5 180.147 56.613 180.124 56.7293C180.034 56.8459 179.943 56.9596 179.848 57.0718C179.697 57.2991 179.556 57.5331 179.416 57.7669C179.259 58.0248 179.105 58.2304 178.886 58.4412C178.759 58.6205 178.641 58.8029 178.527 58.9906C178.368 59.2514 178.213 59.4605 177.992 59.6738C177.927 59.7713 177.862 59.869 177.798 59.967C177.655 60.1764 177.497 60.3738 177.339 60.5724C177.307 60.614 177.274 60.6557 177.241 60.6984C177.101 60.8746 176.965 61.0394 176.805 61.1968C176.67 61.3163 176.67 61.3163 176.618 61.5225C176.498 61.6155 176.378 61.7075 176.255 61.7959C176.012 61.9745 175.776 62.161 175.539 62.3485C175.496 62.3832 175.451 62.4179 175.406 62.4536C175.087 62.7071 174.801 62.9764 174.53 63.2815C174.318 63.4675 174.138 63.5046 173.868 63.5767C173.846 63.6445 173.823 63.7124 173.8 63.7822C173.687 63.8825 173.687 63.8825 173.546 63.9833C173.497 64.0187 173.447 64.0542 173.396 64.0906C173.323 64.1413 173.323 64.1413 173.249 64.193C173.209 64.2219 173.168 64.2508 173.127 64.2805C172.856 64.467 172.856 64.4669 172.7 64.4669C172.684 64.5083 172.667 64.5498 172.65 64.5924C172.541 64.7763 172.442 64.8258 172.253 64.9248C171.994 65.0722 171.782 65.2256 171.565 65.4298C171.117 65.8464 170.617 66.1875 170.117 66.5397C169.785 66.775 169.456 67.0144 169.126 67.2529C168.855 67.4487 168.58 67.639 168.3 67.8222C168.255 67.7996 168.21 67.777 168.163 67.7537C168.519 67.4406 168.889 67.1591 169.275 66.8849C169.384 66.8076 169.492 66.7303 169.601 66.653C169.648 66.6194 169.696 66.5858 169.744 66.5512C169.84 66.4822 169.935 66.4106 170.028 66.3375C170.156 66.2473 170.156 66.2473 170.294 66.2473C170.29 66.1964 170.286 66.1454 170.282 66.0929C170.295 65.8738 170.345 65.8054 170.478 65.6353C171.303 64.4396 171.158 62.8938 170.913 61.5225C170.879 61.38 170.847 61.2375 170.813 61.0951C170.687 60.5152 170.627 59.9323 170.573 59.3419C170.556 59.1577 170.537 58.9738 170.519 58.7899C170.401 57.5826 170.405 56.3856 170.487 55.1758C170.492 55.0901 170.496 55.0043 170.501 54.9159C170.546 54.2513 170.689 53.6877 170.947 53.0745C170.974 53.0076 171.002 52.9407 171.03 52.8718C171.114 52.6993 171.209 52.5669 171.325 52.4154C171.374 52.3156 171.42 52.2142 171.462 52.1116C171.975 50.8881 173.394 49.2111 174.616 48.6593C174.707 48.6264 174.797 48.5953 174.888 48.5659C175.06 48.5041 175.214 48.4209 175.376 48.337C175.981 48.0604 176.658 48.0535 177.313 48.0093C178.06 47.9543 178.691 47.878 179.288 47.3791C180.124 46.8184 181.362 46.9625 182.254 47.2799ZM150.935 128.537C150.613 128.707 150.293 128.852 149.952 128.979C149.793 129.04 149.793 129.04 149.604 129.175C149.284 129.264 148.953 129.265 148.624 129.277C148.558 129.281 148.492 129.283 148.423 129.286C147.943 129.305 147.462 129.318 146.982 129.329C146.889 129.331 146.889 129.331 146.795 129.333C146.486 129.341 146.177 129.347 145.867 129.354C144.719 129.298 144.719 129.298 143.679 129.599C143.551 129.789 143.551 129.789 143.452 129.997C143.336 130.228 143.19 130.365 143.005 130.545C142.982 130.612 142.959 130.68 142.936 130.75C142.89 130.771 142.845 130.792 142.798 130.814C142.753 130.838 142.708 130.862 142.661 130.887C142.651 130.932 142.641 130.978 142.631 131.024C142.618 131.069 142.606 131.114 142.592 131.161C142.478 131.208 142.364 131.253 142.249 131.297C142.2 131.388 142.155 131.479 142.111 131.571C142.059 131.612 142.008 131.653 141.954 131.694C141.757 131.854 141.612 132.02 141.454 132.218C141.403 132.282 141.351 132.345 141.299 132.41C141.249 132.473 141.2 132.535 141.148 132.599C141.098 132.659 141.048 132.718 140.997 132.78C140.861 132.94 140.861 132.94 140.801 133.164C140.78 133.226 140.758 133.288 140.736 133.352C140.635 133.386 140.635 133.386 140.53 133.42C140.374 133.679 140.374 133.679 140.324 133.968C140.222 134.002 140.222 134.002 140.117 134.037C140.086 134.313 140.097 134.419 140.263 134.649C140.447 134.806 140.447 134.806 140.655 134.802C140.952 134.693 141.195 134.529 141.424 134.311C141.458 134.209 141.458 134.209 141.492 134.106C141.63 134.06 141.767 134.014 141.905 133.968C141.948 133.924 141.99 133.88 142.034 133.836C142.209 133.667 142.363 133.616 142.592 133.544C142.735 133.495 142.735 133.495 142.847 133.389C143.052 133.252 143.225 133.23 143.468 133.194C143.513 133.186 143.557 133.179 143.603 133.172C143.744 133.15 143.885 133.129 144.027 133.108C144.168 133.086 144.309 133.065 144.45 133.043C144.579 133.023 144.707 133.004 144.835 132.985C145.059 132.943 145.263 132.876 145.48 132.804C145.673 132.79 145.857 132.782 146.051 132.782C146.129 132.783 146.129 132.783 146.209 132.783C146.479 132.787 146.705 132.803 146.957 132.907C147.258 133.03 147.547 133.035 147.868 133.04C147.919 133.041 147.969 133.042 148.021 133.044C148.366 133.043 148.532 132.972 148.779 132.736C148.829 132.714 148.878 132.69 148.929 132.667C149.064 132.609 149.064 132.609 149.111 132.473C149.212 132.285 149.334 132.194 149.504 132.064C149.566 132.017 149.627 131.968 149.69 131.919C149.753 131.873 149.815 131.826 149.878 131.777C150.293 131.467 150.293 131.467 150.673 131.118C150.851 130.946 151.028 130.831 151.24 130.704C151.406 130.604 151.568 130.501 151.73 130.395C151.808 130.345 151.808 130.345 151.887 130.293C152.019 130.209 152.019 130.209 152.078 130.065C152.119 129.565 152.107 129.081 151.872 128.627C151.557 128.304 151.314 128.332 150.935 128.537ZM123.07 131.777C122.832 132.13 122.733 132.449 122.654 132.864C122.517 133.527 122.517 133.527 122.413 133.81C122.285 134.157 122.23 134.52 122.166 134.882C122.106 135.144 122.01 135.366 121.902 135.611C121.865 135.748 121.83 135.885 121.799 136.022C121.744 136.253 121.69 136.448 121.593 136.665C121.461 136.982 121.404 137.302 121.342 137.638C121.282 137.878 121.188 138.063 121.077 138.282C121.026 138.454 120.979 138.626 120.936 138.8C120.815 139.28 120.815 139.28 120.729 139.484C120.65 139.69 120.631 139.877 120.614 140.096C120.607 140.172 120.599 140.248 120.593 140.326C120.596 140.562 120.628 140.779 120.802 140.953C121.478 141.006 122.072 140.978 122.709 140.746C123.094 140.611 123.469 140.562 123.874 140.516C124.797 140.405 125.48 140.011 126.164 139.378C126.245 139.215 126.244 139.113 126.245 138.933C126.247 138.878 126.248 138.824 126.248 138.768C126.23 138.524 126.182 138.294 126.132 138.056C126.061 137.697 126.017 137.334 125.967 136.971C125.919 136.617 125.857 136.268 125.785 135.918C125.74 135.693 125.71 135.467 125.68 135.24C125.596 134.599 125.596 134.599 125.399 133.985C125.253 133.638 125.241 133.302 125.226 132.931C125.205 132.468 125.15 132.042 124.858 131.67C124.394 131.338 123.495 131.386 123.07 131.777ZM96.4 137.871C96.1706 138.348 96.1722 138.919 96.1338 139.438C96.0863 140.068 95.9612 140.574 95.7126 141.158C95.6892 141.23 95.6659 141.302 95.6417 141.376C95.575 141.569 95.5749 141.569 95.4381 141.774C95.4064 141.959 95.3856 142.136 95.3689 142.322C95.3614 142.4 95.3539 142.477 95.3464 142.557C95.3264 142.785 95.3097 143.012 95.2972 143.24C95.2905 143.336 95.283 143.431 95.2738 143.527C95.2121 144.107 95.2121 144.107 95.4373 144.624C95.6142 144.768 95.7885 144.882 95.9879 144.993C96.0563 145.032 96.0563 145.032 96.1263 145.073C96.2398 145.138 96.3549 145.202 96.4692 145.267C96.6102 145.385 96.7445 145.503 96.8771 145.63C97.1023 145.841 97.3276 146.052 97.5645 146.251C97.8214 146.473 98.0625 146.709 98.3035 146.949C98.3411 146.985 98.3786 147.022 98.417 147.061C98.5913 147.235 98.7582 147.41 98.915 147.601C99.0752 147.793 99.247 147.966 99.4247 148.142C99.735 148.498 100.025 148.863 100.288 149.255C100.547 149.629 100.829 149.988 101.281 150.12C101.604 150.026 101.833 149.847 102.036 149.581C102.064 149.342 102.064 149.342 101.968 149.101C101.946 149.027 101.946 149.027 101.925 148.951C101.836 148.654 101.72 148.4 101.558 148.134C101.444 147.929 101.365 147.712 101.28 147.493C101.146 147.153 100.992 146.821 100.835 146.489C100.653 146.106 100.488 145.729 100.362 145.324C100.32 145.187 100.32 145.187 100.215 145.036C100.082 144.803 100.031 144.568 99.9702 144.309C99.916 144.135 99.8551 144.001 99.7709 143.842C99.6207 143.552 99.5506 143.269 99.4889 142.951C99.4205 142.614 99.3463 142.282 99.2528 141.95C99.1519 141.591 99.0818 141.231 99.0209 140.863C99.0093 140.797 98.9984 140.732 98.9867 140.665C98.925 140.305 98.8666 139.946 98.8124 139.586C98.7832 139.399 98.754 139.211 98.724 139.024C98.7098 138.932 98.6964 138.841 98.6831 138.748C98.6639 138.619 98.6439 138.49 98.623 138.361C98.6122 138.286 98.6013 138.211 98.5897 138.135C98.5204 137.905 98.4445 137.812 98.256 137.666C97.9724 137.562 97.6662 137.58 97.3668 137.576C97.3117 137.574 97.2566 137.572 97.2008 137.57C96.8479 137.567 96.6469 137.596 96.4 137.871Z" fill="white"/>
</svg>