<svg width="256" height="256" title="Asciidoctor Docs" viewBox="0 0 256 256" fill="none" xmlns="http://www.w3.org/2000/svg">
<rect width="256" height="256" rx="40" fill="#E40046"/>
<path fill-rule="evenodd" clip-rule="evenodd" d="M132.869 50.0009C131.86 50.0208 130.878 50.3335 130.043 50.901C129.209 51.4685 128.558 52.2661 128.17 53.1966L97.0871 127.805C96.8156 128.436 96.6721 129.114 96.6652 129.801C96.6583 130.488 96.7879 131.169 97.0467 131.805C97.3055 132.441 97.6882 133.02 98.1727 133.508C98.6572 133.996 99.2338 134.382 99.8692 134.646C100.505 134.91 101.186 135.045 101.874 135.044C102.562 135.043 103.243 134.905 103.878 134.639C104.512 134.374 105.088 133.985 105.571 133.496C106.053 133.007 106.434 132.427 106.691 131.789L132.932 68.7909L187.971 202.725C188.226 203.361 188.605 203.941 189.086 204.43C189.567 204.919 190.14 205.309 190.772 205.576C191.405 205.843 192.084 205.983 192.771 205.986C193.458 205.99 194.138 205.858 194.774 205.598C195.409 205.338 195.986 204.954 196.472 204.47C196.959 203.986 197.344 203.411 197.606 202.778C197.868 202.144 198.002 201.465 198 200.78C197.998 200.094 197.86 199.416 197.594 198.784L137.779 53.2222C137.381 52.2539 136.699 51.4283 135.823 50.8534C134.947 50.2786 133.918 49.9814 132.869 50.0009Z" fill="white"/>
<path d="M88.8103 155.828C87.7889 155.85 86.7965 156.171 85.9571 156.752C85.1176 157.334 84.4682 158.149 84.09 159.096L67.5691 198.761C67.2975 199.392 67.1541 200.071 67.1472 200.757C67.1402 201.444 67.2699 202.125 67.5286 202.762C67.7874 203.398 68.1701 203.977 68.6546 204.464C69.1391 204.952 69.7158 205.339 70.3511 205.602C70.9865 205.866 71.668 206.001 72.3561 206C73.0442 205.999 73.7252 205.861 74.3597 205.596C74.9942 205.33 75.5696 204.941 76.0525 204.452C76.5354 203.963 76.9162 203.383 77.1729 202.746L93.6938 163.08C94.0399 162.282 94.1794 161.41 94.0996 160.544C94.0197 159.678 93.7231 158.846 93.2369 158.124C92.7507 157.402 92.0905 156.814 91.3171 156.413C90.5436 156.012 89.6816 155.809 88.8103 155.828Z" fill="white"/>
<path fill-rule="evenodd" clip-rule="evenodd" d="M53.2007 152.562C52.5177 152.562 51.8415 152.697 51.2105 152.958C50.5795 153.218 50.0062 153.601 49.5232 154.083C49.0403 154.565 48.6572 155.137 48.3959 155.767C48.1345 156.396 48 157.071 48 157.753C48 158.434 48.1345 159.109 48.3959 159.739C48.6572 160.369 49.0403 160.941 49.5232 161.423C50.0062 161.905 50.5795 162.287 51.2105 162.548C51.8415 162.809 52.5177 162.943 53.2007 162.943H113.265C114.645 162.943 115.967 162.396 116.943 161.423C117.918 160.45 118.466 159.129 118.466 157.753C118.466 156.376 117.918 155.056 116.943 154.083C115.967 153.109 114.645 152.562 113.265 152.562H53.2007ZM64.1968 127.921C63.5047 127.907 62.8167 128.03 62.173 128.284C61.5293 128.538 60.943 128.918 60.4484 129.402C59.9537 129.885 59.5607 130.462 59.2925 131.099C59.0242 131.736 58.886 132.419 58.886 133.11C58.886 133.801 59.0242 134.485 59.2925 135.122C59.5607 135.759 59.9537 136.336 60.4484 136.819C60.943 137.302 61.5293 137.682 62.173 137.937C62.8167 138.191 63.5047 138.314 64.1968 138.3H124.252C125.631 138.3 126.954 137.753 127.929 136.779C128.905 135.806 129.453 134.486 129.453 133.109C129.453 131.733 128.905 130.412 127.929 129.439C126.954 128.466 125.631 127.919 124.252 127.919L64.1968 127.921Z" fill="white"/>
</svg>