<svg width="256" height="256" title="ASPaper" viewBox="0 0 256 256" fill="none" xmlns="http://www.w3.org/2000/svg" id="aspaper">
<style>
#aspaper {
    rect {fill: #15191C}

    @media (prefers-color-scheme: light) {
        rect {fill: #F4F2ED}
    }
}
</style>
<rect width="256" height="256" rx="40" fill="#15191C"/>
<path d="M167.546 42L167.647 42.3035L166.535 44.3266L164.208 48.9798L163.197 50.9017L160.87 55.4538L159.353 58.3873L158.341 60.4104L157.329 62.3324L156.419 64.052L155.61 65.6705L153.789 69.211L152.98 71.2341L152.373 73.2572L151.968 75.5838L151.867 77V78.7197L152.069 80.8439L152.575 83.1705L153.283 85.2948L154.396 87.6214L155.408 89.1387L156.318 90.2514L157.431 91.4653L158.645 92.578L160.061 93.7919L162.084 95.3092L163.905 96.7254L165.725 98.0405L167.85 99.659L169.266 100.772L170.783 102.087L171.491 102.795L172.098 103.301L172.806 104.11L175.436 106.74L176.347 107.853L177.257 108.864L178.572 110.685L180.292 113.315L181.101 114.63L182.517 116.957L183.428 118.575L184.642 120.902L185.855 123.532L186.766 125.96L187.676 128.994L188.384 131.928L188.89 134.76L189.295 138.098L189.497 141.234V144.37L189.295 147.708L188.991 150.439L188.486 153.272L187.879 156.003L186.867 159.543L185.855 162.376L184.743 165.006L184.642 165.208L187.171 163.994L191.621 161.769L193.948 160.454L196.477 159.038L199.309 157.318L201.535 155.902L204.569 153.879L206.592 152.462L208.413 151.147L211.448 148.821L213.066 147.506L214.483 146.393L215.798 145.28H216L215.798 145.786L215.09 146.899L214.483 148.012L213.572 149.63L212.156 151.855L211.145 153.474L210.133 154.89L209.02 156.509L207.402 158.633L206.491 159.847L204.671 162.072L203.457 163.488L202.749 164.298L200.928 166.321L199.512 167.838L196.882 170.468L196.072 171.176L194.454 172.694L193.341 173.604L192.329 174.514L191.217 175.425L189.699 176.639L187.98 177.954L186.462 179.066L184.439 180.483L182.922 181.494L181.202 182.607L178.876 184.023L176.043 185.642L173.11 187.159L171.491 187.968L169.165 189.081L166.029 190.396L163.803 191.306L163.298 192.116L161.983 194.442L160.87 196.162L160.061 197.376H160.364L165.017 196.162L169.367 194.847L173.009 193.633L175.538 192.723L178.471 191.61L182.113 190.092L185.046 188.777L188.486 187.159L190.408 186.147L193.139 184.731L194.96 183.72L195.87 183.113H196.173L195.971 183.517L190.711 188.777L189.902 189.486L188.587 190.699L187.474 191.61L185.957 192.925L184.642 193.936L182.821 195.353L181 196.668L177.055 199.298L174.526 200.815L172.199 202.13L169.165 203.749L166.838 204.861L163.399 206.379L159.454 207.896L155.812 209.11L151.564 210.324L148.63 211.032L144.584 211.841L140.74 212.448L135.986 212.954L133.052 213.156L130.725 213.257H126.072L122.026 213.055L118.587 212.751L114.743 212.246L111.101 211.639L106.145 210.526L102.806 209.616L98.659 208.301L95.1185 206.986L92.185 205.772L89.7572 204.659L86.4191 203.04L84.1936 201.827L81.5636 200.309L79.6416 199.095L78.0231 198.084L76.4046 196.971L74.9884 195.96L73.3699 194.746L71.8526 193.532L70.5376 192.52L69.0202 191.205L67.9075 190.295L66.9971 189.384L66.1879 188.676L65.0751 187.564L64.2659 186.855L63.1532 185.743L62.4451 184.934L60.7254 183.214L61.0289 183.113L63.3555 184.428L65.5809 185.642L70.2341 187.968L73.2688 189.384L76.3035 190.699L79.0347 191.812L82.9798 193.329L86.6214 194.543L89.5549 195.454L92.6908 196.364L96.6358 197.376H96.9393L95.7254 195.656L94.3092 193.228L93.2977 191.408L92.3873 191.003L88.341 189.283L84.8006 187.665L81.4624 185.945L78.6301 184.327L76.4046 183.012L74.685 181.899L72.5607 180.483L70.841 179.269L69.4249 178.257L67.604 176.841L66.1879 175.728L64.8728 174.616L63.7601 173.705L62.6474 172.694L61.8382 171.986L60.6243 170.873L58.9046 169.254L56.7803 167.13L56.0723 166.321L55.263 165.512L54.5549 164.702L53.6445 163.691L52.7341 162.578L51.5202 161.162L50.711 160.15L49.6994 158.835L48.1821 156.812L46.9682 155.092L44.7428 151.754L43.1243 149.124L42.1127 147.303L41 145.381H41.3035L42.7197 146.595L43.6301 147.303L44.8439 148.315L46.8671 149.832L48.6879 151.249L50.104 152.26L51.9249 153.575L56.0723 156.306L57.9942 157.52L59.7139 158.532L61.9393 159.847L64.8728 161.465L67.604 162.881L71.448 164.803L74.3815 166.118L74.7861 166.22L73.2688 163.084L71.8526 159.645L70.6387 156.205L69.3237 151.552L68.5145 147.809L67.9075 143.965L67.604 141.538L67.5029 140.02V136.176L67.8064 132.535L68.4133 128.691L69.2225 125.049L70.2341 121.509L71.448 117.968L72.763 114.731L73.9769 112.101L75.2919 109.471L76.6069 107.145L78.2254 104.514L79.0347 103.301L80.2486 101.581L81.159 100.367L82.1705 99.052L83.2832 97.737L84.4971 96.3208L85.711 95.0058L88.341 92.3757L89.1503 91.6676L90.5665 90.4538L92.2861 89.1387L93.8035 88.026L95.8266 86.711L97.3439 85.8006L97.7486 84.9913L99.0636 81.9566L100.176 79.9335L101.694 77.4046L103.514 74.6734L104.829 72.8526L106.043 71.2341L106.853 70.2225L107.763 69.1098L108.876 67.7948L110.494 66.0751L111.202 65.2659L112.618 63.8497L113.428 63.1416L114.743 61.9277L115.855 61.0173L117.373 59.8035L118.789 58.7919L120.306 57.7803L122.228 56.5665L124.353 55.3526L126.578 54.1387L128.905 53.026L132.04 51.6098L135.783 50.0925L139.627 48.6763L143.775 47.4624L148.023 46.3497L152.575 45.237L158.038 44.0231L165.321 42.5058L167.344 42.1012L167.546 42Z" fill="url(#paint0_linear_189_100)"/>
<path d="M167.546 42L167.647 42.3035L166.535 44.3266L164.208 48.9798L163.197 50.9017L160.87 55.4538L159.353 58.3873L158.341 60.4104L157.329 62.3324L156.419 64.052L155.61 65.6705L153.789 69.211L152.98 71.2341L152.373 73.2572L151.968 75.5838L151.867 77V78.7197L152.069 80.8439L152.575 83.1705L153.283 85.2948L154.396 87.6214L155.408 89.1387L156.318 90.2514L157.431 91.4653L158.645 92.578L160.061 93.7919L162.084 95.3092L163.905 96.7254L165.725 98.0405L167.85 99.659L169.266 100.772L170.783 102.087L171.491 102.795L172.098 103.301L172.806 104.11L175.436 106.74L176.347 107.853L177.257 108.864L178.572 110.685L180.292 113.315L181.101 114.63L182.517 116.957L183.428 118.575L184.642 120.902L185.855 123.532L186.766 125.96L187.676 128.994L188.384 131.928L188.89 134.76L189.295 138.098L189.497 141.234V144.37L189.295 147.708L188.991 150.439L188.789 151.451L188.182 150.844L188.081 151.147L187.879 151.249L187.474 152.26L186.968 152.968L186.766 152.766V152.462L186.462 153.069L186.26 153.676L185.855 154.384H185.653L185.754 154.688L185.249 155.295H185.046L184.945 155.801L184.743 155.902L184.844 154.789L183.934 155.295L182.922 155.194L182.517 154.89L181.607 154.789V154.283L180.899 154.182L180.393 154.384L179.685 154.283L178.673 153.575L178.37 153.98L178.269 154.486L177.965 154.182V153.98L177.662 153.676V153.474H177.46L177.358 151.754L177.055 151.957L176.954 151.35L176.65 151.653L176.549 151.046V149.731L176.145 149.327L175.639 149.832L175.335 149.63V148.214L175.639 145.28V140.223L175.335 137.491L174.829 134.659L174.121 131.827L173.009 128.59L171.39 125.251L170.075 122.925L168.254 120.092L167.142 118.474L166.231 117.26L165.017 115.844L161.173 112L160.061 111.09L158.341 109.673L157.228 108.864L155.306 107.448L152.676 105.425L151.058 104.211L149.642 102.997L147.214 100.772L146.101 99.5578L144.685 97.8381L143.673 96.422L142.561 94.6012L141.347 92.2746L140.335 89.948L139.324 86.9133L138.717 84.0809L138.312 81.2486L138.11 78.315V76.8988L138.312 73.9653L138.616 71.841L139.121 69.4133L139.931 66.6821L140.942 64.052L141.448 62.9393L141.549 62.6358L139.02 63.3439L137.098 64.052L134.569 65.1647L132.749 66.1763L131.636 66.7832L129.815 67.896L128.803 68.604L126.983 69.9191L125.668 70.9306L124.251 72.0434L122.835 73.2572L121.52 74.4711L119.598 76.3931L118.89 77.2023L117.98 78.2139L117.171 79.2254L115.855 80.9451L114.844 82.3613L113.832 83.8786L112.72 85.6994L111.708 87.5202L110.595 89.6445L109.887 91.263L109.28 92.6792L108.168 95.7139L107.257 98.7486L106.65 101.176L105.942 105.02L105.639 107.347L105.436 109.572L105.335 111.595V114.529L105.639 118.474L106.043 121.408L106.853 125.353L107.864 128.792L109.179 132.535L109.382 133.85L109.28 134.659L108.775 135.671L108.066 136.48L107.156 137.087L106.347 137.39H104.526L103.413 136.986L102.604 136.379L102.098 135.873L101.188 134.76L100.075 133.142L99.2659 131.827L98.2543 130.006L97.2428 127.78L96.2312 124.948L95.5231 122.217L95.0173 119.182L94.815 117.26V112.405L95.1185 109.775L95.6243 107.043L96.3324 104.413L97.1416 102.087L97.6474 100.873L97.1416 101.176L96.0289 102.289L95.2197 102.997L93.3988 104.818L92.4884 105.931L91.3757 107.246L90.3642 108.662L89.2514 110.28L88.4422 111.595L87.2283 113.72L86.0145 116.046L84.8006 118.879L83.8902 121.408L83.0809 124.038L82.2717 127.376L81.6647 131.017L81.3613 133.85L81.2601 135.772V138.301L81.4624 141.234L81.8671 144.066L82.474 147.202L82.9798 149.124L82.8786 149.63H82.6763V149.428L82.1705 149.731L82.0694 149.934V151.754L81.9682 151.855L81.8671 152.766L81.5636 153.272H81.3613L81.2601 152.968L81.0578 152.867L80.9566 153.069L80.6532 152.462H80.2486V152.766L79.6416 152.968L79.3382 152.867L79.5405 152.766L79.4393 152.462L78.2254 152.766L77.5173 152.968V153.171H77.315L77.2139 153.474H77.0116V153.676H76.8092V153.373L76.5058 153.272V153.069L76.2023 153.272L74.7861 153.474V153.879L74.4827 153.98L74.3815 154.486L73.5723 154.384L73.1676 154.486H72.8642L72.6619 154.182V153.676L72.2572 153.474L71.9538 152.766L71.6503 152.968L71.1445 152.26L71.0434 151.855L70.5376 151.147L70.1329 149.934L69.7283 149.832L69.526 150.237H69.2225L69.0202 150.136L68.4133 147.202L67.8064 143.156L67.604 141.538L67.5029 140.02V136.176L67.8064 132.535L68.4133 128.691L69.2225 125.049L70.2341 121.509L71.448 117.968L72.763 114.731L73.9769 112.101L75.2919 109.471L76.6069 107.145L78.2254 104.514L79.0347 103.301L80.2486 101.581L81.159 100.367L82.1705 99.052L83.2832 97.737L84.4971 96.3208L85.711 95.0058L88.341 92.3757L89.1503 91.6676L90.5665 90.4538L92.2861 89.1387L93.8035 88.026L95.8266 86.711L97.3439 85.8006L97.7486 84.9913L99.0636 81.9566L100.176 79.9335L101.694 77.4046L103.514 74.6734L104.829 72.8526L106.043 71.2341L106.853 70.2225L107.763 69.1098L108.876 67.7948L110.494 66.0751L111.202 65.2659L112.618 63.8497L113.428 63.1416L114.743 61.9277L115.855 61.0173L117.373 59.8035L118.789 58.7919L120.306 57.7803L122.228 56.5665L124.353 55.3526L126.578 54.1387L128.905 53.026L132.04 51.6098L135.783 50.0925L139.627 48.6763L143.775 47.4624L148.023 46.3497L152.575 45.237L158.038 44.0231L165.321 42.5058L167.344 42.1012L167.546 42Z" fill="url(#paint1_linear_189_100)"/>
<path d="M152.373 104.919L152.777 105.121L153.081 105.425L153.587 105.526L153.789 105.829V106.133H154.699L154.902 106.234V106.436L155.509 106.74L155.61 107.043H155.913L156.925 107.549L157.329 108.055L158.341 108.46L158.948 109.066L159.96 109.572L160.061 109.775L160.668 110.078L162.084 111.191L162.792 111.899L162.994 112V112.202L163.399 112.405L163.905 112.91L164.41 113.214V113.517L164.815 113.72L165.422 114.428L165.928 114.934L166.636 115.54L166.939 115.844V116.046L167.344 116.147V116.35H167.546L167.951 116.855L168.558 117.564L169.064 118.272L169.367 118.777L169.569 119.182L169.873 119.283L170.277 119.89L170.783 120.699L171.39 121.913L172.199 122.925L172.402 123.127L172.503 122.925H172.604V122.723L172.301 122.621V122.116L172.503 121.913V121.408H172.301L171.997 120.902L172.402 121.003L172.503 120.598L172.705 120.699L172.908 121.408L173.413 121.61V121.812L174.324 122.014L174.829 121.812L174.931 121.913V122.419L175.538 122.318L176.043 122.217V122.419L176.751 122.52H177.055V122.723L177.561 122.621L177.46 122.318H177.864L178.572 122.116H178.876L179.28 121.913L179.887 122.014L180.09 122.318L180.393 122.014V121.812H180.595L180.697 121.61H181.202L181.405 121.509L181.607 122.014L182.113 122.52L182.315 122.318L182.821 122.52L183.124 121.711H183.529V121.509L184.035 121.711L184.237 122.014L184.54 122.116L184.945 122.621L185.249 123.127L185.35 123.532H185.552V123.734L185.957 123.835L186.766 125.96L187.676 128.994L188.384 131.928L188.89 134.76L189.295 138.098L189.497 141.234V144.37L189.295 147.708L188.991 150.439L188.789 151.451L188.182 150.844L188.081 151.147L187.879 151.249L187.474 152.26L186.968 152.968L186.766 152.766V152.462L186.462 153.069L186.26 153.676L185.855 154.384H185.653L185.754 154.688L185.249 155.295H185.046L184.945 155.801L184.743 155.902L184.844 154.789L183.934 155.295L182.922 155.194L182.517 154.89L181.607 154.789V154.283L180.899 154.182L180.393 154.384L179.685 154.283L178.673 153.575L178.37 153.98L178.269 154.486L177.965 154.182V153.98L177.662 153.676V153.474H177.46L177.358 151.754L177.055 151.957L176.954 151.35L176.65 151.653L176.549 151.046V149.731L176.145 149.327L175.639 149.832L175.335 149.63V148.214L175.639 145.28V140.223L175.335 137.491L174.829 134.659L174.121 131.827L173.009 128.59L171.39 125.251L170.075 122.925L168.254 120.092L167.142 118.474L166.231 117.26L165.017 115.844L161.173 112L160.061 111.09L158.341 109.673L157.228 108.864L155.306 107.448L152.676 105.425L152.272 105.02L152.373 104.919Z" fill="url(#paint2_linear_189_100)"/>
<path d="M73.4711 115.642L73.6734 115.743V116.249L73.3699 117.159L72.8642 117.665V118.272L72.6619 118.474V119.182L72.5607 119.688L72.6619 120.092L72.5607 120.396L72.8642 119.789H73.0665L73.1676 120.295L72.9653 120.598L72.8642 120.902L73.1676 121.003L73.2688 121.509L73.5723 121.61L73.6734 121.104L74.078 121.003V120.699H74.4827L74.685 121.104L75.0896 120.699H75.3931V120.396H75.5954L75.6965 120.801V121.003L76.2023 121.205L76.5058 121.509L76.6069 121.913L77.5173 122.116H78.1243L78.2254 121.812H78.6301L78.7312 122.419L79.7428 122.318L79.8439 122.116L80.3497 121.913L81.0578 121.306L81.159 121.61L80.9566 121.913V122.217L81.159 122.419L80.9566 122.824L81.6647 122.621L81.7659 123.228L81.9682 122.723L82.1705 122.824L82.5751 121.913L83.1821 120.801H83.3844L83.4855 120.194L83.9913 119.89L84.0925 120.092L84.2948 119.991L83.9913 121.104L83.0809 124.038L82.2717 127.376L81.6647 131.017L81.3613 133.85L81.2601 135.772V138.301L81.4624 141.234L81.8671 144.066L82.474 147.202L82.9798 149.124L82.8786 149.63H82.6763V149.428L82.1705 149.731L82.0694 149.934V151.754L81.9682 151.855L81.8671 152.766L81.5636 153.272H81.3613L81.2601 152.968L81.0578 152.867L80.9566 153.069L80.6532 152.462H80.2486V152.766L79.6416 152.968L79.3382 152.867L79.5405 152.766L79.4393 152.462L78.2254 152.766L77.5173 152.968V153.171H77.315L77.2139 153.474H77.0116V153.676H76.8092V153.373L76.5058 153.272V153.069L76.2023 153.272L74.7861 153.474V153.879L74.4827 153.98L74.3815 154.486L73.5723 154.384L73.1676 154.486H72.8642L72.6619 154.182V153.676L72.2572 153.474L71.9538 152.766L71.6503 152.968L71.1445 152.26L71.0434 151.855L70.5376 151.147L70.1329 149.934L69.7283 149.832L69.526 150.237H69.2225L69.0202 150.136L68.4133 147.202L67.8064 143.156L67.604 141.538L67.5029 140.02V136.176L67.8064 132.535L68.4133 128.691L69.2225 125.049L69.9306 122.52L70.1329 122.621L70.4364 122.116L70.841 121.205L70.9422 121.003H71.1445L71.2457 120.194L71.6503 119.283L72.8642 116.451L73.0665 116.249L73.2688 115.743L73.4711 115.642Z" fill="url(#paint3_linear_189_100)"/>
<path d="M151.462 146.697H151.564L151.665 147.607L151.361 149.63L150.754 151.855L150.046 153.777L149.035 155.902L148.124 157.318L146.91 158.936L145.899 160.049L144.786 160.96L143.673 161.769L141.954 162.78L139.223 164.095L137.301 164.702L135.075 165.208L132.85 165.41L131.029 165.309L129.208 165.006L127.691 164.601L125.668 163.893L123.24 162.679L121.116 161.263L120.104 160.454L118.991 159.442L118.486 158.936L121.116 158.026L123.139 157.116L124.858 156.104L126.477 154.89L127.691 153.777L128.803 152.665L130.22 150.743L130.523 150.237L131.231 150.338L131.535 149.934H131.737L131.939 149.428L132.546 148.517H132.749L132.85 148.72V149.327L132.749 150.035L133.052 149.832L132.951 150.338L133.457 150.136L133.659 150.338L133.861 151.552L134.367 151.957V152.564L134.671 152.968L134.772 153.474L135.783 153.373L135.682 152.968L135.581 152.159H135.986V152.361L136.896 152.159L137.199 152.361L138.312 152.26L138.919 151.957L139.829 151.754L140.841 151.552L141.549 151.653L143.37 152.462L143.471 152.968L144.078 153.373L143.977 153.879L144.179 153.98L144.28 154.384L144.786 153.777L145.393 153.676V154.182H145.595L145.798 154.486L146.303 153.98L147.113 153.069H147.315V152.867L147.821 152.462L147.922 152.968L148.327 152.564L148.529 152.665H148.832L149.338 152.159L149.642 151.552L150.046 151.35L150.35 150.136L150.754 150.035L150.855 149.428H151.058L151.159 148.416L151.058 148.315V147.607H151.26V147L151.462 146.697Z" fill="url(#paint4_linear_189_100)"/>
<path d="M152.373 104.919L152.777 105.121L153.081 105.425L153.587 105.526L153.789 105.829V106.133H154.699L154.902 106.234V106.436L155.509 106.74L155.61 107.043H155.913L156.925 107.549L157.329 108.055L158.341 108.46L158.948 109.066L159.96 109.572L160.061 109.775L160.668 110.078L162.084 111.191L162.792 111.899L162.994 112V112.202L163.399 112.405L163.905 112.91L164.41 113.214V113.517L164.815 113.72L165.422 114.428L165.928 114.934L166.636 115.54L166.939 115.844V116.046L167.344 116.147V116.35H167.546L167.951 116.855L168.558 117.564L169.064 118.272L169.367 118.777L169.569 119.182L169.873 119.283L170.277 119.89L170.783 120.699L171.39 121.913L172.199 122.925L172.402 123.127L172.503 122.925H172.604V122.723L172.301 122.621V122.116L172.503 121.913V121.408H172.301L171.997 120.902L172.402 121.003L172.503 120.598L172.705 120.699L172.908 121.408L173.413 121.61V121.812L174.324 122.014L174.829 121.812L174.931 121.913V122.419L175.538 122.318L176.043 122.217V122.419L176.751 122.52H177.055V122.723L177.561 122.621L177.46 122.318H177.864L178.572 122.116H178.876L179.28 121.913L179.887 122.014L180.09 122.318L180.393 122.014V121.812H180.595L180.697 121.61H181.202L181.405 121.509L181.607 122.014L182.113 122.52L182.315 122.318L182.821 122.52L183.124 121.711H183.529V121.509L184.035 121.711L184.237 122.014L184.54 122.116L184.945 122.621L185.249 123.127L185.35 123.532H185.552V123.734L185.957 123.835L186.766 125.96L187.676 128.994L188.283 131.422V132.029L187.879 132.13L187.676 131.827L187.373 131.928L187.069 132.737L186.867 134.052L186.361 134.558L185.754 134.659L185.451 134.254V134.052L184.945 133.951L184.54 133.749V133.546L183.731 133.647L183.327 133.951L182.821 134.052H182.517L182.113 134.558L181.607 134.153H180.798L179.786 134.861H178.775L178.269 135.367L177.358 134.659L176.853 133.647L176.347 133.243V133.749L175.841 133.243L175.538 132.13L175.639 132.939L175.74 133.445L175.942 134.254V134.962L175.639 134.861L175.436 134.558L175.133 134.457L175.032 134.76L174.829 134.659L174.121 131.827L173.009 128.59L171.39 125.251L170.075 122.925L168.254 120.092L167.142 118.474L166.231 117.26L165.017 115.844L161.173 112L160.061 111.09L158.341 109.673L157.228 108.864L155.306 107.448L152.676 105.425L152.272 105.02L152.373 104.919Z" fill="url(#paint5_linear_189_100)"/>
<path d="M73.4711 115.642L73.6734 115.743V116.249L73.3699 117.159L72.8642 117.665V118.272L72.6619 118.474V119.182L72.5607 119.688L72.6619 120.092L72.5607 120.396L72.8642 119.789H73.0665L73.1676 120.295L72.9653 120.598L72.8642 120.902L73.1676 121.003L73.2688 121.509L73.5723 121.61L73.6734 121.104L74.078 121.003V120.699H74.4827L74.685 121.104L75.0896 120.699H75.3931V120.396H75.5954L75.6965 120.801V121.003L76.2023 121.205L76.5058 121.509L76.6069 121.913L77.5173 122.116H78.1243L78.2254 121.812H78.6301L78.7312 122.419L79.7428 122.318L79.8439 122.116L80.3497 121.913L81.0578 121.306L81.159 121.61L80.9566 121.913V122.217L81.159 122.419L80.9566 122.824L81.6647 122.621L81.7659 123.228L81.9682 122.723L82.1705 122.824L82.5751 121.913L83.1821 120.801H83.3844L83.4855 120.194L83.9913 119.89L84.0925 120.092L84.2948 119.991L83.9913 121.104L83.0809 124.038L82.2717 127.376L81.7659 130.309L81.5636 130.613L81.4624 130.41L81.0578 130.512L81.159 131.422L81.2601 131.928L81.159 132.434L80.9566 132.636L80.4509 132.838L80.2486 133.445L79.7428 133.647L79.3382 134.558L79.237 134.76L78.3266 135.064H78.0231L77.8208 134.355H77.6185L77.315 133.85L76.9104 133.749L76.4046 133.951L74.3815 134.153L73.4711 134.254L72.9653 134.457L72.8642 134.76L72.1561 134.861L71.2457 134.659L71.1445 135.266H70.841L70.7399 135.569H70.3353L70.1329 134.558L69.8295 134.052L69.6272 133.445L69.526 133.344L69.4249 131.725L69.1214 131.523H68.9191L68.8179 132.636L68.5145 133.04L68.4133 134.254H68.211L68.1098 134.861L67.7052 134.76V133.546L68.1098 130.512L68.6156 127.679L69.4249 124.24L69.9306 122.52L70.1329 122.621L70.4364 122.116L70.841 121.205L70.9422 121.003H71.1445L71.2457 120.194L71.6503 119.283L72.8642 116.451L73.0665 116.249L73.2688 115.743L73.4711 115.642Z" fill="url(#paint6_linear_189_100)"/>
<path d="M131.838 116.249L132.142 116.35L132.951 118.069L134.266 120.396L135.48 122.217L136.694 123.835L137.705 124.948L138.413 125.757L139.425 126.769L140.234 127.477L141.549 128.691L142.662 129.601L144.28 131.118L145.292 132.029L147.214 133.951L148.225 135.266V135.468L147.517 135.266V135.064H147.315L147.113 134.558H146.91V134.355L146.405 134.457L146.202 134.558L144.988 134.153L144.887 133.85L143.977 134.052L143.876 133.951L143.977 134.355L144.382 134.861V135.266L143.775 135.367L143.37 135.165L143.066 134.861L141.448 134.659L140.436 134.355L139.121 134.052L138.11 133.951L137.604 134.355H137.301V134.558H137.098V134.76L136.694 134.962L136.491 134.558L135.986 134.76L135.277 135.165H135.075L134.974 135.468L134.367 135.165L133.76 134.76L133.457 134.659V134.457H133.254L132.951 133.951L132.749 134.457L132.445 135.165L131.939 135.266L131.029 131.321L130.624 128.994L130.321 126.061V123.329L130.624 120.699L131.13 118.474L131.838 116.249Z" fill="url(#paint7_linear_189_100)"/>
<path d="M95.9277 119.081L96.1301 119.384L96.5347 121.003L96.8382 121.408L97.0405 122.014L97.8497 122.116L98.052 122.723L98.2543 122.318V122.52L98.8613 122.419L99.1647 123.228L99.6705 123.329L99.7717 123.633L101.188 123.431L101.289 123.835L101.592 123.633L101.491 123.228L101.896 123.329L102.705 123.633L103.413 123.734L103.616 123.329L104.02 123.127V123.329L104.324 123.228L104.526 122.621L104.728 122.723V123.431L105.032 123.835L104.931 122.014L105.032 121.205L105.234 121.509L105.335 122.116H105.538L105.74 122.52L105.942 123.936H106.145V124.139H106.347L106.549 123.936L106.954 125.656L107.864 128.792L109.179 132.535L109.382 133.85L109.28 134.659L108.775 135.671L108.066 136.48L107.156 137.087L106.347 137.39H104.526L103.413 136.986L102.604 136.379L102.098 135.873L101.188 134.76L100.075 133.142L99.2659 131.827L98.2543 130.006L97.2428 127.78L96.4335 125.555L96.5347 124.746L96.3324 124.139L96.0289 122.318V121.104L95.8266 119.991L95.7254 119.486L95.9277 119.081Z" fill="url(#paint8_linear_189_100)"/>
<path d="M108.066 132.434H108.572L108.673 132.939H108.876V133.142H109.078L109.179 132.939L109.382 133.647L109.28 134.659L108.775 135.671L108.066 136.48L107.156 137.087L106.347 137.39L105.74 137.289V136.986H105.538L105.335 136.48L104.425 136.277L104.324 135.974L103.818 135.873L103.616 135.671L102.908 135.569V134.962L102.705 134.861L102.503 134.457L102.908 134.659L103.514 135.064L104.425 135.165H105.133L106.043 134.861L106.246 134.355L106.954 134.052L107.358 133.951H107.763L108.066 132.434Z" fill="url(#paint9_linear_189_100)"/>
<path d="M131.838 116.249L132.142 116.35L132.951 118.069L134.266 120.396L135.48 122.217L136.694 123.835L137.705 124.948L138.413 125.757L139.324 126.668V126.87L138.818 126.668L138.312 126.263L138.11 126.061L137.503 125.555L137.402 125.353H137.199V125.15H136.997V124.948H136.795V124.746L136.39 124.543L136.087 124.24V123.936H135.884L135.277 123.228V123.026H135.075L134.367 122.116L133.76 121.104L133.355 120.396V120.194H133.153L132.85 119.283L132.546 118.272L132.142 117.867L131.939 117.766L131.737 118.373L131.636 119.587L131.434 121.306L131.332 121.61H131.13V122.217H130.928V122.014H130.725V120.194L131.231 118.069L131.838 116.249Z" fill="url(#paint10_linear_189_100)"/>
<path d="M88.341 110.786L88.6445 111.191L87.2283 113.72L86.0145 116.046L85.8121 115.945L85.4075 116.754L85.0029 116.855L85.104 116.35L85.4075 116.046L85.5087 115.338L85.8121 114.832L86.7225 113.113L87.4306 112.101L87.9364 111.191H88.1387L88.341 110.786Z" fill="url(#paint11_linear_189_100)"/>
<path d="M213.977 146.798H214.179L213.977 147.303L213.572 147.506L213.37 147.91L212.965 148.012V148.214H212.763L212.561 148.618L211.954 149.124L211.549 149.327L211.246 149.023L212.561 147.91L213.572 147.101L213.977 146.798Z" fill="url(#paint12_linear_189_100)"/>
<path d="M94.9162 111.292H95.0173V114.731L95.2197 115.136V116.35L95.1185 116.653L95.0173 118.373H94.9162L94.815 117.26V112.405L94.9162 111.292Z" fill="url(#paint13_linear_189_100)"/>
<path d="M85.104 116.957V117.26L85.0029 117.564H84.8006L85.0029 117.867L85.104 118.171L84.396 119.89L84.2948 119.587L84.396 119.283L84.0925 119.384L83.9913 118.879L84.2948 118.069L84.5983 117.968L84.8006 117.26L85.104 116.957Z" fill="url(#paint14_linear_189_100)"/>
<path d="M151.462 146.697H151.564L151.665 147.607L151.462 148.821H151.26L151.058 148.315V147.607H151.26V147L151.462 146.697Z" fill="url(#paint15_linear_189_100)"/>
<path d="M85.8121 115.844H85.9133V116.35L85.2052 117.867L84.8006 117.968V117.564H85.0029L85.104 116.855L85.4075 116.754L85.5087 116.35L85.8121 115.844Z" fill="url(#paint16_linear_189_100)"/>
<path d="M81.4624 130.309L81.6647 130.613L81.5636 131.827L81.3613 132.13L81.2601 131.523L81.0578 131.422V130.512L81.4624 130.309Z" fill="url(#paint17_linear_189_100)"/>
<path d="M152.373 104.919L152.777 105.121L153.081 105.425L153.587 105.526L153.789 105.829L153.688 106.234L152.676 105.425L152.272 105.02L152.373 104.919Z" fill="url(#paint18_linear_189_100)"/>
<path d="M89.0491 109.876L89.3526 109.977L88.8468 110.988L88.6445 111.09L88.7457 110.584L88.4422 110.483L88.7457 110.28H88.948L88.7457 110.078H89.0491V109.876Z" fill="url(#paint19_linear_189_100)"/>
<path d="M101.289 134.76L101.795 134.962L101.896 135.367H102.098V135.569H102.301L102.199 135.873L101.694 135.367L101.289 134.861V134.76Z" fill="url(#paint20_linear_189_100)"/>
<path d="M74.685 121.306L74.8873 121.408V121.61L75.2919 121.509L75.3931 121.306L75.4942 121.711L75.0896 121.812V122.014L74.685 121.812V121.306Z" fill="url(#paint21_linear_189_100)"/>
<path d="M109.078 134.052H109.179V134.861H108.977L108.775 135.064L108.673 134.76L108.775 134.254L109.078 134.052Z" fill="url(#paint22_linear_189_100)"/>
<path d="M84.1936 119.991L84.2948 120.194L83.9913 121.104H83.789L83.6879 121.306V120.699L83.8902 120.396H84.0925L84.1936 119.991Z" fill="url(#paint23_linear_189_100)"/>
<path d="M141.043 62.6358H141.549L141.448 63.2428L140.841 64.5578L139.931 66.9855L139.223 69.4133L138.616 72.3468L138.312 75.078L138.211 76.8988V78.315L138.413 81.2486L138.818 84.0809L139.425 86.9133L140.538 90.2514L141.65 92.6792L142.864 95.0058L144.483 97.4335L145.899 99.1532L146.607 99.9624L148.023 101.48L148.832 102.188L150.046 103.301L151.058 104.11L152.777 105.425L154.092 106.436L155.306 107.347L157.228 108.763L158.543 109.775L160.162 111.09L161.275 112L165.422 116.147L166.332 117.26L167.344 118.575L168.355 120.092L169.266 121.509L170.581 123.633L171.795 125.858L173.11 128.59L174.324 132.231L174.931 134.659L175.436 137.491L175.74 140.223V145.28L175.335 148.922L174.829 151.552L174.324 153.575L173.11 157.217L172.098 159.645L171.289 161.263L170.277 163.185L168.861 165.41L167.445 167.332L166.332 168.749L165.118 170.064L164.41 170.873L162.792 172.491L161.679 173.402L160.769 174.211L158.847 175.627L157.026 176.841L155.509 177.751L152.879 179.168L150.35 180.28L147.618 181.292L144.685 182.202L141.65 182.91L138.11 183.517L134.468 183.922L132.85 184.023H126.679L123.139 183.72L120.104 183.315L116.968 182.708L113.731 181.798L110.899 180.786L108.572 179.775L106.246 178.662L104.121 177.448L102.503 176.436L100.884 175.324L99.2659 174.11L97.8497 172.997L96.737 171.986L95.9277 171.277L94.2081 169.659L92.9942 168.344L91.9826 167.231L91.1734 166.22L90.1618 164.905L89.1503 163.488L88.0375 161.769L86.8237 159.543L85.4075 156.61L84.4971 154.283L83.5867 151.552L82.5751 148.012L81.9682 145.28L81.4624 142.043L81.2601 140.121L81.1589 138.301V135.772L81.3612 132.636L81.867 128.994L82.474 126.061L83.1821 123.329L84.3959 119.688L85.2052 117.665L86.1156 115.642L87.4306 113.113L88.6445 111.09L89.3526 109.977L90.5665 108.257L91.4769 107.043L93.7023 104.413L95.8266 102.289L96.6358 101.581L97.3439 100.873H97.6474L97.5462 101.379L96.9393 102.896L96.13 105.425L95.5231 107.954L95.1185 110.381L94.9162 112.405V117.26L95.3208 120.598L95.9277 123.532L96.737 126.162L97.7485 128.691L98.7601 130.815L99.7717 132.535L101.087 134.457L102.098 135.772L102.604 136.277L103.11 136.682L104.121 137.188L104.526 137.289H106.347L107.358 136.884L108.37 136.075L108.977 135.165L109.28 134.254L109.179 133.04L108.673 131.321L107.662 128.488L106.751 125.353L105.942 121.408L105.538 118.474L105.234 114.529V111.595L105.436 108.46L105.74 105.627L106.347 102.188L107.055 99.1532L107.965 96.0173L108.977 93.185L109.584 91.6676L110.292 90.1503L111.303 88.026L112.618 85.6994L113.731 83.8786L114.54 82.6647L115.754 80.9451L116.766 79.6301L117.575 78.6185L118.486 77.6069L119.194 76.7977L120.306 75.5838L122.329 73.5607L123.139 72.8526L124.454 71.7399L127.084 69.7168L128.5 68.7052L129.714 67.8959L131.13 66.9855L132.445 66.1763L135.48 64.659L137.604 63.7486L140.032 62.9393L141.043 62.6358Z" fill="#FDFDFD"/>
<path d="M131.838 116.249L132.142 116.35L132.951 118.069L134.266 120.396L135.48 122.217L136.694 123.835L137.705 124.948L138.413 125.757L139.425 126.769L140.234 127.477L141.549 128.691L142.662 129.601L144.28 131.118L145.292 132.029L147.214 133.951L148.327 135.367L149.338 136.884L150.147 138.402L150.855 140.324L151.462 142.853L151.766 144.977V146.595L151.361 149.63L150.754 151.855L150.046 153.777L149.035 155.902L148.124 157.318L146.91 158.936L145.899 160.049L144.786 160.96L143.673 161.769L141.954 162.78L139.222 164.095L137.301 164.702L135.075 165.208L132.85 165.41L131.029 165.309L129.208 165.006L127.691 164.601L125.668 163.893L123.24 162.679L121.116 161.263L120.104 160.454L118.991 159.442L118.485 158.936L121.116 158.026L123.139 157.116L124.858 156.104L126.477 154.89L127.691 153.777L128.803 152.665L130.22 150.743L131.13 149.124L131.939 147.303L132.546 145.381L132.85 143.763L132.951 142.954V140.931L132.647 138.604L132.142 136.176L131.029 131.321L130.624 128.994L130.321 126.061V123.329L130.624 120.699L131.13 118.474L131.838 116.249Z" fill="url(#paint24_linear_189_100)"/>
<linearGradient id="paint0_linear_189_100" x1="128.5" y1="57.0723" x2="128.5" y2="213.257" gradientUnits="userSpaceOnUse">
<stop stop-color="#FF3E40"/>
<stop offset="0.5" stop-color="#FF7225"/>
<stop offset="1" stop-color="#FFAE05"/>
</linearGradient>
<linearGradient id="paint1_linear_189_100" x1="128.5" y1="57.0723" x2="128.5" y2="213.257" gradientUnits="userSpaceOnUse">
<stop stop-color="#FF3E40"/>
<stop offset="0.5" stop-color="#FF7225"/>
<stop offset="1" stop-color="#FFAE05"/>
</linearGradient>
<linearGradient id="paint2_linear_189_100" x1="128.5" y1="57.0723" x2="128.5" y2="213.257" gradientUnits="userSpaceOnUse">
<stop stop-color="#FF3E40"/>
<stop offset="0.5" stop-color="#FF7225"/>
<stop offset="1" stop-color="#FFAE05"/>
</linearGradient>
<linearGradient id="paint3_linear_189_100" x1="128.5" y1="57.0723" x2="128.5" y2="213.257" gradientUnits="userSpaceOnUse">
<stop stop-color="#FF3E40"/>
<stop offset="0.5" stop-color="#FF7225"/>
<stop offset="1" stop-color="#FFAE05"/>
</linearGradient>
<linearGradient id="paint4_linear_189_100" x1="128.5" y1="57.0723" x2="128.5" y2="213.257" gradientUnits="userSpaceOnUse">
<stop stop-color="#FF3E40"/>
<stop offset="0.5" stop-color="#FF7225"/>
<stop offset="1" stop-color="#FFAE05"/>
</linearGradient>
<linearGradient id="paint5_linear_189_100" x1="128.5" y1="57.0723" x2="128.5" y2="213.257" gradientUnits="userSpaceOnUse">
<stop stop-color="#FF3E40"/>
<stop offset="0.5" stop-color="#FF7225"/>
<stop offset="1" stop-color="#FFAE05"/>
</linearGradient>
<linearGradient id="paint6_linear_189_100" x1="128.5" y1="57.0723" x2="128.5" y2="213.257" gradientUnits="userSpaceOnUse">
<stop stop-color="#FF3E40"/>
<stop offset="0.5" stop-color="#FF7225"/>
<stop offset="1" stop-color="#FFAE05"/>
</linearGradient>
<linearGradient id="paint7_linear_189_100" x1="128.5" y1="57.0723" x2="128.5" y2="213.257" gradientUnits="userSpaceOnUse">
<stop stop-color="#FF3E40"/>
<stop offset="0.5" stop-color="#FF7225"/>
<stop offset="1" stop-color="#FFAE05"/>
</linearGradient>
<linearGradient id="paint8_linear_189_100" x1="128.5" y1="57.0723" x2="128.5" y2="213.257" gradientUnits="userSpaceOnUse">
<stop stop-color="#FF3E40"/>
<stop offset="0.5" stop-color="#FF7225"/>
<stop offset="1" stop-color="#FFAE05"/>
</linearGradient>
<linearGradient id="paint9_linear_189_100" x1="128.5" y1="57.0723" x2="128.5" y2="213.257" gradientUnits="userSpaceOnUse">
<stop stop-color="#FF3E40"/>
<stop offset="0.5" stop-color="#FF7225"/>
<stop offset="1" stop-color="#FFAE05"/>
</linearGradient>
<linearGradient id="paint10_linear_189_100" x1="128.5" y1="57.0723" x2="128.5" y2="213.257" gradientUnits="userSpaceOnUse">
<stop stop-color="#FF3E40"/>
<stop offset="0.5" stop-color="#FF7225"/>
<stop offset="1" stop-color="#FFAE05"/>
</linearGradient>
<linearGradient id="paint11_linear_189_100" x1="128.5" y1="57.0723" x2="128.5" y2="213.257" gradientUnits="userSpaceOnUse">
<stop stop-color="#FF3E40"/>
<stop offset="0.5" stop-color="#FF7225"/>
<stop offset="1" stop-color="#FFAE05"/>
</linearGradient>
<linearGradient id="paint12_linear_189_100" x1="128.5" y1="57.0723" x2="128.5" y2="213.257" gradientUnits="userSpaceOnUse">
<stop stop-color="#FF3E40"/>
<stop offset="0.5" stop-color="#FF7225"/>
<stop offset="1" stop-color="#FFAE05"/>
</linearGradient>
<linearGradient id="paint13_linear_189_100" x1="128.5" y1="57.0723" x2="128.5" y2="213.257" gradientUnits="userSpaceOnUse">
<stop stop-color="#FF3E40"/>
<stop offset="0.5" stop-color="#FF7225"/>
<stop offset="1" stop-color="#FFAE05"/>
</linearGradient>
<linearGradient id="paint14_linear_189_100" x1="128.5" y1="57.0723" x2="128.5" y2="213.257" gradientUnits="userSpaceOnUse">
<stop stop-color="#FF3E40"/>
<stop offset="0.5" stop-color="#FF7225"/>
<stop offset="1" stop-color="#FFAE05"/>
</linearGradient>
<linearGradient id="paint15_linear_189_100" x1="128.5" y1="57.0723" x2="128.5" y2="213.257" gradientUnits="userSpaceOnUse">
<stop stop-color="#FF3E40"/>
<stop offset="0.5" stop-color="#FF7225"/>
<stop offset="1" stop-color="#FFAE05"/>
</linearGradient>
<linearGradient id="paint16_linear_189_100" x1="128.5" y1="57.0723" x2="128.5" y2="213.257" gradientUnits="userSpaceOnUse">
<stop stop-color="#FF3E40"/>
<stop offset="0.5" stop-color="#FF7225"/>
<stop offset="1" stop-color="#FFAE05"/>
</linearGradient>
<linearGradient id="paint17_linear_189_100" x1="128.5" y1="57.0723" x2="128.5" y2="213.257" gradientUnits="userSpaceOnUse">
<stop stop-color="#FF3E40"/>
<stop offset="0.5" stop-color="#FF7225"/>
<stop offset="1" stop-color="#FFAE05"/>
</linearGradient>
<linearGradient id="paint18_linear_189_100" x1="128.5" y1="57.0723" x2="128.5" y2="213.257" gradientUnits="userSpaceOnUse">
<stop stop-color="#FF3E40"/>
<stop offset="0.5" stop-color="#FF7225"/>
<stop offset="1" stop-color="#FFAE05"/>
</linearGradient>
<linearGradient id="paint19_linear_189_100" x1="128.5" y1="57.0723" x2="128.5" y2="213.257" gradientUnits="userSpaceOnUse">
<stop stop-color="#FF3E40"/>
<stop offset="0.5" stop-color="#FF7225"/>
<stop offset="1" stop-color="#FFAE05"/>
</linearGradient>
<linearGradient id="paint20_linear_189_100" x1="128.5" y1="57.0723" x2="128.5" y2="213.257" gradientUnits="userSpaceOnUse">
<stop stop-color="#FF3E40"/>
<stop offset="0.5" stop-color="#FF7225"/>
<stop offset="1" stop-color="#FFAE05"/>
</linearGradient>
<linearGradient id="paint21_linear_189_100" x1="128.5" y1="57.0723" x2="128.5" y2="213.257" gradientUnits="userSpaceOnUse">
<stop stop-color="#FF3E40"/>
<stop offset="0.5" stop-color="#FF7225"/>
<stop offset="1" stop-color="#FFAE05"/>
</linearGradient>
<linearGradient id="paint22_linear_189_100" x1="128.5" y1="57.0723" x2="128.5" y2="213.257" gradientUnits="userSpaceOnUse">
<stop stop-color="#FF3E40"/>
<stop offset="0.5" stop-color="#FF7225"/>
<stop offset="1" stop-color="#FFAE05"/>
</linearGradient>
<linearGradient id="paint23_linear_189_100" x1="128.5" y1="57.0723" x2="128.5" y2="213.257" gradientUnits="userSpaceOnUse">
<stop stop-color="#FF3E40"/>
<stop offset="0.5" stop-color="#FF7225"/>
<stop offset="1" stop-color="#FFAE05"/>
</linearGradient>
<linearGradient id="paint24_linear_189_100" x1="135.126" y1="120.575" x2="135.126" y2="165.41" gradientUnits="userSpaceOnUse">
<stop stop-color="#FF3E40"/>
<stop offset="0.5" stop-color="#FF7225"/>
<stop offset="1" stop-color="#FFAE05"/>
</linearGradient>
</svg>