<svg width="256" height="256" title="Assembly" viewBox="0 0 256 256" fill="none" xmlns="http://www.w3.org/2000/svg" id="assembly">
<style>
#assembly {
    rect {fill: #15191C}

    @media (prefers-color-scheme: light) {
        rect {fill: #F4F2ED}
    }
}
</style>
<rect width="256" height="256" rx="40" fill="#15191C"/>
<path d="M88.3529 142.912H169.676V185.118L128.5 184.603L88.3529 185.118V142.912Z" fill="white"/>
<path d="M128.509 41C120.721 60.0973 116.008 72.6017 107.313 91.1303C114.06 98.4561 121.587 105.023 129.76 110.715C120.734 107.288 112.299 102.474 104.757 96.4483C93.6932 119.608 76.2913 152.578 41 215.975C73.416 197.265 97.331 186.929 120.327 184.942V179.73H115.114V174.5H120.327V179.73H130.797V169.238H120.327V164.026H115.114V153.565H120.327V148.353H130.797V153.565H136.01V158.796H130.778V153.565H120.327V164.026L130.797 164.032V169.238L136.01 169.244V179.73H130.778V184.623C155.656 185.248 180.821 195.697 216 216C210.606 206.07 205.774 197.121 201.173 188.598C191.938 180.516 181.802 173.527 170.964 167.769C179.416 169.747 187.538 172.934 195.079 177.231C148.324 90.193 144.542 78.6196 128.509 41ZM94.1995 148.353H104.644V153.565H109.876V184.942H104.644V169.238H94.1995V184.936H88.9614V153.565H94.1932L94.1995 148.353ZM94.1932 153.565L94.1995 164.032H104.644V153.565H94.1932ZM141.242 148.353H146.474V153.565H151.706V158.796H156.919V153.565H162.15V148.353H167.382V184.942H162.15V158.796H156.919V164.026H151.706V158.796H146.474V184.942H141.242V148.353Z" fill="#0000BF"/>
<path d="M177.771 144.998C139.836 93.5238 131.041 52.0359 128.816 42.1311C143.338 77.2459 159.678 111.581 177.771 144.998Z" fill="white" fill-opacity="0.16568"/>
<path d="M128.828 41.7499L126.009 48.6677C125.015 51.1111 124.065 53.4482 123.128 55.7354C122.19 58.0226 121.252 60.2597 120.327 62.4657C119.402 64.6716 118.452 66.8401 117.527 69.046C116.602 71.2519 115.652 73.4579 114.62 75.7075C113.589 77.9572 112.564 80.2631 111.458 82.6503C110.351 85.0375 109.195 87.5121 107.951 90.1055C107.776 90.4617 107.57 90.8741 107.395 91.2366C114.121 98.5211 121.62 105.052 129.76 110.715C120.762 107.293 112.351 102.495 104.826 96.4921L103.95 98.2856C103.544 99.1167 103.05 100.054 102.625 100.91L101.963 102.279C96.4747 113.483 89.4239 127.175 79.9354 144.91C102.132 132.412 126.072 114.371 169.558 129.912C167.376 125.782 165.37 121.913 163.488 118.27C161.607 114.627 159.856 111.221 158.231 107.997C156.606 104.772 155.106 101.748 153.7 98.8542C152.293 95.9609 150.993 93.23 149.768 90.6492C148.543 88.0683 147.393 85.5374 146.305 83.1502C145.217 80.7631 144.186 78.4384 143.18 76.1637C142.173 73.8891 141.304 71.6206 140.386 69.4084C139.467 67.1963 138.567 64.9778 137.673 62.7469C137.448 62.1782 137.217 61.5846 136.992 61.0159C134.441 55.0417 131.86 48.8614 128.828 41.7499Z" fill="url(#linearGradient)"/>
<linearGradient id="linearGradient" x1="141.558" y1="80.1979" x2="114.359" y2="162.609" gradientUnits="userSpaceOnUse">
<stop stop-color="white" stop-opacity="0"/>
<stop offset="1" stop-color="white" stop-opacity="0.275"/>
</linearGradient>
</svg>
