<svg width="256" height="256" title="Astro" viewBox="0 0 256 256" fill="none" xmlns="http://www.w3.org/2000/svg">
<rect width="256" height="256" rx="40" fill="black"/>
<path d="M104.907 188.04C97.2144 181.008 94.9687 166.232 98.1738 155.528C103.731 162.277 111.431 164.415 119.407 165.621C131.72 167.484 143.813 166.787 155.251 161.159C156.56 160.515 157.769 159.658 159.199 158.79C160.272 161.904 160.551 165.048 160.177 168.247C159.265 176.039 155.387 182.058 149.22 186.621C146.753 188.446 144.144 190.077 141.597 191.798C133.771 197.087 131.654 203.289 134.595 212.309C134.665 212.53 134.727 212.75 134.885 213.286C130.89 211.497 127.971 208.894 125.748 205.471C123.399 201.858 122.282 197.862 122.223 193.538C122.193 191.433 122.193 189.31 121.91 187.235C121.219 182.177 118.845 179.913 114.372 179.782C109.781 179.648 106.15 182.486 105.187 186.956C105.113 187.299 105.007 187.638 104.9 188.036L104.907 188.04Z" fill="white"/>
<path d="M104.907 188.04C97.2144 181.008 94.9687 166.232 98.1738 155.528C103.731 162.277 111.431 164.415 119.407 165.621C131.72 167.484 143.813 166.787 155.251 161.159C156.56 160.515 157.769 159.658 159.199 158.79C160.272 161.904 160.551 165.048 160.177 168.247C159.265 176.039 155.387 182.058 149.22 186.621C146.753 188.446 144.144 190.077 141.597 191.798C133.771 197.087 131.654 203.289 134.595 212.309C134.665 212.53 134.727 212.75 134.885 213.286C130.89 211.497 127.971 208.894 125.748 205.471C123.399 201.858 122.282 197.862 122.223 193.538C122.193 191.433 122.193 189.31 121.91 187.235C121.219 182.177 118.845 179.913 114.372 179.782C109.781 179.648 106.15 182.486 105.187 186.956C105.113 187.299 105.007 187.638 104.9 188.036L104.907 188.04Z" fill="url(#linearGradient)"/>
<path d="M61 153.744C61 153.744 83.78 142.647 106.624 142.647L123.847 89.3439C124.492 86.7662 126.374 85.0144 128.5 85.0144C130.626 85.0144 132.508 86.7662 133.153 89.3439L150.377 142.647C177.431 142.647 196 153.744 196 153.744C196 153.744 157.306 48.3351 157.231 48.1236C156.12 45.0071 154.245 43 151.718 43H105.286C102.759 43 100.959 45.0071 99.7734 48.1236C99.6897 48.3311 61 153.744 61 153.744Z" fill="white"/>
<linearGradient id="linearGradient" x1="61.0003" y1="213.286" x2="233.923" y2="154.438" gradientUnits="userSpaceOnUse">
<stop stop-color="#D83333"/>
<stop offset="1" stop-color="#F041FF"/>
</linearGradient>
</svg>