<svg width="256" height="256" title="Astral UV" viewBox="0 0 256 256" fill="none" xmlns="http://www.w3.org/2000/svg" id="astraluv">
<style>
#astraluv {
    rect {fill: #15191C}

    @media (prefers-color-scheme: light) {
        rect {fill: #F4F2ED}
    }
}
</style>
<rect width="256" height="256" rx="40" fill="#15191C"/>
<path d="M175.876 58H197.442L197.581 83.8354L197.791 136.414L197.86 149.681L198 184.314V197.441L197.372 197.511H187.043L186.973 197.372V183.546H180.622L180.552 184.733L180.343 186.269L179.924 187.875L179.436 189.202L178.877 190.319L178.179 191.506L177.482 192.414L176.644 193.392L176.086 193.95L175.318 194.579L174.481 195.207L173.224 195.975L171.759 196.673L170.223 197.162L168.897 197.441L167.781 197.581L166.315 197.651L155.986 197.721L89.6152 198H71.3998L69.7248 197.791L68.329 197.441L66.8634 196.883L65.4676 196.185L64.4207 195.486L63.5135 194.788L62.6062 193.95L62.0479 193.392L61.4197 192.623L60.7218 191.646L59.8843 190.18L59.1864 188.434L58.8375 187.107L58.6281 185.781L58.5583 185.082L58.4885 183.406L58.4187 172.863L58.349 156.384L58.2792 131.945L58.1396 100.803L58.0698 90.1895L58 83.8354V58.6284L58.7677 58.5586L70.7717 58.4888L121.998 58.3491L122.138 58.419L122.207 65.8204L122.417 110.998V115.676L122.207 143.327L122.138 148.703L133.444 148.633V97.7307L133.304 70.01V58.3491L133.862 58.2793L152.427 58.1397L166.315 58.0698L175.876 58Z" fill="#E066EB"/>
</svg>