<svg width="256" height="256" title="Authy" viewBox="0 0 256 256" fill="none" xmlns="http://www.w3.org/2000/svg">
<rect width="256" height="256" rx="40" fill="#F22E46"/>
<path d="M118.474 104.377L145.119 131.013C148.966 134.864 155.209 134.864 159.065 131.013C162.912 127.162 162.921 120.923 159.065 117.072L132.419 90.4257C113.353 71.3561 82.5383 71.0493 63.0686 89.4572C62.8887 89.6084 62.7087 89.7676 62.5431 89.9332C62.4585 90.0185 62.389 90.1089 62.3044 90.1849C62.2169 90.268 62.1294 90.3433 62.0463 90.4265C61.8785 90.5942 61.7244 90.7699 61.5774 90.9448C43.1602 110.424 43.4771 141.239 62.5438 160.308L89.19 186.947C93.0442 190.796 99.2801 190.796 103.134 186.947C106.991 183.095 106.991 176.848 103.144 173.005L76.4975 146.36C64.8653 134.733 64.7871 115.862 76.2559 104.136C87.9813 92.6669 106.842 92.75 118.474 104.377Z" fill="white"/>
<path d="M152.864 68.8934C149.014 72.7455 149.014 78.9835 152.874 82.8349L179.51 109.481C191.135 121.108 191.211 139.976 179.743 151.705C168.014 163.164 149.16 163.089 137.53 151.46L110.885 124.818C107.032 120.966 100.786 120.966 96.9372 124.818C93.0801 128.666 93.0801 134.924 96.9372 138.765L123.574 165.412C142.646 184.481 173.457 184.791 192.93 166.38C193.111 166.221 193.281 166.073 193.46 165.904C193.541 165.822 193.617 165.737 193.697 165.653C193.783 165.57 193.868 165.493 193.949 165.402C194.119 165.242 194.266 165.068 194.417 164.885C212.835 145.414 212.528 114.609 193.46 95.5296L166.815 68.8927C162.964 65.0356 156.711 65.0356 152.864 68.8934Z" fill="#F5B1B2"/>
</svg>