<svg width="256" height="256" title="AutoCAD" viewBox="0 0 256 256" fill="none" xmlns="http://www.w3.org/2000/svg" id="autocad">
<style>
#autocad {
    rect {fill: #15191C}

    @media (prefers-color-scheme: light) {
        rect {fill: #F4F2ED}
    }
}
</style>
<rect width="256" height="256" rx="40" fill="#15191C"/>
<path d="M53.137 73.8894C61.2861 68.5921 69.4465 63.3215 77.5766 58.0014C77.5614 95.6063 77.6032 133.215 77.5576 170.82C74.3641 172.946 71.1136 174.985 67.9238 177.12C63.8113 179.679 59.752 182.329 55.7268 185.029C54.9332 185.584 54.0788 186.039 53.1864 186.412C53.1484 148.905 53.2396 111.396 53.137 73.8894Z" fill="#E85984"/>
<path d="M77.5766 58.0014C113.53 58.0052 149.486 57.9938 185.439 58.0052C189.191 58.0546 192.806 61.0089 193.114 64.8404C193.258 71.5768 193.019 78.3247 193.232 85.0649C193.311 110.853 193.243 136.64 193.266 162.428C193.213 165.249 193.399 168.074 193.171 170.892C181.13 171.013 169.081 170.907 157.036 170.941C131.973 170.941 106.911 170.941 81.8486 170.945C80.417 170.968 78.9816 170.975 77.5576 170.82C77.6032 133.215 77.5614 95.6063 77.5766 58.0014ZM126.968 81.4575C124.58 88.361 122.674 95.4278 120.452 102.384C116.305 115.96 112.155 129.535 108.005 143.111C107.621 144.193 107.298 145.302 107.112 146.437C111.039 146.498 114.973 146.528 118.899 146.426C120.407 141.204 121.937 135.991 123.391 130.754C123.536 130.291 123.722 129.847 123.904 129.402C131.35 129.421 138.801 129.304 146.247 129.463C148.036 135.133 149.737 140.832 151.636 146.464C155.649 146.487 159.667 146.513 163.681 146.441C161.3 138.455 158.589 130.572 156.113 122.617C151.647 108.916 147.345 95.162 142.853 81.4727C137.563 81.3435 132.258 81.3701 126.968 81.4575Z" fill="#E51050"/>
<path d="M134.757 89.8989C135.524 91.733 135.827 93.7152 136.446 95.5987C138.717 103.683 141.121 111.737 143.297 119.852C137.715 119.928 132.125 119.932 126.539 119.852C129.114 109.827 132.125 99.9124 134.757 89.8989Z" fill="#E51050"/>
<path d="M53.0383 79.2664C53.0763 77.4741 52.9092 75.6741 53.137 73.8894C53.2396 111.396 53.1484 148.905 53.1864 186.412L53.1712 186.795C52.8826 185.652 53.0497 184.471 53.0345 183.313C53.0383 148.632 53.0345 113.947 53.0383 79.2664Z" fill="#231F20"/>
<path d="M126.968 81.4575C132.258 81.3701 137.563 81.3435 142.853 81.4727C147.345 95.162 151.647 108.916 156.113 122.617C158.589 130.572 161.3 138.455 163.681 146.441C159.667 146.513 155.649 146.487 151.636 146.464C149.737 140.832 148.036 135.133 146.247 129.463C138.801 129.304 131.35 129.421 123.904 129.402C123.722 129.847 123.536 130.291 123.391 130.754C121.937 135.991 120.407 141.204 118.899 146.426C114.973 146.528 111.039 146.498 107.112 146.437C107.298 145.302 107.621 144.193 108.005 143.111C112.155 129.535 116.305 115.96 120.452 102.384C122.674 95.4278 124.58 88.361 126.968 81.4575ZM134.757 89.8989C132.125 99.9124 129.114 109.827 126.539 119.852C132.125 119.932 137.715 119.928 143.297 119.852C141.121 111.737 138.717 103.683 136.446 95.5987C135.827 93.7152 135.524 91.733 134.757 89.8989Z" fill="white"/>
<path d="M193.232 85.0649C196.44 84.67 199.695 84.8713 202.919 84.932C203.082 93.419 202.941 101.914 202.987 110.404C202.987 137.491 202.991 164.581 202.987 191.667C202.968 193.683 203.059 195.7 202.922 197.716C161.14 197.785 119.358 197.712 77.5766 197.75C75.0969 197.743 72.3742 197.515 70.449 195.772C69.006 194.416 67.8858 192.548 67.9314 190.513C67.92 186.047 67.9276 181.585 67.9238 177.12C71.1136 174.985 74.3641 172.946 77.5576 170.82C78.9816 170.975 80.417 170.968 81.8486 170.945C106.911 170.941 131.973 170.941 157.036 170.941C169.081 170.907 181.13 171.013 193.171 170.892C193.399 168.074 193.213 165.249 193.266 162.428C193.243 136.64 193.311 110.853 193.232 85.0649Z" fill="#770829"/>
</svg>