<svg width="256" height="256" title="Avalonia UI" viewBox="0 0 256 256" fill="none" xmlns="http://www.w3.org/2000/svg">
<rect width="256" height="256" rx="40" fill="#0D6EFD"/>
<path d="M128.221 103.692C115.141 103.692 104.537 114.788 104.537 128.477C104.537 142.165 115.141 153.262 128.221 153.262C141.302 153.262 151.906 142.165 151.906 128.477C151.906 114.788 141.302 103.692 128.221 103.692Z" fill="white"/>
<path fill-rule="evenodd" clip-rule="evenodd" d="M184.701 206.998H126.686C85.8697 206.256 53 171.388 53 128.499C53 85.1451 86.5845 50 128.013 50C168.769 50 201.933 84.0127 203 126.393L202.87 190.129C201.79 199.643 194.083 206.998 184.701 206.998ZM79.9512 117.215C84.8636 94.0544 104.61 76.7349 128.221 76.7349C155.529 76.7349 177.666 99.9006 177.666 128.477C177.666 128.691 177.668 128.923 177.671 129.162C177.676 129.657 177.682 130.179 177.666 130.621V179.868H151.941V173.888C144.9 177.924 136.817 180.219 128.221 180.219C104.61 180.219 84.8636 162.899 79.9512 139.738C84.6542 138.358 88.1031 133.839 88.1031 128.477C88.1031 123.115 84.6542 118.595 79.9512 117.215ZM76.6881 136.723C81.058 136.723 84.6006 133.016 84.6006 128.443C84.6006 123.87 81.058 120.163 76.6881 120.163C72.3182 120.163 68.7757 123.87 68.7757 128.443C68.7757 133.016 72.3182 136.723 76.6881 136.723Z" fill="white"/>
</svg>