<svg xmlns="http://www.w3.org/2000/svg" width="256" height="256" fill="none" viewBox="0 0 256 256">
    <rect width="256" height="256" fill="#F4F2ED" rx="60"/>
    <g transform="translate(128, 128) scale(0.18) translate(-460, -550)">
        <path d="M630.996567 904.185868q-185.341956 0-370.622595-0.143074c-5.35505 0-14.920559 2.575329-15.268024-3.045429-0.4701-7.664671 9.07497-5.314172 14.736607-6.540519 21.665469-4.66012 44.741238-3.699481 65.40519-10.546587 19.396727-6.458762 39.32487-8.175649 58.701157-13.387624 12.018204-3.188503 24.915289-3.740359 37.301397-5.211976 22.483034-2.636647 44.066747-9.054531 66.140998-13.203673 13.816846-2.595768 28.001597-2.636647 41.981956-5.620758 25.324072-5.416367 50.913852-9.953852 76.605829-12.937965 13.326307-1.553373 26.141637-5.273293 39.590579-6.397445 17.741158-1.492056 35.257485-5.947784 52.835129-9.320239 3.71992-0.715369 5.539002-3.290699 2.841038-6.724471-15.084072-19.110579-28.246866-40.367265-45.988024-56.616367-22.483034-20.602635-37.178762-47.00998-57.658762-68.859402-2.350499-2.534451-4.537485-5.252854-7.031058-7.644231-24.526946-23.586747-42.492934-52.773812-65.139481-77.893493-9.218044-10.219561-17.087106-21.501956-27.940279-30.842635-13.653333-11.711617-23.177964-28.267305-34.337725-42.81996-2.043912-2.779721-0.613174-5.743393 0.429222-8.747944 11.732056-33.581477 21.481517-68.021397 35.625389-100.560479 9.156727-21.011417 19.110579-41.65493 25.467145-63.647425 9.156727-31.619321 22.053812-61.9101 31.90547-93.32503 8.420918-26.816128 20.050778-52.651178 30.658682-78.772376 1.819082-4.517046 4.88495-9.626826 10.689661-9.095409 4.946267 0.449661 4.864511 5.947784 6.806227 9.585948 10.076487 18.84487 20.439122 37.587545 31.271857 55.982755 12.631377 21.318004 25.896367 42.247665 38.977405 63.361277 14.307385 23.055329 26.570858 47.357445 39.856287 70.944192 11.670739 20.602635 25.814611 39.692774 36.095489 61.317365 9.442874 19.846387 20.173413 39.651896 33.888064 57.229541 3.699481 4.762315 5.232415 10.219561 7.296767 15.533733 8.175649 20.623074 24.89485 35.666267 34.91002 55.083433 12.590499 24.526946 23.341477 50.014531 41.082634 71.536926a44.577725 44.577725 0 0 1 4.292216 8.175649c20.439122 39.386188 45.333972 76.115289 66.079681 115.235768 8.972774 16.903154 21.849421 31.333174 30.311217 47.888862 6.704032 13.060599 14.552655 25.794172 20.316487 39.467944 7.460279 17.720719 20.071218 32.457325 29.33014 49.196967 4.271776 7.68511 3.004551 10.628343-5.13022 11.200638-6.131737 0.429222-12.263473 0.163513-18.395209 0.163513zM119.098762 818.811657H17.45501c-15.860758 0-21.747226-7.68511-14.164311-21.318004 13.694212-24.649581 27.22491-49.401357 41.757125-73.580839 13.755529-22.891816 29.309701-44.822994 40.285509-69.595209A210.522954 210.522954 0 0 1 119.793693 598.866267a14.675289 14.675289 0 0 0 3.208942-4.63968c7.930379-23.157525 22.666986-42.779082 34.582994-63.729182 11.343713-19.928144 21.256687-40.878244 34.623872-59.661796 19.069701-26.918323 33.111377-56.800319 49.258283-85.455968 6.969741-12.365669 15.104511-24.302116 28.328623-32.314252 11.282395-6.847106 19.887265-17.638962 30.127266-26.264271 12.57006-10.587465 25.058363-21.604152 38.078083-31.455809 37.403593-28.328623 69.676966-62.788982 108.613494-89.257644A162.388822 162.388822 0 0 0 471.387465 183.952096c14.797924-15.329341 32.845669-26.284711 49.707944-38.834332 10.219561-7.562475 17.557206-18.39521 28.900918-24.526946 2.636647-1.451178 4.680559-4.864511 7.848623-2.30962s1.716886 6.131737 0.388343 9.483752c-3.515529 8.891018-9.790339 16.085589-13.346746 25.242315a695.114092 695.114092 0 0 1-39.079601 85.844312c-15.758563 28.61477-27.654132 58.782914-41.021317 88.378762-7.542036 16.657884-16.085589 32.906986-22.953134 49.830579a809.389222 809.389222 0 0 1-36.177245 75.277286c-13.346747 25.058363-19.641996 53.28479-36.79042 76.503632-5.661637 7.644232-5.436806 19.458044-10.648782 27.633693-15.881198 24.89485-26.325589 52.426347-39.222675 78.711058-8.707066 17.720719-16.351297 36.259002-23.72982 54.69509a227.262595 227.262595 0 0 1-10.383074 23.055329c-16.351297 30.2499-32.232495 60.704192-44.087186 93.038882-3.556407 9.647265-9.504192 13.26499-20.030339 13.081038-33.908503-0.613174-67.776128-0.22483-101.664192-0.245269z" fill="#008BD8">
        </path>
    </g>
</svg>




