<svg width="256" height="256" title="Babel" viewBox="0 0 256 256" fill="none" xmlns="http://www.w3.org/2000/svg" id="babel">
<style>
#babel {
    rect {fill: #15191C}

    @media (prefers-color-scheme: light) {
        rect {fill: #F4F2ED}
    }
}
</style>
<rect width="256" height="256" rx="40" fill="#15191C"/>
<path d="M168.507 110.197L168.648 110.338H169.07L169.211 109.634L169.07 109.352L168.507 110.197ZM164.141 99.493V99.0704H163.437V99.493H164.141ZM151.183 123.718C151.183 123.296 150.056 121.746 147.662 119.211C147.662 118.648 148.366 117.944 150.056 117.099L154.704 113.014C155.831 111.606 156.394 109.493 156.676 106.394L156.535 105.69C156.394 103.718 154.845 102.028 152.028 100.761C150.338 99.493 147.239 98.9296 142.873 98.7887C139.211 99.0704 134.563 100.479 128.648 102.732C127.099 103.859 125.268 104.986 123.155 106.113V106.535L123.718 106.254C124 106.254 124.141 106.394 124.141 106.535L124.563 106.394H124.704V106.535C124.704 106.676 123.437 107.803 120.901 109.493L121.042 109.915H120.901L120.479 109.775L119.915 110.056V110.197L120.338 110.62L119.775 110.479C119.211 110.62 118.648 110.901 118.085 111.465L118.225 110.479C119.07 106.676 119.775 103.437 120.056 100.62V100.479C119.352 100.056 118.789 99.493 118.225 98.7887V97.9437H118.085C112.172 106.777 105.728 115.243 98.7887 123.296C98.2254 123.577 98.0845 123.859 98.2254 124.141L97.9437 124C97.2394 125.127 96.2535 125.972 94.8451 126.254L93.2958 126.535L93.0141 126.958L93.1549 127.239L93.5775 127.099L93.7183 127.239L92.4507 127.662L90.1972 128.225H89.0704C88.9296 128.507 90.0563 128.225 89.6338 128.366L88.0845 128.648C87.2394 128.93 86.8169 128.789 86.6761 128.507H86.5352L85.2676 128.789C85.2676 128.225 83.7183 126.254 80.6197 123.014C80.6197 122.31 81.6056 121.324 83.8592 120.197L90.0563 114.704C91.3239 113.014 92.169 110.056 92.4507 106.254V105.268C92.169 102.451 90.1972 100.338 86.3944 98.507C84.1408 97.0986 80.1972 96.2535 74.4225 96.1127C69.6338 96.5352 63.2958 98.2254 55.6901 101.183C53.5775 102.732 51.1831 104.282 48.3662 105.831L48.507 106.254L49.2113 105.972C49.493 105.972 49.6338 106.113 49.6338 106.394L50.1972 106.113H50.4789V106.254C50.4789 106.535 48.7887 107.803 45.4085 110.197L45.6901 110.62H45.4085L44.8451 110.479C44.8451 110.62 44.7042 110.761 44.1408 110.761V111.042L44.7042 111.606L44 111.465C42.8732 111.606 41.8873 112.451 40.7606 113.859L41.0423 114.282L42.5915 113.014L42.7324 113.718L42.0282 114L42.5915 114.845C43.7183 113.718 44.8451 112.592 46.2535 111.746C46.9577 111.887 47.2394 112.169 47.2394 112.451L47.8028 112.31C51.4648 109.634 54.9859 107.662 58.507 106.535L58.6479 106.958C57.9437 107.944 57.5211 108.507 57.2394 108.507C57.2394 108.789 57.3803 109.211 57.662 109.352C51.1831 127.099 43.2958 144.141 34 160.479L34.2817 161.183C35.5493 160.901 36.2535 160.62 36.6761 160.338H36.9577V160.761H37.3803L37.9437 160.479C37.9437 160.62 38.0845 160.761 38.3662 160.62V161.183C38.507 161.606 38.2254 162.31 37.662 163.296C37.0986 163.859 36.5352 165.127 35.9718 166.958V167.099H36.5352C38.507 164.845 40.0563 162.592 41.0423 160.479C46.9577 158.648 51.4648 156.958 54.7042 155.268C57.8028 155.127 60.1972 154.282 61.8873 152.873L61.7465 152.592L60.6197 153.014H60.338V152.732C62.5916 152.451 64.2817 151.887 65.1268 151.183C69.6338 147.662 73.0141 145.268 75.2676 143.859C80.0563 140.338 83.0141 136.958 84.4225 133.718L85.2676 133.437H86.3944L86.5352 133.155H87.8028L89.493 132.732L89.7746 132.592L89.6338 132.732H90.338L90.4789 133.155L82.4507 145.972L80.6197 148.225L79.7746 151.183H79.9155L80.7606 150.761L80.4789 151.887L80.6197 152.31L80.7606 152.592V153.014L81.0423 152.873C81.6056 152.451 81.8873 152.028 81.7465 151.606L82.8732 151.746L83.0141 151.887C82.5916 152.028 82.4507 152.31 82.4507 152.732V152.873H82.5916C85.5493 149.634 92.7324 138.789 98.507 131.324C98.3662 130.479 101.324 129.352 107.521 127.944H107.803C107.944 128.93 107.521 131.183 106.254 134.986C105.549 137.239 105.127 138.507 105.268 138.648C104.282 141.606 103.718 143.296 103.859 143.577L101.606 150.761C100.197 154.423 99.0704 158.366 98.3662 162.451H98.9296L99.3521 162.169L99.493 162.31L99.3521 161.746H100.338C100.62 161.746 100.901 161.324 101.042 160.761C101.042 159.775 101.183 159.211 101.606 159.07L102.732 155.549C103.296 153.296 103.718 152.028 104 151.606C104.845 148.648 105.408 147.099 105.831 147.099V147.38L105.268 148.93C104.282 153.718 103.155 157.38 102.028 160.056L102.451 161.465L102.592 161.324C105.268 155.69 108.93 144.563 113.859 127.944C114 126.394 114.704 125.268 115.972 124.563L115.69 124.282V124C116.254 124 116.676 123.718 116.817 123.437L115.408 122.873L117.803 112.31L118.789 111.606V112.169L118.225 112.31L118.789 113.014L121.465 110.62C122.028 110.761 122.31 111.042 122.31 111.183H122.592C125.408 109.07 128.225 107.662 130.901 106.676V107.099L129.915 108.225L130.056 108.93C125.268 122.31 119.211 135.408 112.169 147.803L112.451 148.225C113.437 148.085 114 147.803 114.282 147.521H114.423V147.944H114.845L115.127 147.662L115.549 147.803V148.225C115.549 148.507 115.408 149.07 114.986 149.775C114.563 150.197 114.141 151.183 113.718 152.592V152.732H114C115.549 151.042 116.817 149.352 117.521 147.662C122.028 146.394 125.549 144.986 127.803 143.718C130.197 143.577 132.028 143.014 133.296 141.887V141.746L132.451 142.028H132.169V141.887C133.859 141.606 135.127 141.183 135.831 140.62C139.211 138.085 141.746 136.113 143.577 135.127C148.93 131.042 151.465 127.239 151.183 123.718ZM150.338 123.859V125.268L149.915 125.831L149.634 123.437L150.338 123.859ZM43.5775 112.451H43.4366L43.2958 112.028L44.2817 111.887V112.169L43.5775 112.451ZM38.9296 159.915C38.3662 159.634 37.8028 159.493 37.3803 159.634V158.93C37.2394 158.648 37.3803 158.507 37.8028 158.366C38.0845 158.366 38.2254 158.507 38.3662 159.07L39.6338 157.521L40.1972 157.662C40.0563 159.07 39.6338 159.775 38.9296 159.915ZM89.6338 106.817C89.3521 106.817 88.9296 106.113 88.2254 104.704L88.0845 104.141C88.6479 104.141 89.0704 104.845 89.493 106.394L89.6338 106.817ZM88.9296 101.606L88.7887 102.028L81.8873 99.2113C86.3944 99.3521 88.7887 100.197 88.9296 101.606ZM59.7746 126.535L58.7887 126.676V126.254L59.7746 126.113V126.535ZM59.0704 111.606H59.2113L59.3521 112.169C59.0704 112.31 58.7887 112.592 58.507 113.296L58.3662 112.732C58.7887 112.169 59.0704 111.887 59.0704 111.606ZM56.9577 116.394L57.0986 117.239H56.8169V116.394H56.9577ZM55.9718 118.085H56.3944C56.3944 118.789 56.1127 119.211 55.6901 119.211H55.5493L55.9718 118.085ZM55.1268 120.479H55.4085V120.62L54.9859 121.465H54.5634L54.4225 121.183C54.9859 121.183 55.1268 120.901 55.1268 120.479ZM54.2817 122.592L54.1408 123.859H54L53.8592 122.732L54.2817 122.592ZM46.3944 145.127C46.1127 146.676 45.831 147.521 45.4085 147.521V147.239C45.2676 146.535 45.6901 145.831 46.3944 145.127ZM44.9859 148.225V148.507C44.9859 148.789 44.8451 148.93 44.5634 148.93V148.789C44.5634 148.507 44.7042 148.366 44.9859 148.225ZM44.5634 154.704H45.2676V154.986L44.5634 155.268H44.1408C44.1408 154.986 44.2817 154.845 44.5634 154.704ZM65.4085 148.366C61.3239 150.338 58.9296 151.746 58.2254 152.451C53.7183 154 51.4648 154.986 51.6056 155.408C47.5211 156.958 44.9859 158.085 43.7183 158.789L42.4507 158.507C42.3099 157.662 42.7324 156.958 43.5775 156.535C44.1408 156.394 44.8451 156.535 45.5493 156.817C46.2535 156.394 47.5211 155.972 49.3521 155.549L49.2113 155.127H47.8028L52.0282 153.155H52.7324V153.296C51.6056 153.437 50.9014 153.859 50.7606 154.563C50.7606 154.845 50.9014 154.986 51.1831 154.845L52.5915 153.859C54.4225 153.577 59.3521 150.901 67.3803 146.113L67.5211 146.535C67.5211 146.676 66.8169 147.38 65.4085 148.366ZM53.0141 152.451C54.1408 152.31 55.1268 151.887 55.9718 151.042C56.3944 151.042 56.5352 151.042 56.5352 151.465C55.9718 151.465 54.8451 151.887 53.2958 152.873H53.0141V152.451ZM73.0141 136.958L66.8169 141.887C62.169 144.986 59.7746 146.535 59.3521 146.535C52.0282 150.62 47.3803 152.732 45.6901 152.873H45.4085C45.5493 152.028 48.9296 145.268 55.2676 132.732C57.9437 132.451 62.4507 131.183 68.3662 128.789L69.7746 128.648C72.8732 128.507 75.1268 129.07 76.6761 130.479V131.324C75.5493 134.563 74.4225 136.535 73.0141 137.099V136.958ZM60.9014 130.197L61.8873 130.056V130.338L60.9014 130.479V130.197ZM74.9859 127.803H75.6901C76.3944 128.085 76.6761 128.366 76.6761 128.648V128.789C76.1127 128.93 75.4085 128.507 74.9859 127.803ZM76.9577 116.535C76.2535 117.239 74.4225 118.648 71.6056 120.479C70.6197 120.62 67.0986 121.887 60.9014 124.704L59.9155 124.423V124C59.7746 123.155 60.1972 122.028 61.0423 120.62C61.6056 118.085 62.0282 116.676 62.5916 116.394L67.8028 104.845C67.662 104 68.7887 103.577 71.0423 103.155L71.7465 103.014L71.8873 103.718L75.9718 103.155C80.0563 102.732 82.169 103.577 82.3099 105.549H82.8732L82.7324 104.423H83.2958C84.4225 104.986 85.1268 105.831 85.1268 106.817C85.2676 107.38 84.8451 108.225 84.1408 109.211C83.8592 109.211 83.7183 108.93 83.5775 108.507H83.1549L83.0141 109.915C80.9014 113.014 79.3521 114.704 78.507 114.704C77.662 115.972 77.0986 116.535 76.9577 116.535ZM80.0563 124.563C79.6338 124.282 79.3521 124.141 79.0704 124.282L78.9296 123.577L79.493 123.437L80.4789 124.141C80.4789 124.423 80.338 124.563 80.0563 124.563ZM83.2958 128.507L84.1408 129.07H83.8592L83.7183 129.211L83.4366 129.352L83.2958 128.507ZM83.5775 130.479V130.197L84.1408 130.056L84.2817 130.338L83.5775 130.479ZM85.1268 132.028L87.0986 131.606V131.746L84.9859 132.31L85.1268 132.028ZM87.0986 132.873L84.9859 133.155V133.014L86.8169 132.451L87.662 132.31V132.592L87.0986 132.873ZM89.0704 132.451C88.7887 132.451 88.6479 132.451 88.507 132.169L89.0704 132.028C89.3521 132.028 89.493 132.028 89.6338 132.31L89.0704 132.451ZM94.1408 126.958V126.676L95.1268 126.535V126.817L94.2817 126.958H94.1408ZM99.7747 160.62V160.056H99.9155C100.197 160.056 100.338 160.056 100.338 160.338L100.479 160.479L99.7747 160.62ZM103.577 128.366L103.155 128.225L101.606 128.789L101.183 128.93C101.042 128.93 100.901 128.93 100.761 128.648L103.296 128.085L104.141 127.662L104.423 127.944L103.577 128.366ZM105.549 127.662V127.521L105.972 127.239L107.803 126.817L107.944 126.958L105.549 127.662ZM105.831 124L105.408 124.282H104.563C104.563 124 105.831 123.437 108.648 122.873L109.07 122.732V123.014L105.831 124ZM110.761 118.648C110.62 120.901 109.775 122.169 108.366 122.451V122.31L107.099 122.873H105.831L105.69 122.451C105.69 122.31 107.38 119.775 111.042 114.986L111.465 115.127C111.606 115.69 111.465 116.958 110.761 118.648ZM119.493 111.183H119.352V110.901L120.056 110.761V111.042L119.493 111.183ZM115.972 147.239C115.549 147.099 115.127 146.958 114.845 147.099L114.704 146.535C114.704 146.254 114.845 146.254 115.127 146.113L115.549 146.676L116.535 145.408L116.817 145.549C116.676 146.676 116.394 147.239 115.972 147.239ZM154.423 106.958C154.282 106.958 153.859 106.394 153.296 105.268V104.986C153.577 104.986 154 105.549 154.423 106.676V106.958ZM153.859 103.014L153.718 103.296L148.507 101.183C152.028 101.324 153.859 101.887 153.859 103.014ZM131.746 122.028H131.042V121.746L131.746 121.606V122.028ZM131.183 110.62L131.465 110.479V111.042C131.183 111.042 131.042 111.324 130.761 111.887V111.465L131.183 110.62ZM129.634 114.282L129.775 114.845L129.493 114.986V114.282H129.634ZM128.789 115.549H129.211C129.211 116.113 129.07 116.394 128.789 116.394H128.507C128.789 116.113 128.789 115.69 128.789 115.549ZM128.225 117.38H128.366V117.521L128.085 118.085H127.803L127.662 117.944C128.085 117.944 128.225 117.662 128.225 117.38ZM127.662 118.93L127.521 119.915H127.38L127.239 119.07L127.662 118.93ZM121.606 136.113C121.324 137.239 121.183 137.803 120.901 137.944V137.662C120.761 137.099 121.042 136.535 121.606 136.113ZM120.479 138.507V138.648C120.62 138.789 120.479 138.93 120.197 139.07V138.789L120.479 138.366V138.507ZM120.197 143.437L120.761 143.296V143.577L120.197 143.718H119.915C119.915 143.577 119.915 143.437 120.197 143.437ZM135.972 138.507C132.873 140.056 131.042 141.042 130.479 141.606C127.099 142.873 125.408 143.577 125.408 143.859C122.451 144.986 120.479 145.831 119.634 146.394C119.352 146.394 119.07 146.394 118.648 146.113C118.507 145.549 118.789 145.127 119.352 144.704C119.915 144.704 120.479 144.704 120.901 144.986C121.465 144.704 122.451 144.282 123.859 144V143.577L122.732 143.718C122.873 143.577 123.859 143.014 125.972 142.169H126.535V142.31C125.549 142.451 124.986 142.732 124.845 143.155C124.845 143.437 124.986 143.577 125.268 143.577L126.254 142.732C127.662 142.451 131.465 140.479 137.521 136.817L137.662 137.099C137.662 137.239 137.099 137.803 135.972 138.507ZM126.535 141.606C127.521 141.465 128.225 141.183 128.93 140.62C129.211 140.479 129.352 140.62 129.352 140.901C128.93 140.901 128.085 141.183 126.817 141.887H126.676L126.535 141.606ZM141.887 129.915L137.099 133.718C133.577 135.972 131.746 137.099 131.465 137.099C125.831 140.197 122.451 141.746 121.042 141.887H120.901C121.042 141.324 123.437 136.254 128.366 126.676C130.479 126.535 133.718 125.549 138.366 123.718L139.493 123.577C141.746 123.437 143.437 123.859 144.563 124.986L144.704 125.69C143.718 128.085 142.873 129.493 141.887 129.915ZM132.592 124.704H133.296L133.437 124.845H132.592V124.704ZM143.296 122.873H143.859C144.423 123.155 144.704 123.296 144.704 123.577V123.718C144.141 123.718 143.718 123.437 143.296 122.873ZM144.704 114.282C144.282 114.845 142.873 115.972 140.761 117.38C140.056 117.38 137.38 118.507 132.592 120.479L131.887 120.338V120.056C131.746 119.352 132.169 118.507 132.732 117.521C133.155 115.549 133.577 114.423 134 114.141L137.944 105.408C137.803 104.845 138.648 104.423 140.338 104.141H140.901V104.563L144.141 104.141C147.239 103.859 148.789 104.563 148.93 105.972H149.352L149.211 105.127H149.634C150.479 105.69 151.042 106.254 151.042 106.958C151.042 107.38 150.761 108.085 150.338 108.789C150.056 108.789 149.915 108.648 149.915 108.225H149.493L149.352 109.352C147.803 111.746 146.676 113.014 145.972 113.014C145.408 113.859 144.986 114.282 144.704 114.282ZM146.394 120.197V119.634H146.676L147.521 120.056C147.521 120.338 147.38 120.479 147.239 120.479L146.394 120.197ZM80.9014 154.423H80.4789L80.1972 154.704C80.1972 154.986 80.338 154.986 80.6197 154.986C80.9014 154.986 80.9014 154.845 80.9014 154.563V154.423ZM79.493 151.606V151.746C79.7746 151.746 79.7746 151.606 79.7746 151.324V151.183C79.493 151.183 79.3521 151.324 79.493 151.606ZM89.493 132.873L89.6338 132.732H89.493L89.3521 132.873H89.493ZM89.3521 128.085L89.7746 127.944V127.521L89.3521 127.662V128.085ZM188.93 142.31L187.944 142.169L187.803 142.451V142.732L193.437 142.169V141.887L188.93 142.31ZM218.085 138.648V139.07L218.648 139.211V138.789L218.085 138.648ZM217.239 138.789C212.873 139.775 212.31 139.493 211.465 139.634V139.915H212.028L212.451 139.634C216.676 139.211 217.239 139.352 217.239 138.93V138.789ZM191.465 132.592L191.042 132.451L190.62 133.859V134C190.901 134 191.183 133.577 191.465 132.592ZM186.254 129.775V129.634H186.113L185.69 129.775L185.972 130.197C186.254 130.197 186.394 130.056 186.254 129.775ZM197.521 141.324V141.042H197.38V141.324H197.521ZM220.761 136.113H221.042L221.183 135.69L221.042 135.408C220.056 135.408 219.634 135.549 218.93 135.972L218.789 135.69L217.662 135.831C217.662 135.549 217.521 135.268 217.38 135.408H216.817C216.113 135.408 215.69 135.408 215.408 135.69L215.268 135.549H214.563L214.141 135.831V135.549L213.859 135.831V135.69L212.873 135.549H212.592L212.732 135.972L213.155 136.113L213.577 135.972L214.141 136.113L214.563 135.972V136.113C212.31 136.676 212.31 136.535 210.761 136.817L210.479 136.676C210.197 136.676 210.197 136.535 210.197 136.394L210.901 136.254L211.465 136.394L212.451 135.972V135.549C210.197 135.972 211.183 135.69 208.366 135.972H208.225V135.69L211.746 135.127L211.887 135.268L212.31 135.127L212.592 134.986C213.859 134.986 214.282 135.127 216.676 134.563V134.704L217.099 134.423H217.38C217.38 134.141 217.944 134 218.085 134V133.577C213.859 134.563 212.732 134.282 211.606 134.563V134.423C210.479 134.704 210.338 134.563 210.056 134.563L209.775 134.845L209.634 134.563H209.493L205.972 135.268L205.831 135.127C203.859 135.408 204.423 135.549 201.887 135.831L201.465 135.972L201.324 135.831L199.775 135.972L198.648 136.254L198.507 136.113L196.958 136.394C196.676 136.394 197.099 136.254 196.958 136.254L196.535 136.394H194.845L192.169 136.817L191.042 136.676C191.183 136.817 191.042 136.817 190.901 136.817C189.775 136.676 189.211 136.535 189.211 136.254C189.352 135.268 189.634 134.704 190.056 134.563H190.197L190.056 134.986H190.197L190.761 134.423V134H190.338V133.718L190.479 133.014L191.324 131.606V132.028H191.746L191.606 131.606L191.465 131.324L192.169 130.901V130.761H191.606V130.197L193.155 126.394L193.437 126.535C193.718 126.535 193.859 126.394 193.859 126.113H193.437V125.972L193.577 125.268C194.141 124.563 194.423 124 194.423 123.296L194.563 123.577C196.535 119.775 198.225 115.972 199.493 111.887C202.592 103.437 202.451 102.592 202.873 100.62H202.451L202.31 101.324L201.746 101.183V101.042C201.746 100.338 202.028 99.493 202.592 98.507H202.873L203.155 99.6338H203.437L203.718 98.2254C203.718 97.9437 203.577 97.9437 203.296 97.8028L203.014 98.0845V96.1127H202.873L202.31 95.4085L200.338 95.5493L200.056 94.9859C200.056 94.7042 200.62 94.5634 201.465 94.4225L201.887 94.5634L202.31 94.2817C202.31 94.4225 202.31 94.5634 202.451 94.4225L202.873 94.2817L203.155 94.4225H203.296V94H201.042L200.62 94.2817V94L184.563 95.4085H182.592L182.169 95.5493L181.746 95.4085L180.338 95.831L178.789 95.6901L177.944 95.9718H180.197L177.239 96.6761L176.817 96.5352L170.197 97.5211L169.352 97.3803L167.521 97.662L164.423 99.0704L164.563 99.493L165.268 99.2113L166.394 99.3521L166.254 100.338C165.268 100.761 164.563 101.465 164.423 102.31C162.873 103.014 162.169 103.577 162.169 103.859V104H162.31L162.732 103.859L163.296 104.423V105.268C163.437 105.408 160.761 111.042 155.408 121.746L148.225 138.93C146.676 139.352 145.831 140.056 145.549 140.901C145.549 141.183 146.113 141.324 146.958 141.465V141.746L146.535 142.451L146.676 143.296C146.676 143.718 147.803 144 150.056 144.282L150.338 144L149.915 146.958H150.056C151.042 145.69 151.465 144.845 151.465 144.423L151.606 144.282C151.887 144.282 152.028 144.563 152.31 145.127C152.028 145.268 151.042 147.521 149.352 151.887L149.634 152.31L149.915 152.169C152.028 146.958 153.296 144.141 153.859 143.577L167.944 142.169L168.366 141.887L168.507 142.028H169.07L169.493 141.746C169.493 141.887 169.493 142.028 169.634 141.887L174.704 141.465C176.113 141.465 176.676 141.042 176.676 140.338C176.676 140.056 177.38 139.915 179.07 139.634L179.775 139.775C179.634 139.634 180.479 139.493 182.169 139.352C182.169 138.507 182.451 138.085 182.873 138.085V137.662L181.324 138.085L179.352 137.803L178.648 138.085H175.127L174.704 138.366L174.423 138.225H174.282L173.859 138.507L172.732 138.085L172.169 138.366L171.324 138.507V138.225C175.831 137.803 178.085 137.099 178.085 136.394C178.366 136.394 178.507 136.535 178.507 136.817L179.915 136.394L179.775 136.113L168.93 136.394L168.789 136.535H167.38C167.099 136.535 166.817 136.535 166.535 136.817L166.113 136.535C164.704 136.676 163.718 136.817 163.014 137.099H159.915L157.521 137.38L156.394 137.239C157.803 132.028 160.056 127.099 162.873 122.592L163.577 122.732L165.268 122.169L166.254 122.31C167.662 122.169 169.493 121.746 171.465 121.042L172.592 121.183L173.859 120.901L177.803 120.479C179.493 120.338 181.324 120.056 183.296 119.352V118.93C182.451 119.07 182.169 118.93 182.169 118.648C182.028 118.085 181.465 117.803 180.479 117.944V117.521L181.606 117.239L184.423 116.958L184.282 116.535H182.592V116.113L183.577 115.972C184 115.972 184 115.831 184 115.549L181.746 115.408C176.394 116.113 171.042 116.254 165.69 115.972L165.408 115.549C168.085 109.634 169.775 106.817 170.197 106.676L169.775 107.803L169.915 107.944H170.338C171.324 105.268 172.31 104 173.014 104C176.254 103.718 172.592 103.437 179.493 102.31L180.197 102.592L191.465 100.761V100.338L188.93 100.62V100.197L189.634 99.9155V100.197L190.197 99.9155C190.761 99.7746 191.042 99.9155 191.324 100.056L193.437 99.6338L195.127 99.3521L195.69 98.7887L195.549 98.507H194.141C194.141 98.2254 194.282 98.0845 194.563 97.9437L197.521 97.662L198.93 97.3803L199.211 97.5211L199.775 97.2394L199.915 97.3803L199.352 98.9296L198.93 99.0704L198.789 98.2254L198.507 98.3662C194.845 108.507 193.296 113.296 189.915 121.042C189.211 123.014 188.789 124.141 188.225 124.423C188.225 124.704 188.366 124.704 188.648 124.704C188.789 125.69 188.507 126.676 187.944 127.662C186.394 132.169 185.408 134.563 184.845 135.127L185.127 137.239C185.268 137.38 185.127 137.521 184.845 137.521L184.423 137.662C184.423 136.958 184.282 136.676 183.859 136.817H183.577C183.155 137.521 182.732 138.366 182.592 139.352H182.873C183.437 139.07 183.577 138.648 183.577 138.225H184.282L184.704 138.366L184.282 139.634L184.423 139.915L184 141.042V141.183L185.408 141.606L186.535 141.183H191.183L192.592 140.62H195.972L196.535 140.479L196.817 140.338V140.479C198.366 140.338 198.507 140.479 199.634 140.62V140.761L198.789 140.901L198.93 141.183C199.07 141.183 199.352 141.183 199.493 140.901C199.775 140.901 199.915 141.042 199.915 141.324L198.789 141.606L198.366 141.465L197.521 141.606H196.958L196.817 141.746C196.817 141.887 196.958 142.028 197.239 142.028H197.803L200.901 141.746L202.028 141.465L202.169 141.606L202.732 141.465L203.859 141.324L206.394 140.901L206.535 140.761V140.901L210.056 140.197V140.338C210.761 140.197 210.338 140.197 210.62 140.056L210.761 140.197H211.183V139.775H209.915L208.789 139.915L206.113 140.056V139.915L207.521 139.634H208.085L208.366 139.352V139.634C210.479 139.352 211.183 139.915 220.479 137.944C221.042 137.944 221.042 137.521 221.324 136.535H220.901C220.056 136.817 219.634 136.676 218.225 136.817C218.085 136.817 217.944 136.817 217.944 136.535V136.394H219.352C219.634 136.394 220.056 136.394 220.901 135.972L220.761 136.113ZM151.465 137.239H150.761L151.746 134.282H152.169C152.31 134.563 152.028 135.69 151.465 137.239ZM152.169 134V133.859C152.169 133.577 152.31 133.437 152.592 133.296V133.577C152.592 133.859 152.451 134 152.169 134ZM161.042 140.761V141.042H159.915V140.901L161.042 140.761ZM159.634 140.761C159.634 140.901 159.352 141.183 158.648 141.465L157.239 141.324H156.817V140.901L159.634 140.761ZM168.648 99.7746H167.944V99.493L168.366 99.0704H168.507L168.93 99.2113C169.07 99.493 168.93 99.6338 168.648 99.7746ZM178.648 97.8028H178.93V98.0845L178.225 98.2254C178.225 97.9437 178.366 97.8028 178.648 97.8028ZM176.113 98.6479L175.127 98.507V98.3662L177.662 97.8028C177.662 98.0845 177.803 98.0845 178.085 98.0845V98.507H177.662L176.958 98.3662L176.113 98.6479ZM177.38 102.31V102.169L178.93 101.887V102.169L177.38 102.31ZM179.07 100.901V100.62H179.915V100.761L179.07 100.901ZM179.352 98.0845H179.07L179.211 97.662L181.042 97.5211V97.8028L179.352 98.0845ZM180.197 102.028V101.606L180.901 101.465C181.183 101.465 181.324 101.606 181.324 101.887L180.197 102.028ZM184.986 95.5493L184 95.831H183.718L181.887 95.6901L184.986 95.5493ZM183.859 100.056V100.197L182.451 100.338V100.197L183.859 100.056ZM186.113 101.042C186.113 100.901 185.831 100.761 185.408 100.761L184 101.183H182.873L182.451 100.761L183.718 100.901L186.535 100.479H187.944V100.761L186.113 101.042ZM200.479 97.3803H200.901C201.324 96.9577 201.887 96.5352 202.592 96.2535C202.028 98.507 201.183 100.197 200.197 101.183L199.352 100.761C200.056 99.0704 200.479 97.9437 200.479 97.3803ZM198.085 101.606L198.366 101.465C198.085 102.028 197.803 102.31 197.662 102.31L197.521 101.746L198.085 101.465V101.606ZM196.535 105.268C196.958 103.718 197.239 102.873 197.662 102.732V102.873C197.38 104.282 197.099 104.986 196.676 105.127L196.817 105.972C196.394 106.394 196.254 106.817 196.254 107.099H196.113L195.972 105.831C196.254 105.831 196.394 105.69 196.535 105.268ZM195.972 107.239L195.549 108.789H195.268V108.225L195.972 107.239ZM184.563 140.338V140.197L184.986 140.056V140.62C184.704 140.62 184.563 140.479 184.563 140.338ZM200.761 140.761L200.62 140.479L199.634 140.62V140.479H199.775L201.887 140.197V140.479L200.761 140.761ZM199.775 137.662L198.648 137.803V137.662L199.775 137.521L200.62 137.239C200.62 137.38 200.761 137.521 200.901 137.38L202.451 137.099C202.592 137.099 202.732 137.239 202.732 137.521L199.775 137.662ZM204 137.38L202.873 137.239V137.099L204 136.958V137.099C203.859 137.239 204.282 137.239 204 137.38ZM204.141 137.099V136.958H204.704V137.099H204.141ZM205.408 137.099V136.958L205.831 136.676C206.113 136.676 206.254 136.817 206.394 137.099H205.408ZM207.099 136.817V136.676L207.803 136.535V136.817H207.099ZM208.085 136.817C208.085 136.535 208.225 136.394 208.366 136.394L208.648 136.676L208.789 136.535L208.93 136.817L208.085 136.676V136.817ZM222.31 134.986C222.31 134.845 222.451 134.845 222.169 134.704C222.028 134.845 222.31 134.986 222.028 134.986V135.127L221.746 135.408L222.31 135.268H222.451L222.31 134.845V134.986ZM223.296 135.69H223.155V136.113L224 135.972L223.296 135.69Z" fill="#F9DC3E"/>
</svg>