<svg width="256" height="256" title="Babylon.js" viewBox="0 0 256 256" fill="none" xmlns="http://www.w3.org/2000/svg" id="babylonjs">
<style>
#babylonjs {
    rect {fill: #15191C}

    @media (prefers-color-scheme: light) {
        rect {fill: #F4F2ED}
    }
}
</style>
<rect width="256" height="256" rx="40" fill="#15191C"/>
<path d="M203 85.2285L179.545 71.7088L156.952 84.7118L180.45 98.2745L203 85.2285Z" fill="#E0684B"/>
<path d="M75.5927 98.2745L150.571 55.003L128.022 42L53 85.2285L75.5927 98.2745Z" fill="#E0684B"/>
<path d="M104.524 142.02L128.022 155.539L151.477 142.02L128.022 128.5L104.524 142.02Z" fill="#E0684B"/>
<path d="M180.45 98.2745L180.45 158.726L128.022 188.951L75.5927 158.726V98.2745L53 85.2285V171.728L128.022 215L203 171.728L203 85.2285L180.45 98.2745Z" fill="#BB464B"/>
<path d="M128.022 101.418L104.524 114.937V142.02L128.022 128.5L151.477 142.02V114.937L128.022 101.418Z" fill="#BB464B"/>
<path d="M180.45 98.2745L151.477 114.937V142.02L128.022 155.539L128.022 188.951L180.45 158.726L180.45 98.2745Z" fill="#E0DED8"/>
<path d="M75.5927 98.2745L104.524 114.937V142.02L128.022 155.539L128.022 188.951L75.5927 158.726V98.2745Z" fill="#D5D2CA"/>
<path d="M150.571 55.003L179.545 71.7088L156.952 84.7118L180.45 98.2745L151.477 114.937L128.022 101.418L104.524 114.937L75.5927 98.2745L150.571 55.003Z" fill="white"/>
</svg>