<svg width="256" height="256" title="Backblaze" viewBox="0 0 256 256" fill="none" xmlns="http://www.w3.org/2000/svg">
<rect width="256" height="256" rx="40" fill="#B42432"/>
<path d="M109.247 39C118.206 46.944 126.142 56.933 129.152 68.8874C130.176 73.8691 130.176 77.8565 128.128 82.8356C127.104 86.8204 125.143 90.7796 123.152 95.7868C121.16 101.765 121.16 108.738 124.176 115.713C127.163 121.695 128.154 128.69 128.154 136.634C127.13 144.578 122.182 149.586 114.221 149.586C109.244 149.586 104.268 148.561 99.292 146.598C89.3396 141.616 84.3633 134.643 83.3701 123.683C82.3462 108.738 88.3464 96.7837 99.292 87.8172C103.272 83.8324 107.227 79.8732 110.24 74.8659C116.212 63.9057 115.216 52.9481 111.264 41.988C110.24 40.9629 110.24 39.9943 109.273 39L109.247 39ZM150.05 72.8774L147.065 83.8375C146.067 88.769 146.067 93.851 147.065 98.7825C148.089 104.761 150.05 109.743 155.001 114.722C158.981 117.71 162.936 121.692 166.942 124.685C178.883 135.645 179.879 148.594 175.901 162.545C172.916 172.508 164.953 176.493 155.003 179.458C145.051 181.451 136.094 176.47 132.114 167.503C129.129 161.525 129.129 155.549 133.137 150.59C138.114 142.646 139.109 133.677 136.122 124.688L133.137 112.733C130.153 105.763 131.146 98.7851 134.161 92.8066C138.142 84.8626 144.114 78.8584 150.083 72.8799L150.05 72.8774ZM166.944 185.452C165.921 186.477 165.921 187.445 164.953 188.44C157.99 196.384 150.024 200.394 139.079 202.388C126.142 204.381 113.204 201.363 102.256 195.418C92.3038 190.436 85.3617 181.469 81.3582 170.509C78.3734 163.539 77.3777 155.564 78.3734 147.595C78.3734 146.57 78.3734 145.601 79.3974 145.601C79.3974 145.601 80.4213 145.601 80.4213 146.626C87.3839 154.57 96.3431 158.58 106.296 159.577C109.28 158.552 112.268 158.552 115.255 158.552C117.246 158.552 118.24 159.577 118.24 161.54C119.263 163.534 119.263 165.525 120.231 167.519C124.211 178.479 132.172 184.432 144.114 187.445C150.086 188.47 156.055 188.47 162.027 185.452H167.003H166.944Z" fill="white"/>
</svg>