<svg width="256" height="256" title="Balena Etcher" viewBox="0 0 256 256" fill="none" xmlns="http://www.w3.org/2000/svg" id="balenaetcher">
<style>
#balenaetcher {
    rect {fill: #15191C}

    @media (prefers-color-scheme: light) {
        rect {fill: #F4F2ED}
    }
}
</style>
<rect width="256" height="256" rx="40" fill="#15191C"/>
<path d="M131.385 204.782C134.006 204.345 136.627 203.472 138.811 202.163L187.08 174.667C193.85 170.739 198 163.756 198 155.901V101.127C198 98.7269 197.563 96.3265 196.69 93.9261L182.056 102.437L141.651 125.568C133.351 131.46 131.604 136.915 131.385 143.462V204.782Z" fill="#A5DE37"/>
<path d="M178.78 96.5447L193.413 88.0341C191.666 85.6337 189.482 83.6697 187.08 82.3604L138.811 54.8647C132.041 50.9368 123.741 51.155 117.189 54.8647L69.1388 82.3604C66.5179 83.888 64.3339 85.8519 62.5866 88.2524L77.22 96.7629L117.626 119.894C122.431 122.949 125.707 126.004 127.891 129.496C130.075 126.004 133.351 122.949 138.156 119.894L178.78 96.5447Z" fill="#A5DE37"/>
<path d="M74.1622 102.655L59.3105 94.1443C58.4368 96.3265 58 98.7269 58 101.127V156.119C58 163.756 62.1498 170.958 68.9204 174.886L116.97 202.381C119.154 203.691 121.775 204.564 124.396 205V188.197V143.462C124.178 136.915 122.431 131.46 114.131 125.568L74.1622 102.655Z" fill="#A5DE37"/>
<path d="M196.69 93.9261L182.056 102.437C182.493 103.964 182.93 105.71 182.93 107.456V149.79C182.93 155.901 179.654 161.792 174.193 164.848L137.064 186.015C135.317 186.888 133.569 187.542 131.604 187.979V204.782C134.225 204.345 136.846 203.472 139.03 202.163L187.08 174.667C193.85 170.739 198 163.756 198 155.901V101.127C198 98.7269 197.563 96.3265 196.69 93.9261Z" fill="#C8F178"/>
<path d="M82.2434 92.3985L119.154 71.2312C124.615 68.1761 131.385 68.1761 136.627 71.2312L173.757 92.3985C175.722 93.4896 177.251 95.0172 178.562 96.5447L193.195 88.0341C191.448 85.6337 189.264 83.6697 186.861 82.3604L138.811 54.8647C132.041 50.9368 123.741 51.155 117.189 54.8647L69.1388 82.3604C66.5179 83.888 64.3339 85.8519 62.5866 88.2524L77.22 96.7629C78.7488 95.0172 80.2777 93.4896 82.2434 92.3985Z" fill="#C8F178"/>
<path d="M119.154 186.015L82.2434 164.848C76.7832 161.792 73.507 155.901 73.507 149.79V107.456C73.507 105.71 73.7254 104.182 74.1622 102.655L59.3105 94.1443C58.4368 96.3265 58 98.7269 58 101.127V156.119C58 163.756 62.1498 170.958 68.9204 174.886L116.97 202.381C119.154 203.691 121.775 204.564 124.396 205V188.197C122.649 187.542 120.902 186.888 119.154 186.015Z" fill="#C8F178"/>
</svg>