<svg width="256" height="256" title="Ballerina" viewBox="0 0 256 256" fill="none" xmlns="http://www.w3.org/2000/svg" id="ballerina">
<style>
#ballerina {
    rect {fill: #15191C}

    @media (prefers-color-scheme: light) {
        rect {fill: #F4F2ED}
    }
}
</style>
<rect width="256" height="256" rx="40" fill="#15191C"/>
<path d="M52.8612 144.398H38V112.896H52.0684C60.0499 112.896 63.4763 116.294 63.4763 121.444C63.4763 124.989 61.0711 127.49 57.6447 128.038C61.4607 128.734 64.4303 131.235 64.4303 135.743C64.4168 141.201 60.2514 144.398 52.8612 144.398ZM44.1272 126.005H51.6653C55.4276 126.005 57.04 124.36 57.04 122.006C57.04 119.651 55.4276 117.953 51.6653 117.953H44.1272V126.005ZM44.1272 130.754V139.355H52.1624C56.086 139.355 57.994 137.71 57.994 135.101C57.994 132.453 56.086 130.754 52.1624 130.754H44.1272Z" fill="#53C3C2"/>
<path d="M86.937 139.047C86.937 140.198 87.5417 140.746 88.4957 140.746C89.1003 140.746 89.705 140.599 90.35 140.291V143.488C89.3959 144.238 88.1866 144.893 86.1845 144.893C83.6718 144.893 81.7638 143.288 81.307 140.639C80.0573 143.234 77.2356 144.946 73.5673 144.946C69.3482 144.946 66.5399 142.699 66.5399 138.9C66.5399 134.7 69.8588 132.948 74.9782 131.998L81.0517 130.848V130.192C81.0517 127.744 79.7483 126.246 77.1818 126.246C74.6692 126.246 73.312 127.744 72.8149 129.898L67.3326 129.403C68.0851 124.908 71.5518 121.752 77.4237 121.752C83.1478 121.752 86.9101 124.454 86.9101 130.259V139.047H86.937ZM81.0517 134.098L76.8862 134.954C74.1182 135.503 72.4118 136.198 72.4118 138.258C72.4118 139.81 73.5136 140.96 75.4754 140.96C78.6465 140.96 81.0517 138.606 81.0517 134.861V134.098Z" fill="#53C3C2"/>
<path d="M136.304 137.054C135.202 142.057 131.279 145 125.608 145C118.782 145 113.851 140.653 113.851 133.697C113.851 126.741 118.823 121.752 125.447 121.752C132.676 121.752 136.398 126.754 136.398 132.747V134.647H119.777C119.978 138.245 122.545 140.439 125.81 140.439C128.779 140.439 130.58 139.141 131.44 136.546L136.304 137.054ZM130.526 131.503C130.432 128.654 128.766 126.152 125.407 126.152C122.088 126.152 120.234 128.547 119.884 131.503H130.526Z" fill="#53C3C2"/>
<path d="M155.196 128.253C154.041 127.597 153.033 127.303 151.582 127.303C148.464 127.303 146.355 129.497 146.355 133.496V144.398H140.322V122.353H146.355V126.554C147.161 124.052 149.472 121.752 152.536 121.752C153.893 121.752 154.995 122.099 155.653 122.648L155.196 128.253Z" fill="#53C3C2"/>
<path d="M158.193 112.896H164.374V118.755H158.193V112.896ZM164.32 122.353V144.398H158.287V122.353H164.32Z" fill="#53C3C2"/>
<path d="M169.278 144.398V122.353H175.311V125.952C176.413 123.45 179.235 121.752 182.54 121.752C188.466 121.752 190.629 125.751 190.629 130.647V144.398H184.609V131.851C184.609 128.453 183.252 126.5 180.296 126.5C177.233 126.5 175.325 128.895 175.325 132.6V144.398H169.278Z" fill="#53C3C2"/>
<path d="M214.587 139.047C214.587 140.198 215.192 140.746 216.146 140.746C216.75 140.746 217.355 140.599 218 140.291V143.488C217.046 144.238 215.837 144.893 213.835 144.893C211.322 144.893 209.414 143.288 208.957 140.639C207.707 143.234 204.886 144.946 201.217 144.946C196.998 144.946 194.19 142.699 194.19 138.9C194.19 134.7 197.509 132.948 202.628 131.998L208.702 130.848V130.192C208.702 127.744 207.398 126.246 204.832 126.246C202.319 126.246 200.962 127.744 200.465 129.898L194.996 129.403C195.749 124.908 199.215 121.752 205.087 121.752C210.811 121.752 214.574 124.454 214.574 130.259V139.047H214.587ZM208.702 134.098L204.536 134.954C201.768 135.503 200.062 136.198 200.062 138.258C200.062 139.81 201.164 140.96 203.125 140.96C206.297 140.96 208.702 138.606 208.702 134.861V134.098Z" fill="#53C3C2"/>
<path d="M92.9702 121.096V112H100.616V123.999L92.9702 121.096Z" fill="#53C3C2"/>
<path d="M92.9702 123.945L98.2106 125.938L92.9702 127.931V123.945Z" fill="#53C3C2"/>
<path d="M100.616 127.865V132.266L96.9072 144.398H92.9702V130.781L100.616 127.865Z" fill="#53C3C2"/>
<path d="M110.922 121.096V112H103.276V123.999L110.922 121.096Z" fill="#53C3C2"/>
<path d="M110.922 123.945L105.681 125.938L110.922 127.931V123.945Z" fill="#53C3C2"/>
<path d="M103.276 127.865V132.266L106.985 144.398H110.922V130.781L103.276 127.865Z" fill="#53C3C2"/>
</svg>