<svg width="256" height="256" title="Base UI" viewBox="0 0 256 256" fill="none" xmlns="http://www.w3.org/2000/svg" id="baseui">
<style>
#baseui {
    rect {fill: #15191C}
    path.baseui {fill: white}

    @media (prefers-color-scheme: light) {
        rect {fill: #F4F2ED}
        path.baseui {fill: black}
    }
}
</style>
<rect width="256" height="256" rx="40" fill="#15191C"/>
<path d="M135.602 89.9327C135.104 89.9086 134.606 89.987 134.139 90.1631C133.672 90.3392 133.246 90.6092 132.888 90.9564C132.53 91.3036 132.247 91.7206 132.056 92.1816C131.866 92.6426 131.772 93.1377 131.781 93.6363V212C147.679 212.021 162.96 205.853 174.383 194.805C185.806 183.756 192.473 168.697 192.97 152.819C193.467 136.941 187.755 121.495 177.045 109.755C166.336 98.0148 151.471 90.9048 135.602 89.9327ZM124.139 111.2V212C90.3749 212 63 181.913 63 144.8V44C96.764 44 124.139 74.0873 124.139 111.2Z" class="baseui" fill="white"/>
</svg>