<svg width="256" height="256" title="Bash" viewBox="0 0 256 256" fill="none" xmlns="http://www.w3.org/2000/svg">
<rect width="256" height="256" rx="40" fill="#4EAA25"/>
<path d="M192.557 77L138.436 44.8714C135.207 42.9571 131.607 42 128 42C124.393 42 120.793 42.9571 117.557 44.8786L63.4357 77C56.9786 80.8357 53 87.9214 53 95.5929V159.843C53 167.507 56.9786 174.6 63.4429 178.436L117.564 210.557C120.793 212.471 124.393 213.429 128 213.429C131.607 213.429 135.207 212.471 138.436 210.557L192.557 178.436C199.014 174.6 203 167.514 203 159.843V95.5929C203 87.9214 199.021 80.8357 192.557 77ZM150.643 177.329L150.736 181.943C150.743 182.5 150.379 183.136 149.943 183.357L147.207 184.929C146.771 185.15 146.414 184.879 146.407 184.321L146.357 179.786C144.014 180.757 141.643 180.993 140.129 180.386C139.843 180.271 139.721 179.85 139.836 179.371L140.829 175.2C140.907 174.871 141.086 174.543 141.321 174.336C141.407 174.257 141.493 174.193 141.579 174.15C141.736 174.071 141.886 174.05 142.021 174.107C143.657 174.657 145.743 174.4 147.75 173.386C150.3 172.093 152.007 169.493 151.979 166.907C151.957 164.564 150.686 163.586 147.6 163.564C143.671 163.571 140 162.8 139.943 157.014C139.893 152.25 142.371 147.293 146.293 144.157L146.243 139.5C146.236 138.929 146.586 138.3 147.036 138.071L149.679 136.386C150.114 136.164 150.471 136.436 150.479 137.007L150.521 141.671C152.471 140.893 154.171 140.686 155.707 141.043C156.043 141.129 156.186 141.586 156.05 142.121L155.021 146.25C154.943 146.564 154.764 146.879 154.557 147.079C154.471 147.164 154.379 147.229 154.286 147.279C154.15 147.35 154.014 147.371 153.879 147.343C153.179 147.186 151.507 146.821 148.886 148.15C146.136 149.543 145.171 151.936 145.193 153.707C145.214 155.829 146.3 156.471 150.057 156.536C155.057 156.621 157.221 158.807 157.271 163.843C157.321 168.764 154.686 174.079 150.643 177.329ZM179.021 169.564C179.021 169.993 178.964 170.393 178.607 170.6L164.921 178.914C164.564 179.121 164.279 178.943 164.279 178.514V174.986C164.279 174.557 164.543 174.321 164.9 174.114L178.379 166.05C178.736 165.843 179.021 166.021 179.021 166.45V169.564ZM188.421 90.55L137.221 122.171C130.836 125.907 126.129 130.093 126.129 137.793V200.886C126.129 205.493 127.986 208.479 130.843 209.343C129.907 209.507 128.957 209.621 128 209.621C125 209.621 122.05 208.807 119.45 207.264L65.3286 175.143C60.0357 172 56.75 166.136 56.75 159.843V95.5929C56.75 89.3 60.0357 83.4357 65.3286 80.2929L119.45 48.1643C122.043 46.6214 125 45.8071 128 45.8071C130.993 45.8071 133.95 46.6214 136.55 48.1643L190.671 80.2929C195.129 82.9429 198.143 87.5286 198.986 92.6643C197.186 88.8357 193.143 87.7929 188.421 90.55Z" fill="white"/>
</svg>