<svg width="256" height="256" title="Batch" viewBox="0 0 256 256" fill="none" xmlns="http://www.w3.org/2000/svg" id="batch">
<style>
#batch {
    rect {fill: #15191C}
    path {fill: #FFFFFF}

    @media (prefers-color-scheme: light) {
        rect {fill: #F4F2ED}
        path {fill: #212121}
    }
}
</style>
<rect width="256" height="256" rx="40" fill="#15191C"/>
<path d="M143.944 50H145.161L145.237 50.0762V63.0254L147.825 62.9492H190.595L193.791 63.0254L195.314 63.2539L196.912 63.7871L197.977 64.3203L198.89 64.9297L199.88 65.7676L200.641 66.5293L201.478 67.6719L202.315 69.2715L202.772 70.7188L202.924 71.6328L203 72.4707V183.072L202.848 184.52L202.239 186.5L201.554 187.795L200.793 188.861L199.88 189.852L198.89 190.689L197.597 191.451L196.379 191.984L194.933 192.365L193.944 192.518L192.878 192.594H145.237V205.924L145.161 206H144.324L142.041 205.619L54.1416 193.584L53.1522 193.432L53 192.975V62.416L53.0761 62.2637L54.9026 61.959L140.976 50.457L143.639 50.0762L143.944 50ZM148.129 68.7383L145.237 68.8145V103.473L187.703 103.549L188.769 103.777L189.986 104.387L190.823 105.072L191.432 105.834L191.889 106.748L192.117 107.434L192.193 107.891L192.269 110.404V149.328L192.193 152.146L191.965 153.061L191.356 154.279L190.747 155.041L189.986 155.65L188.921 156.184L187.703 156.488L184.963 156.564H145.237V186.805H192.954L194.096 186.652L195.009 186.271L195.694 185.814L196.075 185.51L196.76 184.52L197.064 183.758L197.216 182.92V72.5469L196.988 71.5566L196.531 70.6426L195.694 69.7285L194.857 69.1953L194.02 68.8906L193.639 68.8145L148.129 68.7383ZM136.105 112.156L109.925 113.223L109.773 113.299V119.621H110.991L117.688 119.469L119.134 119.393V147.424L119.21 147.5L126.44 147.881H127.429V119.24H128.571L134.202 119.088L136.181 119.012L136.257 118.936V112.232L136.105 112.156ZM100.032 113.604L92.5738 113.908L92.1172 113.984L91.204 117.031L88.1598 127.543L87.2466 130.666L86.0289 134.855L85.1157 137.979L83.3653 143.996L82.9087 145.596L82.9848 145.672L88.4642 145.977H89.9102L91.204 141.178L92.0411 138.055L92.1172 137.902L98.5099 138.055L101.097 138.131L101.25 138.207L102.011 140.873L103.533 145.977L103.761 146.662L103.913 146.738L111.371 147.119H111.904L111.676 146.281L110.534 142.549L109.164 138.131L107.642 133.256L106.425 129.295L104.522 123.201L103.457 119.773L101.935 114.822L101.554 113.604H100.032ZM68.9056 114.67L66.1659 114.822L63.7306 115.051L61.2953 115.432L60.382 115.66V144.453L62.9696 144.834L65.9376 145.139L67.5358 145.215H69.7428L71.4932 145.062L73.2435 144.834L75.07 144.301L75.9833 143.92L77.2009 143.234L77.9619 142.625L78.7991 141.787L79.5601 140.645L80.0167 139.654L80.3973 138.436L80.5495 137.369L80.6256 136.379L80.4734 134.855L80.0928 133.408L79.484 132.189L78.8752 131.352L78.1903 130.59L77.2009 129.828L76.1355 129.219L75.07 128.838H74.9178V128.609L75.6027 128.381L76.516 127.848L77.5053 127.086L78.2664 126.248L78.7991 125.41L79.1035 124.801L79.4079 123.734L79.5601 122.668V121.449L79.4079 120.307L78.9513 119.012L78.4947 118.174L77.6575 117.184L76.8204 116.498L75.6788 115.812L74.4612 115.279L72.9391 114.898L71.7215 114.746L70.5038 114.67H68.9056ZM145.009 117.717V135.084L145.39 134.703L145.846 134.018L146.303 132.799L146.379 132.342V130.971L146.075 129.828L145.618 128.838L145.694 128.533L146.227 127.695L147.064 126.553L147.977 125.334L148.053 125.258L149.195 125.334H150.184L151.402 125.029L152.467 124.496L153.228 123.887L153.837 123.201L154.294 122.439L154.75 121.221L154.979 121.068L158.784 120.459L159.24 120.611L159.849 121.449L160.61 122.135L161.676 122.744L162.741 123.049L163.883 123.125L164.872 122.973L165.785 122.668L166.546 122.287L166.927 122.439L167.992 123.201L169.362 124.191L169.971 124.648L170.123 125.105L170.047 125.639V127.01L170.352 128.229L170.808 129.143L171.417 129.904L172.102 130.514L173.015 131.047L174.157 131.504L174.385 132.189L174.461 132.875L173.7 133.332L173.015 134.475L172.635 134.855H171.341L170.656 135.16L169.971 135.922L169.134 137.141L168.906 137.674V138.436L169.21 139.502L168.982 140.035L168.297 140.721L168.068 141.178L167.992 141.863L168.297 143.92L168.677 144.682L169.058 144.986L169.895 145.443L170.123 145.52L170.199 145.824L170.275 146.814H168.145L167.231 147.043L166.166 147.576L165.253 148.338L164.644 149.176L164.187 150.09L163.883 150.852V151.004L160.915 151.461L159.545 151.689L159.393 151.385L158.708 150.547L158.023 149.938L156.957 149.328L155.968 149.023L155.435 148.947H154.522L153.609 149.1L152.696 149.48L152.087 149.785L151.706 149.633L150.412 148.719L148.967 147.652L148.586 147.271L148.51 146.967L148.586 146.51V144.986L148.282 143.844L147.825 142.93L147.292 142.244L146.607 141.635L145.542 141.025L145.009 140.873V153.061H187.094L187.779 152.832L188.312 152.299L188.54 151.537V117.717H145.009ZM159.012 128.381L157.642 128.533L156.425 128.914L155.131 129.6L154.065 130.438L153.228 131.352L152.543 132.494L152.163 133.332L151.858 134.246L151.706 135.236V136.912L151.935 138.131L152.315 139.197L153 140.416L153.685 141.254L154.674 142.168L155.664 142.777L156.653 143.234L157.642 143.539L158.632 143.691H159.621L160.686 143.615L162.209 143.158L163.502 142.473L164.492 141.711L165.024 141.178L165.633 140.416L166.318 139.197L166.775 137.902L166.927 136.912V135.16L166.699 134.018L166.318 132.951L165.785 131.885L165.024 130.895L164.416 130.285L163.502 129.6L162.209 128.914L160.915 128.533L159.925 128.381H159.012Z" fill="#FFFFFF"/>
<path d="M175.983 133.865H176.516L176.896 134.246L177.429 134.703L178.114 135.008H179.18L179.865 134.703L180.245 134.779L181.463 135.617L181.767 135.922L181.843 136.379L181.767 136.912L182.072 137.902L182.376 138.283L182.528 138.359V138.512L182.909 138.664L183.746 139.121L184.05 140.721V141.178L183.67 141.559H183.518V141.711L183.213 142.016L182.909 142.701V143.92L183.137 144.453V144.91L182.072 146.357L181.691 146.51L181.082 146.434L180.169 146.662L179.484 147.195L179.104 147.805L178.799 148.414L176.82 148.719L176.364 148.338L175.983 147.881L174.994 147.5H174.233L173.396 147.805L172.939 147.729L171.874 146.967L171.493 146.662L171.417 146.357V145.367L171.037 144.453L170.504 143.92L169.591 143.539L169.438 143.234L169.21 141.863V141.33L169.971 140.645L170.275 140.035L170.352 139.73V138.664L170.123 138.055L170.199 137.521L171.113 136.303L171.341 136.074H172.406L173.396 135.693L174.005 135.084L174.461 134.17L175.451 133.941L175.983 133.865ZM176.364 137.674L175.527 137.826L174.613 138.283L173.852 138.969L173.396 139.73L173.091 140.645V141.939L173.548 143.158L174.233 143.92L174.689 144.301L175.679 144.758L176.516 144.834H177.277L178.419 144.377L179.027 143.92L179.56 143.387L180.093 142.32L180.169 141.939V140.645L179.865 139.73L179.408 138.969L178.799 138.359L177.734 137.826L177.505 137.75L176.364 137.674Z" fill="#FFFFFF"/>
<path d="M66.3181 131.58L68.6012 131.656L70.5038 131.885L71.5693 132.266L72.3303 132.723L73.0152 133.332L73.5479 134.17L73.8524 135.084L73.9285 135.541V136.303L73.7763 137.369L73.3957 138.283L72.863 138.969L72.3303 139.426L71.417 139.883L70.656 140.111L69.3623 140.264H67.688L66.242 140.111L66.1659 139.959V131.656L66.3181 131.58Z" fill="#FFFFFF"/>
<path d="M96.379 119.24H96.6073L97.825 124.115L98.7382 127.391L99.9559 131.58L100.184 132.494L100.032 132.57H96.9117L93.0304 132.494L93.2588 131.58L94.4003 127.391L95.0091 125.105L96.3029 119.469L96.379 119.24Z" fill="#FFFFFF"/>
<path d="M67.8402 119.621H69.7428L70.8082 119.773L71.5693 120.078L72.2542 120.535L72.7869 121.145L73.0913 121.754L73.2435 122.363V123.658L73.0152 124.42L72.6347 125.105L72.102 125.715L71.417 126.172L70.3516 126.553L68.8295 126.781L67.9924 126.857H66.242L66.1659 126.781V119.926L66.3181 119.773L67.8402 119.621Z" fill="#FFFFFF"/>
</svg>