<svg width="256" height="256" title="Bazarr" viewBox="0 0 256 256" fill="none" xmlns="http://www.w3.org/2000/svg">
<rect width="256" height="256" rx="40" fill="#F4F2ED"/>
<path d="M209.066 128.5C209.066 173.005 173.005 209.066 128.5 209.066C83.9951 209.066 47.9336 173.005 47.9336 128.5C47.9336 83.9951 83.9951 47.9336 128.5 47.9336C173.005 47.9336 209.066 83.9951 209.066 128.5Z" fill="white"/>
<path d="M128.5 211C82.9961 211 46 174.004 46 128.5C46 82.9961 82.9961 46 128.5 46C174.004 46 211 82.9961 211 128.5C211 174.004 174.004 211 128.5 211ZM128.5 49.8672C85.1553 49.8672 49.8672 85.1553 49.8672 128.5C49.8672 171.845 85.1553 207.133 128.5 207.133C171.845 207.133 207.133 171.845 207.133 128.5C207.133 85.1553 171.845 49.8672 128.5 49.8672ZM176.904 172.489C144.613 174.552 112.258 174.552 79.9668 172.489C71.7813 171.941 63.7891 164.562 62.79 156.376C60.5986 137.008 60.5986 117.64 62.79 98.2715C63.7891 90.0537 71.7813 82.7061 79.9668 82.1582C112.258 80.0957 144.613 80.0957 176.904 82.1582C185.09 82.7061 193.082 90.0859 194.081 98.2715C196.272 117.64 196.272 137.008 194.081 156.376C193.082 164.594 185.09 171.941 176.904 172.489Z" fill="black"/>
<path d="M158.277 164.175H98.5937C96.8213 164.175 95.4033 162.725 95.4033 160.984C95.4033 159.212 96.8535 157.794 98.5937 157.794H158.245C160.018 157.794 161.436 159.244 161.436 160.984C161.468 162.725 160.018 164.175 158.277 164.175ZM173.778 151.349H83.0605C81.2881 151.349 79.8379 149.898 79.8379 148.126C79.8379 146.354 81.2881 144.903 83.0605 144.903H173.778C175.551 144.903 177.001 146.354 177.001 148.126C177.001 149.898 175.551 151.349 173.778 151.349Z" fill="white"/>
</svg>