<svg width="256" height="256" title="Obtainium" viewBox="0 0 256 256" fill="none" xmlns="http://www.w3.org/2000/svg" id="obtainium">
<style>
#obtainium {
    rect {fill: #15191C}

    @media (prefers-color-scheme: light) {
        rect {fill: #F4F2ED}
    }
}
</style>
<rect width="256" height="256" rx="40" fill="#15191C"/>
<path d="M158.711 202.93C156.626 201.822 144.438 195.052 87.3489 163.29C71.4622 154.451 56.1663 145.951 53.358 144.402C46.98 140.883 46 140.017 46 137.9C46 136.791 48.5455 129.692 54.5113 114.161C59.1926 101.975 63.3324 91.2961 63.711 90.4301C64.573 88.4581 65.9623 86.7831 67.3193 86.0797C68.5896 85.4212 100.333 73.8007 101.951 73.4018C103.7 72.9706 105.209 73.8012 106.099 75.6851C106.526 76.5892 108.3 81.2557 110.041 86.055C111.783 90.8544 114.376 97.9508 115.803 101.825C119.073 110.701 119.195 111.958 116.918 113.306C116.315 113.664 112.389 115.208 108.194 116.738C104 118.268 99.9975 119.852 99.3002 120.259C97.6917 121.197 97.4497 122.645 98.7068 123.81C99.2064 124.273 107.272 128.884 116.629 134.058C142.785 148.519 141.333 147.865 143.078 145.977C143.933 145.053 159.56 105.21 160.456 101.669C160.839 100.155 160.798 99.9451 159.98 99.2818C158.864 98.3755 159.025 98.3368 148.754 101.977C138.579 105.583 137.61 105.659 136.246 102.962C135.531 101.546 124.57 71.3714 123.89 68.9438C123.45 67.3735 123.988 65.8812 125.307 65.015C125.855 64.6549 133.831 61.5876 143.031 58.1987C156.684 53.1696 160.159 52.0306 161.935 52.0022C164.226 51.9656 164.527 52.1233 206.536 75.4237C209.447 77.0381 211 78.7374 211 80.3081C211 80.9315 200.584 108.628 187.853 141.856C169.898 188.718 164.479 202.47 163.694 203.163C162.36 204.339 161.267 204.288 158.711 202.93Z" fill="url(#linearGradient1)" stroke="url(#linearGradient2)" stroke-width="0.525354"/>
<linearGradient id="linearGradient1" x1="64.2535" y1="89.1905" x2="161.154" y2="200.626" gradientUnits="userSpaceOnUse">
<stop stop-color="#9B58DC"/>
<stop offset="1" stop-color="#321C92"/>
</linearGradient>
<linearGradient id="linearGradient2" x1="64.2535" y1="89.1905" x2="161.154" y2="200.626" gradientUnits="userSpaceOnUse">
<stop stop-color="#9B58DC"/>
<stop offset="1" stop-color="#321C92"/>
</linearGradient>
</svg>