<svg width="256" height="256" title="BeagleBoard" viewBox="0 0 256 256" fill="none" xmlns="http://www.w3.org/2000/svg" id="beagleboard">
<style>
#beagleboard {
    rect {fill: #15191C}

    @media (prefers-color-scheme: light) {
        rect {fill: #F4F2ED}
    }
}
</style>
<rect width="256" height="256" rx="40" fill="#15191C"/>
<path d="M60.4911 123.374C60.4609 123.134 60.4821 122.89 60.5534 122.659C60.6247 122.428 60.7444 122.214 60.9045 122.032C61.0647 121.851 61.2616 121.705 61.4823 121.606C61.703 121.506 61.9423 121.455 62.1844 121.455C62.4265 121.455 62.6658 121.506 62.8865 121.606C63.1072 121.705 63.3041 121.851 63.4643 122.032C63.6244 122.214 63.7441 122.428 63.8154 122.659C63.8867 122.89 63.908 123.134 63.8778 123.374V127.988C64.7728 127.223 65.9137 126.806 67.0911 126.814C70.7312 126.814 72.5445 130.214 72.5445 133.481C72.5445 136.748 70.3845 139.841 66.9711 139.841C66.3679 139.859 65.7696 139.727 65.2298 139.457C64.69 139.187 64.2255 138.788 63.8778 138.295C63.8372 138.706 63.6403 139.086 63.3277 139.356C63.0151 139.627 62.6106 139.767 62.1977 139.748C61.96 139.745 61.7254 139.693 61.5087 139.595C61.2921 139.498 61.098 139.356 60.9389 139.179C60.7798 139.002 60.659 138.795 60.5842 138.569C60.5094 138.343 60.4823 138.105 60.5044 137.868L60.4911 123.374ZM66.5311 136.708C68.2912 136.708 69.1978 134.868 69.1978 133.294C69.1978 131.721 68.3312 129.841 66.5311 129.841C64.7311 129.841 63.8644 131.534 63.8644 133.174C63.8644 134.814 64.6778 136.788 66.5311 136.788V136.708Z" fill="#A97F2C" stroke="#231F20" stroke-width="0.614478"/>
<path d="M76.358 134.481C76.4736 135.217 76.8672 135.88 77.4577 136.334C78.0482 136.789 78.7905 136.999 79.5314 136.921C81.2781 136.921 82.4647 135.588 83.3581 135.588C83.7179 135.629 84.0507 135.799 84.2956 136.066C84.5405 136.333 84.681 136.679 84.6914 137.041C84.6914 138.508 81.6914 139.908 79.1714 139.908C78.3178 139.93 77.4689 139.774 76.6787 139.45C75.8885 139.127 75.1743 138.642 74.5812 138.028C73.9882 137.414 73.5293 136.683 73.2338 135.882C72.9383 135.081 72.8126 134.227 72.8646 133.374C72.7899 132.55 72.8843 131.719 73.142 130.932C73.3998 130.146 73.8155 129.42 74.3637 128.799C74.9119 128.179 75.581 127.677 76.33 127.325C77.079 126.972 77.8921 126.776 78.7195 126.749C79.5469 126.721 80.3712 126.863 81.1418 127.166C81.9124 127.468 82.6131 127.925 83.2009 128.508C83.7888 129.091 84.2514 129.788 84.5604 130.556C84.8695 131.324 85.0184 132.147 84.9981 132.974C84.9981 133.988 84.5581 134.481 83.5181 134.481H76.358ZM81.6914 132.228C81.6706 131.534 81.3805 130.877 80.8826 130.394C80.3847 129.911 79.7183 129.641 79.0247 129.641C78.3311 129.641 77.6647 129.911 77.1668 130.394C76.6689 130.877 76.3788 131.534 76.358 132.228H81.6914Z" fill="#A97F2C" stroke="#231F20" stroke-width="0.614478"/>
<path d="M97.5716 137.535C97.5716 138.401 97.5716 139.748 95.9449 139.748C94.9582 139.748 94.6116 139.201 94.3182 138.308C93.9415 138.802 93.455 139.201 92.8973 139.474C92.3395 139.747 91.7259 139.886 91.1049 139.881C87.9315 139.881 85.5181 137.215 85.5181 133.374C85.5181 129.534 87.9982 126.828 91.1049 126.828C91.7253 126.809 92.3412 126.939 92.9005 127.208C93.4598 127.478 93.9461 127.878 94.3182 128.374C94.3675 127.98 94.5608 127.617 94.861 127.356C95.1612 127.095 95.5472 126.955 95.9449 126.961C97.5716 126.961 97.5716 128.294 97.5716 129.174V137.535ZM91.5315 136.788C93.2916 136.788 94.1982 135.001 94.1982 133.374C94.1982 131.748 93.3716 129.921 91.5315 129.921C89.6915 129.921 88.8648 131.761 88.8648 133.374C88.8648 134.988 89.7448 136.788 91.5315 136.788Z" fill="#A97F2C" stroke="#231F20" stroke-width="0.614478"/>
<path d="M110.345 138.615C110.345 142.681 107.678 144.721 103.838 144.721C102.505 144.721 98.5049 144.041 98.5049 142.188C98.5339 141.829 98.6802 141.49 98.9211 141.222C99.1621 140.955 99.4844 140.774 99.8383 140.708C100.918 140.708 102.118 141.761 104.065 141.761C104.432 141.789 104.8 141.74 105.147 141.619C105.494 141.497 105.812 141.305 106.081 141.055C106.35 140.804 106.565 140.501 106.711 140.163C106.858 139.826 106.933 139.462 106.932 139.095V138.308C106.544 138.836 106.029 139.257 105.434 139.532C104.84 139.807 104.185 139.927 103.532 139.881C99.9849 139.881 98.3182 136.761 98.3182 133.401C98.3182 130.041 100.478 126.828 103.892 126.828C104.495 126.81 105.093 126.942 105.633 127.212C106.173 127.482 106.637 127.881 106.985 128.374C107.038 127.969 107.242 127.599 107.556 127.337C107.869 127.075 108.27 126.941 108.678 126.961C108.916 126.964 109.151 127.016 109.367 127.114C109.584 127.211 109.778 127.353 109.937 127.53C110.096 127.706 110.217 127.914 110.292 128.14C110.367 128.366 110.394 128.604 110.372 128.841L110.345 138.615ZM104.305 129.921C102.545 129.921 101.638 131.761 101.638 133.334C101.638 135.134 102.505 136.788 104.305 136.788C106.105 136.788 106.972 135.094 106.972 133.454C106.972 131.814 106.198 129.921 104.305 129.921Z" fill="#A97F2C" stroke="#231F20" stroke-width="0.614478"/>
<path d="M111.412 123.374C111.391 123.14 111.419 122.904 111.494 122.682C111.57 122.459 111.69 122.255 111.849 122.081C112.008 121.908 112.201 121.769 112.416 121.675C112.631 121.58 112.863 121.531 113.098 121.531C113.333 121.531 113.566 121.58 113.781 121.675C113.996 121.769 114.189 121.908 114.348 122.081C114.506 122.255 114.627 122.459 114.703 122.682C114.778 122.904 114.806 123.14 114.785 123.374V137.868C114.806 138.102 114.778 138.338 114.703 138.561C114.627 138.783 114.506 138.988 114.348 139.161C114.189 139.335 113.996 139.473 113.781 139.568C113.566 139.662 113.333 139.711 113.098 139.711C112.863 139.711 112.631 139.662 112.416 139.568C112.201 139.473 112.008 139.335 111.849 139.161C111.69 138.988 111.57 138.783 111.494 138.561C111.419 138.338 111.391 138.102 111.412 137.868V123.374Z" fill="#A97F2C" stroke="#231F20" stroke-width="0.614478"/>
<path d="M119.159 134.481C119.28 135.219 119.679 135.883 120.274 136.336C120.869 136.79 121.615 136.999 122.359 136.921C124.092 136.921 125.292 135.588 126.185 135.588C126.545 135.629 126.878 135.799 127.123 136.066C127.368 136.333 127.508 136.679 127.519 137.041C127.519 138.508 124.505 139.908 121.999 139.908C121.144 139.935 120.293 139.784 119.5 139.465C118.707 139.145 117.989 138.664 117.392 138.052C116.795 137.44 116.332 136.711 116.033 135.91C115.733 135.109 115.603 134.255 115.652 133.401C115.598 132.587 115.708 131.771 115.976 131.001C116.244 130.231 116.664 129.522 117.212 128.918C117.759 128.313 118.422 127.825 119.162 127.482C119.902 127.139 120.703 126.949 121.518 126.922C122.334 126.895 123.146 127.032 123.907 127.326C124.667 127.619 125.361 128.063 125.947 128.63C126.533 129.197 126.999 129.877 127.317 130.627C127.635 131.378 127.799 132.186 127.799 133.001C127.799 134.014 127.345 134.508 126.319 134.508L119.159 134.481ZM124.492 132.228C124.471 131.534 124.181 130.877 123.683 130.394C123.185 129.911 122.519 129.641 121.825 129.641C121.132 129.641 120.465 129.911 119.967 130.394C119.469 130.877 119.179 131.534 119.159 132.228H124.492Z" fill="#A97F2C" stroke="#231F20" stroke-width="0.614478"/>
<path d="M129.172 123.374C129.151 123.14 129.179 122.904 129.255 122.682C129.33 122.459 129.451 122.255 129.609 122.081C129.768 121.908 129.961 121.769 130.176 121.675C130.391 121.58 130.624 121.531 130.859 121.531C131.094 121.531 131.326 121.58 131.541 121.675C131.756 121.769 131.949 121.908 132.108 122.081C132.267 122.255 132.387 122.459 132.463 122.682C132.538 122.904 132.566 123.14 132.545 123.374V127.988C133.446 127.223 134.591 126.807 135.772 126.814C139.412 126.814 141.212 130.214 141.212 133.481C141.212 136.748 139.052 139.841 135.652 139.841C135.047 139.858 134.447 139.725 133.906 139.456C133.364 139.186 132.897 138.787 132.545 138.295C132.495 138.701 132.292 139.073 131.978 139.336C131.663 139.598 131.261 139.731 130.852 139.708C130.615 139.705 130.381 139.654 130.165 139.556C129.949 139.457 129.755 139.315 129.597 139.139C129.439 138.962 129.32 138.754 129.246 138.528C129.173 138.302 129.148 138.064 129.172 137.828V123.374ZM135.199 136.708C136.972 136.708 137.865 134.868 137.865 133.295C137.865 131.721 136.999 129.841 135.199 129.841C133.399 129.841 132.532 131.534 132.532 133.175C132.532 134.815 133.345 136.788 135.199 136.788V136.708Z" fill="#F26322" stroke="#231F20" stroke-width="0.614478"/>
<path d="M154.039 133.374C154.107 134.212 154.001 135.054 153.727 135.848C153.454 136.642 153.018 137.371 152.449 137.989C151.88 138.606 151.188 139.099 150.419 139.436C149.65 139.773 148.819 139.947 147.979 139.947C147.139 139.947 146.308 139.773 145.539 139.436C144.769 139.099 144.078 138.606 143.509 137.989C142.939 137.371 142.504 136.642 142.23 135.848C141.957 135.054 141.851 134.212 141.919 133.374C141.851 132.537 141.957 131.695 142.23 130.901C142.504 130.107 142.939 129.378 143.509 128.76C144.078 128.143 144.769 127.65 145.539 127.313C146.308 126.976 147.139 126.802 147.979 126.802C148.819 126.802 149.65 126.976 150.419 127.313C151.188 127.65 151.88 128.143 152.449 128.76C153.018 129.378 153.454 130.107 153.727 130.901C154.001 131.695 154.107 132.537 154.039 133.374ZM145.305 133.374C145.305 135.001 146.145 136.788 147.972 136.788C149.799 136.788 150.639 135.001 150.639 133.374C150.639 131.748 149.812 129.921 147.972 129.921C146.132 129.921 145.305 131.761 145.305 133.374Z" fill="#F26322" stroke="#231F20" stroke-width="0.614478"/>
<path d="M166.799 137.535C166.799 138.401 166.799 139.748 165.186 139.748C164.199 139.748 163.852 139.201 163.559 138.308C163.182 138.802 162.696 139.201 162.138 139.474C161.58 139.747 160.967 139.886 160.346 139.881C157.172 139.881 154.746 137.215 154.746 133.374C154.746 129.534 157.239 126.828 160.346 126.828C160.962 126.813 161.572 126.946 162.127 127.215C162.681 127.484 163.163 127.881 163.532 128.374C163.582 127.98 163.775 127.617 164.075 127.356C164.375 127.096 164.761 126.955 165.159 126.961C166.772 126.961 166.772 128.294 166.772 129.174L166.799 137.535ZM160.866 136.788C162.626 136.788 163.532 135.001 163.532 133.374C163.532 131.748 162.719 129.921 160.866 129.921C159.012 129.921 158.199 131.761 158.199 133.374C158.199 134.988 158.972 136.788 160.866 136.788Z" fill="#F26322" stroke="#231F20" stroke-width="0.614478"/>
<path d="M167.746 128.708C167.742 128.481 167.784 128.256 167.871 128.046C167.957 127.836 168.085 127.646 168.248 127.488C168.41 127.329 168.603 127.205 168.814 127.124C169.026 127.043 169.252 127.005 169.479 127.014C170.372 127.014 171.132 127.348 171.132 128.428C171.361 127.998 171.703 127.639 172.122 127.39C172.54 127.141 173.019 127.011 173.506 127.014C173.737 127.013 173.965 127.061 174.176 127.154C174.387 127.247 174.577 127.383 174.731 127.554C174.886 127.725 175.003 127.927 175.075 128.147C175.146 128.366 175.17 128.598 175.146 128.828C175.146 129.934 174.146 130.001 173.132 130.468C172.119 130.934 171.132 131.374 171.132 132.708V137.908C171.163 138.148 171.141 138.392 171.07 138.623C170.999 138.855 170.879 139.068 170.719 139.25C170.559 139.431 170.362 139.577 170.141 139.676C169.921 139.776 169.681 139.827 169.439 139.827C169.197 139.827 168.958 139.776 168.737 139.676C168.516 139.577 168.319 139.431 168.159 139.25C167.999 139.068 167.879 138.855 167.808 138.623C167.737 138.392 167.716 138.148 167.746 137.908V128.708Z" fill="#F26322" stroke="#231F20" stroke-width="0.614478"/>
<path d="M186.986 137.868C187.008 138.105 186.981 138.343 186.906 138.569C186.831 138.795 186.711 139.002 186.551 139.179C186.392 139.356 186.198 139.498 185.982 139.595C185.765 139.693 185.53 139.745 185.293 139.748C184.884 139.771 184.481 139.638 184.167 139.376C183.852 139.113 183.649 138.741 183.599 138.335C183.249 138.829 182.783 139.229 182.24 139.499C181.698 139.769 181.098 139.9 180.493 139.881C177.093 139.881 174.932 136.708 174.932 133.521C174.932 130.334 176.746 126.854 180.386 126.854C181.563 126.846 182.704 127.263 183.599 128.028V123.374C183.569 123.134 183.59 122.89 183.662 122.659C183.733 122.428 183.853 122.214 184.013 122.032C184.173 121.851 184.37 121.705 184.591 121.606C184.811 121.506 185.051 121.455 185.293 121.455C185.535 121.455 185.774 121.506 185.995 121.606C186.215 121.705 186.412 121.851 186.572 122.032C186.733 122.214 186.852 122.428 186.924 122.659C186.995 122.89 187.016 123.134 186.986 123.374V137.868ZM180.946 129.868C179.186 129.868 178.279 131.721 178.279 133.321C178.279 134.921 179.146 136.735 180.946 136.735C182.746 136.735 183.613 134.854 183.613 133.201C183.613 131.548 182.759 129.921 180.946 129.921V129.868Z" fill="#F26322" stroke="#231F20" stroke-width="0.614478"/>
<path d="M190.279 136.215C190.644 136.215 191 136.323 191.303 136.526C191.606 136.728 191.842 137.017 191.981 137.353C192.119 137.69 192.155 138.061 192.083 138.418C192.011 138.776 191.834 139.104 191.576 139.36C191.317 139.617 190.988 139.791 190.63 139.861C190.272 139.93 189.902 139.892 189.566 139.751C189.23 139.609 188.943 139.371 188.743 139.067C188.542 138.763 188.437 138.406 188.439 138.041C188.443 137.556 188.638 137.091 188.983 136.749C189.328 136.407 189.794 136.214 190.279 136.215Z" fill="#F26322" stroke="#231F20" stroke-width="0.614478"/>
<path d="M204.613 133.374C204.681 134.212 204.575 135.054 204.301 135.848C204.028 136.642 203.592 137.371 203.023 137.989C202.454 138.606 201.762 139.099 200.993 139.436C200.224 139.773 199.393 139.947 198.553 139.947C197.713 139.947 196.882 139.773 196.113 139.436C195.343 139.099 194.652 138.606 194.083 137.989C193.513 137.371 193.078 136.642 192.804 135.848C192.531 135.054 192.425 134.212 192.493 133.374C192.425 132.537 192.531 131.695 192.804 130.901C193.078 130.107 193.513 129.378 194.083 128.76C194.652 128.143 195.343 127.65 196.113 127.313C196.882 126.976 197.713 126.802 198.553 126.802C199.393 126.802 200.224 126.976 200.993 127.313C201.762 127.65 202.454 128.143 203.023 128.76C203.592 129.378 204.028 130.107 204.301 130.901C204.575 131.695 204.681 132.537 204.613 133.374ZM195.866 133.374C195.866 135.001 196.719 136.788 198.533 136.788C200.346 136.788 201.2 135.001 201.2 133.374C201.2 131.748 200.373 129.921 198.533 129.921C196.693 129.921 195.866 131.761 195.866 133.374Z" fill="#F26322" stroke="#231F20" stroke-width="0.614478"/>
<path d="M205.413 128.708C205.409 128.481 205.452 128.256 205.538 128.046C205.624 127.836 205.752 127.646 205.915 127.488C206.077 127.329 206.27 127.205 206.482 127.124C206.693 127.043 206.92 127.005 207.146 127.014C208.04 127.014 208.786 127.348 208.786 128.428C209.015 127.998 209.357 127.639 209.776 127.39C210.194 127.141 210.673 127.011 211.16 127.014C211.391 127.004 211.622 127.043 211.837 127.129C212.052 127.215 212.247 127.345 212.408 127.511C212.569 127.677 212.694 127.876 212.773 128.094C212.852 128.311 212.883 128.543 212.866 128.774C212.866 129.881 211.866 129.948 210.853 130.414C209.84 130.881 208.8 131.334 208.8 132.668V137.868C208.82 138.102 208.792 138.338 208.717 138.561C208.642 138.783 208.521 138.988 208.362 139.161C208.204 139.334 208.011 139.473 207.795 139.568C207.58 139.662 207.348 139.711 207.113 139.711C206.878 139.711 206.645 139.662 206.43 139.568C206.215 139.473 206.022 139.334 205.864 139.161C205.705 138.988 205.584 138.783 205.509 138.561C205.434 138.338 205.405 138.102 205.426 137.868L205.413 128.708Z" fill="#F26322" stroke="#231F20" stroke-width="0.614478"/>
<path d="M224.72 138.615C224.72 142.681 222.053 144.721 218.213 144.721C216.88 144.721 212.88 144.041 212.88 142.188C212.908 141.831 213.052 141.493 213.291 141.226C213.529 140.959 213.848 140.777 214.2 140.708C215.28 140.708 216.48 141.761 218.426 141.761C218.793 141.789 219.161 141.74 219.508 141.619C219.855 141.497 220.174 141.305 220.443 141.055C220.712 140.804 220.926 140.501 221.073 140.163C221.219 139.826 221.294 139.462 221.293 139.095V138.308C220.906 138.84 220.389 139.265 219.792 139.543C219.195 139.82 218.537 139.941 217.88 139.895C214.333 139.895 212.666 136.775 212.666 133.414C212.666 130.054 214.826 126.841 218.24 126.841C218.843 126.823 219.441 126.955 219.981 127.225C220.521 127.495 220.985 127.894 221.333 128.388C221.386 127.983 221.59 127.612 221.904 127.35C222.217 127.088 222.618 126.954 223.026 126.974C223.264 126.977 223.499 127.029 223.716 127.127C223.932 127.225 224.126 127.367 224.285 127.543C224.444 127.72 224.565 127.928 224.64 128.153C224.715 128.379 224.742 128.618 224.72 128.854V138.615ZM218.68 129.921C216.92 129.921 216.013 131.761 216.013 133.334C216.013 135.134 216.88 136.788 218.68 136.788C220.48 136.788 221.346 135.094 221.346 133.454C221.346 131.814 220.533 129.921 218.68 129.921Z" fill="#F26322" stroke="#231F20" stroke-width="0.614478"/>
<path d="M55.1044 123.881C55.7444 120.414 52.771 117.641 48.251 116.094C47.0243 111.788 44.2509 109.241 40.2509 109.241C39.1847 109.219 38.1254 109.415 37.1374 109.816C36.1494 110.217 35.2534 110.816 34.5041 111.574C31.5307 111.761 31.5307 115.294 28.864 120.334C26.824 124.334 28.424 128.334 33.3708 129.001C32.5878 130.887 32.1758 132.906 32.1574 134.948C29.6507 132.081 30.3441 129.108 28.9441 129.188C27.184 129.281 29.4241 135.508 32.5441 138.975C32.6611 139.562 32.817 140.141 33.0108 140.708C32.4056 140.908 31.8723 141.282 31.4766 141.782C31.0809 142.281 30.8402 142.886 30.7841 143.521C30.7841 145.001 31.7974 145.148 33.1174 145.161C33.0756 145.332 33.0533 145.506 33.0508 145.681C33.044 145.873 33.0827 146.064 33.1638 146.237C33.245 146.411 33.3661 146.563 33.5174 146.681C33.953 146.965 34.4646 147.109 34.9841 147.095H35.2775C36.3397 147.141 37.3811 146.789 38.1975 146.108C38.4574 145.881 38.6675 145.603 38.8144 145.291C38.9613 144.979 39.0418 144.639 39.0508 144.295C39.0656 144.153 39.0656 144.01 39.0508 143.868C39.0464 143.788 39.0464 143.708 39.0508 143.628C40.1731 143.528 41.302 143.528 42.4242 143.628C42.4292 143.717 42.4292 143.806 42.4242 143.895C42.4104 144.023 42.4104 144.153 42.4242 144.281C42.4236 144.609 42.4881 144.933 42.614 145.235C42.7399 145.537 42.9247 145.811 43.1576 146.041C44.0142 146.722 45.0917 147.064 46.1843 147.001H46.4776C46.981 147.017 47.4777 146.883 47.9043 146.615C48.0535 146.501 48.1736 146.353 48.2547 146.184C48.3358 146.015 48.3757 145.829 48.371 145.641C48.3715 145.447 48.3446 145.254 48.291 145.068C49.6243 145.068 50.6777 144.935 50.6777 143.428C50.6044 142.809 50.3559 142.225 49.9614 141.743C49.5668 141.261 49.0428 140.902 48.451 140.708C49.6015 137.102 49.5312 133.217 48.251 129.654H48.171C49.4061 129.409 50.5914 128.958 51.6777 128.321C52.1177 129.028 52.5443 129.721 53.571 129.574C55.091 129.361 55.7444 127.068 54.4244 125.721C54.7629 125.155 54.9934 124.531 55.1044 123.881Z" fill="white" stroke="#231F20" stroke-width="0.70226"/>
<path d="M55.3311 123.654C55.9711 120.188 52.9977 117.414 48.4776 115.868C47.2643 111.561 44.4776 109.001 40.4775 109.001C39.4087 108.985 38.3478 109.188 37.3597 109.596C36.3717 110.004 35.4772 110.609 34.7308 111.374C31.7308 111.561 31.7174 115.081 29.1041 120.121C27.0507 124.121 28.6641 128.121 33.5975 128.801C32.8204 130.684 32.413 132.698 32.3974 134.734C29.8907 131.868 30.5707 128.908 29.1707 128.974C27.424 129.081 29.6641 135.294 32.7841 138.775C32.907 139.342 33.0583 139.902 33.2374 140.455C32.6333 140.653 32.1004 141.023 31.7047 141.521C31.309 142.019 31.0677 142.621 31.0108 143.255C31.0108 144.748 32.0374 144.881 33.3574 144.895C33.338 145.067 33.338 145.242 33.3574 145.415C33.3474 145.609 33.3846 145.802 33.4659 145.979C33.5472 146.155 33.6701 146.309 33.8241 146.428C34.2605 146.708 34.7725 146.848 35.2908 146.828H35.5308C36.6012 146.894 37.6576 146.557 38.4908 145.881C38.749 145.654 38.957 145.375 39.1016 145.063C39.2462 144.751 39.3243 144.412 39.3309 144.068C39.3446 143.926 39.3446 143.783 39.3309 143.641C39.3309 143.641 39.3309 143.508 39.3309 143.401C40.4578 143.308 41.5906 143.308 42.7176 143.401C42.7228 143.486 42.7228 143.57 42.7176 143.655C42.6974 143.787 42.6974 143.922 42.7176 144.055C42.7306 144.405 42.8168 144.748 42.9707 145.063C43.1246 145.377 43.3427 145.656 43.6109 145.881C44.4664 146.565 45.5447 146.907 46.6376 146.841H46.9176C47.4253 146.857 47.9263 146.723 48.3576 146.455C48.506 146.34 48.6255 146.192 48.7066 146.023C48.7876 145.854 48.8279 145.669 48.8243 145.481C48.8117 145.288 48.7805 145.096 48.731 144.908C50.0643 144.908 51.131 144.775 51.131 143.268C51.0741 142.635 50.8328 142.032 50.4371 141.534C50.0413 141.037 49.5085 140.666 48.9043 140.468C50.042 136.855 49.9718 132.97 48.7043 129.401H48.6243C49.8559 129.143 51.0392 128.693 52.131 128.068C52.571 128.774 52.9977 129.468 54.011 129.321C55.5444 129.094 56.1844 126.814 54.8777 125.468C55.1326 124.894 55.286 124.28 55.3311 123.654Z" fill="white" stroke="#231F20" stroke-width="0.438913"/>
<path d="M48.691 140.428C49.1577 140.188 51.0244 141.121 50.9177 143.228C50.811 145.335 48.251 144.868 48.251 144.868L47.0776 142.201C47.0776 142.201 46.611 137.055 46.731 134.361C46.7428 132.673 46.1138 131.044 44.9709 129.801C45.5899 129.72 46.2134 129.68 46.8376 129.681C47.4116 129.697 47.9829 129.597 48.5177 129.388C48.5177 129.388 49.4243 130.508 49.531 134.241C49.6377 137.975 48.2243 140.708 48.691 140.428Z" fill="#A97F2C"/>
<path d="M46.1176 111.374C47.1596 112.84 48.0151 114.43 48.6643 116.108C47.3184 115.988 46.0249 115.529 44.9042 114.774C44.2509 114.188 41.2242 109.188 41.2242 109.188C43.0148 109.488 44.6991 110.241 46.1176 111.374Z" fill="#A97F2C"/>
<path d="M40.4775 109.001C40.4775 109.001 44.1176 114.481 44.0776 116.454C44.0109 119.374 38.9842 118.668 42.1976 126.614C43.0242 128.601 41.1442 130.241 38.4509 129.774C37.2242 129.561 34.9441 130.121 34.9441 133.774C34.9441 137.428 34.7041 142.201 34.7041 142.201L33.6508 144.868C33.6508 144.868 31.0774 145.228 31.0774 143.708C31.0774 142.188 31.7841 141.708 32.8375 140.895C33.8908 140.081 32.7308 138.748 32.7308 138.748C31.3549 136.824 30.1163 134.806 29.0241 132.708C28.9041 131.894 30.3574 130.841 30.3574 130.841C30.9535 132.173 31.6349 133.464 32.3974 134.708C32.7708 135.041 32.6508 130.121 33.3575 129.374C34.0641 128.628 34.4108 111.694 34.4108 111.694C34.4108 111.694 34.9708 109.761 40.4775 109.001Z" fill="#A97F2C"/>
<path d="M39.5309 123.574C34.8108 124.414 32.4641 129.508 32.3708 134.708C29.8641 131.841 30.5441 128.881 29.1441 128.948C27.3974 129.054 29.6374 135.268 32.7575 138.748C32.8804 139.315 33.0317 139.876 33.2108 140.428C32.6067 140.626 32.0738 140.997 31.6781 141.494C31.2823 141.992 31.0411 142.595 30.9841 143.228C30.9841 144.855 32.1975 144.868 33.6508 144.868C34.0021 144.869 34.3499 144.799 34.6732 144.661C34.9964 144.524 35.2882 144.322 35.5308 144.068C39.065 143.061 42.8101 143.061 46.3443 144.068C46.5838 144.319 46.8713 144.519 47.1897 144.656C47.5081 144.794 47.8509 144.866 48.1977 144.868C49.6777 144.868 50.8644 144.868 50.8644 143.228C50.8074 142.595 50.5662 141.992 50.1704 141.494C49.7747 140.997 49.2418 140.626 48.6377 140.428C49.7754 136.815 49.7052 132.93 48.4377 129.361" stroke="#231F20" stroke-width="0.438913"/>
<path d="M35.1174 133.281C35.1174 133.281 34.9974 140.895 34.7574 142.175C34.5174 143.455 31.9574 146.388 35.2241 146.508C38.4908 146.628 39.2241 144.641 38.9708 143.708C38.7175 142.775 38.5041 135.708 38.5041 135.708" fill="white"/>
<path d="M35.5308 146.801H35.2242C34.7058 146.821 34.1939 146.682 33.7575 146.401C33.6034 146.283 33.4805 146.129 33.3992 145.952C33.3179 145.776 33.2807 145.582 33.2908 145.388C33.3477 144.755 33.5386 144.141 33.8508 143.588C34.108 143.121 34.318 142.63 34.4775 142.121C34.5585 141.493 34.6074 140.861 34.6241 140.228C34.6241 139.348 34.7042 138.268 34.7308 137.241C34.7308 135.174 34.8242 135.734 34.8242 134.868C34.8314 134.326 34.9306 133.79 35.1175 133.281C35.328 133.788 35.428 134.333 35.4108 134.881C35.4108 135.628 35.4108 137.548 35.2108 140.215C35.2108 141.108 35.1175 141.815 35.0508 142.175C34.8847 142.734 34.6613 143.275 34.3841 143.788C34.1071 144.262 33.9343 144.789 33.8775 145.335C33.8663 145.439 33.8825 145.544 33.9247 145.64C33.9668 145.736 34.0332 145.819 34.1175 145.881C34.4518 146.091 34.8439 146.189 35.2375 146.161H35.5308C36.4549 146.23 37.3704 145.944 38.0909 145.361C38.2852 145.196 38.4434 144.992 38.5558 144.762C38.6682 144.533 38.7323 144.283 38.7442 144.028C38.7587 143.935 38.7587 143.841 38.7442 143.748C38.6341 143.184 38.5584 142.614 38.5175 142.041C38.4509 141.255 38.4109 140.281 38.3575 139.375C38.2775 137.495 38.3575 137.935 38.3575 137.175C38.3635 136.687 38.4352 136.203 38.5709 135.734C38.7976 136.248 38.9243 136.8 38.9442 137.361C38.9442 138.201 38.9442 136.708 38.9442 137.988C38.9442 139.321 39.0642 140.855 39.1442 141.988C39.1659 142.52 39.2238 143.05 39.3175 143.575C39.3313 143.716 39.3313 143.859 39.3175 144.001C39.311 144.345 39.2329 144.684 39.0883 144.996C38.9437 145.308 38.7357 145.587 38.4775 145.815C37.6556 146.506 36.6037 146.863 35.5308 146.815V146.801Z" fill="#231F20"/>
<path d="M46.7044 133.281C46.7044 133.281 46.811 140.895 47.051 142.175C47.291 143.455 49.9711 146.388 46.7044 146.508C43.4376 146.628 42.5976 144.641 42.8376 143.708C43.0776 142.775 43.3043 135.708 43.3043 135.708" fill="white"/>
<path d="M43.3976 145.855C43.1293 145.629 42.9112 145.351 42.7573 145.036C42.6035 144.721 42.5173 144.378 42.5042 144.028C42.4841 143.895 42.4841 143.761 42.5042 143.628C42.5042 143.455 42.6109 142.828 42.6642 142.041C42.6642 141.255 42.7709 140.295 42.8109 139.375C42.9042 137.495 42.9576 137.788 42.9576 137.108C42.9816 136.643 43.1043 136.188 43.3176 135.775C43.4598 136.205 43.5362 136.655 43.5442 137.108C43.5442 137.868 43.4109 139.708 43.2509 142.081C43.2248 142.649 43.1625 143.215 43.0642 143.775C43.0562 143.859 43.0562 143.944 43.0642 144.028C43.0827 144.286 43.1537 144.537 43.2729 144.766C43.3922 144.996 43.5571 145.198 43.7576 145.361C44.5156 145.952 45.4654 146.242 46.4243 146.175H46.6909C47.0738 146.197 47.4547 146.104 47.7843 145.908C47.8634 145.85 47.9268 145.774 47.9687 145.685C48.0106 145.597 48.0298 145.499 48.0243 145.401C47.9587 144.863 47.7913 144.343 47.531 143.868C47.2303 143.35 46.9888 142.8 46.8109 142.228C46.8109 141.868 46.7043 141.161 46.6643 140.255C46.6643 139.361 46.5843 138.295 46.5443 137.255C46.5443 135.188 46.4643 134.961 46.4643 134.228C46.4698 133.737 46.5054 133.247 46.5709 132.761C46.8303 133.212 46.9937 133.711 47.0509 134.228C47.0509 134.868 47.0509 134.348 47.0509 135.748C47.0509 137.161 47.1309 138.895 47.1976 140.228C47.1976 141.121 47.3043 141.841 47.3576 142.121C47.5104 142.641 47.73 143.138 48.011 143.601C48.3395 144.166 48.5483 144.792 48.6243 145.441C48.6279 145.629 48.5876 145.814 48.5066 145.983C48.4255 146.152 48.306 146.3 48.1576 146.415C47.7263 146.683 47.2253 146.817 46.7176 146.801H46.4376C45.3447 146.867 44.2664 146.525 43.4109 145.841L43.3976 145.855Z" fill="#231F20"/>
<path d="M42.3976 129.321C48.7577 130.481 54.5444 127.988 55.3311 123.654C55.9711 120.188 52.9977 117.414 48.4777 115.868C47.2643 111.561 44.4776 109.001 40.4776 109.001C36.4775 109.001 33.1841 111.668 33.1841 115.081" stroke="#231F20" stroke-width="0.438913"/>
<path d="M55.6643 120.388C55.6972 121.014 55.482 121.629 55.0653 122.098C54.6485 122.567 54.0638 122.853 53.4376 122.894C52.8314 123.06 52.1842 122.983 51.6339 122.679C51.0836 122.376 50.6735 121.869 50.4909 121.268C50.4651 120.641 50.6845 120.028 51.1027 119.56C51.5209 119.092 52.105 118.806 52.731 118.761C53.3356 118.592 53.9825 118.668 54.5316 118.972C55.0807 119.277 55.4876 119.785 55.6643 120.388Z" fill="#231F20" stroke="#231F20" stroke-width="0.35113"/>
<path d="M39.5309 120.028C42.0909 126.814 38.1975 128.854 34.9308 128.854C28.9174 128.854 26.824 124.388 29.0507 120.094C31.7841 114.921 31.7308 111.374 34.9841 111.374C38.2375 111.374 37.8775 115.508 39.5309 120.028Z" fill="#A97F2C"/>
<path d="M39.5309 120.028C42.0909 126.814 38.1975 128.854 34.9308 128.854C28.9174 128.854 26.824 124.388 29.0507 120.094C31.7841 114.921 31.7308 111.374 34.9841 111.374C38.2375 111.374 37.8775 115.508 39.5309 120.028Z" stroke="black" stroke-width="0.438913"/>
<path d="M54.5977 119.148C54.7043 119.428 54.0377 119.961 53.1043 120.308C52.171 120.654 51.3176 120.721 51.211 120.428C51.1043 120.134 51.771 119.614 52.7043 119.268C53.6377 118.921 54.491 118.854 54.5977 119.148Z" fill="white"/>
<path d="M40.8776 116.388C41.636 116.388 42.2509 115.97 42.2509 115.454C42.2509 114.939 41.636 114.521 40.8776 114.521C40.1191 114.521 39.5042 114.939 39.5042 115.454C39.5042 115.97 40.1191 116.388 40.8776 116.388Z" fill="#231F20" stroke="#231F20" stroke-width="0.35113"/>
<path d="M48.1977 114.508C48.2047 114.646 48.1812 114.784 48.1289 114.913C48.0766 115.041 47.9968 115.156 47.8951 115.25C47.7933 115.344 47.6722 115.415 47.5401 115.457C47.4081 115.499 47.2685 115.512 47.131 115.494C46.3843 115.494 45.7977 115.054 45.7977 114.508C45.7977 113.961 46.411 113.521 47.131 113.521C47.2685 113.503 47.4081 113.516 47.5401 113.558C47.6722 113.6 47.7933 113.671 47.8951 113.765C47.9968 113.859 48.0766 113.974 48.1289 114.103C48.1812 114.231 48.2047 114.369 48.1977 114.508Z" fill="#231F20"/>
<path d="M40.7842 115.028C40.7709 115.129 40.7192 115.221 40.6399 115.286C40.5605 115.35 40.4595 115.382 40.3575 115.374C40.2521 115.382 40.1477 115.349 40.0658 115.282C39.984 115.215 39.9309 115.119 39.9175 115.014C39.934 114.912 39.9883 114.819 40.0699 114.755C40.1514 114.691 40.2541 114.66 40.3575 114.668C40.4616 114.66 40.5644 114.694 40.6441 114.761C40.7238 114.828 40.7741 114.924 40.7842 115.028Z" fill="white"/>
<path d="M46.9443 114.254C46.9342 114.345 46.89 114.428 46.8207 114.488C46.7514 114.547 46.6621 114.578 46.5709 114.574C46.486 114.574 46.4047 114.541 46.3446 114.481C46.2846 114.421 46.2509 114.339 46.2509 114.254C46.2509 114.169 46.2846 114.088 46.3446 114.028C46.4047 113.968 46.486 113.934 46.5709 113.934C46.6621 113.93 46.7514 113.961 46.8207 114.021C46.89 114.08 46.9342 114.164 46.9443 114.254Z" fill="white"/>
<path d="M46.4376 128.254C50.3043 129.454 55.1177 128.254 55.2911 123.374C55.2911 123.374 55.3844 122.321 55.1311 122.828C53.9577 125.094 51.2243 126.108 46.8776 126.668C46.2643 126.748 44.9576 126.748 44.8776 127.321C44.8643 127.641 45.2376 127.881 46.4376 128.254Z" fill="#231F20"/>
<path d="M54.091 124.988C55.8643 126.174 55.4243 128.814 53.7709 129.134C52.1176 129.454 51.8909 127.041 50.3442 126.748C51.1626 126.597 51.9626 126.36 52.7309 126.041C53.2365 125.763 53.6954 125.408 54.091 124.988Z" fill="#F26322" stroke="#231F20" stroke-width="0.438913"/>
<path d="M52.8644 126.188C53.2652 126.455 53.5957 126.816 53.8278 127.238C54.0599 127.66 54.1868 128.133 54.1977 128.614C54.0397 128.122 53.8296 127.649 53.5711 127.201C53.4111 126.828 52.8644 126.188 52.8644 126.188Z" fill="#A74624"/>
<path d="M39.3442 122.414C39.3442 122.414 40.5709 128.548 33.0241 127.494C34.3613 126.835 35.6452 126.073 36.8642 125.214C37.7739 124.358 38.604 123.421 39.3442 122.414Z" fill="#886327"/>
<path d="M226.973 124.054C227.151 124.054 227.325 124.1 227.48 124.188C227.643 124.278 227.777 124.412 227.867 124.574C227.957 124.733 228.003 124.912 228 125.094C228.001 125.272 227.955 125.447 227.867 125.601C227.8 125.776 227.684 125.929 227.533 126.041C227.379 126.13 227.204 126.176 227.027 126.174C226.844 126.178 226.665 126.131 226.507 126.041C226.344 125.951 226.21 125.817 226.12 125.654C226.031 125.5 225.985 125.325 225.987 125.148C225.983 124.966 226.029 124.786 226.12 124.628C226.21 124.465 226.344 124.331 226.507 124.241C226.645 124.143 226.805 124.079 226.973 124.054ZM226.973 124.228C226.825 124.23 226.679 124.266 226.547 124.334C226.396 124.421 226.275 124.551 226.2 124.708C226.133 124.845 226.097 124.995 226.093 125.148C226.095 125.296 226.132 125.442 226.2 125.574C226.278 125.706 226.388 125.816 226.52 125.894C226.653 125.972 226.805 126.014 226.96 126.014C227.11 126.012 227.257 125.971 227.387 125.894C227.518 125.816 227.628 125.706 227.707 125.574C227.775 125.442 227.811 125.296 227.813 125.148C227.81 124.995 227.773 124.845 227.707 124.708C227.627 124.572 227.512 124.462 227.373 124.388C227.254 124.304 227.117 124.25 226.973 124.228ZM226.507 125.668V124.548H226.893H227.173C227.233 124.572 227.284 124.614 227.32 124.668C227.341 124.719 227.341 124.776 227.32 124.828C227.321 124.868 227.313 124.908 227.296 124.945C227.28 124.981 227.257 125.014 227.227 125.041C227.197 125.071 227.161 125.094 227.123 125.11C227.084 125.126 227.042 125.134 227 125.134L227.093 125.201C227.155 125.265 227.209 125.337 227.253 125.414L227.4 125.641H227.173L227.08 125.468C227.03 125.371 226.968 125.281 226.893 125.201C226.846 125.186 226.794 125.186 226.747 125.201H226.64V125.681L226.507 125.668ZM226.693 125.041H226.907C226.975 125.068 227.051 125.068 227.12 125.041C227.14 125.028 227.157 125.01 227.168 124.989C227.18 124.968 227.186 124.945 227.187 124.921C227.194 124.89 227.194 124.858 227.187 124.828H227.107H226.92H226.72L226.693 125.041Z" fill="#231F20"/>
</svg>