<svg width="256" height="256" title="BeefLang" viewBox="0 0 256 256" fill="none" xmlns="http://www.w3.org/2000/svg" id="beeflang">
<style>
#beeflang {
    rect {fill: #15191C}

    @media (prefers-color-scheme: light) {
        rect {fill: #F4F2ED}
    }
}
</style>
<rect width="256" height="256" rx="40" fill="#15191C"/>
<path d="M109.428 79.4055C103.507 77.9893 93.2904 74.685 83.8593 66.9223C77.5719 61.7297 73.7994 56.2749 73.0659 55.2259C70.6557 51.6593 69.0314 48.3549 67.9311 45.8373C67.512 44.7883 66.6213 44.0015 65.6781 44.0015C64.3683 43.9491 63.268 45.2603 63.006 47.0961C62.5868 50.4529 61.7485 65.716 69.765 78.7761C75.2141 87.6402 80.768 93.8818 84.75 97.1862C93.0284 91.2068 101.254 85.3324 109.428 79.4055ZM147.362 79.4055C153.283 77.9893 163.5 74.685 172.931 66.9223C179.219 61.7297 182.991 56.2749 183.725 55.2259C186.135 51.6593 187.759 48.3549 188.859 45.8373C189.278 44.7883 190.169 44.0015 191.112 44.0015C192.422 43.9491 193.522 45.2603 193.784 47.0961C194.204 50.4529 195.042 65.716 187.025 78.7761C181.576 87.6402 176.022 93.8818 172.04 97.1862C163.762 91.2068 155.588 85.3324 147.362 79.4055Z" fill="#B3B3B3"/>
<path d="M98.1108 97.1337C98.1108 106.994 92.6617 116.173 83.8593 121.104C75.0569 126.034 64.1063 126.034 55.3039 121.104C46.4491 116.173 41 106.994 41 97.1337H98.1108ZM216 97.1337C216 106.994 210.551 116.173 201.748 121.104C192.946 126.034 181.996 126.034 173.193 121.104C164.391 116.173 158.889 106.994 158.889 97.1337H216Z" fill="#444444"/>
<path d="M128.5 212C165.829 212 196.09 181.707 196.09 144.339C196.09 106.971 165.829 76.6781 128.5 76.6781C91.1712 76.6781 60.9102 106.971 60.9102 144.339C60.9102 181.707 91.1712 212 128.5 212Z" fill="white"/>
<path d="M159.413 161.123C178.222 161.123 193.47 145.507 193.47 126.244C193.47 106.98 178.222 91.3642 159.413 91.3642C140.604 91.3642 125.356 106.98 125.356 126.244C125.356 145.507 140.604 161.123 159.413 161.123Z" fill="#4D4D4D"/>
<path d="M128.5 204.132C155.99 204.132 178.275 188.751 178.275 169.777C178.275 150.804 155.99 135.422 128.5 135.422C101.01 135.422 78.7245 150.804 78.7245 169.777C78.7245 188.751 101.01 204.132 128.5 204.132Z" fill="#FFB5D2"/>
<path d="M103.35 177.907C107.401 177.907 110.686 174.62 110.686 170.564C110.686 166.509 107.401 163.221 103.35 163.221C99.2991 163.221 96.015 166.509 96.015 170.564C96.015 174.62 99.2991 177.907 103.35 177.907Z" fill="#DE719C"/>
<path d="M153.65 177.907C157.701 177.907 160.985 174.62 160.985 170.564C160.985 166.509 157.701 163.221 153.65 163.221C149.599 163.221 146.314 166.509 146.314 170.564C146.314 174.62 149.599 177.907 153.65 177.907Z" fill="#DE719C"/>
<path d="M91.0374 138.57C94.9439 138.57 98.1108 135.399 98.1108 131.489C98.1108 127.578 94.9439 124.408 91.0374 124.408C87.1309 124.408 83.9641 127.578 83.9641 131.489C83.9641 135.399 87.1309 138.57 91.0374 138.57Z" fill="#333333"/>
<path d="M165.963 138.57C169.869 138.57 173.036 135.399 173.036 131.489C173.036 127.578 169.869 124.408 165.963 124.408C162.056 124.408 158.889 127.578 158.889 131.489C158.889 135.399 162.056 138.57 165.963 138.57Z" fill="#333333"/>
</svg>