<svg width="256" height="256" title="Beekeeper Studio" viewBox="0 0 256 256" fill="none" xmlns="http://www.w3.org/2000/svg" id="beekeeperstudio">
<style>
#beekeeperstudio {
    rect {fill: #15191C}

    @media (prefers-color-scheme: light) {
        rect {fill: #F4F2ED}
    }
}
</style>
<rect width="256" height="256" rx="40" fill="#15191C"/>
<path d="M194.145 73.9063L141.614 43.7005C133.06 38.7665 122.578 38.7665 114.145 43.7005L100.41 51.6431V128.06C100.41 137.808 105.59 146.954 114.145 151.888C118.361 154.295 123.181 155.618 127.88 155.618C132.578 155.618 137.398 154.415 141.614 151.888C150.169 146.954 155.349 137.928 155.349 128.06C155.349 118.312 150.169 109.166 141.614 104.232C137.398 101.826 132.578 100.502 127.88 100.502V83.293C132.578 83.293 137.398 84.4964 141.614 87.0236L156.554 95.6882C165.108 100.622 170.289 109.648 170.289 119.516V136.725C170.289 146.472 165.108 155.618 156.554 160.552L141.614 169.217C137.398 171.624 132.578 172.948 127.88 172.948C123.181 172.948 118.361 171.744 114.145 169.217L99.2048 160.552C90.6506 155.618 85.4699 146.593 85.4699 136.725V60.1874L61.7349 73.9063C53.1807 78.8403 48 87.866 48 97.734V158.266C48 168.014 53.1807 177.16 61.7349 182.094L114.265 212.299C122.819 217.234 133.301 217.234 141.735 212.299L194.265 182.094C202.819 177.16 208 168.134 208 158.266V97.734C207.88 87.866 202.578 78.8403 194.145 73.9063ZM111.012 106.399C109.446 107.602 108.12 108.926 106.916 110.37V91.1152L111.012 88.7084V106.399ZM121.494 101.344C120.048 101.705 118.723 102.066 117.398 102.668V85.3388C118.723 84.7371 120.169 84.3761 121.494 84.015V101.344Z" fill="#FAD83B"/>
</svg>