<svg width="256" height="256" title="Bento" viewBox="0 0 256 256" fill="none" xmlns="http://www.w3.org/2000/svg" id="bento">
<style>
#bento {
    rect {fill: #15191C}

    @media (prefers-color-scheme: light) {
        rect {fill: #F4F2ED}
    }
}
</style>
<rect width="256" height="256" rx="40" fill="#15191C"/>
<path fill-rule="evenodd" clip-rule="evenodd" d="M57.3908 159.541C48.3397 152.458 43.8142 148.916 42.1186 144.832L41 139.269V116.478H46.7065V127.817C49.2039 125.475 52.6859 122.75 57.3908 119.068L102.642 83.6538C111.693 76.5704 116.219 73.0286 121.437 71.7016C126.028 70.5344 130.972 70.5344 135.562 71.7016C140.781 73.0286 145.307 76.5704 154.358 83.6538L199.609 119.068C204.314 122.75 207.796 125.475 210.293 127.817V116.478H216V139.304C216 141.17 215.627 143.036 214.881 144.832C213.185 148.916 208.66 152.458 199.609 159.541L154.358 194.955C145.307 202.038 140.781 205.58 135.562 206.907C130.972 208.074 126.028 208.074 121.437 206.907C116.219 205.58 111.693 202.038 102.642 194.955L57.3908 159.541Z" fill="#DBDBDB"/>
<path d="M57.3909 136.715C48.3398 129.631 43.8142 126.09 42.1186 122.005C40.6271 118.413 40.6271 114.543 42.1186 110.951C43.8142 106.867 48.3398 103.325 57.3909 96.2414L102.642 60.8276C111.693 53.7442 116.219 50.2024 121.437 48.8754C126.028 47.7082 130.972 47.7082 135.563 48.8754C140.781 50.2024 145.307 53.7442 154.358 60.8276L199.609 96.2414C208.66 103.325 213.185 106.867 214.881 110.951C216.373 114.543 216.373 118.413 214.881 122.005C213.185 126.09 208.66 129.631 199.609 136.715L154.358 172.129C145.307 179.212 140.781 182.754 135.563 184.081C130.972 185.248 126.028 185.248 121.437 184.081C116.219 182.754 111.693 179.212 102.642 172.129L57.3909 136.715Z" fill="white"/>
<path d="M109.107 92.8689C104.581 89.3272 102.318 87.5563 101.47 85.5142C100.725 83.718 100.725 81.7832 101.47 79.9869C102.318 77.9449 104.581 76.174 109.107 72.6323L115.571 67.5732C120.097 64.0314 122.359 62.2606 124.968 61.5971C127.264 61.0134 129.736 61.0134 132.031 61.5971C134.641 62.2606 136.903 64.0314 141.429 67.5732L147.893 72.6323C152.419 76.174 154.682 77.9449 155.529 79.9869C156.275 81.7832 156.275 83.718 155.529 85.5142C154.682 87.5563 152.419 89.3272 147.893 92.8689L141.429 97.9281C136.903 101.47 134.641 103.241 132.031 103.904C129.736 104.488 127.264 104.488 124.968 103.904C122.359 103.241 120.097 101.47 115.571 97.9281L109.107 92.8689Z" fill="#FF8686"/>
<path d="M152.203 126.597C147.677 123.055 145.415 121.284 144.567 119.242C143.821 117.446 143.821 115.511 144.567 113.715C145.415 111.673 147.677 109.902 152.203 106.36L158.667 101.301C163.193 97.759 165.456 95.9881 168.065 95.3248C170.36 94.7411 172.833 94.7411 175.128 95.3248C177.737 95.9881 180 97.759 184.525 101.301L190.99 106.36C195.515 109.902 197.778 111.673 198.626 113.715C199.372 115.511 199.372 117.446 198.626 119.242C197.778 121.284 195.515 123.055 190.99 126.597L184.525 131.655C180 135.197 177.737 136.968 175.128 137.632C172.833 138.216 170.36 138.216 168.065 137.632C165.456 136.968 163.193 135.197 158.667 131.655L152.203 126.597Z" fill="#5AFF88"/>
<path d="M66.0101 126.597C61.4846 123.055 59.2218 121.284 58.374 119.242C57.6283 117.446 57.6283 115.511 58.374 113.715C59.2218 111.673 61.4846 109.902 66.0101 106.36L72.4746 101.301C77.0002 97.759 79.2629 95.9881 81.8724 95.3248C84.1674 94.7411 86.6397 94.7411 88.9347 95.3248C91.5443 95.9881 93.8069 97.759 98.3323 101.301L147.893 140.088C152.419 143.629 154.682 145.4 155.529 147.442C156.275 149.239 156.275 151.173 155.529 152.969C154.682 155.011 152.419 156.782 147.893 160.324L141.429 165.383C136.903 168.925 134.641 170.696 132.031 171.359C129.736 171.943 127.264 171.943 124.968 171.359C122.359 170.696 120.097 168.925 115.571 165.383L66.0101 126.597Z" fill="#768CFF"/>
</svg>