<svg width="256" height="256" title="Bing" viewBox="0 0 256 256" fill="none" xmlns="http://www.w3.org/2000/svg" id="bing">
<style>
#bing {
    rect {fill: #15191C}

    @media (prefers-color-scheme: light) {
        rect {fill: #F4F2ED}
    }
}
</style>
<rect width="256" height="256" rx="40" fill="#15191C"/>
<path d="M133.612 97.442C130.547 97.7982 128.209 100.287 127.992 103.427C127.898 104.779 127.927 104.87 130.994 112.76C137.969 130.71 139.659 135.03 139.943 135.638C140.632 137.111 141.6 138.496 142.81 139.739C143.738 140.693 144.35 141.206 145.385 141.898C147.205 143.113 148.108 143.449 155.19 145.546C162.088 147.589 165.856 148.946 169.104 150.558C173.311 152.646 176.246 155.021 178.103 157.839C179.435 159.861 180.615 163.487 181.128 167.138C181.329 168.565 181.33 171.719 181.13 173.009C180.697 175.808 179.832 178.154 178.509 180.118C177.805 181.162 178.05 180.987 179.073 179.714C181.969 176.114 184.919 169.96 186.424 164.38C188.246 157.626 188.494 150.374 187.138 143.51C184.496 130.143 176.058 118.608 164.173 112.117C163.427 111.709 160.582 110.218 156.726 108.213C156.141 107.909 155.343 107.492 154.953 107.288C154.563 107.083 153.765 106.666 153.18 106.362C152.595 106.058 150.911 105.181 149.437 104.412L145.773 102.502C144.577 101.878 143.382 101.254 142.188 100.629C138.366 98.6292 136.749 97.8206 136.288 97.6805C135.805 97.5331 134.576 97.3445 134.268 97.3698C134.203 97.375 133.908 97.4076 133.612 97.442Z" fill="url(#radialGradient1)"/>
<path d="M141.942 164.45C141.73 164.576 141.433 164.757 141.281 164.853C141.129 164.95 140.793 165.159 140.532 165.319C138.64 166.483 136.749 167.648 134.859 168.815C133.702 169.529 132.546 170.245 131.391 170.962C130.881 171.28 130.369 171.595 129.855 171.907C129.66 172.023 128.826 172.536 128.003 173.047C126.94 173.706 125.876 174.363 124.811 175.018C123.576 175.778 122.341 176.539 121.107 177.302C120.032 177.968 118.955 178.632 117.877 179.294C117.205 179.706 116.585 180.104 116.498 180.179C116.369 180.289 110.394 183.99 107.396 185.817C105.119 187.204 102.485 188.131 99.7886 188.496C98.5335 188.665 96.1577 188.666 94.906 188.497C91.5115 188.039 88.3851 186.773 85.7069 184.773C84.6567 183.989 82.6789 182.013 81.923 180.992C80.1411 178.587 78.9887 176.007 78.3919 173.088C78.2544 172.416 78.1246 171.848 78.1031 171.826C78.0473 171.771 78.1482 172.785 78.33 174.112C78.5191 175.492 78.9217 177.488 79.3557 179.195C82.7132 192.405 92.2678 203.149 105.201 208.261C108.926 209.733 112.684 210.66 116.774 211.114C118.31 211.286 122.66 211.355 124.263 211.233C131.618 210.676 138.022 208.511 144.591 204.36C145.176 203.99 146.275 203.297 147.034 202.819C147.744 202.372 148.454 201.922 149.161 201.47C149.573 201.206 150.07 200.894 150.264 200.777C150.556 200.599 150.845 200.417 151.131 200.232C151.413 200.05 152.619 199.286 153.811 198.537L160.213 194.493L160.272 194.456L160.453 194.342L160.538 194.288L165.907 190.897C171.212 187.563 172.795 186.392 175.259 183.978C176.287 182.972 177.836 181.254 177.913 181.035C177.929 180.991 178.204 180.566 178.525 180.091C179.829 178.161 180.699 175.797 181.13 173.009C181.33 171.719 181.329 168.565 181.128 167.138C180.74 164.379 179.859 161.25 178.908 159.258C177.35 155.991 174.03 153.022 169.26 150.631C167.943 149.971 166.583 149.367 166.432 149.375C166.36 149.379 161.921 152.091 156.569 155.403C151.216 158.716 146.571 161.591 146.245 161.793C145.921 161.995 145.362 162.336 145.005 162.551L141.942 164.45Z" fill="url(#radialGradient2)"/>
<path d="M78.046 171.63L78.3446 172.969C79.2779 177.158 80.8957 180.177 83.708 182.982C85.0305 184.301 86.042 185.097 87.4755 185.945C90.509 187.74 93.7734 188.626 97.3488 188.624C101.094 188.622 104.334 187.688 107.672 185.647C108.235 185.303 110.443 183.944 112.577 182.627L116.458 180.233L116.457 100.452C116.457 84.4771 116.427 74.9901 116.377 74.2459C116.059 69.5687 114.102 65.2688 110.813 62.0165C109.804 61.0184 108.941 60.3515 106.372 58.5833C105.093 57.7033 102.753 56.0916 101.171 55.0015C97.5462 52.5031 93.9214 50.0051 90.2964 47.5073C87.8132 45.795 87.619 45.6764 86.8683 45.4078C85.8921 45.0585 84.8574 44.93 83.8738 45.0362C81.007 45.3455 78.712 47.4158 78.1156 50.2298C78.0228 50.6681 78.0056 56.4946 78.0043 88.1192L78.003 125.491H78L78.046 171.63Z" fill="url(#linearGradient1)"/>
<radialGradient id="radialGradient1" cx="0" cy="0" r="1" gradientUnits="userSpaceOnUse" gradientTransform="translate(2239.58 -12357.1) rotate(-137.908) scale(13893.1 19406.1)">
<stop stop-color="#00CACC"/>
<stop offset="1" stop-color="#048FCE"/>
</radialGradient>
<radialGradient id="radialGradient2" cx="0" cy="0" r="1" gradientUnits="userSpaceOnUse" gradientTransform="translate(2061.67 9426.94) rotate(-60.9339) scale(18743.2 13191.6)">
<stop stop-color="#00BBEC"/>
<stop offset="1" stop-color="#2756A9"/>
</radialGradient>
<linearGradient id="linearGradient1" x1="2000.91" y1="45" x2="2000.91" y2="14407.4" gradientUnits="userSpaceOnUse">
<stop stop-color="#00BBEC"/>
<stop offset="1" stop-color="#2756A9"/>
</linearGradient>
</svg>