<svg width="256" height="256" title="Biome" viewBox="0 0 256 256" fill="none" xmlns="http://www.w3.org/2000/svg" id="biome">
<style>
#biome {
    rect {fill: #15191C}

    @media (prefers-color-scheme: light) {
        rect {fill: #F4F2ED}
    }
}
</style>
<rect width="256" height="256" rx="40" fill="#15191C"/>
<path d="M128.498 57L91.7459 120.653C105.691 116.354 120.694 115.717 135.236 119.147L147.657 122.079L135.971 171.63L123.532 168.699C113.977 166.445 104.017 168.678 96.3142 174.768C92.461 177.815 89.4255 181.642 87.3451 185.934L75.8478 180.371C78.7564 174.364 83.0089 169.006 88.3804 164.753C99.1253 156.249 113.135 153.125 126.474 156.272L132.299 131.576C111.433 126.657 89.4416 131.556 72.6296 144.862C55.8194 158.167 46 178.449 46 199.888L211 199.891L128.498 57Z" fill="#60A5FA"/>
</svg>