<svg width="256" height="256" title="Bitbucket" viewBox="0 0 256 256" fill="none" xmlns="http://www.w3.org/2000/svg" id="bitbucket">
<style>
#bitbucket {
    rect {fill: #15191C}

    @media (prefers-color-scheme: light) {
        rect {fill: #F4F2ED}
    }
}
</style>
<rect width="256" height="256" rx="40" fill="#15191C"/>
<path d="M57.868 61.0004C57.1665 60.9913 56.4716 61.1361 55.832 61.4244C55.1924 61.7128 54.6236 62.1379 54.1656 62.6697C53.7076 63.2015 53.3715 63.8273 53.1808 64.503C52.9902 65.1787 52.9497 65.888 53.0621 66.581L73.4638 190.54C73.7179 192.057 74.498 193.436 75.667 194.434C76.8359 195.433 78.319 195.987 79.8557 196H177.73C178.882 196.014 180.001 195.614 180.883 194.873C181.765 194.131 182.351 193.097 182.536 191.959L202.938 66.6051C203.05 65.912 203.01 65.2028 202.819 64.5272C202.628 63.8516 202.292 63.226 201.834 62.6943C201.376 62.1626 200.807 61.7377 200.167 61.4494C199.528 61.1611 198.833 61.0165 198.131 61.0256L57.868 61.0004ZM143.775 150.59H112.536L104.078 106.361H151.345L143.775 150.59Z" fill="#2684FF"/>
<path d="M196.325 106.299H151.258L143.694 150.493H112.48L75.6235 194.279C76.7917 195.29 78.281 195.852 79.8253 195.865H177.646C178.797 195.88 179.915 195.48 180.796 194.739C181.678 193.998 182.264 192.965 182.448 191.828L196.325 106.299Z" fill="url(#linearGradient)"/>
<linearGradient id="linearGradient" x1="206.745" y1="118.675" x2="154.624" y2="192.617" gradientUnits="userSpaceOnUse">
<stop offset="0.18" stop-color="#0052CC"/>
<stop offset="1" stop-color="#2684FF"/>
</linearGradient>
</svg>