<svg version="1.0" xmlns="http://www.w3.org/2000/svg"
 width="256" height="256" viewBox="0 0 400 400" preserveAspectRatio="xMidYMid meet">
 <rect width="400" height="400" rx="60" fill="#ffffff"/>
 <g fill="#5c2d91">
  <path d="M125.7 378.5 c-56.1 -9.1 -98.1 -43.7 -116.1 -95.4 -6.8 -19.4 -10.5 -46 -8.6 -61.8 2.9 -23.8 6.8 -38.7 14.5 -54.8 20.2 -42.3 58.1 -72 104.5 -81.7 8.2 -1.7 15.4 -2.1 51.5 -2.8 33.6 -0.6 43.5 -1.1 49.5 -2.5 25.1 -5.6 46.3 -16.7 64.4 -33.7 6.3 -5.8 8.7 -7.6 9.2 -6.5 0.3 0.8 -0.2 5.5 -1 10.5 -2.7 15.6 -8.7 32 -16.2 44.4 -5.5 9.1 -3.9 9.6 12.1 4.3 37.8 -12.7 62.9 -34.4 83.6 -72.2 2 -3.7 4.1 -6.3 5 -6.3 1.2 0 3 3 5.9 9.5 8.3 19 12.2 33.8 14 53.6 0.6 6.3 1.3 12.9 1.7 14.7 1.4 8.2 -3.6 47.9 -8.3 64.4 -24.1 85.9 -98.9 151.6 -188.4 165.3 -16.1 2.5 -48.1 3.1 -60.9 1.1 -34.7 -5.3 -65.2 -26.8 -79.5 -56 -6.6 -13.4 -8.7 -21.7 -9.3 -37.1 -0.6 -15.5 1.4 -27.1 7 -40.9 7.4 -18.2 23.4 -36.7 40.5 -47 9.4 -5.6 24.4 -11 35.2 -12.7 17.7 -2.7 39.7 0.4 56.5 8 20.8 9.4 40.4 29.9 49.4 51.6 7.2 17.2 9.5 41.1 5.2 52.6 -4 10.4 -12.6 16 -22.3 14.4 -5.7 -1 -8.9 -2.7 -12.6 -6.9 -5 -5.7 -5.5 -8.7 -6.1 -39.6 -0.7 -32 -0.8 -32.8 -8.3 -39.6 -7.5 -6.7 -8.5 -6.9 -35.8 -6.9 -26.4 0 -30.6 0.6 -41.5 5.5 -16.9 7.6 -30.1 23.7 -34.6 42 -1.9 7.7 -1.7 22.2 0.5 29.5 7.9 26.6 32.2 45.5 58.6 45.5 14.7 0 30.6 -6.3 41.3 -16.3 l5.6 -5.2 1.8 2.9 c3 4.8 12.9 11.4 20.5 13.7 10 3.1 23.9 2.4 32 -1.5 11.7 -5.6 20.5 -16 25.5 -30.3 2.5 -7.1 2.7 -9.1 2.7 -21.8 0 -49 -26.8 -91.7 -70.9 -113.1 -33.2 -16.1 -72.1 -16.2 -105.3 -0.4 -14.6 7 -23.3 13.1 -34.8 24.5 -18.3 18.3 -29.4 38.7 -35 65 -2.3 11 -2.3 35.1 0 46 10.9 50.6 47.8 87.1 99.9 98.6 12 2.7 46 3.7 63.3 2 23.9 -2.5 50.7 -8.9 71.4 -17.1 11.8 -4.7 31.6 -14.4 39.3 -19.3 8.3 -5.3 8.5 -5.3 3.2 0.3 -7 7.3 -22.2 19.9 -32 26.5 -23.8 16 -53 27 -84.5 32 -14.8 2.3 -51.6 2.9 -63.3 1z"/>
  <path d="M134.1 263.4 c-9.5 -3.4 -17.4 -10.6 -21.4 -19.2 -3.1 -6.8 -3.1 -22.7 0 -29.4 3 -6.6 10.2 -13.9 17 -17.4 l5.8 -2.9 22.8 -0.3 22.8 -0.3 -0.3 22.8 -0.3 22.8 -3 5.8 c-3.3 6.7 -10.2 13.4 -17.2 16.7 -6.3 3.1 -19.7 3.8 -26.2 1.4z"/>
 </g>
</svg>
