<svg width="256" height="256" title="Bluesky" viewBox="0 0 256 256" fill="none" xmlns="http://www.w3.org/2000/svg">
<rect width="256" height="256" rx="40" fill="#1185FE"/>
<path d="M82.6821 67.4827C101.026 81.254 120.756 109.176 128 124.161C135.245 109.177 154.975 81.2537 173.319 67.4827C186.555 57.546 208 49.8575 208 74.3227C208 79.2087 205.199 115.368 203.556 121.238C197.844 141.648 177.033 146.853 158.521 143.702C190.88 149.21 199.111 167.452 181.334 185.694C147.572 220.339 132.808 177.001 129.023 165.897C128.329 163.861 128.005 162.908 128 163.718C127.995 162.908 127.671 163.861 126.977 165.897C123.194 177.001 108.43 220.34 74.6658 185.694C56.8882 167.452 65.1196 149.209 97.4786 143.702C78.9662 146.853 58.1547 141.648 52.4444 121.238C50.8013 115.367 48 79.2082 48 74.3227C48 49.8575 69.4459 57.546 82.6812 67.4827H82.6821Z" fill="white"/>
</svg>