<svg width="256" height="256" title="Bolt" viewBox="0 0 256 256" fill="none" xmlns="http://www.w3.org/2000/svg">
<rect width="256" height="256" rx="40" fill="black"/>
<path fill-rule="evenodd" clip-rule="evenodd" d="M137.397 185.736C126.551 185.736 115.714 182.127 109.926 173.449L107.757 183.565L68 204.534L72.3389 183.57L101.25 52H136.678L126.551 98.2645C134.507 89.589 142.454 85.9783 152.582 85.9783C174.264 85.9783 188 99.7138 188 125.736C188 151.757 171.375 185.738 137.399 185.738L137.397 185.736ZM151.132 132.964C151.132 145.259 142.454 154.656 130.89 154.656C119.322 154.656 118.603 152.488 114.986 148.149L120.772 124.295C125.11 119.957 129.449 117.788 135.228 117.788C143.904 117.788 151.132 124.295 151.132 133.692V132.964Z" fill="white"/>
</svg>