<svg width="256" height="256" title="Bootstrap" viewBox="0 0 256 256" fill="none" xmlns="http://www.w3.org/2000/svg">
<rect width="256" height="256" rx="40" fill="#7952B3"/>
<path d="M126.467 122.693H114.373V102.44H128.72C136.52 102.44 140.947 105.92 140.947 112.213C140.947 118.933 135.793 122.693 126.453 122.693H126.467ZM128.627 130.733H114.38V153.053H129.253C138.98 153.053 144.133 149.153 144.133 141.82C144.133 134.487 138.833 130.733 128.627 130.733ZM208 123.693V131.813C200.48 132.533 195.887 138.107 193.16 146.933C190.447 155.727 190.073 166.513 190.36 174.84C190.66 183.507 183.907 191.507 174.78 191.507H81.2333C72.1 191.507 65.3467 183.507 65.6533 174.84C65.94 166.513 65.5667 155.727 62.8533 146.933C60.12 138.107 55.52 132.533 48 131.813V123.693C55.52 122.973 60.1267 117.4 62.8467 108.573C65.5667 99.78 65.94 88.9933 65.6467 80.6667C65.3467 72 72.1 64 81.2333 64H174.78C183.913 64 190.66 72 190.36 80.6667C190.073 88.9933 190.447 99.78 193.16 108.573C195.887 117.4 200.48 122.973 208 123.693ZM155.153 142.473C155.153 133.447 148.8 126.92 139.367 125.887V125.507C146.3 124.38 151.74 117.94 151.74 110.753C151.74 100.507 143.653 93.8333 131.327 93.8333H103.593V161.647H131.467C146.253 161.647 155.153 154.407 155.153 142.473Z" fill="white"/>
</svg>