<svg width="256" height="256" title="Brave" viewBox="0 0 256 256" fill="none" xmlns="http://www.w3.org/2000/svg" id="brave">
<style>
#brave {
    rect {fill: #15191C}

    @media (prefers-color-scheme: light) {
        rect {fill: #F4F2ED}
    }
}
</style>
<rect width="256" height="256" rx="40" fill="#15191C"/>
<path d="M198 99.1016L192.914 85.375L196.414 77.5C196.852 76.4609 196.633 75.3125 195.867 74.4922L186.297 64.8125C182.086 60.6016 175.852 59.125 170.219 61.0938L167.539 62.0234L152.883 46.1641L128.109 46H127.945L103.008 46.2188L88.4062 62.1875L85.7812 61.2578C80.0937 59.2344 73.8047 60.7109 69.5938 65.0312L59.8594 74.875C59.2031 75.5312 59.0391 76.4609 59.3672 77.2813L63.0312 85.4844L58 99.2109L61.2812 111.625L76.1563 168.117C77.8516 174.625 81.7891 180.313 87.3125 184.25C87.3125 184.25 105.359 196.992 123.133 208.531C124.719 209.57 126.359 210.281 128.109 210.281C129.859 210.281 131.5 209.57 133.086 208.531C153.102 195.406 168.906 184.195 168.906 184.195C174.375 180.258 178.313 174.57 180.008 168.062L194.773 111.57L198 99.1016Z" fill="#F15A22"/>
<path style="mix-blend-mode:lighten" opacity="0.15" d="M76.8672 170.523L58 100.414L63.5234 86.6875L59.6953 76.5156L68.8281 67.2188C71.8359 64.5391 77.7422 63.6094 80.4766 65.1953L94.75 73.3984L113.344 77.7188L127.836 71.7031L129.039 196.227C128.82 214.164 129.969 212.25 116.789 203.773L84.25 181.953C80.75 178.617 78.0703 174.844 76.8672 170.523Z" fill="url(#linearGradient1)"/>
<path style="mix-blend-mode:darken" opacity="0.4" d="M168.578 183.947L140.906 202.869C133.195 207.08 129.477 211.236 128.875 209.212C128.383 207.627 128.766 202.978 128.602 195.759L128.273 73.9703C128.328 72.7672 129.148 70.7438 130.57 70.9625L144.68 75.2281L165.023 72.0563L178.477 62.1578C179.898 61.0641 181.977 61.1734 183.289 62.4313L195.32 73.9156C196.414 75.0641 196.469 77.3063 195.812 78.7281L192.477 84.9078L198 99.1812L178.969 169.947C176.016 178.752 171.859 181.048 168.578 183.947Z" fill="url(#linearGradient2)"/>
<path d="M131.281 147.063C130.625 146.79 129.914 146.571 129.695 146.571H128.82H127.945C127.727 146.571 127.016 146.79 126.359 147.063L119.25 150.016C118.594 150.29 117.5 150.782 116.844 151.11L106.125 156.688C105.469 157.016 105.414 157.618 106.016 158.055L115.477 164.727C116.078 165.165 117.008 165.876 117.555 166.368L121.766 169.977C122.313 170.469 123.188 171.235 123.734 171.727L127.781 175.337C128.328 175.829 129.203 175.829 129.75 175.337L133.906 171.727C134.453 171.235 135.328 170.469 135.875 169.977L140.086 166.313C140.633 165.821 141.563 165.11 142.164 164.673L151.625 157.946C152.227 157.509 152.172 156.907 151.516 156.579L140.797 151.11C140.141 150.782 139.047 150.29 138.391 150.016L131.281 147.063Z" fill="white"/>
<path d="M182.585 101.539C182.804 100.828 182.804 100.555 182.804 100.555C182.804 99.8437 182.749 98.6406 182.64 97.9297L182.093 96.3437C181.765 95.6875 181.218 94.6484 180.781 94.0469L174.601 84.9141C174.218 84.3125 173.507 83.3828 173.015 82.7812L165.031 72.7734C164.593 72.2266 164.156 71.7344 164.101 71.7891H163.992C163.992 71.7891 163.39 71.8984 162.679 72.0078L150.484 74.4141C149.773 74.5781 148.624 74.7969 147.914 74.9062L147.695 74.9609C146.984 75.0703 145.835 75.0156 145.124 74.7969L134.898 71.5156C134.187 71.2969 133.039 70.9687 132.382 70.8047C132.382 70.8047 130.304 70.3125 128.609 70.3672C126.914 70.3672 124.835 70.8047 124.835 70.8047C124.124 70.9687 122.976 71.2969 122.32 71.5156L112.093 74.7969C111.382 75.0156 110.234 75.0703 109.523 74.9609L109.304 74.9062C108.593 74.7969 107.445 74.5234 106.734 74.4141L94.4292 72.1172C93.7182 71.9531 93.1167 71.8984 93.1167 71.8984H93.0073C92.9526 71.8984 92.5151 72.3359 92.0776 72.8828L84.0932 82.8906C83.6557 83.4375 82.9448 84.4219 82.5073 85.0234L76.3276 94.1562C75.9448 94.7578 75.3432 95.7969 75.0151 96.4531L74.4682 98.0391C74.3588 98.75 74.2495 99.9531 74.3042 100.664C74.3042 100.664 74.3042 100.883 74.5229 101.648C74.9057 102.961 75.8354 104.164 75.8354 104.164C76.2729 104.711 77.0932 105.641 77.5854 106.133L95.687 125.383C96.1792 125.93 96.3432 126.914 96.0698 127.57L92.2963 136.484C92.0229 137.141 91.9682 138.234 92.2417 138.945L93.2807 141.734C94.1557 144.086 95.6323 146.164 97.601 147.75L101.265 150.703C101.812 151.141 102.796 151.305 103.453 150.977L115.046 145.453C115.703 145.125 116.687 144.469 117.234 143.977L125.546 136.484C126.749 135.391 126.804 133.531 125.71 132.328L108.265 120.57C107.664 120.188 107.445 119.313 107.773 118.656L115.429 104.219C115.757 103.563 115.812 102.523 115.539 101.867L114.609 99.7344C114.335 99.0781 113.515 98.3125 112.859 98.0391L90.3823 89.6172C89.726 89.3437 89.726 89.0703 90.437 89.0156L104.929 87.6484C105.64 87.5937 106.789 87.7031 107.499 87.8672L120.406 91.4766C121.117 91.6953 121.554 92.4062 121.445 93.1172L116.96 117.672C116.851 118.383 116.851 119.367 117.015 119.914C117.179 120.461 117.89 120.953 118.601 121.117L127.57 123.031C128.281 123.195 129.429 123.195 130.14 123.031L138.507 121.117C139.218 120.953 139.929 120.406 140.093 119.914C140.257 119.422 140.312 118.383 140.148 117.672L135.718 93.1172C135.609 92.4062 136.046 91.6406 136.757 91.4766L149.664 87.8672C150.374 87.6484 151.523 87.5937 152.234 87.6484L166.726 89.0156C167.437 89.0703 167.492 89.3437 166.781 89.6172L144.304 98.1484C143.648 98.4219 142.828 99.1328 142.554 99.8438L141.624 101.977C141.351 102.633 141.351 103.727 141.734 104.328L149.445 118.766C149.773 119.422 149.554 120.242 148.953 120.68L131.507 132.492C130.359 133.641 130.468 135.555 131.671 136.648L139.984 144.141C140.531 144.633 141.515 145.289 142.171 145.562L153.82 151.086C154.476 151.414 155.46 151.25 156.007 150.813L159.671 147.805C161.64 146.219 163.117 144.141 163.937 141.789L164.976 139C165.249 138.344 165.195 137.195 164.921 136.539L161.148 127.625C160.874 126.969 161.039 125.984 161.531 125.437L179.632 106.188C180.124 105.641 180.89 104.766 181.382 104.219C181.273 104.055 182.257 102.852 182.585 101.539Z" fill="white"/>
<linearGradient id="linearGradient1" x1="58" y1="7347.05" x2="7168.8" y2="7347.05" gradientUnits="userSpaceOnUse">
<stop stop-color="white"/>
<stop offset="0.1413" stop-color="white" stop-opacity="0.9576"/>
<stop offset="1" stop-color="white" stop-opacity="0.7"/>
</linearGradient>
<linearGradient id="linearGradient2" x1="125.55" y1="7475.47" x2="7100.93" y2="7475.47" gradientUnits="userSpaceOnUse">
<stop stop-color="#F1F1F2"/>
<stop offset="0.0919144" stop-color="#E4E5E6"/>
<stop offset="0.2357" stop-color="#D9DADB"/>
<stop offset="0.438" stop-color="#D2D4D5"/>
<stop offset="1" stop-color="#D0D2D3"/>
</linearGradient>
</svg>