<svg width="256" height="256" title="Bruno" viewBox="0 0 256 256" fill="none" xmlns="http://www.w3.org/2000/svg" id="bruno">
<style>
#bruno {
    rect {fill: #15191C}

    @media (prefers-color-scheme: light) {
        rect {fill: #F4F2ED}
    }
}
</style>
<rect width="256" height="256" rx="40" fill="#15191C"/>
<path d="M124.233 52H130.976L134.98 52.317L138.878 52.8453L142.144 53.4793L146.358 54.5359L150.046 55.6982L153.207 56.8605L155.946 58.0228L158.685 59.2907L161.424 60.6644L163.848 62.038L165.639 63.0946L167.641 64.3626L167.851 64.4682L170.169 64.5739L172.803 64.8909L175.542 65.5249L178.282 66.4758L180.81 67.6381L183.128 68.9061L185.341 70.3854L187.343 71.8646L188.818 73.1326L189.66 73.8722L190.714 74.8232L193.453 77.5704L194.191 78.4157L195.455 79.895L196.719 81.48L198.3 83.5932L199.775 85.7065L200.828 87.2914L202.198 89.5104L203.146 91.0953L204.621 93.7369L206.096 96.4841L207.571 99.4427L209.152 102.93L210.521 106.099L211.786 109.269L213.261 113.179L214.841 117.617L215.473 119.941L215.895 122.477L216 123.534V128.077L215.684 130.93L215.052 134.206L213.998 137.904L212.839 141.18L211.68 143.927L210.416 146.674L208.941 149.633L207.571 152.063L206.412 154.07L205.043 156.289L203.884 158.086L202.83 159.671L201.671 161.361L200.407 163.157L197.562 166.961L196.298 168.546L195.139 170.026L193.98 171.294L193.032 172.139L191.557 172.984L189.66 173.618L188.291 173.829H187.132L185.762 173.618L184.393 173.195L182.918 172.456L181.969 171.716L181.232 171.082L180.073 169.603L179.125 167.807L178.703 166.75L178.282 167.278L177.017 169.286L175.964 170.871L174.7 172.667L173.225 174.569L172.276 175.731L171.117 177.105L169.642 178.69L167.325 181.015L166.166 181.965L165.323 182.705L163.742 183.867L162.162 184.924L160.476 185.875L157.632 187.249L154.998 188.305L152.785 189.151L150.046 189.996L147.412 190.63H147.096L146.78 191.898L145.726 195.068L144.883 196.97L144.04 198.66L142.987 200.351L141.828 201.724L140.669 202.675L139.089 203.521L136.876 204.26L134.242 204.789L131.924 205H129.29L126.024 204.683L123.179 204.155L120.756 203.521L119.07 202.887L117.701 202.147L116.331 201.09L114.751 199.506L113.486 197.709L112.222 195.279L111.274 192.743L110.642 190.419V190.102L108.535 189.679L105.585 188.834L102.529 187.671L98.7363 186.086L96.1023 184.713L93.9952 183.339L92.5202 182.282L91.3612 181.331L90.3076 180.381L89.1487 179.43L86.304 176.577L85.5665 175.731L84.3022 174.252L82.8272 172.456L81.3522 170.448L79.6665 168.018L79.0343 167.067L78.8236 166.961L78.5075 167.912L77.6647 169.603L76.9272 170.977L75.9789 172.139L74.9253 173.09L73.5557 173.935L71.87 174.569L70.2896 174.886H68.4985L66.602 174.463L65.3377 173.935L64.1788 173.195L63.1252 172.244L62.2824 171.399L61.1234 169.92L60.0698 168.652L58.7002 166.856L57.2252 164.954L54.4859 161.15L53.0108 158.931L51.8519 157.135L50.5876 155.127L49.1126 152.591L48.059 150.689L46.584 147.836L44.8983 144.244L43.7393 141.285L42.5804 137.798L41.8429 134.945L41.3161 132.198L41 129.451V125.013L41.4214 122.055L42.0536 119.624L43.1072 116.771L44.5822 113.073L46.584 108.424L48.2697 104.726L49.1126 102.93L49.9554 101.239L51.4305 98.3861L52.8001 95.8501L54.2751 93.3142L56.0662 90.3557L57.9627 87.5028L59.3323 85.4952L60.8073 83.4876L61.8609 82.114L63.0199 80.6347L64.3895 79.0497L65.3377 77.8874L66.286 76.9365L67.0235 76.0912L69.8682 73.2383L70.711 72.4986L72.186 71.2307L73.7664 69.9627L75.7682 68.4834L77.8754 67.1098L79.8772 65.9475L82.3004 64.6796L85.1451 63.5173L87.5683 62.7776L90.0969 62.2493L91.6773 62.038L92.9416 61.404L94.7327 60.3474L97.5774 58.8681L99.7899 57.8115L102.318 56.7548L105.163 55.6982L108.113 54.7472L112.117 53.6906L115.804 52.951L119.281 52.4227L122.442 52.1057L124.233 52Z" fill="#F3A846"/>
<path d="M124.233 52H130.976L134.98 52.317L138.878 52.8453L142.144 53.4793L146.358 54.5359L150.046 55.6982L153.207 56.8605L155.946 58.0228L158.685 59.2907L161.424 60.6644L163.848 62.038L165.639 63.0946L167.641 64.3626L167.851 64.4682L170.169 64.5739L172.803 64.8909L175.542 65.5249L178.282 66.4758L180.81 67.6381L183.128 68.9061L185.341 70.3854L187.343 71.8646L188.818 73.1326L189.66 73.8722L190.714 74.8232L193.453 77.5704L194.191 78.4157L195.455 79.895L196.719 81.48L198.3 83.5932L199.775 85.7065L200.828 87.2914L202.198 89.5104L203.146 91.0953L204.621 93.7369L206.096 96.4841L207.571 99.4427L209.152 102.93L210.521 106.099L211.786 109.269L213.261 113.179L214.841 117.617L215.473 119.941L215.895 122.477L216 123.534V128.077L215.684 130.93L215.052 134.206L213.998 137.904L212.839 141.18L211.68 143.927L210.416 146.674L208.941 149.633L207.571 152.063L206.412 154.07L205.043 156.289L203.884 158.086L202.83 159.671L201.671 161.361L200.407 163.157L197.562 166.961L196.298 168.546L195.139 170.026L193.98 171.294L193.032 172.139L191.557 172.984L189.66 173.618L188.291 173.829H187.132L185.762 173.618L184.393 173.195L182.918 172.456L181.969 171.716L181.232 171.082L180.073 169.603L179.125 167.807L178.703 166.75L178.282 167.278L177.017 169.286L175.964 170.871L174.7 172.667L173.225 174.569L172.276 175.731L171.117 177.105L169.642 178.69L167.325 181.015L166.166 181.965L165.323 182.705L163.742 183.867L162.162 184.924L160.476 185.875L157.632 187.249L156.473 187.671L154.892 187.777L153.944 187.46L153.207 186.932L152.574 185.875L152.469 185.558V184.079L152.89 183.128L153.523 182.388L154.787 181.754L156.789 180.909L158.79 179.852L160.055 179.007L162.057 177.528L163.532 176.154L164.374 175.414L165.639 174.146L166.376 173.301L167.325 172.244L168.483 170.765L169.958 168.863L171.117 167.173L172.487 165.059L174.278 162.101L175.226 160.305L175.332 159.671L173.751 156.395L173.014 154.176L172.803 152.908V151.746L173.225 149.316L174.173 145.3L175.016 141.18L175.753 136.636L176.28 132.304L176.596 128.289L176.701 126.07V121.738L176.491 118.039L176.175 115.292L175.542 111.805L174.805 109.058L174.067 106.945L173.435 105.254L173.33 104.303L173.541 103.458L173.962 102.613L174.805 101.873L175.542 101.556L176.491 101.45L177.439 101.662L178.492 102.296L179.125 103.247L179.757 104.726L180.705 107.367L181.443 110.115L182.18 113.919L182.601 117.511L182.812 120.575V126.598L182.496 131.459L181.969 136.319L181.337 140.546L180.494 144.983L179.546 149.21L178.914 151.852V152.802L179.651 154.599L181.443 158.297L182.812 161.256L184.498 164.848L185.341 166.539L185.762 167.067L186.71 167.595L187.132 167.701H188.291L189.344 167.278L189.977 166.75L190.819 165.693L191.978 164.214L193.453 162.312L195.034 160.199L196.403 158.297L198.194 155.655L199.775 153.225L201.144 151.006L202.725 148.259L203.989 145.934L205.359 143.187L206.834 139.806L207.887 136.953L208.836 133.889L209.468 131.142L209.784 129.24L209.995 127.021V124.696L209.679 122.055L209.257 120.258L208.203 117.088L206.728 113.073L205.148 109.058L203.568 105.36L201.566 101.028L200.196 98.2804L198.932 95.9558L197.457 93.4199L196.193 91.3066L194.191 88.3481L193.137 86.8688L192.189 85.6008L191.03 84.1215L190.082 83.0649L189.134 81.9026L187.659 80.4233V80.212H187.448L185.551 78.3101L184.393 77.3591L182.812 76.0912L181.021 74.8232L178.914 73.5552L176.28 72.2873L174.278 71.5477L171.75 70.9137L170.064 70.7023H166.587L165.533 70.2797L163.532 69.0117L161.635 67.8494L159.844 66.7928L157.21 65.4192L155.524 64.5739L152.785 63.3059L149.835 62.1436L145.831 60.77L142.776 59.9247L138.878 59.0794L135.506 58.5511L132.451 58.2341L130.66 58.1285H124.654L121.599 58.3398L118.86 58.6568L115.699 59.1851L112.433 59.9247L109.377 60.77L105.901 61.9323L103.267 62.989L99.7899 64.5739L96.8399 66.1588L94.6273 67.5325L93.7845 67.9551L93.4684 68.0608L91.2559 68.2721L89.1487 68.6948L87.3576 69.2231L84.829 70.2797L82.5111 71.442L80.404 72.7099L78.6129 73.9779L77.3486 74.9289L75.6629 76.3025L74.6093 77.2535L73.7664 77.9931L70.2896 81.48L69.5521 82.3253L68.2878 83.8046L66.8128 85.6008L65.2324 87.7141L63.8627 89.616L61.7556 92.7859L60.4913 94.7935L58.7002 97.8577L57.752 99.5483L56.2769 102.296L55.4341 103.881L54.2751 106.311L52.9055 109.164L51.4305 112.545L49.9554 116.032L48.2697 120.364L47.6376 122.372L47.2161 124.379L47.1108 125.224V129.24L47.5322 132.198L48.1644 135.051L49.1126 138.115L50.1662 140.968L51.009 142.976L53.7483 148.47L55.2234 151.006L56.4877 153.119L57.6466 154.916L59.3323 157.452L60.702 159.354L61.9663 161.15L63.4413 163.052L64.4949 164.425L65.8645 166.116L66.7074 167.173L67.6556 168.229L68.7092 168.758H70.0789L71.0271 168.335L71.4485 168.018H71.6592L73.2396 164.848L74.6093 161.89L76.0843 158.825L77.0325 156.712L77.8754 155.021L78.2968 153.859V152.697L77.0325 147.308L76.0843 142.659L75.3468 138.01L74.82 133.466L74.5039 129.24L74.3986 126.281V123.534L74.5039 120.575L74.82 116.877L75.2414 113.919L75.8736 110.854L76.5057 108.53L77.3486 105.994L78.2968 103.881L79.0343 103.035L79.8772 102.613L80.1933 102.507H81.3522L82.5111 102.93L83.2486 103.564L83.7754 104.62L83.8808 105.043V105.994L83.2486 107.79L82.4058 110.115L81.6683 112.968L81.1415 115.715L80.72 119.202L80.6147 120.575V128.606L80.9308 132.727L81.3522 136.53L81.9843 140.757L82.8272 145.089L83.7754 149.316L84.3022 151.64L84.4076 152.274V154.282L83.9862 156.078L83.1433 158.086L82.3004 159.882V160.516L83.4594 162.629L85.1451 165.271L86.4094 167.067L88.0951 169.286L89.2541 170.66L90.2023 171.822L90.9398 172.561L91.6773 173.407L93.2577 174.992L94.4166 175.943L95.4702 176.894L96.7345 177.845L98.6309 179.113L100.527 180.169L102.635 181.12L104.215 181.754L104.952 182.282L105.585 183.339L105.69 183.762V185.03L105.269 186.086L104.426 186.932L103.477 187.354H102.213L101.265 187.143L98.7363 186.086L96.1023 184.713L93.9952 183.339L92.5202 182.282L91.3612 181.331L90.3076 180.381L89.1487 179.43L86.304 176.577L85.5665 175.731L84.3022 174.252L82.8272 172.456L81.3522 170.448L79.6665 168.018L79.0343 167.067L78.8236 166.961L78.5075 167.912L77.6647 169.603L76.9272 170.977L75.9789 172.139L74.9253 173.09L73.5557 173.935L71.87 174.569L70.2896 174.886H68.4985L66.602 174.463L65.3377 173.935L64.1788 173.195L63.1252 172.244L62.2824 171.399L61.1234 169.92L60.0698 168.652L58.7002 166.856L57.2252 164.954L54.4859 161.15L53.0108 158.931L51.8519 157.135L50.5876 155.127L49.1126 152.591L48.059 150.689L46.584 147.836L44.8983 144.244L43.7393 141.285L42.5804 137.798L41.8429 134.945L41.3161 132.198L41 129.451V125.013L41.4214 122.055L42.0536 119.624L43.1072 116.771L44.5822 113.073L46.584 108.424L48.2697 104.726L49.1126 102.93L49.9554 101.239L51.4305 98.3861L52.8001 95.8501L54.2751 93.3142L56.0662 90.3557L57.9627 87.5028L59.3323 85.4952L60.8073 83.4876L61.8609 82.114L63.0199 80.6347L64.3895 79.0497L65.3377 77.8874L66.286 76.9365L67.0235 76.0912L69.8682 73.2383L70.711 72.4986L72.186 71.2307L73.7664 69.9627L75.7682 68.4834L77.8754 67.1098L79.8772 65.9475L82.3004 64.6796L85.1451 63.5173L87.5683 62.7776L90.0969 62.2493L91.6773 62.038L92.9416 61.404L94.7327 60.3474L97.5774 58.8681L99.7899 57.8115L102.318 56.7548L105.163 55.6982L108.113 54.7472L112.117 53.6906L115.804 52.951L119.281 52.4227L122.442 52.1057L124.233 52Z" fill="#030102"/>
<path d="M97.2613 146.04H98.4202L99.4738 146.463L100.317 147.202L100.738 148.048L100.843 148.365V152.802L101.16 154.704L101.686 156.395L102.424 158.086L103.477 159.776L104.636 161.256L106.427 163.052L107.902 164.214L109.377 165.271L111.485 166.539L112.96 167.278L114.54 167.701H116.542L117.806 167.384L119.492 166.539L120.651 165.693L122.231 164.425L123.601 163.369L125.076 162.206L126.446 161.15L126.551 160.41V153.331L126.867 152.063L127.499 151.218L128.553 150.584L128.869 150.478H130.238L131.187 150.901L132.03 151.64L132.451 152.485L132.556 152.802L132.662 160.939L133.083 161.467L134.874 162.84L136.56 164.214L139.299 166.327L140.774 167.173L142.039 167.595L142.565 167.701H143.935L145.41 167.49L146.885 166.961L149.098 165.693L151.099 164.32L152.153 163.474L153.628 162.206L154.787 160.939L155.84 159.565L156.789 157.98L157.632 156.078L158.158 154.176L158.369 152.802V148.259L158.896 147.202L159.633 146.463L160.687 146.04H161.741L162.689 146.357L163.321 146.78L163.953 147.519L164.269 148.365L164.48 150.161V152.38L164.269 154.599L163.742 157.029L162.794 159.565L161.53 161.995L160.371 163.686L159.212 165.059L158.474 165.905L156.789 167.595L155.314 168.758L153.944 169.814L152.364 170.871L150.362 172.033L148.676 172.878L148.255 172.984L148.36 173.407L148.571 176.365V180.486L148.255 184.607L147.728 187.988L147.096 190.841L145.937 194.539L144.989 196.758L144.146 198.449L143.197 200.034L142.039 201.513L141.09 202.358L139.721 203.204L138.246 203.838L136.455 204.366L134.242 204.789L131.924 205H129.29L126.024 204.683L123.179 204.155L120.756 203.521L119.07 202.887L117.701 202.147L116.331 201.09L114.751 199.506L113.486 197.709L112.222 195.279L111.274 192.743L110.431 189.573L109.904 186.932L109.483 183.867L109.167 179.535L109.061 172.244L107.692 171.399L106.006 170.343L104.215 169.075L103.056 168.124L102.002 167.173L101.054 166.327V166.116H100.843L100.106 165.271L98.947 163.897L97.7881 162.206L96.8399 160.516L95.997 158.72L95.3648 156.712L94.9434 154.81L94.7327 153.014V149.844L94.9434 148.259L95.3648 147.308L95.7863 146.78L96.8399 146.146L97.2613 146.04Z" fill="#020102"/>
<path d="M129.396 166.433L129.817 166.539L131.397 167.807L134.347 170.131L136.033 171.399L137.403 172.244L139.089 172.984L141.301 173.618L142.249 173.829L142.355 174.041L142.46 175.097L142.565 177.422V180.169L142.249 184.184L141.722 187.354L140.88 190.736L139.931 193.377L138.667 196.019L137.824 197.181L137.087 197.815L135.717 198.343L134.558 198.66L133.294 198.872L132.03 198.977H129.185L126.34 198.66L123.812 198.132L121.704 197.498L120.44 196.758L119.492 195.807L118.754 194.751L117.595 192.532L116.753 189.996L116.12 187.354L115.699 184.818L115.278 180.803L115.172 179.113V173.935L115.278 173.829L117.701 173.618L119.703 173.09L121.283 172.456L122.969 171.505L124.865 170.026L126.34 168.863L129.079 166.75L129.396 166.433Z" fill="#E75D48"/>
<path d="M119.176 128.5H139.405L141.09 128.923L142.355 129.662L143.303 130.508L144.146 131.881L145.094 133.994L147.623 140.017L147.939 140.863L148.044 141.708L147.728 142.765L147.096 143.715L145.937 144.455L141.09 146.991L139.405 147.836L138.035 148.259L137.297 148.365H136.244L135.506 148.259L125.919 147.836H124.654L123.706 148.153L123.179 148.259H121.494L119.913 147.836L115.804 146.146L113.276 145.089L112.222 144.455L111.59 143.715L111.274 142.976V141.497L111.906 139.595L112.96 136.847L114.435 132.938L115.067 131.459L115.804 130.508L116.331 129.979L116.963 129.451L118.438 128.711L119.176 128.5Z" fill="#020102"/>
<path d="M120.335 134.523H138.772L140.037 137.481L141.09 140.017L140.774 140.334L138.351 141.602L137.297 142.236H137.087L136.455 140.968L135.717 140.229L134.663 139.806H133.294L132.24 140.334L131.503 141.18L131.187 141.919L131.081 142.976L131.503 144.455L132.135 145.723L133.083 146.78L134.242 147.625L135.296 148.048V148.153H133.294L128.237 147.942L125.919 147.836L124.865 147.731L125.181 147.519L126.34 146.674L127.078 145.829L127.921 144.244L128.237 142.976L128.026 141.814L127.604 140.968L126.762 140.229L125.919 139.912H124.444L123.39 140.44L122.758 141.18L122.231 142.236L119.703 141.18L118.333 140.651L118.122 140.334L119.281 137.164L120.229 134.628L120.335 134.523Z" fill="#453933"/>
<path d="M103.267 101.662H105.374L106.744 102.084L107.692 102.613L108.219 103.035L108.851 104.092L109.272 105.148L109.588 106.839L109.694 108.213V109.269L109.588 110.432L109.272 110.96L107.902 111.805L105.795 112.756L104.215 113.179L102.845 113.285L101.686 113.073L100.527 112.334L99.5792 111.383L98.947 110.326L98.4202 108.741V106.628L98.8417 105.254L99.4738 104.092L100.422 103.035L101.476 102.296L102.74 101.767L103.267 101.662Z" fill="#020102"/>
<path d="M157.737 101.662H159.844L161.214 102.084L162.373 102.718L163.532 103.775L164.374 105.254L164.796 106.522L164.901 107.156V108.213L164.585 109.586L163.848 111.066L162.899 112.122L161.951 112.862L161.214 113.179L160.687 113.285L159.001 113.179L157.21 112.651L155.735 112.017L154.049 111.066L153.733 110.749L153.628 110.326V107.156L153.944 105.254L154.471 103.881L154.892 103.247L155.419 102.718L156.367 102.084L157.737 101.662Z" fill="#020102"/>
</svg>