<svg width="256" height="256" title="Bugsnag" viewBox="0 0 256 256" fill="none" xmlns="http://www.w3.org/2000/svg">
<rect width="256" height="256" rx="40" fill="#4949E4"/>
<path d="M123.865 96.4695H128.6C160.492 96.5129 183.003 117.481 185.729 146.089C188.859 178.906 164.53 208.499 129.665 208.219C92.2816 208.219 71.0338 181.869 71 151.495V120.113H94.904L94.8388 63.4085L82.1998 69.7329V108.372H71.3695V61.8148L96.959 47L105.597 52.0397L105.667 120.108H126.25C150.915 119.929 160.775 136.135 160.995 152.838C161.292 175.37 137.276 191.972 113.264 180.705C102.689 175.745 94.5853 163.333 94.5853 151.652V151.488L94.5563 131.194H81.4343V149.477C80.8403 171.514 97.3478 194.614 125.217 196.947C153.183 199.289 174.918 179.333 174.918 151.947C174.918 126.077 156.831 108.07 130.962 108.07H123.862M105.785 131.194V151.483C105.783 164.294 116.461 174.178 129.271 174.182C142.082 174.185 150.618 163.509 150.321 153.133C150.324 140.322 140.698 131.197 127.89 131.194H105.788H105.785Z" fill="white"/>
</svg>