<svg width="256" height="256" title="Builder" viewBox="0 0 256 256" fill="none" xmlns="http://www.w3.org/2000/svg" id="builder">
<style>
#builder {
    rect {fill: #15191C}

    @media (prefers-color-scheme: light) {
        rect {fill: #F4F2ED}
    }
}
</style>
<rect width="256" height="256" rx="40" fill="#15191C"/>
<path d="M193 95.8031C193.008 102.038 191.618 108.195 188.934 113.822C186.249 119.449 182.338 124.403 177.487 128.319L65.9463 64.9799C65.5199 64.736 65.1244 64.4417 64.7682 64.1034C64.2092 63.5547 63.765 62.9002 63.4614 62.178C63.1578 61.4559 63.001 60.6806 63 59.8972C62.9998 59.1229 63.1521 58.3562 63.4482 57.6408C63.7444 56.9254 64.1785 56.2753 64.7259 55.7277C65.2733 55.1801 65.9232 54.7457 66.6385 54.4492C67.3537 54.1528 68.1204 54.0001 68.8947 54H151.217C156.705 54 162.139 55.0814 167.208 57.1824C172.278 59.2833 176.884 62.3627 180.763 66.2444C188.599 74.0853 193.001 84.7175 193 95.8031Z" fill="#18B4F4"/>
<path d="M193 160.834C193.002 166.324 191.922 171.761 189.823 176.834C187.725 181.907 184.647 186.517 180.766 190.4C176.886 194.282 172.28 197.362 167.21 199.463C162.139 201.564 156.705 202.646 151.217 202.647H68.8957C67.7291 202.635 66.5925 202.277 65.6295 201.618C64.6674 200.959 63.9223 200.029 63.4885 198.947C63.0533 197.864 62.9499 196.676 63.1914 195.534C63.4313 194.393 64.0043 193.348 64.8378 192.533C65.1706 192.2 65.5431 191.909 65.9468 191.667L109.844 166.741L177.479 128.328C182.328 132.244 186.239 137.196 188.925 142.821C191.61 148.446 193.003 154.601 193 160.834Z" fill="#FD6B3C"/>
<path d="M177.487 128.319L109.844 166.741L65.9484 191.667C65.5264 191.902 65.1364 192.19 64.788 192.524C81.5264 175.346 90.8845 152.304 90.8637 128.319C90.8956 104.331 81.5398 81.2826 64.7971 64.1034C65.1536 64.4423 65.5499 64.7366 65.9773 64.9799L177.488 128.319H177.487Z" fill="#A97FF2"/>
</svg>