<svg width="256" height="256" title="BurnCloud" viewBox="0 0 256 256" fill="none" xmlns="http://www.w3.org/2000/svg" id="burncloud">
<style>
#burncloud {
    rect {fill: #15191C}

    @media (prefers-color-scheme: light) {
        rect {fill: #F4F2ED}
    }
}
</style>
<rect width="256" height="256" rx="40" fill="#15191C"/>
<path d="M173.812 113.405C170.687 108.723 167.042 103.781 162.875 98.5783C162.875 98.5783 148.812 82.1909 151.156 58C151.156 58 97.25 79.0695 96.4687 121.989C96.4687 121.989 88.6562 109.503 90.2187 86.0927C90.2187 86.0927 73.0312 102.48 70.6875 129.012C54.2812 134.475 41 148.521 41 162.567C41 182.076 62.0937 198.464 87.0937 198.464C68.3437 195.342 54.2812 182.856 54.2812 167.249C54.2812 156.324 60.5312 147.741 69.9062 141.498C70.4271 147.22 71.7292 153.463 73.8125 160.226C73.8125 160.226 83.1875 189.88 116 197.683C125.375 200.024 135.531 199.244 144.906 195.342C155.062 190.66 166.781 181.296 166.781 160.226C166.781 160.226 167.562 139.157 155.062 128.232C155.062 128.232 171.469 167.249 141 178.955C130.844 182.856 120.687 182.856 110.531 178.955C97.25 173.492 80.8437 159.446 83.1875 122.769C83.1875 122.769 91 149.301 108.187 159.446C108.187 159.446 92.5625 114.185 138.656 82.9713C138.656 82.9713 142.562 99.3587 153.5 108.723C156.625 111.844 184.75 133.694 179.281 171.151C184.75 164.128 189.438 146.96 184.75 133.694C184.75 133.694 183.969 130.573 181.625 126.671C193.344 129.012 202.719 138.376 203.5 159.446C204.281 177.394 191 192.221 173.812 198.464C197.25 195.342 216 177.394 216 154.764C216 132.914 198.812 114.966 173.812 113.405Z" fill="url(#linearGradient)"/>
<linearGradient id="linearGradient" x1="128.953" y1="101.84" x2="128.638" y2="174.007" gradientUnits="userSpaceOnUse">
<stop stop-color="#F7B52C"/>
<stop offset="1" stop-color="#E95513"/>
</linearGradient>
</svg>