<svg width="256" height="256" title="ByteDance" viewBox="0 0 256 256" fill="none" xmlns="http://www.w3.org/2000/svg" id="bytedance">
<style>
#bytedance {
    rect {fill: #15191C}

    @media (prefers-color-scheme: light) {
        rect {fill: #F4F2ED}
    }
}
</style>
<rect width="256" height="256" rx="40" fill="#15191C"/>
<path d="M147.904 168.546L136.673 165.618V112.118L148.695 109.079C155.285 107.408 160.822 106.046 161.085 106.099C161.296 106.099 161.455 120.803 161.455 138.809V171.526L160.295 171.474C159.609 171.474 154.02 170.118 147.904 168.546Z" fill="#00C8D2"/>
<path d="M95.5455 155.092C95.5455 137.092 95.7037 122.329 95.9673 122.329C96.1782 122.276 101.715 123.645 108.358 125.316L120.327 128.349L120.222 154.993L120.064 181.632L109.307 184.408C103.402 185.921 97.8655 187.335 97.0746 187.493L95.5455 187.862V155.092Z" fill="#3C8CFF"/>
<path d="M176.218 128.349C176.218 68.9406 176.271 65.7498 177.167 66.0129C177.642 66.1708 182.335 67.3748 187.555 68.684C192.775 70.0458 197.942 71.3485 199.049 71.6116L201 72.138L200.736 184.822L190.033 187.546C184.18 189.059 178.644 190.421 177.8 190.638L176.218 191V128.349Z" fill="#78E6DC"/>
<path d="M56 128.559C56 97.7827 56.1582 72.6051 56.4218 72.6051C56.6327 72.6051 62.1691 73.9669 68.76 75.5919L80.7818 78.6248V128.506C80.7818 155.875 80.6764 178.336 80.5709 178.336C80.4127 178.336 74.8236 179.75 68.18 181.428L56 184.507V128.559Z" fill="#325AB4"/>
</svg>