<svg width="256" height="256" title="Caddy" viewBox="0 0 256 256" fill="none" xmlns="http://www.w3.org/2000/svg" id="caddyserver">
<style>
#caddyserver {
    rect {fill: #15191C}

    @media (prefers-color-scheme: light) {
        rect {fill: #F4F2ED}
    }
}
</style>
<rect width="256" height="256" rx="40" fill="#15191C"/>
<path fill-rule="evenodd" clip-rule="evenodd" d="M198.961 111.248C200.972 121.024 200.781 130.671 199.122 139.928C197.439 149.319 194.019 158.2 189.157 166.233C187.221 169.437 185.081 172.516 182.731 175.445C180.39 178.346 177.859 181.118 175.125 183.7C167.088 191.3 157.35 197.352 146.052 200.79C137.109 203.598 128.057 204.649 119.231 204.059C109.937 203.428 100.946 201.071 92.6529 197.192L91.8435 198.744C100.104 203.468 109.227 206.637 118.791 208.082C128.163 209.502 137.92 209.212 147.725 207.035C160.446 204.063 171.775 198.24 181.044 190.258C184.253 187.497 187.193 184.448 189.847 181.194C192.509 177.911 194.89 174.409 196.922 170.717C201.958 161.583 205.169 151.41 206.078 140.851C206.944 130.818 205.707 120.487 202.338 110.343L198.961 111.248Z" fill="#0090DD"/>
<path fill-rule="evenodd" clip-rule="evenodd" d="M70.4453 178.915C66.7442 174.859 63.4351 170.376 60.6905 165.459C58.016 160.665 55.8854 155.494 54.2979 150.01C53.6896 147.27 53.2219 144.556 52.9485 141.829C51.8326 130.67 53.6391 119.832 57.1882 109.735C59.0907 104.318 61.6242 99.1948 64.5261 94.2809C68.3783 87.7508 72.954 81.6433 78.4946 76.3564C86.6437 68.5849 96.5308 62.3903 108.019 58.8496C117.37 55.9714 126.845 54.9102 136.035 55.7618C142.419 56.3505 148.681 57.7428 154.553 60.0745C161.199 62.7128 167.32 66.5447 172.831 71.0925C178.25 75.5624 182.971 80.8873 186.946 86.8102C187.468 87.5951 187.816 88.4912 188.465 89.178C188.966 89.699 189.542 89.9042 190.13 90.3247L192.507 88.8142C192.362 88.0693 192.374 87.4368 192.062 86.7495C191.653 85.8444 190.879 85.1655 190.265 84.3924C183.774 76.2276 175.754 69.6028 166.804 64.6147C162.991 62.4892 159.004 60.6929 154.921 59.1408C150.412 57.4201 145.774 56.0039 141.005 55.0081C130.11 52.7378 118.606 52.5573 107.043 55.206C94.5079 58.0766 83.331 63.7436 74.1744 71.5666C67.8064 77.011 62.3168 83.4276 58.2336 90.6491C55.1693 96.0689 52.9272 101.949 51.4366 108.026C48.7554 118.97 48.7341 130.55 51.1485 142.106C51.7212 144.843 52.3871 147.568 53.2456 150.292C54.639 155.943 56.6568 161.273 59.1254 166.277C61.6924 171.485 64.7554 176.329 68.3054 180.748L70.4453 178.915Z" fill="#0090DD"/>
<path d="M185.702 96.6537C184.757 102.846 189.076 108.721 195.268 109.666C198.536 110.165 201.71 109.2 204.125 107.269C206.284 105.537 207.833 103.03 208.28 100.1C209.225 93.9079 204.906 88.0329 198.714 87.0877C192.522 86.1425 186.647 90.4616 185.702 96.6537Z" stroke="#0090DD" stroke-width="3.58064" stroke-linecap="round" stroke-linejoin="round"/>
<path fill-rule="evenodd" clip-rule="evenodd" d="M172.425 121.823C172.425 121.823 174.421 119.961 176.91 117.518C181.284 113.222 187.148 107.217 187.148 107.217L185.225 104.963C185.225 104.963 178.379 109.825 173.448 113.468C170.652 115.551 168.501 117.233 168.501 117.233L172.425 121.823Z" fill="#0090DD"/>
<path d="M117.028 176.26H160.235C162.65 176.26 164.605 174.304 164.605 171.89V128.484C164.605 126.07 162.65 124.114 160.235 124.114H95.9716C93.5573 124.114 91.6018 126.07 91.6018 128.484V154.14" stroke="#22B638" stroke-width="5.88595"/>
<path d="M107.245 124.114V103.256C107.245 91.8154 116.663 82.3979 128.103 82.3979C139.544 82.3979 148.962 91.8154 148.962 103.256V124.114" stroke="#22B638" stroke-width="5.88595" stroke-linecap="round" stroke-linejoin="round"/>
<path d="M103.799 183.595C104.198 180.564 103.8 177.599 102.769 174.913C100.486 168.952 95.075 164.361 88.3536 163.478C78.6006 162.197 69.5178 169.171 68.2368 178.924C66.9557 188.677 73.9295 197.76 83.6826 199.041C93.4357 200.322 102.518 193.348 103.799 183.595Z" stroke="#0090DD" stroke-width="5.24827" stroke-linecap="round" stroke-linejoin="round"/>
<path fill-rule="evenodd" clip-rule="evenodd" d="M123.318 148.09C123.318 148.09 112.31 154.652 104.405 159.758C99.9287 162.646 96.5428 165.073 96.5428 165.073L103.561 174.042C103.561 174.042 106.718 171.328 110.604 167.682C117.458 161.234 126.489 152.134 126.489 152.134L123.318 148.09Z" fill="#0090DD"/>
</svg>