<svg width="256" height="256" title="Cairo" viewBox="0 0 256 256" fill="none" xmlns="http://www.w3.org/2000/svg" id="cairo">
<style>
#cairo {
    rect {fill: #15191C}

    @media (prefers-color-scheme: light) {
        rect {fill: #F4F2ED}
    }
}
</style>
<rect width="256" height="256" rx="40" fill="#15191C"/>
<path fill-rule="evenodd" clip-rule="evenodd" d="M118.721 46.3271C106.992 47.7873 93.3128 53.0724 82.8515 60.1831C76.5387 64.4745 66.0627 75.0733 61.7945 81.4867C51.7707 96.5489 47.3889 112.261 48.0682 130.712C48.6941 147.73 53.0899 161.386 62.3977 175.228C63.9538 177.542 65.4111 179.219 65.6363 178.952C65.8614 178.687 67.3875 176.54 69.027 174.183C75.5821 164.763 85.1813 154.32 99.1893 141.371C103.758 137.147 105.597 133.423 107.267 125.006C110.881 106.796 118.923 100.98 140.404 101.039C154.548 101.078 165.048 104.15 165.048 108.248C165.048 108.565 162.77 108.947 159.986 109.098C151.961 109.534 146.119 112.771 144.798 117.514C144.05 120.204 144.035 125.162 144.76 130.406C145.063 132.595 145.5 137.452 145.731 141.2L146.151 148.015L142.317 146.119C138.868 144.413 137.953 144.23 133.204 144.297C126.852 144.386 120.384 145.989 112.656 149.391C106.889 151.93 97.5516 157.262 97.5516 158.015C97.5516 158.25 100.381 157.529 103.841 156.414C113.164 153.408 118.476 152.402 127.004 152.029C135.322 151.666 138.352 152.16 141.792 154.441C147.628 158.311 148.639 168.727 144.395 181.224C141.371 190.124 136.292 198.221 128.937 205.867L124.962 210H130.505C144.461 210 160.575 204.657 173.586 195.714C179.113 191.915 188.094 183.145 192.5 177.244C196.434 171.975 201.784 161.74 203.999 155.249C206.912 146.711 208 139.389 208 128.322C208 122.054 207.646 116.292 207.051 112.884C200.344 74.4298 166.015 45.5109 127.663 46.0063C123.757 46.0565 119.733 46.201 118.721 46.3271ZM133.024 58.9923C120.903 62.3463 117.125 77.1929 126.195 85.8282C130.2 89.6426 137.775 91.1512 142.671 89.11C148.334 86.7491 152.776 80.4159 152.776 74.7017C152.776 64.1432 142.872 56.2665 133.024 58.9923Z" fill="#FF4C4C"/>
</svg>