<svg width="256" height="256" title="Cake Build" viewBox="0 0 256 256" fill="none" xmlns="http://www.w3.org/2000/svg" id="cakebuild">
<style>
#cakebuild {
    rect {fill: #15191C}

    @media (prefers-color-scheme: light) {
        rect {fill: #F4F2ED}
    }
}
</style>
<rect width="256" height="256" rx="40" fill="#15191C"/>
<path d="M53 110.464L115.093 61.9236L116.141 61.7651C119.405 61.2717 123.069 61.0215 127.03 61.0215C139.708 61.0215 153.895 63.5758 165.954 68.0295C180.911 73.5534 192.318 81.7956 198.943 91.865L199.608 92.8751V125.113C199.608 127.577 199.275 129.348 198.531 130.853C197.914 132.1 197.027 133.094 195.921 133.79V180.164L53 201.937V110.464Z" fill="#4A1700"/>
<path d="M56.9505 136.713L191.268 116.251V176.468L56.9505 196.93V136.713Z" fill="#995700"/>
<path d="M190.917 116.559V176.242L57.1261 196.624V136.939L190.917 116.557M191.443 115.944L56.5994 136.487V197.237L191.443 176.694V115.944Z" fill="#995700"/>
<path d="M130.518 123.411V185.746L159.313 181.38V119.088L130.518 123.411Z" fill="#4A1700"/>
<path d="M130.69 185.746L164.574 205.912C164.574 205.912 178.346 212.648 189.024 212.985C199.703 213.323 200.083 202.976 200.083 202.976L162.282 180.925L130.69 185.746Z" fill="#4A1700"/>
<path d="M189.024 212.985C185.663 212.985 181.916 212.259 178.744 210.993C174.807 209.421 172.017 207.15 170.676 204.425C152.995 168.64 123.285 108.485 122.977 107.703C122.2 105.733 120.828 103.36 120.149 102.23C118.463 101.368 114.114 99.1278 109.716 96.7213C97.6819 90.1354 96.9643 88.7673 96.4721 87.7682L92.7685 80.4466V76.3815V73.0632L96.2569 72.5772L96.6302 72.5277L94.45 60.1816L94.3842 50.9899L94.4003 50.9885C94.2925 48.0275 96.4883 47.5617 96.945 47.4973C97.7804 47.3794 102.271 46.8508 102.462 46.8283L104.486 46.5902L115.918 69.8097L125.083 68.5164L118.799 52.6828L118.709 44.3221L128.639 43.043C128.842 43.0144 129.048 43 129.252 43C130.669 43 131.852 43.6937 132.582 44.4292L158.285 64.7132L158.408 64.8368C159.965 66.4049 161.159 68.9661 161.446 69.6089L165.633 78.3999V85.0419L164.851 85.8748C164.536 86.2089 157.847 93.2896 152.824 97.845C162.641 116.975 201.545 192.69 201.953 193.483L201.976 193.527C202.408 194.404 202.7 195.309 202.85 196.226L203 196.463L202.964 203.205L202.931 203.417C202.573 205.73 201.407 207.819 199.558 209.458C197.612 211.184 195.053 212.3 191.952 212.776C191.05 212.915 190.065 212.985 189.024 212.985Z" fill="#4A1700"/>
<path d="M162.736 78.69V83.8966C162.736 83.8966 150.792 96.5677 146.919 98.9097C143.045 101.252 145.215 94.2257 145.215 94.2257L162.736 78.69Z" fill="#534741" stroke="#4A1700" stroke-miterlimit="2"/>
<path d="M200.083 202.976C199.603 206.072 196.92 209.098 191.514 209.927C185.786 210.807 175.82 208.348 173.261 203.152C173.261 203.152 125.969 107.432 125.658 106.645C124.486 103.674 122.182 100.031 122.182 100.031C122.182 100.031 100.286 88.9739 99.0654 86.4948L95.6655 79.7663V75.4771L133.218 91.8589L200.095 197.293L200.083 202.976Z" fill="#534741" stroke="#4A1700" stroke-miterlimit="10"/>
<path d="M121.651 46.9435V52.1315L131.645 77.2729L133.232 70.2741L121.651 46.9435Z" fill="#534741" stroke="#4A1700" stroke-miterlimit="2"/>
<path d="M97.272 50.9674L97.3416 59.9013L101.432 82.9354H102.829L102.437 74.6104L97.272 50.9674Z" fill="#534741" stroke="#4A1700" stroke-miterlimit="2"/>
<path d="M123.777 96.8412C123.777 96.8412 100.292 84.7852 99.0709 82.3058L95.6783 75.5759L133.257 70.274L121.761 46.9243L129.042 45.897C129.973 45.7655 130.624 46.5551 130.624 46.5551L156.363 66.8676C157.678 68.1925 158.837 70.829 158.837 70.829C158.837 70.829 161.975 77.2039 162.706 78.69C163.439 80.1762 148.098 93.4129 148.098 93.4129C148.098 93.4129 147.598 93.9296 148.013 94.7733C148.428 95.6164 199.39 194.8 199.39 194.8C201.969 200.041 196.904 204.932 191.498 205.762C185.77 206.642 176.61 203.571 174.052 198.376C174.052 198.376 125.629 99.0302 125.255 98.2706C124.881 97.5111 123.777 96.8412 123.777 96.8412Z" fill="#736357" stroke="#4A1700" stroke-miterlimit="10"/>
<path d="M114.254 72.9552L102.8 49.6909C102.8 49.6909 98.1612 50.2368 97.3489 50.3515C96.5371 50.4659 102.437 74.6223 102.437 74.6223L114.254 72.9552Z" fill="#736357" stroke="#4A1700" stroke-miterlimit="10"/>
<path d="M136.54 76.7779L140.818 84.9546L120.919 87.5883L117.174 79.3615L136.54 76.7779Z" fill="#4A1700"/>
<path d="M119.602 80.8145L121.568 80.5279C121.568 80.5279 123.401 80.8608 124.422 82.4261C125.444 83.9914 125.144 85.7365 125.007 86.3153L123.046 86.6103C123.318 85.7854 123.576 84.0253 122.63 82.7999C121.743 81.6504 119.602 80.8145 119.602 80.8145Z" fill="#736357"/>
<path d="M124.835 80.0925L126.8 79.8059C126.8 79.8059 128.634 80.1388 129.655 81.7043C130.676 83.2696 130.376 85.0146 130.24 85.5935L128.278 85.8885C128.55 85.0636 128.809 83.3035 127.863 82.0781C126.975 80.9282 124.835 80.0925 124.835 80.0925Z" fill="#736357"/>
<path d="M129.935 79.3689L131.9 79.0824C131.9 79.0824 133.734 79.4153 134.755 80.9807C135.776 82.546 135.476 84.2911 135.34 84.8698L133.379 85.1648C133.65 84.3399 133.909 82.5797 132.963 81.3544C132.075 80.2047 129.935 79.3689 129.935 79.3689Z" fill="#736357"/>
<path d="M130.559 125.893L132.625 125.455V100.932C132.625 100.932 119.144 98.5609 114.271 95.9131L130.559 125.893Z" fill="#4A1700"/>
<path d="M115.918 69.8094L125.083 68.5161L123.736 65.122C121.189 65.2194 118.81 65.4326 116.657 65.7581L114.683 67.3011L115.918 69.8094Z" fill="white"/>
<path d="M161.799 70.98L165.282 78.3999V85.0419L164.675 85.8748C164.36 86.2089 157.76 93.2897 152.736 97.845C153.014 98.3869 153.326 98.9761 153.648 99.6059L195.191 94.0847C188.168 83.1045 175.367 75.6024 161.799 70.98Z" fill="white"/>
<path d="M191.443 115.944V130.9C194.604 130.781 195.131 128.05 195.131 125.113V94.0847L153.615 99.6059C156.07 104.421 159.724 111.713 164.057 120.151L191.443 115.944Z" fill="#FFE05C"/>
<path d="M109.723 96.7211C97.6884 90.1352 97.0113 88.7671 96.5192 87.7681L94.2219 83.2632L56.8627 112.433L130.584 102.677C130.584 102.677 114.12 99.1276 109.723 96.7211Z" fill="white"/>
<path d="M130.602 125.897L130.518 102.677L56.7749 112.433V136.575L130.602 125.897Z" fill="#FFE05C"/>
<path d="M164.053 120.07V98.2985C164.053 98.2985 156.794 94.0847 159.812 90.985L152.758 97.8452L164.053 120.07Z" fill="#FFE05C"/>
<path d="M63.8351 111.532L106.483 105.884C106.483 105.884 91.1891 108.98 79.3955 110.434C73.823 111.121 63.8351 111.532 63.8351 111.532Z" fill="#4A1700"/>
<path d="M179.184 96.2548L195.569 94.0847L196.284 95.0681C189.146 95.7939 179.184 96.2548 179.184 96.2548Z" fill="#4A1700"/>
</svg>