<svg width="256" height="256" title="Camtasia" viewBox="0 0 256 256" fill="none" xmlns="http://www.w3.org/2000/svg">
<rect width="256" height="256" rx="40" fill="url(#linearGradient)"/>
<path d="M93.3973 79.3973H61V175.758H93.3973V79.3973Z" fill="#D7E5C7"/>
<path d="M169.971 176.764L195.058 202.515C195.514 202.983 195.821 203.574 195.942 204.217C196.063 204.858 195.993 205.521 195.74 206.123C195.486 206.724 195.061 207.238 194.518 207.6C193.973 207.961 193.335 208.155 192.683 208.156H93.5551C93.1107 208.156 92.6708 208.068 92.2612 207.895C91.8517 207.722 91.481 207.469 91.171 207.151L61 175.758H167.587C168.032 175.758 168.472 175.847 168.881 176.019C169.291 176.192 169.661 176.445 169.971 176.764Z" fill="white"/>
<path d="M169.971 78.3921L195.058 52.6405C195.514 52.1726 195.821 51.5809 195.942 50.9393C196.063 50.2977 195.993 49.6346 195.74 49.033C195.486 48.4312 195.061 47.9175 194.518 47.556C193.973 47.1944 193.335 47.001 192.683 47H93.5551C93.1107 46.9996 92.6708 47.0883 92.2612 47.261C91.8517 47.4336 91.481 47.6867 91.171 48.0051L61 79.3973H167.587C168.032 79.3977 168.472 79.309 168.881 79.1363C169.291 78.9637 169.661 78.7106 169.971 78.3921Z" fill="white"/>
<linearGradient id="linearGradient" x1="128" y1="0" x2="128" y2="256" gradientUnits="userSpaceOnUse">
<stop stop-color="#A3CF4D"/>
<stop offset="1" stop-color="#4EA456"/>
</linearGradient>
</svg>