<svg width="256" height="256" title="Camunda" viewBox="0 0 256 256" fill="none" xmlns="http://www.w3.org/2000/svg">
<rect width="256" height="256" rx="40" fill="#FC5D0D"/>
<path d="M43.6172 141.399C50.6159 141.399 54.2495 137.261 54.256 130.002V123.976H47.5171V130.457C47.5171 133.698 46.089 134.862 43.8191 134.862C41.5492 134.862 40.1276 133.691 40.1297 130.451L40.1512 105.954C40.1512 102.716 41.5793 101.485 43.8492 101.488C46.1191 101.49 47.5407 102.722 47.5386 105.961V110.823H54.2774V106.416C54.2817 99.1554 50.6567 95.0064 43.658 95C36.6593 94.9936 33.0258 99.1382 33.0193 106.397L33 129.985C32.9936 137.243 36.61 141.395 43.6172 141.399Z" fill="white"/>
<path d="M64.4909 132.669H73.2399L74.4639 140.901H81.658L74.4382 95.5455H64.0035L56.702 140.901H63.2454L64.4909 132.669ZM68.8568 103.575L72.2735 126.521H65.4015L68.8568 103.575Z" fill="white"/>
<path d="M91.1457 108.843L96.4328 140.926L103.172 140.931L108.124 108.405L108.096 140.937L114.837 140.941L114.876 95.5798L104.961 95.5712L100.073 127.773L94.8501 95.5627L84.9351 95.5541L84.8965 140.916L91.1178 140.922L91.1457 108.843Z" fill="white"/>
<path d="M130.323 141.538C137.321 141.538 140.955 137.4 140.961 130.142L140.989 95.597H134.25L134.22 130.601C134.22 133.842 132.792 135.008 130.522 135.006C128.252 135.004 126.831 133.835 126.833 130.597L126.863 95.5927H119.733L119.705 130.133C119.699 137.381 123.324 141.532 130.323 141.538Z" fill="white"/>
<path d="M152.191 108.117L161.04 140.98L168.363 140.987L168.402 95.6249L162.05 95.6185L162.028 122.771L154.729 95.612L145.785 95.6056L145.746 140.967L152.163 140.974L152.191 108.117Z" fill="white"/>
<path d="M195.394 129.798L195.413 106.858C195.413 99.5999 191.924 95.6443 184.796 95.6378H173.519L173.481 140.999L184.757 141.01C191.885 141.006 195.387 137.057 195.394 129.798ZM180.615 134.523L180.643 102.119H184.661C186.928 102.119 188.288 103.289 188.286 106.528L188.266 130.116C188.266 133.356 186.901 134.523 184.633 134.52L180.615 134.523Z" fill="white"/>
<path d="M205.833 132.79H214.582L215.806 141.021H223L215.772 95.6657H205.339L198.037 141.023H204.583L205.833 132.79ZM210.192 103.695L213.607 126.639H206.735L210.192 103.695Z" fill="white"/>
<path d="M222.991 148.063H33V160.08H222.991V148.063Z" fill="white"/>
</svg>