<svg width="256" height="256" title="CapCut" viewBox="0 0 256 256" fill="none" xmlns="http://www.w3.org/2000/svg">
<rect width="256" height="256" rx="40" fill="white"/>
<path d="M211 89.8862V64.161L180.058 80.4039V79.4428C180.058 69.1883 172.709 63 162.066 63H63.9871C52.7769 63 46 69.1883 46 79.4428V105.362L89.3236 127.799L46 150.43V176.35C46 186.41 52.7769 192.598 63.9871 192.598H162.061C172.698 192.598 180.042 186.41 180.042 176.35V175L210.989 191.437V165.329L139.041 127.799L211 89.8862ZM114.093 140.559L167.293 168.423H60.6878L114.082 140.559H114.093ZM166.904 87.1808L114.088 114.839L60.6986 87.1808H166.893H166.904Z" fill="black"/>
</svg>