<svg width="256" height="256" title="CatBoost" viewBox="0 0 256 256" fill="none" xmlns="http://www.w3.org/2000/svg">
<rect width="256" height="256" rx="40" fill="#FFCC00"/>
<path d="M162.661 94.8331C179.736 94.8331 193.578 80.9913 193.578 63.9166C193.578 46.8418 179.736 33 162.661 33C145.586 33 131.744 46.8418 131.744 63.9166C131.744 80.9913 145.586 94.8331 162.661 94.8331Z" fill="#FF0000"/>
<path d="M160.123 83.8124L152.573 82.1394L136.859 153.053L144.409 154.726L160.123 83.8124Z" fill="#FF0000"/>
<path d="M94.0627 94.8331C111.137 94.8331 124.979 80.9913 124.979 63.9166C124.979 46.8418 111.137 33 94.0627 33C76.988 33 63.1461 46.8418 63.1461 63.9166C63.1461 80.9913 76.988 94.8331 94.0627 94.8331Z" fill="white"/>
<path d="M113.482 156.365L121.032 154.692L105.318 83.7787L97.7684 85.4517L113.482 156.365Z" fill="white"/>
<path d="M205.708 127.853C217.899 127.853 227.782 117.971 227.782 105.779C227.782 93.5883 217.899 83.7054 205.708 83.7054C193.517 83.7054 183.634 93.5883 183.634 105.779C183.634 117.971 193.517 127.853 205.708 127.853Z" fill="white"/>
<path d="M153.824 148.941L158.685 154.362L197.295 119.741L192.435 114.32L153.824 148.941Z" fill="white"/>
<path d="M51.074 130.816C63.2651 130.816 73.1479 120.933 73.1479 108.742C73.1479 96.551 63.2651 86.6682 51.074 86.6682C38.8829 86.6682 29 96.551 29 108.742C29 120.933 38.8829 130.816 51.074 130.816Z" fill="white"/>
<path d="M98.4792 156.78L103.468 151.477L65.6983 115.941L60.7093 121.244L98.4792 156.78Z" fill="white"/>
<path d="M129.428 222.906C153.663 222.906 173.31 203.259 173.31 179.023C173.31 154.787 153.663 135.14 129.428 135.14C105.192 135.14 85.545 154.787 85.545 179.023C85.545 203.259 105.192 222.906 129.428 222.906Z" fill="#FF0000"/>
</svg>