<svg width="256" height="256" title="Catch2" viewBox="0 0 256 256" fill="none" xmlns="http://www.w3.org/2000/svg">
<rect width="256" height="256" rx="40" fill="#F4F2ED"/>
<path d="M60.0172 178C59.5623 178 58.6523 178 57.5591 177.5C56.4658 176.999 55.1892 175.998 54.1231 175.166C53.0571 174.335 52.2015 173.672 51.3051 172.197C50.4088 170.723 49.4717 168.437 48.3106 166.354C47.1494 164.271 45.7642 162.391 44.6641 161.35C43.5641 160.308 42.7492 160.106 41.6152 159.443C40.4812 158.78 39.0281 157.657 38.1182 156.9C37.2083 156.142 36.8416 155.75 36.0628 154.748C35.2841 153.745 34.0932 152.133 33.5002 150.38C32.9072 148.627 32.912 146.733 33.152 144.598C33.3921 142.463 33.8675 140.086 34.6574 137.233C35.4474 134.381 36.5519 131.053 37.919 127.435C39.2861 123.816 40.9158 119.907 42.8375 116.046C44.7592 112.184 46.9729 108.37 49.3291 104.799C51.6854 101.228 54.1843 97.9009 57.1041 94.6344C60.024 91.368 63.3649 88.1624 66.1489 85.836C68.933 83.5095 71.1603 82.0623 73.1159 81.0884C75.0715 80.1146 76.7556 79.6141 77.8895 79.3301C79.0235 79.0461 79.6075 78.9784 80.5242 79.0055C81.4409 79.0325 82.6904 79.1543 84.7886 79.6209C86.8868 80.0875 89.8339 80.8991 92.2784 81.501C94.7229 82.1029 96.665 82.4951 97.8397 82.7318C99.0145 82.9685 99.4219 83.0497 100.087 83.2661C100.753 83.4825 101.676 83.8342 102.573 84.2196C103.469 84.6051 104.338 85.0244 105.397 85.6398C106.457 86.2553 107.706 87.0668 108.772 87.7972C109.838 88.5276 110.721 89.1768 111.835 89.9748C112.948 90.7728 114.293 91.7196 115.162 92.3148C116.031 92.9099 116.425 93.1534 117.118 93.7958C117.81 94.4383 118.802 95.4798 119.766 96.3995C120.73 97.3193 121.667 98.1173 122.339 98.7057C123.012 99.294 123.419 99.6727 124.628 100.396C125.837 101.12 127.847 102.189 129.707 102.574C131.568 102.959 133.279 102.662 134.353 102.457C135.426 102.253 135.862 102.142 137.219 101.636C138.575 101.131 140.85 100.232 142.562 99.503C144.274 98.7737 145.447 98.2019 146.482 97.9116C147.517 97.6213 148.51 97.5863 149.564 97.6279C150.618 97.6695 151.788 97.7897 152.705 98.0476C153.622 98.3054 154.367 98.7233 156.381 99.9676C158.394 101.212 161.694 103.293 164.222 104.287C166.75 105.282 168.507 105.191 170.694 105.026C172.882 104.861 175.498 104.622 178.235 102.881C180.972 101.141 183.829 97.8986 185.663 95.981C187.497 94.0634 188.309 93.4704 189.634 92.7937C190.959 92.1171 192.798 91.3567 194.841 90.6275C196.884 89.8982 199.132 89.2 201.071 88.4397C203.011 87.6793 204.644 86.8568 206.329 86.2925C208.014 85.7283 209.753 85.4222 211.275 85.3218C212.797 85.2214 214.103 85.3266 215.356 85.7761C216.609 86.2256 217.81 87.0194 218.736 87.7606C219.663 88.5018 220.316 89.1905 220.959 90.1182C221.603 91.0459 222.237 92.2127 222.625 93.8912C223.014 95.5697 223.158 97.7599 222.774 100.548C222.39 103.336 221.478 106.721 220.787 109.787C220.095 112.852 219.625 115.597 219.62 118.643C219.614 121.689 220.076 125.037 220.743 128.422C221.411 131.808 222.285 135.232 222.664 137.771C223.043 140.311 222.928 141.965 221.992 143.835C221.055 145.705 219.298 147.79 217.353 148.89C215.409 149.989 213.269 150.105 210.767 149.995C208.265 149.886 205.325 149.546 202.762 149.626C200.2 149.706 197.862 150.21 195.372 150.865C192.882 151.519 190.201 152.333 186.143 152.83C182.086 153.327 176.651 153.509 171.196 153.485C165.742 153.461 160.268 153.232 154.727 153.198C149.186 153.165 143.578 153.327 137.686 153.375C131.795 153.423 125.62 153.356 122.052 153.48C118.485 153.605 117.525 153.92 116.137 154.614C114.749 155.307 112.934 156.378 111.278 157.512C109.621 158.645 108.123 159.841 106.491 160.864C104.858 161.887 103.091 162.738 101.281 163.504C99.4709 164.269 97.6175 164.948 94.7462 165.765C91.8748 166.583 87.9856 167.54 84.975 168.4C81.9645 169.261 79.8326 170.026 78.2721 170.653C76.7116 171.279 75.7225 171.767 74.3492 172.523C72.976 173.278 71.2186 174.301 69.7782 175.181C68.3377 176.061 67.2141 176.798 66.1866 177.242C65.1591 177.687 64.2276 177.84 63.2912 177.918C62.3548 177.995 61.4135 177.998 60.9428 177.999C60.4722 178 60.4722 178 60.0172 178Z" fill="white"/>
<path d="M96.6635 131.617C97.573 132.882 99.3421 133.291 100.83 133.059C101.607 132.938 103.748 132.265 103.748 131.645V127.242C103.748 127.151 102.214 125.481 99.0799 125.915C96.511 126.196 95.0203 129.332 96.6635 131.617Z" fill="#FF2500"/>
<path d="M96.8992 110.952C93.5269 111.409 90.8478 113.763 88.6751 116.221C84.2096 121.273 80.1735 127.936 79.8701 134.837C79.7881 136.703 79.8939 138.635 80.5388 140.405C82.6617 146.229 89.479 146.496 94.5409 144.864C97.7217 143.838 100.998 141.887 103.363 139.535C104.203 138.699 105.505 137.295 104.934 135.972C104.668 135.354 103.904 135.39 103.363 135.565C102.116 135.968 101.034 136.819 99.9563 137.534C97.1188 139.417 93.8217 141.015 90.3482 141.014C88.5938 141.013 86.6954 140.508 85.6353 139.013C84.4835 137.389 84.7201 135.203 85.042 133.358C85.847 128.744 88.3756 123.946 91.1671 120.223C92.316 118.69 93.9889 116.302 96.1131 116.142C96.9956 116.076 97.5829 116.711 97.9662 117.439C98.6833 118.801 98.7203 120.39 99.3341 121.789C99.7171 122.662 100.625 123.745 101.703 123.229C103.163 122.529 103.54 120.349 103.538 118.918C103.532 115.419 101.041 110.39 96.8992 110.952Z" fill="black"/>
<path d="M97.5908 129.688V129.291H98.6267V128.217H99.0145V129.291H100.029V129.688H99.0145V130.741H98.6267V129.688H97.5908Z" fill="black"/>
<path d="M100.385 129.688V129.291H101.421V128.217H101.809V129.291H102.824V129.688H101.809V130.741H101.421V129.688H100.385Z" fill="black"/>
<path d="M207.066 105.102C207.677 104.544 208.5 104.234 209.21 103.682C211.71 101.736 215.984 97.8066 215.063 94.762C214.715 93.609 213.403 92.9804 212.148 93.0628C210.852 93.1479 209.533 93.7309 208.674 94.17C207.771 94.6317 206.868 94.5992 206.579 95.3138C206.173 96.3157 207.235 97.6685 208.272 97.5388C208.582 97.5001 208.89 97.3543 209.019 97.0777C209.307 96.4626 209.792 96.3173 210.784 95.8479C211.748 95.3917 212.796 95.1861 212.14 96.8285C211.198 99.1856 207.215 102.006 204.704 103.762C204.704 103.762 203.548 104.521 203.259 104.623C202.633 104.843 202.055 104.882 202.149 105.504C202.255 106.207 203.002 106.876 203.623 106.978C205.098 107.22 205.272 107 207.602 107.43C208.505 107.597 209.887 108.375 210.254 108.369C210.818 108.361 211.462 108.369 211.823 107.89C212.331 107.216 211.906 106.043 211.214 105.657C210.192 105.089 207.754 105.241 207.066 105.102Z" fill="#FF2500"/>
<path d="M106.661 128.725C106.865 128.725 107.031 128.56 107.031 128.356C107.031 128.153 106.865 127.988 106.661 127.988C106.456 127.988 106.291 128.153 106.291 128.356C106.291 128.56 106.456 128.725 106.661 128.725Z" fill="black"/>
<path d="M106.661 130.981C106.865 130.981 107.031 130.816 107.031 130.612C107.031 130.409 106.865 130.244 106.661 130.244C106.456 130.244 106.291 130.409 106.291 130.612C106.291 130.816 106.456 130.981 106.661 130.981Z" fill="black"/>
<path d="M104.165 131.605V127.299C104.401 127.374 105.517 128.02 105.517 129.443C105.517 130.866 104.523 131.543 104.165 131.605Z" fill="black"/>
<path d="M105.333 128.721L106.464 128.283L106.531 128.59L105.325 129.035L105.333 128.721Z" fill="black"/>
<path d="M105.34 130.244L106.362 130.61L106.497 130.367L105.374 129.896L105.34 130.244Z" fill="black"/>
<path d="M60.3617 170.167C59.8831 169.848 59.4116 169.147 59.3224 168.621C59.1911 167.847 59.5908 167.171 61.0291 165.737C67.7938 158.994 76.4204 155.354 91.5148 152.872C92.2615 152.749 93.1442 152.568 93.4762 152.47C94.8077 152.076 96.5367 151.199 100.056 149.134C103.318 147.219 104.07 146.895 105.243 146.895C105.925 146.895 106.757 147.777 106.757 148.5C106.757 149.057 105.864 150.498 105.197 151.016C104.441 151.603 103.018 152.533 101.321 153.548C98.3204 155.344 97.3543 155.762 94.2305 156.621C92.5593 157.08 88.8058 157.949 85.777 158.578C77.454 160.307 77.498 160.297 75.9221 160.961C73.5942 161.941 70.3321 163.789 66.5437 166.272C64.8972 167.351 64.8118 167.422 64.3588 168.068C63.6865 169.027 62.7635 169.964 62.2323 170.228C61.5626 170.56 60.9206 170.539 60.3617 170.167ZM43.6854 150.297C42.2155 149.908 41.6029 149.352 41.5325 148.343C41.514 148.077 41.4192 147.623 41.3219 147.336C41.2247 147.048 41.1451 146.635 41.1451 146.417C41.1451 145.608 44.3166 135.613 46.032 131.016C50.2347 119.752 54.9276 110.981 60.805 103.403C64.7528 98.3137 69.6615 93.4424 74.4767 89.8356C76.43 88.3726 78.3679 87.3026 79.6162 86.9979C80.554 86.769 81.766 86.8474 82.446 87.181C82.7339 87.3223 83.1343 87.5948 83.3357 87.7867C83.7475 88.179 83.8589 88.5897 83.7872 89.4513C83.7226 90.2267 83.4524 90.5172 81.7239 91.6691C80.8959 92.2209 79.2419 93.4416 78.0483 94.3819C75.1922 96.6317 73.8516 97.6178 71.8925 98.9096C70.379 99.9075 70.1733 100.077 68.7801 101.473C66.545 103.712 62.7027 108.396 61.6889 110.117C59.2823 114.203 55.3888 122.702 52.5941 129.969C50.2276 136.123 47.5322 144.197 47.0051 146.711C46.5517 148.874 46.2124 149.634 45.4692 150.151C44.9986 150.479 44.52 150.518 43.6854 150.297ZM70.9453 123.09C70.0461 122.613 69.4915 121.622 69.6506 120.777C69.7247 120.384 70.3689 119.417 71.2863 118.322C72.2065 117.224 75.7548 113.677 76.9732 112.638C83.8807 106.747 91.8137 102.55 101.019 99.9168C105.65 98.5922 108.186 98.4071 110.611 99.217C111.501 99.5145 111.908 99.7587 112.243 100.196C113.047 101.245 112.699 102.657 111.485 103.274C110.914 103.564 109.73 103.841 105.352 104.708C93.8795 106.98 90.3828 108.165 84.1564 111.889C82.5321 112.861 79.9412 114.847 77.6642 116.867C76.2685 118.105 75.8005 118.65 75.0411 119.919C74.1749 121.367 73.833 121.861 73.3482 122.367C72.5769 123.172 71.6343 123.456 70.9453 123.09ZM64.5417 120.659C64.3188 120.58 63.9604 120.334 63.6954 120.077C63.178 119.575 62.9905 119.091 63.0846 118.5C63.2494 117.467 65.3013 114.004 67.4293 111.168C73.0614 103.663 81.1575 97.3776 90.5077 93.2527C93.4777 91.9424 95.2534 91.4677 97.2087 91.4612C99.25 91.4547 100.542 91.8182 101.226 92.5922C102.148 93.6349 102.163 94.7173 101.267 95.5026C100.759 95.948 99.6752 96.3725 95.2378 97.8639C84.6903 101.409 81.1376 103.188 75.8717 107.566C73.992 109.128 71.4955 111.801 69.6545 114.222C68.8247 115.313 68.5224 115.879 67.9762 117.362C67.2213 119.413 66.6963 120.231 65.8968 120.602C65.388 120.837 65.0859 120.85 64.5417 120.659Z" fill="black"/>
<path d="M165.785 144.759C163.851 144.302 162.019 142.841 161.132 141.047C160.435 139.636 160.329 138.77 160.321 136.083C160.307 131.428 162.013 126.936 165.582 121.951C170.101 115.638 175.121 112.912 178.121 115.142C180.39 116.828 181.645 121.32 180.512 123.699C179.313 126.216 177.871 125.65 176.859 122.264C176.47 120.963 175.854 119.63 175.49 119.302C174.086 118.037 171.506 120.053 168.697 124.611C165.44 129.897 163.832 135.3 164.726 137.957C165.436 140.071 166.665 140.768 169.646 140.747C172.444 140.728 174.657 139.899 178.435 137.452C180.625 136.034 181.951 135.73 182.276 136.572C182.811 137.959 179.664 141.075 175.733 143.052C172.154 144.851 168.69 145.445 165.785 144.759ZM130.54 144.313C129.223 143.665 127.814 140.521 127.409 137.327C127.218 135.818 127.016 134.538 126.96 134.482C126.904 134.427 126.05 135.314 125.062 136.455C118.354 144.198 111.268 146.053 108.886 140.69C106.716 135.804 110.451 126.492 117.272 119.78C120.285 116.815 122.777 115.341 125.276 115.046C127.745 114.755 128.673 115.094 129.654 116.642C130.224 117.541 130.855 118.067 131.545 118.218C133.441 118.633 133.508 118.992 132.64 124.045C131.62 129.975 131.382 134.304 131.93 136.95C132.279 138.634 132.624 139.28 133.737 140.339C135.398 141.919 135.391 142.834 133.709 143.96C132.368 144.858 131.78 144.924 130.54 144.313ZM116.719 138.988C119.866 137.397 124.628 132.197 126.627 128.168C127.743 125.92 127.903 125.277 127.915 123.01C127.927 120.697 127.841 120.349 127.107 119.757C126.655 119.392 125.905 119.094 125.44 119.094C122.073 119.094 115.67 126.492 113.51 132.879C111.807 137.914 113.283 140.724 116.719 138.988ZM143.569 144.071C141.582 143.064 140.566 141.142 140.37 138.017C140.25 136.109 140.495 134.218 141.471 129.507C143.206 121.132 143.306 121.694 140.084 121.694C137.729 121.694 137.371 121.605 136.777 120.875C136.02 119.946 135.911 118.737 136.528 118.123C136.797 117.855 138.173 117.707 140.378 117.707H143.809L144.46 116.233C144.819 115.423 145.524 113.135 146.028 111.149C147.255 106.312 147.663 105.57 149.088 105.576C150.4 105.583 150.834 105.821 151.366 106.829C151.68 107.422 151.509 108.454 150.492 112.118C149.796 114.621 149.3 116.742 149.39 116.831C149.479 116.92 150.979 116.834 152.723 116.641C154.467 116.447 157.044 116.334 158.449 116.391L161.003 116.493L161.108 117.736C161.176 118.552 161.022 119.137 160.659 119.437C160.347 119.694 158.19 120.092 155.725 120.346C150.252 120.91 148.524 121.166 147.994 121.492C147.491 121.802 145.248 131.529 144.943 134.729C144.712 137.144 145.146 139.165 146.056 139.917C146.8 140.531 149.008 140.433 150.385 139.724C151.041 139.386 152.572 138.351 153.787 137.423C156.05 135.696 157.215 135.337 157.57 136.258C157.979 137.319 157.245 138.736 155.313 140.614C151.554 144.267 146.749 145.682 143.569 144.071ZM185.199 143.712C184.816 143.33 184.503 142.713 184.503 142.341C184.503 141.969 185.041 138.731 185.698 135.146C187.205 126.921 188.419 119.099 189.559 110.252C190.603 102.151 191.255 100.268 193.073 100.091C193.932 100.008 194.349 100.212 195.075 101.072C196.581 102.854 196.29 105.645 193.364 117.533C191.791 123.922 189.725 133.876 189.725 135.066C189.725 135.946 190.489 135.164 191.65 133.094C193.99 128.929 197.811 123.527 199.965 121.343C203.601 117.654 206.881 116.658 208.619 118.715C209.664 119.953 210.065 121.495 210.789 127.068C211.672 133.871 212.134 135.467 214.112 138.537C215.328 140.424 215.36 140.719 214.444 141.631C213.439 142.632 211.617 142.537 210.277 141.414C208.2 139.674 207.455 137.322 206.774 130.362C206.337 125.901 206.175 125.085 205.516 124.034C203.908 121.468 200.165 125.573 192.841 137.931C189.795 143.07 188.609 144.405 187.087 144.405C186.36 144.405 185.624 144.135 185.199 143.712Z" fill="black"/>
</svg>