<svg width="256" height="256" title="Celery" viewBox="0 0 256 256" fill="none" xmlns="http://www.w3.org/2000/svg">
<rect width="256" height="256" rx="40" fill="#F4F2ED"/>
<path d="M74.5945 93H208.116L209.315 93.1716L210.601 93.6005L211.801 94.201L212.743 94.8873L213.772 95.8309L214.629 96.9461L215.314 98.2328L215.743 99.5196L216 100.892V102.522L215.657 104.238L215.229 105.439L214.714 106.382L213.943 107.412L213.172 108.27L212.143 109.042L210.944 109.728L209.401 110.243L208.458 110.414L205.116 110.672L203.488 110.929L201.688 111.444L200.317 111.958L198.946 112.645L197.746 113.331L196.375 114.36L195.175 115.39L194.489 116.076L193.889 116.762L192.861 118.135L192.175 119.25L191.318 120.88L190.547 123.025L190.119 124.826L189.947 125.855L189.861 126.799V129.201L190.119 131.174L190.547 132.975L191.147 134.691L192.004 136.493L193.032 138.123L194.146 139.495L195.175 140.61L195.86 141.211L196.717 141.897L198.26 142.926L199.288 143.527L201.26 144.385L203.316 144.985L205.459 145.328L208.116 145.5L209.658 145.757L210.772 146.186L211.801 146.701L212.743 147.387L213.772 148.331L214.629 149.446L215.314 150.733L215.743 152.02L216 153.392V155.022L215.657 156.738L215.229 157.939L214.714 158.882L213.943 159.912L213.172 160.77L212.143 161.542L211.115 162.142L209.744 162.657L208.544 162.914L207.259 163H74.5945L72.5377 162.914L69.6239 162.485L67.31 161.971L64.9961 161.284L62.6822 160.426L60.454 159.397L58.8257 158.539L56.8546 157.338L55.3976 156.309L54.1978 155.365L53.0837 154.422L52.0553 153.478L49.9128 151.333L49.1415 150.39L48.1131 149.103L46.999 147.559L46.0563 146.015L44.9422 143.956L43.9995 141.983L43.1425 139.752L42.5426 137.951L42.0284 135.978L41.5142 133.319L41.1714 130.059L41 127.657V126.284L41.1714 125.083V124.054L41.4285 122.853L41.9427 120.108L42.7997 117.02L43.6567 114.703L44.428 112.988L45.1136 111.615L45.7992 110.414L47.0847 108.441L47.856 107.326L48.713 106.211L49.6557 105.096L50.427 104.152L52.3981 102.179L53.0837 101.578L54.1121 100.721L55.2262 99.8627L56.6832 98.8333L58.3115 97.8039L60.2826 96.6887L62.5108 95.6593L64.5676 94.8873L66.7101 94.201L68.9383 93.6863L70.8237 93.3431L72.9662 93.0858L74.5945 93Z" fill="#B6DE64"/>
<path d="M74.5945 93H208.116L209.315 93.1716L210.601 93.6005L211.801 94.201L212.743 94.8873L213.772 95.8309L214.629 96.9461L215.314 98.2328L215.743 99.5196L216 100.892V102.522L215.657 104.238L215.229 105.439L214.714 106.382L213.943 107.412L213.172 108.27L212.143 109.042L210.944 109.728L209.401 110.243L208.458 110.414L205.116 110.672L203.488 110.929L201.688 111.444L200.317 111.958L198.946 112.645L197.746 113.331L196.375 114.36L195.175 115.39L194.489 116.076L193.889 116.762L192.861 118.135L192.175 119.25L191.318 120.88L190.547 123.025L190.119 124.826L189.947 125.855L189.861 126.799V129.201L190.119 131.174L190.547 132.975L191.147 134.691L192.004 136.493L193.032 138.123L194.146 139.495L195.175 140.61L195.86 141.211L196.717 141.897L198.26 142.926L199.288 143.527L201.26 144.385L203.316 144.985L205.459 145.328L208.116 145.5L209.658 145.757L210.772 146.186L211.801 146.701L212.743 147.387L213.772 148.331L214.629 149.446L215.314 150.733L215.743 152.02L216 153.392V155.022L215.657 156.738L215.229 157.939L214.714 158.882L213.943 159.912L213.172 160.77L212.143 161.542L211.115 162.142L209.744 162.657L208.544 162.914L207.259 163H74.5945V162.914L202.716 162.828L202.631 162.743L200.917 162.571L198.774 162.056L196.46 161.37L194.746 160.77L192.518 159.826L190.461 158.797L189.004 157.939L186.691 156.395L185.576 155.537L184.462 154.593L183.605 153.821L181.12 151.333L180.349 150.39L179.492 149.36L178.549 148.074L177.692 146.787L176.749 145.243L175.721 143.27L174.95 141.554L174.178 139.581L173.407 137.093L172.893 134.949L172.55 132.804L172.293 130.574V126.199L172.464 124.14L172.807 121.738L173.321 119.336L174.093 116.762L174.95 114.446L176.064 112.044L176.835 110.586L177.863 108.87L178.806 107.498L179.663 106.382L180.092 105.782H180.263L180.434 105.439L181.206 104.581L181.806 103.895L183.777 101.922L184.719 101.15L185.748 100.292L187.29 99.1765L189.004 98.0613L190.376 97.2892L192.004 96.4314L193.718 95.6593L194.489 95.3162L196.032 94.7157L198.26 94.0294L200.317 93.5147L202.288 93.1716L74.5945 93.0858V93Z" fill="#DFF4A6"/>
<path d="M45.7199 110.843H176.67L175.813 112.387L174.956 114.103L174.099 115.99L173.585 118.049L172.807 120.623L172.214 123.368L172.042 125.77V128.343L41.0921 128.515L41 125.941L41.0921 124.225L41.4349 122.167L41.7777 120.623L42.8062 116.505L43.6632 114.446L44.863 112.044L45.7199 110.843Z" fill="#A9CC54"/>
<path d="M45.9513 145.5H176.921L178.806 148.417L180.863 151.162L183.434 153.907L186.348 156.309L189.776 158.539L193.204 160.255L196.975 161.799L201.602 163H73.3947L68.5955 162.314L64.3105 160.941L60.3683 159.397L56.2547 156.995L53.1694 154.25L50.2556 151.505L47.856 148.588L45.9513 145.5Z" fill="#A9CC54"/>
</svg>