<svg width="256" height="256" title="CentOS" viewBox="0 0 256 256" fill="none" xmlns="http://www.w3.org/2000/svg" id="centos">
<style>
#centos {
    rect {fill: #15191C}

    @media (prefers-color-scheme: light) {
        rect {fill: #F4F2ED}
    }
}
</style>
<rect width="256" height="256" rx="40" fill="#15191C"/>
<path d="M149.995 210.083C195.328 197.937 222.231 151.34 210.083 106.006C197.936 60.6729 151.339 33.7698 106.005 45.9165C60.672 58.0633 33.7695 104.66 45.9168 149.994C58.0641 195.327 104.661 222.23 149.995 210.083Z" fill="#A14F8C"/>
<path d="M128 63.6912L109.163 82.5278L82.5271 82.5257L82.5248 109.163L63.6899 128L82.5248 146.835L82.5259 173.473L109.163 173.472L128 192.309L146.835 173.472L173.475 173.471L173.473 146.835L192.31 128L128 63.6912ZM133.717 82.5259V102.848L128 108.565L122.283 102.848V82.5278L133.717 82.5259ZM99.8865 91.8022L114.256 106.174L114.258 114.256L106.171 114.258L91.8015 99.887L99.8865 91.8022ZM82.5248 122.283H102.847L108.564 128L102.847 133.717H82.5248V122.283ZM152.694 122.283H173.016V133.717H152.694L146.977 128L152.694 122.283ZM106.496 141.419H114.581V149.504L100.211 163.873L92.1261 155.788L106.496 141.419ZM141.42 141.418L149.504 141.419L163.874 155.788L155.789 163.873L141.419 149.504L141.42 141.418ZM128 146.977L133.717 152.694V173.015H122.283V152.694L128 146.977Z" fill="white"/>
<path d="M133.717 114.863L128 119.915L122.283 114.862V122.283H114.862L119.915 128L114.861 133.717H122.283V141.137L128 136.085L133.717 141.138V133.717H141.137L136.085 128L141.139 122.283H133.717V114.863Z" fill="#EFA724"/>
<path d="M146.851 82.5448L156.111 91.805L141.741 106.175L141.741 114.259L149.826 114.259L164.196 99.8899L173.488 109.182L173.474 82.528L146.851 82.5448Z" fill="#EFA724"/>
</svg>