<svg width="256" height="256" title="Chakra UI" viewBox="0 0 256 256" fill="none" xmlns="http://www.w3.org/2000/svg" id="chakraui">
<style>
#chakraui {
    rect {fill: #15191C}

    @media (prefers-color-scheme: light) {
        rect {fill: #F4F2ED}
    }
}
</style>
<rect width="256" height="256" rx="40" fill="#15191C"/>
<path d="M202.996 127.715L169.693 121.554L132.15 186.556C131.083 188.402 128.271 187.643 128.271 185.509V146.226C128.271 144.228 126.863 142.511 124.911 142.127L86.9693 134.674L53.0054 128.464C53.057 130.228 53.4737 131.984 54.2671 133.609L82.2986 182.252C86.2093 189.039 93.4298 193.214 101.239 193.204L154.995 193.132C162.8 193.122 170.007 188.932 173.901 182.141L201.335 134.301C202.504 132.267 203.054 129.985 202.996 127.715Z" fill="url(#linearGradient1)"/>
<path d="M124.392 69.732C125.457 67.8839 128.271 68.6425 128.271 70.7778V110.04C128.271 112.04 129.683 113.759 131.638 114.14L169.693 121.554L202.996 127.715C202.953 126.047 202.579 124.39 201.875 122.839C201.709 122.474 201.531 122.113 201.328 121.762L173.86 73.9727C169.957 67.183 162.743 63 154.936 63H100.996C93.1765 63 85.9529 67.1961 82.055 74.003L54.6651 121.832C54.602 121.941 54.5473 122.054 54.4878 122.165C53.4363 124.129 52.9421 126.302 53.0054 128.464L86.9693 134.674L124.392 69.732Z" fill="url(#linearGradient2)"/>
<linearGradient id="linearGradient1" x1="199.863" y1="127.401" x2="55.6886" y2="128.136" gradientUnits="userSpaceOnUse">
<stop stop-color="#3585A3"/>
<stop offset="1" stop-color="#00DEAE"/>
</linearGradient>
<linearGradient id="linearGradient2" x1="60.2647" y1="99.7197" x2="188.334" y2="96.3807" gradientUnits="userSpaceOnUse">
<stop stop-color="#3585A3"/>
<stop offset="1" stop-color="#00DEAE"/>
</linearGradient>
</svg>
