<svg width="256" height="256" title="Chocolatey" viewBox="0 0 256 256" fill="none" xmlns="http://www.w3.org/2000/svg" id="chocolatey">
<style>
#chocolatey {
    rect {fill: #15191C}

    @media (prefers-color-scheme: light) {
        rect {fill: #F4F2ED}
    }
}
</style>
<rect width="256" height="256" rx="40" fill="#15191C"/>
<path d="M198.366 201.158H77.4669V56.5205H198.366V89.0915V201.158Z" fill="#924716"/>
<path d="M198.366 201.158H187.877V65.3533L198.366 56.5205V201.158Z" fill="#793812"/>
<path d="M65.3218 65.3533V56.5205H196.71L186.221 65.3533H65.3218Z" fill="#9F5326"/>
<path d="M137.64 65.3533L151.442 82.4669L177.388 78.0505L187.877 110.069L198.366 150.921L214.375 167.483L206.095 181.284L221 207.782L198.366 201.158H66.4259V56.5205H92.9243L115.558 74.1861L137.64 65.3533Z" fill="#80B5E3"/>
<path d="M56.489 110.621L46 128.839L56.489 146.505L46 164.722L56.489 182.94L46 207.782L66.4259 201.158V56.5205L46 51L56.489 74.1861L46 92.4038L56.489 110.621Z" fill="#80B5E3"/>
<path opacity="0.2" d="M75.8107 65.3533L65.3218 56.5205H91.8202L103.413 65.3533H75.8107Z" fill="white"/>
<path opacity="0.2" d="M66.4259 201.158V56.5205L77.4669 65.3533V191.773L66.4259 201.158Z" fill="white"/>
<path d="M66.4259 201.158L77.4669 191.773H187.877L198.366 201.158H66.4259Z" fill="#7198CA"/>
<path d="M187.877 191.773V110.069L198.366 150.921V201.158L187.877 191.773Z" fill="#7198CA"/>
<path d="M147.025 126.631C143.161 129.943 133.224 137.12 122.735 139.328C110.038 142.088 102.861 131.599 105.621 121.662C108.382 110.069 121.079 101.237 132.12 105.101C137.088 106.757 135.432 113.382 133.776 116.694C129.36 124.975 135.432 126.079 138.192 123.319C146.473 114.486 151.442 99.5804 137.088 94.0599C115.006 85.7792 96.7886 106.205 90.7161 122.767C81.3312 149.265 103.965 172.451 129.912 154.785C136.536 150.369 144.265 142.64 149.233 136.016C153.65 129.391 150.89 123.319 147.025 126.631Z" fill="#924716"/>
<path d="M174.079 118.889C177.527 115.439 178.401 110.72 176.029 108.349C173.657 105.978 168.938 106.852 165.489 110.302C162.041 113.752 161.167 118.471 163.539 120.842C165.911 123.213 170.63 122.338 174.079 118.889Z" fill="#924716"/>
<path d="M171.022 142.465C174.471 139.015 175.344 134.296 172.972 131.925C170.6 129.554 165.882 130.428 162.433 133.878C158.984 137.328 158.111 142.047 160.482 144.418C162.854 146.789 167.573 145.915 171.022 142.465Z" fill="#924716"/>
</svg>