<svg width="256" height="256" title="CircleCI" viewBox="0 0 256 256" fill="none" xmlns="http://www.w3.org/2000/svg">
<rect width="256" height="256" rx="40" fill="#343434"/>
<path d="M107.45 128.225C107.45 117.503 116.141 108.9 126.775 108.9C137.415 108.9 146.106 117.591 146.106 128.225C146.106 138.866 137.415 147.557 126.775 147.557C116.148 147.557 107.45 138.866 107.45 128.225ZM126.775 47C88.8495 47 57.0837 72.992 48.0677 108.088C48 108.332 48 108.562 48 108.9C48 111.019 49.7057 112.799 51.892 112.799H84.619C86.1758 112.799 87.5499 111.919 88.1185 110.545C94.8669 95.9246 109.643 85.6902 126.782 85.6902C150.242 85.6902 169.33 104.778 169.33 128.245C169.33 151.733 150.242 170.821 126.755 170.821C109.63 170.821 94.8466 160.668 88.1049 145.959C87.4483 144.673 86.142 143.685 84.6055 143.685H51.892C49.7802 143.685 48 145.397 48 147.584C48 147.834 48.0948 148.071 48.0948 148.396C57.0295 183.458 88.8427 209.45 126.775 209.45C171.611 209.45 208 173.068 208 128.225C208 83.3956 171.611 47 126.775 47Z" fill="white"/>
</svg>