<svg width="256" height="256" title="Cisco" viewBox="0 0 256 256" fill="none" xmlns="http://www.w3.org/2000/svg">
<rect width="256" height="256" rx="40" fill="#00A2DF"/>
<path d="M127.269 143.549C127.04 143.487 123.525 142.583 119.789 142.583C112.716 142.583 108.458 146.392 108.458 152.065C108.458 157.087 112.02 159.591 116.295 160.938C116.769 161.094 117.468 161.313 117.933 161.466C119.836 162.063 121.355 162.951 121.355 164.488C121.355 166.207 119.599 167.319 115.783 167.319C112.428 167.319 109.213 166.362 108.535 166.192V173.172C108.913 173.252 112.735 174 116.817 174C122.689 174 129.407 171.441 129.407 163.822C129.407 160.126 127.138 156.724 122.158 155.145L120.041 154.473C118.778 154.075 116.523 153.431 116.523 151.584C116.523 150.126 118.194 149.099 121.27 149.099C123.924 149.099 127.154 149.988 127.269 150.024V143.549ZM192.117 158.292C192.117 162.705 188.728 166.275 184.18 166.275C179.628 166.275 176.247 162.705 176.247 158.292C176.247 153.888 179.628 150.316 184.18 150.316C188.728 150.316 192.117 153.888 192.117 158.292ZM184.18 142.593C174.827 142.593 168.12 149.629 168.12 158.292C168.12 166.969 174.827 174 184.18 174C193.532 174 200.249 166.969 200.249 158.292C200.249 149.629 193.532 142.593 184.18 142.593ZM98.1675 173.46H90.4934V143.13H98.1675" fill="white"/>
<path d="M79.9456 143.679C79.2246 143.466 76.559 142.593 72.9489 142.593C63.6107 142.593 56.7557 149.234 56.7557 158.292C56.7557 168.064 64.3228 174 72.9489 174C76.3759 174 78.992 173.19 79.9456 172.92V164.779C79.6159 164.961 77.1075 166.388 73.499 166.388C68.3867 166.388 65.0893 162.8 65.0893 158.292C65.0893 153.647 68.5293 150.202 73.499 150.202C77.1691 150.202 79.6369 151.66 79.9456 151.821" fill="white"/>
<path d="M160.041 143.679C159.319 143.466 156.654 142.593 153.044 142.593C143.706 142.593 136.851 149.234 136.851 158.292C136.851 168.064 144.418 174 153.044 174C156.471 174 159.087 173.19 160.041 172.92V164.779C159.711 164.961 157.202 166.388 153.594 166.388C148.482 166.388 145.184 162.8 145.184 158.292C145.184 153.647 148.624 150.202 153.594 150.202C157.264 150.202 159.732 151.66 160.041 151.821" fill="white"/>
<path d="M90.4707 85.786C90.4707 83.6954 88.7588 82 86.6604 82C84.5628 82 82.8509 83.6954 82.8509 85.786V126.063C82.8509 128.165 84.5628 129.86 86.6604 129.86C88.7588 129.86 90.4707 128.165 90.4707 126.063V85.786ZM69.5444 100.083C69.5444 97.9934 67.8333 96.2956 65.735 96.2956C63.6366 96.2956 61.9255 97.9934 61.9255 100.083V118.496C61.9255 120.598 63.6366 122.293 65.735 122.293C67.8333 122.293 69.5444 120.598 69.5444 118.496V100.083ZM48.619 110.534C48.619 108.443 46.9079 106.749 44.8095 106.749C42.7135 106.749 41 108.443 41 110.534V118.496C41 120.598 42.7135 122.293 44.8095 122.293C46.9079 122.293 48.619 120.598 48.619 118.496" fill="white"/>
<path d="M82.8509 85.786C82.8509 83.6954 84.5629 82 86.6613 82C88.7588 82 90.4707 83.6954 90.4707 85.786V126.063C90.4707 128.165 88.7588 129.86 86.6613 129.86C84.5629 129.86 82.8509 128.165 82.8509 126.063V85.786ZM103.777 100.083C103.777 97.9934 105.488 96.2956 107.587 96.2956C109.685 96.2956 111.396 97.9934 111.396 100.083V118.496C111.396 120.598 109.685 122.293 107.587 122.293C105.488 122.293 103.777 120.598 103.777 118.496V100.083ZM124.703 110.534C124.703 108.443 126.414 106.749 128.512 106.749C130.608 106.749 132.322 108.443 132.322 110.534V118.496C132.322 120.598 130.608 122.293 128.512 122.293C126.414 122.293 124.703 120.598 124.703 118.496" fill="white"/>
<path d="M166.529 85.786C166.529 83.6954 168.241 82 170.34 82C172.437 82 174.149 83.6954 174.149 85.786V126.063C174.149 128.165 172.437 129.86 170.34 129.86C168.241 129.86 166.529 128.165 166.529 126.063V85.786ZM187.456 100.083C187.456 97.9934 189.167 96.2956 191.265 96.2956C193.363 96.2956 195.075 97.9934 195.075 100.083V118.496C195.075 120.598 193.363 122.293 191.265 122.293C189.167 122.293 187.456 120.598 187.456 118.496V100.083ZM208.381 110.534C208.381 108.443 210.092 106.749 212.191 106.749C214.286 106.749 216 108.443 216 110.534V118.496C216 120.598 214.286 122.293 212.191 122.293C210.092 122.293 208.381 120.598 208.381 118.496" fill="white"/>
<path d="M174.149 85.786C174.149 83.6954 172.437 82 170.339 82C168.241 82 166.529 83.6954 166.529 85.786V126.063C166.529 128.165 168.241 129.86 170.339 129.86C172.437 129.86 174.149 128.165 174.149 126.063V85.786ZM153.223 100.083C153.223 97.9934 151.512 96.2956 149.413 96.2956C147.315 96.2956 145.604 97.9934 145.604 100.083V118.496C145.604 120.598 147.315 122.293 149.413 122.293C151.512 122.293 153.223 120.598 153.223 118.496V100.083ZM132.297 110.534C132.297 108.443 130.586 106.749 128.488 106.749C126.392 106.749 124.678 108.443 124.678 110.534V118.496C124.678 120.598 126.392 122.293 128.488 122.293C130.586 122.293 132.297 120.598 132.297 118.496" fill="white"/>
</svg>