<svg width="256" height="256" title="Clerk" viewBox="0 0 256 256" fill="none" xmlns="http://www.w3.org/2000/svg" id="clerk">
<style>
#clerk {
    rect {fill: #15191C}

    @media (prefers-color-scheme: light) {
        rect {fill: #F4F2ED}
    }
}
</style>
<rect width="256" height="256" rx="40" fill="#15191C"/>
<path d="M138.21 153.901C152.398 153.901 163.9 142.398 163.9 128.21C163.9 114.022 152.398 102.519 138.21 102.519C124.021 102.519 112.519 114.022 112.519 128.21C112.519 142.398 124.021 153.901 138.21 153.901Z" fill="#6C47FF"/>
<path d="M183.903 59.8575C186.471 61.5778 186.69 65.1965 184.505 67.3823L165.73 86.1567C164.034 87.8535 161.401 88.1215 159.266 87.0275C152.95 83.7921 145.793 81.9668 138.21 81.9668C112.671 81.9668 91.9668 102.671 91.9668 128.21C91.9668 135.793 93.7921 142.95 97.0275 149.266C98.1215 151.401 97.8535 154.034 96.1567 155.73L77.3823 174.505C75.1965 176.69 71.5778 176.471 69.8575 173.903C61.1049 160.836 56 145.119 56 128.21C56 82.8066 92.8066 46 138.21 46C155.119 46 170.836 51.1049 183.903 59.8575Z" fill="#BAB1FF"/>
<path d="M184.505 189.038C186.691 191.223 186.471 194.842 183.903 196.562C170.836 205.315 155.119 210.42 138.21 210.42C121.301 210.42 105.584 205.315 92.517 196.562C89.9488 194.842 89.7293 191.223 91.9151 189.038L110.689 170.263C112.386 168.566 115.019 168.298 117.154 169.392C123.47 172.628 130.627 174.453 138.21 174.453C145.793 174.453 152.95 172.628 159.266 169.392C161.401 168.298 164.034 168.566 165.731 170.263L184.505 189.038Z" fill="#6C47FF"/>
</svg>