<svg width="256" height="256" title="ClickHouse" viewBox="0 0 256 256" fill="none" xmlns="http://www.w3.org/2000/svg" id="clickhouse">
<style>
#clickhouse {
    rect {fill: #15191C}

    @media (prefers-color-scheme: light) {
        rect {fill: #F4F2ED}
    }
}
</style>
<rect width="256" height="256" rx="40" fill="#15191C"/>
<path d="M58 54.7476C58 53.7282 58.7282 53 59.7476 53H72.8544C73.8738 53 74.6019 53.7282 74.6019 54.7476V201.398C74.6019 202.417 73.8738 203.146 72.8544 203.146H59.7476C58.7282 203.146 58 202.417 58 201.398V54.7476ZM91.3495 54.7476C91.3495 53.7282 92.0777 53 93.0971 53H106.204C107.223 53 107.951 53.7282 107.951 54.7476V201.398C107.951 202.417 107.223 203.146 106.204 203.146H93.0971C92.0777 203.146 91.3495 202.417 91.3495 201.398V54.7476ZM124.699 54.7476C124.699 53.7282 125.427 53 126.447 53H139.553C140.573 53 141.301 53.7282 141.301 54.7476V201.398C141.301 202.417 140.573 203.146 139.553 203.146H126.447C125.427 203.146 124.699 202.417 124.699 201.398V54.7476ZM158.049 54.7476C158.049 53.7282 158.777 53 159.796 53H172.903C173.922 53 174.65 53.7282 174.65 54.7476V201.398C174.65 202.417 173.922 203.146 172.903 203.146H159.796C158.777 203.146 158.049 202.417 158.049 201.398V54.7476ZM191.398 113.146C191.398 112.126 192.126 111.398 193.146 111.398H206.252C207.272 111.398 208 112.126 208 113.146V143C208 144.019 207.272 144.748 206.252 144.748H193.146C192.126 144.748 191.398 144.019 191.398 143V113.146Z" fill="#FCFF72"/>
</svg>