<svg width="256" height="256" title="Cline" viewBox="0 0 256 256" fill="none" xmlns="http://www.w3.org/2000/svg" id="cline">
<style>
#cline {
    rect {fill: #15191C}
    path.cline {fill: white}

    @media (prefers-color-scheme: light) {
        rect {fill: #F4F2ED}
        path.cline {fill: #212121}
    }
}
</style>
<rect width="256" height="256" rx="40" fill="#15191C"/>
<path fill-rule="evenodd" clip-rule="evenodd" d="M162.667 72.6044C181.738 72.6044 197.202 88.0977 197.202 107.208V118.739L207.258 138.769C207.748 139.745 208.002 140.823 208 141.915C207.998 143.006 207.739 144.082 207.244 145.056L197.202 164.866V176.403C197.202 195.507 181.738 211 162.667 211H93.5901C74.5125 211 59.055 195.507 59.055 176.403V164.866L48.7915 145.119C48.2751 144.129 48.0037 143.031 48 141.915C47.9964 140.8 48.2607 139.7 48.7707 138.707L59.048 118.739V107.208C59.048 88.0977 74.5125 72.6044 93.5831 72.6044H162.667ZM101.849 111.4C97.667 111.4 93.6559 113.057 90.6985 116.007C87.7412 118.956 86.0797 122.957 86.0797 127.128V155.086C86.1662 159.199 87.8653 163.115 90.8126 165.994C93.7599 168.872 97.7208 170.484 101.846 170.484C105.971 170.484 109.932 168.872 112.879 165.994C115.826 163.115 117.526 159.199 117.612 155.086V127.128C117.612 122.958 115.952 118.959 112.996 116.009C110.04 113.06 106.031 111.402 101.849 111.4ZM152.653 111.4C148.471 111.4 144.46 113.057 141.503 116.007C138.545 118.956 136.884 122.957 136.884 127.128V155.086C136.884 159.257 138.545 163.258 141.503 166.207C144.46 169.157 148.471 170.814 152.653 170.814C156.836 170.814 160.847 169.157 163.804 166.207C166.762 163.258 168.423 159.257 168.423 155.086V127.128C168.423 125.062 168.015 123.017 167.222 121.108C166.429 119.199 165.267 117.465 163.802 116.004C162.337 114.544 160.597 113.385 158.683 112.595C156.769 111.805 154.725 111.399 152.653 111.4Z" class="cline" fill="white"/>
<path fill-rule="evenodd" clip-rule="evenodd" d="M128.125 83.4428C133.236 83.4428 138.138 81.4177 141.752 77.813C145.367 74.2083 147.397 69.3193 147.397 64.2214C147.397 59.1236 145.367 54.2345 141.752 50.6298C138.138 47.0251 133.236 45 128.125 45C123.014 45 118.112 47.0251 114.498 50.6298C110.884 54.2345 108.854 59.1236 108.854 64.2214C108.854 69.3193 110.884 74.2083 114.498 77.813C118.112 81.4177 123.014 83.4428 128.125 83.4428Z" class="cline" fill="white"/>
</svg>