<svg width="256" height="256" title="CLion" viewBox="0 0 256 256" fill="none" xmlns="http://www.w3.org/2000/svg" id="clion">
<style>
#clion {
    rect {fill: #15191C}

    @media (prefers-color-scheme: light) {
        rect {fill: #F4F2ED}
    }
}
</style>
<rect width="256" height="256" rx="40" fill="#15191C"/>
<path d="M206 199.518V112.5C206 108.326 203.648 104.554 200.023 102.91L109.225 61.7472C107.998 61.1913 106.675 60.9036 105.339 60.9036H60.8636C55.4161 60.9036 51 65.5748 51 71.337V117.362C51 119.423 51.5777 121.438 52.6599 123.154L104.496 205.306C106.325 208.206 109.404 209.947 112.7 209.947L196.136 209.952C201.584 209.952 206 205.281 206 199.518Z" fill="url(#linearGradient1)"/>
<path d="M191.909 83.1951V56.4334C191.909 50.6712 187.493 46 182.045 46H150.337C149.87 46 149.404 46.0358 148.942 46.1043L59.4686 59.6245C54.6087 60.3578 51 64.7607 51 69.952V110.103C51 115.866 55.4175 120.537 60.8664 120.536L105.764 120.524C106.824 120.524 107.877 120.344 108.881 119.989L185.165 93.0917C189.192 91.6715 191.909 87.6861 191.909 83.1951Z" fill="url(#linearGradient2)"/>
<path d="M191.908 86.854L191.903 56.4319C191.903 50.6712 187.487 46 182.04 46H154.172C151.293 46 148.557 47.331 146.683 49.6427L67.4653 147.404C65.9336 149.295 65.091 151.704 65.091 154.194V184.616C65.091 190.378 69.507 195.05 74.9546 195.05H102.826C105.705 195.05 108.442 193.719 110.316 191.407L189.533 93.6461C191.066 91.7548 191.908 89.3461 191.908 86.854Z" fill="#FF318C"/>
<path d="M176.937 76.7412H80.0625V179.212H176.937V76.7412Z" fill="black"/>
<path d="M99.5501 125.827C102.358 127.539 105.493 128.396 108.954 128.396C111.881 128.396 114.569 127.82 117.014 126.672C119.459 125.524 121.491 123.923 123.11 121.863C124.746 119.786 125.841 117.409 126.392 114.731H119.003C118.52 116.114 117.797 117.337 116.833 118.392C115.885 119.431 114.74 120.234 113.396 120.797C112.054 121.361 110.59 121.645 109.005 121.645C106.87 121.645 104.94 121.081 103.219 119.951C101.496 118.821 100.144 117.274 99.1628 115.306C98.1982 113.323 97.7166 111.089 97.7166 108.612C97.7166 106.135 98.1982 103.912 99.1628 101.944C100.145 99.9593 101.497 98.4017 103.219 97.2715C104.94 96.1416 106.87 95.578 109.005 95.578C110.588 95.578 112.053 95.8618 113.396 96.4254C114.74 96.989 115.885 97.8016 116.833 98.8571C117.797 99.8964 118.52 101.108 119.003 102.492H126.392C125.839 99.8145 124.746 97.4474 123.11 95.3877C121.491 93.3103 119.459 91.6988 117.014 90.5511C114.569 89.4035 111.881 88.8296 108.954 88.8296C105.491 88.8296 102.357 89.6931 99.5501 91.4249C96.7421 93.1361 94.5376 95.5063 92.9364 98.5291C91.3351 101.534 90.5338 104.895 90.5338 108.612C90.5338 112.329 91.3351 115.7 92.9364 118.723C94.539 121.728 96.7435 124.096 99.5501 125.827Z" fill="white"/>
<path d="M138.488 121.017V89.4837H131.462V127.739H155.642V121.017H138.488Z" fill="white"/>
<path d="M92.1562 158.715H130.906V166.4H92.1562V158.715Z" fill="white"/>
<linearGradient id="linearGradient1" x1="60.6424" y1="41.5028" x2="224.19" y2="182.063" gradientUnits="userSpaceOnUse">
<stop offset="0.29" stop-color="#009AE5"/>
<stop offset="0.7" stop-color="#00D980"/>
</linearGradient>
<linearGradient id="linearGradient2" x1="201.197" y1="41.9576" x2="35.581" y2="78.2597" gradientUnits="userSpaceOnUse">
<stop offset="0.3" stop-color="#FF318C"/>
<stop offset="0.54" stop-color="#009AE5"/>
</linearGradient>
</svg>