<svg width="256" height="256" title="Cloudinary" viewBox="0 0 256 256" fill="none" xmlns="http://www.w3.org/2000/svg">
<rect width="256" height="256" rx="40" fill="#3448C5"/>
<path d="M92.311 122.41C92.3744 122.41 92.4371 122.422 92.4955 122.447C92.5539 122.471 92.6069 122.507 92.6515 122.552L108.757 138.672C108.822 138.739 108.866 138.823 108.884 138.915C108.901 139.006 108.892 139.101 108.857 139.187C108.821 139.273 108.761 139.347 108.684 139.4C108.607 139.453 108.517 139.482 108.423 139.484H104.307C104.04 139.484 103.821 139.696 103.814 139.962V176.203C103.819 178.497 104.731 180.695 106.35 182.32L108.756 184.727C108.821 184.793 108.865 184.878 108.882 184.969C108.9 185.061 108.891 185.155 108.855 185.241C108.82 185.327 108.76 185.401 108.684 185.454C108.607 185.507 108.516 185.536 108.423 185.538H89.4331C84.6295 185.538 80.7358 181.644 80.7358 176.841V139.962C80.7358 139.899 80.7234 139.837 80.6994 139.779C80.6753 139.721 80.6401 139.668 80.5956 139.624C80.5512 139.579 80.4984 139.544 80.4404 139.52C80.3823 139.496 80.3201 139.484 80.2573 139.484H76.1981C76.1036 139.485 76.011 139.458 75.9318 139.406C75.8527 139.354 75.7906 139.281 75.7533 139.194C75.7161 139.107 75.7055 139.011 75.7227 138.918C75.7399 138.825 75.7843 138.739 75.8502 138.672L91.9699 122.553C92.0144 122.507 92.0675 122.471 92.126 122.446C92.1846 122.422 92.2475 122.409 92.311 122.409V122.41ZM127.928 131.745C127.992 131.745 128.054 131.758 128.113 131.782C128.171 131.807 128.224 131.843 128.269 131.888L144.388 147.949C144.454 148.017 144.499 148.103 144.516 148.196C144.533 148.289 144.522 148.385 144.485 148.471C144.448 148.558 144.386 148.632 144.307 148.684C144.228 148.735 144.135 148.762 144.04 148.761H139.924C139.657 148.769 139.445 148.987 139.445 149.254V176.203C139.447 178.495 140.354 180.693 141.968 182.32L144.388 184.727C144.454 184.794 144.498 184.88 144.515 184.973C144.532 185.066 144.522 185.161 144.484 185.248C144.447 185.335 144.385 185.409 144.306 185.46C144.227 185.512 144.135 185.539 144.04 185.538H125.094C120.29 185.538 116.396 181.644 116.396 176.841V149.283C116.396 149.016 116.184 148.798 115.917 148.79H111.816C111.723 148.788 111.632 148.759 111.555 148.707C111.478 148.654 111.418 148.58 111.383 148.494C111.347 148.407 111.338 148.313 111.355 148.221C111.373 148.129 111.417 148.045 111.482 147.978L127.588 131.888C127.632 131.843 127.685 131.807 127.744 131.782C127.802 131.758 127.865 131.745 127.928 131.745ZM163.553 140.98C163.678 140.98 163.799 141.031 163.886 141.122L180.006 157.227C180.075 157.293 180.124 157.379 180.144 157.473C180.165 157.567 180.157 157.665 180.121 157.754C180.085 157.843 180.023 157.919 179.943 157.973C179.863 158.026 179.769 158.054 179.673 158.054H175.541C175.414 158.054 175.292 158.104 175.203 158.194C175.113 158.283 175.062 158.405 175.062 158.532V176.203C175.068 178.497 175.98 180.695 177.599 182.32L180.006 184.727C180.07 184.793 180.114 184.878 180.132 184.969C180.149 185.061 180.14 185.155 180.105 185.241C180.069 185.327 180.01 185.401 179.933 185.454C179.856 185.507 179.766 185.536 179.673 185.538H160.668C155.864 185.538 151.97 181.644 151.97 176.841V158.531C151.97 158.404 151.92 158.283 151.83 158.193C151.74 158.103 151.618 158.053 151.492 158.053H147.433C147.337 158.054 147.243 158.026 147.163 157.972C147.083 157.919 147.021 157.843 146.985 157.754C146.949 157.664 146.941 157.567 146.961 157.473C146.982 157.379 147.03 157.293 147.099 157.227L163.219 141.122C163.262 141.077 163.314 141.041 163.371 141.017C163.429 140.993 163.49 140.98 163.553 140.98ZM127.602 71.0009C152.922 71.1855 175.255 87.6279 182.948 111.753C201.754 114.207 215.863 130.16 216 149.123C216 164.774 206.212 177.78 190.408 183.195L189.82 183.392L189.095 183.624V171.94C199.141 167.707 205.041 159.343 205.041 149.123C204.989 134.701 193.569 122.926 179.215 122.377L178.73 122.363H174.382L173.338 118.217C168.215 97.0731 149.357 82.1298 127.602 81.976C109.701 81.8905 93.3542 92.0624 85.5093 108.11L83.896 111.433L80.8513 111.752C67.1029 113.222 55.8134 123.279 52.7694 136.766C49.7684 150.062 55.434 163.787 66.8828 171.104L67.3846 171.418V183.74H67.3121L66.2252 183.247C49.0288 175.343 38.9567 157.189 41.3493 138.415C43.7432 119.642 58.0481 104.595 76.6773 101.257C86.7411 82.5215 106.335 70.8813 127.602 71.0009Z" fill="white"/>
</svg>