<svg width="256" height="256" title="Cmder" viewBox="0 0 256 256" fill="none" xmlns="http://www.w3.org/2000/svg" id="cmder">
<style>
#cmder {
    rect {fill: #15191C}

    @media (prefers-color-scheme: light) {
        rect {fill: #F4F2ED}
    }
}
</style>
<rect width="256" height="256" rx="40" fill="#15191C"/>
<path d="M53 53H203V203H53V53Z" fill="#93B81C"/>
<path d="M53 53H203V203H53V53ZM59.1523 59.0059V196.848H196.701L196.848 189.23V59.1523L190.549 59.0059H59.1523Z" fill="#464844"/>
<path d="M110.129 81.418H115.988L118.918 82.0039L121.555 82.8828L123.459 84.0547L124.924 85.2266L126.828 87.2773L128.293 89.4746L129.465 91.5254L130.93 94.748L131.955 97.5312L132.541 98.9961L134.885 105.881L136.789 111.008L138.4 115.842L140.305 120.969L142.062 126.242L143.088 129.172L144.406 132.688L146.018 137.521L147.922 142.795L149.533 147.482L151.438 152.609L153.049 157.443L154.221 160.08L155.246 161.691L156.418 163.01L157.883 163.742L158.615 163.889L162.277 164.035V173.117L161.838 173.41L159.055 173.85L157.59 173.996H154.514L152.316 173.557L150.266 172.824L148.801 171.945L147.336 170.627L146.164 169.309L144.553 166.672L143.381 164.328L141.037 158.029L139.133 152.756L136.789 145.871L135.178 141.477L133.713 137.082L132.102 132.688L130.344 127.561L129.025 123.459L128.732 123.312L127.854 126.242L126.389 129.904L124.924 133.859L123.166 138.107L121.555 142.062L119.797 146.311L118.186 150.412L116.281 155.1L111.594 166.818L109.25 172.531L108.811 173.264L108.518 173.41H100.021L96.6523 173.264L96.7988 172.385L98.4102 168.283L99.875 164.768L102.072 159.641L103.977 155.1L106.906 148.068L108.664 143.967L111.594 136.936L113.352 132.834L115.256 128.293L116.135 126.096L116.867 124.484L119.064 119.357L121.262 114.084L123.459 108.957V107.785L122.141 104.416L120.236 99.1426L119.064 96.5059L117.746 94.3086L116.574 92.9902L114.523 91.8184L112.912 91.3789L112.033 91.2324H109.543L106.467 91.6719L103.684 92.4043L102.805 92.5508V82.8828L104.123 82.4434L108.664 81.5645L110.129 81.418Z" fill="#464844"/>
<path d="M67.209 183.957H186.887L187.033 184.104V188.205L184.689 188.352H73.6543L67.209 188.205L67.0625 187.912V184.104L67.209 183.957Z" fill="#B6D36E"/>
<path d="M67.0625 68.3809H186.887L187.033 68.5273V72.4824L134.592 72.6289H109.543L67.209 72.4824L67.0625 72.1895V68.3809Z" fill="#B6D36E"/>
<path d="M125.07 80.9785H133.42L186.887 81.125L187.033 81.2715V85.2266L173.703 85.373H129.611L128.439 84.3477L126.535 82.4434L125.07 81.2715V80.9785Z" fill="#B6D36E"/>
<path d="M112.473 106.467L119.357 106.613L119.797 107.053L119.943 108.371L119.211 110.861L119.064 111.008H86.5449L67.209 110.861L67.0625 110.715V106.76L67.502 106.613H76.1445L112.473 106.467Z" fill="#B6D36E"/>
<path d="M134.299 93.7227L171.945 93.8691H186.887L187.033 94.0156V98.1172H135.764L135.178 96.9453L134.299 94.6016V93.7227Z" fill="#B6D36E"/>
<path d="M138.693 106.467L186.887 106.613L187.033 106.76V110.861L180.441 111.008H141.037L140.158 110.861L139.279 108.518L138.693 106.906V106.467Z" fill="#B6D36E"/>
<path d="M105.734 119.357H115.402L115.256 120.09L114.084 122.873L113.645 123.898H81.125L67.209 123.752L67.0625 123.605V119.65L67.6484 119.504H74.5332L105.734 119.357Z" fill="#B6D36E"/>
<path d="M143.234 119.357L186.887 119.504L187.033 119.65V123.752L181.467 123.898H144.992L144.553 123.605L143.234 119.797V119.357Z" fill="#B6D36E"/>
<path d="M67.209 93.8691H99.875L100.607 94.6016L101.047 95.1875H104.416L108.811 94.1621L109.982 94.0156H111.447L112.766 94.6016L114.084 95.4805L115.256 96.5059L116.135 97.9707V98.2637L71.6035 98.1172L67.209 97.9707L67.0625 94.0156L67.209 93.8691Z" fill="#B6D36E"/>
<path d="M98.9961 132.688H109.689L109.836 132.98L109.25 134.152L108.078 137.229L67.209 136.936L67.0625 132.834L98.9961 132.688Z" fill="#B6D36E"/>
<path d="M147.922 132.688H166.818L187.033 132.834V136.936L177.219 137.082H149.533L149.094 136.496L147.922 133.273V132.688Z" fill="#B6D36E"/>
<path d="M96.3594 145.578H104.27L104.123 146.457L102.951 149.24L102.658 149.973L102.512 150.119L82.0039 149.973L67.209 149.826V145.725L96.3594 145.578Z" fill="#B6D36E"/>
<path d="M152.463 145.578L186.887 145.725L187.033 145.871V149.826L178.537 149.973H154.074L153.635 149.387L152.463 146.311V145.578Z" fill="#B6D36E"/>
<path d="M113.352 171.066H117.893L143.381 171.213L146.311 174.143L147.775 175.314V175.461L143.674 175.607L111.301 175.461L111.594 174.729L112.766 172.385L113.352 171.066Z" fill="#B6D36E"/>
<path d="M67.209 81.125H99.7285L99.875 81.418V85.2266L99.7285 85.373H80.832L67.209 85.2266L67.0625 81.2715L67.209 81.125Z" fill="#B6D36E"/>
<path d="M96.5059 158.322H98.9961L98.7031 159.201L97.5312 162.131L97.2383 162.717H77.7559L67.209 162.57L67.0625 158.615L67.209 158.469L96.5059 158.322Z" fill="#B6D36E"/>
<path d="M157.15 158.322H166.232L186.887 158.469L187.033 158.615V162.57L183.078 162.717H168.723L164.914 162.57L164.035 161.252L159.055 160.812L157.883 159.787L157.15 158.762V158.322Z" fill="#B6D36E"/>
<path d="M67.209 171.213H93.4297L93.5762 171.359L93.8691 174.875L94.0156 175.461H69.6992L67.0625 175.314V171.359L67.209 171.213Z" fill="#B6D36E"/>
<path d="M59.0059 196.994H196.848V197.141L194.797 197.287L181.027 197.434H179.27L175.021 197.58L173.41 197.727H170.92L169.309 197.873H168.137L167.99 197.727L166.379 197.873H158.908L158.029 197.727L156.125 197.873L155.1 197.727L153.488 197.873H153.049L150.412 197.727L149.387 197.873H89.1816L88.8887 197.727L88.7422 198.02L87.2773 197.873H69.8457L68.9668 197.727H66.916L66.4766 197.58H61.6426L59.0059 197.287V196.994Z" fill="#2C2F32"/>
<path d="M165.354 171.066L186.887 171.213L187.033 171.359V175.461H165.793L165.061 175.314V173.41L165.207 171.213L165.354 171.066Z" fill="#B6D36E"/>
<path d="M118.479 158.322H137.668L138.254 159.494L139.133 162.424V162.717L138.693 162.863L116.721 162.717L117.16 161.398L118.479 158.322Z" fill="#B6D36E"/>
<path d="M123.605 145.578H133.127L133.713 146.75L134.738 149.826V150.119H123.898L121.994 149.973L122.141 148.947L123.459 145.725L123.605 145.578Z" fill="#B6D36E"/>
<path d="M128.586 133.127H128.879L129.465 135.031L130.051 136.643V137.229H127.268L127.121 136.643L128.293 134.006L128.586 133.127Z" fill="#B6D36E"/>
<path d="M121.848 83.3223L122.58 83.4688L124.484 84.7871L124.338 85.2266L122.873 84.0547L121.848 83.4688V83.3223Z" fill="#363939"/>
</svg>