<svg width="256" height="256" title="CodeQL" viewBox="0 0 256 256" fill="none" xmlns="http://www.w3.org/2000/svg">
<rect width="256" height="256" rx="40" fill="#2088FF"/>
<path d="M196.556 177.997H60.4438C55.3813 178.081 50.4922 176.155 46.8476 172.64C43.203 169.126 41.1002 164.31 41 159.248V96.7516C41.1002 91.6898 43.203 86.8741 46.8476 83.3597C50.4922 79.8453 55.3813 77.9189 60.4438 78.0026H196.556C201.619 77.9189 206.508 79.8453 210.152 83.3597C213.797 86.8741 215.9 91.6898 216 96.7516V159.248C215.9 164.31 213.797 169.126 210.152 172.64C206.508 176.155 201.619 178.081 196.556 177.997ZM60.4438 90.502C58.7561 90.4735 57.1261 91.1155 55.9111 92.287C54.6961 93.4586 53.9954 95.0642 53.9625 96.7516V159.248C53.9954 160.936 54.6961 162.541 55.9111 163.713C57.1261 164.885 58.7561 165.526 60.4438 165.498H196.556C198.244 165.526 199.874 164.885 201.089 163.713C202.304 162.541 203.005 160.936 203.038 159.248V96.7516C203.005 95.0642 202.304 93.4586 201.089 92.287C199.874 91.1155 198.244 90.4735 196.556 90.502H60.4438Z" fill="white"/>
<path d="M170.631 121.75H157.669C156.011 121.75 154.421 121.092 153.249 119.92C152.077 118.748 151.419 117.158 151.419 115.501C151.419 113.843 152.077 112.254 153.249 111.081C154.421 109.909 156.011 109.251 157.669 109.251H170.631C172.289 109.251 173.879 109.909 175.051 111.081C176.223 112.254 176.881 113.843 176.881 115.501C176.881 117.158 176.223 118.748 175.051 119.92C173.879 121.092 172.289 121.75 170.631 121.75Z" fill="white"/>
<path d="M183.594 146.749H157.669C156.011 146.749 154.421 146.091 153.249 144.919C152.077 143.746 151.419 142.157 151.419 140.499C151.419 138.842 152.077 137.252 153.249 136.08C154.421 134.908 156.011 134.25 157.669 134.25H183.594C185.251 134.25 186.841 134.908 188.013 136.08C189.185 137.252 189.844 138.842 189.844 140.499C189.844 142.157 189.185 143.746 188.013 144.919C186.841 146.091 185.251 146.749 183.594 146.749Z" fill="white"/>
<path d="M104.856 128C104.917 130.932 104.372 133.844 103.256 136.556C102.279 138.887 100.782 140.964 98.8812 142.63L104.275 149.161H96.8375L93.7937 145.562C91.6742 146.318 89.4381 146.697 87.1875 146.68C84.0399 146.73 80.9323 145.97 78.1625 144.474C75.4881 142.999 73.2962 140.783 71.85 138.093C70.227 134.983 69.4307 131.507 69.5375 128C69.4317 124.484 70.2323 120.999 71.8625 117.882C73.3109 115.196 75.5025 112.985 78.175 111.513C80.9606 110.072 84.0512 109.32 87.1875 109.32C90.3238 109.32 93.4144 110.072 96.2 111.513C98.876 112.985 101.072 115.196 102.525 117.882C104.16 120.998 104.963 124.483 104.856 128ZM84.4375 133.537H91.2125L94.0125 137C94.9361 135.9 95.6271 134.624 96.0438 133.25C96.5607 131.549 96.8075 129.777 96.775 128C96.9925 124.837 96.0628 121.702 94.1562 119.169C93.3019 118.17 92.2322 117.376 91.0274 116.849C89.8226 116.322 88.5141 116.075 87.2 116.126C85.8848 116.078 84.5757 116.327 83.3703 116.855C82.1648 117.383 81.094 118.176 80.2375 119.175C78.3346 121.708 77.4072 124.84 77.625 128C77.4089 131.16 78.3361 134.292 80.2375 136.825C81.091 137.828 82.1611 138.624 83.3672 139.153C84.5733 139.683 85.8838 139.931 87.2 139.881C87.8924 139.883 88.5834 139.816 89.2625 139.681L84.4375 133.537ZM113.5 146.749V109.251H121.475V140.412H137.644V146.749H113.5Z" fill="white"/>
</svg>