<svg width="256" height="256" title="CodeGeeX" viewBox="0 0 256 256" fill="none" xmlns="http://www.w3.org/2000/svg" id="codegeex">
<style>
#codegeex {
    rect {fill: #15191C}

    @media (prefers-color-scheme: light) {
        rect {fill: #F4F2ED}
    }
}
</style>
<rect width="256" height="256" rx="40" fill="#15191C"/>
<path d="M138.109 130.816C143.596 130.816 146.276 137.402 142.503 141.305L106.657 177.172C106.083 177.751 105.4 178.211 104.646 178.525C103.893 178.838 103.084 179 102.267 179C101.45 179 100.642 178.838 99.888 178.525C99.1344 178.211 98.4509 177.751 97.8772 177.172L49.8253 128.865C48.6565 127.7 48 126.12 48 124.473C48 122.827 48.6565 121.247 49.8253 120.082L90.1908 79.701C91.797 78.1192 93.9649 77.232 96.2239 77.232C98.483 77.232 100.651 78.1192 102.257 79.701C103.838 81.3163 104.723 83.4828 104.723 85.7386C104.723 87.9943 103.838 90.1608 102.257 91.7762L73.9712 120.202C72.8025 121.367 72.146 122.946 72.146 124.593C72.146 126.24 72.8025 127.819 73.9712 128.984L97.9972 153.015C98.5709 153.594 99.2544 154.054 100.008 154.368C100.762 154.681 101.57 154.843 102.387 154.843C103.204 154.843 104.013 154.681 104.766 154.368C105.52 154.054 106.203 153.594 106.777 153.015L109.944 149.848C110.532 149.278 110.998 148.594 111.312 147.839C111.626 147.083 111.782 146.272 111.77 145.454V139.227C111.77 138.371 111.77 137.521 111.897 136.665C112.002 135.099 112.705 133.632 113.862 132.566C115.018 131.499 116.541 130.914 118.117 130.929H138.109V130.816Z" fill="#00E7E7"/>
<path d="M206.26 135.941L165.795 176.448C164.188 178.03 162.02 178.917 159.761 178.917C157.502 178.917 155.334 178.03 153.728 176.448C152.145 174.833 151.259 172.665 151.259 170.408C151.259 168.15 152.145 165.982 153.728 164.367L182.127 135.941C183.296 134.776 183.953 133.197 183.953 131.55C183.953 129.903 183.296 128.324 182.127 127.159L157.995 103.128C157.421 102.549 156.738 102.089 155.984 101.775C155.23 101.461 154.422 101.3 153.605 101.3C152.788 101.3 151.979 101.461 151.226 101.775C150.472 102.089 149.789 102.549 149.215 103.128L146.049 106.294C144.885 107.467 144.229 109.047 144.222 110.696V116.916C144.222 117.779 144.222 118.622 144.095 119.478C143.99 121.044 143.287 122.511 142.13 123.577C140.974 124.643 139.451 125.229 137.875 125.214H117.883C112.396 125.214 109.71 118.628 113.489 114.725L140.675 87.5078L144.209 83.8368L149.208 78.8315C149.782 78.2514 150.466 77.7908 151.22 77.4763C151.974 77.1619 152.784 77 153.602 77C154.419 77 155.229 77.1619 155.983 77.4763C156.737 77.7908 157.421 78.2514 157.995 78.8315L206.16 127.026C207.319 128.215 207.977 129.8 207.999 131.456C208.022 133.113 207.407 134.715 206.28 135.935L206.26 135.941Z" fill="#00BFFF"/>
</svg>