<svg width="256" height="256" title="CodeChef" viewBox="0 0 256 256" fill="none" xmlns="http://www.w3.org/2000/svg">
<rect width="256" height="256" rx="40" fill="url(#linearGradient1)"/>
<path d="M172.121 163.302C176.606 164.776 180.295 166.863 183.169 169.565C183.801 170.016 184.107 170.527 184.107 171.121C184.107 172.083 183.394 173.004 181.946 173.905C180.254 174.969 177.727 176.852 174.384 179.554C171.285 182.031 168.778 183.832 166.882 184.978C166.515 185.163 166.148 185.265 165.782 185.265C165.231 185.265 164.742 185.06 164.355 184.692C163.947 184.303 163.743 183.853 163.743 183.341C163.743 182.891 163.906 182.502 164.232 182.113C164.681 181.376 165.7 180.557 167.331 179.677C168.391 179.124 169.716 178.224 171.306 176.955C173.222 175.399 174.547 174.376 175.281 173.905C176.891 173.086 177.706 172.513 177.706 172.185C177.706 172.103 177.686 172.042 177.645 171.96C176.769 170.405 175.301 169.238 173.283 168.46C171.489 167.948 169.655 167.416 167.82 166.843C165.659 166.188 164.049 165.246 163.009 164.018C162.928 163.916 162.907 163.773 162.907 163.629C162.907 163.179 163.172 162.688 163.682 162.156C164.192 161.623 164.701 161.357 165.17 161.357C165.455 161.276 165.761 161.255 166.047 161.255C166.903 161.255 167.942 161.521 169.186 162.033C170.144 162.442 171.122 162.852 172.121 163.302ZM85.997 161.48C86.8328 161.48 87.5259 161.705 88.0762 162.156C88.6062 162.606 88.8712 163.118 88.8712 163.711C88.8712 164.162 88.7082 164.551 88.382 164.878C87.1589 166.208 84.672 167.641 80.8805 169.156C77.3744 170.568 75.0303 172.185 73.8072 174.028C75.866 175.276 78.5771 176.648 81.9201 178.121C87.2609 180.516 90.0128 181.765 90.1962 181.847C90.8893 182.174 91.2358 182.706 91.2358 183.464C91.3174 184.385 90.9504 185.163 90.1554 185.818C89.3605 186.473 88.4432 186.78 87.4239 186.78C87.0162 186.78 86.6289 186.698 86.262 186.554C85.8136 186.104 85.2224 185.592 84.4478 184.999C79.5963 182.338 74.3984 179.8 68.8742 177.405C68.3238 177.18 67.7734 176.975 67.2231 176.791C66.53 176.463 66.1223 175.972 66 175.358C66 173.761 66.6931 172.288 68.0996 170.916C69.7915 169.545 72.5842 167.989 76.4979 166.208C80.2894 164.51 83.0209 162.933 84.7332 161.501C84.7332 161.48 85.1409 161.48 85.997 161.48Z" fill="#E9E4CF"/>
<path d="M120.63 161.398C119.713 160.068 118.857 159.126 118.082 158.574C117.307 158.021 116.411 157.755 115.371 157.755C115.004 157.755 114.678 157.816 114.413 157.919L108.298 160.047C107.951 160.17 107.543 160.211 107.095 160.211C106.279 160.211 105.627 160.027 105.138 159.638C104.628 159.27 104.017 158.512 103.303 157.386L101.611 158.512C102.671 160.047 103.589 161.071 104.323 161.562C105.077 162.074 106.015 162.319 107.176 162.319C107.686 162.319 108.196 162.238 108.685 162.094L114.291 160.047C114.657 159.904 115.065 159.822 115.493 159.822C116.207 159.822 116.798 159.966 117.226 160.273C117.654 160.559 118.266 161.235 119.04 162.299L120.63 161.398Z" fill="#E9E4CF"/>
<path fill-rule="evenodd" clip-rule="evenodd" d="M161.949 195.315C165.027 213.778 142.543 215.559 133.309 207.269C126.929 201.538 128.723 193.575 137.875 194.067C145.927 194.496 150.677 204.935 161.949 195.315Z" fill="#E9E4CF"/>
<path fill-rule="evenodd" clip-rule="evenodd" d="M93.6616 195.315C90.5835 213.778 113.068 215.559 122.302 207.269C128.682 201.538 126.888 193.575 117.736 194.067C109.684 194.496 104.934 204.935 93.6616 195.315Z" fill="#E9E4CF"/>
<path d="M115.738 168.521C114.719 167.805 113.455 167.437 111.946 167.437C110.132 167.437 108.664 167.989 107.523 169.074C106.198 170.282 105.688 172.001 105.994 174.253C106.178 176.074 106.83 177.671 107.931 179.063C109.052 180.455 110.397 181.151 111.946 181.151C112.904 181.151 113.903 180.885 114.922 180.332C116.737 179.247 117.634 177.159 117.634 174.069C117.634 171.285 117.002 169.443 115.738 168.521ZM111.865 175.87C110.805 175.87 109.928 175.01 109.928 173.925C109.928 172.861 110.784 171.981 111.865 171.981C112.925 171.981 113.801 172.84 113.801 173.925C113.801 175.01 112.925 175.87 111.865 175.87Z" fill="#E9E4CF"/>
<path d="M129.192 192.49C129.762 192.49 130.313 192.388 130.822 192.183C131.332 191.979 131.801 191.733 132.229 191.406C132.657 191.078 133.044 190.71 133.391 190.321C133.737 189.911 134.043 189.522 134.288 189.093C134.553 188.683 134.756 188.294 134.92 187.905C135.083 187.537 135.205 187.23 135.266 186.964C135.246 186.923 135.225 186.861 135.185 186.78C135.144 186.718 135.103 186.657 135.083 186.595C135.042 186.554 135.001 186.534 134.981 186.534C134.491 187.435 133.962 188.171 133.35 188.745C132.738 189.318 132.066 189.727 131.352 189.993C130.618 190.259 129.823 190.382 128.988 190.382C128.254 190.382 127.602 190.28 127.031 190.096C126.44 189.911 125.93 189.625 125.461 189.277C124.992 188.908 124.585 188.479 124.197 187.987C123.83 187.496 123.484 186.923 123.178 186.309C123.158 186.309 123.137 186.329 123.097 186.37C123.056 186.411 123.015 186.473 122.995 186.534C122.954 186.595 122.954 186.636 122.934 186.677C123.219 187.476 123.565 188.212 123.994 188.929C124.401 189.625 124.87 190.239 125.4 190.771C125.93 191.303 126.501 191.733 127.153 192.04C127.765 192.306 128.458 192.47 129.192 192.49Z" fill="#E9E4CF"/>
<path d="M147.11 168.399C146.09 167.682 144.827 167.314 143.318 167.314C141.504 167.314 140.036 167.866 138.895 168.951C137.57 170.159 137.06 171.899 137.366 174.13C137.549 175.952 138.201 177.548 139.302 178.94C140.423 180.332 141.769 181.028 143.318 181.028C144.276 181.028 145.275 180.762 146.294 180.209C148.108 179.124 149.005 177.036 149.005 173.946C149.026 171.141 148.394 169.299 147.11 168.399ZM142.666 176.095C141.606 176.095 140.729 175.215 140.729 174.15C140.729 173.086 141.585 172.206 142.666 172.206C143.726 172.206 144.602 173.066 144.602 174.15C144.602 175.235 143.726 176.095 142.666 176.095Z" fill="#E9E4CF"/>
<path d="M160.4 146.374C163.539 145.003 165.15 134.359 167.27 124.452C174.914 106.91 191.975 93.9946 190.956 77.681C176.952 50.1505 157.342 49.168 148.944 46.9778C138.059 44.9514 127.194 43.4572 116.329 45.0333C108.603 46.1795 98.5946 53.6506 89.3401 54.2852C80.5136 57.2122 78.3121 61.1013 75.8456 64.5195C73.0938 70.5374 72.4619 76.5347 73.8072 82.5526C77.191 93.3601 82.389 103.185 83.9994 114.955C87.5666 121.279 87.8112 133.233 95.965 141.257C120.915 129.324 141.3 138.576 160.4 146.374Z" fill="url(#linearGradient2)"/>
<path d="M160.094 146.497L157.75 145.535C139.017 137.859 119.631 129.897 95.7408 141.339L95.5981 141.4L95.4962 141.298C90.1758 136.058 88.2189 129.283 86.5066 123.285C85.5893 120.133 84.7332 117.165 83.4897 114.934L83.4694 114.852C82.389 107.033 79.6982 99.9306 77.089 93.0735C75.7844 89.6348 74.4187 86.0732 73.2976 82.4707C71.9318 76.371 72.6249 70.2508 75.336 64.2944C75.5398 64.0078 75.7233 63.7417 75.9068 63.4756C78.1694 60.2825 80.7175 56.6595 88.9528 53.9372C94.0489 53.5687 99.308 51.1739 104.384 48.8609C108.542 46.9573 112.476 45.1765 115.982 44.6648C126.317 43.1706 136.51 44.3578 148.638 46.6093C149.617 46.855 150.697 47.1006 151.941 47.3667C161.175 49.3317 178.359 52.9547 190.793 77.4354L190.814 77.5172C191.445 87.6697 185.147 96.5123 178.461 105.867C174.323 111.68 170.021 117.697 167.107 124.391C166.78 125.946 166.454 127.563 166.128 129.16C164.375 137.777 162.867 145.228 160.115 146.436L160.094 146.497ZM120.059 135.178C133.635 135.178 145.907 140.213 157.934 145.146L160.094 146.026C162.581 144.798 164.13 137.163 165.782 129.099C166.108 127.502 166.434 125.885 166.78 124.288C169.736 117.513 174.037 111.475 178.196 105.641C184.821 96.3485 191.079 87.5879 190.467 77.5991C178.094 53.364 161.705 49.9048 151.9 47.817C150.636 47.5509 149.556 47.3257 148.577 47.0597C136.51 44.8286 126.338 43.6414 116.064 45.1356C112.619 45.6473 108.726 47.4281 104.588 49.2908C99.4711 51.6242 94.1916 54.019 89.0547 54.3875C81.0028 57.0689 78.4956 60.61 76.2737 63.7622C76.0902 64.0283 75.9068 64.2739 75.7233 64.54C73.053 70.3736 72.3803 76.4119 73.7256 82.3888C74.8468 85.9708 76.1921 89.5119 77.5171 92.9507C80.1263 99.8077 82.8374 106.91 83.9178 114.77C85.1817 117.022 86.0378 120.01 86.9551 123.163C88.647 129.058 90.5835 135.73 95.7408 140.889C104.363 136.774 112.415 135.178 120.059 135.178Z" fill="#C8BCA8"/>
<path fill-rule="evenodd" clip-rule="evenodd" d="M96.6784 148.216C105.668 143.427 128.172 131.575 158.3 152.351C159.157 147.48 159.238 142.608 158.565 137.736C157.709 126.212 112.741 112.109 96.4338 137.491L96.6784 148.216Z" fill="url(#linearGradient3)"/>
<path d="M158.382 152.515L158.26 152.433C145.356 143.529 132.351 139.62 119.57 140.786C109.011 141.748 101.02 146.006 96.7192 148.298L96.5969 148.36V148.216L96.3523 137.47L96.3727 137.45C100.776 130.613 107.441 126.151 116.227 124.227C123.423 122.63 131.821 122.897 139.873 124.964C150.595 127.707 158.321 132.967 158.667 137.736C159.34 142.588 159.259 147.52 158.402 152.372L158.382 152.515ZM123.994 140.397C135.327 140.397 146.824 144.348 158.239 152.208C159.055 147.418 159.136 142.547 158.464 137.757C158.117 133.131 150.269 127.809 139.791 125.128C131.78 123.081 123.402 122.815 116.227 124.391C107.503 126.315 100.857 130.736 96.495 137.511L96.7396 148.053C101.081 145.74 109.031 141.544 119.529 140.582C121.038 140.459 122.526 140.397 123.994 140.397Z" fill="#C8BCA8"/>
<path fill-rule="evenodd" clip-rule="evenodd" d="M84.0199 62.6978C82.6338 69.7186 88.8307 91.8863 86.7515 103.513C85.6915 97.4129 81.8184 85.3158 81.9815 78.4997C80.1061 74.406 78.2308 69.4525 76.172 67.5489C74.3169 65.85 80.4323 55.718 84.0199 62.6978Z" fill="url(#linearGradient4)"/>
<path d="M98.1461 134.052C98.1257 134.032 98.1257 134.032 98.1257 134.011C89.972 124.432 86.6086 107.934 83.7751 94.0355C81.5328 83.0029 79.6167 73.5872 75.9068 70.6193L75.8864 70.5988C75.4176 69.9847 75.1526 69.2683 75.0507 68.511C74.8672 67.201 75.1934 65.7681 75.866 64.4377C76.5183 63.1072 77.5171 61.92 78.6994 61.1013C79.5148 60.5281 80.4321 60.1597 81.3698 60.0369L81.3902 60.2211C80.4729 60.3234 79.5963 60.7124 78.8013 61.2445C77.9248 62.4522 77.2725 63.23 76.6202 64.5196C74.8061 68.163 78.5771 67.9788 80.0652 69.9642C83.8159 72.9936 84.1217 82.921 86.3843 93.9946C89.2178 107.872 90.1351 124.35 98.248 133.888C98.2684 133.909 98.2684 133.909 98.2684 133.929L98.1461 134.052Z" fill="#A99675"/>
<path fill-rule="evenodd" clip-rule="evenodd" d="M97.8404 59.8322C96.4542 66.853 100.001 82.9619 97.9423 94.6087C96.8823 88.509 93.0093 76.4119 93.1723 69.5958C91.297 65.5021 89.0547 60.8352 87.7297 58.4199C86.527 56.2502 92.7239 53.3231 97.8404 59.8322Z" fill="url(#linearGradient5)"/>
<path d="M95.1292 57.3759C93.3558 56.1683 92.6423 56.2297 91.1135 56.4344C90.4816 56.5163 89.9516 56.7209 89.5439 57.0075C89.1362 57.2941 88.8712 57.7034 88.7897 58.1947C88.7082 58.9316 88.2189 59.0544 88.8916 60.4053C93.4169 66.5664 96.8619 76.7804 97.82 87.6493C99.0227 101.425 97.4327 116.694 106.524 127.502L106.381 127.625C97.2492 116.756 95.9038 101.466 94.7012 87.6698C93.7431 76.8213 92.8666 66.8939 88.382 60.7738C87.4443 59.5047 87.1589 58.4608 87.3016 57.642C87.4036 57.0894 87.6889 56.6595 88.1374 56.332C88.5655 56.0045 89.1362 55.7998 89.8089 55.718C91.3785 55.5133 93.4373 55.9841 95.2515 57.2327L95.1292 57.3759Z" fill="#A99675"/>
<path d="M120.08 47.51C124.279 54.5513 116.553 86.2369 115.187 106.153C115.065 107.832 100.266 40.4278 120.08 47.51Z" fill="url(#linearGradient6)"/>
<path d="M118.306 123.736C113.516 111.209 108.379 89.471 107.584 72.3182C107.278 65.5635 107.625 59.5047 108.95 55.0016C110.275 50.478 112.578 47.5305 116.146 46.9983C117.307 46.814 118.612 46.9164 120.059 47.2848L119.998 47.469C118.571 47.1006 117.246 47.4076 116.105 47.5919C113.129 48.2673 113.475 50.1505 111.518 54.3875C110.214 58.8702 109.48 64.4172 110.071 71.1719C112.619 87.8949 115.738 110.697 118.449 123.674L118.306 123.736Z" fill="#B5A584"/>
<path d="M132.249 122.651C132.066 121.3 131.882 119.908 131.679 118.496C128.56 95.9391 124.748 68.3472 138.12 48.513L138.283 48.6153C132.8 63.2914 132.066 91.2313 131.414 100.258C131.128 104.147 131.577 112.498 131.882 118.455C132.066 119.847 132.27 121.239 132.453 122.61L132.249 122.651Z" fill="#CABB9C"/>
<path d="M146.763 125.557C147.232 113.87 148.475 100.197 149.597 88.3452C152.41 73.403 159.972 66.3413 161.949 51.2353L161.99 51.0511C154.774 62.8616 150.758 75.6341 148.659 88.3862C146.58 101.138 146.417 113.87 146.967 125.557H146.763Z" fill="url(#linearGradient7)"/>
<path d="M181.743 68.9817C175.729 87.7312 168.513 106.051 161.236 124.595C161.44 100.053 174.547 70.4964 181.743 68.9817Z" fill="url(#linearGradient8)"/>
<path d="M157.791 132.865C160.971 129.528 161.195 124.411 161.481 118.475C161.725 112.99 162.011 106.808 164.681 100.688C164.742 100.463 164.864 100.074 165.007 99.5416C166.781 93.3396 173.874 68.4086 182.15 68.8589L182.13 69.0432C175.627 68.7975 167.372 93.4624 165.415 99.6235C165.272 100.135 165.231 100.463 165.15 100.708V100.729C162.826 106.808 162.683 113.01 161.909 118.475C161.644 124.432 161.134 129.59 157.913 132.967L157.791 132.865Z" fill="#A99675"/>
<linearGradient id="linearGradient1" x1="-0.00995103" y1="127.997" x2="256.008" y2="127.997" gradientUnits="userSpaceOnUse">
<stop stop-color="#3B2519"/>
<stop offset="0.0299" stop-color="#3F2719"/>
<stop offset="0.2736" stop-color="#5C331B"/>
<stop offset="0.4847" stop-color="#6E3B1D"/>
<stop offset="0.6382" stop-color="#743E1D"/>
<stop offset="0.7421" stop-color="#6F3C1C"/>
<stop offset="0.8624" stop-color="#61351A"/>
<stop offset="0.9905" stop-color="#4A2B17"/>
<stop offset="1" stop-color="#482A17"/>
</linearGradient>
<linearGradient id="linearGradient2" x1="65.9991" y1="127.995" x2="190.994" y2="127.995" gradientUnits="userSpaceOnUse">
<stop offset="0.0397" stop-color="#F9F9EC"/>
<stop offset="0.4183" stop-color="#F9F9EC"/>
<stop offset="0.4932" stop-color="#F3F1E2"/>
<stop offset="0.6217" stop-color="#E4DDC6"/>
<stop offset="0.7873" stop-color="#CCBC9A"/>
<stop offset="0.7969" stop-color="#CABA97"/>
<stop offset="1" stop-color="#BAA685"/>
</linearGradient>
<linearGradient id="linearGradient3" x1="65.9959" y1="128.022" x2="191.015" y2="128.022" gradientUnits="userSpaceOnUse">
<stop stop-color="#F9F9EC"/>
<stop offset="0.0526" stop-color="#F9F9EC"/>
<stop offset="0.3844" stop-color="#F9F9EC"/>
<stop offset="0.5145" stop-color="#F5F4E5"/>
<stop offset="0.7094" stop-color="#EAE5D0"/>
<stop offset="0.9441" stop-color="#D9CCAF"/>
<stop offset="0.9987" stop-color="#D4C6A6"/>
</linearGradient>
<linearGradient id="linearGradient4" x1="66.0018" y1="128.049" x2="191.019" y2="128.049" gradientUnits="userSpaceOnUse">
<stop stop-color="#E8DBCA"/>
<stop offset="1" stop-color="#F2ECDE"/>
</linearGradient>
<linearGradient id="linearGradient5" x1="123.239" y1="103.262" x2="137.55" y2="157.675" gradientUnits="userSpaceOnUse">
<stop stop-color="#ECE1D1"/>
<stop offset="0.4318" stop-color="#EEE6D9"/>
<stop offset="1" stop-color="#EFE9DE"/>
</linearGradient>
<linearGradient id="linearGradient6" x1="65.9895" y1="128.012" x2="190.903" y2="128.012" gradientUnits="userSpaceOnUse">
<stop stop-color="#ECE1D1"/>
<stop offset="1" stop-color="#EDE4D5"/>
</linearGradient>
<linearGradient id="linearGradient7" x1="129.26" y1="99.8341" x2="129.072" y2="134.408" gradientUnits="userSpaceOnUse">
<stop stop-color="#BAA68A"/>
<stop offset="1" stop-color="#C7BAA0"/>
</linearGradient>
<linearGradient id="linearGradient8" x1="66.0273" y1="128.001" x2="190.985" y2="128.001" gradientUnits="userSpaceOnUse">
<stop stop-color="#BDAE99"/>
<stop offset="0.2551" stop-color="#BFB19C"/>
<stop offset="1" stop-color="#C2B5A1"/>
</linearGradient>
</svg>