<svg width="256" height="256" title="Codeforces" viewBox="0 0 256 256" fill="none" xmlns="http://www.w3.org/2000/svg" id="codeforces">
<style>
#codeforces {
    rect {fill: #15191C}

    @media (prefers-color-scheme: light) {
        rect {fill: #F4F2ED}
    }
}
</style>
<rect width="256" height="256" rx="40" fill="#15191C"/>
<path d="M200.688 117.667C206.188 117.667 211 122.489 211 128V179.667C211 185.178 206.188 190 200.688 190H180.062C174.562 190 169.75 185.178 169.75 179.667V128C169.75 122.489 174.562 117.667 180.062 117.667H200.688Z" fill="#AE0F0A"/>
<path d="M138.812 66C144.313 66 149.125 70.8222 149.125 76.3333V179.667C149.125 185.178 144.313 190 138.812 190H118.188C112.687 190 107.875 185.178 107.875 179.667V76.3333C107.875 70.8222 112.687 66 118.188 66H138.812Z" fill="#4F81C1"/>
<path d="M76.9375 97C82.4375 97 87.25 101.822 87.25 107.333V179.667C87.25 185.178 82.4375 190 76.9375 190H56.3125C50.8125 190 46 185.178 46 179.667V107.333C46 101.822 50.8125 97 56.3125 97H76.9375Z" fill="#FFD400"/>
</svg>