<svg width="256" height="256" title="Codeberg" viewBox="0 0 256 256" fill="none" xmlns="http://www.w3.org/2000/svg">
<rect width="256" height="256" rx="40" fill="#2185D0"/>
<path d="M129.597 86.657C129.489 86.658 129.383 86.6767 129.285 86.7118C129.187 86.7469 129.102 86.7976 129.034 86.8602C128.965 86.9228 128.915 86.996 128.889 87.0744C128.862 87.1527 128.857 87.2343 128.877 87.3137L161.622 210C177.464 203.18 190.857 191.703 200.018 177.095L130.245 86.9292C130.178 86.8454 130.084 86.7762 129.97 86.7284C129.857 86.6806 129.728 86.6559 129.597 86.657Z" fill="white" fill-opacity="0.35"/>
<path d="M128 47C81.0549 47 43 85.0398 43 131.965C43 147.927 47.4972 163.566 55.9798 177.091L126.848 85.5092C127.357 84.8476 128.639 84.8476 129.148 85.5092L200.018 177.095C208.501 163.569 213 147.928 213 131.965C213 85.0398 174.945 47 128 47Z" fill="white"/>
</svg>