<svg width="256" height="256" title="Codecov" viewBox="0 0 256 256" fill="none" xmlns="http://www.w3.org/2000/svg">
<rect width="256" height="256" rx="40" fill="#F01F7A"/>
<path d="M128.178 52C83.9911 52 48 87.5317 48 130.88V131.236L61.5412 139.052H61.8975C70.4499 133.368 80.784 131.236 91.1181 133.012C98.2451 134.434 105.015 137.631 110.361 142.606L112.855 144.738L114.281 141.895C115.706 139.052 117.131 136.565 118.557 134.078C119.269 133.012 119.982 132.302 120.695 131.236L122.12 129.459L120.338 128.038C112.855 121.997 103.947 117.734 94.3251 115.957C85.0602 114.18 75.795 114.536 67.2428 117.378C73.6571 89.3083 98.6012 69.4105 128.178 69.4105C144.927 69.4105 160.606 75.8062 172.365 87.5317C180.918 95.704 186.619 106.008 189.114 117.378C183.768 115.602 178.067 114.891 172.365 114.891H171.296C169.158 114.891 167.02 115.247 164.526 115.247H164.169C163.457 115.247 162.388 115.602 161.675 115.602C160.249 115.957 159.18 115.957 157.755 116.312L156.686 116.668C155.617 117.023 154.548 117.378 153.479 117.734H153.123C150.628 118.444 148.49 119.51 145.996 120.576C144.927 120.932 143.857 121.642 142.788 122.353H142.432C137.087 125.551 132.098 129.459 128.178 134.434L127.822 135.144C126.753 136.565 126.04 137.631 125.327 138.342C124.615 139.052 124.258 140.119 123.545 141.184L123.189 141.895C122.477 142.961 122.12 144.027 121.764 144.738V145.093C120.695 147.225 119.626 149.712 118.913 152.199V152.555C117.131 158.24 116.062 164.28 116.062 170.676V171.387C116.062 172.097 116.062 173.163 116.062 173.874C116.062 174.229 116.062 174.584 116.062 174.939C116.062 175.295 116.062 176.006 116.062 176.361V176.716V177.427C116.062 178.138 116.419 179.203 116.419 179.914C118.201 188.442 122.12 196.613 128.178 204.076L128.534 204.431L128.891 204.076C131.385 201.234 137.087 192.35 137.799 187.02C134.949 181.691 133.523 175.65 133.523 169.965C133.523 150.067 149.203 133.368 169.514 132.302H170.94C179.136 131.947 187.332 134.434 194.103 139.052H194.459L208 131.236V130.88C208 109.917 199.805 90.0189 184.481 75.0957C169.514 60.1723 149.559 52 128.178 52Z" fill="white"/>
</svg>