<svg width="256" height="256" title="Codewars" viewBox="0 0 256 256" fill="none" xmlns="http://www.w3.org/2000/svg">
<rect width="256" height="256" rx="40" fill="#15191C"/>
<path d="M88.6874 119.723C90.3369 121.917 90.3369 124.111 89.7871 126.306C92.5362 126.306 95.2854 129.049 95.2854 131.792C98.0345 131.243 100.784 132.889 101.883 135.083C104.083 133.437 107.382 133.986 109.031 136.18C109.764 137.168 109.764 137.168 109.031 136.18H109.581C110.681 134.534 112.88 133.986 114.529 135.083C114.529 134.534 115.079 133.986 115.629 133.437C116.729 132.34 118.928 132.34 120.028 133.437C120.028 132.34 121.127 131.792 121.677 131.792C121.127 130.694 120.577 129.597 120.577 128.5C119.478 128.5 118.378 128.5 117.828 127.403C117.572 126.927 117.572 126.927 117.828 127.403C116.729 127.951 115.629 127.951 114.529 127.403C113.43 126.854 112.88 125.757 112.33 124.66H109.581C107.382 124.111 106.282 121.917 106.832 119.723C105.182 119.723 103.533 118.625 102.433 117.528C101.333 115.882 101.333 114.237 102.433 112.591C100.234 112.591 99.1342 110.397 98.5843 108.202C98.5843 106.008 98.5843 103.813 100.234 102.716C98.0345 100.522 97.4847 97.2304 99.684 94.4875C99.684 95.5846 98.5843 96.6818 97.4847 97.2304C96.385 97.779 95.2854 97.779 94.1857 97.2304C94.1857 99.9734 91.9864 101.619 89.2372 102.168C89.7871 103.265 90.3369 105.459 89.2372 106.556C88.6874 108.202 87.5878 109.299 85.9383 109.848C88.1376 112.042 87.5878 115.882 85.9383 118.077C87.0379 118.077 88.1376 118.625 89.2372 120.271L88.6874 119.723Z" fill="#F05656"/>
<path d="M120.577 154.284C120.577 151.541 122.227 148.798 124.976 148.798C124.976 146.055 125.526 144.409 127.175 143.86C127.175 143.86 126.076 142.763 126.076 142.215C126.076 140.569 126.076 138.923 128.275 138.375C128.275 138.375 128.275 137.826 127.725 137.277V136.18C126.625 136.18 125.526 136.18 124.426 135.083C124.426 135.083 124.426 136.18 123.326 136.729C123.326 136.729 122.227 137.277 121.127 136.729C121.127 137.826 120.577 139.472 119.478 140.02C118.378 140.569 116.729 140.569 115.629 140.02C115.629 141.666 113.979 142.763 112.88 143.312C111.23 143.312 109.581 143.312 109.031 142.215C109.031 142.215 108.481 143.312 107.931 143.312C106.832 144.409 105.182 144.958 103.533 144.409C101.883 144.409 100.784 143.312 100.234 141.666C98.5842 142.763 96.3849 143.312 94.7354 142.763C93.0859 142.215 91.4364 140.569 91.4364 138.375C88.6873 139.472 85.3883 138.375 84.2887 135.632H83.7388C84.2887 136.18 84.8385 137.277 84.8385 137.826C84.8385 139.472 84.8385 140.569 83.7388 141.666C85.9381 143.312 86.488 146.055 85.3883 148.249C87.0378 148.249 88.1375 149.346 89.2371 150.444C90.3368 151.541 90.3368 153.186 90.3368 154.832C93.6357 154.832 96.3849 156.478 96.9347 159.221C100.234 157.027 104.632 157.027 106.832 160.318C108.481 158.124 111.78 157.027 114.529 158.124C115.629 155.929 117.828 153.735 120.577 154.284Z" fill="#F05656"/>
<path d="M135.423 102.716C135.423 103.814 135.423 105.459 134.323 106.556C133.224 107.654 132.124 108.202 130.474 108.202C130.474 110.945 130.474 112.591 128.275 113.14C129.925 114.785 129.925 116.98 128.275 118.077L127.175 118.625C127.175 118.625 127.725 119.723 127.175 120.271C128.275 120.271 129.925 120.271 131.024 121.368C131.024 120.271 132.674 119.723 133.773 120.271C133.773 119.174 134.323 117.528 135.423 116.98C136.522 116.431 138.172 116.431 139.272 116.98C139.272 115.883 139.272 115.334 140.371 114.785C142.021 113.14 144.77 113.688 145.87 114.785C146.969 112.591 150.268 111.494 152.467 112.591C153.567 112.591 154.117 113.688 154.667 114.785C156.316 113.688 158.516 113.14 160.165 113.688C161.815 114.237 163.464 115.883 163.464 118.077C166.213 116.98 169.512 118.077 170.612 120.82H171.162C169.512 118.625 169.512 116.431 171.162 114.237C168.962 112.591 168.413 109.848 169.512 107.654C167.863 107.654 166.213 107.105 165.663 105.459C164.564 104.362 164.564 102.716 164.564 101.071C161.265 101.071 158.516 99.4248 157.966 96.6819C154.667 98.8762 150.268 98.8762 148.069 95.5847C146.419 97.7791 143.12 98.8762 140.371 97.7791C140.371 100.522 137.072 102.168 134.873 102.168L135.423 102.716Z" fill="#F05656"/>
<path d="M108.481 102.716C110.68 104.911 110.68 107.654 108.481 109.848C109.58 109.848 110.68 111.494 111.23 112.591V116.431H111.78C113.429 116.98 115.079 118.625 114.529 120.82C115.629 120.82 116.728 120.82 117.828 121.368C118.928 121.917 119.477 123.563 118.928 124.66H121.127C121.677 123.563 122.776 122.466 123.326 121.917V118.625C122.227 118.077 121.677 116.98 121.677 115.334C121.677 113.688 122.227 113.14 123.326 112.042C122.227 110.945 121.677 109.299 122.227 108.202C122.227 106.556 123.876 105.459 125.526 105.459C124.426 103.814 124.426 102.168 125.526 100.522C126.625 98.8762 128.275 98.3276 129.924 98.3276C129.924 96.1333 129.924 94.4875 132.123 92.8417C133.773 91.7445 135.972 91.196 137.622 91.7445C137.622 89.5502 140.371 87.3558 142.57 87.3558V86.2587H139.821C138.172 86.2587 137.622 84.6129 137.072 82.9671C134.873 84.0643 132.123 83.5157 130.474 81.3213C129.374 82.4185 128.275 83.5157 126.625 83.5157C124.976 83.5157 123.326 83.5157 122.227 82.4185C121.127 85.1615 118.378 87.3558 115.079 86.2587C115.629 90.0988 112.879 93.9389 109.031 94.4875C110.13 97.2304 109.031 99.9734 106.831 102.168L108.481 102.716Z" fill="#F05656"/>
<path d="M166.213 150.992C166.763 149.346 167.862 148.249 169.512 147.701C167.312 145.506 167.862 141.666 169.512 139.472C168.412 139.472 167.312 138.375 166.213 137.277C164.563 135.083 164.563 132.889 165.113 130.694C162.364 130.694 159.615 127.951 159.615 125.208C156.866 125.757 154.117 124.111 153.567 121.917C152.467 123.014 150.818 123.014 149.718 123.014C148.618 123.014 146.969 121.917 146.419 120.82H145.869C144.769 122.465 142.57 123.014 140.921 121.917C140.921 122.465 140.371 123.014 139.821 123.563C138.721 124.66 136.522 124.66 135.422 123.563C135.422 124.111 134.873 124.66 134.323 125.208C134.323 126.306 135.422 127.403 135.422 128.5H136.522C137.622 128.5 137.622 129.597 138.172 130.146C139.271 129.597 140.371 129.597 142.02 130.146C143.12 130.694 144.22 131.791 144.22 133.437H146.969C149.168 133.986 150.268 136.18 149.718 138.375C151.917 138.375 153.567 138.923 154.666 140.569C155.766 142.215 155.766 144.409 154.666 146.055C156.316 146.603 157.965 148.249 157.965 150.444C157.965 152.638 157.965 154.284 156.316 155.929C158.515 158.124 159.065 161.415 156.866 164.158H157.416C157.416 163.061 158.515 162.512 159.615 161.964C160.715 161.415 161.814 161.415 162.914 161.964C162.914 159.221 165.113 157.027 167.862 157.027C166.763 155.381 166.763 153.735 167.862 152.089L166.213 150.992Z" fill="#F05656"/>
<path d="M147.519 154.284C145.32 152.089 145.32 149.346 147.519 147.152C146.42 147.152 145.32 145.506 144.77 144.409C144.22 143.312 144.77 141.666 144.77 140.569H144.22C142.571 140.02 141.471 138.375 141.471 136.18C140.371 136.18 139.272 136.18 138.172 135.632C137.072 135.083 136.523 133.986 136.523 132.34C135.973 132.34 134.873 132.34 134.323 131.791C133.773 132.889 132.674 133.986 131.574 134.534C132.674 135.632 132.674 136.729 131.574 137.826C131.098 138.301 131.098 138.301 131.574 137.826C133.224 138.923 133.773 141.117 132.674 142.763C132.674 142.763 132.124 143.86 131.574 143.86C132.674 144.958 133.224 146.603 132.674 147.701C132.674 149.346 131.024 150.444 129.925 150.444V152.089C129.925 153.735 129.925 155.381 128.825 156.478C127.725 157.575 126.076 158.124 124.976 158.124C124.976 161.415 123.327 164.158 120.578 164.707H117.828C117.828 166.901 115.079 169.096 112.88 169.096V170.193H116.179C117.279 170.741 117.828 171.838 118.378 172.936C120.578 171.838 123.327 172.387 124.976 174.581C126.076 173.484 127.176 172.387 128.825 172.387C130.474 172.387 132.124 172.387 133.224 173.484C134.323 170.193 137.622 169.096 140.371 169.644C139.822 165.804 142.571 161.964 146.42 161.415C145.32 158.672 146.42 155.929 148.619 153.735L147.519 154.284Z" fill="#F05656"/>
<path d="M119.478 182.262C117.278 182.262 116.179 180.067 115.629 178.422C113.979 178.97 112.33 178.422 111.23 178.422C110.131 177.324 109.581 176.227 109.581 174.582H107.931C106.282 174.033 105.182 172.387 105.732 170.193C104.632 171.29 103.533 171.839 101.883 171.839C98.0344 171.839 94.1856 169.644 94.1856 165.804C91.9863 166.901 89.7869 166.901 87.5876 165.804C85.3883 164.158 84.8385 161.964 85.3883 159.77C82.6392 159.77 79.89 158.124 79.3402 154.832C79.3402 153.735 79.3402 152.089 80.4399 151.541C77.6907 151.541 76.0412 148.798 76.0412 146.055C76.0412 144.958 77.1409 143.86 77.6907 142.763C76.5911 141.666 76.0412 140.569 76.0412 138.923C76.0412 137.277 77.1409 136.18 78.7904 135.632C77.6907 134.534 77.6907 132.34 78.7904 131.243C77.6907 131.243 77.1409 130.146 76.5911 129.049C74.3918 125.757 74.9416 121.368 77.6907 119.174C75.4914 118.077 74.3918 115.882 74.9416 113.139C74.9416 110.945 77.1409 108.751 79.3402 108.202C78.2405 106.556 78.2405 104.362 79.3402 102.716C80.4399 101.071 82.6392 99.9734 84.2887 99.9734C83.7388 98.3276 84.2887 96.1332 85.3883 94.4875C86.488 93.3903 88.6873 92.8417 90.8866 93.3903C90.8866 91.7445 91.9863 90.6473 93.6357 90.0987C95.2852 89.5502 96.9347 90.0987 98.0344 90.6473C98.5842 89.0016 100.234 88.453 101.333 88.453C101.333 86.2586 102.433 84.0643 104.632 82.9671C106.832 81.8699 109.031 81.3213 111.23 82.4185V80.2241C112.33 78.0298 113.979 76.9326 115.629 76.384C117.828 76.384 119.478 76.384 121.127 78.0298C121.677 75.8354 123.876 74.7382 126.076 74.7382C128.275 74.7382 129.924 75.8354 131.024 77.4812C132.124 75.8354 134.323 75.2868 135.973 75.8354C138.172 75.8354 139.271 78.0298 139.821 79.6755C141.471 79.127 143.12 79.6755 144.22 80.2241C145.32 81.3213 145.869 82.9671 145.869 84.0643C147.519 84.0643 149.718 85.1614 149.718 86.8072V87.9044C150.818 86.8072 151.918 86.2586 153.567 86.2586C157.416 86.2586 160.715 89.0016 161.265 92.8417C163.464 91.7445 166.213 91.7445 167.863 92.8417C170.062 94.4875 170.612 96.6818 170.062 99.4248C172.811 99.4248 175.56 101.071 176.11 104.362C176.11 105.459 176.11 107.105 175.01 107.654C177.21 107.654 178.309 109.299 178.859 111.494C178.859 113.688 178.859 115.334 177.21 116.431C178.309 116.98 178.859 118.077 178.859 119.174C178.859 121.368 177.759 123.014 176.11 124.111C177.21 125.208 177.21 127.403 176.11 128.5C178.309 129.597 179.409 131.792 179.409 133.986C179.409 136.18 178.309 138.375 176.66 140.02C177.21 140.02 177.759 140.569 178.309 141.118C179.409 142.763 179.959 144.958 179.409 146.603C178.859 148.798 177.21 149.895 175.56 150.444C177.21 152.638 176.66 155.929 174.46 157.575C173.361 158.672 172.261 159.221 170.612 158.672C171.162 160.318 170.612 162.513 169.512 164.158C168.412 165.255 166.213 165.804 164.014 165.255C164.014 166.901 162.914 167.998 161.814 168.547C160.165 169.096 158.515 168.547 157.416 167.998C156.866 169.096 155.216 170.193 154.117 170.193C154.117 171.29 154.117 171.839 153.567 172.387C151.918 175.679 148.069 177.873 144.22 176.227C144.22 179.519 142.021 182.262 138.172 182.262C136.522 182.262 134.873 182.262 133.773 180.616C132.674 182.81 131.024 183.908 129.375 183.908M193.155 74.1897L142.57 45.1144C133.773 39.6285 122.227 39.6285 113.43 45.1144L62.8454 74.1897C54.0481 79.6755 48 89.0016 48 99.4248V157.575C48 167.998 53.4983 177.873 62.8454 182.81L113.43 211.886C122.227 217.371 133.773 217.371 142.57 211.886L193.155 182.81C201.952 177.324 208 167.998 208 157.575V98.8762C208 88.453 202.502 79.127 193.155 73.6411V74.1897Z" fill="#F05656"/>
</svg>