<svg width="256" height="256" title="CodeRabbit" viewBox="0 0 256 256" fill="none" xmlns="http://www.w3.org/2000/svg">
<rect width="256" height="256" rx="40" fill="#FF5B09"/>
<path d="M128 213C174.944 213 213 174.944 213 128C213 81.0558 174.944 43 128 43C81.0557 43 43 81.0558 43 128C43 174.944 81.0557 213 128 213Z" fill="#FEFEFE"/>
<path d="M185.72 113.92C185.72 113.92 173.877 98.7812 158.99 97.9154C149.383 97.3484 147.056 98.6318 146.639 99.5877C146.042 94.6312 141.806 71.6678 112.539 66.8012C116.275 93.6585 131.705 86.6604 140.792 105.172C140.792 105.172 125.458 84.329 100.248 92.003C100.248 92.003 109.436 111.293 136.615 115.235C136.615 115.235 138.793 122.7 139.449 124.014C139.449 124.014 97.5924 102.186 84.8831 144.08C75.4246 141.937 72.252 152.205 83.1233 159.219C83.1233 159.219 84.9731 151.873 89.4774 149.694C89.4774 149.694 79.8113 160.474 91.1779 173.385H131.975C132.961 171.751 137.323 163.16 126.533 156.657C134.15 156.548 140.35 170.915 147.02 173.483H156.722C157.05 172.686 157.736 170.297 156.124 168.148C153.64 165.298 148.201 165.683 148.249 160.413C150.128 135.897 186.889 143.426 185.72 113.92Z" fill="#171717"/>
</svg>
