<svg width="256" height="256" title="Cohere" viewBox="0 0 256 256" fill="none" xmlns="http://www.w3.org/2000/svg" id="cohere">
<style>
#cohere {
    rect {fill: #15191C}

    @media (prefers-color-scheme: light) {
        rect {fill: #F4F2ED}
    }
}
</style>
<rect width="256" height="256" rx="40" fill="#15191C"/>
<path fill-rule="evenodd" clip-rule="evenodd" d="M102.98 142.346C106.882 142.346 114.646 142.129 125.376 137.712C137.878 132.564 162.759 123.21 180.706 113.612C193.262 106.902 198.765 98.0162 198.765 86.0586C198.765 82.1107 197.987 78.2015 196.477 74.5542C194.966 70.9069 192.751 67.5929 189.96 64.8016C187.168 62.0104 183.854 59.7964 180.207 58.2862C176.56 56.776 172.651 55.9991 168.704 56H99.1636C87.7153 56.0017 76.7365 60.5514 68.6419 68.6484C60.5474 76.7453 56 87.7264 56 99.1763C56 123.019 74.092 142.346 102.98 142.346Z" fill="#39594D"/>
<path fill-rule="evenodd" clip-rule="evenodd" d="M114.739 172.082C114.738 166.366 116.432 160.778 119.605 156.024C122.778 151.27 127.289 147.563 132.567 145.372L154.468 136.275C176.62 127.086 201 143.368 201 167.355C201 171.774 200.13 176.15 198.439 180.232C196.748 184.315 194.269 188.024 191.145 191.148C188.02 194.272 184.311 196.75 180.229 198.441C176.147 200.131 171.772 201.001 167.354 201L143.646 200.993C139.849 200.993 136.09 200.245 132.582 198.792C129.075 197.339 125.888 195.208 123.203 192.523C120.519 189.838 118.39 186.65 116.937 183.141C115.485 179.633 114.738 175.879 114.739 172.082Z" fill="#D18EE2"/>
<path d="M80.8871 148.035C77.6187 148.034 74.3821 148.677 71.3622 149.928C68.3424 151.178 65.5985 153.012 63.2873 155.323C60.9762 157.635 59.143 160.379 57.8927 163.399C56.6423 166.419 55.9991 169.657 56 172.925V176.149C56.1063 182.679 58.7747 188.906 63.4298 193.487C68.0848 198.067 74.3535 200.634 80.8839 200.634C87.4142 200.634 93.6829 198.067 98.338 193.487C102.993 188.906 105.661 182.679 105.768 176.149V172.919C105.768 169.651 105.124 166.415 103.874 163.396C102.623 160.377 100.791 157.634 98.4804 155.323C96.17 153.013 93.4272 151.18 90.4085 149.929C87.3899 148.678 84.1545 148.035 80.8871 148.035Z" fill="#FF7759"/>
</svg>