<svg width="256" height="256" title="ComfyUI" viewBox="0 0 256 256" fill="none" xmlns="http://www.w3.org/2000/svg" id="comfyui">
<style>
#comfyui {
    rect {fill: #15191C}

    @media (prefers-color-scheme: light) {
        rect {fill: #F4F2ED}
    }
}
</style>
<rect width="256" height="256" rx="40" fill="#15191C"/>
<path d="M87.1575 207.993C83.3007 207.993 80.1908 206.585 78.1606 203.925C76.076 201.19 75.5328 197.367 76.6667 193.449L81.2297 177.701C81.4093 177.082 81.4414 176.43 81.3234 175.797C81.2055 175.163 80.9408 174.567 80.5507 174.054C80.1557 173.539 79.6477 173.123 79.066 172.836C78.4843 172.549 77.8446 172.401 77.1964 172.401H64.0711C60.2143 172.401 57.1044 170.993 55.0742 168.333C52.9896 165.592 52.4464 161.776 53.5804 157.857L69.2655 104L70.997 98.0816C73.326 90.0544 81.8069 83.5238 89.9143 83.5238H105.62C107.494 83.5238 109.144 82.2993 109.66 80.517L114.848 62.6054C117.177 54.5782 125.657 48.0544 133.772 48.0544L167.349 48H191.929C195.786 48 198.902 49.4014 200.926 52.0612C203.01 54.7959 203.554 58.619 202.42 62.5374L195.392 86.7959C193.063 94.8095 184.575 101.333 176.468 101.333L142.816 101.401H127.117C126.212 101.399 125.33 101.689 124.603 102.23C123.876 102.771 123.343 103.532 123.084 104.401L109.993 149.327C109.812 149.946 109.779 150.6 109.897 151.234C110.015 151.869 110.28 152.467 110.672 152.98C111.473 154.02 112.709 154.633 114.033 154.633L136.27 154.592H160.783C164.639 154.592 167.749 155.993 169.78 158.66C171.864 161.395 172.407 165.218 171.273 169.136L164.239 193.388C161.917 201.408 153.429 207.932 145.322 207.932L111.663 208H87.1507L87.1575 207.993Z" fill="#F0FF41"/>
</svg>