<svg width="256" height="256" title="CommitLint" viewBox="0 0 256 256" fill="none" xmlns="http://www.w3.org/2000/svg" id="commitlint">
<style>
#commitlint {
    rect {fill: #15191C}

    @media (prefers-color-scheme: light) {
        rect {fill: #F4F2ED}
    }
}
</style>
<rect width="256" height="256" rx="40" fill="#15191C"/>
<path d="M157.211 135.532H211V143.422H157.211V135.532ZM188.916 151.318L205.021 175H195.926L184.144 159.566L172.286 175H163.185L179.296 151.318H188.916Z" fill="#CE3D40"/>
<path d="M80.2899 141.272C78.3129 142.029 76.2672 142.593 74.1812 142.958C72.0413 143.327 69.8731 143.51 67.7014 143.504C64.7832 143.695 61.8566 143.292 59.0992 142.321C56.3418 141.349 53.8111 139.829 51.6608 137.852C49.6709 135.612 48.1503 132.997 47.1882 130.162C46.2262 127.327 45.8421 124.329 46.0587 121.344C46.016 118.117 46.565 114.909 47.6787 111.879C48.6806 109.171 50.2306 106.697 52.2322 104.612C54.2098 102.58 56.5971 100.99 59.2363 99.9469C62.0913 98.8223 65.1386 98.2635 68.208 98.3019C70.348 98.2906 72.4854 98.4517 74.5994 98.7836C76.549 99.0959 78.4576 99.624 80.2899 100.358V107.631C78.4576 106.662 76.5073 105.934 74.4875 105.463C72.4857 105.006 70.4383 104.778 68.3847 104.782C66.4812 104.772 64.596 105.154 62.8474 105.904C61.1129 106.644 59.5535 107.739 58.2702 109.118C56.9047 110.605 55.8495 112.349 55.1658 114.247C54.3746 116.437 53.9874 118.752 54.023 121.079C53.6843 125.411 55.0777 129.701 57.8991 133.011C59.3199 134.374 61.0076 135.43 62.8565 136.113C64.7054 136.795 66.6757 137.089 68.6439 136.977C70.6714 136.984 72.6926 136.75 74.6642 136.278C76.618 135.807 78.5071 135.1 80.2899 134.175V141.272ZM110.409 87.2627H97.4085V81H118.109V136.542H131.198V142.893H95.9593V136.542H110.409V87.2627Z" fill="#50B2DD"/>
</svg>