<svg width="256" height="256" title="Conar" viewBox="0 0 256 256" fill="none" xmlns="http://www.w3.org/2000/svg">
<rect width="256" height="256" rx="40" fill="url(#linearGradient1)"/>
<path d="M157.955 105.334C158.289 105.239 158.574 105.022 158.754 104.725C158.934 104.428 158.995 104.075 158.926 103.735C157.919 98.8079 153.658 87.6545 144.18 77.3254C139.584 72.0362 130.975 66.299 122.805 61.5652C114.396 56.6919 105.554 52.3784 99.9035 50.0995C99.6934 50.0148 99.4655 49.9834 99.2403 50.0083C99.015 50.0331 98.7994 50.1133 98.6127 50.2417C98.4259 50.3704 98.2739 50.5433 98.17 50.745C98.0661 50.9468 98.0137 51.171 98.0173 51.3979L98.3899 74.6292C98.3941 74.8917 98.4734 75.1475 98.6181 75.3665C98.7629 75.5855 98.9673 75.7585 99.2071 75.8651C117.491 83.9782 129.545 91.2122 137.139 96.8562C140.937 99.6793 143.559 102.059 145.27 103.9C146.163 104.86 146.744 105.606 147.108 106.132C147.29 106.395 147.416 106.6 147.497 106.746C147.584 106.901 147.609 106.967 147.605 106.956C147.724 107.282 147.962 107.551 148.271 107.708C148.579 107.866 148.936 107.901 149.27 107.806L157.955 105.334ZM161.154 141.016C161.362 141.293 161.668 141.481 162.009 141.542C162.35 141.603 162.702 141.532 162.994 141.345C167.215 138.624 176.057 130.614 182.246 118.028C185.509 111.825 187.738 101.709 189.192 92.367C190.689 82.7505 191.51 72.9325 191.59 66.8312C191.593 66.6043 191.54 66.3802 191.435 66.1788C191.331 65.9774 191.178 65.8049 190.991 65.6768C190.804 65.5488 190.588 65.4691 190.363 65.4449C190.137 65.4207 189.909 65.4527 189.699 65.538L168.211 74.2803C167.968 74.3794 167.759 74.5459 167.607 74.7602C167.456 74.9746 167.369 75.2277 167.356 75.49C166.411 95.5008 164.033 109.375 161.524 118.507C160.268 123.076 159 126.384 157.905 128.648C157.334 129.829 156.85 130.642 156.492 131.172C156.313 131.437 156.167 131.628 156.061 131.757C155.967 131.871 155.915 131.923 155.905 131.932C155.903 131.934 155.903 131.934 155.905 131.932C155.645 132.162 155.481 132.481 155.445 132.827C155.41 133.172 155.506 133.518 155.715 133.795L161.154 141.016ZM122.208 155.402C122.009 155.686 121.925 156.035 121.972 156.379C122.019 156.723 122.194 157.036 122.462 157.257C126.345 160.444 136.673 166.408 150.531 168.437C157.427 169.639 167.72 168.653 177.04 167.165C186.634 165.635 196.212 163.397 202.031 161.596C202.248 161.529 202.445 161.409 202.604 161.248C202.763 161.086 202.88 160.888 202.944 160.67C203.008 160.452 203.017 160.222 202.971 160C202.925 159.778 202.824 159.571 202.678 159.397L187.766 141.602C187.597 141.401 187.375 141.253 187.124 141.174C186.874 141.096 186.606 141.09 186.353 141.159C167.056 146.414 153.147 148.414 143.701 148.831C138.976 149.04 135.443 148.848 132.956 148.501C131.659 148.32 130.739 148.109 130.125 147.93C129.892 147.864 129.662 147.787 129.437 147.7C129.299 147.645 129.234 147.611 129.222 147.605C129.22 147.604 129.22 147.604 129.222 147.605C128.924 147.427 128.57 147.369 128.231 147.441C127.892 147.514 127.593 147.712 127.394 147.997L122.208 155.402ZM98.6958 127.579C98.3638 127.479 98.0064 127.509 97.6954 127.662C97.3843 127.815 97.1427 128.08 97.019 128.404C95.2228 133.101 92.8271 144.799 95.2715 158.614C96.3056 165.549 100.484 175.025 104.83 183.418C109.303 192.057 114.441 200.458 117.98 205.425C118.112 205.609 118.287 205.758 118.491 205.859C118.694 205.959 118.919 206.007 119.145 205.999C119.372 205.991 119.593 205.927 119.789 205.813C119.985 205.699 120.149 205.538 120.268 205.345L132.426 185.56C132.707 185.103 132.697 184.525 132.401 184.078C121.343 167.386 115.065 154.793 111.693 145.943C110.007 141.516 109.075 138.097 108.62 135.623C108.383 134.332 108.293 133.391 108.269 132.751C108.258 132.509 108.259 132.266 108.27 132.024C108.28 131.846 108.295 131.777 108.292 131.789C108.367 131.45 108.311 131.096 108.135 130.796C107.959 130.497 107.677 130.275 107.345 130.175L98.6958 127.579ZM121.059 93.1981C121.05 92.8513 120.91 92.5207 120.668 92.2727C120.426 92.0246 120.099 91.8773 119.752 91.8603C114.738 91.6177 102.897 92.9917 90.5604 99.6334C84.307 102.784 76.6265 109.72 70.0254 116.477C63.2304 123.433 56.8691 130.946 53.266 135.866C53.132 136.049 53.0453 136.263 53.0135 136.487C52.9818 136.712 53.006 136.941 53.0841 137.154C53.1621 137.367 53.2915 137.557 53.4608 137.708C53.6301 137.859 53.8341 137.966 54.0545 138.019L76.6141 143.41C76.8692 143.47 77.1363 143.457 77.384 143.37C77.6316 143.284 77.8494 143.129 78.0115 142.923C90.3855 127.185 100.366 117.277 107.705 111.304C111.376 108.316 114.327 106.361 116.531 105.156C117.681 104.527 118.546 104.147 119.145 103.924C119.371 103.839 119.602 103.763 119.835 103.699C119.978 103.66 120.05 103.649 120.064 103.646C120.066 103.646 120.065 103.646 120.064 103.646C120.409 103.611 120.728 103.446 120.957 103.186C121.186 102.925 121.308 102.588 121.299 102.241L121.059 93.1981Z" fill="url(#linearGradient2)"/>
<linearGradient id="linearGradient1" x1="39.8191" y1="-2.77719e-06" x2="216.181" y2="256" gradientUnits="userSpaceOnUse">
<stop stop-color="#3F74F5"/>
<stop offset="1" stop-color="#1D48D0"/>
</linearGradient>
<linearGradient id="linearGradient2" x1="53" y1="52.4589" x2="203.077" y2="203.464" gradientUnits="userSpaceOnUse">
<stop stop-color="white"/>
<stop offset="1" stop-color="#BFCFE7"/>
</linearGradient>
</svg>