<svg width="256" height="256" title="Confluence" viewBox="0 0 256 256" fill="none" xmlns="http://www.w3.org/2000/svg" id="confluence">
<style>
#confluence {
    rect {fill: #15191C}

    @media (prefers-color-scheme: light) {
        rect {fill: #F4F2ED}
    }
}
</style>
<rect width="256" height="256" rx="40" fill="#15191C"/>
<path d="M53.7976 168.566C52.1461 171.268 50.2889 174.404 48.706 176.9C48.0287 178.051 47.8288 179.422 48.1493 180.719C48.4698 182.016 49.2852 183.136 50.4203 183.838L83.5186 204.238C84.0872 204.59 84.7197 204.827 85.3797 204.934C86.0398 205.042 86.7145 205.017 87.3652 204.863C88.0159 204.709 88.6299 204.428 89.172 204.036C89.7141 203.644 90.1737 203.148 90.5245 202.578L90.5702 202.503C91.8903 200.288 93.5989 197.403 95.4561 194.318C108.565 172.641 121.743 175.297 145.532 186.671L178.35 202.303C178.955 202.592 179.61 202.758 180.279 202.792C180.947 202.827 181.616 202.73 182.247 202.505C182.878 202.281 183.459 201.934 183.956 201.485C184.453 201.036 184.857 200.493 185.145 199.888L185.208 199.75L200.951 164.061C201.486 162.836 201.519 161.45 201.044 160.2C200.568 158.951 199.621 157.938 198.408 157.381C191.482 154.119 177.71 147.61 165.31 141.617C120.708 119.906 82.7985 121.309 53.7976 168.566Z" fill="url(#linearGradient1)"/>
<path d="M202.202 87.5427C203.854 84.8409 205.711 81.7042 207.294 79.2085C207.971 78.0574 208.171 76.6863 207.851 75.3893C207.53 74.0922 206.715 72.9728 205.58 72.271L172.487 51.8707C171.933 51.4964 171.311 51.2352 170.656 51.1019C170.001 50.9687 169.326 50.966 168.67 51.0942C168.014 51.2223 167.39 51.4786 166.833 51.8486C166.276 52.2185 165.797 52.6948 165.424 53.2502C165.356 53.3479 165.293 53.4491 165.236 53.5536C163.91 55.7687 162.207 58.6536 160.344 61.7389C147.235 83.4157 134.057 80.7597 110.268 69.3861L77.5526 53.834C76.9493 53.5457 76.2952 53.3793 75.6277 53.3444C74.9602 53.3095 74.2924 53.4067 73.6624 53.6305C73.0324 53.8543 72.4526 54.2003 71.9563 54.6487C71.4599 55.0972 71.0566 55.6392 70.7695 56.2438L70.7067 56.3812L54.9462 92.0875C54.4112 93.3126 54.378 94.6991 54.8536 95.9485C55.3292 97.1979 56.2756 98.2102 57.4891 98.7674C64.415 102.03 78.1869 108.533 90.5873 114.526C135.292 136.202 173.201 134.749 202.202 87.5427Z" fill="url(#linearGradient2)"/>
<linearGradient id="linearGradient1" x1="206.607" y1="224.637" x2="79.0512" y2="186.522" gradientUnits="userSpaceOnUse">
<stop offset="0.18" stop-color="#0052CC"/>
<stop offset="1" stop-color="#2684FF"/>
</linearGradient>
<linearGradient id="linearGradient2" x1="55.9291" y1="41.3214" x2="156.169" y2="98.8349" gradientUnits="userSpaceOnUse">
<stop offset="0.18" stop-color="#0052CC"/>
<stop offset="1" stop-color="#2684FF"/>
</linearGradient>
</svg>