<svg width="256" height="256" title="HashiCorp Consul" viewBox="0 0 256 256" fill="none" xmlns="http://www.w3.org/2000/svg" id="consul">
<style>
#consul {
    rect {fill: #15191C}

    @media (prefers-color-scheme: light) {
        rect {fill: #F4F2ED}
    }
}
</style>
<rect width="256" height="256" rx="40" fill="#15191C"/>
<path d="M128.825 209C115.684 209.013 102.739 205.829 91.1126 199.723C79.4863 193.617 69.5304 184.774 62.1092 173.963C54.6879 163.151 50.0256 150.697 48.5269 137.681C47.0282 124.666 48.7384 111.482 53.5091 99.2748C58.2797 87.0677 65.9667 76.2058 75.9027 67.6321C85.8387 59.0584 97.7234 53.032 110.525 50.0759C123.327 47.1199 136.659 47.3236 149.364 50.6693C162.069 54.0151 173.763 60.4017 183.431 69.275L164.283 89.262C156.665 82.4035 147.215 77.8951 137.079 76.2833C126.943 74.6714 116.555 76.0253 107.175 80.1808C97.7953 84.3363 89.8257 91.1151 84.2322 99.6955C78.6387 108.276 75.6615 118.29 75.6615 128.523C75.6615 138.756 78.6387 148.77 84.2322 157.35C89.8257 165.931 97.7953 172.71 107.175 176.865C116.555 181.021 126.943 182.374 137.079 180.763C147.215 179.151 156.665 174.642 164.283 167.784L183.431 187.759C168.552 201.428 149.057 209.012 128.825 209ZM193.789 168.738C192.035 168.738 190.352 168.044 189.111 166.807C187.871 165.57 187.174 163.892 187.174 162.143C187.174 160.394 187.871 158.717 189.111 157.48C190.352 156.243 192.035 155.548 193.789 155.548C195.544 155.548 197.226 156.243 198.467 157.48C199.707 158.717 200.404 160.394 200.404 162.143C200.404 163.892 199.707 165.57 198.467 166.807C197.226 168.044 195.544 168.738 193.789 168.738Z" fill="#E03875"/>
<path d="M128.294 145.945C125.996 145.955 123.719 145.512 121.593 144.644C119.466 143.776 117.532 142.498 115.901 140.885C112.606 137.626 110.745 133.196 110.727 128.569C110.708 123.942 112.534 119.498 115.803 116.213C119.072 112.928 123.515 111.073 128.156 111.054C132.797 111.035 137.255 112.854 140.551 116.111C143.847 119.369 145.709 123.798 145.729 128.425C145.749 133.052 143.925 137.497 140.657 140.783C137.39 144.069 132.935 145.926 128.294 145.945ZM201.379 146.256C200.51 146.256 199.649 146.085 198.845 145.753C198.042 145.422 197.312 144.936 196.697 144.323C196.082 143.71 195.595 142.982 195.262 142.181C194.929 141.38 194.758 140.522 194.758 139.655C194.758 138.788 194.929 137.93 195.262 137.129C195.595 136.328 196.082 135.6 196.697 134.987C197.312 134.374 198.042 133.888 198.845 133.556C199.649 133.225 200.51 133.054 201.379 133.054C203.135 133.054 204.819 133.749 206.061 134.987C207.302 136.225 208 137.904 208 139.655C208 141.406 207.302 143.085 206.061 144.323C204.819 145.561 203.135 146.256 201.379 146.256ZM181.701 145.428C180.831 145.428 179.97 145.257 179.167 144.925C178.364 144.594 177.634 144.108 177.019 143.495C176.404 142.882 175.916 142.154 175.584 141.353C175.251 140.552 175.08 139.694 175.08 138.827C175.08 137.96 175.251 137.102 175.584 136.301C175.916 135.5 176.404 134.772 177.019 134.159C177.634 133.546 178.364 133.06 179.167 132.728C179.97 132.397 180.831 132.226 181.701 132.226C183.457 132.226 185.141 132.921 186.382 134.159C187.624 135.397 188.322 137.076 188.322 138.827C188.322 140.578 187.624 142.257 186.382 143.495C185.141 144.733 183.457 145.428 181.701 145.428ZM201.379 124.015C200.487 124.052 199.597 123.909 198.762 123.594C197.927 123.28 197.164 122.8 196.52 122.184C195.875 121.568 195.363 120.828 195.013 120.009C194.662 119.191 194.482 118.31 194.482 117.42C194.482 116.53 194.662 115.649 195.013 114.83C195.363 114.011 195.875 113.272 196.52 112.656C197.164 112.04 197.927 111.56 198.762 111.245C199.597 110.93 200.487 110.787 201.379 110.824C203.086 110.896 204.699 111.621 205.881 112.851C207.064 114.08 207.724 115.717 207.724 117.42C207.724 119.123 207.064 120.76 205.881 121.989C204.699 123.218 203.086 123.944 201.379 124.015ZM181.701 124.762C179.945 124.762 178.261 124.067 177.019 122.829C175.777 121.591 175.08 119.912 175.08 118.161C175.08 116.411 175.777 114.732 177.019 113.494C178.261 112.256 179.945 111.56 181.701 111.56C183.457 111.56 185.141 112.256 186.382 113.494C187.624 114.732 188.322 116.411 188.322 118.161C188.322 119.912 187.624 121.591 186.382 122.829C185.141 124.067 183.457 124.762 181.701 124.762ZM194.181 101.82C193.289 101.859 192.399 101.719 191.563 101.406C190.727 101.093 189.963 100.616 189.318 100.001C188.672 99.3868 188.157 98.6485 187.805 97.8308C187.452 97.013 187.27 96.1327 187.267 95.2427C187.265 94.3527 187.443 93.4714 187.791 92.6519C188.139 91.8323 188.65 91.0913 189.293 90.4736C189.935 89.8558 190.696 89.374 191.531 89.0571C192.365 88.7402 193.255 88.5947 194.147 88.6295C195.903 88.6249 197.589 89.316 198.833 90.5507C200.078 91.7853 200.78 93.4625 200.785 95.2132C200.79 96.9639 200.096 98.6447 198.858 99.8859C197.62 101.127 195.937 101.827 194.181 101.831V101.82Z" fill="#E03875"/>
</svg>