<svg width="256" height="256" title="Cookiecutter" viewBox="0 0 256 256" fill="none" xmlns="http://www.w3.org/2000/svg" id="cookiecutter">
<style>
#cookiecutter {
    rect {fill: #15191C}

    @media (prefers-color-scheme: light) {
        rect {fill: #F4F2ED}
    }
}
</style>
<rect width="256" height="256" rx="40" fill="#15191C"/>
<path d="M203 169.055C180.606 207.451 131.329 220.421 92.9389 198.023C54.5483 175.625 41.5809 126.341 63.9754 87.945C86.3699 49.5486 135.646 36.5792 174.037 58.9771C182.199 63.7395 189.46 69.9026 195.485 77.1841L133.488 128.5L203 169.055Z" fill="#D4AA00"/>
<path d="M144.322 102.583C141.911 106.716 136.607 108.112 132.475 105.701C128.343 103.29 126.947 97.9855 129.357 93.8525C131.768 89.7196 137.072 88.3235 141.204 90.7344C145.231 93.0839 146.677 98.1998 144.475 102.31L136.84 98.2179L144.322 102.583Z" fill="black"/>
<path d="M150.107 194.574C145.573 189.564 147.394 176.666 152.636 176.666C155.131 176.666 161.771 192.204 160.591 195.281C159.242 198.796 153.581 198.414 150.107 194.574ZM82.7617 135.462C82.2405 134.104 83.5512 128.954 85.6743 124.018C89.0655 116.134 90.1637 115.044 94.7145 115.044C101.641 115.044 106.705 117.958 106.705 121.943C106.705 126.596 93.5567 137.932 88.1604 137.932C85.7122 137.932 83.2828 136.821 82.7617 135.462ZM100.103 73.3825C96.5726 71.9577 97.5547 68.139 102.242 65.0675C107.644 61.5274 110.751 61.495 117.354 64.9102C123.031 67.8463 124.143 71.7993 119.764 73.4799C116.499 74.7327 103.287 74.6672 100.103 73.3825Z" fill="#715A00"/>
</svg>