<svg width="256" height="256" title="Coze" viewBox="0 0 256 256" fill="none" xmlns="http://www.w3.org/2000/svg" id="coze">
<style>
#coze {
    rect {fill: #15191C}
    path {fill: white}

    @media (prefers-color-scheme: light) {
        rect {fill: #F4F2ED}
        path {fill: black}
    }
}
</style>
<rect width="256" height="256" rx="40" fill="#15191C"/>
<path fill-rule="evenodd" clip-rule="evenodd" d="M69.4958 108.94C69.492 101.202 71.0149 93.5398 73.9774 86.3901C76.94 79.2403 81.2842 72.7432 86.762 67.27C92.2398 61.7967 98.7439 57.4545 105.903 54.4913C113.062 51.5281 120.735 50.0019 128.485 50H128.528C161.107 50 187.517 76.4122 187.517 108.94V133.634H201.677C217.937 133.634 221.598 156.392 206.161 161.502L187.524 167.69V178.363C187.525 180.78 186.907 183.156 185.729 185.268C184.551 187.379 182.851 189.154 180.792 190.425C178.734 191.695 176.383 192.419 173.965 192.528C171.547 192.637 169.141 192.126 166.977 191.045L156.623 185.898C156.134 185.679 155.536 185.898 155.383 186.415C147.02 212.528 109.993 212.528 101.622 186.415C101.581 186.296 101.514 186.188 101.428 186.097C101.341 186.006 101.236 185.934 101.12 185.886C101.004 185.838 100.879 185.815 100.753 185.818C100.627 185.821 100.504 185.851 100.39 185.905L90.0362 191.045C80.63 195.777 69.4958 188.919 69.4958 178.363V167.69L50.8513 161.502C35.3786 156.428 39.0827 133.634 55.3356 133.634H69.4958V108.94ZM102.826 127.963C101.309 127.963 99.8554 128.564 98.7833 129.634C97.7112 130.705 97.109 132.157 97.109 133.67V145.086C97.109 146.599 97.7112 148.051 98.7833 149.121C99.8554 150.192 101.309 150.793 102.826 150.793C104.342 150.793 105.796 150.192 106.868 149.121C107.94 148.051 108.542 146.599 108.542 145.086V133.67C108.542 132.157 107.94 130.705 106.868 129.634C105.796 128.564 104.342 127.963 102.826 127.963ZM154.195 133.634C152.678 133.634 151.224 134.235 150.152 135.306C149.08 136.376 148.478 137.828 148.478 139.341C148.478 140.855 149.08 142.307 150.152 143.377C151.224 144.448 152.678 145.049 154.195 145.049C155.711 145.049 157.165 144.448 158.237 143.377C159.309 142.307 159.911 140.855 159.911 139.341C159.911 137.828 159.309 136.376 158.237 135.306C157.165 134.235 155.711 133.634 154.195 133.634ZM109.089 158.495C109.376 159.187 109.797 159.816 110.329 160.345C112.711 162.729 115.541 164.621 118.656 165.911C121.772 167.202 125.111 167.867 128.485 167.867C131.858 167.867 135.198 167.202 138.313 165.911C141.429 164.621 144.258 162.729 146.641 160.345C147.171 159.816 147.591 159.188 147.878 158.497C148.165 157.806 148.313 157.066 148.313 156.318C148.314 155.57 148.166 154.829 147.88 154.138C147.594 153.446 147.174 152.818 146.644 152.289C146.115 151.76 145.486 151.34 144.794 151.054C144.102 150.767 143.36 150.619 142.611 150.619C141.862 150.619 141.12 150.766 140.427 151.052C139.735 151.338 139.106 151.757 138.576 152.286C135.899 154.954 132.271 156.453 128.488 156.453C124.705 156.453 121.077 154.954 118.4 152.286C117.739 151.618 116.922 151.124 116.022 150.849C115.123 150.573 114.169 150.525 113.246 150.708C112.324 150.892 111.461 151.301 110.735 151.899C110.01 152.497 109.444 153.265 109.089 154.135C108.8 154.827 108.651 155.569 108.651 156.319C108.651 157.068 108.8 157.811 109.089 158.503V158.495Z" fill="white"/>
</svg>