<svg width="256" height="256" title="cPanel" viewBox="0 0 256 256" fill="none" xmlns="http://www.w3.org/2000/svg" id="cpanel">
<style>
#cpanel {
    rect {fill: #15191C}

    @media (prefers-color-scheme: light) {
        rect {fill: #F4F2ED}
    }
}
</style>
<rect width="256" height="256" rx="40" fill="#15191C"/>
<path d="M87.2848 100.201H118.498L113.674 118.722C112.993 121.148 111.537 123.286 109.529 124.809C107.519 126.36 105.041 127.182 102.503 127.14H88.0942C84.9232 127.086 81.8283 128.114 79.3195 130.054C76.7559 132.044 74.8953 134.801 74.0094 137.922C73.3728 140.224 73.2951 142.643 73.7827 144.981C74.2697 147.097 75.1843 149.091 76.4702 150.842C77.7851 152.578 79.4943 153.976 81.4565 154.921C83.5195 155.941 85.7931 156.462 88.0942 156.443H96.8366C98.4414 156.412 99.9619 157.16 100.916 158.451C101.936 159.7 102.264 161.377 101.791 162.919L96.2861 183.382H86.5724C80.2083 183.446 73.9262 181.945 68.2783 179.011C62.8775 176.277 58.1456 172.385 54.4201 167.614C50.7418 162.844 48.1751 157.313 46.9081 151.424C45.5506 145.185 45.7172 138.709 47.3938 132.547L47.9443 130.313C49.1097 125.963 50.9919 121.838 53.5134 118.106C55.9934 114.488 59.0315 111.286 62.5148 108.619C65.9969 105.947 69.8901 103.859 74.0417 102.435C78.297 100.942 82.7753 100.187 87.2848 100.201ZM103.053 183.512L130.187 81.5504C130.868 79.0804 132.348 76.9057 134.396 75.366C136.405 73.7848 138.899 72.9495 141.455 73.0024H170.305C176.621 72.9633 182.853 74.4518 188.469 77.3412C199.528 82.9602 207.471 93.258 210.098 105.381C211.465 111.613 211.276 118.085 209.548 124.226L208.997 126.298C207.836 130.654 205.965 134.789 203.461 138.537C201.042 142.239 198.034 145.52 194.556 148.251C187.448 153.727 178.728 156.699 169.754 156.702H144.758L149.614 137.76C150.287 135.338 151.73 133.201 153.727 131.673C155.747 130.115 158.234 129.283 160.785 129.309H169.042C175.671 129.295 181.439 124.769 183.03 118.333C183.658 116.129 183.725 113.803 183.224 111.566C182.751 109.445 181.835 107.447 180.536 105.705C179.178 104.007 177.465 102.625 175.518 101.658C173.514 100.628 171.295 100.084 169.042 100.071H153.467L133.425 175.061C132.729 177.481 131.277 179.614 129.28 181.148C127.319 182.701 124.885 183.535 122.384 183.512H103.053Z" fill="#F26C32"/>
</svg>