<svg width="256" height="256" title="Crush" viewBox="0 0 256 256" fill="none" xmlns="http://www.w3.org/2000/svg" id="crush">
<style>
#crush {
    rect {fill: #15191C}

    @media (prefers-color-scheme: light) {
        rect {fill: #F4F2ED}
    }
}
</style>
<rect width="256" height="256" rx="40" fill="#15191C"/>
<path d="M219.592 83.9913C219.592 83.9913 182.833 83.9442 153.479 83.906C152.643 81.7302 150.717 80.0889 148.372 79.6563C148.304 77.156 147.263 75.4676 146.335 74.4496C144.851 72.8261 142.745 71.9316 140.407 71.9316H122.565C122.418 71.7293 122.258 71.5333 122.088 71.345C120.736 69.855 118.775 69 116.706 69C115.076 69 113.453 69.4568 112.012 70.3207C111.418 70.677 110.632 71.2649 109.934 72.1772C108.797 72.4253 107.742 72.8592 106.791 73.4699L106.773 73.4814L106.758 73.4915C104.166 75.18 102.579 77.9792 102.29 81.3714L102.116 83.3551C102.1 83.5396 102.09 83.7203 102.082 83.8984L57.5837 84.004C41.3164 84.004 28.0447 97.1338 28.0001 113.273C27.9785 121.12 31.0264 128.507 36.5834 134.074C42.1404 139.64 49.5265 142.707 57.3812 142.707H79.7355C78.4503 146.939 79.1712 151.63 81.809 155.298C81.8599 155.368 81.9109 155.438 81.9644 155.507L101.891 181.47C104.549 184.932 108.742 187 113.111 187H142.786C147.154 187 151.348 184.932 154.006 181.47L173.803 155.678C173.856 155.609 173.907 155.539 173.959 155.468C176.642 151.738 177.341 146.949 175.965 142.662H219.594C224.229 142.662 228 138.895 228 134.265V92.3916C228 87.7614 224.229 83.9938 219.594 83.9938V83.9913H219.592Z" fill="#FF84FF"/>
<path d="M219.592 86.0271C219.592 86.0271 181.471 85.9787 151.873 85.9406C151.675 83.5001 149.631 81.5801 147.137 81.5801H146.225C146.272 81.033 146.304 80.6551 146.304 80.6551C146.521 78.235 145.621 76.6916 144.828 75.8225C143.735 74.6265 142.165 73.9674 140.406 73.9674C139.925 73.9674 125.911 73.9687 121.405 73.9687C121.196 73.5132 120.918 73.0882 120.576 72.7116C119.61 71.6466 118.199 71.0345 116.705 71.0345C115.444 71.0345 114.183 71.3908 113.059 72.0652C112.51 72.3947 111.725 73.0067 111.14 74.0336C109.952 74.1799 108.844 74.5692 107.893 75.1813C107.885 75.1864 107.877 75.1914 107.87 75.1965C105.815 76.5351 104.554 78.7936 104.319 81.547L104.145 83.5319C104.065 84.4366 104.121 85.2319 104.261 85.9266L57.5812 86.0373C42.4346 86.0373 30.0775 98.256 30.0354 113.275C30.0151 120.578 32.8515 127.452 38.0239 132.633C43.1963 137.815 50.069 140.669 57.3787 140.669H82.8369C82.7859 140.754 82.7337 140.839 82.6853 140.926C80.3838 145.079 80.6882 150.252 83.4597 154.106C83.4979 154.16 83.5374 154.213 83.5781 154.265L103.505 180.228C105.795 183.212 109.343 184.96 113.107 184.96H142.782C146.546 184.96 150.094 183.211 152.385 180.228L172.181 154.434C172.222 154.382 172.26 154.329 172.3 154.275C175.072 150.421 175.376 145.247 173.074 141.095C172.985 140.934 172.892 140.778 172.796 140.623H219.587C223.104 140.623 225.956 137.774 225.956 134.261V92.3878C225.956 88.8747 223.104 86.0258 219.587 86.0258H219.592V86.0271Z" fill="#6B50FF"/>
<path d="M116.705 143.715L101.46 119.584C105.55 116.935 108.256 112.324 108.228 107.095C108.184 98.938 101.427 92.4005 93.2619 92.4005H78.9407C75.6342 92.4005 72.9544 95.0776 72.9544 98.3807V122.346H57.4971C52.5412 122.346 48.4286 118.393 48.3814 113.442C48.333 108.443 52.3897 104.361 57.3825 104.361H63.5229L66.3606 99.4622H57.3838C49.7162 99.4622 43.4778 105.694 43.4778 113.354C43.4778 121.014 49.7162 127.246 57.3838 127.246H77.8593V98.382C77.8593 97.7852 78.3446 97.3005 78.942 97.3005H93.3141C98.7718 97.3005 103.292 101.666 103.324 107.117C103.356 112.383 99.2379 116.715 94.0515 117.034L112.543 146.303C112.71 146.566 112.772 146.889 112.689 147.19C112.555 147.672 112.122 147.987 111.644 147.987H95.6092L111.41 173.528C111.61 173.878 111.426 174.322 111.037 174.426C110.775 174.496 110.498 174.388 110.355 174.158L92.6187 147.536C92.3321 147.137 92.3448 146.586 92.6785 146.197C92.8887 145.951 93.2058 145.823 93.5293 145.823H109.681L91.1858 116.547C90.9298 116.142 90.9667 115.608 91.303 115.237C91.5131 115.007 91.8201 114.887 92.1321 114.887H93.4389C97.7363 114.887 101.225 111.362 101.159 107.055C101.094 102.823 97.558 99.461 93.3204 99.461H80.0233V128.34C80.0157 128.931 79.5342 129.407 78.942 129.407H57.3838C48.5228 129.407 41.3125 122.205 41.3125 113.352C41.3125 104.498 48.5215 97.2966 57.3838 97.2966H67.6139L70.4516 92.3979H57.5875C45.9933 92.3979 36.442 101.709 36.4102 113.292C36.3783 124.873 45.7997 134.304 57.385 134.304H78.9432C82.2497 134.304 84.9295 131.627 84.9295 128.324V104.358H93.3701C94.896 104.358 96.1977 105.542 96.255 107.065C96.3161 108.667 95.0297 109.989 93.4389 109.989H92.1015C89.921 109.989 87.9124 111.173 86.8591 113.082C85.8058 114.989 85.8746 117.319 87.0387 119.161L100.788 140.924H93.5981C91.3959 140.924 89.3288 142.082 88.2614 144.007C87.1368 146.035 87.2896 148.522 88.6372 150.395L107.858 175.437C108.694 176.593 110.157 177.114 111.537 176.742C113.508 176.211 114.582 174.088 113.842 172.187L103.39 152.885H111.646C113.827 152.885 115.835 151.7 116.889 149.792C117.942 147.884 117.873 145.555 116.709 143.712L116.705 143.715Z" fill="#00FFB2"/>
<path d="M112.541 146.303L94.0503 117.034C99.2367 116.715 103.354 112.383 103.323 107.117C103.291 101.665 98.7692 97.3005 93.3128 97.3005H78.9407C78.3433 97.3005 77.858 97.7852 77.858 98.382V127.246H57.3825C49.715 127.246 43.4765 121.014 43.4765 113.354C43.4765 105.694 49.715 99.4622 57.3825 99.4622H66.3593L67.6126 97.2992H57.3825C48.5215 97.2992 41.3113 104.501 41.3113 113.354C41.3113 122.207 48.5202 129.409 57.3825 129.409H78.9407C79.5342 129.409 80.0144 128.933 80.022 128.343V99.4635H93.3192C97.5567 99.4635 101.092 102.825 101.157 107.057C101.224 111.365 97.735 114.89 93.4376 114.89H92.1308C91.8188 114.89 91.5118 115.01 91.3017 115.24C90.9654 115.61 90.9285 116.145 91.1845 116.549L109.68 145.826H93.5281C93.2045 145.826 92.8874 145.954 92.6772 146.2C92.3435 146.589 92.3308 147.14 92.6174 147.538L110.353 174.16C110.497 174.391 110.774 174.499 111.036 174.429C111.426 174.324 111.61 173.879 111.409 173.531L95.608 147.99H111.642C112.121 147.99 112.554 147.674 112.688 147.192C112.771 146.892 112.708 146.569 112.541 146.305V146.303Z" fill="#6B50FF"/>
<path d="M140.108 92.3865V118.225C140.108 124.981 134.605 130.478 127.842 130.478C121.079 130.478 115.577 124.981 115.577 118.225V92.3865H110.673V118.037C110.673 127.502 118.268 135.323 127.741 135.377C137.255 135.431 145.011 127.716 145.011 118.225V92.3865H140.108Z" fill="#00FFB2"/>
<path d="M127.842 128.315C133.412 128.315 137.942 123.788 137.942 118.225V92.3865H133.039V118.225C133.039 121.13 130.639 123.484 127.716 123.415C124.878 123.348 122.644 120.963 122.644 118.127V92.3865H117.741V118.225C117.741 123.789 122.272 128.315 127.841 128.315H127.842Z" fill="#00FFB2"/>
<path d="M127.842 130.478C121.079 130.478 115.577 124.981 115.577 118.225V92.3865H117.742V118.225C117.742 123.789 122.274 128.315 127.842 128.315C133.411 128.315 137.942 123.788 137.942 118.225V92.3865H140.108V118.225C140.108 124.981 134.605 130.478 127.842 130.478Z" fill="#6B50FF"/>
<path d="M182.75 92.3712H177.084L167.889 108.235L170.652 109.032C171.346 109.232 172.014 109.487 172.654 109.793L182.751 92.3725L182.75 92.3712Z" fill="#00FFB2"/>
<path d="M166.04 97.3323L164.786 99.4953L160.89 106.216L165.745 107.616L174.582 92.3712H168.916L166.04 97.3323Z" fill="#00FFB2"/>
<path d="M162.114 127.974L166.497 120.411L161.642 119.011L146.002 145.993H162.239C162.562 145.993 162.88 146.122 163.09 146.368C163.423 146.757 163.436 147.308 163.15 147.706L145.414 174.328C145.27 174.559 144.993 174.667 144.731 174.597C144.341 174.492 144.157 174.047 144.358 173.698L160.159 148.158H144.157C143.848 148.158 143.546 148.042 143.336 147.818C143.003 147.461 142.953 146.94 143.189 146.534L159.499 118.394L156.756 117.603C156.055 117.4 155.381 117.143 154.737 116.834L138.946 144.079C137.721 146.192 137.893 148.869 139.463 150.826C140.613 152.26 142.384 153.057 144.223 153.057H152.383L141.931 172.359C141.19 174.26 142.265 176.382 144.237 176.914C145.615 177.285 147.08 176.765 147.915 175.608L167.136 150.566C168.484 148.693 168.635 146.207 167.512 144.179C166.445 142.254 164.379 141.096 162.175 141.096H154.513L162.119 127.975H162.114V127.974Z" fill="#00FFB2"/>
<path d="M163.18 112.04L174.582 92.37H177.085L165.325 112.658L163.18 112.04Z" fill="#6B50FF"/>
<path d="M162.063 113.969L143.189 146.533C142.953 146.939 143.003 147.459 143.336 147.817C143.547 148.042 143.85 148.157 144.157 148.157H160.159L144.358 173.697C144.158 174.047 144.343 174.491 144.731 174.595C144.993 174.665 145.27 174.557 145.414 174.327L163.15 147.705C163.436 147.307 163.423 146.756 163.09 146.366C162.88 146.121 162.562 145.992 162.239 145.992H146.002L164.205 114.586L162.062 113.967L162.063 113.969Z" fill="#6B50FF"/>
<path d="M172.828 121.394C172.828 118.984 171.295 116.823 169.053 116.001C168.928 115.955 168.802 115.913 168.672 115.875L158.13 112.835C157.823 112.746 157.525 112.64 157.236 112.517C154.352 111.292 152.41 108.421 152.41 105.238C152.41 100.877 155.961 97.331 160.325 97.331H166.038L168.914 92.37H160.325C153.221 92.37 147.444 98.1428 147.444 105.238C147.444 108.051 148.338 110.725 150.031 112.972C151.723 115.221 154.048 116.82 156.753 117.6L167.676 120.749C167.988 120.84 168.202 121.123 168.202 121.448C168.202 121.85 167.876 122.174 167.475 122.174H165.474L162.598 127.135H167.079C170.249 127.135 172.828 124.559 172.828 121.392V121.394Z" fill="#FF84FF"/>
<path d="M167.079 134.262C174.182 134.262 179.96 128.489 179.96 121.394C179.96 118.581 179.065 115.907 177.373 113.66C175.68 111.411 173.356 109.812 170.65 109.032L160.735 106.173L159.717 105.881C159.405 105.792 159.19 105.507 159.19 105.183C159.19 104.782 159.516 104.456 159.917 104.456H161.909L164.785 99.4953H160.325C157.154 99.4953 154.575 102.072 154.575 105.239C154.575 107.642 156.101 109.8 158.333 110.626C158.463 110.675 158.595 110.719 158.73 110.757L169.272 113.797C169.573 113.883 169.866 113.988 170.148 114.109C173.041 115.33 174.992 118.206 174.992 121.394C174.992 125.755 171.441 129.301 167.078 129.301H161.344L158.468 134.262H167.079Z" fill="#FF84FF"/>
<path d="M163.18 112.04L158.731 110.757C158.596 110.718 158.464 110.673 158.334 110.626C156.102 109.8 154.577 107.642 154.577 105.239C154.577 102.072 157.156 99.4953 160.326 99.4953H164.786L166.04 97.3323H160.326C155.961 97.3323 152.411 100.88 152.411 105.239C152.411 108.422 154.355 111.292 157.237 112.518C157.526 112.642 157.824 112.747 158.131 112.836L168.674 115.876C168.802 115.913 168.93 115.956 169.054 116.002C171.296 116.823 172.83 118.986 172.83 121.396C172.83 124.563 170.25 127.139 167.08 127.139H162.599L161.346 129.302H167.08C171.445 129.302 174.995 125.755 174.995 121.396C174.995 118.207 173.044 115.331 170.151 114.11C169.867 113.99 169.575 113.886 169.275 113.798L163.181 112.041H163.18V112.04Z" fill="#6B50FF"/>
<path d="M179.874 97.3323H189.209C189.806 97.3323 190.292 97.817 190.292 98.4138V134.263H195.195V119.339H207.619V134.263H212.522V114.441H195.068V112.278H212.522V92.3903H207.619V107.379H195.195V98.3502C195.195 95.0903 192.583 92.4412 189.336 92.3738V92.3712H182.75L179.874 97.3323Z" fill="#FF84FF"/>
<path d="M175.745 104.456H183.224V134.262H188.128V99.4953H178.621L175.745 104.456Z" fill="#FF84FF"/>
<path d="M219.592 92.389H214.689V134.262H219.592V92.389Z" fill="#FF84FF"/>
<path d="M212.524 92.389V112.276H195.069V114.44H212.524V134.262H214.689V92.389H212.524Z" fill="#6B50FF"/>
<path d="M179.875 97.3323L178.622 99.4953H188.129V134.263H190.294V98.4138C190.294 97.817 189.809 97.3323 189.212 97.3323H179.875Z" fill="#6B50FF"/>
<path d="M116.705 143.715L101.46 119.584C105.55 116.935 108.256 112.324 108.228 107.095C108.184 98.938 101.427 92.4005 93.2619 92.4005H78.9407C75.6342 92.4005 72.9544 95.0776 72.9544 98.3807V122.346H57.4971C52.5412 122.346 48.4286 118.393 48.3814 113.442C48.333 108.443 52.3897 104.361 57.3825 104.361H63.5229L66.3606 99.4622H57.3838C49.7162 99.4622 43.4778 105.694 43.4778 113.354C43.4778 121.014 49.7162 127.246 57.3838 127.246H77.8593V98.382C77.8593 97.7852 78.3446 97.3005 78.942 97.3005H93.3141C98.7718 97.3005 103.292 101.666 103.324 107.117C103.356 112.383 99.2379 116.715 94.0515 117.034L112.543 146.303C112.71 146.566 112.772 146.889 112.689 147.19C112.555 147.672 112.122 147.987 111.644 147.987H95.6092L111.41 173.528C111.61 173.878 111.426 174.322 111.037 174.426C110.775 174.496 110.498 174.388 110.355 174.158L92.6187 147.536C92.3321 147.137 92.3448 146.586 92.6785 146.197C92.8887 145.951 93.2058 145.823 93.5293 145.823H109.681L91.1858 116.547C90.9298 116.142 90.9667 115.608 91.303 115.237C91.5131 115.007 91.8201 114.887 92.1321 114.887H93.4389C97.7363 114.887 101.225 111.362 101.159 107.055C101.094 102.823 97.558 99.461 93.3204 99.461H80.0233V128.34C80.0157 128.931 79.5342 129.407 78.942 129.407H57.3838C48.5228 129.407 41.3125 122.205 41.3125 113.352C41.3125 104.498 48.5215 97.2966 57.3838 97.2966H67.6139L70.4516 92.3979H57.5875C45.9933 92.3979 36.442 101.709 36.4102 113.292C36.3783 124.873 45.7997 134.304 57.385 134.304H78.9432C82.2497 134.304 84.9295 131.627 84.9295 128.324V104.358H93.3701C94.896 104.358 96.1977 105.542 96.255 107.065C96.3161 108.667 95.0297 109.989 93.4389 109.989H92.1015C89.921 109.989 87.9124 111.173 86.8591 113.082C85.8058 114.989 85.8746 117.319 87.0387 119.161L100.788 140.924H93.5981C91.3959 140.924 89.3288 142.082 88.2614 144.007C87.1368 146.035 87.2896 148.522 88.6372 150.395L107.858 175.437C108.694 176.593 110.157 177.114 111.537 176.742C113.508 176.211 114.582 174.088 113.842 172.187L103.39 152.885H111.646C113.827 152.885 115.835 151.7 116.889 149.792C117.942 147.884 117.873 145.555 116.709 143.712L116.705 143.715Z" fill="#00FFB2"/>
<path d="M140.108 92.3865V118.225C140.108 124.981 134.605 130.478 127.842 130.478C121.079 130.478 115.577 124.981 115.577 118.225V92.3865H110.673V118.037C110.673 127.502 118.268 135.323 127.741 135.377C137.255 135.431 145.011 127.716 145.011 118.225V92.3865H140.108Z" fill="#00FFB2"/>
<path d="M127.842 128.315C133.412 128.315 137.942 123.788 137.942 118.225V92.3865H133.039V118.225C133.039 121.13 130.639 123.484 127.716 123.415C124.878 123.348 122.644 120.963 122.644 118.127V92.3865H117.741V118.225C117.741 123.789 122.272 128.315 127.841 128.315H127.842Z" fill="#00FFB2"/>
<path d="M182.75 92.3712H177.084L167.889 108.235L170.652 109.032C171.346 109.232 172.014 109.487 172.654 109.793L182.751 92.3725L182.75 92.3712Z" fill="#00FFB2"/>
<path d="M166.04 97.3323L164.786 99.4953L160.89 106.216L165.745 107.616L174.582 92.3712H168.916L166.04 97.3323Z" fill="#00FFB2"/>
<path d="M162.114 127.974L166.497 120.411L161.642 119.011L146.002 145.993H162.239C162.562 145.993 162.88 146.122 163.09 146.368C163.423 146.757 163.436 147.308 163.15 147.706L145.414 174.328C145.27 174.559 144.993 174.667 144.731 174.597C144.341 174.492 144.157 174.047 144.358 173.698L160.159 148.158H144.157C143.848 148.158 143.546 148.042 143.336 147.818C143.003 147.461 142.953 146.94 143.189 146.534L159.499 118.394L156.756 117.603C156.055 117.4 155.381 117.143 154.737 116.834L138.946 144.079C137.721 146.192 137.893 148.869 139.463 150.826C140.613 152.26 142.384 153.057 144.223 153.057H152.383L141.931 172.359C141.19 174.26 142.265 176.382 144.237 176.914C145.615 177.285 147.08 176.765 147.915 175.608L167.136 150.566C168.484 148.693 168.635 146.207 167.512 144.179C166.445 142.254 164.379 141.096 162.175 141.096H154.513L162.119 127.975H162.114V127.974Z" fill="#00FFB2"/>
<path d="M172.828 121.394C172.828 118.984 171.295 116.823 169.053 116.001C168.928 115.955 168.802 115.913 168.672 115.875L158.13 112.835C157.823 112.746 157.525 112.64 157.236 112.517C154.352 111.292 152.41 108.421 152.41 105.238C152.41 100.877 155.961 97.331 160.325 97.331H166.038L168.914 92.37H160.325C153.221 92.37 147.444 98.1428 147.444 105.238C147.444 108.051 148.338 110.725 150.031 112.972C151.723 115.221 154.048 116.82 156.753 117.6L167.676 120.749C167.988 120.84 168.202 121.123 168.202 121.448C168.202 121.85 167.876 122.174 167.475 122.174H165.474L162.598 127.135H167.079C170.249 127.135 172.828 124.559 172.828 121.392V121.394Z" fill="#FF84FF"/>
<path d="M167.079 134.262C174.182 134.262 179.96 128.489 179.96 121.394C179.96 118.581 179.065 115.907 177.373 113.66C175.68 111.411 173.356 109.812 170.65 109.032L160.735 106.173L159.717 105.881C159.405 105.792 159.19 105.507 159.19 105.183C159.19 104.782 159.516 104.456 159.917 104.456H161.909L164.785 99.4953H160.325C157.154 99.4953 154.575 102.072 154.575 105.239C154.575 107.642 156.101 109.8 158.333 110.626C158.463 110.675 158.595 110.719 158.73 110.757L169.272 113.797C169.573 113.883 169.866 113.988 170.148 114.109C173.041 115.33 174.992 118.206 174.992 121.394C174.992 125.755 171.441 129.301 167.078 129.301H161.344L158.468 134.262H167.079Z" fill="#FF84FF"/>
<path d="M179.874 97.3323H189.209C189.806 97.3323 190.292 97.817 190.292 98.4138V134.263H195.195V119.339H207.619V134.263H212.522V114.441H195.068V112.278H212.522V92.3903H207.619V107.379H195.195V98.3502C195.195 95.0903 192.583 92.4412 189.336 92.3738V92.3712H182.75L179.874 97.3323Z" fill="#FF84FF"/>
<path d="M175.745 104.456H183.224V134.262H188.128V99.4953H178.621L175.745 104.456Z" fill="#FF84FF"/>
<path d="M219.592 92.389H214.689V134.262H219.592V92.389Z" fill="#FF84FF"/>
<path d="M112.541 146.303L94.0503 117.034C99.2367 116.715 103.354 112.383 103.323 107.117C103.291 101.665 98.7692 97.3005 93.3128 97.3005H78.9407C78.3433 97.3005 77.858 97.7852 77.858 98.382V127.246H57.3825C49.715 127.246 43.4765 121.014 43.4765 113.354C43.4765 105.694 49.715 99.4622 57.3825 99.4622H66.3593L67.6126 97.2992H57.3825C48.5215 97.2992 41.3113 104.501 41.3113 113.354C41.3113 122.207 48.5202 129.409 57.3825 129.409H78.9407C79.5342 129.409 80.0144 128.933 80.022 128.343V99.4635H93.3192C97.5567 99.4635 101.092 102.825 101.157 107.057C101.224 111.365 97.735 114.89 93.4376 114.89H92.1308C91.8188 114.89 91.5118 115.01 91.3017 115.24C90.9654 115.61 90.9285 116.145 91.1845 116.549L109.68 145.826H93.5281C93.2045 145.826 92.8874 145.954 92.6772 146.2C92.3435 146.589 92.3308 147.14 92.6174 147.538L110.353 174.16C110.497 174.391 110.774 174.499 111.036 174.429C111.426 174.324 111.61 173.879 111.409 173.531L95.608 147.99H111.642C112.121 147.99 112.554 147.674 112.688 147.192C112.771 146.892 112.708 146.569 112.541 146.305V146.303Z" fill="#6B50FF"/>
<path d="M127.842 130.478C121.079 130.478 115.577 124.981 115.577 118.225V92.2593H117.742V118.225C117.742 123.789 122.274 128.315 127.842 128.315C133.411 128.315 137.942 123.788 137.942 118.225V92.2593H140.108V118.225C140.108 124.981 134.605 130.478 127.842 130.478Z" fill="#6B50FF"/>
<path d="M165.745 107.616L174.582 92.37H177.085L167.889 108.234L165.745 107.616Z" fill="#6B50FF"/>
<path d="M159.498 118.394L143.187 146.534C142.952 146.94 143.001 147.461 143.335 147.818C143.545 148.043 143.848 148.158 144.155 148.158H160.158L144.357 173.698C144.157 174.048 144.341 174.492 144.73 174.597C144.992 174.667 145.269 174.559 145.412 174.328L163.148 147.706C163.435 147.308 163.422 146.757 163.088 146.368C162.878 146.122 162.561 145.993 162.238 145.993H146.001L161.64 119.011L159.497 118.393L159.498 118.394Z" fill="#6B50FF"/>
<path d="M163.18 112.04L158.731 110.757C158.596 110.718 158.464 110.673 158.334 110.626C156.102 109.8 154.577 107.642 154.577 105.239C154.577 102.072 157.156 99.4953 160.326 99.4953H164.786L166.04 97.3323H160.326C155.961 97.3323 152.411 100.88 152.411 105.239C152.411 108.422 154.355 111.292 157.237 112.518C157.526 112.642 157.824 112.747 158.131 112.836L168.674 115.876C168.802 115.913 168.93 115.956 169.054 116.002C171.296 116.823 172.83 118.986 172.83 121.396C172.83 124.563 170.25 127.139 167.08 127.139H162.599L161.346 129.302H167.08C171.445 129.302 174.995 125.755 174.995 121.396C174.995 118.207 173.044 115.331 170.151 114.11C169.867 113.99 169.575 113.886 169.275 113.798L163.181 112.041H163.18V112.04Z" fill="#6B50FF"/>
<path d="M212.524 92.2618V112.276H195.069V114.44H212.524V134.389H214.689V92.2618H212.524Z" fill="#6B50FF"/>
<path d="M179.875 97.3323L178.622 99.4953H188.129V134.391H190.294V98.4138C190.294 97.817 189.809 97.3323 189.212 97.3323H179.875Z" fill="#6B50FF"/>
<path d="M125.356 153.456V155.312H126.725V157.266H129.267V155.312H130.637V153.456H137.481L137.579 155.312H139.534V157.119L139.681 157.266H141.49V166.936H139.681L139.534 167.082V169.866H137.285V172.406H134.547V173.774H132.103V174.945H130.342V176.411H125.649V174.945H123.791V173.774H121.444V172.406H118.706V169.866H116.457V167.082L116.31 166.936H114.502V157.266H116.31L116.457 157.119V155.312H118.412V153.456H125.356Z" fill="#FF84FF"/>
<path d="M125.436 163.028H124.39V165.861H125.436V163.028Z" fill="black"/>
<path d="M131.596 163.028H130.55V165.861H131.596V163.028Z" fill="black"/>
<path d="M128.969 166.056H127.014V167.101H128.969V166.056Z" fill="black"/>
<path d="M123.676 166.056H122.63V167.101H123.676V166.056Z" fill="black"/>
<path d="M133.356 166.056H132.31V167.101H133.356V166.056Z" fill="black"/>
<path d="M126.19 78.6943C125.897 78.6142 125.416 78.5607 124.881 78.5607C123.878 78.5607 123.023 78.8699 122.355 79.3267C121.607 79.8382 121.14 80.6042 121.019 82.0038L120.819 84.3297C120.726 85.4596 121.113 86.5488 122.355 86.5488C123.024 86.5488 123.424 86.2803 123.745 85.9444C123.853 85.8375 123.966 85.6467 124.015 85.5487C124.064 85.452 124.192 85.4787 124.175 85.5868C124.159 85.6963 124.132 86.078 124.132 86.078C124.106 86.3477 124.266 86.5488 124.64 86.5488C125.015 86.5488 125.414 86.4279 125.869 86.1454C126.176 85.9571 126.296 85.6467 126.337 85.2306L126.83 79.4209C126.856 79.0582 126.737 78.8432 126.188 78.6943H126.19ZM124.189 84.261C124.175 84.4621 124.082 84.6376 123.936 84.7458C123.816 84.84 123.668 84.8934 123.495 84.8934C123.201 84.8934 123.053 84.7318 123.08 84.3552L123.347 81.2887C123.375 80.9528 123.468 80.6831 123.615 80.5088C123.774 80.3204 123.988 80.2123 124.255 80.2123C124.389 80.2123 124.483 80.2263 124.537 80.239L124.189 84.2597V84.261Z" fill="#FFFAF1"/>
<path d="M111.771 84.7611C112.242 84.7611 112.679 84.5639 113.019 84.2877C113.228 84.1172 113.445 84.163 113.488 84.3641C113.504 84.4392 113.508 84.518 113.508 84.5982C113.508 85.4863 112.8 86.5488 111.009 86.5488C109.552 86.5488 108.551 85.9024 108.726 83.9391L108.899 81.9478C109.006 80.6971 109.473 79.6346 110.383 79.043C110.864 78.7338 111.477 78.5595 112.226 78.5595C113.401 78.5595 113.776 79.0302 113.776 79.5417C113.776 79.8573 113.625 80.1919 113.394 80.3828C113.372 80.4006 113.331 80.4133 113.289 80.4057C113.084 80.3688 112.889 80.3484 112.694 80.3484C112.268 80.3484 111.879 80.4426 111.599 80.6983C111.36 80.9134 111.199 81.2493 111.158 81.7201L110.972 83.7648C110.919 84.3425 111.092 84.7611 111.773 84.7611H111.771Z" fill="#FFFAF1"/>
<path d="M120.22 80.253L119.792 85.2293C119.753 85.6467 119.619 85.9686 119.325 86.1442C118.87 86.4266 118.444 86.5475 118.044 86.5475C117.644 86.5475 117.469 86.3197 117.496 86.0373L117.924 81.0342C117.951 80.7645 117.871 80.6296 117.643 80.6296C117.496 80.6296 117.268 80.6703 117.161 80.7365C116.934 80.8714 116.84 81.0202 116.813 81.262L116.467 85.27C116.426 85.7268 116.227 86.0093 115.946 86.1989C115.546 86.4686 115.077 86.5488 114.677 86.5488C114.277 86.5488 114.142 86.321 114.183 85.891L114.958 76.9588C114.998 76.5414 115.131 76.1788 115.426 76.0032C115.853 75.7475 116.306 75.6266 116.708 75.6266C117.082 75.6266 117.295 75.8276 117.268 76.0974C117.268 76.0974 116.961 79.3445 116.951 79.403C116.942 79.4616 117.025 79.5443 117.108 79.4463C117.236 79.2949 117.468 79.057 117.655 78.9221C118.016 78.6803 118.417 78.5582 118.87 78.5582C119.846 78.5582 120.327 79.0697 120.22 80.253Z" fill="#FFFAF1"/>
<path d="M132.032 80.5775C132.002 80.6347 131.927 80.7327 131.812 80.7047C131.617 80.6576 131.421 80.6462 131.236 80.6576C130.528 80.6843 129.955 81.1017 129.888 81.8409L129.607 85.2713C129.567 85.7281 129.368 86.0106 129.086 86.2001C128.685 86.4699 128.218 86.55 127.818 86.55C127.418 86.55 127.283 86.3223 127.324 85.891L127.845 79.8916C127.885 79.4743 128.018 79.1117 128.312 78.9361C128.74 78.6816 129.168 78.5595 129.568 78.5595C129.942 78.5595 130.103 78.7605 130.076 79.0302L130.032 79.5506C130.032 79.5506 130.019 79.6321 130.093 79.6499C130.167 79.6664 130.193 79.5926 130.206 79.5646C130.43 79.0646 130.851 78.5595 131.546 78.5595C132.133 78.5595 132.375 78.9094 132.375 79.3941C132.375 79.7504 132.253 80.1639 132.035 80.58L132.032 80.5775Z" fill="#FFFAF1"/>
<path d="M140.834 86.1442C140.379 86.4266 139.951 86.5488 139.551 86.5488C139.151 86.5488 138.977 86.3197 139.003 86.0373L139.445 80.8179C139.471 80.5482 139.431 80.4133 139.205 80.4133C139.058 80.4133 138.871 80.454 138.764 80.5202C138.551 80.6551 138.43 80.8434 138.416 81.0584L138.056 85.228C138.015 85.6454 137.883 85.9673 137.588 86.1429C137.134 86.4254 136.706 86.5475 136.306 86.5475C135.906 86.5475 135.731 86.3185 135.758 86.036L136.199 80.8167C136.225 80.5469 136.185 80.412 135.958 80.412C135.812 80.412 135.61 80.4528 135.503 80.5189C135.277 80.6538 135.182 80.8027 135.156 81.0444L134.795 85.2675C134.754 85.7255 134.556 86.0067 134.274 86.1963C133.874 86.4661 133.406 86.5475 133.006 86.5475C132.606 86.5475 132.471 86.3185 132.511 85.8884L133.032 79.8891C133.072 79.4718 133.206 79.1091 133.5 78.9335C133.926 78.6791 134.356 78.5556 134.754 78.5556C135.129 78.5556 135.289 78.7579 135.263 79.0264C135.263 79.0264 135.238 79.2974 135.228 79.3916C135.218 79.4743 135.32 79.5125 135.372 79.4387C135.433 79.3521 135.637 79.1333 135.785 79.0264C136.185 78.7032 136.641 78.5556 137.16 78.5556C138.029 78.5556 138.317 78.9475 138.449 79.3814C138.479 79.4768 138.57 79.4527 138.602 79.4132C138.668 79.3293 138.91 79.1078 139.07 78.987C139.458 78.6905 139.899 78.5556 140.406 78.5556C141.381 78.5556 141.836 79.0671 141.728 80.2505L141.301 85.2268C141.26 85.6441 141.128 85.966 140.834 86.1416V86.1442Z" fill="#FFFAF1"/>
<path d="M146.628 87.7168H142.139C141.805 87.7168 141.591 87.5552 141.591 87.2053C141.591 86.5602 141.804 86.1696 142.259 86.1696H146.735C147.082 86.1696 147.295 86.3312 147.295 86.6811C147.295 87.3275 147.082 87.7168 146.628 87.7168Z" fill="#FFFAF1"/>
<path d="M147.636 85.242V85.326H147.504V85.7128H147.401V85.326H147.269V85.242H147.636ZM147.804 85.242L147.929 85.5945L148.054 85.242H148.17V85.7128H148.067V85.6301C148.067 85.5716 148.071 85.5041 148.074 85.438L147.976 85.7026H147.882L147.783 85.4367C147.787 85.5016 147.79 85.5678 147.79 85.6301V85.7128H147.689V85.242H147.804Z" fill="#FFFAF1"/>
</svg>