<svg width="256" height="256" title="Cucumber" viewBox="0 0 256 256" fill="none" xmlns="http://www.w3.org/2000/svg" id="cucumber">
<style>
#cucumber {
    rect {fill: #15191C}

    @media (prefers-color-scheme: light) {
        rect {fill: #F4F2ED}
    }
}
</style>
<rect width="256" height="256" rx="40" fill="#15191C"/>
<path fill-rule="evenodd" clip-rule="evenodd" d="M130.416 47.8382C90.8137 47.8382 58.7756 79.8763 58.7756 119.479C58.7756 154.339 83.7656 183.306 116.744 189.75V210.26C159.619 203.794 197.581 169.761 200.412 125.079C202.118 98.19 188.713 70.7369 166.099 57.4063C163.474 55.8296 160.731 54.4576 157.896 53.3025L156.526 52.7557C155.271 52.2919 154.002 51.7713 152.698 51.3907C145.508 49.0261 137.986 47.8254 130.416 47.8338V47.8382Z" fill="#00A818"/>
<path fill-rule="evenodd" clip-rule="evenodd" d="M145.182 74.3594C143.905 74.2183 142.613 74.3941 141.421 74.871C140.228 75.3479 139.171 76.1113 138.344 77.0938C137.031 78.8438 136.209 80.5369 135.334 82.2913C132.709 88.4163 133.584 94.9788 137.521 99.7913C143.646 98.4788 148.844 94.5675 151.469 88.4425C152.344 86.6925 152.838 84.4481 152.838 82.6981C153.109 78.0519 149.264 74.7794 145.182 74.3594ZM113.323 74.7706C109.329 75.1513 105.531 78.3231 105.531 82.6981C105.531 84.4481 106.026 86.6925 106.901 88.4425C109.526 94.5675 115.126 98.4744 121.251 99.7913C124.751 94.9788 125.656 88.4163 123.031 82.2913C122.156 80.5413 121.338 78.8175 120.021 77.505C119.215 76.5352 118.183 75.7785 117.016 75.3016C115.849 74.8248 114.578 74.6424 113.323 74.7706ZM91.8595 95.8188C84.9601 96.1731 81.8801 104.844 87.6201 109.355C89.3701 110.668 91.0676 111.626 92.8176 112.501C98.9426 115.126 106.026 114.224 111.271 110.724C109.959 105.037 105.505 99.8131 99.3801 97.1881C97.1926 96.3131 95.4163 95.8188 93.2288 95.8188C92.7345 95.7663 92.3189 95.7969 91.8595 95.8188ZM159.261 122.344C155.235 122.272 151.282 123.416 147.916 125.626C149.229 131.313 153.683 136.533 159.808 139.158C161.995 140.033 163.776 140.527 165.963 140.527C173.838 140.964 177.688 131.23 171.563 126.855C169.813 125.543 168.12 124.72 166.37 123.845C164.12 122.89 161.705 122.38 159.261 122.344ZM99.5157 122.751C97.1095 122.799 94.7032 123.276 92.4064 124.256C90.2189 125.131 88.5214 126.089 87.2089 127.402C81.5214 132.214 85.3495 141.376 93.2245 140.938C95.412 140.938 97.6301 140.444 99.3801 139.569C105.505 136.944 109.854 131.724 110.729 126.037C107.412 123.827 103.5 122.678 99.5157 122.751ZM121.666 136.152C115.541 137.464 110.344 141.376 107.719 147.501C106.844 149.251 106.349 151.355 106.349 153.105C105.912 160.543 116.062 164.537 120.437 158.849C121.749 157.099 122.568 155.402 123.443 153.652C126.068 147.964 125.166 141.402 121.666 136.152ZM137.933 136.563C134.433 141.376 133.531 147.938 136.156 154.063C137.031 155.813 137.849 157.533 139.166 158.845C143.979 164.095 154.094 160.214 153.656 153.652C153.656 151.902 153.162 149.658 152.287 147.908C149.662 141.783 144.058 137.876 137.933 136.563Z" fill="white"/>
</svg>