<svg width="256" height="256" title="Cuda C++" viewBox="0 0 256 256" fill="none" xmlns="http://www.w3.org/2000/svg" id="cudacplusplus">
<style>
#cudacplusplus {
    rect {fill: #15191C}
    path.cudacpp {fill: white}

    @media (prefers-color-scheme: light) {
        rect {fill: #F4F2ED}
        path.cudacpp {fill: #212121}
    }
}
</style>
<rect width="256" height="256" rx="40" fill="#15191C"/>
<path d="M90.1314 198.701C89.3795 199.029 88.6959 199.338 88.0807 199.626C87.4791 199.913 86.6861 200.215 85.7018 200.53C84.8678 200.791 83.9586 201.01 82.9742 201.188C82.0035 201.38 80.9303 201.476 79.7545 201.476C77.5397 201.476 75.5231 201.167 73.7048 200.551C71.9001 199.92 70.3278 198.94 68.988 197.611C67.6755 196.309 66.6501 194.658 65.9118 192.657C65.1736 190.642 64.8044 188.305 64.8044 185.647C64.8044 183.125 65.1599 180.871 65.8708 178.883C66.5817 176.896 67.6071 175.217 68.947 173.847C70.2458 172.518 71.8112 171.503 73.6432 170.804C75.4889 170.106 77.5329 169.756 79.775 169.756C81.4157 169.756 83.0494 169.955 84.6764 170.352C86.317 170.75 88.1354 171.449 90.1314 172.449V177.28H89.8238C88.1422 175.868 86.4742 174.841 84.8199 174.196C83.1656 173.552 81.3952 173.23 79.5084 173.23C77.9635 173.23 76.569 173.484 75.3249 173.991C74.0944 174.484 72.9938 175.259 72.0231 176.314C71.0798 177.342 70.3415 178.644 69.8083 180.22C69.2888 181.782 69.029 183.591 69.029 185.647C69.029 187.798 69.3161 189.649 69.8903 191.197C70.4782 192.746 71.2302 194.007 72.1462 194.98C73.1032 195.994 74.2175 196.748 75.4889 197.241C76.7741 197.721 78.1276 197.961 79.5495 197.961C81.5045 197.961 83.3365 197.625 85.0455 196.953C86.7545 196.282 88.3541 195.274 89.8443 193.931H90.1314V198.701ZM118.863 188.628C118.863 190.848 118.617 192.787 118.124 194.445C117.646 196.09 116.853 197.46 115.746 198.557C114.693 199.598 113.462 200.359 112.054 200.839C110.646 201.318 109.005 201.558 107.132 201.558C105.218 201.558 103.55 201.304 102.128 200.797C100.707 200.29 99.5103 199.543 98.5396 198.557C97.4322 197.433 96.6324 196.076 96.1402 194.486C95.6617 192.897 95.4224 190.944 95.4224 188.628V170.311H99.483V188.833C99.483 190.491 99.5923 191.8 99.8111 192.76C100.043 193.719 100.426 194.589 100.96 195.37C101.561 196.261 102.375 196.933 103.4 197.385C104.439 197.837 105.683 198.063 107.132 198.063C108.595 198.063 109.839 197.844 110.865 197.405C111.89 196.953 112.71 196.275 113.326 195.37C113.859 194.589 114.235 193.698 114.454 192.698C114.686 191.684 114.802 190.43 114.802 188.936V170.311H118.863V188.628ZM152.413 185.647C152.413 188.429 151.805 190.951 150.588 193.212C149.385 195.473 147.779 197.227 145.769 198.474C144.374 199.338 142.816 199.961 141.093 200.345C139.384 200.729 137.128 200.921 134.326 200.921H126.615V170.311H134.244C137.224 170.311 139.589 170.53 141.339 170.969C143.103 171.394 144.593 171.983 145.81 172.737C147.888 174.039 149.508 175.772 150.67 177.938C151.832 180.103 152.413 182.673 152.413 185.647ZM148.168 185.585C148.168 183.187 147.751 181.165 146.917 179.521C146.083 177.876 144.839 176.581 143.185 175.635C141.982 174.95 140.703 174.477 139.35 174.217C137.996 173.943 136.376 173.806 134.49 173.806H130.675V197.426H134.49C136.445 197.426 138.147 197.282 139.596 196.994C141.059 196.707 142.399 196.172 143.616 195.391C145.133 194.418 146.268 193.136 147.02 191.547C147.785 189.957 148.168 187.97 148.168 185.585ZM183.052 200.921H178.725L175.731 192.39H162.524L159.53 200.921H155.407L166.523 170.311H171.937L183.052 200.921ZM174.48 188.895L169.127 173.868L163.754 188.895H174.48Z" class="cudacpp" fill="white"/>
<path d="M193.27 197.555C193.27 198.781 192.836 199.83 191.968 200.7C191.103 201.567 190.059 202 188.835 202C187.611 202 186.566 201.567 185.697 200.7C184.833 199.83 184.4 198.781 184.4 197.555C184.4 196.328 184.833 195.281 185.697 194.414C186.566 193.544 187.611 193.109 188.835 193.109C190.059 193.109 191.103 193.544 191.968 194.414C192.836 195.281 193.27 196.328 193.27 197.555ZM192.675 197.555C192.675 196.492 192.299 195.581 191.547 194.82C190.799 194.06 189.895 193.68 188.835 193.68C187.775 193.68 186.87 194.06 186.118 194.82C185.369 195.581 184.995 196.492 184.995 197.555C184.995 198.617 185.369 199.528 186.118 200.289C186.87 201.049 187.775 201.43 188.835 201.43C189.895 201.43 190.799 201.049 191.547 200.289C192.299 199.528 192.675 198.617 192.675 197.555ZM191.691 199.816H190.547L188.85 197.991H188.02V199.816H187.174V195.113H188.774C189.095 195.113 189.36 195.127 189.568 195.154C189.777 195.182 189.982 195.249 190.183 195.355C190.399 195.471 190.556 195.614 190.655 195.781C190.758 195.946 190.809 196.153 190.809 196.403C190.809 196.736 190.711 197.013 190.517 197.236C190.325 197.455 190.06 197.63 189.722 197.76L191.691 199.816ZM189.886 196.46C189.886 196.337 189.862 196.227 189.814 196.131C189.766 196.035 189.686 195.956 189.573 195.895C189.467 195.836 189.355 195.799 189.235 195.781C189.115 195.764 188.965 195.756 188.784 195.756H188.02V197.344H188.671C188.883 197.344 189.066 197.328 189.22 197.298C189.373 197.263 189.5 197.207 189.599 197.128C189.705 197.042 189.778 196.948 189.819 196.845C189.864 196.743 189.886 196.614 189.886 196.46Z" class="cudacpp" fill="white"/>
<path d="M68.3255 97.8329C68.3255 97.8329 81.8876 77.7748 108.967 75.6996V68.4226C78.9732 70.8372 53 96.3015 53 96.3015C53 96.3015 67.7108 138.93 108.967 142.833V135.099C78.6911 131.281 68.3255 97.8329 68.3255 97.8329ZM108.967 119.716V126.799C86.0851 122.71 79.7337 98.8672 79.7337 98.8672C79.7337 98.8672 90.7201 86.6672 108.967 84.6888V92.4618C108.953 92.4618 108.943 92.4571 108.932 92.4571C99.355 91.3051 91.8737 100.273 91.8737 100.273C91.8737 100.273 96.0669 115.371 108.967 119.716ZM108.967 55L108.967 68.4226C109.847 68.3549 110.728 68.297 111.613 68.2668C145.712 67.1148 167.93 96.301 167.93 96.301C167.93 96.301 142.412 127.405 115.827 127.405C113.39 127.405 111.109 127.179 108.967 126.798L108.967 135.099C110.799 135.332 112.698 135.468 114.68 135.468C139.42 135.468 157.311 122.803 174.635 107.813C177.507 110.119 189.266 115.729 191.683 118.185C175.212 132.009 136.823 143.152 115.06 143.152C112.962 143.152 110.947 143.025 108.967 142.833L108.967 154.496H203V55H108.967ZM108.967 84.6888V75.6996C109.838 75.6386 110.716 75.5916 111.613 75.5632C136.134 74.7912 152.221 96.6858 152.221 96.6858C152.221 96.6858 134.845 120.876 116.215 120.876C113.534 120.876 111.13 120.445 108.967 119.716V92.4618C118.513 93.6181 120.433 97.8445 126.172 107.435L138.937 96.646C138.937 96.646 129.619 84.3965 113.912 84.3965C112.205 84.3959 110.571 84.5165 108.967 84.6888Z" fill="#77B900"/>
</svg>