<svg width="256" height="256" title="cURL" viewBox="0 0 256 256" fill="none" xmlns="http://www.w3.org/2000/svg">
<rect width="256" height="256" rx="40" fill="#8ED4FF"/>
<path d="M217.978 107.778C216.46 107.778 215.231 106.55 215.231 105.034C215.231 103.518 216.46 102.29 217.978 102.29C219.495 102.29 220.724 103.518 220.724 105.034C220.724 106.55 219.495 107.778 217.978 107.778ZM190.676 154.689C189.158 154.689 187.929 153.461 187.929 151.946C187.929 150.43 189.158 149.202 190.676 149.202C192.193 149.202 193.423 150.43 193.423 151.946C193.423 153.461 192.193 154.689 190.676 154.689ZM217.978 100.033C215.198 100.033 212.949 102.285 212.949 105.056C212.949 105.648 213.099 106.201 213.286 106.727L189.695 147.111C187.413 147.588 185.669 149.512 185.669 151.935C185.669 154.712 187.923 156.958 190.697 156.958C193.472 156.958 195.726 154.706 195.726 151.935C195.726 151.376 195.576 150.867 195.41 150.363L219.112 109.814C221.322 109.284 223 107.391 223 105.023C223 102.246 220.746 100 217.972 100" fill="#0C544C"/>
<path d="M197.487 107.778C195.97 107.778 194.741 106.55 194.741 105.034C194.741 103.518 195.97 102.29 197.487 102.29C199.005 102.29 200.234 103.518 200.234 105.034C200.234 106.55 199.005 107.778 197.487 107.778ZM170.185 154.689C168.668 154.689 167.439 153.461 167.439 151.946C167.439 150.43 168.668 149.202 170.185 149.202C171.703 149.202 172.932 150.43 172.932 151.946C172.932 153.461 171.703 154.689 170.185 154.689ZM197.487 100.033C194.707 100.033 192.459 102.285 192.459 105.056C192.459 105.648 192.609 106.201 192.796 106.727L169.205 147.111C166.923 147.588 165.173 149.512 165.173 151.935C165.173 154.712 167.427 156.958 170.202 156.958C172.982 156.958 175.23 154.706 175.23 151.935C175.23 151.376 175.08 150.867 174.914 150.363L198.617 109.814C200.826 109.284 202.504 107.391 202.504 105.023C202.504 102.246 200.25 100 197.476 100" fill="#073551"/>
<path d="M159.83 116.187C161.347 116.187 162.576 117.415 162.576 118.931C162.576 120.446 161.347 121.674 159.83 121.674C158.312 121.674 157.083 120.446 157.083 118.931C157.083 117.415 158.312 116.187 159.83 116.187ZM159.83 123.931C162.61 123.931 164.858 121.68 164.858 118.908C164.858 118.355 164.707 117.841 164.54 117.337C163.876 115.34 162.048 113.88 159.827 113.88C159.472 113.88 159.163 114.011 158.825 114.083C156.543 114.558 154.799 116.484 154.799 118.901C154.799 121.678 157.053 123.924 159.827 123.924" fill="#073551"/>
<path d="M157.061 136.489C157.061 134.973 158.29 133.745 159.807 133.745C161.325 133.745 162.554 134.973 162.554 136.489C162.554 138.005 161.325 139.233 159.807 139.233C158.29 139.233 157.061 138.005 157.061 136.489ZM164.814 136.489C164.814 135.93 164.662 135.421 164.496 134.918C163.831 132.921 162.004 131.461 159.783 131.461C159.428 131.461 159.118 131.592 158.781 131.661C156.499 132.139 154.755 134.062 154.755 136.485C154.755 139.257 157.009 141.508 159.783 141.508C162.563 141.508 164.811 139.257 164.811 136.485" fill="#073551"/>
<path d="M33 142.174C33 146.096 33.7365 148.038 36.799 150.528L41.5229 154.461C44.5189 156.917 46.0473 156.983 49.7744 156.983H59.9087C62.0353 156.983 64.3058 156.516 64.3058 153.791C64.3058 150.992 61.7806 150.594 59.9087 150.594H48.6668C47.393 150.594 46.1304 149.93 45.0007 148.995L41.1407 145.737C40.1384 144.94 39.4129 144.276 39.4129 143.015V135.104C39.4129 133.843 40.1384 133.179 41.1407 132.371L45.0007 129.113C46.1359 128.189 47.3986 127.52 48.6668 127.52H59.9087C61.7806 127.52 64.3058 127.114 64.3058 124.322C64.3058 121.601 62.0408 121.13 59.9087 121.13H49.7744C46.0473 121.13 44.5133 121.2 41.5229 123.653L36.799 127.575C33.7365 130.109 33 132.034 33 135.984V142.174Z" fill="#073551"/>
<path d="M98.9186 125.523C98.9186 123.327 98.4512 121.13 95.7232 121.13C92.9874 121.13 92.5223 123.327 92.5223 125.523V144.055L83.1078 149.974C82.5097 150.372 81.8452 150.572 81.1086 150.572H78.982C77.448 150.572 75.7867 150.174 75.255 149.239C74.7184 148.315 74.6569 146.578 74.5905 145.117L73.9259 125.479C73.8567 123.415 73.5278 121.086 70.7915 121.086C67.8674 121.086 67.5296 123.548 67.5961 125.877L68.2606 145.958C68.3902 149.416 68.3299 152.154 71.1957 154.588C73.3223 156.375 75.3215 156.911 77.1213 156.911H81.8452C83.573 156.911 85.3064 156.115 87.372 154.787L92.5666 151.391V152.453C92.5666 154.649 93.034 156.911 95.7619 156.911C99.1622 156.911 98.8964 153.653 98.8964 152.193L98.9186 125.523Z" fill="#073551"/>
<path d="M102.259 152.608C102.259 154.804 102.726 157 105.454 157C108.19 157 108.655 154.804 108.655 152.608V136.454L117.571 129.097C118.706 128.162 119.57 127.564 120.766 127.564H122.638C124.172 127.564 125.701 127.564 126.498 128.698C127.163 129.622 127.163 130.424 127.163 131.492C127.163 133.55 128.098 135.414 130.424 135.414C133.16 135.414 133.559 133.151 133.559 130.955C133.559 128.034 132.822 125.838 130.696 123.708C128.968 121.982 126.908 121.186 124.438 121.186H119.304C117.305 121.186 115.444 122.447 113.656 123.907L108.66 128.04V125.44C108.66 123.316 107.996 121.186 105.459 121.186C102.535 121.186 102.264 123.581 102.264 125.905L102.259 152.608Z" fill="#073551"/>
<path d="M145.294 112.412C145.294 108.617 144.231 107.953 140.57 107.953H133.87C131.732 107.953 129.473 108.42 129.473 111.145C129.473 113.944 131.998 114.343 133.87 114.343H138.931V150.577H133.87C131.732 150.577 129.473 151.044 129.473 153.775C129.473 156.568 131.998 156.967 133.87 156.967H150.096C151.968 156.967 154.493 156.569 154.493 153.775C154.493 151.042 152.233 150.577 150.096 150.577H145.3L145.294 112.412Z" fill="#073551"/>
</svg>