<svg width="256" height="256" title="Daily.dev" viewBox="0 0 256 256" fill="none" xmlns="http://www.w3.org/2000/svg" id="dailydev">
<style>
#dailydev {
    rect {fill: #15191C}
    path.ddev {fill: #F4F2ED}

    @media (prefers-color-scheme: light) {
        rect {fill: #F4F2ED}
        path.ddev {fill: #15191C}
    }
}
</style>
<rect width="256" height="256" rx="40" fill="#15191C"/>
<path opacity="0.56" fill-rule="evenodd" clip-rule="evenodd" d="M184.106 128.325L166.993 111.213L175.542 94.1094L203.345 121.912C205.045 123.613 206 125.92 206 128.325C206 130.73 205.045 133.037 203.345 134.738L169.124 168.954C167.409 170.586 165.125 171.482 162.758 171.453C160.391 171.423 158.13 170.47 156.456 168.796C154.782 167.123 153.829 164.861 153.799 162.494C153.77 160.128 154.667 157.843 156.298 156.128L184.106 128.325Z" class="ddev" fill="#F4F2ED"/>
<path fill-rule="evenodd" clip-rule="evenodd" d="M156.303 87.6576C157.145 86.8151 158.145 86.1467 159.246 85.6907C160.347 85.2347 161.527 85 162.718 85C163.91 85 165.09 85.2347 166.19 85.6907C167.291 86.1467 168.291 86.8151 169.134 87.6576L175.547 94.0755L100.702 168.92C99.8596 169.763 98.8594 170.431 97.7586 170.887C96.6578 171.343 95.478 171.578 94.2865 171.578C93.0951 171.578 91.9152 171.343 90.8145 170.887C89.7137 170.431 88.7135 169.763 87.8711 168.92L81.458 162.507L156.303 87.6576ZM124.228 111.183L111.392 124.014L94.2841 106.902L72.8992 128.291L90.0071 145.399L81.458 162.507L53.6552 134.704C51.955 133.003 51 130.697 51 128.291C51 125.886 51.955 123.58 53.6552 121.878L87.8711 87.6625C88.7136 86.8192 89.7141 86.1502 90.8153 85.6938C91.9165 85.2374 93.0969 85.0024 94.289 85.0024C95.481 85.0024 96.6614 85.2374 97.7626 85.6938C98.8638 86.1502 99.8643 86.8192 100.707 87.6625L124.228 111.183Z" class="ddev" fill="#F4F2ED"/>
</svg>