<svg width="256" height="256" title="DaisyUI" viewBox="0 0 256 256" fill="none" xmlns="http://www.w3.org/2000/svg" id="daisyui">
<style>
#daisyui {
    rect {fill: #15191C}
    path.circle {fill: #F4F2ED}

    @media (prefers-color-scheme: light) {
        rect {fill: #F4F2ED}
        path.circle {fill: #15191C}
    }
}
</style>
<rect width="256" height="256" rx="40" fill="#15191C"/>
<path d="M152.521 158.812H103.479C89.9363 158.812 78.9579 169.791 78.9579 183.333C78.9579 196.876 89.9363 207.854 103.479 207.854H152.521C166.064 207.854 177.042 196.876 177.042 183.333C177.042 169.791 166.064 158.812 152.521 158.812Z" fill="#1AD1A5"/>
<path d="M128 147.042C155.085 147.042 177.042 125.085 177.042 98C177.042 70.9148 155.085 48.9579 128 48.9579C100.915 48.9579 78.9579 70.9148 78.9579 98C78.9579 125.085 100.915 147.042 128 147.042Z" class="circle" fill="#F4F2ED"/>
<path d="M128 119.971C140.134 119.971 149.971 110.134 149.971 98C149.971 85.8658 140.134 76.0291 128 76.0291C115.866 76.0291 106.029 85.8658 106.029 98C106.029 110.134 115.866 119.971 128 119.971Z" fill="#FF9903"/>
</svg>