<svg width="256" height="256" title="Databricks" viewBox="0 0 256 256" fill="none" xmlns="http://www.w3.org/2000/svg" id="databricks">
<style>
#databricks {
    rect {fill: #15191C}

    @media (prefers-color-scheme: light) {
        rect {fill: #F4F2ED}
    }
}
</style>
<rect width="256" height="256" rx="40" fill="#15191C"/>
<path d="M194.963 113.58L128.074 151.237L56.4487 110.999L53 112.859V142.076L128.074 184.166L194.956 146.656V162.118L128.074 199.782L56.4487 159.545L53 161.405V166.411L128.074 208.509L203 166.411V137.201L199.551 135.342L128.074 175.432L61.0367 137.922V122.453L128.074 159.963L203 117.881V89.0821L199.265 86.9354L128.074 126.886L64.4854 91.3761L128.074 55.7264L180.316 85.0754L184.912 82.5025V78.922L128.074 47L53 89.0899V93.6779L128.074 135.776L194.956 98.1108L194.963 113.58Z" fill="#EE3D2C"/>
</svg>