<svg width="256" height="256" title="Datalore" viewBox="0 0 256 256" fill="none" xmlns="http://www.w3.org/2000/svg" id="datalore">
<style>
#datalore {
    rect {fill: #15191C}

    @media (prefers-color-scheme: light) {
        rect {fill: #F4F2ED}
    }
}
</style>
<rect width="256" height="256" rx="40" fill="#15191C"/>
<path d="M191.467 90.8361V61.1476C191.467 55.5683 186.897 51.0697 181.318 51.159L154.573 51.5858C151.712 51.6312 149.009 52.9012 147.147 55.0733L67.9365 147.487C66.385 149.298 65.5312 151.605 65.5312 153.989V181.475C65.5312 186.992 70.004 191.465 75.5213 191.465H102.169C105.05 191.465 107.791 190.221 109.688 188.053L188.995 97.4162C190.589 95.5953 191.467 93.2564 191.467 90.8361Z" fill="#3BEA62"/>
<path d="M191.468 87.2957V60.9901C191.468 55.4728 186.995 51 181.478 51H151.046C150.562 51 150.077 51.0348 149.598 51.1059L59.5415 64.3004C54.6357 65.0194 51 69.2274 51 74.1846V111.475C51 116.994 55.4744 121.466 60.9932 121.465L105.808 121.454C106.838 121.454 107.863 121.294 108.844 120.981L184.516 96.8136C188.656 95.4906 191.468 91.6415 191.468 87.2957Z" fill="url(#linearGradient1)"/>
<path d="M206 196.002V113.35C206 109.335 203.595 105.709 199.895 104.147L109.267 65.8883C108.013 65.3585 106.662 65.0906 105.3 65.1027L60.9106 65.466C55.4252 65.5114 51.0024 69.9706 51.0024 75.4561V118.239C51.0024 120.19 51.5729 122.098 52.6446 123.728L103.767 201.492C105.613 204.302 108.751 205.993 112.114 205.993H196.01C201.527 205.993 206 201.519 206 196.002Z" fill="url(#linearGradient2)"/>
<path d="M176.936 80.0624H80.0624V176.936H176.936V80.0624Z" fill="black"/>
<path fill-rule="evenodd" clip-rule="evenodd" d="M92.1645 92.1527H106.001C109.444 92.1527 112.529 92.9309 115.255 94.4883C117.981 96.0457 120.114 98.2044 121.653 100.965C123.193 103.726 123.963 106.844 123.963 110.324C123.963 113.804 123.193 116.922 121.653 119.683C120.113 122.444 117.98 124.602 115.255 126.16C112.529 127.718 109.444 128.495 106.001 128.495H92.1645V92.1527ZM111.608 120.915C113.235 119.946 114.49 118.557 115.372 116.748C116.254 114.939 116.696 112.799 116.696 110.322C116.696 107.846 116.254 105.706 115.372 103.897C114.49 102.088 113.235 100.7 111.608 99.7302C109.98 98.7614 108.085 98.2771 105.922 98.2771H99.2499V122.367H105.922C108.085 122.367 109.98 121.884 111.608 120.915Z" fill="white"/>
<path d="M130.921 157.557H92.1716V164.823H130.921V157.557Z" fill="white"/>
<path d="M137.229 122.11V92.1527H130.169V128.495H154.467V122.11H137.229Z" fill="white"/>
<linearGradient id="linearGradient1" x1="201.535" y1="48.9125" x2="36.8831" y2="87.2092" gradientUnits="userSpaceOnUse">
<stop offset="0.1" stop-color="#3BEA62"/>
<stop offset="0.59" stop-color="#F0EB18"/>
</linearGradient>
<linearGradient id="linearGradient2" x1="60.851" y1="46.9991" x2="216.259" y2="188.269" gradientUnits="userSpaceOnUse">
<stop offset="0.26" stop-color="#F0EB18"/>
<stop offset="0.65" stop-color="#087CFA"/>
</linearGradient>
</svg>