<svg width="256" height="256" title="Datadog" viewBox="0 0 256 256" fill="none" xmlns="http://www.w3.org/2000/svg">
<rect width="256" height="256" rx="40" fill="#632CA6"/>
<path fill-rule="evenodd" clip-rule="evenodd" d="M177.381 160.166L164.467 151.67L153.705 169.625L141.187 166L130.143 182.822L130.709 188.09L190.635 177.045L187.18 139.662L177.381 160.166ZM121.477 144.023L131.105 142.721C132.635 143.4 133.711 143.684 135.637 144.137C137.476 144.743 139.421 144.965 141.35 144.79C143.279 144.614 145.151 144.045 146.852 143.117C147.984 142.551 150.42 140.285 151.383 139.096L190.805 131.902L194.77 180.613L127.367 192.734L121.477 144.023ZM194.656 126.465L190.748 127.258L183.271 50L56 64.7266L71.6895 192.168L86.5293 189.902C85.3398 188.203 83.4707 186.164 80.2988 183.559C75.9375 179.877 77.4668 173.703 80.0723 169.795C83.4707 163.168 101.143 154.785 100.123 144.193C99.7832 140.398 99.1602 135.357 95.5918 131.959C95.4785 133.375 95.7051 134.791 95.7051 134.791C95.7051 134.791 94.2324 132.865 93.4961 130.316C92.8164 129.354 92.25 129.07 91.457 127.768C90.8906 129.24 91.0039 130.996 91.0039 130.996C91.0039 130.996 89.7578 128.164 89.5879 125.785C89.0845 126.754 88.7765 127.813 88.6816 128.9C88.6816 128.9 87.1523 124.369 87.5488 122.047C86.8125 119.951 84.7168 115.816 85.2832 106.357C89.1914 109.076 97.7441 108.453 101.029 103.525C102.162 101.883 102.898 97.4648 100.463 88.6855C98.9336 83.0781 95.082 74.752 93.6094 71.5801L93.4395 71.6934C94.5185 75.1633 95.5194 78.657 96.4414 82.1719C98.4238 90.1016 98.9902 92.8203 98.0273 96.4453C97.291 99.6172 95.4785 101.656 90.8906 103.979C86.3027 106.244 80.1855 100.637 79.7891 100.354C75.8507 97.2368 72.9641 92.986 71.5195 88.1758C71.123 85.0605 73.2754 83.248 74.3516 80.6992C73.2318 81.0462 72.1346 81.4624 71.0664 81.9453C71.0664 81.9453 73.1621 79.793 75.7109 77.9805C76.8438 77.2441 77.4102 76.791 78.543 75.8281H75.5977C75.5977 75.8281 78.3164 74.4121 81.1484 73.3359C79.0527 73.2227 77.0703 73.3359 77.0703 73.3359C77.0703 73.3359 83.1309 70.6172 87.9453 68.6348C91.2305 67.2754 94.459 67.6719 96.2715 70.2773C98.5937 73.6758 101.086 75.5449 106.41 76.6777C109.639 75.2617 110.602 74.5254 114.68 73.3926C118.248 69.4277 121.08 68.9746 121.08 68.9746C121.08 68.9746 119.664 70.2207 119.324 72.2598C121.363 70.6738 123.572 69.3145 123.572 69.3145C123.572 69.3145 122.723 70.3906 121.873 72.0898L122.1 72.373C123.761 71.4138 125.483 70.5624 127.254 69.8242L125.555 72.0898C127.311 72.0898 130.936 72.2031 132.352 72.373C140.678 72.543 142.377 63.4805 145.549 62.3477C149.514 60.9316 151.326 60.082 158.123 66.7656C163.957 72.4297 168.545 82.7383 166.279 85.0605C164.354 86.9297 160.615 84.3242 156.48 79.1133C154.11 76.1961 152.513 72.7287 151.836 69.0312C151.213 65.5762 148.664 63.5371 148.664 63.5371C148.664 63.5371 150.137 66.8223 150.137 69.7676C150.137 71.3535 150.307 77.2441 152.855 80.5859C152.629 81.0957 152.516 83.0215 152.232 83.418C149.287 79.793 142.887 77.1875 141.867 76.5078C145.379 79.3398 153.422 85.9668 156.594 92.3105C159.482 98.3145 157.727 103.809 159.256 105.225C159.652 105.621 165.543 112.928 166.676 116.666C168.658 123.066 166.789 129.807 164.184 133.998L156.99 135.131C155.914 134.848 155.234 134.678 154.271 134.111C154.935 132.947 155.467 131.712 155.857 130.43L155.461 129.693C152.969 132.959 149.849 135.694 146.285 137.736C144.47 138.689 142.483 139.27 140.441 139.445C138.398 139.62 136.341 139.386 134.391 138.756C127.577 136.423 121.188 132.999 115.473 128.617C115.473 128.617 115.473 129.863 115.812 130.146C117.965 132.639 123.006 137.113 127.877 140.229L117.512 141.361L122.439 179.537C120.23 179.877 119.891 180.047 117.512 180.387C116.006 174.24 112.272 168.871 107.033 165.32C102.7 162.873 97.6049 162.145 92.7598 163.281L92.4766 163.621C95.9883 163.281 100.18 163.791 104.484 166.51C108.732 169.172 112.131 176.139 113.377 180.217C115.02 185.541 116.096 191.205 111.791 197.209C108.732 201.514 99.7266 203.893 92.5332 198.795C94.4023 201.91 97.0645 204.459 100.576 204.912C105.787 205.648 110.771 204.742 114.17 201.23C117.115 198.229 118.645 191.941 118.248 185.371L122.836 184.691L124.535 196.529L201 187.297L194.713 126.521L194.656 126.465ZM148.211 94.293C147.928 94.8027 147.645 95.0859 148.098 96.6719V96.7852L148.211 97.0117L148.437 97.4648C149.344 99.334 150.363 101.09 152.006 101.996C152.459 101.883 152.855 101.826 153.365 101.826C154.895 101.77 155.914 101.996 156.537 102.336V100.863C156.424 98.541 156.99 94.5195 152.516 92.4238C150.816 91.6309 148.381 91.8574 147.588 92.877L147.984 92.9902C149.174 93.3867 148.381 93.7832 148.154 94.293H148.211ZM160.842 116.213C156.061 115.712 151.236 116.556 146.908 118.648C145.322 119.895 146.059 122.047 147.248 122.896C150.533 125.389 153.479 127.031 156.48 126.635C158.35 126.408 159.992 123.406 161.182 120.744C161.975 118.875 161.975 116.893 160.785 116.213H160.842ZM127.99 97.2383C129.066 96.2188 122.779 94.916 117.965 98.2012C114.396 100.637 114.283 105.904 117.682 108.85L118.588 109.529C121.427 108.163 124.468 107.264 127.594 106.867C128.33 106.074 129.18 104.602 128.953 102.053C128.67 98.541 126.008 99.1074 127.99 97.2383Z" fill="white"/>
</svg>