<svg width="256" height="256" title="DataGrip" viewBox="0 0 256 256" fill="none" xmlns="http://www.w3.org/2000/svg" id="datagrip">
<style>
#datagrip {
    rect {fill: #15191C}

    @media (prefers-color-scheme: light) {
        rect {fill: #F4F2ED}
    }
}
</style>
<rect width="256" height="256" rx="40" fill="#15191C"/>
<path d="M60.8637 205H143.131C147.076 205 150.642 202.648 152.197 199.023L191.112 108.225C191.637 106.998 191.909 105.675 191.909 104.339V59.8637C191.909 54.4161 187.493 50 182.045 50H138.534C136.585 50 134.68 50.5777 133.059 51.6599L55.3921 103.495C52.65 105.325 51.0042 108.403 51.0042 111.698L51 195.137C51 200.584 55.4161 205 60.8637 205Z" fill="url(#linearGradient1)"/>
<path d="M170.836 190.909H196.136C201.584 190.909 206 186.493 206 181.045V149.337C206 148.87 205.966 148.404 205.901 147.942L193.119 58.4687C192.425 53.6087 188.264 50 183.354 50H145.396C139.947 50 135.531 54.4175 135.533 59.8665L135.544 104.764C135.544 105.824 135.715 106.877 136.05 107.881L161.478 184.165C162.821 188.193 166.591 190.909 170.836 190.909Z" fill="url(#linearGradient2)"/>
<path d="M167.376 190.908L196.137 190.904C201.585 190.904 206 186.488 206 181.04V153.173C206 150.294 204.741 147.557 202.556 145.683L110.133 66.4641C108.345 64.9324 106.068 64.0898 103.714 64.0898H74.9526C69.5051 64.0898 65.089 68.5058 65.089 73.9534V101.825C65.089 104.704 66.3473 107.44 68.5328 109.315L160.954 188.532C162.742 190.065 165.02 190.908 167.376 190.908Z" fill="#FF43F2"/>
<path d="M176.937 79.0625H80.0625V175.938H176.937V79.0625Z" fill="black"/>
<path fill-rule="evenodd" clip-rule="evenodd" d="M106.099 92.057H92.1567V128.681H106.099C109.569 128.681 112.673 127.896 115.411 126.327C118.166 124.757 120.32 122.586 121.873 119.813C123.424 117.023 124.201 113.874 124.201 110.369C124.201 106.864 123.424 103.725 121.873 100.951C120.32 98.1614 118.166 95.9808 115.411 94.4114C112.673 92.8417 109.569 92.057 106.099 92.057ZM111.749 121.042C110.11 122.019 108.201 122.506 106.02 122.506L99.298 122.508V98.2315H106.02C108.2 98.2315 110.11 98.7178 111.749 99.6959C113.389 100.673 114.653 102.076 115.543 103.907C116.433 105.722 116.877 107.874 116.877 110.369C116.877 112.864 116.433 115.024 115.543 116.856C114.653 118.671 113.389 120.064 111.749 121.042Z" fill="white"/>
<path d="M136.557 126.849C139.4 128.488 142.574 129.309 146.079 129.309C149.445 129.309 152.479 128.559 155.183 127.058C157.903 125.557 160.04 123.51 161.591 120.91C163.161 118.295 163.946 115.375 163.946 112.147V109.27H148.434V114.894H156.949C156.774 116.252 156.281 117.49 155.47 118.609C154.512 119.933 153.212 120.973 151.573 121.721C149.95 122.471 148.137 122.847 146.131 122.847C143.969 122.847 142.017 122.307 140.272 121.225C138.527 120.144 137.158 118.662 136.164 116.779C135.189 114.88 134.7 112.741 134.7 110.37C134.7 107.999 135.188 105.87 136.164 103.987C137.159 102.087 138.528 100.596 140.272 99.5138C142.015 98.4317 143.969 97.8924 146.131 97.8924C147.597 97.8924 148.966 98.1278 150.239 98.5987C151.513 99.0527 152.62 99.7072 153.561 100.561C154.521 101.397 155.279 102.392 155.837 103.543H163.476C162.813 101.153 161.653 99.0443 159.997 97.2127C158.357 95.3811 156.333 93.9587 153.927 92.9483C151.538 91.9379 148.923 91.4306 146.079 91.4306C142.573 91.4306 139.4 92.2572 136.557 93.9151C133.713 95.5532 131.481 97.8224 129.859 100.716C128.238 103.593 127.427 106.811 127.427 110.369C127.427 113.927 128.238 117.154 129.859 120.048C131.482 122.925 133.715 125.192 136.557 126.849Z" fill="white"/>
<path d="M92.1567 156.565H130.907V163.831H92.1567V156.565Z" fill="white"/>
<linearGradient id="linearGradient1" x1="210.251" y1="59.6438" x2="68.719" y2="215.329" gradientUnits="userSpaceOnUse">
<stop offset="0.28" stop-color="#7256FF"/>
<stop offset="0.66" stop-color="#00D980"/>
</linearGradient>
<linearGradient id="linearGradient2" x1="209.821" y1="200.197" x2="171.05" y2="32.9783" gradientUnits="userSpaceOnUse">
<stop offset="0.3" stop-color="#FF43F2"/>
<stop offset="0.54" stop-color="#7256FF"/>
</linearGradient>
</svg>