<svg width="256" height="256" title="date-fns" viewBox="0 0 256 256" fill="none" xmlns="http://www.w3.org/2000/svg">
<rect width="256" height="256" rx="40" fill="#770C56"/>
<path d="M43.0032 128.21C42.9433 115.285 45.5303 102.483 50.6066 90.5843C55.6828 78.6856 63.1421 67.9393 72.5299 59H91.0895C81.5589 67.8293 74.0043 78.555 68.9171 90.4792C63.8299 102.403 61.3242 115.259 61.5628 128.21C61.3835 141.09 63.9181 153.865 69.0034 165.713C74.0887 177.561 81.6121 188.218 91.0895 197H72.1081C62.8088 188.104 55.4316 177.415 50.4273 165.587C45.4231 153.759 42.8969 141.041 43.0032 128.21ZM212.571 128.21C212.573 141.064 209.959 153.786 204.884 165.609C199.81 177.431 192.38 188.109 183.044 197H164.906C174.383 188.218 181.907 177.561 186.992 165.713C192.078 153.865 194.612 141.09 194.433 128.21C194.671 115.259 192.166 102.403 187.079 90.4792C181.991 78.555 174.437 67.8293 164.906 59H183.888C193.239 67.945 200.646 78.7017 205.652 90.6057C210.658 102.51 213.156 115.308 212.992 128.21H212.571Z" fill="white"/>
<path fill-rule="evenodd" clip-rule="evenodd" d="M112.602 68.228H125.256V138.277H112.602V68.228Z" fill="white"/>
<path fill-rule="evenodd" clip-rule="evenodd" d="M125.256 138.277L116.82 129.888L167.859 80.8115L176.295 89.2006L125.256 138.277Z" fill="white"/>
</svg>