<svg width="256" height="256" title="Davinci Resolve" viewBox="0 0 256 256" fill="none" xmlns="http://www.w3.org/2000/svg" id="davinci">
<style>
#davinci {
    rect {fill: #15191C}

    @media (prefers-color-scheme: light) {
        rect {fill: #F4F2ED}
    }
}
</style>
<rect width="256" height="256" rx="40" fill="#15191C"/>
<path d="M122.719 141.667L153.634 104.823L147.267 99.481L116.352 136.324L122.719 141.667Z" fill="black"/>
<path d="M153.634 104.823L184.55 67.9799L178.183 62.6375L147.268 99.481L153.634 104.823Z" fill="#0019FF"/>
<path d="M154.044 105.266L185.597 68.9673L179.325 63.5146L147.771 99.8129L154.044 105.266Z" fill="#0015FF"/>
<path d="M154.445 105.715L186.628 69.9728L180.451 64.4115L148.269 100.154L154.445 105.715Z" fill="#0011FF"/>
<path d="M154.839 106.171L187.64 70.9962L181.562 65.3279L148.761 100.503L154.839 106.171Z" fill="#000CFF"/>
<path d="M155.225 106.634L188.635 72.0371L182.656 66.2636L149.246 100.861L155.225 106.634Z" fill="#0008FF"/>
<path d="M155.602 107.104L189.611 73.0952L183.734 67.2182L149.725 101.227L155.602 107.104Z" fill="#0004FF"/>
<path d="M155.971 107.58L190.568 74.1701L184.795 68.1915L150.198 101.602L155.971 107.58Z" fill="#0000FF"/>
<path d="M156.332 108.063L191.507 75.2617L185.839 69.1833L150.664 101.984L156.332 108.063Z" fill="#0500FF"/>
<path d="M156.685 108.552L192.427 76.3694L186.866 70.193L151.123 102.375L156.685 108.552Z" fill="#0900FF"/>
<path d="M157.029 109.047L193.327 77.493L187.874 71.2205L151.576 102.774L157.029 109.047Z" fill="#0D00FF"/>
<path d="M157.364 109.548L194.207 78.6322L188.865 72.2654L152.021 103.181L157.364 109.548Z" fill="#1100FF"/>
<path d="M157.69 110.054L195.068 79.7866L189.837 73.3275L152.46 103.595L157.69 110.054Z" fill="#1600FF"/>
<path d="M158.008 110.566L195.908 80.9557L190.791 74.4064L152.891 104.017L158.008 110.566Z" fill="#1A00FF"/>
<path d="M158.316 111.084L196.727 82.1394L191.726 75.5017L153.315 104.447L158.316 111.084Z" fill="#1E00FF"/>
<path d="M158.616 111.607L197.526 83.3372L192.641 76.6133L153.73 104.883L158.616 111.607Z" fill="#2200FF"/>
<path d="M158.906 112.135L198.304 84.5488L193.536 77.7406L154.139 105.327L158.906 112.135Z" fill="#2700FF"/>
<path d="M159.187 112.668L199.06 85.7736L194.412 78.8833L154.539 105.778L159.187 112.668Z" fill="#2B00FF"/>
<path d="M159.458 113.206L199.795 87.0116L195.268 80.0412L154.932 106.236L159.458 113.206Z" fill="#2F00FF"/>
<path d="M159.721 113.749L200.508 88.2622L196.104 81.2139L155.316 106.701L159.721 113.749Z" fill="#3300FF"/>
<path d="M159.973 114.296L201.2 89.525L196.919 82.4009L155.693 107.172L159.973 114.296Z" fill="#3800FF"/>
<path d="M160.217 114.848L201.869 90.7998L197.713 83.602L156.061 107.65L160.217 114.848Z" fill="#3C00FF"/>
<path d="M160.45 115.403L202.515 92.0859L198.486 84.8168L156.42 108.134L160.45 115.403Z" fill="#4000FF"/>
<path d="M160.674 115.963L203.14 93.3832L199.238 86.0448L156.772 108.624L160.674 115.963Z" fill="#4400FF"/>
<path d="M160.888 116.526L203.741 94.6913L199.968 87.2859L157.114 109.121L160.888 116.526Z" fill="#4800FF"/>
<path d="M161.092 117.093L204.32 96.0095L200.676 88.5394L157.448 109.623L161.092 117.093Z" fill="#4D00FF"/>
<path d="M161.286 117.664L204.875 97.3377L201.363 89.8051L157.773 110.131L161.286 117.664Z" fill="#5100FF"/>
<path d="M161.47 118.238L205.408 98.6754L202.027 91.0827L158.089 110.645L161.47 118.238Z" fill="#5500FF"/>
<path d="M161.644 118.815L205.916 100.022L202.669 92.3716L158.396 111.164L161.644 118.815Z" fill="#5900FF"/>
<path d="M161.808 119.395L206.401 101.378L203.288 93.6716L158.694 111.689L161.808 119.395Z" fill="#5E00FF"/>
<path d="M161.962 119.977L206.863 102.741L203.884 94.9821L158.983 112.218L161.962 119.977Z" fill="#6200FF"/>
<path d="M162.105 120.563L207.301 104.113L204.458 96.3028L159.263 112.752L162.105 120.563Z" fill="#6600FF"/>
<path d="M162.239 121.15L207.714 105.492L205.008 97.6333L159.533 113.292L162.239 121.15Z" fill="#6A00FF"/>
<path d="M162.362 121.74L208.104 106.878L205.535 98.9733L159.794 113.836L162.362 121.74Z" fill="#6F00FF"/>
<path d="M162.475 122.332L208.469 108.27L206.039 100.322L160.045 114.384L162.475 122.332Z" fill="#7300FF"/>
<path d="M162.577 122.926L208.81 109.669L206.519 101.68L160.286 114.937L162.577 122.926Z" fill="#7700FF"/>
<path d="M162.669 123.522L209.126 111.074L206.975 103.045L160.518 115.494L162.669 123.522Z" fill="#7B00FF"/>
<path d="M162.751 124.119L209.418 112.483L207.408 104.419L160.74 116.054L162.751 124.119Z" fill="#8000FF"/>
<path d="M162.822 124.717L209.685 113.898L207.816 105.8L160.952 116.619L162.822 124.717Z" fill="#8400FF"/>
<path d="M162.883 125.317L209.928 115.317L208.2 107.187L161.155 117.187L162.883 125.317Z" fill="#8800FF"/>
<path d="M162.933 125.917L210.146 116.74L208.56 108.582L161.348 117.759L162.933 125.917Z" fill="#8C00FF"/>
<path d="M162.973 126.519L210.338 118.167L208.895 109.982L161.53 118.334L162.973 126.519Z" fill="#9100FF"/>
<path d="M163.003 127.121L210.506 119.597L209.206 111.388L161.702 118.912L163.003 127.121Z" fill="#9500FF"/>
<path d="M163.021 127.723L210.649 121.029L209.492 112.799L161.865 119.493L163.021 127.723Z" fill="#9900FF"/>
<path d="M163.029 128.326L210.767 122.464L209.754 114.215L162.017 120.076L163.029 128.326Z" fill="#9D00FF"/>
<path d="M163.027 128.928L210.859 123.901L209.991 115.635L162.158 120.662L163.027 128.928Z" fill="#A100FF"/>
<path d="M163.015 129.531L210.927 125.339L210.203 117.059L162.29 121.251L163.015 129.531Z" fill="#A600FF"/>
<path d="M162.991 130.133L210.97 126.778L210.39 118.487L162.412 121.842L162.991 130.133Z" fill="#AA00FF"/>
<path d="M162.958 130.735L210.987 128.217L210.552 119.918L162.523 122.435L162.958 130.735Z" fill="#AE00FF"/>
<path d="M162.914 131.336L210.98 129.657L210.69 121.351L162.623 123.029L162.914 131.336Z" fill="#B200FF"/>
<path d="M162.859 131.936L210.947 131.096L210.802 122.786L162.714 123.626L162.859 131.936Z" fill="#B700FF"/>
<path d="M162.793 132.535H210.889V124.224H162.793V132.535Z" fill="#BB00FF"/>
<path d="M162.718 133.133L210.806 133.972L210.951 125.662L162.863 124.823L162.718 133.133Z" fill="#BF00FF"/>
<path d="M162.632 133.729L210.698 135.408L210.988 127.102L162.922 125.423L162.632 133.729Z" fill="#C300FF"/>
<path d="M162.535 134.324L210.565 136.841L211 128.541L162.97 126.024L162.535 134.324Z" fill="#C800FF"/>
<path d="M162.428 134.917L210.407 138.272L210.987 129.981L163.008 126.626L162.428 134.917Z" fill="#CC00FF"/>
<path d="M162.311 135.508L210.224 139.7L210.948 131.421L163.036 127.229L162.311 135.508Z" fill="#D000FF"/>
<path d="M162.184 136.097L210.016 141.125L210.885 132.859L163.052 127.832L162.184 136.097Z" fill="#D400FF"/>
<path d="M162.046 136.684L209.783 142.546L210.796 134.296L163.059 128.435L162.046 136.684Z" fill="#D900FF"/>
<path d="M161.898 137.268L209.526 143.962L210.682 135.732L163.055 129.038L161.898 137.268Z" fill="#DD00FF"/>
<path d="M161.74 137.85L209.244 145.374L210.544 137.165L163.04 129.641L161.74 137.85Z" fill="#E100FF"/>
<path d="M161.572 138.429L208.937 146.78L210.38 138.595L163.015 130.244L161.572 138.429Z" fill="#E500FF"/>
<path d="M161.393 139.004L208.605 148.181L210.191 140.023L162.979 130.846L161.393 139.004Z" fill="#EA00FF"/>
<path d="M161.205 139.577L208.25 149.576L209.978 141.447L162.933 131.447L161.205 139.577Z" fill="#EE00FF"/>
<path d="M161.007 140.146L207.87 150.965L209.74 142.867L162.877 132.048L161.007 140.146Z" fill="#F200FF"/>
<path d="M160.799 140.711L207.466 152.347L209.477 144.282L162.81 132.647L160.799 140.711Z" fill="#F600FF"/>
<path d="M160.581 141.273L207.038 153.721L209.189 145.693L162.732 133.245L160.581 141.273Z" fill="#FA00FF"/>
<path d="M160.353 141.831L206.585 155.088L208.876 147.099L162.644 133.842L160.353 141.831Z" fill="#FF00FF"/>
<path d="M160.115 142.385L206.11 156.447L208.54 148.499L162.545 134.437L160.115 142.385Z" fill="#FF00FB"/>
<path d="M159.868 142.935L205.61 157.797L208.178 149.893L162.437 135.03L159.868 142.935Z" fill="#FF00F7"/>
<path d="M159.611 143.48L205.087 159.138L207.793 151.28L162.317 135.621L159.611 143.48Z" fill="#FF00F3"/>
<path d="M159.346 144.021L204.541 160.47L207.383 152.66L162.188 136.211L159.346 144.021Z" fill="#FF00EE"/>
<path d="M159.07 144.557L203.971 161.793L206.95 154.033L162.048 136.797L159.07 144.557Z" fill="#FF00EA"/>
<path d="M158.785 145.088L203.378 163.105L206.492 155.399L161.898 137.382L158.785 145.088Z" fill="#FF00E6"/>
<path d="M158.491 145.614L202.763 164.406L206.011 156.756L161.738 137.963L158.491 145.614Z" fill="#FF00E2"/>
<path d="M158.188 146.135L202.125 165.697L205.506 158.104L161.568 138.542L158.188 146.135Z" fill="#FF00DD"/>
<path d="M157.875 146.65L201.465 166.976L204.977 159.444L161.388 139.117L157.875 146.65Z" fill="#FF00D9"/>
<path d="M157.554 147.16L200.782 168.244L204.426 160.774L161.198 139.69L157.554 147.16Z" fill="#FF00D5"/>
<path d="M157.224 147.664L200.078 169.499L203.851 162.094L160.997 140.259L157.224 147.664Z" fill="#FF00D1"/>
<path d="M156.885 148.162L199.351 170.742L203.253 163.404L160.787 140.824L156.885 148.162Z" fill="#FF00CC"/>
<path d="M156.538 148.655L198.603 171.972L202.633 164.703L160.567 141.386L156.538 148.655Z" fill="#FF00C8"/>
<path d="M156.182 149.141L197.834 173.189L201.989 165.991L160.337 141.943L156.182 149.141Z" fill="#FF00C4"/>
<path d="M155.817 149.621L197.043 174.392L201.324 167.268L160.098 142.497L155.817 149.621Z" fill="#FF00C0"/>
<path d="M155.445 150.095L196.232 175.581L200.636 168.533L159.849 143.046L155.445 150.095Z" fill="#FF00BB"/>
<path d="M155.063 150.561L195.4 176.756L199.927 169.786L159.59 143.591L155.063 150.561Z" fill="#FF00B7"/>
<path d="M154.674 151.022L194.547 177.917L199.195 171.026L159.322 144.131L154.674 151.022Z" fill="#FF00B3"/>
<path d="M154.277 151.475L193.675 179.062L198.442 172.254L159.044 144.667L154.277 151.475Z" fill="#FF00AF"/>
<path d="M153.872 151.921L192.783 180.191L197.668 173.468L158.758 145.198L153.872 151.921Z" fill="#FF00AB"/>
<path d="M153.46 152.361L191.871 181.306L196.873 174.668L158.462 145.723L153.46 152.361Z" fill="#FF00A6"/>
<path d="M153.039 152.793L190.939 182.403L196.056 175.854L158.156 146.243L153.039 152.793Z" fill="#FF00A2"/>
<path d="M152.612 153.217L189.989 183.485L195.22 177.026L157.842 146.758L152.612 153.217Z" fill="#FF009E"/>
<path d="M152.177 153.634L189.02 184.55L194.363 178.183L157.519 147.268L152.177 153.634Z" fill="#FF009A"/>
<path d="M151.735 154.044L188.033 185.597L193.486 179.325L157.187 147.771L151.735 154.044Z" fill="#FF0095"/>
<path d="M151.285 154.445L187.027 186.628L192.589 180.451L156.847 148.269L151.285 154.445Z" fill="#FF0091"/>
<path d="M150.829 154.839L186.004 187.64L191.672 181.562L156.497 148.761L150.829 154.839Z" fill="#FF008D"/>
<path d="M150.366 155.225L184.963 188.635L190.737 182.656L156.14 149.246L150.366 155.225Z" fill="#FF0089"/>
<path d="M149.896 155.602L183.905 189.611L189.782 183.734L155.773 149.725L149.896 155.602Z" fill="#FF0084"/>
<path d="M149.42 155.972L182.83 190.569L188.809 184.795L155.399 150.198L149.42 155.972Z" fill="#FF0080"/>
<path d="M148.937 156.332L181.738 191.508L187.817 185.839L155.016 150.664L148.937 156.332Z" fill="#FF007C"/>
<path d="M148.448 156.685L180.631 192.427L186.807 186.866L154.625 151.124L148.448 156.685Z" fill="#FF0078"/>
<path d="M147.953 157.029L179.507 193.327L185.78 187.874L154.226 151.576L147.953 157.029Z" fill="#FF0073"/>
<path d="M147.453 157.364L178.368 194.207L184.735 188.865L153.819 152.022L147.453 157.364Z" fill="#FF006F"/>
<path d="M146.946 157.69L177.214 195.068L183.673 189.837L153.405 152.46L146.946 157.69Z" fill="#FF006B"/>
<path d="M146.434 158.008L176.045 195.908L182.594 190.791L152.983 152.891L146.434 158.008Z" fill="#FF0067"/>
<path d="M145.916 158.316L174.861 196.727L181.498 191.725L152.554 153.314L145.916 158.316Z" fill="#FF0062"/>
<path d="M145.393 158.616L173.663 197.526L180.387 192.641L152.117 153.73L145.393 158.616Z" fill="#FF005E"/>
<path d="M144.865 158.906L172.452 198.304L179.26 193.537L151.673 154.139L144.865 158.906Z" fill="#FF005A"/>
<path d="M144.332 159.187L171.227 199.06L178.117 194.413L151.222 154.539L144.332 159.187Z" fill="#FF0056"/>
<path d="M143.794 159.459L169.989 199.795L176.959 195.268L150.764 154.932L143.794 159.459Z" fill="#FF0052"/>
<path d="M143.251 159.721L168.738 200.508L175.786 196.104L150.299 155.316L143.251 159.721Z" fill="#FF004D"/>
<path d="M142.704 159.973L167.475 201.199L174.599 196.919L149.828 155.693L142.704 159.973Z" fill="#FF0049"/>
<path d="M142.152 160.217L166.2 201.869L173.398 197.713L149.35 156.061L142.152 160.217Z" fill="#FF0045"/>
<path d="M141.597 160.45L164.914 202.515L172.183 198.486L148.866 156.421L141.597 160.45Z" fill="#FF0041"/>
<path d="M141.037 160.674L163.617 203.14L170.955 199.238L148.376 156.772L141.037 160.674Z" fill="#FF003C"/>
<path d="M140.474 160.887L162.309 203.741L169.714 199.968L147.879 157.114L140.474 160.887Z" fill="#FF0038"/>
<path d="M139.907 161.092L160.991 204.32L168.461 200.676L147.377 157.448L139.907 161.092Z" fill="#FF0034"/>
<path d="M139.336 161.286L159.663 204.875L167.195 201.363L146.869 157.773L139.336 161.286Z" fill="#FF0030"/>
<path d="M138.762 161.47L158.325 205.408L165.917 202.027L146.355 158.089L138.762 161.47Z" fill="#FF002B"/>
<path d="M138.186 161.644L156.978 205.916L164.629 202.669L145.836 158.396L138.186 161.644Z" fill="#FF0027"/>
<path d="M137.606 161.808L155.623 206.402L163.329 203.288L145.312 158.694L137.606 161.808Z" fill="#FF0023"/>
<path d="M137.023 161.962L154.259 206.863L162.018 203.885L144.782 158.983L137.023 161.962Z" fill="#FF001F"/>
<path d="M136.438 162.105L152.887 207.301L160.697 204.458L144.248 159.263L136.438 162.105Z" fill="#FF001A"/>
<path d="M135.85 162.239L151.508 207.714L159.367 205.008L143.708 159.533L135.85 162.239Z" fill="#FF0016"/>
<path d="M135.26 162.362L150.122 208.104L158.027 205.535L143.164 159.794L135.26 162.362Z" fill="#FF0012"/>
<path d="M134.668 162.475L148.73 208.469L156.678 206.039L142.616 160.045L134.668 162.475Z" fill="#FF000E"/>
<path d="M134.074 162.577L147.331 208.81L155.32 206.519L142.063 160.286L134.074 162.577Z" fill="#FF0009"/>
<path d="M133.479 162.669L145.927 209.126L153.955 206.975L141.507 160.518L133.479 162.669Z" fill="#FF0005"/>
<path d="M132.881 162.751L144.517 209.418L152.581 207.407L140.946 160.74L132.881 162.751Z" fill="#FF0001"/>
<path d="M132.283 162.822L143.102 209.685L151.201 207.816L140.381 160.953L132.283 162.822Z" fill="#FF0300"/>
<path d="M131.683 162.883L141.683 209.928L149.813 208.2L139.813 161.155L131.683 162.883Z" fill="#FF0700"/>
<path d="M131.083 162.933L140.26 210.145L148.418 208.56L139.241 161.348L131.083 162.933Z" fill="#FF0C00"/>
<path d="M130.481 162.973L138.833 210.338L147.018 208.895L138.666 161.53L130.481 162.973Z" fill="#FF1000"/>
<path d="M129.88 163.002L137.404 210.506L145.612 209.206L138.089 161.702L129.88 163.002Z" fill="#FF1400"/>
<path d="M129.277 163.021L135.971 210.649L144.201 209.492L137.508 161.865L129.277 163.021Z" fill="#FF1800"/>
<path d="M128.675 163.03L134.536 210.767L142.785 209.754L136.924 162.017L128.675 163.03Z" fill="#FF1D00"/>
<path d="M128.072 163.027L133.099 210.86L141.365 209.991L136.338 162.159L128.072 163.027Z" fill="#FF2100"/>
<path d="M127.469 163.015L131.661 210.927L139.941 210.203L135.749 162.29L127.469 163.015Z" fill="#FF2500"/>
<path d="M126.867 162.991L130.222 210.97L138.513 210.39L135.158 162.412L126.867 162.991Z" fill="#FF2900"/>
<path d="M126.266 162.958L128.783 210.988L137.083 210.553L134.566 162.523L126.266 162.958Z" fill="#FF2E00"/>
<path d="M125.665 162.913L127.343 210.98L135.649 210.69L133.971 162.623L125.665 162.913Z" fill="#FF3200"/>
<path d="M125.064 162.859L125.904 210.947L134.214 210.802L133.374 162.714L125.064 162.859Z" fill="#FF3600"/>
<path d="M124.465 162.794V210.889H132.776V162.794H124.465Z" fill="#FF3A00"/>
<path d="M123.867 162.718L123.028 210.806L131.338 210.951L132.177 162.863L123.867 162.718Z" fill="#FF3F00"/>
<path d="M123.271 162.632L121.592 210.698L129.899 210.988L131.577 162.922L123.271 162.632Z" fill="#FF4300"/>
<path d="M122.676 162.535L120.159 210.565L128.459 211L130.976 162.97L122.676 162.535Z" fill="#FF4700"/>
<path d="M122.083 162.429L118.728 210.407L127.019 210.987L130.374 163.008L122.083 162.429Z" fill="#FF4B00"/>
<path d="M121.492 162.311L117.3 210.224L125.58 210.949L129.771 163.036L121.492 162.311Z" fill="#FF5000"/>
<path d="M120.903 162.184L115.875 210.016L124.141 210.885L129.169 163.053L120.903 162.184Z" fill="#FF5400"/>
<path d="M120.316 162.046L114.454 209.783L122.704 210.796L128.565 163.059L120.316 162.046Z" fill="#FF5800"/>
<path d="M119.732 161.898L113.038 209.526L121.269 210.683L127.962 163.055L119.732 161.898Z" fill="#FF5C00"/>
<path d="M119.15 161.74L111.626 209.244L119.835 210.544L127.359 163.04L119.15 161.74Z" fill="#FF6000"/>
<path d="M118.572 161.572L110.22 208.937L118.405 210.38L126.757 163.015L118.572 161.572Z" fill="#FF6500"/>
<path d="M117.996 161.394L108.819 208.606L116.977 210.192L126.154 162.979L117.996 161.394Z" fill="#FF6900"/>
<path d="M117.423 161.205L107.424 208.25L115.553 209.978L125.553 162.933L117.423 161.205Z" fill="#FF6D00"/>
<path d="M116.854 161.007L106.035 207.87L114.134 209.74L124.953 162.877L116.854 161.007Z" fill="#FF7100"/>
<path d="M116.289 160.799L104.653 207.466L112.718 209.477L124.353 162.809L116.289 160.799Z" fill="#FF7600"/>
<path d="M115.727 160.581L103.279 207.038L111.307 209.189L123.755 162.732L115.727 160.581Z" fill="#FF7A00"/>
<path d="M115.169 160.353L101.912 206.586L109.901 208.876L123.158 162.644L115.169 160.353Z" fill="#FF7E00"/>
<path d="M114.615 160.115L100.553 206.11L108.501 208.54L122.563 162.545L114.615 160.115Z" fill="#FF8200"/>
<path d="M114.065 159.868L99.203 205.61L107.107 208.178L121.97 162.437L114.065 159.868Z" fill="#FF8700"/>
<path d="M113.52 159.612L97.8617 205.087L105.72 207.793L121.379 162.317L113.52 159.612Z" fill="#FF8B00"/>
<path d="M112.98 159.345L96.5299 204.541L104.34 207.383L120.79 162.188L112.98 159.345Z" fill="#FF8F00"/>
<path d="M112.443 159.07L95.2074 203.971L102.967 206.95L120.203 162.048L112.443 159.07Z" fill="#FF9300"/>
<path d="M111.912 158.785L93.8955 203.379L101.602 206.492L119.619 161.898L111.912 158.785Z" fill="#FF9800"/>
<path d="M111.387 158.491L92.594 202.763L100.245 206.011L119.037 161.738L111.387 158.491Z" fill="#FF9C00"/>
<path d="M110.866 158.188L91.3035 202.125L98.8962 205.506L118.458 161.568L110.866 158.188Z" fill="#FFA000"/>
<path d="M110.35 157.875L90.024 201.465L97.5566 204.977L117.883 161.388L110.35 157.875Z" fill="#FFA400"/>
<path d="M109.84 157.554L88.7565 200.782L96.2266 204.426L117.31 161.198L109.84 157.554Z" fill="#FFA900"/>
<path d="M109.336 157.224L87.501 200.078L94.9064 203.851L116.741 160.997L109.336 157.224Z" fill="#FFAD00"/>
<path d="M108.838 156.885L86.2582 199.351L93.5966 203.253L116.176 160.787L108.838 156.885Z" fill="#FFB100"/>
<path d="M108.345 156.538L85.028 198.603L92.2971 202.633L115.614 160.567L108.345 156.538Z" fill="#FFB500"/>
<path d="M107.859 156.182L83.8112 197.834L91.0089 201.989L115.057 160.337L107.859 156.182Z" fill="#FFB900"/>
<path d="M107.379 155.817L82.608 197.043L89.7322 201.324L114.503 160.098L107.379 155.817Z" fill="#FFBE00"/>
<path d="M106.906 155.444L81.4188 196.232L88.4672 200.636L113.954 159.849L106.906 155.444Z" fill="#FFC200"/>
<path d="M106.438 155.064L80.2437 195.4L87.2141 199.927L113.409 159.59L106.438 155.064Z" fill="#FFC600"/>
<path d="M105.978 154.674L79.0836 194.548L85.974 199.195L112.869 159.322L105.978 154.674Z" fill="#FFCA00"/>
<path d="M105.525 154.277L77.9384 193.675L84.7465 198.442L112.333 159.045L105.525 154.277Z" fill="#FFCF00"/>
<path d="M105.079 153.872L76.8087 192.783L83.5327 197.668L111.803 158.758L105.079 153.872Z" fill="#FFD300"/>
<path d="M104.64 153.46L75.6948 191.871L82.3325 196.873L111.277 158.462L104.64 153.46Z" fill="#FFD700"/>
<path d="M104.207 153.04L74.5967 190.94L81.146 196.057L110.757 158.157L104.207 153.04Z" fill="#FFDB00"/>
<path d="M103.783 152.612L73.5153 189.989L79.9743 195.22L110.242 157.842L103.783 152.612Z" fill="#FFE000"/>
<path d="M103.366 152.177L72.4504 189.02L78.8172 194.363L109.733 157.519L103.366 152.177Z" fill="#FFE400"/>
<path d="M102.956 151.735L71.4027 188.033L77.6753 193.486L109.229 157.187L102.956 151.735Z" fill="#FFE800"/>
<path d="M102.555 151.285L70.3726 187.027L76.549 192.589L108.731 156.847L102.555 151.285Z" fill="#FFEC00"/>
<path d="M102.161 150.829L69.3599 186.004L75.4383 191.672L108.24 156.497L102.161 150.829Z" fill="#FFF100"/>
<path d="M101.775 150.366L68.3652 184.963L74.3438 190.737L107.754 156.139L101.775 150.366Z" fill="#FFF500"/>
<path d="M101.398 149.896L67.3892 183.905L73.2661 189.782L107.275 155.773L101.398 149.896Z" fill="#FFF900"/>
<path d="M101.029 149.42L66.4315 182.83L72.205 188.809L106.802 155.399L101.029 149.42Z" fill="#FFFD00"/>
<path d="M100.668 148.937L65.4928 181.739L71.1611 187.817L106.336 155.016L100.668 148.937Z" fill="#FCFF00"/>
<path d="M100.315 148.448L64.5731 180.631L70.1344 186.807L105.877 154.625L100.315 148.448Z" fill="#F8FF00"/>
<path d="M99.9714 147.953L63.6731 179.507L69.1258 185.78L105.424 154.226L99.9714 147.953Z" fill="#F4FF00"/>
<path d="M99.6363 147.453L62.7928 178.368L68.1352 184.735L104.979 153.819L99.6363 147.453Z" fill="#F0FF00"/>
<path d="M99.3098 146.946L61.9324 177.214L67.1628 183.673L104.54 153.405L99.3098 146.946Z" fill="#ECFF00"/>
<path d="M98.9925 146.434L61.0925 176.045L66.2094 182.594L104.109 152.983L98.9925 146.434Z" fill="#E7FF00"/>
<path d="M98.6839 145.916L60.2729 174.861L65.2748 181.498L103.686 152.554L98.6839 145.916Z" fill="#E3FF00"/>
<path d="M98.3845 145.393L59.4742 173.663L64.3595 180.387L103.27 152.117L98.3845 145.393Z" fill="#DFFF00"/>
<path d="M98.0941 144.865L58.6964 172.451L63.4635 179.26L102.861 151.673L98.0941 144.865Z" fill="#DBFF00"/>
<path d="M97.8134 144.332L57.9402 171.227L62.5878 178.117L102.461 151.222L97.8134 144.332Z" fill="#D6FF00"/>
<path d="M97.5418 143.794L57.2053 169.989L61.732 176.959L102.068 150.764L97.5418 143.794Z" fill="#D2FF00"/>
<path d="M97.2797 143.251L56.4922 168.738L60.8965 175.786L101.684 150.299L97.2797 143.251Z" fill="#CEFF00"/>
<path d="M97.0269 142.704L55.8008 167.475L60.0814 174.599L101.307 149.828L97.0269 142.704Z" fill="#CAFF00"/>
<path d="M96.7839 142.153L55.1317 166.2L59.2873 173.398L100.939 149.35L96.7839 142.153Z" fill="#C5FF00"/>
<path d="M96.5504 141.597L54.4849 164.914L58.5142 172.183L100.58 148.866L96.5504 141.597Z" fill="#C1FF00"/>
<path d="M96.3265 141.037L53.8605 163.617L57.7624 170.955L100.228 148.376L96.3265 141.037Z" fill="#BDFF00"/>
<path d="M96.1125 140.474L53.2589 162.309L57.0321 169.714L99.8858 147.879L96.1125 140.474Z" fill="#B9FF00"/>
<path d="M95.9087 139.907L52.6805 160.991L56.324 168.461L99.5521 147.377L95.9087 139.907Z" fill="#B4FF00"/>
<path d="M95.7146 139.336L52.125 159.663L55.6375 167.195L99.227 146.869L95.7146 139.336Z" fill="#B0FF00"/>
<path d="M95.5304 138.762L51.5928 158.325L54.9733 165.918L98.9109 146.355L95.5304 138.762Z" fill="#ACFF00"/>
<path d="M95.3561 138.186L51.0837 156.978L54.3312 164.629L98.6036 145.836L95.3561 138.186Z" fill="#A8FF00"/>
<path d="M95.1922 137.606L50.5986 155.623L53.7121 163.329L98.3057 145.312L95.1922 137.606Z" fill="#A3FF00"/>
<path d="M95.0385 137.023L50.1372 154.259L53.1157 162.018L98.0169 144.782L95.0385 137.023Z" fill="#9FFF00"/>
<path d="M94.8947 136.438L49.6995 152.887L52.5421 160.697L97.7373 144.248L94.8947 136.438Z" fill="#9BFF00"/>
<path d="M94.7613 135.85L49.2859 151.508L51.9918 159.367L97.4672 143.708L94.7613 135.85Z" fill="#97FF00"/>
<path d="M94.6384 135.26L48.8966 150.122L51.4649 158.027L97.2067 143.165L94.6384 135.26Z" fill="#93FF00"/>
<path d="M94.5256 134.668L48.5314 148.73L50.9613 156.678L96.9555 142.616L94.5256 134.668Z" fill="#8EFF00"/>
<path d="M94.423 134.074L48.1904 147.331L50.4813 155.32L96.7139 142.063L94.423 134.074Z" fill="#8AFF00"/>
<path d="M94.3311 133.479L47.8741 145.927L50.0253 153.955L96.4822 141.507L94.3311 133.479Z" fill="#86FF00"/>
<path d="M94.2493 132.881L47.5822 144.517L49.5928 152.581L96.2599 140.946L94.2493 132.881Z" fill="#82FF00"/>
<path d="M94.178 132.283L47.3149 143.102L49.1846 151.2L96.0476 140.381L94.178 132.283Z" fill="#7DFF00"/>
<path d="M94.1173 131.683L47.0725 141.683L48.8005 149.813L95.8453 139.813L94.1173 131.683Z" fill="#79FF00"/>
<path d="M94.0668 131.083L46.8547 140.26L48.4406 148.419L95.6527 139.241L94.0668 131.083Z" fill="#75FF00"/>
<path d="M94.0271 130.482L46.662 138.833L48.1052 147.018L95.4703 138.667L94.0271 130.482Z" fill="#71FF00"/>
<path d="M93.9978 129.88L46.4941 137.403L47.7943 145.612L95.2979 138.089L93.9978 129.88Z" fill="#6CFF00"/>
<path d="M93.979 129.277L46.3513 135.971L47.508 144.201L95.1357 137.508L93.979 129.277Z" fill="#68FF00"/>
<path d="M93.9705 128.675L46.2333 134.536L47.2462 142.785L94.9834 136.924L93.9705 128.675Z" fill="#64FF00"/>
<path d="M93.9728 128.072L46.1405 133.099L47.0093 141.365L94.8415 136.338L93.9728 128.072Z" fill="#60FF00"/>
<path d="M93.9856 127.47L46.0729 131.661L46.7972 139.941L94.71 135.749L93.9856 127.47Z" fill="#5BFF00"/>
<path d="M94.0089 126.867L46.0303 130.222L46.61 138.513L94.5886 135.158L94.0089 126.867Z" fill="#57FF00"/>
<path d="M94.0425 126.266L46.0127 128.783L46.4477 137.083L94.4775 134.565L94.0425 126.266Z" fill="#53FF00"/>
<path d="M94.0868 125.665L46.0204 127.343L46.3104 135.649L94.3769 133.971L94.0868 125.665Z" fill="#4FFF00"/>
<path d="M94.1414 125.064L46.053 125.904L46.198 134.214L94.2865 133.374L94.1414 125.064Z" fill="#4AFF00"/>
<path d="M94.2067 124.465H46.111V132.777H94.2067V124.465Z" fill="#46FF00"/>
<path d="M94.2823 123.867L46.1938 123.028L46.0488 131.338L94.1372 132.177L94.2823 123.867Z" fill="#42FF00"/>
<path d="M94.3683 123.271L46.3019 121.592L46.0118 129.899L94.0783 131.577L94.3683 123.271Z" fill="#3EFF00"/>
<path d="M94.4649 122.676L46.4351 120.159L46.0001 128.459L94.0299 130.976L94.4649 122.676Z" fill="#3AFF00"/>
<path d="M94.5716 122.083L46.593 118.728L46.0133 127.019L93.9918 130.374L94.5716 122.083Z" fill="#35FF00"/>
<path d="M94.6887 121.492L46.776 117.3L46.0516 125.58L93.9644 129.771L94.6887 121.492Z" fill="#31FF00"/>
<path d="M94.8164 120.903L46.9841 115.875L46.1154 124.141L93.9476 129.168L94.8164 120.903Z" fill="#2DFF00"/>
<path d="M94.9539 120.316L47.2167 114.455L46.2038 122.704L93.941 128.565L94.9539 120.316Z" fill="#29FF00"/>
<path d="M95.1021 119.732L47.4744 113.038L46.3177 121.269L93.9454 127.962L95.1021 119.732Z" fill="#24FF00"/>
<path d="M95.26 119.15L47.7563 111.626L46.4562 119.835L93.9598 127.359L95.26 119.15Z" fill="#20FF00"/>
<path d="M95.4285 118.572L48.0635 110.22L46.6202 118.405L93.9853 126.757L95.4285 118.572Z" fill="#1CFF00"/>
<path d="M95.6066 117.996L48.3945 108.819L46.8087 116.977L94.0208 126.155L95.6066 117.996Z" fill="#18FF00"/>
<path d="M95.795 117.423L48.7502 107.424L47.0222 115.553L94.067 125.553L95.795 117.423Z" fill="#13FF00"/>
<path d="M95.9933 116.854L49.1302 106.035L47.2606 114.133L94.1237 124.953L95.9933 116.854Z" fill="#0FFF00"/>
<path d="M96.2015 116.289L49.5344 104.653L47.5238 112.718L94.1909 124.353L96.2015 116.289Z" fill="#0BFF00"/>
<path d="M96.4193 115.727L49.9624 103.279L47.8113 111.307L94.2682 123.755L96.4193 115.727Z" fill="#07FF00"/>
<path d="M96.6473 115.169L50.4147 101.912L48.1238 109.901L94.3564 123.158L96.6473 115.169Z" fill="#02FF00"/>
<path d="M96.8846 114.615L50.8904 100.553L48.4604 108.501L94.4546 122.563L96.8846 114.615Z" fill="#00FF02"/>
<path d="M97.1318 114.066L51.39 99.2031L48.8217 107.108L94.5635 121.97L97.1318 114.066Z" fill="#00FF06"/>
<path d="M97.3888 113.52L51.9133 97.8618L49.2075 105.72L94.6829 121.379L97.3888 113.52Z" fill="#00FF0A"/>
<path d="M97.6549 112.98L52.4597 96.5298L49.6171 104.34L94.8123 120.79L97.6549 112.98Z" fill="#00FF0F"/>
<path d="M97.9305 112.444L53.0293 95.2076L50.0508 102.967L94.9521 120.203L97.9305 112.444Z" fill="#00FF13"/>
<path d="M98.2153 111.913L53.6217 93.8956L50.5083 101.602L95.1019 119.619L98.2153 111.913Z" fill="#00FF17"/>
<path d="M98.5093 111.387L54.2369 92.594L50.9895 100.245L95.2618 119.037L98.5093 111.387Z" fill="#00FF1B"/>
<path d="M98.8124 110.866L54.8748 91.3035L51.4943 98.8962L95.4319 118.458L98.8124 110.866Z" fill="#00FF1F"/>
<path d="M99.1247 110.35L55.5352 90.0242L52.0227 97.5567L95.6122 117.883L99.1247 110.35Z" fill="#00FF24"/>
<path d="M99.4463 109.84L56.2181 88.7565L52.5747 96.2266L95.8029 117.31L99.4463 109.84Z" fill="#00FF28"/>
<path d="M99.7761 109.336L56.9225 87.5012L53.1493 94.9065L96.0029 116.742L99.7761 109.336Z" fill="#00FF2C"/>
<path d="M100.115 108.838L57.649 86.2582L53.7472 93.5966L96.2132 116.176L100.115 108.838Z" fill="#00FF30"/>
<path d="M100.462 108.345L58.3969 85.0281L54.3675 92.2973L96.433 115.615L100.462 108.345Z" fill="#00FF35"/>
<path d="M100.819 107.859L59.1665 83.8112L55.0109 91.009L96.663 115.057L100.819 107.859Z" fill="#00FF39"/>
<path d="M101.183 107.379L59.957 82.608L55.6764 89.7322L96.9025 114.503L101.183 107.379Z" fill="#00FF3D"/>
<path d="M101.556 106.906L60.7683 81.4188L56.364 88.4671L97.1515 113.954L101.556 106.906Z" fill="#00FF41"/>
<path d="M101.937 106.439L61.6002 80.2439L57.0736 87.2143L97.4101 113.409L101.937 106.439Z" fill="#00FF46"/>
<path d="M102.326 105.978L62.4525 79.0836L57.8049 85.974L97.6781 112.869L102.326 105.978Z" fill="#00FF4A"/>
<path d="M102.723 105.525L63.325 77.9385L58.5578 84.7467L97.9556 112.333L102.723 105.525Z" fill="#00FF4E"/>
<path d="M103.128 105.079L64.2174 76.8087L59.3322 83.5327L98.2425 111.803L103.128 105.079Z" fill="#00FF52"/>
<path d="M103.54 104.639L65.1293 75.6947L60.1274 82.3324L98.5384 111.277L103.54 104.639Z" fill="#00FF57"/>
<path d="M103.961 104.207L66.0607 74.5967L60.9438 81.1461L98.8437 110.757L103.961 104.207Z" fill="#00FF5B"/>
<path d="M104.388 103.783L67.0109 73.5152L61.7804 79.9743L99.1578 110.242L104.388 103.783Z" fill="#00FF5F"/>
<path d="M104.823 103.366L67.9799 72.4504L62.6375 78.8172L99.481 109.733L104.823 103.366Z" fill="#00FF63"/>
<path d="M105.266 102.957L68.9675 71.4028L63.5149 77.6754L99.8132 109.229L105.266 102.957Z" fill="#00FF68"/>
<path d="M105.715 102.555L69.9728 70.3725L64.4115 76.549L100.154 108.731L105.715 102.555Z" fill="#00FF6C"/>
<path d="M106.171 102.161L70.9962 69.3599L65.328 75.4384L100.503 108.24L106.171 102.161Z" fill="#00FF70"/>
<path d="M106.634 101.776L72.0372 68.3654L66.2638 74.344L100.861 107.754L106.634 101.776Z" fill="#00FF74"/>
<path d="M107.104 101.398L73.095 67.3891L67.218 73.266L101.227 107.275L107.104 101.398Z" fill="#00FF78"/>
<path d="M107.58 101.029L74.1703 66.4315L68.1917 72.2049L101.602 106.802L107.58 101.029Z" fill="#00FF7D"/>
<path d="M108.063 100.668L75.2617 65.4927L69.1833 71.161L101.984 106.336L108.063 100.668Z" fill="#00FF81"/>
<path d="M108.552 100.315L76.3693 64.5732L70.1928 70.1345L102.375 105.877L108.552 100.315Z" fill="#00FF85"/>
<path d="M109.047 99.9715L77.493 63.6731L71.2205 69.1258L102.774 105.424L109.047 99.9715Z" fill="#00FF89"/>
<path d="M109.547 99.6363L78.6321 62.7928L72.2653 68.1352L103.181 104.979L109.547 99.6363Z" fill="#00FF8E"/>
<path d="M110.054 99.3099L79.7865 61.9324L73.3274 67.1629L103.595 104.54L110.054 99.3099Z" fill="#00FF92"/>
<path d="M110.567 98.9924L80.9559 61.0924L74.4066 66.2094L104.017 104.109L110.567 98.9924Z" fill="#00FF96"/>
<path d="M111.084 98.6839L82.1394 60.2729L75.5017 65.2748L104.446 103.686L111.084 98.6839Z" fill="#00FF9A"/>
<path d="M111.607 98.3845L83.337 59.4742L76.6131 64.3595L104.883 103.27L111.607 98.3845Z" fill="#00FF9F"/>
<path d="M112.135 98.0943L84.5488 58.6965L77.7407 63.4637L105.327 102.861L112.135 98.0943Z" fill="#00FFA3"/>
<path d="M112.669 97.8133L85.7738 57.9401L78.8835 62.5877L105.778 102.461L112.669 97.8133Z" fill="#00FFA7"/>
<path d="M113.207 97.5417L87.0118 57.2052L80.0414 61.7318L106.236 102.068L113.207 97.5417Z" fill="#00FFAB"/>
<path d="M113.749 97.2795L88.2622 56.492L81.2139 60.8963L106.701 101.684L113.749 97.2795Z" fill="#00FFB0"/>
<path d="M114.296 97.0268L89.525 55.8007L82.4009 60.0813L107.172 101.307L114.296 97.0268Z" fill="#00FFB4"/>
<path d="M114.848 96.7837L90.7998 55.1315L83.6021 59.2872L107.65 100.939L114.848 96.7837Z" fill="#00FFB8"/>
<path d="M115.403 96.5503L92.0858 54.4848L84.8166 58.5142L108.134 100.58L115.403 96.5503Z" fill="#00FFBC"/>
<path d="M115.963 96.3266L93.3834 53.8606L86.045 57.7625L108.625 100.229L115.963 96.3266Z" fill="#00FFC1"/>
<path d="M116.526 96.1127L94.6914 53.259L87.286 57.0323L109.121 99.8859L116.526 96.1127Z" fill="#00FFC5"/>
<path d="M117.093 95.9087L96.0094 52.6805L88.5393 56.3239L109.623 99.5521L117.093 95.9087Z" fill="#00FFC9"/>
<path d="M117.664 95.7145L97.3379 52.1249L89.8053 55.6374L110.131 99.227L117.664 95.7145Z" fill="#00FFCD"/>
<path d="M118.238 95.5304L98.6754 51.5927L91.0827 54.9732L110.645 98.9109L118.238 95.5304Z" fill="#00FFD1"/>
<path d="M118.815 95.3563L100.022 51.084L92.3716 54.3314L111.164 98.6038L118.815 95.3563Z" fill="#00FFD6"/>
<path d="M119.395 95.1923L101.378 50.5987L93.6716 53.7121L111.689 98.3057L119.395 95.1923Z" fill="#00FFDA"/>
<path d="M119.977 95.0385L102.741 50.1372L94.982 53.1157L112.218 98.0169L119.977 95.0385Z" fill="#00FFDE"/>
<path d="M120.563 94.8948L104.113 49.6996L96.3029 52.5422L112.753 97.7375L120.563 94.8948Z" fill="#00FFE2"/>
<path d="M121.15 94.7615L105.492 49.286L97.6334 51.9919L113.292 97.4673L121.15 94.7615Z" fill="#00FFE7"/>
<path d="M121.74 94.6383L106.878 48.8965L98.9733 51.4648L113.836 97.2066L121.74 94.6383Z" fill="#00FFEB"/>
<path d="M122.332 94.5254L108.271 48.5312L100.322 50.9612L114.384 96.9554L122.332 94.5254Z" fill="#00FFEF"/>
<path d="M122.926 94.423L109.669 48.1904L101.68 50.4813L114.937 96.7139L122.926 94.423Z" fill="#00FFF3"/>
<path d="M123.522 94.3309L111.074 47.874L103.046 50.0251L115.494 96.482L123.522 94.3309Z" fill="#00FFF8"/>
<path d="M124.119 94.2493L112.483 47.5821L104.419 49.5928L116.054 96.2599L124.119 94.2493Z" fill="#00FFFC"/>
<path d="M124.717 94.178L113.898 47.3149L105.8 49.1845L116.619 96.0476L124.717 94.178Z" fill="#00FEFF"/>
<path d="M125.317 94.1172L115.317 47.0724L107.187 48.8004L117.187 95.8452L125.317 94.1172Z" fill="#00FAFF"/>
<path d="M125.917 94.0669L116.74 46.8548L108.582 48.4406L117.759 95.6528L125.917 94.0669Z" fill="#00F5FF"/>
<path d="M126.519 94.0271L118.167 46.662L109.982 48.1052L118.334 95.4703L126.519 94.0271Z" fill="#00F1FF"/>
<path d="M127.121 93.9977L119.597 46.4941L111.388 47.7942L118.912 95.2979L127.121 93.9977Z" fill="#00EDFF"/>
<path d="M127.723 93.9789L121.029 46.3512L112.799 47.5079L119.492 95.1356L127.723 93.9789Z" fill="#00E9FF"/>
<path d="M128.325 93.9706L122.464 46.2333L114.215 47.2462L120.076 94.9835L128.325 93.9706Z" fill="#00E4FF"/>
<path d="M128.928 93.9727L123.901 46.1404L115.635 47.0092L120.662 94.8415L128.928 93.9727Z" fill="#00E0FF"/>
<path d="M129.531 93.9855L125.339 46.0728L117.059 46.7972L121.251 94.7099L129.531 93.9855Z" fill="#00DCFF"/>
<path d="M130.133 94.0088L126.778 46.0302L118.487 46.6099L121.842 94.5886L130.133 94.0088Z" fill="#00D8FF"/>
<path d="M130.735 94.0426L128.218 46.0127L119.918 46.4477L122.435 94.4775L130.735 94.0426Z" fill="#00D4FF"/>
<path d="M131.336 94.0867L129.657 46.0202L121.351 46.3103L123.029 94.3768L131.336 94.0867Z" fill="#00CFFF"/>
<path d="M131.936 94.1415L131.096 46.053L122.786 46.1981L123.626 94.2865L131.936 94.1415Z" fill="#00CBFF"/>
<path d="M132.535 94.2067V46.111H124.224V94.2067H132.535Z" fill="#00C7FF"/>
<path d="M133.133 94.2823L133.972 46.1938L125.662 46.0488L124.823 94.1372L133.133 94.2823Z" fill="#00C3FF"/>
<path d="M133.729 94.3684L135.408 46.3019L127.101 46.0119L125.423 94.0783L133.729 94.3684Z" fill="#00BEFF"/>
<path d="M134.324 94.4649L136.841 46.435L128.541 46L126.024 94.0299L134.324 94.4649Z" fill="#00BAFF"/>
<path d="M134.917 94.5716L138.272 46.593L129.981 46.0133L126.626 93.9919L134.917 94.5716Z" fill="#00B6FF"/>
<path d="M135.508 94.6889L139.7 46.7761L131.421 46.0517L127.229 93.9645L135.508 94.6889Z" fill="#00B2FF"/>
<path d="M136.098 94.8163L141.125 46.984L132.859 46.1152L127.832 93.9475L136.098 94.8163Z" fill="#00ADFF"/>
<path d="M136.684 94.954L142.546 47.2167L134.296 46.2038L128.435 93.9411L136.684 94.954Z" fill="#00A9FF"/>
<path d="M137.268 95.102L143.962 47.4743L135.732 46.3176L129.038 93.9453L137.268 95.102Z" fill="#00A5FF"/>
<path d="M137.85 95.2601L145.374 47.7565L137.165 46.4563L129.641 93.9599L137.85 95.2601Z" fill="#00A1FF"/>
<path d="M138.429 95.4283L146.78 48.0632L138.595 46.62L130.244 93.9851L138.429 95.4283Z" fill="#009CFF"/>
<path d="M139.004 95.6066L148.182 48.3945L140.023 46.8086L130.846 94.0207L139.004 95.6066Z" fill="#0098FF"/>
<path d="M139.577 95.795L149.577 48.7502L141.447 47.0222L131.447 94.067L139.577 95.795Z" fill="#0094FF"/>
<path d="M140.146 95.9933L150.965 49.1302L142.867 47.2606L132.047 94.1237L140.146 95.9933Z" fill="#0090FF"/>
<path d="M140.711 96.2014L152.347 49.5343L144.282 47.5236L132.647 94.1908L140.711 96.2014Z" fill="#008BFF"/>
<path d="M141.273 96.4195L153.721 49.9625L145.693 47.8114L133.245 94.2683L141.273 96.4195Z" fill="#0087FF"/>
<path d="M141.831 96.6473L155.088 50.4147L147.099 48.1238L133.842 94.3564L141.831 96.6473Z" fill="#0083FF"/>
<path d="M142.385 96.8848L156.447 50.8906L148.499 48.4606L134.437 94.4548L142.385 96.8848Z" fill="#007FFF"/>
<path d="M142.935 97.132L157.797 51.3902L149.893 48.8218L135.03 94.5637L142.935 97.132Z" fill="#007BFF"/>
<path d="M143.48 97.3886L159.138 51.9132L151.28 49.2073L135.621 94.6828L143.48 97.3886Z" fill="#0076FF"/>
<path d="M144.02 97.6548L160.47 52.4595L152.66 49.6169L136.21 94.8122L144.02 97.6548Z" fill="#0072FF"/>
<path d="M144.557 97.9304L161.793 53.0291L154.033 50.0506L136.797 94.9519L144.557 97.9304Z" fill="#006EFF"/>
<path d="M145.088 98.2153L163.105 53.6216L155.399 50.5082L137.382 95.1018L145.088 98.2153Z" fill="#006AFF"/>
<path d="M145.614 98.5094L164.406 54.237L156.756 50.9895L137.963 95.2619L145.614 98.5094Z" fill="#0065FF"/>
<path d="M146.134 98.8126L165.697 54.8749L158.104 51.4944L138.542 95.4321L146.134 98.8126Z" fill="#0061FF"/>
<path d="M146.65 99.1249L166.976 55.5353L159.443 52.0229L139.117 95.6124L146.65 99.1249Z" fill="#005DFF"/>
<path d="M147.16 99.4461L168.244 56.2179L160.773 52.5745L139.69 95.8027L147.16 99.4461Z" fill="#0059FF"/>
<path d="M147.664 99.7762L169.499 56.9225L162.094 53.1493L140.259 96.003L147.664 99.7762Z" fill="#0054FF"/>
<path d="M148.163 100.115L170.742 57.649L163.404 53.7471L140.824 96.2131L148.163 100.115Z" fill="#0050FF"/>
<path d="M148.655 100.463L171.972 58.397L164.703 54.3677L141.386 96.4332L148.655 100.463Z" fill="#004CFF"/>
<path d="M149.141 100.818L173.189 59.1663L165.991 55.0107L141.943 96.6629L149.141 100.818Z" fill="#0048FF"/>
<path d="M149.621 101.183L174.392 59.9568L167.268 55.6762L142.497 96.9023L149.621 101.183Z" fill="#0043FF"/>
<path d="M150.095 101.556L175.582 60.7682L168.533 56.364L143.046 97.1515L150.095 101.556Z" fill="#003FFF"/>
<path d="M150.562 101.937L176.756 61.6003L169.786 57.0736L143.591 97.4101L150.562 101.937Z" fill="#003BFF"/>
<path d="M151.022 102.326L177.916 62.4526L171.026 57.805L144.131 97.6782L151.022 102.326Z" fill="#0037FF"/>
<path d="M151.475 102.723L179.062 63.3251L172.253 58.558L144.667 97.9557L151.475 102.723Z" fill="#0032FF"/>
<path d="M151.921 103.128L180.191 64.2174L173.467 59.3322L145.197 98.2425L151.921 103.128Z" fill="#002EFF"/>
<path d="M152.361 103.54L181.306 65.1294L174.668 60.1275L145.723 98.5385L152.361 103.54Z" fill="#002AFF"/>
<path d="M152.793 103.961L182.403 66.0606L175.854 60.9437L146.243 98.8437L152.793 103.961Z" fill="#0026FF"/>
<path d="M153.217 104.388L183.485 67.0109L177.026 61.7804L146.758 99.1579L153.217 104.388Z" fill="#0022FF"/>
<path d="M130.935 208.131H126.214C125.995 208.051 125.775 208.031 125.554 208.031C123.033 207.912 120.531 207.709 118.051 207.371C113.41 206.771 108.848 205.75 104.407 204.332C96.7852 201.893 89.6834 198.393 83.1015 193.831C76.9983 189.59 71.5989 184.591 66.8968 178.832C61.3533 172.071 57.0337 164.61 53.9715 156.412C51.2299 149.132 49.5899 141.593 49.0886 133.812C49.0886 133.392 49.009 132.972 48.8696 132.552V124.331C49.009 123.969 49.0687 123.591 49.0886 123.211C49.1881 121.351 49.3872 119.49 49.6301 117.652C50.8313 108.772 53.4703 100.35 57.5322 92.3694C60.3328 86.8685 63.7342 81.7507 67.7337 77.0278C71.6953 72.3487 76.1367 68.1669 81.0566 64.5079C89.0794 58.5468 97.9025 54.2471 107.544 51.6086C112.225 50.3301 117.008 49.49 121.847 49.0887C122.707 49.009 123.609 49.0887 124.468 48.8697H132.55C133.17 49.0489 133.811 48.9493 134.43 49.009C137.632 49.2877 140.813 49.6903 143.972 50.3094C153.915 52.2695 163.136 55.9906 171.661 61.4879C178.283 65.7478 184.125 70.8875 189.225 76.8674C193.328 81.6679 196.807 86.8885 199.648 92.5263C203.009 99.1878 205.409 106.166 206.772 113.506C207.491 117.385 208.033 121.306 208.051 125.266C208.051 125.529 208.111 125.807 208.13 126.065V130.786C208.051 131.085 208.051 131.405 208.031 131.725C208.031 132.484 208.031 133.247 207.971 134.006C207.609 138.847 206.851 143.626 205.65 148.346C203.349 157.207 199.646 165.427 194.505 173.006C190.683 178.646 186.223 183.727 181.101 188.226C176 192.706 170.417 196.487 164.354 199.545C157.371 203.064 150.029 205.506 142.327 206.844C139.367 207.363 136.385 207.703 133.385 207.883C132.595 207.974 131.757 207.955 130.935 208.131Z" fill="#383838"/>
<path style="mix-blend-mode:lighten" d="M107.788 95.4594C107.733 96.9226 107.993 98.5221 108.424 100.122C109.245 103.166 110.606 105.955 112.211 108.59C115.868 114.581 120.476 119.711 125.477 124.473C125.886 124.864 126.374 125.195 126.896 125.447C127.418 125.719 127.94 125.719 128.481 125.486C129.003 125.253 129.47 124.921 129.862 124.49C131.597 122.696 133.313 120.899 134.955 119.045C137.268 116.41 139.471 113.7 141.467 110.792C143.278 108.158 144.901 105.387 146.094 102.382C147.286 99.3955 147.866 96.3149 147.475 93.0759C146.822 87.7312 144.64 83.2027 140.739 79.6518C136.128 75.46 130.756 73.7817 124.711 74.7166C114.878 76.2403 107.751 85.2946 107.788 95.4594Z" fill="url(#radialGradient1)"/>
<path d="M158.673 168.31C157.435 168.347 156.045 168.194 154.656 167.899C150.546 167 147.055 165.131 144.373 161.818C142.741 159.797 141.37 157.608 140.187 155.305C138.797 152.592 137.636 149.765 136.623 146.904C135.386 143.442 134.335 139.905 133.526 136.33C133.077 134.328 133.582 133.073 135.797 132.383C138.611 131.504 141.445 130.718 144.335 130.08C149.119 129.032 153.941 128.359 158.86 128.525C160.249 128.581 161.636 128.73 163.007 128.973C166.986 129.667 170.363 131.501 173.121 134.4C177.832 139.341 179.706 145.235 178.544 151.955C176.875 161.556 168.355 168.385 158.673 168.31Z" fill="url(#radialGradient2)"/>
<path d="M96.704 168.31C97.9415 168.347 99.3311 168.194 100.72 167.899C104.83 167 108.321 165.131 111.004 161.818C112.635 159.797 114.007 157.608 115.189 155.305C116.579 152.592 117.741 149.765 118.753 146.904C119.991 143.442 121.042 139.905 121.851 136.33C122.3 134.328 121.795 133.073 119.58 132.383C116.766 131.504 113.931 130.718 111.042 130.08C106.257 129.032 101.435 128.359 96.5169 128.525C95.1273 128.581 93.7408 128.73 92.3692 128.973C88.3906 129.667 85.0137 131.501 82.2555 134.4C77.5443 139.341 75.6704 145.235 76.8322 151.955C78.5018 161.556 87.022 168.385 96.704 168.31Z" fill="url(#radialGradient3)"/>
<radialGradient id="radialGradient1" cx="0" cy="0" r="1" gradientUnits="userSpaceOnUse" gradientTransform="translate(128.074 123.002) rotate(4.82255) scale(21.1464 39.0893)">
<stop stop-color="white"/>
<stop offset="1" stop-color="#009BD8"/>
</radialGradient>
<radialGradient id="radialGradient2" cx="0" cy="0" r="1" gradientUnits="userSpaceOnUse" gradientTransform="translate(133.597 135.107) rotate(21.776) scale(46.6322 24.9192)">
<stop stop-color="white"/>
<stop offset="1" stop-color="#FF3044"/>
</radialGradient>
<radialGradient id="radialGradient3" cx="0" cy="0" r="1" gradientUnits="userSpaceOnUse" gradientTransform="translate(121.532 133.417) rotate(146.321) scale(47.1252 21.4209)">
<stop stop-color="white"/>
<stop offset="1" stop-color="#FCFF7C"/>
</radialGradient>
</svg>