<svg width="256" height="256" viewBox="0 0 256 256" fill="none" xmlns="http://www.w3.org/2000/svg">
<g clip-path="url(#clip0_1_2)">
<path d="M196 0H60C26.8629 0 0 26.8629 0 60V196C0 229.137 26.8629 256 60 256H196C229.137 256 256 229.137 256 196V60C256 26.8629 229.137 0 196 0Z" fill="#242938"/>
<g clip-path="url(#clip1_1_2)">
<path d="M111.917 222.317C74.8098 215.571 44.9917 186.915 36.8193 150.102C34.4559 139.637 34.2719 118.411 36.4534 108.466C40.4291 90.3562 48.7488 74.7703 61.1914 62.0789C74.3703 48.5711 88.6535 40.4812 107.943 35.5086C113.325 34.1281 116.263 33.9055 128.926 33.9055C141.59 33.9055 144.535 34.1296 149.91 35.5086C187.09 45.0086 213.448 71.95 221.473 108.466C222.894 114.982 223.174 118.337 223.137 128.876C223.104 139.786 222.837 142.606 221.186 149.731C214.707 177.637 196.522 201.016 171.415 213.782C164.936 217.077 153.009 220.981 145.279 222.317C137.106 223.75 120.099 223.72 112.074 222.267L111.917 222.317Z" fill="#FEFEFE"/>
<path d="M121.488 201.536C104.775 197.32 89.9029 181.794 75.3988 153.516C54.7102 113.141 52.0597 76.3289 69.0155 65.1961C74.8245 61.5742 83.2988 61.7078 90.8085 65.5249C94.9757 67.6475 96.161 68.9835 98.5391 74.2085C101.462 80.6432 102.603 88.0132 103.097 103.599L103.552 117.923L105.893 112.513C107.181 109.537 109.78 104.423 111.672 101.083C113.565 97.7803 115.118 94.1733 115.118 93.0675C115.118 91.969 114.293 89.0968 113.277 86.6698C111.393 82.1573 111.091 79.7081 111.893 75.6112C112.353 73.2956 112.358 73.2882 117.231 73.2882L122.105 73.2853L125.146 69.3221C128.577 64.8393 135.232 59.3768 140.975 56.408C144.303 54.6713 145.724 54.3893 151.135 54.3893C156.716 54.3893 157.821 54.626 161.001 56.4971C162.96 57.6549 164.403 58.7607 164.211 58.9537C164.02 59.1467 161.951 58.7414 159.602 58.0557C153.756 56.3412 147.896 56.9572 141.932 59.9111C127.796 66.9174 113.439 93.3096 119.035 101.919C119.793 103.092 121.641 104.138 124.306 104.917C128.636 106.187 130.727 105.853 127.112 104.466C119.528 101.564 121.096 94.6692 132.192 82.1263L138.516 74.979L138.097 70.8896C137.718 67.186 137.834 66.711 139.334 65.9021C141.396 64.7888 144.76 65.4174 147.212 67.379C149.538 69.2271 156.783 69.3978 162.894 67.7568C165.117 67.1541 169.005 66.6584 171.508 66.6509C175.793 66.6427 176.124 66.766 176.559 68.499C176.813 69.5158 176.833 70.8443 176.604 71.4455C176.375 72.0466 176.883 74.1173 177.731 76.0544C179.638 80.4037 180.352 90.6755 179.137 96.3162C178.667 98.5279 176.973 103.055 175.368 106.41C171.355 114.722 171.2 115.984 173.505 121.476C177.459 130.902 180.345 148.937 179.601 159.402C179.381 162.482 178.32 169.347 177.238 174.617C175.176 184.785 175.338 188.347 177.974 190.574C178.579 191.081 179.078 192.563 179.078 193.869C179.078 196.63 177.017 198.849 173.262 200.111C169.743 201.299 162.144 201.165 158.463 199.843C154.068 198.277 150.438 198.455 147.419 200.38C145.152 201.827 143.701 202.042 135.271 202.206C128.77 202.329 124.301 202.039 121.356 201.3L121.488 201.536ZM110.297 175.411C103.752 156.04 105.784 134.294 116.253 111.657L119.404 104.859L116.032 101.905L113.08 108.332C101.079 134.457 99.2386 157.465 107.838 174.609C110.113 179.152 112.174 182.699 112.557 182.699C112.659 182.699 111.644 179.441 110.304 175.463L110.297 175.411ZM166.62 110.47L168.166 106.573L167.831 109.816C167.64 111.664 167.772 112.785 168.137 112.414C168.739 111.807 172.532 102.246 172.532 101.281C172.532 101.05 171.531 101.713 170.301 102.751C168.026 104.68 163.94 106.172 160.877 106.18C159.331 106.183 159.228 106.424 159.655 108.97C160.495 113.995 160.715 114.351 162.939 114.351C164.794 114.351 165.236 113.884 166.598 110.455L166.62 110.47Z" fill="#FCFBFB"/>
<path d="M121.488 201.536C104.775 197.32 89.9029 181.794 75.3988 153.516C59.5694 122.567 54.1212 93.9187 60.6738 76.3289C65.3858 63.6375 77.9757 59.2586 90.8601 65.7898C95.0272 67.9125 96.2126 69.2484 98.5907 74.4734C101.514 80.9082 102.655 88.2781 103.148 103.864L103.603 118.188L105.944 112.778C107.233 109.802 109.832 104.688 111.724 101.348C113.616 98.0453 115.17 94.4383 115.17 93.3324C115.17 92.234 114.345 89.3617 113.329 86.9348C111.444 82.4223 111.142 79.973 111.945 75.8762C112.404 73.5605 112.409 73.5531 117.283 73.5531L122.157 73.5503L125.197 69.587C128.628 65.1042 135.284 59.6417 141.027 56.673C144.355 54.9362 145.775 54.6542 151.187 54.6542C156.768 54.6542 157.872 54.891 161.053 56.762C163.011 57.9198 164.454 59.0257 164.263 59.2187C164.071 59.4116 162.002 59.0064 159.654 58.3206C153.808 56.6062 147.947 57.2222 141.984 60.1761C127.848 67.1823 113.491 93.5745 119.086 102.184C119.845 103.357 121.693 104.403 124.358 105.182C128.687 106.451 130.778 106.117 127.163 104.731C119.58 101.829 121.148 94.9342 132.243 82.3912L138.568 75.244L138.149 71.1545C137.769 67.451 137.886 66.976 139.386 66.167C141.447 65.0537 144.812 65.6824 147.263 67.644C149.59 69.492 156.835 69.6627 162.946 68.0217C165.169 67.4191 169.056 66.9233 171.56 66.9159C175.845 66.9076 176.176 67.0309 176.61 68.7639C176.864 69.7807 176.885 71.1092 176.656 71.7104C176.427 72.3116 176.934 74.3823 177.782 76.3194C179.689 80.6686 180.404 90.9405 179.189 96.5811C178.719 98.7928 177.024 103.32 175.419 106.675C171.407 114.987 171.252 116.249 173.556 121.741C177.51 131.167 180.396 149.202 179.653 159.667C179.432 162.747 178.371 169.612 177.289 174.882C175.228 185.05 175.39 188.612 178.025 190.839C178.631 191.346 179.13 192.828 179.13 194.134C179.13 196.895 177.068 199.114 173.313 200.376C169.794 201.564 162.196 201.43 158.515 200.108C154.119 198.542 150.49 198.72 147.471 200.645C145.203 202.092 143.753 202.307 135.323 202.47C128.822 202.594 124.353 202.304 121.408 201.565L121.488 201.536ZM110.297 175.411C103.752 156.04 105.784 134.294 116.253 111.657L119.404 104.859L116.032 101.905L113.08 108.332C101.079 134.457 99.2386 157.465 107.838 174.609C110.113 179.152 112.174 182.699 112.557 182.699C112.659 182.699 111.644 179.441 110.304 175.463L110.297 175.411ZM166.62 110.47L168.166 106.573L167.831 109.816C167.64 111.664 167.772 112.785 168.137 112.414C168.739 111.807 172.532 102.246 172.532 101.281C172.532 101.05 171.531 101.713 170.301 102.751C168.026 104.68 163.94 106.172 160.877 106.18C159.331 106.183 159.228 106.424 159.655 108.97C160.495 113.995 160.715 114.351 162.939 114.351C164.794 114.351 165.236 113.884 166.598 110.455L166.62 110.47Z" fill="#FBFBFB"/>
<path d="M121.488 201.536C112.359 199.228 101.536 191.813 93.8051 182.536C80.8471 167.024 67.0056 139.341 61.2628 117.669C59.2013 109.802 58.8774 107.278 58.5681 96.368C58.2582 85.3094 58.3863 83.4539 59.7535 78.8523C61.6088 72.6848 63.663 69.5008 67.7786 66.3094C73.7349 61.7301 82.5772 61.4851 90.8232 65.6718C94.9904 67.7945 96.1758 69.1304 98.5539 74.3554C101.477 80.7902 102.618 88.1601 103.111 103.746L103.566 118.07L105.908 112.66C107.196 109.684 109.795 104.57 111.687 101.23C113.579 97.9273 115.133 94.3203 115.133 93.2144C115.133 92.116 114.308 89.2437 113.292 86.8167C111.407 82.3042 111.105 79.855 111.908 75.7582C112.367 73.4425 112.373 73.4351 117.246 73.4351L122.12 73.4323L125.16 69.469C128.591 64.9862 135.247 59.5237 140.99 56.5549C144.318 54.8182 145.739 54.5362 151.15 54.5362C156.731 54.5362 157.835 54.773 161.016 56.644C162.974 57.8018 164.417 58.9077 164.226 59.1006C164.034 59.2936 161.966 58.8884 159.617 58.2026C153.771 56.4881 147.911 57.1042 141.947 60.0581C127.811 67.0643 113.454 93.4565 119.05 102.066C119.808 103.239 121.656 104.285 124.321 105.064C128.65 106.333 130.741 105.999 127.126 104.613C119.543 101.711 121.111 94.8162 132.206 82.2732L138.531 75.126L138.112 71.0365C137.733 67.333 137.849 66.858 139.349 66.049C141.41 64.9357 144.775 65.5644 147.227 67.526C149.553 69.374 156.798 69.5447 162.909 67.9037C165.132 67.3011 169.02 66.8053 171.523 66.7979C175.808 66.7896 176.139 66.9129 176.574 68.6459C176.828 69.6627 176.848 70.9912 176.619 71.5924C176.39 72.1936 176.897 74.2643 177.746 76.2014C179.653 80.5506 180.367 90.8225 179.152 96.4631C178.682 98.6748 176.987 103.202 175.382 106.557C171.37 114.869 171.215 116.131 173.52 121.623C177.473 131.049 180.359 149.084 179.616 159.549C179.396 162.629 178.335 169.494 177.252 174.764C175.191 184.932 175.353 188.494 177.989 190.721C178.594 191.228 179.093 192.71 179.093 194.016C179.093 196.777 177.031 198.996 173.277 200.258C169.757 201.446 162.159 201.312 158.478 199.99C154.083 198.424 150.453 198.602 147.434 200.527C145.167 201.974 143.716 202.189 135.286 202.352C128.785 202.476 124.316 202.186 121.371 201.447L121.488 201.536ZM110.297 175.411C103.752 156.04 105.784 134.294 116.253 111.657L119.404 104.859L116.032 101.905L113.08 108.332C101.079 134.457 99.2386 157.465 107.838 174.609C110.113 179.152 112.174 182.699 112.557 182.699C112.659 182.699 111.644 179.441 110.304 175.463L110.297 175.411ZM166.62 110.47L168.166 106.573L167.831 109.816C167.64 111.664 167.772 112.785 168.137 112.414C168.739 111.807 172.532 102.246 172.532 101.281C172.532 101.05 171.531 101.713 170.301 102.751C168.026 104.68 163.94 106.172 160.877 106.18C159.331 106.183 159.228 106.424 159.655 108.97C160.495 113.995 160.715 114.351 162.939 114.351C164.794 114.351 165.236 113.884 166.598 110.455L166.62 110.47Z" fill="#A08470"/>
<path d="M121.488 201.536C104.996 196.979 89.9029 180.68 75.6933 152.18C63.6924 128.134 58.6123 108.985 59.4222 91.3953C60.0892 76.9969 64.1194 69.0555 72.6011 65.3445C77.3572 63.2812 84.1602 63.5559 89.7557 66.0362C96.2568 68.9011 98.5907 72.2112 101.315 82.2902C102.581 87.0179 102.898 90.9737 103.207 105.446L103.58 122.888L104.847 119.177C106.238 115.11 111.399 104.482 114.05 100.325C116.531 96.362 116.737 92.4581 114.695 88.005C113.605 85.6448 112.979 82.8987 112.979 80.4347C112.968 74.4675 113.162 74.2597 118.759 74.2077L123.647 74.1654L126.416 70.499C129.817 66.0014 136.208 60.8506 142.024 57.8818C145.742 55.9967 147.193 55.6775 151.964 55.7072C156.521 55.7346 158.163 56.0843 160.872 57.6072C162.698 58.6314 163.523 59.2623 162.713 59.0025C152.258 55.6775 143.055 58.149 134.146 66.7213C123.103 77.2603 115.593 95.2213 119.274 102.272C120.68 105.018 120.364 105.285 118.324 103.074L116.881 101.508L115.446 104.372C112.236 110.77 107.126 124.783 105.212 132.501C103.459 139.567 103.187 142.15 103.194 151.427C103.208 161.076 103.412 162.783 105.175 168.126C107.538 175.281 113.495 185.419 116.44 187.201C116.86 187.458 116.396 184.603 115.409 180.855C113.274 172.765 112.788 158.886 114.474 154.062L115.482 151.182L117.75 155.175C121.63 162.018 132.843 172.097 137.997 173.433C141.84 174.405 141.752 169.344 137.725 158.441C134.25 149.015 133.558 145.453 133.529 136.546C133.502 127.714 134.596 123.706 139.595 114.578C143.012 108.306 143.255 105.597 141.075 98.6205C140.273 96.0303 139.61 93.4846 139.603 92.965C139.598 92.4418 141.333 93.3235 143.461 94.9244C148.894 99.0213 156.051 102.495 160.1 102.94C163.104 103.299 163.87 103.092 165.887 101.381C168.397 99.2514 171.239 92.6978 171.239 89.0611C171.239 87.8514 171.556 86.8643 171.943 86.8643C172.9 86.8643 173.665 91.3768 173.327 94.9541L173.046 97.9154L175.086 95.9412C176.212 94.8576 177.795 92.2748 178.62 90.2115L180.107 86.4561L179.863 92.7869C179.643 98.5166 179.291 99.8228 176.167 106.592C174.054 111.149 172.714 115.053 172.714 116.685C172.714 118.162 173.708 121.873 174.923 124.924C180.099 137.986 181.475 158.099 178.236 173.24C175.784 184.67 175.814 188.455 178.355 191.498C179.96 193.42 180.196 194.192 179.644 195.743C178.62 198.645 175.69 200.397 170.293 201.324C165.868 202.089 164.889 202.012 160.354 200.538C153.956 198.46 152.476 198.489 148.279 200.76C145.069 202.481 144.127 202.608 135.027 202.548C129.284 202.509 123.762 202.067 121.627 201.48L121.488 201.536ZM165.369 114.7C166.003 114.189 166.907 113.104 167.386 112.288C168.203 110.878 168.225 110.885 167.796 112.473C167.119 114.967 168.694 114.507 170.078 111.796C171.779 108.478 174.142 101.331 173.693 100.886C173.486 100.676 172.405 101.378 171.301 102.444C168.827 104.819 165.977 105.962 162.539 105.962H159.918L160.269 109.651C160.776 114.965 162.699 116.85 165.394 114.683L165.369 114.7ZM164.132 81.2273C156.696 77.702 154.929 72.7664 160.082 70.243C163.447 68.5879 172.451 67.0441 175.028 67.6973C176.795 68.1448 177.038 68.5582 177.038 71.1855C177.038 76.2918 172.473 83.0605 169.013 82.9863C168.359 82.9826 166.164 82.1922 164.139 81.2273H164.132ZM139.026 76.8707C139.894 75.5199 139.946 74.6145 139.274 72.1059C137.735 66.3539 141.276 65.0773 148.55 68.766L152.681 70.8664L148.793 72.0984C146.658 72.7775 143.551 74.5031 141.895 75.9355C138.405 78.9488 137.521 79.2383 139.045 76.8707H139.026Z" fill="#45352F"/>
</g>
</g>
<defs>
<clipPath id="clip0_1_2">
<rect width="256" height="256" fill="white"/>
</clipPath>
<clipPath id="clip1_1_2">
<rect width="190" height="190" fill="white" transform="translate(33 33)"/>
</clipPath>
</defs>
</svg>
