<svg width="256" height="256" title="dbt" viewBox="0 0 256 256" fill="none" xmlns="http://www.w3.org/2000/svg" id="dbt">
<style>
#dbt {
    rect {fill: #15191C}

    @media (prefers-color-scheme: light) {
        rect {fill: #F4F2ED}
    }
}
</style>
<rect width="256" height="256" rx="40" fill="#15191C"/>
<path d="M194.838 62.0307C198.247 65.3083 200.476 69.6347 201 74.3544C201 76.3209 200.476 77.6321 199.296 80.123C198.116 82.6139 183.563 107.786 179.237 114.734C176.746 118.798 175.435 123.649 175.435 128.369C175.435 133.22 176.746 137.94 179.237 142.004C183.563 148.952 198.116 174.255 199.296 176.746C200.476 179.237 201 180.417 201 182.383C200.476 187.103 198.378 191.43 194.969 194.576C191.692 197.985 187.365 200.213 182.777 200.607C180.81 200.607 179.499 200.082 177.139 198.902C174.779 197.722 149.083 183.563 142.135 179.237C141.61 178.975 141.086 178.581 140.43 178.319L106.081 157.998C106.868 164.553 109.752 170.846 114.472 175.435C115.39 176.353 116.307 177.139 117.356 177.926C116.57 178.319 115.652 178.713 114.865 179.237C107.917 183.563 82.6139 198.116 80.123 199.296C77.6321 200.476 76.4521 201 74.3544 201C69.6347 200.476 65.3083 198.378 62.1618 194.969C58.7532 191.692 56.5244 187.365 56 182.646C56.1311 180.679 56.6555 178.713 57.7043 177.008C58.8843 174.517 73.4367 149.214 77.7631 142.266C80.254 138.202 81.5651 133.482 81.5651 128.631C81.5651 123.78 80.254 119.061 77.7631 114.996C73.4367 107.786 58.7532 82.4828 57.7043 79.9919C56.6555 78.2875 56.1311 76.3209 56 74.3544C56.5244 69.6347 58.6221 65.3083 62.0307 62.0307C65.3083 58.6221 69.6347 56.5244 74.3544 56C76.3209 56.1311 78.2875 56.6555 80.123 57.7043C82.2207 58.6221 100.706 69.3725 110.539 75.1411L112.768 76.4521C113.554 76.9765 114.21 77.3698 114.734 77.6321L115.783 78.2875L150.787 99.0018C150.001 91.1356 145.937 83.9249 139.644 79.0742C140.43 78.6809 141.348 78.2875 142.135 77.7631C149.083 73.4367 174.386 58.7532 176.877 57.7043C178.581 56.6555 180.548 56.1311 182.646 56C187.234 56.5244 191.561 58.6221 194.838 62.0307ZM130.335 137.808L137.808 130.335C138.857 129.287 138.857 127.713 137.808 126.665L130.335 119.192C129.287 118.143 127.713 118.143 126.665 119.192L119.192 126.665C118.143 127.713 118.143 129.287 119.192 130.335L126.665 137.808C127.582 138.726 129.287 138.726 130.335 137.808Z" fill="#FF694A"/>
</svg>