<svg width="256" height="256" title="Debian" viewBox="0 0 256 256" fill="none" xmlns="http://www.w3.org/2000/svg">
<rect width="256" height="256" rx="40" fill="#A81D33"/>
<path d="M141.659 132.784C138.859 132.784 142.219 134.184 145.865 134.744C146.845 134.044 147.755 133.204 148.595 132.434C146.321 132.934 143.972 133.052 141.659 132.784ZM156.644 129.074C158.254 126.765 159.444 124.245 159.933 121.655C159.514 123.545 158.534 125.155 157.624 126.765C152.374 130.054 157.134 124.875 157.624 122.845C152.024 129.914 156.854 127.045 156.644 129.074ZM162.11 114.726C162.46 109.68 161.13 111.22 160.71 113.179C161.2 113.459 161.62 116.686 162.11 114.726ZM131.16 46.1697C132.56 46.4497 134.31 46.6597 134.1 47.0096C135.71 46.6597 136.059 46.3097 131.09 46.1697M134.1 47.0096L133.05 47.2196L134.03 47.1496V47.0096M180.455 116.609C180.595 121.088 179.055 123.258 177.795 127.108L175.346 128.374C173.386 132.154 175.556 130.824 174.156 133.834C171.076 136.563 164.777 142.373 162.817 142.94C161.41 142.94 163.797 141.19 164.147 140.56C160.01 143.36 160.78 144.759 154.551 146.509L154.341 146.089C138.796 153.368 117.225 138.95 117.575 119.199C117.365 120.388 117.085 120.109 116.735 120.598C116.31 115.575 117.423 110.542 119.924 106.166C122.425 101.789 126.197 98.277 130.74 96.0945C134.932 93.9843 139.66 93.1766 144.315 93.7752C148.969 94.3739 153.339 96.3516 156.861 99.4541C154.622 96.5502 151.731 94.2137 148.423 92.6332C145.115 91.0526 141.482 90.2723 137.816 90.3552C129.557 90.4252 121.851 95.6745 119.262 101.344C115.062 104.004 114.572 111.633 112.752 112.969C110.226 131.174 117.372 139.02 129.41 148.259C131.3 149.589 129.97 149.729 130.25 150.709C126.16 148.768 122.515 146.004 119.542 142.59C121.151 144.899 122.831 147.209 125.141 148.959C121.291 147.699 116.252 139.86 114.782 139.51C121.291 151.129 141.239 159.955 151.605 155.608C146.093 155.998 140.558 155.333 135.297 153.648C132.987 152.528 129.907 150.079 130.397 149.659C137.17 152.508 144.59 153.467 151.864 152.431C159.139 151.396 165.997 148.406 171.706 143.78C174.786 141.33 178.215 137.2 179.195 137.13C177.795 139.37 179.475 138.25 178.355 140.21C181.435 135.171 176.955 138.11 181.575 131.531L183.255 133.841C182.625 129.641 188.434 124.595 187.874 118.009C189.204 115.909 189.274 120.108 187.874 124.798C189.904 119.619 188.434 118.849 188.924 114.579C189.484 115.979 190.184 117.519 190.534 118.989C189.274 114.089 191.934 110.59 192.493 107.79C191.864 107.44 190.534 109.89 190.254 104.08C190.254 101.491 190.954 102.681 191.234 102.121C190.674 101.771 189.414 99.881 188.574 96.0945C189.134 95.1846 190.114 98.4042 190.954 98.4742C190.394 95.5346 189.554 93.2249 189.554 90.9151C187.174 86.1557 188.714 91.6151 186.754 88.8154C184.374 81.1794 188.854 87.0656 189.134 83.6361C192.913 89.0254 195.013 97.3543 196 100.854C195.3 96.6544 194.04 92.455 192.57 88.5354C193.69 89.0254 190.751 79.8495 194.04 85.9458C189.683 72.8289 180.527 61.8453 168.409 55.1986C169.669 56.3885 171.349 57.9283 170.719 58.1382C165.47 54.9886 166.38 54.7787 165.61 53.4488C161.34 51.699 161.06 53.5888 158.191 53.4488C150.072 49.1094 148.532 49.5993 141.099 46.7997L141.449 48.4094C136.059 46.6597 135.15 49.1094 129.34 48.4094C128.99 48.1295 131.23 47.4296 133.05 47.1496C127.863 47.8495 128.143 46.1697 123.034 47.3596C124.224 46.4497 125.554 45.8898 126.884 45.1199C122.684 45.3998 116.805 47.5696 118.625 45.6098C111.703 48.7594 99.433 53.0989 92.5739 59.5381L92.3709 57.9983C89.2213 61.7778 78.6526 69.2738 77.8127 74.1732L76.8959 74.3832C75.2861 77.1829 74.2362 80.3325 72.9064 83.2091C70.8066 86.8487 69.7567 84.6089 70.1067 85.1689C65.9072 93.7078 63.8075 100.924 61.9877 106.88C63.2476 108.77 61.9877 118.429 62.4777 126.198C60.3779 164.434 89.3543 201.62 121.011 210.229C125.701 211.839 132.56 211.839 138.439 211.979C131.51 210.019 130.6 210.929 123.881 208.549C118.982 206.31 117.932 203.65 114.502 200.64L115.902 203.09C109.106 200.71 111.912 200.151 106.376 198.401L107.846 196.511C105.676 196.301 102.037 192.801 101.057 190.842L98.6771 190.912C95.8075 187.405 94.2677 184.815 94.4077 182.786L93.6308 184.185C92.7209 182.716 82.9921 170.88 88.0315 173.61C87.1216 172.77 85.8617 172.21 84.5319 169.76L85.5118 168.57C83.0621 165.491 81.0323 161.431 81.1723 160.171C82.5721 161.851 83.412 162.271 84.3219 162.481C78.1627 147.279 77.8127 161.641 73.1163 147.069L74.1662 146.929C73.4663 145.809 72.9064 144.549 72.3464 143.36L72.7664 139.16C68.3569 133.981 71.5065 117.449 72.1365 108.35C72.6264 104.57 75.846 100.651 78.2957 94.4847L76.8259 94.2047C79.6255 89.2354 93.2108 74.1032 99.51 74.8801C102.52 71.0306 98.8801 74.8801 98.2502 73.9003C104.969 66.9641 107.069 69.0009 111.556 67.741C116.455 64.9344 107.356 68.8609 109.666 66.6842C118.065 64.5844 115.615 61.7848 126.611 60.7349C127.731 61.4348 123.881 61.7148 122.971 62.5547C129.97 59.1251 145.025 59.965 154.901 64.4444C166.31 69.8338 179.125 85.5188 179.615 100.364L180.175 100.504C179.895 106.453 181.085 113.249 178.985 119.479L180.385 116.539M111.283 136.64L110.933 138.6C112.752 141.05 114.222 143.71 116.532 145.669C114.852 142.38 113.592 141.05 111.283 136.57M115.622 136.43C114.642 135.381 114.082 134.051 113.452 132.791C114.012 135.031 115.272 136.99 116.462 138.95L115.622 136.43ZM192.227 119.759L191.738 120.808C191.038 126.128 189.358 131.384 186.908 136.29C189.708 131.181 191.458 125.505 192.157 119.759M131.65 44.8399C133.54 44.14 136.269 44.4899 138.299 44C135.71 44.21 133.12 44.35 130.6 44.6999L131.65 44.8399ZM65.5503 79.9895C66.0402 83.979 62.5406 85.5888 66.3202 82.9291C68.4199 78.3097 65.5503 81.6693 65.6203 79.9895M61.1408 98.6142C61.9807 95.8845 62.1907 94.2747 62.5406 92.7349C60.091 95.8145 61.3508 96.4445 61.1408 98.5442" fill="white"/>
</svg>