<svg width="256" height="256" title="Deepin" viewBox="0 0 256 256" fill="none" xmlns="http://www.w3.org/2000/svg" id="deepin">
<style>
#deepin {
    rect {fill: #15191C}

    @media (prefers-color-scheme: light) {
        rect {fill: #F4F2ED}
    }
}
</style>
<rect width="256" height="256" rx="40" fill="#15191C"/>
<path fill-rule="evenodd" clip-rule="evenodd" d="M151.861 49.3385C106.811 36.5508 59.6206 61.6226 46.4393 105.346C33.2643 149.066 59.0988 194.874 104.149 207.661C149.189 220.449 196.391 195.38 209.561 151.659C222.735 107.929 196.9 62.1262 151.861 49.3385Z" fill="#EFF4F8"/>
<path fill-rule="evenodd" clip-rule="evenodd" d="M151.318 51.1378C107.292 38.6427 61.1733 63.1419 48.2938 105.873C35.4178 148.599 60.6656 193.366 104.691 205.863C148.708 218.36 194.837 193.86 207.708 151.134C220.583 108.398 195.335 63.6357 151.319 51.1392L151.318 51.1378Z" fill="white"/>
<path fill-rule="evenodd" clip-rule="evenodd" d="M153.107 61.3806C142.558 57.6456 131.75 56.6369 121.263 57.5837C109.103 58.515 103.168 62.1698 103.519 61.5086C83.635 68.3984 66.8243 83.2182 59.0381 104.003C45.1735 141.017 64.8104 181.951 102.89 195.427C140.984 208.904 183.095 189.818 196.96 152.804C210.828 115.79 191.192 74.8619 153.107 61.3806ZM105.396 188.734C101.338 187.294 97.5461 185.462 93.9752 183.37C111.72 184.693 134.875 180.724 150.491 166.54C150.491 166.54 180.258 143.455 158.723 105.571C158.723 105.571 162.195 120.839 157.769 133.399C157.769 133.399 153.548 150.478 134.786 155.441C107.152 162.749 75.6647 143.975 62.5025 134.88C61.5117 125.531 62.3925 115.871 65.9224 106.446C71.1546 92.4812 80.9914 81.5849 93.0106 74.2668C90.0067 94.6694 92.3816 113.454 95.7959 121.322C100.378 131.873 108.343 144.178 123.88 145.756C139.416 147.338 147.984 133.226 147.984 133.226C155.955 121.469 157.203 104.589 157.082 104.181C156.961 103.769 154.958 102.655 154.958 102.655C149.594 123.724 140.748 130.763 140.748 130.763C126.8 143.832 116.921 134.768 116.921 134.768C106.303 123.699 113.738 105.708 113.738 105.708C117.897 93.4533 130.015 75.5181 143.747 66.3986C146.034 66.948 148.336 67.2891 150.596 68.0882C158.906 71.0298 166.185 75.4625 172.341 80.9082C162.3 84.4653 146.086 91.9867 146.086 91.9867C120.387 102.492 118.652 118.38 118.652 118.38C115.993 134.758 129.38 127.827 129.38 127.827C143.161 121.312 149.93 101.011 149.93 101.011C145.63 100.216 142.242 101.484 142.242 101.484C136.742 114.66 125.521 120.08 125.521 120.08C121.106 122.35 120.078 118.339 120.078 118.339C119.334 115.337 123.271 114.822 123.271 114.822C129.385 112.517 133.297 106.283 134.183 103.733C135.065 101.179 136.706 100.98 136.706 100.98C145.085 98.3848 152.724 97.8045 152.724 97.8045C163.127 96.5623 179.052 101.378 179.052 101.378C182.623 102.772 186.048 103.815 189.089 104.649C194.925 118.803 195.848 134.92 190.064 150.371C177.595 183.681 139.684 200.862 105.396 188.734Z" fill="#00B7FF"/>
</svg>