<svg width="256" height="256" title="DeepSeek" viewBox="0 0 256 256" fill="none" xmlns="http://www.w3.org/2000/svg">
<rect width="256" height="256" rx="40" fill="#4D6BFE"/>
<path d="M206.317 78.9006C204.623 78.0721 203.89 79.6557 202.903 80.4642C202.563 80.7247 202.277 81.0655 201.99 81.3729C199.51 84.0255 196.617 85.7627 192.837 85.5556C187.31 85.2483 182.59 86.9855 178.417 91.2217C177.53 85.9966 174.584 82.8829 170.104 80.8784C167.757 79.8361 165.384 78.8004 163.737 76.5353C162.591 74.925 162.277 73.1277 161.704 71.3637C161.337 70.2946 160.971 69.2055 159.751 69.0251C158.417 68.818 157.897 69.9338 157.378 70.8692C155.291 74.6912 154.484 78.9006 154.564 83.1636C154.744 92.7585 158.784 100.402 166.817 105.835C167.731 106.456 167.964 107.084 167.677 107.993C167.131 109.864 166.477 111.681 165.904 113.559C165.537 114.755 164.991 115.009 163.711 114.494C159.386 112.631 155.457 109.955 152.138 106.61C146.424 101.077 141.264 94.9701 134.825 90.186C133.332 89.081 131.8 88.0312 130.231 87.0389C123.665 80.6446 131.098 75.3928 132.818 74.7714C134.618 74.1165 133.438 71.8849 127.625 71.9116C121.812 71.9383 116.492 73.8827 109.712 76.4819C108.704 76.8688 107.668 77.1749 106.612 77.3973C100.276 76.2008 93.7964 75.971 87.3922 76.7157C74.8258 78.1189 64.7927 84.079 57.4128 94.2418C48.5463 106.456 46.4597 120.341 49.013 134.813C51.6996 150.074 59.4728 162.709 71.4125 172.585C83.799 182.828 98.0587 187.846 114.332 186.883C124.211 186.316 135.218 184.986 147.624 174.456C150.758 176.019 154.038 176.64 159.491 177.108C163.691 177.502 167.731 176.908 170.857 176.253C175.757 175.211 175.417 170.66 173.651 169.832C159.284 163.123 162.437 165.856 159.564 163.645C166.871 154.985 177.87 145.992 182.177 116.853C182.51 114.534 182.224 113.078 182.177 111.207C182.15 110.071 182.41 109.623 183.71 109.496C187.317 109.121 190.816 108.043 194.01 106.322C203.317 101.224 207.077 92.8587 207.963 82.8228C208.097 81.286 207.937 79.7091 206.317 78.9006ZM125.205 169.224C111.278 158.252 104.525 154.638 101.739 154.791C99.1253 154.952 99.5986 157.938 100.172 159.889C100.772 161.814 101.552 163.137 102.645 164.827C103.405 165.943 103.925 167.607 101.892 168.856C97.4054 171.636 89.6122 167.921 89.2455 167.74C80.1724 162.382 72.5792 155.312 67.2393 145.644C62.0794 136.336 59.0794 126.354 58.5861 115.697C58.4528 113.118 59.2061 112.209 61.7661 111.741C65.1267 111.097 68.5701 111.009 71.9592 111.481C86.1722 113.565 98.2653 119.933 108.412 130.016C114.198 135.762 118.578 142.624 123.092 149.332C127.891 156.455 133.051 163.244 139.625 168.803C141.944 170.754 143.791 172.237 145.564 173.326C140.218 173.928 131.298 174.061 125.205 169.224ZM131.871 126.194C131.87 125.862 131.95 125.535 132.103 125.24C132.256 124.946 132.479 124.694 132.751 124.505C133.023 124.316 133.337 124.197 133.666 124.157C133.995 124.117 134.329 124.158 134.638 124.276C135.032 124.418 135.373 124.679 135.612 125.024C135.851 125.369 135.976 125.78 135.971 126.2C135.972 126.472 135.919 126.74 135.815 126.991C135.712 127.242 135.559 127.469 135.367 127.66C135.174 127.851 134.946 128.002 134.695 128.103C134.444 128.205 134.175 128.255 133.905 128.252C133.636 128.253 133.37 128.2 133.122 128.096C132.874 127.993 132.649 127.841 132.46 127.649C132.271 127.458 132.123 127.23 132.023 126.98C131.923 126.73 131.867 126.463 131.871 126.194ZM152.604 136.858C151.271 137.399 149.944 137.867 148.671 137.927C146.755 137.994 144.876 137.394 143.351 136.23C141.524 134.693 140.218 133.838 139.671 131.165C139.483 129.859 139.519 128.53 139.778 127.236C140.245 125.051 139.725 123.648 138.185 122.378C136.938 121.336 135.345 121.049 133.598 121.049C133 121.014 132.419 120.835 131.905 120.528C131.69 120.43 131.497 120.288 131.341 120.111C131.184 119.934 131.066 119.726 130.994 119.501C130.922 119.275 130.899 119.037 130.925 118.802C130.951 118.567 131.026 118.34 131.145 118.136C131.331 117.775 132.211 116.893 132.425 116.732C134.798 115.383 137.538 115.824 140.065 116.839C142.411 117.801 144.184 119.565 146.738 122.064C149.344 125.078 149.818 125.913 151.304 128.171C152.478 129.942 153.544 131.76 154.271 133.838C154.718 135.14 154.144 136.203 152.604 136.858Z" fill="white"/>
</svg>