<svg width="256" height="256" title="Dependabot" viewBox="0 0 256 256" fill="none" xmlns="http://www.w3.org/2000/svg" id="dependabot">
<style>
#dependabot {
    rect {fill: #15191C}

    @media (prefers-color-scheme: light) {
        rect {fill: #F4F2ED}
    }
}
</style>
<rect width="256" height="256" rx="40" fill="#15191C"/>
<path d="M52.3464 86.6784L120.789 41.3263C123.076 39.8091 125.758 39 128.5 39C131.242 39 133.924 39.8091 136.211 41.3263L204.654 86.6784C206.609 87.9821 208.213 89.7506 209.32 91.826C210.427 93.9015 211.004 96.2194 211 98.5727V157.376C211.013 159.738 210.44 162.067 209.332 164.152C208.224 166.237 206.617 168.013 204.654 169.322L136.211 214.674C133.924 216.191 131.242 217 128.5 217C125.758 217 123.076 216.191 120.789 214.674L52.3464 169.322C50.3905 168.018 48.7874 166.249 47.68 164.174C46.5727 162.099 45.9956 159.781 46.0002 157.427V98.6235C45.9871 96.2616 46.5602 93.9335 47.668 91.8484C48.7757 89.7634 50.3833 87.9868 52.3464 86.6784Z" fill="#0366D6"/>
<path d="M134.002 100.187V94.6249H124.832C124.59 94.624 124.351 94.5755 124.128 94.4821C123.905 94.3887 123.703 94.2522 123.532 94.0804C123.362 93.9086 123.227 93.7049 123.136 93.4809C123.044 93.2569 122.997 93.017 122.998 92.7749V79.7936C122.996 79.304 123.188 78.8338 123.532 78.4859C123.876 78.1379 124.343 77.9407 124.832 77.9373H137.664C137.906 77.9381 138.146 77.9868 138.369 78.0807C138.592 78.1745 138.795 78.3115 138.966 78.484C139.136 78.6565 139.271 78.8609 139.362 79.0856C139.453 79.3104 139.5 79.5509 139.498 79.7936V100.187H167.002C168.467 100.196 169.869 100.786 170.899 101.829C171.93 102.872 172.505 104.282 172.498 105.75V128H176.166C176.408 128.001 176.648 128.05 176.871 128.143C177.095 128.237 177.297 128.374 177.468 128.547C177.638 128.719 177.773 128.924 177.864 129.148C177.955 129.373 178.002 129.614 178 129.856V148.4C178.001 148.642 177.954 148.882 177.862 149.106C177.771 149.33 177.636 149.534 177.465 149.706C177.295 149.877 177.093 150.014 176.87 150.107C176.647 150.201 176.408 150.249 176.166 150.25H172.498V161.375C172.502 162.102 172.363 162.823 172.089 163.497C171.815 164.17 171.412 164.783 170.901 165.3C170.391 165.817 169.784 166.228 169.115 166.51C168.446 166.793 167.728 166.94 167.002 166.944H89.998C89.2721 166.94 88.5542 166.793 87.8851 166.51C87.2161 166.228 86.6091 165.817 86.0987 165.3C85.5884 164.783 85.1848 164.17 84.9108 163.497C84.6369 162.823 84.4981 162.102 84.5022 161.375V150.25H80.8342C80.5925 150.249 80.3533 150.201 80.1304 150.107C79.9074 150.014 79.705 149.877 79.5347 149.706C79.3644 149.534 79.2295 149.33 79.1378 149.106C79.0461 148.882 78.9993 148.642 79.0001 148.4V129.856C78.9985 129.614 79.0446 129.373 79.136 129.148C79.2273 128.924 79.362 128.719 79.5324 128.547C79.7028 128.374 79.9055 128.237 80.1289 128.143C80.3523 128.05 80.592 128.001 80.8342 128H84.5022V105.75C84.4955 104.282 85.0705 102.872 86.101 101.829C87.1315 100.786 88.5331 100.196 89.998 100.187H134.002Z" fill="white"/>
<path d="M143.426 144.026C143.632 144.239 143.879 144.409 144.151 144.524C144.424 144.64 144.717 144.7 145.013 144.7C145.309 144.7 145.602 144.64 145.874 144.524C146.147 144.409 146.393 144.239 146.599 144.026L158.13 132.367C158.547 131.944 158.781 131.373 158.781 130.778C158.781 130.183 158.547 129.612 158.13 129.189L155.763 126.798C155.559 126.59 155.315 126.424 155.046 126.311C154.776 126.198 154.487 126.139 154.196 126.139C153.904 126.139 153.615 126.198 153.345 126.311C153.076 126.424 152.832 126.59 152.628 126.798L145.013 134.484L141.998 131.433C141.792 131.22 141.546 131.05 141.273 130.935C141.001 130.819 140.708 130.76 140.412 130.76C140.116 130.76 139.823 130.819 139.55 130.935C139.278 131.05 139.031 131.22 138.825 131.433L136.464 133.823C136.044 134.245 135.808 134.817 135.808 135.412C135.808 136.008 136.044 136.58 136.464 137.002L143.426 144.026Z" fill="#0366D6"/>
<path d="M106.764 144.026C106.969 144.235 107.213 144.401 107.482 144.514C107.751 144.627 108.04 144.686 108.332 144.686C108.624 144.686 108.913 144.627 109.182 144.514C109.451 144.401 109.695 144.235 109.899 144.026L121.43 132.367C121.847 131.944 122.081 131.373 122.081 130.778C122.081 130.183 121.847 129.612 121.43 129.189L119.063 126.798C118.859 126.59 118.615 126.424 118.346 126.311C118.077 126.198 117.788 126.139 117.496 126.139C117.204 126.139 116.915 126.198 116.646 126.311C116.377 126.424 116.133 126.59 115.928 126.798L108.313 134.484L105.299 131.433C105.093 131.225 104.849 131.059 104.579 130.947C104.309 130.834 104.02 130.776 103.728 130.776C103.436 130.776 103.146 130.834 102.877 130.947C102.607 131.059 102.363 131.225 102.157 131.433L99.7964 133.823C99.3794 134.247 99.1456 134.818 99.1456 135.412C99.1456 136.007 99.3794 136.578 99.7964 137.002L106.764 144.026Z" fill="#0366D6"/>
</svg>