<svg width="256" height="256" title="DigitalOcean" viewBox="0 0 256 256" fill="none" xmlns="http://www.w3.org/2000/svg">
<rect width="256" height="256" rx="40" fill="#0080FF"/>
<path d="M128.288 43.0004C81.2894 42.8587 43 81.0559 43 127.984H75.868C75.868 93.0962 110.465 66.1101 147.188 79.4047C153.934 81.8661 160.059 85.7725 165.136 90.8503C170.212 95.9281 174.117 102.054 176.577 108.8C189.964 145.488 162.942 180.057 128.104 180.121V147.451H95.3422V180.213H128.012V213.081C183.713 213.081 226.992 159.307 208.779 100.899C200.877 75.4574 180.538 55.2178 155.097 47.217C146.421 44.4743 137.381 43.0529 128.281 43.0004H128.288ZM95.3422 180.213H70.0924V205.47H95.3352L95.3422 180.213ZM70.0853 180.213V159.109H48.9882V180.213H70.0853Z" fill="white"/>
</svg>