<svg width="256" height="256" title="Directus" viewBox="0 0 256 256" fill="none" xmlns="http://www.w3.org/2000/svg">
<rect width="256" height="256" rx="40" fill="#6644FF"/>
<path d="M178.908 141.105C178.215 140.947 177.537 140.728 176.882 140.453C176.345 140.219 175.857 139.884 175.444 139.469C175.841 136.012 175.444 133.009 175.777 129.609C177.08 116.419 185.375 120.599 192.82 118.438C197.459 117.135 202.099 114.457 203.267 108.975C198.257 103.106 192.556 97.8645 186.289 93.3632C166.101 78.9982 139.723 73.2466 115.753 77.2345C119.419 83.6307 124.949 88.756 131.605 91.9253C131.605 91.9253 125.11 91.9253 119.542 87.7674C117.913 88.4191 114.641 89.7082 113.075 90.4874C119.297 96.4678 127.455 100.021 136.071 100.501C144.687 100.982 153.19 98.3593 160.038 93.1082C159.967 93.2287 158.727 95.127 157.226 103.025C153.897 119.883 144.292 118.573 132.406 114.33C107.72 105.377 94.1346 113.671 81.7954 96.6924C78.2042 98.7182 75.9871 102.501 75.9871 106.623C75.9871 110.866 78.3317 114.457 81.7246 116.419C83.5804 113.954 84.4163 113.26 87.6463 113.26C82.6454 116.094 82.0504 118.573 79.8971 125.429C77.2904 133.724 78.3954 142.217 66.1838 144.434C59.7167 144.76 59.8512 149.137 57.4996 155.668C54.56 164.161 50.6429 167.554 43 175.587C46.1379 179.376 49.4033 179.837 52.7325 178.462C59.5892 175.587 64.8804 166.704 69.8388 160.959C75.3921 154.556 88.7158 157.297 98.7742 151.029C105.695 146.786 109.095 141.041 104.519 131.309C107.462 134.55 109.213 138.697 109.484 143.067C121.108 141.558 136.656 155.732 150.823 158.084C149.416 156.311 148.253 154.357 147.366 152.275C145.737 148.351 145.213 144.767 145.538 141.629C146.842 149.399 154.676 159.387 167.284 160.308C170.486 160.563 174.013 160.173 177.668 159.061C182.046 157.758 186.098 156.058 190.928 156.972C194.52 157.63 197.849 159.451 199.938 162.525C203.076 167.094 209.926 168.078 213 162.461C206.08 144.37 187.004 143.194 178.908 141.105Z" fill="white"/>
</svg>