<svg width="256" height="256" title="Disqus" viewBox="0 0 256 256" fill="none" xmlns="http://www.w3.org/2000/svg" id="disqus">
<style>
#disqus {
    rect {fill: #15191C}

    @media (prefers-color-scheme: light) {
        rect {fill: #F4F2ED}
    }
}
</style>
<rect width="256" height="256" rx="40" fill="#15191C"/>
<circle cx="128" cy="128" r="50" fill="white"/>
<path d="M130.918 206C111.904 206 94.5197 199.07 81.0786 187.606L48 192.113L60.7793 160.653C56.3269 150.853 53.8291 139.975 53.8291 128.5C53.8291 85.7005 88.343 51 130.918 51C173.49 51 208 85.7005 208 128.5C208 171.308 173.491 206 130.918 206ZM173.01 128.278V128.063C173.01 105.699 157.198 89.7523 129.936 89.7523H100.492V167.252H129.5C156.974 167.253 173.01 150.641 173.01 128.278ZM130.261 148.211H121.648V108.799H130.261C142.91 108.799 151.306 115.992 151.306 128.398V128.614C151.306 141.124 142.91 148.211 130.261 148.211Z" fill="#2E9FFF"/>
</svg>