<svg width="256" height="256" title="Django REST Framework" viewBox="0 0 256 256" fill="none" xmlns="http://www.w3.org/2000/svg" id="djangorestframework">
<style>
#djangorestframework {
    rect {fill: #15191C}
    path.text {fill: #F4F2ED}

    @media (prefers-color-scheme: light) {
        rect {fill: #F4F2ED}
        path.text {fill: #15191C}
    }
}
</style>
<rect width="256" height="256" rx="40" fill="#15191C"/>
<path d="M128.547 92.7937V99.552H97.8773L97.8321 99.508L97.7881 99.552H37.7582C37.7292 99.552 37.7014 99.5635 37.6808 99.584C37.6603 99.6045 37.6488 99.6323 37.6488 99.6613V129.512H28V130.168H37.6488V159.643C37.6488 159.672 37.6603 159.7 37.6808 159.721C37.7014 159.741 37.7292 159.753 37.7582 159.753H67.4227V173.201H68.0788V159.753H97.504V159.863H97.6778L97.8308 160.016L97.9892 159.863H98.1601V159.753H128.546V164.55H129.202V159.753H159.717V159.863H159.888L160.046 160.016L160.199 159.863H160.373V159.753H189.781V166.296H190.437V159.753H220.12C220.149 159.753 220.177 159.741 220.198 159.721C220.218 159.7 220.23 159.672 220.23 159.643V130.168H228V129.512H220.23V99.6613C220.23 99.6323 220.218 99.6045 220.198 99.584C220.177 99.5635 220.149 99.552 220.12 99.552H190.437V99.5315H189.781V99.552H160.091L160.047 99.508L160.002 99.552H129.203V92.7937H128.547ZM38.0207 99.7707H67.4222V129.234L38.0207 99.7707ZM68.0789 99.7707H97.5041V99.8343L68.0789 129.214V99.7707ZM98.1608 99.7707H128.547V129.229L98.1608 99.8258V99.7707ZM129.203 99.7707H159.718V99.8267L129.203 129.354V99.7707ZM160.373 99.7707H189.781V129.196L160.373 99.8337V99.7707ZM190.436 99.7707H219.857L190.436 129.253V99.7707ZM37.8663 99.9258L67.3892 129.512H37.8663V99.9258ZM220.008 99.9258V129.512H190.485L220.008 99.9258ZM98.1576 100.131L128.52 129.512H98.1576V100.131ZM159.714 100.131V129.512H129.351L159.714 100.131ZM97.501 100.144V129.51H68.0884L97.501 100.144ZM160.37 100.144L189.778 129.506V129.511H160.37V100.144ZM37.8648 130.167H67.1214L37.8648 159.38V130.167ZM68.3514 130.167H97.501V159.378L68.3514 130.167ZM98.1576 130.167H128.359L98.1576 159.392V130.167ZM129.514 130.167H159.715V159.392L129.514 130.167ZM160.372 130.167H189.521L160.372 159.378V130.167ZM190.435 130.167H190.441L219.852 159.534H190.433L190.435 130.167ZM190.751 130.167H220.008V159.38L190.751 130.167ZM129.2 130.169L159.547 159.534H129.2V130.169ZM67.4206 130.179V159.533H38.0207L67.4206 130.179ZM68.0767 130.2L97.3492 159.533H68.0767V130.2ZM189.779 130.218V159.533H160.526L189.779 130.218ZM128.544 130.294V159.533H98.3271L128.544 130.294Z" fill="#CECECE"/>
<path d="M128.876 108.342C128.308 108.342 127.739 108.558 127.306 108.991C126.472 109.826 126.444 111.162 127.219 112.032L73.948 142.313L74.0048 142.408C77.4017 148.145 81.55 153.406 86.6899 158.036L86.7719 158.11L127.39 112.205C128.26 112.993 129.606 112.97 130.446 112.13C131.311 111.265 131.311 109.858 130.446 108.992C130.013 108.559 129.444 108.342 128.876 108.342ZM128.876 108.559C129.387 108.559 129.899 108.755 130.29 109.146C131.072 109.928 131.072 111.193 130.29 111.975C129.508 112.757 128.243 112.757 127.461 111.975C126.679 111.192 126.679 109.928 127.461 109.146C127.852 108.755 128.364 108.559 128.876 108.559ZM205 109.231V109.449H207.441V158.128H205V158.347H210.101V158.128H207.66V109.449H210.101V109.231H205ZM57.4868 110.038L57.3774 110.043H57.3727C57.3357 110.045 57.2986 110.047 57.2617 110.049L57.1587 110.055V116.534L57.2796 116.521C57.312 116.518 57.3449 116.516 57.3774 116.515C57.94 116.515 58.394 116.969 58.394 117.532C58.394 118.094 57.9404 118.548 57.3779 118.548C57.3449 118.548 57.3116 118.547 57.2787 118.543L57.1587 118.531V125.012L57.2634 125.017C57.3003 125.018 57.3374 125.019 57.3744 125.02H57.3775C61.5121 125.02 64.8663 121.666 64.8663 117.532C64.8664 113.435 61.5699 110.114 57.4869 110.054L57.4868 110.038ZM57.3792 110.262C61.3948 110.263 64.6475 113.516 64.6475 117.532C64.6476 121.548 61.3944 124.801 57.3784 124.802L57.3775 118.767C58.0585 118.767 58.6128 118.213 58.6128 117.532C58.6128 116.851 58.0584 116.296 57.3775 116.296V110.262L57.3792 110.262ZM151.836 110.563V110.569C149.66 110.627 147.91 112.408 147.91 114.598C147.91 116.788 149.66 118.569 151.836 118.627V140.038C151.833 140.038 151.83 140.038 151.826 140.038C149.599 140.038 147.792 141.846 147.792 144.073C147.792 146.3 149.599 148.108 151.826 148.108C154.054 148.108 155.862 146.3 155.862 144.073C155.862 141.923 154.175 140.169 152.055 140.049V118.627C154.231 118.569 155.98 116.788 155.98 114.598C155.98 112.408 154.231 110.627 152.055 110.569V110.563L151.836 110.563ZM151.836 110.788V118.409C149.778 118.35 148.129 116.67 148.129 114.598C148.129 112.526 149.778 110.846 151.836 110.788ZM152.055 110.788C154.112 110.846 155.761 112.526 155.761 114.598C155.761 116.67 154.112 118.35 152.055 118.409V110.788ZM126.832 112.503L86.7569 157.795C81.7018 153.225 77.6106 148.041 74.2527 142.389L126.832 112.503ZM77.8782 113.847V118.948H78.0969V116.507H88.4351V118.948H88.6538V113.847H88.4351V116.288H78.0969V113.847H77.8782ZM117.081 133.855V134.074H119.522V149.931H117.081V150.149H122.182V149.931H119.741V134.074H122.182V133.855H117.081ZM151.826 140.256C151.829 140.256 151.832 140.256 151.836 140.256V147.888C151.832 147.888 151.829 147.889 151.826 147.889C149.717 147.889 148.01 146.181 148.01 144.072C148.01 141.963 149.717 140.256 151.826 140.256ZM152.054 140.267C154.056 140.386 155.643 142.04 155.643 144.072C155.643 146.104 154.056 147.759 152.054 147.877V140.267ZM172.909 140.953V146.054H173.128V143.613H192.062V146.054H192.281V140.953H192.062V143.394H173.128V140.953H172.909Z" fill="#6C6C6C"/>
<path d="M154.877 98.2945C154.721 98.2931 154.565 98.2938 154.41 98.2962C152.024 98.3339 146.911 98.3245 142.332 100.397C137.753 102.469 133.727 106.765 133.727 114.96C133.727 118.424 134.884 121.418 136.698 123.984H100.146V107.431H124.142V99.0046H90.4968V107.431H90.4993V123.984H90.4968V132.41H90.4993V152.026L84.8618 151.992L77.0604 152.028L64.8478 133.055C67.7104 131.875 70.5118 130.176 72.668 127.797C75.0132 125.21 76.5836 121.828 76.5836 117.645V116.442C76.5836 110.319 74.2489 105.928 70.4417 103.128C66.6344 100.328 61.4264 99.0903 55.6376 98.9584H37.0549V107.48H37.1024V127.493H37.055V135.447H37.1024V160.414H46.749V135.422L56.4505 135.395L69.7693 157.063L69.7881 157.088C70.916 158.581 73.2603 161.898 77.0488 164.286L77.3695 164.488L85.0258 160.451L91.1574 160.414H124.14V151.657H100.145V132.409H147.592C147.609 132.418 147.622 132.424 147.641 132.432C150.581 133.776 154.148 134.992 156.926 136.745C159.703 138.497 161.645 140.664 161.645 144.107C161.645 147.813 159.973 149.754 157.615 150.932C155.258 152.11 152.177 152.401 149.641 152.401H149.636C144.775 152.431 139.056 150.366 134.173 148.735L133.31 148.447V157.712L133.694 157.887C138.487 160.072 145.586 160.925 149.654 160.77C152.573 160.769 157.902 160.197 162.607 157.842C167.318 155.485 171.402 151.213 171.402 144.107C171.402 138.608 169.332 134.665 166.436 131.843C163.54 129.021 159.849 127.29 156.554 126.006L156.551 126.005C155.302 125.523 152.931 124.577 150.574 123.294C148.221 122.012 145.894 120.375 144.731 118.657C144.007 117.483 143.561 116.174 143.483 114.938C143.49 111.191 145.236 109.17 147.498 107.978C149.764 106.784 152.587 106.53 154.43 106.663C158.139 106.931 164.529 109.024 166.573 109.896L167.224 110.174L168.17 107.395H193.751V160.414H203.398V107.395H220.738V99.0423H203.398V99.0051H193.751V99.0423H160.417C158.566 98.5953 156.705 98.3099 154.876 98.2935L154.877 98.2945ZM154.865 99.6067C156.597 99.6223 158.394 99.8942 160.203 100.337L160.28 100.355H195.066V100.318H202.089V100.355H219.429V106.084H202.089V159.102H195.066V106.084H167.233L166.431 108.441C163.852 107.418 158.313 105.629 154.528 105.356C152.479 105.208 149.476 105.455 146.889 106.818C144.302 108.182 142.172 110.772 142.172 114.96V114.98L142.173 115C142.264 116.502 142.792 118.014 143.625 119.363L143.632 119.374L143.639 119.385C145.029 121.443 147.506 123.117 149.949 124.447C152.392 125.777 154.814 126.741 156.081 127.23C159.311 128.489 162.835 130.165 165.522 132.784C168.21 135.402 170.092 138.933 170.092 144.108C170.092 150.722 166.45 154.454 162.022 156.67C157.594 158.886 152.382 159.46 149.643 159.46H149.63L149.618 159.46C145.906 159.603 139.098 158.764 134.625 156.847V150.271C139.3 151.848 144.713 153.745 149.647 153.714C152.278 153.714 155.525 153.445 158.204 152.107C160.885 150.767 162.96 148.233 162.96 144.108C162.96 140.156 160.599 137.51 157.628 135.636C154.657 133.761 151.032 132.54 148.189 131.24C148.14 131.217 148.082 131.19 148.016 131.159L147.885 131.098H98.8345V152.969H122.83V159.102H91.1542L84.6978 159.141L77.4439 162.966C74.1102 160.767 71.9831 157.817 70.8543 156.321L57.1835 134.081L45.4378 134.114V159.103H38.4154V134.136H38.368V128.805H38.4154V106.168H38.368V100.27H55.609C61.2274 100.398 66.1721 101.616 69.6655 104.185C73.1589 106.754 75.2726 110.646 75.2726 116.441V117.645C75.2726 121.504 73.859 124.53 71.697 126.916C69.5349 129.301 66.6079 131.027 63.6346 132.152L62.879 132.438C67.3874 139.394 71.8609 146.373 76.3474 153.343L84.8622 153.304L91.8127 153.345V131.098H91.8102V125.296H91.8127V106.118H91.8102V100.316H122.832V106.118H98.8354V125.296H139.349L138.468 124.223C136.344 121.636 135.041 118.589 135.041 114.96C135.041 107.182 138.634 103.511 142.874 101.592C147.114 99.6729 152.02 99.6464 154.432 99.6083C154.577 99.606 154.721 99.6054 154.865 99.6067ZM45.437 106.168V128.806H53.3999C56.7482 128.806 60.2684 128.315 63.0265 126.653C65.7846 124.992 67.7093 122.086 67.7093 117.646V116.442C67.7093 111.947 65.1838 109.271 62.4555 107.858C59.7271 106.444 56.8213 106.169 55.6229 106.169L45.437 106.168ZM46.7492 107.48H55.6228C56.5997 107.48 59.4089 107.756 61.8519 109.022C64.2949 110.288 66.3971 112.421 66.3971 116.442V117.645C66.3971 121.721 64.7769 124.067 62.3494 125.529C59.9218 126.99 56.6157 127.493 53.3998 127.493H46.7491L46.7492 107.48Z" fill="#B83131"/>
<path d="M46.227 72C46.169 72 46.1133 72.0231 46.0723 72.0641C46.0313 72.1051 46.0083 72.1607 46.0083 72.2187V76.5406C46.0083 76.7728 46.0228 77.066 46.0506 77.4239C46.0624 77.575 46.0743 77.6591 46.086 77.7836C45.9138 77.5877 45.7578 77.3797 45.544 77.215C45.1981 76.9421 44.7891 76.7273 44.321 76.5696C43.8449 76.4092 43.2973 76.3317 42.6792 76.3317C41.2098 76.3317 39.9987 76.8354 39.1036 77.8318C38.201 78.8298 37.7649 80.2907 37.7649 82.1814C37.7649 84.0521 38.1904 85.4972 39.0724 86.4824C39.9551 87.4603 41.1668 87.9526 42.6484 87.9526C43.28 87.9526 43.8341 87.8753 44.3109 87.7147L44.3127 87.7143C44.7874 87.55 45.1998 87.3287 45.5458 87.0488C45.7868 86.8576 45.9618 86.6285 46.1456 86.4051L46.3425 87.5737C46.3511 87.6247 46.3775 87.671 46.4169 87.7044C46.4564 87.7378 46.5065 87.7561 46.5582 87.7561H47.9443C48.0023 87.7561 48.0579 87.7331 48.0989 87.6921C48.1399 87.6511 48.163 87.5954 48.163 87.5374V72.2187C48.163 72.1607 48.1399 72.1051 48.0989 72.0641C48.0579 72.0231 48.0023 72 47.9443 72L46.227 72ZM52.7068 72.4925C52.3668 72.4925 52.0575 72.6007 51.8175 72.8133C51.5661 73.0355 51.454 73.3784 51.454 73.7842C51.454 74.1842 51.5669 74.5253 51.8145 74.7525L51.817 74.7551C52.0571 74.9678 52.3667 75.0763 52.7068 75.0763C53.0343 75.0763 53.336 74.9663 53.5739 74.7563C53.8356 74.5314 53.96 74.1864 53.96 73.7841C53.96 73.3767 53.8363 73.0303 53.5717 72.8107C53.3341 72.6018 53.0335 72.4925 52.7068 72.4925ZM86.9887 76.1105C86.0553 76.1105 85.2484 76.2586 84.5718 76.5632C83.8966 76.8673 83.368 77.3185 83.0068 77.9075C82.6444 78.4917 82.4673 79.1951 82.4673 80.0013C82.4673 80.7664 82.6616 81.4535 83.0516 82.0418L83.0533 82.0443C83.3727 82.5115 83.7957 82.8451 84.2728 83.0968C83.9344 83.3234 83.6434 83.5583 83.4442 83.8148C83.1879 84.1474 83.0567 84.5468 83.0567 84.9827C83.0567 85.368 83.1785 85.7249 83.4138 86.0236L83.416 86.0261C83.5404 86.1789 83.6813 86.3097 83.8333 86.4234C83.2294 86.6109 82.6976 86.8753 82.3101 87.2832L82.3088 87.2845C81.8256 87.8011 81.5775 88.4422 81.5775 89.1666C81.5775 90.1795 82.0294 91.0061 82.8859 91.5642C83.7442 92.1293 84.9362 92.3976 86.4508 92.3976C88.4056 92.3976 89.9204 92.0794 90.9935 91.41C92.0662 90.7409 92.6269 89.7344 92.6269 88.4776C92.6269 87.4818 92.2623 86.6788 91.5471 86.1467C90.8393 85.6152 89.8443 85.3646 88.5813 85.3646H86.5848C86.2381 85.3646 85.9462 85.3388 85.7113 85.2907C85.4838 85.2377 85.3254 85.1582 85.2247 85.0681C85.1393 84.9861 85.097 84.8904 85.097 84.7269C85.097 84.49 85.1643 84.2966 85.3068 84.1169C85.4529 83.9408 85.6828 83.7709 85.9748 83.6116C86.2828 83.6559 86.5872 83.6854 86.8851 83.6854C88.2571 83.6854 89.3648 83.36 90.1783 82.6902C90.9903 82.0148 91.4064 81.0803 91.4064 79.9521C91.4064 79.4896 91.3336 79.0615 91.1851 78.6728C91.0869 78.4157 90.9451 78.2152 90.8109 78.0048L92.5785 77.7963C92.6317 77.79 92.6807 77.7645 92.7162 77.7245C92.7518 77.6845 92.7715 77.6329 92.7716 77.5793V76.5261C92.7716 76.4681 92.7485 76.4125 92.7075 76.3714C92.6665 76.3304 92.6109 76.3074 92.5529 76.3074H88.6842C88.5436 76.2693 88.3893 76.2368 88.2126 76.2117C88.0188 76.1777 87.8152 76.1543 87.6027 76.1408C87.3983 76.1209 87.1934 76.1105 86.9887 76.1105ZM61.921 76.1498C61.1724 76.1498 60.4568 76.2407 59.7755 76.4231C59.1023 76.6033 58.503 76.8211 57.9777 77.0779C57.9274 77.1026 57.8885 77.1455 57.869 77.198C57.8494 77.2504 57.8507 77.3084 57.8726 77.3599L58.3997 78.6003C58.4111 78.6273 58.4279 78.6517 58.4489 78.6721C58.47 78.6924 58.4949 78.7084 58.5222 78.7189C58.5496 78.7295 58.5787 78.7345 58.608 78.7335C58.6373 78.7326 58.6661 78.7258 58.6927 78.7135C59.1659 78.4948 59.6666 78.3046 60.1954 78.1433C60.7118 77.9857 61.2551 77.9066 61.828 77.9066C62.5578 77.9066 63.0905 78.0821 63.4619 78.4124C63.8151 78.7265 64.0193 79.309 64.0193 80.2081V80.6575L62.2744 80.7279C60.4198 80.7813 59.0196 81.095 58.0692 81.7074C57.1208 82.3185 56.6242 83.2353 56.6242 84.3724C56.6242 85.1187 56.7832 85.7549 57.1145 86.2638L57.1158 86.266C57.4489 86.7661 57.9072 87.144 58.4733 87.389C59.0423 87.6319 59.6873 87.7512 60.4011 87.7512C61.0708 87.7512 61.6416 87.6851 62.1173 87.5457L62.1191 87.5453C62.5964 87.4007 63.0211 87.1887 63.3881 86.9093L63.3903 86.9075C63.6682 86.6906 63.9271 86.4037 64.1848 86.1126L64.4484 87.3804C64.4586 87.4296 64.4854 87.4738 64.5244 87.5056C64.5634 87.5373 64.6121 87.5546 64.6624 87.5547H65.9139C65.9719 87.5547 66.0275 87.5316 66.0685 87.4906C66.1096 87.4496 66.1326 87.394 66.1326 87.336V80.0015C66.1326 78.6971 65.7908 77.7014 65.0763 77.0713C64.3652 76.4444 63.3036 76.1498 61.921 76.1498ZM75.1082 76.3317C74.5785 76.3317 74.0712 76.4039 73.5884 76.5479C73.1053 76.6853 72.6653 76.8923 72.2728 77.1689C71.9873 77.3656 71.7493 77.6107 71.5355 77.8772L71.342 76.7119C71.3335 76.6608 71.3072 76.6144 71.2677 76.5809C71.2282 76.5475 71.1781 76.5291 71.1263 76.5291H69.7402C69.6822 76.5291 69.6266 76.5521 69.5856 76.5931C69.5446 76.6342 69.5215 76.6898 69.5215 76.7478V87.5375C69.5215 87.5955 69.5446 87.6512 69.5856 87.6922C69.6266 87.7332 69.6822 87.7562 69.7402 87.7562H71.4574C71.5154 87.7562 71.571 87.7332 71.612 87.6922C71.653 87.6512 71.6761 87.5955 71.6761 87.5375V81.8864C71.6761 80.6289 71.9271 79.6975 72.3971 79.0749C72.8555 78.4676 73.6546 78.1475 74.8703 78.1475C75.7233 78.1475 76.3127 78.3578 76.6878 78.7494L76.6891 78.7507C77.0724 79.1444 77.279 79.7526 77.279 80.6165V87.5376C77.279 87.5956 77.3021 87.6512 77.3431 87.6922C77.3841 87.7333 77.4397 87.7563 77.4977 87.7563H79.1939C79.2519 87.7563 79.3076 87.7333 79.3486 87.6922C79.3896 87.6512 79.4126 87.5956 79.4126 87.5376V80.5085C79.4126 79.0879 79.0559 78.012 78.3072 77.3343C77.5654 76.6568 76.4866 76.3317 75.1082 76.3317ZM99.5633 76.3522C98.4511 76.3522 97.477 76.5789 96.6535 77.0395C95.8371 77.4935 95.2037 78.1635 94.7655 79.0318C94.326 79.8961 94.1111 80.9356 94.1111 82.1426C94.1111 83.049 94.2379 83.8655 94.496 84.5889L94.4964 84.5907C94.7604 85.3106 95.1313 85.9256 95.6087 86.4283C96.0915 86.929 96.6647 87.316 97.319 87.5829L97.3215 87.5842C97.9836 87.8445 98.7086 87.9733 99.491 87.9733C100.327 87.9733 101.082 87.8449 101.753 87.5842C102.428 87.3175 103.009 86.9309 103.487 86.4283C103.965 85.9249 104.329 85.3086 104.58 84.5874C104.83 83.8645 104.953 83.0486 104.953 82.1428C104.953 80.9411 104.731 79.9034 104.277 79.0387C103.832 78.1722 103.196 77.5001 102.381 77.0401C101.572 76.5798 100.629 76.3522 99.5633 76.3522ZM51.8279 76.5291C51.7699 76.5291 51.7143 76.5521 51.6733 76.5931C51.6323 76.6341 51.6092 76.6897 51.6092 76.7477V89.2799C51.6092 89.904 51.4686 90.2849 51.2508 90.4725C51.0055 90.6837 50.6857 90.7937 50.2556 90.7937C49.9901 90.7937 49.7546 90.7747 49.5495 90.7381C49.5474 90.7377 49.5452 90.7373 49.5431 90.7369C49.3332 90.7056 49.1265 90.6592 48.9233 90.5968C48.8906 90.5867 48.856 90.5845 48.8223 90.5903C48.7886 90.5961 48.7567 90.6096 48.7292 90.63C48.7018 90.6503 48.6794 90.6767 48.664 90.7073C48.6486 90.7378 48.6405 90.7715 48.6405 90.8056V92.1349C48.6406 92.1805 48.6549 92.225 48.6815 92.2621C48.708 92.2991 48.7455 92.327 48.7887 92.3417C48.9949 92.4117 49.2327 92.4699 49.502 92.5172C49.7821 92.5731 50.1014 92.5997 50.4627 92.5997C51.1919 92.5997 51.8087 92.4708 52.3054 92.1986C52.7981 91.9285 53.1729 91.5285 53.4117 91.0175C53.6492 90.5157 53.7637 89.9213 53.7637 89.2406V76.7478C53.7637 76.6898 53.7406 76.6342 53.6996 76.5932C53.6586 76.5522 53.603 76.5291 53.545 76.5291L51.8279 76.5291ZM86.9271 77.7588C87.7115 77.7588 88.2669 77.9501 88.6366 78.3077L88.6379 78.309C89.0053 78.6588 89.2008 79.1928 89.2008 79.9621C89.2008 80.6769 89.0113 81.1806 88.6481 81.5263C88.2867 81.8703 87.7332 82.0568 86.9476 82.0568C86.1909 82.0568 85.6431 81.8723 85.2651 81.5242C84.8875 81.1763 84.6945 80.6843 84.6945 79.9916C84.6945 79.2292 84.8897 78.6901 85.26 78.326C85.6397 77.953 86.1801 77.7588 86.9271 77.7588ZM42.9177 78.1279C44.1371 78.1279 44.9126 78.4693 45.3405 79.1304L45.3414 79.1317C45.7898 79.8146 46.0295 80.826 46.0295 82.1722V82.4673C46.0295 83.7319 45.7811 84.6566 45.32 85.2579C44.8683 85.8468 44.0919 86.1566 42.9178 86.1566C41.9061 86.1566 41.1995 85.8299 40.7167 85.1656C40.237 84.4952 39.982 83.5179 39.982 82.2213C39.982 80.9177 40.2391 79.9133 40.7299 79.1941C41.2158 78.4761 41.9162 78.1279 42.9177 78.1279ZM99.5224 78.1676C100.291 78.1676 100.896 78.3307 101.355 78.6417C101.82 78.957 102.162 79.4012 102.39 79.9962C102.619 80.5882 102.738 81.3034 102.738 82.1426C102.738 82.9886 102.619 83.7139 102.39 84.3198C102.162 84.921 101.816 85.3716 101.344 85.6935C100.885 86.011 100.287 86.177 99.5331 86.177C98.772 86.177 98.1717 86.0116 97.7126 85.6943C97.2471 85.3727 96.9041 84.9216 96.6759 84.3198C96.4463 83.714 96.3282 82.9887 96.3282 82.1426C96.3282 80.861 96.5945 79.8839 97.1022 79.1919L97.1031 79.1906C97.6102 78.5096 98.3898 78.1676 99.5224 78.1676ZM63.998 82.2468V83.0139C63.998 84.0332 63.7012 84.7517 63.1151 85.2377C62.5171 85.7334 61.7511 85.9848 60.7828 85.9848C60.1678 85.9848 59.6991 85.8464 59.3523 85.5859C59.0177 85.3345 58.8499 84.9625 58.8499 84.392C58.8499 83.7427 59.0938 83.2828 59.6218 82.9299C60.1364 82.5858 61.1026 82.3589 62.4974 82.3071L63.998 82.2468ZM86.0263 87.3277H87.9917C88.5609 87.3277 89.0375 87.3673 89.4179 87.4422L89.4214 87.4427C89.7895 87.5091 90.0446 87.637 90.2112 87.8109C90.3694 87.9823 90.4619 88.2472 90.4619 88.6447C90.4619 89.0622 90.3311 89.4001 90.0553 89.6976L90.0518 89.701C89.7851 90.001 89.3631 90.2439 88.7691 90.4135L88.7666 90.4144C88.1822 90.5894 87.4258 90.6809 86.5023 90.6809C85.5674 90.6809 84.8669 90.5267 84.4007 90.2486L84.399 90.2478C83.9349 89.9768 83.7318 89.6273 83.7318 89.1077C83.7318 88.7018 83.8221 88.3821 83.9932 88.1287C84.174 87.8713 84.4271 87.6764 84.7728 87.5388C85.1207 87.4003 85.5376 87.3277 86.0263 87.3277ZM114.562 168.213C113.764 168.213 113.074 168.352 112.499 168.639C111.919 168.929 111.471 169.389 111.17 169.997C110.867 170.603 110.723 171.372 110.723 172.3V172.852L108.879 173.349C108.832 173.362 108.791 173.389 108.762 173.428C108.732 173.466 108.717 173.513 108.717 173.561V174.348C108.717 174.406 108.74 174.462 108.781 174.503C108.822 174.544 108.877 174.567 108.935 174.567H110.723V183.858C110.723 183.916 110.746 183.972 110.787 184.013C110.828 184.054 110.884 184.077 110.942 184.077H112.659C112.717 184.077 112.772 184.054 112.813 184.013C112.854 183.972 112.877 183.916 112.877 183.858V174.567H115.482C115.54 174.567 115.596 174.544 115.637 174.503C115.678 174.462 115.701 174.406 115.701 174.348V173.068C115.701 173.01 115.678 172.955 115.637 172.914C115.596 172.873 115.54 172.85 115.482 172.849H112.877V172.281C112.877 171.447 113.033 170.865 113.296 170.524C113.569 170.176 113.973 169.999 114.583 169.999C114.87 169.999 115.15 170.029 115.424 170.091L115.429 170.093C115.72 170.151 115.978 170.215 116.204 170.284C116.258 170.301 116.317 170.296 116.367 170.271C116.418 170.245 116.457 170.201 116.475 170.147L116.92 168.857C116.929 168.83 116.933 168.801 116.931 168.772C116.93 168.743 116.922 168.715 116.909 168.689C116.896 168.663 116.879 168.64 116.857 168.621C116.835 168.602 116.81 168.588 116.782 168.578C116.496 168.483 116.167 168.399 115.794 168.325C115.419 168.25 115.008 168.213 114.562 168.213ZM210.793 168.321C210.735 168.321 210.68 168.344 210.639 168.385C210.598 168.426 210.575 168.482 210.574 168.54V183.858C210.575 183.916 210.598 183.971 210.639 184.012C210.68 184.053 210.735 184.076 210.793 184.076H212.5C212.558 184.076 212.614 184.053 212.655 184.012C212.696 183.971 212.719 183.916 212.719 183.858V180.049L213.846 179.065L217.706 183.993C217.727 184.019 217.753 184.04 217.783 184.055C217.812 184.069 217.845 184.077 217.878 184.077H219.947C219.988 184.077 220.028 184.065 220.063 184.043C220.098 184.021 220.126 183.99 220.144 183.953C220.162 183.916 220.169 183.875 220.165 183.834C220.16 183.793 220.144 183.754 220.119 183.722L215.346 177.692L219.771 173.222C219.802 173.191 219.822 173.152 219.83 173.11C219.839 173.068 219.834 173.024 219.818 172.984C219.801 172.944 219.773 172.91 219.737 172.886C219.701 172.862 219.659 172.85 219.616 172.85H217.599C217.57 172.85 217.541 172.855 217.514 172.867C217.488 172.878 217.463 172.894 217.443 172.915L213.678 176.734L213.675 176.737C213.477 176.946 213.237 177.217 212.953 177.554L212.951 177.556C212.826 177.709 212.763 177.782 212.664 177.901C212.672 177.755 212.677 177.633 212.687 177.471C212.707 177.088 212.718 176.762 212.718 176.494V168.54C212.718 168.482 212.695 168.426 212.654 168.385C212.613 168.344 212.558 168.321 212.5 168.321L210.793 168.321ZM163.68 172.451C162.633 172.451 161.707 172.69 160.918 173.172C160.137 173.654 159.527 174.347 159.097 175.232C158.674 176.114 158.465 177.153 158.465 178.34C158.465 179.555 158.695 180.598 159.164 181.457C159.631 182.312 160.293 182.971 161.137 183.417L161.138 183.418C161.987 183.856 162.976 184.072 164.093 184.072C164.869 184.072 165.544 184.016 166.122 183.901C166.703 183.786 167.286 183.604 167.871 183.356C167.911 183.339 167.945 183.311 167.968 183.275C167.992 183.239 168.005 183.197 168.005 183.154V181.717C168.005 181.681 167.996 181.646 167.979 181.614C167.962 181.583 167.938 181.555 167.908 181.535C167.878 181.515 167.844 181.503 167.808 181.499C167.772 181.496 167.736 181.501 167.703 181.515C167.12 181.753 166.559 181.933 166.021 182.055C165.489 182.175 164.87 182.237 164.166 182.237C163.042 182.237 162.209 181.924 161.613 181.309C161.058 180.735 160.755 179.897 160.7 178.785H168.293C168.351 178.785 168.406 178.762 168.447 178.721C168.488 178.68 168.511 178.624 168.511 178.566V177.552C168.511 176.547 168.323 175.658 167.94 174.895C167.557 174.125 166.998 173.519 166.273 173.092C165.545 172.662 164.676 172.451 163.68 172.451ZM193.285 172.451C192.172 172.451 191.198 172.678 190.374 173.138C189.558 173.592 188.924 174.262 188.486 175.13C188.047 175.995 187.832 177.035 187.832 178.242C187.832 179.148 187.959 179.965 188.217 180.688L188.218 180.69C188.482 181.41 188.852 182.024 189.33 182.527L189.331 182.528C189.814 183.029 190.386 183.415 191.04 183.682L191.043 183.682C191.705 183.943 192.43 184.072 193.213 184.072C194.048 184.072 194.804 183.944 195.474 183.683C196.149 183.416 196.731 183.03 197.209 182.527C197.687 182.024 198.051 181.407 198.301 180.686C198.552 179.963 198.675 179.148 198.675 178.242C198.675 177.04 198.453 176.003 197.998 175.138C197.553 174.271 196.918 173.599 196.103 173.139C195.294 172.679 194.35 172.451 193.285 172.451ZM131.714 172.471C130.966 172.471 130.25 172.562 129.569 172.744C128.895 172.924 128.296 173.142 127.771 173.398C127.72 173.423 127.681 173.466 127.662 173.519C127.642 173.571 127.644 173.629 127.666 173.681L128.193 174.921C128.205 174.948 128.221 174.972 128.242 174.993C128.264 175.013 128.288 175.029 128.316 175.039C128.343 175.05 128.372 175.055 128.402 175.054C128.431 175.053 128.46 175.046 128.486 175.034C128.959 174.815 129.46 174.625 129.988 174.464C130.505 174.306 131.049 174.227 131.621 174.227C132.351 174.227 132.884 174.403 133.255 174.733C133.608 175.047 133.813 175.63 133.813 176.529V176.978L132.067 177.049L132.07 177.048C130.214 177.101 128.813 177.415 127.862 178.028C126.914 178.639 126.417 179.556 126.417 180.693C126.417 181.439 126.576 182.075 126.908 182.584L126.909 182.586C127.242 183.086 127.7 183.464 128.266 183.709C128.835 183.952 129.48 184.072 130.194 184.072C130.864 184.072 131.434 184.005 131.91 183.866L131.912 183.866C132.389 183.721 132.814 183.509 133.181 183.23L133.183 183.228C133.461 183.011 133.72 182.724 133.978 182.432L134.241 183.701C134.251 183.75 134.278 183.794 134.317 183.826C134.356 183.858 134.405 183.875 134.455 183.875H135.707C135.765 183.875 135.82 183.852 135.861 183.811C135.902 183.77 135.925 183.714 135.925 183.656V176.322C135.925 175.017 135.584 174.022 134.869 173.392C134.158 172.765 133.097 172.471 131.714 172.471ZM123.585 172.653C123.021 172.653 122.499 172.757 122.027 172.967C121.57 173.174 121.164 173.456 120.815 173.808C120.584 174.037 120.408 174.309 120.222 174.572L120.079 173.048C120.074 172.993 120.049 172.943 120.009 172.906C119.969 172.87 119.916 172.849 119.862 172.849H118.434C118.376 172.849 118.321 172.873 118.28 172.914C118.239 172.955 118.216 173.01 118.216 173.068V183.858C118.216 183.916 118.239 183.972 118.28 184.013C118.321 184.054 118.376 184.077 118.434 184.077H120.161C120.219 184.077 120.275 184.054 120.316 184.013C120.357 183.972 120.38 183.916 120.38 183.858V178.069C120.38 177.534 120.463 177.056 120.625 176.631C120.788 176.195 121.011 175.83 121.293 175.532L121.295 175.53C121.578 175.223 121.903 174.993 122.275 174.834C122.654 174.669 123.055 174.586 123.482 174.586C123.672 174.586 123.878 174.599 124.098 174.624C124.318 174.65 124.515 174.684 124.691 174.728C124.721 174.735 124.752 174.736 124.782 174.731C124.812 174.725 124.84 174.714 124.866 174.697C124.891 174.68 124.913 174.657 124.929 174.631C124.945 174.605 124.956 174.576 124.96 174.546L125.177 173.03C125.185 172.975 125.172 172.919 125.14 172.873C125.108 172.827 125.059 172.796 125.004 172.785C124.801 172.743 124.572 172.713 124.317 172.692C124.064 172.666 123.819 172.653 123.585 172.653ZM144.486 172.653C143.983 172.653 143.506 172.721 143.056 172.859C142.606 172.997 142.197 173.202 141.832 173.473C141.572 173.666 141.355 173.902 141.158 174.157L140.967 173.031C140.959 172.98 140.932 172.934 140.893 172.901C140.853 172.868 140.803 172.849 140.752 172.849H139.366C139.308 172.849 139.252 172.872 139.211 172.914C139.17 172.955 139.147 173.01 139.147 173.068V183.858C139.147 183.916 139.17 183.972 139.211 184.013C139.252 184.054 139.308 184.077 139.366 184.077H141.083C141.141 184.077 141.196 184.054 141.237 184.013C141.278 183.972 141.301 183.916 141.301 183.858V178.148C141.301 177.319 141.4 176.631 141.589 176.085C141.783 175.538 142.083 175.143 142.495 174.876C142.904 174.61 143.462 174.468 144.186 174.468C144.69 174.468 145.088 174.562 145.391 174.735L145.395 174.737C145.705 174.905 145.93 175.151 146.085 175.5L146.087 175.503C146.248 175.852 146.336 176.306 146.336 176.868V183.858C146.336 183.916 146.359 183.971 146.4 184.012C146.441 184.053 146.496 184.077 146.554 184.077H148.261C148.319 184.077 148.375 184.053 148.416 184.012C148.457 183.971 148.48 183.916 148.48 183.858V177.823C148.48 176.679 148.722 175.844 149.174 175.294C149.62 174.751 150.339 174.468 151.395 174.468C152.133 174.468 152.645 174.669 152.99 175.055L152.992 175.057C153.343 175.437 153.534 176.029 153.534 176.868V183.858C153.535 183.916 153.558 183.971 153.599 184.013C153.64 184.054 153.695 184.077 153.753 184.077H155.449C155.507 184.077 155.563 184.054 155.604 184.013C155.645 183.971 155.668 183.916 155.668 183.858V176.789C155.668 175.385 155.343 174.324 154.651 173.65C153.966 172.977 152.959 172.653 151.674 172.653C150.874 172.653 150.13 172.813 149.451 173.136L149.45 173.136C148.841 173.42 148.361 173.865 147.982 174.417C147.697 173.87 147.298 173.423 146.748 173.14C146.129 172.811 145.373 172.653 144.486 172.653ZM206.457 172.653C205.893 172.653 205.371 172.757 204.9 172.967C204.443 173.174 204.036 173.456 203.687 173.808C203.456 174.037 203.28 174.309 203.094 174.572L202.952 173.048C202.947 172.993 202.922 172.943 202.881 172.906C202.841 172.87 202.788 172.849 202.734 172.849H201.306C201.248 172.849 201.193 172.873 201.152 172.914C201.111 172.955 201.088 173.01 201.088 173.068V183.858C201.088 183.916 201.111 183.972 201.152 184.013C201.193 184.054 201.248 184.077 201.306 184.077H203.034C203.092 184.077 203.147 184.054 203.188 184.013C203.229 183.972 203.253 183.916 203.253 183.858V178.069C203.253 177.534 203.336 177.056 203.497 176.631C203.661 176.195 203.883 175.83 204.165 175.532L204.167 175.53C204.45 175.223 204.775 174.993 205.147 174.834C205.526 174.669 205.927 174.586 206.354 174.586C206.544 174.586 206.75 174.599 206.97 174.624C207.19 174.65 207.388 174.684 207.563 174.728C207.593 174.735 207.624 174.736 207.654 174.731C207.684 174.725 207.713 174.714 207.738 174.697C207.763 174.68 207.785 174.657 207.801 174.631C207.817 174.605 207.828 174.576 207.832 174.546L208.05 173.03C208.058 172.975 208.044 172.919 208.012 172.873C207.98 172.827 207.931 172.796 207.877 172.785C207.673 172.743 207.444 172.713 207.189 172.692C206.936 172.666 206.691 172.653 206.457 172.653ZM170.322 172.85C170.288 172.85 170.255 172.858 170.224 172.873C170.194 172.888 170.168 172.91 170.147 172.937C170.127 172.964 170.113 172.996 170.107 173.029C170.101 173.062 170.102 173.097 170.112 173.129L173.236 183.919C173.249 183.965 173.276 184.005 173.314 184.033C173.352 184.062 173.398 184.077 173.446 184.077H175.38C175.426 184.077 175.47 184.063 175.507 184.036C175.545 184.009 175.573 183.972 175.587 183.928L177.696 177.681C177.794 177.408 177.882 177.137 177.959 176.87L177.959 176.868C178.035 176.6 178.104 176.345 178.166 176.101L178.167 176.096C178.214 175.932 178.249 175.789 178.286 175.642C178.325 175.788 178.363 175.931 178.406 176.096C178.406 176.098 178.407 176.101 178.408 176.103C178.477 176.339 178.549 176.588 178.625 176.851C178.625 176.853 178.626 176.855 178.627 176.857C178.71 177.114 178.796 177.377 178.886 177.646L180.902 183.925C180.916 183.969 180.944 184.008 180.982 184.035C181.019 184.062 181.064 184.077 181.11 184.077H183.106C183.154 184.077 183.2 184.062 183.238 184.033C183.276 184.005 183.303 183.965 183.317 183.919L186.451 173.13C186.46 173.097 186.462 173.063 186.456 173.029C186.45 172.996 186.436 172.964 186.415 172.937C186.395 172.91 186.369 172.888 186.338 172.873C186.308 172.858 186.274 172.85 186.24 172.85H184.493C184.445 172.85 184.398 172.866 184.36 172.895C184.322 172.923 184.295 172.964 184.282 173.01L182.627 178.966C182.517 179.374 182.409 179.776 182.305 180.17L182.305 180.174C182.211 180.556 182.128 180.904 182.053 181.225C181.971 180.904 181.879 180.574 181.776 180.235L181.774 180.231C181.678 179.889 181.577 179.56 181.473 179.243L179.456 173.001C179.442 172.957 179.414 172.919 179.377 172.892C179.34 172.865 179.295 172.85 179.248 172.85H177.397C177.351 172.85 177.307 172.864 177.269 172.891C177.232 172.918 177.204 172.956 177.19 172.999L175.1 179.251C175.024 179.483 174.947 179.733 174.87 179.997C174.794 180.255 174.721 180.516 174.652 180.78L174.65 180.785C174.607 180.962 174.569 181.124 174.529 181.289C174.524 181.267 174.523 181.253 174.518 181.231C174.448 180.887 174.362 180.524 174.258 180.143L174.257 180.139C174.16 179.751 174.057 179.361 173.947 178.967L172.312 173.011C172.3 172.964 172.272 172.924 172.234 172.895C172.196 172.866 172.149 172.85 172.101 172.85L170.322 172.85ZM163.659 174.227C164.277 174.227 164.761 174.358 165.131 174.604L165.133 174.605C165.509 174.85 165.785 175.19 165.971 175.646L165.972 175.65C166.141 176.046 166.227 176.516 166.254 177.039H160.769C160.894 176.181 161.167 175.495 161.625 175.016C162.127 174.489 162.788 174.227 163.659 174.227ZM193.244 174.267C194.012 174.267 194.617 174.43 195.076 174.741C195.541 175.056 195.883 175.5 196.111 176.095C196.34 176.687 196.459 177.402 196.459 178.242C196.459 179.088 196.34 179.813 196.111 180.418C195.883 181.02 195.537 181.47 195.065 181.792L195.064 181.793C194.604 182.11 194.008 182.276 193.254 182.276C192.493 182.276 191.893 182.11 191.434 181.793C190.968 181.471 190.625 181.02 190.397 180.418C190.167 179.813 190.049 179.088 190.049 178.242C190.049 176.96 190.315 175.983 190.823 175.291L190.824 175.29C191.331 174.609 192.111 174.267 193.244 174.267ZM133.793 178.568V179.334C133.793 180.354 133.496 181.072 132.91 181.558C132.312 182.054 131.546 182.305 130.578 182.305C129.963 182.305 129.495 182.167 129.148 181.906C128.813 181.655 128.645 181.283 128.645 180.713C128.645 180.064 128.889 179.603 129.417 179.25C129.932 178.906 130.898 178.68 132.293 178.628L133.793 178.568Z" class="text" fill="white"/>
</svg>