<svg width="256" height="256" title="D Language" viewBox="0 0 256 256" fill="none" xmlns="http://www.w3.org/2000/svg" id="dlang">
<style>
#dlang {
    rect {fill: #15191C}

    @media (prefers-color-scheme: light) {
        rect {fill: #F4F2ED}
    }
}
</style>
<rect width="256" height="256" rx="40" fill="#15191C"/>
<path d="M164.257 136.568C178.904 136.568 190.778 125.734 190.778 112.369C190.778 99.0038 178.904 88.1692 164.257 88.1692C149.609 88.1692 137.735 99.0038 137.735 112.369C137.735 125.734 149.609 136.568 164.257 136.568Z" fill="#B03931"/>
<path d="M194.478 93.5512C199.185 93.5512 203 90.0699 203 85.7757C203 81.4813 199.185 78 194.478 78C189.772 78 185.957 81.4813 185.957 85.7757C185.957 90.0699 189.772 93.5512 194.478 93.5512Z" fill="#B03931"/>
<path d="M56.2999 80.6551C54.4533 80.8824 53.0061 82.3495 53 84.1252L53.1165 174.795C53.1165 176.168 53.4897 179 57.3705 179L92.2551 178.862C102.227 178.844 108.906 178.674 112.883 178.174C112.906 178.174 112.954 178.174 112.978 178.173C116.784 177.647 120.816 176.677 125.2 175.261C132.821 172.889 139.58 169.384 145.391 164.703C151.08 160.169 155.489 154.8 158.588 148.761C161.686 142.722 163.248 136.336 163.236 129.717C163.22 120.502 160.42 111.874 154.801 104.111C149.182 96.3487 141.512 90.4038 132.072 86.4667C122.476 82.4171 109.964 80.572 94.442 80.5996L56.772 80.6544C56.61 80.6553 56.4564 80.6359 56.2999 80.6551ZM76.575 99.3123L92.8137 99.2887C100.403 99.2753 105.802 99.5046 108.865 99.9233C111.969 100.348 115.369 101.244 118.97 102.628C122.539 103.982 125.65 105.64 128.323 107.703C135.678 113.395 139.145 120.131 139.161 129.05C139.177 138.182 135.827 145.295 128.662 151.261C126.459 153.072 124.008 154.607 121.304 155.878C118.749 157.062 115.415 158.083 111.206 158.963C107.237 159.753 101.21 160.203 93.3643 160.217L76.6535 160.241L76.575 99.3123Z" fill="#B03931"/>
</svg>