<svg width="256" height="256" title="dltHub" viewBox="0 0 256 256" fill="none" xmlns="http://www.w3.org/2000/svg" id="dlthub">
<style>
#dlthub {
    rect {fill: #15191C}

    @media (prefers-color-scheme: light) {
        rect {fill: #F4F2ED}
    }
}
</style>
<rect width="256" height="256" rx="40" fill="#15191C"/>
<path d="M104.212 148H96.2325V156H104.212V148Z" fill="#C6D300"/>
<path d="M96.2326 100H88.2528V148L96.2325 148L96.2326 124H104.212V116H96.2326V100Z" fill="#59C1D5"/>
<path d="M72.5959 156H80.5757V100H72.5959V156Z" fill="#59C1D5"/>
<path d="M56.9391 116H40.9797V124H56.9391V148H40.9797V156H64.9189V100H56.9391V116Z" fill="#59C1D5"/>
<path d="M40.9797 124L33 124V148L40.9797 148V124Z" fill="#59C1D5"/>
<path d="M135.828 124H119.869V100H111.889V156H119.869V132H135.828V156H143.808V100H135.828V124Z" fill="#C6D300"/>
<path d="M159.465 116H151.485V148H159.465V116Z" fill="#C6D300"/>
<path d="M175.424 148H159.465L159.465 156H183.404V116H175.424V148Z" fill="#C6D300"/>
<path d="M199.061 124H215.02V116H199.061V100H191.081V156H215.02V148H199.061V124Z" fill="#C6D300"/>
<path d="M223 124L215.02 124V148L223 148V124Z" fill="#C6D300"/>
</svg>