<svg width="256" height="256" title="DNDKit" viewBox="0 0 256 256" fill="none" xmlns="http://www.w3.org/2000/svg">
<rect width="256" height="256" rx="40" fill="black"/>
<path d="M203 55V96.7343H190.749V75.3547L152.202 112.874L143.541 104.443L182.088 66.924H160.122V55H203ZM95.8778 55V66.924H73.9125L112.459 104.443L103.798 112.874L65.2508 75.3547V96.7343H53V55H95.8778ZM152.202 143.126L190.749 180.645V159.265H203V201H160.122V189.076H182.088L143.541 151.557L152.202 143.126ZM144.001 103.667L153 111.943L74.0821 188.945H96.2255V201H53V158.808H65.3501V180.422L144.001 103.667Z" fill="white"/>
</svg>