<svg width="256" height="256" title="Dockge" viewBox="0 0 256 256" fill="none" xmlns="http://www.w3.org/2000/svg" id="dockge">
<style>
#dockge {
    rect {fill: #15191C}

    @media (prefers-color-scheme: light) {
        rect {fill: #F4F2ED}
    }
}
</style>
<rect width="256" height="256" rx="40" fill="#15191C"/>
<path d="M118.344 51H123.074L132.256 52.1159L142.83 54.9058L149.508 57.4167L155.073 59.9275L161.194 63.2754L167.037 67.1812L170.376 69.692L173.437 72.2029L178.167 76.6667L181.506 80.2935L183.454 82.5254L186.793 86.4312L189.853 90.058L192.636 93.9638L195.696 97.8696L198.479 101.775L201.261 106.239L203.766 110.703L206.548 116.841L208.218 121.583L209.887 128L211 135.533V141.112L210.722 146.413L209.609 151.993L207.661 158.688L204.322 165.942L202.374 169.011L198.479 174.033L196.531 176.264L193.749 179.054L191.523 181.007L187.627 184.355L184.288 186.587L179.558 189.377L172.324 193.283L166.481 196.072L157.02 199.699L151.177 201.373L141.995 203.326L130.865 205H116.396L109.162 204.442L102.484 203.326L95.2496 201.373L89.4064 199.141L83.8415 196.63L79.3895 194.12L74.3811 190.772L71.3204 188.261L67.7032 185.192L64.9207 182.681L61.86 179.333L58.2428 174.591L55.4604 170.127L52.1214 163.989L49.8954 158.13L47.9477 151.435L46.5565 143.623L46.2782 141.67L46 136.37V128L47.113 118.514L49.339 109.866L51.0084 104.844L54.0691 97.5906L56.2951 93.4058L59.0776 88.663L61.3035 85.3152L64.3642 81.1304L66.5902 78.0616L69.0944 75.2717L76.6071 67.7391L81.3373 64.1123L84.1197 61.8804L88.2934 59.3696L92.7454 56.8587L100.536 53.7899L107.492 52.1159L113.336 51.279L118.344 51Z" fill="#818283"/>
<path d="M116.118 74.7138H123.074L129.752 75.5507L135.317 77.2246L142.551 80.2935L148.395 83.3623L154.238 87.2681L158.133 90.337L160.916 92.8478L163.976 95.9167L165.924 98.1485L168.15 100.38L171.211 104.286L177.054 112.098L180.393 117.12L183.175 122.42L184.845 126.326L186.514 132.743L187.349 136.928V140.833L186.514 146.692L185.123 151.156L182.897 155.62L180.393 158.967L175.663 163.71L170.098 167.337L166.481 169.569L162.863 171.522L158.69 173.754L149.229 177.101L139.212 179.612L128.639 181.286H116.675L108.327 180.17L103.597 179.054L97.7538 177.101L93.3019 174.87L89.4064 172.638L86.0675 170.127L82.7285 167.058L79.3895 163.71L76.6071 159.804L74.3811 155.899L72.1551 150.319L70.7639 145.576L69.9292 141.391L69.3727 136.649V129.116L70.7639 120.746L72.4334 114.888L75.2159 107.913L77.7201 103.17L80.7808 98.4275L83.5632 94.5217L86.9022 90.6159L90.7976 86.7101L93.0236 84.7572L96.6408 81.9674L100.258 79.7355L106.658 76.6667L111.388 75.2717L116.118 74.7138Z" fill="#B3D8F9"/>
<path d="M118.344 98.4275L123.074 98.7065L128.361 100.101L133.091 102.054L137.265 104.286L141.16 107.076L144.777 110.424L147.838 113.493L150.342 116.562L153.125 119.909L156.742 124.652L159.524 128.558L162.307 133.301L163.42 136.649L163.698 139.996L162.585 142.507L159.803 145.576L155.073 148.645L149.229 151.714L143.943 153.946L138.099 155.62L131.143 157.014L126.413 157.851L120.57 158.13L116.118 157.572L110.553 156.178L106.379 154.504L101.927 152.272L99.145 149.761L97.1973 147.529L95.2496 144.181L93.8583 140.554L93.0236 136.928V131.069L94.4148 124.094L96.6408 117.678L99.145 113.214L101.649 109.866L104.988 106.239L108.049 103.17L111.666 100.659L114.449 99.2645L118.344 98.4275Z" fill="#73C0FD"/>
<path d="M177.61 113.493L179.002 114.888L181.506 119.072L184.288 124.931L185.958 130.232L187.349 136.928V140.833L186.514 146.692L185.123 151.156L182.897 155.62L180.393 158.967L175.663 163.71L170.098 167.337L166.481 169.569L162.863 171.522L158.69 173.754L149.229 177.101L139.212 179.612L130.865 181.007H119.179L119.735 180.728L119.457 178.775L118.344 177.38L119.179 176.543L121.683 175.986V175.428H119.179L119.457 174.87H120.013V174.312L121.683 172.917L120.848 172.638L121.126 171.522L122.518 169.569L121.405 169.011L121.961 167.895L122.796 167.058H123.352L123.909 165.663L125.022 164.826H125.857L126.691 161.478V160.92L125.857 160.641L124.744 159.525L125.578 158.13L129.196 157.014L135.874 155.899L143.108 153.946L147.838 151.993L152.29 149.761L156.464 147.529L160.359 144.739L162.863 141.67L163.42 139.438L162.863 135.533L161.75 132.743L160.637 130.79L160.916 129.674L161.472 129.395L162.029 128.558V126.605L162.863 126.326L163.698 126.605L164.255 125.21L167.037 121.025L169.263 120.188L170.098 119.351L170.376 117.12L172.046 115.167L174.55 115.446L174.828 114.888L176.497 116.004L177.332 116.841L178.167 116.562L177.61 114.051V113.493Z" fill="#B9DEEE"/>
<path d="M184.845 128.279H185.401L187.071 135.254L187.349 136.928V140.833L186.514 146.692L185.123 151.156L182.897 155.62L180.393 158.967L175.663 163.71L170.098 167.337L166.481 169.569L162.863 171.522L158.69 173.754L150.064 176.822H148.673L149.786 175.707L148.673 175.428L146.725 175.707H146.169L145.056 175.428L143.386 174.87L144.221 173.475L145.612 172.359L150.064 169.011L153.681 165.384L155.073 163.71L154.516 163.152L153.403 162.594L154.516 160.641L155.351 160.362L155.907 158.967L158.133 157.293L161.472 154.225L163.698 152.272L165.646 152.551V151.156H166.202L165.924 150.04L168.428 147.529L169.541 147.25L170.376 147.808L170.933 146.692L171.489 145.855H172.046L172.602 144.46L173.993 142.786L174.828 141.391H175.384L175.941 139.717L177.889 137.486L177.332 137.207L177.889 135.254L179.002 134.138L180.393 131.906H182.341L182.897 130.511L183.732 131.069L184.288 129.116L184.845 128.279Z" fill="#B8E3E6"/>
<path d="M157.577 126.326L158.968 127.721L161.194 131.348L162.863 134.696L163.42 136.649L163.698 139.996L162.585 142.507L159.803 145.576L155.073 148.645L149.229 151.714L143.943 153.946L140.325 155.062L139.212 154.783L137.821 154.504L136.987 154.783L137.265 153.388H136.43L136.152 151.714L138.099 148.645L140.604 145.297L141.717 143.902H142.273L142.551 142.507L147.003 138.601L147.838 137.207L152.29 133.301L153.125 131.627L154.794 129.116L155.629 128.279L157.02 128.558V129.116H157.577V129.674L158.69 129.395L158.411 128L157.577 126.884V126.326Z" fill="#77C8F4"/>
</svg>