<svg width="256" height="256" title="Docus" viewBox="0 0 256 256" fill="none" xmlns="http://www.w3.org/2000/svg" id="docus">
<style>
#docus {
    rect {fill: #15191C}
    path {fill: #F4F2ED}

    @media (prefers-color-scheme: light) {
        rect {fill: #F4F2ED}
        path {fill: #15191C}
    }
}
</style>
<rect width="256" height="256" rx="40" fill="#15191C"/>
<path fill-rule="evenodd" clip-rule="evenodd" d="M63 127.744C63 91.9866 92.1014 63 128 63C163.899 63 193 91.9866 193 127.744C193 163.5 163.899 192.487 128 192.487H63V127.744ZM120.973 113.744C128.735 113.744 135.027 120.012 135.027 127.744C135.027 135.475 128.735 141.742 120.973 141.742C113.211 141.742 106.918 135.475 106.918 127.743C106.918 120.012 113.211 113.744 120.973 113.744ZM177.19 127.744C177.19 120.012 170.897 113.744 163.135 113.744C155.374 113.744 149.081 120.012 149.081 127.744C149.081 135.475 155.374 141.742 163.135 141.742C170.897 141.742 177.19 135.476 177.19 127.744Z" fill="#F4F2ED"/>
</svg>