<svg width="256" height="256" title="Docusaurus" viewBox="0 0 256 256" fill="none" xmlns="http://www.w3.org/2000/svg" id="docusaurus">
<style>
#docusaurus {
    rect {fill: #15191C}

    @media (prefers-color-scheme: light) {
        rect {fill: #F4F2ED}
    }
}
</style>
<rect width="256" height="256" rx="40" fill="#15191C"/>
<path fill-rule="evenodd" clip-rule="evenodd" d="M126.769 88.5323H195.692V116.43H126.769V88.5323Z" fill="white"/>
<path fill-rule="evenodd" clip-rule="evenodd" d="M64.4103 179.609C58.3401 179.609 53.0519 176.305 50.2129 171.404C48.7635 173.896 47.9999 176.727 48 179.609C48 188.673 55.3469 196.019 64.4103 196.019H80.8205V179.609H64.4103Z" fill="#3ECC5F"/>
<path fill-rule="evenodd" clip-rule="evenodd" d="M138.24 92.9434L195.692 89.3528V81.1477C195.692 72.0843 188.345 64.7374 179.282 64.7374H105.436L103.385 61.1846C102.472 59.6051 100.194 59.6051 99.2821 61.1846L97.2308 64.7374L95.1795 61.1846C94.2679 59.6051 91.9885 59.6051 91.0769 61.1846L89.0256 64.7374L86.9744 61.1846C86.0628 59.6051 83.7834 59.6051 82.8718 61.1846L80.8205 64.7374C80.8025 64.7374 80.7861 64.7399 80.7672 64.7399L77.3686 61.3422C76.0804 60.0531 73.8798 60.6423 73.4072 62.4039L72.2839 66.5918L68.0238 65.4496C66.2613 64.9778 64.6507 66.5893 65.1233 68.351L66.2638 72.6119L62.0775 73.7335C60.3151 74.2062 59.7251 76.4076 61.0142 77.6966L64.4127 81.0952C64.4127 81.1124 64.4103 81.1296 64.4103 81.1477L60.8574 83.199C59.2779 84.1106 59.2779 86.3899 60.8574 87.3015L64.4103 89.3528L60.8574 91.4041C59.2779 92.3157 59.2779 94.5951 60.8574 95.5067L64.4103 97.5579L60.8574 99.6092C59.2779 100.521 59.2779 102.8 60.8574 103.712L64.4103 105.763L60.8574 107.814C59.2779 108.726 59.2779 111.005 60.8574 111.917L64.4103 113.968L60.8574 116.019C59.2779 116.931 59.2779 119.21 60.8574 120.122L64.4103 122.173L60.8574 124.225C59.2779 125.136 59.2779 127.416 60.8574 128.327L64.4103 130.378L60.8574 132.43C59.2779 133.341 59.2779 135.621 60.8574 136.532L64.4103 138.584L60.8574 140.635C59.2779 141.546 59.2779 143.826 60.8574 144.737L64.4103 146.789L60.8574 148.84C59.2779 149.752 59.2779 152.031 60.8574 152.943L64.4103 154.994L60.8574 157.045C59.2779 157.957 59.2779 160.236 60.8574 161.148L64.4103 163.199L60.8574 165.25C59.2779 166.162 59.2779 168.441 60.8574 169.353L64.4103 171.404L60.8574 173.455C59.2779 174.367 59.2779 176.646 60.8574 177.558L64.4103 179.609C64.4103 188.673 71.7571 196.019 80.8205 196.019H179.282C188.345 196.019 195.692 188.673 195.692 179.609V113.968L138.24 110.378C136.022 110.239 133.941 109.26 132.42 107.641C130.898 106.021 130.051 103.883 130.051 101.661C130.051 97.0484 133.637 93.2314 138.24 92.9434Z" fill="#3ECC5F"/>
<path fill-rule="evenodd" clip-rule="evenodd" d="M162.872 196.019H187.487V163.199H162.872V196.019Z" fill="#3ECC5F"/>
<path fill-rule="evenodd" clip-rule="evenodd" d="M203.897 175.507C203.718 175.507 203.546 175.537 203.373 175.559C203.342 175.436 203.312 175.312 203.278 175.189C204.152 174.824 204.873 174.167 205.318 173.33C205.763 172.493 205.904 171.528 205.718 170.599C205.532 169.669 205.03 168.833 204.297 168.232C203.564 167.631 202.646 167.302 201.698 167.302C200.802 167.305 199.933 167.604 199.224 168.152C199.133 168.059 199.041 167.967 198.949 167.876C199.485 167.171 199.776 166.311 199.778 165.425C199.778 164.48 199.451 163.564 198.853 162.832C198.255 162.1 197.422 161.597 196.496 161.408C195.57 161.219 194.607 161.355 193.77 161.794C192.933 162.234 192.273 162.948 191.902 163.818C191.781 163.783 191.659 163.754 191.537 163.723C191.559 163.55 191.59 163.379 191.59 163.199C191.59 162.111 191.158 161.067 190.388 160.298C189.619 159.529 188.575 159.096 187.487 159.096C186.399 159.096 185.356 159.529 184.586 160.298C183.817 161.067 183.385 162.111 183.385 163.199C183.385 163.379 183.415 163.55 183.437 163.723C183.316 163.754 183.193 163.783 183.072 163.818C182.702 162.947 182.043 162.23 181.205 161.79C180.368 161.349 179.404 161.212 178.477 161.401C177.55 161.59 176.716 162.094 176.119 162.828C175.521 163.561 175.195 164.479 175.196 165.425C175.196 166.348 175.511 167.19 176.025 167.876C172.976 170.856 171.077 175.009 171.077 179.609C171.077 188.673 178.424 196.019 187.487 196.019C195.15 196.019 201.567 190.76 203.373 183.659C203.546 183.681 203.718 183.712 203.897 183.712C204.986 183.712 206.029 183.28 206.798 182.51C207.568 181.741 208 180.697 208 179.609C208 178.521 207.568 177.478 206.798 176.708C206.029 175.939 204.986 175.507 203.897 175.507Z" fill="#44D860"/>
<path fill-rule="evenodd" clip-rule="evenodd" d="M171.077 146.789H195.692V130.378H171.077V146.789Z" fill="#3ECC5F"/>
<path fill-rule="evenodd" clip-rule="evenodd" d="M203.897 140.635C204.441 140.635 204.963 140.419 205.348 140.034C205.733 139.649 205.949 139.128 205.949 138.584C205.949 138.04 205.733 137.518 205.348 137.133C204.963 136.748 204.441 136.532 203.897 136.532C203.808 136.532 203.722 136.548 203.636 136.559C203.619 136.497 203.605 136.435 203.588 136.374C204.025 136.191 204.385 135.862 204.606 135.444C204.828 135.025 204.899 134.543 204.806 134.079C204.713 133.614 204.462 133.197 204.096 132.896C203.73 132.595 203.272 132.431 202.798 132.43C202.331 132.43 201.905 132.591 201.561 132.855C201.515 132.808 201.47 132.762 201.423 132.717C201.68 132.375 201.838 131.953 201.838 131.491C201.838 131.018 201.674 130.56 201.375 130.194C201.076 129.828 200.66 129.576 200.197 129.482C199.733 129.387 199.252 129.456 198.833 129.676C198.415 129.895 198.085 130.253 197.899 130.688C197.181 130.485 196.439 130.381 195.692 130.378C191.161 130.378 187.487 134.053 187.487 138.584C187.487 143.114 191.161 146.789 195.692 146.789C196.459 146.789 197.196 146.675 197.899 146.479C198.085 146.914 198.415 147.272 198.833 147.492C199.252 147.711 199.733 147.78 200.197 147.685C200.66 147.591 201.076 147.339 201.375 146.973C201.674 146.607 201.838 146.149 201.838 145.676C201.838 145.214 201.68 144.792 201.423 144.45C201.47 144.405 201.515 144.359 201.561 144.312C201.905 144.576 202.331 144.737 202.798 144.737C203.272 144.737 203.731 144.573 204.098 144.273C204.465 143.972 204.716 143.554 204.809 143.089C204.902 142.624 204.831 142.142 204.609 141.723C204.386 141.304 204.026 140.976 203.588 140.793C203.605 140.733 203.619 140.67 203.636 140.609C203.722 140.619 203.808 140.635 203.897 140.635Z" fill="#44D860"/>
<path fill-rule="evenodd" clip-rule="evenodd" d="M97.2308 91.4041C96.6867 91.4041 96.165 91.188 95.7803 90.8033C95.3956 90.4186 95.1795 89.8968 95.1795 89.3528C95.1795 85.9592 92.4193 83.199 89.0256 83.199C85.632 83.199 82.8718 85.9592 82.8718 89.3528C82.8718 89.8968 82.6557 90.4186 82.271 90.8033C81.8863 91.188 81.3645 91.4041 80.8205 91.4041C80.2765 91.4041 79.7547 91.188 79.37 90.8033C78.9853 90.4186 78.7692 89.8968 78.7692 89.3528C78.7692 83.697 83.3698 79.0964 89.0256 79.0964C94.6814 79.0964 99.282 83.697 99.282 89.3528C99.282 89.8968 99.0659 90.4186 98.6812 90.8033C98.2966 91.188 97.7748 91.4041 97.2308 91.4041Z" fill="black"/>
<path fill-rule="evenodd" clip-rule="evenodd" d="M130.051 196.019H179.282C188.345 196.019 195.692 188.673 195.692 179.609V122.173H146.462C137.398 122.173 130.051 129.52 130.051 138.584V196.019Z" fill="#FFFF50"/>
<path fill-rule="evenodd" clip-rule="evenodd" d="M183.401 147.609H142.343C142.125 147.609 141.916 147.523 141.762 147.369C141.608 147.215 141.522 147.006 141.522 146.789C141.522 146.571 141.608 146.362 141.762 146.209C141.916 146.055 142.125 145.968 142.343 145.968H183.401C183.619 145.968 183.827 146.055 183.981 146.209C184.135 146.362 184.222 146.571 184.222 146.789C184.222 147.006 184.135 147.215 183.981 147.369C183.827 147.523 183.619 147.609 183.401 147.609ZM183.401 164.019H142.343C142.125 164.019 141.916 163.933 141.762 163.779C141.608 163.625 141.522 163.417 141.522 163.199C141.522 162.981 141.608 162.773 141.762 162.619C141.916 162.465 142.125 162.378 142.343 162.378H183.401C183.619 162.378 183.827 162.465 183.981 162.619C184.135 162.773 184.222 162.981 184.222 163.199C184.222 163.417 184.135 163.625 183.981 163.779C183.827 163.933 183.619 164.019 183.401 164.019ZM183.401 180.43H142.343C142.125 180.43 141.916 180.343 141.762 180.189C141.608 180.036 141.522 179.827 141.522 179.609C141.522 179.392 141.608 179.183 141.762 179.029C141.916 178.875 142.125 178.789 142.343 178.789H183.401C183.619 178.789 183.827 178.875 183.981 179.029C184.135 179.183 184.222 179.392 184.222 179.609C184.222 179.827 184.135 180.036 183.981 180.189C183.827 180.343 183.619 180.43 183.401 180.43ZM183.401 139.557H142.343C142.125 139.557 141.916 139.47 141.762 139.316C141.608 139.163 141.522 138.954 141.522 138.736C141.522 138.519 141.608 138.31 141.762 138.156C141.916 138.002 142.125 137.916 142.343 137.916H183.401C183.619 137.916 183.827 138.002 183.981 138.156C184.135 138.31 184.222 138.519 184.222 138.736C184.222 138.954 184.135 139.163 183.981 139.316C183.827 139.47 183.619 139.557 183.401 139.557ZM183.401 155.814H142.343C142.125 155.814 141.916 155.728 141.762 155.574C141.608 155.42 141.522 155.211 141.522 154.994C141.522 154.776 141.608 154.568 141.762 154.414C141.916 154.26 142.125 154.173 142.343 154.173H183.401C183.619 154.173 183.827 154.26 183.981 154.414C184.135 154.568 184.222 154.776 184.222 154.994C184.222 155.211 184.135 155.42 183.981 155.574C183.827 155.728 183.619 155.814 183.401 155.814ZM183.401 172.225H142.343C142.125 172.225 141.916 172.138 141.762 171.984C141.608 171.83 141.522 171.622 141.522 171.404C141.522 171.186 141.608 170.978 141.762 170.824C141.916 170.67 142.125 170.584 142.343 170.584H183.401C183.619 170.584 183.827 170.67 183.981 170.824C184.135 170.978 184.222 171.186 184.222 171.404C184.222 171.622 184.135 171.83 183.981 171.984C183.827 172.138 183.619 172.225 183.401 172.225ZM195.692 96.4183C195.682 96.4183 195.674 96.4133 195.664 96.4142C193.129 96.5003 191.929 99.0365 190.871 101.274C189.767 103.613 188.912 105.133 187.513 105.087C185.963 105.031 185.077 103.28 184.138 101.427C183.06 99.2991 181.829 96.8851 179.245 96.9754C176.746 97.0607 175.542 99.2679 174.48 101.215C173.351 103.289 172.582 104.55 171.099 104.492C169.518 104.435 168.678 103.011 167.705 101.363C166.622 99.5288 165.369 97.4661 162.835 97.5366C160.378 97.6211 159.171 99.4935 158.106 101.147C156.98 102.895 156.19 103.96 154.689 103.896C153.07 103.839 152.234 102.657 151.266 101.29C150.18 99.7528 148.956 98.0133 146.43 98.0978C144.027 98.1799 142.82 99.7143 141.756 101.066C140.745 102.35 139.956 103.366 138.286 103.302C138.068 103.294 137.857 103.373 137.697 103.521C137.538 103.669 137.444 103.875 137.436 104.093C137.428 104.31 137.507 104.522 137.655 104.681C137.804 104.841 138.009 104.935 138.227 104.943C140.702 105.025 141.956 103.466 143.045 102.081C144.011 100.854 144.844 99.7947 146.485 99.7389C148.066 99.6716 148.807 100.654 149.927 102.237C150.992 103.742 152.199 105.449 154.63 105.537C157.176 105.622 158.401 103.719 159.486 102.035C160.455 100.531 161.292 99.2318 162.891 99.1768C164.362 99.1218 165.163 100.285 166.292 102.197C167.356 104 168.561 106.042 171.04 106.132C173.604 106.221 174.842 103.983 175.921 102.001C176.856 100.288 177.738 98.6697 179.301 98.6156C180.772 98.5811 181.539 99.9243 182.674 102.168C183.734 104.263 184.936 106.636 187.454 106.727L187.592 106.73C190.106 106.73 191.299 104.207 192.355 101.976C193.29 99.9982 194.174 98.1356 195.692 98.0593V96.4183Z" fill="black"/>
<path fill-rule="evenodd" clip-rule="evenodd" d="M113.641 196.019H146.462V163.199H113.641V196.019Z" fill="#3ECC5F"/>
<path d="M195.494 110.869L131.676 127.969C130.8 128.203 130.281 129.103 130.515 129.979L136.752 153.253C136.987 154.129 137.886 154.648 138.762 154.414L202.58 137.314C203.455 137.079 203.975 136.179 203.74 135.304L197.504 112.029C197.269 111.154 196.369 110.634 195.494 110.869Z" fill="#D8D8D8"/>
<path d="M150.937 140.71L148.652 141.322C148.214 141.44 147.954 141.89 148.071 142.327L148.684 144.612C148.801 145.05 149.251 145.31 149.689 145.192L151.974 144.58C152.411 144.463 152.671 144.013 152.554 143.575L151.941 141.29C151.824 140.853 151.374 140.593 150.937 140.71Z" fill="#4A4A4A"/>
<path d="M155.523 139.481L153.238 140.093C152.8 140.211 152.541 140.661 152.658 141.098L153.27 143.383C153.387 143.821 153.837 144.081 154.275 143.963L156.56 143.351C156.998 143.234 157.257 142.784 157.14 142.346L156.528 140.061C156.411 139.624 155.961 139.364 155.523 139.481Z" fill="#4A4A4A"/>
<path d="M160.11 138.252L157.825 138.864C157.387 138.982 157.127 139.432 157.244 139.869L157.857 142.154C157.974 142.592 158.424 142.852 158.862 142.734L161.147 142.122C161.584 142.005 161.844 141.555 161.727 141.117L161.114 138.832C160.997 138.395 160.547 138.135 160.11 138.252Z" fill="#4A4A4A"/>
<path d="M164.696 137.023L162.411 137.635C161.973 137.753 161.714 138.203 161.831 138.64L162.443 140.925C162.56 141.363 163.01 141.623 163.448 141.506L165.733 140.893C166.171 140.776 166.431 140.326 166.313 139.888L165.701 137.603C165.584 137.166 165.134 136.906 164.696 137.023Z" fill="#4A4A4A"/>
<path d="M169.283 135.794L166.998 136.407C166.56 136.524 166.3 136.974 166.417 137.411L167.03 139.696C167.147 140.134 167.597 140.394 168.035 140.277L170.32 139.664C170.757 139.547 171.017 139.097 170.9 138.659L170.288 136.374C170.17 135.937 169.72 135.677 169.283 135.794Z" fill="#4A4A4A"/>
<path d="M173.869 134.565L171.584 135.178C171.146 135.295 170.887 135.745 171.004 136.182L171.616 138.467C171.733 138.905 172.183 139.165 172.621 139.048L174.906 138.435C175.344 138.318 175.604 137.868 175.486 137.43L174.874 135.146C174.757 134.708 174.307 134.448 173.869 134.565Z" fill="#4A4A4A"/>
<path d="M178.456 133.336L176.171 133.949C175.733 134.066 175.473 134.516 175.59 134.954L176.203 137.238C176.32 137.676 176.77 137.936 177.208 137.819L179.493 137.206C179.93 137.089 180.19 136.639 180.073 136.201L179.461 133.917C179.343 133.479 178.893 133.219 178.456 133.336Z" fill="#4A4A4A"/>
<path d="M183.042 132.107L180.757 132.72C180.319 132.837 180.06 133.287 180.177 133.725L180.789 136.01C180.907 136.447 181.356 136.707 181.794 136.59L184.079 135.977C184.517 135.86 184.777 135.41 184.659 134.973L184.047 132.688C183.93 132.25 183.48 131.99 183.042 132.107Z" fill="#4A4A4A"/>
<path d="M187.629 130.878L185.344 131.491C184.906 131.608 184.646 132.058 184.763 132.496L185.376 134.781C185.493 135.218 185.943 135.478 186.381 135.361L188.666 134.749C189.103 134.631 189.363 134.181 189.246 133.744L188.634 131.459C188.516 131.021 188.066 130.761 187.629 130.878Z" fill="#4A4A4A"/>
<path fill-rule="evenodd" clip-rule="evenodd" d="M136.469 144.587L146.207 141.978C146.417 141.922 146.641 141.951 146.829 142.06C147.018 142.169 147.155 142.348 147.212 142.558L147.824 144.843C147.88 145.053 147.851 145.277 147.742 145.465C147.633 145.654 147.454 145.791 147.244 145.848L137.506 148.457C137.296 148.513 137.072 148.483 136.884 148.375C136.695 148.266 136.558 148.087 136.501 147.876L135.889 145.592C135.833 145.381 135.862 145.157 135.971 144.969C136.08 144.78 136.259 144.643 136.469 144.587L136.469 144.587ZM190.073 130.224L199.811 127.615C200.021 127.559 200.245 127.588 200.434 127.697C200.622 127.806 200.76 127.985 200.816 128.195L201.428 130.479C201.484 130.69 201.455 130.914 201.346 131.102C201.237 131.29 201.058 131.428 200.848 131.484L191.109 134.094C190.899 134.15 190.675 134.121 190.486 134.012C190.298 133.903 190.16 133.724 190.104 133.514L189.492 131.229C189.436 131.018 189.465 130.795 189.574 130.606C189.683 130.418 189.862 130.28 190.072 130.224L190.073 130.224Z" fill="#4A4A4A"/>
<path fill-rule="evenodd" clip-rule="evenodd" d="M133.988 135.326L137.705 134.33C137.915 134.273 138.139 134.303 138.327 134.412C138.516 134.52 138.653 134.7 138.71 134.91L139.322 137.194C139.378 137.404 139.349 137.628 139.24 137.817C139.131 138.005 138.952 138.143 138.742 138.199L135.025 139.195C134.814 139.251 134.59 139.222 134.402 139.113C134.213 139.004 134.076 138.825 134.02 138.615L133.408 136.331C133.351 136.12 133.381 135.896 133.49 135.708C133.598 135.519 133.778 135.382 133.988 135.326Z" fill="#4A4A4A"/>
<path d="M142.292 133.1L140.007 133.713C139.569 133.83 139.31 134.28 139.427 134.718L140.039 137.003C140.157 137.44 140.606 137.7 141.044 137.583L143.329 136.97C143.767 136.853 144.027 136.403 143.909 135.966L143.297 133.681C143.18 133.243 142.73 132.983 142.292 133.1Z" fill="#4A4A4A"/>
<path d="M146.879 131.871L144.594 132.484C144.156 132.601 143.896 133.051 144.014 133.489L144.626 135.774C144.743 136.211 145.193 136.471 145.631 136.354L147.916 135.742C148.353 135.624 148.613 135.174 148.496 134.737L147.884 132.452C147.766 132.014 147.316 131.754 146.879 131.871Z" fill="#4A4A4A"/>
<path d="M151.465 130.643L149.18 131.255C148.743 131.372 148.483 131.822 148.6 132.26L149.212 134.545C149.33 134.982 149.78 135.242 150.217 135.125L152.502 134.513C152.94 134.395 153.2 133.945 153.082 133.508L152.47 131.223C152.353 130.785 151.903 130.525 151.465 130.643Z" fill="#4A4A4A"/>
<path d="M156.052 129.414L153.767 130.026C153.329 130.143 153.069 130.593 153.187 131.031L153.799 133.316C153.916 133.753 154.366 134.013 154.804 133.896L157.089 133.284C157.526 133.166 157.786 132.716 157.669 132.279L157.057 129.994C156.939 129.556 156.489 129.296 156.052 129.414Z" fill="#4A4A4A"/>
<path d="M160.638 128.185L158.353 128.797C157.916 128.914 157.656 129.364 157.773 129.802L158.385 132.087C158.503 132.524 158.953 132.784 159.39 132.667L161.675 132.055C162.113 131.937 162.373 131.487 162.255 131.05L161.643 128.765C161.526 128.327 161.076 128.067 160.638 128.185Z" fill="#4A4A4A"/>
<path d="M165.225 126.956L162.94 127.568C162.502 127.685 162.242 128.135 162.36 128.573L162.972 130.858C163.089 131.295 163.539 131.555 163.977 131.438L166.262 130.826C166.699 130.708 166.959 130.259 166.842 129.821L166.23 127.536C166.112 127.098 165.662 126.838 165.225 126.956Z" fill="#4A4A4A"/>
<path d="M169.811 125.727L167.526 126.339C167.089 126.456 166.829 126.906 166.946 127.344L167.558 129.629C167.676 130.067 168.126 130.326 168.563 130.209L170.848 129.597C171.286 129.479 171.546 129.03 171.428 128.592L170.816 126.307C170.699 125.869 170.249 125.609 169.811 125.727Z" fill="#4A4A4A"/>
<path d="M174.398 124.498L172.113 125.11C171.675 125.227 171.415 125.677 171.533 126.115L172.145 128.4C172.262 128.838 172.712 129.097 173.15 128.98L175.435 128.368C175.872 128.251 176.132 127.801 176.015 127.363L175.403 125.078C175.285 124.64 174.835 124.38 174.398 124.498Z" fill="#4A4A4A"/>
<path d="M178.983 123.269L176.699 123.881C176.261 123.999 176.001 124.448 176.118 124.886L176.731 127.171C176.848 127.609 177.298 127.869 177.736 127.751L180.02 127.139C180.458 127.022 180.718 126.572 180.601 126.134L179.988 123.849C179.871 123.411 179.421 123.152 178.983 123.269Z" fill="#4A4A4A"/>
<path d="M183.57 122.04L181.285 122.652C180.847 122.77 180.588 123.22 180.705 123.657L181.317 125.942C181.434 126.38 181.884 126.64 182.322 126.522L184.607 125.91C185.045 125.793 185.304 125.343 185.187 124.905L184.575 122.62C184.458 122.183 184.008 121.923 183.57 122.04Z" fill="#4A4A4A"/>
<path d="M188.156 120.811L185.872 121.423C185.434 121.541 185.174 121.991 185.291 122.428L185.904 124.713C186.021 125.151 186.471 125.411 186.909 125.293L189.193 124.681C189.631 124.564 189.891 124.114 189.774 123.676L189.161 121.391C189.044 120.954 188.594 120.694 188.156 120.811Z" fill="#4A4A4A"/>
<path d="M192.743 119.582L190.458 120.194C190.02 120.312 189.761 120.762 189.878 121.199L190.49 123.484C190.607 123.922 191.057 124.182 191.495 124.064L193.78 123.452C194.218 123.335 194.477 122.885 194.36 122.447L193.748 120.162C193.631 119.725 193.181 119.465 192.743 119.582Z" fill="#4A4A4A"/>
<path d="M197.33 118.353L195.045 118.965C194.607 119.083 194.347 119.533 194.464 119.97L195.077 122.255C195.194 122.693 195.644 122.953 196.082 122.836L198.366 122.223C198.804 122.106 199.064 121.656 198.947 121.218L198.334 118.933C198.217 118.496 197.767 118.236 197.33 118.353Z" fill="#4A4A4A"/>
<path fill-rule="evenodd" clip-rule="evenodd" d="M197.191 117.835L193.473 118.831C193.263 118.887 193.039 118.858 192.85 118.749C192.662 118.64 192.524 118.461 192.468 118.251L191.856 115.966C191.799 115.756 191.829 115.532 191.938 115.343C192.046 115.155 192.226 115.017 192.436 114.961L196.154 113.965C196.364 113.909 196.588 113.938 196.776 114.047C196.965 114.156 197.102 114.335 197.159 114.545L197.771 116.83C197.827 117.04 197.798 117.264 197.689 117.453C197.58 117.641 197.401 117.779 197.191 117.835Z" fill="#4A4A4A"/>
<path d="M188.886 120.06L191.171 119.448C191.609 119.331 191.869 118.881 191.751 118.443L191.139 116.158C191.022 115.72 190.572 115.46 190.134 115.578L187.849 116.19C187.412 116.307 187.152 116.757 187.269 117.195L187.881 119.48C187.999 119.918 188.449 120.177 188.886 120.06Z" fill="#4A4A4A"/>
<path d="M184.3 121.289L186.585 120.677C187.022 120.559 187.282 120.11 187.165 119.672L186.553 117.387C186.435 116.949 185.985 116.689 185.548 116.807L183.263 117.419C182.825 117.536 182.565 117.986 182.683 118.424L183.295 120.709C183.412 121.147 183.862 121.406 184.3 121.289Z" fill="#4A4A4A"/>
<path d="M179.713 122.518L181.998 121.906C182.436 121.788 182.696 121.339 182.578 120.901L181.966 118.616C181.849 118.178 181.399 117.918 180.961 118.036L178.676 118.648C178.239 118.765 177.979 119.215 178.096 119.653L178.708 121.938C178.826 122.375 179.276 122.635 179.713 122.518Z" fill="#4A4A4A"/>
<path d="M175.127 123.747L177.412 123.135C177.849 123.017 178.109 122.567 177.992 122.13L177.38 119.845C177.262 119.407 176.812 119.147 176.375 119.265L174.09 119.877C173.652 119.994 173.392 120.444 173.51 120.882L174.122 123.167C174.239 123.604 174.689 123.864 175.127 123.747Z" fill="#4A4A4A"/>
<path d="M170.54 124.976L172.825 124.364C173.263 124.246 173.523 123.796 173.405 123.359L172.793 121.074C172.676 120.636 172.226 120.376 171.788 120.494L169.503 121.106C169.066 121.223 168.806 121.673 168.923 122.111L169.535 124.396C169.653 124.833 170.102 125.093 170.54 124.976Z" fill="#4A4A4A"/>
<path d="M165.954 126.205L168.239 125.593C168.676 125.475 168.936 125.025 168.819 124.588L168.207 122.303C168.089 121.865 167.639 121.605 167.202 121.723L164.917 122.335C164.479 122.452 164.219 122.902 164.337 123.34L164.949 125.625C165.066 126.062 165.516 126.322 165.954 126.205Z" fill="#4A4A4A"/>
<path d="M161.367 127.434L163.652 126.822C164.09 126.704 164.35 126.254 164.232 125.817L163.62 123.532C163.503 123.094 163.053 122.834 162.615 122.951L160.33 123.564C159.892 123.681 159.633 124.131 159.75 124.569L160.362 126.854C160.48 127.291 160.929 127.551 161.367 127.434Z" fill="#4A4A4A"/>
<path d="M156.781 128.663L159.066 128.05C159.503 127.933 159.763 127.483 159.646 127.046L159.034 124.761C158.916 124.323 158.466 124.063 158.029 124.18L155.744 124.793C155.306 124.91 155.046 125.36 155.164 125.798L155.776 128.083C155.893 128.52 156.343 128.78 156.781 128.663Z" fill="#4A4A4A"/>
<path d="M152.194 129.892L154.479 129.279C154.917 129.162 155.177 128.712 155.059 128.274L154.447 125.99C154.33 125.552 153.88 125.292 153.442 125.409L151.157 126.022C150.719 126.139 150.46 126.589 150.577 127.027L151.189 129.311C151.307 129.749 151.756 130.009 152.194 129.892Z" fill="#4A4A4A"/>
<path d="M147.608 131.121L149.893 130.508C150.33 130.391 150.59 129.941 150.473 129.503L149.861 127.219C149.743 126.781 149.293 126.521 148.856 126.638L146.571 127.251C146.133 127.368 145.873 127.818 145.99 128.255L146.603 130.54C146.72 130.978 147.17 131.238 147.608 131.121Z" fill="#4A4A4A"/>
<path d="M143.021 132.35L145.306 131.737C145.744 131.62 146.004 131.17 145.886 130.732L145.274 128.447C145.157 128.01 144.707 127.75 144.269 127.867L141.984 128.48C141.546 128.597 141.287 129.047 141.404 129.484L142.016 131.769C142.133 132.207 142.583 132.467 143.021 132.35Z" fill="#4A4A4A"/>
<path d="M138.435 133.579L140.72 132.966C141.157 132.849 141.417 132.399 141.3 131.961L140.687 129.676C140.57 129.239 140.12 128.979 139.683 129.096L137.398 129.708C136.96 129.826 136.7 130.276 136.817 130.713L137.43 132.998C137.547 133.436 137.997 133.696 138.435 133.579Z" fill="#4A4A4A"/>
<path d="M133.849 134.807L136.134 134.195C136.572 134.078 136.831 133.628 136.714 133.19L136.102 130.905C135.984 130.467 135.535 130.208 135.097 130.325L132.812 130.937C132.374 131.055 132.114 131.504 132.232 131.942L132.844 134.227C132.961 134.665 133.411 134.925 133.849 134.807Z" fill="#4A4A4A"/>
<path d="M188.886 120.06L191.171 119.448C191.609 119.331 191.869 118.881 191.751 118.443L191.139 116.158C191.022 115.72 190.572 115.46 190.134 115.578L187.849 116.19C187.412 116.307 187.152 116.757 187.269 117.195L187.881 119.48C187.999 119.918 188.449 120.177 188.886 120.06Z" fill="#4A4A4A"/>
<path d="M184.3 121.289L186.585 120.677C187.022 120.559 187.282 120.11 187.165 119.672L186.553 117.387C186.435 116.949 185.985 116.689 185.548 116.807L183.263 117.419C182.825 117.536 182.565 117.986 182.683 118.424L183.295 120.709C183.412 121.147 183.862 121.406 184.3 121.289Z" fill="#4A4A4A"/>
<path d="M179.713 122.518L181.998 121.906C182.436 121.788 182.696 121.339 182.578 120.901L181.966 118.616C181.849 118.178 181.399 117.918 180.961 118.036L178.676 118.648C178.239 118.765 177.979 119.215 178.096 119.653L178.708 121.938C178.826 122.375 179.276 122.635 179.713 122.518Z" fill="#4A4A4A"/>
<path d="M175.127 123.747L177.412 123.135C177.849 123.017 178.109 122.567 177.992 122.13L177.38 119.845C177.262 119.407 176.812 119.147 176.375 119.265L174.09 119.877C173.652 119.994 173.392 120.444 173.51 120.882L174.122 123.167C174.239 123.604 174.689 123.864 175.127 123.747Z" fill="#4A4A4A"/>
<path d="M170.54 124.976L172.825 124.364C173.263 124.246 173.523 123.796 173.405 123.359L172.793 121.074C172.676 120.636 172.226 120.376 171.788 120.494L169.503 121.106C169.066 121.223 168.806 121.673 168.923 122.111L169.535 124.396C169.653 124.833 170.102 125.093 170.54 124.976Z" fill="#4A4A4A"/>
<path d="M165.954 126.205L168.239 125.593C168.676 125.475 168.936 125.025 168.819 124.588L168.207 122.303C168.089 121.865 167.639 121.605 167.202 121.723L164.917 122.335C164.479 122.452 164.219 122.902 164.337 123.34L164.949 125.625C165.066 126.062 165.516 126.322 165.954 126.205Z" fill="#4A4A4A"/>
<path d="M161.367 127.434L163.652 126.822C164.09 126.704 164.35 126.254 164.232 125.817L163.62 123.532C163.503 123.094 163.053 122.834 162.615 122.951L160.33 123.564C159.892 123.681 159.633 124.131 159.75 124.569L160.362 126.854C160.48 127.291 160.929 127.551 161.367 127.434Z" fill="#4A4A4A"/>
<path d="M156.781 128.663L159.066 128.05C159.503 127.933 159.763 127.483 159.646 127.046L159.034 124.761C158.916 124.323 158.466 124.063 158.029 124.18L155.744 124.793C155.306 124.91 155.046 125.36 155.164 125.798L155.776 128.083C155.893 128.52 156.343 128.78 156.781 128.663Z" fill="#4A4A4A"/>
<path d="M152.194 129.892L154.479 129.279C154.917 129.162 155.177 128.712 155.059 128.274L154.447 125.99C154.33 125.552 153.88 125.292 153.442 125.409L151.157 126.022C150.719 126.139 150.46 126.589 150.577 127.027L151.189 129.311C151.307 129.749 151.756 130.009 152.194 129.892Z" fill="#4A4A4A"/>
<path d="M147.608 131.121L149.893 130.508C150.33 130.391 150.59 129.941 150.473 129.503L149.861 127.219C149.743 126.781 149.293 126.521 148.856 126.638L146.571 127.251C146.133 127.368 145.873 127.818 145.99 128.255L146.603 130.54C146.72 130.978 147.17 131.238 147.608 131.121Z" fill="#4A4A4A"/>
<path d="M143.021 132.35L145.306 131.737C145.744 131.62 146.004 131.17 145.886 130.732L145.274 128.447C145.157 128.01 144.707 127.75 144.269 127.867L141.984 128.48C141.546 128.597 141.287 129.047 141.404 129.484L142.016 131.769C142.133 132.207 142.583 132.467 143.021 132.35Z" fill="#4A4A4A"/>
<path d="M138.435 133.579L140.72 132.966C141.157 132.849 141.417 132.399 141.3 131.961L140.687 129.676C140.57 129.239 140.12 128.979 139.683 129.096L137.398 129.708C136.96 129.826 136.7 130.276 136.817 130.713L137.43 132.998C137.547 133.436 137.997 133.696 138.435 133.579Z" fill="#4A4A4A"/>
<path d="M133.849 134.807L136.134 134.195C136.572 134.078 136.831 133.628 136.714 133.19L136.102 130.905C135.984 130.467 135.535 130.208 135.097 130.325L132.812 130.937C132.374 131.055 132.114 131.504 132.232 131.942L132.844 134.227C132.961 134.665 133.411 134.925 133.849 134.807Z" fill="#4A4A4A"/>
<path fill-rule="evenodd" clip-rule="evenodd" d="M135.217 139.911L140.511 138.493C140.721 138.436 140.945 138.466 141.133 138.575C141.322 138.684 141.459 138.863 141.516 139.073L142.128 141.358C142.184 141.568 142.155 141.792 142.046 141.98C141.937 142.169 141.758 142.306 141.548 142.363L136.253 143.781C136.043 143.838 135.819 143.808 135.631 143.699C135.442 143.591 135.305 143.411 135.249 143.201L134.637 140.917C134.58 140.707 134.61 140.483 134.718 140.294C134.827 140.106 135.007 139.968 135.217 139.912L135.217 139.911Z" fill="#4A4A4A"/>
<path d="M145.241 137.225L142.956 137.838C142.518 137.955 142.258 138.405 142.376 138.842L142.988 141.127C143.105 141.565 143.555 141.825 143.993 141.708L146.278 141.095C146.715 140.978 146.975 140.528 146.858 140.09L146.246 137.806C146.128 137.368 145.678 137.108 145.241 137.225Z" fill="#4A4A4A"/>
<path d="M149.827 135.996L147.542 136.609C147.105 136.726 146.845 137.176 146.962 137.614L147.574 139.898C147.692 140.336 148.142 140.596 148.579 140.479L150.864 139.866C151.302 139.749 151.562 139.299 151.444 138.861L150.832 136.577C150.715 136.139 150.265 135.879 149.827 135.996Z" fill="#4A4A4A"/>
<path d="M154.414 134.767L152.129 135.38C151.691 135.497 151.431 135.947 151.549 136.385L152.161 138.67C152.278 139.107 152.728 139.367 153.166 139.25L155.451 138.637C155.888 138.52 156.148 138.07 156.031 137.633L155.419 135.348C155.301 134.91 154.851 134.65 154.414 134.767Z" fill="#4A4A4A"/>
<path d="M159 133.538L156.715 134.151C156.278 134.268 156.018 134.718 156.135 135.156L156.747 137.441C156.865 137.878 157.315 138.138 157.752 138.021L160.037 137.409C160.475 137.291 160.735 136.841 160.617 136.404L160.005 134.119C159.888 133.681 159.438 133.421 159 133.538Z" fill="#4A4A4A"/>
<path d="M163.587 132.31L161.302 132.922C160.864 133.039 160.604 133.489 160.722 133.927L161.334 136.212C161.451 136.649 161.901 136.909 162.339 136.792L164.624 136.18C165.061 136.062 165.321 135.612 165.204 135.175L164.592 132.89C164.474 132.452 164.024 132.192 163.587 132.31Z" fill="#4A4A4A"/>
<path d="M168.173 131.081L165.888 131.693C165.451 131.81 165.191 132.26 165.308 132.698L165.92 134.983C166.038 135.42 166.488 135.68 166.925 135.563L169.21 134.951C169.648 134.833 169.908 134.383 169.79 133.946L169.178 131.661C169.061 131.223 168.611 130.963 168.173 131.081Z" fill="#4A4A4A"/>
<path d="M172.76 129.852L170.475 130.464C170.037 130.581 169.777 131.031 169.895 131.469L170.507 133.754C170.624 134.191 171.074 134.451 171.512 134.334L173.797 133.722C174.234 133.604 174.494 133.154 174.377 132.717L173.765 130.432C173.647 129.994 173.198 129.734 172.76 129.852Z" fill="#4A4A4A"/>
<path d="M177.346 128.623L175.061 129.235C174.623 129.352 174.363 129.802 174.48 130.24L175.093 132.525C175.21 132.963 175.66 133.222 176.098 133.105L178.382 132.493C178.82 132.376 179.08 131.926 178.963 131.488L178.35 129.203C178.233 128.765 177.783 128.506 177.346 128.623Z" fill="#4A4A4A"/>
<path d="M181.932 127.394L179.647 128.006C179.209 128.123 178.95 128.573 179.067 129.011L179.679 131.296C179.796 131.734 180.246 131.994 180.684 131.876L182.969 131.264C183.407 131.147 183.666 130.697 183.549 130.259L182.937 127.974C182.82 127.536 182.37 127.277 181.932 127.394Z" fill="#4A4A4A"/>
<path d="M186.519 126.165L184.234 126.777C183.796 126.895 183.536 127.344 183.653 127.782L184.266 130.067C184.383 130.505 184.833 130.765 185.271 130.647L187.556 130.035C187.993 129.918 188.253 129.468 188.136 129.03L187.523 126.745C187.406 126.307 186.956 126.048 186.519 126.165Z" fill="#4A4A4A"/>
<path d="M191.105 124.936L188.82 125.548C188.382 125.666 188.123 126.115 188.24 126.553L188.852 128.838C188.969 129.276 189.419 129.536 189.857 129.418L192.142 128.806C192.58 128.689 192.84 128.239 192.722 127.801L192.11 125.516C191.993 125.078 191.543 124.819 191.105 124.936Z" fill="#4A4A4A"/>
<path fill-rule="evenodd" clip-rule="evenodd" d="M193.551 124.281L198.558 122.939C198.768 122.883 198.992 122.912 199.181 123.021C199.369 123.13 199.507 123.309 199.563 123.519L200.175 125.804C200.232 126.014 200.202 126.238 200.093 126.427C199.985 126.615 199.805 126.753 199.595 126.809L194.587 128.151C194.377 128.207 194.153 128.178 193.964 128.069C193.776 127.96 193.639 127.781 193.582 127.571L192.97 125.287C192.914 125.076 192.943 124.852 193.052 124.664C193.161 124.476 193.34 124.338 193.55 124.282L193.551 124.281Z" fill="#4A4A4A"/>
<path d="M140.036 148.759L137.751 149.371C137.314 149.489 137.054 149.938 137.171 150.376L137.783 152.661C137.901 153.099 138.351 153.359 138.788 153.241L141.073 152.629C141.511 152.512 141.771 152.062 141.653 151.624L141.041 149.339C140.924 148.901 140.474 148.642 140.036 148.759Z" fill="#4A4A4A"/>
<path d="M144.623 147.53L142.338 148.142C141.9 148.26 141.64 148.709 141.758 149.147L142.37 151.432C142.487 151.87 142.937 152.13 143.375 152.012L145.66 151.4C146.097 151.283 146.357 150.833 146.24 150.395L145.628 148.11C145.51 147.673 145.06 147.413 144.623 147.53Z" fill="#4A4A4A"/>
<path d="M149.209 146.301L146.924 146.913C146.487 147.031 146.227 147.481 146.344 147.918L146.956 150.203C147.074 150.641 147.524 150.901 147.961 150.783L150.246 150.171C150.684 150.054 150.944 149.604 150.826 149.166L150.214 146.881C150.097 146.444 149.647 146.184 149.209 146.301Z" fill="#4A4A4A"/>
<path d="M153.796 145.072L151.511 145.684C151.073 145.802 150.813 146.252 150.931 146.689L151.543 148.974C151.66 149.412 152.11 149.672 152.548 149.554L154.833 148.942C155.27 148.825 155.53 148.375 155.413 147.937L154.801 145.652C154.683 145.215 154.233 144.955 153.796 145.072Z" fill="#4A4A4A"/>
<path fill-rule="evenodd" clip-rule="evenodd" d="M156.097 144.456L178.161 138.543C178.371 138.487 178.595 138.517 178.784 138.625C178.972 138.734 179.11 138.913 179.166 139.124L179.779 141.409C179.835 141.62 179.805 141.844 179.697 142.032C179.588 142.22 179.409 142.358 179.198 142.414L157.134 148.326C156.924 148.383 156.7 148.353 156.511 148.245C156.323 148.136 156.185 147.956 156.129 147.746L155.516 145.461C155.46 145.25 155.49 145.026 155.598 144.838C155.707 144.649 155.886 144.512 156.097 144.456ZM180.462 137.927L183.321 137.161C183.531 137.105 183.755 137.134 183.943 137.243C184.132 137.352 184.269 137.531 184.326 137.741L184.938 140.027C184.994 140.237 184.965 140.461 184.856 140.649C184.747 140.838 184.568 140.975 184.358 141.032L181.499 141.798C181.289 141.854 181.065 141.825 180.877 141.716C180.688 141.607 180.551 141.428 180.494 141.218L179.882 138.932C179.826 138.722 179.855 138.498 179.964 138.309C180.073 138.121 180.252 137.983 180.462 137.927Z" fill="#4A4A4A"/>
<path d="M187.907 135.932L185.622 136.544C185.185 136.662 184.925 137.111 185.042 137.549L185.654 139.834C185.772 140.272 186.222 140.532 186.659 140.414L188.944 139.802C189.382 139.685 189.642 139.235 189.524 138.797L188.912 136.512C188.795 136.074 188.345 135.815 187.907 135.932Z" fill="#4A4A4A"/>
<path d="M192.494 134.703L190.209 135.315C189.771 135.433 189.511 135.882 189.629 136.32L190.241 138.605C190.358 139.043 190.808 139.303 191.246 139.185L193.531 138.573C193.969 138.456 194.228 138.006 194.111 137.568L193.499 135.283C193.381 134.846 192.932 134.586 192.494 134.703Z" fill="#4A4A4A"/>
<path d="M201.093 132.399L198.808 133.011C198.37 133.128 198.111 133.578 198.228 134.016L198.84 136.301C198.957 136.739 199.407 136.998 199.845 136.881L202.13 136.269C202.568 136.152 202.827 135.702 202.71 135.264L202.098 132.979C201.981 132.541 201.531 132.282 201.093 132.399Z" fill="#4A4A4A"/>
<path d="M194.157 136.024L193.928 135.168C193.871 134.958 193.901 134.734 194.009 134.546C194.118 134.357 194.297 134.22 194.508 134.163L196.793 133.551C197.003 133.495 197.227 133.524 197.415 133.633C197.604 133.742 197.741 133.921 197.798 134.131L198.027 134.987L194.157 136.024Z" fill="#4A4A4A"/>
<path d="M198.181 135.56L198.411 136.416C198.467 136.626 198.437 136.85 198.329 137.039C198.22 137.227 198.041 137.365 197.83 137.421L195.545 138.033C195.335 138.09 195.111 138.06 194.923 137.951C194.734 137.842 194.597 137.663 194.541 137.453L194.311 136.597L198.181 135.56Z" fill="#4A4A4A"/>
<path d="M195.352 111.816L132.575 128.638C132.1 128.765 131.818 129.253 131.945 129.728C132.072 130.203 132.56 130.485 133.035 130.357L195.813 113.536C196.288 113.409 196.57 112.921 196.442 112.446C196.315 111.971 195.827 111.689 195.352 111.816Z" fill="#4A4A4A"/>
<path opacity="0.136" d="M136.412 127.917L133.942 128.579C133.625 128.664 133.437 128.989 133.522 129.305L133.522 129.306C133.607 129.623 133.933 129.81 134.249 129.726L136.719 129.064C137.036 128.979 137.224 128.654 137.139 128.337L137.139 128.336C137.054 128.02 136.729 127.832 136.412 127.917Z" fill="#D8D8D8"/>
<path opacity="0.136" d="M141.361 126.591L138.89 127.253C138.574 127.338 138.386 127.663 138.471 127.979L138.471 127.98C138.556 128.297 138.881 128.484 139.198 128.4L141.668 127.738C141.985 127.653 142.172 127.328 142.088 127.011L142.087 127.01C142.003 126.694 141.677 126.506 141.361 126.591Z" fill="#D8D8D8"/>
<path opacity="0.136" d="M145.168 125.571L142.698 126.233C142.381 126.317 142.194 126.643 142.278 126.959L142.279 126.96C142.363 127.276 142.689 127.464 143.005 127.379L145.476 126.717C145.792 126.633 145.98 126.307 145.895 125.991L145.895 125.99C145.81 125.674 145.485 125.486 145.168 125.571Z" fill="#D8D8D8"/>
<path opacity="0.136" d="M148.975 124.551L146.505 125.213C146.188 125.297 146 125.623 146.085 125.939L146.085 125.94C146.17 126.256 146.495 126.444 146.812 126.359L149.282 125.697C149.599 125.613 149.786 125.287 149.702 124.971L149.701 124.97C149.617 124.654 149.291 124.466 148.975 124.551Z" fill="#D8D8D8"/>
<path opacity="0.136" d="M152.782 123.53L150.312 124.192C149.995 124.277 149.808 124.602 149.892 124.919L149.893 124.92C149.977 125.236 150.303 125.424 150.619 125.339L153.09 124.677C153.406 124.592 153.594 124.267 153.509 123.951L153.509 123.95C153.424 123.633 153.099 123.446 152.782 123.53Z" fill="#D8D8D8"/>
<path opacity="0.136" d="M157.541 122.255L155.07 122.917C154.754 123.002 154.566 123.327 154.651 123.644L154.651 123.645C154.736 123.961 155.061 124.149 155.378 124.064L157.848 123.402C158.165 123.317 158.352 122.992 158.268 122.676L158.267 122.675C158.183 122.358 157.857 122.171 157.541 122.255Z" fill="#D8D8D8"/>
<path opacity="0.136" d="M161.347 121.235L158.877 121.897C158.561 121.982 158.373 122.307 158.458 122.624L158.458 122.625C158.543 122.941 158.868 123.129 159.184 123.044L161.655 122.382C161.971 122.297 162.159 121.972 162.074 121.656L162.074 121.655C161.989 121.338 161.664 121.151 161.347 121.235Z" fill="#D8D8D8"/>
<path opacity="0.136" d="M165.155 120.215L162.685 120.877C162.368 120.962 162.18 121.287 162.265 121.604L162.265 121.605C162.35 121.921 162.675 122.109 162.992 122.024L165.462 121.362C165.779 121.277 165.966 120.952 165.882 120.636L165.881 120.635C165.797 120.318 165.471 120.13 165.155 120.215Z" fill="#D8D8D8"/>
<path opacity="0.136" d="M168.962 119.195L166.491 119.857C166.175 119.942 165.987 120.267 166.072 120.584L166.072 120.585C166.157 120.901 166.482 121.089 166.798 121.004L169.269 120.342C169.585 120.257 169.773 119.932 169.688 119.616L169.688 119.615C169.603 119.298 169.278 119.11 168.962 119.195Z" fill="#D8D8D8"/>
<path opacity="0.136" d="M173.721 117.92L171.25 118.582C170.934 118.667 170.746 118.992 170.831 119.309L170.831 119.309C170.916 119.626 171.241 119.814 171.558 119.729L174.028 119.067C174.345 118.982 174.532 118.657 174.448 118.34L174.447 118.339C174.363 118.023 174.037 117.835 173.721 117.92Z" fill="#D8D8D8"/>
<path opacity="0.136" d="M177.527 116.9L175.057 117.562C174.741 117.647 174.553 117.972 174.638 118.289L174.638 118.289C174.723 118.606 175.048 118.794 175.364 118.709L177.835 118.047C178.151 117.962 178.339 117.637 178.254 117.32L178.254 117.32C178.169 117.003 177.844 116.815 177.527 116.9Z" fill="#D8D8D8"/>
<path opacity="0.136" d="M181.335 115.88L178.865 116.542C178.548 116.627 178.36 116.952 178.445 117.268L178.445 117.269C178.53 117.586 178.855 117.773 179.172 117.689L181.642 117.027C181.959 116.942 182.146 116.617 182.062 116.3L182.061 116.299C181.977 115.983 181.651 115.795 181.335 115.88Z" fill="#D8D8D8"/>
<path opacity="0.136" d="M186.093 114.605L183.623 115.267C183.307 115.352 183.119 115.677 183.204 115.993L183.204 115.994C183.289 116.311 183.614 116.498 183.93 116.414L186.401 115.752C186.717 115.667 186.905 115.342 186.82 115.025L186.82 115.024C186.735 114.708 186.41 114.52 186.093 114.605Z" fill="#D8D8D8"/>
<path opacity="0.136" d="M189.9 113.585L187.43 114.247C187.113 114.332 186.925 114.657 187.01 114.973L187.01 114.974C187.095 115.291 187.42 115.478 187.737 115.394L190.207 114.732C190.524 114.647 190.712 114.322 190.627 114.005L190.627 114.004C190.542 113.688 190.217 113.5 189.9 113.585Z" fill="#D8D8D8"/>
<path opacity="0.136" d="M193.708 112.565L191.237 113.227C190.921 113.311 190.733 113.637 190.818 113.953L190.818 113.954C190.903 114.27 191.228 114.458 191.544 114.373L194.015 113.711C194.331 113.627 194.519 113.301 194.434 112.985L194.434 112.984C194.349 112.668 194.024 112.48 193.708 112.565Z" fill="#D8D8D8"/>
<path fill-rule="evenodd" clip-rule="evenodd" d="M162.872 175.507C162.692 175.507 162.521 175.537 162.347 175.559C162.316 175.436 162.287 175.312 162.252 175.189C163.127 174.824 163.847 174.167 164.292 173.33C164.737 172.493 164.879 171.528 164.692 170.599C164.506 169.669 164.004 168.833 163.272 168.232C162.539 167.631 161.621 167.302 160.673 167.302C159.777 167.305 158.907 167.604 158.198 168.152C158.107 168.059 158.016 167.967 157.923 167.876C158.459 167.171 158.751 166.311 158.753 165.425C158.752 164.48 158.425 163.564 157.827 162.832C157.229 162.1 156.397 161.597 155.471 161.408C154.544 161.219 153.581 161.355 152.744 161.794C151.907 162.234 151.248 162.948 150.877 163.818C150.755 163.783 150.633 163.754 150.512 163.723C150.534 163.55 150.564 163.379 150.564 163.199C150.564 162.111 150.132 161.067 149.362 160.298C148.593 159.529 147.55 159.096 146.462 159.096C145.373 159.096 144.33 159.529 143.561 160.298C142.791 161.067 142.359 162.111 142.359 163.199C142.359 163.379 142.389 163.55 142.411 163.723C142.29 163.754 142.168 163.783 142.046 163.818C141.677 162.947 141.017 162.23 140.18 161.79C139.342 161.349 138.378 161.212 137.451 161.401C136.524 161.59 135.691 162.094 135.093 162.828C134.495 163.561 134.169 164.479 134.17 165.425C134.17 166.348 134.485 167.19 135 167.876C131.95 170.856 130.051 175.009 130.051 179.609C130.051 188.673 137.398 196.019 146.462 196.019C154.124 196.019 160.542 190.76 162.347 183.659C162.521 183.681 162.692 183.712 162.872 183.712C163.96 183.712 165.003 183.28 165.773 182.51C166.542 181.741 166.974 180.697 166.974 179.609C166.974 178.521 166.542 177.478 165.773 176.708C165.003 175.939 163.96 175.507 162.872 175.507Z" fill="#44D860"/>
<path fill-rule="evenodd" clip-rule="evenodd" d="M113.641 146.789H146.462V130.378H113.641V146.789Z" fill="#3ECC5F"/>
<path fill-rule="evenodd" clip-rule="evenodd" d="M154.667 140.635C155.211 140.635 155.732 140.419 156.117 140.034C156.502 139.649 156.718 139.128 156.718 138.584C156.718 138.04 156.502 137.518 156.117 137.133C155.732 136.748 155.211 136.532 154.667 136.532C154.577 136.532 154.491 136.548 154.405 136.559C154.389 136.497 154.375 136.435 154.357 136.374C154.794 136.191 155.154 135.862 155.376 135.444C155.598 135.025 155.668 134.543 155.575 134.079C155.482 133.614 155.231 133.197 154.865 132.896C154.499 132.595 154.041 132.431 153.567 132.43C153.1 132.43 152.674 132.591 152.33 132.855C152.285 132.808 152.239 132.762 152.192 132.717C152.45 132.375 152.607 131.953 152.607 131.491C152.607 131.018 152.444 130.56 152.145 130.194C151.845 129.828 151.429 129.576 150.966 129.482C150.503 129.387 150.021 129.456 149.602 129.676C149.184 129.895 148.854 130.253 148.669 130.688C147.951 130.485 147.208 130.381 146.462 130.378C141.931 130.378 138.256 134.053 138.256 138.584C138.256 143.114 141.931 146.789 146.462 146.789C147.228 146.789 147.966 146.675 148.669 146.479C148.854 146.914 149.184 147.272 149.602 147.492C150.021 147.711 150.503 147.78 150.966 147.685C151.429 147.591 151.845 147.339 152.145 146.973C152.444 146.607 152.607 146.149 152.607 145.676C152.607 145.214 152.45 144.792 152.192 144.45C152.239 144.405 152.285 144.359 152.33 144.312C152.674 144.576 153.1 144.737 153.567 144.737C154.041 144.737 154.501 144.573 154.867 144.273C155.234 143.972 155.485 143.554 155.578 143.089C155.671 142.624 155.601 142.142 155.378 141.723C155.156 141.304 154.795 140.976 154.357 140.793C154.375 140.733 154.389 140.67 154.405 140.609C154.491 140.619 154.577 140.635 154.667 140.635Z" fill="#44D860"/>
<path fill-rule="evenodd" clip-rule="evenodd" d="M162.872 80.122C162.741 80.122 162.601 80.1056 162.47 80.081C162.338 80.0554 162.209 80.0169 162.084 79.9662C161.961 79.9169 161.846 79.8513 161.73 79.7774C161.624 79.7036 161.518 79.6133 161.419 79.5231C161.329 79.4246 161.239 79.3262 161.165 79.2113C161.091 79.0964 161.026 78.9815 160.976 78.8585C160.875 78.608 160.822 78.3407 160.821 78.0708C160.821 77.9395 160.837 77.8 160.862 77.6687C160.886 77.5374 160.927 77.4144 160.976 77.2831C161.026 77.16 161.091 77.0451 161.165 76.9303C161.239 76.8236 161.329 76.7169 161.419 76.6185C161.518 76.5282 161.624 76.4379 161.73 76.3641C161.846 76.2903 161.961 76.2246 162.084 76.1754C162.206 76.1261 162.338 76.0851 162.47 76.0605C162.732 76.0031 163.003 76.0031 163.274 76.0605C163.404 76.0851 163.536 76.1261 163.659 76.1754C163.782 76.2246 163.897 76.2903 164.012 76.3641C164.119 76.4379 164.225 76.5282 164.324 76.6185C164.414 76.7169 164.505 76.8236 164.578 76.9303C164.652 77.0451 164.718 77.16 164.767 77.2831C164.816 77.4144 164.857 77.5374 164.882 77.6687C164.906 77.8 164.923 77.9395 164.923 78.0708C164.923 78.6123 164.701 79.1456 164.324 79.5231C164.225 79.6133 164.119 79.7036 164.012 79.7774C163.897 79.8513 163.782 79.9169 163.659 79.9662C163.409 80.0682 163.142 80.1211 162.872 80.122ZM179.282 79.0964C178.741 79.0964 178.215 78.8749 177.829 78.4974C177.738 78.3991 177.653 78.2949 177.575 78.1856C177.502 78.0708 177.436 77.9559 177.386 77.8328C177.285 77.5823 177.233 77.3151 177.231 77.0451C177.231 76.5036 177.452 75.9785 177.829 75.5928C177.928 75.5026 178.034 75.4123 178.141 75.3385C178.256 75.2646 178.371 75.199 178.494 75.1497C178.617 75.1005 178.749 75.0595 178.88 75.0349C179.143 74.9774 179.422 74.9774 179.684 75.0349C179.815 75.0595 179.947 75.1005 180.07 75.1497C180.192 75.199 180.308 75.2646 180.423 75.3385C180.529 75.4123 180.635 75.5026 180.734 75.5928C181.111 75.9785 181.333 76.5036 181.333 77.0451C181.333 77.1764 181.316 77.3159 181.292 77.4472C181.268 77.5785 181.227 77.7097 181.177 77.8328C181.12 77.9559 181.063 78.0708 180.989 78.1856C180.915 78.2923 180.825 78.399 180.734 78.4974C180.635 78.5877 180.529 78.6779 180.423 78.7518C180.308 78.8256 180.192 78.8913 180.07 78.9405C179.82 79.0425 179.552 79.0955 179.282 79.0964Z" fill="black"/>
</svg>