<svg width="256" height="256" title="Dremio" viewBox="0 0 256 256" fill="none" xmlns="http://www.w3.org/2000/svg" id="dremio">
<style>
#dremio {
    rect {fill: #15191C}

    @media (prefers-color-scheme: light) {
        rect {fill: #F4F2ED}
    }
}
</style>
<rect width="256" height="256" rx="40" fill="#15191C"/>
<path fill-rule="evenodd" clip-rule="evenodd" d="M94.2918 155.455C89.4278 157.678 79.9333 162.63 80.8283 168.012C82.0735 171.327 85.9257 168.012 87.3655 166.452C90.4707 163.434 92.8404 159.737 94.2918 155.65V155.455ZM123.398 143.795C120.168 152.257 110.752 156.274 108.145 154.831C106.822 154.129 108.145 151.438 108.145 149.605C106.238 150.346 103.086 151.75 101.179 152.53C105.487 156.235 107.969 161.64 107.969 167.329C107.969 173.019 105.487 178.424 101.179 182.129C108.962 193.828 105.07 203.889 94.214 211.727L93.786 212L93.5525 211.22C92.2023 205.815 89.6496 200.788 86.0814 196.518C84.1747 194.296 81.9956 192.268 79.8555 190.24C77.0538 187.588 74.33 184.858 71.8007 181.973C61.0999 170.742 56.8585 150.97 58.2593 135.684C59.0142 127.834 61.3139 120.21 65.03 113.261C67.9679 107.715 71.6334 102.587 75.9254 98.0129C85.5483 87.6671 97.72 80.0433 111.219 75.9018C123.075 71.7994 136.052 72.4038 147.485 77.5787C149.59 78.6979 151.598 80.0043 153.477 81.4784L156.24 84.0911L156.551 84.4031L208.576 57.6904C212.857 55.5456 216.086 55.5456 217.526 57.1055C218.966 58.6653 216.943 62.682 213.907 64.9048L169.159 97.311C169.692 100.403 168.773 103.566 166.668 105.89C172.622 107.957 167.369 116.692 164.762 119.812C157.29 128.664 143.632 135.606 131.453 140.675C128.184 142.079 126.316 142.664 123.398 143.756V143.795Z" fill="#383C42"/>
<path fill-rule="evenodd" clip-rule="evenodd" d="M164.216 113.183C167.562 108.972 165.227 106.554 162.893 108.894C158.157 113.417 151.546 115.391 145.11 114.197C135.966 112.676 135.538 111.272 137.094 109.908C147.709 113.487 159.406 109.51 165.655 100.197C167.912 96.9607 160.363 94.3869 155.927 88.4985C134.604 59.485 67.8306 84.6378 61.4491 135.06C59.3478 150.799 63.9667 166.702 74.1733 178.854C81.9557 187.702 90.4385 191.41 95.2247 205.332C104.564 197.299 103.007 188.213 96.2753 180.257C101.17 177.769 104.392 172.879 104.762 167.389C105.128 161.902 102.587 156.629 98.0653 153.506C94.1741 167.584 80.516 177.996 77.3252 168.013C75.2628 157.834 91.995 151.088 118.766 140.715C141.18 132.292 155.655 125.35 164.216 112.949" fill="#31D3DB"/>
<path fill-rule="evenodd" clip-rule="evenodd" d="M164.216 113.183C167.562 108.972 165.227 106.554 162.893 108.894C158.784 112.867 153.184 114.911 147.483 114.509C138.261 113.846 130.907 112.013 124.136 112.754C111.564 114.642 99.9329 120.55 90.9831 129.601C79.3095 141.612 66.3907 166.566 79.3095 171.405C78.325 170.532 77.6674 169.346 77.4417 168.052C75.3794 157.873 92.1116 151.123 118.883 140.754C141.296 132.331 155.772 125.389 164.332 112.988" fill="white"/>
<path fill-rule="evenodd" clip-rule="evenodd" d="M106.82 132.876C113.707 136.269 112.346 148.123 111.334 151.087C124.408 147.188 120.517 127.962 126.587 122.035C118.805 121.801 104.719 129.483 106.82 132.876Z" fill="#31D3DB"/>
<path fill-rule="evenodd" clip-rule="evenodd" d="M128.923 97.7006C130.133 96.6516 131.857 96.4488 133.274 97.1936C134.69 97.9346 135.511 99.471 135.34 101.062C135.169 102.657 134.044 103.983 132.503 104.408C130.752 104.892 128.896 104.096 128.04 102.489C127.184 100.879 127.55 98.8939 128.923 97.7006Z" fill="#383C42"/>
<path fill-rule="evenodd" clip-rule="evenodd" d="M160.676 99.3002L213.168 62.6824C214.647 61.6295 216.592 59.3677 215.775 58.2758C214.958 57.1839 212.701 57.7688 210.756 58.6658L154.022 89.3951C152.193 93.2948 155.89 101.289 160.715 99.3002" fill="#31D3DB"/>
<path fill-rule="evenodd" clip-rule="evenodd" d="M156.084 92.0855L210.911 59.9133C212.327 58.9462 213.985 58.4041 215.697 58.3534C214.88 57.4175 212.623 57.9634 210.755 58.8604L154.022 89.3951C152.878 93.0647 154.29 97.0536 157.484 99.1829C156.313 96.999 155.823 94.515 156.084 92.0465" fill="white"/>
<path fill-rule="evenodd" clip-rule="evenodd" d="M75.3033 106.437C76.1127 106.261 76.9532 106.48 77.5719 107.026C78.1984 107.572 78.5214 108.379 78.4552 109.206C78.4786 111.136 77.0894 112.793 75.1866 113.105C74.3928 113.261 73.5679 113.043 72.957 112.509C72.3499 111.974 72.0192 111.187 72.0737 110.376C72.1359 108.488 73.4628 106.885 75.3033 106.476" fill="#21AAAD"/>
<path fill-rule="evenodd" clip-rule="evenodd" d="M85.9264 94.6978C86.6385 94.5457 87.3817 94.7446 87.9265 95.2281C88.4713 95.7117 88.7553 96.4253 88.6892 97.1546C88.5608 98.808 87.4051 100.2 85.8097 100.625C85.0976 100.777 84.3544 100.578 83.8096 100.095C83.2648 99.6114 82.9808 98.8977 83.0469 98.1685C83.1715 96.515 84.3271 95.1228 85.9264 94.6978Z" fill="#21AAAD"/>
<path fill-rule="evenodd" clip-rule="evenodd" d="M118.144 79.1393C118.864 79.1666 119.526 79.5293 119.938 80.1142C120.351 80.707 120.467 81.4557 120.245 82.1421C119.806 83.737 118.354 84.8367 116.704 84.8328C115.977 84.8133 115.304 84.4585 114.876 83.8696C114.448 83.2808 114.319 82.5281 114.525 81.8301C114.969 80.2195 116.44 79.1159 118.105 79.1393" fill="#21AAAD"/>
<path fill-rule="evenodd" clip-rule="evenodd" d="M128.028 77.5398C128.631 77.6373 129.157 78.0194 129.441 78.5615C129.725 79.1074 129.732 79.7548 129.468 80.3085C128.88 81.5681 127.53 82.2818 126.16 82.0634C125.588 81.9542 125.094 81.5954 124.814 81.0807C124.534 80.5659 124.499 79.9537 124.721 79.4116C125.273 78.1091 126.631 77.3409 128.028 77.5398Z" fill="#21AAAD"/>
<path fill-rule="evenodd" clip-rule="evenodd" d="M86.042 102.069C86.5751 101.956 87.1276 102.1 87.5362 102.463C87.9409 102.825 88.151 103.36 88.1043 103.902C88.0732 105.146 87.1821 106.199 85.9642 106.437C85.4388 106.546 84.8941 106.405 84.4894 106.054C84.0847 105.699 83.8668 105.177 83.9018 104.643C83.9563 103.399 84.8318 102.346 86.042 102.069Z" fill="#21AAAD"/>
<path fill-rule="evenodd" clip-rule="evenodd" d="M69.4663 115.874C70.0149 115.745 70.5908 115.889 71.0111 116.26C71.4352 116.63 71.657 117.184 71.6064 117.746C71.5636 119.036 70.6492 120.128 69.3884 120.397C68.8164 120.51 68.225 120.347 67.7969 119.953C67.365 119.563 67.1471 118.99 67.2094 118.408C67.2561 117.106 68.19 116.01 69.4663 115.757" fill="#21AAAD"/>
<path fill-rule="evenodd" clip-rule="evenodd" d="M167.601 82.064L165.15 83.3119C165.438 86.845 167.368 90.0388 170.364 91.9302C168.469 88.9976 167.508 85.5581 167.601 82.064ZM180.481 74.9667L178.341 76.1366C178.668 79.0613 180.279 81.6936 182.738 83.3119C181.349 80.7538 180.641 77.8797 180.676 74.9667H180.481ZM193.4 67.9473L191.766 68.8442C191.766 70.95 193.283 74.1087 194.996 74.5377C193.879 72.5294 193.392 70.2325 193.595 67.9473H193.4ZM205.852 61.2399L204.412 62.0198C204.762 63.7395 205.681 65.2916 207.019 66.4264C206.276 64.7963 205.879 63.0298 205.852 61.2399Z" fill="#21AAAD"/>
</svg>