<svg width="256" height="256" title="Drizzle" viewBox="0 0 256 256" fill="none" xmlns="http://www.w3.org/2000/svg" id="drizzle">
<style>
#drizzle {
    rect {fill: #15191C}

    @media (prefers-color-scheme: light) {
        rect {fill: #F4F2ED}
    }
}
</style>
<rect width="256" height="256" rx="40" fill="#15191C"/>
<path d="M82.8013 126.813C84.7823 123.356 83.5685 118.979 80.0902 117.036C76.6118 115.093 72.1862 116.32 70.2052 119.777L46.9511 160.355C44.97 163.812 46.1839 168.189 49.6622 170.132C53.1406 172.075 57.5662 170.848 59.5472 167.391L82.8013 126.813Z" fill="#C5F74F"/>
<path d="M132.924 95.6995C134.905 92.2426 133.691 87.8652 130.213 85.9222C126.735 83.9792 122.309 85.2065 120.328 88.6633L97.074 129.241C95.093 132.698 96.3068 137.076 99.7852 139.019C103.263 140.962 107.689 139.734 109.67 136.278L132.924 95.6995Z" fill="#C5F74F"/>
<path d="M210.049 95.7008C212.03 92.244 210.816 87.8666 207.338 85.9236C203.859 83.9806 199.434 85.2078 197.453 88.6647L174.199 129.243C172.218 132.7 173.431 137.077 176.91 139.02C180.388 140.963 184.814 139.736 186.795 136.279L210.049 95.7008Z" fill="#C5F74F"/>
<path d="M159.91 126.813C161.891 123.356 160.677 118.979 157.199 117.036C153.72 115.093 149.295 116.32 147.314 119.777L124.06 160.355C122.079 163.812 123.292 168.189 126.771 170.132C130.249 172.075 134.675 170.848 136.656 167.391L159.91 126.813Z" fill="#C5F74F"/>
</svg>