<svg width="256" height="256" title="Drupal" viewBox="0 0 256 256" fill="none" xmlns="http://www.w3.org/2000/svg">
<rect width="256" height="256" rx="40" fill="#0678BE"/>
<path d="M152.702 83.4037C141.661 72.3759 131.142 61.8576 127.993 50C124.858 61.8576 114.339 72.3759 103.311 83.4037C86.7565 99.9325 68 118.682 68 146.788C68 162.703 74.3214 177.966 85.5736 189.219C96.8258 200.472 112.087 206.794 128 206.794C143.913 206.794 159.174 200.472 170.426 189.219C181.679 177.966 188 162.703 188 146.788C188 118.676 169.243 99.939 152.689 83.4037M93.5118 160.762C89.8336 160.638 76.2644 137.243 101.449 112.313L118.109 130.527C118.252 130.668 118.364 130.837 118.437 131.024C118.51 131.211 118.542 131.412 118.532 131.612C118.522 131.813 118.47 132.009 118.379 132.188C118.288 132.367 118.161 132.524 118.004 132.65C114.019 136.733 97.0723 153.733 94.9621 159.606C94.5309 160.821 93.8907 160.782 93.5118 160.762ZM128.007 191.618C125.297 191.618 122.613 191.084 120.11 190.047C117.606 189.01 115.331 187.489 113.416 185.573C111.5 183.656 109.98 181.381 108.944 178.877C107.907 176.373 107.374 173.69 107.375 170.98C107.45 165.975 109.268 161.153 112.517 157.345C116.24 152.798 128 140 128 140C128 140 139.59 152.988 143.464 157.306C146.836 161.058 148.682 165.936 148.638 170.98C148.639 173.69 148.106 176.373 147.069 178.877C146.033 181.381 144.513 183.656 142.598 185.573C140.682 187.489 138.407 189.01 135.903 190.047C133.4 191.084 130.716 191.618 128.007 191.618ZM167.506 158.149C167.061 159.129 166.049 160.749 164.69 160.795C162.266 160.886 162.005 159.638 160.208 156.986C156.262 151.159 121.898 115.24 115.47 108.282C109.812 102.173 114.672 97.8615 116.926 95.6076C119.749 92.7722 128.007 84.5274 128.007 84.5274C128.007 84.5274 152.61 107.877 162.867 123.831C173.124 139.791 169.59 153.595 167.506 158.149Z" fill="white"/>
</svg>