<svg width="256" height="256" title="EasyBuild" viewBox="0 0 256 256" fill="none" xmlns="http://www.w3.org/2000/svg" id="easybuild">
<style>
#easybuild {
    rect {fill: #15191C}

    @media (prefers-color-scheme: light) {
        rect {fill: #F4F2ED}
    }
}
</style>
<rect width="256" height="256" rx="40" fill="#15191C"/>
<path d="M46 158.484C100.45 158.484 154.9 158.484 211 158.484C211 172.351 211 186.217 211 200.503C156.55 200.503 102.1 200.503 46 200.503C46 186.637 46 172.771 46 158.484Z" fill="#BAD8A0"/>
<path d="M46 56C100.45 56 154.9 56 211 56C211 69.8661 211 83.7323 211 98.0186C156.55 98.0186 102.1 98.0186 46 98.0186C46 84.1525 46 70.2863 46 56Z" fill="#E47480"/>
<path d="M46 107.242C73.3941 107.242 100.788 107.242 129.012 107.242C129.012 121.108 129.012 134.975 129.012 149.261C101.618 149.261 74.2242 149.261 46 149.261C46 135.395 46 121.529 46 107.242Z" fill="#98D5E7"/>
<path d="M128.705 159.509C142.098 159.509 155.49 159.509 169.289 159.509C169.289 172.699 169.289 185.889 169.289 199.478C155.896 199.478 142.503 199.478 128.705 199.478C128.705 186.289 128.705 173.099 128.705 159.509Z" fill="#BAD8A0"/>
<path d="M87.7112 159.509C101.104 159.509 114.497 159.509 128.295 159.509C128.295 172.699 128.295 185.889 128.295 199.478C114.902 199.478 101.51 199.478 87.7112 199.478C87.7112 186.289 87.7112 173.099 87.7112 159.509Z" fill="#BAD8A0"/>
<path d="M128.705 57.0248C142.098 57.0248 155.49 57.0248 169.289 57.0248C169.289 70.2146 169.289 83.4043 169.289 96.9938C155.896 96.9938 142.503 96.9938 128.705 96.9938C128.705 83.804 128.705 70.6143 128.705 57.0248Z" fill="#E47480"/>
<path d="M87.7112 57.0248C101.104 57.0248 114.497 57.0248 128.295 57.0248C128.295 70.2146 128.295 83.4043 128.295 96.9938C114.902 96.9938 101.51 96.9938 87.7112 96.9938C87.7112 83.804 87.7112 70.6143 87.7112 57.0248Z" fill="#E47480"/>
<path d="M169.699 159.509C182.99 159.509 196.281 159.509 209.975 159.509C209.975 172.699 209.975 185.889 209.975 199.478C196.684 199.478 183.393 199.478 169.699 199.478C169.699 186.289 169.699 173.099 169.699 159.509Z" fill="#BAD8A0"/>
<path d="M87.7112 108.267C101.002 108.267 114.294 108.267 127.988 108.267C127.988 121.457 127.988 134.647 127.988 148.236C114.696 148.236 101.405 148.236 87.7112 148.236C87.7112 135.046 87.7112 121.857 87.7112 108.267Z" fill="#98D5E7"/>
<path d="M169.699 57.0248C182.99 57.0248 196.281 57.0248 209.975 57.0248C209.975 70.2146 209.975 83.4043 209.975 96.9938C196.684 96.9938 183.393 96.9938 169.699 96.9938C169.699 83.804 169.699 70.6143 169.699 57.0248Z" fill="#E47480"/>
<path d="M46 158.484C100.45 158.484 154.9 158.484 211 158.484C211 172.351 211 186.217 211 200.503C156.55 200.503 102.1 200.503 46 200.503C46 186.637 46 172.771 46 158.484ZM47.0248 159.509C47.0248 172.699 47.0248 185.889 47.0248 199.478C60.3161 199.478 73.6073 199.478 87.3012 199.478C87.3012 186.289 87.3012 173.099 87.3012 159.509C74.01 159.509 60.7188 159.509 47.0248 159.509ZM87.7112 159.509C87.7112 172.699 87.7112 185.889 87.7112 199.478C101.104 199.478 114.497 199.478 128.295 199.478C128.295 186.289 128.295 173.099 128.295 159.509C114.902 159.509 101.51 159.509 87.7112 159.509ZM128.705 159.509C128.705 172.699 128.705 185.889 128.705 199.478C142.098 199.478 155.49 199.478 169.289 199.478C169.289 186.289 169.289 173.099 169.289 159.509C155.896 159.509 142.503 159.509 128.705 159.509ZM169.699 159.509C169.699 172.699 169.699 185.889 169.699 199.478C182.99 199.478 196.281 199.478 209.975 199.478C209.975 186.289 209.975 173.099 209.975 159.509C196.684 159.509 183.393 159.509 169.699 159.509Z" fill="#6B7A5C"/>
<path d="M46 56C100.45 56 154.9 56 211 56C211 69.8661 211 83.7323 211 98.0186C156.55 98.0186 102.1 98.0186 46 98.0186C46 84.1525 46 70.2863 46 56ZM47.0248 57.0248C47.0248 70.2146 47.0248 83.4043 47.0248 96.9938C60.3161 96.9938 73.6073 96.9938 87.3012 96.9938C87.3012 83.804 87.3012 70.6143 87.3012 57.0248C74.01 57.0248 60.7188 57.0248 47.0248 57.0248ZM87.7112 57.0248C87.7112 70.2146 87.7112 83.4043 87.7112 96.9938C101.104 96.9938 114.497 96.9938 128.295 96.9938C128.295 83.804 128.295 70.6143 128.295 57.0248C114.902 57.0248 101.51 57.0248 87.7112 57.0248ZM128.705 57.0248C128.705 70.2146 128.705 83.4043 128.705 96.9938C142.098 96.9938 155.49 96.9938 169.289 96.9938C169.289 83.804 169.289 70.6143 169.289 57.0248C155.896 57.0248 142.503 57.0248 128.705 57.0248ZM169.699 57.0248C169.699 70.2146 169.699 83.4043 169.699 96.9938C182.99 96.9938 196.281 96.9938 209.975 96.9938C209.975 83.804 209.975 70.6143 209.975 57.0248C196.684 57.0248 183.393 57.0248 169.699 57.0248Z" fill="#7A4149"/>
<path d="M46 107.242C73.3941 107.242 100.788 107.242 129.012 107.242C129.012 121.108 129.012 134.975 129.012 149.261C101.618 149.261 74.2242 149.261 46 149.261C46 135.395 46 121.529 46 107.242ZM47.0248 108.267C47.0248 121.457 47.0248 134.647 47.0248 148.236C60.3161 148.236 73.6073 148.236 87.3012 148.236C87.3012 135.046 87.3012 121.857 87.3012 108.267C74.01 108.267 60.7188 108.267 47.0248 108.267ZM87.7112 108.267C87.7112 121.457 87.7112 134.647 87.7112 148.236C101.002 148.236 114.294 148.236 127.988 148.236C127.988 135.046 127.988 121.857 127.988 108.267C114.696 108.267 101.405 108.267 87.7112 108.267Z" fill="#51727A"/>
</svg>