<svg width="256" height="256" title="LabStack Echo" viewBox="0 0 256 256" fill="none" xmlns="http://www.w3.org/2000/svg" id="echo">
<style>
#echo {
    rect {fill: #15191C}

    @media (prefers-color-scheme: light) {
        rect {fill: #F4F2ED}
    }
}
</style>
<rect width="256" height="256" rx="40" fill="#15191C"/>
<path d="M207.375 69.8125L207.922 69.8906L208 70.4375L207.922 70.5938H207.766L207.844 70.9844L208 71.0625V72L207.922 72.2344L207.766 72.1562L207.688 71.7656L207.766 71.4531V71.2188L207.688 71.6094V72.7812L207.766 72.4688H207.922V73.7969L207.766 73.5625L207.688 73.1719L207.609 73.4844V94.3438L207.688 93.4062H208V94.2656H207.844V94.4219L208 94.5L207.922 94.5781H208V97.0781L207.453 97.5469L206.594 98.0938L204.641 99.1875L202.531 100.359L200.656 101.375L199.406 102.078L197.375 103.25L195.5 104.266L193.703 105.281L191.672 106.375L190.422 107.078L188.469 108.172L185.266 110.047H185.031L184.875 109.5V90.125L184.953 82.9375L185.188 82.4688L185.578 82.1562L187.375 81.2188L191.125 79.0312L192.375 78.3281L194.25 77.2344L195.969 76.2188L199.875 74.0312L201.75 72.9375L203.391 72L204.641 71.2969L206.828 70.0469L207.375 69.8125Z" fill="#41DCFC"/>
<path d="M207.766 135.047L208 135.125V136.453L207.688 136.531L207.609 137.312V158.016L207.688 156.922L207.766 156.453L207.844 155.438L207.922 152.938H208V162.547L207.609 162.859L206.594 163.484L204.641 164.578L202.766 165.594L200.969 166.609L198.703 167.859L196.75 168.953L192.219 171.453L190.266 172.547L188.156 173.719L185.891 175.047L185.188 175.438H185.031L184.953 175.047L184.875 171.922V150.203L184.953 148.719L185.188 148.25L185.969 147.781L188 146.609L189.875 145.516L191.047 144.812L192.453 143.953L194.562 142.703L196.047 141.844L198.234 140.516L202.062 138.25L203.938 137.156L205.578 136.219L206.984 135.359L207.766 135.047Z" fill="#41DCFC"/>
<path d="M207.219 102.781L207.609 102.859L207.766 103.484L207.688 103.875L207.609 106.219V127.859L207.688 126.453H207.922V120.125H208V130.125L206.75 130.906L204.719 132L203 132.938L201.516 133.719L200.109 134.5L198.156 135.516L196.438 136.453L194.641 137.391L192.922 138.328L190.734 139.5L189.016 140.438L187.609 141.219L186.281 142L185.266 142.547H185.031L184.875 141.531V115.984L185.109 115.438L185.5 115.125L186.75 114.5L188.781 113.328L190.891 112.078L193.625 110.516L194.797 109.812L196.438 108.875L198.703 107.625L202.453 105.438L204.25 104.422L206.125 103.328L207.219 102.781Z" fill="#41DCFD"/>
<path d="M75.4219 84.8125L75.8906 84.8906L76.6719 85.2812L77.9219 86.0625L80.0312 87.2344L82.0625 88.4062L83.5469 89.2656L85.4219 90.3594L87.5312 91.5312L89.4062 92.625L91.2031 93.6406L92.6875 94.5L94.0156 95.2031L96.0469 96.4531L97.6094 97.3125L98 97.7812V124.5L97.8438 124.578L96.2812 123.797L94.5625 122.859L92.4531 121.766L90.6562 120.75L87.9219 119.344L86.8281 118.719L85.1875 117.859L83.4688 116.922L81.9062 116.141L80.1094 115.125L77.7656 113.875L75.8125 112.703L75.5 112.312L75.3438 112.234L75.2656 111.766L75.3438 105.75L75.4219 94.8125V84.8125Z" fill="#00AFD1"/>
<path d="M75.4219 117.391L75.8125 117.469L77.0625 118.094L78.9375 119.188L80.2656 119.969L81.9844 120.984L83.8594 122.078L85.8906 123.25L87.1406 124.031L89.4062 125.359L90.5 125.984L92.2188 127L94.0156 128.094L95.9688 129.266L97.2188 129.969L97.6875 130.281L97.9219 130.516L98 130.828V157.234L97.9219 157.391L97.4531 157.312L96.0469 156.531L94.9531 155.906L93.5469 155.125L91.8281 154.188L89.7969 153.094L86.2812 151.141L84.4844 150.125L83.0781 149.344L81.2031 148.328L79.4062 147.312L77.6875 146.375L76.4375 145.594L75.6562 144.969L75.3438 144.734V140.672L75.4219 123.797V117.391Z" fill="#00AFD1"/>
<path d="M75.4219 150.203L76.2031 150.516L77.9219 151.453L79.0938 152.156L80.9688 153.172L82.7656 154.188L85.4219 155.75L86.5938 156.453L88.3125 157.391L90.1875 158.484L92.1406 159.578L94.0156 160.672L95.9688 161.766L97.7656 162.781L97.9219 163.016L98 163.406V189.969L97.5312 189.891L95.8906 188.953L93.3906 187.625L91.9844 186.844L89.3281 185.438L87.2188 184.344L85.5 183.406L83.3125 182.234L81.5938 181.297L79.4062 180.125L77.6875 179.188L76.4375 178.484L75.3438 177.703L75.4219 157V150.203Z" fill="#00AFD1"/>
<path d="M102.453 131.922L103.234 132.156L104.484 132.859L105.812 133.641L108 134.891L109.953 136.062L111.906 137.156L115.891 139.5L117.688 140.516L119.016 141.297L121.125 142.547L122.531 143.406L124.094 144.266L124.641 144.734L124.719 144.891L124.797 171.766L124.484 171.688L122.609 170.672L120.812 169.656L118.859 168.641L117.141 167.703L115.109 166.609L113.469 165.672L109.719 163.641L107.531 162.469L105.812 161.531L104.016 160.516L102.844 159.812L102.375 159.188V132L102.453 131.922Z" fill="#00AFD1"/>
<path d="M102.453 99.4219L103.312 99.7344L104.484 100.359L106.359 101.453L108.156 102.469L109.875 103.484L112.062 104.734L113.938 105.828L115.891 107L117.688 108.016L118.859 108.719L121.047 109.969L122.062 110.594L123.938 111.688L124.641 112.156L124.719 112.312L124.797 139.031L124.484 139.109L123.391 138.641L122.375 138.016L119.875 136.688L115.656 134.422L113.859 133.406L111.984 132.391L109.719 131.141L107.531 129.969L105.266 128.719L103.391 127.703L102.453 126.922L102.375 126.766V111.141L102.453 99.4219Z" fill="#00AFD1"/>
<path d="M48 69.3438L48.4688 69.5L49.7188 70.2031L51.2812 71.1406L53.1562 72.2344L54.7969 73.1719L56.75 74.3438L58.7812 75.5156L61.0469 76.8438L62.5312 77.7031L64.4062 78.7969L65.8125 79.5781L67.6094 80.6719L69.4844 81.7656L70.1094 82.3125L70.1875 82.4688V109.344L70.1094 109.578L69.7188 109.5L68.1562 108.641L65.4219 107.078L64.0156 106.297L62.0625 105.203L60.5 104.344L58.7031 103.328L57.375 102.547L55.1875 101.297L53.0781 100.125L51.2031 99.0312L49.5625 98.0938L48 97.1562V69.3438Z" fill="#00AFD1"/>
<path d="M102.375 164.891L102.922 164.969L104.016 165.516L105.891 166.609L107.297 167.391L109.172 168.484L110.812 169.422L114.562 171.609L116.828 172.938L118.859 174.109L120.812 175.281L122.688 176.375L124.328 177.312L124.641 177.547L124.719 177.781V204.812L124.094 204.344L122.844 203.641L120.344 202.312L118.469 201.297L116.672 200.281L114.875 199.344L113.156 198.406L111.047 197.234L109.016 196.141L106.906 194.969L105.031 193.953L103.391 193.016L102.688 192.547L102.375 192.234V164.891Z" fill="#00AFD1"/>
<path d="M152.609 132L152.766 132.078V159.656L152.453 160.125L151.203 160.828L149.016 162L147.297 162.938L143.547 164.969L141.594 166.062L139.719 167.078L137.453 168.328L135.266 169.5L133.547 170.438L131.672 171.531L130.5 172.078L130.344 171.922L130.422 170.906V145.125L130.969 144.656L133.156 143.484L134.172 142.859L136.438 141.531L137.609 140.828L141.125 138.797L142.922 137.703L144.641 136.688L148.469 134.5L150.5 133.328L151.594 132.703L152.609 132Z" fill="#41DCFC"/>
<path d="M48 134.812L48.4688 134.969L50.1875 135.906L52.1406 137.078L54.0156 138.172L55.4219 138.953L59.6406 141.453L61.4375 142.469L62.6094 143.172L64.25 144.109L65.9688 145.125L67.4531 145.984L68.625 146.688L69.875 147.391L70.1094 147.703L70.1875 148.797V174.969L69.4844 174.812L68.0781 173.953L64.0156 171.688L62.0625 170.594L60.4219 169.656L58.625 168.641L56.6719 167.547L54.7969 166.453L52.8438 165.359L51.75 164.734L49.6406 163.562L48 162.625V134.812Z" fill="#00AFD1"/>
<path d="M179.484 118.016H179.719L179.797 145.438L179.562 145.828L179.094 146.219L177.062 147.312L175.344 148.25L173.234 149.422L171.047 150.594L169.25 151.609L167.766 152.391L166.359 153.172L164.094 154.422L162.062 155.516L160.266 156.531L158.234 157.625L157.609 157.938H157.453L157.375 131.062L158.234 130.438L160.031 129.422L161.984 128.25L163.703 127.234L165.344 126.297L166.672 125.516L167.844 124.812L169.484 123.875L171.75 122.547L173.781 121.375L175.5 120.359L176.906 119.578L178.625 118.562L179.484 118.016Z" fill="#41DCFC"/>
<path d="M179.484 85.0469H179.719L179.797 112.469L179.641 112.859L178.859 113.406L176.906 114.5L174.719 115.672L172.922 116.688L170.734 117.859L168.469 119.109L166.438 120.203L164.172 121.453L161.984 122.625L160.734 123.328L158.859 124.422L157.688 125.047H157.453V100.203L157.375 98.1719L158.156 97.5469L159.875 96.6094L161.984 95.3594L163.781 94.2656L165.578 93.25L168.781 91.375L170.891 90.125L174.953 87.7812L176.281 87L177.375 86.375L179.016 85.3594L179.484 85.0469Z" fill="#41DCFD"/>
<path d="M152.453 99.6562H152.688L152.766 99.8906V126.531L152.688 127.312L152.375 127.703L150.188 128.875L148.469 129.812L146.438 130.906L145.031 131.688L143 132.781L141.203 133.797L139.172 134.891L137.375 135.906L136.516 136.375L134.719 137.312L132.922 138.328L130.812 139.5L130.422 139.656V117.391L130.5 112.781L130.812 112.234L132.609 111.297L133.703 110.672L138 108.094L139.641 107.156L141.516 106.062L143.234 105.047L146.984 102.859L149.016 101.688L150.656 100.75L152.062 99.8906L152.453 99.6562Z" fill="#41DCFD"/>
<path d="M152.453 165.047L152.766 165.125V192.703L152.219 193.172L150.109 194.266L148.859 194.969L147.141 195.906L145.344 196.922L142.688 198.328L140.969 199.266L138.703 200.516L136.672 201.609L135.031 202.547L133 203.641L131.906 204.266L130.969 204.969H130.5L130.422 199.891V178.094L131.125 177.547L133.156 176.375L133.938 175.906L135.031 175.281L136.281 174.5L138.078 173.484L139.25 172.781L141.281 171.609L142.297 170.984L143.703 170.203L145.266 169.266L146.984 168.25L149.016 167.078L150.422 166.297L152.219 165.203L152.453 165.047Z" fill="#41DCFC"/>
<path d="M179.562 150.516H179.719V178.25L178.938 178.719L177.141 179.734L175.109 180.828L172.844 182.078L170.969 183.094L169.562 183.875L167.375 185.047L165.578 186.062L161.828 188.094L160.031 189.109L158.078 190.125L157.688 190.281L157.453 190.203V163.719L157.609 163.25L159.328 162.312L160.656 161.531L162.219 160.594L163.859 159.656L168.391 157L170.344 155.828L171.594 155.125L173.703 153.875L177.531 151.688L179.562 150.516Z" fill="#41DCFD"/>
<path d="M48 102.234L48.3125 102.312L49.5625 103.016L50.5781 103.641L53.0781 105.125L54.9531 106.219L57.1406 107.469L58.8594 108.484L60.5 109.422L62.2188 110.438L64.0938 111.531L65.6562 112.469L67.2969 113.406L68.8594 114.344L69.875 114.969L70.1094 115.281L70.1875 115.516V141.922L69.7969 142L68.5469 141.375L67.1406 140.594L59.6406 136.531L56.0469 134.578L54.1719 133.484L52.1406 132.391L50.2656 131.375L48.3906 130.281L48 130.047V102.234Z" fill="#00AFD1"/>
<path d="M156.203 67.1562L156.672 67.2344L157.609 67.9375L159.641 69.1094L161.359 70.125L163.547 71.4531L166.984 73.4844L168.469 74.4219L169.719 75.125L172.844 77L173.938 77.625L177.062 79.5L178 80.125L178.078 80.4375L177.453 80.8281L175.5 81.8438L173.859 82.7812L171.984 83.7969L170.188 84.8125L168.312 85.8281L167.062 86.5312L165.109 87.625L163.234 88.6406L161.438 89.6562L159.484 90.75L156.672 92.3125L156.047 92.7812L155.578 93.0156L155.266 92.9375L150.109 89.8906L148.078 88.7188L146.906 88.0156L144.797 86.7656L142.531 85.4375L140.578 84.2656L138.547 83.0938L136.438 81.8438L135.344 81.2188L134.094 80.5938L133.859 80.3594L134.25 80.0469L136.203 78.875L138.078 77.7812L139.797 76.7656L141.828 75.5938L143 74.8906L144.328 74.1094L146.203 73.0156L148.156 71.8438L149.875 70.8281L151.75 69.7344L153.938 68.4844L155.266 67.7031L156.203 67.1562Z" fill="#C4C7C6"/>
<path d="M99.7188 67.7031L100.422 67.8594L101.672 68.4844L105.422 70.6719L107.453 71.8438L109.562 73.0938L111.828 74.4219L113.781 75.5938L115.031 76.2969L116.75 77.3125L118.312 78.25L120.109 79.2656L121.984 80.2812L122.297 80.5156L122.141 80.8281L120.188 81.9219L118.469 82.8594L117.062 83.6406L115.422 84.5L113.703 85.4375L111.906 86.375L110.5 87.1562L108.703 88.0938L106.906 89.1094L104.953 90.125L103.859 90.75L101.281 92.0781L100.578 92.5469L99.9531 92.9375H99.4844L98.1562 92.2344L96.3594 91.2188L94.6406 90.2812L93.2344 89.5L91.5938 88.5625L89.3281 87.3125L87.4531 86.2188L85.7344 85.2812L84.0938 84.3438L81.9062 83.1719L80.1094 82.1562L79.3281 81.6875L78.5469 81.2969L77.8438 80.75L78.0781 80.2812L79.3281 79.6562L81.4375 78.4062L83.4688 77.2344L85.4219 76.0625L87.2969 74.9688L89.4844 73.7188L91.75 72.3906L92.7656 71.7656L94.3281 70.8281L96.3594 69.6562L98.2344 68.5625L99.7188 67.7031Z" fill="#808282"/>
<path d="M73.2344 52.7812L73.7031 52.8594L74.9531 53.4844L76.75 54.5L79.0156 55.75L80.8906 56.8438L83.625 58.4844L85.3438 59.4219L87.2969 60.5938L88.1562 61.0625L90.1875 62.2344L92.0625 63.3281L94.0938 64.5L95.1094 65.125L95.2656 65.4375L93.7812 66.2188L91.9844 67.1562L89.25 68.7188L87.8438 69.5L83.4688 71.9219L81.5938 72.9375L79.7188 74.0312L77.8438 75.0469L76.3594 75.9062L75.5781 76.2969L73.8594 77.2344L73 77.8594L72.6094 78.0156L71.4375 77.3906L70.3438 76.7656L68.625 75.75L67.1406 74.8906L64.875 73.5625L63.8594 72.9375L56.5938 68.6406L54.7188 67.5469L52.5312 66.2969L51.2812 65.6719L50.9688 65.4375L51.2812 65.125L53.3906 63.875L55.1875 62.8594L57.0625 61.7656L59.0938 60.5938L60.9688 59.5781L62.2969 58.7969L64.0938 57.7812L66.3594 56.4531L68.2344 55.4375L70.0312 54.4219L71.2812 53.7188L72.4531 53.0156L73.2344 52.7812Z" fill="#808282"/>
<path d="M182.766 52H184.719L184.797 52.3906L185.188 52.5469L186.359 53.25L188.547 54.5L190.109 55.4375L192.141 56.6875L194.406 58.0156L195.578 58.7188L196.906 59.5L198.625 60.5156L200.188 61.4531L201.984 62.5469L203.938 63.7188L204.953 64.3438L205.5 64.8125L205.109 65.2031L203.234 66.2188L202.219 66.8438L200.969 67.4688L198.703 68.7188L196.906 69.6562L195.109 70.6719L193.859 71.2969L191.359 72.625L189.562 73.6406L187.766 74.5781L186.047 75.5156L184.406 76.375L183.312 76.9219L183.078 77H182.531L181.516 76.375L180.422 75.75L178.312 74.5781L176.984 73.7969L175.188 72.7812L173 71.5312L170.969 70.3594L169.172 69.3438L167.219 68.25L165.031 67L163.234 65.9844L161.75 65.0469L161.594 64.8125L162.141 64.2656L164.172 63.1719L172.453 58.3281L173.938 57.4688L175.891 56.2969L179.641 54.1094L181.281 53.1719L182.531 52.4688L182.688 52.3125L182.766 52Z" fill="#C4C7C6"/>
<path d="M127.688 82.625L128.156 82.7031L130.109 83.7969L131.75 84.8125L134.016 86.1406L135.344 86.9219L136.516 87.625L138.234 88.6406L139.641 89.5L141.906 90.8281L143.703 91.9219L145.031 92.7031L146.594 93.6406L148.312 94.6562L149.484 95.3594L149.797 95.5938V95.75L148.781 96.375L146.75 97.4688L145.5 98.1719L142.062 100.047L138.312 102.078L136.906 102.859L135.422 103.719L134.172 104.344L132.219 105.438L128.781 107.312L128.078 107.781L127.688 107.938L127.453 108.016L126.281 107.391L124.953 106.609L123.312 105.672L121.906 104.891L119.953 103.797L118.078 102.781L116.672 102L114.875 100.984L112.844 99.8125L111.438 99.0312L109.641 98.0156L107.766 97L106.125 96.0625L105.656 95.75L106.125 95.2031L107.766 94.3438L109.016 93.6406L111.281 92.3125L115.188 89.9688L117.141 88.875L118.156 88.25L122.141 85.9062L124.016 84.8125L125.5 83.9531L126.828 83.1719L127.531 82.7031L127.688 82.625ZM127.375 98.0938L127.297 98.4062L127.375 98.875L127.531 98.7188V98.1719L127.375 98.0938ZM127.375 100.594V103.953L127.453 105.516H127.531V100.906L127.375 100.594Z" fill="#C4C7C6"/>
<path d="M127.531 82.7031L127.766 82.7812L127.844 84.1875V88.6406L127.688 95.6719L127.609 98.0938L127.375 98.0156V104.422L127.531 106.844L127.688 107.547V107.938L127.453 108.016L126.281 107.391L124.953 106.609L123.312 105.672L121.906 104.891L119.953 103.797L118.078 102.781L116.672 102L114.875 100.984L112.844 99.8125L111.438 99.0312L109.641 98.0156L107.766 97L106.125 96.0625L105.656 95.75L106.125 95.2031L107.766 94.3438L109.016 93.6406L111.281 92.3125L115.188 89.9688L117.141 88.875L118.156 88.25L122.141 85.9062L124.016 84.8125L125.5 83.9531L126.828 83.1719L127.531 82.7031Z" fill="#808282"/>
<path d="M185.109 82.7812H185.188V86.4531L185.109 90.9844V96.6094L185.344 108.953L185.5 109.5L185.734 109.734L185.266 110.047H185.031L184.875 109.5V90.125L184.953 82.9375L185.109 82.7812Z" fill="#01AED0"/>
<path d="M185.109 115.516H185.188V117.312L185.109 125.672V128.172L185.266 140.125L185.344 141.844L185.5 142.391L185.266 142.547H185.031L184.875 141.531V115.984L185.031 115.594L185.109 115.516Z" fill="#01AFD1"/>
<path d="M185.188 148.25L185.266 148.406L185.188 151.219L185.109 157.391V160.047L185.188 169.109V171.609L185.109 174.812L184.953 174.578L184.875 171.922V150.203L184.953 148.719L185.188 148.25Z" fill="#05B1D2"/>
<path d="M207.453 137.469H207.531L207.609 138.953V158.016L207.688 156.922L207.766 156.453L207.844 155.438L207.922 152.938H208V162.469L207.922 162.312L207.531 162.234L207.453 162.156V137.469Z" fill="#8CE9FD"/>
<path d="M207.453 106.453H207.531L207.609 127.859L207.688 126.453H207.922V120.125H208V130.125L207.688 130.359H207.531L207.453 129.734V106.453Z" fill="#8BE8FD"/>
<path d="M207.531 71.375L207.688 71.6094V72.7812L207.766 72.4688H207.922V73.7969L207.766 73.5625L207.688 73.1719L207.609 73.4844V94.3438L207.688 93.4062H208V94.2656H207.844V94.4219L208 94.5L207.922 94.5781H208V97.0781L207.531 97.2344L207.453 96.9219V72.8594L207.531 71.375Z" fill="#8CE9FD"/>
<path d="M185.109 82.7812H185.188V86.4531L185.109 90.9844L185.031 92.7031L184.875 92.7812V90.125L184.953 82.9375L185.109 82.7812Z" fill="#0FB5D5"/>
<path d="M207.922 87.8594H208V93.25H207.922V87.8594Z" fill="#8CE9FD"/>
<path d="M207.766 135.672L208 135.75V136.453L207.688 136.531L207.609 137.312H207.531V135.906L207.766 135.672Z" fill="#8CE9FD"/>
<path d="M205.109 64.6562L205.422 64.7344V64.9688L204.719 65.4375L204.641 65.2812L204.875 64.7344L205.109 64.6562Z" fill="#FDFDFD"/>
<path d="M207.688 70.5938L208 71.2188V72L207.922 72.2344L207.766 72.1562L207.688 71.7656L207.766 71.4531V71.2188L207.609 71.375L207.688 70.5938Z" fill="#8CE9FD"/>
<path d="M157.531 124.422L157.922 124.5L158.078 124.656L158 124.891L157.688 125.047H157.453L157.531 124.422Z" fill="#0BB3D5"/>
<path d="M130.344 171.453L130.734 171.531L130.969 171.688L130.891 171.922L130.422 172.078L130.344 171.766V171.453Z" fill="#16B8D8"/>
<path d="M177.219 79.6562L177.922 80.0469L177.688 80.3594H177.453L177.219 79.6562Z" fill="#FDFDFD"/>
<path d="M207.844 104.734L208 104.891L207.844 105.125V104.734Z" fill="#8CE9FD"/>
<path d="M207.844 102.781H208L207.922 103.016L207.766 102.859L207.844 102.781Z" fill="#8CE9FD"/>
</svg>