<svg width="256" height="256" title="Edge" viewBox="0 0 256 256" fill="none" xmlns="http://www.w3.org/2000/svg" id="edge">
<style>
#edge {
    rect {fill: #15191C}

    @media (prefers-color-scheme: light) {
        rect {fill: #F4F2ED}
    }
}
</style>
<rect width="256" height="256" rx="40" fill="#15191C"/>
<path d="M188.406 164.618C186.395 165.663 184.32 166.583 182.195 167.371C175.466 169.876 168.341 171.146 161.161 171.121C133.447 171.121 109.307 152.079 109.307 127.588C109.343 124.308 110.252 121.097 111.941 118.286C113.63 115.475 116.037 113.164 118.916 111.592C93.8386 112.647 87.3935 138.779 87.3935 154.071C87.3935 197.429 127.295 201.765 135.908 201.765C140.536 201.765 147.509 200.417 151.727 199.07L152.489 198.835C168.634 193.256 182.396 182.345 191.511 167.899C191.776 167.46 191.89 166.946 191.835 166.436C191.78 165.927 191.559 165.449 191.207 165.077C190.855 164.704 190.39 164.458 189.884 164.375C189.378 164.292 188.859 164.377 188.406 164.618Z" fill="url(#linearGradient1)"/>
<path d="M188.406 164.618C186.395 165.663 184.32 166.583 182.195 167.371C175.466 169.876 168.341 171.146 161.161 171.121C133.447 171.121 109.307 152.079 109.307 127.588C109.343 124.308 110.252 121.097 111.941 118.286C113.63 115.475 116.037 113.164 118.916 111.592C93.8386 112.647 87.3935 138.779 87.3935 154.071C87.3935 197.429 127.295 201.765 135.908 201.765C140.536 201.765 147.509 200.417 151.727 199.07L152.489 198.835C168.634 193.256 182.396 182.345 191.511 167.899C191.776 167.46 191.89 166.946 191.835 166.436C191.78 165.927 191.559 165.449 191.207 165.077C190.855 164.704 190.39 164.458 189.884 164.375C189.378 164.292 188.859 164.377 188.406 164.618Z" fill="url(#radialGradient1)"/>
<path d="M114.932 194.382C109.716 191.143 105.196 186.901 101.631 181.902C97.5612 176.331 94.7595 169.937 93.4229 163.168C92.0863 156.4 92.2472 149.42 93.8943 142.721C95.5413 136.021 98.6347 129.762 102.957 124.385C107.28 119.007 112.727 114.641 118.916 111.592C120.791 110.713 123.896 109.19 128.056 109.248C130.984 109.271 133.866 109.97 136.478 111.292C139.09 112.613 141.362 114.521 143.114 116.865C145.472 120.036 146.764 123.871 146.806 127.822C146.806 127.705 161.161 81.1827 99.9321 81.1827C74.2103 81.1827 53.0586 105.557 53.0586 127.002C52.9563 138.33 55.3781 149.538 60.1482 159.813C67.9601 176.448 81.6077 189.635 98.5004 196.871C115.393 204.108 134.355 204.89 151.786 199.07C145.679 200.998 139.226 201.578 132.873 200.769C126.52 199.96 120.419 197.781 114.99 194.382H114.932Z" fill="url(#linearGradient2)"/>
<path d="M114.932 194.382C109.716 191.143 105.196 186.901 101.631 181.902C97.5612 176.331 94.7595 169.937 93.4229 163.168C92.0863 156.4 92.2472 149.42 93.8943 142.721C95.5413 136.021 98.6347 129.762 102.957 124.385C107.28 119.007 112.727 114.641 118.916 111.592C120.791 110.713 123.896 109.19 128.056 109.248C130.984 109.271 133.866 109.97 136.478 111.292C139.09 112.613 141.362 114.521 143.114 116.865C145.472 120.036 146.764 123.871 146.806 127.822C146.806 127.705 161.161 81.1827 99.9321 81.1827C74.2103 81.1827 53.0586 105.557 53.0586 127.002C52.9563 138.33 55.3781 149.538 60.1482 159.813C67.9601 176.448 81.6077 189.635 98.5004 196.871C115.393 204.108 134.355 204.89 151.786 199.07C145.679 200.998 139.226 201.578 132.873 200.769C126.52 199.96 120.419 197.781 114.99 194.382H114.932Z" fill="url(#radialGradient2)"/>
<path d="M142.294 140.185C141.767 140.771 140.302 141.65 140.302 143.466C140.302 144.989 141.298 146.513 143.114 147.743C151.493 153.602 167.371 152.782 167.43 152.782C173.676 152.778 179.807 151.099 185.183 147.919C190.596 144.753 195.087 140.227 198.212 134.79C201.336 129.354 202.985 123.194 202.995 116.924C203.171 103.799 198.308 95.069 196.374 91.2019C183.894 66.9449 157.118 53 127.998 53C108.288 52.9981 89.3706 60.7546 75.3357 74.5921C61.3009 88.4296 53.2772 107.236 53 126.943C53.293 105.557 74.5618 88.2723 99.8735 88.2723C101.924 88.2723 113.643 88.4481 124.482 94.1315C132.097 97.9157 138.404 103.895 142.587 111.299C146.161 117.51 146.806 125.42 146.806 128.584C146.806 131.748 145.224 136.376 142.236 140.243L142.294 140.185Z" fill="url(#radialGradient3)"/>
<path d="M142.294 140.185C141.767 140.771 140.302 141.65 140.302 143.466C140.302 144.989 141.298 146.513 143.114 147.743C151.493 153.602 167.371 152.782 167.43 152.782C173.676 152.778 179.807 151.099 185.183 147.919C190.596 144.753 195.087 140.227 198.212 134.79C201.336 129.354 202.985 123.194 202.995 116.924C203.171 103.799 198.308 95.069 196.374 91.2019C183.894 66.9449 157.118 53 127.998 53C108.288 52.9981 89.3706 60.7546 75.3357 74.5921C61.3009 88.4296 53.2772 107.236 53 126.943C53.293 105.557 74.5618 88.2723 99.8735 88.2723C101.924 88.2723 113.643 88.4481 124.482 94.1315C132.097 97.9157 138.404 103.895 142.587 111.299C146.161 117.51 146.806 125.42 146.806 128.584C146.806 131.748 145.224 136.376 142.236 140.243L142.294 140.185Z" fill="url(#radialGradient4)"/>
<linearGradient id="linearGradient1" x1="53" y1="128.014" x2="203.105" y2="128.014" gradientUnits="userSpaceOnUse">
<stop stop-color="#0C59A4"/>
<stop offset="1" stop-color="#114A8B"/>
</linearGradient>
<radialGradient id="radialGradient1" cx="0" cy="0" r="1" gradientUnits="userSpaceOnUse" gradientTransform="translate(135.877 129.324) scale(80.2691 88.2925)">
<stop offset="0.7" stop-opacity="0"/>
<stop offset="0.9" stop-opacity="0.5"/>
<stop offset="1"/>
</radialGradient>
<linearGradient id="linearGradient2" x1="188.846" y1="90.1598" x2="111.648" y2="193.956" gradientUnits="userSpaceOnUse">
<stop stop-color="#1B9DE2"/>
<stop offset="0.2" stop-color="#1595DF"/>
<stop offset="0.7" stop-color="#0680D7"/>
<stop offset="1" stop-color="#0078D4"/>
</linearGradient>
<radialGradient id="radialGradient2" cx="0" cy="0" r="1" gradientUnits="userSpaceOnUse" gradientTransform="translate(115.722 161.836) rotate(-79.4122) scale(104.065 102.521)">
<stop offset="0.8" stop-opacity="0"/>
<stop offset="0.9" stop-opacity="0.5"/>
<stop offset="1"/>
</radialGradient>
<radialGradient id="radialGradient3" cx="0" cy="0" r="1" gradientUnits="userSpaceOnUse" gradientTransform="translate(68.1694 94.6402) rotate(91.5255) scale(178.184 252.887)">
<stop stop-color="#35C1F1"/>
<stop offset="0.1" stop-color="#34C1ED"/>
<stop offset="0.2" stop-color="#2FC2DF"/>
<stop offset="0.3" stop-color="#2BC3D2"/>
<stop offset="0.7" stop-color="#36C752"/>
</radialGradient>
<radialGradient id="radialGradient4" cx="0" cy="0" r="1" gradientUnits="userSpaceOnUse" gradientTransform="translate(193.656 98.2916) rotate(73.7398) scale(57.0099 46.3605)">
<stop stop-color="#66EB6E"/>
<stop offset="1" stop-color="#66EB6E" stop-opacity="0"/>
</radialGradient>
</svg>
