<svg width="256" height="256" title="Effect" viewBox="0 0 256 256" fill="none" xmlns="http://www.w3.org/2000/svg" id="effect">
<style>
#effect {
    rect {fill: #15191C}
    path {fill: #FFFFFF}

    @media (prefers-color-scheme: light) {
        rect {fill: #F4F2ED}
        path {fill: #101214}
    }
}
</style>
<rect width="256" height="256" rx="40" fill="#15191C"/>
<path fill-rule="evenodd" clip-rule="evenodd" d="M197.522 169.476C199.893 168.137 200.703 165.17 199.335 162.848C197.968 160.529 194.939 159.733 192.569 161.072L127.881 197.652L63.4307 161.208C61.0628 159.869 58.0336 160.662 56.6639 162.984C55.2967 165.305 56.1091 168.272 58.4769 169.612L125.216 207.348C126.429 208.037 127.819 208.161 129.067 207.809C129.657 207.72 130.239 207.523 130.786 207.215L197.522 169.476Z" fill="#FFFFFF"/>
<path fill-rule="evenodd" clip-rule="evenodd" d="M204.214 131.95C204.42 129.995 203.46 128.011 201.605 126.967L131.052 87.2645C130.481 86.944 129.874 86.7388 129.261 86.6439C127.941 86.2695 126.475 86.4029 125.189 87.1261L54.6339 126.829C52.6399 127.952 51.6816 130.163 52.0944 132.254C52.0689 133.845 52.815 135.438 54.6581 136.48L125.211 176.375C126.497 177.101 127.966 177.234 129.285 176.86C129.908 176.767 130.521 176.559 131.1 176.234L201.655 136.336C203.561 135.259 204.294 133.594 204.214 131.95ZM188.962 131.669L127.996 97.3614L67.0654 131.651L128.031 166.124L188.962 131.669Z" fill="#FFFFFF"/>
<path fill-rule="evenodd" clip-rule="evenodd" d="M205.247 102.201C207.88 100.713 208.782 97.4185 207.261 94.8402C205.743 92.2646 202.378 91.381 199.746 92.8682L127.905 133.493L56.3308 93.019C53.6984 91.5291 50.3342 92.4128 48.8158 94.9911C47.2947 97.5667 48.1969 100.864 50.8294 102.351L124.945 144.261C126.296 145.023 127.836 145.163 129.225 144.77C129.877 144.673 130.524 144.455 131.132 144.113L205.247 102.201Z" fill="#FFFFFF"/>
<path d="M61.75 97.5359L127.768 57.1241L193.785 97.5332L127.768 135.254L61.75 97.5359Z" fill="#FFFFFF"/>
<path fill-rule="evenodd" clip-rule="evenodd" d="M205.16 91.5731C207.798 93.0575 208.711 96.3498 207.201 98.928C205.688 101.504 202.324 102.39 199.687 100.905L127.834 60.4721L56.2436 100.76C53.6057 102.244 50.2415 101.358 48.7286 98.7825C47.2184 96.2042 48.1317 92.912 50.7669 91.4275L124.886 49.7199C126.236 48.9601 127.777 48.8201 129.163 49.2134C129.807 49.3131 130.444 49.5286 131.044 49.8654L205.16 91.5731Z" fill="#FFFFFF"/>
</svg>