<svg width="256" height="256" title="Ejs" viewBox="0 0 256 256" fill="none" xmlns="http://www.w3.org/2000/svg" id="ejs">
<style>
#ejs {
    rect {fill: #15191C}

    @media (prefers-color-scheme: light) {
        rect {fill: #F4F2ED}
    }
}
</style>
<rect width="256" height="256" rx="40" fill="#15191C"/>
<path d="M43 138.188V117.8L115.006 80V98.7293L61.8211 127.622L115.018 157.1V176L43 138.188ZM211.868 84.0483L149.036 172.068H127.464L190.418 84.0422L211.868 84.0483ZM194.461 161.526C195.173 161.54 195.88 161.395 196.53 161.102C197.179 160.809 197.757 160.375 198.219 159.831C199.262 158.587 199.8 156.993 199.725 155.368C199.786 153.707 199.252 152.078 198.219 150.778C197.784 150.21 197.224 149.75 196.584 149.433C195.943 149.117 195.239 148.952 194.525 148.952C193.811 148.952 193.107 149.117 192.466 149.433C191.826 149.75 191.266 150.21 190.831 150.778C189.798 152.078 189.264 153.707 189.325 155.368C189.248 156.982 189.76 158.569 190.764 159.831C191.211 160.377 191.777 160.814 192.417 161.108C193.058 161.401 193.757 161.545 194.461 161.526ZM207.733 167.879C204.109 171.168 199.395 172.984 194.51 172.973C189.625 172.962 184.92 171.124 181.311 167.818C179.65 166.191 178.331 164.248 177.43 162.101C176.529 159.955 176.065 157.649 176.065 155.32C176.065 152.99 176.529 150.685 177.43 148.538C178.331 146.392 179.65 144.448 181.311 142.821C184.918 139.506 189.631 137.667 194.522 137.667C199.412 137.667 204.126 139.506 207.733 142.821C209.426 144.429 210.767 146.372 211.673 148.528C212.58 150.684 213.03 153.005 212.997 155.344C213.042 157.683 212.597 160.005 211.691 162.16C210.785 164.315 209.439 166.255 207.739 167.855L207.733 167.879ZM145.126 110.075C145.838 110.089 146.544 109.945 147.194 109.651C147.844 109.358 148.421 108.924 148.884 108.381C149.927 107.136 150.464 105.542 150.389 103.918C150.45 102.256 149.916 100.627 148.884 99.3268C148.448 98.7599 147.888 98.3009 147.247 97.9851C146.607 97.6693 145.903 97.5051 145.189 97.5051C144.476 97.5051 143.772 97.6693 143.132 97.9851C142.491 98.3009 141.931 98.7599 141.495 99.3268C140.463 100.627 139.929 102.256 139.989 103.918C139.913 105.531 140.424 107.118 141.428 108.381C141.876 108.927 142.441 109.363 143.082 109.657C143.723 109.951 144.422 110.094 145.126 110.075ZM158.398 116.41C154.774 119.699 150.06 121.515 145.175 121.504C140.29 121.493 135.584 119.655 131.975 116.349C130.315 114.722 128.995 112.779 128.095 110.632C127.194 108.486 126.73 106.18 126.73 103.851C126.73 101.521 127.194 99.2155 128.095 97.0691C128.995 94.9226 130.315 92.9788 131.975 91.3522C135.583 88.0366 140.296 86.1977 145.186 86.1977C150.077 86.1977 154.79 88.0366 158.398 91.3522C160.096 92.967 161.44 94.9194 162.346 97.0849C163.251 99.2505 163.697 101.582 163.655 103.93C163.696 106.264 163.249 108.58 162.343 110.729C161.438 112.879 160.094 114.814 158.398 116.41Z" fill="#90A93A"/>
</svg>