<svg width="256" height="256" title="Electron" viewBox="0 0 256 256" fill="none" xmlns="http://www.w3.org/2000/svg">
<rect width="256" height="256" rx="40" fill="#47848F"/>
<path d="M128.076 47C122.317 47 117.647 51.6687 117.647 57.4281C117.647 63.1876 122.316 67.857 128.076 67.857C132.107 67.857 135.596 65.567 137.332 62.2201C152.378 70.8075 163.395 99.2985 163.395 132.425C163.395 146.46 161.436 159.905 157.806 171.507C157.72 171.78 157.689 172.067 157.715 172.352C157.74 172.637 157.821 172.914 157.954 173.168C158.086 173.421 158.268 173.646 158.487 173.83C158.707 174.013 158.96 174.152 159.233 174.237C159.785 174.41 160.383 174.356 160.895 174.088C161.408 173.82 161.793 173.359 161.966 172.807C165.731 160.773 167.753 146.892 167.753 132.425C167.753 97.2444 155.75 66.8021 138.481 57.8814C138.487 57.7303 138.504 57.5813 138.504 57.4281C138.504 51.6694 133.836 47 128.076 47ZM128.076 51.3577C129.686 51.3577 131.23 51.9973 132.368 53.1357C133.506 54.2741 134.146 55.8182 134.146 57.4281C134.146 59.0381 133.506 60.5822 132.368 61.7206C131.23 62.859 129.686 63.4986 128.076 63.4986C126.466 63.4986 124.922 62.859 123.783 61.7206C122.645 60.5822 122.005 59.0381 122.005 57.4281C122.005 55.8182 122.645 54.2741 123.783 53.1357C124.922 51.9973 126.466 51.3577 128.076 51.3577ZM90.9077 80.5256C76.9037 80.5757 66.1971 85.0283 61.1754 93.7268C56.1788 102.381 57.607 113.855 64.6395 126.12C64.9337 126.608 65.4073 126.961 65.9588 127.104C66.5104 127.247 67.096 127.169 67.5902 126.885C68.0845 126.602 68.4481 126.136 68.6032 125.588C68.7583 125.04 68.6925 124.453 68.42 123.952C62.086 112.903 60.8529 103.002 64.9505 95.9056C70.5128 86.2715 85.4992 82.6591 105.141 86.237C105.422 86.2882 105.711 86.2836 105.991 86.2232C106.271 86.1629 106.536 86.048 106.771 85.8852C107.006 85.7224 107.207 85.5148 107.363 85.2743C107.518 85.0338 107.624 84.7651 107.675 84.4836C107.727 84.202 107.722 83.9131 107.661 83.6334C107.601 83.3536 107.486 83.0885 107.323 82.8532C107.161 82.6178 106.953 82.4168 106.713 82.2617C106.472 82.1066 106.203 82.0003 105.922 81.949C100.61 80.9816 95.575 80.5087 90.9077 80.5256ZM165.787 80.6448C165.209 80.6373 164.652 80.8596 164.238 81.2629C163.824 81.6662 163.587 82.2174 163.579 82.7952C163.572 83.3731 163.794 83.9303 164.197 84.3442C164.601 84.7582 165.152 84.995 165.73 85.0025C178.153 85.1645 187.109 89.0378 191.138 96.016C196.688 105.63 192.356 120.37 179.497 135.562C179.124 136.003 178.941 136.575 178.989 137.151C179.037 137.727 179.311 138.261 179.752 138.634C179.97 138.819 180.223 138.959 180.496 139.047C180.768 139.134 181.055 139.167 181.34 139.143C181.625 139.119 181.903 139.039 182.157 138.908C182.412 138.777 182.638 138.597 182.823 138.379C196.735 121.943 201.595 105.411 194.913 93.8372C189.996 85.321 179.601 80.8244 165.787 80.6448ZM147.505 82.6259C147.358 82.6273 147.211 82.6436 147.067 82.6746C134.487 85.3704 121.096 90.6387 108.236 98.0635C77.275 115.939 56.7974 142.066 58.3712 161.557C55.1694 163.338 53 166.749 53 170.673C53 176.432 57.6694 181.101 63.4288 181.101C69.1876 181.101 73.857 176.432 73.857 170.673C73.857 164.913 69.1883 160.244 63.4288 160.244C63.1714 160.244 62.918 160.264 62.6646 160.283C61.9857 142.941 81.2512 118.676 110.415 101.838C122.89 94.636 135.856 89.5323 147.979 86.9348C148.505 86.82 148.97 86.5146 149.284 86.0773C149.599 85.6401 149.74 85.1021 149.681 84.5669C149.622 84.0317 149.367 83.5373 148.965 83.1789C148.564 82.8205 148.043 82.6235 147.505 82.6259ZM128.002 124.878C127.491 124.884 126.981 124.942 126.482 125.05C122.409 125.932 119.822 129.945 120.701 134.019C121.583 138.092 125.597 140.68 129.67 139.8C133.743 138.918 136.331 134.905 135.451 130.832C134.679 127.268 131.51 124.84 128.002 124.878ZM77.4044 137.386C77.1182 137.372 76.8322 137.415 76.5627 137.512C76.2932 137.609 76.0455 137.758 75.8339 137.951C75.6222 138.144 75.4506 138.376 75.3287 138.635C75.2069 138.894 75.1372 139.174 75.1238 139.46C75.1103 139.746 75.1533 140.031 75.2502 140.301C75.3472 140.57 75.4963 140.817 75.6889 141.029C84.281 150.47 95.4429 159.328 108.173 166.677C138.082 183.946 169.863 188.932 186.497 179.138C188.265 180.415 190.391 181.102 192.572 181.102C198.331 181.102 203 176.433 203 170.674C203 164.914 198.332 160.245 192.572 160.245C186.813 160.245 182.144 164.914 182.144 170.674C182.144 172.543 182.643 174.294 183.506 175.812C168.297 184.037 138.58 179.201 110.351 162.903C98.0018 155.773 87.1943 147.197 78.9125 138.096C78.7203 137.885 78.4881 137.713 78.2293 137.591C77.9705 137.469 77.6902 137.399 77.4044 137.386ZM63.4288 164.602C64.226 164.602 65.0154 164.759 65.7519 165.065C66.4884 165.37 67.1576 165.817 67.7213 166.38C68.285 166.944 68.7321 167.613 69.0372 168.35C69.3422 169.086 69.4992 169.876 69.4992 170.673C69.4992 171.47 69.3422 172.259 69.0372 172.996C68.7321 173.732 68.285 174.402 67.7213 174.965C67.1576 175.529 66.4884 175.976 65.7519 176.281C65.0154 176.586 64.226 176.743 63.4288 176.743C62.6316 176.743 61.8423 176.586 61.1058 176.281C60.3693 175.976 59.7001 175.529 59.1364 174.965C58.5727 174.402 58.1255 173.732 57.8205 172.996C57.5154 172.259 57.3584 171.47 57.3584 170.673C57.3584 169.876 57.5154 169.086 57.8205 168.35C58.1255 167.613 58.5727 166.944 59.1364 166.38C59.7001 165.817 60.3693 165.37 61.1058 165.065C61.8423 164.759 62.6316 164.602 63.4288 164.602ZM192.572 164.602C193.369 164.602 194.158 164.759 194.895 165.065C195.631 165.37 196.301 165.817 196.864 166.38C197.428 166.944 197.875 167.613 198.18 168.35C198.485 169.086 198.642 169.876 198.642 170.673C198.642 171.47 198.485 172.259 198.18 172.996C197.875 173.732 197.428 174.402 196.864 174.965C196.301 175.529 195.631 175.976 194.895 176.281C194.158 176.586 193.369 176.743 192.572 176.743C191.111 176.745 189.7 176.217 188.599 175.257C188.582 175.23 188.573 175.201 188.554 175.174C188.384 174.924 188.163 174.713 187.906 174.554C187.169 173.668 186.699 172.589 186.552 171.446C186.405 170.302 186.587 169.14 187.077 168.096C187.567 167.052 188.343 166.169 189.316 165.55C190.29 164.931 191.419 164.603 192.572 164.602ZM97.6909 173.871C97.3317 173.85 96.9731 173.919 96.6472 174.072C96.3212 174.224 96.0379 174.454 95.8228 174.742C95.6076 175.031 95.4671 175.368 95.414 175.724C95.3608 176.079 95.3966 176.443 95.5181 176.781C102.792 197.094 114.694 209.601 128.076 209.601C137.836 209.601 146.866 202.946 153.907 191.234C154.055 190.989 154.153 190.717 154.195 190.434C154.237 190.151 154.223 189.862 154.154 189.584C154.085 189.307 153.962 189.045 153.792 188.815C153.621 188.585 153.407 188.391 153.162 188.244C152.667 187.946 152.073 187.858 151.512 187.998C150.951 188.137 150.469 188.494 150.171 188.989C143.843 199.516 136.071 205.243 128.076 205.243C116.96 205.243 106.345 194.087 99.6204 175.311C99.4759 174.908 99.2158 174.556 98.8727 174.3C98.5295 174.044 98.1184 173.895 97.6909 173.871Z" fill="white"/>
</svg>