<svg width="256" height="256" title="Element Plus" viewBox="0 0 256 256" fill="none" xmlns="http://www.w3.org/2000/svg" id="elementplus">
<style>
#elementplus {
    rect {fill: #15191C}

    @media (prefers-color-scheme: light) {
        rect {fill: #F4F2ED}
    }
}
</style>
<rect width="256" height="256" rx="40" fill="#15191C"/>
<path d="M186.003 168.421C186.003 174.526 182.721 175.938 182.721 175.938C182.721 175.938 127.336 207.857 123.577 209.727C121.707 210.662 119.819 210.662 117.949 209.727C117.949 209.727 60.2167 175.938 58.3467 174.526C57.4117 173.591 56.4767 172.18 56 170.768V101.302C56 98.0206 59.7584 96.1323 59.7584 96.1323L117.491 62.8019C119.837 61.8669 122.184 61.8669 124.531 62.8019C124.531 62.8019 175.681 92.3739 181.328 95.6556C184.61 97.0673 186.498 100.349 186.021 104.107C186.003 103.191 186.003 162.316 186.003 168.421ZM162.995 101.779C151.261 95.2156 123.101 78.7887 123.101 78.7887C121.689 77.8537 119.342 77.8537 117.472 78.7887L71.9502 105.061C71.9502 105.061 68.6685 106.931 68.6685 109.277V163.728C68.6685 164.663 69.6035 166.075 70.0802 167.01C71.4918 167.945 117.014 194.235 117.014 194.235C118.426 195.17 120.296 195.17 121.707 194.235C124.531 192.823 167.706 167.486 167.706 167.486C167.706 167.486 170.053 166.551 170.053 161.858V148.255L119.361 179.238V167.505C119.361 164.223 120.772 161.876 123.119 159.053L168.641 131.809C169.576 130.398 170.511 128.051 170.511 126.181V113.971L119.361 144.954V132.286C119.361 129.463 120.296 126.658 122.642 125.246L162.995 101.779ZM200.542 58.6035C200.542 57.6685 199.607 57.1918 199.13 57.1918H188.332V45.935C188.332 45 187.397 45 186.461 45L180.833 45.935C179.898 45.935 179.898 46.4117 179.898 46.87V57.1918H169.576C168.641 57.1918 168.641 58.1268 168.165 58.1268V65.1669H180.833V76.9004C180.833 77.8354 181.768 77.8354 182.703 77.8354L188.332 76.9004C189.267 76.9004 189.267 76.4237 189.267 75.9654V65.6436H201L200.542 58.6035Z" fill="#409EFF"/>
</svg>