<svg width="256" height="256" title="Element" viewBox="0 0 256 256" fill="none" xmlns="http://www.w3.org/2000/svg">
<rect width="256" height="256" rx="40" fill="#0DBD8B"/>
<path fill-rule="evenodd" clip-rule="evenodd" d="M105.414 62.0334C105.414 57.0457 109.468 53 114.464 53C148.331 53 175.789 80.4012 175.789 114.195C175.789 115.383 175.555 116.559 175.1 117.656C174.645 118.753 173.978 119.749 173.137 120.588C172.297 121.427 171.299 122.092 170.201 122.545C169.103 122.998 167.927 123.231 166.739 123.229C165.552 123.23 164.376 122.997 163.279 122.543C162.182 122.09 161.186 121.424 160.346 120.585C159.506 119.747 158.84 118.75 158.385 117.654C157.931 116.557 157.697 115.382 157.697 114.195C157.691 108.524 156.568 102.91 154.392 97.6735C152.216 92.4366 149.03 87.6797 145.015 83.6741C141 79.6685 136.236 76.4928 130.994 74.3283C125.752 72.1638 120.135 71.0529 114.464 71.059C113.276 71.061 112.1 70.8289 111.002 70.3758C109.904 69.9227 108.906 69.2577 108.066 68.4186C107.225 67.5796 106.558 66.5831 106.103 65.4861C105.648 64.3891 105.414 63.2209 105.414 62.0334Z" fill="white"/>
<path fill-rule="evenodd" clip-rule="evenodd" d="M193.95 105.177C195.138 105.175 196.314 105.407 197.412 105.86C198.51 106.313 199.508 106.979 200.348 107.818C201.189 108.657 201.856 109.653 202.311 110.75C202.766 111.847 203 113.023 203 114.211C203 148.005 175.542 175.398 141.667 175.398C140.459 175.433 139.256 175.226 138.13 174.788C137.003 174.35 135.976 173.691 135.109 172.849C134.242 172.007 133.553 170.999 133.082 169.886C132.611 168.773 132.369 167.577 132.369 166.369C132.369 165.16 132.611 163.964 133.082 162.851C133.553 161.738 134.242 160.73 135.109 159.888C135.976 159.046 137.003 158.387 138.13 157.949C139.256 157.511 140.459 157.304 141.667 157.339C147.339 157.346 152.957 156.236 158.2 154.072C163.443 151.908 168.208 148.732 172.224 144.727C176.239 140.721 179.426 135.964 181.602 130.726C183.779 125.489 184.902 119.874 184.908 114.203C184.91 111.808 185.863 109.513 187.557 107.82C189.251 106.128 191.548 105.177 193.943 105.177" fill="white"/>
<path fill-rule="evenodd" clip-rule="evenodd" d="M150.693 193.967C150.693 195.154 150.459 196.33 150.004 197.427C149.549 198.524 148.882 199.521 148.042 200.36C147.201 201.199 146.204 201.864 145.106 202.317C144.008 202.77 142.831 203.002 141.644 203C107.777 203 80.3188 175.591 80.3188 141.805C80.3188 136.817 84.3726 132.771 89.3685 132.771C90.5562 132.769 91.7326 133.002 92.8305 133.455C93.9284 133.908 94.9261 134.573 95.7667 135.412C96.6072 136.251 97.2741 137.247 97.729 138.344C98.184 139.441 98.4182 140.617 98.4182 141.805C98.4305 153.256 102.991 164.234 111.097 172.323C119.204 180.413 130.191 184.951 141.644 184.941C142.831 184.939 144.007 185.171 145.104 185.623C146.201 186.076 147.199 186.74 148.039 187.579C148.88 188.417 149.547 189.412 150.002 190.509C150.458 191.605 150.692 192.78 150.693 193.967Z" fill="white"/>
<path fill-rule="evenodd" clip-rule="evenodd" d="M62.0343 150.854C59.6382 150.854 57.3403 149.902 55.6461 148.208C53.9518 146.514 53 144.216 53 141.82C52.9923 108.026 80.4503 80.6251 114.317 80.6251C116.713 80.6251 119.011 81.5768 120.705 83.2709C122.4 84.965 123.352 87.2627 123.352 89.6584C123.352 92.0542 122.4 94.3519 120.705 96.046C119.011 97.7401 116.713 98.6918 114.317 98.6918C102.866 98.6816 91.8796 103.219 83.7736 111.307C75.6677 119.395 71.1061 130.37 71.0917 141.82C71.0917 143.008 70.8575 144.184 70.4026 145.281C69.9476 146.378 69.2807 147.374 68.4402 148.213C67.5996 149.052 66.6019 149.717 65.504 150.17C64.4061 150.623 63.222 150.856 62.0343 150.854Z" fill="white"/>
</svg>