<svg width="256" height="256" title="ElevenLabs" viewBox="0 0 256 256" fill="none" xmlns="http://www.w3.org/2000/svg">
<rect width="256" height="256" rx="40" fill="#F4F2ED"/>
<path d="M99.545 121.41H94.4167L100.613 140.57H106.133L112.33 121.41H107.202L103.321 135.843L99.545 121.41Z" fill="#212121"/>
<path d="M28 115H33.3063V140.57H28V115Z" fill="#212121"/>
<path d="M38.5415 115H43.8478V140.57H38.5415V115Z" fill="#212121"/>
<path d="M49.0822 115H64.7873V119.262H54.3885V125.35H64.0752V129.612H54.3885V136.309H64.7873V140.57H49.0822V115Z" fill="#212121"/>
<path d="M68.0277 115H73.049V140.57H68.0277V115Z" fill="#212121"/>
<path d="M76.0761 130.972C76.0761 123.989 79.5305 120.981 84.9081 120.981C90.2856 120.981 93.3484 123.953 93.3484 131.044V132.19H81.0262C81.2043 136.344 82.4507 137.741 84.8369 137.741C86.7242 137.741 87.8994 136.631 88.1132 134.697H93.1346C92.8141 138.923 89.3242 141 84.8369 141C79.1389 141 76.0761 137.956 76.0761 130.972ZM88.3983 128.86C88.149 125.35 86.938 124.204 84.8369 124.204C82.7357 124.204 81.4179 125.386 81.062 128.86H88.3983Z" fill="#212121"/>
<path d="M113.292 130.972C113.292 123.989 116.746 120.981 122.124 120.981C127.501 120.981 130.564 123.953 130.564 131.044V132.19H118.242C118.42 136.344 119.666 137.741 122.052 137.741C123.94 137.741 125.115 136.631 125.329 134.697H130.35C130.03 138.923 126.539 141 122.052 141C116.354 141 113.292 137.956 113.292 130.972ZM125.614 128.86C125.364 125.35 124.154 124.204 122.052 124.204C119.951 124.204 118.633 125.386 118.278 128.86H125.614Z" fill="#212121"/>
<path d="M154.352 115H159.659V136.309H169.63V140.57H154.352V115Z" fill="#212121"/>
<path fill-rule="evenodd" clip-rule="evenodd" d="M170.877 130.972C170.877 123.667 174.224 120.981 178.534 120.981C180.67 120.981 182.629 122.198 183.413 123.488V121.41H188.541V140.57H183.555V138.314C182.807 139.818 180.706 141 178.391 141C173.833 141 170.877 138.063 170.877 130.972ZM179.851 124.741C182.344 124.741 183.697 126.639 183.697 130.972C183.697 135.306 182.344 137.24 179.851 137.24C177.358 137.24 175.934 135.306 175.934 130.972C175.934 126.639 177.358 124.741 179.851 124.741Z" fill="#212121"/>
<path fill-rule="evenodd" clip-rule="evenodd" d="M197.408 138.314V140.57H192.423V115H197.444V123.488C198.299 122.163 200.293 120.981 202.43 120.981C206.632 120.981 209.98 123.667 209.98 130.972C209.98 138.278 206.703 141 202.323 141C200.008 141 198.121 139.818 197.408 138.314ZM201.005 124.777C203.498 124.777 204.923 126.639 204.923 130.972C204.923 135.306 203.498 137.24 201.005 137.24C198.512 137.24 197.159 135.306 197.159 130.972C197.159 126.639 198.512 124.777 201.005 124.777Z" fill="#212121"/>
<path d="M212.046 134.876H217.067C217.138 136.882 218.206 137.848 220.094 137.848C221.981 137.848 223.05 136.989 223.05 135.485C223.05 134.124 222.231 133.623 220.45 133.193L218.919 132.799C214.574 131.689 212.401 130.507 212.401 126.89C212.401 123.273 215.749 120.981 220.023 120.981C224.296 120.981 227.537 122.664 227.68 126.639H222.658C222.551 124.884 221.483 124.132 219.952 124.132C218.42 124.132 217.352 124.884 217.352 126.317C217.352 127.642 218.206 128.143 219.702 128.501L221.269 128.895C225.4 129.934 228 130.972 228 134.84C228 138.708 224.581 141 219.952 141C214.93 141 212.152 139.102 212.046 134.876Z" fill="#212121"/>
<path d="M138.684 129.289C138.684 126.281 140.108 124.634 142.316 124.634C144.132 124.634 145.165 125.78 145.165 128.251V140.57H150.186V127.463C150.186 123.022 147.694 120.981 144.061 120.981C141.604 120.981 139.574 122.234 138.684 123.882V121.41H133.591V140.57H138.684V129.289Z" fill="#212121"/>
</svg>