<svg width="256" height="256" title="EndeavourOS" viewBox="0 0 256 256" fill="none" xmlns="http://www.w3.org/2000/svg" id="endeavouros">
<style>
#endeavouros {
    rect {fill: #15191C}

    @media (prefers-color-scheme: light) {
        rect {fill: #F4F2ED}
    }
}
</style>
<rect width="256" height="256" rx="40" fill="#15191C"/>
<path d="M144.238 45.1965C161.062 69.3883 231.858 162.967 183.63 182.471C161.099 193.01 58.4574 176.282 59.93 179.016C52.5669 191.319 46.7132 201.22 46.7132 201.22C46.7132 201.22 125.867 204.847 186.98 196.457C274.233 184.53 169.014 70.8098 144.274 45.3053L144.238 45.1965Z" fill="#7F7FFF"/>
<path d="M144.238 45.1965C138.642 45.9804 36 174.594 36 174.594C36 174.594 43.3999 176.732 60.2245 179.208C65.6732 174.894 142.323 43.4337 144.532 45.3091C144.493 45.2562 144.429 45.2367 144.34 45.249L144.238 45.1965Z" fill="#FF7F7F"/>
<path d="M144.238 45.1965C140.703 44.6114 59.9297 179.095 59.9297 179.095C59.9297 179.095 133.193 186.971 163.381 186.446C248.425 184.984 164.029 71.6762 144.384 45.0465C144.359 45.0203 144.329 45.006 144.293 45L144.238 45.1965Z" fill="#7F3FBF"/>
</svg>