<svg width="256" height="256" title="Erlang" viewBox="0 0 256 256" fill="none" xmlns="http://www.w3.org/2000/svg">
<rect width="256" height="256" rx="40" fill="#A90533"/>
<path d="M106.906 99.9594C107.964 87.1513 118.064 78.5438 129.896 78.5163C141.817 78.5438 150.424 87.1513 150.72 99.9594H106.906ZM190.162 180.445C195.676 174.533 200.612 167.575 205.094 159.614L180.234 147.191C171.503 161.381 158.736 174.45 141.088 174.533C115.389 174.45 105.297 152.477 105.352 124.194H201.368C201.499 121.004 201.499 119.519 201.368 117.979C201.994 101.156 197.532 87.0137 189.426 76L189.378 76.0344H211V180.438H190.107L190.162 180.445ZM71.8706 180.438C59.0694 166.86 51.5756 148.119 51.5894 125.748C51.5756 105.968 57.7906 88.9663 68.4744 76.0275H46V180.438H71.8569H71.8706Z" fill="white"/>
</svg>