<svg width="256" height="256" title="etcd" viewBox="0 0 256 256" fill="none" xmlns="http://www.w3.org/2000/svg" id="etcd">
<style>
#etcd {
    rect {fill: #15191C}

    @media (prefers-color-scheme: light) {
        rect {fill: #F4F2ED}
    }
}
</style>
<rect width="256" height="256" rx="40" fill="#15191C"/>
<path d="M200.883 131.083C200.178 131.142 199.47 131.17 198.718 131.17C194.356 131.17 190.123 130.146 186.304 128.271C187.576 120.973 188.116 113.621 187.975 106.296C183.835 100.304 179.103 94.6503 173.762 89.4416C176.079 85.0942 179.505 81.3537 183.781 78.7014L185.617 77.5657L184.186 75.9511C176.814 67.6451 168.016 61.2234 158.041 56.866L156.052 56L155.547 58.1039C154.358 63.007 151.871 67.4303 148.458 70.9801C141.897 67.4907 135.043 64.6705 127.976 62.5345C120.924 64.6659 114.083 67.4779 107.525 70.9619C104.125 67.4168 101.645 63.0044 100.46 58.1153L99.9518 56.0121L97.9698 56.874C88.1206 61.1684 79.0802 67.7639 71.8293 75.9464L70.3943 77.5642L72.2284 78.7001C76.4913 81.3424 79.9074 85.0607 82.2206 89.3846C76.8958 94.573 72.1694 100.209 68.0327 106.173C67.8717 113.495 68.3849 120.901 69.6623 128.299C65.8623 130.157 61.6532 131.169 57.3192 131.169C56.5584 131.169 55.8466 131.142 55.1549 131.084L53 130.919L53.2019 133.072C54.2579 143.964 57.6379 154.324 63.2532 163.866L64.3495 165.728L65.9952 164.331C69.8093 161.094 74.4176 158.95 79.3178 158.086C82.5481 164.695 86.3769 170.905 90.7202 176.67C97.6505 179.095 104.871 180.906 112.328 181.983C113.043 186.918 112.474 192.022 110.528 196.741L109.708 198.741L111.818 199.206C117.22 200.394 122.671 201 128.008 201L144.193 199.206L146.305 198.741L145.483 196.737C143.542 192.018 142.973 186.908 143.688 181.973C151.115 180.894 158.309 179.088 165.214 176.67C169.561 170.9 173.394 164.687 176.629 158.069C181.545 158.927 186.179 161.072 190.017 164.319L191.663 165.714L192.753 163.857C198.379 154.302 201.758 143.943 202.798 133.069L203 130.92L200.883 131.083ZM151.139 157.406C143.482 159.489 135.706 160.541 127.976 160.541C120.225 160.541 112.458 159.49 104.794 157.406C100.59 150.868 97.2655 143.865 94.873 136.492C92.4907 129.154 91.0967 121.465 90.692 113.549C95.6412 107.426 101.269 102.062 107.488 97.5469C113.807 92.9478 120.682 89.2113 127.976 86.4006C135.257 89.212 142.119 92.943 148.424 97.5228C154.666 102.062 160.319 107.467 165.293 113.629C164.869 121.5 163.458 129.144 161.071 136.471C158.685 143.843 155.35 150.868 151.139 157.406ZM134.299 120.471C134.299 125.883 138.683 130.261 144.085 130.261C149.486 130.261 153.865 125.884 153.865 120.471C153.865 115.079 149.486 110.684 144.085 110.684C138.683 110.684 134.299 115.079 134.299 120.471ZM121.656 120.471C121.656 125.883 117.273 130.261 111.871 130.261C106.465 130.261 102.094 125.884 102.094 120.471C102.094 115.081 106.465 110.686 111.871 110.686C117.273 110.686 121.656 115.081 121.656 120.471Z" fill="#419EDA"/>
</svg>