<svg width="256" height="256" title="EventBridge" viewBox="0 0 256 256" fill="none" xmlns="http://www.w3.org/2000/svg">
<rect width="256" height="256" rx="40" fill="url(#linearGradient)"/>
<path fill-rule="evenodd" clip-rule="evenodd" d="M168.464 205.071C162.115 205.071 156.947 199.875 156.947 193.484C156.947 187.093 162.115 181.897 168.464 181.897C174.814 181.897 179.982 187.093 179.982 193.484C179.982 199.875 174.814 205.071 168.464 205.071ZM143.208 154.679H112.586L97.2734 128L112.586 101.321H143.208L158.517 128L143.208 154.679ZM91.3217 74.1034C84.9722 74.1034 79.8042 68.907 79.8042 62.516C79.8042 56.125 84.9722 50.9286 91.3217 50.9286C97.6741 50.9286 102.842 56.125 102.842 62.516C102.842 68.907 97.6741 74.1034 91.3217 74.1034ZM168.464 175.968C166.278 175.968 164.192 176.392 162.262 177.136L149.749 155.894L149.089 156.288L164.472 129.482C164.997 128.563 164.997 127.437 164.472 126.518L147.46 96.875C146.932 95.9561 145.96 95.3929 144.908 95.3929H113.95L114.071 95.3217L102.598 75.8404C106.345 72.6271 108.735 67.8487 108.735 62.516C108.735 52.8583 100.924 45 91.3217 45C81.7223 45 73.9114 52.8583 73.9114 62.516C73.9114 72.1736 81.7223 80.0319 91.3217 80.0319C93.5109 80.0319 95.5969 79.608 97.5268 78.864L108.237 97.044L91.3188 126.518C90.7943 127.437 90.7943 128.563 91.3188 129.482L108.334 159.125C108.862 160.044 109.834 160.607 110.886 160.607H144.908C145.152 160.607 145.391 160.569 145.621 160.512L157.191 180.16C153.441 183.373 151.054 188.151 151.054 193.484C151.054 203.142 158.862 211 168.464 211C178.067 211 185.875 203.142 185.875 193.484C185.875 183.826 178.067 175.968 168.464 175.968ZM186.028 104.594C179.678 104.594 174.513 99.3976 174.513 93.0066C174.513 86.6156 179.678 81.4192 186.028 81.4192C192.377 81.4192 197.545 86.6156 197.545 93.0066C197.545 99.3976 192.377 104.594 186.028 104.594ZM207.604 126.518L196.42 107.028C200.672 103.829 203.438 98.7425 203.438 93.0066C203.438 83.349 195.63 75.4906 186.028 75.4906C183.585 75.4906 181.258 76.0035 179.145 76.9254L170.026 61.0338C169.502 60.1179 168.526 59.5517 167.474 59.5517H130.948V65.4803H165.774L174.21 80.1831C170.78 83.3845 168.621 87.9406 168.621 93.0066C168.621 102.664 176.429 110.523 186.028 110.523C187.816 110.523 189.546 110.247 191.172 109.74L201.653 128L186.938 153.635L192.042 156.599L207.604 129.482C208.132 128.563 208.132 127.437 207.604 126.518ZM72.3822 173.196C66.0298 173.196 60.8618 167.997 60.8618 161.609C60.8618 155.218 66.0298 150.022 72.3822 150.022C78.7317 150.022 83.8997 155.218 83.8997 161.609C83.8997 167.997 78.7317 173.196 72.3822 173.196ZM82.0052 176.193C86.6929 173.051 89.7925 167.689 89.7925 161.609C89.7925 151.951 81.9816 144.093 72.3822 144.093C69.6008 144.093 66.9815 144.769 64.6479 145.94L54.3502 128L71.4129 98.2712L66.3067 95.3069L48.3956 126.518C47.8681 127.437 47.8681 128.563 48.3956 129.482L59.8659 149.461C56.8399 152.615 54.969 156.893 54.969 161.609C54.969 171.267 62.7799 179.125 72.3822 179.125C73.8289 179.125 75.2284 178.926 76.575 178.589L85.974 194.966C86.5014 195.882 87.4737 196.448 88.5256 196.448H125.055V190.52H90.2256L82.0052 176.193Z" fill="white"/>
<linearGradient id="linearGradient" x1="-6.97796e-06" y1="253.983" x2="256" y2="2.01747" gradientUnits="userSpaceOnUse">
<stop stop-color="#B0084D"/>
<stop offset="1" stop-color="#FF4F8B"/>
</linearGradient>
</svg>