<svg width="256" height="256" viewBox="0 0 256 256" fill="none" xmlns="http://www.w3.org/2000/svg">
<path d="M196 0H60C26.8629 0 0 26.8629 0 60V196C0 229.137 26.8629 256 60 256H196C229.137 256 256 229.137 256 196V60C256 26.8629 229.137 0 196 0Z" fill="#242938"/>
<path d="M182.139 125.57C194.869 126.417 206.261 117.723 208.758 105.225C205.685 100.471 200.433 97.6117 194.779 97.6117C180.082 97.2753 172.196 114.76 182.145 125.576L182.139 125.57ZM122.775 55.3837L157.441 35.3047L146.393 29.0753L98.582 56.768L102.392 58.8898L109.631 62.9586L122.775 55.3513V55.3837ZM161.885 33.4546C162.461 33.6293 162.927 34.1015 163.101 34.6708L179.17 83.788C179.474 84.6354 179.137 85.5475 178.361 86.0132C165.631 93.4911 159.498 108.583 163.373 122.84C167.617 138.307 182.372 148.411 198.311 146.794C199.184 146.722 200.025 147.266 200.297 148.107L216.876 198.582C217.141 199.43 216.805 200.335 216.067 200.808L165.23 231.67C164.99 231.806 164.686 231.903 164.382 231.903C163.942 232.006 163.477 231.903 163.069 231.638L145.183 220.013C144.872 219.813 144.64 219.515 144.478 219.179L109.572 135.758L56.4058 167.293C56.3023 167.364 56.1664 167.429 56.0694 167.5C55.526 167.733 54.8856 167.662 54.3811 167.364L42.3557 160.294C41.4759 159.822 41.1395 158.709 41.6117 157.829L93.0577 55.9529C93.2194 55.5842 93.5558 55.2802 93.931 55.1055L145.416 25.2911C145.985 24.9547 146.69 24.9224 147.305 25.2587L161.885 33.4546ZM108.052 66.4453L95.5546 59.4008L45.7906 157.913L54.8209 163.237L97.7152 104.921C98.1227 104.346 98.7955 104.042 99.4682 104.145C100.141 104.216 100.71 104.643 100.988 105.29L147.745 217.174L160.249 225.266L108.091 66.4453H108.052ZM194.772 134.736C180.179 134.736 170.275 119.909 175.864 106.429C181.427 92.9542 198.912 89.4869 209.217 99.7981C213.066 103.634 215.22 108.829 215.22 114.256C215.252 125.57 206.086 134.736 194.772 134.736Z" fill="white"/>
</svg>
