<svg width="256" height="256" title="Exposed" viewBox="0 0 256 256" fill="none" xmlns="http://www.w3.org/2000/svg">
<rect width="256" height="256" rx="40" fill="#15191C"/>
<path d="M196.902 152.956C198.742 150.139 202.648 142.466 204.422 138.997C204.661 138.529 204.812 138.053 204.925 137.573C216.896 113.247 215.279 70.4696 201.917 57.3279C188.368 44.0028 144.044 43.6998 119.83 55.6774C116.302 57.4224 109.32 60.4687 105.529 62.8777C99.5921 66.6499 93.7471 70.503 93.5812 77.138C93.45 82.3798 101.04 89.6527 99.7702 92.8193C96.9217 99.92 89.8449 95.2096 80.2148 107.365C73.8938 115.344 80.5398 127.528 79.3685 129.544C73.3073 139.976 61.1064 135.193 53.2375 139.422C47.5357 142.487 44.4237 148.087 43.1364 150.956C42.6787 151.976 43.428 153.155 44.5656 153.179C46.9532 153.229 48.7891 152.047 55.0781 151.039C63.2619 149.727 68.5083 146.304 70.8896 148.79C72.1099 150.064 64.5198 152.199 62.9881 152.607C58.8873 153.697 53.2334 154.709 50.9442 158.626C50.4173 159.528 50.7759 160.691 51.7325 161.153C55.2993 162.873 59.2905 164.84 65.641 163.192C72.2868 161.467 76.7516 156.718 80.2046 159.73C82.4299 161.672 60.6103 168.031 62.166 172.513C63.2678 175.688 74.774 178.408 83.5692 171.153C86.041 169.115 88.5478 166.644 89.2986 168.534C91.2219 173.376 78.1302 178.156 77.6437 187.014C77.6216 187.421 77.9235 187.773 78.3131 187.915C90.9724 192.512 95.0742 175.809 97.6588 176.749C104.947 179.397 87.4286 188.885 90.4066 199.786C90.5222 200.208 90.9486 200.496 91.3899 200.462C94.4333 200.228 97.6745 199.758 102.363 195.147C106.137 191.435 105.895 185.177 108.138 185.431C110.38 185.685 106.941 193.128 104.338 198.599C102.365 202.746 100.895 206.635 100.708 208.808C100.642 209.587 101.446 210.185 102.201 209.947C114.17 206.186 117.767 198.978 118.454 196.696C120.671 189.347 120.591 181.943 127.683 177.447C129.816 176.346 142.655 182.806 151.003 176.986C162.648 168.869 160.279 160.351 165.797 157.757C169.017 156.508 176.492 163.474 181.435 163.311C188.344 163.084 193.082 158.805 196.902 152.956Z" fill="url(#linearGradient)"/>
<path d="M132.752 146.629C137.824 143.318 144.666 144.678 148.032 149.666C151.399 154.654 150.016 161.385 144.944 164.695C139.872 168.006 133.031 166.646 129.664 161.658C126.298 156.669 127.68 149.94 132.752 146.629Z" fill="black"/>
<path d="M101.84 139.505C105.552 137.28 103.645 143.778 108.128 148.927C108.225 149.038 108.63 149.436 108.743 149.53C113.978 153.94 120.584 152.065 118.318 155.718C117.725 156.667 110.847 160.861 103.692 153.894C96.604 146.853 100.879 140.082 101.84 139.505Z" fill="black"/>
<path d="M95.7969 110.282C100.869 106.972 107.71 108.332 111.077 113.32C114.443 118.308 113.061 125.039 107.989 128.349C102.917 131.66 96.0754 130.3 92.709 125.312C89.3427 120.323 90.7251 113.593 95.7969 110.282Z" fill="black"/>
<linearGradient id="linearGradient" x1="180.7" y1="80.1094" x2="91.6611" y2="169.457" gradientUnits="userSpaceOnUse">
<stop stop-color="#EF4FFF"/>
<stop offset="0.591346" stop-color="#C711E1"/>
<stop offset="1" stop-color="#7F52FF"/>
</linearGradient>
</svg>