<svg width="256" height="256" title="Fabric" viewBox="0 0 256 256" fill="none" xmlns="http://www.w3.org/2000/svg" id="fabricmc">
<style>
#fabricmc {
    rect {fill: #15191C}

    @media (prefers-color-scheme: light) {
        rect {fill: #F4F2ED}
    }
}
</style>
<rect width="256" height="256" rx="40" fill="#15191C"/>
<path d="M134.092 42.0428L146.487 42C146.338 46.0538 146.412 50.2221 146.551 54.278C150.625 54.354 154.71 54.2822 158.786 54.2732C158.638 58.3278 158.711 62.4944 158.85 66.5509C162.925 66.6244 167.01 66.5552 171.085 66.5461C170.937 70.6004 171.01 74.7675 171.149 78.8238C175.225 78.8936 179.308 78.8281 183.384 78.8186C183.237 82.8734 183.309 87.0397 183.448 91.0967C187.523 91.1645 191.607 91.1011 195.683 91.0908C195.54 95.1792 195.677 99.3195 195.677 103.413C199.767 103.29 203.89 103.374 207.982 103.365C207.906 106.525 207.972 109.703 207.973 112.864L208 128.09C206.531 127.922 205.005 127.991 203.528 127.99C200.927 127.983 198.326 128.003 195.726 128.048C195.601 132.142 195.662 136.266 195.701 140.362C192.882 140.031 189.361 140.266 186.467 140.266C181.368 140.266 176.231 140.144 171.137 140.336C170.995 144.423 171.063 148.546 171.103 152.635C169.379 152.468 167.607 152.534 165.875 152.536C163.529 152.518 161.183 152.543 158.838 152.609C158.698 156.696 158.765 160.818 158.804 164.908C157.08 164.741 155.308 164.807 153.576 164.809C151.23 164.791 148.884 164.815 146.539 164.881C146.396 168.968 146.465 173.091 146.505 177.181C144.761 177.016 142.974 177.08 141.222 177.082C138.894 177.064 136.567 177.088 134.24 177.154C133.997 185.318 134.125 193.558 134.206 201.727C130.144 201.276 125.946 201.881 121.865 201.627C121.917 205.348 121.881 209.073 121.882 212.793L121.907 214C119.002 213.659 115.291 213.902 112.32 213.903C107.303 213.903 102.244 213.767 97.2321 213.953L97.2277 201.738C93.2551 201.441 88.9215 201.528 84.9326 201.681L84.9287 189.465C80.9541 189.171 76.6239 189.256 72.6339 189.408L72.6295 177.192C68.6552 176.898 64.3245 176.982 60.335 177.134L60.3305 164.919C56.3576 164.623 52.0245 164.71 48.0359 164.862C47.9901 156.656 48.2589 148.403 48 140.206C52.0622 140.331 56.2654 140.327 60.3251 140.128C60.2859 136.066 60.4323 131.992 60.2991 127.934C64.3771 128.046 68.5398 128.006 72.6179 127.868C72.6076 123.804 72.7261 119.722 72.5987 115.66C76.676 115.774 80.8395 115.734 84.9168 115.596C84.9075 111.531 85.0256 107.449 84.8977 103.387C88.9756 103.502 93.138 103.459 97.2159 103.323C97.1957 99.2576 97.3256 95.1772 97.1962 91.1143C101.266 91.2277 105.452 91.2209 109.518 91.0397C109.495 86.9774 109.623 82.9014 109.496 78.8417C113.573 78.9553 117.736 78.9146 121.814 78.777C121.637 70.6255 122.051 62.4452 121.795 54.2956C125.872 54.4097 130.034 54.3649 134.113 54.2322C134.092 50.1755 134.241 46.0954 134.092 42.0428Z" fill="#38352C"/>
<path d="M134.137 54.3132L146.457 54.3229C146.453 58.3839 146.394 62.4528 146.478 66.5129L146.521 66.5757C150.598 66.6141 154.679 66.5345 158.756 66.5956L158.752 78.8623C162.851 78.8604 166.958 78.8096 171.055 78.8687L171.051 91.1351C175.15 91.1332 179.257 91.0817 183.354 91.1416L183.345 115.685L171.046 115.69L171.041 140.243L158.753 140.235L158.742 152.516L146.454 152.511L146.443 164.789L134.154 164.78L134.145 177.062L121.856 177.057L121.848 189.325L109.592 189.322C109.436 190.698 109.543 192.191 109.546 193.576L109.548 201.597L97.2424 201.605L97.2493 189.333C93.1513 189.274 89.0424 189.33 84.9434 189.332L84.9503 177.06C80.8522 177 76.7434 177.057 72.6444 177.059L72.6512 164.787C68.5529 164.728 64.4443 164.785 60.3453 164.786L60.3505 152.576L60.3474 140.222L72.6431 140.231L72.6417 127.951L84.9429 127.948L84.9409 115.677L97.2419 115.675L97.2399 103.404L109.542 103.398V91.1312L121.845 91.1386L121.838 78.8585L134.149 78.8707C133.949 74.8471 134.138 70.7064 134.141 66.6714L134.137 54.3132Z" fill="#DAD0B4"/>
<path d="M158.76 115.715C162.832 115.578 166.97 115.623 171.046 115.69L171.041 140.243L158.753 140.235L158.742 152.516L146.454 152.511L146.443 164.789L134.154 164.78L134.145 177.062L121.856 177.056L121.848 189.325L109.592 189.322C109.437 187.895 109.557 186.323 109.559 184.882C109.564 182.273 109.527 179.655 109.619 177.048L121.85 177.05L121.839 152.441C117.8 152.79 113.612 152.417 109.548 152.515C109.53 148.427 109.537 144.339 109.567 140.251L134.146 140.215L134.142 152.49C138.226 152.619 142.358 152.503 146.448 152.504C146.397 144.302 146.52 136.096 146.421 127.895C142.385 128.118 138.219 127.94 134.171 127.942C134.152 123.874 134.159 119.807 134.192 115.739C136.901 115.594 139.685 115.712 142.402 115.715H158.76Z" fill="#BDB49F"/>
<path d="M134.137 54.3132L146.457 54.3229C146.453 58.3839 146.394 62.4528 146.478 66.5129L146.521 66.5757C150.598 66.6141 154.679 66.5345 158.756 66.5956L158.752 78.8623C162.851 78.8604 166.958 78.8096 171.055 78.8687L171.051 91.1351C175.15 91.1332 179.257 91.0817 183.354 91.1416L183.345 115.685L171.046 115.69C166.97 115.623 162.831 115.577 158.76 115.715L158.746 103.416C154.662 103.31 150.546 103.405 146.46 103.408L146.447 91.1435C146.39 88.3836 146.445 85.6158 146.454 82.8549C146.457 81.5604 146.572 80.147 146.379 78.8711L134.149 78.8707C133.949 74.8471 134.138 70.7064 134.141 66.6714L134.137 54.3132Z" fill="#BDB49F"/>
<path d="M146.52 66.5752C150.597 66.6136 154.678 66.534 158.755 66.5952L158.751 78.8618C162.85 78.86 166.957 78.8091 171.054 78.8683L171.05 91.1347C175.149 91.1328 179.256 91.0812 183.353 91.1412L183.348 103.499C181.757 103.351 180.134 103.413 178.539 103.412L171.044 103.422L171.029 91.1225C166.945 91.2335 162.832 91.1441 158.745 91.1504L158.73 78.8497C154.649 78.9453 150.545 78.8786 146.463 78.8525C146.338 76.5442 146.442 74.1726 146.437 71.8579C146.434 70.337 146.183 68.0097 146.52 66.5752Z" fill="#DAD0B4"/>
<path d="M134.137 54.3132L146.457 54.3229C146.453 58.3839 146.395 62.4528 146.478 66.5129C142.866 67.0658 137.777 66.1664 134.141 66.6714L134.137 54.3132Z" fill="#DAD0B4"/>
<path d="M158.746 103.416C162.841 103.417 166.946 103.36 171.04 103.426C171.038 107.494 170.883 111.63 171.046 115.69C166.97 115.624 162.831 115.577 158.76 115.715L158.746 103.416Z" fill="#38352C"/>
<path d="M146.447 91.1435C150.542 91.144 154.648 91.0849 158.741 91.1532C158.738 95.2131 158.558 99.3663 158.746 103.416C154.662 103.31 150.546 103.404 146.459 103.407L146.447 91.1435Z" fill="#38352C"/>
<path d="M60.3505 152.576C61.9281 152.427 63.5666 152.496 65.152 152.497L72.6611 152.513L72.6566 164.791C76.7577 164.768 80.8586 164.767 84.9596 164.786L84.9557 177.063C89.0542 177.027 93.1606 177.015 97.2587 177.059L109.619 177.048C109.527 179.655 109.564 182.274 109.559 184.882C109.557 186.323 109.437 187.895 109.592 189.322C109.436 190.698 109.543 192.191 109.546 193.576L109.548 201.597L97.2424 201.605L97.2493 189.333C93.1513 189.274 89.0424 189.33 84.9434 189.332L84.9503 177.06C80.8522 177 76.7434 177.057 72.6444 177.059L72.6512 164.787C68.5529 164.728 64.4443 164.785 60.3453 164.786L60.3505 152.576Z" fill="#958E7C"/>
<path d="M97.2587 177.059L109.619 177.048C109.527 179.655 109.564 182.274 109.559 184.882C109.557 186.323 109.437 187.895 109.592 189.322C105.509 189.16 101.345 189.304 97.2547 189.337L97.2587 177.059Z" fill="#BDB49F"/>
<path d="M121.845 91.1386C121.926 95.2195 121.729 99.3156 121.859 103.394C117.769 103.416 113.629 103.543 109.542 103.398V91.1312L121.845 91.1386Z" fill="#BDB49F"/>
<path d="M72.6431 140.231C72.6508 144.313 72.5311 148.434 72.6611 152.513L65.152 152.497C63.5666 152.496 61.9278 152.426 60.3502 152.575L60.3474 140.222L72.6431 140.231Z" fill="#BDB49F"/>
<path d="M72.6611 152.513C76.7552 152.508 80.8583 152.559 84.9515 152.495C84.9485 156.582 84.8516 160.701 84.9593 164.785C80.8583 164.767 76.7576 164.768 72.6566 164.791L72.6611 152.513Z" fill="#BDB49F"/>
<path d="M84.9593 164.785C89.0549 164.781 93.1555 164.818 97.2506 164.768C97.2477 168.856 97.151 172.974 97.2587 177.059C93.1606 177.015 89.0542 177.027 84.9557 177.063L84.9593 164.785Z" fill="#BDB49F"/>
<path d="M134.149 78.8707L146.379 78.8711C146.571 80.147 146.458 81.5604 146.454 82.8549C146.445 85.6159 146.389 88.3836 146.447 91.1435C142.362 91.0384 138.248 91.1317 134.161 91.1341L134.149 78.8707Z" fill="#38352C"/>
<path d="M97.2364 127.948C101.311 128.12 105.464 127.959 109.547 127.941L109.558 140.208C105.467 140.332 101.343 140.238 97.2481 140.243L97.2364 127.948Z" fill="#BDB49F"/>
<path d="M121.873 103.43C125.957 103.347 130.059 103.414 134.146 103.396L134.158 115.664C130.062 115.761 125.945 115.692 121.847 115.697C121.822 111.608 121.831 107.519 121.873 103.43Z" fill="#BDB49F"/>
<path d="M183.344 115.685L195.644 115.691L195.638 127.982C191.54 127.952 187.442 127.946 183.344 127.963V115.685Z" fill="#958E7C"/>
</svg>