<svg width="256" height="256" title="Fastify" viewBox="0 0 256 256" fill="none" xmlns="http://www.w3.org/2000/svg" id="fastify">
<style>
#fastify {
    rect {fill: #15191C}
    path {fill: #F4F2ED}

    @media (prefers-color-scheme: light) {
        rect {fill: #F4F2ED}
        path {fill: #15191C}
    }
}
</style>
<rect width="256" height="256" rx="40" fill="#15191C"/>
<path d="M202.964 91.5712L208 78.5275L207.781 77.7194L157.958 90.8462C163.271 83.1625 161.446 77 161.446 77C161.446 77 145.535 87.1606 133.503 86.895C121.471 86.6287 117.592 83.4175 99.1419 89.3031C80.6919 95.1844 75.4794 113.237 70.13 117.116C64.7806 120.994 48 133.627 48 133.627L48.0362 133.851L63.1656 129.034C63.1656 129.034 59.0156 132.944 50.2 144.825L49.7881 144.444L49.8037 144.528C49.8037 144.528 56.8888 155.356 63.8431 153.354C64.5419 153.151 65.3287 152.817 66.1887 152.379C68.9887 153.938 72.6431 155.471 76.6781 155.892C76.6781 155.892 73.9469 152.717 71.6681 149.105C72.2831 148.709 72.9144 148.297 73.5556 147.88L73.2581 148.089L79.0188 150.205L78.3831 144.789C78.4037 144.778 78.4194 144.762 78.44 144.752L84.1019 146.832L83.3981 141.906C84.1051 141.535 84.8211 141.182 85.5456 140.847L91.4475 118.524L115.851 101.878L113.911 106.758C108.964 118.926 99.6738 121.798 99.6738 121.798L95.795 123.268C92.9125 126.677 91.6975 127.517 90.7075 138.96C93.0325 138.376 95.2531 138.235 97.265 138.778C107.692 141.588 111.304 154.152 108.494 157.629C107.791 158.499 106.118 159.985 104.006 161.732H99.7731L99.7156 165.162C99.5694 165.277 99.4238 165.386 99.2825 165.501H94.9763L94.9244 168.847C94.5438 169.14 94.1631 169.421 93.7987 169.697C89.7531 169.781 84.6281 166.251 84.6281 166.251C84.6281 169.463 87.3031 174.405 87.3031 174.405C87.3031 174.405 87.48 174.322 87.7769 174.176C87.5163 174.369 87.3706 174.473 87.3706 174.473C87.3706 174.473 98.1981 181.693 105.017 179.019C111.08 176.641 126.778 164.265 140.327 158.406L181.329 147.604L186.735 133.596L155.487 141.827V129.248L192.152 119.587L197.558 105.579L155.498 116.663V104.078L202.964 91.5712Z" fill="#F4F2ED"/>
</svg>