<svg width="256" height="256" title="F-Droid" viewBox="0 0 256 256" fill="none" xmlns="http://www.w3.org/2000/svg" id="fdroid">
<style>
#fdroid {
    rect {fill: #15191C}

    @media (prefers-color-scheme: light) {
        rect {fill: #F4F2ED}
    }
}
</style>
<rect width="256" height="256" rx="40" fill="#15191C"/>
<path fill-rule="evenodd" clip-rule="evenodd" d="M198.831 58.1814L184.771 76.3763Z" fill="#8AB000"/>
<path d="M198.831 58.1814L184.771 76.3763" stroke="#769616" stroke-width="2.5" stroke-linecap="round"/>
<path fill-rule="evenodd" clip-rule="evenodd" d="M198.757 54.037C200.257 54.0767 201.277 54.6622 202.001 55.521C195.296 63.49 194.166 64.7562 185.012 76.1025C181.639 80.4659 178.126 78.2107 181.499 73.8473L195.558 55.6525C196.316 54.6415 197.494 54.071 198.757 54.037Z" fill="white" fill-opacity="0.298039"/>
<path fill-rule="evenodd" clip-rule="evenodd" d="M202.029 55.5624C202.439 56.0517 203.886 58.2242 202.104 60.7106L188.044 78.9054C184.671 83.2689 184.24 76.8798 184.24 76.8798C184.24 76.8798 196.594 61.96 202.029 55.5624Z" fill="#263238" fill-opacity="0.2"/>
<path fill-rule="evenodd" clip-rule="evenodd" d="M199.661 54.8141C201.111 54.8141 202.837 55.2825 202.388 57.456C202.045 59.1153 186.969 77.551 186.969 77.551C183.596 81.9144 178.72 79.7884 182.093 75.4256L196.101 57.3211C196.962 56.3617 198.114 54.8611 199.661 54.8141Z" fill="#8AB000"/>
<path fill-rule="evenodd" clip-rule="evenodd" d="M57.1687 58.1814L71.2284 76.3763Z" fill="#8AB000"/>
<path d="M57.1687 58.1814L71.2284 76.3763" stroke="#769616" stroke-width="2.5" stroke-linecap="round"/>
<path fill-rule="evenodd" clip-rule="evenodd" d="M57.2428 54.037C55.7426 54.0767 54.7229 54.6622 53.9983 55.521C60.7037 63.49 61.8334 64.7562 70.9873 76.1025C74.3601 80.4659 77.8736 78.2107 74.5008 73.8473L60.4411 55.6525C59.6836 54.6415 58.5055 54.071 57.2428 54.037Z" fill="white" fill-opacity="0.298039"/>
<path fill-rule="evenodd" clip-rule="evenodd" d="M53.9702 55.5624C53.5604 56.0517 52.1138 58.2242 53.8958 60.7106L67.9556 78.9054C71.3283 83.2689 71.7595 76.8798 71.7595 76.8798C71.7595 76.8798 59.4053 61.96 53.9702 55.5624Z" fill="#263238" fill-opacity="0.2"/>
<path fill-rule="evenodd" clip-rule="evenodd" d="M56.3382 54.8141C54.8886 54.8141 53.1628 55.2825 53.6115 57.456C53.9541 59.1153 69.0303 77.551 69.0303 77.551C72.4031 81.9144 77.2791 79.7884 73.9064 75.4256L59.8983 57.3211C59.0374 56.3617 57.8853 54.8611 56.3382 54.8141Z" fill="#8AB000"/>
<path d="M180.931 69.7599H75.0696C69.5884 69.7599 65.1451 74.2033 65.1451 79.6844V102.841C65.1451 108.323 69.5884 112.766 75.0696 112.766H180.931C186.412 112.766 190.855 108.323 190.855 102.841V79.6844C190.855 74.2033 186.412 69.7599 180.931 69.7599Z" fill="#AEEA00"/>
<path d="M180.931 79.6844H75.0696C69.5884 79.6844 65.1451 84.1277 65.1451 89.6089V102.841C65.1451 108.323 69.5884 112.766 75.0696 112.766H180.931C186.412 112.766 190.855 108.323 190.855 102.841V89.6089C190.855 84.1277 186.412 79.6844 180.931 79.6844Z" fill="#263238" fill-opacity="0.2"/>
<path d="M180.931 69.7599H75.0696C69.5884 69.7599 65.1451 74.2033 65.1451 79.6844V92.917C65.1451 98.3981 69.5884 102.841 75.0696 102.841H180.931C186.412 102.841 190.855 98.3981 190.855 92.917V79.6844C190.855 74.2033 186.412 69.7599 180.931 69.7599Z" fill="white" fill-opacity="0.298039"/>
<path d="M180.931 73.0681H75.0696C69.5884 73.0681 65.1451 76.8278 65.1451 81.4657V101.06C65.1451 105.698 69.5884 109.458 75.0696 109.458H180.931C186.412 109.458 190.855 105.698 190.855 101.06V81.4657C190.855 76.8278 186.412 73.0681 180.931 73.0681Z" fill="#AEEA00"/>
<path d="M180.931 116.074H75.0696C69.5884 116.074 65.1451 120.517 65.1451 125.999V192.162C65.1451 197.643 69.5884 202.086 75.0696 202.086H180.931C186.412 202.086 190.855 197.643 190.855 192.162V125.999C190.855 120.517 186.412 116.074 180.931 116.074Z" fill="#1976D2"/>
<path d="M180.931 159.08H75.0696C69.5884 159.08 65.1451 163.523 65.1451 169.004V192.162C65.1451 197.643 69.5884 202.086 75.0696 202.086H180.931C186.412 202.086 190.855 197.643 190.855 192.162V169.004C190.855 163.523 186.412 159.08 180.931 159.08Z" fill="#263238" fill-opacity="0.2"/>
<path d="M180.931 116.074H75.0696C69.5884 116.074 65.1451 120.517 65.1451 125.999V149.156C65.1451 154.637 69.5884 159.08 75.0696 159.08H180.931C186.412 159.08 190.855 154.637 190.855 149.156V125.999C190.855 120.517 186.412 116.074 180.931 116.074Z" fill="white" fill-opacity="0.2"/>
<path d="M180.931 119.382H75.0696C69.5884 119.382 65.1451 123.484 65.1451 128.543V189.617C65.1451 194.677 69.5884 198.778 75.0696 198.778H180.931C186.412 198.778 190.855 194.677 190.855 189.617V128.543C190.855 123.484 186.412 119.382 180.931 119.382Z" fill="#1976D2"/>
<path d="M128 138.404C118.47 138.404 110.401 144.97 108.041 153.788H118.67C120.504 150.528 123.947 148.328 128 148.328C133.997 148.328 138.752 153.083 138.752 159.08C138.752 165.077 133.997 169.831 128 169.831C123.675 169.831 120.023 167.341 118.308 163.713H107.873C109.998 172.862 118.234 179.756 128 179.756C139.36 179.756 148.676 170.44 148.676 159.08C148.676 147.72 139.36 138.404 128 138.404Z" fill="#0D47A1"/>
<path d="M128 190.673C145.448 190.673 159.593 176.528 159.593 159.08C159.593 141.632 145.448 127.487 128 127.487C110.552 127.487 96.407 141.632 96.407 159.08C96.407 176.528 110.552 190.673 128 190.673Z" stroke="#0D47A1" stroke-width="1.9" stroke-linecap="round"/>
<path d="M96.1591 104.496C102.325 104.496 107.324 98.7562 107.324 91.6764C107.324 84.5967 102.325 78.8574 96.1591 78.8574C89.9928 78.8574 84.994 84.5967 84.994 91.6764C84.994 98.7562 89.9928 104.496 96.1591 104.496Z" fill="#263238" fill-opacity="0.2"/>
<path d="M96.1591 104.496C102.325 104.496 107.324 99.4968 107.324 93.3305C107.324 87.1643 102.325 82.1655 96.1591 82.1655C89.9928 82.1655 84.994 87.1643 84.994 93.3305C84.994 99.4968 89.9928 104.496 96.1591 104.496Z" fill="white"/>
<path d="M160.668 104.496C166.835 104.496 171.833 98.7562 171.833 91.6764C171.833 84.5967 166.835 78.8574 160.668 78.8574C154.502 78.8574 149.503 84.5967 149.503 91.6764C149.503 98.7562 154.502 104.496 160.668 104.496Z" fill="#263238" fill-opacity="0.2"/>
<path d="M160.668 104.496C166.835 104.496 171.833 99.4968 171.833 93.3305C171.833 87.1643 166.835 82.1655 160.668 82.1655C154.502 82.1655 149.503 87.1643 149.503 93.3305C149.503 99.4968 154.502 104.496 160.668 104.496Z" fill="white"/>
<path fill-rule="evenodd" clip-rule="evenodd" d="M57.2498 54.0016C56.4618 53.9798 55.6841 54.1836 55.0081 54.5891C54.3322 54.9946 53.7862 55.585 53.4345 56.2905C53.0828 56.9959 52.94 57.787 53.023 58.5709C53.106 59.3547 53.4112 60.0986 53.9028 60.7148L65.8238 76.1444C65.4037 77.2464 65.1519 78.432 65.1519 79.6852V92.9178V102.396V102.842C65.1519 108.34 69.5782 112.767 75.0764 112.767H180.938C186.436 112.767 190.862 108.34 190.862 102.842V89.6096V80.131V79.6852C190.862 78.4271 190.607 77.2371 190.184 76.1315L202.098 60.7148C202.596 60.0904 202.902 59.3354 202.98 58.5408C203.058 57.7462 202.904 56.9459 202.538 56.2368C202.171 55.5276 201.606 54.9398 200.913 54.5443C200.219 54.1489 199.426 53.9627 198.629 54.0082C198.027 54.0422 197.44 54.2072 196.909 54.4918C196.377 54.7764 195.915 55.1735 195.553 55.6557L184.201 70.3485C183.174 69.9915 182.089 69.7607 180.938 69.7607H75.0764C73.9233 69.7607 72.8349 69.9889 71.807 70.3485L60.4481 55.6557C60.0741 55.1567 59.5922 54.7488 59.0384 54.4623C58.4845 54.1759 57.8731 54.0183 57.2498 54.0016ZM75.0764 116.075C74.3891 116.075 73.7206 116.144 73.0734 116.276C68.5428 117.19 65.1519 121.139 65.1519 125.904V126V191.433V191.528V192.162C65.1519 197.66 69.5782 202.086 75.0764 202.086H180.938C186.436 202.086 190.862 197.66 190.862 192.162V125.998V125.903C190.862 121.138 187.471 117.189 182.941 116.276C182.293 116.147 181.625 116.074 180.938 116.074L75.0764 116.075Z" fill="url(#radialGradient)"/>
<radialGradient id="radialGradient" cx="0" cy="0" r="1" gradientUnits="userSpaceOnUse" gradientTransform="translate(53.0083 54.0044) rotate(90) scale(148.107 158.792)">
<stop stop-color="white" stop-opacity="0.0980392"/>
<stop offset="1" stop-color="white" stop-opacity="0"/>
</radialGradient>
</svg>