<svg width="256" height="256" title="Fedora Linux" viewBox="0 0 256 256" fill="none" xmlns="http://www.w3.org/2000/svg" id="fedora">
<style>
#fedora {
    rect {fill: #15191C}

    @media (prefers-color-scheme: light) {
        rect {fill: #F4F2ED}
    }
}
</style>
<rect width="256" height="256" rx="40" fill="#15191C"/>
<path d="M128.043 50C83.8633 50 48.093 85.1138 48.0149 128.465H48V189.205H48.0149C48.0354 199.036 56.1661 207 66.1931 207H128.05C172.238 206.972 208 171.863 208 128.535C208 85.1841 172.191 50.0703 127.972 50.0703L128.043 50Z" fill="#51A2DA"/>
<path d="M144.307 82.2863C131.826 82.2863 120.801 91.5 119.275 103.59C119.172 104.602 119.143 105.332 119.137 106.249L119.151 155.68C119.151 165.162 111.914 171.616 102.872 171.616C93.8174 171.616 86.5227 164.52 86.5227 155.665C86.6712 145.944 94.604 139.779 103.857 139.511H103.907L113.3 139.426V126.375L103.907 126.444C87.0649 126.296 73.6967 139.23 73.2084 155.673C73.2084 171.663 86.6038 184.698 102.867 184.698C118.209 184.698 130.976 172.944 132.37 158.236C132.571 153.23 132.473 146.623 132.473 146.623C132.501 143.902 132.43 144.879 132.458 139.477L144.111 139.392C153.127 139.455 153.026 126.135 144.007 126.318L132.456 126.402C132.456 119.697 132.563 113.033 132.456 106.317C132.464 100.509 138.073 95.3761 144.296 95.3761C150.521 95.3761 157.105 98.4236 157.105 106.317C157.105 107.445 157.082 108.101 157.019 108.519C156.324 112.18 158.874 115.678 162.63 116.206C166.387 116.728 169.837 114.067 170.209 110.365C170.425 108.901 170.417 107.609 170.417 106.318C170.417 92.3993 157.733 82.3095 144.298 82.3095L144.307 82.2863Z" fill="white"/>
</svg>