<svg width="256" height="256" title="Fiber" viewBox="0 0 256 256" fill="none" xmlns="http://www.w3.org/2000/svg" id="fiber">
<style>
#fiber {
    rect {fill: #15191C}
    path.fiber {fill: white}

    @media (prefers-color-scheme: light) {
        rect {fill: #F4F2ED}
        path.fiber {fill: black}
    }
}
</style>
<rect width="256" height="256" rx="40" fill="#15191C"/>
<path d="M89.4725 107.804H118.73L117.305 116.163H98.4082L96.9855 124.895H114.02L112.598 133.281H95.5629L92.7151 150.391H82.3568L89.4725 107.804Z" class="fiber" fill="white"/>
<path d="M119.204 118.45H129.439L124.091 150.383H113.856L119.204 118.45ZM120.446 109.844C120.868 107.168 123.527 105 126.405 105C129.282 105 131.333 107.168 130.975 109.844C130.618 112.52 127.941 114.708 125.054 114.708C122.166 114.708 120.053 112.503 120.446 109.844Z" class="fiber" fill="white"/>
<path d="M134.749 107.804H144.981L142.324 123.918H142.543C144.216 120.985 147.546 118.035 152.631 118.035C159.349 118.035 164.548 123.171 162.654 134.438C160.854 145.31 154.157 150.84 147.042 150.84C142.188 150.84 139.76 148.159 139.007 145.206H138.608L137.771 150.386H127.646L134.749 107.804ZM144.857 142.932C148.623 142.932 151.312 139.585 152.139 134.43C152.966 129.275 151.469 125.987 147.67 125.987C143.923 125.987 141.182 129.211 140.346 134.43C139.499 139.592 141.11 142.932 144.857 142.932Z" class="fiber" fill="white"/>
<path d="M163.843 134.546C165.494 124.651 172.861 118.04 182.551 118.04C191.675 118.04 197.118 123.839 195.36 134.339L194.96 136.874H173.553L173.489 137.249C172.841 141.304 174.765 143.662 178.762 143.662C181.421 143.662 183.728 142.54 184.895 140.399L194.228 140.668C191.949 146.948 185.816 151 177.345 151C167.252 150.985 162.105 144.75 163.843 134.546ZM186.402 130.97C186.926 127.706 184.957 125.378 181.61 125.378C178.303 125.378 175.373 127.81 174.641 130.97H186.402Z" class="fiber" fill="white"/>
<path d="M200.343 118.45H210.274L209.281 124.271H209.616C211.521 120.051 214.679 118.021 218.194 118.021C219.14 118.027 220.081 118.143 221 118.366L219.493 127.223C218.552 126.87 216.814 126.683 215.538 126.683C211.918 126.683 208.777 129.241 208.109 133.044L205.219 150.383H194.987L200.343 118.45Z" class="fiber" fill="white"/>
<path d="M83.1463 119.108H49.7499L47.0783 122.875L82.5281 122.855L83.1463 119.108Z" fill="#00ACD7"/>
<path d="M81.967 126.915H38.7485L36 130.666L81.3487 130.634L81.967 126.915Z" fill="#00ACD7"/>
<path d="M80.7876 134.719H62.3229L59.8401 138.485L80.1694 138.47L80.7876 134.719Z" fill="#00ACD7"/>
</svg>