<svg width="256" height="256" title="Firefox" viewBox="0 0 256 256" fill="none" xmlns="http://www.w3.org/2000/svg" id="firefox">
<style>
#firefox {
    rect {fill: #15191C}

    @media (prefers-color-scheme: light) {
        rect {fill: #F4F2ED}
    }
}
</style>
<rect width="256" height="256" rx="40" fill="#15191C"/>
<path d="M197.57 101.978C194.307 94.1268 187.689 85.65 182.506 82.9705C186.202 90.13 188.768 97.8188 190.11 105.764L190.124 105.889C181.634 84.7219 167.236 76.1871 155.477 57.6024C154.87 56.655 154.28 55.6965 153.709 54.7272C153.414 54.221 153.138 53.704 152.881 53.1774C152.393 52.233 152.017 51.2348 151.761 50.2032C151.761 50.1555 151.744 50.1095 151.713 50.0737C151.681 50.0379 151.638 50.015 151.59 50.0092C151.544 49.9969 151.495 49.9969 151.449 50.0092C151.44 50.0092 151.424 50.0268 151.412 50.0309C151.401 50.0344 151.375 50.052 151.358 50.0596L151.387 50.0092C132.526 61.0536 126.126 81.4981 125.537 91.7244C118.004 92.2421 110.803 95.0177 104.871 99.6891C104.252 99.165 103.605 98.6748 102.934 98.2207C101.223 92.2318 101.15 85.8935 102.723 79.8668C95.7959 83.2223 89.6411 87.9791 84.6476 93.8362H84.6125C81.6365 90.0639 81.8457 77.625 82.0162 75.0264C81.1358 75.3805 80.2954 75.8267 79.509 76.3577C76.8819 78.2329 74.4259 80.3368 72.1695 82.6448C69.5987 85.2516 67.2507 88.069 65.15 91.0676V91.0787V91.0653C60.3224 97.9099 56.8981 105.643 55.0748 113.818L54.9746 114.313C54.6975 115.872 54.4513 117.435 54.2363 119.003C54.2363 119.059 54.2246 119.111 54.2187 119.167C53.5614 122.584 53.1541 126.044 53 129.519V129.907C53.0504 187.716 115.662 223.792 165.702 194.844C175.225 189.334 183.421 181.8 189.711 172.773C196 163.746 200.23 153.447 202.1 142.605C202.226 141.637 202.328 140.678 202.441 139.699C203.987 126.916 202.313 113.949 197.57 101.978ZM111.021 160.758C111.372 160.927 111.701 161.109 112.061 161.269L112.113 161.303C111.746 161.127 111.382 160.945 111.021 160.758ZM190.13 105.907V105.835L190.143 105.915L190.13 105.907Z" fill="url(#linearGradient1)"/>
<path d="M197.57 101.978C194.307 94.1268 187.689 85.65 182.506 82.9705C186.202 90.13 188.768 97.8188 190.11 105.764V105.835L190.124 105.915C195.912 122.478 195.075 140.636 187.787 156.596C179.181 175.063 158.349 193.99 125.74 193.07C90.5064 192.072 59.4769 165.928 53.6762 131.684C52.6203 126.284 53.6762 123.546 54.207 119.157C53.4827 122.566 53.0786 126.035 53 129.519V129.907C53.0504 187.716 115.662 223.792 165.702 194.844C175.225 189.334 183.421 181.8 189.711 172.773C196 163.746 200.23 153.447 202.1 142.605C202.226 141.637 202.328 140.678 202.441 139.699C203.987 126.916 202.313 113.949 197.57 101.978Z" fill="url(#radialGradient1)"/>
<path d="M197.57 101.978C194.307 94.1268 187.689 85.65 182.506 82.9705C186.202 90.13 188.768 97.8188 190.11 105.764V105.835L190.124 105.915C195.912 122.478 195.075 140.636 187.787 156.596C179.181 175.063 158.349 193.99 125.74 193.07C90.5064 192.072 59.4769 165.928 53.6762 131.684C52.6203 126.284 53.6762 123.546 54.207 119.157C53.4827 122.566 53.0786 126.035 53 129.519V129.907C53.0504 187.716 115.662 223.792 165.702 194.844C175.225 189.334 183.421 181.8 189.711 172.773C196 163.746 200.23 153.447 202.1 142.605C202.226 141.637 202.328 140.678 202.441 139.699C203.987 126.916 202.313 113.949 197.57 101.978Z" fill="url(#radialGradient2)"/>
<path d="M161.078 110.805C161.241 110.919 161.393 111.033 161.545 111.148C159.659 107.803 157.311 104.741 154.57 102.051C131.231 78.7078 148.454 51.4372 151.358 50.052L151.387 50.0092C132.526 61.0536 126.126 81.4981 125.537 91.7244C126.413 91.6641 127.28 91.5903 128.176 91.5903C134.868 91.6027 141.438 93.3871 147.217 96.762C152.997 100.137 157.779 104.982 161.078 110.805Z" fill="url(#radialGradient3)"/>
<path d="M128.224 115.467C128.1 117.335 121.501 123.776 119.193 123.776C97.84 123.776 94.3736 136.694 94.3736 136.694C95.3193 147.571 102.899 156.53 112.061 161.269C112.48 161.487 112.904 161.682 113.329 161.874C114.055 162.196 114.79 162.497 115.534 162.777C118.678 163.89 121.971 164.525 125.304 164.662C162.731 166.417 169.982 119.906 142.972 106.409C149.344 105.579 155.797 107.146 161.078 110.805C157.779 104.982 152.997 100.137 147.217 96.762C141.438 93.3871 134.868 91.6027 128.176 91.5903C127.285 91.5903 126.413 91.6641 125.537 91.7244C118.004 92.2421 110.803 95.0177 104.871 99.6891C106.016 100.658 107.309 101.953 110.031 104.636C115.126 109.656 128.195 114.856 128.224 115.467Z" fill="url(#radialGradient4)"/>
<path d="M128.224 115.467C128.1 117.335 121.501 123.776 119.193 123.776C97.84 123.776 94.3736 136.694 94.3736 136.694C95.3193 147.571 102.899 156.53 112.061 161.269C112.48 161.487 112.904 161.682 113.329 161.874C114.055 162.196 114.79 162.497 115.534 162.777C118.678 163.89 121.971 164.525 125.304 164.662C162.731 166.417 169.982 119.906 142.972 106.409C149.344 105.579 155.797 107.146 161.078 110.805C157.779 104.982 152.997 100.137 147.217 96.762C141.438 93.3871 134.868 91.6027 128.176 91.5903C127.285 91.5903 126.413 91.6641 125.537 91.7244C118.004 92.2421 110.803 95.0177 104.871 99.6891C106.016 100.658 107.309 101.953 110.031 104.636C115.126 109.656 128.195 114.856 128.224 115.467Z" fill="url(#radialGradient5)"/>
<path d="M101.37 97.1918C101.894 97.5247 102.41 97.8677 102.92 98.2207C101.209 92.2318 101.136 85.8935 102.709 79.8668C95.7823 83.2225 89.6273 87.9792 84.6336 93.8362C84.9998 93.8262 95.8929 93.6305 101.37 97.1918Z" fill="url(#radialGradient6)"/>
<path d="M53.6861 131.684C59.4811 165.928 90.5164 192.072 125.75 193.07C158.359 193.992 179.19 175.063 187.797 156.596C195.085 140.636 195.922 122.478 190.134 105.915V105.843C190.134 105.787 190.122 105.754 190.134 105.771L190.147 105.897C192.812 123.29 183.965 140.141 170.135 151.535L170.092 151.632C143.145 173.579 117.356 164.873 112.137 161.32C111.77 161.144 111.405 160.963 111.044 160.775C95.3328 153.265 88.8424 138.951 90.2334 126.675C86.5039 126.73 82.8384 125.702 79.6811 123.716C76.5239 121.73 74.0103 118.872 72.4449 115.486C76.5691 112.959 81.2717 111.531 86.1044 111.337C90.9372 111.143 95.7391 112.19 100.053 114.378C108.945 118.415 119.065 118.813 128.247 115.486C128.219 114.875 115.15 109.673 110.054 104.655C107.332 101.972 106.04 100.679 104.895 99.709C104.276 99.1846 103.629 98.6942 102.957 98.2401C102.511 97.936 102.01 97.6067 101.407 97.2112C95.9299 93.6498 85.0367 93.8455 84.6764 93.8555H84.6418C81.6658 90.0832 81.875 77.6444 82.0455 75.0463C81.165 75.3998 80.3245 75.8459 79.5383 76.377C76.9111 78.2521 74.4551 80.356 72.1988 82.6641C69.619 85.2638 67.2611 88.0748 65.15 91.0676V91.0787V91.0653C60.3224 97.9099 56.8981 105.643 55.0748 113.818C55.0385 113.971 52.3701 125.634 53.6861 131.684Z" fill="url(#radialGradient7)"/>
<path d="M154.575 102.051C157.316 104.744 159.664 107.81 161.55 111.158C161.939 111.447 162.315 111.755 162.675 112.08C179.7 127.774 170.78 149.958 170.115 151.538C183.945 140.143 192.784 123.292 190.128 105.899C181.634 84.7219 167.236 76.1871 155.477 57.6024C154.87 56.655 154.28 55.6965 153.709 54.7272C153.414 54.221 153.138 53.704 152.881 53.1774C152.393 52.233 152.017 51.2348 151.761 50.2032C151.761 50.1555 151.744 50.1095 151.713 50.0737C151.681 50.0379 151.638 50.015 151.59 50.0092C151.544 49.9969 151.495 49.9969 151.449 50.0092C151.44 50.0092 151.424 50.0268 151.412 50.0309C151.401 50.0344 151.375 50.052 151.358 50.0596C148.454 51.4372 131.231 78.7078 154.575 102.051Z" fill="url(#radialGradient8)"/>
<path d="M162.663 112.07C162.303 111.745 161.927 111.438 161.538 111.148C161.385 111.033 161.234 110.919 161.071 110.805C155.789 107.146 149.336 105.58 142.965 106.409C169.974 119.913 162.727 166.417 125.296 164.662C121.964 164.525 118.67 163.89 115.526 162.777C114.782 162.498 114.047 162.197 113.321 161.874C112.896 161.68 112.472 161.487 112.054 161.269L112.106 161.303C117.325 164.866 143.106 173.571 170.061 151.615L170.104 151.518C170.776 149.948 179.696 127.758 162.663 112.07Z" fill="url(#radialGradient9)"/>
<path d="M94.3736 136.694C94.3736 136.694 97.84 123.776 119.193 123.776C121.501 123.776 128.106 117.335 128.224 115.467C119.042 118.793 108.922 118.395 100.03 114.358C95.716 112.17 90.914 111.124 86.0812 111.318C81.2484 111.512 76.5458 112.94 72.4215 115.467C73.9868 118.852 76.5004 121.711 79.6577 123.697C82.815 125.683 86.4804 126.711 90.2099 126.656C88.8189 138.934 95.3094 153.248 111.021 160.756C111.372 160.925 111.701 161.107 112.061 161.268C102.891 156.53 95.3193 147.571 94.3736 136.694Z" fill="url(#radialGradient10)"/>
<path d="M197.57 101.978C194.307 94.1268 187.689 85.65 182.506 82.9705C186.202 90.13 188.768 97.8188 190.11 105.764L190.124 105.889C181.634 84.7219 167.236 76.1871 155.477 57.6024C154.87 56.655 154.28 55.6965 153.709 54.7272C153.414 54.221 153.138 53.704 152.881 53.1774C152.393 52.233 152.017 51.2348 151.761 50.2032C151.761 50.1555 151.744 50.1095 151.713 50.0737C151.681 50.0379 151.638 50.015 151.59 50.0092C151.544 49.9969 151.495 49.9969 151.449 50.0092C151.44 50.0092 151.424 50.0268 151.412 50.0309C151.401 50.0344 151.375 50.052 151.358 50.0596L151.387 50.0092C132.526 61.0536 126.126 81.4981 125.537 91.7244C126.413 91.6641 127.28 91.5903 128.176 91.5903C134.868 91.6027 141.438 93.3871 147.217 96.762C152.997 100.137 157.779 104.982 161.078 110.805C155.797 107.146 149.344 105.579 142.972 106.409C169.982 119.913 162.736 166.417 125.304 164.662C121.971 164.525 118.678 163.89 115.534 162.777C114.79 162.498 114.054 162.197 113.329 161.874C112.904 161.68 112.48 161.487 112.061 161.269L112.113 161.303C111.746 161.127 111.382 160.945 111.021 160.758C111.372 160.927 111.701 161.109 112.061 161.269C102.891 156.53 95.3193 147.571 94.3736 136.694C94.3736 136.694 97.84 123.776 119.193 123.776C121.501 123.776 128.106 117.335 128.224 115.467C128.195 114.856 115.126 109.654 110.031 104.636C107.309 101.953 106.016 100.66 104.871 99.6891C104.252 99.165 103.605 98.6748 102.934 98.2207C101.223 92.2318 101.15 85.8935 102.723 79.8668C95.7959 83.2223 89.6411 87.9791 84.6476 93.8362H84.6125C81.6365 90.0639 81.8457 77.625 82.0162 75.0264C81.1358 75.3805 80.2954 75.8267 79.509 76.3577C76.8819 78.2329 74.4259 80.3368 72.1695 82.6448C69.5987 85.2516 67.2507 88.069 65.15 91.0676V91.0787V91.0653C60.3224 97.9099 56.8981 105.643 55.0748 113.818L54.9746 114.313C54.8328 114.974 54.1994 118.33 54.108 119.051C54.108 119.105 54.108 118.995 54.108 119.051C53.5287 122.515 53.1586 126.011 53 129.519V129.907C53.0504 187.716 115.662 223.792 165.702 194.844C175.225 189.334 183.421 181.8 189.711 172.773C196 163.746 200.23 153.447 202.1 142.605C202.226 141.637 202.328 140.678 202.441 139.699C203.987 126.916 202.313 113.949 197.57 101.978Z" fill="url(#linearGradient2)"/>
<linearGradient id="linearGradient1" x1="187.63" y1="74.0033" x2="62.9722" y2="194.275" gradientUnits="userSpaceOnUse">
<stop offset="0.048" stop-color="#FFF44F"/>
<stop offset="0.111" stop-color="#FFE847"/>
<stop offset="0.225" stop-color="#FFC830"/>
<stop offset="0.368" stop-color="#FF980E"/>
<stop offset="0.401" stop-color="#FF8B16"/>
<stop offset="0.462" stop-color="#FF672A"/>
<stop offset="0.534" stop-color="#FF3647"/>
<stop offset="0.705" stop-color="#E31587"/>
</linearGradient>
<radialGradient id="radialGradient1" cx="0" cy="0" r="1" gradientUnits="userSpaceOnUse" gradientTransform="translate(181.873 29.9668) scale(156.546 198.825)">
<stop offset="0.129" stop-color="#FFBD4F"/>
<stop offset="0.186" stop-color="#FFAC31"/>
<stop offset="0.247" stop-color="#FF9D17"/>
<stop offset="0.283" stop-color="#FF980E"/>
<stop offset="0.403" stop-color="#FF563B"/>
<stop offset="0.467" stop-color="#FF3750"/>
<stop offset="0.71" stop-color="#F5156C"/>
<stop offset="0.782" stop-color="#EB0878"/>
<stop offset="0.86" stop-color="#E50080"/>
</radialGradient>
<radialGradient id="radialGradient2" cx="0" cy="0" r="1" gradientUnits="userSpaceOnUse" gradientTransform="translate(124.669 111.252) scale(156.546 198.825)">
<stop offset="0.3" stop-color="#960E18"/>
<stop offset="0.351" stop-color="#B11927" stop-opacity="0.74"/>
<stop offset="0.435" stop-color="#DB293D" stop-opacity="0.343"/>
<stop offset="0.497" stop-color="#F5334B" stop-opacity="0.094"/>
<stop offset="0.53" stop-color="#FF3750" stop-opacity="0"/>
</radialGradient>
<radialGradient id="radialGradient3" cx="0" cy="0" r="1" gradientUnits="userSpaceOnUse" gradientTransform="translate(128.007 3.49358) scale(472.43 287.614)">
<stop offset="0.132" stop-color="#FFF44F"/>
<stop offset="0.252" stop-color="#FFDC3E"/>
<stop offset="0.506" stop-color="#FF9D12"/>
<stop offset="0.526" stop-color="#FF980E"/>
</radialGradient>
<radialGradient id="radialGradient4" cx="0" cy="0" r="1" gradientUnits="userSpaceOnUse" gradientTransform="translate(82.1886 220.695) scale(167.615 158.057)">
<stop offset="0.353" stop-color="#3A8EE6"/>
<stop offset="0.472" stop-color="#5C79F0"/>
<stop offset="0.669" stop-color="#9059FF"/>
<stop offset="1" stop-color="#C139E6"/>
</radialGradient>
<radialGradient id="radialGradient5" cx="0" cy="0" r="1" gradientUnits="userSpaceOnUse" gradientTransform="translate(140.416 106.785) rotate(-12.8429) scale(88.5961 98.4111)">
<stop offset="0.206" stop-color="#9059FF" stop-opacity="0"/>
<stop offset="0.278" stop-color="#8C4FF3" stop-opacity="0.064"/>
<stop offset="0.747" stop-color="#7716A8" stop-opacity="0.45"/>
<stop offset="0.975" stop-color="#6E008B" stop-opacity="0.6"/>
</radialGradient>
<radialGradient id="radialGradient6" cx="0" cy="0" r="1" gradientUnits="userSpaceOnUse" gradientTransform="translate(365.193 -111.14) scale(439.855 452.992)">
<stop stop-color="#FFE226"/>
<stop offset="0.121" stop-color="#FFDB27"/>
<stop offset="0.295" stop-color="#FFC82A"/>
<stop offset="0.502" stop-color="#FFA930"/>
<stop offset="0.732" stop-color="#FF7E37"/>
<stop offset="0.792" stop-color="#FF7139"/>
</radialGradient>
<radialGradient id="radialGradient7" cx="0" cy="0" r="1" gradientUnits="userSpaceOnUse" gradientTransform="translate(171.96 -13.3899) scale(244.046 300.475)">
<stop offset="0.113" stop-color="#FFF44F"/>
<stop offset="0.456" stop-color="#FF980E"/>
<stop offset="0.622" stop-color="#FF5634"/>
<stop offset="0.716" stop-color="#FF3647"/>
<stop offset="0.904" stop-color="#E31587"/>
</radialGradient>
<radialGradient id="radialGradient8" cx="0" cy="0" r="1" gradientUnits="userSpaceOnUse" gradientTransform="translate(62.6037 33.9626) rotate(77.8337) scale(260.489 337.47)">
<stop stop-color="#FFF44F"/>
<stop offset="0.06" stop-color="#FFE847"/>
<stop offset="0.168" stop-color="#FFC830"/>
<stop offset="0.304" stop-color="#FF980E"/>
<stop offset="0.356" stop-color="#FF8B16"/>
<stop offset="0.455" stop-color="#FF672A"/>
<stop offset="0.57" stop-color="#FF3647"/>
<stop offset="0.737" stop-color="#E31587"/>
</radialGradient>
<radialGradient id="radialGradient9" cx="0" cy="0" r="1" gradientUnits="userSpaceOnUse" gradientTransform="translate(76.0635 -16.1715) scale(351.344 370.09)">
<stop offset="0.137" stop-color="#FFF44F"/>
<stop offset="0.48" stop-color="#FF980E"/>
<stop offset="0.592" stop-color="#FF5634"/>
<stop offset="0.655" stop-color="#FF3647"/>
<stop offset="0.904" stop-color="#E31587"/>
</radialGradient>
<radialGradient id="radialGradient10" cx="0" cy="0" r="1" gradientUnits="userSpaceOnUse" gradientTransform="translate(286.086 -19.1307) scale(420.222 485.043)">
<stop offset="0.094" stop-color="#FFF44F"/>
<stop offset="0.231" stop-color="#FFE141"/>
<stop offset="0.509" stop-color="#FFAF1E"/>
<stop offset="0.626" stop-color="#FF980E"/>
</radialGradient>
<linearGradient id="linearGradient2" x1="186.133" y1="73.3601" x2="80.0612" y2="179.43" gradientUnits="userSpaceOnUse">
<stop offset="0.167" stop-color="#FFF44F" stop-opacity="0.8"/>
<stop offset="0.266" stop-color="#FFF44F" stop-opacity="0.634"/>
<stop offset="0.489" stop-color="#FFF44F" stop-opacity="0.217"/>
<stop offset="0.6" stop-color="#FFF44F" stop-opacity="0"/>
</linearGradient>
</svg>