<svg width="256" height="256" title="Firebase AI Logic" viewBox="0 0 256 256" fill="none" xmlns="http://www.w3.org/2000/svg" id="firebaseailogic">
<style>
#firebaseailogic {
    rect {fill: #15191C}

    @media (prefers-color-scheme: light) {
        rect {fill: #F4F2ED}
    }
}
</style>
<rect width="256" height="256" rx="40" fill="#15191C"/>
<path d="M128.5 211C174.063 211 211 174.063 211 128.5C211 82.9365 174.063 46 128.5 46C82.9365 46 46 82.9365 46 128.5C46 174.063 82.9365 211 128.5 211Z" fill="url(#linearGradient)"/>
<path d="M152.562 128.5L138.502 142.536L132.759 136.802L141.077 128.5L132.759 120.198L138.502 114.464L152.562 128.5ZM124.241 136.802L118.498 142.536L104.437 128.5L118.498 114.464L124.241 120.198L115.923 128.5L124.241 136.802ZM150.741 106.262C154.628 110.152 156.573 114.888 156.573 120.479C156.573 114.888 158.518 110.148 162.404 106.262C166.294 102.372 171.038 100.427 176.625 100.427C171.035 100.427 166.294 98.482 162.404 94.5916C158.518 90.7021 156.573 85.9652 156.573 80.375C156.573 85.9652 154.628 90.7055 150.741 94.5916C146.852 98.482 142.107 100.427 136.521 100.427C142.112 100.427 146.852 102.372 150.741 106.262ZM128.789 84.3934V93.0155L128.5 92.8514L96.4169 111.014V146.768L128.5 165.039L160.583 146.768V126.182L168.604 121.554V146.659C168.621 148.223 168.216 149.761 167.432 151.114C166.648 152.466 165.514 153.581 164.149 154.343L132.956 172.282C131.607 173.082 130.068 173.506 128.5 173.509C126.932 173.507 125.392 173.083 124.044 172.282L92.8471 154.343C91.4819 153.581 90.3477 152.464 89.5642 151.111C88.7807 149.758 88.3769 148.219 88.3955 146.655V111.232C88.3772 109.668 88.7815 108.128 89.5658 106.774C90.3501 105.421 91.4852 104.305 92.8514 103.543L124.044 85.6129C125.393 84.8125 126.932 84.3887 128.5 84.3857L128.789 84.3934Z" fill="white"/>
<linearGradient id="linearGradient" x1="171.4" y1="46" x2="85.6001" y2="211" gradientUnits="userSpaceOnUse">
<stop stop-color="#FF9100"/>
<stop offset="1" stop-color="#DD2D00"/>
</linearGradient>
</svg>