<svg width="256" height="256" title="Firebase Studio" viewBox="0 0 256 256" fill="none" xmlns="http://www.w3.org/2000/svg" id="firebasestudio">
<style>
#firebasestudio {
    rect {fill: #15191C}

    @media (prefers-color-scheme: light) {
        rect {fill: #F4F2ED}
    }
}
</style>
<rect width="256" height="256" rx="40" fill="#15191C"/>
<path d="M153.612 105.671C154.741 105.743 156.315 106.173 158.16 106.44L176.887 118.535L115.665 154.931C114.745 155.265 113.658 155.618 112.417 155.935C110.857 156.335 109.407 156.591 108.101 156.757C107.105 156.868 105.749 156.982 104.141 156.995L80.6255 128.963L129.988 109.811C129.981 109.817 129.972 109.823 129.962 109.83C135.012 107.935 139.404 106.967 142.624 106.44C146.196 105.856 149.702 105.31 153.617 105.671C153.616 105.671 153.614 105.671 153.612 105.671C153.603 105.669 153.591 105.669 153.583 105.669C153.593 105.669 153.602 105.67 153.612 105.671Z" fill="#FFC400"/>
<path d="M152.473 59.1591C152.082 57.3973 151.59 55.7629 151.037 54.2576C150.056 51.544 147.856 45.6494 142.469 40.3238C141.482 39.3454 140.183 38.1837 138.535 37C131.955 44.9165 126.052 50.6297 122.149 54.1853C111.907 63.5108 95.1432 76.4515 84.3773 86.193C82.5106 87.8815 78.7156 91.7 75.2893 97.5121C75.2829 97.5213 75.2765 97.5314 75.27 97.5442C75.27 97.5442 75.27 97.5378 75.27 97.5341C74.6502 98.6015 73.892 99.9812 73.1007 101.636C72.9834 101.874 72.8633 102.137 72.7331 102.416C72.3993 103.136 72.0628 103.901 71.7291 104.711C70.3859 107.977 68.741 112.065 68.201 117.506C67.7279 122.251 68.2927 126.013 68.5952 127.645C68.7062 128.241 68.8327 128.822 68.9693 129.397C69.4424 131.441 70.0971 133.349 70.8718 135.116C74.5613 143.671 80.6401 148.623 81.6661 149.435C88.1475 154.555 94.6985 156.015 96.788 156.415C99.7514 156.98 102.295 157.056 104.13 157.006C104.13 156.999 104.127 156.989 104.124 156.984C104.133 156.984 104.143 156.984 104.15 156.984C104.137 156.967 104.124 156.948 104.111 156.932C103.742 155.58 103.301 153.612 103.089 151.206C102.361 142.954 104.984 136.595 106.328 133.431C107.344 131.041 109.837 125.428 115.149 120.324C117.627 117.944 120.307 116.024 122.965 114.281C125.848 112.39 128.37 110.916 129.808 109.92C129.856 109.891 129.76 109.948 129.808 109.92C129.862 109.885 129.951 109.828 129.996 109.793C135.045 106.06 144.959 97.6395 150.132 84.073C150.742 82.4826 151.215 80.9205 151.215 80.9205C152.838 75.8579 154.435 68.0339 152.467 59.1527L152.473 59.1591Z" fill="url(#linearGradient1)"/>
<path d="M104.114 157.029C102.279 157.08 99.7321 157.004 96.7724 156.438C94.6829 156.039 88.131 154.579 81.6496 149.458C80.3541 148.434 70.9993 140.812 68.576 127.668C68.2743 126.037 67.7086 122.275 68.1817 117.529C68.7254 112.089 70.3666 108.004 71.7098 104.735C72.9705 101.666 74.2762 99.2309 75.2508 97.5552C75.667 98.7169 76.3556 100.351 77.4962 102.132C80.0368 106.103 83.1524 108.217 85.5683 109.804C86.62 110.493 91.5289 113.642 98.9601 115.296C103.994 116.416 107.969 116.358 109.316 116.314C112.336 116.219 117.134 115.727 122.574 113.616C125.718 112.397 128.255 110.899 129.938 109.849C128.497 110.849 125.835 112.41 122.952 114.299C120.294 116.041 117.614 117.962 115.137 120.342C109.824 125.447 107.331 131.058 106.315 133.448C104.968 136.61 102.349 142.971 103.076 151.224C103.292 153.671 103.746 155.667 104.117 157.019L104.114 157.029Z" fill="#FF9100"/>
<path d="M183.937 154.412C186.185 149.914 187.17 145.169 187.17 145.169C187.42 143.959 187.779 142.176 187.939 139.957C188.082 137.97 187.989 134.736 187.512 132.145C185.995 123.924 179.7 117.264 179.052 116.595C179.052 116.595 174.803 112.193 168.544 109.174C167.626 108.732 166.045 107.965 163.838 107.295C161.667 106.634 159.894 106.371 158.138 106.118C156.276 105.847 154.708 105.717 153.578 105.65C153.845 105.679 154.216 105.733 154.652 105.835C155.677 106.075 156.397 106.441 156.959 106.714C157.484 106.971 158.278 107.371 159.151 108.114C159.506 108.418 159.948 108.796 160.386 109.393C160.745 109.888 161.215 110.665 161.466 111.694C162.222 114.815 160.316 117.722 159.625 118.779C154.715 126.273 128.16 141.896 112.422 158.113C108.414 162.242 105.569 165.937 103.444 170.749C98.6493 181.611 100.364 191.67 100.811 193.987C103.717 209.051 114.663 217.209 117.195 219C124.911 210.379 131.739 203.799 136.779 199.205C149.538 187.582 166.167 174.732 166.167 174.732C166.167 174.732 178.936 164.416 183.934 154.416L183.937 154.412Z" fill="url(#linearGradient2)"/>
<linearGradient id="linearGradient1" x1="82.7835" y1="197.917" x2="179.455" y2="47.0947" gradientUnits="userSpaceOnUse">
<stop stop-color="#F8682F"/>
<stop offset="1" stop-color="#DD2C00"/>
</linearGradient>
<linearGradient id="linearGradient2" x1="136.25" y1="114.2" x2="129.205" y2="237.885" gradientUnits="userSpaceOnUse">
<stop stop-color="#F8682F"/>
<stop offset="0.566586" stop-color="#E92A4E"/>
<stop offset="1" stop-color="#C447FF"/>
</linearGradient>
</svg>