<svg width="256" height="256" title="Fivetran" viewBox="0 0 256 256" fill="none" xmlns="http://www.w3.org/2000/svg" id="fivetran">
<style>
#fivetran {
    rect {fill: #15191C}

    @media (prefers-color-scheme: light) {
        rect {fill: #F4F2ED}
    }
}
</style>
<rect width="256" height="256" rx="40" fill="#15191C"/>
<path d="M150.957 128.5H167.652C168.957 128.5 170.261 127.456 170.261 125.891C170.261 125.63 170.261 125.108 170 124.847L141.304 46.5656C140.783 45.7828 140 45 138.957 45H122.261C120.957 45 119.652 46.0437 119.652 47.6094C119.652 47.8703 119.652 48.1312 119.913 48.3922L148.87 127.195C149.131 127.978 149.913 128.5 150.957 128.5Z" fill="#0073FF"/>
<path d="M148.087 212H164.783C166.087 212 167.391 210.956 167.391 209.391C167.391 209.13 167.391 208.869 167.13 208.608L107.652 46.5656C107.391 45.7828 106.348 45 105.304 45H88.6088C87.3044 45 86.0001 46.0437 86.0001 47.6094C86.0001 47.8703 86.0001 48.1312 86.2609 48.3922L145.739 210.434C146 211.478 147.044 212 148.087 212Z" fill="#0073FF"/>
<path d="M114.957 212H131.652C132.957 212 134 210.956 134.261 209.652C134.261 209.391 134.261 208.869 134 208.608L105.044 130.066C104.783 129.022 103.739 128.5 102.696 128.5H85.7392C84.4348 128.5 83.3914 129.805 83.3914 131.109C83.3914 131.37 83.3914 131.631 83.6522 131.892L112.348 210.434C113.131 211.478 113.913 212 114.957 212Z" fill="#0073FF"/>
<path d="M153.043 48.3922L166.609 85.1844C166.87 86.2281 167.913 86.75 168.957 86.75H185.391C186.696 86.75 188 85.7063 188 84.1406C188 83.8797 188 83.6187 187.739 83.3578L174.174 46.5656C173.913 45.7828 173.13 45 172.087 45H155.391C154.087 45 152.783 46.0437 152.783 47.6094C152.783 47.8703 152.783 48.1312 153.043 48.3922Z" fill="#0073FF"/>
<path d="M84.1739 212H100.87C102.174 212 103.478 210.956 103.478 209.391C103.478 209.13 103.478 208.869 103.217 208.608L89.6522 171.816C89.3913 170.772 88.3478 170.25 87.3043 170.25H70.6087C69.3043 170.25 68 171.294 68 172.859C68 173.12 68 173.381 68.2609 173.642L81.8261 210.434C82.087 211.478 83.1304 212 84.1739 212Z" fill="#0073FF"/>
</svg>