<svg width="256" height="256" title="Flat Assembler" viewBox="0 0 256 256" fill="none" xmlns="http://www.w3.org/2000/svg" id="flatassembler">
<style>
#flatassembler {
    rect {fill: #15191C}

    @media (prefers-color-scheme: light) {
        rect {fill: #F4F2ED}
    }
}
</style>
<rect width="256" height="256" rx="40" fill="#15191C"/>
<path d="M143 136.821H148.333V200.679H143V136.821ZM121.667 136.821H127V200.679H121.667V136.821ZM127 200.679H143V206H127V200.679ZM127 136.821H143V142.143H127V136.821ZM116.333 120.857H132.333V126.179H116.333V120.857ZM100.333 115.536H121.667V120.857H100.333V115.536ZM89.6667 110.214H95V131.5H89.6667V110.214ZM95 120.857H100.333V126.179H95V120.857ZM100.333 99.571H105.667V104.893H100.333V99.571ZM105.667 94.25H148.333V99.571H105.667V94.25ZM95 104.893H100.333V110.214H95V104.893ZM127 126.179H132.333V136.821H127V126.179ZM137.667 126.179H143V136.821H137.667V126.179ZM137.667 120.857H148.333V126.179H137.667V120.857ZM148.333 115.536H159V120.857H148.333V115.536ZM159 120.857H175V126.179H159V120.857ZM169.667 99.571H175V120.857H169.667V99.571ZM159 94.25H169.667V99.571H159V94.25ZM148.333 99.571H159V104.893H148.333V99.571Z" fill="black"/>
<path d="M105.667 94.25H148.333V99.571H105.667V94.25ZM175 126.179H180.333V152.786H175L175 126.179ZM185.667 115.536H191V142.143H185.667V115.536ZM201.667 99.571H207V126.179H201.667V99.571ZM196.333 115.536H201.667V142.143H196.333V115.536ZM153.667 136.821H159V163.429H153.667V136.821ZM100.333 158.107H105.667V184.714H100.333V158.107ZM111 158.107H116.333V184.714H111V158.107ZM164.333 126.179H169.667V152.786H164.333V126.179ZM148.333 163.429H153.667V168.75H148.333V163.429ZM169.667 152.786H175V158.107H169.667V152.786ZM180.333 131.5H185.667V136.821H180.333V131.5ZM191 142.143H196.333V147.464H191V142.143ZM191 110.214H196.333V115.536H191V110.214ZM105.667 152.786H111V158.107H105.667V152.786ZM116.333 163.429H121.667V168.75H116.333V163.429ZM105.667 184.714H111V190.036H105.667V184.714ZM84.3333 168.75H89.6667V174.071H84.3333V168.75ZM79 163.429H84.3333V168.75H79V163.429ZM73.6667 158.107H79V163.429H73.6667V158.107ZM68.3333 152.786H73.6667V158.107H68.3333V152.786ZM63 147.464H68.3333V152.786H63V147.464ZM57.6667 142.143H63V147.464H57.6667V142.143ZM52.3333 136.821H57.6667V142.143H52.3333V136.821ZM196.333 94.25H201.667V99.571H196.333V94.25ZM191 88.9286H196.333V94.25H191V88.9286ZM185.667 83.6071H191V88.9286H185.667V83.6071ZM180.333 78.2857H185.667V83.6071H180.333V78.2857ZM175 72.9643H180.333V78.2857H175V72.9643ZM169.667 67.6429H175V72.9643H169.667V67.6429ZM164.333 62.3214H169.667V67.6429H164.333V62.3214ZM57.6667 99.571H63V104.893H57.6667V99.571ZM79 88.9286H84.3333V94.25H79V88.9286ZM100.333 78.2857H105.667V83.6071H100.333V78.2857ZM121.667 67.6429H127V72.9643H121.667V67.6429ZM143 57H148.333V62.3214H143V57ZM159 57H164.333V62.3214H159V57ZM89.6667 174.071H100.333V179.393H89.6667V174.071ZM159 142.143H164.333V147.464H159V142.143ZM148.333 131.5H153.667V136.821H148.333L148.333 131.5Z" fill="black"/>
<path d="M175 94.25L196.333 94.25V104.893H175V94.25ZM185.667 88.9286H191V94.25L185.667 94.25V88.9286ZM175 104.893H185.667V110.214H175V104.893ZM191 115.536H196.333V120.857H191V115.536ZM159 99.571L164.333 99.571V104.893L159 104.893V99.571ZM148.333 104.893H159L159 110.214H148.333L148.333 104.893ZM148.333 120.857L153.667 120.857V126.179L148.333 126.179V120.857ZM105.667 99.571H148.333V104.893H105.667V99.571ZM100.333 104.893H105.667L105.667 110.214L100.333 110.214V104.893ZM95 110.214H100.333V115.536L95 115.536L95 110.214ZM89.6667 168.75L95 168.75V174.071L89.6667 174.071V168.75ZM105.667 158.107H111V163.429H105.667L105.667 158.107ZM84.3333 94.25L100.333 94.25L100.333 104.893L84.3333 104.893L84.3333 94.25Z" fill="#C0C0C0"/>
<path d="M73.6667 99.571H95V110.214L73.6667 110.214V99.571Z" fill="#C0C0C0"/>
<path d="M63 104.893L89.6667 104.893V126.179H63L63 104.893ZM100.333 120.857H116.333L116.333 142.143H100.333L100.333 120.857ZM84.3333 131.5H100.333V147.464H84.3333V131.5Z" fill="#C0C0C0"/>
<path d="M73.6667 126.179H89.6667L89.6667 136.821H73.6667V126.179ZM57.6667 136.821L73.6667 136.821V142.143L57.6667 142.143V136.821ZM52.3333 131.5H68.3333V136.821L52.3333 136.821V131.5ZM52.3333 126.179H63L63 131.5H52.3333V126.179ZM52.3333 110.214H63V115.536H52.3333V110.214ZM116.333 78.2857H127V83.6071H116.333V78.2857ZM95 88.9286H105.667L105.667 94.25L95 94.25V88.9286ZM100.333 94.25L105.667 94.25V99.571H100.333L100.333 94.25ZM57.6667 115.536H63V120.857H57.6667V115.536ZM68.3333 126.179H73.6667V131.5H68.3333V126.179ZM52.3333 120.857H57.6667V126.179H52.3333V120.857ZM79 136.821H84.3333V142.143H79V136.821ZM89.6667 147.464H100.333L100.333 152.786H89.6667V147.464Z" fill="#C0C0C0"/>
<path d="M89.6667 147.464H100.333L100.333 152.786H89.6667V147.464ZM100.333 142.143H111V147.464H100.333V142.143ZM116.333 126.179H127L127 131.5H116.333L116.333 126.179ZM116.333 131.5H127L127 136.821L116.333 136.821V131.5ZM116.333 136.821L121.667 136.821L121.667 142.143H116.333V136.821ZM95 126.179H100.333L100.333 131.5L95 131.5V126.179ZM148.333 94.25H159V99.571H148.333V94.25ZM169.667 94.25L175 94.25L175 99.571H169.667V94.25ZM175 78.2857H180.333V83.6071L175 83.6071L175 78.2857ZM137.667 67.6429L169.667 67.6429V72.9643L137.667 72.9643V67.6429ZM148.333 62.3214H164.333V67.6429L148.333 67.6429L148.333 62.3214ZM63 142.143L79 142.143L79 147.464L63 147.464V142.143ZM68.3333 147.464L84.3333 147.464V152.786L68.3333 152.786V147.464ZM79 158.107L95 158.107V163.429L79 163.429V158.107ZM84.3333 163.429L95 163.429L95 168.75L84.3333 168.75V163.429ZM73.6667 152.786L89.6667 152.786L89.6667 158.107L73.6667 158.107V152.786ZM105.667 83.6071H185.667V94.25L105.667 94.25L105.667 83.6071ZM127 72.9643H175L175 83.6071H127V72.9643ZM164.333 99.571L169.667 99.571L169.667 110.214H164.333L164.333 99.571ZM159 104.893L164.333 104.893L164.333 115.536L159 115.536V104.893ZM121.667 104.893L148.333 104.893V115.536H121.667L121.667 104.893ZM132.333 115.536H137.667L137.667 136.821H132.333L132.333 115.536ZM104.6 104.893H121.667V110.214H104.6V104.893Z" fill="#C0C0C0"/>
<path d="M196.333 99.571H201.667V115.536H196.333V99.571ZM180.333 110.214L185.667 110.214V131.5H180.333L180.333 110.214ZM175 110.214L180.333 110.214L180.333 126.179H175L175 110.214ZM185.667 104.893L191 104.893L191 115.536H185.667V104.893ZM191 104.893L196.333 104.893V110.214H191L191 104.893ZM164.333 110.214H169.667V115.536L164.333 115.536V110.214ZM159 115.536H169.667L169.667 120.857H159V115.536ZM143 126.179H164.333L164.333 131.5H143L143 126.179ZM153.667 131.5H164.333V136.821H153.667V131.5ZM153.667 120.857L159 120.857V126.179L153.667 126.179V120.857ZM143 131.5H148.333L148.333 136.821H143L143 131.5ZM148.333 136.821H153.667V163.429H148.333L148.333 136.821ZM116.333 142.143H121.667L121.667 163.429H116.333L116.333 142.143ZM47 110.214L52.3333 110.214V136.821H47V110.214ZM52.3333 104.893H63V110.214H52.3333L52.3333 104.893ZM63 99.571L73.6667 99.571L73.6667 104.893H63V99.571ZM73.6667 94.25H84.3333L84.3333 99.571L73.6667 99.571L73.6667 94.25ZM84.3333 88.9286L95 88.9286V94.25L84.3333 94.25V88.9286ZM95 83.6071H105.667V88.9286H95L95 83.6071ZM105.667 78.2857L116.333 78.2857V83.6071L105.667 83.6071V78.2857ZM116.333 72.9643H127V78.2857H116.333L116.333 72.9643ZM127 67.6429L137.667 67.6429V72.9643L127 72.9643V67.6429ZM137.667 62.3214H148.333L148.333 67.6429H137.667V62.3214ZM148.333 57H159V62.3214H148.333V57ZM105.667 163.429H111V184.714H105.667L105.667 163.429ZM111 142.143H116.333L116.333 158.107H111L111 142.143ZM95 163.429L100.333 163.429L100.333 174.071L95 174.071L95 163.429ZM100.333 147.464H111L111 152.786L100.333 152.786L100.333 147.464ZM95 152.786H105.667V158.107L95 158.107V152.786ZM159 136.821H164.333L164.333 142.143H159V136.821ZM148.333 110.214H159L159 115.536H148.333L148.333 110.214ZM137.667 115.536L148.333 115.536V120.857H137.667L137.667 115.536ZM121.667 115.536L132.333 115.536L132.333 120.857H121.667V115.536ZM100.333 110.214L121.667 110.214L121.667 115.536H100.333V110.214ZM95 115.536L100.333 115.536V120.857H95L95 115.536ZM191 120.857H196.333V142.143H191V120.857ZM169.667 126.179H175L175 152.786H169.667V126.179Z" fill="#808080"/>
<path d="M95 110.214H100.333V115.536L95 115.536L95 110.214ZM100.333 104.893H105.667L105.667 110.214L100.333 110.214V104.893ZM105.667 99.571H148.333V104.893H105.667V99.571ZM148.333 104.893H159L159 110.214H148.333L148.333 104.893ZM159 99.571H169.667L169.667 104.893L159 104.893V99.571Z" fill="white"/>
<path d="M137.667 142.143H143V200.679H137.667V142.143Z" fill="#000080"/>
<path d="M127 142.143H137.667V200.679H127V142.143Z" fill="#0000FF"/>
</svg>