<svg width="256" height="256" title="Flightcontrol" viewBox="0 0 256 256" fill="none" xmlns="http://www.w3.org/2000/svg">
<rect width="256" height="256" rx="40" fill="#003DB2"/>
<path d="M118.75 115.088C111.125 115.088 104.968 121.239 104.968 128.874C104.968 136.497 111.125 142.661 118.743 142.661H157.075L173 115.088H118.75Z" fill="white"/>
<path d="M118.788 63C82.5125 63 53 92.5311 53 128.868V131.837C53 160.607 71.55 185.055 97.2625 194L110.456 171.112L100.05 165.174C94.1278 161.842 89.1987 157 85.7669 151.142C82.3352 145.285 80.524 138.623 80.5187 131.837V128.868C80.5187 107.758 97.6938 90.5724 118.788 90.5724H187.081L203 63H118.788Z" fill="white"/>
</svg>