<svg width="256" height="256" title="Flowbite" viewBox="0 0 256 256" fill="none" xmlns="http://www.w3.org/2000/svg" id="flowbite">
<style>
#flowbite {
    rect {fill: #15191C}

    @media (prefers-color-scheme: light) {
        rect {fill: #F4F2ED}
    }
}
</style>
<rect width="256" height="256" rx="40" fill="#15191C"/>
<path d="M169.769 113.691C169.407 116.164 167.776 119.523 165.906 122.442C164.737 124.266 163.216 125.84 161.432 127.069C159.648 128.299 157.636 129.161 155.515 129.604L136.637 133.553C133.603 134.187 130.851 135.775 128.784 138.084L116.407 151.921C114.082 154.524 112.454 153.9 112.454 150.413C112.425 150.542 106.309 166.316 122.516 175.665C128.745 179.256 137.709 177.964 143.935 174.373L176.931 155.341C183.03 151.824 188.317 147.057 192.444 141.354C196.571 135.65 199.445 129.138 200.878 122.245C200.991 121.696 201.082 121.141 201.175 120.588L169.769 113.691Z" fill="url(#linearGradient1)"/>
<path d="M161.211 94.6808C167.437 98.2716 169.982 103.619 169.982 110.804C169.982 111.779 169.904 112.741 169.765 113.691L183.06 119.403L201.175 120.588C203.497 107.161 198.947 93.3439 190.8 82.3615C184.482 73.8518 176.48 66.7335 167.292 61.4495C159.914 57.1788 151.887 54.1462 143.528 52.4724L134.487 64.1781L131.632 77.6211L161.211 94.6808Z" fill="url(#linearGradient2)"/>
<path d="M54.7943 104.533C54.7943 104.543 54.8008 104.546 54.804 104.533C55.5015 102.444 56.3766 100.109 57.4681 97.6129C63.174 84.5864 74.166 75.9 87.693 71.4696C94.3802 69.2833 101.453 68.5303 108.451 69.2597C115.448 69.9892 122.214 72.1846 128.306 75.703L131.632 77.6244L143.528 52.4692C105.689 44.913 67.0167 67.1457 54.8427 104.388L54.7943 104.533Z" fill="url(#linearGradient3)"/>
<path d="M142.644 174.373C139.156 176.383 135.147 177.302 131.132 177.012C127.117 176.721 123.282 175.234 120.12 172.743L109.167 180.273L99.7281 195.527C110.207 204.246 123.811 207.049 137.406 205.489C147.939 204.277 158.111 200.912 167.289 195.602C174.678 191.357 181.322 185.929 186.954 179.533L181.329 165.861L172.223 157.314L142.644 174.373Z" fill="url(#linearGradient4)"/>
<path d="M120.12 172.743C117.732 170.862 115.801 168.465 114.474 165.731C113.146 162.997 112.455 159.998 112.454 156.958V104.636C112.454 101.711 113.313 101.213 115.848 102.676C111.944 100.425 102.925 92.6949 91.7908 99.1177C85.5618 102.708 80.4339 110.636 80.4339 117.821V155.883C80.4339 170.12 87.8093 184.968 98.4429 194.439C98.8627 194.817 99.2986 195.169 99.7281 195.531L120.12 172.743Z" fill="url(#linearGradient5)"/>
<path d="M186.192 76.7331C186.182 76.7234 186.176 76.7331 186.182 76.7396C187.648 78.3864 189.234 80.311 190.852 82.5036C195.024 88.1629 197.953 94.6401 199.448 101.511C200.942 108.381 200.967 115.49 199.522 122.371C198.072 129.252 195.188 135.75 191.056 141.441C186.925 147.131 181.64 151.886 175.546 155.395L172.22 157.31L186.954 179.533C212.426 150.574 212.49 106.005 186.292 76.8461L186.192 76.7331Z" fill="url(#linearGradient6)"/>
<path d="M81.7255 117.818C81.7276 113.795 82.9365 109.865 85.1961 106.536C87.4556 103.208 90.6618 100.634 94.4 99.1467L93.3505 85.9072L85.9654 70.7559C79.6227 73.0842 73.8182 76.6751 68.9033 81.3114C63.9884 85.9477 60.0653 91.5329 57.3712 97.7291C53.1551 107.448 50.9864 117.932 51.0001 128.526C51.0001 137.419 52.4661 145.811 55.0946 153.577L69.7647 155.544L81.7255 151.937V117.818Z" fill="url(#linearGradient7)"/>
<path d="M94.4 99.1467C97.2255 98.0201 100.27 97.5481 103.304 97.7663C106.338 97.9844 109.283 98.8869 111.918 100.406L112.454 100.713L155.541 125.568C158.563 127.311 158.286 129.023 154.872 129.74L157.359 129.22C160.63 128.536 163.612 126.863 165.9 124.428C169.367 120.739 171.289 115.863 171.273 110.801C171.272 107.27 170.341 103.802 168.574 100.746C166.807 97.6894 164.267 95.1521 161.208 93.3891L128.216 74.3597C122.113 70.8402 115.337 68.6492 108.329 67.9303C101.321 67.2113 94.2408 67.9805 87.551 70.1876C87.0149 70.362 86.4918 70.5622 85.9654 70.756L94.4 99.1467Z" fill="url(#linearGradient8)"/>
<path d="M144.591 204.317C144.604 204.314 144.601 204.304 144.591 204.308C142.427 204.75 139.967 205.16 137.261 205.46C130.271 206.242 123.194 205.54 116.494 203.4C109.794 201.259 103.621 197.729 98.3792 193.039C93.1373 188.349 88.9443 182.605 86.0746 176.184C83.2048 169.762 81.7228 162.807 81.7255 155.773V151.937L55.0914 153.574C67.4591 190.093 106.064 212.435 144.439 204.346C144.455 204.346 144.52 204.33 144.588 204.314L144.591 204.317Z" fill="url(#linearGradient9)"/>
<linearGradient id="linearGradient1" x1="148.166" y1="166.136" x2="163.41" y2="113.032" gradientUnits="userSpaceOnUse">
<stop stop-color="#1724C9"/>
<stop offset="1" stop-color="#1C64F2"/>
</linearGradient>
<linearGradient id="linearGradient2" x1="183.279" y1="101.378" x2="143.176" y2="61.414" gradientUnits="userSpaceOnUse">
<stop stop-color="#1C64F2"/>
<stop offset="1" stop-color="#0092FF"/>
</linearGradient>
<linearGradient id="linearGradient3" x1="129.297" y1="75.322" x2="68.7959" y2="79.1453" gradientUnits="userSpaceOnUse">
<stop stop-color="#0092FF"/>
<stop offset="1" stop-color="#45B2FF"/>
</linearGradient>
<linearGradient id="linearGradient4" x1="125.206" y1="189.834" x2="179.537" y2="175.174" gradientUnits="userSpaceOnUse">
<stop stop-color="#1C64F2"/>
<stop offset="1" stop-color="#0092FF"/>
</linearGradient>
<linearGradient id="linearGradient5" x1="86.2076" y1="126.963" x2="124.783" y2="166.933" gradientUnits="userSpaceOnUse">
<stop stop-color="#1724C9"/>
<stop offset="1" stop-color="#1C64F2"/>
</linearGradient>
<linearGradient id="linearGradient6" x1="174.276" y1="155.796" x2="201.188" y2="101.543" gradientUnits="userSpaceOnUse">
<stop stop-color="#0092FF"/>
<stop offset="1" stop-color="#45B2FF"/>
</linearGradient>
<linearGradient id="linearGradient7" x1="76.9819" y1="95.2265" x2="62.5798" y2="149.36" gradientUnits="userSpaceOnUse">
<stop stop-color="#1C64F2"/>
<stop offset="1" stop-color="#0092FF"/>
</linearGradient>
<linearGradient id="linearGradient8" x1="150.507" y1="92.6529" x2="97.8778" y2="105.757" gradientUnits="userSpaceOnUse">
<stop stop-color="#1724C9"/>
<stop offset="1" stop-color="#1C64F2"/>
</linearGradient>
<linearGradient id="linearGradient9" x1="82.0323" y1="154.446" x2="115.58" y2="204.908" gradientUnits="userSpaceOnUse">
<stop stop-color="#0092FF"/>
<stop offset="1" stop-color="#45B2FF"/>
</linearGradient>
</svg>