<svg width="256" height="256" title="FlutterFlow" viewBox="0 0 256 256" fill="none" xmlns="http://www.w3.org/2000/svg">
<rect width="256" height="256" rx="40" fill="#4C3AF0"/>
<path fill-rule="evenodd" clip-rule="evenodd" d="M192.419 60C197.047 60 201.33 62.4669 203.5 66.4771C205.579 70.3183 205.491 74.8449 203.27 78.6022L203.194 78.7282L183.722 110.817C181.52 114.446 177.544 116.711 173.296 116.759L173.157 116.76H150.921L160.163 137.603L160.2 137.664L160.256 137.763C162.433 141.638 162.38 146.245 160.123 150.063L160.047 150.19L140.574 182.279C138.372 185.908 134.397 188.172 130.148 188.221L130.01 188.222L102.717 188.221L83.0976 208.607L83.0604 208.645C81.2142 210.494 78.7196 211.525 76.1188 211.525C75.4686 211.525 74.818 211.46 74.1744 211.331C71.0018 210.693 68.366 208.548 67.0971 205.591L67.0613 205.506L56.7363 182.157L56.682 182.068L56.6256 181.971C56.6162 181.955 56.6067 181.938 56.5967 181.92C54.4202 178.045 54.4729 173.438 56.7298 169.62L56.8059 169.493L75.6921 138.37L61.7758 106.985L62.0308 106.857L62.0269 106.838C61.4381 103.951 61.9121 100.941 63.4243 98.304L63.5079 98.1603L63.5851 98.0316L83.0576 65.9422C85.2599 62.3139 89.2352 60.0491 93.4836 60H93.6225H192.419ZM90.1723 187.977H69.4828L75.5595 201.825L75.5745 201.862C75.6752 202.11 75.8381 202.245 76.0807 202.294C76.297 202.338 76.472 202.293 76.6375 202.145L76.6665 202.117L90.1723 187.977ZM149.318 140.37H86.7778C86.7087 140.37 86.6397 140.372 86.5707 140.377L86.5518 140.378L103.7 179.019H130.006C131.088 179.019 132.13 178.449 132.722 177.532L132.769 177.458L152.27 145.349C152.852 144.391 152.916 143.279 152.455 142.279C151.923 141.126 150.689 140.37 149.318 140.37ZM80.2767 148.304L64.7996 174.002C64.1838 175.025 64.1481 176.223 64.6996 177.277L64.7581 177.384L64.7893 177.437L64.8517 177.537L64.9755 177.719L65.1137 177.896L65.2459 178.044L65.2688 178.069L65.3582 178.158L65.4359 178.231C65.9227 178.666 66.5245 178.932 67.1883 179L67.3375 179.013L67.4238 179.017L67.5332 179.019H93.7931L80.2767 148.304ZM76.2069 116.822L83.0043 132.179L83.1367 132.134C84.3106 131.747 85.5379 131.538 86.7786 131.519L86.9649 131.518L147.586 131.517L141.082 116.822L76.2069 116.822ZM192.246 68.9584H129.483L146.636 107.608H172.933C174.017 107.608 175.059 107.037 175.652 106.121L175.699 106.045L195.201 73.9371C195.782 72.9796 195.847 71.8692 195.386 70.87C194.866 69.7405 193.672 68.9908 192.334 68.9594L192.246 68.9584ZM119.875 68.9584H93.7231C92.6477 68.9584 91.6105 69.5277 91.02 70.4428L90.9732 70.5177L71.5227 102.626C70.942 103.585 70.8778 104.698 71.3383 105.699C71.857 106.828 73.0443 107.575 74.3746 107.607L74.4616 107.608H136.983L119.875 68.9584Z" fill="white"/>
</svg>