<svg width="256" height="256" title="Fly.io" viewBox="0 0 256 256" fill="none" xmlns="http://www.w3.org/2000/svg">
<rect width="256" height="256" rx="40" fill="url(#radialGradient)"/>
<path d="M119 256H64.2269C53.2464 256.015 40 256 33.5 256C37.5 256.023 45 248.5 54.043 239.594L101.683 197.684C102.621 196.923 103.791 196.508 104.999 196.508C106.207 196.508 107.377 196.923 108.315 197.684L142.607 225.881L154.783 215.869C155.722 215.11 156.893 214.695 158.101 214.695C159.308 214.695 160.479 215.11 161.418 215.869L198.898 246.684C203.418 250.104 208.505 253.889 222 256H198C195.798 255.972 193.492 255.522 191.714 254.223L191.277 253.887L158.294 226.498L125.744 253.887C123.906 255.4 121.381 255.975 119 256ZM209.624 186.855C203.444 186.942 198.455 191.931 198.368 198.111C198.458 204.29 203.446 209.276 209.624 209.364C215.802 209.274 220.79 204.289 220.884 198.111C220.794 191.931 215.804 186.942 209.624 186.855ZM136.859 152.753L133.067 148.987L130.772 146.611L124.979 140.378L123.535 138.797L116.507 130.581L114.517 128.115L108.363 120.105L107.68 119.181L102.95 112.216L101.653 110.117L98.263 104.299L97.228 102.397L94.298 96.205L93.742 94.783L92.059 90.043L91.41 87.805L90.911 85.737L90.491 83.492L90.159 80.999L90.025 79.406L89.969 76.686L89.981 76.116L90.059 74.489L90.645 68.559L90.829 67.519L92.164 61.599L92.472 60.607L93.464 57.717L93.782 56.968L95.36 53.501L96.454 51.437L97.979 48.924L99.497 46.685L100.579 45.263L101.826 43.76L103.198 42.251L104.374 41.069L107.236 38.55L109.328 36.838C109.378 36.795 109.431 36.758 109.484 36.72L111.96 35.045L113.928 33.792L117.663 31.824C117.719 31.79 117.785 31.762 117.843 31.734L123.141 29.536L123.631 29.352L128.339 27.974L130.329 27.528L133.016 26.988L134.8 26.718L137.534 26.378L139.399 26.212L143.099 26.016L144.549 26L147.297 26.056L148.011 26.096L151.989 26.427L157.253 27.169L157.861 27.297L163.061 28.591L164.589 29.046L166.286 29.633L168.353 30.415L169.987 31.107L172.387 32.239L173.9 33.016L176.619 34.612L177.632 35.236L181.339 37.942L182.403 38.865L184.988 41.219L185.115 41.347L187.307 43.698L188.062 44.549L190.634 47.967L191.158 48.783L193.2 52.232L193.815 53.414L194.965 55.986L196.169 58.989L196.596 60.245L197.837 64.767C197.86 64.847 197.879 64.927 197.893 65.01L198.86 71.124L199.053 73.244L199.209 75.976L199.225 76.543L199.165 79.593L199.115 80.4L198.95 81.72L198.099 86.59L197.893 87.481L195.932 93.599C195.914 93.659 195.894 93.717 195.87 93.774L194.049 98.183L193.98 98.329L191.6 103.081L187.441 110.324L185.234 113.701L182.584 117.664L180.716 120.224L177.015 125.172L174.495 128.34L170.772 132.874L168.162 135.926L164.15 140.441L161.568 143.276L154.103 151.071L152.367 152.786L153.393 153.659C154.843 154.993 156.206 156.42 157.471 157.93C157.851 158.392 158.219 158.863 158.575 159.343C159.352 160.393 160.05 161.498 160.664 162.651C160.994 163.275 161.291 163.92 161.552 164.578C162.148 166.088 162.55 167.683 162.7 169.296L162.768 170.521C162.806 172.866 162.377 175.196 161.506 177.374C160.389 180.169 158.549 182.616 156.174 184.464C155.344 185.114 154.459 185.684 153.53 186.177C151.376 187.299 149.026 187.997 146.608 188.231H146.592C143.758 188.517 140.896 188.191 138.198 187.277C136.956 186.847 135.765 186.283 134.644 185.597C133.329 184.792 132.129 183.815 131.074 182.691C129.623 181.148 128.475 179.347 127.687 177.381C126.91 175.442 126.485 173.379 126.431 171.291L126.453 169.81C126.565 168.095 126.936 166.406 127.553 164.802C127.793 164.172 128.065 163.558 128.367 162.96C128.96 161.805 129.638 160.696 130.397 159.642C130.893 158.953 131.42 158.282 131.969 157.634C133.114 156.294 134.334 155.02 135.623 153.818L136.097 153.39L136.857 152.754L136.859 152.753Z" fill="black"/>
<path d="M158.296 226.498L191.277 253.887C193.162 255.421 195.57 255.997 198 256H119C121.42 256 123.878 255.424 125.746 253.887L158.296 226.498ZM144.76 161.858L145.059 161.945C145.156 161.992 145.237 162.061 145.324 162.12L145.574 162.341C146.192 162.911 146.79 163.503 147.366 164.115C147.772 164.549 148.168 164.995 148.548 165.456C149.033 166.039 149.482 166.65 149.895 167.286C150.073 167.567 150.238 167.851 150.394 168.147C150.528 168.403 150.65 168.667 150.756 168.936C150.943 169.404 151.083 169.896 151.126 170.398L151.117 171.34C151.055 172.19 150.792 173.013 150.349 173.741C149.906 174.469 149.296 175.081 148.57 175.527C147.627 176.097 146.567 176.446 145.47 176.547L144.308 176.581L143.325 176.494C142.866 176.427 142.414 176.318 141.975 176.167C141.528 176.015 141.1 175.814 140.697 175.568L139.93 175.007C139.027 174.235 138.411 173.18 138.184 172.013C138.146 171.817 138.116 171.619 138.094 171.421L138.065 170.523C138.081 170.28 138.118 170.04 138.171 169.8C138.306 169.276 138.497 168.767 138.741 168.284C139.056 167.678 139.415 167.095 139.814 166.541C140.478 165.644 141.198 164.789 141.969 163.981C142.463 163.457 142.975 162.95 143.503 162.46L143.88 162.12C144.142 161.945 144.145 161.945 144.445 161.858H144.76ZM142.83 36.663L142.951 36.653V141.634L142.689 141.151C139.233 134.758 136.017 128.239 133.045 121.607C130.634 116.24 128.45 110.773 126.5 105.222C124.941 100.8 123.625 96.2956 122.556 91.73C121.726 88.104 121.091 84.425 120.829 80.708C120.729 79.1221 120.699 77.5326 120.739 75.944C120.763 74.559 120.819 73.178 120.907 71.797C121.042 69.6245 121.267 67.4586 121.583 65.305C121.836 63.612 122.148 61.925 122.534 60.257C122.839 58.9321 123.195 57.6195 123.601 56.322C124.186 54.4523 124.889 52.6213 125.705 50.84C126.005 50.198 126.325 49.559 126.663 48.932C128.689 45.178 131.439 41.72 135.041 39.407C137.381 37.8845 140.052 36.9437 142.83 36.663ZM156.443 36.928L163.505 38.942C166.776 40.149 169.925 41.723 172.819 43.688C176.763 46.35 180.162 49.7407 182.834 53.678C184.402 56.0177 185.703 58.5256 186.713 61.155C188.182 65.0423 189.091 69.1188 189.413 73.262C189.507 74.347 189.56 75.435 189.581 76.524C189.606 77.534 189.601 78.547 189.519 79.557C189.319 81.818 188.893 84.053 188.25 86.23C187.733 88.0109 187.122 89.7633 186.42 91.48C185.547 93.6155 184.578 95.71 183.514 97.757C181.16 102.304 178.45 106.653 175.55 110.859C171.956 116.029 168.124 121.029 164.067 125.845C159.661 131.099 155.066 136.192 150.291 141.114C153.531 135.038 156.555 128.85 159.358 122.561C160.916 119.057 162.387 115.515 163.768 111.938C165.287 108.01 166.656 104.025 167.874 99.993C168.784 96.9727 169.571 93.9169 170.234 90.833C170.806 88.1868 171.234 85.5115 171.516 82.819C171.746 80.574 171.83 78.317 171.774 76.065C171.753 74.6871 171.702 73.3098 171.622 71.934C171.292 66.396 170.449 60.877 168.834 55.567C168.223 53.5539 167.479 51.5832 166.608 49.668C164.541 45.166 161.656 40.956 157.753 37.885L156.443 36.928Z" fill="white"/>
<radialGradient id="radialGradient" cx="0" cy="0" r="1" gradientUnits="userSpaceOnUse" gradientTransform="translate(10548.5 12688.4) scale(18545.1 23897.1)">
<stop stop-color="#BA7BF0"/>
<stop offset="0.45" stop-color="#996BEC"/>
<stop offset="1" stop-color="#5046E4"/>
</radialGradient>
</svg>