<svg width="256" height="256" title="Forem" viewBox="0 0 256 256" fill="none" xmlns="http://www.w3.org/2000/svg">
<rect width="256" height="256" rx="40" fill="white"/>
<path fill-rule="evenodd" clip-rule="evenodd" d="M143.03 61.3841C136.495 75.0463 116.959 85.0687 96.6607 85.1744L83 85.2449V98.0612V110.878H96.0404C127.974 110.878 154.248 96.504 166.665 72.2459C170.149 65.4373 173 59.231 173 58.4524C173 56.9977 154.463 50 150.616 50C149.439 50 146.026 55.1233 143.03 61.3841ZM108.827 121.47C102.462 123.655 94.5393 129.961 90.3446 136.183C83.9964 145.591 83 151.14 83 177.035V207H95.8571H108.714V179.839C108.714 154.514 109.248 152.329 116.631 147.507C122.311 143.796 130.028 142.646 143.959 143.428L163.37 144.52L163.364 130.903L163.357 117.286L141.661 117.465C129.729 117.564 114.953 119.368 108.827 121.47Z" fill="#080808"/>
</svg>