<svg width="256" height="256" title="Forge" viewBox="0 0 256 256" fill="none" xmlns="http://www.w3.org/2000/svg" id="forgemc">
<style>
#forgemc {
    rect {fill: #15191C}
    path {fill: #EEEEEE}

    @media (prefers-color-scheme: light) {
        rect {fill: #F4F2ED}
        path {fill: #202D44}
    }
}
</style>
<rect width="256" height="256" rx="40" fill="#15191C"/>
<path d="M213.976 98.6314L169.65 98.7247L152.225 98.7272C148.948 98.7315 145.609 98.619 142.343 98.835C142.707 98.8678 143.074 98.8983 143.438 98.9273H143.437C143.072 98.8983 142.707 98.8677 142.343 98.835C138.003 98.7764 133.661 98.7707 129.32 98.8188C127.848 98.8465 126.337 98.8106 124.868 98.9098L124.951 98.8001L124.758 98.917C124.795 98.9144 124.831 98.9123 124.868 98.9098L124.812 98.9852C127.553 99.3024 130.457 99.1709 133.225 99.2678C136.713 99.3894 140.245 99.6997 143.731 99.7102L143.732 99.7109C144.597 100.003 148.305 100.001 149.435 100.062C156.254 100.435 163.074 100.771 169.896 101.07L187.649 101.955C190.765 102.108 194.047 102.499 197.151 102.262C194.739 103.249 192.06 103.692 189.567 104.485C188.732 104.743 187.903 105.017 187.079 105.309C186.255 105.601 185.438 105.91 184.626 106.234C183.815 106.56 183.011 106.902 182.214 107.26C181.415 107.618 180.626 107.992 179.844 108.382C179.063 108.773 178.288 109.178 177.523 109.6C176.757 110.022 176.001 110.459 175.254 110.912C174.505 111.365 173.767 111.833 173.039 112.316C172.311 112.799 171.592 113.296 170.884 113.808C163.364 119.308 156.797 127.24 155.377 136.697C154.651 141.53 155.619 147.318 158.599 151.301C162.052 155.916 170.292 156.778 175.641 157.549C177.165 159.235 178.559 161.088 179.999 162.849C181.619 164.83 183.337 166.779 184.829 168.856C185.008 173.196 184.865 177.585 184.876 181.932C178.307 182.105 171.725 181.871 165.153 182C164.922 179.942 164.887 177.837 164.787 175.768C164.682 173.552 164.522 171.321 164.535 169.103L152.78 160.788C151.255 159.722 149.779 158.516 148.192 157.555C152.313 161.457 158.16 169.417 160.797 174.473C161.578 175.97 162.17 177.479 162.656 179.093C158.264 175.443 152.057 173.866 146.481 173.104C135.748 171.64 121.645 172.425 112.746 179.194C115.417 171.989 121.865 162.904 127.425 157.576C126.04 158.333 124.768 159.413 123.467 160.315C119.355 163.161 115.363 166.211 111.184 168.955C110.936 170.772 110.912 172.647 110.817 174.48C110.688 176.977 110.522 179.479 110.485 181.98C103.441 181.88 96.3852 181.963 89.3402 181.968C89.2851 177.614 89.1829 173.205 89.3432 168.854C90.3919 167.229 91.8325 165.713 93.057 164.21C94.8694 161.987 96.6209 159.619 98.5936 157.544C103.67 156.34 109.453 155.686 113.133 151.522C115.214 149.167 116.221 145.959 115.991 142.835C115.685 138.665 113.111 134.043 109.25 132.184C105.166 130.217 100.026 130.528 95.5793 130.37C92.827 130.273 90.0587 130.153 87.3206 129.842C83.5202 129.412 79.8007 128.649 76.2521 127.185C72.4275 125.607 68.7665 123.3 65.2875 121.075C54.2554 114.019 43.9175 105.748 34 97.2143C41.2388 97.0785 48.4969 97.1787 55.7376 97.1782L91.2509 97.1854C92.2216 102.868 93.0065 108.599 93.9296 114.292C94.3262 116.743 94.6136 119.284 95.2095 121.692C95.3498 119.589 95.069 117.345 95.0795 115.216C95.1192 108.686 95.1261 102.156 95.0995 95.6261C97.9192 95.507 100.784 95.5697 103.607 95.608C104.121 100.198 105.012 104.778 105.745 109.34C106.166 111.958 106.535 116 107.395 118.325C107.118 114.135 107.194 110.002 107.195 105.806L107.215 91.0012L214 91L213.976 98.6314ZM142.509 99.3179C142.588 99.3577 142.659 99.389 142.728 99.4119L142.847 99.445C142.742 99.4223 142.635 99.3816 142.509 99.3179ZM124.665 98.923L124.695 98.9556L124.758 98.917C124.727 98.9193 124.696 98.9207 124.665 98.923Z" fill="#EEEEEE"/>
</svg>