<svg width="256" height="256" title="FreeBSD" viewBox="0 0 256 256" fill="none" xmlns="http://www.w3.org/2000/svg" id="freebsd">
<style>
#freebsd {
    rect {fill: #15191C}

    @media (prefers-color-scheme: light) {
        rect {fill: #F4F2ED}
    }
}
</style>
<rect width="256" height="256" rx="40" fill="#15191C"/>
<path d="M120.459 205.868C85.7787 204.008 56.3188 178.803 49.5131 145.228C45.8773 127.092 48.9538 108.025 58.1833 92.865C58.9291 91.6559 59.5817 90.4468 59.5817 90.1678C59.5817 89.8887 59.0224 88.9587 58.3698 87.9356C54.5474 82.2622 49.6996 70.1712 48.3944 63.1957C47.2757 57.2433 48.5809 52.4999 51.7506 50.8258C53.9881 49.7097 58.3698 49.7097 62.2853 50.9188C68.5316 52.8719 77.295 57.2433 84.1938 61.9866L87.8297 64.4978L91.1859 63.0097C107.687 55.3831 126.706 53.895 144.512 58.8244C150.292 60.4055 157.75 63.4747 162.039 66.0789L163.997 67.288L167.632 64.8698C174.718 60.2195 183.295 56.4992 191.033 54.7321C199.703 52.7789 204.83 53.988 207.068 58.4524C207.907 60.1265 208 60.8705 208 64.9629C208 67.6601 207.72 70.7293 207.254 72.4964C205.483 80.309 201.474 89.4237 196.626 96.6782L193.923 100.678L194.668 102.073C196.067 104.77 198.304 111.838 199.237 116.675C204.364 141.787 196.533 166.806 178.167 184.384C164.742 197.219 148.334 204.38 129.409 205.682C126.239 205.868 123.536 206.054 123.256 205.961C123.07 206.054 121.764 205.961 120.459 205.868ZM134.257 202.613C138.732 202.055 146.656 200.102 151.038 198.428C168.844 191.638 183.108 178.71 191.033 162.155C194.948 153.971 196.906 146.995 197.838 137.601C198.77 128.394 197.092 115.931 193.829 107.095L192.897 104.77L191.872 105.979C190.287 107.839 188.422 108.583 184.786 108.769C182.362 108.862 180.684 108.769 178.167 108.118C167.166 105.328 158.123 97.4223 154.767 87.5636C153.369 83.4712 153.182 77.8908 154.301 74.9146C155.14 72.8684 157.191 70.7293 158.869 70.3573C160.734 69.9852 161.852 69.4272 161.573 68.9622C161.2 68.3111 154.301 64.9629 149.826 63.2887C122.324 53.058 90.5333 60.0335 70.6758 80.774C61.5395 90.3538 55.3865 101.794 52.5897 114.443C49.6996 127.557 50.259 139.368 54.361 152.389C61.9124 176.013 81.397 194.429 105.729 200.753C107.967 201.311 111.416 202.055 113.281 202.334C117.569 202.985 129.596 203.171 134.257 202.613ZM119.247 194.615C93.1436 192.475 72.9133 177.129 62.9379 151.924C60.9801 146.902 59.0224 139.647 58.2765 134.439C56.8781 124.58 60.514 109.606 67.2264 97.9803C71.4216 90.6328 78.6001 82.5412 85.1261 77.6118C92.491 72.1244 101.907 67.7531 112.069 65.1489C118.688 63.4747 120.273 63.3817 116.357 64.9629C104.517 69.7992 95.6608 75.6587 88.0161 83.4712C77.6679 94.2601 72.6336 107.095 73.6591 120.116C74.032 124.487 74.1252 124.58 76.3627 123.65C80.3715 121.976 86.8974 121.325 91.1859 122.348C100.229 124.487 109.365 132.021 117.569 144.298C123.256 152.668 129.223 156.389 137.24 156.389C154.581 156.389 174.158 136.764 179.006 114.443C179.193 113.42 179.472 112.396 179.659 111.373C179.845 110.536 180.032 110.536 182.362 110.722C183.761 110.815 185.159 111.094 185.532 111.28C186.185 111.652 187.397 115.28 188.515 120.395C188.982 122.627 189.168 125.417 189.168 131.742C189.168 138.996 189.075 140.671 188.329 144.112C187.024 150.064 185.719 153.878 182.829 159.644C176.676 172.2 166.327 182.245 153.275 188.383C145.724 191.917 138.825 193.778 130.248 194.522C125.214 195.08 124.561 195.08 119.247 194.615ZM188.049 103.468C190.473 102.259 192.058 100.585 195.508 95.5622C204.924 81.5181 208.839 62.3587 203.152 57.4293C198.957 53.802 189.168 55.1041 177.235 60.9636C169.497 64.7768 161.946 70.2643 159.522 73.8915C154.021 82.1691 160.734 96.3992 173.04 102.445C178.26 105.142 184.041 105.514 188.049 103.468ZM178.913 101.887C173.972 100.678 168.192 97.0503 166.421 93.888C163.53 88.8657 166.421 85.5174 179.845 78.1698C197.838 68.3111 199.982 66.823 201.101 63.5677C201.474 62.4517 202.033 61.6146 202.313 61.6146C203.059 61.6146 203.898 65.2419 203.618 67.381C202.966 72.5894 199.423 83.3782 196.347 89.5167C194.202 93.795 191.685 97.4223 189.261 99.6545C186.092 102.538 183.668 103.003 178.913 101.887ZM62.2853 86.6335C62.7515 85.9824 63.1244 85.3314 63.1244 85.2384C63.1244 85.0524 62.565 84.1223 61.9124 83.1922C60.0479 80.495 56.9714 73.7985 55.3865 69.0552C52.9626 61.8006 52.5897 57.0573 54.361 56.4992C55.8526 56.0342 64.2431 61.0566 73.5659 67.8461L77.8543 71.0083L80.9308 68.9622C82.6089 67.8461 84.0073 66.823 83.9141 66.637C83.8209 66.1719 79.5324 62.8237 74.9643 59.7545C66.7602 54.267 62.0056 52.4069 57.0646 52.7789C50.3522 53.244 49.2335 59.7545 53.6152 72.7754C54.7339 76.1237 58.7427 84.5873 60.2343 86.9125C60.9801 88.0286 61.2598 88.0286 62.2853 86.6335Z" fill="#FF0000"/>
</svg>