<svg width="256" height="256" title="FreeCAD" viewBox="0 0 256 256" fill="none" xmlns="http://www.w3.org/2000/svg" id="freecad">
<style>
#freecad {
    rect {fill: #15191C}

    @media (prefers-color-scheme: light) {
        rect {fill: #F4F2ED}
    }
}
</style>
<rect width="256" height="256" rx="40" fill="#15191C"/>
<path fill-rule="evenodd" clip-rule="evenodd" d="M201 70L172 99H114V120.75H143V149.75H114V186L85.0001 215H114.365C116.564 215 118.512 213.584 119.191 211.493L124.44 195.338C124.941 193.793 126.154 192.584 127.699 192.082L131.734 190.771C133.279 190.269 134.972 190.536 136.286 191.49L150.025 201.475C151.803 202.767 154.214 202.767 155.993 201.475L168.308 192.524C170.087 191.232 170.831 188.943 170.151 186.852L164.902 170.697C164.4 169.152 164.67 167.46 165.625 166.145L168.12 162.713C169.075 161.399 170.598 160.619 172.223 160.619L189.209 160.623C191.408 160.623 193.356 159.203 194.035 157.112L198.741 142.636C199.42 140.545 198.675 138.252 196.897 136.96L183.155 126.975C181.841 126.02 181.064 124.497 181.064 122.873V118.628C181.065 117.003 181.841 115.477 183.155 114.522L198.909 103.076C200.224 102.121 201 100.595 201 98.9701V70Z" fill="#418FDE"/>
<path fill-rule="evenodd" clip-rule="evenodd" d="M172 41L143 70H172L172 99L201 70L201 41H172ZM85 157L56 186V215L85.0001 215L114 186L85 186V157Z" fill="#FF585D"/>
<path fill-rule="evenodd" clip-rule="evenodd" d="M85 41L56 70V186L85 157V70H143L172 41H85Z" fill="#CB333B"/>
<path fill-rule="evenodd" clip-rule="evenodd" d="M85 186L114 186V149.75H143V120.75H114V99H172L172 70H85V186Z" fill="white"/>
</svg>