<svg width="256" height="256" title="freeCodeCamp" viewBox="0 0 256 256" fill="none" xmlns="http://www.w3.org/2000/svg">
<rect width="256" height="256" rx="40" fill="#0A0A23"/>
<path d="M74.6532 71.8665C75.2251 72.4376 75.7969 73.2601 75.7994 74.0875C75.8018 75.5177 74.1275 77.4581 71.0321 80.6456C58.1246 93.1101 51.6319 108.374 51.6757 126.784C51.7244 147.152 58.5529 163.509 71.8254 176.186C74.6167 178.688 75.7629 180.655 75.7677 182.339C75.7677 183.164 75.2007 184.023 74.6313 184.85C74.0959 185.424 72.9546 186 72.132 186C69.0609 186.007 64.7633 182.366 59.1515 175.281C48.225 161.849 43.2849 147.017 43.0074 126.804C42.7519 106.58 49.0743 92.8661 61.4488 78.7077C65.9022 73.6482 69.6158 71.0195 72.1491 71.0147C72.9716 71.0122 73.8282 71.2953 74.6532 71.8665Z" fill="white"/>
<path d="M74.6532 71.8665C75.2251 72.4376 75.7969 73.2601 75.7994 74.0875C75.8018 75.5177 74.1275 77.4581 71.0321 80.6456C58.1246 93.1101 51.6319 108.374 51.6757 126.784C51.7244 147.152 58.5529 163.509 71.8254 176.186C74.6167 178.688 75.7629 180.655 75.7677 182.339C75.7677 183.164 75.2007 184.023 74.6313 184.85C74.0959 185.424 72.9546 186 72.132 186C69.0609 186.007 64.7633 182.366 59.1515 175.281C48.225 161.849 43.2849 147.017 43.0074 126.804C42.7519 106.58 49.0743 92.8661 61.4488 78.7077C65.9022 73.6482 69.6158 71.0195 72.1491 71.0147C72.9716 71.0122 73.8282 71.2953 74.6532 71.8665Z" fill="white"/>
<path d="M142.449 130.428C137.599 129.186 157.501 105.604 122.129 77.3702C122.129 77.3702 126.77 92.1583 103.369 125.159C79.9559 158.147 113.78 177.799 113.78 177.799C113.78 177.799 97.9056 169.315 116.359 139.11C119.661 133.63 123.983 128.668 129.349 117.5C129.349 117.5 134.1 124.224 131.62 138.802C127.911 160.832 147.703 154.527 148.01 154.835C154.923 162.999 142.284 177.348 141.515 177.799C140.748 178.239 177.611 155.56 151.422 121.429C149.628 123.228 147.297 131.673 142.449 130.428Z" fill="white"/>
<path d="M142.449 130.428C137.599 129.186 157.501 105.604 122.129 77.3702C122.129 77.3702 126.77 92.1583 103.369 125.159C79.9559 158.147 113.78 177.799 113.78 177.799C113.78 177.799 97.9056 169.315 116.359 139.11C119.661 133.63 123.983 128.668 129.349 117.5C129.349 117.5 134.1 124.224 131.62 138.802C127.911 160.832 147.703 154.527 148.01 154.835C154.923 162.999 142.284 177.348 141.515 177.799C140.748 178.239 177.611 155.56 151.422 121.429C149.628 123.228 147.297 131.673 142.449 130.428Z" fill="white"/>
<path d="M181.347 71.8518C180.775 72.4229 180.203 73.2454 180.201 74.0728C180.198 75.5031 181.872 77.4434 184.968 80.6309C197.875 93.0931 204.368 108.36 204.324 126.77C204.276 147.137 197.447 163.494 184.175 176.171C181.383 178.673 180.237 180.64 180.232 182.324C180.232 183.149 180.799 184.008 181.369 184.836C181.904 185.409 183.045 185.983 183.868 185.985C186.939 185.993 191.237 182.351 196.848 175.266C207.775 161.835 212.715 147.003 212.993 126.789C213.248 106.566 206.926 92.8514 194.551 78.693C190.098 73.6335 186.384 71.0049 183.851 71C183.028 70.9976 182.172 71.2807 181.347 71.8518Z" fill="white"/>
<path d="M181.347 71.8518C180.775 72.4229 180.203 73.2454 180.201 74.0728C180.198 75.5031 181.872 77.4434 184.968 80.6309C197.875 93.0931 204.368 108.36 204.324 126.77C204.276 147.137 197.447 163.494 184.175 176.171C181.383 178.673 180.237 180.64 180.232 182.324C180.232 183.149 180.799 184.008 181.369 184.836C181.904 185.409 183.045 185.983 183.868 185.985C186.939 185.993 191.237 182.351 196.848 175.266C207.775 161.835 212.715 147.003 212.993 126.789C213.248 106.566 206.926 92.8514 194.551 78.693C190.098 73.6335 186.384 71.0049 183.851 71C183.028 70.9976 182.172 71.2807 181.347 71.8518Z" fill="white"/>
</svg>