<svg width="256" height="256" title="Fresh" viewBox="0 0 256 256" fill="none" xmlns="http://www.w3.org/2000/svg" id="fresh">
<style>
#fresh {
    rect {fill: #15191C}

    @media (prefers-color-scheme: light) {
        rect {fill: #F4F2ED}
    }
}
</style>
<rect width="256" height="256" rx="40" fill="#15191C"/>
<path d="M191.993 78.9724C213.491 130.456 191.993 158.177 174.454 173.453C178.98 188.728 161.442 192.122 154.653 184.202C135.418 190.991 95.8151 190.991 67.5277 162.703C52.2524 147.428 64.1332 113.483 104.301 90.2874C139.378 71.0519 174.454 59.7369 191.993 78.9724Z" fill="#FFDB1E"/>
<path d="M104.301 90.2874C134.286 71.0519 169.928 62.5657 184.638 75.5779C207.268 94.8134 137.115 138.942 111.09 149.691C82.8029 161.006 98.0781 186.465 82.8029 186.465C69.2249 186.465 71.4879 168.927 60.1729 152.52C52.8182 142.902 70.3564 112.917 104.301 90.2874Z" fill="white"/>
<path d="M103.17 88.5902L86.7631 101.037L84.5001 103.3C63.0016 122.535 51.1209 144.599 57.9099 154.217C60.42 157.53 62.5103 161.14 64.1331 164.966L65.2646 167.229L68.0934 175.716C72.0536 184.768 75.4481 188.728 82.8029 188.728C89.0261 188.728 91.2891 185.899 92.9864 177.413L93.5521 173.453L94.1179 171.19L94.6836 170.058V168.927L95.2494 168.361V167.229L95.8151 166.098C98.0781 159.875 102.604 155.349 110.525 151.954L111.656 151.388C126.931 145.731 150.693 131.021 167.665 117.443L169.928 115.746L175.02 110.654C190.861 95.9449 195.953 82.9327 186.901 74.4464L186.335 73.8807C171.06 60.3027 134.852 67.6574 103.17 88.5902ZM183.506 76.7094C190.861 83.4984 186.335 94.2477 172.191 107.826L169.928 109.523L167.1 112.352L164.837 114.049C148.996 127.061 126.366 140.639 111.656 146.862L109.959 147.428C100.341 151.388 94.6836 157.046 91.8549 164.401L91.2891 166.098L90.7234 167.229V168.361L90.1576 168.927V170.624L89.5919 172.887L89.0261 176.847L88.4604 178.544C87.3289 183.07 86.1974 184.202 82.8029 184.202C77.7111 184.202 75.4481 181.939 72.6194 175.15L69.7906 166.098L69.2249 164.966C67.2933 160.177 64.826 155.622 61.8701 151.388C57.9099 146.297 63.0016 134.416 73.1851 121.404L74.8824 119.141C82.8029 110.089 93.5521 100.471 105.433 92.5504C135.983 72.1834 169.928 65.3944 183.506 76.7094Z" fill="#FFDB1E"/>
<path d="M167.665 78.4067C188.032 84.0642 166.534 103.3 148.996 115.746C132.589 127.627 120.142 134.416 114.485 137.245C112.788 137.81 107.696 127.061 107.696 132.719C107.696 134.416 104.301 142.336 103.17 142.902C97.5124 145.165 85.0659 148.56 77.7111 148.56C62.4359 148.56 69.2249 127.627 91.2891 108.391C94.6836 104.997 97.5124 105.563 100.907 105.563C98.6439 102.168 98.6439 101.602 102.604 98.7737C121.274 86.8929 143.904 78.4067 153.522 77.2752C155.219 77.2752 156.916 78.4067 156.916 79.5382C158.613 78.9724 165.968 77.8409 167.665 78.4067Z" fill="#FFE600"/>
<path d="M105.999 112.352C109.959 108.957 112.788 107.826 115.051 101.037C117.314 101.602 118.445 101.037 120.708 98.2079C121.84 100.471 128.063 101.037 131.457 101.037C128.063 103.3 126.366 104.997 124.668 110.654C118.445 107.826 111.09 108.957 105.999 112.352Z" fill="white"/>
</svg>