<svg width="256" height="256" title="Ganache" viewBox="0 0 256 256" fill="none" xmlns="http://www.w3.org/2000/svg" id="ganache">
<style>
#ganache {
    rect {fill: #15191C}

    @media (prefers-color-scheme: light) {
        rect {fill: #F4F2ED}
    }
}
</style>
<rect width="256" height="256" rx="40" fill="#15191C"/>
<path d="M183.362 170.594C185.12 170.594 185.727 170.183 186.562 168.754C187.397 167.325 186.995 165.003 186.964 164.371C186.885 162.981 186.42 161.433 186.357 160.66C186.357 160.186 186.357 157.161 186.428 155.922C187.484 136.306 195.885 131.639 198.312 131.11C199.86 130.652 201.52 130.764 202.993 131.425V93.0308C202.993 88.6954 199.92 83.3649 196.168 81.1853L134.81 45.6495C131.027 43.4541 124.856 43.4541 121.137 45.6258L59.8412 81.1145C56.0979 83.286 53.0244 88.6165 53.0323 92.9596V100.714C53.0293 100.759 53.0293 100.804 53.0323 100.849V112.173C53.3869 112.37 53.7416 112.576 54.0962 112.797C55.2861 113.586 56.4604 114.021 57.6582 114.85C61.0716 116.934 64.2433 119.392 67.1151 122.178C67.6747 122.715 69.5424 125.069 69.9835 125.621C71.3401 127.494 72.8648 129.239 74.5387 130.833C75.4633 131.678 76.4812 132.415 77.5727 133.029C79.3773 133.968 82.3562 133.755 83.8771 133.084C95.5564 128.014 102.885 130.557 106.266 132.594C114.627 137.624 117.417 144.661 118.308 153.205C118.425 154.312 118.462 155.425 118.418 156.538C118.418 158.567 118.347 161.828 120.483 162.373C123.548 163.163 124.289 159.878 124.746 157.698C125.778 152.763 132.335 149.525 137.135 152.013C140.444 153.726 141.8 154.698 145.07 153.252C149.16 151.444 151.272 146.84 152.699 144.392C154.108 142.008 156.148 140.062 158.593 138.77C164.977 134.782 181.022 135.816 181.605 153.537V158.464C181.605 160.154 181.66 161.805 181.55 163.55C181.479 164.711 181.274 165.919 181.164 167.111C181.132 167.111 180.533 170.578 183.362 170.594Z" fill="#E4A663"/>
<path d="M202.976 131.457C202.543 131.323 201.282 130.494 198.311 131.141C195.876 131.67 187.483 136.337 186.427 155.953C186.364 157.161 186.325 160.186 186.356 160.691C186.419 161.481 186.884 163.013 186.963 164.403C186.963 165.035 187.444 167.324 186.561 168.786C185.678 170.246 185.119 170.633 183.361 170.625C180.532 170.625 181.131 167.143 181.131 167.143C181.242 165.966 181.446 164.774 181.518 163.581C181.628 161.836 181.573 160.186 181.573 158.496V153.568C180.989 135.847 164.944 134.813 158.561 138.801C156.116 140.094 154.076 142.04 152.666 144.424C151.24 146.872 149.128 151.476 145.038 153.284C141.768 154.729 140.412 153.758 137.102 152.044C132.303 149.556 125.746 152.794 124.714 157.73C124.257 159.91 123.516 163.187 120.45 162.405C118.315 161.86 118.386 158.598 118.386 156.569C118.429 155.457 118.392 154.343 118.275 153.237C117.385 144.692 114.595 137.656 106.234 132.626C102.853 130.588 95.5238 128.045 83.8447 133.115C82.2685 133.786 79.3211 134 77.5403 133.06C76.4488 132.446 75.4309 131.71 74.5061 130.865C72.8322 129.27 71.3075 127.526 69.9512 125.653C69.5098 125.1 67.6421 122.747 67.0825 122.21C64.211 119.423 61.0393 116.966 57.6259 114.881C56.428 114.092 55.2617 113.586 54.0638 112.828C53.709 112.607 53.3545 112.402 53 112.204V163.984C53 168.328 56.0732 173.658 59.8245 175.83L121.183 211.365C124.934 213.545 131.073 213.545 134.825 211.365L196.191 175.877C199.942 173.705 203.008 168.375 203 164.031L202.976 131.457Z" fill="#5E464D"/>
<path d="M135.796 122.754C131.556 125.211 124.613 125.211 120.373 122.754L57.6274 89.5878C58.3367 90.2906 121.256 126.916 121.256 126.916C125.007 129.096 131.146 129.096 134.897 126.916C134.897 126.916 197.73 90.401 198.439 89.6982L135.796 122.754Z" fill="white"/>
<path d="M120.268 50.3798C124.516 47.9475 131.451 47.9475 135.699 50.3877L143.304 53.5464C142.594 52.8436 134.808 47.7896 134.808 47.7896C131.057 45.618 124.926 45.6101 121.175 47.7896C121.175 47.7896 108.739 55.11 108.038 55.8049L120.268 50.3798Z" fill="white"/>
</svg>