<svg width="256" height="256" title="GDevelop" viewBox="0 0 256 256" fill="none" xmlns="http://www.w3.org/2000/svg">
<rect width="256" height="256" rx="40" fill="#6D2D8F"/>
<path d="M132.598 157.104C120.607 157.104 109.064 153.853 98.8661 146.773C91.7593 141.84 83.533 130.701 83.533 111.818C83.533 76.7857 101.375 64 137.231 64H201.784L208 83.9534H142.15C118.485 83.9534 104.413 85.8043 104.413 111.818C104.413 120.411 106.829 126.526 111.802 130.51C120.206 137.245 136.541 137.532 146.523 136.567C146.523 136.567 150.618 123.359 151.292 121.215C152.082 118.702 151.736 118.103 149.272 118.103H132.521C127.761 118.103 123.085 115.7 123.085 109.929C123.085 104.356 127.435 101.121 133.399 101.121H168.974C174.193 101.121 179.518 101.872 176.801 110.157L162.412 153.926C162.412 153.926 150.658 157.104 132.598 157.104Z" fill="#FFFFFF"/>
<path d="M172.898 164.534C165.646 169.627 154.903 172.441 136.675 172.441C105.257 172.441 82.2638 161.119 72.8888 139.168C68.4564 128.793 68.883 117.034 68.883 101.13H48.0037C48.0037 117.9 47.7161 131.049 52.1893 143.16C63.919 174.931 94.1247 192 134.702 192C173.978 192 190.254 180.767 200.864 164.534H172.898Z" fill="#FFFFFF"/>
</svg>