<svg width="256" height="256" title="Genkit" viewBox="0 0 256 256" fill="none" xmlns="http://www.w3.org/2000/svg" id="genkit">
<style>
#genkit {
    rect {fill: #15191C}
    path.genkit {fill: white}

    @media (prefers-color-scheme: light) {
        rect {fill: #F4F2ED}
        path.genkit {fill: #212121}
    }
}
</style>
<rect width="256" height="256" rx="40" fill="#15191C"/>
<path fill-rule="evenodd" clip-rule="evenodd" d="M60.0417 166.805C61.4028 169.145 63.3148 171.03 65.7778 172.46L120.222 203.855C122.685 205.285 125.278 206 128 206C130.722 206 133.315 205.285 135.778 203.855L190.222 172.46C192.685 171.03 194.597 169.145 195.958 166.805C197.319 164.465 198 161.865 198 159.005V96.995C198 94.135 197.319 91.535 195.958 89.195C194.597 86.855 192.685 84.97 190.222 83.54L135.778 52.145C133.315 50.715 130.722 50 128 50C125.278 50 122.685 50.715 120.222 52.145L65.7778 83.54C63.3148 84.97 61.4028 86.855 60.0417 89.195C58.6806 91.535 58 94.135 58 96.995V159.005C58 161.865 58.6806 164.465 60.0417 166.805ZM73.5553 96.9947V158.81L128 190.4L182.444 158.81V96.7997L128 65.5997L73.5553 96.9947Z" class="genkit" fill="white"/>
<path d="M127.999 167C127.999 156.127 124.228 146.909 116.686 139.346C109.144 131.782 99.9523 128 89.1106 128C99.9523 128 109.144 124.218 116.686 116.654C124.228 109.091 127.999 99.8727 127.999 89C127.999 99.8727 131.77 109.091 139.313 116.654C146.855 124.218 156.047 128 166.888 128C156.047 128 146.855 131.782 139.313 139.346C131.77 146.909 127.999 156.127 127.999 167Z" class="genkit" fill="white"/>
</svg>