<svg width="256" height="256" viewBox="0 0 256 256" fill="none" xmlns="http://www.w3.org/2000/svg">
<g clip-path="url(#clip0_33_628)">

<path d="M196 0H60C26.8629 0 0 26.8629 0 60V196C0 229.137 26.8629 256 60 256H196C229.137 256 256 229.137 256 196V60C256 26.8629 229.137 0 196 0Z" fill="#F4F2ED"/>
<g clip-path="url(#clip1_33_628)">

<path fill-rule="evenodd" clip-rule="evenodd" d="M0.0213304 161.106C0.0436143 152.583 7.28897 140.684 17.5836 129.873C24.4636 122.649 31.4509 116.307 46.6822 103.32C36.1466 97.5391 19.7602 90.5643 11.5385 81.4294C8.49645 78.0495 2.98197 70.3922 4.0516 60.1618C6.23127 39.3104 31.9681 7.66626 68.5504 0.976443C80.7225 -1.24987 94.6976 0.35716 106.2 5.52805C142.283 21.7507 186.412 62.0529 191.842 81.7316C193.753 88.6582 193.386 99.6991 190.091 105.853C186.007 113.479 171.872 128.969 152.532 144.952C122.187 170.032 79.6628 196.961 47.9114 201.493C37.6515 202.957 27.1698 201.43 19.814 197.28C8.3047 190.785 4.48432 182.115 3.14159 179.516C-0.429529 172.606 0.013557 163.851 0.0213304 161.106ZM85.4255 65.3498C85.8173 60.5173 104.766 65.3281 103.569 69.1552C102.306 73.1927 84.9757 70.8933 85.4255 65.3498Z" fill="url(#paint0_linear_15_4)"/>
<path fill-rule="evenodd" clip-rule="evenodd" d="M56.9379 95.3356C46.9662 103.755 40.3359 109.431 32.0241 117.029C12.007 135.324 -1.59397 149.25 5.41819 168.286C13.5072 190.246 31.2384 189.132 52.0313 185.051C105.627 174.48 193.729 106.749 189.238 81.7315C185.604 61.489 136.383 21.2433 107.24 6.92207C98.1356 2.44768 87.643 0.133784 77.1188 0.629211C37.0457 2.52075 5.75089 39.0051 7.34963 58.773C8.90483 78.0044 57.5116 94.7619 56.9379 95.3356ZM50.9228 28.1974C38.8647 41.6134 46.5739 67.5694 66.5708 81.717C89.9698 98.2719 127.861 101.269 135.401 88.5022C149.466 64.6885 134.109 39.5088 111.186 28.2767C88.5338 17.1773 58.4392 19.8348 50.9228 28.1974Z" fill="url(#paint1_linear_15_4)"/>
<path fill-rule="evenodd" clip-rule="evenodd" d="M92.0448 81.1542C108.973 83.5075 123.565 76.728 125.846 60.0115C127.584 47.2781 108.097 33.3657 96.3803 30.1574C86.5961 27.4776 65.3544 30.9233 63.9221 49.4282C62.4337 68.6654 82.1741 79.7825 92.0448 81.1542ZM83.7552 49.1593C72.6299 66.3945 99.9079 71.6934 104.084 68.5504C122.09 54.9992 88.6566 41.5662 83.7552 49.1593Z" fill="url(#paint2_radial_15_4)"/>
<path fill-rule="evenodd" clip-rule="evenodd" d="M73.8886 5.20882C54.2094 7.28225 50.4408 9.81536 32.6132 23.3033C26.638 27.8238 15.6412 38.8232 12.8236 51.8722C11.7503 56.842 13.019 61.133 16.5979 64.1418C28.059 73.7773 47.2413 81.5942 62.9783 89.151C67.5875 91.3644 64.5356 95.3776 57.1026 101.812C38.3459 118.051 12.9868 137.817 11.2166 152.879C10.3822 159.976 12.8122 169.62 21.4267 174.555C31.4902 180.32 52.38 176.558 66.3292 171.363C86.7132 163.773 113.49 147.021 134.747 130.554C156.852 113.43 177.406 91.681 178.422 88.1338C179.671 83.7775 179.546 79.7545 177.137 75.1283C173.353 67.8643 168.295 62.4669 162.864 56.4249C148.29 41.0609 132.871 27.5611 114.422 17.2157C101.1 9.74488 89.379 3.5764 73.8886 5.20882ZM102.796 39.6534C117.013 46.5267 131.613 64.5813 102.669 74.9728C94.7986 77.7987 69.8381 68.0332 70.602 54.7064C71.7162 35.0205 85.4363 31.2607 102.796 39.6534Z" fill="url(#paint3_radial_15_4)"/>
<path fill-rule="evenodd" clip-rule="evenodd" d="M32.0213 189.106C32.0436 180.583 39.289 168.684 49.5836 157.873C56.4636 150.649 63.4509 144.307 78.6822 131.32C68.1466 125.539 51.7602 118.564 43.5385 109.429C40.4964 106.05 34.982 98.3922 36.0516 88.1618C38.2313 67.3104 63.9681 35.6663 100.55 28.9764C112.723 26.7501 126.698 28.3572 138.2 33.528C174.283 49.7507 218.412 90.0529 223.842 109.732C225.753 116.658 225.386 127.699 222.091 133.853C218.007 141.479 203.872 156.969 184.532 172.952C154.187 198.032 111.663 224.961 79.9114 229.493C69.6515 230.957 59.1698 229.43 51.814 225.28C40.3047 218.785 36.4843 210.115 35.1416 207.516C31.5705 200.606 32.0136 191.851 32.0213 189.106ZM117.425 93.3498C117.817 88.5173 136.766 93.3281 135.569 97.1552C134.306 101.193 116.976 98.8933 117.425 93.3498Z" fill="url(#paint0_linear_15_2)"/>
<path fill-rule="evenodd" clip-rule="evenodd" d="M88.9379 123.336C78.9662 131.755 72.3359 137.431 64.0241 145.029C44.007 163.324 30.406 177.25 37.4182 196.286C45.5072 218.246 63.2384 217.132 84.0313 213.051C137.627 202.48 225.729 134.749 221.238 109.732C217.604 89.489 168.383 49.2433 139.24 34.9221C130.136 30.4477 119.643 28.1338 109.119 28.6292C69.0457 30.5207 37.7509 67.0051 39.3496 86.773C40.9048 106.004 89.5116 122.762 88.9379 123.336ZM82.9228 56.1974C70.8647 69.6134 78.5739 95.5694 98.5708 109.717C121.97 126.272 159.861 129.269 167.401 116.502C181.466 92.6885 166.109 67.5088 143.186 56.2767C120.534 45.1773 90.4392 47.8348 82.9228 56.1974Z" fill="url(#paint1_linear_15_2)"/>
<path fill-rule="evenodd" clip-rule="evenodd" d="M124.045 109.154C140.973 111.507 155.565 104.728 157.846 88.0115C159.584 75.2781 140.097 61.3657 128.38 58.1574C118.596 55.4776 97.3544 58.9233 95.9221 77.4282C94.4337 96.6654 114.174 107.782 124.045 109.154ZM115.755 77.1593C104.63 94.3945 131.908 99.6934 136.084 96.5504C154.09 82.9992 120.657 69.5662 115.755 77.1593Z" fill="url(#paint2_radial_15_2)"/>
<path fill-rule="evenodd" clip-rule="evenodd" d="M105.889 33.2088C86.2094 35.2823 82.4408 37.8154 64.6132 51.3033C58.638 55.8238 47.6412 66.8232 44.8236 79.8722C43.7503 84.842 45.019 89.133 48.5979 92.1418C60.059 101.777 79.2413 109.594 94.9783 117.151C99.5875 119.364 96.5356 123.378 89.1026 129.812C70.3459 146.051 44.9868 165.817 43.2166 180.879C42.3822 187.976 44.8122 197.62 53.4267 202.555C63.4902 208.32 84.38 204.558 98.3292 199.363C118.713 191.773 145.49 175.021 166.747 158.554C188.852 141.43 209.406 119.681 210.422 116.134C211.671 111.778 211.546 107.755 209.137 103.128C205.353 95.8643 200.295 90.4669 194.864 84.4249C180.29 69.0609 164.871 55.5611 146.422 45.2157C133.1 37.7449 121.379 31.5764 105.889 33.2088ZM134.796 67.6534C149.013 74.5267 163.613 92.5813 134.669 102.973C126.799 105.799 101.838 96.0332 102.602 82.7064C103.716 63.0205 117.436 59.2607 134.796 67.6534Z" fill="url(#paint3_radial_15_2)"/>
<defs>
<linearGradient id="paint0_linear_15_2" x1="1.69333" y1="-434.1" x2="128.5" y2="230.036" gradientUnits="userSpaceOnUse">
<stop stop-color="white"/>
<stop offset="0.34" stop-color="white"/>
<stop offset="0.51" stop-color="#BEBDF3"/>
<stop offset="0.75" stop-color="#867FB7"/>
<stop offset="0.87" stop-color="#9F99C7"/>
<stop offset="1" stop-color="#524C76"/>
</linearGradient>
<linearGradient id="paint1_linear_15_2" x1="157.688" y1="177.28" x2="119.386" y2="5.54159" gradientUnits="userSpaceOnUse">
<stop stop-color="white"/>
<stop offset="0.34" stop-color="white"/>
<stop offset="0.51" stop-color="#BEBBDB"/>
<stop offset="0.75" stop-color="#928BBE"/>
<stop offset="0.87" stop-color="#9F99C7"/>
<stop offset="1" stop-color="#524C76"/>
</linearGradient>
<radialGradient id="paint2_radial_15_2" cx="0" cy="0" r="1" gradientUnits="userSpaceOnUse" gradientTransform="translate(112.756 72.8735) scale(34.0869 26.1265)">
<stop stop-color="white"/>
<stop offset="0.34" stop-color="white"/>
<stop offset="0.51" stop-color="#BEBBDB"/>
<stop offset="0.75" stop-color="#928BBE"/>
<stop offset="0.87" stop-color="#9F99C7"/>
<stop offset="1" stop-color="#524C76"/>
</radialGradient>
<radialGradient id="paint3_radial_15_2" cx="0" cy="0" r="1" gradientUnits="userSpaceOnUse" gradientTransform="translate(35.2025 81.2347) rotate(90.9029) scale(296.539 252.909)">
<stop stop-color="white"/>
<stop offset="0.34" stop-color="white"/>
<stop offset="0.51" stop-color="#BEBBDB"/>
<stop offset="0.75" stop-color="#928BBE"/>
<stop offset="0.87" stop-color="#9F99C7"/>
<stop offset="1" stop-color="#524C76"/>
</radialGradient>
</defs>
</g>
</g>
</svg>
