<svg width="256" height="256" title="GetX" viewBox="0 0 256 256" fill="none" xmlns="http://www.w3.org/2000/svg" id="getx">
<style>
#getx {
    rect {fill: #15191C}

    @media (prefers-color-scheme: light) {
        rect {fill: #F4F2ED}
    }
}
</style>
<rect width="256" height="256" rx="40" fill="#15191C"/>
<path d="M119.172 52.5166C117.095 52.9766 112.791 54.5078 109.643 55.9704C94.7443 63.1801 85.683 80.14 87.9861 96.4751C89.1069 104.881 92.903 112.704 98.8144 118.791C106.569 126.852 115.789 130.683 127.236 130.766C138.525 130.766 147.82 126.852 155.651 118.798C179.308 94.168 163.255 53.7457 129.154 52.0565C125.772 51.9055 121.317 52.0565 119.172 52.5166ZM140.67 67.8698C146.892 70.17 154.186 77.3042 155.644 82.5982C157.108 88.0432 156.331 95.095 153.65 100.087C147.737 110.901 134.29 118.805 126.225 116.195C122.54 114.966 117.631 109.37 114.936 103.458C109.113 90.4876 107.188 79.2886 109.876 74.0701C113.946 66.1738 128.542 63.2556 140.677 67.8629L140.67 67.8698ZM74.236 127.539C54.7245 133.828 43.2087 152.244 46.5844 172.033C49.8844 191.671 68.399 206.323 88.0618 204.785C102.039 203.79 113.946 196.271 120.244 184.461C123.702 177.869 124.926 172.953 124.926 165.132C124.926 151.09 118.25 139.047 106.109 131.528C97.5837 126.158 83.7648 124.469 74.236 127.545V127.539ZM90.9837 139.891C109.801 142.961 120.01 158.685 112.64 173.413C109.643 179.318 103.345 185.305 96.8962 188.375C92.5168 190.366 91.1349 190.675 87.0649 190.366C79.9973 189.906 76.8485 187.07 73.0053 177.478C68.399 166.203 66.474 152.704 68.784 148.33C71.6234 143.036 76.4635 140.351 85.3736 139.198C85.8342 139.198 88.2886 139.507 90.9837 139.891ZM158.648 127.923C135.685 135.977 125.393 161.445 136.146 183.383C139.137 189.521 146.204 196.731 152.509 200.034C168.706 208.548 186.224 206.014 199.122 193.202C220.091 172.493 212.185 137.742 184.148 127.923C177.005 125.396 165.791 125.396 158.648 127.923ZM182.154 141.505C190.294 144.114 198.434 151.701 200.277 158.533C201.508 163.058 200.813 169.581 198.744 173.873C194.976 181.625 185.612 188.601 176.393 190.442C163.949 192.9 157.576 184.385 154.736 161.671C153.038 147.945 156.799 141.656 167.868 139.974C172.474 139.28 176.462 139.658 182.154 141.505Z" fill="url(#linearGradient)"/>
<linearGradient id="linearGradient" x1="46" y1="128.648" x2="211" y2="128.352" gradientUnits="userSpaceOnUse">
<stop stop-color="#5B0DB0"/>
<stop offset="1" stop-color="#9B1ECF"/>
</linearGradient>
</svg>