<svg width="256" height="256" title="GHDL" viewBox="0 0 256 256" fill="none" xmlns="http://www.w3.org/2000/svg" id="ghdl">
<style>
#ghdl {
    rect {fill: #15191C}

    @media (prefers-color-scheme: light) {
        rect {fill: #F4F2ED}
    }
}
</style>
<rect width="256" height="256" rx="40" fill="#15191C"/>
<path d="M221.333 150.294C223.533 150.294 225.733 150.294 228 150.294C228 152.507 228 154.72 228 157C225.8 157 223.6 157 221.333 157C221.333 154.787 221.333 152.574 221.333 150.294Z" fill="#0245F7"/>
<path d="M204.667 150.294C206.867 150.294 209.067 150.294 211.333 150.294C211.333 152.507 211.333 154.72 211.333 157C209.133 157 206.933 157 204.667 157C204.667 154.787 204.667 152.574 204.667 150.294Z" fill="#0245F7"/>
<path d="M188 150.294C190.2 150.294 192.4 150.294 194.667 150.294C194.667 152.507 194.667 154.72 194.667 157C192.467 157 190.267 157 188 157C188 154.787 188 152.574 188 150.294Z" fill="#0245F7"/>
<path d="M154.667 150.294C156.867 150.294 159.067 150.294 161.333 150.294C161.333 152.507 161.333 154.72 161.333 157C159.133 157 156.933 157 154.667 157C154.667 154.787 154.667 152.574 154.667 150.294Z" fill="#0245F7"/>
<path d="M138 150.294C140.2 150.294 142.4 150.294 144.667 150.294C144.667 152.507 144.667 154.72 144.667 157C142.467 157 140.267 157 138 157C138 154.787 138 152.574 138 150.294Z" fill="#0245F7"/>
<path d="M121.333 150.294C123.533 150.294 125.733 150.294 128 150.294C128 152.507 128 154.72 128 157C125.8 157 123.6 157 121.333 157C121.333 154.787 121.333 152.574 121.333 150.294Z" fill="#0245F7"/>
<path d="M88 150.294C90.2 150.294 92.4 150.294 94.6667 150.294C94.6667 152.507 94.6667 154.72 94.6667 157C92.4667 157 90.2667 157 88 157C88 154.787 88 152.574 88 150.294Z" fill="#0245F7"/>
<path d="M71.3333 150.294C73.5333 150.294 75.7333 150.294 78 150.294C78 152.507 78 154.72 78 157C75.8 157 73.6 157 71.3333 157C71.3333 154.787 71.3333 152.574 71.3333 150.294Z" fill="#0245F7"/>
<path d="M54.6667 150.294C56.8667 150.294 59.0667 150.294 61.3333 150.294C61.3333 152.507 61.3333 154.72 61.3333 157C59.1333 157 56.9333 157 54.6667 157C54.6667 154.787 54.6667 152.574 54.6667 150.294Z" fill="#0245F7"/>
<path d="M188 133.529C190.2 133.529 192.4 133.529 194.667 133.529C194.667 135.742 194.667 137.955 194.667 140.235C192.467 140.235 190.267 140.235 188 140.235C188 138.022 188 135.809 188 133.529Z" fill="#0245F7"/>
<path d="M171.333 133.529C173.533 133.529 175.733 133.529 178 133.529C178 135.742 178 137.955 178 140.235C175.8 140.235 173.6 140.235 171.333 140.235C171.333 138.022 171.333 135.809 171.333 133.529Z" fill="#0245F7"/>
<path d="M138 133.529C140.2 133.529 142.4 133.529 144.667 133.529C144.667 135.742 144.667 137.955 144.667 140.235C142.467 140.235 140.267 140.235 138 140.235C138 138.022 138 135.809 138 133.529Z" fill="#0245F7"/>
<path d="M121.333 133.529C123.533 133.529 125.733 133.529 128 133.529C128 135.742 128 137.955 128 140.235C125.8 140.235 123.6 140.235 121.333 140.235C121.333 138.022 121.333 135.809 121.333 133.529Z" fill="#0245F7"/>
<path d="M88 133.529C90.2 133.529 92.4 133.529 94.6667 133.529C94.6667 135.742 94.6667 137.955 94.6667 140.235C92.4667 140.235 90.2667 140.235 88 140.235C88 138.022 88 135.809 88 133.529Z" fill="#0245F7"/>
<path d="M71.3333 133.529C73.5333 133.529 75.7333 133.529 78 133.529C78 135.742 78 137.955 78 140.235C75.8 140.235 73.6 140.235 71.3333 140.235C71.3333 138.022 71.3333 135.809 71.3333 133.529Z" fill="#0245F7"/>
<path d="M38 133.529C40.2 133.529 42.4 133.529 44.6667 133.529C44.6667 135.742 44.6667 137.955 44.6667 140.235C42.4667 140.235 40.2667 140.235 38 140.235C38 138.022 38 135.809 38 133.529Z" fill="#0245F7"/>
<path d="M188 116.765C190.2 116.765 192.4 116.765 194.667 116.765C194.667 118.978 194.667 121.191 194.667 123.471C192.467 123.471 190.267 123.471 188 123.471C188 121.258 188 119.045 188 116.765Z" fill="#0245F7"/>
<path d="M171.333 116.765C173.533 116.765 175.733 116.765 178 116.765C178 118.978 178 121.191 178 123.471C175.8 123.471 173.6 123.471 171.333 123.471C171.333 121.258 171.333 119.045 171.333 116.765Z" fill="#0245F7"/>
<path d="M138 116.765C140.2 116.765 142.4 116.765 144.667 116.765C144.667 118.978 144.667 121.191 144.667 123.471C142.467 123.471 140.267 123.471 138 123.471C138 121.258 138 119.045 138 116.765Z" fill="#0245F7"/>
<path d="M121.333 116.765C123.533 116.765 125.733 116.765 128 116.765C128 118.978 128 121.191 128 123.471C125.8 123.471 123.6 123.471 121.333 123.471C121.333 121.258 121.333 119.045 121.333 116.765Z" fill="#0245F7"/>
<path d="M88 116.765C90.2 116.765 92.4 116.765 94.6667 116.765C94.6667 118.978 94.6667 121.191 94.6667 123.471C92.4667 123.471 90.2667 123.471 88 123.471C88 121.258 88 119.045 88 116.765Z" fill="#0245F7"/>
<path d="M38 116.765C40.2 116.765 42.4 116.765 44.6667 116.765C44.6667 118.978 44.6667 121.191 44.6667 123.471C42.4667 123.471 40.2667 123.471 38 123.471C38 121.258 38 119.045 38 116.765Z" fill="#0245F7"/>
<path d="M188 100C190.2 100 192.4 100 194.667 100C194.667 102.213 194.667 104.426 194.667 106.706C192.467 106.706 190.267 106.706 188 106.706C188 104.493 188 102.28 188 100Z" fill="#0245F7"/>
<path d="M154.667 100C156.867 100 159.067 100 161.333 100C161.333 102.213 161.333 104.426 161.333 106.706C159.133 106.706 156.933 106.706 154.667 106.706C154.667 104.493 154.667 102.28 154.667 100Z" fill="#0245F7"/>
<path d="M138 100C140.2 100 142.4 100 144.667 100C144.667 102.213 144.667 104.426 144.667 106.706C142.467 106.706 140.267 106.706 138 106.706C138 104.493 138 102.28 138 100Z" fill="#0245F7"/>
<path d="M121.333 100C123.533 100 125.733 100 128 100C128 102.213 128 104.426 128 106.706C125.8 106.706 123.6 106.706 121.333 106.706C121.333 104.493 121.333 102.28 121.333 100Z" fill="#0245F7"/>
<path d="M88 100C90.2 100 92.4 100 94.6667 100C94.6667 102.213 94.6667 104.426 94.6667 106.706C92.4667 106.706 90.2667 106.706 88 106.706C88 104.493 88 102.28 88 100Z" fill="#0245F7"/>
<path d="M54.6667 100C56.8667 100 59.0667 100 61.3333 100C61.3333 102.213 61.3333 104.426 61.3333 106.706C59.1333 106.706 56.9333 106.706 54.6667 106.706C54.6667 104.493 54.6667 102.28 54.6667 100Z" fill="#0245F7"/>
<path d="M213.238 150.294C215.281 150.294 217.324 150.294 219.429 150.294C219.429 152.507 219.429 154.72 219.429 157C217.386 157 215.343 157 213.238 157C213.238 154.787 213.238 152.574 213.238 150.294Z" fill="#0245F7"/>
<path d="M196.571 150.294C198.614 150.294 200.657 150.294 202.762 150.294C202.762 152.507 202.762 154.72 202.762 157C200.719 157 198.676 157 196.571 157C196.571 154.787 196.571 152.574 196.571 150.294Z" fill="#0245F7"/>
<path d="M146.571 150.294C148.614 150.294 150.657 150.294 152.762 150.294C152.762 152.507 152.762 154.72 152.762 157C150.719 157 148.676 157 146.571 157C146.571 154.787 146.571 152.574 146.571 150.294Z" fill="#0245F7"/>
<path d="M63.2381 150.294C65.281 150.294 67.3238 150.294 69.4286 150.294C69.4286 152.507 69.4286 154.72 69.4286 157C67.3857 157 65.3429 157 63.2381 157C63.2381 154.787 63.2381 152.574 63.2381 150.294Z" fill="#0245F7"/>
<path d="M46.5714 150.294C48.6143 150.294 50.6571 150.294 52.7619 150.294C52.7619 152.507 52.7619 154.72 52.7619 157C50.719 157 48.6762 157 46.5714 157C46.5714 154.787 46.5714 152.574 46.5714 150.294Z" fill="#0245F7"/>
<path d="M188 142.151C190.2 142.151 192.4 142.151 194.667 142.151C194.667 144.206 194.667 146.261 194.667 148.378C192.467 148.378 190.267 148.378 188 148.378C188 146.323 188 144.268 188 142.151Z" fill="#0245F7"/>
<path d="M138 142.151C140.2 142.151 142.4 142.151 144.667 142.151C144.667 144.206 144.667 146.261 144.667 148.378C142.467 148.378 140.267 148.378 138 148.378C138 146.323 138 144.268 138 142.151Z" fill="#0245F7"/>
<path d="M121.333 142.151C123.533 142.151 125.733 142.151 128 142.151C128 144.206 128 146.261 128 148.378C125.8 148.378 123.6 148.378 121.333 148.378C121.333 146.323 121.333 144.268 121.333 142.151Z" fill="#0245F7"/>
<path d="M88 142.151C90.2 142.151 92.4 142.151 94.6667 142.151C94.6667 144.206 94.6667 146.261 94.6667 148.378C92.4667 148.378 90.2667 148.378 88 148.378C88 146.323 88 144.268 88 142.151Z" fill="#0245F7"/>
<path d="M71.3333 142.151C73.5333 142.151 75.7333 142.151 78 142.151C78 144.206 78 146.261 78 148.378C75.8 148.378 73.6 148.378 71.3333 148.378C71.3333 146.323 71.3333 144.268 71.3333 142.151Z" fill="#0245F7"/>
<path d="M38 142.151C40.2 142.151 42.4 142.151 44.6667 142.151C44.6667 144.206 44.6667 146.261 44.6667 148.378C42.4667 148.378 40.2667 148.378 38 148.378C38 146.323 38 144.268 38 142.151Z" fill="#0245F7"/>
<path d="M188 125.387C190.2 125.387 192.4 125.387 194.667 125.387C194.667 127.441 194.667 129.496 194.667 131.613C192.467 131.613 190.267 131.613 188 131.613C188 129.559 188 127.504 188 125.387Z" fill="#0245F7"/>
<path d="M171.333 125.387C173.533 125.387 175.733 125.387 178 125.387C178 127.441 178 129.496 178 131.613C175.8 131.613 173.6 131.613 171.333 131.613C171.333 129.559 171.333 127.504 171.333 125.387Z" fill="#0245F7"/>
<path d="M138 125.387C140.2 125.387 142.4 125.387 144.667 125.387C144.667 127.441 144.667 129.496 144.667 131.613C142.467 131.613 140.267 131.613 138 131.613C138 129.559 138 127.504 138 125.387Z" fill="#0245F7"/>
<path d="M121.333 125.387C123.533 125.387 125.733 125.387 128 125.387C128 127.441 128 129.496 128 131.613C125.8 131.613 123.6 131.613 121.333 131.613C121.333 129.559 121.333 127.504 121.333 125.387Z" fill="#0245F7"/>
<path d="M104.667 125.387C106.867 125.387 109.067 125.387 111.333 125.387C111.333 127.441 111.333 129.496 111.333 131.613C109.133 131.613 106.933 131.613 104.667 131.613C104.667 129.559 104.667 127.504 104.667 125.387Z" fill="#0245F7"/>
<path d="M88 125.387C90.2 125.387 92.4 125.387 94.6667 125.387C94.6667 127.441 94.6667 129.496 94.6667 131.613C92.4667 131.613 90.2667 131.613 88 131.613C88 129.559 88 127.504 88 125.387Z" fill="#0245F7"/>
<path d="M71.3333 125.387C73.5333 125.387 75.7333 125.387 78 125.387C78 127.441 78 129.496 78 131.613C75.8 131.613 73.6 131.613 71.3333 131.613C71.3333 129.559 71.3333 127.504 71.3333 125.387Z" fill="#0245F7"/>
<path d="M54.6667 125.387C56.8667 125.387 59.0667 125.387 61.3333 125.387C61.3333 127.441 61.3333 129.496 61.3333 131.613C59.1333 131.613 56.9333 131.613 54.6667 131.613C54.6667 129.559 54.6667 127.504 54.6667 125.387Z" fill="#0245F7"/>
<path d="M38 125.387C40.2 125.387 42.4 125.387 44.6667 125.387C44.6667 127.441 44.6667 129.496 44.6667 131.613C42.4667 131.613 40.2667 131.613 38 131.613C38 129.559 38 127.504 38 125.387Z" fill="#0245F7"/>
<path d="M188 108.622C190.2 108.622 192.4 108.622 194.667 108.622C194.667 110.677 194.667 112.732 194.667 114.849C192.467 114.849 190.267 114.849 188 114.849C188 112.794 188 110.739 188 108.622Z" fill="#0245F7"/>
<path d="M138 108.622C140.2 108.622 142.4 108.622 144.667 108.622C144.667 110.677 144.667 112.732 144.667 114.849C142.467 114.849 140.267 114.849 138 114.849C138 112.794 138 110.739 138 108.622Z" fill="#0245F7"/>
<path d="M121.333 108.622C123.533 108.622 125.733 108.622 128 108.622C128 110.677 128 112.732 128 114.849C125.8 114.849 123.6 114.849 121.333 114.849C121.333 112.794 121.333 110.739 121.333 108.622Z" fill="#0245F7"/>
<path d="M88 108.622C90.2 108.622 92.4 108.622 94.6667 108.622C94.6667 110.677 94.6667 112.732 94.6667 114.849C92.4667 114.849 90.2667 114.849 88 114.849C88 112.794 88 110.739 88 108.622Z" fill="#0245F7"/>
<path d="M71.3333 108.622C73.5333 108.622 75.7333 108.622 78 108.622C78 110.677 78 112.732 78 114.849C75.8 114.849 73.6 114.849 71.3333 114.849C71.3333 112.794 71.3333 110.739 71.3333 108.622Z" fill="#0245F7"/>
<path d="M38 108.622C40.2 108.622 42.4 108.622 44.6667 108.622C44.6667 110.677 44.6667 112.732 44.6667 114.849C42.4667 114.849 40.2667 114.849 38 114.849C38 112.794 38 110.739 38 108.622Z" fill="#0245F7"/>
<path d="M146.571 100C148.614 100 150.657 100 152.762 100C152.762 102.213 152.762 104.426 152.762 106.706C150.719 106.706 148.676 106.706 146.571 106.706C146.571 104.493 146.571 102.28 146.571 100Z" fill="#0245F7"/>
<path d="M63.2381 100C65.281 100 67.3238 100 69.4286 100C69.4286 102.213 69.4286 104.426 69.4286 106.706C67.3857 106.706 65.3429 106.706 63.2381 106.706C63.2381 104.493 63.2381 102.28 63.2381 100Z" fill="#0245F7"/>
<path d="M46.5714 100C48.6143 100 50.6571 100 52.7619 100C52.7619 102.213 52.7619 104.426 52.7619 106.706C50.719 106.706 48.6762 106.706 46.5714 106.706C46.5714 104.493 46.5714 102.28 46.5714 100Z" fill="#0245F7"/>
<path d="M163.238 142.151C165.281 142.151 167.324 142.151 169.429 142.151C169.429 144.206 169.429 146.261 169.429 148.378C167.386 148.378 165.343 148.378 163.238 148.378C163.238 146.323 163.238 144.268 163.238 142.151Z" fill="#0245F7"/>
<path d="M113.238 125.387C115.281 125.387 117.324 125.387 119.429 125.387C119.429 127.441 119.429 129.496 119.429 131.613C117.386 131.613 115.343 131.613 113.238 131.613C113.238 129.559 113.238 127.504 113.238 125.387Z" fill="#0245F7"/>
<path d="M96.5714 125.387C98.6143 125.387 100.657 125.387 102.762 125.387C102.762 127.441 102.762 129.496 102.762 131.613C100.719 131.613 98.6762 131.613 96.5714 131.613C96.5714 129.559 96.5714 127.504 96.5714 125.387Z" fill="#0245F7"/>
<path d="M63.2381 125.387C65.281 125.387 67.3238 125.387 69.4286 125.387C69.4286 127.441 69.4286 129.496 69.4286 131.613C67.3857 131.613 65.3429 131.613 63.2381 131.613C63.2381 129.559 63.2381 127.504 63.2381 125.387Z" fill="#0245F7"/>
<path d="M163.238 108.622C165.281 108.622 167.324 108.622 169.429 108.622C169.429 110.677 169.429 112.732 169.429 114.849C167.386 114.849 165.343 114.849 163.238 114.849C163.238 112.794 163.238 110.739 163.238 108.622Z" fill="#0245F7"/>
</svg>