<svg width="256" height="256" title="Ghostty" viewBox="0 0 256 256" fill="none" xmlns="http://www.w3.org/2000/svg" id="ghostty">
<style>
#ghostty {
    rect {fill: #15191C}

    @media (prefers-color-scheme: light) {
        rect {fill: #F4F2ED}
    }
}
</style>
<rect width="256" height="256" rx="40" fill="#15191C"/>
<path d="M164.843 212C158.287 211.993 151.879 210.044 146.425 206.398C140.969 210.043 134.56 211.992 128.003 212C121.46 212 115.012 210.031 109.585 206.398C104.205 210.027 97.8727 211.976 91.388 212H91.1889C86.7909 212.003 82.4374 211.119 78.3877 209.399C74.338 207.68 70.6751 205.162 67.6172 201.993C61.4487 195.723 57.9934 187.269 58 178.463V114.151C58.0105 75.4738 89.4079 44 128.003 44C166.603 44 198 75.4685 198 114.156V178.484C198 196.297 184.245 210.992 166.686 211.953C166.073 211.989 165.461 212 164.843 212Z" fill="#3551F3"/>
<path d="M164.842 204.613C158.976 204.609 153.287 202.604 148.709 198.928C148.086 198.425 147.308 198.156 146.509 198.166C145.579 198.176 144.679 198.502 143.958 199.09C139.407 202.673 133.789 204.623 128.002 204.629C122.217 204.622 116.602 202.672 112.052 199.09C111.353 198.526 110.483 198.219 109.585 198.219C108.688 198.219 107.817 198.526 107.118 199.09C102.629 202.653 97.0771 204.604 91.3511 204.629H91.1782C87.766 204.629 84.3888 203.939 81.248 202.603C78.1072 201.266 75.2671 199.309 72.8971 196.849C68.0793 191.956 65.3771 185.358 65.3751 178.484V114.177C65.3751 79.5426 93.4725 51.3868 128.008 51.3868C162.538 51.3868 190.635 79.5426 190.635 114.156V178.484C190.635 192.37 179.939 203.826 166.278 204.577C165.8 204.601 165.321 204.613 164.842 204.613Z" fill="black"/>
<path d="M183.265 114.156V178.484C183.265 188.333 175.685 196.665 165.874 197.206C161.333 197.467 156.856 196.028 153.313 193.168C149.238 189.882 143.502 190.029 139.39 193.279C136.144 195.847 132.127 197.24 127.992 197.232C123.861 197.239 119.85 195.846 116.609 193.279C114.612 191.683 112.134 190.814 109.58 190.814C107.026 190.814 104.547 191.683 102.55 193.279C99.3414 195.819 95.3771 197.21 91.2881 197.232C81.0842 197.305 72.7451 188.69 72.7451 178.463V114.151C72.7451 83.5693 97.4901 58.7683 128.008 58.7683C158.52 58.7683 183.265 83.5693 183.265 114.156Z" fill="white"/>
<path d="M117.097 109.294L96.5107 97.3768C95.2219 96.6326 93.6911 96.4313 92.2543 96.8171C90.8176 97.203 89.5923 98.1444 88.8473 99.4348C88.1044 100.726 87.9028 102.26 88.2867 103.7C88.6707 105.14 89.6089 106.368 90.8955 107.116L103.079 114.166L90.8955 121.217C89.6749 121.996 88.8015 123.217 88.4574 124.626C88.1134 126.035 88.3252 127.522 89.0487 128.778C89.7722 130.034 90.9516 130.962 92.3409 131.367C93.7302 131.773 95.2221 131.626 96.5055 130.956L117.102 119.038C117.953 118.544 118.66 117.835 119.152 116.981C119.644 116.126 119.902 115.158 119.902 114.172C119.902 113.185 119.644 112.217 119.152 111.362C118.66 110.508 117.953 109.799 117.102 109.305V109.294H117.097ZM163.727 108.528H136.677C135.188 108.528 133.761 109.12 132.708 110.175C131.656 111.23 131.064 112.661 131.064 114.153C131.064 115.645 131.656 117.076 132.708 118.131C133.761 119.186 135.188 119.779 136.677 119.779H163.727C165.215 119.779 166.643 119.186 167.695 118.131C168.748 117.076 169.339 115.645 169.339 114.153C169.339 112.661 168.748 111.23 167.695 110.175C166.643 109.12 165.215 108.528 163.727 108.528Z" fill="black"/>
</svg>