<svg width="256" height="256" title="GIMP" viewBox="0 0 256 256" fill="none" xmlns="http://www.w3.org/2000/svg" id="gimp">
<style>
#gimp {
    rect {fill: #15191C}

    @media (prefers-color-scheme: light) {
        rect {fill: #F4F2ED}
    }
}
</style>
<rect width="256" height="256" rx="40" fill="#15191C"/>
<path fill-rule="evenodd" clip-rule="evenodd" d="M205.939 159.473C205.939 163.852 203.956 168.188 200.103 172.234C196.25 176.279 190.603 179.955 183.483 183.052C176.364 186.148 167.912 188.604 158.611 190.28C149.309 191.956 139.34 192.818 129.271 192.818C119.203 192.818 109.234 191.956 99.9321 190.28C90.6304 188.604 82.1787 186.148 75.0595 183.052C67.9402 179.955 62.293 176.279 58.4401 172.234C54.5872 168.188 52.6041 163.852 52.6041 159.473C52.6041 155.094 54.5872 150.758 58.4401 146.713C62.293 142.667 67.9402 138.991 75.0595 135.895C82.1787 132.798 90.6304 130.342 99.9321 128.666C109.234 126.991 119.203 126.128 129.271 126.128C139.34 126.128 149.309 126.991 158.611 128.666C167.912 130.342 176.364 132.798 183.483 135.895C190.603 138.991 196.25 142.667 200.103 146.713C203.956 150.758 205.939 155.094 205.939 159.473Z" fill="url(#radialGradient1)"/>
<path fill-rule="evenodd" clip-rule="evenodd" d="M75.7067 77.6824C75.7067 77.6824 87.7824 102.584 116.033 101.882C175.235 100.396 185.616 69.5135 187.101 65.0577C188.586 60.602 190.859 61.2769 191.384 65.3949C210.693 240.655 57.3871 165.458 51.9426 135.608C82.3904 126.696 74.9641 109.616 74.9641 109.616L75.7067 77.6824Z" fill="url(#radialGradient2)" stroke="#2E3436" stroke-width="6.58333" stroke-miterlimit="10"/>
<path fill-rule="evenodd" clip-rule="evenodd" d="M98.2381 151.611C126.548 157.274 140.965 152.023 149.402 145.508C147.174 142.631 143.368 139.474 143.368 139.474C143.368 139.474 153.254 142.222 156.736 146.715C160.207 151.196 158.025 153.956 157.116 159.689C155.094 154.654 151.319 152.766 150.808 150.765C143.22 161.254 124.315 160.819 98.2381 151.611Z" fill="url(#linearGradient1)"/>
<path opacity="0.185393" fill-rule="evenodd" clip-rule="evenodd" d="M187.428 75.0605C185.067 78.9543 181.52 83.6017 176.138 88.0572C165.082 97.2112 146.519 105.543 116.143 106.305C98.3971 106.746 86.9354 98.1798 79.9103 90.5515L79.3852 109.324C79.9569 111.084 81.1305 115.166 79.1226 120.746C76.962 126.75 70.0716 132.892 58.2491 137.55C59.3008 139.743 60.3306 141.934 63.5003 145.032C67.8187 149.254 73.8222 153.804 80.9605 157.898C95.2372 166.085 113.735 172.573 130.978 172.864C148.222 173.155 163.985 167.677 174.825 151.859C184.818 137.277 190.295 112.589 187.428 75.0605Z" stroke="url(#linearGradient2)" stroke-width="6.58333" stroke-miterlimit="10"/>
<path fill-rule="evenodd" clip-rule="evenodd" d="M106.526 115.185C106.527 117.429 106.085 119.65 105.227 121.723C104.369 123.796 103.111 125.679 101.525 127.266C99.9386 128.852 98.0554 130.111 95.9828 130.969C93.9103 131.828 91.6889 132.27 89.4455 132.27C87.2021 132.27 84.9806 131.828 82.9081 130.969C80.8355 130.111 78.9523 128.852 77.3662 127.266C75.7801 125.679 74.5221 123.796 73.6639 121.723C72.8058 119.65 72.3644 117.429 72.365 115.185C72.3644 112.942 72.8058 110.72 73.6639 108.648C74.5221 106.575 75.7801 104.691 77.3662 103.105C78.9523 101.518 80.8355 100.26 82.9081 99.4011C84.9806 98.5424 87.2021 98.1005 89.4455 98.1005C91.6889 98.1005 93.9103 98.5424 95.9828 99.4011C98.0554 100.26 99.9386 101.518 101.525 103.105C103.111 104.691 104.369 106.575 105.227 108.648C106.085 110.72 106.527 112.942 106.526 115.185Z" fill="url(#radialGradient3)" stroke="#888A85" stroke-width="6.58333" stroke-miterlimit="10"/>
<path fill-rule="evenodd" clip-rule="evenodd" d="M72.5007 121.621C76.4762 127.131 78.7344 133.538 78.7784 139.431C78.8223 145.324 76.6485 150.22 72.7352 153.044C68.8218 155.867 63.4894 156.385 57.9111 154.485C52.3328 152.585 46.9655 148.421 42.9899 142.911C39.0143 137.4 36.7562 130.994 36.7122 125.101C36.6682 119.208 38.842 114.311 42.7554 111.488C46.6688 108.665 52.0011 108.146 57.5795 110.046C63.1578 111.947 68.5251 116.11 72.5007 121.621Z" fill="url(#radialGradient4)" stroke="black" stroke-width="6.58333" stroke-miterlimit="10"/>
<path fill-rule="evenodd" clip-rule="evenodd" d="M101.663 117.716C101.664 118.796 101.451 119.866 101.038 120.864C100.625 121.862 100.019 122.769 99.2556 123.532C98.4919 124.296 97.5852 124.902 96.5872 125.316C95.5893 125.729 94.5197 125.942 93.4395 125.942C92.3593 125.942 91.2897 125.729 90.2918 125.316C89.2938 124.902 88.3871 124.296 87.6234 123.532C86.8597 122.769 86.254 121.862 85.8409 120.864C85.4277 119.866 85.2152 118.796 85.2156 117.716C85.2152 116.635 85.4277 115.566 85.8409 114.568C86.254 113.57 86.8597 112.663 87.6234 111.899C88.3871 111.135 89.2938 110.529 90.2918 110.116C91.2897 109.702 92.3593 109.489 93.4395 109.489C94.5197 109.489 95.5893 109.702 96.5872 110.116C97.5852 110.529 98.4919 111.135 99.2556 111.899C100.019 112.663 100.625 113.57 101.038 114.568C101.451 115.566 101.664 116.635 101.663 117.716Z" fill="#2E3436" stroke="black" stroke-width="6.58333" stroke-miterlimit="10"/>
<path opacity="0.280899" fill-rule="evenodd" clip-rule="evenodd" d="M44.2452 115.241C41.5612 117.251 40.1466 120.653 40.274 125.268C40.4015 129.884 42.223 135.535 45.9617 140.527C49.7003 145.518 54.6111 148.855 59.0045 150.276C63.398 151.696 67.0598 151.295 69.7439 149.285C72.4279 147.275 73.8476 143.711 73.7414 139.074C73.6352 134.437 71.863 128.902 68.1324 123.921C64.4019 118.94 59.5882 115.683 55.1683 114.277C50.7484 112.871 46.9292 113.231 44.2452 115.241Z" stroke="url(#linearGradient3)" stroke-width="6.58333" stroke-miterlimit="10"/>
<path fill-rule="evenodd" clip-rule="evenodd" d="M56.6313 122.983C56.6315 124.153 56.4396 125.312 56.0665 126.394C55.6934 127.475 55.1464 128.458 54.4568 129.286C53.7672 130.113 52.9484 130.77 52.0473 131.218C51.1462 131.666 50.1804 131.896 49.205 131.896C48.2296 131.896 47.2638 131.666 46.3627 131.218C45.4616 130.77 44.6428 130.113 43.9532 129.286C43.2636 128.458 42.7166 127.475 42.3435 126.394C41.9704 125.312 41.7785 124.153 41.7787 122.983C41.7785 121.812 41.9704 120.653 42.3435 119.572C42.7166 118.49 43.2636 117.508 43.9532 116.68C44.6428 115.852 45.4616 115.196 46.3627 114.748C47.2638 114.3 48.2296 114.069 49.205 114.069C50.1804 114.069 51.1462 114.3 52.0473 114.748C52.9484 115.196 53.7672 115.852 54.4568 116.68C55.1464 117.508 55.6934 118.49 56.0665 119.572C56.4396 120.653 56.6315 121.812 56.6313 122.983Z" fill="white"/>
<path fill-rule="evenodd" clip-rule="evenodd" d="M95.9699 113.92C95.9699 115.43 95.37 116.878 94.3023 117.946C93.2345 119.014 91.7864 119.613 90.2764 119.613C88.7664 119.613 87.3182 119.014 86.2505 117.946C85.1827 116.878 84.5829 115.43 84.5829 113.92C84.5829 112.41 85.1827 110.962 86.2505 109.894C87.3182 108.826 88.7664 108.226 90.2764 108.226C91.7864 108.226 93.2345 108.826 94.3023 109.894C95.37 110.962 95.9699 112.41 95.9699 113.92Z" fill="white"/>
<path fill-rule="evenodd" clip-rule="evenodd" d="M144.771 117.042C144.772 119.675 144.254 122.283 143.246 124.717C142.239 127.15 140.762 129.361 138.9 131.223C137.038 133.086 134.828 134.563 132.395 135.571C129.962 136.579 127.354 137.098 124.72 137.098C122.087 137.098 119.479 136.579 117.046 135.571C114.613 134.563 112.402 133.086 110.54 131.223C108.678 129.361 107.202 127.15 106.194 124.717C105.187 122.283 104.669 119.675 104.669 117.042C104.669 114.408 105.187 111.8 106.194 109.367C107.202 106.934 108.678 104.723 110.54 102.86C112.402 100.998 114.613 99.5206 117.046 98.5126C119.479 97.5046 122.087 96.9858 124.72 96.9858C127.354 96.9858 129.962 97.5046 132.395 98.5126C134.828 99.5206 137.038 100.998 138.9 102.86C140.762 104.723 142.239 106.934 143.246 109.367C144.254 111.8 144.772 114.408 144.771 117.042Z" fill="url(#radialGradient5)" stroke="#888A85" stroke-width="6.58333" stroke-miterlimit="10"/>
<path fill-rule="evenodd" clip-rule="evenodd" d="M139.063 120.012C139.064 121.28 138.814 122.536 138.329 123.708C137.844 124.879 137.133 125.944 136.237 126.841C135.34 127.737 134.276 128.449 133.104 128.934C131.933 129.42 130.677 129.669 129.409 129.669C128.141 129.669 126.885 129.42 125.714 128.934C124.542 128.449 123.478 127.737 122.581 126.841C121.685 125.944 120.974 124.879 120.489 123.708C120.004 122.536 119.754 121.28 119.755 120.012C119.754 118.744 120.004 117.489 120.489 116.317C120.974 115.145 121.685 114.081 122.581 113.184C123.478 112.287 124.542 111.576 125.714 111.09C126.885 110.605 128.141 110.355 129.409 110.355C130.677 110.355 131.933 110.605 133.104 111.09C134.276 111.576 135.34 112.287 136.237 113.184C137.133 114.081 137.844 115.145 138.329 116.317C138.814 117.489 139.064 118.744 139.063 120.012Z" fill="#2E3436" stroke="black" stroke-width="6.58333" stroke-miterlimit="10"/>
<path fill-rule="evenodd" clip-rule="evenodd" d="M132.379 115.557C132.379 117.329 131.675 119.029 130.422 120.283C129.168 121.536 127.468 122.24 125.696 122.24C123.923 122.24 122.223 121.536 120.97 120.283C119.716 119.029 119.012 117.329 119.012 115.557C119.012 113.784 119.716 112.084 120.97 110.83C122.223 109.577 123.923 108.873 125.696 108.873C127.468 108.873 129.168 109.577 130.422 110.83C131.675 112.084 132.379 113.784 132.379 115.557Z" fill="white"/>
<path d="M185.824 176.924L189.716 169.173C175.238 158.581 148.55 150.874 148.55 150.874C143.923 148.72 142.464 152.875 145.667 155.577C145.667 155.577 168.491 171.94 185.824 176.924Z" fill="url(#linearGradient4)" stroke="#673907" stroke-width="6.58334" stroke-linecap="round"/>
<path d="M204.385 184.067L206.469 179.455L190.305 169.1L189.017 168.99L188.459 167.207C186.111 168.677 182.699 174.139 183.604 177.21L185.35 176.55L186.296 177.464L204.385 184.067Z" fill="url(#linearGradient5)" stroke="#888A85" stroke-width="6.58334" stroke-linecap="round"/>
<path d="M193.911 175.32L204.642 179.927" stroke="white" stroke-width="6.58334" stroke-linecap="round" stroke-linejoin="round"/>
<path d="M227.876 203.653C222.837 186.548 221.05 172.967 207.881 174.175C197.269 175.149 196.526 190.355 207.492 194.55C218.056 198.592 227.876 203.653 227.876 203.653Z" fill="url(#radialGradient6)"/>
<path opacity="0.527778" d="M208.67 175.561C209.227 175.397 209.81 175.344 210.387 175.405C210.964 175.467 211.523 175.641 212.033 175.919C212.542 176.196 212.992 176.571 213.357 177.023C213.721 177.474 213.993 177.993 214.157 178.55C214.321 179.106 214.374 179.69 214.312 180.267C214.251 180.844 214.076 181.403 213.799 181.912C213.521 182.422 213.145 182.872 212.694 183.236C212.242 183.6 211.723 183.872 211.167 184.036C210.61 184.2 210.027 184.253 209.45 184.192C208.873 184.13 208.314 183.956 207.804 183.678C207.295 183.401 206.845 183.025 206.48 182.574C206.116 182.123 205.844 181.604 205.68 181.047C205.516 180.491 205.463 179.907 205.525 179.33C205.586 178.753 205.761 178.194 206.038 177.685C206.316 177.175 206.691 176.725 207.143 176.361C207.595 175.996 208.113 175.725 208.67 175.561Z" fill="white"/>
<path d="M189.408 169.274C189.783 169.164 190.177 169.128 190.566 169.169C190.956 169.211 191.333 169.329 191.677 169.516C192.021 169.703 192.324 169.956 192.57 170.261C192.816 170.565 193 170.916 193.11 171.291C193.221 171.667 193.256 172.06 193.215 172.45C193.173 172.839 193.056 173.216 192.868 173.56C192.681 173.904 192.428 174.207 192.123 174.453C191.818 174.699 191.468 174.883 191.092 174.993C190.717 175.104 190.323 175.139 189.934 175.098C189.545 175.057 189.167 174.939 188.823 174.752C188.48 174.564 188.176 174.311 187.93 174.007C187.684 173.702 187.501 173.352 187.39 172.976C187.279 172.601 187.244 172.207 187.285 171.818C187.327 171.428 187.445 171.051 187.632 170.707C187.819 170.364 188.073 170.06 188.377 169.814C188.682 169.568 189.032 169.385 189.408 169.274Z" fill="white"/>
<path opacity="0.427778" d="M221.549 193.418C221.549 193.418 219.908 187.277 216.285 184.081C215.004 182.951 216.619 181.285 217.828 182.748C220.44 185.907 221.549 193.418 221.549 193.418Z" fill="url(#linearGradient6)"/>
<path fill-rule="evenodd" clip-rule="evenodd" d="M128.759 158.629C135.05 159.23 140.73 157.485 143.092 156.638C143.505 154.304 145.346 149.827 151.688 149.532L149.46 145.633C149.46 145.633 141.198 151.296 132.38 152.966L128.759 158.629Z" fill="url(#linearGradient7)"/>
<radialGradient id="radialGradient1" cx="0" cy="0" r="1" gradientUnits="userSpaceOnUse" gradientTransform="translate(129.271 159.473) scale(76.6673 33.3451)">
<stop/>
<stop offset="1" stop-opacity="0"/>
</radialGradient>
<radialGradient id="radialGradient2" cx="0" cy="0" r="1" gradientUnits="userSpaceOnUse" gradientTransform="translate(101.682 118.987) scale(143.204 104.747)">
<stop stop-color="#857C63"/>
<stop offset="1" stop-color="#221F19"/>
</radialGradient>
<radialGradient id="radialGradient3" cx="0" cy="0" r="1" gradientUnits="userSpaceOnUse" gradientTransform="translate(89.4454 103.166) scale(24.8796 24.8796)">
<stop stop-color="white"/>
<stop offset="1" stop-color="#B9B9B0"/>
</radialGradient>
<radialGradient id="radialGradient4" cx="0" cy="0" r="1" gradientUnits="userSpaceOnUse" gradientTransform="translate(50.9186 123.339) rotate(-30) scale(18.6893 21.8135)">
<stop stop-color="#5B676B"/>
<stop offset="1" stop-color="#141718"/>
</radialGradient>
<radialGradient id="radialGradient5" cx="0" cy="0" r="1" gradientUnits="userSpaceOnUse" gradientTransform="translate(124.72 102.932) scale(29.2065 29.2064)">
<stop stop-color="white"/>
<stop offset="1" stop-color="#B9B9B0"/>
</radialGradient>
<radialGradient id="radialGradient6" cx="0" cy="0" r="1" gradientUnits="userSpaceOnUse" gradientTransform="translate(204.738 185.163) rotate(-106.415) scale(20.3515 19.8332)">
<stop stop-color="#696969"/>
<stop offset="1"/>
</radialGradient>
<linearGradient id="linearGradient1" x1="151.909" y1="144.736" x2="105.123" y2="154.018" gradientUnits="userSpaceOnUse">
<stop/>
<stop offset="1" stop-opacity="0"/>
</linearGradient>
<linearGradient id="linearGradient2" x1="95.0074" y1="105.588" x2="198.165" y2="222.69" gradientUnits="userSpaceOnUse">
<stop stop-color="white"/>
<stop offset="1" stop-color="white" stop-opacity="0"/>
</linearGradient>
<linearGradient id="linearGradient3" x1="47.9936" y1="118.764" x2="67.5858" y2="147.168" gradientUnits="userSpaceOnUse">
<stop stop-color="white"/>
<stop offset="1" stop-color="white" stop-opacity="0"/>
</linearGradient>
<linearGradient id="linearGradient4" x1="176.466" y1="159.964" x2="167.739" y2="179.024" gradientUnits="userSpaceOnUse">
<stop stop-color="#6E3D09"/>
<stop offset="0.242424" stop-color="#EA8113"/>
<stop offset="0.621212" stop-color="#5C3307"/>
<stop offset="1" stop-color="#E07C12"/>
</linearGradient>
<linearGradient id="linearGradient5" x1="195.168" y1="180.664" x2="199.005" y2="172.922" gradientUnits="userSpaceOnUse">
<stop stop-color="#BDBDBD"/>
<stop offset="0.333333" stop-color="#E2E2E2"/>
<stop offset="0.666667" stop-color="#A3A3A3"/>
<stop offset="1" stop-color="#DDDDDD"/>
</linearGradient>
<linearGradient id="linearGradient6" x1="216.786" y1="181.099" x2="221.701" y2="190.209" gradientUnits="userSpaceOnUse">
<stop stop-color="white"/>
<stop offset="1" stop-color="white" stop-opacity="0"/>
</linearGradient>
<linearGradient id="linearGradient7" x1="142.034" y1="153.616" x2="134.329" y2="155.473" gradientUnits="userSpaceOnUse">
<stop/>
<stop offset="1" stop-opacity="0"/>
</linearGradient>
</svg>