<svg width="256" height="256" title="Gin" viewBox="0 0 256 256" fill="none" xmlns="http://www.w3.org/2000/svg" id="gin">
<style>
#gin {
    rect {fill: #15191C}

    @media (prefers-color-scheme: light) {
        rect {fill: #F4F2ED}
    }
}
</style>
<rect width="256" height="256" rx="40" fill="#15191C"/>
<path d="M194.747 79.6314C187.19 108.759 167.755 125.587 136.039 131.264C109.046 122.951 109.046 125.384 104.525 118.221C132.125 97.2026 158.51 69.6293 170.994 37.6631C183.411 51.3147 187.392 54.1531 194.747 79.6314Z" fill="#F4F2ED"/>
<path d="M127.384 222.884C111.66 222.212 100.727 220.116 92.0017 216.107C90.7282 215.522 90.9193 215.914 89.5456 211.071C87.1534 202.638 85.3351 194.999 83.3872 185.194C82.3998 180.224 81.9373 178.146 79.6569 168.434C75.565 151.006 74.0109 142.992 73.1167 134.71C72.8902 132.613 73.298 129.745 73.9385 128.929C74.3178 128.447 74.3254 127.214 73.9499 127.116C73.7307 127.058 73.6764 126.873 73.5963 125.91C73.5298 125.11 73.4262 124.675 73.2478 124.448C73.0758 124.229 72.9941 123.906 72.9941 123.445C72.9941 123.071 72.9333 122.727 72.8591 122.681C72.778 122.631 72.7241 121.713 72.7241 120.383C72.7241 119.053 72.6703 118.135 72.5892 118.086C72.515 118.04 72.4542 118.124 72.4542 118.272C72.4542 119.938 71.2586 116.904 70.5618 113.469C68.7733 104.654 65.838 95.8944 66.5133 101.387C66.7508 103.32 67.1886 105.22 68.4454 109.773C69.9219 115.122 70.5944 118.909 70.2942 120.183C69.8651 122.003 67.0922 111.071 65.4941 101.258C65.0886 98.7671 64.4796 95.0265 64.1408 92.945C63.3839 88.2939 62.6799 84.8012 61.718 80.9248C60.7551 77.0448 60.7824 76.4155 61.9789 74.8893C64.4454 71.7437 71.6831 69.298 72.4655 71.346C73.0017 72.7497 71.4213 73.7222 67.1232 74.6329C63.3981 75.4221 63.0535 75.9866 65.0758 77.9866C67.0975 79.9862 78.8241 81.7734 92.6986 82.1966C117.272 82.9458 132.851 83.143 137.237 82.7604C138.313 82.6666 139.843 82.5543 140.637 82.5109C142.081 82.4322 142.081 82.4322 142.015 82.0794C141.965 81.812 142.08 81.5624 142.489 81.0506C142.786 80.6789 143.229 80.1011 143.474 79.7665C144.306 78.6286 145.705 78.1949 146.285 78.8947C147.01 79.7701 146.369 81.7963 145.17 82.417C144.617 82.7037 144.776 82.792 146.053 82.9074C146.66 82.9621 147.504 83.0437 147.929 83.0886C149.215 83.2245 150.195 82.7593 149.655 82.2694C148.465 81.1905 150.705 79.0144 154.174 77.8796C154.693 77.7095 155.176 77.5172 155.247 77.452C155.318 77.3869 155.471 77.3337 155.589 77.3337C156.031 77.3337 157.297 76.3507 158.706 74.9145C159.507 74.0972 160.406 73.274 160.705 73.0852C161.003 72.8965 161.313 72.6194 161.394 72.4696C161.636 72.0155 161.163 72.1378 160.112 72.8012C159.593 73.1292 158.864 73.5834 158.493 73.8106C157.722 74.2822 156.007 75.4208 154.358 76.5562C153.737 76.9836 153.078 77.4362 152.892 77.5622C152.707 77.688 152.444 77.8836 152.309 77.9968C152.011 78.2474 150.626 78.3075 149.855 78.1034C147.854 77.5733 147.71 75.8136 149.418 72.7577C150.166 71.4197 152.227 68.6832 152.487 68.6832C152.551 68.6832 152.776 68.4292 152.984 68.1187C153.363 67.557 153.602 67.3755 154.806 66.7394C155.673 66.2818 156.179 66.2321 156.315 66.591C156.398 66.8041 155.791 68.1419 155.107 69.2557C153.674 71.5904 153.549 71.8279 153.682 71.962C153.874 72.1535 155.333 71.2767 155.549 70.8404C155.64 70.6575 155.883 70.1446 156.088 69.7004C157.48 66.6963 160.812 66.4006 162.861 69.099C163.402 69.8123 163.553 69.8931 163.556 69.4716C163.566 68.1525 165.4 67.0701 167.636 67.0635C168.564 67.0607 168.625 66.9087 167.822 66.6016C166.724 66.1817 166.661 65.9718 167.385 65.1432C168.388 63.9947 167.912 63.7716 166.006 64.4968C164.167 65.1965 162.38 65.5753 161.158 65.5244C160.509 65.4974 159.832 65.5299 159.653 65.5968C159.475 65.6636 158.999 65.7465 158.595 65.7809C158.192 65.8152 157.813 65.8738 157.753 65.911C157.693 65.9482 157.349 65.9383 156.988 65.889C154.986 65.6151 155.171 63.8759 157.68 59.4245C158.015 58.8297 158.477 57.9479 158.707 57.4646C158.938 56.9814 159.873 55.0654 160.786 53.2069C161.698 51.3484 162.696 49.2805 163.003 48.6114C163.31 47.9423 163.711 47.106 163.894 46.7528C164.079 46.3996 164.229 46.0496 164.229 45.9749C164.229 45.9003 164.384 45.5201 164.574 45.1303C165.801 42.6134 167.758 36.4006 167.52 35.7784C167.471 35.6522 167.512 35.5682 167.621 35.5682C167.721 35.5682 168.107 35.3653 168.479 35.1176C168.85 34.8697 169.32 34.5652 169.522 34.4409C169.824 34.2555 169.876 34.1461 169.814 33.8324C169.466 32.089 172.68 33.2034 176.679 36.2124C182.562 40.6387 187.785 48.1183 192.149 58.3676C196.028 67.4767 197.045 82.9252 194.53 94.4994C192.767 102.614 191.567 115.066 190.278 138.63C189.457 153.633 188.988 160.403 188.311 167.014C188.128 168.799 187.889 171.474 187.779 172.962C187.23 180.427 186.402 187.356 184.993 196.278C184.511 199.326 184.444 200.043 184.407 202.495C184.268 211.737 180.886 216.987 174.47 217.911C173.847 218.002 172.549 218.307 171.584 218.592C163.763 220.891 155.417 222.111 143.984 222.625C134.712 223.042 132.031 223.084 127.384 222.884ZM95.5322 208.904C93.8672 202.105 92.8931 198.878 91.7219 196.278C90.4683 193.493 90.1833 193.126 90.3383 194.486C91.0501 200.744 92.7655 206.55 95.5576 212.146C97.0299 215.098 97.0292 215.017 95.5322 208.904ZM92.6135 213.41C93.0995 211.593 92.3224 207.773 90.0595 200.855C88.7687 196.91 87.8174 193.478 87.6384 192.121C87.5209 191.232 87.3989 191.156 86.8937 191.663C86.0833 192.474 86.3285 194.154 88.1534 200.297C88.6445 201.95 89.1158 203.836 89.2008 204.487C89.7002 208.315 92.2163 214.894 92.6135 213.41ZM138.377 193.28C140.839 191.647 140.516 186.884 137.84 185.367C135.43 184 134.136 186.978 135.159 191.536C135.618 193.581 136.887 194.269 138.377 193.28ZM131.118 192.92C132.953 191.978 133.563 188.831 132.413 186.236C131.278 183.678 129.003 184.973 128.593 188.412C128.533 188.909 128.394 189.9 128.281 190.614C127.881 193.173 128.943 194.036 131.118 192.92ZM86.4312 188.216C86.7255 185.856 86.115 182.446 84.1396 175.42C83.5793 173.427 82.9332 170.841 82.7039 169.676C81.954 165.863 80.8189 164.005 81.367 167.487C81.6332 169.178 83.1357 176.894 83.4595 178.233C83.6393 178.976 83.943 180.851 84.1345 182.4C84.6111 186.256 85.0293 187.783 85.8516 188.674C86.2592 189.115 86.3255 189.063 86.4312 188.216ZM117.666 175.174C127.947 172.814 131.262 159.939 123.148 153.885C117.916 149.981 114.639 149.698 106.464 152.44C104.795 153.001 103.291 153.546 103.124 153.651C102.528 154.027 101.606 155.358 101.606 155.843C101.606 156.092 101.368 156.888 101.076 157.612C97.2149 167.203 107.046 177.611 117.666 175.174ZM104.643 167.805C100.599 167.201 99.727 163.752 102.822 160.603C105.071 158.317 107.689 158.118 109.611 160.09C113.415 163.991 110.404 168.667 104.643 167.805ZM155.92 173.278C162.981 172.09 167.409 163.959 164.497 157.528C157.679 142.467 133.19 149.702 138.56 165.191C140.857 171.813 147.164 174.751 155.92 173.278ZM142.163 167.028C139.015 166.251 137.993 163.371 139.681 160.024C141.789 155.841 146.301 155.89 148.527 160.122C149.872 162.677 149.567 163.528 147.387 163.308C145.426 163.11 144.783 163.391 145.741 164.027C146.439 164.489 147.333 165.295 147.505 165.618C148.044 166.625 144.415 167.583 142.163 167.028ZM108.977 111.147C109.505 111.07 109.88 110.888 110.565 110.376C111.058 110.007 111.841 109.427 112.304 109.087C116.478 106.019 117.821 104.943 119.353 103.441C119.874 102.932 121.391 101.56 122.728 100.393C124.064 99.2255 125.406 98.0453 125.711 97.7704C126.017 97.4953 126.563 97.0067 126.926 96.6847C128.066 95.6742 130.084 93.8268 131.635 92.3735C133.457 90.6676 137.393 86.6804 137.366 86.5692C137.3 86.304 136.139 86.082 134.74 86.0674C133.286 86.0519 133.255 86.045 133.266 85.7445C133.281 85.3366 133.298 85.3388 129.341 85.2473C97.6897 84.5154 76.4812 83.4224 65.0185 81.9323C63.6835 81.7588 63.5467 81.7629 63.5467 81.9777C63.5467 82.3536 64.6395 83.3931 65.5032 83.839C66.5901 84.4001 66.6064 84.646 65.5695 84.8352C64.4579 85.0381 64.4914 84.9065 64.9279 87.3525C66.6787 97.1648 69.2527 99.3861 74.6867 95.7738C77.8118 93.6964 97.8375 91.5446 111.053 91.8662C113.322 91.9214 114.886 91.8979 115.642 91.797C116.274 91.7129 117.135 91.6122 117.558 91.5732C117.981 91.5343 118.399 91.4164 118.486 91.3113C118.573 91.2062 118.876 91.1203 119.159 91.1203C119.442 91.1203 119.844 91.0499 120.054 90.9639C121.484 90.3754 132.378 90.1494 132.378 90.7083C132.378 90.8063 131.817 91.3415 130.517 92.4846C130.213 92.7517 128.64 93.9676 127.02 95.1865C124.566 97.0348 122.926 98.3107 122.188 98.9475C122.114 99.0114 121.302 99.8642 120.384 100.842C116.609 104.866 112.667 107.634 109.279 108.642C108.806 108.783 108.614 108.921 108.506 109.2C108.323 109.669 107.734 110.718 107.55 110.903C107.242 111.211 107.393 111.429 107.848 111.336C108.089 111.288 108.598 111.202 108.977 111.147ZM115.44 109.908C115.49 109.826 116.514 109.773 118.058 109.773C121.05 109.773 123.47 109.643 123.47 109.482C123.47 109.419 123.383 109.368 123.277 109.368C122.703 109.368 122.523 108.695 122.885 107.901C123.336 106.916 123.755 106.442 128.353 101.731C130.167 99.8721 131.896 98.0474 132.197 97.6757C134.793 94.46 136.885 91.3998 136.65 91.1642C136.549 91.0627 134.557 92.93 134.252 93.4118C134.133 93.6011 133.555 94.2305 132.97 94.8107C131.822 95.948 131.755 96.0221 129.603 98.5543C128.813 99.4835 127.994 100.426 127.784 100.649C127.574 100.872 127.102 101.389 126.735 101.798C125.528 103.143 123.314 105.292 122.323 106.077C120.098 107.841 116.661 109.58 115.575 109.491C115.209 109.461 114.427 109.649 114.427 109.767C114.427 110.052 115.278 110.17 115.44 109.908ZM146.397 109.376C146.568 109.117 146.713 109.097 148.421 109.095C150.927 109.092 152.269 108.57 151.338 107.959C151.148 107.834 151.002 107.609 151.001 107.438C150.996 106.391 150.224 105.526 149.796 106.089C148.553 107.729 148.321 107.971 147.694 108.286C143.624 110.329 141.207 105.631 143.242 99.6325C144.997 94.4588 145.138 93.9909 145.553 91.9313C145.753 90.9336 145.567 88.9722 145.267 88.9215C144.633 88.8141 141.705 98.0985 140.481 104.096C139.954 106.678 139.943 106.705 139.232 107.156C136.735 108.74 135.734 108.008 136.522 105.177C136.77 104.291 137.561 102.097 137.923 101.293C138.065 100.978 138.181 100.685 138.181 100.643C138.181 100.601 138.306 100.281 138.458 99.9323C140.234 95.8674 140.652 94.3861 140.07 94.2181C138.393 93.7339 136.087 95.0248 135.08 97.0118C134.97 97.2283 134.744 97.6304 134.576 97.9056C134.196 98.5319 133.533 99.7628 132.406 101.933C130.871 104.892 130.533 105.456 129.499 106.781C128.402 108.188 127.262 108.875 125.427 109.237C124.115 109.495 124.138 109.561 125.562 109.654C129.263 109.895 146.203 109.668 146.397 109.376ZM131.191 108.685C130.612 108.453 130.317 107.244 130.638 106.434C131.275 104.833 132.13 103.501 135.089 99.5004C135.721 98.6455 136.469 97.5962 136.751 97.1689C138.252 94.8896 138.476 98.918 137.035 102.271C135.495 105.854 132.967 108.913 131.623 108.818C131.556 108.814 131.361 108.753 131.191 108.685ZM167.035 108.14C167.786 108.057 168.436 107.913 168.558 107.802C168.706 107.67 169.11 107.611 169.866 107.611C170.468 107.611 170.999 107.55 171.045 107.475C171.091 107.401 171.239 107.34 171.374 107.34C171.599 107.34 171.863 106.831 171.715 106.682C171.681 106.648 171.334 106.692 170.944 106.78C170.254 106.933 169.662 107.025 168.412 107.17C166.755 107.363 162.133 107.233 160.861 106.959C160.414 106.863 160.389 106.824 160.246 106.034C159.988 104.608 159.235 103.939 158.269 104.278C157.314 104.613 157.259 104.789 158.019 105.093C158.57 105.314 159.1 105.751 159.1 105.983C159.1 106.231 158.262 107.07 158.014 107.07C157.878 107.07 157.733 107.124 157.691 107.192C157.6 107.339 156.013 107.832 155.22 107.959C153.729 108.197 155.085 108.286 160.186 108.286C163.247 108.286 166.31 108.22 167.035 108.14ZM175.806 100.79C176.532 100.666 177.32 99.9678 177.32 99.4463C177.32 99.0563 177.013 98.8503 176.745 99.0603C176.578 99.1911 175.543 99.4641 175.161 99.4784C175.05 99.4824 174.702 99.5273 174.389 99.578C172.319 99.9127 166.56 98.0847 163.867 96.2378C163.557 96.0251 163.267 95.8511 163.225 95.8511C163.099 95.8511 161.766 94.9024 161.361 94.5247C159.965 93.2225 162.575 93.0966 165.983 94.3017C168.139 95.0636 168.422 95.1735 169 95.4729C169.894 95.9348 169.997 95.9798 170.95 96.317C173.143 97.0938 173.325 96.9083 171.584 95.6701C168.993 93.8263 166.235 92.684 165.201 93.0256C164.08 93.3962 161.52 92.7272 159.1 91.432C154.768 89.1122 153.128 88.6914 154.606 90.2785C156.587 92.4053 159.155 94.7782 160.775 95.9771C161.781 96.7224 163.154 97.6622 163.419 97.7867C163.53 97.839 163.895 98.0409 164.229 98.2353C165.008 98.6884 167.585 99.8482 168.244 100.042C169.532 100.421 170.176 100.573 170.853 100.659C171.255 100.71 171.658 100.791 171.749 100.839C171.966 100.954 175.065 100.916 175.806 100.79ZM159.91 80.8917C160.244 80.8633 160.79 80.8125 161.125 80.7787C161.774 80.7128 163.778 80.307 165.107 79.9721C165.552 79.86 167.465 79.556 169.357 79.2969C176.355 78.3387 178.426 77.5573 180.165 75.2188C180.926 74.1946 180.93 74.0632 180.227 72.6987C178.82 69.9682 180.297 69.1269 183.596 70.7792C184.752 71.3586 184.743 71.3585 184.743 70.7861C184.743 70.2668 184.64 70.169 183.943 70.0259C180.152 69.2466 178.4 66.3753 180.39 64.2024C180.749 63.812 180.72 63.3827 180.209 61.5533C179.985 60.7476 179.855 60.7014 179.203 61.1949C178.947 61.3881 178.474 61.6617 178.153 61.8029C177.568 62.0598 177.568 62.0598 178.166 62.6584C180.071 64.5669 177.662 66.9291 173.541 67.1921C170.842 67.3644 170.608 67.4476 171.83 67.8032C173.893 68.404 174.201 69.69 172.483 70.5268C170.882 71.3061 170.954 71.3656 172.944 70.911C176.135 70.1822 178.59 70.2884 178.899 71.1691C179.75 73.595 178.092 76.0804 174.756 77.3792C173.958 77.6899 173.48 77.8354 171.854 78.2626C171.032 78.4788 168.659 78.8421 168.581 78.7638C168.543 78.7258 168.411 78.7489 168.288 78.815C168.164 78.8812 167.58 78.9754 166.99 79.0242C163.534 79.3105 161.711 79.5517 157.855 80.2324C155.72 80.6093 155.456 80.6783 155.456 80.8577C155.456 80.9889 158.105 81.1066 158.83 81.0076C159.09 80.9724 159.576 80.92 159.91 80.8917ZM171.428 61.6812C171.959 61.3247 173.093 60.57 173.947 60.0041C176.645 58.2167 178.483 56.2907 178.865 54.8475C178.967 54.4656 179.09 54.0541 179.138 53.9331C179.286 53.5625 178.789 52.2227 178.612 52.5155C177.797 53.8618 177.183 54.6322 175.974 55.8287C173.966 57.8144 173.235 58.5024 172.992 58.634C172.59 58.8509 170.415 61.3175 170.223 61.7725C169.846 62.6696 169.968 62.6604 171.428 61.6812ZM75.1535 71.6762C75.1535 71.5383 75.3569 71.158 75.6055 70.8315C76.2297 70.0114 76.5032 69.4438 76.5032 68.9681C76.5032 68.4397 76.3232 68.5077 79.5555 67.816C86.7874 66.2683 89.885 65.8706 95.4212 65.7786C124.624 65.2928 133.195 65.0246 142.477 64.3053C144.838 64.1224 144.835 64.1211 145.483 65.1452C146.885 67.359 142.916 68.814 136.764 68.3418C136.17 68.2961 133.346 68.2412 130.488 68.2197C125.292 68.1805 125.292 68.1805 122.47 67.6115C118.351 66.7807 117.145 66.829 115.959 67.8716C115.404 68.3608 115.581 68.359 114.248 67.8884C110.878 66.6987 106.708 66.6259 99.9867 67.6392C97.7227 67.9806 95.0808 68.3269 94.1157 68.4088C89.102 68.8346 84.4001 69.7048 78.3685 71.323C75.8609 71.9959 75.1535 72.0736 75.1535 71.6762Z" fill="#F3D71D"/>
<path d="M127.384 222.884C111.66 222.212 100.727 220.116 92.0017 216.107C90.7282 215.522 90.9193 215.914 89.5456 211.071C87.1534 202.638 85.3351 194.999 83.3872 185.194C82.3998 180.224 81.9373 178.146 79.6569 168.434C75.565 151.006 74.0109 142.992 73.1167 134.71C72.8902 132.613 73.298 129.745 73.9385 128.929C74.3178 128.447 74.3254 127.214 73.9499 127.116C73.7307 127.058 73.6764 126.873 73.5963 125.91C73.5298 125.11 73.4262 124.675 73.2478 124.448C73.0758 124.229 72.9941 123.906 72.9941 123.445C72.9941 123.071 72.9333 122.727 72.8591 122.681C72.778 122.631 72.7241 121.713 72.7241 120.383C72.7241 119.053 72.6703 118.135 72.5892 118.086C72.515 118.04 72.4542 118.124 72.4542 118.272C72.4542 119.938 71.2586 116.904 70.5618 113.469C68.7733 104.654 65.838 95.8944 66.5133 101.387C66.7508 103.32 67.1886 105.22 68.4454 109.773C69.9219 115.122 70.5944 118.909 70.2942 120.183C69.8651 122.003 67.0922 111.071 65.4941 101.258C65.0886 98.7671 64.4796 95.0265 64.1408 92.945C63.3839 88.2939 62.6799 84.8012 61.718 80.9248C60.7551 77.0448 60.7824 76.4155 61.9789 74.8893C64.4454 71.7437 71.6831 69.298 72.4655 71.346C73.0017 72.7497 71.4213 73.7222 67.1232 74.6329C63.3981 75.4221 63.0535 75.9866 65.0758 77.9866C67.0975 79.9862 78.8241 81.7734 92.6986 82.1966C117.272 82.9458 132.851 83.143 137.237 82.7604C138.313 82.6666 139.843 82.5543 140.637 82.5109C142.081 82.4322 142.081 82.4322 142.015 82.0794C141.965 81.812 142.08 81.5624 142.489 81.0506C142.786 80.6789 143.229 80.1011 143.474 79.7665C144.358 78.5576 145.775 78.1797 146.348 78.9996C146.728 79.5423 146.552 79.6974 146.134 79.1891C145.47 78.3822 144.463 78.7055 143.512 80.0313C143.29 80.3418 142.91 80.8407 142.669 81.1401C141.729 82.3057 142.582 83.1316 144.233 82.6551C145.401 82.3184 146.414 81.1225 146.414 80.0818C146.414 79.8345 146.459 79.7574 146.55 79.8481C146.934 80.2333 145.989 81.9931 145.17 82.417C144.617 82.7037 144.776 82.792 146.053 82.9074C146.66 82.9621 147.504 83.0437 147.929 83.0886C149.215 83.2245 150.195 82.7593 149.655 82.2694C148.465 81.1905 150.705 79.0144 154.174 77.8796C154.693 77.7095 155.176 77.5172 155.247 77.452C155.318 77.3869 155.471 77.3337 155.589 77.3337C156.031 77.3337 157.297 76.3512 158.701 74.9191C160.134 73.4568 160.795 72.9028 160.935 73.0439C160.975 73.0836 160.775 73.2874 160.492 73.4966C158.398 75.0435 158.311 75.6389 160.333 74.5865C163.272 73.057 164.497 72.7428 163.545 73.7625C162.323 75.0721 158.285 77.0037 157.795 76.513C157.692 76.4103 157.437 76.5055 156.911 76.8417C156.505 77.102 155.571 77.5262 154.836 77.7843C152.313 78.6698 151.657 79.0391 150.195 80.394C145.521 84.7283 170.63 82.9243 184.424 77.9348C186.738 77.0979 187.18 76.5985 186.994 75.03C186.675 72.3339 181.408 68.9732 179.958 70.5403C179.611 70.9136 179.47 70.8102 179.784 70.4133C180.322 69.7304 181.781 69.8702 183.596 70.7792C184.752 71.3586 184.743 71.3585 184.743 70.7861C184.743 70.283 184.483 70.0432 183.908 70.0248C183.605 70.0151 182.401 69.5242 182.63 69.5042C182.693 69.4986 183.081 69.592 183.491 69.7114C186.41 70.561 187.493 69.0943 186.092 66.1926C185.946 65.8897 185.526 64.4559 185.159 63.0063C183.235 55.4004 179.328 47.1925 177.632 47.1922C177.231 47.1922 177.239 47.2116 176.57 44.6239C175.422 40.1829 174.576 38.5486 172.939 37.6159C169.381 35.5891 168.511 31.905 171.921 33.3127C179.241 36.3338 186.703 45.5761 192.149 58.3676C196.028 67.4767 197.045 82.9252 194.53 94.4994C192.767 102.614 191.567 115.066 190.278 138.63C189.457 153.633 188.988 160.403 188.311 167.014C188.128 168.799 187.889 171.474 187.779 172.962C187.23 180.427 186.402 187.356 184.993 196.278C184.511 199.326 184.444 200.043 184.407 202.495C184.268 211.737 180.886 216.987 174.47 217.911C173.847 218.002 172.549 218.307 171.584 218.592C163.763 220.891 155.417 222.111 143.984 222.625C134.712 223.042 132.031 223.084 127.384 222.884ZM95.5322 208.904C93.8672 202.105 92.8931 198.878 91.7219 196.278C90.4683 193.493 90.1833 193.126 90.3383 194.486C91.0501 200.744 92.7655 206.55 95.5576 212.146C97.0299 215.098 97.0292 215.017 95.5322 208.904ZM92.6135 213.41C93.0995 211.593 92.3224 207.773 90.0595 200.855C88.7687 196.91 87.8174 193.478 87.6384 192.121C87.5209 191.232 87.3989 191.156 86.8937 191.663C86.0833 192.474 86.3285 194.154 88.1534 200.297C88.6445 201.95 89.1158 203.836 89.2008 204.487C89.7002 208.315 92.2163 214.894 92.6135 213.41ZM138.377 193.28C140.839 191.647 140.516 186.884 137.84 185.367C135.43 184 134.136 186.978 135.159 191.536C135.618 193.581 136.887 194.269 138.377 193.28ZM131.118 192.92C132.953 191.978 133.563 188.831 132.413 186.236C131.278 183.678 129.003 184.973 128.593 188.412C128.533 188.909 128.394 189.9 128.281 190.614C127.881 193.173 128.943 194.036 131.118 192.92ZM86.4312 188.216C86.7255 185.856 86.115 182.446 84.1396 175.42C83.5793 173.427 82.9332 170.841 82.7039 169.676C81.954 165.863 80.8189 164.005 81.367 167.487C81.6332 169.178 83.1357 176.894 83.4595 178.233C83.6393 178.976 83.943 180.851 84.1345 182.4C84.6111 186.256 85.0293 187.783 85.8516 188.674C86.2592 189.115 86.3255 189.063 86.4312 188.216ZM117.666 175.174C127.947 172.814 131.262 159.939 123.148 153.885C117.916 149.981 114.639 149.698 106.464 152.44C104.795 153.001 103.291 153.546 103.124 153.651C102.528 154.027 101.606 155.358 101.606 155.843C101.606 156.092 101.368 156.888 101.076 157.612C97.2149 167.203 107.046 177.611 117.666 175.174ZM104.643 167.805C100.599 167.201 99.727 163.752 102.822 160.603C105.071 158.317 107.689 158.118 109.611 160.09C113.415 163.991 110.404 168.667 104.643 167.805ZM155.92 173.278C162.981 172.09 167.409 163.959 164.497 157.528C157.679 142.467 133.19 149.702 138.56 165.191C140.857 171.813 147.164 174.751 155.92 173.278ZM142.163 167.028C139.015 166.251 137.993 163.371 139.681 160.024C141.789 155.841 146.301 155.89 148.527 160.122C149.872 162.677 149.567 163.528 147.387 163.308C145.426 163.11 144.783 163.391 145.741 164.027C146.439 164.489 147.333 165.295 147.505 165.618C148.044 166.625 144.415 167.583 142.163 167.028ZM108.977 111.147C109.505 111.07 109.88 110.888 110.565 110.376C111.054 110.008 111.803 109.449 112.231 109.136C114.587 107.417 116.614 105.873 117.33 105.252C118.258 104.447 118.477 104.299 118.477 104.477C118.477 104.547 118.127 104.888 117.7 105.235C117.274 105.583 116.819 105.954 116.69 106.06C116.331 106.355 113.801 108.242 112.35 109.296C110.796 110.427 110.777 110.489 112.032 110.4C113.807 110.274 114.177 110.183 114.086 109.894C113.993 109.601 114.545 109.316 115.026 109.408C115.245 109.45 115.209 109.484 114.861 109.567C114.617 109.626 114.44 109.742 114.466 109.825C114.534 110.03 115.235 110.1 115.415 109.918C115.51 109.825 116.458 109.773 118.078 109.773C121.052 109.773 123.47 109.643 123.47 109.482C123.47 109.419 123.383 109.368 123.277 109.368C123.061 109.368 122.66 109.01 122.66 108.817C122.66 108.748 122.782 108.813 122.93 108.962C123.122 109.154 123.38 109.232 123.822 109.232C124.298 109.232 124.427 109.277 124.372 109.421C124.174 109.936 146.048 109.892 146.397 109.376C146.567 109.123 146.725 109.097 148.421 109.095C150.927 109.092 152.269 108.57 151.338 107.959C151.148 107.834 151.002 107.609 151.001 107.438C151.001 107.273 150.852 106.818 150.67 106.428C150.489 106.037 150.394 105.718 150.461 105.718C150.634 105.718 150.737 105.919 151.073 106.919C151.364 107.782 151.389 107.812 151.963 107.96C152.538 108.107 152.543 108.113 152.149 108.179C151.927 108.215 152.292 108.247 152.959 108.248C153.812 108.25 154.033 108.22 153.702 108.151C153.442 108.096 153.271 108.044 153.32 108.033C153.371 108.023 153.885 107.95 154.462 107.869C156.285 107.616 157.59 107.133 157.641 106.695C157.679 106.362 157.735 106.326 158.221 106.326C159.163 106.326 158.929 105.419 157.939 105.234C157.447 105.141 157.138 104.864 157.275 104.641C157.409 104.425 158.153 104.071 158.333 104.139C158.424 104.174 158.376 104.239 158.223 104.292C157.375 104.585 157.316 104.811 158.013 105.09C158.569 105.313 159.1 105.75 159.1 105.983C159.1 106.231 158.262 107.07 158.014 107.07C157.878 107.07 157.733 107.124 157.691 107.192C157.6 107.339 156.013 107.832 155.22 107.959C153.729 108.197 155.085 108.286 160.186 108.286C165.823 108.286 168.172 108.151 168.558 107.802C168.706 107.67 169.11 107.611 169.866 107.611C170.468 107.611 170.999 107.55 171.045 107.475C171.091 107.401 171.239 107.34 171.374 107.34C171.599 107.34 171.863 106.831 171.715 106.682C171.681 106.648 171.334 106.688 170.944 106.77C169.524 107.068 169.357 107.089 169.357 106.974C169.357 106.91 169.791 106.778 170.321 106.68C175.031 105.806 178.645 103.165 180.16 99.4873C180.37 98.9768 180.981 97.752 181.517 96.7657C184.795 90.734 186.71 85.5218 186.221 83.9608C186.161 83.7726 186.078 83.4011 186.034 83.1353C185.882 82.2159 185.807 82.1855 184.203 82.3993C177.032 83.3547 163.097 84.7833 154.579 85.4361C148.597 85.8946 140.459 86.3864 138.818 86.3886C138.173 86.3894 138.173 86.3894 135.786 88.6809C132.8 91.5485 132.55 91.5606 135.402 88.6998C136.575 87.5223 137.484 86.5284 137.42 86.4911C136.984 86.2361 135.366 85.9825 134.381 86.0147C133.286 86.0505 133.255 86.0431 133.266 85.7445C133.281 85.3366 133.298 85.3388 129.341 85.2473C97.6897 84.5154 76.4812 83.4224 65.0185 81.9323C63.6835 81.7588 63.5467 81.7629 63.5467 81.9777C63.5467 82.3536 64.6395 83.3931 65.5032 83.839C66.5901 84.4001 66.6064 84.646 65.5695 84.8352C64.4579 85.0381 64.4914 84.9065 64.9279 87.3525C66.6787 97.1648 69.2527 99.3861 74.6867 95.7738C77.8118 93.6964 97.8375 91.5446 111.053 91.8662C113.322 91.9214 114.886 91.8979 115.642 91.797C116.274 91.7129 117.135 91.6122 117.558 91.5732C117.981 91.5343 118.399 91.4164 118.486 91.3113C118.573 91.2062 118.876 91.1203 119.159 91.1203C119.442 91.1203 119.844 91.0499 120.054 90.9639C121.484 90.3754 132.378 90.1494 132.378 90.7083C132.378 90.8063 131.817 91.3415 130.517 92.4846C130.213 92.7517 128.64 93.9676 127.02 95.1865C124.566 97.0348 122.926 98.3107 122.188 98.9475C122.114 99.0114 121.302 99.8642 120.384 100.842C116.609 104.866 112.667 107.634 109.279 108.642C108.806 108.783 108.614 108.921 108.506 109.2C108.323 109.669 107.734 110.718 107.55 110.903C107.242 111.211 107.393 111.429 107.848 111.336C108.089 111.288 108.598 111.202 108.977 111.147ZM75.1535 71.6762C75.1535 71.5383 75.3569 71.158 75.6055 70.8315C76.2297 70.0114 76.5032 69.4438 76.5032 68.9681C76.5032 68.4397 76.3232 68.5077 79.5555 67.816C86.7874 66.2683 89.885 65.8706 95.4212 65.7786C124.624 65.2928 133.195 65.0246 142.477 64.3053C144.838 64.1224 144.835 64.1211 145.483 65.1452C146.885 67.359 142.916 68.814 136.764 68.3418C136.17 68.2961 133.346 68.2412 130.488 68.2197C125.292 68.1805 125.292 68.1805 122.47 67.6115C118.351 66.7807 117.145 66.829 115.959 67.8716C115.404 68.3608 115.581 68.359 114.248 67.8884C110.878 66.6987 106.708 66.6259 99.9867 67.6392C97.7227 67.9806 95.0808 68.3269 94.1157 68.4088C89.102 68.8346 84.4001 69.7048 78.3685 71.323C75.8609 71.9959 75.1535 72.0736 75.1535 71.6762Z" fill="#D5AD2D"/>
<path d="M127.384 222.884C111.66 222.212 100.727 220.116 92.0017 216.107C90.7282 215.522 90.9193 215.914 89.5456 211.071C87.1534 202.638 85.3351 194.999 83.3872 185.194C82.3998 180.224 81.9373 178.146 79.6569 168.434C75.565 151.006 74.0109 142.992 73.1167 134.71C72.8902 132.613 73.298 129.745 73.9385 128.929C74.3178 128.447 74.3254 127.214 73.9499 127.116C73.7307 127.058 73.6764 126.873 73.5963 125.91C73.5298 125.11 73.4262 124.675 73.2478 124.448C73.0758 124.229 72.9941 123.906 72.9941 123.445C72.9941 123.071 72.9333 122.727 72.8591 122.681C72.778 122.631 72.7241 121.713 72.7241 120.383C72.7241 119.053 72.6703 118.135 72.5892 118.086C72.515 118.04 72.4542 118.124 72.4542 118.272C72.4542 119.938 71.2586 116.904 70.5618 113.469C68.7733 104.654 65.838 95.8944 66.5133 101.387C66.7508 103.32 67.1886 105.22 68.4454 109.773C69.9219 115.122 70.5944 118.909 70.2942 120.183C69.8651 122.003 67.0922 111.071 65.4941 101.258C65.0886 98.7671 64.4796 95.0265 64.1408 92.945C63.3839 88.2939 62.6799 84.8012 61.718 80.9248C60.7551 77.0448 60.7824 76.4155 61.9789 74.8893C64.4454 71.7437 71.6831 69.298 72.4655 71.346C73.0017 72.7497 71.4213 73.7222 67.1232 74.6329C63.3981 75.4221 63.0535 75.9866 65.0758 77.9866C67.0975 79.9862 78.8241 81.7734 92.6986 82.1966C117.251 82.9451 132.842 83.142 137.237 82.7604C141.577 82.3836 141.838 82.3868 142.564 82.8128C143.211 83.1925 143.211 83.1925 144.037 82.9872C144.862 82.7816 145.06 82.7868 147.939 83.0891C148.565 83.1549 148.867 83.1124 149.45 82.8753C150.097 82.6125 150.236 82.5985 150.692 82.7502C151.637 83.0652 160.649 82.9742 163.824 82.6178C172.652 81.6266 183.101 79.2126 186.576 77.362C186.984 77.1443 189.672 76.4918 191.424 76.1851C193.106 75.8907 194.193 75.6311 195 75.331C195.743 75.0552 195.743 75.0552 195.83 76.2281C196.218 81.443 195.638 89.8584 194.595 94.1614C194.321 95.2899 193.999 97.0908 193.519 100.176C193.363 101.18 193.169 102.134 193.088 102.296C193.006 102.458 192.976 102.732 193.021 102.904C193.066 103.076 192.953 104.434 192.771 105.92C191.81 113.744 191.206 121.679 190.278 138.63C189.457 153.633 188.988 160.403 188.311 167.014C188.128 168.799 187.889 171.474 187.779 172.962C187.23 180.427 186.402 187.356 184.993 196.278C184.511 199.326 184.444 200.043 184.407 202.495C184.268 211.737 180.886 216.987 174.47 217.911C173.847 218.002 172.549 218.307 171.584 218.592C163.763 220.891 155.417 222.111 143.984 222.625C134.712 223.042 132.031 223.084 127.384 222.884ZM95.5322 208.904C93.8672 202.105 92.8931 198.878 91.7219 196.278C90.4683 193.493 90.1833 193.126 90.3383 194.486C91.0501 200.744 92.7655 206.55 95.5576 212.146C97.0299 215.098 97.0292 215.017 95.5322 208.904ZM92.6135 213.41C93.0995 211.593 92.3224 207.773 90.0595 200.855C88.7687 196.91 87.8174 193.478 87.6384 192.121C87.5209 191.232 87.3989 191.156 86.8937 191.663C86.0833 192.474 86.3285 194.154 88.1534 200.297C88.6445 201.95 89.1158 203.836 89.2008 204.487C89.7002 208.315 92.2163 214.894 92.6135 213.41ZM138.377 193.28C140.839 191.647 140.516 186.884 137.84 185.367C135.43 184 134.136 186.978 135.159 191.536C135.618 193.581 136.887 194.269 138.377 193.28ZM131.118 192.92C132.953 191.978 133.563 188.831 132.413 186.236C131.278 183.678 129.003 184.973 128.593 188.412C128.533 188.909 128.394 189.9 128.281 190.614C127.881 193.173 128.943 194.036 131.118 192.92ZM86.4312 188.216C86.7255 185.856 86.115 182.446 84.1396 175.42C83.5793 173.427 82.9332 170.841 82.7039 169.676C81.954 165.863 80.8189 164.005 81.367 167.487C81.6332 169.178 83.1357 176.894 83.4595 178.233C83.6393 178.976 83.943 180.851 84.1345 182.4C84.6111 186.256 85.0293 187.783 85.8516 188.674C86.2592 189.115 86.3255 189.063 86.4312 188.216ZM127.014 183.842C128.389 183.1 129.792 182.761 131.488 182.763C132.793 182.764 133.777 182.897 137.506 183.587C142.058 184.427 144.733 183.795 144.417 181.95C143.702 177.772 141.581 176.856 135.066 177.908C131.267 178.523 128.515 178.552 126.969 177.994C125.747 177.553 125.822 177.556 124.915 177.897C121.637 179.125 121.781 183.038 125.144 184.106C125.596 184.25 125.978 184.371 125.99 184.375C126.003 184.379 126.464 184.14 127.014 183.842ZM117.666 175.174C127.947 172.814 131.262 159.939 123.148 153.885C117.916 149.981 114.639 149.698 106.464 152.44C104.795 153.001 103.291 153.546 103.124 153.651C102.528 154.027 101.606 155.358 101.606 155.843C101.606 156.092 101.368 156.888 101.076 157.612C97.2149 167.203 107.046 177.611 117.666 175.174ZM104.643 167.805C100.599 167.201 99.727 163.752 102.822 160.603C105.071 158.317 107.689 158.118 109.611 160.09C113.415 163.991 110.404 168.667 104.643 167.805ZM155.92 173.278C162.981 172.09 167.409 163.959 164.497 157.528C157.679 142.467 133.19 149.702 138.56 165.191C140.857 171.813 147.164 174.751 155.92 173.278ZM142.163 167.028C139.015 166.251 137.993 163.371 139.681 160.024C141.789 155.841 146.301 155.89 148.527 160.122C149.872 162.677 149.567 163.528 147.387 163.308C145.426 163.11 144.783 163.391 145.741 164.027C146.439 164.489 147.333 165.295 147.505 165.618C148.044 166.625 144.415 167.583 142.163 167.028ZM108.211 111.264C108.346 111.192 108.834 111.118 109.297 111.099C109.975 111.073 110.157 111.018 110.231 110.816C110.313 110.596 110.509 110.559 111.802 110.52C113.746 110.461 114.516 110.352 115.17 110.046C115.754 109.772 121.372 109.552 125.089 109.658C131.701 109.845 146.213 109.652 146.397 109.376C146.568 109.117 146.713 109.097 148.421 109.095C150.345 109.093 151.13 108.939 151.45 108.5C151.614 108.276 152.074 108.262 158.635 108.278C165.78 108.295 168.137 108.182 168.558 107.802C168.706 107.67 169.11 107.611 169.866 107.611C170.468 107.611 170.999 107.55 171.045 107.475C171.098 107.389 173.091 107.34 176.581 107.34C181.837 107.34 182.04 107.33 182.175 107.078C182.296 106.851 182.511 106.806 183.765 106.743C186.749 106.594 187.507 106.51 187.736 106.304C187.911 106.146 188.255 106.11 189.28 106.14C190.599 106.178 190.599 106.178 190.764 105.576C190.853 105.245 191.049 104.64 191.197 104.231C191.413 103.637 191.487 102.983 191.562 100.987C191.664 98.2556 191.76 97.3846 192.122 95.851C192.412 94.621 192.419 86.4187 192.133 83.2132C191.954 81.2126 188.268 80.4613 185.54 81.869C185.089 82.1014 174.162 83.3986 165.713 84.2228C157.171 85.056 146.395 85.8476 140.611 86.0667C139.072 86.125 138.124 86.2191 137.89 86.3371C137.585 86.4917 137.428 86.4847 136.811 86.2884C136.326 86.1344 135.623 86.0577 134.672 86.0553C133.286 86.0516 133.255 86.0449 133.266 85.7445C133.281 85.3366 133.298 85.3388 129.341 85.2473C97.6897 84.5154 76.4812 83.4224 65.0185 81.9323C63.6835 81.7588 63.5467 81.7629 63.5467 81.9777C63.5467 82.3536 64.6395 83.3931 65.5032 83.839C66.5901 84.4001 66.6064 84.646 65.5695 84.8352C64.4579 85.0381 64.4914 84.9065 64.9279 87.3525C66.6787 97.1648 69.2527 99.3861 74.6867 95.7738C77.8118 93.6964 97.8375 91.5446 111.053 91.8662C113.322 91.9214 114.886 91.8979 115.642 91.797C116.274 91.7129 117.135 91.6122 117.558 91.5732C117.981 91.5343 118.399 91.4164 118.486 91.3113C118.573 91.2062 118.876 91.1203 119.159 91.1203C119.442 91.1203 119.844 91.0499 120.054 90.9639C121.484 90.3754 132.378 90.1494 132.378 90.7083C132.378 90.8063 131.817 91.3415 130.517 92.4846C130.213 92.7517 128.64 93.9676 127.02 95.1865C124.566 97.0348 122.926 98.3107 122.188 98.9475C122.114 99.0114 121.302 99.8642 120.384 100.842C116.609 104.866 112.667 107.634 109.279 108.642C108.806 108.783 108.614 108.921 108.506 109.2C108.323 109.669 107.734 110.718 107.55 110.903C107.158 111.296 107.65 111.564 108.211 111.264ZM75.1535 71.6762C75.1535 71.5383 75.3569 71.158 75.6055 70.8315C76.2297 70.0114 76.5032 69.4438 76.5032 68.9681C76.5032 68.4397 76.3232 68.5077 79.5555 67.816C86.7874 66.2683 89.885 65.8706 95.4212 65.7786C124.624 65.2928 133.195 65.0246 142.477 64.3053C144.838 64.1224 144.835 64.1211 145.483 65.1452C146.885 67.359 142.916 68.814 136.764 68.3418C136.17 68.2961 133.346 68.2412 130.488 68.2197C125.292 68.1805 125.292 68.1805 122.47 67.6115C118.351 66.7807 117.145 66.829 115.959 67.8716C115.404 68.3608 115.581 68.359 114.248 67.8884C110.878 66.6987 106.708 66.6259 99.9867 67.6392C97.7227 67.9806 95.0808 68.3269 94.1157 68.4088C89.102 68.8346 84.4001 69.7048 78.3685 71.323C75.8609 71.9959 75.1535 72.0736 75.1535 71.6762Z" fill="#28A8DD"/>
<path d="M127.384 222.884C111.66 222.212 100.727 220.116 92.0017 216.107C90.7282 215.522 90.9193 215.914 89.5456 211.071C87.1534 202.638 85.3351 194.999 83.3872 185.194C82.3998 180.224 81.9373 178.146 79.6569 168.434C75.565 151.006 74.0109 142.992 73.1167 134.71C72.8664 132.393 73.3317 129.553 74.0856 128.799C74.5779 128.305 74.6427 127.373 74.2126 126.972C74.0159 126.788 73.914 126.432 73.8219 125.607C73.7503 124.966 73.6106 124.393 73.4938 124.261C73.235 123.97 73.1344 123.114 73.0191 120.225C72.9683 118.948 72.8778 117.856 72.818 117.796C72.6878 117.666 72.4591 117.994 72.4563 118.314C72.4418 119.911 71.2506 116.864 70.5618 113.469C68.7733 104.654 65.838 95.8944 66.5133 101.387C66.7508 103.32 67.1886 105.22 68.4454 109.773C69.9219 115.122 70.5944 118.909 70.2942 120.183C69.8651 122.003 67.0922 111.071 65.4941 101.258C65.0886 98.7671 64.4796 95.0265 64.1408 92.945C63.3839 88.2939 62.6799 84.8012 61.718 80.9248C60.7551 77.0448 60.7824 76.4155 61.9789 74.8893C64.4454 71.7437 71.6831 69.298 72.4655 71.346C73.0017 72.7497 71.4213 73.7222 67.1232 74.6329C63.3981 75.4221 63.0535 75.9866 65.0758 77.9866C67.0975 79.9862 78.8241 81.7734 92.6986 82.1966C117.251 82.9451 132.842 83.142 137.237 82.7604C141.577 82.3836 141.838 82.3868 142.564 82.8128C143.211 83.1925 143.211 83.1925 144.037 82.9872C144.862 82.7816 145.06 82.7868 147.939 83.0891C148.565 83.1549 148.867 83.1124 149.45 82.8753C150.097 82.6125 150.236 82.5985 150.692 82.7502C151.637 83.0652 160.649 82.9742 163.824 82.6178C172.652 81.6266 183.101 79.2126 186.576 77.362C186.984 77.1443 189.672 76.4918 191.424 76.1851C193.106 75.8907 194.193 75.6311 195 75.331C195.743 75.0552 195.743 75.0552 195.83 76.2281C196.218 81.443 195.638 89.8584 194.595 94.1614C194.321 95.2899 193.999 97.0908 193.519 100.176C193.363 101.18 193.169 102.134 193.088 102.296C193.006 102.458 192.976 102.732 193.021 102.904C193.066 103.076 192.953 104.434 192.771 105.92C191.81 113.744 191.206 121.679 190.278 138.63C189.457 153.633 188.988 160.403 188.311 167.014C188.128 168.799 187.889 171.474 187.779 172.962C187.23 180.427 186.402 187.356 184.993 196.278C184.511 199.326 184.444 200.043 184.407 202.495C184.268 211.737 180.886 216.987 174.47 217.911C173.847 218.002 172.549 218.307 171.584 218.592C163.763 220.891 155.417 222.111 143.984 222.625C134.712 223.042 132.031 223.084 127.384 222.884ZM95.5322 208.904C93.8672 202.105 92.8931 198.878 91.7219 196.278C90.4683 193.493 90.1833 193.126 90.3383 194.486C91.0501 200.744 92.7655 206.55 95.5576 212.146C97.0299 215.098 97.0292 215.017 95.5322 208.904ZM92.6135 213.41C93.0995 211.593 92.3224 207.773 90.0595 200.855C88.7687 196.91 87.8174 193.478 87.6384 192.121C87.5209 191.232 87.3989 191.156 86.8937 191.663C86.0833 192.474 86.3285 194.154 88.1534 200.297C88.6445 201.95 89.1158 203.836 89.2008 204.487C89.7002 208.315 92.2163 214.894 92.6135 213.41ZM138.377 193.28C140.839 191.647 140.516 186.884 137.84 185.367C135.43 184 134.136 186.978 135.159 191.536C135.618 193.581 136.887 194.269 138.377 193.28ZM131.118 192.92C132.953 191.978 133.563 188.831 132.413 186.236C131.278 183.678 129.003 184.973 128.593 188.412C128.533 188.909 128.394 189.9 128.281 190.614C127.881 193.173 128.943 194.036 131.118 192.92ZM86.4312 188.216C86.7255 185.856 86.115 182.446 84.1396 175.42C83.5793 173.427 82.9332 170.841 82.7039 169.676C81.954 165.863 80.8189 164.005 81.367 167.487C81.6332 169.178 83.1357 176.894 83.4595 178.233C83.6393 178.976 83.943 180.851 84.1345 182.4C84.6111 186.256 85.0293 187.783 85.8516 188.674C86.2592 189.115 86.3255 189.063 86.4312 188.216ZM127.014 183.842C128.389 183.1 129.792 182.761 131.488 182.763C132.793 182.764 133.777 182.897 137.506 183.587C142.058 184.427 144.733 183.795 144.417 181.95C143.702 177.772 141.581 176.856 135.066 177.908C131.267 178.523 128.515 178.552 126.969 177.994C125.747 177.553 125.822 177.556 124.915 177.897C121.637 179.125 121.781 183.038 125.144 184.106C125.596 184.25 125.978 184.371 125.99 184.375C126.003 184.379 126.464 184.14 127.014 183.842ZM117.666 175.174C127.947 172.814 131.262 159.939 123.148 153.885C117.783 149.882 114.363 149.655 105.626 152.722C103.793 153.365 102.922 153.612 102.825 153.516C102.729 153.42 102.686 153.449 102.686 153.611C102.686 153.739 102.6 153.878 102.495 153.918C102.096 154.071 101.643 154.97 101.616 155.66C101.6 156.079 101.393 156.825 101.068 157.632C97.2148 167.204 107.059 177.609 117.666 175.174ZM104.643 167.805C100.599 167.201 99.727 163.752 102.822 160.603C105.071 158.317 107.689 158.118 109.611 160.09C113.415 163.991 110.404 168.667 104.643 167.805ZM155.92 173.278C162.981 172.09 167.409 163.959 164.497 157.528C157.679 142.467 133.19 149.702 138.56 165.191C140.857 171.813 147.164 174.751 155.92 173.278ZM142.163 167.028C139.015 166.251 137.993 163.371 139.681 160.024C141.789 155.841 146.301 155.89 148.527 160.122C149.872 162.677 149.567 163.528 147.387 163.308C145.426 163.11 144.783 163.391 145.741 164.027C146.439 164.489 147.333 165.295 147.505 165.618C148.044 166.625 144.415 167.583 142.163 167.028ZM134.309 120.779C134.408 120.431 134.361 120.26 134.014 119.712C131.362 115.524 134.321 109.704 138.511 110.869C140.225 111.345 140.23 112.293 138.543 115.987C136.948 119.478 137.07 120.112 139.336 120.112C140.941 120.112 140.866 120.224 141.016 117.598C141.402 110.847 143.434 108.569 147.764 110.036C148.887 110.417 148.906 110.44 149.245 111.781C150.547 116.926 152.321 118.385 157.009 118.167C160.333 118.012 161.073 117.306 162.346 113.074C163.43 109.47 164.181 108.587 166.423 108.28C166.961 108.207 167.673 108.09 168.008 108.02C169.424 107.723 170.827 107.932 171.196 108.494C171.508 108.973 171.693 108.758 171.619 107.998C171.557 107.34 171.557 107.34 176.796 107.34C181.84 107.34 182.04 107.33 182.175 107.078C182.296 106.851 182.511 106.806 183.765 106.743C186.749 106.594 187.507 106.51 187.736 106.304C187.911 106.146 188.255 106.11 189.28 106.14C190.599 106.178 190.599 106.178 190.764 105.576C190.853 105.245 191.049 104.64 191.197 104.231C191.413 103.637 191.487 102.983 191.562 100.987C191.664 98.2556 191.76 97.3846 192.122 95.851C192.412 94.621 192.419 86.4187 192.133 83.2132C191.954 81.2126 188.268 80.4613 185.54 81.869C185.089 82.1014 174.162 83.3986 165.713 84.2228C157.171 85.056 146.395 85.8476 140.611 86.0667C139.072 86.125 138.124 86.2191 137.89 86.3371C137.585 86.4917 137.428 86.4847 136.811 86.2884C136.326 86.1344 135.623 86.0577 134.672 86.0553C133.286 86.0516 133.255 86.0449 133.266 85.7445C133.281 85.3366 133.298 85.3388 129.341 85.2473C97.6897 84.5154 76.4812 83.4224 65.0185 81.9323C63.6835 81.7588 63.5467 81.7629 63.5467 81.9777C63.5467 82.3536 64.6395 83.3931 65.5032 83.839C66.5901 84.4001 66.6064 84.646 65.5695 84.8352C64.4579 85.0381 64.4914 84.9065 64.9279 87.3525C66.6787 97.1648 69.2527 99.3861 74.6867 95.7738C77.2724 94.0548 87.7138 92.6479 102.703 91.9984C114.652 91.4809 111.971 92.241 96.2752 93.8211C88.5437 94.5995 84.9094 95.1021 81.1593 95.9121C80.3428 96.0885 79.2483 96.2638 78.7271 96.3018C74.1869 96.6322 69.8519 102.108 72.1308 104.634C72.8043 105.38 73.7786 105.717 75.6432 105.847C76.4692 105.905 77.2022 105.988 77.2722 106.031C77.3422 106.074 78.215 106.259 79.2118 106.442C81.3351 106.831 81.7679 106.978 81.8629 107.342C81.9269 107.587 82.0493 107.61 83.2504 107.61C84.4464 107.61 84.5856 107.637 84.7595 107.899C84.9194 108.14 85.1212 108.199 85.9855 108.254C86.7663 108.304 87.0758 108.383 87.2484 108.574C87.395 108.736 87.6601 108.827 87.988 108.827C88.2689 108.827 88.5364 108.888 88.5823 108.962C88.6282 109.036 88.9771 109.097 89.3576 109.097C89.8894 109.097 90.1241 109.167 90.3725 109.401C90.6813 109.692 90.8123 109.707 93.3722 109.749C95.8114 109.789 96.0698 109.816 96.2842 110.053C96.5286 110.324 97.8272 110.442 97.8272 110.195C97.8272 109.721 100.157 109.327 103.158 109.293C105.31 109.269 106.117 109.206 107.137 108.981C108.832 108.608 108.888 108.695 107.956 110.246C107.732 110.617 107.49 111.053 107.419 111.215C107.348 111.376 107.124 111.589 106.921 111.688C106.719 111.787 106.312 112.222 106.018 112.655C105.611 113.254 105.317 113.52 104.793 113.769C102.528 114.842 100.69 116.666 101.873 116.666C102.177 116.666 102.571 116.762 102.748 116.877C103.04 117.07 103.108 117.07 103.479 116.877C103.703 116.762 103.973 116.666 104.077 116.666C104.182 116.666 104.5 116.286 104.785 115.821C105.683 114.358 109.416 110.887 109.895 111.071C110.034 111.125 110.144 111.052 110.215 110.859C110.317 110.586 110.429 110.564 111.802 110.52C113.543 110.465 114.708 110.332 114.91 110.167C114.999 110.095 115.415 110.187 115.964 110.399C117.525 111.004 117.639 111.677 116.301 112.389C113.935 113.647 113.534 116.367 115.402 118.492C117.012 120.324 119.716 119.957 118.185 118.114C115.267 114.603 117.311 111.667 123.47 110.523C127.397 109.794 133.157 111.041 132.097 112.391C131.177 113.563 131.178 115.196 132.099 118.961C132.326 119.888 132.513 120.788 132.513 120.961C132.513 121.518 134.145 121.353 134.309 120.779ZM154.09 115.939C150.179 114.539 150.224 110.215 154.149 110.328C155.244 110.36 155.483 110.323 156.199 110.004C158.99 108.762 161.614 110.806 160.804 113.59C160.327 115.229 159.373 115.846 157.076 116.002C154.957 116.146 154.654 116.14 154.09 115.939ZM75.1535 71.6762C75.1535 71.5383 75.3569 71.158 75.6055 70.8315C76.2297 70.0114 76.5032 69.4438 76.5032 68.9681C76.5032 68.4397 76.3232 68.5077 79.5555 67.816C86.7874 66.2683 89.885 65.8706 95.4212 65.7786C124.624 65.2928 133.195 65.0246 142.477 64.3053C144.838 64.1224 144.835 64.1211 145.483 65.1452C146.885 67.359 142.916 68.814 136.764 68.3418C136.17 68.2961 133.346 68.2412 130.488 68.2197C125.292 68.1805 125.292 68.1805 122.47 67.6115C118.351 66.7807 117.145 66.829 115.959 67.8716C115.404 68.3608 115.581 68.359 114.248 67.8884C110.878 66.6987 106.708 66.6259 99.9867 67.6392C97.7227 67.9806 95.0808 68.3269 94.1157 68.4088C89.102 68.8346 84.4001 69.7048 78.3685 71.323C75.8609 71.9959 75.1535 72.0736 75.1535 71.6762Z" fill="#3698A6"/>
<path d="M151.628 178.436C161.205 178.436 168.97 170.659 168.97 161.067C168.97 151.475 161.205 143.699 151.628 143.699C142.05 143.699 134.285 151.475 134.285 161.067C134.285 170.659 142.05 178.436 151.628 178.436Z" fill="#F4F2ED"/>
<path d="M116.942 178.436C126.52 178.436 134.285 170.659 134.285 161.067C134.285 151.475 126.52 143.699 116.942 143.699C107.364 143.699 99.5992 151.475 99.5992 161.067C99.5992 170.659 107.364 178.436 116.942 178.436Z" fill="#F4F2ED"/>
<path d="M133.677 195.601C139.081 195.601 143.462 193.06 143.462 189.925C143.462 186.789 139.081 184.248 133.677 184.248C128.273 184.248 123.893 186.789 123.893 189.925C123.893 193.06 128.273 195.601 133.677 195.601Z" fill="#F4F2ED"/>
<path d="M129.88 222.955C112.121 222.002 103.667 220.603 94.8577 217.159C91.0263 215.661 91.0163 215.656 90.6249 214.37C88.2522 206.572 85.7776 196.47 83.7094 186.143C82.5065 180.136 82.0912 178.266 79.6869 168.02C73.5877 142.032 72.0535 131.358 74.0845 129.042C74.5828 128.473 74.6506 127.38 74.2126 126.972C74.0159 126.788 73.914 126.432 73.8219 125.607C73.7503 124.966 73.6106 124.393 73.4938 124.261C73.2346 123.97 73.1339 123.112 73.0189 120.209C72.9466 118.386 72.8832 117.845 72.7303 117.752C72.455 117.581 72.3197 117.704 72.3147 118.127C72.3 119.374 71.2016 116.087 70.5612 112.881C68.5969 103.048 65.1235 94.2179 66.5943 102.797C66.8363 104.208 67.5447 107.033 68.5892 110.752C69.4828 113.933 69.9831 116.356 70.1454 118.288C70.6625 124.444 67.3613 112.073 65.6369 101.393C63.2739 86.7569 62.6049 83.2969 61.2985 78.9557C60.7344 77.0815 61.0038 76.1017 62.519 74.516C65.7072 71.1795 72.927 69.3218 72.3973 71.9741C72.1787 73.0692 70.7311 73.7588 67.0633 74.5154C63.2692 75.2982 62.8849 75.9521 64.993 78.0383C66.654 79.6822 75.7236 81.3995 86.2201 82.0575C88.1721 82.18 90.4528 82.2576 102.416 82.6089C118.52 83.082 133.404 83.2038 137.169 82.8934C141.547 82.5325 142.052 82.531 142.664 82.8761C143.157 83.1533 143.282 83.1706 143.836 83.039C144.429 82.8983 144.884 82.9188 148.052 83.2289C148.687 83.2912 148.934 83.2459 149.554 82.9517C150.19 82.6505 150.352 82.6223 150.683 82.7545C151.442 83.0577 160.775 82.9605 163.824 82.6178C172.657 81.625 183.101 79.2124 186.576 77.362C186.984 77.1443 189.672 76.4918 191.424 76.1851C193.13 75.8867 194.205 75.6314 194.905 75.3596C196.09 74.8996 196.369 81.1747 195.467 87.9352C194.974 91.6299 194.863 92.3459 194.605 93.5533C194.454 94.2596 194.246 95.2328 194.142 95.716C192.646 102.691 191.358 116.557 190.143 138.766C189.261 154.889 188.836 160.861 187.986 169.11C187.844 170.484 187.691 172.187 187.646 172.894C187.247 179.121 186.353 186.623 184.807 196.718C184.327 199.85 184.227 200.808 184.29 201.652C184.945 210.327 180.946 216.786 174.283 217.821C173.615 217.925 171.999 218.321 170.693 218.701C164.091 220.62 156.602 221.765 146.751 222.363C140.374 222.749 131.715 223.052 129.88 222.955ZM129.295 221.045C129.79 220.547 128.328 220.312 121.986 219.865C120.463 219.757 118.459 219.578 117.532 219.468C112.462 218.863 108.445 218.828 109.932 219.402C112.626 220.442 128.548 221.793 129.295 221.045ZM96.8822 214.069C96.8822 213.719 94.4727 204.053 93.8624 201.954C92.7362 198.082 90.7371 193.304 90.2426 193.304C89.7801 193.304 90.9273 199.878 92.035 203.576C93.4952 208.452 96.8822 215.783 96.8822 214.069ZM92.7162 213.5C93.1843 211.333 92.5059 207.933 90.1968 200.873C88.9276 196.993 87.9615 193.525 87.7667 192.155C87.6421 191.277 87.5112 191.111 87.0937 191.302C85.8883 191.852 86.0743 193.783 87.9243 199.918C88.4048 201.511 88.8908 203.426 89.0045 204.175C89.7334 208.973 92.3003 215.423 92.7162 213.5ZM138.331 193.458C140.482 192.092 140.858 188.966 139.162 186.551C136.35 182.548 133.456 186.489 135.137 192.035C135.646 193.714 136.987 194.312 138.331 193.458ZM131.117 193.055C133.455 191.851 133.847 187.254 131.797 185.093C130.571 183.801 128.772 185.668 128.448 188.567C128.38 189.18 128.265 189.933 128.195 190.242C127.559 192.997 128.838 194.229 131.117 193.055ZM86.5461 188.224C86.8598 186.191 86.2022 182.378 84.4575 176.115C83.788 173.712 83.0299 170.694 82.7729 169.41C82.1483 166.287 81.0915 164.167 81.0915 166.038C81.0915 166.982 82.5893 175.146 83.3164 178.166C83.5044 178.945 83.8126 180.831 84.0015 182.355C84.5024 186.4 84.8207 187.609 85.6333 188.561C86.2435 189.275 86.3925 189.219 86.5461 188.224ZM127.03 183.842C129.435 182.521 131.454 182.442 136.763 183.464C143.797 184.817 146.612 182.774 143.103 178.866C141.667 177.266 140.164 177.093 134.942 177.925C131.457 178.48 128.454 178.528 127.181 178.046C125.633 177.46 124.66 177.664 123.466 178.824C121.423 180.808 122.789 183.793 126.007 184.376C126.029 184.38 126.489 184.14 127.03 183.842ZM117.832 175.272C119.316 174.894 119.693 174.72 122.029 173.321C129.768 168.689 129.782 157.457 122.053 152.993C121.533 152.692 120.774 152.25 120.365 152.009C116.658 149.822 113.096 149.941 105.925 152.49C104.626 152.952 103.393 153.326 103.185 153.322C102.905 153.316 102.775 153.399 102.682 153.643C102.614 153.823 102.505 153.971 102.442 153.971C102.138 153.971 101.471 155.18 101.471 155.73C101.471 156.075 101.263 156.812 100.938 157.619C97.0506 167.276 107.271 177.954 117.832 175.272ZM104.298 167.622C100.711 167.013 100.031 163.768 102.861 160.767C105.051 158.447 107.503 158.224 109.438 160.168C113.384 164.135 110.279 168.636 104.298 167.622ZM156.133 173.367C164.706 171.66 168.183 162.22 162.977 154.79C155.064 143.497 135.587 150.065 137.917 163.239C139.311 171.114 146.731 175.241 156.133 173.367ZM142.285 166.943C138.542 166.199 137.856 161.607 141.012 158.424C143.796 155.617 147.753 157.236 149.042 161.709C149.444 163.102 149.195 163.297 147.133 163.195C144.756 163.078 144.567 163.295 146.066 164.421C147.253 165.313 147.608 165.767 147.356 166.071C146.739 166.817 144.01 167.286 142.285 166.943ZM142.432 134.311C143.397 134.271 144.399 134.203 144.659 134.16C144.919 134.115 145.313 134.06 145.536 134.034C145.759 134.008 146.214 133.953 146.549 133.91C146.882 133.868 147.368 133.806 147.628 133.773C147.888 133.74 148.313 133.679 148.573 133.636C148.833 133.595 149.228 133.534 149.45 133.502C149.861 133.443 151.21 133.208 153.296 132.834C162.244 131.227 168.484 128.339 175.177 122.709C175.372 122.545 175.789 122.198 176.104 121.938C176.419 121.678 176.933 121.221 177.248 120.924C177.561 120.627 178.228 120.018 178.728 119.572C179.23 119.126 179.958 118.457 180.348 118.086C181.74 116.755 183.233 115.405 184.489 114.341C184.814 114.065 185.263 113.684 185.485 113.493C185.708 113.303 186.176 112.92 186.526 112.643C186.971 112.289 187.188 112.005 187.25 111.692C187.33 111.292 187.382 111.25 187.755 111.287C188.082 111.319 188.206 111.258 188.336 111C188.427 110.821 188.598 110.619 188.714 110.554C188.865 110.47 188.927 110.231 188.927 109.731C188.927 109.13 188.971 109.006 189.231 108.892C189.398 108.819 189.552 108.631 189.575 108.473C189.597 108.317 189.76 108.122 189.935 108.042C190.198 107.922 190.272 107.757 190.349 107.111C190.402 106.68 190.489 106.265 190.543 106.191C190.598 106.117 190.705 105.813 190.784 105.516C190.862 105.218 191.048 104.64 191.197 104.231C191.413 103.637 191.487 102.983 191.562 100.987C191.664 98.2556 191.76 97.3846 192.122 95.851C192.412 94.621 192.419 86.4187 192.133 83.2132C191.954 81.2126 188.268 80.4613 185.54 81.869C185.089 82.1015 174.155 83.3994 165.713 84.2228C159.202 84.8578 150.859 85.5118 144.929 85.8519C143.481 85.935 141.326 86.0621 140.137 86.1346C137.325 86.3065 136.846 86.3005 136.595 86.091C136.446 85.9681 135.928 85.9226 134.841 85.9367C133.371 85.9559 133.301 85.9443 133.367 85.6928C133.477 85.2707 133.102 85.2185 129.273 85.1246C95.7517 84.3011 77.5105 83.3577 64.8321 81.7918C63.4177 81.6172 63.4115 81.6177 63.4115 81.9147C63.4115 82.3303 64.5459 83.4707 65.4274 83.9413C66.4136 84.4677 66.4418 84.5893 65.6046 84.7032C64.2704 84.8848 64.3093 84.708 64.9009 87.8977C66.6383 97.2645 69.5624 99.6149 74.7957 95.851C76.386 94.7072 85.2841 93.1671 93.5081 92.6119C97.1001 92.3694 97.7703 92.3337 102.551 92.1302C108.071 91.8951 109.403 91.8813 109.223 92.0614C109.045 92.2387 104.159 92.9265 100.054 93.3518C88.0024 94.6006 86.3983 94.8042 82.0363 95.6407C80.7373 95.8898 79.1278 96.1615 78.4598 96.2446C71.2285 97.1433 68.7422 105.456 75.5581 105.945C77.9912 106.119 81.7664 107.012 81.7664 107.413C81.7664 107.573 82.027 107.611 83.167 107.611C84.4479 107.611 84.5843 107.634 84.7595 107.899C84.9194 108.14 85.1212 108.199 85.9855 108.254C86.7663 108.304 87.0758 108.383 87.2484 108.574C87.395 108.736 87.6601 108.827 87.988 108.827C88.2689 108.827 88.5364 108.888 88.5823 108.962C88.6282 109.036 88.9771 109.097 89.3576 109.097C89.8894 109.097 90.1241 109.167 90.3725 109.401C90.6812 109.692 90.8128 109.707 93.3499 109.749C95.7173 109.788 96.0342 109.82 96.2748 110.045C96.6452 110.39 97.8127 110.463 98.1159 110.16C98.5955 109.679 100.696 109.338 103.043 109.359C104.982 109.377 107.187 109.17 108.117 108.882C108.748 108.687 107.374 111.399 106.701 111.679C106.496 111.764 106.328 111.902 106.327 111.986C106.319 112.461 105.479 113.445 104.81 113.762C99.0424 116.489 98.9401 122.42 104.597 126.104C108.261 128.489 108.945 128.905 110.514 129.701C114.208 131.578 119.084 133.102 123.065 133.626C123.399 133.67 123.824 133.733 124.009 133.765C124.406 133.837 125.422 133.958 126.371 134.047C126.742 134.082 127.35 134.142 127.722 134.179C128.092 134.216 128.957 134.264 129.641 134.284C130.326 134.304 130.914 134.349 130.946 134.38C131.024 134.459 140.187 134.403 142.432 134.311ZM75.2882 71.6088C75.2882 71.5079 75.4915 71.1581 75.7402 70.8316C76.362 70.0145 76.6378 69.4443 76.6378 68.9749C76.6378 68.6748 76.7122 68.5592 76.9415 68.5031C83.3945 66.9236 89.859 65.9973 95.0602 65.9073C126.743 65.3585 133.442 65.1497 142.364 64.4329C144.739 64.2422 144.783 64.2527 145.343 65.1375C146.79 67.4227 144.598 68.2142 136.966 68.1632C124.774 68.0814 125.614 68.1205 122.489 67.4909C118.375 66.6622 117.084 66.7191 115.824 67.7846C115.399 68.1441 115.399 68.1441 113.995 67.6736C110.508 66.5049 107.043 66.4826 99.514 67.5798C96.916 67.9584 93.9678 68.3286 92.9626 68.4024C89.4607 68.6595 85.6508 69.3675 79.7517 70.8572C75.945 71.8185 75.2882 71.9291 75.2882 71.6088Z" fill="#008ECF"/>
<path d="M129.88 222.955C112.121 222.002 103.667 220.603 94.8577 217.159C91.0263 215.661 91.0163 215.656 90.6249 214.37C88.2522 206.572 85.7776 196.47 83.7094 186.143C82.5065 180.136 82.0912 178.266 79.6869 168.02C73.6028 142.096 72.0506 131.325 74.0727 129.058C74.7434 128.306 75.2829 129.188 75.8768 132.007C79.2636 148.084 84.7993 169.13 88.9412 181.68C90.4906 186.374 90.2281 185.924 91.3604 185.829C92.5341 185.731 92.553 185.772 91.9674 187.136C90.8806 189.671 91.4171 190.953 94.824 193.972C96.2686 195.251 96.1351 195.627 94.3282 195.366C93.0766 195.185 93.1606 195.009 93.6273 196.832C93.8442 197.679 94.1481 198.981 94.3027 199.724C96.6793 211.162 99.0659 215.224 104.005 216.238C119.27 219.374 136.691 219.916 159.724 217.969C168.773 217.205 175.822 214.388 178.078 210.638C178.66 209.667 178.676 209.711 177.713 209.611C176.159 209.448 176.2 209.07 177.846 208.388C180.285 207.374 181.047 206.578 181.009 205.078C180.993 204.428 181.087 203.897 181.371 203.042C182.334 200.142 182.529 197.892 182.305 192.282C182.116 187.551 182.174 185.673 182.56 183.91C183.157 181.188 183.474 178.471 184.003 171.611C184.36 166.958 184.624 164.34 184.943 162.284C185.243 160.349 185.398 158.285 185.616 153.295C185.862 147.643 186.018 145.475 186.371 142.82C186.809 139.519 186.883 139.271 187.68 138.472C188.823 137.328 188.789 136.526 187.52 134.67C185.584 131.838 185.582 130.354 187.514 128.571C188.254 127.887 188.278 126.895 187.711 120.383C187.11 113.49 187.12 111.225 187.755 111.287C188.082 111.319 188.206 111.258 188.336 111C188.427 110.821 188.598 110.619 188.714 110.554C188.865 110.47 188.927 110.231 188.927 109.731C188.927 109.13 188.971 109.006 189.231 108.892C189.398 108.819 189.552 108.631 189.575 108.473C189.597 108.317 189.76 108.122 189.935 108.042C190.198 107.922 190.272 107.757 190.349 107.111C190.402 106.68 190.489 106.265 190.543 106.191C190.598 106.117 190.705 105.813 190.784 105.516C190.862 105.218 191.048 104.64 191.197 104.231C191.413 103.637 191.487 102.983 191.562 100.987C191.664 98.2556 191.76 97.3846 192.122 95.851C192.412 94.621 192.419 86.4187 192.133 83.2132C191.954 81.2126 188.268 80.4613 185.54 81.869C185.089 82.1015 174.155 83.3994 165.713 84.2228C159.202 84.8578 150.859 85.5118 144.929 85.8519C143.481 85.935 141.326 86.0621 140.137 86.1346C137.325 86.3065 136.846 86.3005 136.595 86.091C136.446 85.9681 135.928 85.9226 134.841 85.9367C133.371 85.9559 133.301 85.9443 133.367 85.6928C133.477 85.2707 133.102 85.2185 129.273 85.1246C95.7517 84.3011 77.5105 83.3577 64.8321 81.7918C63.4177 81.6172 63.4115 81.6177 63.4115 81.9147C63.4115 82.3303 64.5459 83.4707 65.4274 83.9413C66.4136 84.4677 66.4418 84.5893 65.6046 84.7032C64.2704 84.8848 64.3093 84.708 64.9009 87.8977C66.6383 97.2645 69.5624 99.6149 74.7957 95.851C76.386 94.7072 85.2841 93.1671 93.5081 92.6119C97.1001 92.3694 97.7703 92.3337 102.551 92.1302C108.071 91.8951 109.403 91.8813 109.223 92.0614C109.045 92.2387 104.159 92.9265 100.054 93.3518C88.0024 94.6006 86.3983 94.8042 82.0363 95.6407C80.7373 95.8898 79.1278 96.1615 78.4598 96.2446C71.2285 97.1433 68.7422 105.456 75.5581 105.945C76.7393 106.03 81.0933 106.854 81.4931 107.068C81.9579 107.317 81.8323 107.729 81.2107 107.993C80.6551 108.229 80.6551 108.229 81.2204 108.604C81.6832 108.911 81.7565 109.014 81.6245 109.173C81.3792 109.469 81.2604 109.445 77.2288 108.283C72.1631 106.823 71.0706 106.716 72.4539 107.813C73.5136 108.654 73.3741 109.001 72.1288 108.623C71.005 108.281 71.0715 107.942 71.5852 111.395C71.7125 112.25 71.8114 113.177 71.805 113.457C71.7987 113.735 71.8831 114.374 71.9927 114.875C72.5037 117.214 72.5519 118.839 72.0915 118.209C71.7729 117.775 71.0034 115.095 70.5612 112.881C68.5969 103.048 65.1235 94.2179 66.5943 102.797C66.8363 104.208 67.5447 107.033 68.5892 110.752C69.4828 113.933 69.9831 116.356 70.1454 118.288C70.6625 124.444 67.3613 112.073 65.6369 101.393C63.2739 86.7569 62.6049 83.2969 61.2985 78.9557C60.7344 77.0815 61.0038 76.1017 62.519 74.516C65.7072 71.1795 72.927 69.3218 72.3973 71.9741C72.1787 73.0692 70.7311 73.7588 67.0633 74.5154C63.2692 75.2982 62.8849 75.9521 64.993 78.0383C66.654 79.6822 75.7236 81.3995 86.2201 82.0575C88.1721 82.18 90.4528 82.2576 102.416 82.6089C118.52 83.082 133.404 83.2038 137.169 82.8934C141.547 82.5325 142.052 82.531 142.664 82.8761C143.157 83.1533 143.282 83.1706 143.836 83.039C144.429 82.8983 144.884 82.9188 148.052 83.2289C148.687 83.2912 148.934 83.2459 149.554 82.9517C150.19 82.6505 150.352 82.6223 150.683 82.7545C151.442 83.0577 160.775 82.9605 163.824 82.6178C172.657 81.625 183.101 79.2124 186.576 77.362C186.984 77.1443 189.672 76.4918 191.424 76.1851C193.13 75.8867 194.205 75.6314 194.905 75.3596C196.09 74.8996 196.369 81.1747 195.467 87.9352C194.974 91.6299 194.863 92.3459 194.605 93.5533C194.454 94.2596 194.246 95.2328 194.142 95.716C192.646 102.691 191.358 116.557 190.143 138.766C189.261 154.889 188.836 160.861 187.986 169.11C187.844 170.484 187.691 172.187 187.646 172.894C187.247 179.121 186.353 186.623 184.807 196.718C184.327 199.85 184.227 200.808 184.29 201.652C184.945 210.327 180.946 216.786 174.283 217.821C173.615 217.925 171.999 218.321 170.693 218.701C164.091 220.62 156.602 221.765 146.751 222.363C140.374 222.749 131.715 223.052 129.88 222.955ZM129.295 221.045C129.79 220.547 128.328 220.312 121.986 219.865C120.463 219.757 118.459 219.578 117.532 219.468C112.462 218.863 108.445 218.828 109.932 219.402C112.626 220.442 128.548 221.793 129.295 221.045ZM96.8822 214.069C96.8822 213.719 94.4727 204.053 93.8624 201.954C92.7362 198.082 90.7371 193.304 90.2426 193.304C89.7801 193.304 90.9273 199.878 92.035 203.576C93.4952 208.452 96.8822 215.783 96.8822 214.069ZM92.7162 213.5C93.1843 211.333 92.5059 207.933 90.1968 200.873C88.9276 196.993 87.9615 193.525 87.7667 192.155C87.6421 191.277 87.5112 191.111 87.0937 191.302C85.8883 191.852 86.0743 193.783 87.9243 199.918C88.4048 201.511 88.8908 203.426 89.0045 204.175C89.7334 208.973 92.3003 215.423 92.7162 213.5ZM86.5461 188.224C86.8598 186.191 86.2022 182.378 84.4575 176.115C83.788 173.712 83.0299 170.694 82.7729 169.41C82.1483 166.287 81.0915 164.167 81.0915 166.038C81.0915 166.982 82.5893 175.146 83.3164 178.166C83.5044 178.945 83.8126 180.831 84.0015 182.355C84.5024 186.4 84.8207 187.609 85.6333 188.561C86.2435 189.275 86.3925 189.219 86.5461 188.224ZM116.182 201.599C115.996 201.571 115.298 201.484 114.629 201.403C113.962 201.322 111.441 200.863 109.029 200.383C104.015 199.385 101.438 198.986 99.9827 198.983C98.3709 198.98 97.841 198.27 98.7612 197.348C99.4359 196.672 100.741 196.824 104.78 198.043C107.547 198.879 109.608 199.381 110.846 199.522C111.369 199.579 112.403 199.759 113.145 199.919C114.252 200.156 122.141 201.144 122.941 201.144C123.066 201.144 123.2 201.265 123.239 201.414C123.306 201.67 117.689 201.816 116.182 201.599ZM128.936 195.552C127.135 194.703 126.478 193.424 126.099 190.033C125.588 185.451 124.869 184.429 121.695 183.782C120.945 183.629 120.832 181.173 121.507 179.694C122.223 178.129 123.853 176.326 126.495 174.178C127.226 173.583 128.216 172.718 128.693 172.256C129.744 171.238 129.889 171.2 132.58 171.22C138.621 171.261 144.79 176.041 146.668 182.134C147.163 183.741 147.109 183.823 144.457 185.54C141.163 187.672 140.467 188.758 140.876 191.119C141.509 194.769 139.863 195.896 135.534 194.777C132.649 194.031 131.325 194.199 130.386 195.433C129.987 195.956 129.822 195.969 128.936 195.552ZM138.331 193.458C140.482 192.092 140.858 188.966 139.162 186.551C136.35 182.548 133.456 186.489 135.137 192.035C135.646 193.714 136.987 194.312 138.331 193.458ZM131.117 193.055C133.455 191.851 133.847 187.254 131.797 185.093C130.571 183.801 128.772 185.668 128.448 188.567C128.38 189.18 128.265 189.933 128.195 190.242C127.559 192.997 128.838 194.229 131.117 193.055ZM127.03 183.842C129.435 182.521 131.454 182.442 136.763 183.464C143.797 184.817 146.612 182.774 143.103 178.866C141.667 177.266 140.164 177.093 134.942 177.925C131.457 178.48 128.454 178.528 127.181 178.046C125.633 177.46 124.66 177.664 123.466 178.824C121.423 180.808 122.789 183.793 126.007 184.376C126.029 184.38 126.489 184.14 127.03 183.842ZM111.312 177.218C101.84 175.612 95.3735 165.074 99.1622 157.416C100.732 154.243 102.228 154.415 100.938 157.619C96.7548 168.011 109.601 179.671 119.705 174.653C129.578 169.749 130.844 158.071 122.053 152.993C121.533 152.692 120.774 152.25 120.365 152.009C116.672 149.83 113.121 149.942 105.992 152.462C103.725 153.262 103.454 153.343 103.124 153.311C102.828 153.284 102.937 153.105 103.8 152.211C111.724 143.993 128.873 149.874 129.939 161.176C130.873 171.071 121.692 178.976 111.312 177.218ZM150.597 176.183C138.678 174.978 131.483 163.531 137.072 154.665C144.516 142.859 161.662 144.415 166.588 157.345C170.248 166.949 161.477 177.282 150.597 176.183ZM156.133 173.367C164.706 171.66 168.183 162.22 162.977 154.79C155.064 143.497 135.587 150.065 137.917 163.239C139.311 171.114 146.731 175.241 156.133 173.367ZM142.285 166.943C138.542 166.199 137.856 161.607 141.012 158.424C143.796 155.617 147.753 157.236 149.042 161.709C149.444 163.102 149.195 163.297 147.133 163.195C144.756 163.078 144.567 163.295 146.066 164.421C147.253 165.313 147.608 165.767 147.356 166.071C146.739 166.817 144.01 167.286 142.285 166.943ZM104.298 167.622C100.711 167.013 100.031 163.768 102.861 160.767C105.051 158.447 107.503 158.224 109.438 160.168C113.384 164.135 110.279 168.636 104.298 167.622ZM75.2882 71.6088C75.2882 71.5079 75.4915 71.1581 75.7402 70.8316C76.362 70.0145 76.6378 69.4443 76.6378 68.9749C76.6378 68.6748 76.7122 68.5592 76.9415 68.5031C83.3945 66.9236 89.859 65.9973 95.0602 65.9073C126.743 65.3585 133.442 65.1497 142.364 64.4329C144.739 64.2422 144.783 64.2527 145.343 65.1375C146.79 67.4227 144.598 68.2142 136.966 68.1632C124.774 68.0814 125.614 68.1205 122.489 67.4909C118.375 66.6622 117.084 66.7191 115.824 67.7846C115.399 68.1441 115.399 68.1441 113.995 67.6736C110.508 66.5049 107.043 66.4826 99.514 67.5798C96.916 67.9584 93.9678 68.3286 92.9626 68.4024C89.4607 68.6595 85.6508 69.3675 79.7517 70.8572C75.945 71.8185 75.2882 71.9291 75.2882 71.6088Z" fill="#1B6F95"/>
<path d="M129.678 222.906C112.029 221.93 103.256 220.445 94.557 216.958C91.0077 215.535 91.0705 215.577 90.7001 214.389C88.5943 207.635 85.8891 196.57 83.7158 185.825C82.4506 179.568 81.9878 177.489 79.5886 167.285C73.6434 141.998 71.8613 129.034 74.3302 129.034C74.9146 129.034 75.0867 129.534 76.1666 134.372C80.518 153.871 85.295 171.793 89.1825 183.203C90.2834 186.434 90.1177 186.189 91.1486 186.107C92.2423 186.018 92.2333 185.998 91.6758 187.264C90.6867 189.51 91.2994 191.042 94.2608 193.731C95.928 195.243 95.9225 195.418 94.2154 195.167C92.8637 194.97 92.8856 194.948 93.2227 196.164C93.3741 196.71 93.806 198.555 94.1826 200.265C96.6971 211.683 98.9719 215.436 104.006 216.475C119.009 219.569 137.835 220.087 161.124 218.046C169.21 217.337 176.629 214.073 178.465 210.417C178.87 209.611 178.852 209.578 177.962 209.466C176.566 209.291 176.584 209.187 178.13 208.521C180.439 207.523 181.157 206.763 181.184 205.285C181.196 204.613 181.328 203.916 181.614 203.024C182.522 200.182 182.736 197.458 182.477 192.02C182.279 187.881 182.328 186.214 182.704 184.379C183.345 181.254 183.664 178.455 184.277 170.597C184.466 168.179 184.797 164.865 185.013 163.23C185.428 160.097 185.629 157.796 185.753 154.782C186.105 146.288 186.362 143.256 186.984 140.262C187.153 139.449 187.266 139.233 187.839 138.626C189.102 137.289 189.058 136.593 187.576 134.341C185.819 131.671 185.819 130.714 187.575 128.791C188.393 127.895 188.441 126.306 187.851 119.647C187.414 114.712 187.412 111.501 187.846 111.396C188.031 111.352 188.254 111.171 188.342 110.994C188.43 110.817 188.598 110.619 188.714 110.554C188.862 110.472 188.927 110.236 188.927 109.78C188.927 109.172 188.957 109.113 189.331 108.982C189.555 108.904 189.736 108.745 189.736 108.628C189.736 108.511 189.88 108.349 190.057 108.269C190.442 108.093 190.752 107.254 190.64 106.692C190.558 106.283 190.732 105.513 191.197 104.231C191.413 103.637 191.487 102.983 191.562 100.987C191.664 98.2556 191.76 97.3846 192.122 95.851C192.412 94.621 192.419 86.4187 192.133 83.2132C191.954 81.2126 188.268 80.4613 185.54 81.869C185.089 82.1014 174.162 83.3986 165.713 84.2228C157.191 85.0542 146.442 85.843 140.611 86.0667C139.311 86.1164 138.135 86.1994 137.994 86.2496C137.855 86.2998 137.43 86.2548 137.05 86.1494C135.78 85.7981 135.285 85.7357 134.368 85.8122C133.499 85.8845 133.457 85.8744 133.457 85.5938C133.457 85.147 134.753 85.2101 112.268 84.5623C91.7409 83.9708 79.3175 83.2767 68.6075 82.123C62.9276 81.5112 62.9944 81.5077 63.5421 82.3952C63.9214 83.0096 64.622 83.6111 65.4458 84.0292C66.2591 84.4418 66.2165 84.571 65.2269 84.6949C64.2534 84.8167 64.2644 84.7512 64.757 87.4931C66.5328 97.376 69.2068 99.6365 74.7603 95.9502C76.5995 94.7294 84.8278 93.2989 93.5756 92.6792C99.0518 92.2911 108.115 91.9453 107.929 92.1312C107.745 92.316 102.626 92.9376 95.1277 93.6859C88.574 94.3399 84.3877 94.9261 81.429 95.6041C80.761 95.7573 79.6877 95.9297 79.0441 95.9873C71.1779 96.6914 68.179 105.539 75.6114 106.115C76.4358 106.179 77.2013 106.268 77.3126 106.312C77.424 106.356 78.3145 106.54 79.2916 106.72C81.8061 107.184 82.0662 107.375 80.8743 107.887C80.1486 108.198 80.1486 108.196 80.8554 108.653C81.7644 109.241 81.1697 109.191 78.7276 108.475C71.9129 106.476 70.4595 106.329 72.1319 107.809C72.9213 108.508 72.881 108.613 71.9299 108.333C71.4334 108.188 71.1701 108.166 71.0728 108.264C70.9242 108.412 71.2702 111.097 72.2515 117.409C72.5861 119.562 71.3206 116.374 70.827 113.821C69.2876 105.859 66.8528 98.272 66.1845 99.355C65.8736 99.8588 66.7764 104.483 68.1412 109.376C69.5318 114.363 70.1596 117.447 70.1596 119.291C70.1596 122.373 67.151 110.3 65.7159 101.46C65.4142 99.6017 64.8365 96.0436 64.4321 93.5532C63.5644 88.2104 62.9404 85.0308 62.1246 81.794C61.3349 78.6604 61.3687 78.7791 61.2033 78.5684C60.6655 77.8834 61.2404 76.0004 62.3889 74.6856C65.1725 71.4988 72.319 69.4834 72.319 71.8853C72.319 72.9446 70.8032 73.67 66.8531 74.5015C63.1501 75.2808 62.824 75.9316 65.0089 78.1822C65.7135 78.9081 66.002 79.0172 69.3498 79.8237C76.0721 81.443 82.9744 82.1472 95.2627 82.4672C98.1947 82.5436 102.598 82.6683 105.047 82.7444C117.695 83.137 131.941 83.2584 136.022 83.0085C141.217 82.6902 142.188 82.6805 142.764 82.9404C143.232 83.1516 143.379 83.1613 143.902 83.0145C144.232 82.9219 144.578 82.8924 144.67 82.9492C144.76 83.0058 145.388 83.1026 146.063 83.1641C146.738 83.2256 147.577 83.3133 147.927 83.3591C148.582 83.4448 149.616 83.1662 150.073 82.7809C150.244 82.6357 150.374 82.6314 150.683 82.7545C151.446 83.059 160.766 82.9615 163.824 82.6178C172.657 81.625 183.101 79.2124 186.576 77.362C186.983 77.1452 189.661 76.4956 191.424 76.1851C193.438 75.8304 193.986 75.7009 194.704 75.4167C195.237 75.206 195.46 75.1722 195.573 75.2856C195.948 75.6608 196.021 83.3371 195.672 85.7813C195.598 86.3016 195.415 87.731 195.266 88.9576C195.116 90.1842 194.723 92.5259 194.392 94.1614C193.891 96.6354 193.145 101.055 192.897 103.015C191.796 111.702 191.027 121.206 190.212 136.197C189.212 154.568 188.849 159.764 187.921 169.042C187.743 170.826 187.557 172.924 187.51 173.705C187.176 179.182 186.25 186.858 184.737 196.711C184.288 199.639 184.203 200.519 184.203 202.283C184.203 211.653 180.832 216.81 174.076 217.77C173.523 217.848 172.501 218.094 171.805 218.319C164.556 220.643 153.974 222.11 141.15 222.565C139.925 222.608 138.225 222.7 137.371 222.769C135.118 222.95 131.62 223.012 129.678 222.906ZM129.227 221.139C130.595 220.619 128.409 220.214 121.979 219.796C120.826 219.72 118.839 219.54 117.566 219.394C111.979 218.755 108.494 218.741 109.657 219.366C111.587 220.399 127.405 221.832 129.227 221.139ZM97.0172 214.253C97.0172 211.886 92.4576 196.902 90.8584 194.013C89.0893 190.818 90.7674 200.739 93.013 206.753C94.7488 211.4 97.0172 215.649 97.0172 214.253ZM92.8494 212.843C92.9124 209.641 92.5365 207.885 90.3307 201.075C88.7849 196.304 88.3757 194.865 87.9725 192.781C87.6183 190.95 87.4405 190.753 86.7803 191.458C85.8884 192.408 86.0619 193.908 87.6997 199.408C88.6662 202.654 88.9582 203.86 89.1174 205.266C89.3845 207.624 91.2675 212.784 92.2653 213.892C92.6012 214.263 92.8296 213.854 92.8494 212.843ZM86.5431 188.9C87.104 187.436 86.3662 182.697 84.5795 176.291C83.3902 172.028 82.9698 170.327 82.6547 168.508C82.313 166.534 81.3039 164.713 81.0306 165.575C80.8805 166.048 82.6495 176.018 83.3125 178.436C83.4247 178.844 83.6732 180.426 83.8647 181.95C84.534 187.274 85.8538 190.699 86.5431 188.9ZM116.722 201.456C115.352 201.351 112.131 200.81 108.826 200.131C104.635 199.269 103.101 199.022 100.594 198.807C98.7042 198.643 98.7042 198.643 98.6646 198.237C98.5295 196.857 99.9604 196.855 104.576 198.224C108.083 199.264 109.096 199.515 110.176 199.606C110.696 199.65 111.576 199.803 112.133 199.944C113.217 200.22 115.815 200.589 119.084 200.932C121.905 201.229 122.254 201.289 121.918 201.423C121.657 201.525 117.959 201.548 116.722 201.456ZM128.936 195.311C127.226 194.426 126.651 193.205 126.241 189.584C125.926 186.807 125.661 185.936 124.868 185.055C124.272 184.394 123.299 183.869 122.458 183.753C119.444 183.339 121.379 178.759 126.304 174.646C127.232 173.872 128.393 172.86 128.885 172.401C129.934 171.42 130.252 171.329 132.58 171.357C138.38 171.429 144.457 176.146 146.405 182.095C146.929 183.69 146.956 183.65 144.09 185.512C140.871 187.601 140.164 188.909 140.755 191.673C141.352 194.455 139.289 195.655 135.751 194.582C133.242 193.821 131.17 194.059 130.323 195.208C129.981 195.67 129.675 195.693 128.936 195.311ZM137.871 193.774C141.64 192.197 140.389 184.115 136.489 184.848C134.226 185.274 133.841 192.107 136.001 193.525C136.702 193.985 137.206 194.053 137.871 193.774ZM131.023 193.147C133.541 192.064 133.995 186.899 131.745 184.919C130.662 183.967 128.885 185.498 128.534 187.689C128.498 187.915 128.346 188.84 128.196 189.744C127.601 193.332 128.388 194.279 131.023 193.147ZM127.154 183.852C129.457 182.593 131.486 182.507 136.384 183.457C141.281 184.406 144.658 184.002 144.549 182.48C144.436 180.914 143.762 179.283 142.918 178.541C141.299 177.118 139.943 177.057 133.187 178.105C130.473 178.525 127.707 178.349 126.404 177.673C125.59 177.253 123.612 178.225 122.889 179.402C121.243 182.082 124.387 185.363 127.154 183.852ZM111.807 177.078C101.686 175.486 94.8599 163.816 99.8419 156.626C101.317 154.496 101.886 155 100.89 157.555C96.6604 168.398 109.624 179.846 120.099 174.516C130.055 169.45 130.766 157.68 121.425 152.538C120.805 152.196 119.994 151.742 119.623 151.528C116.514 149.736 112.568 150.039 105.34 152.627C102.884 153.506 102.826 153.475 104.272 152.054C109.532 146.879 120.005 147.62 125.917 153.585C135.523 163.277 125.9 179.298 111.807 177.078ZM151.002 175.984C139.692 175.023 132.223 164.626 136.596 155.931C143.401 142.4 162.751 144.506 166.965 159.235C169.342 167.542 160.525 176.794 151.002 175.984ZM153.055 173.68C164.703 174.015 169.744 160.921 161.189 152.552C155.069 146.565 142.886 148.381 139.002 155.858C134.823 163.9 141.401 174.342 150.26 173.731C151.002 173.681 152.26 173.657 153.055 173.68ZM141.863 166.751C138.965 165.844 138.21 162.621 140.18 159.569C142.715 155.639 147.199 156.553 148.843 161.336C149.423 163.024 149.242 163.231 147.297 163.099C144.852 162.931 144.388 163.292 145.772 164.283C147.404 165.451 147.696 165.954 146.96 166.335C145.861 166.905 143.079 167.131 141.863 166.751ZM105.182 167.629C101.559 167.273 100.302 165.366 101.75 162.42C103.417 159.029 107.186 157.927 109.416 160.177C113.059 163.852 110.611 168.161 105.182 167.629ZM75.3638 71.6698C75.3224 71.6028 75.5594 71.1867 75.8906 70.7456C76.5355 69.8864 76.7728 69.3898 76.7728 68.8986C76.7728 68.6052 76.9299 68.5589 80.1806 67.892C89.3564 66.0098 88.0454 66.1057 109.973 65.7155C126.698 65.4179 135.525 65.0844 142.766 64.4763C144.736 64.3109 145.255 64.5487 145.587 65.769C146.133 67.7719 144.545 68.0802 133.862 68.0458C124.779 68.0167 126.225 68.126 120.635 67.0468C118.296 66.5951 116.667 66.8256 115.858 67.7225C115.531 68.0841 115.404 68.0799 114.273 67.6714C112.25 66.9407 110.824 66.7381 107.746 66.7441C104.798 66.7499 104.437 66.7867 98.0969 67.7247C96.5751 67.9497 94.5103 68.1982 93.5082 68.2766C89.1595 68.617 84.651 69.4738 77.8677 71.2485C75.6447 71.8301 75.4799 71.8578 75.3638 71.6698Z" fill="#0C0E0E"/>
</svg>