<svg width="256" height="256" title="GitBook" viewBox="0 0 256 256" fill="none" xmlns="http://www.w3.org/2000/svg" id="gitbook">
<style>
#gitbook {
    rect {fill: #15191C}
    path {fill: #F4F2ED}

    @media (prefers-color-scheme: light) {
        rect {fill: #F4F2ED}
        path {fill: #15191C}
    }
}
</style>
<rect width="256" height="256" rx="40" fill="#15191C"/>
<path d="M116.283 132.306C123.861 136.68 127.65 138.867 131.812 138.871C135.973 138.874 139.766 136.694 147.352 132.333L195.708 104.537C197.891 103.282 199.237 100.956 199.237 98.4379C199.237 95.9198 197.891 93.5939 195.708 92.3391L147.334 64.5323C139.757 60.1763 135.968 57.9984 131.81 58C127.653 58.0016 123.866 60.1825 116.291 64.5444L74.7062 88.4919C74.3979 88.6695 74.2438 88.7583 74.1002 88.8424C59.895 97.1581 51.1185 112.34 51.0012 128.8C51 128.966 51 129.144 51 129.5C51 129.855 51 130.032 51.0012 130.199C51.1183 146.64 59.8751 161.807 74.055 170.13C74.1983 170.214 74.3523 170.303 74.6599 170.48L100.709 185.52C115.888 194.284 123.477 198.666 131.811 198.669C140.145 198.671 147.738 194.295 162.922 185.541L190.42 169.689C198.024 165.306 201.825 163.115 203.913 159.502C206 155.889 206 151.501 206 142.725V125.771C206 123.336 204.682 121.093 202.554 119.908C200.496 118.762 197.987 118.779 195.945 119.953L139.559 152.365C135.776 154.539 133.885 155.627 131.809 155.628C129.733 155.628 127.841 154.542 124.057 152.37L85.8938 130.463C83.9822 129.366 83.0263 128.817 82.2586 128.718C80.5083 128.492 78.8253 129.473 78.1586 131.107C77.8662 131.823 77.8721 132.926 77.8839 135.13C77.8926 136.752 77.897 137.564 78.0486 138.31C78.3884 139.982 79.2675 141.495 80.5514 142.617C81.1246 143.119 81.8272 143.524 83.2329 144.336L124.035 167.885C127.83 170.075 129.727 171.17 131.81 171.171C133.893 171.171 135.791 170.077 139.586 167.89L189.598 139.061C190.894 138.313 191.543 137.94 192.029 138.221C192.514 138.502 192.514 139.25 192.514 140.746V148.436C192.514 150.63 192.514 151.727 191.993 152.63C191.471 153.533 190.52 154.081 188.619 155.177L147.37 178.955C139.775 183.333 135.978 185.521 131.811 185.519C127.643 185.517 123.848 183.325 116.258 178.941L77.6647 156.647C77.5422 156.576 77.4809 156.541 77.4238 156.508C69.3319 151.779 64.3388 143.129 64.292 133.757C64.2917 133.69 64.2917 133.62 64.2917 133.478V126.419C64.2917 121.245 67.0472 116.463 71.5234 113.869C75.4788 111.576 80.3576 111.571 84.3172 113.857L116.283 132.306Z" fill="#F4F2ED"/>
</svg>