<svg width="256" height="256" title="Git Bash" viewBox="0 0 256 256" fill="none" xmlns="http://www.w3.org/2000/svg" id="gitbash">
<style>
#gitbash {
    rect {fill: #15191C}

    @media (prefers-color-scheme: light) {
        rect {fill: #F4F2ED}
    }
}
</style>
<rect width="256" height="256" rx="40" fill="#15191C"/>
<path d="M122.936 104.503V120.433L84.6462 82.2252L97.3628 69.5315L116.679 88.8259C116.161 90.2189 115.898 91.6938 115.904 93.1798C115.896 95.535 116.552 97.8449 117.795 99.8467C119.038 101.848 120.819 103.462 122.936 104.503ZM134.673 106.8L140.625 112.741L134.673 118.694V106.8ZM171.094 82.3521L148.089 105.29L140.345 97.5845C141.051 95.693 141.286 93.6589 141.032 91.6565C140.644 88.7171 139.237 86.0059 137.056 83.9934C134.875 81.9809 132.057 80.7939 129.091 80.6385C127.407 80.55 125.723 80.8093 124.144 81.4001L104.815 62.0422L121.194 45.7436C122.063 44.8739 123.096 44.1839 124.233 43.7131C125.369 43.2423 126.588 43 127.819 43C129.05 43 130.269 43.2423 131.405 43.7131C132.542 44.1839 133.575 44.8739 134.444 45.7436L171.094 82.3521Z" fill="#FF8080"/>
<path d="M115.331 135.069L80.5388 169.799L46.0133 135.665C44.0602 133.638 42.9789 130.928 43.0003 128.115C43.0217 125.302 44.1441 122.609 46.1277 120.611L81.7341 85.0685L115.331 118.719C117.499 120.89 118.717 123.829 118.717 126.894C118.717 129.959 117.499 132.899 115.331 135.069Z" fill="#80B3FF"/>
<path d="M134.737 139.207V153.792C136.856 155.05 138.536 156.928 139.551 159.171C140.565 161.415 140.865 163.915 140.408 166.333C139.99 168.693 138.864 170.87 137.18 172.577C135.495 174.284 133.33 175.44 130.973 175.892C128.113 176.515 125.123 176.078 122.562 174.661C120.002 173.244 118.046 170.944 117.061 168.192C116.076 165.44 116.129 162.424 117.211 159.708C118.292 156.993 120.327 154.763 122.936 153.437V137.316C122.914 137.086 122.831 136.867 122.694 136.681C122.557 136.496 122.372 136.351 122.159 136.262C121.946 136.174 121.713 136.144 121.485 136.178C121.256 136.211 121.041 136.306 120.863 136.452L84.4046 172.832L121.919 210.279C123.666 212.021 126.035 213 128.506 213C130.976 213 133.345 212.021 135.093 210.279L170.483 175.016L134.737 139.207Z" fill="#FFE680"/>
<path d="M209.18 137.506L175.43 171.208L139.086 134.929C137.047 132.892 135.901 130.13 135.901 127.25C135.901 124.37 137.047 121.607 139.086 119.57L143.27 115.356L152.54 124.584C151.546 127.277 151.504 130.229 152.42 132.949C153.337 135.67 155.157 137.996 157.579 139.543C160.001 141.09 162.88 141.764 165.739 141.455C168.597 141.145 171.264 139.87 173.297 137.84C175.331 135.81 176.608 133.148 176.919 130.295C177.229 127.441 176.553 124.568 175.004 122.15C173.454 119.732 171.123 117.915 168.398 117.001C165.672 116.086 162.716 116.128 160.017 117.12L150.798 107.93L174.374 84.4085L209.18 119.164C210.39 120.366 211.351 121.795 212.007 123.369C212.662 124.943 213 126.63 213 128.335C213 130.039 212.662 131.727 212.007 133.301C211.351 134.875 210.39 136.304 209.18 137.506Z" fill="#8DD35F"/>
</svg>