<svg width="256" height="256" title="Gitea" viewBox="0 0 256 256" fill="none" xmlns="http://www.w3.org/2000/svg" id="gitea">
<style>
#gitea {
    rect {fill: #15191C}

    @media (prefers-color-scheme: light) {
        rect {fill: #F4F2ED}
    }
}
</style>
<rect width="256" height="256" rx="40" fill="#15191C"/>
<path d="M139.53 176.25L105.212 159.754C101.832 158.131 100.372 154.021 102.021 150.613L118.518 116.296C120.14 112.916 124.251 111.455 127.658 113.105C132.309 115.349 134.987 116.62 134.987 116.62L134.96 87.0896L139.476 87.0626L139.503 118.73C139.503 118.73 155.025 125.274 161.975 129.574C162.976 130.196 164.734 131.413 165.464 133.468C166.032 135.118 166.005 137.011 165.193 138.687L148.697 173.005C147.021 176.439 142.91 177.9 139.53 176.25Z" fill="white"/>
<path d="M200.863 85.8186C199.754 84.7099 198.267 84.7369 198.267 84.7369C198.267 84.7369 166.573 86.5217 150.158 86.9003C146.561 86.9815 142.991 87.0626 139.449 87.0896C139.449 97.6634 139.449 108.237 139.449 118.784C137.961 118.081 136.447 117.351 134.96 116.647C134.96 106.804 134.933 87.1167 134.933 87.1167C127.09 87.2249 110.81 86.5217 110.81 86.5217C110.81 86.5217 72.5717 84.6017 68.4071 84.2231C65.7569 84.0608 62.3224 83.6552 57.8604 84.6287C55.5076 85.1155 48.801 86.6299 43.3113 91.9033C31.142 102.747 34.252 120.001 34.6306 122.597C35.0903 125.761 36.4965 134.55 43.2031 142.203C55.5888 157.374 82.253 157.023 82.253 157.023C82.253 157.023 85.5252 164.838 90.5281 172.031C97.2889 180.982 104.239 187.96 111 188.798C128.037 188.798 162.084 188.771 162.084 188.771C162.084 188.771 165.329 188.798 169.737 185.985C173.523 183.687 176.903 179.657 176.903 179.657C176.903 179.657 180.392 175.925 185.259 167.407C186.747 164.784 187.991 162.242 189.072 159.835C189.072 159.835 204 128.168 204 97.3389C203.703 88.0091 201.404 86.3595 200.863 85.8186ZM66.433 141.013C59.4289 138.714 56.4541 135.956 56.4541 135.956C56.4541 135.956 51.289 132.332 48.6928 125.193C44.2308 113.24 48.3142 105.939 48.3142 105.939C48.3142 105.939 50.5858 99.8539 58.7257 97.8257C62.4577 96.8251 67.109 96.9873 67.109 96.9873C67.109 96.9873 69.0291 113.051 71.3548 122.462C73.3018 130.358 78.0614 143.474 78.0614 143.474C78.0614 143.474 71.0032 142.636 66.433 141.013ZM147.643 170.111C147.643 170.111 145.993 174.032 142.342 174.276C140.774 174.384 139.557 173.951 139.557 173.951C139.557 173.951 139.476 173.924 138.124 173.383L107.592 158.51C107.592 158.51 104.645 156.968 104.131 154.291C103.536 152.101 104.861 149.396 104.861 149.396L119.545 119.135C119.545 119.135 120.843 116.512 122.844 115.62C123.007 115.539 123.466 115.349 124.061 115.214C126.252 114.646 128.929 115.971 128.929 115.971L158.865 130.493C158.865 130.493 162.273 132.035 163.003 134.874C163.517 136.876 162.868 138.66 162.516 139.526C160.813 143.69 147.643 170.111 147.643 170.111Z" fill="#609926"/>
<path d="M120.843 148.098C118.626 148.125 116.679 149.667 116.165 151.83C115.651 153.994 116.706 156.238 118.626 157.239C120.708 158.321 123.358 157.726 124.764 155.779C126.144 153.858 125.927 151.208 124.278 149.532L130.768 136.254C131.174 136.281 131.769 136.308 132.445 136.118C133.553 135.875 134.365 135.145 134.365 135.145C135.5 135.632 136.69 136.172 137.934 136.794C139.232 137.443 140.449 138.12 141.558 138.769C141.801 138.904 142.045 139.066 142.315 139.282C142.748 139.634 143.235 140.121 143.586 140.77C144.1 142.257 143.072 144.799 143.072 144.799C142.45 146.854 138.097 155.779 138.097 155.779C135.906 155.724 133.959 157.131 133.31 159.159C132.607 161.349 133.607 163.837 135.717 164.919C137.826 166.001 140.422 165.379 141.801 163.486C143.154 161.647 143.045 159.078 141.504 157.374C142.018 156.373 142.505 155.373 143.018 154.318C144.37 151.506 146.669 146.097 146.669 146.097C146.913 145.637 148.211 143.312 147.399 140.337C146.723 137.254 143.992 135.821 143.992 135.821C140.693 133.685 136.095 131.71 136.095 131.71C136.095 131.71 136.095 130.602 135.798 129.79C135.5 128.952 135.041 128.411 134.743 128.087C136.014 125.463 137.285 122.867 138.556 120.244C137.448 119.703 136.366 119.162 135.257 118.595C133.959 121.245 132.634 123.922 131.336 126.572C129.524 126.545 127.847 127.519 126.982 129.114C126.062 130.818 126.252 132.927 127.496 134.469C125.278 139.012 123.061 143.555 120.843 148.098Z" fill="#609926"/>
</svg>