<svg width="256" height="256" title="GitHub Pages" viewBox="0 0 256 256" fill="none" xmlns="http://www.w3.org/2000/svg" id="githubpages">
<style>
#githubpages {
    rect {fill: #15191C}
    path.githubpages {fill: white}

    @media (prefers-color-scheme: light) {
        rect {fill: #F4F2ED}
        path.githubpages {fill: black}
    }
}
</style>
<rect width="256" height="256" rx="40" fill="#15191C"/>
<path fill-rule="evenodd" clip-rule="evenodd" d="M122.115 67.2571C115.628 68.1797 109.286 70.6404 104.307 74.1667C101.682 76.0259 97.0228 80.5833 95.2241 83.0515C87.9257 93.0668 85.6252 105.782 88.9114 117.942C92.0828 129.677 101.138 139.763 112.669 144.402C115.152 145.401 116.169 145.475 116.87 144.708C117.644 143.861 117.718 143.287 117.536 139.507L117.365 135.969H113.482C109.789 135.969 109.532 135.938 108.246 135.334C106.09 134.321 105.127 133.272 103.706 130.387C102.442 127.821 101.051 126.126 98.9142 124.549C98.3871 124.16 98.1632 123.813 98.2128 123.464C98.2744 123.031 98.4747 122.938 99.4895 122.872C101.977 122.711 103.462 123.663 106.103 127.11C107.805 129.333 109.398 130.614 111.004 131.052C112.259 131.394 115.343 131.18 116.638 130.662C117.535 130.302 117.625 130.174 118.023 128.704C118.257 127.838 118.807 126.608 119.245 125.97L120.041 124.81L118.069 124.525C114.49 124.007 110.771 122.479 107.858 120.328C105.403 118.516 103.853 115.965 102.797 112C102.263 109.994 102.18 109.17 102.16 105.713C102.139 102.132 102.194 101.567 102.706 100.048C103.337 98.1758 104.109 96.7139 105.29 95.1533C105.953 94.2772 106.04 94.0152 105.854 93.4658C105.094 91.2293 105.158 88.0313 106.026 84.9199L106.413 83.5337L107.524 83.5395C109.728 83.5513 112.212 84.5132 116.069 86.8483L117.484 87.7054L119.198 87.3054C123.859 86.2177 130.605 86.1485 135.114 87.1424L137.523 87.6733L139.086 86.722C142.705 84.52 145.286 83.5337 147.429 83.5337H148.452L148.824 84.7876C149.738 87.8707 149.853 90.6777 149.171 93.2483C148.946 94.0938 148.991 94.2502 149.753 95.2975C152.376 98.9002 153.346 102.823 152.821 107.707C152.25 113.013 150.822 116.673 148.373 119.1C145.741 121.71 141.569 123.702 137.159 124.456C134.769 124.864 134.767 124.865 135.226 125.355C135.896 126.068 136.877 128.334 137.156 129.812C137.29 130.516 137.399 134.012 137.399 137.58V144.067L137.99 144.659C138.832 145.503 139.829 145.419 142.581 144.271C147.392 142.265 151.367 139.647 155.173 135.976C161.325 130.042 165.368 122.457 166.935 113.91C167.459 111.048 167.521 103.587 167.042 100.892C165.195 90.4966 160.933 82.8714 153.284 76.2798C148.053 71.7721 141.666 68.8027 134.39 67.497C131.354 66.9519 125.118 66.8301 122.115 67.2571ZM45.7544 155.483C40.5299 156.679 38.0254 160.833 38.0002 168.344C37.9766 175.337 40.5429 179.456 45.63 180.589C48.9446 181.328 53.8509 180.807 55.9878 179.489L56.7739 179.004L56.7099 172.675L56.6456 166.345H52.3131H47.9806L47.9115 168.564L47.8424 170.784L49.5964 170.855L51.3503 170.926V173.337V175.747L49.1841 175.808C47.3052 175.861 46.8907 175.797 46.0606 175.322C44.2207 174.269 43.1007 170.877 43.3756 167.189C43.7448 162.236 45.6543 160.188 49.8898 160.203C50.693 160.205 52.0544 160.358 52.9149 160.541C53.7753 160.725 54.5646 160.795 54.6688 160.696C54.7728 160.598 55.0638 159.659 55.3153 158.61C55.6679 157.139 55.7072 156.638 55.4872 156.421C54.4801 155.432 48.4981 154.855 45.7544 155.483ZM141.651 156.019C141.563 156.107 141.491 161.7 141.491 168.448V180.717L142.514 180.643L143.537 180.569L143.602 175.687L143.667 170.805H146.747C151.54 170.805 153.446 170.306 155.188 168.596C156.327 167.478 156.954 165.93 157.084 163.915C157.232 161.627 156.714 159.884 155.465 158.462C154.261 157.092 152.659 156.386 150.083 156.089C147.819 155.828 141.891 155.779 141.651 156.019ZM80.3542 168.274V180.448H83.0018H85.6495V175.265V170.082H89.1395H92.6296V175.265V180.448H95.2773H97.9249V168.274V156.099H95.2773H92.6296V160.686V165.274L89.1997 165.207L85.7698 165.14L85.7043 160.619L85.6389 156.099H82.9965H80.3542V168.274ZM118.384 168.266V180.448H120.281C121.973 180.448 122.193 180.396 122.304 179.969C122.426 179.503 122.469 179.508 123.837 180.137C124.918 180.634 125.726 180.808 127.327 180.886C129.17 180.976 129.562 180.917 130.739 180.378C133.161 179.267 134.113 176.922 134.136 172.011C134.153 168.26 133.731 166.674 132.302 165.121C130.512 163.177 127.29 162.801 124.107 164.165C123.724 164.329 123.686 164.022 123.625 160.281L123.559 156.22L120.972 156.151L118.384 156.083V168.266ZM60.6891 157.04C59.2182 157.964 58.7825 159.674 59.6536 161.105C60.7168 162.851 62.865 163.041 64.2093 161.508C64.8004 160.833 64.9496 160.445 64.9496 159.583C64.9496 157.358 62.5054 155.899 60.6891 157.04ZM143.838 158.163C143.738 158.266 143.657 160.664 143.657 163.492V168.635L147.087 168.634C151.193 168.633 152.149 168.408 153.326 167.172C155.513 164.876 154.956 160.204 152.323 158.76C151.338 158.22 150.913 158.158 147.629 158.072C145.643 158.02 143.937 158.061 143.838 158.163ZM69.1584 159.294C69.0988 159.459 69.021 160.567 68.9856 161.754L68.9211 163.914L67.5973 164.297L66.2735 164.68V166.356V168.033L67.5973 168.153L68.9211 168.274L69.0415 172.854C69.1452 176.8 69.2285 177.568 69.6432 178.396C70.191 179.49 71.3098 180.326 72.7484 180.718C73.7273 180.985 77.1931 180.887 77.6909 180.579C77.8374 180.488 77.9472 179.599 77.9472 178.506V176.591H76.6771C74.3965 176.591 74.3368 176.474 74.3368 171.997V168.153H76.1514H77.966L77.8964 166.044L77.8269 163.934L76.1003 163.864L74.3738 163.793L74.2039 161.393L74.034 158.992H71.6506C69.9621 158.992 69.2355 159.08 69.1584 159.294ZM59.5819 163.967C59.4895 164.059 59.4136 167.806 59.4136 172.292V180.448H62.0644H64.7152L64.6519 172.191L64.5886 163.934L62.1694 163.866C60.839 163.829 59.6746 163.874 59.5819 163.967ZM100.432 164.411C100.347 164.749 100.322 167.709 100.376 170.989C100.465 176.361 100.523 177.061 100.968 178.046C101.555 179.344 102.655 180.336 103.89 180.679C105.52 181.132 108.237 180.976 110.08 180.324C112.061 179.623 112.126 179.615 112.126 180.087C112.126 180.376 112.487 180.448 113.931 180.448H115.736V172.131V163.814H113.235C111.176 163.814 110.708 163.881 110.587 164.195C110.507 164.405 110.441 167.114 110.441 170.216V175.856L109.731 176.223C108.839 176.685 107.071 176.699 106.455 176.249C106.021 175.931 105.98 175.492 105.868 169.921L105.748 163.934L103.167 163.866L100.586 163.798L100.432 164.411ZM162.552 164.046C160.6 164.471 160.265 164.695 160.265 165.576C160.265 166.021 160.322 166.443 160.392 166.513C160.462 166.583 161.139 166.494 161.897 166.316C163.893 165.845 166.692 165.888 167.727 166.406C168.66 166.873 169.25 168.169 169.122 169.472L169.05 170.202L165.921 170.477C161.732 170.844 160.475 171.386 159.537 173.227C158.672 174.926 159.012 177.988 160.214 179.32C161.855 181.137 166.432 181.391 168.901 179.801C169.44 179.454 169.503 179.471 169.995 180.088C170.324 180.502 170.69 180.71 170.987 180.653C171.439 180.565 171.457 180.322 171.457 174.418C171.457 171.039 171.372 167.87 171.267 167.377C171.025 166.232 170.103 165.137 168.84 164.49C167.723 163.919 164.259 163.674 162.552 164.046ZM178.66 164.04C177.262 164.376 175.881 165.345 175.24 166.441C174.744 167.288 174.595 167.913 174.513 169.489C174.385 171.931 174.846 173.513 176.02 174.652L176.841 175.449L176.321 176.153C175.65 177.063 175.629 178.528 176.277 179.259C176.597 179.619 176.659 179.829 176.468 179.896C175.684 180.171 174.261 181.453 173.905 182.205C173.683 182.674 173.505 183.629 173.507 184.342C173.513 186.235 174.233 187.364 176.018 188.278C177.398 188.985 177.539 189.007 180.707 188.999C183.549 188.992 184.156 188.918 185.377 188.432C186.927 187.814 188.268 186.758 188.793 185.742C189.672 184.04 189.405 181.632 188.204 180.43C187.369 179.593 186.417 179.338 182.018 178.773C178.407 178.309 178.088 178.178 178.08 177.163C178.074 176.338 178.537 176.168 181.085 176.061C183.815 175.946 185.119 175.447 186.028 174.168C187.117 172.637 187.501 170.1 186.958 168.033C186.487 166.24 186.516 166.159 187.765 165.801C188.732 165.524 188.908 165.382 188.908 164.877C188.908 164.549 188.773 164.239 188.607 164.188C187.99 163.997 179.372 163.869 178.66 164.04ZM195.268 164.025C193.204 164.563 191.751 165.946 190.932 168.153C190.339 169.753 190.325 174.826 190.909 176.513C191.534 178.317 192.537 179.573 193.881 180.236C194.908 180.742 195.358 180.807 197.693 180.783C199.244 180.767 200.79 180.614 201.424 180.412C202.466 180.081 202.51 180.028 202.582 179.032C202.654 178.046 202.63 178.004 202.101 178.174C199.953 178.864 196.302 178.987 195.183 178.408C194.121 177.858 193.308 176.719 193.021 175.381C192.572 173.286 192.114 173.457 198.175 173.457H203.59L203.586 171.83C203.58 169.611 203.002 167.046 202.267 165.984C201.328 164.626 200.039 164.023 197.859 163.92C196.841 163.872 195.675 163.919 195.268 164.025ZM210.046 164.134C207.658 164.812 206.478 166.354 206.48 168.792C206.481 171.493 207.669 172.442 211.83 173.068C214.363 173.449 214.997 173.696 215.407 174.463C215.799 175.196 215.722 176.769 215.26 177.475C214.563 178.54 213.409 178.835 210.57 178.675C209.18 178.597 207.684 178.462 207.245 178.376L206.446 178.219L206.522 179.153C206.592 179.998 206.686 180.115 207.521 180.388C208.028 180.554 209.328 180.757 210.409 180.84C215.33 181.217 218.253 179.097 217.983 175.348C217.799 172.801 216.385 171.749 212.339 171.148C209.373 170.707 208.793 170.334 208.692 168.8C208.601 167.409 208.938 166.761 209.98 166.325C211.034 165.884 214.482 165.88 215.935 166.318C216.545 166.502 217.104 166.592 217.177 166.519C217.25 166.445 217.31 166.018 217.31 165.569C217.31 164.857 217.198 164.707 216.423 164.382C215.208 163.874 211.473 163.728 210.046 164.134ZM178.324 166.292C177.19 166.867 176.632 168.051 176.632 169.884C176.632 172.212 177.063 173.114 178.471 173.737C179.379 174.14 179.927 174.216 181.239 174.122C184.077 173.918 184.936 172.954 184.936 169.972C184.936 167.742 184.521 166.861 183.21 166.312C182.229 165.902 179.12 165.889 178.324 166.292ZM195.407 166.153C194.087 166.632 192.759 168.987 192.759 170.849V171.528H197.003H201.248L201.13 169.877C200.927 167.026 199.845 165.966 197.176 166.003C196.401 166.013 195.605 166.081 195.407 166.153ZM124.807 167.904C123.462 168.333 123.439 168.407 123.439 172.293V175.892L124.273 176.242C125.442 176.731 127.35 176.694 127.997 176.169C129.289 175.121 129.328 169.963 128.057 168.39C127.574 167.793 125.926 167.547 124.807 167.904ZM166.042 172.168C162.667 172.488 161.694 173.154 161.519 175.262C161.383 176.908 161.782 177.938 162.749 178.439C163.794 178.98 166.78 178.777 168.148 178.073L169.171 177.546V174.778V172.011L168.028 172.049C167.399 172.07 166.505 172.124 166.042 172.168ZM178.34 180.76C177.888 180.904 177.103 181.419 176.595 181.903C175.752 182.706 175.67 182.897 175.67 184.046C175.67 185.739 176.435 186.541 178.453 186.961C179.987 187.281 182.879 187.163 184.387 186.72C186.283 186.163 187.461 184.39 187.024 182.751C186.712 181.586 185.908 181.197 183.008 180.81C179.969 180.405 179.466 180.4 178.34 180.76Z" class="githubpages" fill="white"/>
</svg>