<svg width="256" height="256" title="GitKraken" viewBox="0 0 256 256" fill="none" xmlns="http://www.w3.org/2000/svg">
<rect width="256" height="256" rx="40" fill="#179287"/>
<path d="M210.351 86.4097C210.056 85.6557 209.507 85.0282 208.799 84.635C208.091 84.2417 207.268 84.1074 206.471 84.2549C205.675 84.4024 204.955 84.8227 204.435 85.4434C203.915 86.0642 203.627 86.8467 203.621 87.6565C203.621 88.043 203.716 88.5242 203.811 88.9034C219.488 130.539 198.334 176.965 156.706 192.635C150.999 194.784 145.063 196.269 139.017 197.061V159.472C141.423 158.991 143.727 158.32 146.031 157.547V189.179C185.734 179.466 210.154 139.471 200.449 99.768C198.028 89.8098 193.564 80.4633 187.34 72.3208C181.117 64.1783 173.27 57.4175 164.297 52.4668C163.9 52.243 163.462 52.1003 163.009 52.047C162.557 51.9938 162.098 52.0309 161.66 52.1564C161.221 52.282 160.812 52.4933 160.457 52.7781C160.101 53.063 159.805 53.4157 159.586 53.8158C159.363 54.2129 159.22 54.6505 159.167 55.1032C159.113 55.556 159.151 56.0148 159.276 56.453C159.402 56.8912 159.613 57.3002 159.898 57.6561C160.183 58.012 160.535 58.3077 160.935 58.5262C193.332 76.4054 205.057 117.268 187.185 149.665C179.66 163.32 167.58 173.9 153.053 179.561V151.59C155.221 150.904 157.116 149.547 158.463 147.715C159.81 145.883 160.541 143.67 160.549 141.396C160.549 137.554 158.624 134.09 155.262 132.165C157.763 108.037 168.818 114.381 168.818 106.695V102.174C168.818 90.6388 142.094 53.0501 129.588 52.1824H127.284C114.786 53.0501 88.0621 90.6388 88.0621 102.174V106.695C88.0621 114.381 99.0215 108.037 101.617 132.165C100.005 133.106 98.6673 134.453 97.7394 136.074C96.8116 137.694 96.3259 139.529 96.3309 141.396C96.3309 146.107 99.408 150.146 103.827 151.59V179.561C69.512 166.006 52.5953 127.083 66.1433 92.6659C71.864 78.1769 82.4286 66.1177 96.0392 58.5408C96.4479 58.3174 96.8077 58.0146 97.0976 57.6502C97.3875 57.2858 97.6016 56.867 97.7273 56.4186C97.853 55.9702 97.8877 55.5012 97.8295 55.0392C97.7712 54.5772 97.6212 54.1314 97.3882 53.7283C97.0704 53.197 96.6193 52.758 96.0795 52.4549C95.5398 52.1517 94.9301 51.995 94.3111 52.0001C93.7341 52.0097 93.1702 52.1734 92.6778 52.4741C84.1628 57.1647 76.6561 63.4882 70.5873 71.0827C64.5186 78.6773 60.0067 87.3938 57.3099 96.7338C54.6131 106.074 53.7843 115.854 54.8708 125.514C55.9574 135.175 58.938 144.526 63.6422 153.034C68.5929 162.007 75.3537 169.854 83.4962 176.078C91.6387 182.301 100.985 186.765 110.943 189.186V157.635C113.248 158.408 115.559 159.079 117.958 159.56V197.149C73.836 191.293 42.8754 150.817 48.7453 106.695C49.5347 100.649 51.0174 94.713 53.164 89.0055C53.4784 88.1371 53.4436 87.1805 53.0668 86.3373C52.6901 85.4941 52.0008 84.8299 51.1442 84.4846C50.2753 84.1796 49.3225 84.219 48.4817 84.5946C47.6409 84.9703 46.9759 85.6537 46.6234 86.5044C29.6118 131.786 52.4932 182.252 97.7747 199.176C106.525 202.442 115.654 204.273 124.973 204.652V160.245C126.227 160.333 128.538 160.333 128.538 160.333C128.538 160.333 130.843 160.333 132.097 160.238V204.557C180.448 202.537 217.942 161.777 215.922 113.418C215.45 104.184 213.572 95.0765 210.351 86.4097ZM144.587 136.299C145.945 134.959 147.776 134.208 149.684 134.208C151.592 134.208 153.423 134.959 154.781 136.299C156.122 137.657 156.873 139.488 156.873 141.396C156.873 143.304 156.122 145.135 154.781 146.493C153.423 147.834 151.592 148.585 149.684 148.585C147.776 148.585 145.945 147.834 144.587 146.493C143.918 145.824 143.386 145.03 143.024 144.155C142.661 143.281 142.475 142.343 142.475 141.396C142.475 140.45 142.661 139.512 143.024 138.638C143.386 137.763 143.918 136.969 144.587 136.299ZM112.285 146.493C110.947 147.831 109.132 148.582 107.239 148.582C105.347 148.582 103.532 147.831 102.193 146.493C100.853 145.135 100.102 143.304 100.102 141.396C100.102 139.488 100.853 137.657 102.193 136.299C103.551 134.959 105.382 134.208 107.29 134.208C109.198 134.208 111.029 134.959 112.387 136.299C113.055 136.972 113.583 137.771 113.94 138.649C114.297 139.528 114.477 140.468 114.468 141.416C114.459 142.364 114.262 143.301 113.889 144.173C113.515 145.044 112.973 145.833 112.292 146.493H112.285Z" fill="white"/>
</svg>