<svg width="256" height="256" title="GitLocalize" viewBox="0 0 256 256" fill="none" xmlns="http://www.w3.org/2000/svg" id="gitlocalize">
<style>
#gitlocalize {
    rect {fill: #15191C}
    path.gitlocalize {fill: white}

    @media (prefers-color-scheme: light) {
        rect {fill: #F4F2ED}
        path.gitlocalize {fill: black}
    }
}
</style>
<rect width="256" height="256" rx="40" fill="#15191C"/>
<path fill-rule="evenodd" clip-rule="evenodd" d="M77.0431 76.248C74.6942 77.4024 71.4734 80.1611 69.8858 82.379C67.1361 86.2208 66.9786 87.8602 66.5544 116.893L66.1094 147.373L60.1167 151.264C44.1546 161.628 43.9191 185.561 59.673 196.621C64.1574 199.769 66.7535 200.557 73.8874 200.936C85.1543 201.534 92.5472 197.971 98.2314 189.203L102.135 183.182L122.631 183.111C133.903 183.072 139.334 183.041 143.127 183.041C143.127 182.588 138.882 175.695 133.693 168.728L124.258 156.063L112.546 155.609C103.373 155.254 100.068 154.592 97.2957 152.561L93.7587 149.967L93.6767 74.0911L87.4954 74.1209C84.095 74.1365 79.392 75.0937 77.0431 76.248ZM67.8766 166.587C61.4142 173.444 66.1796 184.338 75.6403 184.338C81.6472 184.338 85.8687 179.98 85.8687 173.78C85.8687 164.571 74.1815 159.898 67.8766 166.587Z" fill="#FCCC04"/>
<path fill-rule="evenodd" clip-rule="evenodd" d="M168.503 58.0845C163.269 60.829 157.625 66.1637 155.34 70.5243L153.472 74.0911L93.6767 74.0911L93.6768 101.329H125.95C149.316 101.329 158.653 101.758 159.784 102.885C161.986 105.08 161.986 152.052 159.784 154.247C158.925 155.103 154.826 155.803 150.675 155.803H143.127V183.041H182.4L184.533 182.342L185.6 181.276L187.277 179.623C189.849 176.366 189.975 174.634 189.975 142.692V109.177L193.686 107.265C195.727 106.213 199.208 103.295 201.423 100.781C213.128 87.4945 208.675 66.8005 192.304 58.4075C186.32 55.34 174.055 55.1727 168.503 58.0845ZM174.657 73.6617C172.468 74.5398 169.154 81.0444 169.154 84.4621C169.154 88.488 174.859 93.5464 179.399 93.5464C185.033 93.5464 187.238 92.3791 189.373 88.2649C192.094 83.0211 191.737 79.6203 188.082 75.9782C185.018 72.9237 179.06 71.8965 174.657 73.6617Z" class="gitlocalize" fill="white"/>
</svg>