<svg width="256" height="256" title="GitMind" viewBox="0 0 256 256" fill="none" xmlns="http://www.w3.org/2000/svg" id="gitmind">
<style>
#gitmind {
    rect {fill: #15191C}

    @media (prefers-color-scheme: light) {
        rect {fill: #F4F2ED}
    }
}
</style>
<rect width="256" height="256" rx="40" fill="#15191C"/>
<path d="M212.479 97.2739C207.347 85.7503 165.363 93.2599 118.708 114.044C105.629 119.868 93.5677 126.12 83.0982 132.354C82.843 129.091 82.8942 125.812 83.2468 122.554C83.8399 118.88 84.8172 115.287 86.1749 111.823C87.6539 108.551 89.4666 105.444 91.5871 102.544C93.8928 99.6963 96.4872 97.1018 99.3348 94.7962C102.246 92.667 105.365 90.8459 108.653 89.3606C112.118 87.9985 115.714 87.0168 119.39 86.4282C122.227 86.1222 125.081 86.05 127.932 86.2051C130.174 86.3262 132.781 85.1086 134.339 83.5511C135.909 81.9786 137.093 79.401 136.993 77.1444C136.889 74.8005 136.118 72.3718 134.339 70.7377C132.514 69.0611 130.427 68.2196 127.932 68.0836C110.684 67.1444 93.2234 74.1631 81.3791 86.7321C75.2741 93.2089 70.7267 100.867 67.8623 109.284C64.2797 119.809 63.9482 131.441 66.4598 142.238C66.5236 142.512 66.5895 142.784 66.6575 143.056C49.8598 155.121 40.6546 166.109 43.5169 172.537C46.6044 179.469 63.0323 179.511 85.7926 173.92C89.5219 177.14 93.6399 179.889 98.0511 182.036C106.409 186.107 115.469 188.372 124.792 188.421C134.128 188.47 143.206 186.224 151.602 182.216C155.758 180.231 159.468 177.643 163.077 174.798C166.047 172.456 168.759 169.785 171.147 166.848C177.439 159.107 182.116 150.117 183.996 140.251C184.568 137.246 184.972 134.182 185.146 131.126C185.172 130.676 185.14 130.21 185.065 129.741C204.551 116.517 215.579 104.225 212.483 97.2739H212.479ZM61.513 170.352C60.1169 167.22 63.946 162.05 71.5342 155.884C74.6005 161.77 78.6464 167.174 83.4361 171.774C71.2983 174.224 63.113 173.946 61.513 170.352ZM199.098 110.767C198.941 114.246 194.447 119.352 186.782 125.253C186.44 125.514 186.092 125.782 185.732 126.05C185.573 126.171 185.416 126.29 185.254 126.407C184.917 126.66 184.566 126.915 184.213 127.172C183.75 126.237 183.149 125.381 182.486 124.72C180.915 123.149 178.335 121.965 176.079 122.066C173.735 122.17 171.306 122.941 169.672 124.72C167.994 126.549 167.161 128.629 167.018 131.126C166.967 132.033 166.886 132.937 166.789 133.84C166.198 137.518 165.22 141.116 163.863 144.583C162.377 147.864 160.565 150.977 158.44 153.884C156.134 156.73 153.542 159.32 150.696 161.626C147.781 163.757 144.657 165.58 141.368 167.068C137.915 168.423 134.332 169.403 130.669 169.991C126.912 170.397 123.126 170.393 119.367 169.987C115.682 169.396 112.076 168.412 108.602 167.048C105.333 165.569 102.233 163.759 99.3389 161.64C96.4958 159.337 93.9056 156.744 91.6022 153.901C89.6491 151.232 87.9557 148.389 86.5403 145.4C96.8465 139.001 109.7 132.219 123.967 125.865C144.575 116.685 163.882 110.289 177.764 107.597C188.684 105.478 196.249 105.65 198.444 108.568C198.593 108.763 198.716 108.972 198.814 109.192C199.016 109.647 199.109 110.145 199.094 110.682C199.094 110.71 199.094 110.74 199.094 110.769L199.098 110.767Z" fill="url(#linearGradient1)"/>
<path opacity="0.8" d="M185.13 129.694C184.985 128.825 184.681 127.947 184.273 127.131C184.607 126.887 184.936 126.647 185.257 126.407C185.416 126.287 185.578 126.169 185.735 126.05C186.094 125.782 186.443 125.516 186.785 125.253C195.431 118.625 199.041 113.954 199.101 110.767C199.101 110.737 199.101 110.708 199.101 110.68C199.101 109.885 198.873 109.184 198.451 108.566C190.826 97.4968 118.708 114.044 118.708 114.044C165.365 93.2597 207.348 85.7523 212.48 97.2737C215.573 104.218 204.571 116.487 185.13 129.694Z" fill="url(#linearGradient2)"/>
<path d="M166.776 81.9851L160.558 85.572L156.973 91.7896C156.544 92.5333 155.471 92.5333 155.044 91.7896L151.457 85.572L145.24 81.9851C144.87 81.7727 144.683 81.3965 144.683 81.0226C144.683 80.6486 144.868 80.2724 145.24 80.0557L151.457 76.4731L155.044 70.2555C155.259 69.8858 155.635 69.6988 156.009 69.6988C156.383 69.6988 156.759 69.8858 156.973 70.2555L160.558 76.4731L166.776 80.0557C167.52 80.487 167.52 81.558 166.776 81.9851Z" fill="url(#linearGradient3)"/>
<path d="M162.093 121.753C162.093 121.753 157.244 149.218 132.395 157.208C126.948 158.797 122.046 159.32 117.873 159.19C109.862 158.942 104.532 156.29 103.17 154.158C101.103 150.918 104.29 145.708 118.312 140.115C132.118 134.611 161.166 122.151 162.069 121.764C162.084 121.757 162.093 121.753 162.093 121.753Z" fill="url(#linearGradient4)"/>
<path d="M162.093 121.753C162.093 121.753 157.244 149.218 132.395 157.208C126.948 158.797 122.046 159.32 117.873 159.19C108.666 151.474 160.869 122.433 162.071 121.764C162.086 121.757 162.093 121.753 162.093 121.753Z" fill="url(#linearGradient5)"/>
<linearGradient id="linearGradient1" x1="200.373" y1="89.9577" x2="38.1918" y2="172.303" gradientUnits="userSpaceOnUse">
<stop offset="0.13" stop-color="#FFB91D"/>
<stop offset="0.88" stop-color="#FF5A12"/>
</linearGradient>
<linearGradient id="linearGradient2" x1="204.428" y1="101.893" x2="128.734" y2="130.138" gradientUnits="userSpaceOnUse">
<stop offset="0.04" stop-color="#FFE3C7"/>
<stop offset="0.84" stop-color="#FF9A15"/>
</linearGradient>
<linearGradient id="linearGradient3" x1="156.009" y1="69.1059" x2="156.009" y2="90.9524" gradientUnits="userSpaceOnUse">
<stop offset="0.13" stop-color="#FFB91D"/>
<stop offset="0.88" stop-color="#FF5A12"/>
</linearGradient>
<linearGradient id="linearGradient4" x1="106.685" y1="158.206" x2="158.128" y2="132.202" gradientUnits="userSpaceOnUse">
<stop stop-color="#FFD6A9"/>
<stop offset="0.83" stop-color="#FF791F"/>
</linearGradient>
<linearGradient id="linearGradient5" x1="166.442" y1="116.532" x2="121.217" y2="162.322" gradientUnits="userSpaceOnUse">
<stop offset="0.13" stop-color="#FFB91D"/>
<stop offset="0.88" stop-color="#FF5A12"/>
</linearGradient>
</svg>