<svg width="256" height="256" title="Gitpod" viewBox="0 0 256 256" fill="none" xmlns="http://www.w3.org/2000/svg" id="gitpod">
<style>
#gitpod {
    rect {fill: #15191C}

    @media (prefers-color-scheme: light) {
        rect {fill: #F4F2ED}
    }
}
</style>
<rect width="256" height="256" rx="40" fill="#15191C"/>
<path fill-rule="evenodd" clip-rule="evenodd" d="M142.146 55.968C146.452 63.5484 143.834 73.205 136.298 77.5367L89.4391 104.469C88.1987 105.182 87.4335 106.506 87.4335 107.939V150.23C87.4335 151.664 88.1987 152.987 89.4391 153.7L126.515 175.01C127.744 175.717 129.256 175.717 130.485 175.01L167.561 153.7C168.802 152.987 169.566 151.664 169.566 150.23V123.93L136.223 142.853C128.663 147.143 119.077 144.457 114.812 136.853C110.546 129.249 113.217 119.607 120.777 115.317L168.486 88.2406C183.019 79.993 201 90.5546 201 107.338V153.435C201 164.232 195.248 174.201 185.928 179.558L143.341 204.036C134.145 209.321 122.855 209.321 113.659 204.036L71.0718 179.558C61.7518 174.201 56 164.232 56 153.435V104.734C56 93.9372 61.7518 83.968 71.0718 78.6113L120.702 50.0856C128.239 45.7539 137.839 48.3875 142.146 55.968Z" fill="url(#linearGradient)"/>
<linearGradient id="linearGradient" x1="165.136" y1="72.1954" x2="90.0925" y2="189.489" gradientUnits="userSpaceOnUse">
<stop stop-color="#FFB45B"/>
<stop offset="1" stop-color="#FF8A00"/>
</linearGradient>
</svg>