<svg width="256" height="256" title="Gleam" viewBox="0 0 256 256" fill="none" xmlns="http://www.w3.org/2000/svg" id="gleam">
<style>
#gleam {
    rect {fill: #15191C}

    @media (prefers-color-scheme: light) {
        rect {fill: #F4F2ED}
    }
}
</style>
<rect width="256" height="256" rx="40" fill="#15191C"/>
<path d="M111.002 54.7392C113.337 48.1221 122.018 46.5915 126.476 52.0107L149.838 80.415C152.729 83.9296 157.007 86.0122 161.558 86.123L198.357 87.0184C205.383 87.1892 209.509 94.9576 205.729 100.863L185.894 131.845C184.681 133.739 183.891 135.872 183.577 138.099C183.263 140.326 183.433 142.594 184.076 144.749L194.579 179.985C196.581 186.698 190.467 193.038 183.663 191.269L148.041 182.014C145.864 181.448 143.59 181.357 141.374 181.748C139.16 182.138 137.054 183.001 135.202 184.278L104.894 205.159C99.1044 209.147 91.1912 205.281 90.7753 198.288L88.5952 161.585C88.3254 157.043 86.0904 152.844 82.4734 150.082L53.2378 127.751C47.6655 123.495 48.8861 114.784 55.4295 112.22L89.7035 98.7929C93.9417 97.1324 97.2493 93.7122 98.7635 89.4208L111.002 54.7392Z" fill="#FFAFF3"/>
<path d="M117.394 45.6949C113.242 46.4271 109.447 49.1837 107.876 53.6357L95.6354 88.317C94.442 91.6982 91.839 94.3903 88.4975 95.6995L54.2222 109.128C45.427 112.574 43.7262 124.671 51.2241 130.398L80.4597 152.725C81.8674 153.799 83.0268 155.164 83.8586 156.728C84.6905 158.291 85.1753 160.015 85.28 161.783L87.459 198.485C88.018 207.901 99.0009 213.257 106.784 207.896L106.784 207.896L137.094 187.014V187.014C138.553 186.008 140.212 185.328 141.957 185.02C143.703 184.712 145.495 184.784 147.21 185.23L182.832 194.484C191.979 196.861 200.468 188.07 197.773 179.03V179.031L187.27 143.797C186.764 142.1 186.63 140.314 186.877 138.56C187.124 136.807 187.746 135.127 188.702 133.637V133.636L208.539 102.653L208.538 102.653C213.626 94.707 207.891 83.9214 198.448 83.6917L161.647 82.7977C158.06 82.7106 154.693 81.0712 152.416 78.3023L129.053 49.8989C126.054 46.2531 121.545 44.9609 117.393 45.6932M118.51 52.032C120.397 51.6993 122.458 52.351 123.916 54.1241L147.279 82.5268C150.782 86.7867 155.972 89.3123 161.485 89.4464L198.286 90.3403C202.894 90.4522 205.411 95.2028 202.936 99.0674L183.101 130.05C180.125 134.695 179.321 140.411 180.895 145.696L191.399 180.93C192.706 185.318 188.967 189.206 184.504 188.047L148.881 178.792C143.543 177.405 137.86 178.407 133.319 181.538L103.009 202.419C99.2118 205.035 94.3684 202.66 94.0966 198.09L91.9179 161.388C91.591 155.882 88.8788 150.787 84.4953 147.439L55.2597 125.111C51.6132 122.326 52.3546 117.001 56.6463 115.319L90.9216 101.891C96.0569 99.8785 100.07 95.7302 101.906 90.5285V90.5283L114.146 55.8471C114.91 53.6822 116.623 52.3649 118.51 52.0322" fill="#151515"/>
<path d="M106.729 139.114C110.282 138.487 112.655 135.099 112.028 131.547C111.402 127.993 108.014 125.622 104.461 126.248C100.908 126.875 98.536 130.263 99.1623 133.815C99.7887 137.368 103.177 139.74 106.729 139.114Z" fill="#151515"/>
<path d="M159.36 129.833C162.912 129.207 165.285 125.819 164.658 122.266C164.032 118.714 160.644 116.342 157.091 116.968C153.539 117.595 151.166 120.983 151.792 124.535C152.419 128.088 155.807 130.46 159.36 129.833Z" fill="#151515"/>
<path d="M127.635 137.658C127.227 137.815 126.855 138.051 126.538 138.352C126.222 138.653 125.968 139.014 125.791 139.413C125.614 139.813 125.518 140.243 125.507 140.679C125.496 141.115 125.572 141.55 125.729 141.958C126.14 143.019 126.755 143.99 127.541 144.815C128.326 145.64 129.267 146.301 130.308 146.761L130.309 146.762C131.349 147.223 132.47 147.474 133.608 147.501H133.609H133.61C134.748 147.528 135.879 147.331 136.941 146.921H136.942C138.003 146.511 138.974 145.896 139.798 145.11H139.799V145.109C140.623 144.324 141.284 143.384 141.744 142.344C142.207 141.302 142.458 140.179 142.484 139.04C142.505 138.159 142.175 137.305 141.566 136.667C140.957 136.029 140.12 135.659 139.238 135.638C138.801 135.628 138.367 135.704 137.96 135.861C137.553 136.019 137.18 136.255 136.864 136.557C136.548 136.858 136.295 137.219 136.119 137.619C135.942 138.018 135.846 138.448 135.836 138.885C135.829 139.148 135.771 139.409 135.664 139.65V139.651L135.663 139.652C135.556 139.894 135.402 140.113 135.211 140.296C135.019 140.479 134.793 140.622 134.546 140.716L134.545 140.717C134.297 140.813 134.033 140.859 133.768 140.853C133.504 140.846 133.243 140.787 133.001 140.68H132.999L132.998 140.679C132.757 140.572 132.539 140.419 132.356 140.228V140.227C132.173 140.035 132.03 139.809 131.934 139.562C131.777 139.154 131.541 138.782 131.24 138.466C130.938 138.15 130.578 137.896 130.178 137.719C129.779 137.542 129.349 137.446 128.912 137.435C128.476 137.424 128.042 137.5 127.635 137.658Z" fill="#151515"/>
</svg>