<svg width="256" height="256" title="GNU" viewBox="0 0 256 256" fill="none" xmlns="http://www.w3.org/2000/svg">
<rect width="256" height="256" rx="40" fill="white"/>
<path fill-rule="evenodd" clip-rule="evenodd" d="M78.9303 141.66C77.7749 141.739 76.2707 142.256 75.2616 144.062C74.4378 145.537 72.5078 145.773 71.6068 145.475C70.1057 144.98 68.1872 144.637 66.3288 145.959C64.4704 147.281 62.4636 146.281 62.8155 143.871C63.1675 141.461 64.0393 139.314 66.3533 137.984C71.4071 135.081 67.8947 133.06 70.6685 130.146C73.4477 127.226 72.8337 126.332 72.7415 122.367C63.3484 120.958 58.0247 118.254 52.0801 110.836C46.1354 103.418 43.8309 97.3118 43.2148 88.0116C42.5986 78.7113 43.1327 72.6841 47.156 64.9643C51.1793 57.2445 55.4153 53.5282 62.7561 49.6736C70.0968 45.8196 77.2894 44.8965 83.9377 45.0089C90.586 45.121 95.0159 45.6074 98.7724 47.748C102.529 49.8886 105.965 52.5823 108.156 52.6017C110.347 52.621 111.838 52.0479 112.903 51.233C113.187 58.4422 106.691 59.0684 100.879 59.2208C95.0661 59.3729 91.4946 56.9717 86.1414 57.8649C80.7881 58.7582 72.0233 61.1912 67.7536 68.6138C63.4839 76.0364 63.3382 78.6602 63.6931 84.8847C64.0479 91.1095 69.4123 95.7536 72.4404 95.8041C75.4682 95.8546 76.1442 94.9788 78.7946 93.2523C81.4453 91.5255 94.9768 74.796 99.594 71.0382C104.212 67.2804 108.768 66.1201 113.688 66.0598C118.608 65.9994 119.865 66.1662 123.833 67.7904C127.801 69.4143 130.239 72.4052 133.438 74.2337C135.074 73.2725 136.09 71.8372 137.59 70.742C142.956 66.8251 145.744 65.7695 152.122 66.3894C155.787 66.7457 160.409 68.837 163.167 71.2319C168.078 75.4962 172.135 81.433 175.413 85.9431C177.966 89.4554 180.97 93.6578 185.258 94.9715C189.941 96.4052 193.464 90.3484 193.982 86.9887C194.275 85.0851 194.657 83.4167 194.66 81.3216C194.664 79.2261 194.449 76.6832 193.845 74.4994C193.24 72.3157 192.204 70.1427 191.082 68.341C189.257 65.4085 186.269 62.3398 183.162 60.7609C181.417 59.875 177.314 58.2641 174.727 58.2076C171.557 58.139 169.142 59.2024 166.212 59.4018C162.665 59.6435 156.329 60.4399 153.548 57.703C151.778 55.9613 151.556 54.7994 151.253 52.5283C152.035 53.1716 153.129 53.5946 154.102 53.6769C156.323 53.8642 158.403 52.0529 160.196 51.0035C161.672 50.1388 163.764 48.5936 165.704 47.8128C170.688 45.8059 176.81 45.8637 182.072 46.4013C186.289 46.8319 191.757 48.7057 195.455 50.7961C199.171 52.8957 202.752 56.436 205.376 59.7734C208.675 63.9726 210.48 67.5754 211.675 72.8127C213.202 79.5008 213.626 89.5478 211.779 96.1423C210.323 101.339 205.49 109.322 201.376 113.235C197.318 117.094 192.633 118.957 187.305 119.976C187.514 121.05 187.548 122.052 187.824 122.932C188.215 124.182 188.964 125.576 190.503 125.135C191.117 124.959 191.445 124.807 192.254 125.514C193.063 126.221 192.642 128.951 190.367 130.177C189.213 130.798 187.995 130.933 186.147 130.97C184.299 131.007 181.415 131.015 179.409 130.664C177.403 130.313 176.205 128.723 173.983 128.475C170.549 128.091 167.92 125.613 165.167 123.842C164.018 123.102 163.631 123.094 162.969 122.721C163.326 123.814 163.803 124.95 164.041 126.002C164.28 127.053 164.178 128.027 164.304 128.868C164.43 129.709 164.664 130.363 164.8 131.045C165.35 131.536 165.526 132.283 166.45 132.518C167.375 132.753 168.822 132.388 169.768 132.261C170.714 132.134 171.348 131.619 172.09 131.76C172.833 131.901 173.536 132.431 174.159 132.929C174.781 133.427 175.316 133.499 175.819 134.741C176.323 135.983 176.785 138.525 176.854 140.225C176.923 141.924 176.732 143.458 176.228 144.807C175.723 146.155 175.28 146.753 173.915 148.089C172.549 149.425 170.325 151.385 168.106 152.75C168.515 153.355 168.696 153.908 169.333 154.564C169.971 155.22 171.299 155.955 171.89 156.647C172.48 157.339 172.78 157.835 172.789 158.611C172.798 159.387 172.76 160.395 172.129 161.241C170.558 163.347 168.7 163.725 166.441 164.715C166.821 167.085 167.131 168.778 166.582 171.144C166.357 172.108 165.86 174.294 164.669 174.855C163.478 175.415 161.181 175.144 159.728 175.374C158.274 175.605 157.46 175.824 156.327 176.049C155.638 177.043 154.613 178.141 154.262 179.032C153.91 179.923 154.016 180.242 154.311 181.152C154.607 182.063 155.612 183.388 155.897 184.453C156.182 185.519 156.237 186.666 155.972 187.735C155.705 188.803 155.25 189.579 154.338 190.528C153.426 191.477 151.633 192.222 150.739 192.991C149.845 193.761 148.955 193.853 149.199 195.126C149.535 196.874 152.092 199.71 153.943 200.385C155.052 200.79 156.54 200.662 157.887 200.095C157.796 201.588 156.502 202.595 155.657 203.586C157.946 202.932 160.166 201.681 161.702 200.022C161.226 201.463 159.587 203.776 157.136 205.807C154.685 207.838 154.7 207.423 153.482 208.231C155.705 208.677 157.772 208.556 159.494 208.247C158.55 208.767 157.002 209.498 154.953 209.713C152.903 209.928 151.639 209.776 149.792 209.328C147.944 208.88 146.258 207.202 144.019 206.046C144.237 206.876 144.392 207.873 145.334 208.726C146.275 209.579 147.7 210.013 149.214 210.75C147.286 210.532 145.261 210.466 143.367 210.049C141.965 209.74 141.023 209.412 139.997 208.905C138.971 208.397 138.18 207.657 137.271 207.034C137.707 207.864 137.836 208.841 138.577 209.525C139.317 210.21 140.521 210.465 141.495 210.935C140.479 210.913 139.502 211.133 138.449 210.868C137.396 210.604 136.407 210.188 135.312 209.382C134.217 208.576 133.087 207.584 132.152 206.57C131.218 205.555 130.065 204.24 129.716 203.304C129.366 202.368 129.925 201.714 130.03 200.92C129.385 201.343 128.592 201.576 128.096 202.191C127.6 202.805 127.161 203.366 127.38 204.437C127.6 205.508 128.59 206.818 129.29 208.009C127.201 206.303 126.035 205.647 125.538 203.589C125.073 201.663 126.276 199.915 127.191 198.458C127.646 197.735 128.325 197.062 128.75 196.363C127.807 195.442 126.729 194.649 125.92 193.598C125.112 192.547 124.772 191.124 123.947 190.119C123.122 189.113 122.011 188.476 121.045 187.656C121.894 189.479 123.291 191.716 123.595 193.127C123.898 194.538 123.255 195.402 122.753 196.163C122.252 196.925 121.442 197.095 120.674 197.563C119.906 198.031 118.712 197.662 118.255 198.357C117.797 199.052 117.675 200.097 118.112 200.786L119.905 203.613C119.244 203.28 118.106 202.311 117.593 201.624C117.08 200.936 116.293 200.302 116.185 199.372C116.077 198.444 116.025 197.637 116.627 196.81C117.23 195.983 118.88 195.706 119.619 195.07C120.357 194.434 120.771 194.02 120.729 193.198C120.687 192.375 119.883 191.787 119.192 191.269C117.082 189.688 114.375 188.232 112.583 186.326C111.57 185.25 111.085 184.381 110.881 183.638C110.678 182.896 110.893 182.317 111.396 181.403C111.899 180.49 113.624 179.27 113.834 178.278C114.043 177.286 113.172 177.073 112.386 176.723C111.599 176.373 110.106 176.902 109.377 176.293C108.648 175.685 109.591 174.406 108.769 173.704C107.947 173.003 106.067 173.394 105.096 172.64C104.125 171.885 103.724 170.948 103.39 169.853C103.055 168.758 103.017 167.559 103.244 166.766C103.471 165.973 104.152 165.834 104.563 165.424C104.973 165.013 105.33 164.672 104.782 164.059C104.235 163.447 102.441 164.093 101.409 163.307C100.378 162.52 101.009 160.636 100.28 159.842C99.5508 159.048 98.2421 159.359 97.5515 159.105C96.8613 158.851 96.5904 159.747 96.1669 158.331C95.7434 156.915 95.7319 152.695 95.1622 151.12C94.5924 149.544 93.4735 151.013 92.954 149.448C92.4345 147.882 92.927 145.379 92.693 143.015L91.6326 136.583C87.9336 139.064 85.4918 139.844 81.5178 140.545C81.1862 150.256 80.2727 155.974 83.573 166.748C86.8733 177.522 93.5524 183.872 102.563 192.993C90.6731 184.097 84.9968 176.864 81.444 167.599C77.8907 158.333 78.573 150.583 78.9303 141.66ZM142.109 137.757C143.024 137.798 144.135 138.03 144.777 138.446C145.42 138.863 146.102 139.203 146.685 139.796C148.14 141.276 149.231 143.061 149.714 145.111C150.021 146.419 150.067 148.095 150.179 149.63C149.738 148.211 149.442 146.732 148.815 145.461C147.826 143.457 146.146 141.5 144.059 140.599C143.37 140.301 142.911 140.357 142.532 140.409C142.701 140.694 142.985 140.932 142.998 141.348C143.01 141.764 142.917 142.579 142.21 142.921C141.07 143.473 139.804 143.085 138.924 142.308C138.036 141.525 137.734 140.2 138.198 139.062C138.752 137.705 140.861 137.702 142.109 137.757ZM130.64 135.826C130.755 133.494 131.598 131.527 133.69 130.383C134.773 129.792 136.44 129.027 137.972 128.848C139.444 128.675 143.024 128.801 145.177 129.783C146.831 130.537 147.958 131.71 149.41 132.568C150.861 133.426 151.894 134.001 153.276 134.963C155.398 136.44 156.642 138.066 158.113 139.041C158.821 139.509 159.816 139.44 160.755 139.726C160.025 139.943 159.07 140.182 158.283 139.93C157.3 139.616 155.927 138.719 155.164 138.076C153.818 136.94 153.119 136.386 151.65 135.529C150.772 135.018 149.327 134.416 148.363 133.788C147.398 133.16 145.723 131.782 144.796 131.316C143.617 130.723 141.495 130.393 140.183 130.432C138.375 130.485 135.758 130.782 134.359 132.05C132.97 133.31 132.442 134.419 132.755 136.055C133.279 135.453 133.627 134.696 134.151 134.249C135.237 133.322 136.484 133.277 137.836 133.453C139.355 133.65 140.119 134.527 140.621 135.967C140.283 135.719 139.663 135.175 139.173 135.006C138.023 134.61 137.153 134.732 136.076 135.309C134.804 135.99 135.15 136.999 134.967 138.121C134.883 138.638 134.687 139.054 134.548 139.522C134.07 139.395 133.627 139.196 133.266 138.838C133.28 139.362 133.204 139.82 133.312 140.41C133.418 140.999 133.706 141.699 133.903 142.343C133.017 141.458 132.111 140.635 131.539 139.492C130.966 138.349 130.579 137.081 130.64 135.826ZM132.172 118.85C132.825 117.883 133.016 116.399 133.419 115.192C133.258 116.72 133.567 118.401 132.82 119.508C132.073 120.615 130.761 120.421 129.674 120.743C130.519 120.099 131.519 119.818 132.172 118.85ZM116.545 141.513C117.383 140.835 119.645 141.377 121.337 141.498C120.121 141.809 118.905 142.12 117.689 142.431C117.576 142.844 117.627 143.317 117.35 143.67C117.072 144.022 116.544 144.153 116.142 144.394C116.181 143.308 115.707 142.19 116.545 141.513ZM128.465 94.4466C129.475 94.9896 130.757 95.7075 131.648 95.7298C132.54 95.752 132.774 95.1474 133.298 94.7984C134.124 97.4864 135.071 100.44 136.476 102.879C137.065 103.901 137.441 103.426 137.888 104.453C138.336 105.479 138.534 107.568 138.958 108.88C139.383 110.192 139.937 111.157 140.426 112.296C139.184 110.537 137.578 108.296 136.886 106.832C136.194 105.369 136.637 105.242 136.077 103.849C135.517 102.455 134.384 100.283 133.538 98.5007C132.932 98.581 132.181 98.6912 131.721 98.5492C131.26 98.4073 131.352 97.918 130.936 97.6017C130.519 97.2854 129.818 97.408 129.235 96.9031C128.651 96.3985 128.518 95.363 128.465 94.4466ZM123.028 107.71C123.978 107.627 125.159 107.881 126.048 107.831C126.938 107.78 127.574 107.55 128.336 107.409C128.195 106.07 128.329 103.611 127.092 102.717C126.292 102.139 123.01 102.574 122.133 102.763C120.159 103.188 117.862 104.364 115.953 105.1C117.782 103.824 119.362 102.641 121.556 101.983C122.874 101.587 125.951 101.072 127.312 101.439C127.933 101.606 128.059 101.863 128.436 102.389C129.731 104.195 129.727 105.756 130.063 107.86C130.394 108.374 130.745 108.717 131.013 109.248C131.28 109.778 131.432 110.612 131.506 111.294C131.167 110.804 131.375 110.188 130.436 109.822C129.496 109.457 128.058 109.798 126.792 109.93C127.715 110.595 128.173 111.236 128.209 112.641C128.25 114.292 126.851 115.48 125.39 115.593C123.361 115.75 122.316 115.305 121.495 113.574C121.136 112.816 121.397 111.904 121.367 111.164C118.93 111.334 118.969 111.254 117.188 112.737C118.156 114.154 118.766 114.968 120.366 115.816C121.263 116.292 122.279 116.754 123.391 116.943C124.503 117.132 126.327 117.314 127.495 117.135C128.664 116.956 129.326 116.623 130.192 115.823C131.058 115.023 131.138 113.877 131.476 112.972C131.399 113.843 131.299 114.954 130.975 115.586C129.989 117.508 128.285 118.078 126.25 118.084C124.296 118.09 121.88 117.64 120.062 116.888C118.609 116.286 116.201 114.583 115.629 113.103C115.238 112.092 115.548 110.852 115.507 109.725C117.519 108.389 118.016 108.718 120.397 108.327C121.393 108.163 122.078 107.794 123.028 107.71ZM111.308 98.6597C111.365 97.8592 111.453 97.8764 111.526 97.4845C109.693 96.9949 108.958 98.1825 107.884 100.388C107.481 101.213 107.879 101.705 107.448 102.248C107.017 102.791 106.323 102.715 105.623 103.237C104.923 103.758 104.23 104.757 103.575 105.297C102.233 106.406 100.418 107.082 98.8605 107.828C99.924 107.044 101.988 105.856 102.656 104.717C103.01 104.114 102.957 102.975 103.509 102.432C104.06 101.889 104.253 101.514 104.964 101.375C105.676 101.237 105.39 100.413 105.619 99.7584C105.849 99.1037 106.306 98.6388 106.792 97.9846C107.279 97.3305 107.892 96.3483 108.853 95.9917C109.813 95.6348 111.311 96.0206 112.038 95.8152C112.765 95.6097 112.348 95.082 112.876 94.7651C113.405 94.4482 114.433 94.5879 115.139 94.2491C116.391 93.648 116.989 92.6445 117.742 91.5703C117.851 93.8826 117.825 95.5475 116.993 97.723C116.056 100.172 115.106 101.614 112.447 103.12C111.53 103.638 110.618 103.818 109.859 104.09C110.302 103.487 110.936 103.225 111.188 102.28C111.439 101.335 111.252 99.4606 111.308 98.6597ZM154.243 109.935C152.979 110.017 152.679 109.851 151.667 110.563C152.215 111.416 152.764 112.268 153.311 113.12C153.263 111.438 153.427 111.101 154.243 109.935ZM150.93 108.712C152.681 107.967 154.207 107.365 156.112 107.245C156.876 107.198 158.062 107.316 158.833 107.351C159.49 106.385 160.327 105.623 160.634 104.52C160.837 103.789 160.737 100.395 160.377 99.5136C159.33 96.9491 158.311 96.8409 156.869 95.3719C155.823 94.3065 155.781 92.6842 155.468 90.8663C155.354 90.1985 155.025 89.3535 154.872 88.6644C152.987 88.3472 150.96 88.2427 148.791 88.351C149.843 87.3438 150.859 86.4235 151.161 84.9114C151.462 83.3992 151.217 81.54 150.356 80.1841C149.496 78.8282 148.121 77.6469 146.859 76.5422C145.596 75.4375 143.787 74.5255 142.591 73.6218C144.147 73.0654 145.735 72.2481 147.259 71.9531C151.229 71.184 154.649 72.3602 158.478 74.6722C160.705 76.017 162.546 77.2945 164.873 79.7278C167.2 82.1608 170.086 86.6239 172.339 89.2706C174.591 91.9173 176.41 94.0106 178.375 95.5891C180.341 97.1679 182.12 97.6176 183.991 98.6315L186.909 101.726L189.27 98.8077L193.069 99.2367L193.854 94.9778L197.341 94.0236L196.772 88.2824L199.279 86.5054L197.395 82.9334L199.309 79.0302L196.814 74.5684L197.776 70.2723L194.886 67.8129L194.509 63.2476L190.478 61.712L188.861 57.7401L184.329 57.6893L182.106 54.7409L179.055 54.9543L175.654 54.5844L173.731 53.1662L170.94 55.0169L167.562 53.258L160.848 55.8038L165.225 52.0021L169.759 51.2788L173.233 50.3944L177.925 51.9332L182.054 50.8885L186.036 53.2393L190.25 53.0065L192.319 56.7157L196.515 57.1994L198.784 61.3233L201.423 62.7621L202.124 68.0451L204.474 70.271L203.44 74.8935L206.209 78.3941L203.613 82.1449L206.388 84.4894L202.84 87.6302L206.434 91.368L202.094 92.7658L204.921 96.7748L201.376 97.3858L203.701 101.794L199.705 101.741L201.718 105.043L197.336 104.516L198.384 109.266L195.072 106.356L193.938 112.113L191.652 107.98L190.415 113.136L187.593 109.334L187.67 114.74L184.552 109.879C185.21 112.637 185.078 115.657 186.892 118.258C192.512 117.498 196.185 116.084 200.491 111.946C204.412 108.177 209.1 100.32 210.369 95.3357C211.817 89.6485 211.862 79.1886 210.435 73.3985C209.062 67.8237 207.278 65.1608 204.09 60.6117C201.043 57.3794 198.046 53.9649 194.178 51.6598C188.501 48.2764 181.221 47.3641 174.751 47.452C171.169 47.501 168.769 48.1881 166.627 48.9661C162.881 50.3265 159.885 53.2939 156.077 54.7603C154.835 55.2382 153.84 55.2531 152.862 54.7314C153.82 56.6449 154.861 57.5033 157.25 58.1996C158.978 58.7032 163.1 58.3848 165.938 58.1231C168.985 57.8421 170.574 56.9374 174.72 56.9942C178.769 57.0498 181.978 58.5861 183.733 59.5879C187.352 61.6551 189.948 63.9484 192.204 67.5811C193.442 69.5759 194.31 71.8267 194.921 74.1235C195.532 76.4203 195.8 78.9927 195.839 81.2412C195.878 83.4897 195.706 85.4969 195.155 87.5203C193.867 92.2574 191.026 97.0777 185.189 96.3331C181.617 95.8771 176.233 89.1814 174.429 86.7249C170.79 81.7671 167.046 76.2809 162.474 72.1522C159.686 69.6356 155.869 67.9038 152.121 67.5611C145.089 66.9184 143.003 68.2524 137.71 72.6097C138.787 72.9527 139.838 73.1419 140.942 73.6386C143.391 74.7408 145.631 76.1653 147.585 77.9924C149.632 79.9075 150.55 81.1196 150.623 83.8619C150.672 85.683 149.171 87.1431 147.796 88.4564C146.955 89.2608 145.842 89.9972 145.16 90.6214C144.257 91.4499 143.139 92.3562 144.273 93.6759C144.7 94.1719 145.441 94.546 146.066 95.0093C147.057 95.7444 146.603 98.4765 145.297 99.2012C143.625 100.127 141.628 100.024 140.249 98.7839C141.989 98.5238 143.094 98.2933 143.049 96.8717C143.023 96.0476 141.974 95.363 140.945 94.8943C138.462 93.7639 136.586 93.9306 134.115 92.1549C131.62 90.3604 131.565 89.3779 130.89 86.5607C129.686 86.6865 128.578 86.7141 126.969 87.2463C125.36 87.7782 123.582 89.0445 122.121 89.3579C118.442 90.1486 117.708 89.9143 115.695 89.3938C112.15 88.4774 107.534 90.0464 102.948 91.5112C102.186 91.7548 99.1022 91.5195 97.0263 92.247C93.8201 93.3704 89.3215 96.0911 86.7232 98.2765C82.7864 101.588 77.6128 111.499 74.6896 122.875C74.3824 126.333 75.3671 128.663 73.186 130.352C71.0049 132.041 71.0653 136.368 70.3257 137.581C69.5862 138.795 68.73 138.258 67.138 139.963C65.5461 141.667 64.7356 141.382 64.7757 144.604C66.1476 143.704 68.1478 142.656 69.9042 142.593C71.4595 142.537 71.4761 144.582 75.4682 140.641C77.6032 138.532 81.7051 138.467 84.551 137.537C87.3973 136.607 92.5261 134.69 97.6628 128.955C102.8 123.219 105.258 117.181 106.254 108.452C106.412 110 106.688 111.745 106.024 116.015C105.361 120.284 103.93 125.079 106.943 130.823L108.821 134.401C107.703 132.878 105.52 130.393 104.863 128.623L103.347 124.538C99.9552 129.856 99.1756 130.808 94.4643 134.618C94.2767 136.982 94.2306 139.447 95.0041 141.709C95.7777 143.971 94.5447 146.578 95.1332 148.067C95.7217 149.557 97.0829 148.709 97.5274 150.217C97.9718 151.725 97.2953 154.706 97.9846 156.176C98.6739 157.646 100.365 156.754 101.185 157.229C102.004 157.704 102.272 158.355 102.711 158.98C103.149 159.604 102.539 161.08 103.431 161.559C104.322 162.039 105.713 161.632 106.64 162.093C107.567 162.553 107.708 163.659 107.486 164.65C107.264 165.641 106.272 166.095 105.837 167.103C105.402 168.111 105.451 168.812 105.974 169.738C106.496 170.663 107.654 171.173 108.807 171.64C109.961 172.107 111.582 171.845 112.772 172.491C113.962 173.137 115.032 174.424 115.661 175.359C116.289 176.294 116.464 176.954 116.432 177.938C116.399 178.921 116 180.053 115.474 181.003C114.949 181.953 113.789 183.109 115.6 184.923C117.41 186.736 117.343 185.954 118.381 187.131C118.268 185.096 117.426 183.438 118.041 181.906C118.657 180.374 120.506 180.107 121.481 179.418C122.455 178.729 123.016 177.782 123.784 176.964C123.773 178.016 123.886 179.148 123.766 179.941C123.522 181.552 123.046 182.983 125.45 183.241C126.534 183.357 127.562 182.656 128.702 182.235C128.105 183.303 127.067 184.161 126.91 185.44C126.754 186.717 126.942 188.121 127.828 189.389C128.714 190.656 130.244 191.597 131.365 192.342C132.486 193.087 133.086 193.147 133.948 193.55C133.99 194.806 133.742 196.136 133.886 197.319C134.029 198.502 134.402 199.549 135.087 200.527C135.773 201.506 136.872 202.067 137.907 202.79C137.339 201.47 136.188 200.218 136.204 198.83C136.219 197.443 136.636 196.459 137.991 195.228C139.346 193.997 142.518 192.929 144.014 191.732C145.51 190.534 145.993 189.801 146.53 188.638C147.067 187.476 146.918 185.603 147.017 184.558C147.509 186.022 147.579 186.477 147.739 188.008C147.9 189.54 146.846 191.689 146.399 192.822C148.25 191.93 149.424 190.503 150.017 189.109C150.414 189.344 150.214 189.988 150.36 191.23C151.019 190.574 151.769 190.07 152.433 189.451C153.097 188.834 153.825 188.29 154.155 187.427C154.484 186.564 154.349 185.647 154.104 184.644C153.859 183.642 152.737 182.479 152.133 181.383C151.53 180.287 152.24 179.211 152.199 177.89C150.99 177.682 149.964 177.068 148.575 177.267C147.185 177.467 145.594 179.024 144.173 179.042C142.753 179.06 141.956 177.732 140.791 177.366C139.627 177.001 138.449 177.041 137.278 176.879C138.761 175.46 144.517 174.784 148.454 174.143C151.918 173.579 155.355 173.253 158.865 173.203C160.432 173.181 162.447 173.698 163.535 173.386C164.625 173.074 164.392 172.333 164.715 171.525C165.619 169.268 165.173 167.258 164.682 164.985C161.531 164.616 158.248 164.165 155.073 164.408C151.969 164.647 148.294 166.12 145.093 166.22C142.309 166.306 138.188 165.687 135.798 164.232C132.877 162.455 130.617 158.636 129.815 157.41C128.509 155.413 126.861 151.495 125.858 149.704C124.856 147.913 124.635 147.412 123.801 146.664C122.967 145.916 121.825 145.858 120.837 145.455C121.976 145.572 123.219 145.212 124.254 145.804C125.808 146.695 127.548 150.387 128.515 151.993C129.54 148.562 129.301 147.213 132.266 145.279C129.876 147.954 129.817 149.98 129.234 153.13C131.221 156.387 133.984 161.576 137.599 163.015C138.905 163.536 141.147 163.862 142.559 164.037C146.952 164.58 151.19 163.189 155.505 162.125C158.659 161.347 161.859 161.661 165.695 161.886C166.998 161.962 170.068 161.18 170.704 159.864C171.048 159.154 171.022 158.301 170.529 157.545C170.035 156.789 168.72 156.423 168.016 155.742C167.311 155.061 166.905 154.253 166.35 153.508C163.42 154.07 161.01 154.285 158.835 154.344C160.395 153.703 161.892 153.337 163.515 152.702C165.139 152.068 166.982 151.027 168.292 150.164C169.603 149.3 170.439 148.799 171.387 147.793C172.335 146.787 173.55 145.751 174.249 144.522C174.948 143.292 175.056 141.917 175.095 140.395C175.134 138.874 175.069 136.739 174.481 135.513C173.894 134.288 172.762 133.916 171.853 133.626C170.943 133.336 170.32 134.069 169.374 134.168C168.428 134.267 167.544 134.863 166.175 134.22C164.807 133.578 163.185 132.269 161.801 130.328C160.418 128.386 159.429 125.211 158.019 122.77C155.588 118.56 152.559 114.628 149.662 110.728C149.424 109.766 149.065 108.437 148.946 107.132C148.738 104.858 148.699 102.496 149.405 100.28C149.947 98.5819 150.734 96.7885 152.515 96.0921C153.227 95.8133 154.128 95.7028 154.764 95.9384C155.402 96.1737 156.026 96.8917 155.776 97.7211C155.501 98.6331 154.868 98.6578 154.439 99.1183C153.709 99.8994 153.417 100.473 153.141 101.447C153.93 101.434 154.996 101.374 155.643 101.544C156.488 101.766 157.275 102.326 157.704 103.522C156.696 102.628 156.195 102.218 154.936 102.187C154.359 102.172 153.658 102.378 153.02 102.474C152.782 103.249 152.642 104.199 152.305 104.799C151.968 105.398 151.312 105.254 151.066 105.955C150.82 106.654 150.806 107.793 150.93 108.712ZM159.742 107.662C160.128 107.814 160.275 107.848 160.765 108.219C161.254 108.591 161.929 108.962 162.317 109.851C162.705 110.74 162.687 112.114 162.604 112.674C162.264 112.574 161.8 112.641 161.447 112.34C161.095 112.039 160.885 111.356 160.433 111.064C159.981 110.772 159.605 110.836 159.105 110.773C159.362 111.502 159.486 112.232 159.367 112.893C159.108 114.336 158.259 115.067 156.883 115.24C156.283 115.315 155.329 115.117 154.806 115.022C155.048 115.563 155.459 116.036 155.701 116.577C156.864 116.409 157.726 116.433 158.352 116.141C158.977 115.848 159.648 115.194 160.45 114.917C161.253 114.639 161.969 114.644 162.847 114.507C162.155 115.102 161.701 115.698 161.011 116.294C161.517 117.765 162.024 119.236 162.531 120.706C163.605 121.378 164.613 121.731 165.967 122.56C167.321 123.389 168.945 124.872 170.709 125.681C172.472 126.49 173.522 126.93 175.365 127.277C177.208 127.624 178.674 129.115 180.487 129.357C182.3 129.599 185.687 129.648 187.084 129.512C188.671 129.357 190.732 128.54 190.917 126.802C189.587 127.13 187.555 126.836 186.529 124.336C186.074 123.226 186.297 121.184 185.6 119.872C184.904 118.559 183.932 118.137 182.772 116.52C181.611 114.902 179.713 112.351 178.647 110.183C177.582 108.016 177.331 105.562 176.43 103.62C175.529 101.679 174.17 100.11 173.116 98.6137C170.816 95.343 168.961 93.1078 165.172 91.4579C163.35 90.6643 161.275 90.4528 159.326 89.9502C158.533 90.3049 157.446 90.6967 157.253 91.623C157.06 92.5493 157.43 93.9172 158.104 94.6127C159.23 95.7752 160.899 97.0317 161.555 98.8795C161.977 100.065 162.099 104.04 161.734 105.119C161.355 106.239 160.474 106.916 159.742 107.662ZM160.109 117.071C159.757 117.374 159.488 117.685 158.922 117.937C158.357 118.189 157.584 118.254 156.833 118.441C157.886 120.078 158.992 121.732 160 123.453C161.01 125.173 161.884 127.057 162.847 128.859C162.802 127.826 162.863 126.725 162.712 125.76C162.562 124.795 162.124 123.951 161.69 122.503C161.257 121.054 160.723 119.084 160.109 117.071ZM131.785 81.0853C131.636 82.6952 131.909 85.2121 132.243 86.7884C132.643 88.6752 133.028 89.6536 134.561 90.7904C137.368 92.8719 139.161 92.521 141.32 93.728C142.348 94.3024 143.65 95.2652 144.03 96.2829C144.41 97.3007 143.779 98.4057 143 98.8401C144.363 99.0427 145.892 97.508 145.254 95.9324C144.94 95.1569 143.444 94.8114 142.986 94.029C142.528 93.2469 142.529 92.4416 142.745 91.6471C143.134 90.215 145.971 88.9137 146.974 87.7817C148.516 86.0396 149.109 84.5824 148.235 82.339C147.008 79.1873 142.268 76.6584 139.431 75.4216C138.132 74.8554 137.403 74.8151 136.39 74.5118C138.465 75.7261 140.652 76.6934 141.701 79.4077C142.578 81.6747 141.819 82.5289 141.848 84.5027C141.862 85.4179 143.068 85.8754 143.604 86.4537C144.07 86.9564 144.032 87.3295 143.66 88.0233C143.619 87.3974 143.351 86.9303 142.87 86.5902C142.076 86.0279 141.22 86.1488 140.797 84.9958C140.155 83.243 141.428 81.5829 139.996 79.6148C138.925 78.1423 137.501 76.4943 135.579 76.4511C134.669 76.4304 133.985 76.5676 133.013 76.8547L131.718 75.2978L131.688 75.2774C129.053 72.8758 127.251 70.8966 123.554 69.246C119.858 67.5957 118.037 67.3458 113.799 67.4398C109.561 67.5335 105.355 67.8876 100.447 72.115C95.5386 76.3425 82.8885 92.5305 79.8206 94.5793C76.753 96.6281 76.0736 97.3222 72.2404 97.3232C68.4073 97.3242 62.4248 91.9091 62.1904 85.1416C61.9558 78.3738 61.8617 75.9684 66.5721 67.8155C71.2828 59.6622 79.8165 57.1587 86.148 56.3134C92.48 55.4681 96.2848 57.6954 100.969 57.7058C105.652 57.7166 110.281 56.9091 111.645 53.1891C110.977 53.5864 110.082 54.0341 107.566 53.9023C105.049 53.7705 101.559 50.8602 97.6332 48.9102C93.7076 46.9605 89.339 46.7322 83.7358 46.6264C78.1326 46.5207 71.141 46.9484 64.2142 50.6831C57.2874 54.4177 52.5592 58.3803 48.5416 65.6895C44.5241 72.9991 43.9238 78.967 44.5714 87.8172C45.2191 96.6675 47.9522 103.25 53.2145 109.727C58.4768 116.205 63.736 119.374 73.2191 120.552L75.2155 111.758L71.6516 116.866L71.7397 111.185L68.516 115.18L67.1021 109.762L64.4905 114.105L63.1933 108.056L59.4087 111.113L60.6068 106.122L55.5991 106.675L57.8994 103.206L53.3334 103.261L55.9902 98.6293L51.9389 97.9869L55.1692 93.774L50.2093 92.3054L54.3159 88.378L50.2611 85.0778L53.4326 82.6143L50.4668 78.6729L53.6304 74.9948L52.4495 70.1377L55.1358 67.799L55.9355 62.248L58.9503 60.7358L61.5441 56.4026L66.3384 55.8943L68.7039 51.9967L73.5192 52.2416L78.0697 49.7714L82.7889 50.8691L88.1495 49.2522L92.1197 50.1813L97.301 50.9419L102.303 54.9365L94.6302 52.2616L90.7704 54.11L87.5798 52.165L85.3831 53.6553L81.4962 54.0439L78.0105 53.8191L75.4695 56.9171L70.2898 56.9704L68.4422 61.1439L63.8365 62.7576L63.4056 67.5548L60.1028 70.1389L61.2032 74.6531L58.3509 79.3417L60.539 83.4427L58.3856 87.1961L61.2506 89.0633L60.6007 95.096L64.5852 96.0988L65.4828 100.574L69.8247 100.123L72.5221 103.189L75.8561 99.9382C81.934 96.9113 84.4369 95.2182 89.1736 90.1016C94.5657 84.2769 97.6561 78.8917 104.839 74.9037C109.99 72.0432 114.192 71.0138 119.978 72.0124C125.411 72.9498 127.231 76.2047 131.232 79.6335C131.656 78.8666 131.742 78.6634 132.441 78.0988C132.222 79.0946 131.873 80.1276 131.785 81.0853Z" fill="black"/>
</svg>