<svg width="256" height="256" title="GoLand" viewBox="0 0 256 256" fill="none" xmlns="http://www.w3.org/2000/svg" id="goland">
<style>
#goland {
    rect {fill: #15191C}

    @media (prefers-color-scheme: light) {
        rect {fill: #F4F2ED}
    }
}
</style>
<rect width="256" height="256" rx="40" fill="#15191C"/>
<path d="M167.377 190.908L196.138 190.904C201.585 190.904 206 186.488 206 181.04V153.173C206 150.294 204.742 147.557 202.556 145.683L110.134 66.4641C108.346 64.9324 106.069 64.0898 103.714 64.0898H74.9532C69.5057 64.0898 65.0896 68.5059 65.0896 73.9534V101.825C65.0896 104.704 66.3479 107.44 68.5334 109.315L160.954 188.532C162.742 190.065 165.021 190.908 167.377 190.908Z" fill="#00D886"/>
<path d="M170.836 190.909H196.137C201.584 190.909 206 186.493 206 181.045V149.337C206 148.87 205.966 148.404 205.902 147.942L193.119 58.4687C192.427 53.6101 188.264 50 183.356 50H145.398C139.949 50 135.533 54.4175 135.534 59.8665L135.546 104.764C135.546 105.824 135.716 106.877 136.051 107.881L161.48 184.165C162.823 188.193 166.591 190.909 170.836 190.909Z" fill="url(#linearGradient1)"/>
<path d="M60.8637 205H143.131C147.076 205 150.642 202.648 152.197 199.023L191.112 108.225C191.637 106.998 191.909 105.675 191.909 104.339V59.8637C191.909 54.4161 187.493 50 182.045 50H138.534C136.585 50 134.68 50.5777 133.059 51.6599L55.3921 103.495C52.65 105.325 51.0042 108.403 51.0042 111.698L51 195.137C51 200.584 55.4161 205 60.8637 205Z" fill="url(#linearGradient2)"/>
<path d="M176.937 79.0625H80.0625V175.938H176.937V79.0625Z" fill="black"/>
<path d="M98.8646 126.591C101.708 128.229 104.882 129.05 108.387 129.05C111.753 129.05 114.787 128.301 117.491 126.8C120.211 125.299 122.346 123.251 123.899 120.652C125.469 118.037 126.253 115.116 126.253 111.889V109.012H110.741V114.635H119.257C119.082 115.993 118.588 117.231 117.778 118.351C116.819 119.675 115.52 120.715 113.881 121.463C112.258 122.213 110.444 122.588 108.439 122.588C106.277 122.588 104.324 122.049 102.58 120.967C100.835 119.885 99.4658 118.404 98.4722 116.52C97.4954 114.621 97.0078 112.483 97.0078 110.112C97.0078 107.74 97.4954 105.612 98.4722 103.729C99.4671 101.828 100.836 100.337 102.58 99.2551C104.323 98.1734 106.277 97.6338 108.439 97.6338C109.905 97.6338 111.274 97.8692 112.547 98.34C113.82 98.794 114.927 99.4486 115.869 100.302C116.828 101.139 117.587 102.134 118.145 103.284H125.784C125.121 100.895 123.961 98.7856 122.304 96.954C120.665 95.1225 118.641 93.7 116.235 92.6896C113.846 91.6792 111.229 91.1719 108.387 91.1719C104.881 91.1719 101.707 91.9986 98.8646 93.6564C96.0213 95.2949 93.789 97.5637 92.1673 100.457C90.5459 103.335 89.7347 106.552 89.7347 110.11C89.7347 113.669 90.5459 116.896 92.1673 119.79C93.7903 122.667 96.0226 124.933 98.8646 126.591Z" fill="white"/>
<path fill-rule="evenodd" clip-rule="evenodd" d="M138.629 126.591C141.49 128.229 144.672 129.05 148.177 129.05C151.699 129.05 154.883 128.229 157.725 126.591C160.585 124.933 162.826 122.667 164.447 119.79C166.068 116.896 166.88 113.669 166.88 110.11C166.88 106.552 166.068 103.335 164.447 100.457C162.826 97.5637 160.585 95.2949 157.725 93.6564C154.883 91.9986 151.682 91.1719 148.177 91.1719C144.672 91.1719 141.49 91.9986 138.629 93.6564C135.787 95.2949 133.547 97.5637 131.907 100.457C130.285 103.335 129.474 106.552 129.474 110.11C129.474 113.669 130.285 116.896 131.907 119.79C133.545 122.667 135.787 124.933 138.629 126.591ZM154.038 121.151C152.311 122.232 150.366 122.772 148.203 122.772C146.041 122.772 144.087 122.232 142.344 121.151C140.618 120.052 139.257 118.545 138.263 116.625C137.287 114.69 136.799 112.518 136.799 110.112C136.799 107.706 137.287 105.545 138.263 103.625C139.257 101.689 140.618 100.182 142.344 99.0995C144.087 98.0009 146.041 97.4517 148.203 97.4517C150.366 97.4517 152.311 98.0009 154.038 99.0995C155.764 100.182 157.115 101.689 158.092 103.625C159.069 105.543 159.556 107.706 159.556 110.112C159.556 112.518 159.069 114.69 158.092 116.625C157.115 118.544 155.764 120.052 154.038 121.151Z" fill="white"/>
<path d="M92.1566 156.563H130.907V163.828H92.1566V156.563Z" fill="white"/>
<linearGradient id="linearGradient1" x1="204.057" y1="193.979" x2="166.705" y2="32.8767" gradientUnits="userSpaceOnUse">
<stop offset="0.24" stop-color="#00D886"/>
<stop offset="0.51" stop-color="#007DFE"/>
</linearGradient>
<linearGradient id="linearGradient2" x1="209.19" y1="60.609" x2="67.6572" y2="216.295" gradientUnits="userSpaceOnUse">
<stop offset="0.27" stop-color="#007DFE"/>
<stop offset="0.7" stop-color="#D249FC"/>
</linearGradient>
</svg>