<svg width="256" height="256" title="Google Cloud Composer" viewBox="0 0 256 256" fill="none" xmlns="http://www.w3.org/2000/svg" id="googlecloudcomposer">
<rect width="256" height="256" rx="40" fill="#F4F2ED"/>
<path d="M78.9948 197.907L43.1062 135.744C41.7264 133.354 41 130.643 41 127.884C41 125.124 41.7264 122.413 43.1062 120.023L78.9948 57.8613C80.3748 55.471 82.3598 53.4861 84.7501 52.1062C87.1404 50.7262 89.8519 49.9998 92.6119 50H164.389C167.149 50.0001 169.86 50.7266 172.25 52.1065C174.64 53.4865 176.625 55.4712 178.005 57.8613L213.893 120.023C215.273 122.413 216 125.124 216 127.884C216 130.644 215.273 133.355 213.893 135.746L178.005 197.907C176.625 200.297 174.64 202.282 172.25 203.661C169.86 205.041 167.149 205.767 164.389 205.767H92.6119C89.8518 205.768 87.1403 205.041 84.75 203.661C82.3596 202.281 80.3747 200.298 78.9948 197.907Z" fill="#4387FB"/>
<path d="M119.753 101.622H96V84H160.956V101.533H137.424V125.252H119.753V101.622Z" fill="white"/>
<path d="M96 107.896H113.538V131.481H137.247V173H119.753V149.192H96V107.896Z" fill="white"/>
<path d="M143.507 107.852H161V173H143.507V107.852Z" fill="white"/>
<path d="M113.404 173H96V155.467H113.404V173Z" fill="white"/>
</svg>