<svg width="256" height="256" title="Google IDX" viewBox="0 0 256 256" fill="none" xmlns="http://www.w3.org/2000/svg" id="googleidx">
<style>
#googleidx {
    rect {fill: #15191C}

    @media (prefers-color-scheme: light) {
        rect {fill: #F4F2ED}
    }
}
</style>
<rect width="256" height="256" rx="40" fill="#15191C"/>
<path d="M136.528 188H72.0833C65.4099 188 60 193.41 60 200.083C60 206.757 65.4099 212.167 72.0833 212.167H136.528C143.201 212.167 148.611 206.757 148.611 200.083C148.611 193.41 143.201 188 136.528 188Z" fill="#8964E8"/>
<path d="M160.694 151.75H148.611C141.938 151.75 136.528 157.16 136.528 163.833C136.528 170.507 141.938 175.917 148.611 175.917H160.694C167.368 175.917 172.778 170.507 172.778 163.833C172.778 157.16 167.368 151.75 160.694 151.75Z" fill="#17B877"/>
<path d="M112.361 151.75H100.278C93.6043 151.75 88.1944 157.16 88.1944 163.833C88.1944 170.507 93.6043 175.917 100.278 175.917H112.361C119.035 175.917 124.444 170.507 124.444 163.833C124.444 157.16 119.035 151.75 112.361 151.75Z" fill="#17B877"/>
<path d="M156.667 115.5H128.472C121.799 115.5 116.389 120.91 116.389 127.583C116.389 134.257 121.799 139.667 128.472 139.667H156.667C163.34 139.667 168.75 134.257 168.75 127.583C168.75 120.91 163.34 115.5 156.667 115.5Z" fill="#FFA23E"/>
<path d="M205 127.583C205 120.91 199.59 115.5 192.917 115.5C186.243 115.5 180.833 120.91 180.833 127.583C180.833 134.257 186.243 139.667 192.917 139.667C199.59 139.667 205 134.257 205 127.583Z" fill="#FFA23E"/>
<path d="M164.722 79.25H100.278C93.6043 79.25 88.1944 84.6599 88.1944 91.3333C88.1944 98.0068 93.6043 103.417 100.278 103.417H164.722C171.396 103.417 176.806 98.0068 176.806 91.3333C176.806 84.6599 171.396 79.25 164.722 79.25Z" fill="#25A6E9"/>
<path d="M136.528 43H108.333C101.66 43 96.25 48.4099 96.25 55.0833C96.25 61.7568 101.66 67.1667 108.333 67.1667H136.528C143.201 67.1667 148.611 61.7568 148.611 55.0833C148.611 48.4099 143.201 43 136.528 43Z" fill="#8964E8"/>
<path d="M84.1667 55.0833C84.1667 48.4099 78.7568 43 72.0833 43C65.4099 43 60 48.4099 60 55.0833C60 61.7568 65.4099 67.1667 72.0833 67.1667C78.7568 67.1667 84.1667 61.7568 84.1667 55.0833Z" fill="#8964E8"/>
</svg>