<svg width="256" height="256" title="Google Drive" viewBox="0 0 256 256" fill="none" xmlns="http://www.w3.org/2000/svg" id="googledrive">
<style>
#googledrive {
    rect {fill: #15191C}

    @media (prefers-color-scheme: light) {
        rect {fill: #F4F2ED}
    }
}
</style>
<rect width="256" height="256" rx="40" fill="#15191C"/>
<path d="M60.0962 179.52L67.1523 191.708C68.6186 194.274 70.7262 196.29 73.2005 197.756L98.4009 154.136H48C48 156.977 48.7331 159.818 50.1993 162.384L60.0962 179.52Z" fill="#0066DA"/>
<path d="M128 102.819L102.8 59.1993C100.325 60.6655 98.2176 62.6816 96.7514 65.2474L50.1993 145.889C48.7601 148.399 48.0019 151.242 48 154.136H98.4009L128 102.819Z" fill="#00AC47"/>
<path d="M182.8 197.756C185.274 196.29 187.381 194.274 188.848 191.708L191.78 186.668L205.801 162.384C207.267 159.818 208 156.977 208 154.136H157.595L168.321 175.213L182.8 197.756Z" fill="#EA4335"/>
<path d="M128 102.819L153.2 59.1993C150.726 57.7331 147.885 57 144.953 57H111.047C108.115 57 105.274 57.8247 102.8 59.1993L128 102.819Z" fill="#00832D"/>
<path d="M157.599 154.136H98.4009L73.2005 197.756C75.6747 199.222 78.5155 199.955 81.4479 199.955H174.552C177.485 199.955 180.325 199.131 182.8 197.756L157.599 154.136Z" fill="#2684FC"/>
<path d="M182.525 105.568L159.249 65.2474C157.782 62.6816 155.675 60.6655 153.2 59.1993L128 102.819L157.599 154.136L207.908 154.136C207.908 151.296 207.175 148.455 205.709 145.889L182.525 105.568Z" fill="#FFBA00"/>
</svg>