<svg width="256" height="256" title="Google ADK" viewBox="0 0 256 256" fill="none" xmlns="http://www.w3.org/2000/svg" id="googleadk">
<style>
#googleadk {
    rect {fill: #15191C}

    @media (prefers-color-scheme: light) {
        rect {fill: #F4F2ED}
    }
}
</style>
<rect width="256" height="256" rx="40" fill="#15191C"/>
<path d="M99.7544 50H155.836L159.213 50.2042L162.386 50.6126L165.149 51.2251L167.708 51.9398L170.368 52.8586L173.439 54.1859L175.588 55.3089L177.839 56.6361L179.784 57.9634L181.421 59.1885L182.751 60.3115L184.901 62.1492L185.515 62.8639L186.743 64.089L187.459 64.9058L188.892 66.6414L190.325 68.5812L191.45 70.3168L192.985 72.9712L194.213 75.4215L195.339 78.178L196.465 81.6492L197.181 84.712L197.591 87.0602L197.898 89.8168L198 91.6545V94.6152L197.795 97.8822L197.386 100.843L196.772 103.702L196.056 106.254L195.134 108.908L194.009 111.563L192.985 113.605L191.757 115.749L190.427 117.791L189.301 119.322L188.585 120.241L187.664 121.364L186.743 122.385L186.026 123.202L184.082 125.141L183.263 125.856L181.933 126.979L179.784 128.613L177.43 130.144L175.281 131.369L173.746 132.186L170.778 133.513L167.912 134.534L164.944 135.351L161.977 135.963L158.906 136.372L155.632 136.576H100.88L98.117 136.474L95.2515 136.168L92.7953 135.759L90.1345 135.147L87.1667 134.228L85.0175 133.411L82.4591 132.288L79.9006 130.961L78.0585 129.838L76.8304 129.021L74.9883 127.694L73.2485 126.264L72.1228 125.243L71.3041 124.529L69.462 122.691L68.7456 121.874L67.5175 120.445L65.9825 118.403L64.5497 116.259L63.2193 114.013L61.6842 110.95L60.3538 107.581L59.4327 104.62L58.614 100.945L58.2047 98.0864L58 95.7382V90.8377L58.307 87.5707L58.8187 84.5079L59.6374 81.2408L60.8655 77.5654L62.1959 74.5026L63.3216 72.3586L64.652 70.1126L65.4708 68.8874L66.8012 67.0497L68.1316 65.4162L69.0526 64.3953L69.8713 63.3743H70.076L70.2807 62.966L71.4064 61.8429L72.2251 61.1283L73.2485 60.2094L74.6813 59.0864L76.3187 57.8613L78.4678 56.4319L81.1287 54.9005L84.0965 53.4712L86.4503 52.5524L89.2134 51.6335L92.0789 50.9188L94.9444 50.4084L97.6053 50.1021L99.7544 50ZM99.2427 63.0681L96.4795 63.3743L94.0234 63.8848L91.5673 64.5995L88.7018 65.7225L86.348 66.9476L84.4035 68.1728L82.4591 69.6021L81.3333 70.623L80.5146 71.3377L78.7749 73.0733V73.2775H78.5702L77.4444 74.7068L76.4211 76.034L75.0906 78.178L73.8626 80.5262L73.0439 82.466L72.1228 85.2225L71.5088 87.9791L71.2018 90.3272L71.0994 91.5524V95.2277L71.5088 98.699L72.1228 101.353L73.1462 104.416L74.0673 106.458L75.193 108.602L76.8304 111.052L77.8538 112.38L78.7749 113.401L78.8772 113.605H79.0819L79.2865 114.013L80.7193 115.442H80.924V115.647L82.0497 116.565L83.5848 117.791L85.1199 118.812L86.655 119.73L88.2924 120.547L90.0322 121.364L92.0789 122.079L94.2281 122.691L96.2749 123.099L98.731 123.406L100.675 123.508H155.632L158.292 123.304L160.339 122.997L162.898 122.385L165.354 121.568L167.298 120.751L169.55 119.628L171.801 118.199L173.439 116.974L174.769 115.851L175.588 115.034L176.406 114.319L177.123 113.503L178.146 112.38L179.681 110.338L180.705 108.704L181.626 107.071L182.751 104.62L183.877 101.251L184.491 98.4948L184.798 96.1466L184.901 94.6152V91.9607L184.594 88.6937L183.98 85.733L183.161 83.0785L182.137 80.5262L180.909 78.178L179.681 76.2382L178.249 74.2984L176.918 72.767L174.769 70.623L173.643 69.7042L172.313 68.6832L170.778 67.6623L168.629 66.4372L166.07 65.212L162.693 64.089L160.442 63.5785L158.599 63.2723L156.348 63.0681H99.2427Z" fill="#4282F5"/>
<path d="M110.909 50H155.836L159.213 50.2042L162.386 50.6126L165.149 51.2251L167.708 51.9398L170.368 52.8586L173.439 54.1859L175.588 55.3089L177.839 56.6361L179.784 57.9634L181.421 59.1885L182.751 60.3115L184.901 62.1492L185.515 62.8639L186.743 64.089L187.459 64.9058L188.892 66.6414L190.325 68.5812L191.45 70.3168L192.985 72.9712L194.213 75.4215L195.339 78.178L196.465 81.6492L197.181 84.712L197.591 87.0602L197.898 89.8168L198 91.6545V94.6152L197.795 97.8822L197.386 100.843L196.772 103.702L196.056 106.254L195.134 108.908L194.009 111.563L192.985 113.605L191.757 115.749L190.427 117.791L189.301 119.322L188.585 120.241L187.664 121.364L186.743 122.385L186.026 123.202L184.082 125.141L183.263 125.856L181.933 126.979L179.784 128.613L177.43 130.144L175.281 131.369L173.746 132.186L170.778 133.513L167.912 134.534L164.944 135.351L161.977 135.963L158.906 136.372L155.632 136.576H152.459L152.868 136.372L153.585 136.065L154.813 135.351L155.836 134.432L156.553 133.411L157.167 132.084L157.474 130.961V129.327L157.167 128L156.348 126.366L155.427 125.346L154.506 124.529L153.073 123.712L152.254 123.61V123.508L155.632 123.406L158.292 123.202L160.339 122.895L162.898 122.283L165.354 121.466L167.298 120.649L169.55 119.526L171.801 118.097L173.439 116.872L174.769 115.749L175.588 114.932L176.304 114.319L177.02 113.503L178.044 112.38L179.579 110.338L180.602 108.704L181.523 107.071L182.649 104.62L183.775 101.251L184.389 98.4948L184.696 96.1466L184.798 94.6152V91.9607L184.491 88.6937L183.877 85.733L183.058 83.0785L182.035 80.5262L180.807 78.178L179.579 76.2382L178.146 74.2984L176.816 72.767L174.769 70.7251L173.643 69.8063L172.313 68.7853L170.778 67.7644L168.629 66.5393L166.07 65.3141L162.693 64.1911L160.442 63.6806L158.599 63.3743L156.348 63.1702L110.602 63.0681L110.295 62.7618L108.658 62.1492L107.737 61.4346L106.816 60.5157L105.895 58.8822L105.485 57.3508V55.9215L105.792 54.3901L106.611 52.7565L107.839 51.5314L108.965 50.8168L110.5 50.1021L110.909 50Z" fill="#38A558"/>
<path d="M67.6199 145.56H82.4591L83.9942 145.866L85.5292 146.683L86.8596 147.908L87.6784 149.236L88.1901 150.665L88.2924 151.175V152.911L87.9854 154.238L87.269 155.668L86.1433 156.995L85.1199 157.709L83.9942 158.22L82.9708 158.526L81.6404 158.628H71.0994V192.932H82.4591L83.9942 193.238L85.5292 194.055L86.7573 195.178L87.4737 196.199L88.0877 197.628L88.2924 198.547V200.283L87.9854 201.61L87.269 203.039L86.1433 204.366L85.1199 205.081L83.9942 205.592L82.9708 205.898L81.7427 206H68.4386L66.3918 205.796L64.652 205.285L63.2193 204.571L61.7865 203.55L60.3538 202.12L59.6374 201.099L58.7164 199.364L58.2047 197.73L58 196.505V155.055L58.307 153.319L58.9211 151.686L59.8421 150.052L61.1725 148.521L62.5029 147.398L64.1404 146.479L65.7778 145.866L66.6988 145.662L67.6199 145.56Z" fill="#FAB909"/>
<path d="M126.26 149.644H128L129.433 149.95L130.968 150.767L132.298 151.992L133.015 153.115L133.526 154.34L133.731 155.259V156.893L133.424 158.322L132.708 159.751L131.582 161.079L130.456 161.997L129.023 163.223L128 164.039L126.567 165.264L125.544 166.081L124.111 167.306L123.088 168.123L121.655 169.348L120.632 170.165L119.199 171.39L118.175 172.207L116.743 173.432L114.491 175.27L114.082 175.678L114.491 175.882L115.515 176.699L116.947 177.924L118.073 178.843L119.404 179.966L120.529 180.885L121.86 182.008L122.985 182.927L124.316 184.05L125.442 184.969L126.772 186.092L127.898 187.01L129.228 188.134L130.354 189.052L131.275 189.767V189.971L131.684 190.175L132.605 191.196L133.424 192.83L133.731 194.055V195.791L133.424 197.118L132.605 198.751L131.582 199.874L130.558 200.589L129.228 201.202L127.591 201.508H126.567L125.339 201.304L123.906 200.691L122.678 199.772L121.348 198.649L120.222 197.73L118.892 196.607L117.766 195.688L116.436 194.565L115.31 193.647L113.98 192.524L112.854 191.605L111.523 190.482L110.398 189.563L109.067 188.44L107.942 187.521L106.611 186.398L105.485 185.479L104.155 184.356L103.029 183.437L101.699 182.314L100.573 181.395L99.345 180.272L98.731 179.558L98.0146 178.332L97.6053 177.005L97.5029 176.495V174.759L97.9123 173.126L98.5263 171.901L99.4474 170.675L100.471 169.757L101.596 168.838L102.927 167.715L104.053 166.796L105.383 165.673L106.509 164.754L107.839 163.631L108.965 162.712L110.295 161.589L111.421 160.67L112.751 159.547L113.877 158.628L115.208 157.505L116.333 156.586L117.664 155.463L118.789 154.545L120.12 153.421L121.246 152.503L122.576 151.38L123.702 150.563L124.93 149.95L126.26 149.644Z" fill="#E84739"/>
<path d="M167.196 149.644H168.936L170.368 149.95L171.904 150.767L173.234 151.89L174.36 152.809L175.69 153.932L176.816 154.851L178.146 155.974L179.272 156.893L180.602 158.016L181.728 158.935L183.058 160.058L184.184 160.976L185.515 162.099L186.64 163.018L187.971 164.141L189.096 165.06L190.427 166.183L191.553 167.102L192.883 168.225L194.009 169.144L195.339 170.267L196.363 171.288L197.181 172.615L197.591 173.738L197.795 174.759V176.188L197.488 177.72L196.67 179.353L195.953 180.272L195.134 181.089L193.702 182.212L192.678 183.131L191.246 184.254L190.222 185.173L188.789 186.296L187.766 187.215L186.333 188.338L185.31 189.257L183.877 190.38L182.854 191.298L181.421 192.421L180.398 193.34L178.965 194.463L177.942 195.382L176.509 196.505L175.485 197.424L174.053 198.547L173.029 199.466L171.699 200.487L170.164 201.202L168.526 201.508H167.503L166.275 201.304L165.047 200.793L164.126 200.181L163.102 199.262L162.386 198.241L161.874 197.118L161.567 195.995V194.055L161.874 192.83L162.284 191.911L163 190.788L164.126 189.665L165.251 188.746L166.582 187.623L167.708 186.704L169.038 185.581L170.164 184.662L171.494 183.539L172.62 182.62L173.95 181.497L175.076 180.579L176.406 179.455L177.532 178.537L178.863 177.414L181.114 175.576L180.705 175.168L179.579 174.249L178.146 173.024L177.02 172.105L175.69 170.982L174.257 169.859L173.234 168.94L171.801 167.817L170.778 166.898L169.345 165.775L168.322 164.856L166.889 163.733L165.865 162.814L164.433 161.691L162.693 159.955L161.874 158.322L161.567 157.199V155.259L161.874 154.034L162.284 153.115L163 151.992L164.126 150.869L165.149 150.257L166.582 149.746L167.196 149.644Z" fill="#E84739"/>
<path d="M102.006 85.9372H103.848L105.076 86.1414L106.406 86.6518L107.635 87.4686L108.146 87.877V88.0812H108.351L109.272 89.3063L109.988 90.7356L110.398 92.3691V94.1047L110.091 95.534L109.477 96.9634L108.658 98.0864L107.737 99.0052L106.611 99.7199L105.485 100.23L104.36 100.537L103.439 100.639H102.415L100.778 100.332L99.1403 99.6178L98.117 98.801L97.6053 98.2906L96.7865 97.2696L96.0702 95.8403L95.6608 94.411V92.267L96.0702 90.6335L96.7865 89.2042L97.7076 88.0812L98.5263 87.3665L99.8567 86.5497L101.392 86.0393L102.006 85.9372Z" fill="#4282F5"/>
<path d="M152.766 85.9372H154.608L155.836 86.1414L157.064 86.6518L158.292 87.3665L158.906 87.877V88.0812H159.111L160.032 89.3063L160.749 90.7356L161.158 92.3691V94.0026L160.953 95.1257L160.442 96.555L159.52 97.9843L158.497 99.0052L157.371 99.7199L156.246 100.23L155.12 100.537L154.199 100.639H153.175L151.538 100.332L149.901 99.6178L148.877 98.801L148.365 98.2906L147.547 97.2696L146.83 95.8403L146.421 94.411V92.267L146.83 90.6335L147.547 89.2042L148.468 88.0812L149.287 87.3665L150.617 86.5497L152.152 86.0393L152.766 85.9372Z" fill="#4282F5"/>
</svg>