<svg width="256" height="256" title="Google Dataflow" viewBox="0 0 256 256" fill="none" xmlns="http://www.w3.org/2000/svg" id="googledataflow">
<rect width="256" height="256" rx="40" fill="#15191C"/>
<path d="M78.9948 197.907L43.1062 135.744C41.7264 133.354 41 130.643 41 127.884C41 125.124 41.7264 122.413 43.1062 120.023L78.9948 57.8613C80.3748 55.471 82.3598 53.4861 84.7501 52.1062C87.1404 50.7262 89.8519 49.9998 92.6119 50H164.389C167.149 50.0001 169.86 50.7266 172.25 52.1065C174.64 53.4865 176.625 55.4712 178.005 57.8613L213.893 120.023C215.273 122.413 216 125.124 216 127.884C216 130.644 215.273 133.355 213.893 135.746L178.005 197.907C176.625 200.297 174.64 202.282 172.25 203.661C169.86 205.041 167.149 205.767 164.389 205.767H92.6119C89.8518 205.768 87.1403 205.041 84.75 203.661C82.3596 202.281 80.3747 200.298 78.9948 197.907Z" fill="#4387FB"/>
<path fill-rule="evenodd" clip-rule="evenodd" d="M136.63 94.592L135.328 90.08L128.53 89.744L120.238 94.352L127.566 101.552L127.47 109.856L132.387 109.904L132.484 101.6L152.924 113.888L152.876 119.024L161.409 119.168V109.328L136.63 94.592Z" fill="white"/>
<path fill-rule="evenodd" clip-rule="evenodd" d="M128.53 89.744H128.482L121.636 91.424L120.238 94.352L94.8801 108.416L94.7355 118.256L103.317 118.4L103.413 113.264L124.191 101.504L124.095 109.808L128.241 109.856L128.53 89.744Z" fill="white"/>
<path fill-rule="evenodd" clip-rule="evenodd" d="M128.53 89.744H128.482L112.043 80L103.654 84.56L120.238 94.352L128.53 89.744Z" fill="white"/>
<path fill-rule="evenodd" clip-rule="evenodd" d="M152.538 142.688L131.808 154.448L131.905 146.192L123.613 146.096L123.516 154.352L127.47 166.256L134.315 165.68L135.713 161.6L161.12 147.536L161.264 137.504L152.635 137.408L152.538 142.688Z" fill="white"/>
<path fill-rule="evenodd" clip-rule="evenodd" d="M127.47 166.256L110.789 175.568H110.548L102.545 170.816L119.37 161.408L127.47 166.256Z" fill="white"/>
<path fill-rule="evenodd" clip-rule="evenodd" d="M136.63 94.592L153.455 85.184L145.452 80.432H145.211L128.53 89.744L136.63 94.592Z" fill="white"/>
<path fill-rule="evenodd" clip-rule="evenodd" d="M135.762 161.648L152.346 171.44L144.198 176H143.957L127.47 166.256L135.762 161.648Z" fill="white"/>
<path fill-rule="evenodd" clip-rule="evenodd" d="M127.47 166.208L119.37 161.408L94.5907 146.672V137.072H103.076L103.027 142.064L123.516 154.352L123.613 146.096L127.759 146.144L127.47 166.208Z" fill="white"/>
<path d="M157.504 133.664C160.539 133.664 163 131.214 163 128.192C163 125.17 160.539 122.72 157.504 122.72C154.469 122.72 152.008 125.17 152.008 128.192C152.008 131.214 154.469 133.664 157.504 133.664Z" fill="white"/>
<path d="M98.4959 132.896C101.531 132.896 103.992 130.446 103.992 127.424C103.992 124.402 101.531 121.952 98.4959 121.952C95.4606 121.952 93 124.402 93 127.424C93 130.446 95.4606 132.896 98.4959 132.896Z" fill="white"/>
<path d="M128.29 123.824C131.325 123.824 133.785 121.374 133.785 118.352C133.785 115.33 131.325 112.88 128.29 112.88C125.254 112.88 122.794 115.33 122.794 118.352C122.794 121.374 125.254 123.824 128.29 123.824Z" fill="white"/>
<path d="M127.855 143.072C130.891 143.072 133.351 140.622 133.351 137.6C133.351 134.578 130.891 132.128 127.855 132.128C124.82 132.128 122.359 134.578 122.359 137.6C122.359 140.622 124.82 143.072 127.855 143.072Z" fill="white"/>
</svg>