<svg width="256" height="256" title="Google Cloud Storage" viewBox="0 0 256 256" fill="none" xmlns="http://www.w3.org/2000/svg" id="googlecloudstorage">
<rect width="256" height="256" rx="40" fill="#15191C"/>
<path d="M78.9948 197.907L43.1062 135.744C41.7264 133.354 41 130.643 41 127.884C41 125.124 41.7264 122.413 43.1062 120.023L78.9948 57.8613C80.3748 55.471 82.3598 53.4861 84.7501 52.1062C87.1404 50.7262 89.8519 49.9998 92.6119 50H164.389C167.149 50.0001 169.86 50.7266 172.25 52.1065C174.64 53.4865 176.625 55.4712 178.005 57.8613L213.893 120.023C215.273 122.413 216 125.124 216 127.884C216 130.644 215.273 133.355 213.893 135.746L178.005 197.907C176.625 200.297 174.64 202.282 172.25 203.661C169.86 205.041 167.149 205.767 164.389 205.767H92.6119C89.8518 205.768 87.1403 205.041 84.75 203.661C82.3596 202.281 80.3747 200.298 78.9948 197.907Z" fill="#4387FB"/>
<path d="M168 132H88V160H168V132Z" fill="white"/>
<path d="M168 132H160V160H168V132Z" fill="white"/>
<path d="M168 132H160V160L168 132Z" fill="white"/>
<path d="M96 132H88V160H96V132Z" fill="white"/>
<path d="M128 144H104V148H128V144Z" fill="white"/>
<path d="M152 146C152 142.686 149.314 140 146 140C142.686 140 140 142.686 140 146C140 149.314 142.686 152 146 152C149.314 152 152 149.314 152 146Z" fill="#4387FB"/>
<path d="M168 96H88V124H168V96Z" fill="white"/>
<path d="M168 96H160V124H168V96Z" fill="white"/>
<path d="M168 96H160V124L168 96Z" fill="white"/>
<path d="M96 96H88V124H96V96Z" fill="white"/>
<path d="M128 108H104V112H128V108Z" fill="white"/>
<path d="M152 110C152 106.686 149.314 104 146 104C142.686 104 140 106.686 140 110C140 113.314 142.686 116 146 116C149.314 116 152 113.314 152 110Z" fill="#4387FB"/>
</svg>