<svg width="256" height="256" title="Google Dataproc" viewBox="0 0 256 256" fill="none" xmlns="http://www.w3.org/2000/svg" id="googledataproc">
<rect width="256" height="256" rx="40" fill="#F4F2ED"/>
<path d="M78.9948 197.907L43.1062 135.744C41.7264 133.354 41 130.643 41 127.884C41 125.124 41.7264 122.413 43.1062 120.023L78.9948 57.8613C80.3748 55.471 82.3598 53.4861 84.7501 52.1062C87.1404 50.7262 89.8519 49.9998 92.6119 50H164.389C167.149 50.0001 169.86 50.7266 172.25 52.1065C174.64 53.4865 176.625 55.4712 178.005 57.8613L213.893 120.023C215.273 122.413 216 125.124 216 127.884C216 130.644 215.273 133.355 213.893 135.746L178.005 197.907C176.625 200.297 174.64 202.282 172.25 203.661C169.86 205.041 167.149 205.767 164.389 205.767H92.6119C89.8518 205.768 87.1403 205.041 84.75 203.661C82.3596 202.281 80.3747 200.298 78.9948 197.907Z" fill="#4387FB"/>
<path fill-rule="evenodd" clip-rule="evenodd" d="M158.713 140.692L108.798 169.478L103.993 161.253L153.957 132.418L158.713 140.692Z" fill="white"/>
<path fill-rule="evenodd" clip-rule="evenodd" d="M108.602 160.078V102.506H117.771V153.176L108.602 160.078Z" fill="white"/>
<path fill-rule="evenodd" clip-rule="evenodd" d="M118.065 118.612L116.79 107.058L166.754 135.796L161.998 144.021L118.065 118.612Z" fill="white"/>
<path fill-rule="evenodd" clip-rule="evenodd" d="M141.748 121.403L116.79 107.058L118.065 118.612L125.469 122.822C128.125 123.768 130.954 124.131 133.764 123.886C136.573 123.641 139.296 122.794 141.748 121.403Z" fill="white"/>
<path fill-rule="evenodd" clip-rule="evenodd" d="M111.054 111.758C109.014 108.23 108.197 104.127 108.73 100.088C109.263 96.0484 111.116 92.2975 114.002 89.4171C116.889 86.5367 120.646 84.6879 124.692 84.1575C128.738 83.6271 132.846 84.4448 136.379 86.4837C139.913 88.5226 142.673 91.6687 144.232 95.4339C145.792 99.1992 146.063 103.373 145.004 107.308C143.945 111.243 141.615 114.719 138.375 117.196C135.136 119.674 131.168 121.015 127.087 121.011C123.839 120.998 120.65 120.138 117.838 118.514C115.025 116.891 112.687 114.562 111.054 111.758ZM134.932 98.0505C134.142 96.6836 133.006 95.5481 131.638 94.7576C130.269 93.9672 128.717 93.5495 127.136 93.5465C125.954 93.5401 124.782 93.7671 123.688 94.2144C122.593 94.6617 121.598 95.3206 120.76 96.1532C119.921 96.9858 119.256 97.9756 118.802 99.0657C118.348 100.156 118.114 101.325 118.114 102.506C118.023 103.741 118.188 104.982 118.599 106.151C119.009 107.32 119.657 108.392 120.502 109.3C121.346 110.207 122.369 110.931 123.506 111.427C124.644 111.922 125.871 112.177 127.112 112.177C128.353 112.177 129.58 111.922 130.717 111.427C131.855 110.931 132.878 110.207 133.722 109.3C134.566 108.392 135.214 107.32 135.625 106.151C136.036 104.982 136.201 103.741 136.109 102.506C136.12 100.943 135.713 99.4051 134.932 98.0505Z" fill="white"/>
<path fill-rule="evenodd" clip-rule="evenodd" d="M108.602 134.523V160.078L117.771 153.176V145.196C117.15 142.84 116.003 140.656 114.414 138.808C112.826 136.959 110.839 135.494 108.602 134.523Z" fill="white"/>
<path fill-rule="evenodd" clip-rule="evenodd" d="M136.55 153.469L158.713 140.692L147.876 135.796L141.747 139.713C138.331 143.572 136.478 148.564 136.55 153.714V153.469Z" fill="white"/>
<path fill-rule="evenodd" clip-rule="evenodd" d="M83.4979 162.722C82.2764 160.621 81.4825 158.3 81.1615 155.891C80.8406 153.483 80.999 151.035 81.6276 148.688C82.2562 146.341 83.3428 144.141 84.8248 142.215C86.3069 140.288 88.1554 138.672 90.2643 137.46C92.3598 136.234 94.6797 135.437 97.0878 135.118C99.4959 134.798 101.944 134.962 104.287 135.6C107.239 136.377 109.953 137.87 112.187 139.945C114.422 142.021 116.109 144.616 117.098 147.499C118.087 150.383 118.347 153.465 117.856 156.473C117.364 159.481 116.137 162.321 114.281 164.742C112.426 167.162 110.001 169.087 107.222 170.346C104.442 171.606 101.394 172.16 98.3482 171.96C95.3024 171.76 92.3532 170.813 89.7625 169.201C87.1718 167.589 85.0199 165.364 83.4979 162.722ZM107.278 148.965C106.718 147.906 105.945 146.973 105.009 146.224C104.073 145.474 102.993 144.924 101.836 144.608C100.116 144.141 98.2963 144.195 96.6079 144.765C94.9196 145.334 93.4393 146.393 92.3558 147.806C91.2723 149.218 90.6346 150.921 90.5241 152.697C90.4136 154.473 90.8352 156.242 91.7352 157.777C92.3276 158.796 93.1152 159.689 94.053 160.404C94.9909 161.119 96.0606 161.643 97.2012 161.945C98.3417 162.247 99.5307 162.322 100.7 162.166C101.87 162.009 102.997 161.624 104.018 161.033C105.038 160.442 105.932 159.655 106.648 158.719C107.365 157.782 107.889 156.714 108.192 155.575C108.495 154.437 108.57 153.249 108.413 152.082C108.256 150.914 107.871 149.788 107.278 148.769V148.965Z" fill="white"/>
<path fill-rule="evenodd" clip-rule="evenodd" d="M141.453 161.058C139.84 158.249 138.992 155.067 138.992 151.829C138.992 148.591 139.84 145.41 141.453 142.601C143.915 138.36 147.957 135.264 152.698 133.989C157.438 132.714 162.492 133.363 166.754 135.796C171.003 138.253 174.102 142.293 175.371 147.029C176.639 151.765 175.974 156.811 173.52 161.058C171.891 163.863 169.552 166.191 166.739 167.81C163.925 169.428 160.734 170.28 157.487 170.28C154.239 170.28 151.049 169.428 148.235 167.81C145.421 166.191 143.082 163.863 141.453 161.058ZM165.283 147.301C164.467 145.96 163.34 144.835 161.998 144.021C159.92 142.847 157.463 142.539 155.159 143.162C152.856 143.785 150.891 145.29 149.691 147.35C148.917 148.716 148.511 150.259 148.511 151.829C148.511 153.399 148.917 154.942 149.691 156.309C150.683 158.026 152.218 159.366 154.054 160.119C155.891 160.872 157.926 160.995 159.84 160.47C160.977 160.169 162.044 159.646 162.978 158.932C163.912 158.218 164.695 157.326 165.283 156.309C166.056 154.933 166.462 153.382 166.462 151.805C166.462 150.227 166.056 148.676 165.283 147.301Z" fill="white"/>
<path fill-rule="evenodd" clip-rule="evenodd" d="M117.722 150.238C117.722 150.238 106.249 160.029 103.993 161.253L118.016 153.176C117.991 152.19 117.893 151.209 117.722 150.238Z" fill="white"/>
<path fill-rule="evenodd" clip-rule="evenodd" d="M120.958 120.13C120.958 120.13 118.065 104.072 118.065 102.506L118.065 118.612C118.986 119.142 119.955 119.585 120.958 119.934V120.13Z" fill="white"/>
<path fill-rule="evenodd" clip-rule="evenodd" d="M146.21 137.118C146.21 137.118 159.742 142.748 161.998 144.021L147.975 135.992C147.341 136.291 146.748 136.669 146.21 137.118Z" fill="white"/>
</svg>