<svg width="256" height="256" title="Google BigQuery" viewBox="0 0 256 256" fill="none" xmlns="http://www.w3.org/2000/svg" id="googlebigquery">
<style>
#googlebigquery {
    rect {fill: #15191C}

    @media (prefers-color-scheme: light) {
        rect {fill: #F4F2ED}
    }
}
</style>
<rect width="256" height="256" rx="40" fill="#15191C"/>
<path d="M147.538 185.549C144.034 185.549 141.192 182.707 141.192 179.203V128.5C141.192 124.995 144.034 122.154 147.538 122.154C151.043 122.154 153.884 124.995 153.884 128.5V179.203C153.884 182.707 151.043 185.549 147.538 185.549Z" fill="#34A853"/>
<path d="M90.423 185.549C86.9183 185.549 84.0769 182.707 84.0769 179.203V109.461C84.0769 105.957 86.9183 103.115 90.423 103.115C93.9277 103.115 96.7691 105.957 96.7691 109.461V179.203C96.7691 182.707 93.9277 185.549 90.423 185.549Z" fill="#34A853"/>
<path d="M118.981 191.961C115.476 191.961 112.635 189.12 112.635 185.615V90.423C112.635 86.9183 115.476 84.0768 118.981 84.0768C122.485 84.0768 125.327 86.9183 125.327 90.423V185.615C125.327 189.12 122.485 191.961 118.981 191.961Z" fill="#34A853"/>
<path d="M118.981 191.961C78.739 191.961 46 159.222 46 118.981H58.6923C58.6923 152.224 85.7376 179.269 118.981 179.269C152.224 179.269 179.269 152.224 179.269 118.981H191.961C191.961 159.222 159.222 191.961 118.981 191.961Z" fill="#FBBC04"/>
<path d="M191.961 118.981H179.269C179.269 85.7375 152.224 58.6923 118.981 58.6923C85.7376 58.6923 58.6923 85.7375 58.6923 118.981H46C46 78.7389 78.739 46 118.981 46C159.222 46 191.961 78.7389 191.961 118.981Z" fill="#EA4335"/>
<path d="M204.654 211C203.029 211 201.406 210.38 200.166 209.141L161.611 170.586C159.133 168.108 159.133 164.089 161.611 161.611C164.09 159.133 168.108 159.133 170.586 161.611L209.141 200.166C211.62 202.645 211.62 206.663 209.141 209.141C207.902 210.38 206.278 211 204.654 211V211Z" fill="#4285F4"/>
<path d="M170.585 170.585L161.611 161.611C185.117 138.104 185.117 99.8569 161.611 76.3504L170.585 67.3758C184.37 81.16 191.961 99.4868 191.961 118.981C191.961 138.474 184.37 156.801 170.585 170.585Z" fill="#4285F4"/>
</svg>