<svg width="256" height="256" title="Google Chrome" viewBox="0 0 256 256" fill="none" xmlns="http://www.w3.org/2000/svg" id="googlechrome">
<style>
#googlechrome {
    rect {fill: #15191C}

    @media (prefers-color-scheme: light) {
        rect {fill: #F4F2ED}
    }
}
</style>
<rect width="256" height="256" rx="40" fill="#15191C"/>
<path d="M128.002 165.498C148.714 165.498 165.503 148.707 165.503 127.996C165.503 107.284 148.714 90.4935 128.002 90.4935C107.29 90.4935 90.5007 107.284 90.5007 127.996C90.5007 148.707 107.29 165.498 128.002 165.498Z" fill="white"/>
<path d="M95.5243 146.755L63.052 90.5116C56.4673 101.912 53.0004 114.846 53 128.011C52.9996 141.177 56.4657 154.11 63.0497 165.511C69.6332 176.912 79.1023 186.379 90.5049 192.959C101.907 199.54 114.842 203.003 128.007 202.999L160.479 146.755V146.747C157.19 152.45 152.457 157.187 146.756 160.481C141.056 163.775 134.588 165.509 128.004 165.51C121.421 165.511 114.953 163.779 109.251 160.487C103.549 157.195 98.8151 152.459 95.5243 146.757V146.755Z" fill="#229342"/>
<path d="M160.477 146.753L128.005 202.997C141.17 202.999 154.104 199.534 165.506 192.952C176.908 186.37 186.375 176.901 192.957 165.499C199.538 154.097 203.002 141.163 203 127.998C202.998 114.832 199.529 101.9 192.943 90.4998H128L127.992 90.5053C134.576 90.5022 141.044 92.2326 146.747 95.5226C152.45 98.8127 157.185 103.546 160.478 109.248C163.771 114.949 165.504 121.417 165.504 128.001C165.504 134.585 163.77 141.053 160.477 146.754L160.477 146.753Z" fill="#FBC116"/>
<path d="M128.002 157.693C144.399 157.693 157.691 144.401 157.691 128.003C157.691 111.606 144.399 98.3147 128.002 98.3147C111.605 98.3147 98.3132 111.607 98.3132 128.003C98.3132 144.4 111.605 157.693 128.002 157.693Z" fill="#1A73E8"/>
<path d="M128.002 90.5021H192.946C186.365 79.0996 176.897 69.6306 165.496 63.0472C154.095 56.4642 141.162 52.999 127.996 53C114.831 53.0007 101.898 56.4678 90.4983 63.0527C79.0979 69.6373 69.6322 79.1074 63.0528 90.5108L95.525 146.755L95.5337 146.759C92.2391 141.059 90.5034 134.592 90.5013 128.008C90.4993 121.424 92.2308 114.956 95.5219 109.253C98.8125 103.55 103.547 98.815 109.249 95.5232C114.951 92.2313 121.42 90.4993 128.004 90.5013L128.002 90.5021Z" fill="#E33B2E"/>
</svg>