<svg width="256" height="256" title="GORM" viewBox="0 0 256 256" fill="none" xmlns="http://www.w3.org/2000/svg" id="gorm">
<style>
#gorm {
    rect {fill: #15191C}

    @media (prefers-color-scheme: light) {
        rect {fill: #F4F2ED}
    }
}
</style>
<rect width="256" height="256" rx="40" fill="#15191C"/>
<path fill-rule="evenodd" clip-rule="evenodd" d="M76.8517 108.086C69.6268 108.923 64.5098 112.688 62.011 119.006C60.4885 122.856 59.9972 127.832 60.6703 132.586C61.4158 137.849 63.602 142.091 67.0368 144.938C69.5343 147.008 72.8783 148.365 76.6249 148.828C78.7779 149.094 81.3732 149.05 83.5051 148.711C90.6494 147.575 95.4275 143.273 96.9152 136.637C97.3486 134.703 97.5426 131.795 97.3206 130.56C97.0237 128.91 96.2891 127.967 94.8747 127.422L94.3546 127.221L88.6085 127.197C84.4016 127.18 82.7511 127.197 82.4466 127.262C81.5126 127.461 80.8052 127.95 80.4255 128.66C79.6192 130.168 80.1196 132.074 81.5202 132.831C82.2552 133.228 82.5791 133.259 86.019 133.26L89.1756 133.261V133.743C89.1756 135.277 88.6177 137.069 87.7322 138.378C87.2999 139.017 86.238 140.047 85.5465 140.499C84.4254 141.23 82.9702 141.756 81.5097 141.958C80.6514 142.076 78.7501 142.058 77.9102 141.923C75.9497 141.607 74.1373 140.691 72.7413 139.308C71.8516 138.427 71.2076 137.517 70.6125 136.299C69.8818 134.805 69.4328 133.242 69.1246 131.123C68.9698 130.058 68.9944 126.253 69.1633 125.121C69.6563 121.816 70.7616 119.347 72.5403 117.577C73.8887 116.235 75.4023 115.454 77.4283 115.057C78.271 114.891 80.544 114.87 81.3881 115.021C82.6402 115.243 84.0516 115.805 85.0549 116.481C86.1114 117.193 87.3088 118.526 88.1419 119.92C89.0157 121.381 89.876 122.121 91.0333 122.407C92.0539 122.659 92.9504 122.626 93.8162 122.304C95.3856 121.722 96.187 120.244 95.9713 118.331C95.6993 115.919 93.417 112.847 90.4987 110.963C88.3292 109.563 85.8177 108.66 82.7868 108.19C81.5121 107.992 78.1681 107.934 76.8517 108.086ZM118.775 108.023C117.379 108.162 116.84 108.236 116.039 108.397C110.711 109.473 106.574 112.622 104.221 117.393C102.941 119.989 102.228 122.717 101.946 126.096C101.819 127.621 101.9 130.954 102.1 132.426C102.884 138.188 105.301 142.724 109.101 145.566C111.404 147.288 113.965 148.308 117.226 148.8C118.686 149.021 121.676 149.042 123.123 148.841C128.614 148.081 132.792 145.481 135.559 141.101C138.468 136.496 139.504 129.177 138.167 122.682C136.471 114.449 131.104 109.243 123.198 108.165C122.374 108.052 119.428 107.958 118.775 108.023ZM185.307 108.139C183.071 108.321 181.448 109.609 180.831 111.691C180.705 112.115 180.696 113.142 180.675 128.872C180.658 141.181 180.675 145.721 180.739 146.051C181.099 147.927 182.617 148.985 184.742 148.843C186.419 148.73 187.431 147.961 187.966 146.39C188.1 145.996 188.107 145.441 188.127 133.762C188.142 124.755 188.17 121.553 188.233 121.574C188.279 121.589 190.569 127.069 193.321 133.752C196.073 140.435 198.396 146.04 198.484 146.208C199.061 147.315 200.087 147.959 201.472 148.084C202.992 148.221 204.287 147.601 205.021 146.384C205.16 146.154 207.536 140.474 210.3 133.762C213.188 126.749 215.365 121.559 215.419 121.558C215.495 121.557 215.514 124.027 215.514 133.658C215.514 146.825 215.491 146.095 215.928 147.044C216.145 147.515 216.692 148.114 217.149 148.38C217.716 148.71 218.607 148.891 219.442 148.846C221.437 148.738 222.614 147.724 222.921 145.849C222.971 145.539 222.998 139.79 222.999 129.132C223.001 111.397 223.02 112.195 222.574 111.089C222.135 110.002 221.377 109.164 220.406 108.694C219.722 108.363 219.141 108.211 218.274 108.138C216.826 108.016 215.448 108.262 214.47 108.817C213.629 109.293 212.771 110.278 212.216 111.403C212.097 111.644 209.733 117.429 206.963 124.258C203.704 132.296 201.888 136.682 201.815 136.696C201.731 136.713 200.425 133.576 196.617 124.205C193.819 117.323 191.38 111.413 191.195 111.073C190.653 110.076 189.942 109.28 189.174 108.808C188.294 108.269 186.83 108.015 185.307 108.139ZM147.619 108.703C146.012 108.985 144.908 110.008 144.473 111.616C144.336 112.123 144.33 112.73 144.33 128.759C144.33 144.341 144.339 145.409 144.463 145.888C144.845 147.364 145.657 148.261 147.007 148.701C147.475 148.853 147.743 148.889 148.451 148.896C149.409 148.904 149.888 148.814 150.629 148.484C151.223 148.219 151.97 147.497 152.253 146.915C152.732 145.929 152.716 146.168 152.742 139.732L152.767 133.861H159.831L163.195 139.915C165.045 143.244 166.746 146.27 166.975 146.639C167.828 148.017 168.712 148.687 169.923 148.872C170.916 149.024 171.921 148.877 172.847 148.444C174.897 147.486 175.566 145.119 174.423 142.866C174.198 142.423 168.785 133.069 168.446 132.539C168.35 132.388 168.375 132.366 168.964 132.075C173.048 130.056 175.42 125.707 175.19 120.657C174.909 114.469 171.376 110.387 165.16 109.071C163.402 108.698 163.482 108.701 155.407 108.685C151.228 108.677 147.723 108.685 147.619 108.703ZM118.435 112.711C114.103 113.264 110.726 115.735 108.809 119.757C106.755 124.065 106.457 130.558 108.087 135.474C108.468 136.622 109.373 138.431 110.003 139.3C111.719 141.671 114.027 143.261 116.762 143.955C117.769 144.21 119.69 144.45 120.514 144.424L121.195 144.402L120.616 144.129C119.335 143.524 118.337 142.708 117.805 141.83C117.476 141.285 117.055 140.231 116.845 139.425C116.587 138.432 116.551 137.792 116.676 136.412C116.753 135.555 116.775 134.701 116.746 133.636C116.703 132.055 116.619 131.319 116.275 129.53C116.03 128.256 115.95 126.486 116.092 125.495C116.186 124.835 116.187 124.833 116.301 125.051C116.549 125.527 116.865 125.833 117.361 126.075C117.836 126.307 117.912 126.321 118.661 126.318C119.586 126.315 119.958 126.18 120.482 125.66C120.853 125.292 121.057 124.908 121.384 123.959C121.604 123.323 121.626 123.185 121.59 122.665C121.499 121.349 120.567 120.214 119.325 119.904L118.967 119.814L119.287 119.569C119.58 119.345 119.612 119.336 119.661 119.463C119.767 119.739 120.309 119.705 120.647 119.402C120.844 119.225 120.808 119.083 120.542 118.992L120.305 118.91L120.486 118.81C120.827 118.621 121.801 118.268 122.409 118.115C123.765 117.771 125.444 117.78 126.69 118.139C127.765 118.448 129.744 119.395 130.381 119.905L130.57 120.056L130.381 120.038C130.219 120.022 130.189 120.053 130.169 120.257C130.141 120.546 130.469 120.946 130.759 120.975C130.917 120.991 130.952 120.959 130.973 120.777C130.989 120.641 130.936 120.473 130.83 120.327C130.701 120.148 130.744 120.172 131.016 120.431C131.308 120.71 131.402 120.87 131.56 121.367C131.982 122.694 132.16 124.585 131.962 125.651C131.916 125.896 131.66 126.771 131.392 127.597C130.035 131.777 129.715 133.657 129.859 136.594C129.904 137.496 129.902 138.402 129.854 139.103C129.812 139.707 129.778 140.246 129.777 140.303C129.776 140.448 130.316 139.789 130.839 139.007C131.356 138.235 131.911 137.174 132.275 136.262C132.415 135.911 132.539 135.611 132.549 135.595C132.56 135.579 132.765 135.639 133.006 135.728C133.558 135.931 134.511 136.112 135.019 136.11C135.234 136.109 135.547 136.046 135.718 135.969C136.424 135.651 136.643 134.594 136.106 134.105C135.972 133.984 135.807 133.946 135.295 133.921C134.734 133.894 134.586 133.854 134.124 133.613C133.832 133.46 133.495 133.257 133.374 133.16L133.153 132.985L133.249 132.541C133.429 131.714 133.472 131.386 133.561 130.166C133.742 127.692 133.46 124.695 132.83 122.385C132.352 120.636 131.368 118.677 130.247 117.24C128.25 114.68 125.442 113.124 122.066 112.708C121.328 112.617 119.158 112.619 118.435 112.711ZM41.5258 114.186C41.2747 114.345 40.167 115.771 40.2055 115.886C40.2376 115.982 58.8561 116.082 59.1438 115.988C59.239 115.957 59.4005 115.842 59.5029 115.733C59.6745 115.549 59.6891 115.475 59.6891 114.794V114.055L50.7108 114.055C42.3002 114.055 41.7195 114.064 41.5258 114.186ZM123.327 115.041C123.171 115.099 123.12 115.163 123.138 115.281C123.157 115.42 123.204 115.44 123.47 115.424C123.688 115.411 123.815 115.444 123.897 115.536C124.065 115.723 124.18 116.197 124.181 116.699L124.181 117.131H124.657L124.616 116.54C124.535 115.371 124.026 114.779 123.327 115.041ZM152.761 127.784H156.457C160.436 127.784 161.324 127.732 162.342 127.44C164.183 126.91 165.563 125.659 166.147 123.988C166.673 122.484 166.667 120.332 166.132 118.977C165.418 117.165 164.019 115.987 161.91 115.419L161.191 115.225L152.761 115.17V127.784ZM125.43 116.018C125.232 116.172 124.864 116.834 124.863 117.037C124.862 117.09 124.955 117.131 125.078 117.131C125.266 117.131 125.313 117.085 125.426 116.79C125.498 116.603 125.637 116.397 125.735 116.333C125.897 116.228 125.933 116.23 126.135 116.348C126.55 116.591 126.777 116.304 126.402 116.011C126.136 115.803 125.701 115.807 125.43 116.018ZM122.442 116.217C122.255 116.319 122.178 116.413 122.178 116.539C122.178 116.755 122.443 116.824 122.591 116.647C122.754 116.451 123.022 116.508 123.232 116.781C123.338 116.919 123.425 117.065 123.425 117.106C123.425 117.147 123.527 117.165 123.652 117.147C123.777 117.129 123.879 117.099 123.879 117.082C123.879 117.064 123.814 116.924 123.735 116.771C123.419 116.16 122.931 115.95 122.442 116.217ZM34.309 118.632C34.0422 118.738 33 120.088 33 120.327V120.532L45.2495 120.484C53.3901 120.452 57.5477 120.41 57.6441 120.359C57.7381 120.309 57.8755 120.02 58.0349 119.537C58.2412 118.913 58.2649 118.774 58.1819 118.675C58.0924 118.568 56.9418 118.557 46.2786 118.561C39.659 118.564 34.4017 118.595 34.309 118.632ZM127.681 120.762C126.894 121.016 126.142 121.681 125.783 122.441C125.601 122.825 125.58 122.957 125.58 123.695C125.58 124.467 125.596 124.552 125.817 125.008C125.948 125.276 126.111 125.653 126.18 125.846C126.354 126.33 126.826 126.835 127.334 127.082C127.902 127.358 128.872 127.418 129.513 127.218C130.005 127.064 130.681 126.505 130.907 126.065C131.237 125.424 131.601 124.363 131.642 123.923C131.758 122.69 131.012 121.427 129.852 120.892C129.515 120.737 129.3 120.697 128.718 120.68C128.259 120.666 127.884 120.696 127.681 120.762ZM45.9996 123.256C45.7729 123.396 44.9999 124.729 45.0363 124.917C45.0595 125.037 45.4623 125.05 50.6929 125.102C54.7632 125.142 56.3817 125.135 56.5307 125.075C56.7572 124.983 56.7785 124.909 56.8562 123.95C56.8944 123.479 56.8808 123.358 56.7782 123.256C56.6653 123.144 56.1765 123.133 51.4237 123.135C46.775 123.136 46.1718 123.15 45.9996 123.256ZM122.14 125.609C121.717 125.803 121.539 126.022 121.537 126.35C121.535 126.654 121.902 127.041 122.301 127.155C122.441 127.194 122.552 127.268 122.548 127.318C122.544 127.368 122.536 127.582 122.529 127.792L122.518 128.176L122.234 128.126C122.079 128.098 121.735 127.976 121.472 127.855C121.094 127.682 120.961 127.653 120.843 127.715C120.56 127.865 120.7 128.101 121.231 128.368L121.721 128.615L121.878 129.203C121.964 129.527 122.091 129.877 122.16 129.981C122.405 130.351 123.092 130.419 123.597 130.123C123.89 129.952 124.106 129.462 124.157 128.853C124.201 128.34 124.204 128.333 124.528 128.13C124.707 128.018 124.958 127.808 125.086 127.664C125.275 127.45 125.302 127.375 125.238 127.255C125.115 127.028 124.909 127.079 124.48 127.443C124.08 127.782 123.642 128.02 123.245 128.115C123.027 128.167 123.026 128.166 123.074 127.882C123.1 127.725 123.122 127.529 123.122 127.446C123.123 127.325 123.204 127.275 123.519 127.201C124.248 127.029 124.565 126.479 124.209 126.005C123.838 125.512 122.788 125.311 122.14 125.609ZM116.671 126.634C116.572 126.732 116.621 127.093 116.74 127.138C116.962 127.223 117.077 127.185 117.163 126.999C117.228 126.857 117.225 126.786 117.152 126.699C117.054 126.582 116.763 126.543 116.671 126.634ZM130.472 127.124C130.28 127.314 130.441 127.709 130.711 127.709C130.79 127.709 130.986 127.468 130.986 127.371C130.986 127.244 130.78 127.034 130.655 127.034C130.604 127.034 130.522 127.074 130.472 127.124ZM112.442 127.301C112.433 127.309 112.233 127.333 111.999 127.354C111.32 127.416 110.361 128.098 110.236 128.609C110.231 128.63 110.178 128.731 110.12 128.834C110.055 128.948 110.012 129.242 110.01 129.585C110.007 130.272 110.178 130.689 110.683 131.225C111.166 131.737 111.651 131.937 112.425 131.944C112.757 131.947 113.063 131.97 113.105 131.995C113.245 132.081 113.905 132.146 114.13 132.097L114.354 132.048L113.988 131.439L114.277 131.076C114.659 130.597 114.767 130.265 114.762 129.585C114.757 128.946 114.597 128.532 114.157 128.022C113.847 127.663 113.234 127.346 112.783 127.311C112.605 127.297 112.452 127.293 112.442 127.301ZM111.782 127.479C110.15 127.974 109.617 129.911 110.784 131.11C112.026 132.387 114.223 131.776 114.583 130.053C114.812 128.961 114.134 127.843 113.05 127.523C112.64 127.403 112.097 127.384 111.782 127.479ZM122.253 131.689C120.705 131.845 119.728 132.137 119.228 132.595C118.853 132.938 118.477 133.7 118.322 134.435C118.002 135.945 118.167 139.16 118.642 140.688C118.818 141.253 119.302 141.93 119.836 142.358C120.656 143.015 121.999 143.597 123.262 143.843C123.646 143.918 124.042 143.918 125.228 143.843C126.493 143.763 126.773 143.723 127.109 143.574C128.113 143.129 128.86 141.835 129.223 139.914C129.41 138.923 129.406 136.359 129.216 135.324C128.97 133.979 128.58 132.986 128.121 132.531C127.887 132.298 127.129 131.983 126.337 131.789C125.779 131.652 123.235 131.59 122.253 131.689Z" fill="#38B6FF"/>
<path fill-rule="evenodd" clip-rule="evenodd" d="M119.886 119.159C119.579 119.344 119.586 119.558 119.9 119.594C120.204 119.628 120.455 119.553 120.635 119.375C120.972 119.04 120.369 118.866 119.886 119.159ZM130.177 120.181C130.104 120.369 130.388 120.831 130.627 120.914C130.895 121.007 131.023 120.891 130.955 120.618C130.85 120.207 130.289 119.891 130.177 120.181ZM116.714 126.671C116.573 126.811 116.602 127.019 116.777 127.111C116.986 127.223 117.165 127.075 117.135 126.815C117.109 126.598 116.87 126.516 116.714 126.671ZM130.416 127.188C130.389 127.232 130.388 127.35 130.413 127.451C130.446 127.582 130.511 127.634 130.643 127.634C130.868 127.634 131.002 127.43 130.901 127.242C130.823 127.097 130.496 127.061 130.416 127.188ZM111.959 127.489C111.32 127.61 110.694 128.082 110.373 128.684C110.16 129.085 110.177 130.116 110.403 130.539C110.829 131.333 111.66 131.802 112.538 131.741C113.784 131.656 114.646 130.697 114.566 129.484C114.48 128.179 113.257 127.243 111.959 127.489ZM111.836 127.816C111.346 127.946 110.956 128.272 110.698 128.763C110.51 129.124 110.488 129.232 110.518 129.68C110.563 130.352 110.836 130.804 111.398 131.138C111.889 131.43 112.331 131.507 112.836 131.386C113.845 131.146 114.447 130.15 114.2 129.129C114.066 128.575 113.497 127.996 112.921 127.829C112.439 127.688 112.319 127.687 111.836 127.816ZM111.92 127.965C111.187 128.158 110.65 128.844 110.649 129.589C110.647 130.352 111.261 131.073 112.052 131.236C113.626 131.561 114.734 129.742 113.696 128.538C113.23 127.999 112.583 127.79 111.92 127.965ZM112.567 128.483C113.147 128.846 113.37 129.182 113.37 129.693C113.37 129.881 113.404 130.035 113.445 130.035C113.599 130.035 113.527 129.259 113.346 128.962C113.151 128.641 112.803 128.383 112.576 128.389C112.429 128.393 112.429 128.396 112.567 128.483ZM121.724 131.795C120.151 132.01 119.402 132.315 118.995 132.905C118.68 133.361 118.447 133.973 118.317 134.686C118.102 135.859 118.227 138.835 118.548 140.209C118.962 141.979 120.454 143.148 123.091 143.77C123.688 143.911 123.769 143.912 125.236 143.802C126.178 143.732 126.864 143.645 127.034 143.575C128.461 142.983 129.329 140.776 129.336 137.725C129.342 134.898 128.72 132.796 127.735 132.315C127.239 132.073 126.547 131.854 125.991 131.765C125.336 131.659 122.57 131.679 121.724 131.795ZM119.527 134.344C119.399 134.398 119.171 134.586 119.019 134.762C118.336 135.554 118.311 136.85 118.973 137.079C119.709 137.333 120.388 136.995 120.706 136.217C120.954 135.612 120.904 135.558 120.147 135.605C119.801 135.626 119.448 135.68 119.363 135.726C119.157 135.835 119.087 136.04 119.212 136.165C119.298 136.25 119.38 136.249 119.725 136.161C120.212 136.036 120.286 136.112 119.975 136.415C119.764 136.62 119.635 136.663 119.288 136.646C118.885 136.625 118.883 135.848 119.285 135.245C119.594 134.783 119.792 134.696 120.15 134.865C120.393 134.98 120.438 134.982 120.537 134.884C120.848 134.575 120.022 134.134 119.527 134.344ZM124.042 134.41C123.977 134.487 123.957 134.881 123.972 135.784L123.992 137.05H124.181C124.353 137.05 124.372 137.017 124.393 136.693C124.407 136.479 124.453 136.337 124.507 136.338C124.612 136.338 125.267 136.718 125.546 136.94C125.781 137.128 125.996 137.068 125.996 136.815C125.996 136.686 125.899 136.566 125.658 136.398L125.32 136.161L125.598 135.923C125.823 135.73 125.875 135.634 125.875 135.411C125.875 135.06 125.656 134.77 125.232 134.561C124.789 134.342 124.165 134.263 124.042 134.41ZM128.235 134.48C128.176 134.573 128.058 134.902 127.974 135.211C127.698 136.223 127.697 136.224 127.548 135.548C127.348 134.637 127.261 134.427 127.075 134.4C126.859 134.369 126.713 134.608 126.602 135.174C126.553 135.422 126.448 135.839 126.368 136.101C126.171 136.746 126.176 137.062 126.382 137.127C126.618 137.202 126.711 137.051 126.869 136.341L127.01 135.706L127.149 136.19C127.377 136.984 127.432 137.087 127.626 137.087C127.844 137.087 127.869 137.048 128.158 136.264L128.393 135.628L128.521 136.226C128.697 137.051 128.752 137.162 128.983 137.162C129.245 137.162 129.279 137.025 129.137 136.551C129.07 136.33 128.949 135.778 128.867 135.324C128.766 134.768 128.675 134.468 128.589 134.405C128.413 134.275 128.359 134.286 128.235 134.48ZM121.872 134.492C121.386 134.701 121.006 135.353 121.006 135.975C121.006 136.435 121.153 136.726 121.49 136.933C122.461 137.528 123.573 136.834 123.635 135.596C123.665 135.002 123.497 134.665 123.086 134.494C122.763 134.36 122.178 134.359 121.872 134.492ZM122.102 134.951C121.766 135.117 121.526 135.512 121.511 135.925C121.499 136.224 121.528 136.301 121.709 136.456C122.117 136.804 122.734 136.64 123.011 136.109C123.128 135.884 123.161 135.238 123.063 135.085C122.997 134.981 122.64 134.836 122.456 134.838C122.386 134.839 122.227 134.89 122.102 134.951ZM124.408 135.287V135.737H124.677C124.987 135.737 125.391 135.552 125.391 135.41C125.391 135.21 124.853 134.836 124.564 134.836C124.424 134.836 124.408 134.882 124.408 135.287Z" fill="#8FD2F9"/>
<path fill-rule="evenodd" clip-rule="evenodd" d="M119.22 134.554C118.807 134.914 118.511 135.587 118.511 136.167C118.511 136.571 118.539 136.666 118.719 136.865C118.989 137.166 119.431 137.235 119.911 137.053C120.286 136.911 120.546 136.623 120.743 136.131C120.946 135.624 120.88 135.561 120.192 135.604C119.353 135.657 119.002 135.853 119.22 136.149C119.307 136.267 119.342 136.268 119.719 136.157C119.942 136.091 120.141 136.054 120.162 136.075C120.247 136.159 119.984 136.488 119.741 136.603C118.878 137.009 118.686 135.908 119.46 134.995C119.675 134.742 119.875 134.706 120.173 134.87C120.384 134.986 120.628 134.906 120.628 134.72C120.628 134.543 120.17 134.312 119.818 134.312C119.566 134.311 119.44 134.362 119.22 134.554ZM124.07 134.413C123.968 134.487 123.954 134.684 123.972 135.775L123.992 137.05H124.181C124.353 137.05 124.372 137.017 124.393 136.693C124.406 136.497 124.45 136.337 124.491 136.337C124.622 136.337 125.189 136.65 125.482 136.883C125.718 137.071 125.784 137.093 125.88 137.014C126.08 136.849 126.008 136.655 125.655 136.403L125.314 136.16L125.579 135.943C125.812 135.752 125.845 135.684 125.845 135.384C125.845 135.09 125.807 135.007 125.581 134.795C125.205 134.443 124.333 134.222 124.07 134.413ZM128.311 134.41C128.246 134.459 128.109 134.786 128.006 135.136C127.904 135.487 127.789 135.859 127.749 135.962C127.68 136.144 127.675 136.14 127.599 135.849C127.555 135.684 127.479 135.347 127.43 135.099C127.312 134.51 127.233 134.372 127.033 134.4C126.811 134.432 126.728 134.633 126.439 135.834C126.179 136.913 126.187 137.125 126.487 137.125C126.667 137.125 126.721 137.008 126.868 136.312C126.936 135.989 127.007 135.739 127.025 135.757C127.043 135.776 127.128 136.039 127.212 136.343C127.384 136.958 127.462 137.087 127.664 137.087C127.837 137.087 127.861 137.046 128.155 136.272L128.395 135.639L128.527 136.228C128.701 137.002 128.779 137.162 128.986 137.162C129.232 137.162 129.256 137.007 129.097 136.455C129.02 136.185 128.916 135.702 128.868 135.382C128.729 134.458 128.585 134.206 128.311 134.41ZM121.802 134.557C121.36 134.806 121.057 135.335 121.019 135.926C120.99 136.39 120.995 136.406 121.281 136.704C121.974 137.427 122.991 137.243 123.478 136.308C123.664 135.951 123.689 135.226 123.525 134.911C123.255 134.394 122.404 134.219 121.802 134.557ZM122.052 134.947C121.789 135.094 121.554 135.48 121.492 135.868C121.446 136.148 121.465 136.203 121.671 136.409C121.858 136.594 121.964 136.637 122.229 136.635C122.601 136.633 122.821 136.491 123.001 136.134C123.148 135.845 123.161 135.217 123.024 135.031C122.889 134.848 122.317 134.798 122.052 134.947ZM124.408 135.287V135.737L124.74 135.737C124.952 135.737 125.135 135.686 125.248 135.595C125.399 135.474 125.412 135.429 125.339 135.27C125.248 135.072 124.828 134.836 124.567 134.836C124.423 134.836 124.408 134.879 124.408 135.287Z" fill="#F3803A"/>
<path fill-rule="evenodd" clip-rule="evenodd" d="M123.35 117.203C122.325 117.312 121.178 117.675 120.062 118.243C119.386 118.588 118.409 119.268 118.065 119.634C117.886 119.825 117.883 119.825 117.687 119.688C117.252 119.38 116.384 119.289 115.881 119.498C115.049 119.843 114.901 120.518 115.482 121.314C115.695 121.605 115.696 121.614 115.592 122.012C115.465 122.498 115.457 123.142 115.571 123.633C115.642 123.94 115.629 124.111 115.487 124.746C115.278 125.684 115.206 127.262 115.33 128.197C115.379 128.568 115.52 129.427 115.643 130.105C115.819 131.078 115.846 131.352 115.771 131.404C115.718 131.441 115.386 131.612 115.033 131.784C114.404 132.091 114.373 132.098 113.609 132.098C112.879 132.098 112.818 132.11 112.683 132.275C112.37 132.658 112.609 133.242 113.155 133.433C113.693 133.621 114.572 133.749 115.326 133.749H116.035L115.989 135.061C115.964 135.784 115.921 136.779 115.895 137.275C115.858 137.966 115.876 138.331 115.975 138.847C116.157 139.806 116.5 140.831 116.936 141.72C117.377 142.619 118.104 143.449 118.962 144.03C119.448 144.36 119.529 144.389 120.052 144.423C120.363 144.442 120.713 144.435 120.83 144.405C121.032 144.355 121.015 144.34 120.509 144.107C118.872 143.354 117.902 142.358 117.268 140.778C116.588 139.085 116.489 138.186 116.685 135.507C116.819 133.669 116.724 132.276 116.303 129.891C116.035 128.373 115.99 127.962 115.984 126.996C115.981 126.347 116.021 125.641 116.079 125.327L116.181 124.782L116.533 125.093C116.727 125.264 117.072 125.492 117.301 125.6C117.671 125.774 117.809 125.796 118.549 125.796C119.316 125.796 119.416 125.779 119.834 125.575C121.79 124.625 122.161 122.109 120.561 120.639C120.142 120.254 119.475 119.907 119.155 119.907C118.489 119.907 120.287 118.761 121.669 118.306C124.152 117.487 126.171 117.666 128.756 118.932C129.979 119.531 130.539 119.905 131.218 120.578C131.865 121.218 132.168 121.63 132.628 122.495C133.005 123.203 133.028 123.126 132.732 122.157C132.297 120.736 132.22 120.586 131.638 120.015C130.81 119.201 129.819 118.592 128.226 117.917C126.969 117.385 126.157 117.2 124.937 117.169C124.376 117.154 123.662 117.17 123.35 117.203ZM116.127 120.128C115.769 120.272 115.732 120.617 116.046 120.876C116.151 120.962 116.189 120.95 116.313 120.793C116.393 120.692 116.6 120.512 116.773 120.393C117.045 120.207 117.069 120.169 116.949 120.122C116.761 120.048 116.316 120.052 116.127 120.128ZM117.583 120.388C116.83 120.696 116.41 121.097 116.078 121.824C115.814 122.404 115.832 123.319 116.12 123.938C116.624 125.021 117.839 125.669 118.969 125.458C120.529 125.167 121.502 123.708 121.125 122.225C120.73 120.671 119.039 119.794 117.583 120.388ZM127.648 120.826C126.98 121.058 126.565 121.355 126.177 121.876C125.734 122.473 125.58 122.952 125.582 123.733C125.583 124.291 125.613 124.433 125.822 124.875C126.141 125.546 126.65 126.075 127.272 126.378C127.742 126.608 127.816 126.621 128.603 126.621C129.371 126.621 129.471 126.604 129.89 126.401C131.821 125.462 132.206 122.942 130.64 121.488C130.067 120.956 129.531 120.732 128.718 120.684C128.258 120.657 128.055 120.684 127.648 120.826ZM127.832 121.136C127.051 121.389 126.502 121.87 126.155 122.604C125.986 122.96 125.959 123.117 125.964 123.695C125.971 124.513 126.123 124.904 126.654 125.467C128.156 127.061 130.769 126.312 131.212 124.159C131.446 123.018 130.794 121.769 129.702 121.27C129.2 121.04 128.323 120.977 127.832 121.136ZM118.72 121.374C118.446 121.522 118.284 121.849 118.284 122.256C118.284 123.217 119.593 123.562 120.102 122.735C120.368 122.301 120.252 121.747 119.825 121.414C119.584 121.226 119.032 121.206 118.72 121.374ZM119.27 121.741C119.07 121.98 119.365 122.357 119.601 122.163C119.755 122.035 119.755 121.736 119.601 121.678C119.424 121.61 119.371 121.621 119.27 121.741ZM127.49 122.125C127.267 122.245 126.979 122.728 126.979 122.982C126.979 123.502 127.455 123.957 127.999 123.957C128.791 123.957 129.276 123.065 128.829 122.432C128.547 122.032 127.926 121.89 127.49 122.125ZM127.64 122.462C127.48 122.556 127.468 122.781 127.618 122.905C127.86 123.104 128.232 122.811 128.067 122.551C127.965 122.391 127.816 122.36 127.64 122.462ZM122.511 125.528C121.84 125.66 121.441 126.101 121.615 126.519C121.723 126.778 122.086 127.074 122.386 127.149C122.611 127.204 122.637 127.325 122.545 127.878C122.505 128.12 122.471 128.159 122.3 128.157C122.191 128.156 121.898 128.069 121.649 127.963C121.038 127.703 120.899 127.678 120.792 127.806C120.638 127.99 120.769 128.139 121.279 128.359C121.658 128.523 121.777 128.613 121.809 128.759C121.959 129.458 122.158 129.963 122.34 130.105C122.605 130.312 123.218 130.316 123.554 130.113C123.88 129.916 124.016 129.627 124.11 128.931C124.173 128.466 124.223 128.324 124.355 128.234C124.72 127.988 125.24 127.456 125.24 127.329C125.24 127.255 125.17 127.172 125.085 127.145C124.969 127.109 124.844 127.175 124.59 127.408C124.247 127.721 123.425 128.159 123.18 128.159C123.077 128.159 123.047 128.096 123.048 127.878C123.05 127.372 123.103 127.292 123.506 127.19C123.978 127.07 124.333 126.753 124.333 126.451C124.333 125.85 123.365 125.359 122.511 125.528ZM123.387 128.609C123.263 128.641 122.963 128.671 122.721 128.676C122.34 128.683 122.286 128.702 122.319 128.816C122.34 128.888 122.395 129.089 122.44 129.262C122.526 129.593 122.689 129.81 122.852 129.81C123.096 129.81 123.413 129.634 123.496 129.453C123.584 129.261 123.704 128.525 123.644 128.543C123.628 128.548 123.512 128.578 123.387 128.609ZM133.466 129.435C133.437 129.579 133.199 130.346 132.937 131.14L132.46 132.583L132.211 132.584C131.139 132.59 130.935 134.048 131.872 135.002C132.103 135.238 132.15 135.344 132.18 135.696C132.199 135.925 132.239 136.112 132.268 136.112C132.298 136.112 132.368 135.975 132.423 135.809C132.5 135.579 132.553 135.518 132.643 135.556C133.122 135.757 133.981 135.977 134.571 136.051C135.25 136.136 135.283 136.134 135.643 135.957C136.127 135.719 136.354 135.38 136.354 134.897C136.354 134.468 136.212 134.154 135.963 134.031C135.866 133.983 135.566 133.949 135.295 133.954C134.905 133.962 134.709 133.921 134.35 133.758C133.772 133.496 133.204 133.135 133.15 132.996C133.127 132.937 133.172 132.643 133.249 132.343C133.405 131.736 133.583 130.031 133.544 129.51L133.519 129.172L133.466 129.435ZM115.222 132.136C114.558 132.465 114.524 132.473 113.804 132.477C113.003 132.481 112.847 132.543 112.986 132.801C113.108 133.026 113.286 133.1 113.991 133.218C115.023 133.391 115.356 133.418 115.713 133.354L116.054 133.294L116.028 132.764C116.013 132.472 115.979 132.136 115.952 132.016L115.902 131.798L115.222 132.136ZM131.878 133.049C131.433 133.391 131.617 134.289 132.244 134.835C132.723 135.253 133.651 135.58 134.703 135.702C135.497 135.795 135.976 135.485 135.976 134.878C135.976 134.396 135.883 134.331 135.144 134.294C134.405 134.257 133.892 134.041 133.013 133.398C132.473 133.003 132.09 132.886 131.878 133.049Z" fill="black"/>
<path fill-rule="evenodd" clip-rule="evenodd" d="M117.837 120.321C117.329 120.462 117.051 120.631 116.643 121.046C115.675 122.032 115.658 123.63 116.605 124.62C116.801 124.824 117.148 125.088 117.377 125.206C117.749 125.397 117.869 125.42 118.511 125.42C119.13 125.421 119.288 125.393 119.656 125.222C120.18 124.979 120.632 124.542 120.903 124.017C121.194 123.454 121.241 122.527 121.009 121.917C120.544 120.693 119.104 119.969 117.837 120.321ZM127.901 121.144C127.371 121.292 127.246 121.364 126.806 121.772C126.132 122.398 125.839 123.249 125.999 124.125C126.156 124.992 126.622 125.606 127.449 126.036C127.803 126.22 127.929 126.244 128.567 126.245C129.187 126.246 129.343 126.219 129.712 126.047C130.232 125.805 130.684 125.371 130.964 124.842C131.154 124.485 131.175 124.371 131.175 123.695C131.175 123.027 131.152 122.899 130.965 122.522C130.422 121.424 129.074 120.818 127.901 121.144ZM118.845 121.289C118.32 121.515 118.093 122.103 118.329 122.623C118.508 123.017 118.822 123.207 119.295 123.207C119.622 123.208 119.696 123.175 119.956 122.916C120.217 122.658 120.25 122.584 120.249 122.26C120.249 121.807 120.058 121.476 119.699 121.307C119.382 121.158 119.159 121.153 118.845 121.289ZM119.322 121.717C119.028 121.88 119.289 122.306 119.586 122.148C119.66 122.109 119.721 122.012 119.721 121.932C119.721 121.744 119.494 121.621 119.322 121.717ZM127.751 122.012C127.088 122.151 126.769 122.95 127.15 123.515C127.597 124.179 128.455 124.164 128.872 123.485C129.336 122.73 128.647 121.824 127.751 122.012ZM127.634 122.507C127.538 122.603 127.584 122.892 127.703 122.937C127.863 122.998 127.859 122.999 127.994 122.865C128.083 122.776 128.093 122.712 128.034 122.602C127.958 122.461 127.734 122.408 127.634 122.507ZM111.836 127.816C111.346 127.946 110.956 128.272 110.698 128.763C110.51 129.124 110.488 129.232 110.518 129.68C110.563 130.352 110.836 130.804 111.398 131.138C111.889 131.43 112.331 131.507 112.836 131.386C113.845 131.146 114.447 130.15 114.2 129.129C114.066 128.575 113.497 127.996 112.921 127.829C112.439 127.688 112.319 127.687 111.836 127.816ZM111.92 127.965C111.187 128.158 110.65 128.844 110.649 129.589C110.647 130.352 111.261 131.073 112.052 131.236C113.626 131.561 114.734 129.742 113.696 128.538C113.23 127.999 112.583 127.79 111.92 127.965ZM112.567 128.483C113.147 128.846 113.37 129.182 113.37 129.693C113.37 129.881 113.404 130.035 113.445 130.035C113.599 130.035 113.527 129.259 113.346 128.962C113.151 128.641 112.803 128.383 112.576 128.389C112.429 128.393 112.429 128.396 112.567 128.483ZM122.868 128.665L122.348 128.692L122.388 128.936C122.41 129.071 122.481 129.305 122.545 129.458C122.651 129.71 122.688 129.735 122.956 129.735C123.305 129.735 123.48 129.576 123.543 129.205C123.567 129.063 123.602 128.871 123.621 128.778C123.647 128.651 123.622 128.613 123.521 128.624C123.448 128.632 123.154 128.651 122.868 128.665ZM115.355 132.111C114.763 132.433 113.97 132.608 113.497 132.521C113.309 132.486 113.113 132.482 113.063 132.513C112.91 132.607 113.045 132.934 113.274 133.023C113.678 133.18 114.85 133.344 115.411 133.321C115.949 133.3 115.979 133.289 116.004 133.114C116.041 132.856 115.938 131.833 115.877 131.844C115.849 131.849 115.614 131.969 115.355 132.111ZM131.859 133.138C131.481 133.513 131.724 134.426 132.322 134.879C133.086 135.457 134.869 135.855 135.51 135.591C135.927 135.42 136.111 134.837 135.861 134.482C135.761 134.341 135.697 134.324 135.382 134.361C134.746 134.436 134.026 134.14 132.856 133.322C132.303 132.936 132.1 132.899 131.859 133.138Z" fill="#EED5C2"/>
<path fill-rule="evenodd" clip-rule="evenodd" d="M116.127 120.128C115.769 120.272 115.732 120.617 116.046 120.876C116.151 120.962 116.189 120.95 116.313 120.793C116.393 120.692 116.6 120.512 116.773 120.393C117.045 120.207 117.069 120.169 116.949 120.122C116.761 120.048 116.316 120.052 116.127 120.128ZM130.824 120.214C130.871 120.279 130.884 120.364 130.853 120.401C130.822 120.439 130.829 120.443 130.867 120.412C130.906 120.38 131.034 120.447 131.152 120.559C131.752 121.129 132.236 124.174 131.962 125.651C131.916 125.896 131.66 126.771 131.392 127.597C130.035 131.777 129.715 133.657 129.859 136.594C129.904 137.496 129.902 138.402 129.854 139.103C129.812 139.707 129.778 140.246 129.777 140.303C129.774 140.574 130.976 138.897 131.546 137.834C131.958 137.064 132.362 136.112 132.276 136.112C132.242 136.112 132.199 135.925 132.18 135.696C132.15 135.344 132.103 135.238 131.872 135.002C130.935 134.048 131.139 132.59 132.211 132.584L132.46 132.583L132.937 131.14C133.199 130.346 133.436 129.579 133.464 129.435L133.514 129.172L133.57 129.435C133.67 129.909 133.56 126.567 133.446 125.646C133.293 124.417 133.081 123.283 133.005 123.283C132.97 123.283 132.964 123.211 132.993 123.123C133.023 123.029 133.014 122.982 132.971 123.008C132.932 123.032 132.818 122.877 132.718 122.663C132.408 122 131.849 121.213 131.282 120.642C130.984 120.341 130.777 120.148 130.824 120.214ZM120.927 124.69C120.339 125.478 119.448 125.872 118.372 125.82C117.593 125.782 117.082 125.578 116.517 125.079L116.148 124.754L116.281 125.012C116.546 125.525 116.852 125.826 117.361 126.075C117.836 126.307 117.912 126.321 118.661 126.318C119.587 126.315 119.956 126.181 120.487 125.657C120.768 125.38 121.298 124.448 121.22 124.37C121.203 124.354 121.071 124.498 120.927 124.69ZM130.986 125.512C130.393 126.306 129.507 126.697 128.418 126.645C127.557 126.604 126.942 126.323 126.382 125.716L126.001 125.302L126.11 125.66C126.329 126.384 126.955 127.007 127.676 127.219C128.191 127.371 129.056 127.365 129.551 127.207C130.021 127.056 130.692 126.483 130.922 126.036C131.067 125.754 131.3 125.158 131.266 125.158C131.257 125.158 131.131 125.318 130.986 125.512ZM123.486 131.666C123.831 131.68 124.375 131.68 124.695 131.666C125.016 131.652 124.733 131.641 124.068 131.641C123.403 131.641 123.141 131.652 123.486 131.666Z" fill="#3EB5FB"/>
</svg>