<svg width="256" height="256" title="Graphite" viewBox="0 0 256 256" fill="none" xmlns="http://www.w3.org/2000/svg" id="graphite">
<style>
#graphite {
    rect {fill: #15191C}

    @media (prefers-color-scheme: light) {
        rect {fill: #F4F2ED}
    }
}
</style>
<rect width="256" height="256" rx="40" fill="#15191C"/>
<path d="M186.162 110.586L157.912 61.5567C156.731 59.7498 154.766 58.6123 152.612 58.4888H96.1103C93.9566 58.6123 91.9911 59.7498 90.8104 61.5567L62.5532 110.586C61.5866 112.517 61.5866 114.785 62.5532 116.716L90.8104 165.752C91.9911 167.558 93.9566 168.696 96.1103 168.813H152.612C154.766 168.696 156.731 167.558 157.912 165.752L186.169 116.716C187.129 114.785 187.129 112.517 186.162 110.586Z" fill="#F1DECD"/>
<path d="M157.199 56.3313H107.84L149.862 128.942L186.897 107.87L157.199 56.3313Z" fill="#3EA8FF"/>
<path d="M117.783 56.3313H92.4323L84.6155 67.1992L126.93 140.643L156.725 123.925L117.783 56.3313Z" fill="#2180CE"/>
<path d="M188.355 110.405L153.507 127.447L196.515 192.98L188.355 110.405Z" fill="#DEBA92"/>
<path d="M157.594 125.432L128.026 142.54L188.731 179.467L157.594 125.432Z" fill="#D49B64"/>
<path d="M202.971 192.336L202.925 191.888C202.368 185.785 195.692 112.991 195.673 112.679C195.524 110.833 194.979 109.039 194.083 107.42C194.064 107.363 194.038 107.31 194.012 107.258L193.973 107.161L193.954 107.18L193.941 107.174L193.967 107.161L164.782 56.5C162.46 52.4765 158.178 50 153.54 50H95.1638C90.5321 50 86.2507 52.4765 83.9283 56.5L54.7369 107.154C52.421 111.178 52.421 116.131 54.7369 120.154L83.9283 170.809C86.2442 174.832 90.5256 177.309 95.1638 177.309H153.54C156.044 177.289 158.489 176.535 160.579 175.151L185.612 193.142C181.09 191.725 176.413 190.887 171.684 190.653C159.936 190.087 125.497 190.471 86.4323 193.662C70.403 194.969 62.8261 198.785 63.7084 199.532C65.9724 201.469 68.6515 202.236 82.0017 202.184C93.8858 202.145 128.481 203.426 138.932 204.069C146.333 204.531 154.118 205.941 159.716 206C165.684 205.921 171.632 205.466 177.542 204.634C186.455 203.406 198.275 200.93 200.992 197.634C202.426 196.269 203.159 194.313 202.971 192.336ZM93.542 65.8079C94.6253 64.1504 96.4287 63.104 98.4072 62.9934H150.296C152.269 63.104 154.065 64.1439 155.156 65.795L176.731 103.241C173.494 106.622 170.685 110.391 168.369 114.46L152.301 116.248L142.72 129.3C138.043 129.274 133.378 129.833 128.837 130.951L92.4263 67.7515L93.542 65.8079ZM98.4072 164.309C96.4287 164.198 94.6253 163.151 93.542 161.494L67.5941 116.469C66.7054 114.701 66.7054 112.608 67.5941 110.84L84.9338 80.7579L123.596 147.863L123.622 147.851C124.069 148.657 124.686 149.352 125.432 149.898L145.496 164.315L98.4072 164.309ZM174.149 168.904L136.589 141.91C140.735 141.007 144.964 140.551 149.207 140.551L158.788 127.506L174.856 125.719C176.971 122.039 179.481 118.601 182.33 115.455L186.89 161.54C181.492 160.961 176.342 163.938 174.149 168.904ZM105.964 150.562C106.931 152.076 106.483 154.084 104.979 155.053C103.467 156.021 101.463 155.573 100.496 154.065C100.444 153.987 100.399 153.902 100.353 153.818L77.6489 114.421C76.6824 112.907 77.13 110.898 78.6349 109.93C80.1464 108.961 82.1509 109.41 83.1174 110.918C83.1693 110.996 83.2147 111.081 83.2601 111.165L105.964 150.562Z" fill="#473A3A"/>
</svg>