<svg width="256" height="256" title="Grok" viewBox="0 0 256 256" fill="none" xmlns="http://www.w3.org/2000/svg">
<rect width="256" height="256" rx="40" fill="white"/>
<path d="M109.794 149.852L162.986 110.437C165.594 108.505 169.321 109.259 170.564 112.26C177.103 128.089 174.181 147.111 161.17 160.172C148.159 173.232 130.055 176.097 113.507 169.573L95.4309 177.974C121.358 195.763 152.842 191.364 172.516 171.602C188.121 155.937 192.955 134.585 188.435 115.33L188.476 115.371C181.923 87.0846 190.088 75.7782 206.812 52.6583C207.208 52.1101 207.604 51.5619 208 51L185.991 73.092V73.0235L109.78 149.866" fill="black"/>
<path d="M98.8169 159.432C80.2076 141.588 83.416 113.973 99.2945 98.0485C111.036 86.2623 130.273 81.4519 147.066 88.5236L165.102 80.1637C161.853 77.8065 157.688 75.2711 152.91 73.4895C131.311 64.5677 105.452 69.008 87.8942 86.6186C71.0054 103.571 65.6944 129.638 74.8146 151.881C81.6275 168.504 70.4593 180.263 59.2092 192.131C55.2224 196.338 51.2221 200.546 48 205L98.8029 159.445" fill="black"/>
</svg>