<svg width="256" height="256" title="Groovy" viewBox="0 0 256 256" fill="none" xmlns="http://www.w3.org/2000/svg" id="groovy">
<style>
#groovy {
    rect {fill: #15191C}

    @media (prefers-color-scheme: light) {
        rect {fill: #F4F2ED}
    }
}
</style>
<rect width="256" height="256" rx="40" fill="#15191C"/>
<path d="M195.985 182.593L128 156.243L60.0166 182.586L86.86 140.586L18 114.867L102.576 115.262L127.998 73.0206L153.425 115.264L238 114.877L169.138 140.59L195.985 182.593Z" fill="black"/>
<path d="M186.788 175.08L128.058 152.317L69.332 175.077L92.5197 138.794L33.0338 116.577L106.091 116.918L128.051 80.4285L150.017 116.918L223.079 116.584L163.595 138.797L186.788 175.08Z" fill="#619CBC"/>
<path d="M82.9758 94.6081C88.8419 94.6081 85.4233 109.266 83.3367 113.686C81.5492 117.469 77.5273 122.928 72.7612 122.928C67.043 122.928 67.2131 116.522 69.4887 111.701C70.7211 109.089 72.6169 106.163 75.2259 104.011C74.5556 106.258 76.8158 107.793 75.9014 109.726C75.2775 111.048 73.9867 112.492 73.3164 113.913C72.2319 116.211 72.6461 120.29 75.2672 120.29C77.6133 120.29 79.6981 117.382 80.5523 115.572C82.3038 111.863 86.6814 96.0364 81.7881 96.0364C76.1506 96.0364 66.4397 109.769 64.4064 114.078C60.7764 121.768 63.4095 131.238 71.6784 131.238C77.2678 131.238 81.8638 125.865 84.0844 121.163C85.3131 118.573 86.0991 115.795 86.4098 112.945L87.4961 112.746C87.735 119.982 95.3886 131.962 92.1316 138.864C87.9602 147.699 75.4923 147.62 68.3716 150.755C66.8762 147.253 64.8481 144 61.9933 141.515C68.3441 139.378 83.9503 135.791 87.3448 128.603C88.7714 125.582 87.7986 120.575 86.152 118.877C85.8581 119.994 85.4617 121.081 84.9678 122.125C82.0631 128.278 75.8412 133.051 69.4286 133.051C60.498 133.051 56.7133 126.635 60.9156 117.732C63.437 112.389 76.3156 94.6081 82.9758 94.6081Z" fill="black"/>
<path d="M82.9758 94.6081C88.8419 94.6081 85.4233 109.266 83.3367 113.686C81.5492 117.469 77.5273 122.928 72.7612 122.928C67.043 122.928 67.2131 116.522 69.4887 111.701C70.7211 109.089 72.6169 106.163 75.2259 104.011C74.5556 106.258 76.8158 107.793 75.9014 109.726C75.2775 111.048 73.9867 112.492 73.3164 113.913C72.2319 116.211 72.6461 120.29 75.2672 120.29C77.6133 120.29 79.6981 117.382 80.5523 115.572C82.3038 111.863 86.6814 96.0364 81.7881 96.0364C76.1506 96.0364 66.4397 109.769 64.4064 114.078C60.7764 121.768 63.4095 131.238 71.6784 131.238C77.2678 131.238 81.8638 125.865 84.0844 121.163C85.3131 118.573 86.0991 115.795 86.4098 112.945L87.4961 112.746C87.735 119.982 95.3886 131.962 92.1316 138.864C87.9602 147.699 75.4923 147.62 68.3716 150.755C66.8762 147.253 64.8481 144 61.9933 141.515C68.3441 139.378 83.9503 135.791 87.3448 128.603C88.7714 125.582 87.7986 120.575 86.152 118.877C85.8581 119.994 85.4617 121.081 84.9678 122.125C82.0631 128.278 75.8412 133.051 69.4286 133.051C60.498 133.051 56.7133 126.635 60.9156 117.732C63.437 112.389 76.3156 94.6081 82.9758 94.6081Z" stroke="black" stroke-width="5.718" stroke-miterlimit="3.864" stroke-linejoin="round"/>
<path d="M98.233 115.821C98.587 116.694 99.6131 121.63 100.392 121.63C102.074 121.63 105.115 117.053 105.93 115.864C107.425 116.844 106.596 118.901 109.367 118.901C110.622 118.901 111.254 116.197 112.56 116.153C112.605 117.246 112.676 118.234 112.079 119.497C111.161 121.443 108.838 124.08 106.553 124.08C104.915 124.08 102.636 122.11 102.188 122.11C101.703 122.11 100.809 122.337 100.526 122.94C99.3347 125.461 102.516 133.876 105.706 133.876C107.411 133.876 109.444 132.625 111.228 131.855C110.764 134.887 110.699 137.443 111.314 140.054C109.795 140.995 108.045 141.5 106.258 141.515C98.4203 141.515 102.743 123.287 95.5156 119.403L98.233 115.821Z" fill="black"/>
<path d="M98.233 115.821C98.587 116.694 99.6131 121.63 100.392 121.63C102.074 121.63 105.115 117.053 105.93 115.864C107.425 116.844 106.596 118.901 109.367 118.901C110.622 118.901 111.254 116.197 112.56 116.153C112.605 117.246 112.676 118.234 112.079 119.497C111.161 121.443 108.838 124.08 106.553 124.08C104.915 124.08 102.636 122.11 102.188 122.11C101.703 122.11 100.809 122.337 100.526 122.94C99.3347 125.461 102.516 133.876 105.706 133.876C107.411 133.876 109.444 132.625 111.228 131.855C110.764 134.887 110.699 137.443 111.314 140.054C109.795 140.995 108.045 141.5 106.258 141.515C98.4203 141.515 102.743 123.287 95.5156 119.403L98.233 115.821Z" stroke="black" stroke-width="5.718" stroke-miterlimit="3.864" stroke-linejoin="round"/>
<path fill-rule="evenodd" clip-rule="evenodd" d="M128.359 114.363C134.284 114.363 136.623 125.02 133.964 130.65C131.901 135.019 128.246 138.185 123.562 138.185C115.291 138.185 116.326 126.91 119.554 120.073C120.444 118.189 123.485 114.085 125.862 114.085C126.738 114.085 127.46 114.363 128.359 114.363ZM128.175 115.359C127.244 115.359 126.422 115.819 125.992 116.737C125.081 118.659 129.61 120.604 128.961 121.981C128.552 122.847 126.994 123.658 126.209 123.658C122.283 123.658 122.316 118.55 124.657 115.223C123.201 116.149 122.247 117.565 121.628 118.879C119.329 123.751 121.154 130.453 126.403 130.453C129.304 130.453 132.644 127.847 133.943 125.095C135.542 121.713 131.455 115.359 128.175 115.359Z" fill="black"/>
<path d="M128.359 114.363C134.284 114.363 136.623 125.02 133.964 130.65C131.901 135.019 128.246 138.185 123.562 138.185C115.291 138.185 116.326 126.91 119.554 120.073C120.444 118.189 123.485 114.085 125.862 114.085C126.738 114.085 127.46 114.363 128.359 114.363Z" stroke="black" stroke-width="5.718" stroke-miterlimit="3.864" stroke-linejoin="round"/>
<path d="M128.174 115.359C127.242 115.359 126.42 115.819 125.989 116.737C125.082 118.66 129.609 120.604 128.959 121.981C128.55 122.847 126.993 123.658 126.207 123.658C122.282 123.658 122.314 118.55 124.655 115.223C123.2 116.151 122.246 117.565 121.627 118.879C119.325 123.751 121.151 130.454 126.402 130.454C129.301 130.454 132.642 127.847 133.942 125.097C135.54 121.715 131.453 115.359 128.174 115.359Z" stroke="black" stroke-width="5.718" stroke-miterlimit="3.864" stroke-linejoin="round"/>
<path fill-rule="evenodd" clip-rule="evenodd" d="M155.285 131.905C153.737 135.184 150.851 136.984 147.602 136.984C137.295 136.984 135.25 127.584 139.718 118.121C140.772 115.886 142.503 113.416 145.148 113.416C153.429 113.416 159.199 123.614 155.285 131.905ZM147.061 114.602C146.3 114.602 145.634 114.877 145.268 115.651C144.467 117.351 148.83 118.865 148.835 120.621C148.379 121.161 147.104 121.764 146.549 121.764C143.407 121.764 141.035 117.505 143.718 114.339C142.628 115.032 141.982 116.067 141.523 117.038C138.804 122.799 142.68 128.622 148.329 128.622C150.681 128.622 153.709 127.316 154.931 124.728C156.66 121.067 150.504 114.604 147.059 114.604" fill="black"/>
<path d="M155.285 131.905C153.737 135.184 150.851 136.984 147.602 136.984C137.295 136.984 135.25 127.584 139.718 118.121C140.772 115.886 142.503 113.416 145.148 113.416C153.429 113.416 159.199 123.614 155.285 131.905Z" stroke="black" stroke-width="5.718" stroke-miterlimit="3.864" stroke-linejoin="round"/>
<path d="M147.059 114.604C146.3 114.604 145.633 114.879 145.267 115.652C144.466 117.351 148.828 118.867 148.835 120.623C148.379 121.161 147.102 121.766 146.547 121.766C143.405 121.766 141.033 117.507 143.716 114.341C142.628 115.032 141.98 116.067 141.521 117.04C138.802 122.801 142.68 128.624 148.328 128.624C150.679 128.624 153.709 127.318 154.931 124.729C156.658 121.068 150.504 114.604 147.059 114.604Z" stroke="black" stroke-width="5.718" stroke-miterlimit="3.864" stroke-linejoin="round"/>
<path d="M165.945 114.549C174.827 114.549 179.342 130.85 175.372 139.258C174.614 140.865 173.2 142.472 171.333 142.472C161.186 142.472 163.776 122.299 158.064 116.567C158.585 116.012 159.085 115.432 159.544 114.848C163.404 119.377 161.486 131.3 169.731 131.3C171.63 131.3 173.067 129.638 173.834 128.014C175.881 123.677 172.093 116.144 167.945 116.144C167.904 116.144 167.309 116.168 167.322 116.409C167.476 119.178 169.652 117.452 167.459 122.163C165.219 121.716 162.846 118.119 164.071 115.524C164.432 114.76 165.333 114.549 165.945 114.549Z" fill="black"/>
<path d="M165.945 114.549C174.827 114.549 179.342 130.85 175.372 139.258C174.614 140.865 173.2 142.472 171.333 142.472C161.186 142.472 163.776 122.299 158.064 116.567C158.585 116.012 159.085 115.432 159.544 114.848C163.404 119.377 161.486 131.3 169.731 131.3C171.63 131.3 173.067 129.638 173.834 128.014C175.881 123.677 172.093 116.144 167.945 116.144C167.904 116.144 167.309 116.168 167.322 116.409C167.476 119.178 169.652 117.452 167.459 122.163C165.219 121.716 162.846 118.119 164.071 115.524C164.432 114.76 165.333 114.549 165.945 114.549Z" stroke="black" stroke-width="5.718" stroke-miterlimit="3.864" stroke-linejoin="round"/>
<path fill-rule="evenodd" clip-rule="evenodd" d="M188.031 114.363C188.868 114.442 190.124 114.367 190.843 114.587C190.977 114.626 190.875 114.795 190.898 114.929C191.116 116.16 191.46 117.328 191.757 118.519C192.914 123.157 193.61 127.917 194.937 132.513C196.382 137.518 197.89 143.159 196.14 149.44C195.968 150.053 195.739 150.677 195.444 151.305C193.46 155.507 176.381 160.349 171.921 160.349C171.38 160.349 170.795 160.194 170.537 159.842C172.418 158.645 173.597 157.418 174.439 155.637C175.444 153.503 175.431 151.502 175.298 149.661C175.654 149.868 188.777 149.545 189.251 149.545C191.181 149.545 192.836 147.68 193.61 146.038C195.031 143.029 194.789 139.956 194.543 137.391C194.425 136.123 194.246 134.861 194.007 133.61L193.646 131.829L193.6 131.635L193.555 131.439C193.77 131.439 193.577 131.817 193.586 132.008C193.718 135.112 193.661 139.447 191.994 142.981C191.219 144.622 189.951 146.315 188.007 146.315C179.477 146.315 183.767 122.125 176.931 116.374C177.309 115.75 177.648 115.106 177.931 114.475C181.976 119.36 182.189 132.826 188.141 132.826C189.585 132.826 191.08 131.472 191.693 130.171C194.339 124.568 189.944 118.042 188.031 114.363Z" fill="black"/>
<path d="M188.031 114.363C188.868 114.442 190.124 114.367 190.843 114.587C190.977 114.626 190.875 114.795 190.898 114.929C191.116 116.16 191.46 117.328 191.757 118.519C192.914 123.157 193.61 127.917 194.937 132.513C196.382 137.518 197.89 143.159 196.14 149.44C195.968 150.053 195.739 150.677 195.444 151.305C193.46 155.507 176.381 160.349 171.921 160.349C171.38 160.349 170.795 160.194 170.537 159.842C172.418 158.645 173.597 157.418 174.439 155.637C175.444 153.503 175.431 151.502 175.298 149.661C175.654 149.868 188.777 149.545 189.251 149.545C191.181 149.545 192.836 147.68 193.61 146.038C195.031 143.029 194.789 139.956 194.543 137.391C194.425 136.123 194.246 134.861 194.007 133.61L193.646 131.829L193.6 131.635L193.555 131.439C193.77 131.439 193.577 131.817 193.586 132.008C193.718 135.112 193.661 139.447 191.994 142.981C191.219 144.622 189.951 146.315 188.007 146.315C179.477 146.315 183.767 122.125 176.931 116.374C177.309 115.75 177.648 115.106 177.931 114.475C181.976 119.36 182.189 132.826 188.141 132.826C189.585 132.826 191.08 131.472 191.693 130.171C194.339 124.568 189.944 118.042 188.031 114.363Z" stroke="black" stroke-width="5.718" stroke-miterlimit="3.864" stroke-linejoin="round"/>
<path d="M82.9758 94.6081C88.8419 94.6081 85.4233 109.266 83.3367 113.686C81.5492 117.469 77.5273 122.928 72.7612 122.928C67.043 122.928 67.2131 116.522 69.4887 111.701C70.7211 109.089 72.6169 106.163 75.2259 104.011C74.5556 106.258 76.8158 107.793 75.9014 109.726C75.2775 111.048 73.9867 112.492 73.3164 113.913C72.2319 116.211 72.6461 120.29 75.2672 120.29C77.6133 120.29 79.6981 117.382 80.5523 115.572C82.3038 111.863 86.6814 96.0364 81.7881 96.0364C76.1506 96.0364 66.4397 109.769 64.4064 114.078C60.7764 121.768 63.4095 131.238 71.6784 131.238C77.2678 131.238 81.8638 125.865 84.0844 121.163C85.3131 118.573 86.0991 115.795 86.4098 112.945L87.4961 112.746C87.735 119.982 95.3886 131.962 92.1316 138.864C87.9602 147.699 75.4923 147.62 68.3716 150.755C66.8762 147.253 64.8481 144 61.9933 141.515C68.3441 139.378 83.9503 135.791 87.3448 128.603C88.7714 125.582 87.7986 120.575 86.152 118.877C85.8581 119.994 85.4617 121.081 84.9678 122.125C82.0631 128.278 75.8412 133.051 69.4286 133.051C60.498 133.051 56.7133 126.635 60.9156 117.732C63.437 112.389 76.3156 94.6081 82.9758 94.6081Z" fill="black"/>
<path d="M82.9758 94.6081C88.8419 94.6081 85.4233 109.266 83.3367 113.686C81.5492 117.469 77.5273 122.928 72.7612 122.928C67.043 122.928 67.2131 116.522 69.4887 111.701C70.7211 109.089 72.6169 106.163 75.2259 104.011C74.5556 106.258 76.8158 107.793 75.9014 109.726C75.2775 111.048 73.9867 112.492 73.3164 113.913C72.2319 116.211 72.6461 120.29 75.2672 120.29C77.6133 120.29 79.6981 117.382 80.5523 115.572C82.3038 111.863 86.6814 96.0364 81.7881 96.0364C76.1506 96.0364 66.4397 109.769 64.4064 114.078C60.7764 121.768 63.4095 131.238 71.6784 131.238C77.2678 131.238 81.8638 125.865 84.0844 121.163C85.3131 118.573 86.0991 115.795 86.4098 112.945L87.4961 112.746C87.735 119.982 95.3886 131.962 92.1316 138.864C87.9602 147.699 75.4923 147.62 68.3716 150.755C66.8762 147.253 64.8481 144 61.9933 141.515C68.3441 139.378 83.9503 135.791 87.3448 128.603C88.7714 125.582 87.7986 120.575 86.152 118.877C85.8581 119.994 85.4617 121.081 84.9678 122.125C82.0631 128.278 75.8412 133.051 69.4286 133.051C60.498 133.051 56.7133 126.635 60.9156 117.732C63.437 112.389 76.3156 94.6081 82.9758 94.6081Z" stroke="black" stroke-width="0.476506" stroke-miterlimit="3.864"/>
<path d="M98.233 115.821C98.587 116.694 99.6131 121.63 100.392 121.63C102.074 121.63 105.115 117.053 105.93 115.864C107.425 116.844 106.596 118.901 109.367 118.901C110.622 118.901 111.254 116.197 112.56 116.153C112.605 117.246 112.676 118.234 112.079 119.497C111.161 121.443 108.838 124.08 106.553 124.08C104.915 124.08 102.636 122.11 102.188 122.11C101.703 122.11 100.809 122.337 100.526 122.94C99.3347 125.461 102.516 133.876 105.706 133.876C107.411 133.876 109.444 132.625 111.228 131.855C110.764 134.887 110.699 137.443 111.314 140.054C109.795 140.995 108.045 141.5 106.258 141.515C98.4203 141.515 102.743 123.287 95.5156 119.403L98.233 115.821Z" fill="black"/>
<path d="M98.233 115.821C98.587 116.694 99.6131 121.63 100.392 121.63C102.074 121.63 105.115 117.053 105.93 115.864C107.425 116.844 106.596 118.901 109.367 118.901C110.622 118.901 111.254 116.197 112.56 116.153C112.605 117.246 112.676 118.234 112.079 119.497C111.161 121.443 108.838 124.08 106.553 124.08C104.915 124.08 102.636 122.11 102.188 122.11C101.703 122.11 100.809 122.337 100.526 122.94C99.3347 125.461 102.516 133.876 105.706 133.876C107.411 133.876 109.444 132.625 111.228 131.855C110.764 134.887 110.699 137.443 111.314 140.054C109.795 140.995 108.045 141.5 106.258 141.515C98.4203 141.515 102.743 123.287 95.5156 119.403L98.233 115.821Z" stroke="black" stroke-width="0.476506" stroke-miterlimit="3.864"/>
<path fill-rule="evenodd" clip-rule="evenodd" d="M128.359 114.363C134.284 114.363 136.623 125.02 133.964 130.65C131.901 135.019 128.246 138.185 123.562 138.185C115.291 138.185 116.326 126.91 119.554 120.073C120.444 118.189 123.485 114.085 125.862 114.085C126.738 114.085 127.46 114.363 128.359 114.363ZM128.175 115.359C127.244 115.359 126.422 115.819 125.992 116.737C125.081 118.659 129.61 120.604 128.961 121.981C128.552 122.847 126.994 123.658 126.209 123.658C122.283 123.658 122.316 118.55 124.657 115.223C123.201 116.149 122.247 117.565 121.628 118.879C119.329 123.751 121.154 130.453 126.403 130.453C129.304 130.453 132.644 127.847 133.943 125.095C135.542 121.713 131.455 115.359 128.175 115.359Z" fill="black"/>
<path d="M128.359 114.363C134.284 114.363 136.623 125.02 133.964 130.65C131.901 135.019 128.246 138.185 123.562 138.185C115.291 138.185 116.326 126.91 119.554 120.073C120.444 118.189 123.485 114.085 125.862 114.085C126.738 114.085 127.46 114.363 128.359 114.363Z" stroke="black" stroke-width="0.476506" stroke-miterlimit="3.864"/>
<path d="M128.174 115.359C127.242 115.359 126.42 115.819 125.989 116.737C125.082 118.66 129.609 120.604 128.959 121.981C128.55 122.847 126.993 123.658 126.207 123.658C122.282 123.658 122.314 118.55 124.655 115.223C123.2 116.151 122.246 117.565 121.627 118.879C119.325 123.751 121.151 130.454 126.402 130.454C129.301 130.454 132.642 127.847 133.942 125.097C135.54 121.715 131.453 115.359 128.174 115.359Z" stroke="black" stroke-width="0.476506" stroke-miterlimit="3.864"/>
<path fill-rule="evenodd" clip-rule="evenodd" d="M155.285 131.905C153.737 135.184 150.851 136.984 147.602 136.984C137.295 136.984 135.25 127.584 139.718 118.121C140.772 115.886 142.503 113.416 145.148 113.416C153.429 113.416 159.199 123.614 155.285 131.905ZM147.061 114.602C146.3 114.602 145.634 114.877 145.268 115.651C144.467 117.351 148.83 118.865 148.835 120.621C148.379 121.161 147.104 121.764 146.549 121.764C143.407 121.764 141.035 117.505 143.718 114.339C142.628 115.032 141.982 116.067 141.523 117.038C138.804 122.799 142.68 128.622 148.329 128.622C150.681 128.622 153.709 127.316 154.931 124.728C156.66 121.067 150.504 114.604 147.059 114.604" fill="black"/>
<path d="M155.285 131.905C153.737 135.184 150.851 136.984 147.602 136.984C137.295 136.984 135.25 127.584 139.718 118.121C140.772 115.886 142.503 113.416 145.148 113.416C153.429 113.416 159.199 123.614 155.285 131.905Z" stroke="black" stroke-width="0.476506" stroke-miterlimit="3.864"/>
<path d="M147.059 114.604C146.3 114.604 145.633 114.879 145.267 115.652C144.466 117.351 148.828 118.867 148.835 120.623C148.379 121.161 147.102 121.766 146.547 121.766C143.405 121.766 141.033 117.507 143.716 114.341C142.628 115.032 141.98 116.067 141.521 117.04C138.802 122.801 142.68 128.624 148.328 128.624C150.679 128.624 153.709 127.318 154.931 124.729C156.658 121.068 150.504 114.604 147.059 114.604Z" stroke="black" stroke-width="0.476506" stroke-miterlimit="3.864"/>
<path d="M165.945 114.549C174.827 114.549 179.342 130.85 175.372 139.258C174.614 140.865 173.2 142.472 171.333 142.472C161.186 142.472 163.776 122.299 158.064 116.567C158.585 116.012 159.085 115.432 159.544 114.848C163.404 119.377 161.486 131.3 169.731 131.3C171.63 131.3 173.067 129.638 173.834 128.014C175.881 123.677 172.093 116.144 167.945 116.144C167.904 116.144 167.309 116.168 167.322 116.409C167.476 119.178 169.652 117.452 167.459 122.163C165.219 121.716 162.846 118.119 164.071 115.524C164.432 114.76 165.333 114.549 165.945 114.549Z" fill="black"/>
<path d="M165.945 114.549C174.827 114.549 179.342 130.85 175.372 139.258C174.614 140.865 173.2 142.472 171.333 142.472C161.186 142.472 163.776 122.299 158.064 116.567C158.585 116.012 159.085 115.432 159.544 114.848C163.404 119.377 161.486 131.3 169.731 131.3C171.63 131.3 173.067 129.638 173.834 128.014C175.881 123.677 172.093 116.144 167.945 116.144C167.904 116.144 167.309 116.168 167.322 116.409C167.476 119.178 169.652 117.452 167.459 122.163C165.219 121.716 162.846 118.119 164.071 115.524C164.432 114.76 165.333 114.549 165.945 114.549Z" stroke="black" stroke-width="0.476506" stroke-miterlimit="3.864"/>
<path fill-rule="evenodd" clip-rule="evenodd" d="M188.031 114.363C188.868 114.442 190.124 114.367 190.843 114.587C190.977 114.626 190.875 114.795 190.898 114.929C191.116 116.16 191.46 117.328 191.757 118.519C192.914 123.157 193.61 127.917 194.937 132.513C196.382 137.518 197.889 143.159 196.14 149.44C195.968 150.053 195.739 150.677 195.444 151.305C193.46 155.507 188.362 159.506 183.901 159.506C183.359 159.506 182.775 159.352 182.515 159.001C184.399 157.805 185.575 156.578 186.417 154.797C187.426 152.661 187.41 150.66 187.276 148.819C187.634 149.025 188.777 149.545 189.253 149.545C191.181 149.545 192.836 147.68 193.612 146.038C195.033 143.029 194.789 139.956 194.543 137.391C194.425 136.123 194.246 134.861 194.007 133.61L193.646 131.829L193.599 131.635L193.555 131.439C193.771 131.439 193.577 131.817 193.586 132.008C193.718 135.112 193.663 139.447 191.994 142.981C191.221 144.622 189.952 146.315 188.007 146.315C179.476 146.315 183.766 122.125 176.931 116.374C177.309 115.75 177.648 115.106 177.931 114.475C181.977 119.36 182.189 132.826 188.141 132.826C189.586 132.826 191.08 131.472 191.693 130.171C194.34 124.568 189.944 118.042 188.031 114.363Z" fill="black"/>
<path d="M188.031 114.363C188.868 114.442 190.124 114.367 190.843 114.587C190.977 114.626 190.875 114.795 190.898 114.929C191.116 116.16 191.46 117.328 191.757 118.519C192.914 123.157 193.61 127.917 194.937 132.513C196.382 137.518 197.889 143.159 196.14 149.44C195.968 150.053 195.739 150.677 195.444 151.305C193.46 155.507 188.362 159.506 183.901 159.506C183.359 159.506 182.775 159.352 182.515 159.001C184.399 157.805 185.575 156.578 186.417 154.797C187.426 152.661 187.41 150.66 187.276 148.819C187.634 149.025 188.777 149.545 189.253 149.545C191.181 149.545 192.836 147.68 193.612 146.038C195.033 143.029 194.789 139.956 194.543 137.391C194.425 136.123 194.246 134.861 194.007 133.61L193.646 131.829L193.599 131.635L193.555 131.439C193.771 131.439 193.577 131.817 193.586 132.008C193.718 135.112 193.663 139.447 191.994 142.981C191.221 144.622 189.952 146.315 188.007 146.315C179.476 146.315 183.766 122.125 176.931 116.374C177.309 115.75 177.648 115.106 177.931 114.475C181.977 119.36 182.189 132.826 188.141 132.826C189.586 132.826 191.08 131.472 191.693 130.171C194.34 124.568 189.944 118.042 188.031 114.363Z" stroke="black" stroke-width="0.476506" stroke-miterlimit="3.864"/>
<path d="M82.9758 94.6081C88.8419 94.6081 85.4233 109.266 83.3367 113.686C81.5492 117.469 77.5273 122.928 72.7612 122.928C67.043 122.928 67.2131 116.522 69.4887 111.701C70.7211 109.089 72.6169 106.163 75.2259 104.011C74.5556 106.258 76.8158 107.793 75.9014 109.726C75.2775 111.048 73.9867 112.492 73.3164 113.913C72.2319 116.211 72.6461 120.29 75.2672 120.29C77.6133 120.29 79.6981 117.382 80.5523 115.572C82.3038 111.863 86.6814 96.0364 81.7881 96.0364C76.1506 96.0364 66.4397 109.769 64.4064 114.078C60.7764 121.768 63.4095 131.238 71.6784 131.238C77.2678 131.238 81.8638 125.865 84.0844 121.163C85.3131 118.573 86.0991 115.795 86.4098 112.945L87.4961 112.746C87.735 119.982 95.3886 131.962 92.1316 138.864C87.9602 147.699 75.4923 147.62 68.3716 150.755C66.8762 147.253 64.8481 144 61.9933 141.515C68.3441 139.378 83.9503 135.791 87.3448 128.603C88.7714 125.582 87.7986 120.575 86.152 118.877C85.8581 119.994 85.4617 121.081 84.9678 122.125C82.0631 128.278 75.8412 133.051 69.4286 133.051C60.498 133.051 56.7133 126.635 60.9156 117.732C63.437 112.389 76.3156 94.6081 82.9758 94.6081Z" fill="black"/>
<path d="M82.9758 94.6081C88.8419 94.6081 85.4233 109.266 83.3367 113.686C81.5492 117.469 77.5273 122.928 72.7612 122.928C67.043 122.928 67.2131 116.522 69.4887 111.701C70.7211 109.089 72.6169 106.163 75.2259 104.011C74.5556 106.258 76.8158 107.793 75.9014 109.726C75.2775 111.048 73.9867 112.492 73.3164 113.913C72.2319 116.211 72.6461 120.29 75.2672 120.29C77.6133 120.29 79.6981 117.382 80.5523 115.572C82.3038 111.863 86.6814 96.0364 81.7881 96.0364C76.1506 96.0364 66.4397 109.769 64.4064 114.078C60.7764 121.768 63.4095 131.238 71.6784 131.238C77.2678 131.238 81.8638 125.865 84.0844 121.163C85.3131 118.573 86.0991 115.795 86.4098 112.945L87.4961 112.746C87.735 119.982 95.3886 131.962 92.1316 138.864C87.9602 147.699 75.4923 147.62 68.3716 150.755C66.8762 147.253 64.8481 144 61.9933 141.515C68.3441 139.378 83.9503 135.791 87.3448 128.603C88.7714 125.582 87.7986 120.575 86.152 118.877C85.8581 119.994 85.4617 121.081 84.9678 122.125C82.0631 128.278 75.8412 133.051 69.4286 133.051C60.498 133.051 56.7133 126.635 60.9156 117.732C63.437 112.389 76.3156 94.6081 82.9758 94.6081Z" stroke="black" stroke-width="5.718" stroke-miterlimit="3.864" stroke-linejoin="round"/>
<path d="M98.233 115.821C98.587 116.694 99.6131 121.63 100.392 121.63C102.074 121.63 105.115 117.053 105.93 115.864C107.425 116.844 106.596 118.901 109.367 118.901C110.622 118.901 111.254 116.197 112.56 116.153C112.605 117.246 112.676 118.234 112.079 119.497C111.161 121.443 108.838 124.08 106.553 124.08C104.915 124.08 102.636 122.11 102.188 122.11C101.703 122.11 100.809 122.337 100.526 122.94C99.3347 125.461 102.516 133.876 105.706 133.876C107.411 133.876 109.444 132.625 111.228 131.855C110.764 134.887 110.699 137.443 111.314 140.054C109.795 140.995 108.045 141.5 106.258 141.515C98.4203 141.515 102.743 123.287 95.5156 119.403L98.233 115.821Z" fill="black"/>
<path d="M98.233 115.821C98.587 116.694 99.6131 121.63 100.392 121.63C102.074 121.63 105.115 117.053 105.93 115.864C107.425 116.844 106.596 118.901 109.367 118.901C110.622 118.901 111.254 116.197 112.56 116.153C112.605 117.246 112.676 118.234 112.079 119.497C111.161 121.443 108.838 124.08 106.553 124.08C104.915 124.08 102.636 122.11 102.188 122.11C101.703 122.11 100.809 122.337 100.526 122.94C99.3347 125.461 102.516 133.876 105.706 133.876C107.411 133.876 109.444 132.625 111.228 131.855C110.764 134.887 110.699 137.443 111.314 140.054C109.795 140.995 108.045 141.5 106.258 141.515C98.4203 141.515 102.743 123.287 95.5156 119.403L98.233 115.821Z" stroke="black" stroke-width="5.718" stroke-miterlimit="3.864" stroke-linejoin="round"/>
<path fill-rule="evenodd" clip-rule="evenodd" d="M128.359 114.363C134.284 114.363 136.623 125.02 133.964 130.65C131.901 135.019 128.246 138.185 123.562 138.185C115.291 138.185 116.326 126.91 119.554 120.073C120.444 118.189 123.485 114.085 125.862 114.085C126.738 114.085 127.46 114.363 128.359 114.363ZM128.175 115.359C127.244 115.359 126.422 115.819 125.992 116.737C125.081 118.659 129.61 120.604 128.961 121.981C128.552 122.847 126.994 123.658 126.209 123.658C122.283 123.658 122.316 118.55 124.657 115.223C123.201 116.149 122.247 117.565 121.628 118.879C119.329 123.751 121.154 130.453 126.403 130.453C129.304 130.453 132.644 127.847 133.943 125.095C135.542 121.713 131.455 115.359 128.175 115.359Z" fill="black"/>
<path d="M128.359 114.363C134.284 114.363 136.623 125.02 133.964 130.65C131.901 135.019 128.246 138.185 123.562 138.185C115.291 138.185 116.326 126.91 119.554 120.073C120.444 118.189 123.485 114.085 125.862 114.085C126.738 114.085 127.46 114.363 128.359 114.363Z" stroke="black" stroke-width="5.718" stroke-miterlimit="3.864" stroke-linejoin="round"/>
<path d="M128.174 115.359C127.242 115.359 126.42 115.819 125.989 116.737C125.082 118.66 129.609 120.604 128.959 121.981C128.55 122.847 126.993 123.658 126.207 123.658C122.282 123.658 122.314 118.55 124.655 115.223C123.2 116.151 122.246 117.565 121.627 118.879C119.325 123.751 121.151 130.454 126.402 130.454C129.301 130.454 132.642 127.847 133.942 125.097C135.54 121.715 131.453 115.359 128.174 115.359Z" stroke="black" stroke-width="5.718" stroke-miterlimit="3.864" stroke-linejoin="round"/>
<path fill-rule="evenodd" clip-rule="evenodd" d="M155.285 131.905C153.737 135.184 150.851 136.984 147.602 136.984C137.295 136.984 135.25 127.584 139.718 118.121C140.772 115.886 142.503 113.416 145.148 113.416C153.429 113.416 159.199 123.614 155.285 131.905ZM147.061 114.602C146.3 114.602 145.634 114.877 145.268 115.651C144.467 117.351 148.83 118.865 148.835 120.621C148.379 121.161 147.104 121.764 146.549 121.764C143.407 121.764 141.035 117.505 143.718 114.339C142.628 115.032 141.982 116.067 141.523 117.038C138.804 122.799 142.68 128.622 148.329 128.622C150.681 128.622 153.709 127.316 154.931 124.728C156.66 121.067 150.504 114.604 147.059 114.604" fill="black"/>
<path d="M155.285 131.905C153.737 135.184 150.851 136.984 147.602 136.984C137.295 136.984 135.25 127.584 139.718 118.121C140.772 115.886 142.503 113.416 145.148 113.416C153.429 113.416 159.199 123.614 155.285 131.905Z" stroke="black" stroke-width="5.718" stroke-miterlimit="3.864" stroke-linejoin="round"/>
<path d="M147.059 114.604C146.3 114.604 145.633 114.879 145.267 115.652C144.466 117.351 148.828 118.867 148.835 120.623C148.379 121.161 147.102 121.766 146.547 121.766C143.405 121.766 141.033 117.507 143.716 114.341C142.628 115.032 141.98 116.067 141.521 117.04C138.802 122.801 142.68 128.624 148.328 128.624C150.679 128.624 153.709 127.318 154.931 124.729C156.658 121.068 150.504 114.604 147.059 114.604Z" stroke="black" stroke-width="5.718" stroke-miterlimit="3.864" stroke-linejoin="round"/>
<path d="M165.945 114.549C174.827 114.549 179.342 130.85 175.372 139.258C174.614 140.865 173.2 142.472 171.333 142.472C161.186 142.472 163.776 122.299 158.064 116.567C158.585 116.012 159.085 115.432 159.544 114.848C163.404 119.377 161.486 131.3 169.731 131.3C171.63 131.3 173.067 129.638 173.834 128.014C175.881 123.677 172.093 116.144 167.945 116.144C167.904 116.144 167.309 116.168 167.322 116.409C167.476 119.178 169.652 117.452 167.459 122.163C165.219 121.716 162.846 118.119 164.071 115.524C164.432 114.76 165.333 114.549 165.945 114.549Z" fill="black"/>
<path d="M165.945 114.549C174.827 114.549 179.342 130.85 175.372 139.258C174.614 140.865 173.2 142.472 171.333 142.472C161.186 142.472 163.776 122.299 158.064 116.567C158.585 116.012 159.085 115.432 159.544 114.848C163.404 119.377 161.486 131.3 169.731 131.3C171.63 131.3 173.067 129.638 173.834 128.014C175.881 123.677 172.093 116.144 167.945 116.144C167.904 116.144 167.309 116.168 167.322 116.409C167.476 119.178 169.652 117.452 167.459 122.163C165.219 121.716 162.846 118.119 164.071 115.524C164.432 114.76 165.333 114.549 165.945 114.549Z" stroke="black" stroke-width="5.718" stroke-miterlimit="3.864" stroke-linejoin="round"/>
<path fill-rule="evenodd" clip-rule="evenodd" d="M188.031 114.363C188.868 114.442 190.124 114.367 190.843 114.587C190.977 114.626 190.875 114.795 190.898 114.929C191.116 116.16 191.46 117.328 191.757 118.519C192.914 123.157 193.61 127.917 194.937 132.513C196.382 137.518 197.889 143.159 196.14 149.44C195.968 150.053 195.739 150.677 195.444 151.305C193.46 155.507 188.362 159.506 183.901 159.506C183.359 159.506 182.775 159.352 182.515 159.001C184.399 157.805 185.575 156.578 186.417 154.797C187.426 152.661 187.41 150.66 187.276 148.819C187.634 149.025 188.777 149.545 189.253 149.545C191.181 149.545 192.836 147.68 193.612 146.038C195.033 143.029 194.789 139.956 194.543 137.391C194.425 136.123 194.246 134.861 194.007 133.61L193.646 131.829L193.599 131.635L193.555 131.439C193.771 131.439 193.577 131.817 193.586 132.008C193.718 135.112 193.663 139.447 191.994 142.981C191.221 144.622 189.952 146.315 188.007 146.315C179.476 146.315 183.766 122.125 176.931 116.374C177.309 115.75 177.648 115.106 177.931 114.475C181.977 119.36 182.189 132.826 188.141 132.826C189.586 132.826 191.08 131.472 191.693 130.171C194.34 124.568 189.944 118.042 188.031 114.363Z" fill="black"/>
<path d="M188.031 114.363C188.868 114.442 190.124 114.367 190.843 114.587C190.977 114.626 190.875 114.795 190.898 114.929C191.116 116.16 191.46 117.328 191.757 118.519C192.914 123.157 193.61 127.917 194.937 132.513C196.382 137.518 197.889 143.159 196.14 149.44C195.968 150.053 195.739 150.677 195.444 151.305C193.46 155.507 188.362 159.506 183.901 159.506C183.359 159.506 182.775 159.352 182.515 159.001C184.399 157.805 185.575 156.578 186.417 154.797C187.426 152.661 187.41 150.66 187.276 148.819C187.634 149.025 188.777 149.545 189.253 149.545C191.181 149.545 192.836 147.68 193.612 146.038C195.033 143.029 194.789 139.956 194.543 137.391C194.425 136.123 194.246 134.861 194.007 133.61L193.646 131.829L193.599 131.635L193.555 131.439C193.771 131.439 193.577 131.817 193.586 132.008C193.718 135.112 193.663 139.447 191.994 142.981C191.221 144.622 189.952 146.315 188.007 146.315C179.476 146.315 183.766 122.125 176.931 116.374C177.309 115.75 177.648 115.106 177.931 114.475C181.977 119.36 182.189 132.826 188.141 132.826C189.586 132.826 191.08 131.472 191.693 130.171C194.34 124.568 189.944 118.042 188.031 114.363Z" stroke="black" stroke-width="5.718" stroke-miterlimit="3.864" stroke-linejoin="round"/>
<path d="M82.9758 94.6081C88.8419 94.6081 85.4233 109.266 83.3367 113.686C81.5492 117.469 77.5273 122.928 72.7612 122.928C67.043 122.928 67.2131 116.522 69.4887 111.701C70.7211 109.089 72.6169 106.163 75.2259 104.011C74.5556 106.258 76.8158 107.793 75.9014 109.726C75.2775 111.048 73.9867 112.492 73.3164 113.913C72.2319 116.211 72.6461 120.29 75.2672 120.29C77.6133 120.29 79.6981 117.382 80.5523 115.572C82.3038 111.863 86.6814 96.0364 81.7881 96.0364C76.1506 96.0364 66.4397 109.769 64.4064 114.078C60.7764 121.768 63.4095 131.238 71.6784 131.238C77.2678 131.238 81.8638 125.865 84.0844 121.163C85.3131 118.573 86.0991 115.795 86.4098 112.945L87.4961 112.746C87.735 119.982 95.3886 131.962 92.1316 138.864C87.9602 147.699 75.4923 147.62 68.3716 150.755C66.8762 147.253 64.8481 144 61.9933 141.515C68.3441 139.378 83.9503 135.791 87.3448 128.603C88.7714 125.582 87.7986 120.575 86.152 118.877C85.8581 119.994 85.4617 121.081 84.9678 122.125C82.0631 128.278 75.8412 133.051 69.4286 133.051C60.498 133.051 56.7133 126.635 60.9156 117.732C63.437 112.389 76.3156 94.6081 82.9758 94.6081ZM98.2331 115.821C98.5872 116.694 99.6133 121.63 100.392 121.63C102.075 121.63 105.115 117.053 105.93 115.864C107.425 116.844 106.597 118.901 109.367 118.901C110.622 118.901 111.254 116.197 112.561 116.153C112.605 117.246 112.676 118.234 112.079 119.497C111.162 121.443 108.838 124.08 106.554 124.08C104.916 124.08 102.637 122.11 102.188 122.11C101.703 122.11 100.81 122.337 100.526 122.94C99.3348 125.461 102.516 133.876 105.706 133.876C107.411 133.876 109.445 132.625 111.229 131.855C110.765 134.887 110.699 137.443 111.315 140.054C109.795 140.995 108.046 141.5 106.258 141.515C98.4205 141.515 102.743 123.287 95.5158 119.403L98.2331 115.821Z" fill="white"/>
<path fill-rule="evenodd" clip-rule="evenodd" d="M128.359 114.363C134.284 114.363 136.623 125.02 133.964 130.65C131.902 135.019 128.246 138.185 123.562 138.185C115.292 138.185 116.326 126.91 119.554 120.073C120.445 118.189 123.485 114.085 125.862 114.085C126.739 114.085 127.46 114.363 128.359 114.363ZM128.175 115.359C127.244 115.359 126.422 115.819 125.993 116.737C125.082 118.659 129.611 120.604 128.961 121.981C128.552 122.847 126.995 123.658 126.209 123.658C122.284 123.658 122.316 118.55 124.657 115.223C123.201 116.149 122.248 117.565 121.629 118.879C119.329 123.751 121.154 130.453 126.403 130.453C129.305 130.453 132.644 127.847 133.944 125.095C135.542 121.713 131.455 115.359 128.175 115.359ZM155.285 131.905C153.737 135.184 150.851 136.984 147.603 136.984C137.295 136.984 135.25 127.584 139.719 118.121C140.772 115.886 142.503 113.416 145.148 113.416C153.429 113.416 159.199 123.614 155.285 131.905ZM147.061 114.602C146.3 114.602 145.635 114.877 145.268 115.651C144.468 117.351 148.83 118.865 148.835 120.621C148.379 121.161 147.104 121.764 146.549 121.764C143.407 121.764 141.035 117.505 143.718 114.339C142.628 115.032 141.982 116.067 141.523 117.038C138.804 122.799 142.68 128.622 148.33 128.622C150.681 128.622 153.709 127.316 154.931 124.728C156.66 121.067 150.504 114.604 147.059 114.604" fill="white"/>
<path d="M165.945 114.549C174.828 114.549 179.343 130.85 175.372 139.258C174.614 140.865 173.2 142.472 171.333 142.472C161.186 142.472 163.776 122.299 158.065 116.567C158.585 116.012 159.086 115.432 159.544 114.848C163.405 119.377 161.487 131.3 169.732 131.3C171.631 131.3 173.068 129.638 173.834 128.014C175.881 123.677 172.093 116.144 167.946 116.144C167.904 116.144 167.31 116.168 167.322 116.409C167.477 119.178 169.652 117.452 167.459 122.163C165.22 121.716 162.846 118.119 164.072 115.524C164.433 114.76 165.333 114.549 165.945 114.549Z" fill="white"/>
<path fill-rule="evenodd" clip-rule="evenodd" d="M188.031 114.363C188.868 114.442 190.124 114.367 190.843 114.587C190.977 114.626 190.876 114.795 190.898 114.929C191.116 116.16 191.46 117.328 191.757 118.519C192.914 123.157 193.61 127.917 194.937 132.513C196.382 137.518 197.89 143.159 196.14 149.44C195.968 150.053 195.74 150.677 195.444 151.305C188.792 164.078 174.559 160.637 170.101 160.637C169.56 160.637 168.974 160.483 168.716 160.13C170.596 158.934 171.775 157.707 172.617 155.926C173.624 153.79 173.609 151.791 173.477 149.948C173.832 150.156 174.975 150.674 175.45 150.674C177.38 150.674 188.131 156.198 193.612 146.04C195.033 143.029 194.789 139.956 194.543 137.391C194.425 136.123 194.246 134.861 194.007 133.61L193.646 131.829L193.6 131.635L193.555 131.441C193.772 131.441 193.577 131.819 193.586 132.008C193.718 135.114 193.663 139.447 191.994 142.981C191.221 144.622 189.953 146.315 188.007 146.315C179.477 146.315 183.767 122.125 176.931 116.374C177.309 115.75 177.648 115.106 177.932 114.475C181.978 119.36 182.189 132.826 188.141 132.826C189.586 132.826 191.08 131.474 191.695 130.171C194.339 124.568 189.946 118.043 188.031 114.363Z" fill="white"/>
<path d="M195.878 182.699L127.945 156.316L60.0113 182.692L86.8341 140.645L18.0222 114.895L102.537 115.29L127.941 73L153.351 115.292L237.866 114.905L169.054 140.648L195.882 182.699" fill="black"/>
<path d="M186.788 175.08L128.058 152.317L69.332 175.077L92.5197 138.794L33.0338 116.577L106.091 116.918L128.051 80.4285L150.017 116.918L223.079 116.584L163.595 138.797L186.788 175.08Z" fill="#619CBC"/>
<path d="M82.9758 94.6081C88.8419 94.6081 85.4233 109.266 83.3367 113.686C81.5492 117.469 77.5273 122.928 72.7612 122.928C67.043 122.928 67.2131 116.522 69.4887 111.701C70.7211 109.089 72.6169 106.163 75.2259 104.011C74.5556 106.258 76.8158 107.793 75.9014 109.726C75.2775 111.048 73.9867 112.492 73.3164 113.913C72.2319 116.211 72.6461 120.29 75.2672 120.29C77.6133 120.29 79.6981 117.382 80.5523 115.572C82.3038 111.863 86.6814 96.0364 81.7881 96.0364C76.1506 96.0364 66.4397 109.769 64.4064 114.078C60.7764 121.768 63.4095 131.238 71.6784 131.238C77.2678 131.238 81.8638 125.865 84.0844 121.163C85.3131 118.573 86.0991 115.795 86.4098 112.945L87.4961 112.746C87.735 119.982 95.3886 131.962 92.1316 138.864C87.9602 147.699 75.4923 147.62 68.3716 150.755C66.8762 147.253 64.8481 144 61.9933 141.515C68.3441 139.378 83.9503 135.791 87.3448 128.603C88.7714 125.582 87.7986 120.575 86.152 118.877C85.8581 119.994 85.4617 121.081 84.9678 122.125C82.0631 128.278 75.8412 133.051 69.4286 133.051C60.498 133.051 56.7133 126.635 60.9156 117.732C63.437 112.389 76.3156 94.6081 82.9758 94.6081Z" fill="black"/>
<path d="M82.9758 94.6081C88.8419 94.6081 85.4233 109.266 83.3367 113.686C81.5492 117.469 77.5273 122.928 72.7612 122.928C67.043 122.928 67.2131 116.522 69.4887 111.701C70.7211 109.089 72.6169 106.163 75.2259 104.011C74.5556 106.258 76.8158 107.793 75.9014 109.726C75.2775 111.048 73.9867 112.492 73.3164 113.913C72.2319 116.211 72.6461 120.29 75.2672 120.29C77.6133 120.29 79.6981 117.382 80.5523 115.572C82.3038 111.863 86.6814 96.0364 81.7881 96.0364C76.1506 96.0364 66.4397 109.769 64.4064 114.078C60.7764 121.768 63.4095 131.238 71.6784 131.238C77.2678 131.238 81.8638 125.865 84.0844 121.163C85.3131 118.573 86.0991 115.795 86.4098 112.945L87.4961 112.746C87.735 119.982 95.3886 131.962 92.1316 138.864C87.9602 147.699 75.4923 147.62 68.3716 150.755C66.8762 147.253 64.8481 144 61.9933 141.515C68.3441 139.378 83.9503 135.791 87.3448 128.603C88.7714 125.582 87.7986 120.575 86.152 118.877C85.8581 119.994 85.4617 121.081 84.9678 122.125C82.0631 128.278 75.8412 133.051 69.4286 133.051C60.498 133.051 56.7133 126.635 60.9156 117.732C63.437 112.389 76.3156 94.6081 82.9758 94.6081Z" stroke="black" stroke-width="5.718" stroke-miterlimit="3.864" stroke-linejoin="round"/>
<path d="M98.233 115.821C98.587 116.694 99.6131 121.63 100.392 121.63C102.074 121.63 105.115 117.053 105.93 115.864C107.425 116.844 106.596 118.901 109.367 118.901C110.622 118.901 111.254 116.197 112.56 116.153C112.605 117.246 112.676 118.234 112.079 119.497C111.161 121.443 108.838 124.08 106.553 124.08C104.915 124.08 102.636 122.11 102.188 122.11C101.703 122.11 100.809 122.337 100.526 122.94C99.3347 125.461 102.516 133.876 105.706 133.876C107.411 133.876 109.444 132.625 111.228 131.855C110.764 134.887 110.699 137.443 111.314 140.054C109.795 140.995 108.045 141.5 106.258 141.515C98.4203 141.515 102.743 123.287 95.5156 119.403L98.233 115.821Z" fill="black"/>
<path d="M98.233 115.821C98.587 116.694 99.6131 121.63 100.392 121.63C102.074 121.63 105.115 117.053 105.93 115.864C107.425 116.844 106.596 118.901 109.367 118.901C110.622 118.901 111.254 116.197 112.56 116.153C112.605 117.246 112.676 118.234 112.079 119.497C111.161 121.443 108.838 124.08 106.553 124.08C104.915 124.08 102.636 122.11 102.188 122.11C101.703 122.11 100.809 122.337 100.526 122.94C99.3347 125.461 102.516 133.876 105.706 133.876C107.411 133.876 109.444 132.625 111.228 131.855C110.764 134.887 110.699 137.443 111.314 140.054C109.795 140.995 108.045 141.5 106.258 141.515C98.4203 141.515 102.743 123.287 95.5156 119.403L98.233 115.821Z" stroke="black" stroke-width="5.718" stroke-miterlimit="3.864" stroke-linejoin="round"/>
<path fill-rule="evenodd" clip-rule="evenodd" d="M128.359 114.363C134.284 114.363 136.623 125.02 133.964 130.65C131.901 135.019 128.246 138.185 123.562 138.185C115.291 138.185 116.326 126.91 119.554 120.073C120.444 118.189 123.485 114.085 125.862 114.085C126.738 114.085 127.46 114.363 128.359 114.363ZM128.175 115.359C127.244 115.359 126.422 115.819 125.992 116.737C125.081 118.659 129.61 120.604 128.961 121.981C128.552 122.847 126.994 123.658 126.209 123.658C122.283 123.658 122.316 118.55 124.657 115.223C123.201 116.149 122.247 117.565 121.628 118.879C119.329 123.751 121.154 130.453 126.403 130.453C129.304 130.453 132.644 127.847 133.943 125.095C135.542 121.713 131.455 115.359 128.175 115.359Z" fill="black"/>
<path d="M128.359 114.363C134.284 114.363 136.623 125.02 133.964 130.65C131.901 135.019 128.246 138.185 123.562 138.185C115.291 138.185 116.326 126.91 119.554 120.073C120.444 118.189 123.485 114.085 125.862 114.085C126.738 114.085 127.46 114.363 128.359 114.363Z" stroke="black" stroke-width="5.718" stroke-miterlimit="3.864" stroke-linejoin="round"/>
<path d="M128.174 115.359C127.242 115.359 126.42 115.819 125.989 116.737C125.082 118.66 129.609 120.604 128.959 121.981C128.55 122.847 126.993 123.658 126.207 123.658C122.282 123.658 122.314 118.55 124.655 115.223C123.2 116.151 122.246 117.565 121.627 118.879C119.325 123.751 121.151 130.454 126.402 130.454C129.301 130.454 132.642 127.847 133.942 125.097C135.54 121.715 131.453 115.359 128.174 115.359Z" stroke="black" stroke-width="5.718" stroke-miterlimit="3.864" stroke-linejoin="round"/>
<path fill-rule="evenodd" clip-rule="evenodd" d="M155.285 131.905C153.737 135.184 150.851 136.984 147.602 136.984C137.295 136.984 135.25 127.584 139.718 118.121C140.772 115.886 142.503 113.416 145.148 113.416C153.429 113.416 159.199 123.614 155.285 131.905ZM147.061 114.602C146.3 114.602 145.634 114.877 145.268 115.651C144.467 117.351 148.83 118.865 148.835 120.621C148.379 121.161 147.104 121.764 146.549 121.764C143.407 121.764 141.035 117.505 143.718 114.339C142.628 115.032 141.982 116.067 141.523 117.038C138.804 122.799 142.68 128.622 148.329 128.622C150.681 128.622 153.709 127.316 154.931 124.728C156.66 121.067 150.504 114.604 147.059 114.604" fill="black"/>
<path d="M155.285 131.905C153.737 135.184 150.851 136.984 147.602 136.984C137.295 136.984 135.25 127.584 139.718 118.121C140.772 115.886 142.503 113.416 145.148 113.416C153.429 113.416 159.199 123.614 155.285 131.905Z" stroke="black" stroke-width="5.718" stroke-miterlimit="3.864" stroke-linejoin="round"/>
<path d="M147.059 114.604C146.3 114.604 145.633 114.879 145.267 115.652C144.466 117.351 148.828 118.867 148.835 120.623C148.379 121.161 147.102 121.766 146.547 121.766C143.405 121.766 141.033 117.507 143.716 114.341C142.628 115.032 141.98 116.067 141.521 117.04C138.802 122.801 142.68 128.624 148.328 128.624C150.679 128.624 153.709 127.318 154.931 124.729C156.658 121.068 150.504 114.604 147.059 114.604Z" stroke="black" stroke-width="5.718" stroke-miterlimit="3.864" stroke-linejoin="round"/>
<path d="M165.945 114.549C174.827 114.549 179.342 130.85 175.372 139.258C174.614 140.865 173.2 142.472 171.333 142.472C161.186 142.472 163.776 122.299 158.064 116.567C158.585 116.012 159.085 115.432 159.544 114.848C163.404 119.377 161.486 131.3 169.731 131.3C171.63 131.3 173.067 129.638 173.834 128.014C175.881 123.677 172.093 116.144 167.945 116.144C167.904 116.144 167.309 116.168 167.322 116.409C167.476 119.178 169.652 117.452 167.459 122.163C165.219 121.716 162.846 118.119 164.071 115.524C164.432 114.76 165.333 114.549 165.945 114.549Z" fill="black"/>
<path d="M165.945 114.549C174.827 114.549 179.342 130.85 175.372 139.258C174.614 140.865 173.2 142.472 171.333 142.472C161.186 142.472 163.776 122.299 158.064 116.567C158.585 116.012 159.085 115.432 159.544 114.848C163.404 119.377 161.486 131.3 169.731 131.3C171.63 131.3 173.067 129.638 173.834 128.014C175.881 123.677 172.093 116.144 167.945 116.144C167.904 116.144 167.309 116.168 167.322 116.409C167.476 119.178 169.652 117.452 167.459 122.163C165.219 121.716 162.846 118.119 164.071 115.524C164.432 114.76 165.333 114.549 165.945 114.549Z" stroke="black" stroke-width="5.718" stroke-miterlimit="3.864" stroke-linejoin="round"/>
<path fill-rule="evenodd" clip-rule="evenodd" d="M188.031 114.363C188.868 114.442 190.124 114.367 190.843 114.587C190.977 114.626 190.875 114.795 190.898 114.929C191.116 116.16 191.46 117.328 191.757 118.519C192.914 123.157 193.61 127.917 194.937 132.513C196.382 137.518 197.89 143.159 196.14 149.44C195.968 150.053 195.739 150.677 195.444 151.305C193.46 155.507 176.381 160.349 171.921 160.349C171.38 160.349 170.795 160.194 170.537 159.842C172.418 158.645 173.597 157.418 174.439 155.637C175.444 153.503 175.431 151.502 175.298 149.661C175.654 149.868 188.777 149.545 189.251 149.545C191.181 149.545 192.836 147.68 193.61 146.038C195.031 143.029 194.789 139.956 194.543 137.391C194.425 136.123 194.246 134.861 194.007 133.61L193.646 131.829L193.6 131.635L193.555 131.439C193.77 131.439 193.577 131.817 193.586 132.008C193.718 135.112 193.661 139.447 191.994 142.981C191.219 144.622 189.951 146.315 188.007 146.315C179.477 146.315 183.767 122.125 176.931 116.374C177.309 115.75 177.648 115.106 177.931 114.475C181.976 119.36 182.189 132.826 188.141 132.826C189.585 132.826 191.08 131.472 191.693 130.171C194.339 124.568 189.944 118.042 188.031 114.363Z" fill="black"/>
<path d="M188.031 114.363C188.868 114.442 190.124 114.367 190.843 114.587C190.977 114.626 190.875 114.795 190.898 114.929C191.116 116.16 191.46 117.328 191.757 118.519C192.914 123.157 193.61 127.917 194.937 132.513C196.382 137.518 197.89 143.159 196.14 149.44C195.968 150.053 195.739 150.677 195.444 151.305C193.46 155.507 176.381 160.349 171.921 160.349C171.38 160.349 170.795 160.194 170.537 159.842C172.418 158.645 173.597 157.418 174.439 155.637C175.444 153.503 175.431 151.502 175.298 149.661C175.654 149.868 188.777 149.545 189.251 149.545C191.181 149.545 192.836 147.68 193.61 146.038C195.031 143.029 194.789 139.956 194.543 137.391C194.425 136.123 194.246 134.861 194.007 133.61L193.646 131.829L193.6 131.635L193.555 131.439C193.77 131.439 193.577 131.817 193.586 132.008C193.718 135.112 193.661 139.447 191.994 142.981C191.219 144.622 189.951 146.315 188.007 146.315C179.477 146.315 183.767 122.125 176.931 116.374C177.309 115.75 177.648 115.106 177.931 114.475C181.976 119.36 182.189 132.826 188.141 132.826C189.585 132.826 191.08 131.472 191.693 130.171C194.339 124.568 189.944 118.042 188.031 114.363Z" stroke="black" stroke-width="5.718" stroke-miterlimit="3.864" stroke-linejoin="round"/>
<path d="M82.9758 94.6081C88.8419 94.6081 85.4233 109.266 83.3367 113.686C81.5492 117.469 77.5273 122.928 72.7612 122.928C67.043 122.928 67.2131 116.522 69.4887 111.701C70.7211 109.089 72.6169 106.163 75.2259 104.011C74.5556 106.258 76.8158 107.793 75.9014 109.726C75.2775 111.048 73.9867 112.492 73.3164 113.913C72.2319 116.211 72.6461 120.29 75.2672 120.29C77.6133 120.29 79.6981 117.382 80.5523 115.572C82.3038 111.863 86.6814 96.0364 81.7881 96.0364C76.1506 96.0364 66.4397 109.769 64.4064 114.078C60.7764 121.768 63.4095 131.238 71.6784 131.238C77.2678 131.238 81.8638 125.865 84.0844 121.163C85.3131 118.573 86.0991 115.795 86.4098 112.945L87.4961 112.746C87.735 119.982 95.3886 131.962 92.1316 138.864C87.9602 147.699 75.4923 147.62 68.3716 150.755C66.8762 147.253 64.8481 144 61.9933 141.515C68.3441 139.378 83.9503 135.791 87.3448 128.603C88.7714 125.582 87.7986 120.575 86.152 118.877C85.8581 119.994 85.4617 121.081 84.9678 122.125C82.0631 128.278 75.8412 133.051 69.4286 133.051C60.498 133.051 56.7133 126.635 60.9156 117.732C63.437 112.389 76.3156 94.6081 82.9758 94.6081Z" fill="black"/>
<path d="M82.9758 94.6081C88.8419 94.6081 85.4233 109.266 83.3367 113.686C81.5492 117.469 77.5273 122.928 72.7612 122.928C67.043 122.928 67.2131 116.522 69.4887 111.701C70.7211 109.089 72.6169 106.163 75.2259 104.011C74.5556 106.258 76.8158 107.793 75.9014 109.726C75.2775 111.048 73.9867 112.492 73.3164 113.913C72.2319 116.211 72.6461 120.29 75.2672 120.29C77.6133 120.29 79.6981 117.382 80.5523 115.572C82.3038 111.863 86.6814 96.0364 81.7881 96.0364C76.1506 96.0364 66.4397 109.769 64.4064 114.078C60.7764 121.768 63.4095 131.238 71.6784 131.238C77.2678 131.238 81.8638 125.865 84.0844 121.163C85.3131 118.573 86.0991 115.795 86.4098 112.945L87.4961 112.746C87.735 119.982 95.3886 131.962 92.1316 138.864C87.9602 147.699 75.4923 147.62 68.3716 150.755C66.8762 147.253 64.8481 144 61.9933 141.515C68.3441 139.378 83.9503 135.791 87.3448 128.603C88.7714 125.582 87.7986 120.575 86.152 118.877C85.8581 119.994 85.4617 121.081 84.9678 122.125C82.0631 128.278 75.8412 133.051 69.4286 133.051C60.498 133.051 56.7133 126.635 60.9156 117.732C63.437 112.389 76.3156 94.6081 82.9758 94.6081Z" stroke="black" stroke-width="0.476506" stroke-miterlimit="3.864"/>
<path d="M98.233 115.821C98.587 116.694 99.6131 121.63 100.392 121.63C102.074 121.63 105.115 117.053 105.93 115.864C107.425 116.844 106.596 118.901 109.367 118.901C110.622 118.901 111.254 116.197 112.56 116.153C112.605 117.246 112.676 118.234 112.079 119.497C111.161 121.443 108.838 124.08 106.553 124.08C104.915 124.08 102.636 122.11 102.188 122.11C101.703 122.11 100.809 122.337 100.526 122.94C99.3347 125.461 102.516 133.876 105.706 133.876C107.411 133.876 109.444 132.625 111.228 131.855C110.764 134.887 110.699 137.443 111.314 140.054C109.795 140.995 108.045 141.5 106.258 141.515C98.4203 141.515 102.743 123.287 95.5156 119.403L98.233 115.821Z" fill="black"/>
<path d="M98.233 115.821C98.587 116.694 99.6131 121.63 100.392 121.63C102.074 121.63 105.115 117.053 105.93 115.864C107.425 116.844 106.596 118.901 109.367 118.901C110.622 118.901 111.254 116.197 112.56 116.153C112.605 117.246 112.676 118.234 112.079 119.497C111.161 121.443 108.838 124.08 106.553 124.08C104.915 124.08 102.636 122.11 102.188 122.11C101.703 122.11 100.809 122.337 100.526 122.94C99.3347 125.461 102.516 133.876 105.706 133.876C107.411 133.876 109.444 132.625 111.228 131.855C110.764 134.887 110.699 137.443 111.314 140.054C109.795 140.995 108.045 141.5 106.258 141.515C98.4203 141.515 102.743 123.287 95.5156 119.403L98.233 115.821Z" stroke="black" stroke-width="0.476506" stroke-miterlimit="3.864"/>
<path fill-rule="evenodd" clip-rule="evenodd" d="M128.359 114.363C134.284 114.363 136.623 125.02 133.964 130.65C131.901 135.019 128.246 138.185 123.562 138.185C115.291 138.185 116.326 126.91 119.554 120.073C120.444 118.189 123.485 114.085 125.862 114.085C126.738 114.085 127.46 114.363 128.359 114.363ZM128.175 115.359C127.244 115.359 126.422 115.819 125.992 116.737C125.081 118.659 129.61 120.604 128.961 121.981C128.552 122.847 126.994 123.658 126.209 123.658C122.283 123.658 122.316 118.55 124.657 115.223C123.201 116.149 122.247 117.565 121.628 118.879C119.329 123.751 121.154 130.453 126.403 130.453C129.304 130.453 132.644 127.847 133.943 125.095C135.542 121.713 131.455 115.359 128.175 115.359Z" fill="black"/>
<path d="M128.359 114.363C134.284 114.363 136.623 125.02 133.964 130.65C131.901 135.019 128.246 138.185 123.562 138.185C115.291 138.185 116.326 126.91 119.554 120.073C120.444 118.189 123.485 114.085 125.862 114.085C126.738 114.085 127.46 114.363 128.359 114.363Z" stroke="black" stroke-width="0.476506" stroke-miterlimit="3.864"/>
<path d="M128.174 115.359C127.242 115.359 126.42 115.819 125.989 116.737C125.082 118.66 129.609 120.604 128.959 121.981C128.55 122.847 126.993 123.658 126.207 123.658C122.282 123.658 122.314 118.55 124.655 115.223C123.2 116.151 122.246 117.565 121.627 118.879C119.325 123.751 121.151 130.454 126.402 130.454C129.301 130.454 132.642 127.847 133.942 125.097C135.54 121.715 131.453 115.359 128.174 115.359Z" stroke="black" stroke-width="0.476506" stroke-miterlimit="3.864"/>
<path fill-rule="evenodd" clip-rule="evenodd" d="M155.285 131.905C153.737 135.184 150.851 136.984 147.602 136.984C137.295 136.984 135.25 127.584 139.718 118.121C140.772 115.886 142.503 113.416 145.148 113.416C153.429 113.416 159.199 123.614 155.285 131.905ZM147.061 114.602C146.3 114.602 145.634 114.877 145.268 115.651C144.467 117.351 148.83 118.865 148.835 120.621C148.379 121.161 147.104 121.764 146.549 121.764C143.407 121.764 141.035 117.505 143.718 114.339C142.628 115.032 141.982 116.067 141.523 117.038C138.804 122.799 142.68 128.622 148.329 128.622C150.681 128.622 153.709 127.316 154.931 124.728C156.66 121.067 150.504 114.604 147.059 114.604" fill="black"/>
<path d="M155.285 131.905C153.737 135.184 150.851 136.984 147.602 136.984C137.295 136.984 135.25 127.584 139.718 118.121C140.772 115.886 142.503 113.416 145.148 113.416C153.429 113.416 159.199 123.614 155.285 131.905Z" stroke="black" stroke-width="0.476506" stroke-miterlimit="3.864"/>
<path d="M147.059 114.604C146.3 114.604 145.633 114.879 145.267 115.652C144.466 117.351 148.828 118.867 148.835 120.623C148.379 121.161 147.102 121.766 146.547 121.766C143.405 121.766 141.033 117.507 143.716 114.341C142.628 115.032 141.98 116.067 141.521 117.04C138.802 122.801 142.68 128.624 148.328 128.624C150.679 128.624 153.709 127.318 154.931 124.729C156.658 121.068 150.504 114.604 147.059 114.604Z" stroke="black" stroke-width="0.476506" stroke-miterlimit="3.864"/>
<path d="M165.945 114.549C174.827 114.549 179.342 130.85 175.372 139.258C174.614 140.865 173.2 142.472 171.333 142.472C161.186 142.472 163.776 122.299 158.064 116.567C158.585 116.012 159.085 115.432 159.544 114.848C163.404 119.377 161.486 131.3 169.731 131.3C171.63 131.3 173.067 129.638 173.834 128.014C175.881 123.677 172.093 116.144 167.945 116.144C167.904 116.144 167.309 116.168 167.322 116.409C167.476 119.178 169.652 117.452 167.459 122.163C165.219 121.716 162.846 118.119 164.071 115.524C164.432 114.76 165.333 114.549 165.945 114.549Z" fill="black"/>
<path d="M165.945 114.549C174.827 114.549 179.342 130.85 175.372 139.258C174.614 140.865 173.2 142.472 171.333 142.472C161.186 142.472 163.776 122.299 158.064 116.567C158.585 116.012 159.085 115.432 159.544 114.848C163.404 119.377 161.486 131.3 169.731 131.3C171.63 131.3 173.067 129.638 173.834 128.014C175.881 123.677 172.093 116.144 167.945 116.144C167.904 116.144 167.309 116.168 167.322 116.409C167.476 119.178 169.652 117.452 167.459 122.163C165.219 121.716 162.846 118.119 164.071 115.524C164.432 114.76 165.333 114.549 165.945 114.549Z" stroke="black" stroke-width="0.476506" stroke-miterlimit="3.864"/>
<path fill-rule="evenodd" clip-rule="evenodd" d="M188.031 114.363C188.868 114.442 190.124 114.367 190.843 114.587C190.977 114.626 190.875 114.795 190.898 114.929C191.116 116.16 191.46 117.328 191.757 118.519C192.914 123.157 193.61 127.917 194.937 132.513C196.382 137.518 197.889 143.159 196.14 149.44C195.968 150.053 195.739 150.677 195.444 151.305C193.46 155.507 188.362 159.506 183.901 159.506C183.359 159.506 182.775 159.352 182.515 159.001C184.399 157.805 185.575 156.578 186.417 154.797C187.426 152.661 187.41 150.66 187.276 148.819C187.634 149.025 188.777 149.545 189.253 149.545C191.181 149.545 192.836 147.68 193.612 146.038C195.033 143.029 194.789 139.956 194.543 137.391C194.425 136.123 194.246 134.861 194.007 133.61L193.646 131.829L193.599 131.635L193.555 131.439C193.771 131.439 193.577 131.817 193.586 132.008C193.718 135.112 193.663 139.447 191.994 142.981C191.221 144.622 189.952 146.315 188.007 146.315C179.476 146.315 183.766 122.125 176.931 116.374C177.309 115.75 177.648 115.106 177.931 114.475C181.977 119.36 182.189 132.826 188.141 132.826C189.586 132.826 191.08 131.472 191.693 130.171C194.34 124.568 189.944 118.042 188.031 114.363Z" fill="black"/>
<path d="M188.031 114.363C188.868 114.442 190.124 114.367 190.843 114.587C190.977 114.626 190.875 114.795 190.898 114.929C191.116 116.16 191.46 117.328 191.757 118.519C192.914 123.157 193.61 127.917 194.937 132.513C196.382 137.518 197.889 143.159 196.14 149.44C195.968 150.053 195.739 150.677 195.444 151.305C193.46 155.507 188.362 159.506 183.901 159.506C183.359 159.506 182.775 159.352 182.515 159.001C184.399 157.805 185.575 156.578 186.417 154.797C187.426 152.661 187.41 150.66 187.276 148.819C187.634 149.025 188.777 149.545 189.253 149.545C191.181 149.545 192.836 147.68 193.612 146.038C195.033 143.029 194.789 139.956 194.543 137.391C194.425 136.123 194.246 134.861 194.007 133.61L193.646 131.829L193.599 131.635L193.555 131.439C193.771 131.439 193.577 131.817 193.586 132.008C193.718 135.112 193.663 139.447 191.994 142.981C191.221 144.622 189.952 146.315 188.007 146.315C179.476 146.315 183.766 122.125 176.931 116.374C177.309 115.75 177.648 115.106 177.931 114.475C181.977 119.36 182.189 132.826 188.141 132.826C189.586 132.826 191.08 131.472 191.693 130.171C194.34 124.568 189.944 118.042 188.031 114.363Z" stroke="black" stroke-width="0.476506" stroke-miterlimit="3.864"/>
<path d="M82.9758 94.6081C88.8419 94.6081 85.4233 109.266 83.3367 113.686C81.5492 117.469 77.5273 122.928 72.7612 122.928C67.043 122.928 67.2131 116.522 69.4887 111.701C70.7211 109.089 72.6169 106.163 75.2259 104.011C74.5556 106.258 76.8158 107.793 75.9014 109.726C75.2775 111.048 73.9867 112.492 73.3164 113.913C72.2319 116.211 72.6461 120.29 75.2672 120.29C77.6133 120.29 79.6981 117.382 80.5523 115.572C82.3038 111.863 86.6814 96.0364 81.7881 96.0364C76.1506 96.0364 66.4397 109.769 64.4064 114.078C60.7764 121.768 63.4095 131.238 71.6784 131.238C77.2678 131.238 81.8638 125.865 84.0844 121.163C85.3131 118.573 86.0991 115.795 86.4098 112.945L87.4961 112.746C87.735 119.982 95.3886 131.962 92.1316 138.864C87.9602 147.699 75.4923 147.62 68.3716 150.755C66.8762 147.253 64.8481 144 61.9933 141.515C68.3441 139.378 83.9503 135.791 87.3448 128.603C88.7714 125.582 87.7986 120.575 86.152 118.877C85.8581 119.994 85.4617 121.081 84.9678 122.125C82.0631 128.278 75.8412 133.051 69.4286 133.051C60.498 133.051 56.7133 126.635 60.9156 117.732C63.437 112.389 76.3156 94.6081 82.9758 94.6081Z" fill="black"/>
<path d="M82.9758 94.6081C88.8419 94.6081 85.4233 109.266 83.3367 113.686C81.5492 117.469 77.5273 122.928 72.7612 122.928C67.043 122.928 67.2131 116.522 69.4887 111.701C70.7211 109.089 72.6169 106.163 75.2259 104.011C74.5556 106.258 76.8158 107.793 75.9014 109.726C75.2775 111.048 73.9867 112.492 73.3164 113.913C72.2319 116.211 72.6461 120.29 75.2672 120.29C77.6133 120.29 79.6981 117.382 80.5523 115.572C82.3038 111.863 86.6814 96.0364 81.7881 96.0364C76.1506 96.0364 66.4397 109.769 64.4064 114.078C60.7764 121.768 63.4095 131.238 71.6784 131.238C77.2678 131.238 81.8638 125.865 84.0844 121.163C85.3131 118.573 86.0991 115.795 86.4098 112.945L87.4961 112.746C87.735 119.982 95.3886 131.962 92.1316 138.864C87.9602 147.699 75.4923 147.62 68.3716 150.755C66.8762 147.253 64.8481 144 61.9933 141.515C68.3441 139.378 83.9503 135.791 87.3448 128.603C88.7714 125.582 87.7986 120.575 86.152 118.877C85.8581 119.994 85.4617 121.081 84.9678 122.125C82.0631 128.278 75.8412 133.051 69.4286 133.051C60.498 133.051 56.7133 126.635 60.9156 117.732C63.437 112.389 76.3156 94.6081 82.9758 94.6081Z" stroke="black" stroke-width="5.718" stroke-miterlimit="3.864" stroke-linejoin="round"/>
<path d="M98.233 115.821C98.587 116.694 99.6131 121.63 100.392 121.63C102.074 121.63 105.115 117.053 105.93 115.864C107.425 116.844 106.596 118.901 109.367 118.901C110.622 118.901 111.254 116.197 112.56 116.153C112.605 117.246 112.676 118.234 112.079 119.497C111.161 121.443 108.838 124.08 106.553 124.08C104.915 124.08 102.636 122.11 102.188 122.11C101.703 122.11 100.809 122.337 100.526 122.94C99.3347 125.461 102.516 133.876 105.706 133.876C107.411 133.876 109.444 132.625 111.228 131.855C110.764 134.887 110.699 137.443 111.314 140.054C109.795 140.995 108.045 141.5 106.258 141.515C98.4203 141.515 102.743 123.287 95.5156 119.403L98.233 115.821Z" fill="black"/>
<path d="M98.233 115.821C98.587 116.694 99.6131 121.63 100.392 121.63C102.074 121.63 105.115 117.053 105.93 115.864C107.425 116.844 106.596 118.901 109.367 118.901C110.622 118.901 111.254 116.197 112.56 116.153C112.605 117.246 112.676 118.234 112.079 119.497C111.161 121.443 108.838 124.08 106.553 124.08C104.915 124.08 102.636 122.11 102.188 122.11C101.703 122.11 100.809 122.337 100.526 122.94C99.3347 125.461 102.516 133.876 105.706 133.876C107.411 133.876 109.444 132.625 111.228 131.855C110.764 134.887 110.699 137.443 111.314 140.054C109.795 140.995 108.045 141.5 106.258 141.515C98.4203 141.515 102.743 123.287 95.5156 119.403L98.233 115.821Z" stroke="black" stroke-width="5.718" stroke-miterlimit="3.864" stroke-linejoin="round"/>
<path fill-rule="evenodd" clip-rule="evenodd" d="M128.359 114.363C134.284 114.363 136.623 125.02 133.964 130.65C131.901 135.019 128.246 138.185 123.562 138.185C115.291 138.185 116.326 126.91 119.554 120.073C120.444 118.189 123.485 114.085 125.862 114.085C126.738 114.085 127.46 114.363 128.359 114.363ZM128.175 115.359C127.244 115.359 126.422 115.819 125.992 116.737C125.081 118.659 129.61 120.604 128.961 121.981C128.552 122.847 126.994 123.658 126.209 123.658C122.283 123.658 122.316 118.55 124.657 115.223C123.201 116.149 122.247 117.565 121.628 118.879C119.329 123.751 121.154 130.453 126.403 130.453C129.304 130.453 132.644 127.847 133.943 125.095C135.542 121.713 131.455 115.359 128.175 115.359Z" fill="black"/>
<path d="M128.359 114.363C134.284 114.363 136.623 125.02 133.964 130.65C131.901 135.019 128.246 138.185 123.562 138.185C115.291 138.185 116.326 126.91 119.554 120.073C120.444 118.189 123.485 114.085 125.862 114.085C126.738 114.085 127.46 114.363 128.359 114.363Z" stroke="black" stroke-width="5.718" stroke-miterlimit="3.864" stroke-linejoin="round"/>
<path d="M128.174 115.359C127.242 115.359 126.42 115.819 125.989 116.737C125.082 118.66 129.609 120.604 128.959 121.981C128.55 122.847 126.993 123.658 126.207 123.658C122.282 123.658 122.314 118.55 124.655 115.223C123.2 116.151 122.246 117.565 121.627 118.879C119.325 123.751 121.151 130.454 126.402 130.454C129.301 130.454 132.642 127.847 133.942 125.097C135.54 121.715 131.453 115.359 128.174 115.359Z" stroke="black" stroke-width="5.718" stroke-miterlimit="3.864" stroke-linejoin="round"/>
<path fill-rule="evenodd" clip-rule="evenodd" d="M155.285 131.905C153.737 135.184 150.851 136.984 147.602 136.984C137.295 136.984 135.25 127.584 139.718 118.121C140.772 115.886 142.503 113.416 145.148 113.416C153.429 113.416 159.199 123.614 155.285 131.905ZM147.061 114.602C146.3 114.602 145.634 114.877 145.268 115.651C144.467 117.351 148.83 118.865 148.835 120.621C148.379 121.161 147.104 121.764 146.549 121.764C143.407 121.764 141.035 117.505 143.718 114.339C142.628 115.032 141.982 116.067 141.523 117.038C138.804 122.799 142.68 128.622 148.329 128.622C150.681 128.622 153.709 127.316 154.931 124.728C156.66 121.067 150.504 114.604 147.059 114.604" fill="black"/>
<path d="M155.285 131.905C153.737 135.184 150.851 136.984 147.602 136.984C137.295 136.984 135.25 127.584 139.718 118.121C140.772 115.886 142.503 113.416 145.148 113.416C153.429 113.416 159.199 123.614 155.285 131.905Z" stroke="black" stroke-width="5.718" stroke-miterlimit="3.864" stroke-linejoin="round"/>
<path d="M147.059 114.604C146.3 114.604 145.633 114.879 145.267 115.652C144.466 117.351 148.828 118.867 148.835 120.623C148.379 121.161 147.102 121.766 146.547 121.766C143.405 121.766 141.033 117.507 143.716 114.341C142.628 115.032 141.98 116.067 141.521 117.04C138.802 122.801 142.68 128.624 148.328 128.624C150.679 128.624 153.709 127.318 154.931 124.729C156.658 121.068 150.504 114.604 147.059 114.604Z" stroke="black" stroke-width="5.718" stroke-miterlimit="3.864" stroke-linejoin="round"/>
<path d="M165.945 114.549C174.827 114.549 179.342 130.85 175.372 139.258C174.614 140.865 173.2 142.472 171.333 142.472C161.186 142.472 163.776 122.299 158.064 116.567C158.585 116.012 159.085 115.432 159.544 114.848C163.404 119.377 161.486 131.3 169.731 131.3C171.63 131.3 173.067 129.638 173.834 128.014C175.881 123.677 172.093 116.144 167.945 116.144C167.904 116.144 167.309 116.168 167.322 116.409C167.476 119.178 169.652 117.452 167.459 122.163C165.219 121.716 162.846 118.119 164.071 115.524C164.432 114.76 165.333 114.549 165.945 114.549Z" fill="black"/>
<path d="M165.945 114.549C174.827 114.549 179.342 130.85 175.372 139.258C174.614 140.865 173.2 142.472 171.333 142.472C161.186 142.472 163.776 122.299 158.064 116.567C158.585 116.012 159.085 115.432 159.544 114.848C163.404 119.377 161.486 131.3 169.731 131.3C171.63 131.3 173.067 129.638 173.834 128.014C175.881 123.677 172.093 116.144 167.945 116.144C167.904 116.144 167.309 116.168 167.322 116.409C167.476 119.178 169.652 117.452 167.459 122.163C165.219 121.716 162.846 118.119 164.071 115.524C164.432 114.76 165.333 114.549 165.945 114.549Z" stroke="black" stroke-width="5.718" stroke-miterlimit="3.864" stroke-linejoin="round"/>
<path fill-rule="evenodd" clip-rule="evenodd" d="M188.031 114.363C188.868 114.442 190.124 114.367 190.843 114.587C190.977 114.626 190.875 114.795 190.898 114.929C191.116 116.16 191.46 117.328 191.757 118.519C192.914 123.157 193.61 127.917 194.937 132.513C196.382 137.518 197.889 143.159 196.14 149.44C195.968 150.053 195.739 150.677 195.444 151.305C193.46 155.507 188.362 159.506 183.901 159.506C183.359 159.506 182.775 159.352 182.515 159.001C184.399 157.805 185.575 156.578 186.417 154.797C187.426 152.661 187.41 150.66 187.276 148.819C187.634 149.025 188.777 149.545 189.253 149.545C191.181 149.545 192.836 147.68 193.612 146.038C195.033 143.029 194.789 139.956 194.543 137.391C194.425 136.123 194.246 134.861 194.007 133.61L193.646 131.829L193.599 131.635L193.555 131.439C193.771 131.439 193.577 131.817 193.586 132.008C193.718 135.112 193.663 139.447 191.994 142.981C191.221 144.622 189.952 146.315 188.007 146.315C179.476 146.315 183.766 122.125 176.931 116.374C177.309 115.75 177.648 115.106 177.931 114.475C181.977 119.36 182.189 132.826 188.141 132.826C189.586 132.826 191.08 131.472 191.693 130.171C194.34 124.568 189.944 118.042 188.031 114.363Z" fill="black"/>
<path d="M188.031 114.363C188.868 114.442 190.124 114.367 190.843 114.587C190.977 114.626 190.875 114.795 190.898 114.929C191.116 116.16 191.46 117.328 191.757 118.519C192.914 123.157 193.61 127.917 194.937 132.513C196.382 137.518 197.889 143.159 196.14 149.44C195.968 150.053 195.739 150.677 195.444 151.305C193.46 155.507 188.362 159.506 183.901 159.506C183.359 159.506 182.775 159.352 182.515 159.001C184.399 157.805 185.575 156.578 186.417 154.797C187.426 152.661 187.41 150.66 187.276 148.819C187.634 149.025 188.777 149.545 189.253 149.545C191.181 149.545 192.836 147.68 193.612 146.038C195.033 143.029 194.789 139.956 194.543 137.391C194.425 136.123 194.246 134.861 194.007 133.61L193.646 131.829L193.599 131.635L193.555 131.439C193.771 131.439 193.577 131.817 193.586 132.008C193.718 135.112 193.663 139.447 191.994 142.981C191.221 144.622 189.952 146.315 188.007 146.315C179.476 146.315 183.766 122.125 176.931 116.374C177.309 115.75 177.648 115.106 177.931 114.475C181.977 119.36 182.189 132.826 188.141 132.826C189.586 132.826 191.08 131.472 191.693 130.171C194.34 124.568 189.944 118.042 188.031 114.363Z" stroke="black" stroke-width="5.718" stroke-miterlimit="3.864" stroke-linejoin="round"/>
<path d="M82.9758 94.6081C88.8419 94.6081 85.4233 109.266 83.3367 113.686C81.5492 117.469 77.5273 122.928 72.7612 122.928C67.043 122.928 67.2131 116.522 69.4887 111.701C70.7211 109.089 72.6169 106.163 75.2259 104.011C74.5556 106.258 76.8158 107.793 75.9014 109.726C75.2775 111.048 73.9867 112.492 73.3164 113.913C72.2319 116.211 72.6461 120.29 75.2672 120.29C77.6133 120.29 79.6981 117.382 80.5523 115.572C82.3038 111.863 86.6814 96.0364 81.7881 96.0364C76.1506 96.0364 66.4397 109.769 64.4064 114.078C60.7764 121.768 63.4095 131.238 71.6784 131.238C77.2678 131.238 81.8638 125.865 84.0844 121.163C85.3131 118.573 86.0991 115.795 86.4098 112.945L87.4961 112.746C87.735 119.982 95.3886 131.962 92.1316 138.864C87.9602 147.699 75.4923 147.62 68.3716 150.755C66.8762 147.253 64.8481 144 61.9933 141.515C68.3441 139.378 83.9503 135.791 87.3448 128.603C88.7714 125.582 87.7986 120.575 86.152 118.877C85.8581 119.994 85.4617 121.081 84.9678 122.125C82.0631 128.278 75.8412 133.051 69.4286 133.051C60.498 133.051 56.7133 126.635 60.9156 117.732C63.437 112.389 76.3156 94.6081 82.9758 94.6081ZM98.2331 115.821C98.5872 116.694 99.6133 121.63 100.392 121.63C102.075 121.63 105.115 117.053 105.93 115.864C107.425 116.844 106.597 118.901 109.367 118.901C110.622 118.901 111.254 116.197 112.561 116.153C112.605 117.246 112.676 118.234 112.079 119.497C111.162 121.443 108.838 124.08 106.554 124.08C104.916 124.08 102.637 122.11 102.188 122.11C101.703 122.11 100.81 122.337 100.526 122.94C99.3348 125.461 102.516 133.876 105.706 133.876C107.411 133.876 109.445 132.625 111.229 131.855C110.765 134.887 110.699 137.443 111.315 140.054C109.795 140.995 108.046 141.5 106.258 141.515C98.4205 141.515 102.743 123.287 95.5158 119.403L98.2331 115.821Z" fill="white"/>
<path fill-rule="evenodd" clip-rule="evenodd" d="M128.359 114.363C134.284 114.363 136.623 125.02 133.964 130.65C131.901 135.019 128.246 138.185 123.562 138.185C115.291 138.185 116.326 126.91 119.554 120.073C120.444 118.189 123.485 114.085 125.862 114.085C126.738 114.085 127.46 114.363 128.359 114.363ZM128.175 115.359C127.244 115.359 126.422 115.819 125.992 116.737C125.081 118.659 129.61 120.604 128.961 121.981C128.552 122.847 126.994 123.658 126.209 123.658C122.283 123.658 122.316 118.55 124.657 115.223C123.201 116.149 122.247 117.565 121.628 118.879C119.329 123.751 121.154 130.453 126.403 130.453C129.304 130.453 132.644 127.847 133.943 125.095C135.542 121.713 131.455 115.359 128.175 115.359ZM155.285 131.905C153.736 135.184 150.851 136.984 147.602 136.984C137.295 136.984 135.25 127.584 139.718 118.121C140.772 115.886 142.503 113.416 145.148 113.416C153.429 113.416 159.199 123.614 155.285 131.905ZM147.061 114.602C146.299 114.602 145.634 114.877 145.268 115.651C144.467 117.351 148.829 118.865 148.835 120.621C148.379 121.161 147.104 121.764 146.549 121.764C143.407 121.764 141.035 117.505 143.718 114.339C142.628 115.032 141.982 116.067 141.523 117.038C138.804 122.799 142.68 128.622 148.329 128.622C150.68 128.622 153.709 127.316 154.931 124.728C156.66 121.067 150.503 114.604 147.059 114.604" fill="white"/>
<path d="M165.945 114.549C174.827 114.549 179.342 130.85 175.372 139.258C174.614 140.865 173.2 142.472 171.333 142.472C161.186 142.472 163.776 122.299 158.064 116.567C158.585 116.012 159.085 115.432 159.544 114.848C163.404 119.377 161.486 131.3 169.731 131.3C171.63 131.3 173.067 129.638 173.834 128.014C175.881 123.677 172.093 116.144 167.945 116.144C167.904 116.144 167.309 116.168 167.322 116.409C167.476 119.178 169.652 117.452 167.459 122.163C165.219 121.716 162.846 118.119 164.071 115.524C164.432 114.76 165.333 114.549 165.945 114.549Z" fill="white"/>
<path fill-rule="evenodd" clip-rule="evenodd" d="M188.031 114.363C188.868 114.442 190.124 114.367 190.843 114.587C190.977 114.626 190.875 114.795 190.898 114.929C191.116 116.16 191.46 117.328 191.757 118.519C192.914 123.157 193.61 127.917 194.937 132.513C196.382 137.518 197.89 143.159 196.14 149.44C195.968 150.053 195.739 150.677 195.444 151.305C188.792 164.078 174.559 160.637 170.101 160.637C169.559 160.637 168.973 160.483 168.715 160.13C170.596 158.934 171.775 157.707 172.617 155.926C173.624 153.79 173.609 151.791 173.476 149.948C173.832 150.156 174.975 150.674 175.45 150.674C177.38 150.674 188.13 156.198 193.612 146.04C195.033 143.029 194.789 139.956 194.543 137.391C194.425 136.123 194.246 134.861 194.007 133.61L193.646 131.829L193.6 131.635L193.555 131.441C193.771 131.441 193.577 131.819 193.586 132.008C193.718 135.114 193.663 139.447 191.994 142.981C191.221 144.622 189.952 146.315 188.007 146.315C179.477 146.315 183.767 122.125 176.931 116.374C177.309 115.75 177.648 115.106 177.931 114.475C181.977 119.36 182.189 132.826 188.141 132.826C189.586 132.826 191.08 131.474 191.695 130.171C194.339 124.568 189.945 118.043 188.031 114.363Z" fill="white"/>
</svg>