<svg width="256" height="256" title="GROQ" viewBox="0 0 256 256" fill="none" xmlns="http://www.w3.org/2000/svg">
<rect width="256" height="256" rx="40" fill="#F55036"/>
<path d="M128.124 56.002C100.718 55.755 78.249 77.8629 78.002 105.282C77.7551 132.7 99.8535 155.179 127.26 155.426H144.544V136.776H128.248C111.088 137.023 97.014 123.314 96.8906 106.023C96.7671 88.7316 110.347 74.7752 127.631 74.6517C127.878 74.6517 128.124 74.6517 128.371 74.6517C145.532 74.6517 159.358 88.6081 159.482 105.652V151.35C159.482 168.394 145.655 182.227 128.742 182.35C120.594 182.35 112.816 179.016 107.137 173.211L93.9276 186.426C103.063 195.566 115.409 200.876 128.371 201H128.989C156.025 200.629 177.753 178.645 178 151.473V104.294C177.136 77.4924 155.037 56.002 128.124 56.002Z" fill="white"/>
</svg>