<svg width="256" height="256" title="gRPC" viewBox="0 0 256 256" fill="none" xmlns="http://www.w3.org/2000/svg">
<rect width="256" height="256" rx="40" fill="#244B5A"/>
<path d="M57.9231 154.216C59.2588 155.995 60.9958 157.434 62.9927 158.414C65.1513 159.483 67.5332 160.023 69.9418 159.99C71.8881 160.041 73.8255 159.711 75.6457 159.02C77.1011 158.447 78.4004 157.538 79.4374 156.366C80.4122 155.226 81.124 153.886 81.5221 152.44C81.9562 150.877 82.1697 149.262 82.1564 147.64V141.997H82.0258C80.764 143.999 78.943 145.586 76.7883 146.563C74.729 147.46 72.5051 147.918 70.2589 147.906C68.0646 147.925 65.8879 147.514 63.8508 146.698C61.9233 145.929 60.1612 144.797 58.66 143.364C57.163 141.929 55.9744 140.204 55.1668 138.294C54.3082 136.279 53.8748 134.109 53.8935 131.919C53.8752 129.733 54.2856 127.566 55.1015 125.538C55.8736 123.621 57.0019 121.868 58.4268 120.371C59.8482 118.885 61.5614 117.708 63.4591 116.915C65.4906 116.071 67.6721 115.647 69.8718 115.67C70.8741 115.678 71.8739 115.769 72.8614 115.94C73.9451 116.127 75.0032 116.44 76.0141 116.873C78.4153 117.917 80.4916 119.588 82.0258 121.709H82.1564V116.486H86.5917V147.64C86.575 149.471 86.3607 151.294 85.9527 153.078C85.5234 155.007 84.6747 156.818 83.4669 158.381C82.0949 160.107 80.3379 161.487 78.3367 162.411C76.1602 163.483 73.2951 164.02 69.7412 164.02C66.8682 164.068 64.0142 163.544 61.3463 162.476C58.7942 161.383 56.5047 159.758 54.6304 157.71L57.9231 154.216ZM58.7253 131.793C58.7163 133.392 59.0254 134.978 59.6347 136.457C60.2151 137.875 61.0568 139.173 62.1159 140.281C63.1706 141.38 64.4239 142.269 65.8096 142.902C67.2533 143.557 68.8229 143.888 70.4082 143.872C73.5468 143.889 76.5733 142.706 78.8684 140.565C79.9957 139.503 80.8775 138.207 81.4521 136.769C82.0766 135.19 82.3626 133.498 82.2916 131.802C82.3041 130.212 82.0324 128.633 81.4895 127.138C80.9704 125.701 80.1597 124.386 79.1083 123.277C78.0569 122.168 76.7875 121.288 75.3798 120.693C73.8083 120.026 72.1151 119.694 70.4082 119.718C68.8226 119.704 67.253 120.036 65.8096 120.693C64.4241 121.324 63.1707 122.211 62.1159 123.309C61.0572 124.42 60.2157 125.718 59.6347 127.138C59.0257 128.614 58.7165 130.196 58.7253 131.793ZM104.669 147.906H99.8137V100.372H114.463C119.295 100.372 123.11 101.425 125.908 103.53C128.706 105.635 130.105 108.812 130.105 113.063C130.189 116.149 129.068 119.146 126.981 121.42C124.9 123.684 121.891 124.993 117.951 125.347L131.649 147.906H125.731L112.705 125.818H104.669V147.906ZM104.669 121.388H113.264C115.11 121.426 116.953 121.2 118.735 120.716C120.039 120.367 121.26 119.762 122.326 118.934C123.184 118.241 123.848 117.338 124.257 116.313C124.668 115.275 124.874 114.166 124.863 113.049C124.868 111.956 124.662 110.873 124.257 109.859C123.837 108.828 123.169 107.916 122.312 107.205C121.254 106.365 120.03 105.759 118.721 105.428C116.935 104.967 115.094 104.752 113.25 104.789H104.669V121.388ZM139.983 100.372H153.812C158.65 100.372 162.466 101.425 165.261 103.53C168.057 105.635 169.456 108.812 169.459 113.063C169.459 117.316 168.06 120.505 165.261 122.628C162.463 124.752 158.646 125.815 153.812 125.818H144.778V147.906H139.965L139.983 100.372ZM144.778 121.388H152.566C154.414 121.426 156.258 121.2 158.042 120.716C159.344 120.367 160.565 119.763 161.633 118.939C162.493 118.244 163.162 117.342 163.578 116.318C163.989 115.279 164.195 114.171 164.184 113.053C164.189 111.961 163.983 110.878 163.578 109.863C163.157 108.832 162.489 107.921 161.633 107.21C160.575 106.37 159.351 105.764 158.042 105.433C156.254 104.971 154.412 104.756 152.566 104.794H144.778V121.388ZM218 140.388C217.151 141.649 216.148 142.799 215.015 143.811C213.789 144.918 212.423 145.858 210.953 146.61C209.385 147.418 207.729 148.044 206.019 148.475C204.188 148.931 202.308 149.156 200.422 149.147C197.052 149.184 193.708 148.55 190.586 147.281C187.639 146.092 184.964 144.319 182.72 142.069C180.475 139.82 178.709 137.139 177.527 134.19C175.021 127.756 175.021 120.616 177.527 114.182C178.709 111.233 180.475 108.552 182.72 106.303C184.964 104.053 187.639 102.28 190.586 101.091C193.708 99.822 197.052 99.1879 200.422 99.2251C203.46 99.2395 206.467 99.8315 209.283 100.969C212.287 102.173 214.907 104.168 216.867 106.743L212.641 109.901C212.073 109.054 211.396 108.285 210.626 107.615C209.737 106.832 208.756 106.157 207.707 105.605C206.584 105.017 205.402 104.548 204.181 104.206C202.959 103.854 201.694 103.673 200.422 103.67C197.601 103.623 194.803 104.196 192.228 105.349C189.887 106.388 187.785 107.898 186.053 109.784C184.357 111.692 183.046 113.909 182.191 116.313C180.405 121.375 180.405 126.895 182.191 131.956C183.046 134.361 184.357 136.578 186.053 138.485C187.768 140.392 189.859 141.923 192.195 142.981C194.771 144.134 197.568 144.707 200.389 144.66C201.641 144.661 202.889 144.548 204.12 144.324C205.371 144.096 206.589 143.712 207.744 143.182C208.965 142.624 210.097 141.889 211.102 140.999C212.232 139.989 213.215 138.826 214.022 137.543L218 140.388Z" fill="white"/>
<mask id="mask1" style="mask-type:luminance" maskUnits="userSpaceOnUse" x="38" y="91" width="25" height="25">
<path d="M50.4266 91L38 103.518L50.518 115.945L62.9446 103.427L50.4266 91Z" fill="white"/>
</mask>
<g mask="url(#mask1)">
<path d="M38.2184 90.9888L37.9992 92.9429V90.9888H38.2184Z" fill="#75CACA"/>
<path d="M38.5122 90.9888L37.9992 95.522V92.9429L38.2184 90.9888H38.5122Z" fill="#74CBCA"/>
<path d="M38.8014 90.9888L37.9992 98.1245V95.5407L38.5122 91.0074L38.8014 90.9888Z" fill="#74CBCA"/>
<path d="M39.0952 90.9888L37.9992 100.685V98.1245L38.8014 91.0074L39.0952 90.9888Z" fill="#73CBCA"/>
<path d="M39.375 90.9888L37.9758 103.269V100.685L39.0718 90.9888H39.375Z" fill="#73CBCA"/>
<path d="M39.6782 90.9888L37.9992 105.848V103.255L39.3984 90.9748L39.6782 90.9888ZM39.9673 90.9888L37.9992 108.427V105.848L39.6782 90.9888H39.9673Z" fill="#72C9C9"/>
<path d="M40.2612 90.9888L37.9992 111.011V108.427L39.9673 90.9888H40.2612Z" fill="#70CACA"/>
<path d="M40.5503 90.9888L37.9992 113.59V111.011L40.2612 90.9888H40.5503Z" fill="#70CACA"/>
<path d="M40.844 90.9888L38.0457 115.922H38.0178V113.59L40.5689 90.9888H40.844Z" fill="#6FCAC8"/>
<path d="M41.1334 90.9888L38.3351 115.936H38.1812H38.0459L40.8442 91.0028L41.1334 90.9888Z" fill="#6EC8C8"/>
<path d="M41.4271 90.9888L38.6288 115.936H38.335L41.1333 90.9888H41.4271Z" fill="#6EC8C8"/>
<path d="M41.707 90.9888L38.9087 115.936H38.6195L41.4178 90.9888H41.707Z" fill="#6CC9C9"/>
<path d="M42.0101 90.9888L39.2118 115.936H38.9087L41.707 90.9888H42.0101Z" fill="#6DC9C8"/>
<path d="M42.2993 90.9888L39.501 115.936H39.2119L42.0102 90.9888H42.2993Z" fill="#69C7C8"/>
<path d="M42.593 90.9888L39.7947 115.936H39.5009L42.2992 90.9888H42.593Z" fill="#69C7C8"/>
<path d="M42.8869 90.9888L40.0653 115.936H39.7761L42.5744 90.9888H42.8869Z" fill="#69C8C7"/>
<path d="M43.176 90.9888L40.3777 115.936H40.0839L42.9055 90.9888H43.176Z" fill="#68C8C7"/>
<path d="M43.4698 90.9888L40.6482 115.936H40.3591L43.1574 90.9888H43.4698Z" fill="#67C7C7"/>
<path d="M43.759 90.9888L40.9607 115.936H40.6669L43.4885 90.9888H43.759Z" fill="#65C7C7"/>
<path d="M44.0388 90.9888L41.2405 115.936H40.9514L43.7497 90.9888H44.0388Z" fill="#64C7C7"/>
<path d="M44.342 90.9888L41.5437 115.936H41.2405L44.0388 90.9888H44.342Z" fill="#63C6C6"/>
<path d="M44.6358 90.9888L41.8142 115.936H41.525L44.3233 90.9888H44.6358Z" fill="#60C6C6"/>
<path d="M44.9249 90.9888L42.1266 115.936H41.8328L44.6544 90.9888H44.9249Z" fill="#60C6C5"/>
<path d="M45.2188 90.9888L42.3972 115.936H42.108L44.9063 90.9888H45.2188Z" fill="#5FC6C5"/>
<path d="M45.508 90.9888L42.7096 115.936H42.4158L45.2375 90.9888H45.508Z" fill="#5CC5C4"/>
<path d="M45.8018 90.9888L42.9802 115.936H42.691L45.4893 90.9888H45.8018Z" fill="#5AC5C4"/>
<path d="M46.091 90.9888L43.2927 115.936H42.9988L45.8205 90.9888H46.091Z" fill="#5AC5C4"/>
<path d="M46.3707 90.9888L43.5724 115.936H43.2833L46.0816 90.9888H46.3707Z" fill="#57C4C4"/>
<path d="M46.6739 90.9888L43.8756 115.936H43.5724L46.3708 90.9888H46.6739Z" fill="#58C4C3"/>
<path d="M46.9677 90.9888L44.1694 115.936H43.8756L46.6739 90.9888H46.9677Z" fill="#55C4C3"/>
<path d="M47.257 90.9888L44.4587 115.936H44.1695L46.9678 90.9888H47.257Z" fill="#53C3C2"/>
<path d="M47.5507 90.9888L44.7524 115.936H44.4586L47.2569 90.9888H47.5507Z" fill="#52C3C2"/>
<path d="M47.8398 90.9888L45.0415 115.936H44.7524L47.5507 90.9888H47.8398Z" fill="#50C3C2"/>
<path d="M48.1337 90.9888L45.3354 115.936H45.0416L47.8399 90.9888H48.1337Z" fill="#50C1C0"/>
<path d="M48.4276 90.9888L45.6293 115.936H45.3401L48.1385 90.9888H48.4276Z" fill="#4BC2C0"/>
<path d="M48.7027 90.9888L45.9044 115.936H45.6106L48.4089 90.9888H48.7027Z" fill="#4CC1C0"/>
<path d="M49.0105 90.9888L46.2122 115.936H45.9044L48.7027 90.9888H49.0105Z" fill="#47C1BE"/>
<path d="M49.2996 90.9888L46.5013 115.936H46.2075L49.0058 90.9888H49.2996Z" fill="#46C0BE"/>
<path d="M49.5935 90.9888L46.7952 115.936H46.506L49.3043 90.9888H49.5935Z" fill="#43C0BE"/>
<path d="M49.8827 90.9888L47.0844 115.936H46.7905L49.5888 90.9888H49.8827Z" fill="#40BFBD"/>
<path d="M50.1764 90.9888L47.3781 115.936H47.0889L49.8872 90.9888H50.1764Z" fill="#3BBFBD"/>
<path d="M50.4657 90.9888L47.6674 115.936H47.3735L50.1718 90.9888H50.4657Z" fill="#39BFBC"/>
<path d="M50.7595 90.9888L47.9612 115.936H47.672L50.4703 90.9888H50.7595Z" fill="#34BEBD"/>
<path d="M51.0346 90.9888L48.2363 115.936H47.9425L50.7408 90.9888H51.0346Z" fill="#32BEBB"/>
<path d="M51.3424 90.9888L48.5441 115.936H48.2363L51.0346 90.9888H51.3424Z" fill="#2DBDBB"/>
<path d="M51.6316 90.9888L48.8333 115.936H48.5395L51.3378 90.9888H51.6316Z" fill="#24BCBB"/>
<path d="M51.9254 90.9888L49.1271 115.936H48.8379L51.6362 90.9888H51.9254Z" fill="#21BCB9"/>
<path d="M52.2146 90.9888L49.4163 115.936H49.1224L51.9207 90.9888H52.2146Z" fill="#18BBB9"/>
<path d="M52.5084 90.9888L49.7101 115.936H49.4163L52.2146 90.9888H52.5084Z" fill="#0FBAB9"/>
<path d="M52.7975 90.9888L49.9992 115.936H49.7101L52.5084 90.9888H52.7975Z" fill="#03BBB8"/>
<path d="M53.0914 90.9888L50.2931 115.936H49.9993L52.7976 90.9888H53.0914Z" fill="#06B8B6"/>
<path d="M53.3665 90.9888L50.5682 115.936H50.2791L53.0774 90.9888H53.3665Z" fill="#06B8B6"/>
<path d="M53.6744 90.9888L50.8761 115.936H50.5682L53.3665 90.9888H53.6744Z" fill="#03B7B5"/>
<path d="M53.9635 90.9888L51.1652 115.936H50.876L53.6743 90.9888H53.9635Z" fill="#04B7B4"/>
<path d="M54.2573 90.9888L51.459 115.936H51.1652L53.9635 90.9888H54.2573Z" fill="#00B6B5"/>
<path d="M54.5511 90.9888L51.7528 115.936H51.4636L54.2619 90.9888H54.5511Z" fill="#03B6B4"/>
<path d="M54.8404 90.9888L52.0421 115.936H51.7482L54.5465 90.9888H54.8404Z" fill="#05B6B2"/>
<path d="M55.1342 90.9888L52.3358 115.936H52.0467L54.845 90.9888H55.1342Z" fill="#01B5B1"/>
<path d="M55.4233 90.9888L52.625 115.936H52.3312L55.1295 90.9888H55.4233Z" fill="#01B5B1"/>
<path d="M55.6985 90.9888L52.9002 115.936H52.611L55.4093 90.9888H55.6985Z" fill="#00B4B1"/>
<path d="M56.0063 90.9888L53.208 115.936H52.9001L55.6984 90.9888H56.0063Z" fill="#00B3B0"/>
<path d="M56.3 90.9888L53.5017 115.936H53.2126L56.0109 90.9888H56.3Z" fill="#00B3B0"/>
<path d="M56.5893 90.9888L53.791 115.936H53.4971L56.2954 90.9888H56.5893Z" fill="#00B2AF"/>
<path d="M56.8831 90.9888L54.0848 115.936H53.7957L56.594 90.9888H56.8831Z" fill="#00B2AE"/>
<path d="M57.1722 90.9888L54.3739 115.936H54.0801L56.8784 90.9888H57.1722Z" fill="#00B1AE"/>
<path d="M57.466 90.9888L54.6677 115.936H54.3785L57.1768 90.9888H57.466Z" fill="#00B1AD"/>
<path d="M57.7553 90.9888L54.957 115.936H54.6631L57.4614 90.9888H57.7553Z" fill="#00B0AC"/>
<path d="M58.0304 90.9888L55.2321 115.936H54.9382L57.7365 90.9888H58.0304Z" fill="#00AFAC"/>
<path d="M62.7781 90.9888H62.9413V115.917H55.232L58.0303 90.9701L62.7781 90.9888Z" fill="#00AFAC"/>
</g>
<mask id="mask2" style="mask-type:luminance" maskUnits="userSpaceOnUse" x="77" y="96" width="15" height="15">
<path d="M84.5281 96.0086L77.2404 103.35L84.5818 110.638L91.8695 103.296L84.5281 96.0086Z" fill="white"/>
</mask>
<g mask="url(#mask2)">
<path d="M91.8713 100.274L91.6708 95.9977H91.8713V100.274Z" fill="#75CACA"/>
<path d="M91.8713 104.766L91.4655 95.9977H91.6707L91.8713 100.274V104.766Z" fill="#74CBCA"/>
<path d="M91.8713 109.252L91.2557 95.9977H91.4656L91.8713 104.766V109.252Z" fill="#74CBCA"/>
<path d="M91.7266 110.633L91.0457 95.9977H91.2556L91.8712 109.252V110.652L91.7266 110.633Z" fill="#73CBCA"/>
<path d="M91.5168 110.633L90.8359 95.9977H91.0458L91.7267 110.633H91.5168ZM91.307 110.633L90.626 95.9977H90.8359L91.5168 110.633H91.307Z" fill="#72C9C9"/>
<path d="M91.097 110.633L90.4161 95.9977H90.626L91.3069 110.633H91.097Z" fill="#70CACA"/>
<path d="M90.8919 110.633L90.2109 95.9977H90.4208L91.1017 110.633H90.8919Z" fill="#6FCAC8"/>
<path d="M90.6773 110.633L89.9963 95.9977H90.2109L90.8965 110.633H90.6773Z" fill="#6EC8C8"/>
<path d="M90.4722 110.633L89.7913 95.9977H90.0011L90.6774 110.633H90.4722Z" fill="#6EC8C8"/>
<path d="M90.2623 110.633L89.5814 95.9977H89.7912L90.4722 110.633H90.2623Z" fill="#6CC9C9"/>
<path d="M90.0524 110.633L89.3715 95.9977H89.5814L90.2623 110.633H90.0524Z" fill="#6DC9C8"/>
<path d="M89.8425 110.633L89.1616 95.9977H89.3714L90.0524 110.633H89.8425Z" fill="#69C7C8"/>
<path d="M89.6327 110.633L88.9517 95.9977H89.1616L89.8425 110.633H89.6327Z" fill="#69C7C8"/>
<path d="M89.4273 110.633L88.7418 95.9977H88.9516L89.6326 110.633H89.4273Z" fill="#69C8C7"/>
<path d="M89.2175 110.633L88.5366 95.9977H88.7418L89.4274 110.633H89.2175Z" fill="#68C8C7"/>
<path d="M89.0077 110.633L88.3454 95.9977H88.5553L89.2362 110.633H89.0077Z" fill="#67C7C7"/>
<path d="M88.8117 110.633L88.1308 95.9977H88.3453L89.0262 110.633H88.8117Z" fill="#65C7C7"/>
<path d="M88.588 110.633L87.907 95.9977H88.1169L88.8118 110.633H88.588Z" fill="#64C7C7"/>
<path d="M88.3781 110.633L87.6972 95.9977H87.9071L88.588 110.633H88.3781Z" fill="#63C6C6"/>
<path d="M88.1728 110.633L87.4872 95.9977H87.6971L88.378 110.633H88.1728Z" fill="#60C6C6"/>
<path d="M87.963 110.633L87.282 95.9977H87.4873L88.1728 110.633H87.963Z" fill="#60C6C5"/>
<path d="M87.7531 110.633L87.0722 95.9977H87.2821L87.963 110.633H87.7531Z" fill="#5FC6C5"/>
<path d="M87.5432 110.633L86.8623 95.9977H87.0722L87.7531 110.633H87.5432Z" fill="#5FC6C5"/>
<path d="M87.3334 110.633L86.6525 95.9977H86.8623L87.5433 110.633H87.3334Z" fill="#5CC5C4"/>
<path d="M87.1235 110.633L86.4426 95.9977H86.6524L87.3333 110.633H87.1235Z" fill="#5AC5C4"/>
<path d="M86.9136 110.633L86.2327 95.9977H86.4426L87.1235 110.633H86.9136Z" fill="#5AC5C4"/>
<path d="M86.7083 110.633L86.0134 95.9977H86.2233L86.9042 110.633H86.7083Z" fill="#57C4C4"/>
<path d="M86.4799 110.633L85.799 95.9977H86.0135L86.6991 110.633H86.4799Z" fill="#58C4C3"/>
<path d="M86.2888 110.633L85.6078 95.9977H85.8177L86.48 110.633H86.2888Z" fill="#55C4C3"/>
<path d="M86.0788 110.633L85.3979 95.9977H85.6078L86.2887 110.633H86.0788ZM85.869 110.633L85.188 95.9977H85.3979L86.0788 110.633H85.869Z" fill="#53C3C2"/>
<path d="M85.6591 110.633L84.9781 95.9977H85.188L85.8689 110.633H85.6591Z" fill="#52C3C2"/>
<path d="M85.4539 110.633L84.7683 95.9977H84.9782L85.6591 110.633H85.4539Z" fill="#50C3C2"/>
<path d="M85.244 110.633L84.563 95.9977H84.7682L85.4538 110.633H85.244Z" fill="#50C1C0"/>
<path d="M85.0341 110.633L84.3531 95.9977H84.563L85.2439 110.633H85.0341Z" fill="#4DC2C1"/>
<path d="M84.8242 110.633L84.1479 95.9977H84.3578L85.0387 110.633H84.8242Z" fill="#4CC2C0"/>
<path d="M84.6143 110.633L83.9334 95.9977H84.1479L84.8289 110.633H84.6143Z" fill="#4BC0BF"/>
<path d="M84.4045 110.633L83.7236 95.9977H83.9335L84.6144 110.633H84.4045Z" fill="#47C1BE"/>
<path d="M84.1946 110.633L83.5137 95.9977H83.7236L84.4045 110.633H84.1946Z" fill="#46C0BE"/>
<path d="M83.9894 110.633L83.3038 95.9977H83.5137L84.1946 110.633H83.9894Z" fill="#43C0BE"/>
<path d="M83.7795 110.633L83.0986 95.9977H83.3038L83.9894 110.633H83.7795Z" fill="#41C0BE"/>
<path d="M83.5697 110.633L82.8887 95.9977H83.0986L83.7795 110.633H83.5697Z" fill="#40BFBD"/>
<path d="M83.3597 110.633L82.6788 95.9977H82.8887L83.5696 110.633H83.3597Z" fill="#3BBFBD"/>
<path d="M83.1498 110.633L82.4689 95.9977H82.6788L83.3597 110.633H83.1498Z" fill="#3CBFBC"/>
<path d="M82.94 110.633L82.2823 95.9977H82.4922L83.1731 110.633H82.94Z" fill="#39BFBC"/>
<path d="M82.7488 110.633L82.0679 95.9977H82.2824L82.9633 110.633H82.7488Z" fill="#34BEBD"/>
<path d="M82.525 110.633L81.8441 95.9977H82.0493L82.7488 110.633H82.525Z" fill="#32BEBB"/>
<path d="M82.3151 110.633L81.6342 95.9977H81.844L82.5249 110.633H82.3151Z" fill="#2FBEBC"/>
<path d="M82.1052 110.633L81.4243 95.9977H81.6342L82.3151 110.633H82.1052Z" fill="#2DBDBB"/>
<path d="M81.8953 110.633L81.2144 95.9977H81.4243L82.1052 110.633H81.8953Z" fill="#2BBDBA"/>
<path d="M81.6854 110.633L81.0045 95.9977H81.2144L81.8953 110.633H81.6854Z" fill="#24BCBB"/>
<path d="M81.4756 110.633L80.7947 95.9977H81.0045L81.6855 110.633H81.4756Z" fill="#21BCB9"/>
<path d="M81.2705 110.633L80.5849 95.9977H80.7948L81.4757 110.633H81.2705Z" fill="#18BBB9"/>
<path d="M81.0604 110.633L80.3795 95.9977H80.5847L81.2703 110.633H81.0604Z" fill="#16BAB9"/>
<path d="M80.8507 110.633L80.1697 95.9977H80.3796L81.0605 110.633H80.8507Z" fill="#11BAB7"/>
<path d="M80.6407 110.633L79.9504 95.9977H80.1603L80.8412 110.633H80.6407Z" fill="#03BBB8"/>
<path d="M80.4168 110.633L79.7359 95.9977H79.9504L80.6314 110.633H80.4168Z" fill="#06B8B6"/>
<path d="M80.221 110.633L79.5401 95.9977H79.75L80.4169 110.633H80.221Z" fill="#06B8B6"/>
<path d="M80.0111 110.633L79.3302 95.9977H79.5401L80.221 110.633H80.0111Z" fill="#06B8B6"/>
<path d="M79.8059 110.633L79.125 95.9977H79.3302L80.0111 110.633H79.8059Z" fill="#00B7B6"/>
<path d="M79.5961 110.633L78.9152 95.9977H79.125L79.806 110.633H79.5961Z" fill="#03B7B5"/>
<path d="M79.3862 110.633L78.7053 95.9977H78.9151L79.5961 110.633H79.3862Z" fill="#04B7B4"/>
<path d="M79.1763 110.633L78.4954 95.9977H78.7053L79.3862 110.633H79.1763Z" fill="#00B6B5"/>
<path d="M78.9664 110.633L78.2855 95.9977H78.4953L79.1763 110.633H78.9664Z" fill="#00B6B5"/>
<path d="M78.7565 110.633L78.0849 95.9977H78.2948L78.9757 110.633H78.7565Z" fill="#00B6B5"/>
<path d="M78.5514 110.633L77.8658 95.9977H78.085L78.7659 110.633H78.5514ZM78.3415 110.633L77.6606 95.9977H77.8658L78.5514 110.633H78.3415Z" fill="#03B6B4"/>
<path d="M78.1315 110.633L77.4506 95.9977H77.6605L78.3414 110.633H78.1315Z" fill="#05B6B2"/>
<path d="M77.9217 110.633L77.2408 95.9977H77.4507L78.1316 110.633H77.9217Z" fill="#01B5B1"/>
<path d="M77.7118 110.633L77.2454 100.47V95.9977L77.9264 110.633H77.7118ZM77.502 110.633L77.2408 104.962V100.456L77.7072 110.619L77.502 110.633Z" fill="#01B5B1"/>
<path d="M77.2921 110.633L77.2408 109.453V104.962L77.502 110.633H77.2921Z" fill="#00B4B1"/>
<path d="M77.2408 109.453L77.2921 110.633H77.2408V109.453Z" fill="#00B4B1"/>
</g>
<path d="M50.974 95.9231L43.4465 103.502L51.0346 111.029H57.4474L50.7221 104.355L83.9333 104.234L81.0231 107.163H84.2271L87.9908 103.376L84.1991 99.6122H80.9951L83.924 102.522L50.7175 102.648L57.3914 95.9231H50.974Z" fill="white"/>
</svg>