<svg width="256" height="256" title="Grunt.js" viewBox="0 0 256 256" fill="none" xmlns="http://www.w3.org/2000/svg" id="gruntjs">
<style>
#gruntjs {
    rect {fill: #15191C}

    @media (prefers-color-scheme: light) {
        rect {fill: #F4F2ED}
    }
}
</style>
<rect width="256" height="256" rx="40" fill="#15191C"/>
<path d="M73.0712 84.9602C73.0712 84.9602 75.9575 96.0919 76.3693 99.8031C76.7819 103.513 68.9484 111.759 68.9484 115.882C68.9484 120.005 70.595 127.426 79.6667 131.137C88.7384 134.848 89.9739 144.33 89.9739 150.104C89.9739 155.875 86.676 167.006 86.676 167.006C86.676 167.006 84.6155 194.629 95.7462 199.577C106.877 204.523 104.404 204.523 106.877 204.523C109.35 204.523 127.491 211.947 138.21 209.06C148.93 206.174 151.814 202.876 151.814 202.876C151.814 202.876 162.534 203.7 165.832 194.216C169.132 184.734 171.192 164.945 169.955 155.874C168.718 146.803 167.07 134.849 174.489 130.725C181.913 126.602 189.745 121.656 188.508 117.532C187.271 113.409 180.676 107.637 180.676 107.637C180.676 107.637 179.027 97.3305 180.263 94.8563C181.499 92.3827 188.921 86.1968 184.797 81.6627C180.677 77.1282 173.253 77.1282 173.253 77.1282L163.771 77.9516C163.771 77.9516 147.693 63.5224 126.666 64.3468C105.64 65.1711 92.4462 77.9516 92.4462 77.9516C92.4462 77.9516 85.4379 75.478 79.253 77.9516C73.0682 80.4261 71.8352 77.9511 73.0712 84.9602Z" fill="#FBA919"/>
<path d="M110.744 146.345C110.744 146.345 102.579 158.829 96.5902 167.688C95.6635 169.059 102.579 169.154 102.579 169.154L110.744 146.345ZM114.631 120.463C114.631 120.463 112.169 126.603 110.821 129.858C109.358 133.396 103.778 135.157 103.778 135.157C103.778 135.157 106.67 132.123 106.67 124.438C106.67 121.214 110.833 119.932 110.833 119.932L114.631 120.463Z" fill="#E78724"/>
<path d="M112.145 123.934C112.145 123.934 107.102 129.937 97.7404 126.575C88.3759 123.214 87.4159 111.208 87.4159 107.847C87.4159 104.486 105.183 111.208 107.585 112.649C109.986 114.09 114.546 119.851 112.145 123.934ZM76.7786 59.7963C76.7786 59.7963 85.4219 58.1142 91.1833 62.6768C96.9476 67.2383 98.6262 70.8405 98.6262 70.8405L88.914 78.539C88.914 78.539 84.2211 76.3636 82.7807 70.1202C81.3403 63.8775 82.3008 60.997 76.7786 59.7963Z" fill="#E78724"/>
<path d="M109.624 106.597C105.903 101.314 99.7698 99.0103 94.8731 98.6284C86.5242 97.9755 82.5604 100.927 82.5604 100.927C82.5604 100.927 96.234 101.506 100.175 106.682C107.512 116.316 118.216 117.099 119.927 114.983C117.948 115.082 115.771 114.101 113.44 111.898C111.985 110.519 110.805 108.273 109.624 106.597ZM86.5408 125.275C86.5408 125.275 71.3698 120.059 74.2532 114.778C77.1337 109.495 74.8408 106.617 74.8408 106.617C74.8408 106.617 66.3696 112.941 68.5278 119.663C69.8548 123.789 72.0803 126.777 84.3016 132.504C90.1636 143.393 85.5122 162.991 85.7907 163.083C86.2549 163.237 94.0212 159.245 93.4911 140.909C93.329 135.279 92.879 127.592 86.5408 125.275ZM106.421 69.1915C100.06 72.4231 91.3452 76.9238 91.3452 76.9238L94.7753 78.6399C94.4477 79.1701 94.29 79.4863 94.29 79.4863L97.8106 81.087C97.8106 81.087 106.405 87.3126 111.67 91.3156C109.914 85.9086 104.761 77.4155 104.761 77.4155C104.761 77.4155 103.301 73.5138 106.421 69.1915ZM127.555 200.928C108.001 200.928 101.379 191.002 101.379 191.002L104.435 198.443C105.589 201.662 117.911 211.679 127.525 211.679" fill="#E78724"/>
<path d="M103.521 184.294C103.521 184.294 105.32 195.288 112.524 195.288C118.645 195.288 120.448 186.002 120.448 184.082L103.521 184.294ZM91.5345 167.713C92.1746 165.952 94.4153 158.829 95.1351 152.347C95.9978 144.583 95.6834 133.228 95.6834 133.228C95.6834 133.228 93.7615 140.671 92.0808 141.874C90.401 143.074 87.2789 151.237 87.2789 151.237C87.2789 151.237 85.6066 163.389 84.8107 167.474C87.0137 167.914 88.8678 166.617 91.5345 167.713ZM74.1398 119.543C74.1398 119.543 78.2204 118.102 79.4222 109.219C80.6224 100.335 77.9807 92.6518 77.9807 92.6518C77.9807 92.6518 78.2204 104.897 76.7805 107.299C75.3391 109.699 74.1398 110.419 72.4582 113.541C70.7765 116.664 73.178 118.583 74.1398 119.543Z" fill="#E78724"/>
<path d="M79.0126 61.8978L78.1793 61.3701C75.7229 61.4531 79.0126 61.8978 79.0126 61.8978Z" fill="#FDC168"/>
<path d="M109.743 66.5609C109.743 66.5609 105.903 65.9213 103.981 63.0404C102.059 60.159 96.6178 54.3957 87.9431 54.3318C79.269 54.267 70.6871 56.6374 70.6871 56.6374L78.1783 61.3711C78.9708 61.345 80.3561 61.3559 82.6471 61.4324C92.0489 61.7448 93.4962 71.044 93.4962 71.044L126.63 66.4813" fill="#FBA919"/>
<path d="M112.945 117.924C112.945 117.924 108.463 122.406 101.579 120.964C94.6953 119.524 90.5327 116.483 90.2129 111.2C89.8931 105.918 91.6548 103.837 91.6548 103.837C91.6548 103.837 99.3371 106.24 103.021 109.441C106.702 112.642 109.424 117.764 112.945 117.924Z" fill="white"/>
<path d="M107.521 116.323C107.521 116.323 103.633 118.098 99.288 116.652C93.6003 114.754 93.2215 108.839 93.2215 108.839C93.2215 108.839 89.7319 119.079 99.5149 121.05C107.361 122.631 112.002 118.084 112.002 118.084L107.521 116.323Z" fill="#C9C9C9"/>
<path d="M110.283 64.3885C109.865 55.6072 117.064 48.6132 119.559 48.315C119.696 49.8031 119.419 55.6077 121.913 57.3925C122.639 52.6516 125.094 47.4243 134.789 44C132.712 49.5069 134.511 54.1196 135.368 56.2577C141.988 50.2492 146.448 51.2416 146.448 51.2416C146.448 51.2416 141.848 59.1789 143.648 64.387C130.359 63.345 110.348 65.7986 110.283 64.3885ZM82.1096 77.7653C78.9383 75.1344 81.3019 72.6933 81.0513 69.7042C80.9153 68.114 80.7895 66.6135 80.2653 65.7857C77.347 61.1784 70.4637 59.7802 70.3949 59.7655L67.1641 59.1327L69.3027 56.631C69.5797 56.3068 78.362 47.9269 91.9536 52.3151C101.461 55.3812 108.499 65.7788 108.761 66.1989L103.994 68.4406C103.938 68.3522 98.3738 58.5785 90.2173 55.9486C83.6242 53.8214 77.547 55.8455 74.9447 57.172C77.7117 58.2764 81.3289 60.2882 83.5088 63.7296C84.5371 65.3553 84.711 67.4016 84.8785 69.3835C85.0996 72.0069 85.3059 74.4834 87.2367 76.0875L82.1096 77.7653ZM73.6407 116.167C73.6407 116.167 77.6354 111.213 78.8189 101.574C79.2838 97.7766 78.4578 90.2879 77.1367 87.4068C77.377 94.4898 75.5765 101.574 75.5765 101.574C75.5765 101.574 74.3625 114.726 73.6407 116.167Z" fill="#463014"/>
<path d="M94.706 72.7621C94.7036 72.7518 93.4238 67.1589 89.8757 64.3355C84.8704 60.354 78.7593 62.4719 78.7004 62.4907L77.8131 59.7492C78.1088 59.6534 85.0941 57.4524 91.5313 61.9776C98.0075 66.5285 98.7847 70.6539 98.852 71.1093L94.706 72.7621ZM86.1876 112.614C86.1876 112.614 84.0918 109.614 84.4686 106.314C84.6562 104.684 85.4119 103.012 86.7595 102.418C89.2651 101.318 90.3754 104.157 90.3754 104.157C90.3754 104.157 86.8494 105.027 86.1876 112.614Z" fill="#463014"/>
<path d="M109.2 117.187C109.288 117.35 109.333 117.442 109.333 117.442C109.333 117.442 102.795 122.348 96.096 117.37C92.5097 114.702 92.8486 108.104 93.9471 105.307C96.8044 105.954 99.2275 107.121 101.253 108.484C98.693 106.199 96.4526 104.517 96.4586 104.479L93.5491 103.655L87.8944 101.716C87.8222 102.147 85.7598 111.815 91.7133 118.402C94.3514 121.323 106.722 127.865 112.596 116.68L109.2 117.187Z" fill="#463014"/>
<path d="M108.588 117.906C112.268 123.508 121.555 120.306 121.395 114.384C121.395 114.384 115.19 117.809 109.708 111.504C106.507 107.823 96.2512 97.6733 82.343 101.046C91.9476 103.158 104.664 111.933 108.588 117.906Z" fill="#463014"/>
<path d="M81.044 133.716C81.9292 134.227 85.0519 137.461 85.0539 142.297C85.0539 144.723 84.8127 156.907 83.6119 164.351C85.4175 165.524 86.6752 165.773 88.4732 166.969C89.3733 158.348 90.0189 145.854 89.7182 140.81C89.3744 135.06 86.2954 131.202 83.4405 129.557C82.5463 129.042 81.6125 128.536 80.6715 128.028C75.7817 125.386 70.7249 122.652 70.7249 117.986C70.7249 114.334 72.1447 113.193 73.6472 111.982L73.8093 111.851C74.8065 111.045 75.9346 110.131 76.6033 108.632C78.4273 104.53 78.7257 94.0819 76.6033 91.4299C75.5451 90.1083 72.7102 85.6641 73.5253 82.6776C73.8358 81.5379 74.5536 80.6928 75.7224 80.0944C76.959 79.4607 78.6298 79.1398 80.6863 79.1398C84.7258 79.1398 89.2063 80.3696 91.5179 81.1016C99.7778 83.7196 109.745 91.2678 112.602 93.5188C112.684 93.5817 112.732 93.6186 112.741 93.6245L114.569 94.8961L113.426 92.983C113.355 92.8635 106.114 80.9567 93.1661 76.5911C90.6473 75.7417 85.6985 74.3164 80.8347 74.3164C77.9396 74.3164 75.4822 74.8224 73.5371 75.8182C71.1656 77.0313 69.5602 78.9664 68.893 81.413C67.2579 87.4102 72.5831 94.0873 72.7643 94.301C73.3853 95.4095 73.6485 103.46 72.214 106.682C72.0176 107.127 71.4761 107.564 70.7918 108.117C70.5772 108.29 70.3373 108.47 70.0834 108.663C68.0597 110.19 65 112.498 65 117.817C65 125.095 72.3761 129.041 78.3041 132.214C79.2768 132.737 80.2048 133.232 81.044 133.716Z" fill="#463014"/>
<path d="M82.1096 77.7653C78.9383 75.1344 81.3019 72.6933 81.0513 69.7042C80.9153 68.114 80.7895 66.6135 80.2653 65.7857C77.347 61.1784 70.4637 59.7802 70.3949 59.7655L67.1641 59.1327L69.3027 56.631C69.5797 56.3068 78.362 47.9269 91.9536 52.3151C101.461 55.3812 108.499 65.7788 108.761 66.1989L103.994 68.4406C103.938 68.3522 98.3738 58.5785 90.2173 55.9486C83.6242 53.8214 77.547 55.8455 74.9447 57.172C77.7117 58.2764 81.3289 60.2882 83.5088 63.7296C84.5371 65.3553 84.711 67.4016 84.8785 69.3835C85.0996 72.0069 85.3059 74.4834 87.2367 76.0875L82.1096 77.7653Z" fill="#463014"/>
<path d="M82.0064 78.3044L81.8016 78.1343C79.4503 76.1829 79.8673 74.261 80.2712 72.401C80.4549 71.5427 80.6485 70.6554 80.5699 69.7451C80.4417 68.2147 80.3183 66.7707 79.8575 66.0421C77.0793 61.6551 70.3644 60.2499 70.298 60.2362L66.2635 59.4447L68.9382 56.3176C68.9872 56.2587 74.6262 50.5666 84.1765 50.5666C86.7803 50.5666 89.4475 50.9999 92.101 51.8572C102.024 55.0565 109.102 65.8374 109.169 65.9439L109.456 66.4019L103.817 69.0539L103.591 68.6951C102.983 67.6606 97.6367 58.8429 90.073 56.4031C88.2153 55.8038 86.2581 55.5006 84.2574 55.5006C80.6338 55.5006 77.6954 56.4881 76.1316 57.1514C78.7447 58.328 81.9141 60.3084 83.9185 63.4708C85.0092 65.1932 85.186 67.2985 85.3589 69.3328C85.5713 71.8621 85.7716 74.2409 87.5462 75.7138L88.2158 76.2689L82.0064 78.3044Z" fill="#463014"/>
<path d="M94.706 72.7621C94.7036 72.7518 93.4238 67.1589 89.8757 64.3355C84.8704 60.354 78.7593 62.4719 78.7004 62.4907L77.8131 59.7492C78.1088 59.6534 85.0941 57.4524 91.5313 61.9776C98.0075 66.5285 98.7847 70.6539 98.852 71.1093L94.706 72.7621Z" fill="#463014"/>
<path d="M94.362 73.4159L94.2372 72.8657C94.2244 72.8116 92.9692 67.4104 89.5758 64.7123C87.6416 63.1726 85.3094 62.3904 82.6476 62.3904C80.57 62.3904 79.0258 62.8866 78.8574 62.9451L78.399 63.0974L77.2086 59.4407L77.665 59.2933C77.8694 59.228 79.7235 58.6497 82.346 58.6497C85.8057 58.6497 89.0766 59.6652 91.8092 61.5843C98.448 66.2491 99.2587 70.5629 99.3273 71.0391L99.3858 71.4154L94.362 73.4159ZM82.6481 61.4319C85.4918 61.4319 88.0966 62.3064 90.1747 63.9592C93.1878 66.3591 94.6052 70.5954 95.0336 72.1144L98.2997 70.8126C98.0039 69.6596 96.7019 66.1989 91.2566 62.3708C88.6513 60.5397 85.6544 59.6122 82.3465 59.6122C80.5312 59.6122 79.1211 59.901 78.4245 60.0769L79.0136 61.8977C79.6964 61.7139 81.0112 61.4319 82.6481 61.4319ZM112.223 192.651C110.804 192.651 109.356 192.136 108.353 191.268C107.585 190.606 104.986 188.219 103.841 185.296C103.414 184.203 103.509 183.329 104.13 182.699C104.557 182.268 105.445 181.753 107.246 181.753L108.528 181.751C110.056 181.749 112.627 181.749 114.825 181.749H116.933C118.303 181.749 119.286 182.045 119.85 182.623C120.576 183.368 120.344 184.317 120.14 184.816C119.788 185.69 118.326 188.535 115.852 191.18C114.966 192.129 113.677 192.651 112.223 192.651ZM113.71 118.235L108.588 117.906C108.588 117.906 109.897 120.214 110.746 123.199C111.704 126.576 109.87 131.511 109.87 131.511C109.87 131.511 116.699 123.778 113.71 118.235ZM107.316 206.176C89.0845 204.775 82.6703 187.548 82.6703 183.96L87.4313 183.962L85.0511 183.96H87.4313C87.4554 185.511 92.2999 200.248 107.68 201.431L107.316 206.176Z" fill="#463014"/>
<path d="M102.193 175.312C101.908 173.665 101.878 172.104 102.225 170.569C100.84 169.528 98.354 169.141 96.4886 168.536C94.9633 167.571 87.1571 169.526 81.4946 162.672C74.3989 154.09 75.8919 148.967 75.8919 148.967C74.0726 150.988 72.3093 150.218 69.5366 159.643C66.7594 169.069 70.84 175.641 78.4452 182.238C82.0379 185.355 87.1169 186.639 91.4859 187.13C90.0223 185.661 93.9855 185.514 96.7171 184.492C96.4994 182.286 96.8646 180.145 98.5089 178.421C99.5003 177.382 100.776 176.76 102.1 176.265C102.174 176.094 102.236 175.936 102.306 175.772C102.26 175.621 102.222 175.467 102.193 175.312Z" fill="white"/>
<path d="M96.6808 184.434C96.5226 183.971 96.4032 183.5 96.2862 183.025C96.1601 182.506 95.5313 181.036 96.306 182.715C96.107 182.285 95.9767 181.842 95.881 181.396C83.5644 181.38 72.8494 172.924 74.9197 155.145C73.3072 153.005 71.0492 159.462 71.0492 159.462C71.0492 159.462 64.8831 177.365 80.8077 184.304C86.1137 186.618 90.8031 188.277 91.9095 187.608C94.2141 188.076 96.2942 186.469 97.0743 185.413C96.9284 185.089 96.7947 184.763 96.6808 184.434Z" fill="#C9C9C9"/>
<path d="M101.97 172.734C101.99 171.234 102.296 169.78 103.022 168.332C103.072 168.232 103.131 168.136 103.185 168.039C98.4459 167.998 92.9877 167.545 88.3396 165.684C83.2307 163.641 76.84 156.65 75.742 148.435C75.742 148.435 66.1206 155.86 68.9474 171.751C71.6014 186.673 84.0885 191.538 98.3296 192.361C98.3373 192.265 96.7279 188.941 97.2364 186.905C89.1497 187.493 80.1071 184.369 75.742 177.186C71.7453 170.612 72.8666 159.387 74.5088 157.743C78.5154 170.385 92.9318 172.954 101.97 172.734Z" fill="#463014"/>
<path d="M103.462 163.684C100.9 171.204 95.6658 177.291 95.6658 177.291C95.6658 177.291 102.866 176.963 103.264 175.689C103.558 174.75 109.765 160.219 112.148 143.195C109.907 146.877 103.682 163.04 103.462 163.684Z" fill="#463014"/>
<path d="M144.258 146.345C144.258 146.345 152.42 158.829 158.411 167.688C159.338 169.059 152.42 169.154 152.42 169.154L144.258 146.345ZM140.37 120.463C140.37 120.463 142.831 126.603 144.177 129.858C145.641 133.396 151.22 135.157 151.22 135.157C151.22 135.157 148.328 132.123 148.328 124.438C148.328 121.214 144.166 119.932 144.166 119.932L140.37 120.463Z" fill="#E78724"/>
<path d="M142.856 123.934C142.856 123.934 147.898 129.937 157.263 126.575C166.628 123.213 167.587 111.208 167.587 107.847C167.587 104.486 149.82 111.208 147.418 112.649C145.016 114.09 140.455 119.851 142.856 123.934ZM178.223 59.7963C178.223 59.7963 169.579 58.1142 163.815 62.6768C158.054 67.2383 156.373 70.8405 156.373 70.8405L166.085 78.539C166.085 78.539 170.78 76.3626 172.22 70.1197C173.66 63.8775 172.7 60.9965 178.223 59.7963Z" fill="#E78724"/>
<path d="M145.377 106.597C149.098 101.314 155.229 99.0101 160.128 98.6284C168.477 97.9756 172.439 100.927 172.439 100.927C172.439 100.927 158.766 101.506 154.823 106.682C147.486 116.316 136.786 117.099 135.075 114.983C137.053 115.082 139.232 114.101 141.561 111.898C143.016 110.519 144.197 108.273 145.377 106.597ZM168.46 125.274C168.46 125.274 183.63 120.059 180.748 114.778C177.868 109.495 180.159 106.617 180.159 106.617C180.159 106.617 188.632 112.941 186.472 119.663C185.145 123.789 182.919 126.776 170.698 132.504C164.836 143.392 169.487 162.991 169.21 163.083C168.745 163.237 160.98 159.244 161.51 140.908C161.671 135.278 162.122 127.591 168.46 125.274ZM148.58 69.1913C154.939 72.4231 163.656 76.9238 163.656 76.9238L160.227 78.6398C160.554 79.1699 160.712 79.4864 160.712 79.4864L157.191 81.0869C157.191 81.0869 148.597 87.3125 143.331 91.3155C145.085 85.9089 150.239 77.416 150.239 77.416C150.239 77.416 151.702 73.5138 148.58 69.1913ZM127.447 200.928C146.997 200.928 153.62 191.002 153.62 191.002L150.566 198.443C149.412 201.662 137.089 211.679 127.477 211.679" fill="#E78724"/>
<path d="M151.48 184.294C151.48 184.294 149.679 195.288 142.477 195.288C136.358 195.288 134.553 186.002 134.553 184.082L151.48 184.294ZM163.467 167.713C162.827 165.952 160.586 158.829 159.864 152.347C159.001 144.583 159.318 133.228 159.318 133.228C159.318 133.228 161.239 140.671 162.918 141.874C164.6 143.074 167.72 151.237 167.72 151.237C167.72 151.237 169.392 163.389 170.188 167.474C167.986 167.914 166.134 166.617 163.467 167.713ZM180.863 119.543C180.863 119.543 176.78 118.102 175.58 109.219C174.38 100.335 177.021 92.6518 177.021 92.6518C177.021 92.6518 176.78 104.897 178.221 107.299C179.663 109.7 180.863 110.419 182.544 113.541C184.223 116.663 181.822 118.583 180.863 119.543Z" fill="#E78724"/>
<path d="M175.988 61.8978L176.823 61.3701C179.28 61.4531 175.988 61.8978 175.988 61.8978Z" fill="#FDC168"/>
<path d="M145.256 66.5611C145.256 66.5611 149.099 65.9214 151.019 63.0406C152.94 60.1591 158.383 54.3958 167.058 54.3314C175.732 54.2666 184.314 56.637 184.314 56.637L176.823 61.3706C176.03 61.3445 174.645 61.3553 172.352 61.4319C162.952 61.7445 161.504 71.0435 161.504 71.0435L128.372 66.481" fill="#FBA919"/>
<path d="M142.056 117.924C142.056 117.924 146.538 122.406 153.421 120.964C160.305 119.524 164.467 116.483 164.787 111.2C165.107 105.918 163.347 103.837 163.347 103.837C163.347 103.837 155.662 106.24 151.981 109.441C148.299 112.643 145.578 117.764 142.056 117.924Z" fill="white"/>
<path d="M147.479 116.323C147.479 116.323 151.368 118.098 155.712 116.652C161.401 114.754 161.78 108.839 161.78 108.839C161.78 108.839 165.267 119.079 155.484 121.05C147.639 122.631 142.998 118.084 142.998 118.084L147.479 116.323Z" fill="#C9C9C9"/>
<path d="M172.891 77.7653C176.062 75.1344 173.7 72.6933 173.951 69.7042C174.085 68.114 174.211 66.6135 174.735 65.7857C177.653 61.1784 184.537 59.7802 184.608 59.7655L187.839 59.1327L185.7 56.631C185.423 56.3068 176.64 47.9269 163.046 52.3151C153.541 55.3812 146.503 65.7788 146.241 66.1989L151.007 68.4406C151.064 68.3522 156.629 58.5785 164.786 55.9486C171.379 53.8214 177.455 55.8455 180.056 57.172C177.291 58.2764 173.672 60.2882 171.492 63.7296C170.464 65.3553 170.292 67.4016 170.125 69.3835C169.903 72.0069 169.695 74.4835 167.764 76.0875L172.891 77.7653ZM181.358 116.167C181.358 116.167 177.366 111.213 176.182 101.574C175.717 97.7764 176.542 90.2877 177.862 87.4068C177.622 94.4898 179.425 101.574 179.425 101.574C179.425 101.574 180.638 114.726 181.358 116.167Z" fill="#463014"/>
<path d="M160.295 72.7621C160.297 72.7518 161.577 67.1589 165.126 64.3355C170.13 60.354 176.242 62.4719 176.299 62.4907L177.189 59.7492C176.892 59.6534 169.908 57.4524 163.468 61.9776C156.992 66.5285 156.217 70.6539 156.148 71.1093L160.295 72.7621ZM168.813 112.614C168.813 112.614 170.909 109.614 170.53 106.314C170.345 104.684 169.589 103.012 168.241 102.418C165.736 101.318 164.625 104.157 164.625 104.157C164.625 104.157 168.151 105.027 168.813 112.614Z" fill="#463014"/>
<path d="M145.801 117.187C145.714 117.351 145.669 117.442 145.669 117.442C145.669 117.442 152.203 122.348 158.903 117.37C162.491 114.702 162.152 108.104 161.052 105.307C158.196 105.954 155.774 107.121 153.747 108.484C156.307 106.199 158.548 104.517 158.54 104.479L161.451 103.655L167.105 101.717C167.178 102.148 169.24 111.816 163.284 118.404C160.646 121.324 148.276 127.866 142.404 116.681L145.801 117.187Z" fill="#463014"/>
<path d="M146.411 117.906C142.731 123.508 133.447 120.306 133.608 114.384C133.608 114.384 139.81 117.809 145.293 111.504C148.493 107.823 158.751 97.6733 172.659 101.046C163.054 103.158 150.338 111.933 146.411 117.906Z" fill="#463014"/>
<path d="M173.959 133.716C173.073 134.227 169.948 137.461 169.948 142.297C169.947 144.723 170.188 156.907 171.39 164.351C169.584 165.524 168.327 165.773 166.529 166.969C165.629 158.348 164.981 145.854 165.284 140.81C165.628 135.06 168.705 131.202 171.559 129.557C172.454 129.042 173.388 128.536 174.331 128.028C179.221 125.386 184.277 122.652 184.277 117.986C184.277 114.334 182.857 113.193 181.354 111.982L181.194 111.851C180.197 111.045 179.066 110.131 178.4 108.632C176.575 104.53 176.276 94.0819 178.398 91.4299C179.456 90.1083 182.293 85.6641 181.478 82.6776C181.165 81.5379 180.447 80.6928 179.279 80.0944C178.042 79.4607 176.374 79.1398 174.315 79.1398C170.278 79.1398 165.795 80.3696 163.485 81.1016C155.225 83.7196 145.258 91.2678 142.399 93.5188C142.317 93.5817 142.27 93.6186 142.261 93.6245L140.432 94.8961L141.575 92.983C141.648 92.8635 148.887 80.9567 161.835 76.5911C164.354 75.7417 169.302 74.3164 174.166 74.3164C177.062 74.3164 179.516 74.8224 181.464 75.8182C183.836 77.0313 185.44 78.9664 186.108 81.413C187.743 87.4102 182.418 94.0873 182.236 94.301C181.616 95.4095 181.353 103.46 182.785 106.682C182.982 107.127 183.523 107.564 184.21 108.117C184.424 108.29 184.662 108.47 184.918 108.663C186.942 110.19 190 112.498 190 117.817C190 125.095 182.624 129.041 176.698 132.214C175.725 132.737 174.795 133.232 173.959 133.716Z" fill="#463014"/>
<path d="M165.159 76.9091C163.986 74.9218 160.986 71.0848 154.071 67.7132C146.353 63.9519 137.421 62.0427 127.519 62.0383V62.0358H127.481C117.578 62.0407 108.644 63.9514 100.929 67.7122C94.0135 71.0844 91.0147 74.9208 89.8405 76.9081L89.3364 77.5748L95.2584 78.8928L95.4462 78.6557L95.5454 78.4384C95.6367 78.0469 96.4307 75.9339 103.033 72.7144C110.091 69.2719 118.323 67.5264 127.499 67.5235C136.676 67.5264 144.905 69.2719 151.963 72.7144C158.565 75.9339 159.362 78.0469 159.452 78.4379L159.551 78.6557L159.737 78.8928L165.66 77.5748L165.159 76.9091Z" fill="#463014"/>
<path d="M172.891 77.7653C176.062 75.1344 173.7 72.6933 173.951 69.7042C174.085 68.114 174.211 66.6135 174.735 65.7857C177.653 61.1784 184.537 59.7802 184.608 59.7655L187.839 59.1327L185.7 56.631C185.423 56.3068 176.64 47.9269 163.046 52.3151C153.541 55.3812 146.503 65.7788 146.241 66.1989L151.007 68.4406C151.064 68.3522 156.629 58.5785 164.786 55.9486C171.379 53.8214 177.455 55.8455 180.056 57.172C177.291 58.2764 173.672 60.2882 171.492 63.7296C170.464 65.3553 170.292 67.4016 170.125 69.3835C169.903 72.0069 169.695 74.4834 167.764 76.0875L172.891 77.7653Z" fill="#463014"/>
<path d="M166.788 76.2714L167.455 75.7158C169.231 74.2429 169.43 71.8641 169.645 69.3348C169.817 67.3 169.994 65.1942 171.084 63.4728C173.088 60.3113 176.259 58.3305 178.871 57.1524C177.308 56.4901 174.369 55.5026 170.744 55.5026C168.743 55.5026 166.79 55.8052 164.931 56.4051C157.365 58.8449 152.019 67.6625 151.414 68.6972L151.187 69.0557L145.548 66.4039L145.835 65.946C145.901 65.8393 152.978 55.059 162.901 51.8592C165.555 51.0019 168.222 50.5691 170.828 50.5691C180.378 50.5691 186.017 56.2626 186.065 56.3201L188.74 59.4472L184.704 60.2382C184.638 60.2519 177.923 61.6564 175.143 66.0447C174.682 66.7738 174.561 68.2162 174.431 69.7475C174.354 70.6584 174.546 71.5456 174.732 72.4035C175.135 74.2635 175.552 76.1874 173.2 78.1369L172.995 78.3068L166.788 76.2714Z" fill="#463014"/>
<path d="M160.295 72.7621C160.297 72.7518 161.577 67.1589 165.126 64.3355C170.13 60.354 176.242 62.4719 176.299 62.4907L177.189 59.7492C176.892 59.6534 169.908 57.4524 163.468 61.9776C156.992 66.5285 156.217 70.6539 156.148 71.1093L160.295 72.7621Z" fill="#463014"/>
<path d="M155.618 71.4153L155.674 71.039C155.745 70.5629 156.556 66.2499 163.193 61.5841C165.924 59.6651 169.196 58.6501 172.655 58.6501C175.279 58.6501 177.133 59.2269 177.339 59.2932L177.794 59.4406L176.605 63.0974L176.145 62.9451C175.973 62.8871 174.43 62.3902 172.354 62.3902C169.692 62.3902 167.362 63.1714 165.427 64.7121C162.033 67.4112 160.778 72.8126 160.766 72.8655L160.641 73.4149L155.618 71.4153ZM175.988 61.8975L176.579 60.0768C175.882 59.9 174.471 59.6121 172.655 59.6121C169.348 59.6121 166.35 60.5406 163.746 62.3706C158.299 66.1999 156.997 69.6594 156.702 70.8124L159.97 72.1144C160.398 70.5944 161.813 66.3579 164.828 63.959C166.908 62.3059 169.51 61.4318 172.353 61.4318C173.988 61.4318 175.305 61.7139 175.988 61.8975ZM139.151 191.18C136.678 188.536 135.214 185.69 134.86 184.816C134.658 184.318 134.428 183.368 135.153 182.622C135.719 182.045 136.699 181.749 138.069 181.749H140.178C142.376 181.749 144.946 181.749 146.475 181.75L147.757 181.752C149.557 181.752 150.444 182.267 150.871 182.699C151.492 183.328 151.589 184.202 151.161 185.296C150.016 188.22 147.417 190.606 146.649 191.268C145.643 192.136 144.199 192.651 142.78 192.651C141.326 192.651 140.037 192.128 139.151 191.18ZM141.292 118.235L146.412 117.906C146.412 117.906 145.104 120.214 144.256 123.199C143.298 126.576 145.132 131.511 145.132 131.511C145.132 131.511 138.301 123.778 141.292 118.235Z" fill="#463014"/>
<path d="M127.501 99.948C124.236 99.948 119.98 99.8586 116.786 97.5633C116.786 97.5633 120.968 104.894 127.496 104.894L127.501 103.966L127.506 104.894C134.035 104.894 138.216 97.5638 138.216 97.5638C135.022 99.8581 130.763 99.948 127.501 99.948Z" fill="#E78724"/>
<path d="M136.49 99.9127C133.216 101.895 130.291 102.581 127.501 102.642C124.711 102.581 121.788 101.895 118.513 99.9127C118.513 99.9127 123.282 105.732 127.477 105.777V105.78C127.485 105.78 127.492 105.778 127.501 105.778C127.508 105.778 127.516 105.78 127.524 105.78V105.777C131.719 105.732 136.49 99.9127 136.49 99.9127ZM147.686 206.176L147.321 201.43C162.697 200.247 167.542 185.511 167.567 183.959H172.329C172.331 187.547 165.915 204.775 147.686 206.176Z" fill="#463014"/>
<path d="M152.808 175.312C153.095 173.665 153.123 172.104 152.775 170.569C154.163 169.528 156.646 169.141 158.512 168.536C160.037 167.571 167.845 169.526 173.508 162.672C180.604 154.09 179.109 148.967 179.109 148.967C180.929 150.988 182.691 150.218 185.466 159.643C188.243 169.069 184.161 175.641 176.556 182.238C172.963 185.355 167.884 186.639 163.515 187.13C164.978 185.661 161.015 185.514 158.285 184.492C158.503 182.286 158.137 180.145 156.492 178.421C155.503 177.382 154.225 176.76 152.902 176.265C152.828 176.094 152.764 175.936 152.696 175.772C152.739 175.622 152.78 175.471 152.808 175.312Z" fill="white"/>
<path d="M158.318 184.434C158.479 183.971 158.595 183.5 158.713 183.025C158.841 182.506 159.47 181.036 158.694 182.715C158.893 182.285 159.023 181.842 159.119 181.396C171.436 181.38 182.151 172.924 180.078 155.145C181.691 153.005 183.95 159.462 183.95 159.462C183.95 159.462 190.116 177.365 174.192 184.304C168.886 186.618 164.197 188.277 163.091 187.608C160.784 188.076 158.704 186.469 157.925 185.413C158.071 185.089 158.207 184.763 158.318 184.434Z" fill="#C9C9C9"/>
<path d="M153.029 172.734C153.011 171.234 152.703 169.78 151.98 168.332C151.928 168.232 151.87 168.136 151.816 168.039C156.555 167.998 162.013 167.545 166.661 165.684C171.77 163.641 178.161 156.65 179.259 148.435C179.259 148.435 188.88 155.86 186.054 171.751C183.398 186.673 170.912 191.538 156.671 192.361C156.664 192.265 158.274 188.941 157.765 186.905C165.849 187.493 174.892 184.369 179.26 177.186C183.254 170.612 182.134 159.387 180.491 157.743C176.486 170.385 162.068 172.954 153.029 172.734Z" fill="#463014"/>
<path d="M158.779 176.477C157.078 174.638 153.95 172.445 146.737 172.445L127.525 172.434H127.478C121.941 172.438 108.264 172.445 108.264 172.445C101.053 172.445 97.9246 174.638 96.2223 176.477C93.7427 179.154 93.3536 182.877 95.0692 187.532C99.6274 199.921 106.033 212.508 127.477 212.525V212.527C127.485 212.527 127.492 212.525 127.501 212.525C127.508 212.525 127.516 212.527 127.524 212.527V212.525C148.966 212.507 155.372 199.921 159.932 187.532C161.647 182.877 161.257 179.154 158.779 176.477ZM155.441 186.663C153.269 192.885 147.432 207.942 127.5 207.969C107.566 207.942 101.731 192.885 99.5591 186.663C98.3575 183.212 98.4488 180.657 99.8402 179.071C100.791 177.986 102.974 176.692 107.95 176.692L113.148 176.69C116.983 176.686 121.798 176.682 127.501 176.68C133.201 176.682 138.019 176.686 141.853 176.69L147.049 176.692C152.026 176.692 154.209 177.986 155.16 179.071C156.55 180.659 156.643 183.212 155.441 186.663Z" fill="#463014"/>
<path d="M151.538 163.684C154.1 171.204 159.334 177.291 159.334 177.291C159.334 177.291 152.134 176.963 151.736 175.689C151.444 174.75 145.236 160.219 142.854 143.195C145.093 146.877 151.317 163.04 151.538 163.684Z" fill="#463014"/>
</svg>