<svg width="256" height="256" title="GTKWave" viewBox="0 0 256 256" fill="none" xmlns="http://www.w3.org/2000/svg" id="gtkwave">
<style>
#gtkwave {
    rect {fill: #15191C}

    @media (prefers-color-scheme: light) {
        rect {fill: #F4F2ED}
    }
}
</style>
<rect width="256" height="256" rx="40" fill="#15191C"/>
<path d="M54.6666 77.6667V177.667H201.333V77.6667H54.6666Z" fill="black"/>
<path opacity="0.5" d="M48 71V74.3333V181V184.333H51.3333H204.667H208V181V74.3333V71H204.667H51.3333H48ZM54.6667 77.6667H74.6667V97.6667H54.6667V77.6667ZM81.3333 77.6667H108V97.6667H81.3333V77.6667ZM114.667 77.6667H141.333V97.6667H114.667V77.6667ZM148 77.6667H174.667V97.6667H148V77.6667ZM181.333 77.6667H201.333V97.6667H181.333V77.6667ZM54.6667 104.333H74.6667V124.333H54.6667V104.333ZM81.3333 104.333H108V124.333H81.3333V104.333ZM114.667 104.333H141.333V124.333H114.667V104.333ZM148 104.333H174.667V124.333H148V104.333ZM181.333 104.333H201.333V124.333H181.333V104.333ZM54.6667 131H74.6667V151H54.6667V131ZM81.3333 131H108V151H81.3333V131ZM114.667 131H141.333V151H114.667V131ZM148 131H174.667V151H148V131ZM181.333 131H201.333V151H181.333V131ZM54.6667 157.667H74.6667V177.667H54.6667V157.667ZM81.3333 157.667H108V177.667H81.3333V157.667ZM114.667 157.667H141.333V177.667H114.667V157.667ZM148 157.667H174.667V177.667H148V157.667ZM181.333 157.667H201.333V177.667H181.333V157.667Z" fill="#8AE234"/>
<path d="M64.6666 167.667H81.3333L108 87.6667H148L174.667 167.667H191.333" stroke="#8AE234" stroke-width="8" stroke-linecap="round"/>
<path d="M48 71 H208 V78 H48 Z" fill="#BCE891"/>
<path d="M48 177 H208 V184 H48 Z" fill="#BCE891"/>
<path d="M48 73 H55 V178 H48 Z" fill="#BCE891"/>
<path d="M201 73 H208 V178 H201 Z" fill="#BCE891"/>
</svg>