<svg width="256" height="256" title="Hack The Box" viewBox="0 0 256 256" fill="none" xmlns="http://www.w3.org/2000/svg" id="hackthebox">
<style>
#hackthebox {
    rect {fill: #15191C}

    @media (prefers-color-scheme: light) {
        rect {fill: #F4F2ED}
    }
}
</style>
<rect width="256" height="256" rx="40" fill="#15191C"/>
<path fill-rule="evenodd" clip-rule="evenodd" d="M188.552 162.167C188.552 163.259 187.829 164.346 187.106 164.705L140.479 191.528C139.033 192.253 137.226 191.887 136.504 190.441C136.142 190.075 136.142 189.349 136.142 188.987V135.351C136.142 134.264 136.865 133.173 137.588 132.811L184.215 105.629C185.66 104.904 187.468 105.266 188.19 106.716C188.552 107.079 188.552 107.803 188.552 108.169V162.167ZM119.863 189.355C119.863 191.167 118.418 192.258 116.972 192.258C116.61 192.258 115.888 192.258 115.526 191.892L68.9 165.076C67.8157 164.71 67.454 163.623 67.454 162.539V108.175C67.454 106.363 68.9 105.272 70.346 105.272C70.7069 105.272 71.4303 105.272 71.7911 105.634L118.418 132.457C119.502 132.816 119.863 133.903 119.863 134.99V189.355ZM79.7506 86.4256L126.377 59.2435C127.462 58.8774 128.546 58.8774 129.269 59.2435L175.895 86.4256C177.341 87.1474 177.703 88.9588 176.98 90.4084L175.895 91.4954L129.269 118.678C128.184 119.044 127.1 119.044 126.377 118.678L79.7506 91.4954C78.3046 90.771 77.9437 88.9588 78.6663 87.5091L79.7506 86.4256ZM203 89.3214C203 87.5091 202.277 85.6969 201.192 84.6133H200.831L200.47 84.2473L200.109 83.8846H199.747L131.073 44.0185L130.711 43.6559C128.903 42.568 126.373 42.9341 124.566 44.0176L55.892 83.5229H55.5303L55.1686 83.8846L54.8069 84.2473L54.446 84.6133C53.3617 85.6969 53 87.1465 53 88.9588V168.696C53 170.868 54.446 173.043 56.2529 174.133L124.928 213.635C124.928 213.635 125.289 213.635 125.289 214H130.349C130.349 214 130.711 214 130.711 213.635L199.385 174.133C201.554 173.043 202.639 170.868 202.639 168.696L203 89.3214Z" fill="#9FEF00"/>
</svg>