<svg id="Layer_2" data-name="Layer 2" xmlns="http://www.w3.org/2000/svg" viewBox="0 0 256 256" width="256" height="256">
  <g id="Layer_1-2" data-name="Layer 1">
    <rect style="fill:#f4f2ed;" width="256" height="256" rx="60" ry="60"/>
    <path style="fill:#242938;" d="M125.73,85.25h-19.11c-.75,0-1.35.6-1.35,1.35v30.49h-21.04v-30.49c0-.75-.6-1.35-1.35-1.35h-19.11
        c-.75,0-1.35.6-1.35,1.35v82.8c0,.75.6,1.35,1.35,1.35h19.11c.75,0,1.35-.6,1.35-1.35v-30.49h21.04v30.49c0,.75.6,1.35,1.35,1.35
        h19.11c.75,0,1.35-.6,1.35-1.35v-82.8c0-.75-.6-1.35-1.35-1.35Z"/>
    <rect style="fill:#00ea64;" x="137.31" y="85.25" width="64.27" height="85.5" rx="1.01" ry="1.01"/>
  </g>
</svg>
