<svg width="256" height="256" title="HACS" viewBox="0 0 256 256" fill="none" xmlns="http://www.w3.org/2000/svg">
<rect width="256" height="256" rx="40" fill="#41BDF5"/>
<path d="M179.852 66.9416H76.1476C75.0849 66.9416 74.1993 66.0584 74.1993 64.9986V52.943C74.1993 51.8832 75.0849 51 76.1476 51H179.852C180.915 51 181.801 51.8832 181.801 52.943V64.9986C181.801 66.0584 180.915 66.9416 179.852 66.9416Z" fill="white"/>
<path d="M74.1993 163.695C74.1993 164.976 75.2177 165.991 76.5018 165.991H147.041C148.325 165.991 149.343 164.976 149.343 163.695V130.84C149.343 129.56 150.362 128.544 151.646 128.544H171.749C173.033 128.544 174.052 129.56 174.052 130.84V163.695C174.052 164.976 175.07 165.991 176.354 165.991H179.454C180.738 165.991 181.756 164.976 181.756 163.695V124.658C181.756 123.377 180.738 122.362 179.454 122.362H76.5018C75.2177 122.362 74.1993 123.377 74.1993 124.658V163.695ZM85.7122 130.09H124.945C126.007 130.09 126.893 130.973 126.893 132.033V156.365C126.893 157.425 126.007 158.308 124.945 158.308H85.7122C84.6494 158.308 83.7638 157.425 83.7638 156.365V132.033C83.7638 130.929 84.6494 130.09 85.7122 130.09Z" fill="white"/>
<path d="M182.111 73.2564C181.934 72.2849 181.092 71.5783 180.074 71.5783H75.9262C74.9077 71.5783 74.0664 72.2849 73.8893 73.2564L68.0443 104.742C68 104.875 68 105.007 68 105.14V115.694C68 116.842 68.9299 117.769 70.0812 117.769H185.919C187.07 117.769 188 116.842 188 115.694V105.095C188 104.963 188 104.83 187.956 104.698L182.111 73.2564Z" fill="white"/>
<path d="M98.7306 176.148V205.912H92.0443V194.519H80.8856V205.912H74.1993V176.148H80.8856V187.895H92.0443V176.148H98.7306Z" fill="white"/>
<path d="M102.539 205.956L114.317 176.06H118.657L129.55 205.956H122.421L120.649 200.922H111.616L109.712 205.956H102.539ZM114.229 194.298H118.258L116.354 188.999L114.229 194.298Z" fill="white"/>
<path d="M129.904 191.118C129.904 182.86 136.59 176.192 144.871 176.192C149.033 176.192 153.063 177.959 155.941 181.094L151.114 185.422C149.476 183.655 147.218 182.64 144.871 182.64C140.177 182.64 136.413 186.393 136.413 191.074C136.413 195.711 140.177 199.509 144.871 199.509C147.218 199.509 149.476 198.537 151.114 196.726L155.941 201.098C153.063 204.234 149.077 206 144.871 206C136.59 206 129.904 199.288 129.904 191.118Z" fill="white"/>
<path d="M181.756 197.963C181.535 200.524 179.808 202.865 177.196 204.322C175.247 205.382 172.989 205.912 170.598 205.912C170.066 205.912 169.579 205.868 169.092 205.823C164.886 205.426 161.21 203.439 159.351 200.568L164.797 196.991C165.417 198.007 167.188 199.155 169.712 199.376C171.351 199.553 172.989 199.244 174.14 198.625C174.849 198.272 175.336 197.742 175.38 197.301C175.424 196.726 175.203 194.739 170.288 194.254C163.247 193.591 158.863 189.484 159.395 184.141C159.616 181.491 161.343 179.195 164 177.694C166.303 176.501 169.225 175.927 172.103 176.236C176.266 176.634 179.941 178.621 181.845 181.491L176.399 185.024C175.779 184.053 174.007 182.949 171.483 182.728C169.845 182.551 168.207 182.86 167.055 183.434C166.391 183.832 165.904 184.362 165.86 184.759C165.683 186.791 169.092 187.674 170.908 187.806V187.85C177.993 188.513 182.288 192.487 181.756 197.963Z" fill="white"/>
</svg>