<svg width="256" height="256" title="Handy Controls" viewBox="0 0 256 256" fill="none" xmlns="http://www.w3.org/2000/svg">
<rect width="256" height="256" rx="40" fill="#F06733"/>
<path d="M81.8572 42.4384C89.7412 45.9547 94.7959 49.8138 98.6111 57.6736C99.0965 62.0218 99.3544 66.0654 99.3905 70.4151C99.4158 71.4857 99.4412 72.5562 99.4673 73.6591C99.5549 77.6299 99.6043 81.6015 99.6582 85.5729C99.8153 94.4655 99.9724 103.358 100.134 112.52C119.234 113.023 138.333 113.526 158.011 114.044C157.941 109.258 157.87 104.472 157.797 99.5404C157.75 94.9118 157.713 90.2831 157.677 85.6544C157.646 82.4341 157.604 79.214 157.552 75.994C157.478 71.3689 157.443 66.7448 157.416 62.1191C157.369 59.9551 157.369 59.9551 157.321 57.7473C157.318 47.796 157.318 47.796 160.821 43.821C165.391 41.8961 168.314 41.7483 173.242 42.4384C180.134 46.0966 186.109 50.8163 189.996 57.6736C191.075 62.6668 191.023 67.5308 190.957 72.6242C190.968 74.1041 190.979 75.5841 190.99 77.1089C191.016 81.9841 190.986 86.8573 190.954 91.7324C190.955 95.1242 190.959 98.5159 190.965 101.908C190.969 109.007 190.947 116.105 190.905 123.204C190.853 132.313 190.862 141.421 190.891 150.531C190.907 157.53 190.893 164.528 190.871 171.527C190.863 174.887 190.863 178.247 190.873 181.606C190.881 186.293 190.85 190.979 190.808 195.666C190.818 197.06 190.828 198.453 190.839 199.889C190.696 209.246 190.696 209.246 187.173 213.166C182.61 215.161 179.71 215.288 174.765 214.596C167.267 210.545 161.845 205.507 158.011 197.837C157.879 193.725 157.835 189.653 157.863 185.542C157.864 184.467 157.866 183.391 157.867 182.284C157.875 178.264 157.896 174.243 157.916 170.223C157.948 161.236 157.979 152.25 158.011 142.99C138.912 142.99 119.812 142.99 100.134 142.99C100.187 147.666 100.24 152.342 100.295 157.16C100.33 161.683 100.358 166.206 100.385 170.729C100.408 173.875 100.439 177.021 100.479 180.167C100.534 184.687 100.56 189.205 100.58 193.725C100.604 195.134 100.628 196.543 100.652 197.995C100.652 199.307 100.653 200.618 100.653 201.969C100.663 203.123 100.673 204.276 100.684 205.465C99.9828 209.338 98.5867 210.632 95.5649 213.072C91.0343 215.338 88.4479 215.253 83.3803 214.596C75.9122 210.387 70.3161 205.659 66.6264 197.837C65.9571 192.957 66.0021 188.118 66.0352 183.199C66.0272 181.734 66.0191 180.269 66.0109 178.76C65.9908 173.926 66.0041 169.094 66.0195 164.26C66.0165 160.9 66.012 157.541 66.0063 154.181C65.9996 147.145 66.0093 140.109 66.0307 133.073C66.0568 124.044 66.0417 115.015 66.0144 105.986C65.9979 99.0514 66.0031 92.1168 66.015 85.1821C66.018 81.8521 66.0143 78.5221 66.0036 75.1921C65.9921 70.5452 66.0097 65.8993 66.0352 61.2525C66.0259 59.8705 66.0167 58.4886 66.0071 57.0647C66.02 55.8004 66.0329 54.536 66.0462 53.2333C66.0479 52.1352 66.0496 51.037 66.0514 49.9056C67.7398 41.4 74.4732 41.4698 81.8572 42.4384Z" fill="#FEFDFD"/>
</svg>