<svg width="256" height="256" title="HAProxy" viewBox="0 0 256 256" fill="none" xmlns="http://www.w3.org/2000/svg" id="haproxy">
<style>
#haproxy {
    rect {fill: #15191C}

    @media (prefers-color-scheme: light) {
        rect {fill: #F4F2ED}
    }
}
</style>
<rect width="256" height="256" rx="40" fill="#15191C"/>
<path d="M97.3116 118.198L97.174 137.906L116.89 138.044L117.028 118.336L97.3116 118.198Z" fill="#006DA7"/>
<path d="M118.618 96.3963L118.481 116.104L138.196 116.241L138.334 96.5342L118.618 96.3963Z" fill="#006DA7"/>
<path d="M118.711 139.536L118.573 159.243L138.289 159.381L138.427 139.673L118.711 139.536Z" fill="#006DA7"/>
<path d="M140.018 118.199L139.88 137.907L159.596 138.045L159.733 118.337L140.018 118.199Z" fill="#006DA7"/>
<path d="M138.768 79.9029L138.671 93.5963L152.392 93.6921L152.487 79.9988L138.768 79.9029Z" fill="#2F77BB"/>
<path d="M104.528 79.8099L104.432 93.5032L118.152 93.5992L118.247 79.9059L104.528 79.8099Z" fill="#2F77BB"/>
<path d="M80.8006 104.035L80.7052 117.728L94.425 117.824L94.521 104.131L80.8006 104.035Z" fill="#2F77BB"/>
<path d="M80.8006 138.323L80.7052 152.016L94.425 152.113L94.521 138.419L80.8006 138.323Z" fill="#2F77BB"/>
<path d="M162.585 138.417L162.49 152.111L176.209 152.206L176.305 138.512L162.585 138.417Z" fill="#2F77BB"/>
<path d="M162.678 104.129L162.582 117.822L176.302 117.918L176.398 104.225L162.678 104.129Z" fill="#2F77BB"/>
<path d="M69.5113 86.7969L69.4487 95.7715L78.4383 95.8344L78.5009 86.8597L69.5113 86.7969Z" fill="#139AD6"/>
<path d="M87.096 68.3477L87.0333 77.3224L96.0228 77.3852L96.0852 68.4105L87.096 68.3477Z" fill="#139AD6"/>
<path d="M111.194 59.4963L111.132 68.471L120.121 68.5339L120.184 59.5592L111.194 59.4963Z" fill="#139AD6"/>
<path d="M64.2987 111.768L64.2362 120.743L73.1887 120.805L73.2513 111.831L64.2987 111.768Z" fill="#139AD6"/>
<path d="M187.217 86.7423L178.254 86.805L178.318 95.8074L187.28 95.7448L187.217 86.7423Z" fill="#139AD6"/>
<path d="M169.719 68.268L160.758 68.3306L160.82 77.3331L169.782 77.2704L169.719 68.268Z" fill="#139AD6"/>
<path d="M145.45 59.3692L136.489 59.4319L136.551 68.4343L145.514 68.3717L145.45 59.3692Z" fill="#139AD6"/>
<path d="M192.472 111.685L183.51 111.748L183.572 120.751L192.535 120.688L192.472 111.685Z" fill="#139AD6"/>
<path d="M104.526 161.989L104.43 175.683L118.15 175.779L118.246 162.085L104.526 161.989Z" fill="#2F77BB"/>
<path d="M138.673 161.899L138.577 175.592L152.297 175.689L152.393 161.995L138.673 161.899Z" fill="#2F77BB"/>
<path d="M178.367 159.756L178.305 168.73L187.294 168.794L187.358 159.819L178.367 159.756Z" fill="#139AD6"/>
<path d="M160.876 178.297L160.813 187.271L169.803 187.335L169.866 178.36L160.876 178.297Z" fill="#139AD6"/>
<path d="M136.685 187.054L136.622 196.029L145.612 196.092L145.674 187.118L136.685 187.054Z" fill="#139AD6"/>
<path d="M183.578 134.785L183.516 143.76L192.469 143.822L192.531 134.847L183.578 134.785Z" fill="#139AD6"/>
<path d="M78.5188 159.669L69.557 159.731L69.6197 168.733L78.5816 168.671L78.5188 159.669Z" fill="#139AD6"/>
<path d="M96.0188 178.143L87.0566 178.206L87.1193 187.208L96.0812 187.145L96.0188 178.143Z" fill="#139AD6"/>
<path d="M120.194 186.948L111.232 187.012L111.295 196.014L120.257 195.951L120.194 186.948Z" fill="#139AD6"/>
<path d="M73.2638 134.725L64.3019 134.787L64.3647 143.789L73.3265 143.727L73.2638 134.725Z" fill="#139AD6"/>
<path d="M74.6916 63.3167L74.6574 68.2203L79.5911 68.2548L79.6252 63.3512L74.6916 63.3167Z" fill="#03A8D9"/>
<path d="M46.0342 117.823L46 122.726L50.9337 122.761L50.9678 117.857L46.0342 117.823Z" fill="#03A8D9"/>
<path d="M48.9208 102.261L48.8866 107.165L53.8203 107.2L53.8544 102.296L48.9208 102.261Z" fill="#03A8D9"/>
<path d="M102.514 48.129L102.48 53.0327L107.413 53.0672L107.447 48.1635L102.514 48.129Z" fill="#03A8D9"/>
<path d="M54.8758 87.6353L54.8416 92.5391L59.7753 92.5735L59.8094 87.6698L54.8758 87.6353Z" fill="#03A8D9"/>
<path d="M63.7136 74.4972L63.6794 79.4009L68.613 79.4354L68.6473 74.5317L63.7136 74.4972Z" fill="#03A8D9"/>
<path d="M92.9372 54.3702L88.0407 54.4045L88.0751 59.3453L92.9719 59.311L92.9372 54.3702Z" fill="#03A8D9"/>
<path d="M122.898 45L118.001 45.0342L118.036 49.9749L122.933 49.9407L122.898 45Z" fill="#03A8D9"/>
<path d="M197.229 87.6382L197.195 92.542L202.128 92.5765L202.163 87.6727L197.229 87.6382Z" fill="#03A8D9"/>
<path d="M203.648 102.267L203.614 107.171L208.548 107.205L208.582 102.302L203.648 102.267Z" fill="#03A8D9"/>
<path d="M188.484 74.4991L188.45 79.4029L193.383 79.4374L193.418 74.5336L188.484 74.4991Z" fill="#03A8D9"/>
<path d="M206.067 117.735L206.033 122.638L210.966 122.673L211 117.769L206.067 117.735Z" fill="#03A8D9"/>
<path d="M133.961 45.0553L133.927 49.959L138.861 49.9935L138.895 45.0897L133.961 45.0553Z" fill="#03A8D9"/>
<path d="M149.5 48.0371L149.466 52.9407L154.399 52.9752L154.434 48.0716L149.5 48.0371Z" fill="#03A8D9"/>
<path d="M74.6916 63.3167L74.6574 68.2203L79.5911 68.2548L79.6252 63.3512L74.6916 63.3167Z" fill="#03A8D9"/>
<path d="M46.0342 117.823L46 122.726L50.9337 122.761L50.9678 117.857L46.0342 117.823Z" fill="#03A8D9"/>
<path d="M177.597 63.3185L177.562 68.2223L182.496 68.2567L182.531 63.353L177.597 63.3185Z" fill="#03A8D9"/>
<path d="M48.9208 102.261L48.8866 107.165L53.8203 107.2L53.8544 102.296L48.9208 102.261Z" fill="#03A8D9"/>
<path d="M102.514 48.129L102.48 53.0327L107.413 53.0672L107.447 48.1635L102.514 48.129Z" fill="#03A8D9"/>
<path d="M54.8758 87.6353L54.8416 92.5391L59.7753 92.5735L59.8094 87.6698L54.8758 87.6353Z" fill="#03A8D9"/>
<path d="M63.7136 74.4972L63.6794 79.4009L68.613 79.4354L68.6473 74.5317L63.7136 74.4972Z" fill="#03A8D9"/>
<path d="M92.9372 54.3702L88.0407 54.4045L88.0751 59.3453L92.9719 59.311L92.9372 54.3702Z" fill="#03A8D9"/>
<path d="M122.898 45L118.001 45.0342L118.036 49.9749L122.933 49.9407L122.898 45Z" fill="#03A8D9"/>
<path d="M164.201 54.4672L164.166 59.3708L169.1 59.4053L169.133 54.5017L164.201 54.4672Z" fill="#03A8D9"/>
<path d="M206.067 117.735L206.033 122.638L210.966 122.673L211 117.769L206.067 117.735Z" fill="#03A8D9"/>
<path d="M133.961 45.0553L133.927 49.959L138.861 49.9935L138.895 45.0897L133.961 45.0553Z" fill="#03A8D9"/>
<path d="M149.5 48.0371L149.466 52.9407L154.399 52.9752L154.434 48.0716L149.5 48.0371Z" fill="#03A8D9"/>
<path d="M177.595 187.709L177.561 192.612L182.494 192.646L182.529 187.742L177.595 187.709Z" fill="#03A8D9"/>
<path d="M206.065 133.294L206.031 138.197L210.964 138.232L210.998 133.329L206.065 133.294Z" fill="#03A8D9"/>
<path d="M74.6897 187.798L74.6555 192.702L79.5891 192.737L79.6234 187.832L74.6897 187.798Z" fill="#03A8D9"/>
<path d="M203.463 148.947L203.428 153.851L208.362 153.885L208.397 148.982L203.463 148.947Z" fill="#03A8D9"/>
<path d="M150.06 203.549L150.011 208.453L154.945 208.502L154.994 203.599L150.06 203.549Z" fill="#03A8D9"/>
<path d="M197.132 163.575L197.099 168.479L202.031 168.513L202.066 163.61L197.132 163.575Z" fill="#03A8D9"/>
<path d="M188.573 176.806L188.539 181.709L193.472 181.744L193.507 176.84L188.573 176.806Z" fill="#03A8D9"/>
<path d="M169.045 196.878L164.148 196.913L164.183 201.854L169.08 201.819L169.045 196.878Z" fill="#03A8D9"/>
<path d="M138.897 205.972L134 206.007L134.035 210.947L138.932 210.913L138.897 205.972Z" fill="#03A8D9"/>
<path d="M88.0884 196.93L88.0542 201.834L92.9877 201.869L93.0223 196.965L88.0884 196.93Z" fill="#03A8D9"/>
<path d="M54.7791 163.572L54.7449 168.476L59.6785 168.51L59.7128 163.607L54.7791 163.572Z" fill="#03A8D9"/>
<path d="M48.9189 148.943L48.8847 153.847L53.8184 153.881L53.8525 148.978L48.9189 148.943Z" fill="#03A8D9"/>
<path d="M63.7116 176.804L63.6774 181.707L68.6111 181.742L68.6452 176.838L63.7116 176.804Z" fill="#03A8D9"/>
<path d="M46.0342 133.29L46 138.194L50.9337 138.228L50.9678 133.325L46.0342 133.29Z" fill="#03A8D9"/>
<path d="M118.14 206.061L118.106 210.965L123.04 211L123.073 206.096L118.14 206.061Z" fill="#03A8D9"/>
<path d="M102.51 202.986L102.476 207.889L107.41 207.924L107.443 203.021L102.51 202.986Z" fill="#03A8D9"/>
</svg>