<svg width="256" height="256" title="Hashnode" viewBox="0 0 256 256" fill="none" xmlns="http://www.w3.org/2000/svg" id="hashnode">
<style>
#hashnode {
    rect {fill: #15191C}

    @media (prefers-color-scheme: light) {
        rect {fill: #F4F2ED}
    }
}
</style>
<rect width="256" height="256" rx="40" fill="#15191C"/>
<path d="M154.35 128C154.35 113.447 142.553 101.65 128 101.65C113.447 101.65 101.65 113.447 101.65 128C101.65 142.553 113.447 154.35 128 154.35C142.553 154.35 154.35 142.553 154.35 128Z" fill="white"/>
<path fill-rule="evenodd" clip-rule="evenodd" d="M58.9934 101.459C44.3355 116.117 44.3355 139.883 58.9934 154.541L101.459 197.007C116.117 211.664 139.883 211.664 154.541 197.007L197.007 154.541C211.664 139.883 211.664 116.117 197.007 101.459L154.541 58.9934C139.883 44.3355 116.117 44.3355 101.459 58.9934L58.9934 101.459ZM146.579 146.579C156.839 136.318 156.839 119.682 146.579 109.421C136.318 99.1606 119.682 99.1606 109.421 109.421C99.1606 119.682 99.1606 136.318 109.421 146.579C119.682 156.839 136.318 156.839 146.579 146.579Z" fill="#2962FF"/>
</svg>