<svg width="256" height="256" title="Haxe" viewBox="0 0 256 256" fill="none" xmlns="http://www.w3.org/2000/svg" id="haxe">
<style>
#haxe {
    rect {fill: #15191C}

    @media (prefers-color-scheme: light) {
        rect {fill: #F4F2ED}
    }
}
</style>
<rect width="256" height="256" rx="40" fill="#15191C"/>
<path d="M128.5 70.3751L84.3587 65.4866L51 51H89.7486L128.5 70.3777" fill="#FBC707"/>
<path d="M128.5 70.3751L173.652 66.4974L206 51H167.249L128.5 70.3777" fill="#FBC707"/>
<path d="M128.5 186.622L170.62 188.139L206 205.998H167.249L128.5 186.619" fill="#F68712"/>
<path d="M128.5 186.622H86.0435L51 205.997H89.7486L128.5 186.619" fill="#F25C19"/>
<path d="M70.3743 128.499V169.269L51 205.997V167.249L70.3743 128.498" fill="#FFF200"/>
<path d="M70.3743 128.499L67.1738 88.0626L51 51V89.7484L70.3743 128.498" fill="#FFF200"/>
<path d="M186.622 128.499L190.837 86.0409L206 51L206 89.7484L186.622 128.498" fill="#F1471D"/>
<path d="M186.622 128.499L190.163 173.987L206 205.998L206 167.249L186.622 128.498" fill="#F1471D"/>
<path d="M51 51L128.5 70.3751L116.033 119.737L70.3743 128.499L51 51.0041" fill="#FAB20B"/>
<path d="M206 51L186.622 128.499L134.565 119.06L128.5 70.3727L206 51.0041" fill="#F47216"/>
<path d="M206 205.998L128.5 186.622L137.261 135.24L186.622 128.503L206 205.993" fill="#F25C19"/>
<path d="M51 205.997L70.3743 128.499L117.043 138.943L128.5 186.622L51 205.993" fill="#F89C0E"/>
<path d="M128.5 70.3751L70.3743 128.499L128.5 186.622L186.622 128.499L128.5 70.3777" fill="#F68712"/>
</svg>