<svg width="256" height="256" title="Headless UI" viewBox="0 0 256 256" fill="none" xmlns="http://www.w3.org/2000/svg" id="headlessui">
<style>
#headlessui {
    rect {fill: #15191C}

    @media (prefers-color-scheme: light) {
        rect {fill: #F4F2ED}
    }
}
</style>
<rect width="256" height="256" rx="40" fill="#15191C"/>
<path d="M85.7259 145.024L171.162 116.496C169.455 105.816 168.238 98.6822 166.828 93.2374C165.31 87.3812 164.106 85.8143 163.633 85.2716C161.986 83.3861 159.935 81.8961 157.633 80.9123C156.967 80.6278 155.103 79.9669 149.072 80.3301C142.69 80.7153 134.313 82.0196 121.047 84.1205C107.785 86.2213 99.4123 87.5738 93.2278 89.1757C87.376 90.6945 85.8047 91.9025 85.262 92.3752C83.38 94.0252 81.8918 96.0736 80.9071 98.3758C80.6226 99.0411 79.9617 100.906 80.3249 106.941C80.7101 113.323 82.0144 121.704 84.1153 134.97C84.7018 138.691 85.2314 142.017 85.7259 145.024Z" fill="url(#linearGradient1)"/>
<path fill-rule="evenodd" clip-rule="evenodd" d="M62.1698 138.446C58.1081 112.78 56.0729 99.9471 60.4759 89.6441C62.7712 84.2706 66.2479 79.4834 70.6477 75.6382C79.0818 68.272 91.9103 66.2412 117.567 62.1751C143.233 58.1047 156.066 56.0738 166.369 60.4769C171.739 62.7729 176.524 66.2496 180.366 70.6487C187.736 79.0872 189.767 91.92 193.829 117.59C197.895 143.256 199.926 156.093 195.523 166.392C193.229 171.765 189.754 176.552 185.355 180.397C176.921 187.768 164.088 189.799 138.427 193.865C112.77 197.931 99.9374 199.962 89.6387 195.559C84.2682 193.263 79.4841 189.786 75.6416 185.387C68.2711 176.949 66.2358 164.116 62.1698 138.446ZM107.431 184.026C114.302 183.61 123.152 182.223 136.252 180.148C149.356 178.073 158.193 176.655 164.863 174.926C171.319 173.25 174.295 171.618 176.217 169.937C179.043 167.465 181.277 164.388 182.751 160.934C183.758 158.588 184.393 155.253 183.99 148.591C183.574 141.72 182.187 132.865 180.112 119.761C178.037 106.657 176.624 97.8112 174.895 91.1453C173.219 84.6851 171.582 81.7089 169.905 79.7875C167.435 76.9595 164.359 74.7244 160.907 73.2485C158.561 72.2418 155.225 71.6072 148.564 72.0098C141.692 72.4256 132.847 73.8131 119.747 75.8877C106.643 77.9667 97.8015 79.3804 91.1356 81.1093C84.6754 82.7856 81.7035 84.4225 79.7821 86.0988C76.9538 88.5706 74.7188 91.6478 73.2431 95.102C72.2408 97.4479 71.6062 100.783 72.0089 107.445C72.4247 114.321 73.8078 123.171 75.8867 136.275C77.9614 149.379 79.3751 158.225 81.1039 164.89C82.7802 171.351 84.4128 174.327 86.0935 176.248C88.5639 179.076 91.6396 181.311 95.0922 182.787C97.4382 183.794 100.765 184.429 107.431 184.026Z" fill="url(#linearGradient2)"/>
<linearGradient id="linearGradient1" x1="108.219" y1="9.97257" x2="174.061" y2="303.015" gradientUnits="userSpaceOnUse">
<stop stop-color="#66E3FF"/>
<stop offset="1" stop-color="#7064F9"/>
</linearGradient>
<linearGradient id="linearGradient2" x1="112.84" y1="57.9996" x2="135.07" y2="196.889" gradientUnits="userSpaceOnUse">
<stop stop-color="#66E3FF"/>
<stop offset="1" stop-color="#7064F9"/>
</linearGradient>
</svg>