<svg width="256" height="256" title="Helia" viewBox="0 0 256 256" fill="none" xmlns="http://www.w3.org/2000/svg" id="helia">
<style>
#helia {
    rect {fill: #15191C}

    @media (prefers-color-scheme: light) {
        rect {fill: #F4F2ED}
    }
}
</style>
<rect width="256" height="256" rx="40" fill="#15191C"/>
<path d="M128.271 33L129.414 33.4567L135.127 36.6538L169.179 56.2933L175.578 59.9471L181.062 63.1442L187.461 66.7981L199.345 73.649L205.744 77.3029L210.771 80.2716L211 80.5V175.5L208.029 177.327L202.087 180.752L195.688 184.406L190.204 187.603L183.805 191.257L171.921 198.108L167.122 200.849L137.413 217.976L131.014 221.63L128.729 223L127.586 222.543L121.873 219.346L116.388 216.149L109.989 212.495L104.047 209.07L98.5623 205.873L92.1634 202.219L80.2798 195.368L73.8809 191.714L68.3961 188.517L61.9972 184.863L56.0554 181.438L51.2562 178.697L46.2285 175.728L46 175.5V80.5L48.0568 79.1298L52.1704 76.8462L57.6551 73.649L64.054 69.9952L69.9958 66.5697L74.795 63.8293L80.7368 60.4038L86.2216 57.2067L92.6205 53.5529L104.504 46.7019L110.903 43.0481L116.388 39.851L122.787 36.1971L128.271 33Z" fill="#073A53"/>
<path d="M128.271 47.8438L128.729 48.7572L133.756 81.1851L133.985 82.3269L136.042 80.9567L137.413 78.9014V75.476L137.184 73.649V70.2236L137.87 68.3966L139.927 66.5697L141.983 65.1995L143.126 63.8293L143.355 63.1442V61.3173L143.126 59.9471V56.0649L144.04 54.0096L145.183 52.8678L146.783 51.9543L147.697 51.726L147.468 52.8678L147.011 54.4663V57.8918L148.611 62.6875L148.839 65.1995L148.154 67.4832L146.325 71.137V74.3341L146.783 76.8462V79.3582L146.097 82.5553L145.64 84.1538L148.154 81.1851L150.668 77.988L152.724 75.476L155.695 71.8221L158.209 68.625L161.409 64.7428L163.922 61.5457L166.665 58.1202L166.893 58.8053L162.551 69.9952L157.981 81.8702L154.781 90.0913L156.152 88.4928L157.752 86.8942L160.266 85.2957L162.323 84.3822L164.837 83.4688L166.665 81.8702L168.722 78.4447L170.093 77.3029L171.921 76.3894L175.12 75.7043L177.406 75.2476L179.234 74.3341L181.291 72.5072L181.748 71.8221H182.205L182.434 72.5072V74.7909L181.748 76.6178L180.148 78.2163L174.663 80.9567L173.749 81.8702L173.292 83.4688L173.064 86.8942L172.15 89.1779L170.321 90.7764L164.379 93.5168L163.237 94.887L162.551 96.9423L162.323 98.7692L170.778 95.5721L180.148 91.9183L191.346 87.5793L194.317 86.4375L195.003 86.6659L192.032 89.1779L189.747 91.0048L186.09 93.9736L182.891 96.4856L179.006 99.6827L175.806 102.195L173.292 104.25L169.636 107.219L169.179 107.675L172.607 106.762H176.949L180.377 107.675H182.662L185.633 106.534L187.233 105.849L189.518 105.62L192.717 106.534L195.688 107.904L196.374 108.132H200.03L202.087 107.675L201.63 109.046L200.259 110.873L198.431 111.786L195.688 112.014L192.032 111.329H189.975L188.375 112.243L185.861 115.44L184.033 116.582L183.348 116.81H180.605L175.806 115.897L173.978 116.125L172.378 117.038L170.778 118.637L170.55 119.322L178.548 120.464L203.458 124.346L205.515 124.803L204.601 125.26L171.007 130.512H170.321L170.093 132.796L170.55 133.481L172.835 133.938H181.976L184.947 134.394L186.776 135.308L189.061 137.363L190.661 139.19L192.489 140.103L196.831 140.788L200.488 142.159L203.001 143.986L203.458 145.127L200.488 144.442L198.431 144.671L194.774 146.041L193.403 146.269H190.432L188.147 145.584L184.719 143.986H182.434L179.463 144.671H176.949L173.978 143.757L170.778 141.93L167.807 139.418L165.979 137.591L160.952 130.284L158.438 127.315L156.838 125.716L153.639 123.661L150.896 122.748H150.211L151.353 128.457L153.181 138.505V139.19L151.353 138.962L147.925 138.276L146.097 138.048H141.526L137.87 138.733L136.042 139.647L133.985 141.474L132.385 144.214L131.242 147.639L130.785 150.608V156.089L131.242 158.829L132.842 161.113L133.985 162.026L134.442 163.397L133.756 164.767L131.928 166.365L129.643 166.822L126.443 166.137L124.386 166.365L124.158 167.964L126.9 170.019L130.785 173.673L130.557 174.815L130.1 175.043H126.672L124.158 175.957L120.501 178.697L119.587 179.611L120.73 180.296L122.33 180.524H124.843L129.643 180.067H133.756L135.356 180.752L135.584 181.894L134.442 184.178L132.842 185.548L132.157 185.776L126.215 186.233L125.072 186.462L125.758 187.832L127.357 189.202L129.871 189.887L131.014 191.257L131.242 191.942V195.825L130.557 197.651L129.414 198.793L127.586 199.478L124.386 199.022L119.359 197.195L112.96 193.998L109.075 191.714L105.875 189.43L103.361 187.375L99.2479 183.264L96.7341 179.839L94.9058 176.642L93.5346 172.303L92.1634 165.452L91.2493 158.144L90.7922 153.349L81.651 157.688L73.6524 161.57L67.2535 164.538L61.9972 167.05L61.7687 166.594L64.2825 164.538L67.2535 162.026L69.7673 159.971L72.7382 157.459L75.2521 155.404L78.4515 152.663L80.9654 150.608L90.5637 142.387L91.9349 140.56L93.0776 137.82L93.3061 136.221L90.1066 136.678L87.8213 137.591L85.9931 138.962L83.7078 142.844L82.108 144.442L78.9086 146.269L75.7091 146.954L73.4238 146.726L71.367 146.269H68.8532L66.7964 146.726L64.7396 147.868L63.3684 149.01L62.4543 149.923L61.0831 150.38H58.1122L55.5983 149.466L53.9986 148.325L53.7701 147.639H57.4266L58.7978 146.498L60.626 143.757L62.4543 141.702L66.1108 139.875L68.3961 139.418H70.91L72.2812 139.647H76.3947L78.6801 138.733L79.8227 137.591L80.7368 135.993L81.651 133.709L82.7936 132.339L85.3075 130.74H85.7645V130.284L82.7936 130.055L60.8546 126.63L52.1704 125.26L51.2562 124.803L53.313 124.346L81.1939 120.007L86.2216 119.322L85.3075 117.952L83.7078 116.582L82.108 115.897L79.5942 116.125L75.9377 116.81H73.4238L71.8241 116.125L69.9958 114.526L68.3961 112.243L66.5679 111.329H64.7396L60.8546 112.014L58.3407 111.786L56.5125 110.873L55.1413 109.274L54.6842 108.361L54.9127 107.675L56.5125 108.132H60.169L62.4543 107.219L66.1108 105.849L68.3961 105.62L70.6814 106.305L73.1953 107.447L74.1094 107.675H76.3947L79.5942 106.762H84.1648L87.8213 107.675L84.6219 105.163L77.3089 99.226L74.1094 96.7139L71.5956 94.6587L67.9391 91.6899L61.5402 86.6659L61.7687 86.2091L70.6814 89.6346L93.0776 98.3125L94.2202 98.7692L93.9917 96.2572L92.849 93.9736L91.0208 92.8317L86.9072 91.0048L85.0789 89.6346L84.1648 88.4928L83.7078 87.351L83.2507 82.7837L82.5651 81.4135L81.4224 80.5L77.9945 79.1298L75.4806 77.3029L74.3379 75.2476V72.0505H75.0235L77.0803 74.1058L79.1371 75.2476L83.9363 76.1611L86.6787 77.3029L88.2784 78.9014L90.1066 81.8702L90.5637 82.7837L91.4778 83.2404L96.9626 85.524L99.9335 87.8077L101.762 90.0913L101.076 88.0361L97.4197 78.4447L89.8781 59.0337L90.1066 58.3486L91.9349 60.4038L94.4488 63.601L96.5055 66.113L99.4765 69.7668L101.99 72.9639L105.19 76.8462L107.704 80.0433L110.675 83.6971L111.817 85.0673L112.274 84.6106L112.96 82.3269V80.2716L112.274 78.9014L109.532 75.2476L108.389 72.9639V70.2236L110.217 66.3413V63.8293L108.846 61.774L107.247 59.4904L106.332 57.4351V54.9231L107.475 52.6394L108.389 51.9543L109.303 55.3798L110.675 57.4351L113.417 59.9471L114.788 61.0889L116.159 63.3726L116.616 65.1995L116.845 69.3101L117.759 71.3654L119.816 73.649L121.187 75.9327L122.101 78.2163L122.787 81.8702L126.443 58.5769L128.043 48.3005L128.271 47.8438Z" fill="#F5DD1E"/>
<path d="M144.269 146.954H147.697L149.982 147.868L151.582 149.238L152.496 150.608L152.724 152.207L151.81 153.349L150.668 153.805L149.296 154.034H146.325L142.669 153.12L144.04 154.947L146.325 156.089L147.24 156.317H151.125L155.238 155.404L156.381 156.089L156.838 157.688V161.341L156.381 164.995L155.01 169.106L152.953 172.988L152.039 172.531L149.982 170.248L147.011 166.365L144.726 163.397L141.069 158.144L138.784 154.262L138.327 152.892L138.555 150.837L139.47 149.466L141.069 148.096L143.355 147.183L144.269 146.954Z" fill="#F6DE1E"/>
<path d="M106.561 137.82H111.589L114.788 138.505L117.53 139.875L119.13 141.245L120.501 143.3L121.187 145.813V147.868L120.501 151.293L119.13 154.034L117.073 156.089L115.245 157.002L113.188 157.459H109.989L107.247 156.774L104.961 155.175L103.819 153.805L104.733 153.577L108.618 154.49H110.675L112.274 153.805L112.96 152.663V149.923L112.046 148.553L110.217 147.183L107.475 146.041L102.219 144.899L99.4765 143.757L98.3338 142.615L98.5623 141.017L99.4765 139.875L101.762 138.733L104.504 138.048L106.561 137.82Z" fill="#073A53"/>
<path d="M165.522 145.127L168.493 148.096L171.235 149.466L172.15 149.695L177.634 149.923L179.92 150.837L182.891 153.12L186.09 155.404L194.317 161.341L197.745 163.853L197.06 164.082L188.832 161.341L176.949 157.231L172.15 155.404L170.321 154.034L168.95 152.435L166.665 148.096L165.522 145.584V145.127Z" fill="#F6DE1E"/>
<path d="M171.464 163.625H171.693L172.378 166.137L173.978 168.192L175.806 169.334L180.605 171.161L182.891 172.76L184.262 174.587L184.719 176.185V178.012L184.262 178.469L182.891 176.642L181.062 175.5L177.406 174.587L174.892 173.673L173.521 172.531L171.693 169.334L171.235 167.736V163.853L171.464 163.625Z" fill="#F6DE1E"/>
<path d="M84.3934 167.736L84.8504 167.964L84.1648 169.791V174.358L83.2507 177.327L81.4224 179.839L79.3657 181.209L78.6801 181.438H76.3947L76.6233 180.752L78.4515 179.154L79.5942 176.413L80.7368 172.303L81.651 170.476L83.4792 168.421L84.3934 167.736Z" fill="#F6DE1E"/>
<path d="M160.494 174.13L161.18 175.043L165.294 183.721L168.95 191.486L169.179 192.627L167.579 191.257L165.979 189.43L163.694 186.918L162.094 185.091L161.637 184.406L160.952 178.925L160.037 176.642L160.266 174.358L160.494 174.13Z" fill="#F6DE1E"/>
<path d="M99.2479 153.349H102.219L101.076 154.49L100.162 156.089L100.391 158.829L99.705 159.971L98.3338 160.656H96.9626L95.5914 159.743L95.1343 158.601V157.002L95.8199 155.404L96.9626 154.262L98.3338 153.577L99.2479 153.349Z" fill="#073A53"/>
<path d="M93.3061 186.005H97.1911L96.277 187.375L93.7632 190.572L91.0208 193.998L90.7922 193.313L93.3061 186.005Z" fill="#F6DE1E"/>
<path d="M150.896 191.257L151.582 191.486L150.668 198.108L150.211 198.565L147.925 194.683L149.296 193.084L150.896 191.257Z" fill="#F6DE1E"/>
</svg>