<svg width="256" height="256" title="Hero UI" viewBox="0 0 256 256" fill="none" xmlns="http://www.w3.org/2000/svg" id="nextui">
<style>
#nextui {
    rect {fill: #15191C}
    path {fill: #F4F2ED}

    @media (prefers-color-scheme: light) {
        rect {fill: #F4F2ED}
        path {fill: #15191C}
    }
}
</style>
<rect width="256" height="256" rx="40" fill="#15191C"/>
<path d="M89.6769 46H167.323C178.907 46 190.016 50.6017 198.207 58.7927C206.398 66.9837 211 78.093 211 89.6769V167.323C211 178.907 206.398 190.016 198.207 198.207C190.016 206.398 178.907 211 167.323 211H89.6769C78.093 211 66.9837 206.398 58.7927 198.207C50.6017 190.016 46 178.907 46 167.323L46 89.6769C46 78.093 50.6017 66.9837 58.7927 58.7927C66.9837 50.6017 78.093 46 89.6769 46ZM142.992 93.5269H136.578V139.603C136.64 143.087 135.782 146.526 134.089 149.572C132.439 152.487 129.992 154.866 127.043 156.447C123.997 158.124 120.442 158.956 116.366 158.956C112.296 158.956 108.748 158.124 105.709 156.454C102.766 154.865 100.328 152.483 98.6694 149.579C96.9653 146.537 96.0993 143.096 96.16 139.61V93.52H89.7456V140.043C89.6686 144.538 90.8318 148.967 93.1075 152.844C95.3556 156.605 98.5937 159.678 102.471 161.727C106.472 163.899 111.106 164.986 116.366 164.986C121.652 164.986 126.293 163.906 130.281 161.748C134.154 159.698 137.389 156.623 139.631 152.858C141.899 148.974 143.068 144.539 142.999 140.043V93.5269H142.992ZM168.073 163.789V93.5338H161.658V163.796H168.073V163.789Z" fill="#F4F2ED"/>
</svg>