<svg width="256" height="256" title="Heroku" viewBox="0 0 256 256" fill="none" xmlns="http://www.w3.org/2000/svg">
<rect width="256" height="256" rx="40" fill="#430098"/>
<path d="M194.461 36H62.5467C53.3464 36 46 43.3541 46 52.5467V203.313C46 212.491 53.3464 219.853 62.5467 219.853H194.461C203.654 219.853 211 212.491 211 203.313V52.5467C211.008 43.3541 203.661 36 194.461 36ZM201.815 203.313C201.815 207.443 198.59 210.668 194.461 210.668H62.5467C58.41 210.668 55.1926 207.443 55.1926 203.313V52.5467C55.1926 48.41 58.41 45.185 62.5467 45.185H194.461C198.59 45.185 201.815 48.41 201.815 52.5467V203.313ZM87.3668 192.267L108.05 173.889L87.3668 155.504V192.267ZM161.827 117.814C158.158 114.137 151.263 109.541 139.772 109.541C127.355 109.541 114.485 112.766 105.3 115.976V63.5779H86.9149V143.094L99.7845 137.119C99.7845 137.119 120.928 127.467 139.313 127.467C148.505 127.467 150.804 132.523 150.804 137.119V192.275H169.189V137.119C169.641 135.748 169.641 125.62 161.827 117.814ZM137.467 93.4539H155.852C164.125 83.8017 168.262 74.1417 169.641 63.5779H151.263C149.417 74.1417 144.821 83.8017 137.467 93.4539Z" fill="white"/>
</svg>