<svg width="256" height="256" title="Homebrew" viewBox="0 0 256 256" fill="none" xmlns="http://www.w3.org/2000/svg" id="homebrew">
<style>
#homebrew {
    rect {fill: #15191C}

    @media (prefers-color-scheme: light) {
        rect {fill: #F4F2ED}
    }
}
</style>
<rect width="256" height="256" rx="40" fill="#15191C"/>
<path d="M163.184 95.3133C163.699 81.8858 160.307 76.4654 157.762 72.5903C155.179 68.9747 148.983 63.2936 141.369 63.0555C134.169 62.8312 132.437 66.8103 125.795 67.0509C124.706 54.9544 133.835 48.3171 133.835 48.3171C133.835 48.3171 131.338 44.7892 129.273 43.9282C126.897 46.04 121.199 52.1058 119.981 60.2495C118.698 48.2545 112.701 40.5832 99.4062 35.2368C95.6301 48.4462 108.098 60.7871 116.197 65.661C111.904 64.2185 108.178 62.3123 103.174 63.2974C94.427 65.0194 87.217 70.3069 83.1075 81.9109C78.9993 93.5148 84.5588 107.053 85.767 110.919C86.9764 114.789 95.9209 131.226 102.932 133.643C109.941 136.063 109.944 134.973 113.691 133.524C117.438 132.074 123.118 129.413 131.461 132.437C139.798 135.458 140.885 136.182 146.082 132.798C151.283 129.415 158.049 118.9 159.619 115.877C161.191 112.856 162.037 111.284 162.523 109.713C163.127 105.114 162.72 107.348 163.184 95.3133Z" fill="#D1D2D3"/>
<path d="M163.684 113.896V120.462C163.684 121.999 164.931 123.246 166.468 123.246H176.8C180.123 123.246 183.311 124.567 185.661 126.917C188.012 129.268 189.333 132.455 189.333 135.779L189.332 166.061C189.332 166.398 189.332 166.734 189.332 167.069L189.332 173.889C189.332 174.201 189.332 174.511 189.331 174.819L189.331 178.403C189.331 178.691 189.331 178.977 189.331 179.259L189.331 180.92C189.331 184.251 188.006 187.446 185.645 189.797C183.285 192.148 180.085 193.463 176.754 193.452C173.262 193.46 169.59 193.454 166.527 193.411C165.778 193.396 165.055 193.682 164.52 194.207C163.986 194.731 163.684 195.448 163.684 196.195L163.684 199.51C163.683 199.644 163.683 199.779 163.683 199.914L163.683 201.562C163.683 201.701 163.683 201.839 163.683 201.977L163.682 202.804C163.681 205.135 163.677 207.343 163.671 208.675C163.671 209.5 163.304 210.282 162.67 210.808C159.478 213.219 148.326 218.563 123.384 218.563C98.9564 218.563 87.3236 214.573 83.6942 212.471C82.8933 211.961 82.4083 211.076 82.4058 210.129C82.3948 204.714 82.3537 185.433 82.3111 165.537L82.3053 162.821C82.2558 139.727 82.2061 116.615 82.2008 114.118L82.2003 113.896H163.684ZM176.035 134.403H167.164C166.303 134.403 165.474 134.724 164.838 135.297L164.704 135.423C164.095 136.034 163.734 136.844 163.689 137.702L163.684 137.886V178.398C163.684 179.259 164.004 180.088 164.577 180.726L164.704 180.859C165.312 181.469 166.125 181.828 166.98 181.873L167.164 181.878H176.035C176.896 181.878 177.725 181.559 178.363 180.986L178.496 180.859C179.105 180.25 179.465 179.437 179.51 178.582L179.515 178.398V137.886C179.515 137.023 179.195 136.196 178.623 135.557L178.496 135.423C177.887 134.815 177.074 134.454 176.219 134.408L176.035 134.403Z" fill="#FEFEFE"/>
<path d="M90.2336 113.088V199.414C90.2336 200.411 90.765 201.331 91.6285 201.828C95.1514 203.508 105.374 207.517 123.297 207.517C141.338 207.517 151.256 202.645 154.579 200.638C155.372 200.128 155.849 199.248 155.849 198.305C155.857 186.858 155.857 113.088 155.857 113.088H90.2336Z" fill="#FAAF41"/>
<path d="M99.8797 123.847C101.936 123.847 103.618 125.455 103.736 127.483L103.742 127.71V194.422C103.742 196.555 102.013 198.285 99.8797 198.285C97.8218 198.285 96.1412 196.677 96.0234 194.65L96.0171 194.422V127.71C96.0171 125.577 97.7467 123.847 99.8797 123.847Z" fill="#FFDA95"/>
<path d="M136.957 130.803C136.957 129.411 136.137 127.748 134.791 126.913C132.6 125.588 130.89 123.555 129.959 121.134C112.14 121.733 95.8773 118.605 87.6834 116.396C85.5805 115.799 83.4499 115.304 81.2981 114.913C76.3953 113.939 72.6681 109.633 72.6681 104.456C72.6681 98.7571 77.1899 94.1263 82.8383 93.9233C83.9274 87.8963 89.1886 83.3207 95.5301 83.3207C102.661 83.3207 108.443 89.102 108.443 96.233C108.443 97.7332 108.172 99.1694 107.702 100.51L107.739 100.517C109.332 95.5362 113.994 91.9268 119.504 91.9268C124.977 91.9268 129.615 95.4936 131.234 100.428C131.187 99.9828 131.163 99.5304 131.163 99.0717C131.163 91.6549 137.175 85.6442 144.59 85.6442C150.594 85.6442 155.674 89.5845 157.394 95.0174L158.563 94.7116C160.095 93.8493 161.855 93.3505 163.738 93.3505C169.565 93.3505 174.289 98.0753 174.286 103.901C174.286 109.238 170.325 113.648 165.182 114.353C164.016 114.517 162.874 114.814 161.775 115.238C158.717 116.389 155.592 117.344 152.435 118.133C152.277 119.689 151.813 121.155 151.105 122.471C149.824 124.875 149.25 127.592 149.448 130.308C149.447 130.472 149.453 131.334 149.453 131.5C149.453 134.95 146.656 137.049 143.202 137.049C139.754 137.049 136.957 134.255 136.957 130.803Z" fill="#FEFEFE"/>
<path d="M134.448 115.564L134.522 115.789L134.498 115.564H134.448Z" fill="#010202"/>
<path d="M98.3111 33L100.028 33.6893C111.063 38.1271 117.487 44.2217 120.273 53.2076C122.035 49.3025 124.711 45.8297 127.82 42.9923L128.948 41.9859L129.916 42.3882C130.333 42.5637 130.749 42.803 131.17 43.1026C131.825 43.5675 132.488 44.1716 133.159 44.8847C133.669 45.4249 134.156 45.9989 134.606 46.5716L134.854 46.8912L135.131 47.2634L136.147 48.6984L134.815 49.6672L134.633 49.8075L134.383 50.0131L134.074 50.285L133.712 50.6196C132.832 51.4543 131.949 52.4507 131.124 53.5999C128.817 56.8145 127.431 60.5317 127.373 64.7502L127.372 65.2415L127.733 65.1826C128.975 64.9557 130.143 64.5208 131.852 63.7426L132.829 63.2951C136.131 61.8 138.109 61.2862 141.421 61.3889C148.455 61.6095 155.223 66.1676 159.156 71.6757C159.244 71.8098 159.333 71.9439 159.418 72.0793L159.924 72.8814L160.407 73.6784C163.412 78.783 164.859 83.7384 164.912 91.743C171.109 92.3333 175.957 97.5506 175.955 103.901C175.955 110.027 171.422 115.182 165.415 116.004C165.393 116.007 165.373 116.012 165.351 116.016V120.462C165.351 121.078 165.852 121.579 166.469 121.579H176.801C180.567 121.579 184.178 123.075 186.842 125.738C189.505 128.402 191 132.014 191 135.779L190.999 180.92C190.999 184.695 189.496 188.314 186.822 190.978C184.147 193.642 180.524 195.132 176.759 195.118C176.228 195.12 175.706 195.121 175.194 195.122L172.156 195.121L168.464 195.101L166.492 195.078C166.192 195.072 165.902 195.187 165.687 195.398C165.472 195.608 165.351 195.895 165.351 196.195L165.347 205.325L165.338 208.675C165.338 209.996 164.75 211.247 163.674 212.138C162.156 213.284 160.141 214.37 157.642 215.352L156.791 215.674C155.488 216.154 154.064 216.607 152.522 217.025L151.476 217.3L150.396 217.564C149.298 217.824 148.147 218.068 146.945 218.295L145.726 218.517L144.473 218.726C143.412 218.895 142.318 219.053 141.189 219.196L139.815 219.362L138.409 219.514L136.969 219.652L135.495 219.778L133.988 219.888L132.446 219.983C132.187 219.998 131.926 220.012 131.664 220.026L130.074 220.098L128.451 220.156C127.903 220.171 127.352 220.186 126.794 220.197L125.105 220.221C124.537 220.228 123.963 220.23 123.384 220.23H122.503C121.919 220.226 121.339 220.221 120.765 220.215L119.059 220.187L117.386 220.147C116.833 220.132 116.287 220.114 115.745 220.095L114.139 220.028C113.873 220.016 113.61 220.004 113.347 219.991L111.789 219.905L110.265 219.81L108.775 219.701C108.528 219.684 108.285 219.664 108.041 219.644L106.601 219.519C106.365 219.497 106.129 219.476 105.895 219.452L104.506 219.311L103.152 219.16C102.929 219.133 102.708 219.107 102.488 219.08L101.186 218.912L99.9191 218.736L98.6884 218.549C98.0818 218.453 97.4877 218.355 96.9075 218.252L95.7657 218.043C95.5778 218.008 95.3923 217.972 95.208 217.935L94.119 217.714L93.0675 217.484L92.0523 217.245L91.0735 217C90.1135 216.751 89.2087 216.49 88.3615 216.221L87.5318 215.948C87.1257 215.81 86.736 215.669 86.3587 215.525L85.6243 215.238C84.5515 214.801 83.6091 214.346 82.7982 213.877C81.5186 213.061 80.7429 211.649 80.7391 210.131L80.5386 116.442C75.0129 115.136 71 110.211 71 104.456C71 98.8452 74.7974 94.1141 79.9846 92.6942C79.9207 90.9873 79.9596 89.3029 80.1363 87.641C80.3719 85.4428 80.8319 83.3436 81.5362 81.3534C85.5755 69.945 92.7642 63.6461 102.852 61.6609C104.653 61.3075 106.301 61.2674 108.033 61.5005C106.724 60.276 105.469 58.9664 104.326 57.6078C98.2648 50.3978 95.6003 42.4834 97.8023 34.7784L98.3111 33ZM162.016 116.925L161.215 117.219C161.046 117.281 160.865 117.332 160.694 117.392C159.13 117.942 157.524 118.443 155.891 118.91C154.881 119.199 154.881 119.199 153.918 119.473L153.843 119.854C153.615 120.875 153.269 121.86 152.813 122.794L152.371 123.657C152.289 123.824 152.234 124.001 152.161 124.171C151.338 126.064 150.961 128.136 151.115 130.307L151.116 130.552L151.12 131.499C151.12 135.806 147.678 138.718 143.202 138.718C140.93 138.718 138.886 137.754 137.443 136.219C136.39 135.098 135.663 133.676 135.403 132.091C135.334 131.671 135.289 131.242 135.289 130.803C135.289 129.91 134.703 128.822 133.928 128.34C131.79 127.046 130.06 125.17 128.938 122.943L128.884 122.833L127.788 122.856C115.14 123.072 102.266 121.524 91.6989 119.107C90.4707 118.826 89.2651 118.535 88.1033 118.232L87.2285 118C87.2047 117.993 87.1784 117.988 87.1533 117.98C86.0692 117.676 84.9751 117.4 83.8748 117.148L84.074 210.125C84.074 210.505 84.2696 210.861 84.5302 211.027C85.014 211.308 85.5567 211.584 86.1595 211.854L86.7811 212.121C87.4228 212.387 88.1221 212.647 88.8803 212.901L89.6561 213.15C90.0534 213.273 90.4657 213.395 90.8918 213.515L91.7628 213.751L92.6714 213.98L93.6164 214.204L94.6002 214.42C94.7656 214.456 94.9348 214.491 95.1053 214.526L96.143 214.732C96.4939 214.8 96.8523 214.867 97.217 214.933L98.3274 215.123C98.7034 215.186 99.0856 215.247 99.4742 215.306L100.656 215.48L101.874 215.647C102.08 215.673 102.286 215.701 102.496 215.726L103.767 215.88L105.072 216.023L106.412 216.154C106.639 216.177 106.867 216.197 107.095 216.218L108.488 216.337L109.914 216.445L111.374 216.542L112.868 216.627L114.396 216.702C114.652 216.713 114.912 216.723 115.171 216.735L116.749 216.792C117.014 216.801 117.281 216.809 117.55 216.816L119.177 216.855C119.45 216.86 119.724 216.865 120.001 216.87L121.677 216.889C122.24 216.893 122.809 216.895 123.384 216.895L124.22 216.894C125.608 216.886 126.962 216.864 128.282 216.824L129.848 216.77C130.106 216.761 130.363 216.75 130.619 216.737L132.135 216.662L133.619 216.572C133.864 216.555 134.108 216.539 134.349 216.522L135.784 216.41C136.018 216.391 136.254 216.371 136.487 216.351L137.87 216.221C138.097 216.197 138.324 216.174 138.55 216.151L139.881 216.003C140.1 215.976 140.318 215.95 140.535 215.924L141.816 215.757L143.063 215.578L144.276 215.39C144.674 215.325 145.068 215.257 145.454 215.191L146.598 214.98C146.973 214.907 147.344 214.835 147.707 214.76L148.783 214.529L149.822 214.291C150.503 214.129 151.16 213.96 151.795 213.788L152.729 213.524C152.882 213.479 153.032 213.432 153.183 213.387L154.064 213.113L154.909 212.83C157.806 211.828 160.046 210.703 161.605 209.523C161.857 209.314 162.003 209.003 162.003 208.667L162.016 196.195C162.016 194.998 162.498 193.851 163.353 193.015C164.208 192.177 165.363 191.72 166.55 191.745L168.503 191.766L171.398 191.783L175.199 191.787L176.76 191.783C179.648 191.794 182.421 190.654 184.468 188.616C186.513 186.577 187.664 183.809 187.664 180.92L187.665 135.779C187.665 132.898 186.521 130.134 184.483 128.096C182.445 126.059 179.682 124.914 176.801 124.914H166.469C164.01 124.914 162.016 122.92 162.016 120.462V116.925ZM176.035 132.736C177.4 132.736 178.709 133.279 179.676 134.245C180.642 135.21 181.183 136.52 181.183 137.886V178.398C181.183 179.763 180.642 181.072 179.674 182.038C178.709 183.003 177.4 183.545 176.035 183.545H167.165C165.801 183.545 164.491 183.004 163.523 182.037C162.558 181.072 162.016 179.763 162.016 178.398V137.886C162.016 136.52 162.558 135.21 163.525 134.244C164.491 133.279 165.801 132.736 167.165 132.736H176.035ZM176.035 136.073H167.165C166.684 136.073 166.223 136.263 165.883 136.601C165.544 136.942 165.351 137.405 165.351 137.886V178.398C165.351 178.879 165.544 179.34 165.882 179.679C166.223 180.019 166.684 180.211 167.165 180.211H176.035C176.516 180.211 176.977 180.019 177.316 179.68C177.657 179.34 177.848 178.879 177.848 178.398V137.886C177.848 137.405 177.657 136.942 177.317 136.603C176.977 136.263 176.516 136.073 176.035 136.073ZM95.5301 84.9879C90.0759 84.9879 85.4401 88.9068 84.4789 94.2207L84.2407 95.5416L83.5452 95.5679L82.8985 95.5905C81.9698 95.6231 81.08 95.8023 80.2453 96.0981C76.7963 97.3212 74.3349 100.606 74.3349 104.456C74.3349 108.381 76.9079 111.786 80.5311 112.983C80.8782 113.097 81.2316 113.199 81.5976 113.272C82.7995 113.491 83.9926 113.748 85.1782 114.029C86.1657 114.262 87.147 114.511 88.1183 114.785C88.5357 114.898 88.9818 115.002 89.4117 115.113C90.0057 115.263 90.5885 115.417 91.1976 115.564C102.314 118.229 116.348 119.924 129.902 119.468L131.088 119.428L131.514 120.535C132.308 122.602 133.772 124.347 135.671 125.496C137.458 126.605 138.624 128.774 138.624 130.803L138.63 131.047C138.672 131.86 138.942 132.609 139.356 133.257C140.17 134.529 141.58 135.383 143.202 135.383C145.948 135.383 147.785 133.829 147.785 131.499L147.78 130.543L147.785 130.43C147.755 130.033 147.742 129.637 147.742 129.242C147.746 126.613 148.392 124.016 149.636 121.68L149.833 121.294C150.337 120.253 150.657 119.131 150.774 117.965L150.892 116.798L152.03 116.515C153.192 116.224 154.317 115.893 155.442 115.564C156.43 115.274 157.406 114.975 158.371 114.661C159.323 114.352 160.259 114.027 161.176 113.681L161.7 113.488C162.095 113.352 162.497 113.244 162.899 113.136C163.575 112.954 164.258 112.799 164.955 112.7L165.25 112.655C165.286 112.649 165.318 112.64 165.351 112.634C169.52 111.869 172.62 108.217 172.62 103.9C172.621 99.3766 169.235 95.6494 164.861 95.0967C164.492 95.0503 164.119 95.019 163.738 95.019C162.98 95.019 162.235 95.1168 161.516 95.3035C160.773 95.4965 160.057 95.7847 159.383 96.1645L159.193 96.271L156.281 97.0292L155.803 95.5203C154.269 90.6727 149.755 87.3114 144.59 87.3114C138.096 87.3114 132.831 92.5764 132.831 99.0721C132.831 99.4706 132.852 99.8654 132.892 100.254L134.498 115.564H134.448L129.649 100.947C128.222 96.5956 124.151 93.5953 119.504 93.5953C114.823 93.5953 110.732 96.6345 109.329 101.025L108.89 102.394L105.47 101.834L106.128 99.9581C106.554 98.7437 106.774 97.4942 106.774 96.2322C106.774 90.0222 101.74 84.9879 95.5301 84.9879ZM129.482 46.0051L129.074 46.4049C125.348 50.1246 121.857 56.3533 121.646 60.1896C121.433 64.0258 122.058 68.7882 122.058 68.7882L119.706 68.3383C118.69 68.144 117.777 67.9147 116.72 67.5863L115.991 67.3532C115.864 67.3119 115.737 67.268 115.605 67.2241L115.468 67.1765L114.78 66.9384L112.033 65.9558L111.279 65.7002C108.212 64.6975 106.037 64.4344 103.496 64.9344C94.5739 66.6902 88.3301 72.1607 84.6806 82.4663C84.0653 84.2033 83.6617 86.0481 83.4524 87.9957C83.4487 88.0283 83.4487 88.0621 83.4449 88.096C86.0116 84.2835 90.3128 81.782 95.1529 81.658L95.5301 81.6529C102.715 81.6529 108.686 86.8502 109.889 93.6905L109.944 94.0277L110.304 93.7018C112.699 91.6202 115.789 90.3531 119.128 90.2654L119.504 90.2604C123.569 90.2604 127.299 92.0099 129.888 94.8686L130.04 95.0403L130.135 94.712C131.971 88.6161 137.558 84.1444 144.212 83.9803L144.59 83.9765C150.57 83.9765 155.87 87.4844 158.296 92.7406L158.379 92.9273L158.539 92.8484C159.503 92.3934 160.527 92.0801 161.578 91.8909C161.547 84.2585 160.204 79.7906 157.342 75.0457L156.885 74.3063L156.405 73.5594C153.06 68.8772 147.163 64.9056 141.317 64.7226C138.467 64.6336 136.908 65.0785 133.726 66.5524L133.196 66.7955C130.281 68.119 128.584 68.6178 125.855 68.7168L124.276 68.7744L124.135 67.2003C123.596 61.226 125.284 56.0162 128.416 51.6548C129.476 50.1772 130.54 48.9992 131.472 48.1269L131.528 48.073L131.163 47.6444L130.733 47.1719C130.377 46.7947 130.032 46.4626 129.708 46.1881L129.482 46.0051ZM100.595 37.5468L100.552 37.8188C99.696 43.6565 102.052 49.721 106.88 55.4622C109.826 58.9676 113.616 62.1359 116.857 64.1248C117.361 64.4344 117.853 64.7201 118.326 64.9695L118.598 65.1111L118.596 64.8479C118.575 63.136 118.475 61.5143 118.293 59.974C117.021 49.2197 111.72 42.5048 100.769 37.6245L100.595 37.5468Z" fill="#010202"/>
</svg>