<svg width="256" height="256" title="Home Assistant" viewBox="0 0 256 256" fill="none" xmlns="http://www.w3.org/2000/svg" id="homeassistant">
<style>
#homeassistant {
    rect {fill: #15191C}

    @media (prefers-color-scheme: light) {
        rect {fill: #F4F2ED}
    }
}
</style>
<rect width="256" height="256" rx="40" fill="#15191C"/>
<path d="M203 191.626C203 196.778 198.781 200.994 193.625 200.994H62.375C57.2188 200.994 53 196.778 53 191.626V135.417C53 130.264 55.9812 123.07 59.6312 119.423L121.369 57.7308C125.012 54.0897 130.981 54.0897 134.625 57.7308L196.369 119.429C200.012 123.07 203 130.271 203 135.423V191.632V191.626Z" fill="#F2F4F9"/>
<path d="M196.369 119.423L134.631 57.7308C130.988 54.0897 125.019 54.0897 121.375 57.7308L59.6312 119.423C55.9875 123.064 53 130.264 53 135.417V191.626C53 196.778 57.2188 200.994 62.375 200.994H120.044L94.65 175.619C93.3437 176.068 91.95 176.324 90.5 176.324C83.4375 176.324 77.6875 170.579 77.6875 163.521C77.6875 156.464 83.4375 150.718 90.5 150.718C97.5625 150.718 103.312 156.464 103.312 163.521C103.312 164.976 103.056 166.369 102.606 167.674L122.375 187.429V115.057C118.125 112.971 115.188 108.612 115.188 103.572C115.188 96.5142 120.937 90.7684 128 90.7684C135.063 90.7684 140.812 96.5142 140.812 103.572C140.812 108.612 137.875 112.971 133.625 115.057V165.813L153.288 146.165C152.9 144.941 152.688 143.642 152.688 142.293C152.688 135.236 158.437 129.49 165.5 129.49C172.563 129.49 178.312 135.236 178.312 142.293C178.312 149.35 172.563 155.096 165.5 155.096C163.938 155.096 162.45 154.803 161.069 154.291L133.625 181.714V201H193.625C198.781 201 203 196.784 203 191.632V135.423C203 130.271 200.019 123.076 196.369 119.429V119.423Z" fill="#18BCF2"/>
</svg>