<svg width="256" height="256" title="Hono" viewBox="0 0 256 256" fill="none" xmlns="http://www.w3.org/2000/svg" id="hono">
<style>
#hono {
    rect {fill: #15191C}

    @media (prefers-color-scheme: light) {
        rect {fill: #F4F2ED}
    }
}
</style>
<rect width="256" height="256" rx="40" fill="#15191C"/>
<path d="M131.112 44.0145C131.557 43.9573 131.95 44.0695 132.29 44.351C144.805 59.6249 156.581 75.4394 167.62 91.7944C175.793 104.099 182.747 117.109 188.482 130.826C197.641 155.256 192.874 176.51 174.182 194.589C157.826 208.412 138.983 213.795 117.653 210.74C92.1572 205.541 74.8284 190.792 65.6673 166.493C63.281 158.582 62.4959 150.506 63.3119 142.266C64.6708 128.083 68.0355 114.399 73.4063 101.216C75.6442 95.8369 78.5605 90.9021 82.1547 86.4108C85.0871 89.9034 87.891 93.4926 90.5667 97.1781C91.8056 98.4732 93.0953 99.7071 94.4362 100.879C104.671 80.5682 116.896 61.6133 131.112 44.0145Z" fill="#FF5B11"/>
<path d="M128.757 71.2692C141.103 85.5898 152.263 100.843 162.237 117.03C165.364 122.386 167.943 127.994 169.976 133.854C174.21 150.513 169.667 164.252 156.348 175.073C143.466 184.137 129.334 186.829 113.952 183.148C97.3639 178.001 87.7742 166.841 85.183 149.669C84.5541 144.254 85.1151 138.983 86.8654 133.854C89.3614 127.516 92.3897 121.459 95.9503 115.684C99.3151 110.749 102.68 105.814 106.045 100.879C113.688 91.0508 121.259 81.1809 128.757 71.2692Z" fill="#FF9758"/>
</svg>