<svg width="256" height="256" title="HostGator" viewBox="0 0 256 256" fill="none" xmlns="http://www.w3.org/2000/svg" id="hostgator">
<style>
#hostgator {
    rect {fill: #15191C}

    @media (prefers-color-scheme: light) {
        rect {fill: #F4F2ED}
    }
}
</style>
<rect width="256" height="256" rx="40" fill="#15191C"/>
<path d="M152.992 170.009C147.407 174.578 142.839 181.685 137.254 186.254C139.793 199.453 135.224 205.037 140.808 209.606C142.839 211.129 155.53 214.682 162.637 210.621C162.637 204.022 159.083 201.991 155.53 199.453C151.469 191.33 152.992 178.131 152.484 170.009" fill="#2E93EE"/>
<path d="M155.53 212.652C155.022 208.59 151.976 205.544 148.423 204.022C151.469 206.052 152.992 209.098 152.992 212.652H155.53ZM161.622 211.129C161.114 207.575 158.068 204.529 154.514 203.006C158.576 205.544 159.591 208.59 159.083 212.144L161.622 211.129Z" fill="#2E578B"/>
<path d="M146.9 102.999C144.361 107.061 142.839 115.183 164.16 126.859C164.16 126.859 155.022 142.088 152.484 144.627C149.438 147.673 147.915 155.287 150.453 158.841L155.53 164.425C155.53 164.425 162.129 165.44 165.175 163.917C168.729 159.856 169.744 153.764 167.206 148.688C167.206 148.688 184.973 130.412 183.958 124.828C182.943 119.244 155.022 90.8159 146.9 102.999Z" fill="#2E93EE"/>
<path d="M167.206 148.688L158.576 155.795L162.637 154.272C162.637 154.272 165.683 157.825 163.144 161.379C163.144 161.379 167.713 158.841 164.667 153.257L167.206 149.195V148.688Z" fill="#2E578B"/>
<path d="M93.5966 145.642L92.5813 149.195C91.566 151.226 90.5507 151.226 93.5966 152.749C96.1349 153.764 98.1654 154.78 100.704 154.78C104.765 155.795 104.257 155.287 102.227 151.226L99.1807 146.15C95.1196 140.058 94.1043 140.565 93.5966 145.642ZM78.8748 143.611C77.3518 146.15 79.3824 146.657 82.4283 147.673L85.9819 148.688C89.5354 149.195 88.5201 148.688 86.9972 145.642L83.9513 141.073C78.3671 132.443 80.9054 139.55 78.8748 143.611ZM65.6759 142.088V144.119C65.6759 146.657 65.1683 146.15 68.2142 146.657H72.2754C75.8289 145.642 74.8136 144.627 72.783 142.596L70.2448 140.058C63.1377 134.474 65.6759 138.535 65.6759 142.088Z" fill="#2E93EE"/>
<path d="M115.425 57.8187C115.425 57.8187 94.1042 68.987 94.6119 72.5405C94.6119 76.094 100.704 75.5864 102.734 80.1552C102.734 80.1552 89.5354 89.2929 90.5507 93.3541C91.566 97.4153 99.6884 95.8923 101.719 99.4459C101.719 99.4459 99.6884 107.568 101.719 110.614C103.75 113.66 103.242 111.122 105.78 114.675C106.288 114.675 104.765 84.2164 115.425 57.8187Z" fill="#2E93EE"/>
<path d="M111.364 67.9717C118.471 75.0787 128.117 79.6476 136.747 85.2317C142.839 88.7853 147.915 93.3541 152.484 98.9382C157.56 106.045 154.514 114.168 155.53 122.798C156.757 130.864 156.927 139.055 156.037 147.165C154.514 159.856 154.007 170.517 144.869 179.654C133.701 191.838 121.517 194.376 107.811 184.223C102.734 181.177 98.1654 177.116 94.1042 172.547L84.9666 163.917C80.9054 159.856 76.3365 156.81 71.2601 154.272C65.6759 152.241 62.1224 154.78 59.5841 156.303C58.0612 156.81 56.0306 157.825 54.5076 156.81L54 154.78L57.5535 149.703C65.6759 142.596 78.8748 142.088 89.0278 147.673C92.5813 149.703 96.6425 151.734 101.211 152.241C104.257 152.241 107.303 151.734 109.841 149.703C111.364 148.18 112.887 145.642 112.887 143.104C113.903 139.55 113.395 135.997 112.38 132.443C110.857 127.874 107.811 123.305 105.78 118.737C99.6884 102.492 97.6578 83.7088 107.811 68.4793L109.334 66.4487L111.364 67.9717Z" fill="#2E93EE"/>
<path d="M72.783 154.78C79.8901 158.333 87.5048 166.456 95.1195 175.086C104.765 186.761 128.624 203.514 148.423 177.116C166.698 152.241 158.068 117.214 157.053 113.66V113.152C156.545 112.137 139.793 90.8159 124.563 87.77C120.502 91.3235 119.487 97.4153 125.071 108.076C134.208 126.351 141.316 152.749 125.071 168.994C123.04 171.024 119.994 173.055 116.948 174.07C105.273 178.131 99.1807 171.024 92.0737 164.425C86.8386 159.232 80.0783 155.852 72.783 154.78Z" fill="#FFCF00"/>
<path d="M150.453 174.07C143.346 173.055 136.747 170.517 131.163 165.948C135.224 172.04 141.316 176.101 148.423 177.116L150.453 174.07ZM118.471 175.593C121.01 181.177 125.071 186.254 129.64 190.823L134.209 189.3C127.609 186.254 122.025 181.685 118.471 175.593ZM94.1042 174.07L95.1195 175.593L95.6272 176.101C95.1195 174.07 95.6272 172.547 96.1348 171.024L94.1042 174.07ZM101.719 182.193L104.765 184.223C103.75 181.177 103.75 178.131 104.765 176.609L101.719 182.193Z" fill="#ECA93F"/>
<path d="M85.9819 165.44L88.0125 167.471L88.5201 163.41L85.9819 165.44Z" fill="#FF9144"/>
<path d="M136.747 152.241C143.854 150.211 151.469 150.211 158.576 152.241L159.083 149.195C144.869 145.642 136.747 152.241 136.747 152.241ZM159.591 129.397V125.844C143.854 125.336 135.731 132.951 135.731 132.951C143.346 129.397 151.469 127.874 159.591 129.397ZM153.499 109.091L151.469 107.061C135.224 107.061 130.655 114.675 130.655 114.675C137.762 110.107 145.377 108.076 153.499 109.091Z" fill="#ECA93F"/>
<path d="M159.591 126.859L157.56 115.691L156.545 115.183L121.517 93.8618V96.9076C128.624 106.553 144.361 123.813 159.591 126.859Z" fill="#ECA93F"/>
<path d="M107.303 167.471C109.334 164.425 112.887 162.394 116.948 162.902C127.101 163.917 124.056 176.609 121.517 184.223C119.487 189.3 118.471 194.884 118.471 200.468C118.471 207.575 121.01 210.113 117.964 212.652C112.38 216.713 105.78 218.236 99.1807 217.728C93.5966 216.713 93.0889 204.529 102.734 201.483C105.273 195.899 105.273 189.807 104.765 183.716C104.765 179.654 104.257 171.532 107.303 166.963" fill="#2E93EE"/>
<path d="M104.765 217.728L107.303 217.22C106.795 213.667 107.811 210.113 110.349 207.575C106.288 209.606 105.273 213.667 104.765 217.728ZM99.1807 217.728C98.1654 214.175 99.1807 210.113 102.227 207.067C98.6731 209.098 96.6425 212.652 96.6425 216.205C97.1501 217.22 98.1654 217.728 99.1807 217.728ZM104.765 151.734C104.765 151.734 103.242 158.841 108.318 161.379C112.38 163.41 116.948 163.41 119.487 160.364C123.04 156.303 128.117 147.673 114.41 139.55C106.288 134.474 105.78 151.734 105.78 151.734H104.765ZM105.78 118.229L109.334 125.336C109.334 125.844 120.502 111.629 118.471 109.599C116.441 107.061 107.811 115.183 105.78 118.229Z" fill="#2E578B"/>
<path d="M116.441 98.4306C128.624 109.599 103.75 124.828 103.75 124.828C106.288 126.351 109.841 132.443 112.38 136.504C114.918 141.073 115.933 140.058 118.979 143.611C122.025 147.165 113.395 152.241 113.395 152.241C113.395 152.241 83.9513 136.504 83.9513 126.351C83.9513 124.828 90.5507 113.66 97.6578 106.553C101.211 102.999 110.857 92.8464 116.441 98.4306Z" fill="#2E93EE"/>
<path d="M105.273 146.657C105.273 146.657 103.242 157.826 109.334 160.871C109.334 160.871 114.918 161.379 117.456 159.348C117.456 159.348 124.056 149.195 118.979 143.611C113.903 138.535 105.273 146.657 105.273 146.657Z" fill="#2E93EE"/>
<path d="M104.765 147.673L114.918 152.749C113.395 152.749 111.872 152.749 110.857 151.734C110.857 151.734 108.318 156.303 110.857 158.841C110.857 158.841 107.303 157.825 108.318 151.226L104.765 147.673Z" fill="#2E578B"/>
<path d="M112.38 64.9258C112.38 64.9258 116.948 38.528 128.117 38.0204C135.224 37.5127 138.777 46.6504 138.777 46.6504C143.346 46.6504 147.407 48.1734 150.961 50.7116C150.961 50.7116 152.992 47.1581 156.545 48.1734C159.591 49.1887 163.652 56.8034 162.129 69.4946C165.683 70.0023 168.221 72.0329 170.252 74.5711C169.236 76.094 167.713 77.1093 166.19 77.1093C164.16 77.617 154.514 74.0635 151.469 76.094C148.93 78.1246 147.407 81.1705 148.423 84.7241C148.423 84.7241 137.254 83.2011 132.686 77.1093C128.117 71.0176 123.548 59.3416 112.38 64.9258Z" fill="#2E93EE"/>
<path d="M149.438 66.4487C149.438 66.4487 152.484 57.8187 157.56 55.2804C157.56 59.8493 158.068 63.9105 159.083 67.9717L149.438 66.4487ZM126.594 48.681C126.594 48.681 133.193 51.7269 137.254 65.4334L122.533 64.4181C125.071 59.3416 126.086 53.7575 126.594 48.681Z" fill="#F1F1F2"/>
<path d="M129.132 54.7728C130.655 54.7728 132.178 56.2957 132.178 58.834C132.178 60.8646 130.655 62.8952 129.132 62.8952C127.609 62.8952 126.086 60.8646 126.086 58.834C126.086 56.2957 127.609 54.7728 129.132 54.7728ZM154.007 65.4334C155.022 65.4334 156.037 63.9105 156.037 62.3875C156.037 60.8646 155.022 59.3416 154.007 59.3416H152.992L151.469 62.3875C151.469 63.9105 152.484 65.4334 154.007 65.4334Z" fill="#2E578B"/>
<path d="M127.101 71.5252C127.101 71.5252 118.979 64.9258 114.918 69.4946C110.349 75.0787 114.918 83.2011 114.918 83.2011C114.918 83.2011 115.426 79.6476 117.456 78.6323C117.456 78.6323 117.964 89.8006 136.747 102.492C155.022 115.183 163.144 113.66 167.206 112.645C171.267 111.629 175.328 108.584 173.805 105.538C172.282 102.492 161.622 93.3541 161.622 93.3541C161.622 93.3541 157.56 93.8617 149.946 91.3235C141.823 88.2776 131.163 82.6935 124.056 73.0481L127.101 71.5252Z" fill="#FF9144"/>
<path d="M122.533 86.247C132.686 83.7088 143.346 86.7547 151.469 93.8618L149.438 92.8465C149.438 92.8465 158.576 92.3388 160.099 93.8618C165.683 97.4153 169.236 103.507 169.744 110.614C170.252 113.66 162.637 115.691 145.377 107.061C134.716 101.476 122.533 86.247 122.533 86.247Z" fill="#FF6B17"/>
<path d="M161.114 93.3541C161.114 93.3541 158.576 102.999 155.022 101.984C154.007 101.476 154.514 98.9382 154.007 96.9076L151.976 91.3235L161.114 93.3541ZM178.374 89.8006C178.374 89.8006 177.866 99.4459 174.313 98.9382C172.79 98.9382 172.79 96.4 172.282 94.3694L169.236 89.2929L178.374 89.8006Z" fill="#EBEEF2"/>
<path d="M182.435 81.1705C181.927 74.5711 172.79 71.5252 166.19 76.0941C161.114 75.0788 155.022 71.5252 149.438 77.1094C147.407 78.6323 146.9 81.6782 147.915 84.2164C147.915 84.2164 136.747 82.6935 133.193 77.1094C129.132 71.0176 124.056 63.4028 118.471 62.8952C115.933 62.8952 110.857 62.3875 108.318 67.9717C105.273 73.0482 103.75 83.2011 124.563 98.9383C145.884 114.675 155.022 118.737 159.591 118.737C165.175 118.737 165.683 116.706 172.282 115.691C175.328 115.183 178.374 109.599 174.313 104.522C171.267 100.461 167.713 97.4153 163.144 94.8771C163.144 94.8771 171.267 101.476 172.79 104.522C174.313 108.076 169.744 110.107 165.683 111.122C161.622 112.137 156.545 113.152 138.27 100.461C119.994 87.77 117.964 75.0788 117.964 75.0788C115.426 75.0788 115.426 80.1553 115.426 80.1553C115.426 80.1553 112.38 74.0635 115.933 70.5099C120.502 66.4487 125.071 71.5252 125.071 71.5252H124.563C122.025 70.5099 121.517 72.5405 121.517 72.5405C129.132 82.1858 138.27 89.2929 149.438 93.8618C157.56 96.9077 161.622 93.3541 161.622 93.3541C165.683 93.3541 169.236 93.3541 173.297 92.3388C175.836 91.8312 182.943 90.8159 182.435 81.1705Z" fill="#FFCF00"/>
<path d="M155.53 80.6629C157.56 80.1552 159.083 82.6935 156.545 83.7088C156.037 84.7241 156.545 85.7394 158.068 85.7394C156.545 86.7547 155.022 86.247 154.514 84.7241C153.499 83.2011 154.007 81.1705 155.53 80.6629ZM176.851 79.6476C175.328 79.1399 174.313 81.1705 176.343 82.1858C176.343 83.2011 175.836 83.7088 174.82 84.2164C178.882 85.2317 178.882 80.6629 176.851 79.6476Z" fill="#ECA93F"/>
</svg>