<svg width="256" height="256" title="HTTPie" viewBox="0 0 256 256" fill="none" xmlns="http://www.w3.org/2000/svg" id="httpie">
<style>
#httpie {
    rect {fill: #15191C}
    path.httpie {fill: white}

    @media (prefers-color-scheme: light) {
        rect {fill: #F4F2ED}
        path.httpie {fill: black}
    }
}
</style>
<rect width="256" height="256" rx="40" fill="#15191C"/>
<path d="M195.999 82.9815C195.859 63.5211 179.639 48 160.195 48H96.8376C77.5406 48 61.3788 63.2779 61.0057 82.5979C60.9216 87.2855 61.7712 91.9429 63.5049 96.2984C65.2385 100.654 67.8216 104.62 71.1032 107.966C74.3849 111.311 78.2995 113.969 82.6186 115.785C86.9377 117.6 91.5747 118.536 96.2592 118.539H124.565C125.026 118.552 125.468 118.721 125.822 119.017C126.176 119.313 126.419 119.72 126.514 120.172C126.608 120.624 126.548 121.094 126.343 121.507C126.138 121.921 125.799 122.253 125.383 122.451L81.9901 141.486C75.7092 144.273 70.3777 148.834 66.6501 154.61C62.9224 160.386 60.9607 167.125 61.0057 174.001C61.1529 193.465 77.3626 209 96.8136 209H111.661C131.249 209 147.558 193.277 147.527 173.672C147.508 166.651 145.397 159.795 141.466 153.979C137.534 148.164 131.96 143.653 125.455 141.024C125.085 140.871 124.769 140.613 124.545 140.282C124.322 139.951 124.2 139.561 124.197 139.161C124.193 138.762 124.307 138.37 124.525 138.034C124.742 137.699 125.054 137.435 125.42 137.276L175.049 115.497C181.324 112.705 186.648 108.142 190.37 102.366C194.091 96.5908 196.047 89.8538 195.999 82.9815Z" class="httpie" fill="white"/>
</svg>