<svg width="256" height="256" title="Hub" viewBox="0 0 256 256" fill="none" xmlns="http://www.w3.org/2000/svg" id="hub">
<style>
#hub {
    rect {fill: #15191C}

    @media (prefers-color-scheme: light) {
        rect {fill: #F4F2ED}
    }
}
</style>
<rect width="256" height="256" rx="40" fill="#15191C"/>
<path d="M60.9903 205H143.643C147.659 205 151.284 202.595 152.846 198.895L191.105 108.266C191.635 107.011 191.903 105.661 191.891 104.298L191.528 59.9085C191.484 54.423 187.025 50 181.539 50H138.755C136.804 50 134.897 50.5707 133.266 51.6423L55.5032 102.765C52.6923 104.613 51 107.75 51 111.113V195.01C51 200.527 55.4729 205 60.9903 205Z" fill="url(#linearGradient1)"/>
<path d="M169.703 190.469H196.01C201.527 190.469 206 185.996 206 180.479V150.046C206 149.562 205.965 149.077 205.894 148.598L192.699 58.5417C191.982 53.6359 187.774 50 182.815 50H145.524C140.005 50 135.532 54.4744 135.534 59.9933L135.545 104.809C135.545 105.839 135.705 106.864 136.018 107.845L160.186 183.518C161.509 187.658 165.358 190.469 169.703 190.469Z" fill="url(#linearGradient2)"/>
<path d="M166.16 190.469H195.849C201.429 190.469 205.927 185.899 205.838 180.32L206 154.141C205.955 151.28 204.096 148.01 201.924 146.149L109.509 66.9365C107.699 65.385 105.392 64.5313 103.008 64.5313H75.5215C70.0041 64.5313 65.5313 69.0042 65.5313 74.5215V101.17C65.5313 104.05 66.7755 106.791 68.9431 108.688L159.582 187.997C161.403 189.591 163.74 190.469 166.16 190.469Z" fill="#F0EB18"/>
<path d="M176.937 79.0625H80.0625V175.938H176.937V79.0625Z" fill="black"/>
<path fill-rule="evenodd" clip-rule="evenodd" d="M156.078 95.7757C155.092 94.321 153.712 93.1888 151.938 92.3744C150.163 91.5617 148.143 91.1528 145.876 91.1528H130.093V127.496H146.187C148.576 127.496 150.704 127.068 152.574 126.211C154.443 125.354 155.896 124.165 156.935 122.642C157.973 121.119 158.492 119.38 158.492 117.424C158.492 115.624 158.078 114.015 157.246 112.596C156.415 111.176 155.256 110.072 153.768 109.285C153.149 108.958 152.493 108.698 151.802 108.507C152.325 108.351 152.825 108.152 153.302 107.911C154.652 107.228 155.698 106.262 156.443 105.017C157.186 103.771 157.558 102.334 157.558 100.707C157.558 98.8741 157.065 97.2289 156.078 95.7757ZM149.719 104.056C149.268 104.8 148.632 105.371 147.81 105.769C146.988 106.168 146.041 106.367 144.967 106.367H136.998V96.6841H144.967C146.041 96.6841 146.988 96.8824 147.81 97.2802C148.632 97.6784 149.269 98.237 149.719 98.9545C150.168 99.672 150.394 100.515 150.394 101.485C150.394 102.456 150.168 103.311 149.719 104.056ZM145.279 121.968H136.998V111.738H145.279C146.455 111.738 147.494 111.954 148.395 112.387C149.295 112.82 149.991 113.434 150.485 114.23C150.978 115.027 151.225 115.909 151.225 116.931C151.225 117.953 150.978 118.839 150.485 119.592C149.991 120.346 149.294 120.93 148.395 121.345C147.494 121.761 146.455 121.968 145.279 121.968Z" fill="white"/>
<path d="M92.1659 91.1545H99.253V105.769H114.854V91.1545H121.941V127.498H114.854V112.155H99.253V127.498H92.1659V91.1545Z" fill="white"/>
<path d="M130.922 156.56H92.1717V163.826H130.922V156.56Z" fill="white"/>
<linearGradient id="linearGradient1" x1="210.001" y1="59.851" x2="68.7322" y2="215.266" gradientUnits="userSpaceOnUse">
<stop offset="0.25" stop-color="#7256FF"/>
<stop offset="0.73" stop-color="#00C4F4"/>
</linearGradient>
<linearGradient id="linearGradient2" x1="208.084" y1="200.535" x2="169.788" y2="35.8807" gradientUnits="userSpaceOnUse">
<stop offset="0.3" stop-color="#F0EB18"/>
<stop offset="0.58" stop-color="#7256FF"/>
</linearGradient>
</svg>