<svg width="256" height="256" title="Hugging Face" viewBox="0 0 256 256" fill="none" xmlns="http://www.w3.org/2000/svg" id="huggingface">
<style>
#huggingface {
    rect {fill: #15191C}

    @media (prefers-color-scheme: light) {
        rect {fill: #F4F2ED}
    }
}
</style>
<rect width="256" height="256" rx="40" fill="#15191C"/>
<path d="M217.384 166.841C216.914 165.07 216.153 163.389 215.133 161.867C215.352 161.065 215.519 160.251 215.63 159.427C216.354 154.204 214.543 149.423 211.131 145.723C209.283 143.703 207.302 142.368 205.203 141.549C206.581 135.656 207.277 129.625 207.281 123.573C207.281 120.809 207.124 118.101 206.862 115.434C206.726 114.102 206.561 112.774 206.367 111.449C205.766 107.54 204.875 103.68 203.7 99.904C202.93 97.4222 202.039 94.9797 201.031 92.585C199.52 89.0386 197.755 85.6054 195.751 82.3123C194.437 80.1213 193.005 78.0026 191.463 75.9655C190.707 74.9369 189.919 73.9325 189.099 72.9538C186.672 70.0033 184.033 67.2325 181.205 64.6633C180.265 63.7996 179.3 62.9655 178.308 62.162C177.331 61.3477 176.333 60.5598 175.315 59.7988C173.266 58.2734 171.148 56.8423 168.968 55.5102C156.924 48.1951 142.8 44 127.704 44C83.75 44 48.1269 79.6249 48.1269 123.576C48.1251 129.704 48.8348 135.812 50.2419 141.776C48.3541 142.595 46.545 143.873 44.8669 145.722C41.4558 149.419 39.6441 154.183 40.3686 159.406C40.4787 160.236 40.6439 161.057 40.8641 161.865C39.8452 163.388 39.0854 165.07 38.6154 166.841C37.5667 170.827 37.9119 174.422 39.2447 177.572C37.7956 181.688 38.1575 186.072 40.0444 189.883C41.4165 192.667 43.3803 194.821 45.8012 196.745C48.6792 199.033 52.2817 200.977 56.6271 202.842C61.8115 205.053 68.1399 207.13 71.0179 207.893C78.4519 209.817 85.5801 211.037 92.8043 211.097C103.097 211.192 111.961 208.772 118.307 202.578C121.424 202.96 124.563 203.151 127.704 203.149C131.022 203.142 134.337 202.934 137.63 202.525C143.961 208.758 152.859 211.2 163.19 211.102C170.413 211.044 177.541 209.824 184.956 207.897C187.853 207.135 194.179 205.057 199.366 202.846C203.711 200.979 207.314 199.035 210.211 196.75C212.614 194.825 214.576 192.672 215.949 189.889C217.855 186.076 218.197 181.693 216.769 177.576C218.088 174.426 218.432 170.824 217.384 166.841ZM210.008 177.305C211.468 180.077 211.561 183.208 210.273 186.124C208.319 190.544 203.465 194.026 194.037 197.764C188.175 200.089 182.807 201.575 182.76 201.589C175.006 203.6 167.993 204.621 161.922 204.621C151.87 204.621 144.39 201.847 139.646 196.369C131.624 197.736 123.433 197.782 115.396 196.507C110.646 201.894 103.208 204.621 93.2404 204.621C87.1689 204.621 80.1571 203.6 72.4023 201.589C72.3551 201.575 66.9889 200.089 61.1246 197.764C51.6979 194.026 46.8421 190.547 44.8888 186.124C43.6006 183.208 43.6941 180.077 45.1545 177.305C45.2891 177.047 45.4341 176.797 45.5888 176.554C44.7136 175.239 44.1266 173.754 43.8662 172.196C43.606 170.639 43.6783 169.044 44.0786 167.516C44.6589 165.311 45.8572 163.477 47.4845 162.16C46.7005 160.872 46.1862 159.439 45.9725 157.946C45.5041 154.7 46.5817 151.459 49.0052 148.816C50.893 146.76 53.5612 145.628 56.5152 145.628H56.5939C54.3666 138.489 53.2373 131.052 53.2448 123.573C53.2448 82.7843 86.3125 49.714 127.108 49.714C167.902 49.714 200.97 82.7808 200.97 123.573C200.976 131.072 199.839 138.528 197.597 145.684C197.954 145.649 198.303 145.632 198.647 145.631C201.601 145.631 204.27 146.763 206.156 148.819C208.579 151.459 209.658 154.703 209.189 157.948C208.975 159.441 208.461 160.875 207.677 162.163C209.305 163.48 210.504 165.313 211.083 167.518C211.484 169.046 211.556 170.641 211.296 172.199C211.036 173.757 210.449 175.242 209.573 176.556C209.728 176.797 209.875 177.047 210.008 177.305Z" fill="white"/>
<path d="M209.573 176.556C210.449 175.242 211.035 173.757 211.296 172.199C211.556 170.641 211.484 169.046 211.083 167.518C210.503 165.313 209.304 163.48 207.677 162.163C208.461 160.875 208.975 159.441 209.189 157.948C209.658 154.703 208.58 151.462 206.156 148.819C204.27 146.763 201.601 145.631 198.647 145.631C198.303 145.631 197.954 145.649 197.597 145.684C199.836 138.528 200.971 131.073 200.964 123.575C200.964 82.7852 167.896 49.7159 127.105 49.7159C86.3133 49.7159 53.2421 82.7817 53.2421 123.575C53.2348 131.054 54.364 138.49 56.5913 145.63H56.5125C53.5585 145.63 50.8903 146.761 49.0034 148.817C46.5799 151.458 45.5013 154.702 45.9707 157.947C46.1845 159.439 46.6989 160.874 47.4826 162.162C45.8553 163.478 44.6563 165.312 44.076 167.517C43.6759 169.045 43.6038 170.64 43.8644 172.199C44.125 173.756 44.7123 175.242 45.5879 176.556C45.4323 176.799 45.289 177.05 45.1535 177.308C43.694 180.079 43.5997 183.211 44.8888 186.127C46.843 190.547 51.6969 194.029 61.1245 197.767C66.9862 200.091 72.3551 201.578 72.4023 201.591C80.1562 203.602 87.1689 204.624 93.2395 204.624C103.208 204.624 110.646 201.897 115.396 196.51C123.433 197.785 131.624 197.738 139.646 196.372C144.39 201.85 151.87 204.624 161.922 204.624C167.993 204.624 175.006 203.602 182.759 201.591C182.807 201.578 188.173 200.091 194.037 197.767C203.465 194.029 208.32 190.547 210.273 186.127C211.561 183.211 211.468 180.079 210.007 177.308C209.875 177.048 209.728 176.797 209.573 176.556ZM111.997 188.076C111.588 188.791 111.15 189.489 110.684 190.168C109.456 191.966 107.841 193.34 105.966 194.361C102.383 196.315 97.8471 196.998 93.2395 196.998C85.9602 196.998 78.4983 195.294 74.3163 194.21C74.11 194.156 48.6792 186.973 51.8989 180.859C52.4408 179.83 53.3321 179.419 54.4552 179.419C58.9885 179.419 67.2431 186.17 70.7906 186.17C71.5833 186.17 72.1426 185.833 72.3707 185.009C73.8827 179.587 49.3914 177.308 51.454 169.456C51.8175 168.066 52.8052 167.502 54.1931 167.502C60.1868 167.501 73.639 178.042 76.4523 178.042C76.6682 178.042 76.8228 177.978 76.9067 177.845C76.9189 177.825 76.9312 177.806 76.9426 177.785C78.2631 175.604 77.5053 174.019 68.4588 168.478L67.5901 167.949C57.6347 161.924 50.6473 158.298 54.6212 153.972C55.0783 153.473 55.7268 153.252 56.5143 153.252C57.4477 153.252 58.5777 153.564 59.8222 154.088C65.0801 156.305 72.3673 162.352 75.4114 164.989C75.8902 165.405 76.366 165.826 76.8385 166.249C76.8385 166.249 80.6928 170.257 83.0228 170.257C83.5594 170.257 84.0147 170.045 84.3232 169.523C85.976 166.736 68.9736 153.852 68.0149 148.536C67.3646 144.934 68.4711 143.109 70.5162 143.109C71.4889 143.109 72.6758 143.524 73.9858 144.355C78.0498 146.934 85.8963 160.417 88.7691 165.663C89.7322 167.421 91.3761 168.163 92.8575 168.163C95.7967 168.163 98.0944 165.242 93.1267 161.529C85.6604 155.943 88.2806 146.811 91.8438 146.25C91.9959 146.225 92.1496 146.213 92.3026 146.213C95.5432 146.213 96.9722 151.797 96.9722 151.797C96.9722 151.797 101.162 162.317 108.359 169.509C114.89 176.037 115.802 181.394 111.997 188.076ZM135.27 189.308L134.897 189.353L134.26 189.425C133.926 189.46 133.59 189.494 133.253 189.524L132.926 189.554L132.626 189.579L132.201 189.613L131.732 189.647L131.263 189.678L131.159 189.685C131.037 189.692 130.915 189.7 130.791 189.706L130.634 189.715C130.489 189.723 130.344 189.73 130.197 189.736L129.689 189.758L129.229 189.773L128.921 189.782H128.765C128.669 189.782 128.573 189.787 128.477 189.788H128.325C128.229 189.788 128.134 189.788 128.038 189.793L127.646 189.798H127.1C126.671 189.798 126.242 189.793 125.816 189.785L125.47 189.777C125.371 189.777 125.272 189.772 125.175 189.769L124.808 189.758L124.353 189.741L123.942 189.723L123.836 189.718L123.446 189.698C123.337 189.692 123.229 189.687 123.121 189.679L122.868 189.664C122.551 189.644 122.234 189.622 121.916 189.598L121.584 189.571C121.444 189.56 121.305 189.547 121.166 189.535C121.002 189.521 120.839 189.505 120.675 189.489C120.402 189.464 120.128 189.436 119.855 189.406H119.842C123.836 180.496 121.816 172.174 113.745 164.11C108.451 158.823 104.93 151.017 104.199 149.303C102.72 144.23 98.8067 138.59 92.307 138.59C91.7573 138.59 91.2084 138.634 90.6657 138.719C87.8183 139.168 85.3292 140.806 83.5533 143.273C81.6341 140.886 79.769 138.989 78.0822 137.917C75.539 136.305 73.0009 135.487 70.5284 135.487C67.4424 135.487 64.6842 136.754 62.7614 139.052L62.7125 139.111C62.6758 138.96 62.6408 138.809 62.605 138.656L62.6006 138.636C62.2347 137.072 61.9275 135.494 61.6794 133.906C61.6794 133.896 61.6794 133.885 61.6742 133.875C61.655 133.755 61.6375 133.635 61.6191 133.515C61.5654 133.16 61.515 132.804 61.4679 132.449C61.447 132.287 61.4242 132.125 61.4041 131.964L61.3447 131.479C61.3255 131.317 61.3097 131.17 61.2923 131.016L61.2871 130.978C61.2173 130.348 61.1561 129.719 61.1035 129.088L61.0843 128.846L61.0537 128.434C61.0449 128.321 61.0362 128.207 61.0301 128.094C61.0301 128.067 61.0257 128.04 61.0248 128.015C61.0026 127.699 60.9837 127.381 60.968 127.064C60.9593 126.899 60.9505 126.735 60.9436 126.569L60.9261 126.135L60.9217 126.004L60.9077 125.605L60.899 125.265C60.899 125.129 60.892 124.994 60.8902 124.858C60.8876 124.723 60.8841 124.574 60.8833 124.431C60.8815 124.287 60.8832 124.146 60.8789 124.003C60.8754 123.86 60.8789 123.718 60.8789 123.575C60.8789 86.9969 90.5336 57.3421 127.116 57.3421C163.697 57.3421 193.35 86.996 193.35 123.575V124.431C193.35 124.573 193.346 124.717 193.343 124.858C193.343 124.976 193.338 125.092 193.335 125.212C193.335 125.317 193.33 125.423 193.327 125.524C193.327 125.658 193.319 125.792 193.315 125.925V125.936L193.296 126.4C193.29 126.535 193.285 126.672 193.278 126.807L193.274 126.903L193.25 127.337C193.198 128.266 193.128 129.193 193.039 130.119V130.131C193.024 130.283 193.01 130.435 192.993 130.587L192.954 130.946L192.876 131.649L192.831 132.005L192.776 132.423C192.756 132.575 192.736 132.728 192.713 132.879C192.691 133.05 192.665 133.219 192.64 133.389L192.58 133.79L192.508 134.245C192.483 134.396 192.457 134.546 192.429 134.696C192.4 134.848 192.378 134.998 192.351 135.148C192.299 135.449 192.244 135.75 192.186 136.049C192.098 136.498 192.008 136.945 191.915 137.393L191.819 137.836C191.788 137.983 191.754 138.132 191.72 138.28C189.856 136.468 187.387 135.481 184.665 135.481C182.194 135.481 179.654 136.298 177.111 137.911C175.424 138.982 173.56 140.881 171.64 143.267C169.862 140.8 167.372 139.162 164.527 138.713C163.984 138.628 163.435 138.584 162.886 138.584C156.384 138.584 152.473 144.224 150.993 149.297C150.259 151.011 146.737 158.817 141.439 164.112C133.373 172.151 131.339 180.435 135.27 189.308ZM203.65 171.471L203.624 171.549C203.558 171.725 203.481 171.896 203.394 172.062C203.329 172.185 203.258 172.303 203.181 172.419C203.035 172.636 202.875 172.844 202.701 173.04C202.661 173.086 202.622 173.131 202.577 173.176C202.514 173.243 202.45 173.309 202.385 173.374C201.208 174.54 199.415 175.563 197.387 176.5C197.157 176.604 196.924 176.708 196.689 176.813L196.455 176.917C196.298 176.986 196.142 177.054 195.978 177.122C195.821 177.19 195.659 177.258 195.496 177.324L195.008 177.525C193.868 177.995 192.699 178.442 191.56 178.884L191.072 179.073L190.59 179.262C190.27 179.387 189.953 179.512 189.642 179.637L189.178 179.824L188.722 180.01L188.498 180.105C188.349 180.167 188.203 180.229 188.057 180.291C184.703 181.73 182.29 183.194 182.797 185.01C182.811 185.062 182.827 185.111 182.844 185.159C182.89 185.293 182.952 185.42 183.03 185.54C183.075 185.611 183.128 185.678 183.186 185.739C183.782 186.359 184.867 186.261 186.235 185.769C186.427 185.698 186.618 185.625 186.808 185.548L186.927 185.499C187.24 185.366 187.571 185.217 187.909 185.057C187.994 185.016 188.08 184.978 188.165 184.933C189.838 184.115 191.734 183.014 193.614 182.012C194.367 181.605 195.13 181.22 195.902 180.854C197.684 180.015 199.358 179.421 200.704 179.421C201.336 179.421 201.894 179.55 202.358 179.848L202.436 179.899C202.728 180.105 202.973 180.369 203.156 180.674C203.191 180.733 203.226 180.795 203.26 180.859C203.926 182.122 203.369 183.429 202.066 184.711C200.815 185.943 198.87 187.15 196.658 188.267C196.494 188.35 196.33 188.433 196.163 188.514C189.582 191.746 180.964 194.18 180.844 194.21C178.547 194.806 175.263 195.587 171.562 196.172L171.015 196.257L170.925 196.27C170.511 196.333 170.096 196.392 169.68 196.446C169.258 196.503 168.831 196.554 168.402 196.603L168.323 196.611C166.768 196.79 165.206 196.909 163.641 196.966H163.618C163.052 196.986 162.486 196.997 161.92 196.997H161.267C160.403 196.985 159.542 196.946 158.681 196.88C158.661 196.88 158.639 196.88 158.619 196.874C158.31 196.851 158.003 196.822 157.695 196.788C157.376 196.754 157.058 196.715 156.741 196.672C156.532 196.644 156.324 196.613 156.116 196.579C155.904 196.545 155.693 196.51 155.482 196.473L155.195 196.419L155.173 196.415C154.869 196.357 154.568 196.293 154.267 196.223C154.092 196.184 153.919 196.145 153.746 196.098L153.642 196.072C153.557 196.051 153.474 196.028 153.389 196.006L153.343 195.993L153.073 195.915C152.976 195.888 152.878 195.858 152.78 195.829L152.746 195.819L152.491 195.742C152.395 195.712 152.299 195.681 152.204 195.649L151.97 195.571L151.797 195.511C151.631 195.452 151.466 195.392 151.303 195.329L151.147 195.268L151.019 195.217C150.771 195.118 150.524 195.014 150.28 194.904L150.119 194.826L150.091 194.814C150.034 194.786 149.977 194.759 149.919 194.736C149.807 194.682 149.695 194.626 149.584 194.569L149.55 194.552L149.389 194.467C149.103 194.318 148.823 194.159 148.549 193.99L148.399 193.898C148.323 193.851 148.248 193.803 148.175 193.754L147.979 193.625L147.768 193.48L147.643 193.39C147.51 193.295 147.379 193.198 147.252 193.097L147.048 192.941C146.967 192.875 146.887 192.809 146.807 192.741C146.74 192.686 146.674 192.629 146.609 192.571L146.603 192.567C146.533 192.504 146.464 192.442 146.395 192.379C146.326 192.317 146.258 192.254 146.192 192.19L146.184 192.182C146.114 192.116 146.046 192.048 145.979 191.979C145.911 191.911 145.842 191.843 145.777 191.773C145.711 191.704 145.644 191.633 145.579 191.561C145.514 191.489 145.455 191.423 145.394 191.353L145.374 191.329C145.314 191.261 145.256 191.192 145.198 191.121C145.073 190.972 144.952 190.819 144.834 190.662C144.717 190.505 144.601 190.344 144.488 190.181L144.381 190.02C144.238 189.81 144.098 189.599 143.962 189.384C143.861 189.229 143.762 189.073 143.666 188.915C143.604 188.816 143.545 188.717 143.485 188.619L143.461 188.579C143.404 188.482 143.348 188.388 143.294 188.293C143.262 188.241 143.232 188.19 143.205 188.136C143.176 188.082 143.142 188.027 143.112 187.972L143.062 187.886L143.031 187.83C142.973 187.725 142.915 187.619 142.859 187.512C142.833 187.465 142.808 187.418 142.781 187.373L142.703 187.221L142.624 187.072C142.428 186.679 142.241 186.28 142.067 185.876L142.005 185.729C141.964 185.63 141.927 185.532 141.887 185.435C141.867 185.388 141.848 185.341 141.832 185.294C141.738 185.052 141.651 184.807 141.57 184.561C141.541 184.473 141.513 184.386 141.487 184.299C141.424 184.1 141.367 183.9 141.317 183.698C141.255 183.463 141.2 183.226 141.153 182.988C141.144 182.94 141.134 182.892 141.126 182.845C141.081 182.612 141.044 182.377 141.015 182.141C141.008 182.095 141.003 182.048 140.998 182.002L140.983 181.86C140.964 181.675 140.949 181.489 140.94 181.303C140.94 181.256 140.936 181.208 140.934 181.163C140.93 181.07 140.928 180.978 140.927 180.885C140.878 177.151 142.768 173.56 146.808 169.522C154.005 162.331 158.195 151.81 158.195 151.81C158.195 151.81 158.308 151.368 158.542 150.733C158.574 150.645 158.608 150.554 158.647 150.459C158.783 150.103 158.937 149.753 159.107 149.412L159.141 149.347C159.286 149.057 159.446 148.774 159.617 148.498C159.657 148.434 159.696 148.372 159.74 148.308C159.869 148.118 160.004 147.933 160.146 147.754C160.224 147.657 160.309 147.56 160.394 147.467C160.428 147.43 160.461 147.394 160.497 147.359C160.914 146.928 161.39 146.576 161.929 146.389L161.998 146.367C162.043 146.352 162.088 146.338 162.135 146.325C162.188 146.311 162.241 146.298 162.296 146.287L162.322 146.282C162.435 146.259 162.551 146.244 162.667 146.236H162.677C162.737 146.236 162.798 146.23 162.86 146.23C162.938 146.23 163.01 146.23 163.087 146.238C163.165 146.245 163.243 146.254 163.322 146.266C163.97 146.369 164.587 146.756 165.119 147.352C165.32 147.579 165.502 147.824 165.661 148.082C165.766 148.25 165.865 148.427 165.958 148.614C165.996 148.692 166.032 148.764 166.067 148.841C166.158 149.038 166.24 149.239 166.311 149.445C166.482 149.925 166.61 150.42 166.695 150.924C166.769 151.365 166.812 151.811 166.826 152.257C166.833 152.496 166.833 152.738 166.826 152.982C166.779 154.116 166.547 155.236 166.138 156.296C166.102 156.393 166.061 156.491 166.021 156.589C165.941 156.786 165.853 156.98 165.757 157.17C165.687 157.314 165.612 157.459 165.532 157.603C165.479 157.699 165.424 157.796 165.369 157.892C165.229 158.131 165.077 158.369 164.913 158.606L164.814 158.747C164.428 159.286 163.998 159.791 163.528 160.258C163.065 160.722 162.568 161.151 162.043 161.542C161.517 161.932 161.023 162.364 160.567 162.833C159.253 164.211 158.947 165.428 159.243 166.35C159.29 166.495 159.352 166.636 159.427 166.769C159.515 166.921 159.62 167.061 159.739 167.188L159.786 167.236L159.833 167.283C159.88 167.329 159.93 167.373 159.983 167.417L160.035 167.459C160.162 167.557 160.297 167.644 160.438 167.721C160.479 167.743 160.515 167.765 160.562 167.786C160.714 167.86 160.87 167.924 161.031 167.976C161.076 167.99 161.12 168.004 161.166 168.018L161.222 168.032L161.301 168.053L161.368 168.07L161.442 168.086L161.514 168.101L161.583 168.112C161.634 168.121 161.686 168.129 161.739 168.136L161.789 168.143L161.88 168.152L161.935 168.158L162.027 168.164H162.081L162.178 168.17H162.48L162.567 168.164L162.666 168.158L162.788 168.147L162.901 168.134C162.927 168.134 162.954 168.127 162.98 168.122C163.329 168.071 163.672 167.978 164 167.845L164.139 167.787C164.217 167.753 164.295 167.717 164.367 167.678C164.521 167.602 164.67 167.514 164.813 167.419C165.014 167.288 165.202 167.141 165.379 166.979C165.421 166.942 165.462 166.901 165.502 166.863C165.522 166.844 165.542 166.825 165.561 166.804C165.599 166.765 165.639 166.727 165.677 166.684C165.957 166.376 166.199 166.037 166.398 165.673C168.108 162.562 169.901 159.498 171.774 156.484L172.031 156.072L172.29 155.66C172.42 155.452 172.551 155.246 172.681 155.042L172.812 154.837C173.247 154.155 173.69 153.478 174.14 152.806L174.406 152.408C174.941 151.615 175.474 150.844 176.003 150.112L176.266 149.749C176.841 148.956 177.44 148.18 178.061 147.423L178.308 147.128C178.349 147.079 178.386 147.03 178.431 146.983C178.512 146.887 178.593 146.793 178.673 146.702C178.713 146.656 178.751 146.61 178.794 146.565L179.028 146.301L179.145 146.173C179.263 146.046 179.378 145.924 179.492 145.808C179.571 145.729 179.643 145.652 179.718 145.578C180.161 145.126 180.65 144.719 181.177 144.367L181.299 144.288C181.416 144.21 181.538 144.136 181.662 144.07C183.728 142.897 185.438 142.81 186.423 143.795C187.019 144.391 187.35 145.38 187.331 146.756C187.331 146.816 187.331 146.877 187.327 146.94V147.007C187.327 147.07 187.322 147.133 187.317 147.197C187.317 147.276 187.308 147.353 187.3 147.432C187.292 147.51 187.288 147.569 187.28 147.639C187.28 147.658 187.276 147.678 187.273 147.699C187.268 147.76 187.26 147.822 187.251 147.884C187.251 147.902 187.251 147.921 187.244 147.941C187.234 148.024 187.222 148.106 187.208 148.188C187.199 148.267 187.185 148.34 187.171 148.417L187.149 148.547C187.126 148.671 187.097 148.794 187.061 148.914C186.993 149.141 186.911 149.362 186.814 149.577C186.679 149.872 186.529 150.16 186.365 150.439C186.274 150.595 186.18 150.748 186.083 150.899C185.984 151.055 185.879 151.214 185.77 151.374C185.494 151.769 185.208 152.156 184.91 152.534L184.773 152.706C184.287 153.312 183.786 153.905 183.268 154.485L183.105 154.668C182.885 154.914 182.661 155.161 182.432 155.41L182.26 155.597C182.145 155.722 182.026 155.847 181.91 155.972C181.796 156.097 181.676 156.224 181.555 156.351L181.196 156.729L180.832 157.11L180.465 157.491C180.218 157.747 179.971 158.002 179.722 158.257C176.178 161.892 172.444 165.514 171.18 167.773C171.096 167.92 171.02 168.072 170.951 168.226C170.771 168.637 170.696 168.989 170.748 169.273C170.764 169.366 170.797 169.455 170.845 169.537C170.916 169.661 171.002 169.774 171.103 169.876C171.149 169.921 171.198 169.963 171.249 170.001C171.51 170.187 171.824 170.282 172.143 170.273H172.243L172.345 170.265L172.448 170.254L172.532 170.242C172.544 170.24 172.556 170.238 172.567 170.235L172.645 170.22L172.665 170.216L172.752 170.197L172.782 170.189C172.813 170.181 172.843 170.174 172.873 170.165C172.904 170.156 172.946 170.145 172.983 170.133C173.136 170.086 173.287 170.031 173.434 169.968C173.512 169.937 173.588 169.903 173.663 169.866C173.703 169.848 173.742 169.83 173.779 169.811L173.896 169.753C174.175 169.608 174.448 169.45 174.714 169.28L174.83 169.202C174.869 169.177 174.909 169.152 174.946 169.124L175.063 169.046L175.125 169.003L175.292 168.885C175.449 168.778 175.595 168.667 175.743 168.554L175.756 168.544L175.991 168.362C176.311 168.108 176.616 167.853 176.892 167.613L177.075 167.452L177.092 167.436L177.188 167.352C177.414 167.149 177.615 166.96 177.781 166.804L177.851 166.737C177.911 166.68 177.966 166.627 178.016 166.582L178.114 166.485L178.149 166.451L178.158 166.441L178.26 166.339L178.325 166.271L178.333 166.265L178.364 166.237L178.402 166.202L178.414 166.191L178.447 166.161L178.625 166.005L178.725 165.916C178.778 165.869 178.829 165.822 178.881 165.774L179 165.668C179.022 165.651 179.043 165.632 179.064 165.612L179.189 165.503L179.373 165.341L179.471 165.257C179.851 164.926 180.313 164.527 180.845 164.077L181.062 163.892L181.422 163.591L181.79 163.284C182.27 162.885 182.788 162.461 183.335 162.021L183.694 161.733C184 161.489 184.314 161.241 184.632 160.991C184.76 160.89 184.89 160.79 185.023 160.69C185.348 160.438 185.675 160.187 186.005 159.939C186.755 159.373 187.528 158.806 188.311 158.254L188.647 158.019C188.882 157.858 189.116 157.695 189.35 157.537L189.563 157.394C189.981 157.109 190.406 156.832 190.834 156.562L191.257 156.298C191.469 156.166 191.679 156.038 191.887 155.913L192.096 155.788L192.514 155.545L192.924 155.31L193.007 155.265L193.331 155.086C193.467 155.013 193.601 154.942 193.736 154.873L193.936 154.77L194.131 154.672C194.199 154.64 194.266 154.606 194.333 154.573C194.772 154.356 195.219 154.157 195.673 153.975C195.797 153.923 195.919 153.876 196.041 153.835L196.399 153.709C196.506 153.673 196.611 153.639 196.712 153.608L196.747 153.598C196.801 153.58 196.855 153.565 196.908 153.551L196.924 153.546C197.036 153.514 197.147 153.486 197.256 153.46H197.264C197.573 153.385 197.888 153.332 198.205 153.3C198.351 153.285 198.497 153.277 198.644 153.278H198.718C198.815 153.278 198.91 153.284 199.003 153.294C199.046 153.294 199.089 153.302 199.131 153.308H199.148C199.19 153.313 199.232 153.319 199.274 153.329C199.315 153.337 199.357 153.344 199.397 153.353H199.411C199.452 153.362 199.488 153.372 199.531 153.385C199.753 153.447 199.965 153.543 200.159 153.669C200.254 153.731 200.343 153.801 200.425 153.878L200.449 153.901C200.465 153.915 200.479 153.93 200.493 153.945L200.536 153.991C200.888 154.359 201.178 154.781 201.396 155.241L201.429 155.32C201.504 155.494 201.562 155.675 201.604 155.86C201.728 156.424 201.68 157.013 201.466 157.551C201.385 157.768 201.286 157.976 201.17 158.176C200.898 158.634 200.576 159.059 200.209 159.445L200.132 159.528C200.015 159.65 199.895 159.772 199.768 159.895C199.712 159.95 199.654 160.004 199.595 160.059L199.416 160.224L199.322 160.307C199.097 160.508 198.865 160.703 198.63 160.892C198.488 161.007 198.344 161.12 198.199 161.231C197.687 161.623 197.165 162 196.634 162.365C196.313 162.585 195.99 162.801 195.664 163.014C194.861 163.541 194.049 164.055 193.229 164.555C191.509 165.612 189.603 166.743 187.571 167.973L187.045 168.292C186.469 168.643 185.925 168.979 185.413 169.299L185.155 169.46L184.668 169.773C184.344 169.98 184.022 170.189 183.699 170.398L183.44 170.57C183.313 170.652 183.187 170.736 183.061 170.819L182.938 170.898L182.56 171.152L182.36 171.29L181.908 171.603C181.544 171.861 181.205 172.107 180.893 172.34L180.776 172.429C180.592 172.568 180.41 172.71 180.231 172.854C179.961 173.072 179.715 173.28 179.494 173.48L179.385 173.579C179.323 173.635 179.262 173.692 179.203 173.748C179.163 173.787 179.126 173.827 179.084 173.864L179.028 173.92C178.903 174.046 178.78 174.175 178.662 174.307L178.605 174.373C178.476 174.522 178.364 174.664 178.267 174.803L178.223 174.865C178.146 174.977 178.075 175.092 178.011 175.211C177.995 175.241 177.98 175.271 177.965 175.3L177.922 175.389L177.893 175.454L177.875 175.498L177.86 175.537L177.84 175.59C177.786 175.738 177.748 175.892 177.726 176.048L177.719 176.102L177.714 176.152V176.428C177.714 176.45 177.714 176.473 177.72 176.498L177.725 176.54C177.725 176.562 177.73 176.584 177.733 176.609C177.737 176.631 177.743 176.672 177.75 176.705V176.709C177.756 176.74 177.762 176.769 177.77 176.8C177.778 176.831 177.786 176.866 177.795 176.897C177.812 176.959 177.833 177.02 177.855 177.082C177.869 177.118 177.882 177.154 177.897 177.19C177.897 177.197 177.902 177.205 177.906 177.212L177.937 177.283L177.981 177.38C178.028 177.48 178.08 177.578 178.135 177.673L178.193 177.773L178.253 177.872C178.263 177.889 178.275 177.905 178.288 177.92L178.308 177.94L178.329 177.96L178.352 177.977C178.385 178.001 178.421 178.019 178.459 178.032C178.479 178.039 178.5 178.045 178.521 178.05C179.025 178.163 180.062 177.747 181.439 177.019C181.517 176.977 181.602 176.934 181.686 176.888L182.105 176.659L182.31 176.546C182.455 176.468 182.604 176.38 182.756 176.293L183.033 176.137C184.854 175.089 187.028 173.743 189.276 172.428C189.487 172.305 189.698 172.182 189.91 172.061L190.334 171.789C190.827 171.506 191.323 171.228 191.82 170.952C192.447 170.608 193.078 170.272 193.715 169.947L194.131 169.737C194.407 169.6 194.681 169.467 194.951 169.338C195.473 169.09 196.002 168.854 196.537 168.631L196.83 168.512L196.865 168.498C198.416 167.884 199.822 167.505 200.96 167.505C201.206 167.502 201.452 167.523 201.694 167.565H201.702C201.78 167.579 201.851 167.595 201.923 167.612H201.936C202.122 167.659 202.303 167.726 202.475 167.813C202.715 167.937 202.931 168.102 203.114 168.302C203.197 168.394 203.272 168.495 203.337 168.601C203.46 168.789 203.556 168.993 203.625 169.206C203.653 169.289 203.677 169.37 203.703 169.457C203.887 170.119 203.869 170.82 203.65 171.471Z" fill="#FF9D00"/>
<path fill-rule="evenodd" clip-rule="evenodd" d="M193.34 123.574C193.34 86.995 163.697 57.342 127.115 57.342C90.5338 57.342 60.879 86.9968 60.879 123.574V123.718C60.8772 123.813 60.8763 123.908 60.8789 124.003C60.8832 124.146 60.8847 124.288 60.8833 124.431L60.8878 124.745L60.8902 124.858C60.8902 124.911 60.8922 124.962 60.8939 125.015C60.8966 125.098 60.899 125.182 60.899 125.265L60.9077 125.605L60.9217 126.004L60.9261 126.135L60.9437 126.548L60.9436 126.569C60.9506 126.73 60.9595 126.891 60.9673 127.052L60.968 127.064C60.9768 127.228 60.9857 127.394 60.9962 127.559C61.0049 127.711 61.0135 127.863 61.0248 128.015L61.0268 128.042C61.0344 128.172 61.0439 128.303 61.0537 128.434L61.0555 128.469L61.0843 128.846L61.0871 128.871C61.0923 128.944 61.0965 129.017 61.1035 129.088C61.1557 129.718 61.2176 130.349 61.2871 130.978L61.2923 131.016L61.3448 131.478L61.4041 131.964L61.4479 132.293L61.468 132.448C61.5146 132.804 61.565 133.16 61.6191 133.515L61.6228 133.538L61.6743 133.874C61.9238 135.473 62.2328 137.06 62.6006 138.636L62.605 138.656L62.6331 138.774L62.7125 139.111L62.7614 139.052C64.6842 136.754 67.4424 135.487 70.5284 135.487C73.0009 135.487 75.539 136.305 78.0822 137.917C79.769 138.989 81.6341 140.886 83.5533 143.273C85.3292 140.806 87.8183 139.168 90.6657 138.719C91.2086 138.634 91.7574 138.591 92.307 138.59C98.8067 138.59 102.72 144.23 104.199 149.303C104.93 151.017 108.451 158.823 113.761 164.104C121.833 172.168 123.853 180.489 119.858 189.399H119.872C120.144 189.43 120.417 189.458 120.693 189.483C120.856 189.499 121.019 189.515 121.183 189.529L121.241 189.534L121.602 189.564L121.934 189.591C122.25 189.615 122.567 189.638 122.886 189.658L123.338 189.685L123.462 189.692L123.853 189.712L123.96 189.716L124.37 189.735L124.826 189.752L125.192 189.763L125.253 189.765C125.331 189.768 125.409 189.771 125.487 189.771L125.57 189.773C126.086 189.786 126.601 189.792 127.116 189.791H127.664L128.054 189.786C128.15 189.782 128.246 189.782 128.343 189.782H128.495L128.627 189.779C128.678 189.777 128.73 189.775 128.782 189.775H128.939L129.245 189.767L129.707 189.751L130.215 189.729C130.362 189.723 130.507 189.716 130.652 189.709L130.808 189.699L131.041 189.687L131.177 189.679L131.28 189.672L131.749 189.641L132.218 189.607L132.643 189.573L132.942 189.548L133.271 189.518C133.82 189.469 134.367 189.411 134.914 189.346L135.287 189.301C131.355 180.429 133.391 172.144 141.429 164.112C146.728 158.817 150.249 151.011 150.983 149.296C152.463 144.224 156.374 138.584 162.875 138.584C163.425 138.584 163.975 138.628 164.517 138.713C167.362 139.161 169.851 140.8 171.63 143.267C173.55 140.881 175.414 138.982 177.102 137.91C179.644 136.298 182.184 135.48 184.654 135.48C187.378 135.48 189.846 136.468 191.71 138.28C191.744 138.132 191.777 137.984 191.81 137.836L191.905 137.394C191.939 137.232 191.973 137.07 192.005 136.908C192.063 136.623 192.121 136.337 192.176 136.048C192.234 135.75 192.289 135.449 192.341 135.148L192.368 134.986C192.385 134.89 192.4 134.793 192.419 134.696C192.449 134.546 192.473 134.396 192.497 134.244L192.507 134.186L192.569 133.79L192.63 133.389V133.385C192.675 133.089 192.717 132.793 192.756 132.497L192.766 132.423L192.821 132.005L192.865 131.649L192.944 130.946L192.975 130.664L192.983 130.587C192.999 130.435 193.015 130.283 193.029 130.131V130.119C193.04 129.998 193.052 129.877 193.063 129.755C193.125 129.066 193.177 128.374 193.219 127.679C193.227 127.566 193.233 127.451 193.24 127.337V127.331L193.263 126.902L193.268 126.806C193.282 126.516 193.295 126.226 193.304 125.936V125.925L193.309 125.812C193.313 125.716 193.316 125.62 193.316 125.524L193.318 125.486C193.322 125.396 193.325 125.303 193.325 125.211L193.328 125.133C193.33 125.041 193.333 124.95 193.333 124.858L193.335 124.78C193.337 124.664 193.34 124.547 193.34 124.431V123.574ZM110.687 190.168C115.932 182.477 115.56 176.703 108.364 169.51C101.166 162.317 96.9767 151.797 96.9767 151.797C96.9767 151.797 95.4132 145.688 91.8474 146.249C88.2816 146.81 85.6658 155.94 93.1321 161.529C100.598 167.118 91.6464 170.908 88.7728 165.663C85.8992 160.417 78.0534 146.935 73.9859 144.356C69.9185 141.777 67.058 143.222 68.0167 148.538C68.493 151.176 72.9224 155.68 77.0607 159.887C81.2592 164.155 85.1579 168.12 84.3242 169.523C82.6697 172.308 76.8431 166.249 76.8431 166.249C76.8431 166.249 58.5979 149.646 54.6266 153.973C50.9646 157.961 56.6114 161.351 65.3127 166.576C66.0521 167.02 66.8142 167.478 67.5947 167.95C77.5501 173.977 78.3243 175.567 76.9111 177.847C76.3894 178.69 73.0569 176.689 68.958 174.229C61.9706 170.033 52.7573 164.502 51.4559 169.453C50.3302 173.738 57.1087 176.363 63.2562 178.745C68.3777 180.729 73.0623 182.543 72.3727 185.006C71.6587 187.56 67.7878 185.43 63.5569 183.101C58.8069 180.487 53.6024 177.624 51.899 180.855C48.6802 186.964 74.1065 194.156 74.3163 194.21C82.5316 196.34 103.395 200.855 110.687 190.168ZM144.479 190.168C139.233 182.477 139.606 176.703 146.803 169.51C154 162.317 158.189 151.797 158.189 151.797C158.189 151.797 159.752 145.688 163.318 146.249C166.884 146.81 169.5 155.94 162.034 161.529C154.568 167.118 163.519 170.908 166.393 165.663C169.267 160.417 177.108 146.935 181.175 144.356C185.243 141.777 188.105 143.222 187.145 148.538C186.67 151.176 182.24 155.68 178.101 159.888C173.903 164.156 170.004 168.12 170.837 169.523C172.491 172.308 178.322 166.246 178.322 166.246C178.322 166.246 196.567 149.643 200.54 153.97C204.201 157.957 198.554 161.348 189.852 166.574C189.091 167.031 188.33 167.489 187.571 167.948C177.615 173.975 176.841 175.564 178.253 177.844C178.776 178.687 182.109 176.686 186.207 174.225C193.195 170.03 202.408 164.498 203.71 169.45C204.836 173.735 198.057 176.36 191.909 178.742C186.788 180.726 182.103 182.54 182.792 185.003C183.505 187.556 187.375 185.426 191.605 183.098C196.355 180.484 201.561 177.619 203.263 180.853C206.483 186.965 181.052 194.15 180.847 194.203C172.631 196.34 151.768 200.855 144.479 190.168Z" fill="#FFD21E"/>
<path fill-rule="evenodd" clip-rule="evenodd" d="M148.625 105.547C149.658 105.912 150.426 107.024 151.157 108.082C152.144 109.512 153.064 110.843 154.474 110.093C156.138 109.208 157.503 107.85 158.394 106.189C159.286 104.529 159.667 102.642 159.487 100.765C159.352 99.3625 158.908 98.0069 158.186 96.7965C157.464 95.5859 156.483 94.5505 155.313 93.765C154.143 92.9795 152.813 92.4633 151.42 92.2537C150.026 92.044 148.603 92.1462 147.254 92.5526C145.904 92.959 144.662 93.6594 143.616 94.6034C142.57 95.5475 141.746 96.7117 141.204 98.0124C140.662 99.313 140.415 100.718 140.48 102.125C140.547 103.533 140.923 104.908 141.585 106.153C142.239 107.382 143.69 106.802 145.221 106.189C146.421 105.709 147.671 105.21 148.625 105.547ZM103.725 105.547C102.692 105.912 101.923 107.025 101.193 108.082C100.205 109.513 99.2848 110.843 97.8751 110.093C95.7823 108.985 94.1775 107.137 93.3731 104.91C92.5688 102.682 92.6227 100.235 93.5243 98.0457C94.4259 95.8559 96.1106 94.0804 98.25 93.0652C100.389 92.05 102.83 91.868 105.097 92.5544C106.901 93.0978 108.504 94.164 109.703 95.6181C110.903 97.0723 111.643 98.8492 111.832 100.724C112.021 102.599 111.65 104.488 110.765 106.153C110.111 107.382 108.66 106.802 107.129 106.19C105.928 105.709 104.679 105.21 103.725 105.547ZM141.679 146.406C148.795 140.799 151.409 131.645 151.409 126.007C151.409 121.549 148.411 122.952 143.61 125.329L143.339 125.463C138.933 127.645 133.066 130.551 126.627 130.551C120.187 130.551 114.321 127.645 109.915 125.462C104.959 123.007 101.85 121.467 101.85 126.007C101.85 131.825 104.631 141.376 112.264 146.925C113.272 144.881 114.69 143.067 116.431 141.595C118.171 140.123 120.197 139.026 122.38 138.372C123.142 138.145 123.927 139.457 124.73 140.8C125.506 142.096 126.298 143.42 127.104 143.42C127.963 143.42 128.807 142.115 129.631 140.84C130.492 139.508 131.332 138.21 132.144 138.469C136.229 139.781 139.647 142.626 141.679 146.406Z" fill="#32343D"/>
<path d="M141.677 146.405C137.97 149.326 133.044 151.284 126.628 151.284C120.6 151.284 115.886 149.556 112.264 146.924C113.272 144.88 114.69 143.065 116.431 141.594C118.171 140.122 120.197 139.025 122.38 138.372C123.877 137.925 125.463 143.42 127.104 143.42C128.861 143.42 130.554 137.961 132.144 138.469C136.228 139.781 139.646 142.626 141.677 146.405Z" fill="#FF323D"/>
<path fill-rule="evenodd" clip-rule="evenodd" d="M86.7066 113.476C85.8599 114.043 84.8864 114.391 83.8725 114.491C82.8586 114.592 81.8357 114.44 80.8947 114.049C80.1425 113.739 79.4589 113.282 78.8835 112.706C78.308 112.131 77.8519 111.448 77.5412 110.695C77.1515 109.754 76.9998 108.732 77.1001 107.718C77.2002 106.704 77.549 105.73 78.1155 104.884C78.7961 103.864 79.7636 103.07 80.8957 102.601C82.0279 102.132 83.2736 102.01 84.4754 102.249C85.6773 102.488 86.7811 103.079 87.6473 103.945C88.5135 104.812 89.1032 105.917 89.3416 107.118C89.5805 108.32 89.4576 109.565 88.9888 110.697C88.5199 111.829 87.7251 112.796 86.7066 113.476ZM175.339 113.476C174.492 114.043 173.518 114.391 172.504 114.491C171.49 114.592 170.467 114.44 169.526 114.049C168.773 113.738 168.09 113.282 167.515 112.706C166.94 112.131 166.484 111.448 166.173 110.695C165.784 109.754 165.632 108.732 165.732 107.718C165.833 106.704 166.181 105.73 166.747 104.884C167.255 104.121 167.927 103.483 168.713 103.011C169.499 102.54 170.379 102.25 171.291 102.16C172.203 102.07 173.123 102.184 173.985 102.493C174.848 102.802 175.631 103.298 176.278 103.947C177.145 104.813 177.735 105.917 177.974 107.118C178.213 108.32 178.09 109.565 177.621 110.697C177.151 111.829 176.358 112.796 175.339 113.476Z" fill="#FFAD03"/>
</svg>