<svg width="256" height="256" title="Hugo" viewBox="0 0 256 256" fill="none" xmlns="http://www.w3.org/2000/svg" id="hugo">
<style>
#hugo {
    rect {fill: #15191C}

    @media (prefers-color-scheme: light) {
        rect {fill: #F4F2ED}
    }
}
</style>
<rect width="256" height="256" rx="40" fill="#15191C"/>
<path fill-rule="evenodd" clip-rule="evenodd" d="M124.232 41C126.029 41 127.827 41 129.623 41C134.387 41.6156 138.88 43.188 143.102 45.7174C160.25 55.8646 177.473 65.8985 194.768 75.8189C200.853 80.2815 204.597 86.1967 206 93.5653C206 116.628 206 139.691 206 162.754C204.359 170.901 200.166 177.416 193.42 182.297C175.826 192.068 158.304 201.952 140.855 211.95C137.648 213.495 134.352 214.619 130.971 215.319C128.276 215.319 125.579 215.319 122.884 215.319C118.641 214.426 114.598 212.854 110.753 210.602C95.1788 201.617 79.6039 192.631 64.029 183.645C57.0265 178.697 52.6835 172.033 51 163.653C51 140.74 51 117.827 51 94.9132C52.6982 86.9506 56.7416 80.4359 63.1304 75.3696C80.3838 64.5585 97.7557 53.9256 115.246 43.471C118.225 42.3535 121.22 41.5298 124.232 41Z" fill="#C9177D"/>
<path fill-rule="evenodd" clip-rule="evenodd" d="M123.783 53.5797C127.512 53.2436 131.106 53.7677 134.566 55.1522C151.338 64.8865 168.112 74.6208 184.884 84.3552C189.644 86.5679 192.564 90.2371 193.645 95.3624C193.945 117.227 193.945 139.092 193.645 160.956C192.618 166.325 189.698 170.294 184.884 172.863C168.41 182.148 151.937 191.433 135.464 200.718C130.134 203.776 124.742 203.926 119.29 201.167C103.04 191.619 86.716 182.183 70.3188 172.863C66.1875 169.767 63.8662 165.649 63.3551 160.507C63.0555 139.242 63.0555 117.976 63.3551 96.7103C64.8713 90.8544 68.2409 86.4366 73.4638 83.4567C88.3651 74.434 103.191 65.2987 117.942 56.0508C119.837 54.9495 121.783 54.1258 123.783 53.5797Z" fill="#FE4088"/>
<path fill-rule="evenodd" clip-rule="evenodd" d="M144.45 134C133.744 133.552 122.961 133.402 112.102 133.551C112.102 147.179 112.102 160.807 112.102 174.435C105.662 174.435 99.2222 174.435 92.7827 174.435C92.7827 143.435 92.7827 112.435 92.7827 81.4349C99.2222 81.4349 105.662 81.4349 112.102 81.4349C112.102 92.6668 112.102 103.899 112.102 115.13C122.884 115.13 133.667 115.13 144.45 115.13C144.45 103.899 144.45 92.6668 144.45 81.4349C151.039 81.4349 157.628 81.4349 164.217 81.4349C164.217 112.435 164.217 143.435 164.217 174.435C157.628 174.435 151.039 174.435 144.45 174.435C144.45 160.956 144.45 147.479 144.45 134Z" fill="#FFFDFE"/>
</svg>