<svg width="256" height="256" title="Hyper" viewBox="0 0 256 256" fill="none" xmlns="http://www.w3.org/2000/svg" id="hyper">
<style>
#hyper {
    rect {fill: #15191C}

    @media (prefers-color-scheme: light) {
        rect {fill: #F4F2ED}
    }
}
</style>
<rect width="256" height="256" rx="40" fill="#15191C"/>
<path d="M193.669 155.477L193.606 159.343C193.567 162.137 193.315 164.924 192.852 167.68C192.168 171.86 190.497 175.818 187.977 179.226C185.456 182.635 182.158 185.395 178.356 187.28C175.826 188.548 173.123 189.435 170.333 189.913C167.526 190.394 164.677 190.561 161.87 190.645C156.424 190.707 154.895 190.707 153.344 190.707H103.656C97.749 190.707 96.4501 190.686 95.1514 190.645C92.3235 190.561 89.4745 190.394 86.6885 189.913C83.8844 189.439 81.1664 188.551 78.6236 187.28C74.84 185.37 71.5601 182.599 69.0491 179.191C66.5381 175.782 64.8666 171.832 64.1696 167.66C63.7053 164.897 63.4532 162.102 63.4155 159.301C63.3871 158.027 63.3732 156.752 63.3736 155.477L63.3317 150.922V100.522L63.3946 96.6775C63.4783 93.8984 63.6459 91.0984 64.1487 88.3193C64.8314 84.1444 66.5002 80.1915 69.0171 76.7871C71.534 73.3827 74.8268 70.6244 78.6236 68.7403C81.161 67.4783 83.8717 66.5981 86.6675 66.1283C89.4537 65.6477 92.3025 65.4806 95.1304 65.397C100.577 65.3134 102.127 65.3134 103.656 65.3134H152.088H133.339H153.344C159.273 65.3134 160.571 65.3343 161.87 65.3761C164.677 65.4597 167.526 65.6268 170.333 66.1074C173.161 66.6089 175.8 67.4448 178.377 68.7403C182.163 70.6442 185.446 73.4108 187.961 76.8159C190.476 80.2211 192.151 84.169 192.852 88.3402C193.355 91.0984 193.522 93.8984 193.606 96.6984C193.648 97.9522 193.648 99.2477 193.669 100.522V155.477Z" fill="black"/>
<path d="M190.213 175.621L183.698 172.277L190.192 175.621H190.213ZM185.227 182.37L190.38 187.594L185.248 182.328L185.227 182.37ZM170.333 189.913L169.055 182.704L170.312 189.913L170.333 189.913ZM161.87 190.645L161.954 197.958H162.059L161.849 190.645L161.87 190.645ZM103.656 190.686L103.635 198H103.656V190.686ZM71.7737 182.349L66.6205 187.573L71.7737 182.328V182.349ZM63.4155 159.301L70.7472 159.113L63.4155 159.322L63.4155 159.301ZM63.3736 100.522L70.7054 100.585V100.564L63.3317 100.522L63.3736 100.522ZM64.1696 88.3193L56.9426 87.0238L64.1696 88.3402V88.3193ZM71.7946 73.6507L76.9478 78.8537L71.7946 73.6298V73.6507ZM95.1514 65.3761L95.0676 58.0627H94.942L95.1514 65.3761ZM152.088 65.3134V72.6269V58V65.3134ZM133.339 65.3134V58V72.6269V65.3134ZM153.344 65.3134L153.365 58V65.3134L153.344 65.3134ZM170.333 66.1074L169.055 73.3164L170.312 66.1074L170.333 66.1074ZM185.227 73.6507L180.074 78.8328L185.248 73.6716L185.227 73.6507ZM190.213 80.4L183.698 83.7433L190.192 80.4H190.213ZM193.606 96.6984L186.274 96.8865L193.606 96.6776V96.6984ZM186.337 150.922V155.436L201 155.519V150.922H186.337ZM186.337 155.436C186.337 156.689 186.316 157.901 186.274 159.113L200.938 159.531L201 155.519L186.337 155.436ZM186.274 159.113C186.211 161.767 186.065 164.149 185.646 166.343L200.079 168.976C200.686 165.674 200.854 162.415 200.917 159.51L186.274 159.113ZM185.646 166.364C185.299 168.415 184.642 170.402 183.698 172.257L196.727 178.943C198.403 175.683 199.451 172.382 200.079 168.976L185.646 166.364ZM183.698 172.257C182.757 174.074 181.534 175.731 180.074 177.167L190.38 187.552C192.936 185.044 195.093 182.119 196.727 178.943L183.698 172.257ZM180.074 177.167C178.607 178.609 176.932 179.821 175.088 180.719L181.666 193.8C184.88 192.185 187.821 190.076 190.38 187.552L180.074 177.167ZM175.067 180.719C173.224 181.68 171.276 182.286 169.055 182.683L171.611 197.101C175.107 196.501 178.495 195.388 181.666 193.8L175.067 180.74V180.719ZM169.055 182.683C166.793 183.101 164.363 183.248 161.661 183.31L162.059 197.937C164.991 197.854 168.28 197.687 171.611 197.101L169.055 182.683ZM161.765 183.31C156.361 183.373 154.853 183.373 153.344 183.373V198C154.915 198 156.487 198 161.933 197.937L161.765 183.31ZM153.344 183.373H121.357V198H153.365V183.373H153.344ZM121.336 183.373H103.656V198H121.336V183.373ZM103.677 183.373C97.728 183.373 96.5339 183.352 95.34 183.31L94.942 197.937C96.3455 197.979 97.749 197.979 103.635 198L103.677 183.373ZM95.34 183.31C92.6377 183.248 90.2078 183.101 87.9664 182.683L85.3898 197.101C88.7414 197.687 92.0093 197.854 94.942 197.937L95.361 183.31H95.34ZM87.9664 182.683C85.8699 182.338 83.8366 181.683 81.9334 180.74L75.3348 193.8C78.5064 195.38 81.8945 196.486 85.3898 197.08L87.9664 182.683ZM81.9334 180.74C80.087 179.818 78.3975 178.612 76.9268 177.167L66.6205 187.552C69.1777 190.085 72.1184 192.2 75.3348 193.821L81.9334 180.74ZM76.9268 177.167C75.4673 175.731 74.2443 174.073 73.3029 172.257L60.2733 178.943C61.9218 182.128 64.0639 185.033 66.6205 187.552L76.9268 177.167ZM73.3238 172.257C72.3719 170.396 71.708 168.402 71.3547 166.343L56.9217 168.976C57.5501 172.382 58.5975 175.683 60.2733 178.943L73.3238 172.257ZM71.3547 166.343C70.9567 164.149 70.8101 161.788 70.7263 159.113L56.0628 159.531C56.1466 162.415 56.3352 165.674 56.9217 168.976L71.3757 166.343H71.3547ZM70.7263 159.113L70.6844 155.436L56.0209 155.519C56.0209 156.836 56.0209 158.173 56.0628 159.51L70.7263 159.092V159.113ZM70.6844 155.415L70.6635 150.922H56V155.519L70.6635 155.415H70.6844ZM70.6635 150.922V135.815H56V150.922H70.6635ZM70.6635 135.815V120.185H56V135.815H70.6635ZM70.6635 120.185V105.078H56V120.185H70.6635ZM70.6635 105.078V100.585L56 100.46V105.078H70.6635ZM70.6635 100.564C70.6635 99.3104 70.7053 98.0984 70.7263 96.8865L56.0628 96.4686L56.0209 100.48L70.6844 100.564H70.6635ZM70.7263 96.8865C70.8101 94.2118 70.9567 91.8507 71.3547 89.6358L56.9217 87.0238C56.4007 90.1531 56.1206 93.3176 56.0838 96.4895L70.7472 96.8865H70.7263ZM71.3547 89.6566C71.708 87.5976 72.3719 85.6039 73.3238 83.7433L60.2733 77.0567C58.5975 80.3164 57.5501 83.6178 56.9217 87.0238L71.3757 89.6566H71.3547ZM73.3238 83.7433C74.2595 81.9345 75.4755 80.2844 76.9268 78.8537L66.6205 68.4269C64.061 70.9509 61.9187 73.8636 60.2733 77.0567L73.3238 83.7433ZM76.9268 78.8328C78.3932 77.3911 80.0691 76.2 81.9334 75.2806L75.3348 62.1791C72.1179 63.7989 69.177 65.9144 66.6205 68.4477L76.9268 78.8328ZM81.9334 75.2806C83.7977 74.3194 85.725 73.7134 87.9664 73.3164L85.3898 58.8985C81.9543 59.5254 78.6236 60.5493 75.3348 62.2L81.9334 75.2597V75.2806ZM87.9664 73.3164C90.2078 72.8985 92.6377 72.7522 95.34 72.6895L94.942 58.0627C92.0093 58.1463 88.7204 58.3134 85.3898 58.8985L87.9664 73.3164ZM95.2352 72.6895C100.64 72.6268 102.148 72.6269 103.656 72.6269V58C102.085 58 100.514 58 95.0676 58.0627L95.2352 72.6895ZM103.656 72.6269H121.336V58H103.656V72.6269ZM121.336 72.6269H152.088V58H121.357V72.6269H121.336ZM152.088 58H133.339V72.6269H152.088V58ZM133.339 72.6269H153.344V58H133.339V72.6269ZM153.323 72.6269C159.273 72.6269 160.467 72.6477 161.661 72.6895L162.08 58.0627C160.655 58.0209 159.252 58.0209 153.365 58L153.323 72.6269ZM161.661 72.6895C164.384 72.7522 166.793 72.8985 169.055 73.3164L171.611 58.8985C168.452 58.3829 165.259 58.1036 162.059 58.0627L161.661 72.6895ZM169.055 73.3164C171.276 73.7134 173.224 74.3194 175.067 75.2597L181.666 62.2C178.494 60.6189 175.106 59.5135 171.611 58.9194L169.055 73.3164ZM175.088 75.2597C176.927 76.1831 178.61 77.3888 180.074 78.8328L190.38 68.4477C187.823 65.915 184.882 63.7995 181.666 62.1791L175.088 75.2597ZM180.074 78.8537C181.54 80.2745 182.755 81.9463 183.698 83.7433L196.727 77.0567C195.083 73.8631 192.94 70.9502 190.38 68.4269L180.074 78.8537ZM183.698 83.7433C184.64 85.5611 185.248 87.4627 185.646 89.6358L200.079 87.0238C199.451 83.6178 198.403 80.3164 196.727 77.0567L183.698 83.7433ZM185.646 89.6358C186.065 91.8507 186.211 94.2328 186.274 96.8865L200.938 96.4686C200.854 93.585 200.686 90.3254 200.079 87.0238L185.646 89.6358ZM186.274 96.8865C186.316 98.0984 186.316 99.3104 186.337 100.564L201 100.48L200.938 96.4895L186.274 96.9075V96.8865ZM186.337 100.564V105.078H201V100.48L186.337 100.564ZM186.337 105.078V120.185H201V105.078H186.337ZM186.337 120.185V135.815H201V120.185H186.337ZM186.337 135.815V150.922H201V135.815H186.337Z" fill="url(#linearGradient)"/>
<path fill-rule="evenodd" clip-rule="evenodd" d="M114.612 119.287C114.612 118.723 115.073 118.243 115.659 118.243H134.931C135.518 118.243 135.979 118.723 135.979 119.287V121.377C135.979 121.654 135.868 121.92 135.672 122.116C135.476 122.312 135.209 122.422 134.931 122.422H115.659C115.381 122.422 115.115 122.312 114.919 122.116C114.722 121.92 114.612 121.654 114.612 121.377V119.287ZM107.427 107.502C107.502 107.434 107.559 107.347 107.594 107.251C107.628 107.155 107.638 107.053 107.624 106.952C107.61 106.851 107.571 106.755 107.511 106.673C107.451 106.59 107.372 106.524 107.28 106.478L99.8019 102.508C99.6624 102.436 99.5548 102.315 99.5006 102.168C99.4464 102.021 99.4491 101.859 99.5085 101.714L104.662 88.9263C104.892 88.3204 104.138 87.798 103.656 88.2368L87.4217 102.864C87.3471 102.927 87.2883 103.006 87.2499 103.096C87.2116 103.186 87.1948 103.283 87.2009 103.381C87.207 103.478 87.2359 103.573 87.2851 103.657C87.3343 103.742 87.4025 103.813 87.4845 103.867L94.6905 108.735C94.8093 108.816 94.8969 108.934 94.9388 109.071C94.9807 109.208 94.9744 109.355 94.9209 109.487L90.2287 121.419C89.9773 122.046 90.7314 122.547 91.2342 122.108L107.427 107.481V107.502Z" fill="white"/>
<linearGradient id="linearGradient" x1="130.826" y1="65.3134" x2="130.826" y2="197.645" gradientUnits="userSpaceOnUse">
<stop stop-color="#F743B6"/>
<stop offset="1" stop-color="#FCC043"/>
</linearGradient>
</svg>