<svg width="256" height="256" title="i18next" viewBox="0 0 256 256" fill="none" xmlns="http://www.w3.org/2000/svg" id="i18next">
<style>
#i18next {
    rect {fill: #15191C}

    @media (prefers-color-scheme: light) {
        rect {fill: #F4F2ED}
    }
}
</style>
<rect width="256" height="256" rx="40" fill="#15191C"/>
<path d="M121.182 130.088C121.182 134.989 117.671 138.962 113.341 138.962C109.01 138.962 105.5 134.989 105.5 130.088C105.5 125.187 109.01 121.214 113.341 121.214C117.671 121.214 121.182 125.187 121.182 130.088Z" fill="white"/>
<path d="M147.318 123.302C147.318 129.068 143.34 133.742 138.432 133.742C133.524 133.742 129.545 129.068 129.545 123.302C129.545 117.536 133.524 112.862 138.432 112.862C143.34 112.862 147.318 117.536 147.318 123.302Z" fill="white"/>
<path d="M90.8636 146.27H164.045L181.818 188.031L175.545 205.78H83.5455L75.1818 187.509L90.8636 146.27Z" fill="white"/>
<path d="M109.248 62.1371H148.651L148.779 62.265L148.907 93.2142L149.292 94.3652L151.089 98.9692L152.629 103.062L155.325 109.84L157.763 116.106L159.175 119.687L161.229 124.931L163.924 131.837L164.951 134.394L166.106 137.464L168.16 142.707L170.727 149.23L172.138 152.683L173.935 157.414L175.86 162.274L177.401 166.239L178.684 169.564L180.994 175.319L183.561 181.969L184.717 185.039L185.487 187.468L185.872 189.131L186 190.282V193.863L185.487 196.421L184.588 198.723L183.433 200.769L182.535 201.92L181.123 203.455L179.968 204.606L178.171 205.884L176.246 207.035L174.192 208.059L172.267 208.826L169.571 209.721L167.004 210.361L164.694 210.744L163.282 210.872L158.79 211H95.6429L92.6908 210.744L90.2522 210.361L87.8136 209.721L85.2467 208.826L82.1663 207.547L80.2411 206.524L78.1875 205.245L76.904 204.222L75.6205 203.071L74.5937 202.048L73.0536 199.874L72.0268 197.7L71.2567 195.014L71.1283 194.247L71 191.561L71.2567 188.492L72.0268 185.294L73.4386 181.586L74.9788 177.877L76.904 173.145L81.7812 160.995L83.1931 157.542L85.2467 152.427L87.5569 146.8L88.9687 143.219L91.1507 137.847L97.0547 123.14L98.5949 119.431L100.263 115.211L101.675 111.758L105.397 102.55L107.323 97.8182L108.734 94.621L108.863 94.3652L108.991 72.8798V63.0324L109.248 62.1371ZM137.613 113.293L135.559 113.804L134.147 114.572L132.735 115.851L131.58 117.513L130.81 119.048L130.297 120.71L130.169 121.606V124.419L130.554 126.465L131.195 128.128L132.35 129.918L133.506 131.197L135.302 132.348L137.356 132.988H139.41L141.463 132.348L142.747 131.581L144.287 130.174L145.442 128.384L146.084 126.977L146.469 125.186L146.597 124.035V122.117L146.212 119.815L145.57 118.153L144.8 116.746L143.645 115.339L142.233 114.316L141.078 113.676L139.281 113.293H137.613ZM112.2 122.245L110.531 122.757L109.376 123.524L108.221 124.547L107.066 126.337L106.424 128.128L106.167 129.663V131.581L106.552 133.371L107.194 135.034L108.221 136.569L109.376 137.72L110.916 138.487L111.686 138.743L113.483 138.871L115.023 138.615L116.564 137.847L117.847 136.696L118.874 135.29L119.516 133.883L119.901 132.732L120.029 131.837V129.151L119.516 127.105L118.489 125.059L117.462 123.908L116.435 123.14L115.152 122.501L113.997 122.245H112.2ZM124.65 147.439L119.644 147.695L114.767 148.079L109.504 148.718L105.782 149.357L101.419 150.253L97.3114 151.276L94.231 152.171L93.5893 153.194L91.6641 157.926L90.5089 160.612L89.2254 163.681L88.0703 166.495L85.8884 171.61L84.2199 175.575L82.1663 180.562L81.3962 182.609L80.7545 185.039L80.4978 186.573V189.515L81.0112 191.945L81.7812 193.863L82.9364 195.653L84.4766 197.316L86.2734 198.851L87.942 199.874L89.8672 200.897L92.1775 201.792L95.2578 202.687L99.2366 203.327H157.763L161.871 202.687L165.079 201.792L167.518 200.769L169.443 199.746L171.24 198.467L173.037 196.932L174.064 195.781L175.219 193.991L175.86 192.456L176.374 190.154L176.502 188.619V187.341L176.246 185.039L175.475 182.353L174.192 179.284L172.138 174.296L170.213 169.436L167.775 163.553L166.106 159.333L163.796 153.578L163.539 153.066L162.127 152.427L159.56 151.659L157.763 151.148L153.913 150.253L150.961 149.613L147.496 148.974L144.8 148.59L140.693 148.079L133.249 147.567L130.939 147.439H124.65Z" fill="#039686"/>
<path d="M107.836 45L150.191 45.1279L151.346 45.3837L152.629 45.8952L154.298 47.4299L155.068 48.453L155.71 50.3713L155.838 52.1618L155.453 54.208L154.94 55.4869L154.17 56.51L153.656 57.1495L152.373 58.0447L150.576 58.6841L148.907 58.812H107.194L105.654 58.5562L103.985 57.661L102.702 56.51L101.804 55.1032L101.29 53.5686L101.162 52.9291V51.0108L101.547 49.3482L102.317 47.9414L103.472 46.6626L104.371 45.8952L105.782 45.2558L107.836 45Z" fill="#044F41"/>
<path d="M153.656 76.3328H157.763L159.817 76.5886L161.871 76.9723L164.181 77.7396L166.363 78.6348L168.673 79.9137L170.727 81.3205L171.882 82.2157V82.4715L172.395 82.7273L174.449 84.7735L175.604 86.1803L176.374 87.2034L177.401 88.7381L178.556 90.6564L179.583 92.5747L180.224 93.8536V94.4931L179.839 94.8767L176.887 96.2835L174.962 97.0509L172.01 97.8182L170.727 98.074L169.186 98.2018H165.978L163.796 97.9461L161.229 97.3066L159.689 96.7951L157.892 95.8998L156.48 95.1325L154.683 93.8536L153.015 92.4468L151.988 91.2958V76.5886L152.116 76.4607L153.656 76.3328Z" fill="#044F41"/>
<path d="M100.007 76.3328H103.087L105.397 76.4607L105.654 76.9723V91.2958L105.397 91.6795H105.141L105.012 92.0632L103.985 92.9584L102.445 94.2373L101.162 95.1325L99.75 95.8998L97.9531 96.7951L95.2578 97.6903L93.5893 98.074L91.279 98.3297H89.0971L86.0167 97.9461L83.4498 97.3066L80.8828 96.4114L78.8292 95.3883L77.6741 94.7488L77.2891 94.3652L77.4174 93.7257L79.0859 90.5285L80.7545 87.9707L82.0379 86.1803L83.5781 84.3898L85.5033 82.4715L86.9152 81.3205L88.5837 80.1695L89.9955 79.2743L92.1775 78.2512L93.7176 77.6117L95.8996 76.9723L96.9263 76.7165L100.007 76.3328Z" fill="#044F41"/>
<path d="M143.132 158.31H145.185L147.496 158.565L149.421 159.077L151.218 159.844L152.501 160.74L153.528 161.763L154.041 162.786L154.298 163.553V164.704L153.785 166.111L153.015 167.134L152.116 168.029L150.319 169.052L148.907 169.564L147.496 169.948L146.34 170.076H142.49L140.95 169.82L139.025 169.308L136.971 168.285L135.431 166.878L134.789 165.855L134.532 165.088V163.297L135.046 162.146L135.944 160.995L137.099 160.1L138.768 159.205L141.078 158.565L143.132 158.31Z" fill="#045042"/>
<path d="M108.606 158.31L111.301 158.438L114.125 159.077L116.05 159.972L117.462 160.995L118.36 162.018L118.874 163.297L119.002 164.321L118.617 165.855L117.847 167.006L116.692 168.029L115.794 168.669L113.997 169.436L111.943 169.948L110.916 170.076H107.323L105.782 169.82L103.729 169.308L101.804 168.285L100.648 167.39L99.75 166.367L99.2366 165.088L99.1083 163.937L99.365 162.786L100.135 161.507L101.419 160.356L103.6 159.205L105.911 158.565L108.606 158.31Z" fill="#044F41"/>
</svg>