<svg width="256" height="256" title="Iceberg" viewBox="0 0 256 256" fill="none" xmlns="http://www.w3.org/2000/svg" id="iceberg">
<style>
#iceberg {
    rect {fill: #15191C}

    @media (prefers-color-scheme: light) {
        rect {fill: #F4F2ED}
    }
}
</style>
<rect width="256" height="256" rx="40" fill="#15191C"/>
<path d="M199.274 83.0178C205.799 90.3078 208.693 99.3835 210.764 108.528C221.409 155.624 193.103 200.905 145.937 211.04C94.3894 222.118 50.6002 186.118 44.025 141.024C41.1119 122.482 44.4492 103.497 53.5133 87.0603C54.3484 85.5196 54.8952 83.6753 56.8307 82.9883L81.1727 83.3906L72.8709 100.944C72.8709 101.546 72.8709 102.147 72.8709 102.749C78.8661 120.145 90.0413 134.441 100.646 149.07C101.786 155.28 100.941 161.825 103.709 167.761C111.44 176.493 119.169 185.232 126.894 193.978C127.464 194.625 128.15 195.037 128.856 194.076C132.389 191.917 133.42 187.953 135.372 184.725C139.806 177.426 144.624 170.322 148.127 162.482L149.205 160.775C153.543 159.087 156.28 155.202 160.118 152.838C161.4 152.133 162.448 151.066 163.13 149.769C163.813 148.473 164.098 147.005 163.952 145.547C163.727 138.218 163.873 130.83 163.863 123.53C165.603 121.81 167.24 119.992 168.771 118.085C172.509 112.835 178.395 109.254 180.592 102.837C180.98 102.888 181.375 102.822 181.726 102.647C182.074 102.472 182.362 102.196 182.554 101.856C184.105 99.5015 182.438 97.5293 181.762 95.4589C180.466 91.4754 177.984 87.8842 177.729 83.5477L199.274 83.0178Z" fill="#287ABE"/>
<path d="M81.1826 83.3906L56.8406 82.9883C60.0486 74.6387 66.3951 68.6634 72.9504 63.1689C84.2316 53.7006 97.1731 47.1661 111.785 44.5267C137.198 40.0036 160.313 45.5079 180.771 61.3439C188.394 67.2309 195.31 73.9028 199.294 82.9883L177.709 83.4592L160.048 83.2435V77.2877L172.705 77.2191L173.116 76.9934L172.715 76.3263C170.584 74.2374 168.039 72.6178 165.241 71.5718C162.448 70.5258 159.465 70.0765 156.486 70.2529C139.08 70.665 121.664 70.4197 104.259 70.3804C98.1541 70.3804 93.0736 72.9903 88.1787 76.2183C83.6649 76.4145 83.5854 80.2704 82.4188 83.214L81.1826 83.3906Z" fill="#B8E1F2"/>
<path d="M72.8708 102.729C72.8708 102.128 72.8708 101.526 72.8708 100.924C83.0451 97.9021 92.3875 92.8786 101.962 88.4632C104.994 87.0603 109.173 87.178 110.794 83.2925C116.62 83.5378 122.566 82.3112 128.286 84.0578C128.332 97.7941 128.379 111.563 128.425 125.365H127.524C116.345 120.586 105.25 115.622 93.975 111.099C86.9789 108.322 80.5728 103.887 72.8708 102.729Z" fill="#B6E0F2"/>
<path d="M72.8708 102.729C80.5628 103.877 86.969 108.302 94.0048 111.128C105.279 115.651 116.375 120.616 127.55 125.394C126.659 129.584 122.509 130.585 119.898 133.047C113.942 138.679 106.82 142.967 101.14 148.942C100.984 149.012 100.819 149.053 100.65 149.06C90.0511 134.431 78.8759 120.145 72.8708 102.729Z" fill="#90D4F0"/>
<path d="M163.873 123.491C163.873 130.83 163.737 138.208 163.962 145.508C164.108 146.966 163.823 148.434 163.14 149.73C162.458 151.026 161.41 152.093 160.128 152.798C156.29 155.163 153.553 159.048 149.214 160.736C144.585 154.849 141.701 147.824 137.549 141.642C134.725 137.443 133.555 132.027 128.72 129.28C128.72 128.351 128.737 127.422 128.77 126.493L130.642 125.512C131.487 126.552 132.674 126.415 133.771 126.317C143.786 125.401 153.821 124.459 163.873 123.491Z" fill="#4D8AC8"/>
<path d="M103.709 167.771C100.941 161.825 101.747 155.29 100.656 149.07C100.829 149.062 100.994 149.022 101.147 148.952C109.979 149.325 118.808 149.551 127.58 150.914C127.58 157.783 127.564 164.651 127.53 171.519C125.761 171.45 123.998 171.26 122.254 170.95C116.054 169.988 110.068 167.791 103.709 167.771Z" fill="#B6E0F2"/>
<path d="M100.322 149.077C105.293 144.106 106.95 144.106 108.607 142.449C110.264 140.792 113.16 139.552 115.235 137.477C120.206 132.506 123.52 129.192 128.541 125.158C128.492 129.192 128.525 142.209 128.491 149.077C126.834 154.048 126.921 151.044 125.177 150.734C121.2 150.026 106.681 149.097 100.322 149.077Z" fill="#B6E0F2"/>
<path d="M127.524 171.509C127.524 164.641 127.537 157.773 127.57 150.904C129.602 143.781 127.885 136.462 128.68 129.319C133.526 132.066 134.705 137.492 137.509 141.682C141.672 147.873 144.545 154.859 149.178 160.775L148.098 162.482L128.366 171.558C128.084 171.57 127.802 171.553 127.524 171.509Z" fill="#58AFDD"/>
<path d="M159.999 83.273L177.659 83.4888C177.915 87.8256 180.397 91.4168 181.693 95.4003C182.369 97.4802 184.036 99.4425 182.488 101.797C182.1 101.766 181.716 101.841 181.368 102.014C181.023 102.187 180.732 102.451 180.523 102.778C176.844 103.465 173.656 105.418 170.329 106.909C167.005 108.401 164.052 110.893 160.115 110.785C160.115 101.68 160.101 92.5777 160.068 83.4792L159.999 83.273Z" fill="#4D8AC8"/>
<path d="M160.134 110.795C164.062 110.903 167.005 108.401 170.348 106.919C173.696 105.437 176.864 103.475 180.543 102.788C178.335 109.215 172.46 112.786 168.721 118.036C167.19 119.943 165.553 121.761 163.816 123.481C153.775 124.429 143.733 125.375 133.695 126.317C132.594 126.415 131.408 126.552 130.563 125.512C137.499 122.303 144.485 119.203 151.345 115.838C154.384 114.366 157.907 113.669 160.134 110.795Z" fill="#266FA8"/>
<path d="M127.524 171.509C127.812 171.539 128.104 171.539 128.395 171.509C128.551 179.018 128.707 186.541 128.856 194.076C128.15 195.057 127.474 194.615 126.894 193.978C119.156 185.258 111.427 176.532 103.709 167.8C110.058 167.8 116.044 170.018 122.244 170.979C123.988 171.276 125.754 171.453 127.524 171.509Z" fill="#90D4F0"/>
<path d="M110.834 83.3121C109.173 87.237 104.994 87.0799 102.002 88.4828C92.4274 92.8981 83.0849 97.9217 72.9106 100.944L81.2224 83.3907L82.4387 83.2336L110.834 83.3121Z" fill="#90D4F0"/>
<path d="M128.846 194.046C128.697 186.537 128.541 179.015 128.385 171.479L148.118 162.404C144.615 170.253 139.796 177.347 135.362 184.647C133.459 187.914 132.379 191.878 128.846 194.046Z" fill="#266FA8"/>
<path d="M180.553 102.808C180.761 102.481 181.053 102.217 181.398 102.044C181.746 101.871 182.13 101.796 182.518 101.827C182.326 102.167 182.034 102.442 181.686 102.617C181.335 102.792 180.94 102.858 180.553 102.808Z" fill="#266FA8"/>
<path d="M88.1488 76.2378C93.0537 73.01 98.1276 70.351 104.229 70.4001C121.644 70.4001 139.06 70.6846 156.456 70.2725C159.438 70.0947 162.428 70.5441 165.225 71.5919C168.025 72.6397 170.571 74.2625 172.705 76.3558C172.705 76.6567 172.705 76.9577 172.705 77.2582L159.949 77.3272H94.3098C92.1921 77.3272 90.0511 77.4548 88.1488 76.2378Z" fill="#F4FAFD"/>
<path d="M88.1488 76.2378C90.0511 77.4548 92.1921 77.3172 94.3098 77.3172H159.949V83.273L160.028 83.4888L128.326 84.0873C122.556 82.3507 116.66 83.5673 110.834 83.3221L82.379 83.2535C83.5655 80.2903 83.635 76.4344 88.1488 76.2378Z" fill="#E9F6FD"/>
<path d="M172.705 77.2191C172.705 76.9182 172.705 76.6173 172.705 76.3164L173.106 76.9835L172.705 77.2191Z" fill="#E9F6FD"/>
<path d="M128.326 84.0873L160.088 83.5083C160.088 92.6135 160.105 101.716 160.134 110.814C157.907 113.689 154.394 114.386 151.385 115.867C144.515 119.233 137.539 122.333 130.602 125.541L128.73 126.523L128.465 125.414L128.326 84.0873Z" fill="#68C1EA"/>
</svg>