<svg width="256" height="256" title="InfluxDB" viewBox="0 0 256 256" fill="none" xmlns="http://www.w3.org/2000/svg">
<rect width="256" height="256" rx="40" fill="#5EE4E4"/>
<path fill-rule="evenodd" clip-rule="evenodd" d="M164.424 157.575L199.791 149.44C200.336 149.33 200.851 149.106 201.305 148.785C201.76 148.463 202.143 148.05 202.429 147.572C202.715 147.094 202.898 146.561 202.968 146.008C203.038 145.454 202.992 144.893 202.833 144.358L187.793 78.9178C187.522 77.8378 186.834 76.9101 185.882 76.3379C184.929 75.7656 183.789 75.5958 182.712 75.8655L147.36 83.9999C146.29 84.2754 145.372 84.9646 144.807 85.917C144.243 86.8694 144.077 88.0073 144.346 89.0821L159.343 154.522C159.614 155.602 160.302 156.53 161.255 157.102C162.207 157.674 163.347 157.844 164.424 157.575Z" fill="#020A47"/>
<path fill-rule="evenodd" clip-rule="evenodd" d="M152.238 198.013L195.117 158.188C196.733 156.552 196.325 155.545 194.098 156.348L164.628 163.066C163.409 163.368 162.286 163.973 161.362 164.825C160.439 165.678 159.744 166.75 159.343 167.943L150.403 196.8C149.791 199.035 150.607 199.648 152.238 198.013Z" fill="#020A47"/>
<path fill-rule="evenodd" clip-rule="evenodd" d="M74.0071 185.015L138.216 204.92C139.313 205.126 140.447 204.932 141.416 204.376C142.384 203.82 143.123 202.935 143.502 201.883L154.261 167.33C154.417 166.791 154.466 166.226 154.403 165.669C154.341 165.111 154.17 164.571 153.899 164.08C153.629 163.589 153.264 163.156 152.827 162.807C152.389 162.457 151.887 162.198 151.35 162.043L87.1403 142.328C86.0532 142.016 84.8875 142.148 83.8973 142.695C82.9071 143.242 82.1728 144.16 81.855 145.249L71.1679 179.729C70.8505 180.807 70.9708 181.968 71.5025 182.958C72.0344 183.948 72.9345 184.688 74.0071 185.015Z" fill="#020A47"/>
<path fill-rule="evenodd" clip-rule="evenodd" d="M53.2735 114.288L66.2901 171.463C66.6978 173.697 67.7461 173.697 68.314 171.463L77.2537 142.605C77.5584 141.376 77.5708 140.092 77.2901 138.856C77.0094 137.621 76.4434 136.469 75.6376 135.493L55.1081 113.266C53.6812 111.587 52.6183 112.054 53.2735 114.288Z" fill="#020A47"/>
<path fill-rule="evenodd" clip-rule="evenodd" d="M103.476 53.1707L54.293 98.8373C53.5039 99.5908 53.0407 100.624 53.0026 101.716C52.9644 102.808 53.3545 103.872 54.0891 104.679L78.6809 131.36C79.4387 132.167 80.4833 132.64 81.5874 132.679C82.6916 132.717 83.7662 132.317 84.5777 131.565L133.747 85.8251C134.542 85.0757 135.011 84.0408 135.049 82.9465C135.087 81.8521 134.692 80.7871 133.95 79.9836L109.402 53.3168C109.025 52.9137 108.571 52.5898 108.068 52.364C107.564 52.1381 107.021 52.0148 106.47 52.0013C105.919 51.9877 105.37 52.0841 104.856 52.2848C104.342 52.4856 103.873 52.7867 103.476 53.1707Z" fill="#020A47"/>
<path fill-rule="evenodd" clip-rule="evenodd" d="M151.015 156.552C153.257 157.166 154.669 155.954 154.072 153.632L139.847 91.8568C139.236 89.6224 137.401 89.0091 135.785 90.6301L89.4555 133.799C87.8248 135.42 88.2324 137.246 90.4601 137.859L151.015 156.552Z" fill="#020A47"/>
<path fill-rule="evenodd" clip-rule="evenodd" d="M175.199 70.3891L119.114 53.171C116.886 52.5576 116.478 53.3754 118.298 55.2009L138.828 77.3552C139.749 78.2186 140.863 78.8482 142.076 79.1912C143.289 79.5342 144.567 79.5806 145.802 79.3266L175.271 72.6235C177.441 72.0101 177.441 70.9878 175.199 70.3891Z" fill="#020A47"/>
</svg>