<svg width="256" height="256" title="Insomnia" viewBox="0 0 256 256" fill="none" xmlns="http://www.w3.org/2000/svg">
<rect width="256" height="256" rx="40" fill="#4000BF"/>
<path d="M129.489 66.2124C163.89 66.2124 191.777 94.0994 191.777 128.501C191.777 162.901 163.89 190.788 129.489 190.788C95.0881 190.788 67.2011 162.901 67.2011 128.501C67.2011 120.093 68.8666 112.075 71.886 104.758C76.2946 110.761 83.404 114.659 91.4241 114.659C104.802 114.659 115.647 103.813 115.647 90.4353C115.647 82.4152 111.75 75.3058 105.746 70.8973C113.064 67.8785 121.081 66.2124 129.489 66.2124ZM128.5 41C80.1752 41 41 80.1752 41 128.5C41 176.825 80.1752 216 128.5 216C176.825 216 216 176.825 216 128.5C216 80.1752 176.825 41 128.5 41ZM128.5 49.898C171.91 49.898 207.102 85.0898 207.102 128.5C207.102 171.91 171.91 207.102 128.5 207.102C85.0898 207.102 49.898 171.91 49.898 128.5C49.898 85.0898 85.0898 49.898 128.5 49.898Z" fill="white"/>
</svg>