<svg width="256" height="256" title="IntelliJ IDEA" viewBox="0 0 256 256" fill="none" xmlns="http://www.w3.org/2000/svg" id="intellijidea">
<style>
#intellijidea {
    rect {fill: #15191C}

    @media (prefers-color-scheme: light) {
        rect {fill: #F4F2ED}
    }
}
</style>
<rect width="256" height="256" rx="40" fill="#15191C"/>
<path d="M89.6289 65.115H60.8571C55.4078 65.115 51 69.5464 51 74.9705V102.842C51 105.724 52.2594 108.46 54.4391 110.324L146.858 189.532C148.65 191.057 150.927 191.905 153.276 191.905H182.048C187.497 191.905 191.905 187.498 191.905 182.049V154.178C191.905 151.296 190.646 148.56 188.466 146.695L96.0469 67.4881C94.2547 65.9626 91.9782 65.115 89.6289 65.115Z" fill="#FF8100"/>
<path d="M86.1656 65.115H60.8571C55.4078 65.115 51 69.5222 51 74.9705V106.668C51 107.128 51.0242 107.612 51.0969 108.072L63.8844 197.523C64.5867 202.39 68.7282 205.998 73.6446 205.998H111.595C117.045 205.998 121.452 201.591 121.452 196.142V151.248C121.452 150.182 121.259 149.141 120.944 148.124L95.5141 71.8468C94.1821 67.8271 90.4039 65.115 86.1656 65.115Z" fill="url(#linearGradient1)"/>
<path d="M196.143 51.0242H113.872C109.924 51.0242 106.364 53.3731 104.814 57.0053L65.8941 147.787C65.3613 149.022 65.0949 150.33 65.0949 151.662V196.12C65.0949 201.569 69.5027 205.976 74.952 205.976H118.473C120.411 205.976 122.324 205.395 123.947 204.305L201.616 152.485C204.353 150.645 206 147.569 206 144.276V60.8555C206 55.4071 201.592 51 196.143 51V51.0242Z" fill="url(#linearGradient2)"/>
<path d="M176.938 80.0626H80.0626V176.938H176.938V80.0626Z" fill="black"/>
<path d="M113.581 122.179H106.364V98.5173H113.581V92.1962H92.1719V98.5173H99.3891V122.179H92.1719V128.5H113.581V122.179ZM127.822 92.172V116.56C127.822 117.626 127.604 118.546 127.144 119.37C126.684 120.193 126.054 120.823 125.231 121.283C124.407 121.743 123.463 121.961 122.421 121.961H117.214V128.5H123.317C125.521 128.5 127.483 128.016 129.251 127.023C131.019 126.03 132.399 124.674 133.392 122.93C134.385 121.186 134.894 119.224 134.894 117.045V92.172H127.822ZM92.1719 164.828H130.922V157.563H92.1719V164.828Z" fill="white"/>
<linearGradient id="linearGradient1" x1="47.1636" y1="55.7954" x2="85.3619" y2="220.54" gradientUnits="userSpaceOnUse">
<stop offset="0.1" stop-color="#FC801D"/>
<stop offset="0.59" stop-color="#FE2857"/>
</linearGradient>
<linearGradient id="linearGradient2" x1="46.7374" y1="196.383" x2="188.28" y2="40.6797" gradientUnits="userSpaceOnUse">
<stop offset="0.21" stop-color="#FE2857"/>
<stop offset="0.7" stop-color="#007EFF"/>
</linearGradient>
</svg>