<svg width="256" height="256" title="iOS" viewBox="0 0 256 256" fill="none" xmlns="http://www.w3.org/2000/svg" id="ios">
<style>
#ios {
    rect {fill: #15191C}
    path {fill: white}

    @media (prefers-color-scheme: light) {
        rect {fill: #F4F2ED}
        path {fill: #212121}
    }
}
</style>
<rect width="256" height="256" rx="40" fill="#15191C"/>
<path d="M48.7438 166.73H61.975V110.68H48.7438V166.73ZM55.3329 103.33C59.4776 103.33 62.7189 100.157 62.7189 96.1914C62.7189 92.1726 59.4776 89 55.3329 89C51.2413 89 48 92.1727 48 96.1914C48 100.157 51.2413 103.33 55.3329 103.33ZM106.027 89.1582C83.6572 89.1582 69.6283 104.334 69.6283 128.606C69.6283 152.877 83.6558 168 106.027 168C128.345 168 142.373 152.877 142.373 128.606C142.373 104.334 128.346 89.1582 106.027 89.1582ZM106.027 100.791C119.684 100.791 128.398 111.579 128.398 128.605C128.398 145.579 119.683 156.366 106.027 156.366C92.3182 156.366 83.6572 145.579 83.6572 128.605C83.6572 111.579 92.3185 100.791 106.027 100.791ZM147.955 145.262C148.539 159.328 160.123 168 177.764 168C196.31 168 208 158.905 208 144.416C208 133.047 201.411 126.649 185.842 123.107L177.021 121.097C167.616 118.876 163.737 115.915 163.737 110.839C163.737 104.494 169.582 100.263 178.243 100.263C187.011 100.263 193.015 104.547 193.653 111.685H206.725C206.406 98.2541 195.247 89.1587 178.35 89.1587C161.664 89.1587 149.815 98.3065 149.815 111.843C149.815 122.736 156.51 129.505 170.644 132.731L180.58 135.057C190.251 137.331 194.184 140.504 194.184 146.003C194.184 152.348 187.754 156.896 178.509 156.896C169.157 156.896 162.09 152.295 161.24 145.263L147.955 145.262Z" fill="white"/>
</svg>