<svg width="256" height="256" title="iPadOS" viewBox="0 0 256 256" fill="none" xmlns="http://www.w3.org/2000/svg" id="ipados">
<style>
#ipados {
    rect {fill: #15191C}
    path {fill: white}

    @media (prefers-color-scheme: light) {
        rect {fill: #F4F2ED}
        path {fill: #212121}
    }
}
</style>
<rect width="256" height="256" rx="40" fill="#15191C"/>
<path d="M48.7832 109.519C48.1945 109.173 47.5712 109 46.8439 109C46.1167 109 45.4587 109.173 44.9047 109.519C44.3159 109.864 43.8658 110.314 43.5195 110.902C43.1732 111.489 43 112.112 43 112.803C43 113.495 43.1732 114.117 43.5195 114.705C43.8658 115.293 44.3159 115.742 44.9047 116.088C45.4934 116.434 46.1167 116.606 46.8439 116.606C47.5712 116.606 48.2291 116.434 48.7832 116.088C49.3719 115.742 49.8221 115.293 50.1684 114.705C50.5147 114.117 50.6879 113.495 50.6879 112.803C50.6879 112.112 50.5147 111.489 50.1684 110.902C49.8221 110.314 49.3719 109.864 48.7832 109.519Z" fill="white"/>
<path d="M50.584 120.271H43.1732V147.412H50.584V120.271Z" fill="white"/>
<path d="M80.1581 114.324C79.0153 113.218 77.6993 112.354 76.141 111.766C74.5826 111.178 72.8858 110.867 71.0157 110.867H56.1248V147.412H63.7781V135.899H70.6348C72.5741 135.899 74.3402 135.588 75.9332 135C77.5262 134.412 78.9114 133.548 80.0542 132.441C81.197 131.335 82.0974 130.021 82.7553 128.5C83.3787 126.979 83.6903 125.25 83.6903 123.383C83.6903 121.516 83.3787 119.787 82.79 118.266C82.1666 116.745 81.3009 115.431 80.1581 114.324ZM74.0632 128.258C72.8511 129.364 71.1543 129.952 68.9379 129.952H63.7781V116.952H68.9726C71.1543 116.952 72.8858 117.505 74.0978 118.646C75.3099 119.753 75.8986 121.378 75.8986 123.452C75.8986 125.527 75.2752 127.117 74.0632 128.258Z" fill="white"/>
<path d="M104.018 120.824C102.287 120.064 100.278 119.684 97.9233 119.684C95.5338 119.684 93.456 120.064 91.6899 120.824C89.9237 121.585 88.5732 122.622 87.5689 123.936C86.5993 125.285 86.0452 126.806 85.9413 128.569H92.7288C92.9019 127.566 93.4214 126.771 94.2525 126.149C95.0836 125.527 96.1918 125.215 97.577 125.215C98.9968 125.215 100.105 125.561 100.901 126.253C101.733 126.944 102.148 127.947 102.148 129.191V130.989L95.2914 131.404C91.8977 131.612 89.3004 132.407 87.465 133.824C85.6296 135.242 84.7292 137.144 84.7292 139.633C84.7292 141.258 85.1102 142.676 85.9067 143.92C86.7032 145.165 87.7767 146.133 89.1619 146.824C90.5471 147.516 92.1054 147.862 93.8023 147.862C94.9451 147.862 96.0533 147.689 97.1268 147.309C98.2003 146.963 99.17 146.41 100.036 145.753C100.901 145.061 101.594 144.231 102.114 143.298H102.252V147.447H109.42V128.777C109.42 126.944 108.936 125.354 108.001 124.005C107.1 122.622 105.75 121.585 104.018 120.824ZM102.183 137.489C102.183 138.457 101.906 139.322 101.386 140.082C100.867 140.843 100.14 141.431 99.2392 141.88C98.3389 142.295 97.3692 142.537 96.2957 142.537C95.049 142.537 94.0447 142.226 93.2482 141.638C92.4864 141.051 92.1054 140.255 92.1054 139.218C92.1054 138.25 92.4864 137.489 93.2482 136.902C94.0101 136.314 95.0836 135.968 96.4688 135.864L102.217 135.519V137.489H102.183Z" fill="white"/>
<path d="M132.692 124.939C132.242 123.936 131.618 123.037 130.822 122.277C130.025 121.516 129.056 120.928 127.982 120.479C126.909 120.064 125.697 119.822 124.381 119.822C122.095 119.822 120.121 120.375 118.459 121.516C116.797 122.657 115.515 124.247 114.615 126.356C113.715 128.431 113.264 130.92 113.264 133.79C113.264 136.694 113.715 139.184 114.615 141.293C115.515 143.402 116.797 144.992 118.459 146.133C120.121 147.274 122.06 147.827 124.346 147.827C125.697 147.827 126.909 147.62 128.017 147.17C129.125 146.755 130.095 146.133 130.926 145.372C131.757 144.612 132.38 143.713 132.83 142.71H132.969V147.378H140.276V110.902H132.865V124.939H132.692ZM132.103 138.146C131.618 139.356 130.891 140.29 129.991 140.947C129.09 141.604 128.017 141.915 126.805 141.915C125.558 141.915 124.485 141.604 123.584 140.947C122.684 140.29 121.991 139.356 121.506 138.146C121.022 136.936 120.779 135.519 120.779 133.859C120.779 132.199 121.022 130.782 121.506 129.572C121.991 128.362 122.684 127.428 123.584 126.771C124.485 126.114 125.558 125.769 126.805 125.769C128.017 125.769 129.09 126.114 129.991 126.771C130.891 127.428 131.584 128.362 132.103 129.572C132.588 130.782 132.865 132.199 132.865 133.859C132.865 135.519 132.623 136.936 132.103 138.146Z" fill="white"/>
<path d="M175.183 115.327C173.659 113.668 171.789 112.423 169.608 111.559C167.426 110.694 165.002 110.245 162.301 110.245C159.565 110.245 157.141 110.694 154.959 111.559C152.777 112.423 150.942 113.702 149.418 115.327C147.895 116.987 146.717 118.957 145.886 121.274C145.055 123.59 144.639 126.218 144.639 129.122C144.639 132.027 145.055 134.654 145.886 136.971C146.717 139.287 147.895 141.293 149.418 142.918C150.942 144.577 152.812 145.822 154.959 146.686C157.141 147.551 159.565 148 162.301 148C165.002 148 167.46 147.551 169.608 146.686C171.789 145.822 173.625 144.543 175.183 142.918C176.707 141.258 177.884 139.287 178.715 136.971C179.546 134.654 179.962 132.027 179.962 129.122C179.962 126.218 179.546 123.59 178.715 121.274C177.919 118.992 176.741 116.987 175.183 115.327ZM170.924 135.795C170.127 137.662 168.984 139.114 167.495 140.117C166.041 141.154 164.275 141.638 162.301 141.638C160.292 141.638 158.561 141.12 157.071 140.117C155.617 139.08 154.474 137.662 153.643 135.795C152.847 133.928 152.431 131.715 152.431 129.157C152.431 126.598 152.847 124.386 153.643 122.519C154.44 120.652 155.582 119.199 157.071 118.162C158.526 117.125 160.292 116.641 162.266 116.641C164.275 116.641 166.006 117.16 167.46 118.162C168.915 119.199 170.058 120.652 170.889 122.519C171.685 124.386 172.101 126.633 172.101 129.157C172.136 131.715 171.72 133.928 170.924 135.795Z" fill="white"/>
<path d="M210.367 129.779C208.601 128.154 205.796 126.944 201.917 126.184L198.039 125.388C195.857 124.939 194.333 124.386 193.364 123.66C192.429 122.934 191.944 122.035 191.944 120.894C191.944 119.995 192.221 119.234 192.74 118.543C193.26 117.886 193.987 117.367 194.957 116.987C195.892 116.606 197 116.434 198.281 116.434C199.563 116.434 200.705 116.641 201.71 117.021C202.714 117.402 203.51 117.989 204.099 118.75C204.688 119.511 205.034 120.375 205.103 121.412H212.341C212.306 119.165 211.683 117.194 210.54 115.535C209.398 113.875 207.77 112.561 205.692 111.628C203.614 110.694 201.156 110.245 198.281 110.245C196.238 110.245 194.368 110.521 192.671 111.04C190.974 111.559 189.485 112.319 188.239 113.322C186.992 114.324 186.022 115.5 185.33 116.848C184.637 118.197 184.291 119.718 184.291 121.378C184.291 124.109 185.191 126.322 186.992 128.051C188.793 129.779 191.528 131.024 195.165 131.75L199.008 132.511C201.294 132.995 202.922 133.582 203.891 134.309C204.861 135.035 205.311 136.003 205.311 137.213C205.311 138.112 205.034 138.907 204.445 139.598C203.857 140.29 203.06 140.843 202.021 141.258C200.982 141.673 199.805 141.88 198.42 141.88C197.035 141.88 195.788 141.673 194.68 141.293C193.572 140.912 192.671 140.359 191.979 139.598C191.286 138.872 190.87 137.973 190.697 136.971H183.46C183.529 139.253 184.187 141.258 185.433 142.883C186.68 144.543 188.377 145.822 190.559 146.686C192.74 147.585 195.303 148 198.212 148C201.259 148 203.891 147.516 206.108 146.582C208.289 145.614 209.986 144.266 211.198 142.537C212.376 140.774 212.999 138.734 212.999 136.348C213.034 133.617 212.133 131.404 210.367 129.779Z" fill="white"/>
</svg>