<svg width="256" height="256" title="JakartaEE" viewBox="0 0 256 256" fill="none" xmlns="http://www.w3.org/2000/svg">
<rect width="256" height="256" rx="40" fill="#1B208B"/>
<path d="M195.385 50L155.873 93.315C155.402 115.279 150.067 148.349 126.796 178.566L161.173 187.16C218.526 133.105 195.385 50 195.385 50Z" fill="#FDB940"/>
<path d="M155.873 93.315C156.203 78.1536 154.212 68.2739 154.212 68.2739L67.0162 163.84L126.643 178.754C126.69 178.695 126.737 178.636 126.784 178.566L87.1311 168.651L155.873 93.315Z" fill="#FEB322"/>
<path d="M87.1429 168.651L126.796 178.566C150.067 148.349 155.402 115.279 155.873 93.315L87.1429 168.651Z" fill="#F98200"/>
<path d="M142.294 188.504C145.745 188.504 149.137 188.669 152.47 188.976L40 161.2C40 161.2 60.9276 168.144 86.2126 206C99.5794 195.307 119.741 188.504 142.294 188.504Z" fill="white"/>
</svg>