<svg width="256" height="256" title="Jamstack" viewBox="0 0 256 256" fill="none" xmlns="http://www.w3.org/2000/svg" id="jamstack">
<style>
#jamstack {
    rect {fill: #15191C}

    @media (prefers-color-scheme: light) {
        rect {fill: #F4F2ED}
    }
}
</style>
<rect width="256" height="256" rx="40" fill="#15191C"/>
<path d="M128 48C83.7634 48 48 83.7635 48 128C48 172.237 83.7634 208 128 208C172.237 208 208 172.237 208 128V48H128Z" fill="#F0047F"/>
<path d="M125.414 130.476V186.568C95.055 185.284 70.607 160.835 69.3225 130.476H125.414Z" fill="white"/>
<path d="M130.476 130.586H186.568C185.283 160.945 160.835 185.393 130.476 186.677V130.586Z" fill="white"/>
<path d="M130.476 125.414V69.293H186.597V125.414H130.476Z" fill="white"/>
<path d="M128 48C83.7634 48 48 83.7635 48 128C48 172.237 83.7634 208 128 208C172.237 208 208 172.237 208 128V48H128Z" stroke="#F0047F"/>
<path d="M125.414 130.476V186.568C95.055 185.284 70.607 160.835 69.3225 130.476H125.414Z" stroke="#F0047F"/>
<path d="M130.476 130.586H186.568C185.283 160.945 160.835 185.393 130.476 186.677V130.586Z" stroke="#F0047F"/>
<path d="M130.476 125.414V69.293H186.597V125.414H130.476Z" stroke="#F0047F"/>
</svg>