<svg width="256" height="256" title="Jasmine" viewBox="0 0 256 256" fill="none" xmlns="http://www.w3.org/2000/svg" id="jasmine">
<style>
#jasmine {
    rect {fill: #15191C}

    @media (prefers-color-scheme: light) {
        rect {fill: #F4F2ED}
    }
}
</style>
<rect width="256" height="256" rx="40" fill="#15191C"/>
<path d="M121.75 113.625H134.25L137.375 109.875V76.75H118.625V109.875L121.75 113.625ZM114.25 128.625L118 116.75L114.875 112.375L83 102.375L77.375 119.875L109.25 129.875L114.25 128.625ZM125.5 140.5L115.5 133.625L110.5 134.875L91.125 161.75L106.125 172.375L125.5 146.125V140.5ZM140.5 133.625L130.5 140.5V146.125L149.875 172.375L164.875 161.75L145.5 134.875L140.5 133.625ZM138.625 116.75L142.375 128.625L147.375 129.875L178.625 119.875L173 102.375L141.75 112.375L138.625 116.75Z" fill="#8A4182"/>
<path d="M128 48C84.25 48 48 83.625 48 127.375C48 148.592 56.4285 168.941 71.4315 183.944C86.4344 198.946 106.783 207.375 128 207.375C149.217 207.375 169.566 198.946 184.569 183.944C199.571 168.941 208 148.592 208 127.375C208 83.625 172.375 48 128 48ZM128 64.25C163 64.25 191.75 92.375 191.75 127.375C191.75 162.375 163 191.125 128 191.125C93 191.125 64.25 162.375 64.25 127.375C64.25 92.375 93 64.25 128 64.25Z" fill="#8A4182"/>
<path d="M176.75 144.875L152.375 137.375L154.25 132.375L178 140.5L176.75 144.875ZM146.125 106.75L141.75 103.625L156.75 83.625L160.5 86.75L146.125 106.75ZM110.5 106.75L95.5 86.125L99.875 83.625L114.875 103.625L110.5 106.75ZM79.875 144.875L78 139.875L101.75 132.375L103.625 137.375L79.875 144.875ZM125.5 178H130.5V153H125.5V178Z" fill="#8A4182"/>
</svg>