<svg width="256" height="256" title="Jaspr" viewBox="0 0 256 256" fill="none" xmlns="http://www.w3.org/2000/svg" id="jaspr">
<style>
#jaspr {
    rect {fill: #15191C}

    @media (prefers-color-scheme: light) {
        rect {fill: #F4F2ED}
    }
}
</style>
<rect width="256" height="256" rx="40" fill="#15191C"/>
<path d="M102.203 186.583L138.598 213C138.598 213 167.527 180.057 177.481 172.909L175.304 162.342L185.88 167.936C184.947 158.923 179.659 148.356 179.659 148.356C184.947 143.695 189.613 138.411 189.613 121.007C189.613 113.859 184.636 117.278 180.281 100.495L185.569 101.117C185.569 93.6581 179.97 84.3346 179.97 84.3346L186.502 77.4973L191.479 82.7806C191.479 82.7806 194.901 69.7276 191.479 62.2687C188.058 54.8099 163.794 43 156.018 43C148.241 43 139.531 56.6746 139.531 56.6746H123.667C123.667 56.6746 118.068 44.5539 106.558 44.5539C93.8048 44.5539 68.9195 58.5393 65.1867 63.8227C61.4539 69.106 63.6313 83.713 63.6313 83.713L70.4747 77.808L78.2514 88.064C67.9862 100.495 62.3871 119.764 64.8756 141.208L73.2743 138.101C69.8526 145.249 68.9194 158.923 71.4079 169.801L80.7399 166.071C83.5395 176.016 91.9383 189.069 99.7149 194.974C100.026 192.177 102.203 186.583 102.203 186.583Z" fill="#09387E"/>
<path d="M112.78 59.4717C102.826 67.2413 99.4039 83.0914 90.383 90.8611L77.0072 72.5247C84.1617 65.0658 100.959 56.9854 110.291 56.6746L112.78 59.4717Z" fill="#0066B4"/>
<path d="M157.262 55.7422C171.26 60.404 179.037 67.2413 181.525 70.9707L176.548 77.1865C172.193 70.3492 165.972 64.4442 153.218 59.4717L157.262 55.7422Z" fill="#0066B4"/>
<path d="M98.1597 175.084C105.314 182.543 128.955 192.799 138.598 200.879C149.797 190.313 167.527 169.801 167.527 169.801C168.46 166.382 167.527 157.68 166.594 153.329L175.926 156.126C174.993 152.707 174.371 151.154 171.571 148.667C168.772 146.181 156.044 144.998 148.241 144.627C141.709 144.316 133.621 141.83 132.377 133.75C139.531 134.371 138.287 138.411 144.819 139.033L166.594 140.587C171.571 141.208 181.525 136.857 183.392 122.872L182.147 116.967C168.772 103.914 179.659 94.5905 171.571 81.2267C166.676 73.1382 155.085 65.0658 144.197 65.0658H124.6C119.001 65.0658 110.291 71.2815 109.669 79.9835C106.558 95.2121 96.2933 99.5631 85.717 105.468C77.3183 110.751 72.6523 117.278 72.6523 127.223L79.4957 125.048C86.283 113.18 95.8254 111.09 108.425 108.887C91.6273 116.967 78.2515 131.885 78.8736 155.505L84.7838 153.329C85.717 160.477 89.7609 174.463 96.2933 181.611L98.1597 175.084Z" fill="#0066B4"/>
<path d="M114.024 163.896C121.801 189.069 130.822 192.488 138.598 200.569C156.018 187.205 163.794 162.342 158.506 150.843C151.663 153.64 145.753 158.302 144.508 163.896C132.377 157.68 128.333 146.492 132.377 133.75C140.435 140.252 152.653 140.557 166.134 140.894L166.283 140.898C178.726 141.208 181.525 131.885 182.458 128.466C183.392 125.048 184.636 120.075 182.458 116.967C174.136 107.205 151.392 110.097 152.596 93.6581C153.529 80.9159 148.552 75.6325 146.064 71.9031C143.575 68.1737 139.842 65.6874 137.665 66.309C135.488 66.9305 136.545 71.5923 137.665 74.3894C140.237 80.8156 148.448 87.0233 149.174 94.2797C150.699 109.508 133.978 116.012 122.734 121.629C109.047 130.02 103.448 144.316 102.826 155.815C102.204 170.422 107.803 179.435 112.78 184.718C111.535 179.435 110.291 170.112 114.024 163.896Z" fill="#40C4FF"/>
<path d="M163.794 121.007C163.794 125.98 167.216 129.399 174.371 129.399C179.037 129.399 183.081 126.912 182.769 121.318C182.769 119.143 181.525 116.346 178.103 116.346H168.772C165.661 116.346 163.794 118.521 163.794 121.007Z" fill="#09387E"/>
<path d="M77.0072 72.5247C75.0164 74.0165 71.8227 76.6685 70.4747 77.808L71.7191 79.362C77.3183 75.9433 80.1179 74.2029 88.8277 68.4845C97.5375 62.766 103.137 60.404 111.224 57.6069L110.291 56.6746C95.6711 57.9177 80.1179 69.106 77.0072 72.5247Z" fill="black" fill-opacity="0.12"/>
<path d="M181.525 70.9707L186.502 77.4973L186.191 77.808L181.214 71.9031C176.859 66.9305 168.46 60.5305 156.64 56.3638L157.262 55.7422C162.239 57.2962 175.926 62.8903 181.525 70.9707Z" fill="black" fill-opacity="0.12"/>
<path d="M130.374 92.7351C125.551 92.5359 122.112 95.5575 122.112 98.2957C122.112 101.034 125.194 105.779 130.374 105.779C135.555 105.779 139.46 103.772 139.531 101.034C139.601 98.2957 135.198 92.9343 130.374 92.7351Z" fill="#09387E"/>
<path d="M163.768 93.1267C160.749 94.7022 159.133 98.5934 160.003 100.347C160.873 102.101 165.568 103.315 168.951 101.527C171.957 99.9386 173.04 94.2729 171.822 93.0957C170.604 91.9185 166.396 91.7546 163.768 93.1267Z" fill="#09387E"/>
<path d="M132.066 103.914C134.127 103.914 135.799 102.244 135.799 100.185C135.799 98.1249 134.127 96.4552 132.066 96.4552C130.004 96.4552 128.333 98.1249 128.333 100.185C128.333 102.244 130.004 103.914 132.066 103.914Z" fill="#0066B4"/>
<path d="M169.394 97.6984C169.394 99.4148 168.001 100.806 166.283 100.806C164.565 100.806 163.172 99.4148 163.172 97.6984C163.172 95.9819 164.565 94.5905 166.283 94.5905C168.001 94.5905 169.394 95.9819 169.394 97.6984Z" fill="#0066B4"/>
</svg>