<svg width="256" height="256" title="Jetpack Compose" viewBox="0 0 256 256" fill="none" xmlns="http://www.w3.org/2000/svg" id="jetpackcompose">
<style>
#jetpackcompose {
    rect {fill: #15191C}

    @media (prefers-color-scheme: light) {
        rect {fill: #F4F2ED}
    }
}
</style>
<rect width="256" height="256" rx="40" fill="#15191C"/>
<path fill-rule="evenodd" clip-rule="evenodd" d="M199.871 84.8403C190.544 90.5471 181.158 96.1671 171.714 101.7C170.59 100.549 169.373 99.4772 168.063 98.4846C156.158 91.8078 144.281 85.0872 132.432 78.3224C128.692 76.4937 125.042 76.6675 121.482 78.8438C110.011 85.6225 98.5388 92.4012 87.0672 99.1798C85.7378 100.126 84.6658 101.313 83.8517 102.743C83.7351 102.874 83.5903 102.932 83.4172 102.917C73.8532 97.672 64.3514 92.3417 54.9121 86.9261C55.5712 85.4838 56.4112 84.1511 57.4324 82.9284C58.3956 82.0227 59.4095 81.1827 60.4741 80.4082C79.8704 69.0638 99.2214 57.6501 118.527 46.1673C124.061 43.3367 129.623 43.2788 135.213 45.9934C154.796 57.0595 174.379 68.1254 193.961 79.1915C196.309 80.7 198.279 82.5829 199.871 84.8403Z" fill="#3CDB83"/>
<path fill-rule="evenodd" clip-rule="evenodd" d="M171.714 101.7C171.714 101.758 171.714 101.816 171.714 101.874C166.764 104.609 161.956 107.564 157.287 110.739C156.184 109.142 154.736 107.954 152.942 107.175C145.758 103.12 138.573 99.0639 131.389 95.0084C129.153 93.7616 126.835 93.5878 124.436 94.4869C116.368 99.2468 108.314 104.055 100.277 108.913C99.3447 109.641 98.6494 110.539 98.1912 111.607C93.5245 108.607 88.7156 105.826 83.7647 103.264C83.6488 103.149 83.5331 103.033 83.4172 102.917C83.5903 102.932 83.7351 102.874 83.8517 102.743C84.6658 101.313 85.7378 100.126 87.0672 99.1798C98.5388 92.4012 110.011 85.6225 121.482 78.8438C125.042 76.6675 128.692 76.4937 132.432 78.3224C144.281 85.0872 156.158 91.8078 168.063 98.4846C169.373 99.4772 170.59 100.549 171.714 101.7Z" fill="#37BF6E"/>
<path fill-rule="evenodd" clip-rule="evenodd" d="M199.871 84.8403C201.762 87.471 202.775 90.4258 202.913 93.7047C203.029 116.127 203.029 138.548 202.913 160.969C202.571 167.366 199.702 172.261 194.309 175.657C175.219 186.852 156.158 198.092 137.125 209.376C134.433 210.919 131.535 211.7 128.435 211.723C128.435 200.715 128.435 189.706 128.435 178.698C128.435 178.641 128.435 178.583 128.435 178.525C130.366 178.545 132.162 178.052 133.823 177.048C144.396 170.746 154.999 164.489 165.631 158.276C167.284 157.363 168.849 156.32 170.323 155.147C172.036 153.315 173.05 151.142 173.364 148.629C173.481 134.782 173.481 120.936 173.364 107.088C173.312 106.325 173.197 105.571 173.017 104.829C172.673 103.794 172.238 102.809 171.714 101.874C171.714 101.816 171.714 101.758 171.714 101.7C181.158 96.1671 190.544 90.5471 199.871 84.8403Z" fill="#4184F3"/>
<path fill-rule="evenodd" clip-rule="evenodd" d="M54.9121 86.9261C64.3514 92.3417 73.8532 97.672 83.4172 102.917C83.5331 103.033 83.6488 103.149 83.7647 103.264C83.4328 103.52 83.23 103.868 83.1563 104.308C82.9601 105.23 82.7863 106.158 82.6349 107.088C82.519 121.746 82.519 136.404 82.6349 151.063C82.9177 153.487 84.1053 155.312 86.198 156.538C98.2193 163.273 110.212 170.051 122.177 176.874C124.108 178.023 126.193 178.631 128.435 178.698C128.435 189.706 128.435 200.715 128.435 211.723C125.346 211.761 122.449 211.038 119.744 209.55C99.2339 197.962 78.7242 186.376 58.2144 174.788C55.1456 172.68 53.4365 169.754 53.087 166.011C52.971 141.966 52.971 117.923 53.087 93.8786C53.1589 91.3972 53.7674 89.0798 54.9121 86.9261Z" fill="#073041"/>
<path fill-rule="evenodd" clip-rule="evenodd" d="M157.287 110.739C157.928 111.735 158.276 112.836 158.33 114.041C158.384 123.661 158.326 133.279 158.156 142.893C157.622 144.567 156.636 145.929 155.201 146.978C147.02 151.856 138.793 156.665 130.52 161.404C129.781 161.633 129.028 161.777 128.261 161.839C126.683 161.844 125.235 161.41 123.915 160.535C115.92 156.016 107.925 151.497 99.9293 146.978C98.8107 146.323 98.0864 145.367 97.7567 144.11C97.6407 133.797 97.6407 123.485 97.7567 113.171C97.8851 112.642 98.0299 112.121 98.1912 111.607C98.6494 110.539 99.3447 109.641 100.277 108.913C108.314 104.055 116.368 99.2468 124.436 94.4869C126.835 93.5878 129.153 93.7616 131.389 95.0084C138.573 99.0639 145.758 103.12 152.942 107.175C154.736 107.954 156.184 109.142 157.287 110.739Z" fill="#D5EFFE"/>
<path fill-rule="evenodd" clip-rule="evenodd" d="M171.714 101.874C172.238 102.809 172.673 103.794 173.017 104.829C173.197 105.571 173.312 106.325 173.364 107.088C173.481 120.936 173.481 134.782 173.364 148.629C173.05 151.142 172.036 153.315 170.323 155.147C168.849 156.32 167.284 157.363 165.631 158.276C154.999 164.489 144.396 170.746 133.823 177.048C132.162 178.052 130.366 178.545 128.435 178.525C128.322 172.963 128.263 167.401 128.261 161.839C129.028 161.777 129.781 161.633 130.52 161.404C138.793 156.665 147.02 151.856 155.201 146.978C156.636 145.929 157.622 144.567 158.156 142.893C158.296 142.641 158.383 142.352 158.417 142.024C158.561 132.668 158.533 123.34 158.33 114.041C158.276 112.836 157.928 111.735 157.287 110.739C161.956 107.564 166.764 104.609 171.714 101.874Z" fill="#3870B2"/>
<path fill-rule="evenodd" clip-rule="evenodd" d="M83.7647 103.264C88.7156 105.826 93.5245 108.607 98.1912 111.607C98.0299 112.121 97.8851 112.642 97.7567 113.171C97.6407 123.485 97.6407 133.797 97.7567 144.11C98.0864 145.367 98.8107 146.323 99.9293 146.978C107.925 151.497 115.92 156.016 123.915 160.535C125.235 161.41 126.683 161.844 128.261 161.839C128.263 167.401 128.322 172.963 128.435 178.525C128.435 178.583 128.435 178.641 128.435 178.698C126.193 178.631 124.108 178.023 122.177 176.874C110.212 170.051 98.2193 163.273 86.198 156.538C84.1053 155.312 82.9177 153.487 82.6349 151.063C82.519 136.404 82.519 121.746 82.6349 107.088C82.7863 106.158 82.9601 105.23 83.1563 104.308C83.23 103.868 83.4328 103.52 83.7647 103.264Z" fill="#041619"/>
<path fill-rule="evenodd" clip-rule="evenodd" d="M158.33 114.041C158.533 123.34 158.561 132.668 158.417 142.024C158.383 142.352 158.296 142.641 158.156 142.893C158.326 133.279 158.384 123.661 158.33 114.041Z" fill="#6293CB"/>
</svg>