<svg width="256" height="256" title="Jetpack" viewBox="0 0 256 256" fill="none" xmlns="http://www.w3.org/2000/svg" id="jetpack">
<style>
#jetpack {
    rect {fill: #15191C}

    @media (prefers-color-scheme: light) {
        rect {fill: #F4F2ED}
    }
}
</style>
<rect width="256" height="256" rx="40" fill="#15191C"/>
<path d="M207.515 127.97C207.515 171.901 171.901 207.515 127.97 207.515C84.038 207.515 48.4242 171.901 48.4242 127.97C48.4242 84.038 84.038 48.4242 127.97 48.4242C171.901 48.4242 207.515 84.038 207.515 127.97Z" fill="white"/>
<path d="M128.5 41C111.194 41 94.2769 46.1318 79.8876 55.7464C65.4983 65.361 54.2832 79.0267 47.6606 95.0152C41.0379 111.004 39.3051 128.597 42.6813 145.57C46.0575 162.544 54.3911 178.135 66.6282 190.372C78.8653 202.609 94.4563 210.942 111.43 214.319C128.403 217.695 145.996 215.962 161.985 209.339C177.973 202.717 191.639 191.502 201.254 177.112C210.868 162.723 216 145.806 216 128.5C216 105.294 206.781 83.0376 190.372 66.6281C173.962 50.2187 151.706 41 128.5 41ZM123.895 143.007H80.4211L123.895 58.1776V143.007ZM132.737 198.638V113.809H176.349L132.737 198.638Z" fill="#00BD27"/>
</svg>