<svg width="256" height="256" title="Jitsi" viewBox="0 0 256 256" fill="none" xmlns="http://www.w3.org/2000/svg" id="jitsi">
<style>
#jitsi {
    rect {fill: #15191C}

    @media (prefers-color-scheme: light) {
        rect {fill: #F4F2ED}
    }
}
</style>
<rect width="256" height="256" rx="40" fill="#15191C"/>
<path d="M71.4742 216.885C64.8667 204.37 63.143 189.661 64.364 175.707C64.9385 168.982 67.6677 161.754 72.5516 156.971C76.8249 152.799 80.9187 152.799 86.0539 155.352C91.5123 158.086 96.2525 162.077 101.711 164.811C102.573 165.242 103.255 164.415 103.686 163.804C104.943 161.898 105.517 159.38 105.661 157.151C98.048 153.878 94.0619 145.499 92.1228 137.838C89.9681 129.459 90.4709 120.145 96.5038 113.491C102.86 106.515 113.274 104.105 122.252 103.026C122.395 103.026 123.544 102.523 123.688 102.451C122.395 98.315 121.928 93.9994 122.323 89.6839C122.647 85.9078 123.616 80.0458 125.304 76.7012C126.992 73.3567 130.152 70.8033 133.563 69.3288C137.406 67.6385 140.602 66.8473 144.372 64.6536C149.22 61.8125 153.458 57.5689 154.391 51.8148C155.074 47.6431 155.433 43.5793 155.181 39.3716C155.146 38.6523 156.115 37.9331 156.797 38.005C157.085 38.005 157.372 38.0769 157.623 38.2208C160.999 43.2556 163.836 51.7069 164.518 57.7487C165.201 63.8984 161.681 70.2279 157.372 74.3636C160.676 79.6502 162.507 86.3393 160.604 92.453C169.187 91.482 176.871 94.2152 181.073 102.127C186.46 112.197 183.299 133.523 180.427 144.348C177.805 154.238 172.849 163.48 164.913 170.061C162.974 171.644 160.784 172.902 158.449 173.729C157.408 174.089 154.786 171.967 153.925 171.32C145.378 187.395 125.914 196.206 108.175 193.473C101.639 192.43 95.5342 189.445 90.6863 184.914C82.391 190.201 78.0818 195.487 75.173 204.945C73.8443 209.225 72.767 213.577 72.0129 218C71.8693 217.64 71.6538 217.281 71.4742 216.885ZM134.138 108.061C135.143 108.744 136.077 109.5 137.37 109.248C140.817 108.529 144.157 106.551 146.814 104.285C148.969 102.487 150.226 100.185 151.555 97.7396C145.701 96.373 143.008 92.0934 142.649 86.2674C139.884 87.1665 126.633 91.554 126.633 94.5389C126.74 100.041 129.649 104.896 134.138 108.061ZM154.643 69.6884C154.463 70.084 154.966 70.0481 155.217 69.6884C157.911 65.7325 159.814 61.0213 159.311 56.1663C159.275 55.8786 159.491 55.3392 159.239 55.3032L158.808 55.2313C158.018 60.1582 156.797 65.1211 154.643 69.6884ZM127.171 87.5261C127.1 88.1015 127.171 88.4252 127.674 88.1375C131.947 85.5841 136.652 84.0736 141.176 82.0237C141.966 81.6281 142.721 81.1247 143.331 80.4773C147.533 76.3056 150.19 70.9112 152.093 65.3729C152.309 64.7255 152.452 64.0063 151.985 64.4738C147.568 68.5016 142.218 70.6594 136.867 73.1049C134.641 74.1119 132.091 75.5144 130.403 77.2766C127.961 79.7221 127.638 84.1456 127.171 87.5261ZM151.447 92.6688C153.314 93.3881 155.325 91.8776 156.043 90.2233C157.767 86.4112 157.121 82.3114 154.786 78.895C152.704 80.4054 147.856 83.6061 147.82 86.4472C147.748 88.9286 148.897 91.7338 151.447 92.6688ZM176.081 137.299C176.117 137.623 176.153 137.91 176.225 138.234L176.871 137.299C177.554 133.703 178.021 130.106 178.344 126.474C179.062 118.095 179.457 104.609 171.988 98.9983C171.233 98.4589 169.079 97.4159 168.289 98.3869C167.75 98.9983 167.391 99.7176 167.212 100.509C166.709 102.091 166.242 104.249 166.745 105.903C169.797 116.332 174.501 126.51 176.081 137.299ZM107.133 151.684C108.067 152.08 111.048 151.612 111.981 151.432C121.39 149.67 130.583 147.153 139.812 144.563C135.718 140.643 130.547 138.018 124.945 137.011C117.799 135.86 110.293 137.479 103.506 139.673C102.824 139.673 102.357 138.989 102.106 138.414C102.07 137.802 102.321 137.191 102.824 136.831C105.481 134.53 108.354 132.552 111.443 130.898C115.895 128.56 120.995 126.69 126.022 126.078C136.616 124.82 147.138 127.625 156.295 133.055C160.819 135.717 164.913 138.989 169.258 141.938C169.941 142.406 170.659 142.801 171.413 143.161C171.7 143.017 172.239 143.053 172.275 142.729C172.383 141.83 172.383 140.931 172.239 140.032C171.736 137.119 171.09 134.242 170.3 131.401C167.966 123.309 164.806 115.577 162.435 107.593C161.609 104.752 161.897 101.947 162.651 99.1062C160.748 99.7535 158.988 100.725 157.372 101.911C152.704 105.651 143.977 113.851 138.447 115.254C133.851 116.44 130.044 111.549 127.064 108.672C126.561 108.205 126.166 108.169 125.448 108.241C118.122 109.176 105.122 111.621 100.023 117.303C95.9652 121.835 95.4265 127.697 96.3961 133.559C97.617 140.608 100.274 148.519 107.133 151.684ZM109.827 188.007C112.161 188.259 114.495 188.295 116.865 188.151C126.453 187.719 136.005 183.619 142.828 176.786C148.754 170.852 153.637 162.689 153.709 154.058C153.673 153.842 153.637 153.626 153.53 153.446C149.436 153.087 145.127 151.504 142.577 148.088C132.378 151.576 121.964 154.741 112.017 158.949C111.371 159.236 111.155 159.2 110.94 159.992C108.247 169.414 100.705 176.031 91.8714 179.663C96.7552 184.375 103.075 187.288 109.827 188.007ZM157.911 168.407L158.485 168.946C165.452 163.84 170.084 156.575 173.496 148.735C169.151 151.54 163.8 152.619 158.773 153.446C158.557 158.014 157.875 162.581 156.115 166.825C156.726 167.328 157.336 167.868 157.911 168.407ZM154.679 149.059C158.916 148.951 163.118 148.232 167.176 146.901C162.687 143.916 158.701 140.284 154.176 137.407C144.516 131.329 135.215 129.387 123.904 131.005C122.144 131.293 120.42 131.761 118.732 132.444C118.122 132.66 118.912 132.66 119.558 132.624C122.108 132.444 124.622 132.588 127.135 133.127C132.127 134.242 137.442 136.688 141.176 140.212C142.828 141.758 147.461 147.045 149.292 147.944C150.98 148.735 152.811 149.131 154.679 149.059ZM86.8798 176.75C91.4045 175.528 95.3906 172.579 98.9098 169.594C94.7801 167.544 90.7941 165.17 87.0594 162.473C86.808 166.177 86.2693 169.881 85.9462 173.586C85.8025 174.7 86.1257 175.851 86.8798 176.75ZM70.6124 199.551C70.7201 200.126 70.8278 200.702 70.9715 201.241C73.2338 193.401 78.3331 186.82 85.0843 182.325C83.2888 181.354 80.9546 179.556 80.6314 177.362C79.985 172.83 80.9905 168.443 80.5596 163.84C80.4159 162.293 80.1646 160.855 79.2668 159.524C76.789 161.178 74.7421 163.408 73.3416 165.997C67.7755 176.175 68.35 188.474 70.6124 199.551Z" fill="#949293"/>
</svg>