<svg width="256" height="256" title="Jotai" viewBox="0 0 256 256" fill="none" xmlns="http://www.w3.org/2000/svg" id="jotai">
<style>
#jotai {
    rect {fill: #15191C}

    @media (prefers-color-scheme: light) {
        rect {fill: #F4F2ED}
    }
}
</style>
<rect width="256" height="256" rx="40" fill="#15191C"/>
<path d="M125.972 49H129.667L133.361 49.7756L137.056 51.1329L140.75 53.072L143.861 55.011L146.389 56.95L148.917 59.2768L150.861 61.2159L152.611 63.3488L155.139 66.839L157.472 70.7171L160 75.5646L161.556 78.6671L163.306 81.1878L165.056 83.5146L167.194 85.0659L170.306 86.811L174.389 88.5561L177.306 89.3317L181.778 89.9134L184.694 89.7195L185.083 89.5256H186.25L185.861 90.4951L184.306 92.0463L182.556 94.761L181 98.0573L180.417 100.384L180.222 101.741H179.444L177.889 99.8024L175.167 96.8939L173.806 95.5366L170.306 93.0159L168.75 91.8524L168.361 91.6585L168.75 92.8219L170.5 96.7L171.861 99.2207L174 102.323L176.333 104.65L178.667 106.395L178.861 106.977L178.667 107.171L176.139 107.559L173.222 108.722L170.111 110.855L170.694 115.315L171.667 124.04L172.833 134.899L173.806 142.267L174.972 149.248L176.528 157.198L178.472 164.178L180.028 168.444L181.778 172.322L183.722 176.006L185.861 179.302L188.389 182.599L190.528 184.926L192.861 187.252L195.778 189.385L200.056 191.906L204.333 194.233L207.25 195.59L210.75 196.56L214.833 196.948L215.806 197.529L216 197.723V198.693L214.639 200.438L212.694 202.183L210.556 203.152L207.639 203.928L203.361 204.51L195.583 205.091L182.944 205.673L176.528 206.449L172.833 207.03L169.917 207.806L168.75 208L167 206.643L163.889 204.898L161.944 204.122L158.639 203.346L156.111 203.152H152.806L148.722 203.54L145.417 204.316L144.639 204.704L143.861 204.51L140.556 201.213L137.444 199.08L134.528 197.529L131.222 196.366L127.333 195.784H123.25L118.194 196.366L114.111 197.335L109.444 198.887L107.694 199.856H107.306V199.468L106.722 199.274L106.333 198.305L105.361 197.917L104 197.529L101.472 197.335L97.9722 197.723L93.6944 198.887L89.2222 200.826L85.3333 202.959L82.2222 205.091L79.3056 207.418L78.5278 207.612L76 205.673L73.8611 203.928L71.3333 202.183L68.8056 200.632L64.3333 198.499L62.1944 197.723L58.3056 196.948H53.4444L48 197.917L44.6944 198.887L42.75 199.662L41.9722 199.468L41 198.305L41.1944 197.529L43.3333 195.009L45.2778 192.488L47.8056 188.998L50.5278 184.732L53.25 180.078L55.5833 176.006L56.9444 173.291L58.8889 169.607L62.5833 162.045L65.5 155.646L67.6389 150.799L69.5833 146.145L74.25 134.899L75.4167 131.796L79.1111 122.295L81.25 116.672L88.0556 98.8329L90.3889 92.8219L93.3056 85.6476L95.8333 79.8305L99.1389 73.0439L101.861 68.1963L104.972 63.5427L107.111 60.828L108.861 58.889L110.222 57.3378L112.556 55.2049L116.056 52.6841L119.361 50.939L122.667 49.7756L125.972 49Z" fill="#070707"/>
<path d="M156.5 75.5646H157.278L158.444 78.6671L158.25 79.2488L157.667 78.2793V77.8915L155.722 77.6976L155.528 78.4732L155.139 79.0549L155.528 81.1878L155.722 81.7695V85.8415L155.139 88.3622L154.944 90.8829L155.917 93.7915L154.944 93.4037L151.639 90.1073L150.083 88.75L148.139 87.1988H146.972L147.167 88.3622L150.278 91.6585L152.222 93.5976L153.778 94.9549L154.167 95.1488H155.722L154.944 96.5061L154.361 96.3122L154.167 97.0878L153.583 97.2817L153 100.19L152.611 103.099L152.222 105.038L151.833 106.395H151.444L151.25 109.304H151.056L150.861 103.487L150.083 100.19L148.528 97.0878L147.361 95.5366L146 94.3732L144.25 93.5976H141.722L139.972 94.3732L138.222 95.7305L136.472 98.2512L135.306 100.578L134.333 103.874L133.944 106.201V111.437L134.722 115.315L136.278 118.611L137.833 120.55L139.389 121.713L140.556 122.101H143.083L145.028 121.132L146.583 119.774H147.167L146.972 121.907L146.583 122.683V123.265H146.194L145.806 125.204L145.417 126.367L144.833 129.663L144.056 131.602V134.317L144.833 134.705L146.194 133.929L146.389 134.511L145.611 135.093H145.222L145.028 135.674L142.889 136.838L140.556 138.195L139.194 138.583V138.971L137.639 139.165V139.552L132 141.104H131.028V141.491L128.889 141.879H121.306L119.75 141.685V141.298H118L117.222 141.104V140.716L115.861 140.522L114.306 139.94L111.389 138.389L109.444 136.838L107.306 134.705L105.944 132.572L105.167 131.021L104.194 131.215L104.389 133.154L105.556 136.644L106.528 138.777L108.278 142.461L110.028 145.176L111.583 147.115L114.5 150.023L117.611 151.962L120.139 153.126L122.861 153.901H127.333L129.472 153.513L132.583 152.544L135.111 151.187L137.444 149.635L140.556 147.115L143.083 144.594L143.472 144.012H143.861L143.472 144.982H143.083L142.694 146.145L142.306 146.921H141.917L141.722 147.696L141.139 148.472L140.75 150.023L139.972 151.187L139.778 153.126L139.583 153.32L139.194 157.004L138.806 161.27V163.209L138.417 164.76L138.028 167.28L137.639 168.056L137.056 170.577L136.083 172.322L135.694 173.291H135.306L135.111 174.455L134.139 176.394L133.167 176.588H127.917L126.556 176.394L122.278 176.782L121.306 177.17L119.556 177.557H118.778V177.945L115.667 178.915L112.361 180.66L110.806 181.823H110.417L110.806 178.527L112.556 165.923L112.75 156.616L112.944 154.677H112.361L111.972 156.81L111.778 158.555L111.583 162.627L110.806 167.668L109.639 175.037L108.667 179.69L106.917 184.538L106.722 184.926H106.333L106.139 185.895L105.75 186.283L103.611 186.089H97.3889L94.4722 187.252H93.8889V187.64H93.1111V188.028L91.1667 188.804L88.8333 190.161L86.5 192.294L85.7222 193.263H85.3333L84.9444 194.039L84.5556 194.233V192.488L85.9167 183.956L86.8889 175.812L88.6389 164.76L90.3889 154.677L90.7778 152.544L90.1944 153.126L88.6389 158.555L86.6944 168.25L85.9167 171.74L85.3333 175.23L85.1389 177.363H84.75L84.5556 179.69L83.3889 186.089L83 189.191L81.8333 195.202L81.25 195.784L79.8889 194.621L76.3889 192.488L75.8056 192.1L73.2778 191.324L69.3889 189.967L66.2778 189.385H63.5556L60.0556 189.967L56.1667 191.13L51.3056 193.07L48.3889 194.427L45.8611 195.784L45.4722 195.59L47.0278 193.651L49.1667 191.324L50.9167 188.804L52.6667 185.895L54.8056 181.629L57.9167 176.394L60.8333 171.159L63.1667 167.087L65.6944 162.045L66.6667 159.524L67.8333 156.616L68.4167 154.677L69.3889 152.738L71.9167 146.339L73.6667 141.491L75.6111 136.062L76.7778 132.378L77.75 130.051L80.0833 124.428L81.0556 121.907L82.6111 118.029L84.75 112.212L86.5 107.946L88.6389 102.711L90.1944 98.8329L91.3611 96.3122L93.3056 90.689L94.8611 87.5866L97.5833 81.9634L99.1389 78.6671L99.9167 78.861L101.861 79.6366L105.944 80.8L112.167 81.9634L118.389 82.5451H129.472L137.056 81.7695L144.25 80.4122L145.028 80.0244L147.75 79.4427L152.222 77.8915L155.139 76.3402L156.111 75.9524L156.5 75.5646Z" fill="#F9F9F9"/>
<path d="M155.722 77.6976H157.278L158.444 78.861L158.833 79.0549L160.583 83.7085L161.361 85.8415L162.333 88.1683L163.694 91.6585L165.833 100.578L167.389 109.11L168.167 114.927L168.944 124.622L169.333 131.021L170.111 136.838L170.694 139.552L172.056 147.89L173.806 156.422L175.75 163.209L177.111 167.28L178.667 170.965L180.806 174.843L183.528 178.721L185.861 181.823L187.611 183.956L189.361 185.895L192.472 188.998L195 190.937L197.917 192.682L202.778 195.009L206.667 196.56L210.75 197.723L213.667 198.305L214.25 198.887L213.083 199.08L207.639 198.887L197.917 197.141L187.611 195.202L183.139 194.233L180.611 193.845H176.722L174.389 194.427L173.222 194.815L172.25 194.621L170.694 191.906L169.333 189.191L167.194 183.374L165.833 178.915L164.667 173.679L163.694 166.311L162.917 159.33L162.722 157.973L162.528 153.513L162.333 142.267L162.139 138.389L162.333 159.718L162.917 167.087L163.889 175.23L164.861 181.048L166.222 185.895L167.972 191.13L168.361 191.906L168.167 192.488L164.861 189.967L162.139 188.416L158.833 187.252L155.528 186.671H153.583L150.083 187.059L146 188.416L145.417 186.671L145.028 184.344L144.639 180.272L144.444 176.2V170.577L145.222 163.015L146.583 153.32L147.167 149.248V148.278L146.389 151.38L145.028 158.361L143.667 167.28L143.472 169.413V180.854L143.667 184.732L142.889 184.344L140.361 181.823L137.25 179.884L135.306 178.915L131.222 177.751L126.556 176.976L122.278 176.782V176.588L126.944 176.2L127.917 176.394H133.361L134.139 176.2L134.722 174.843L135.306 173.291H135.694L135.889 172.322L136.861 170.577L137.639 167.668L138.028 166.505L138.222 164.372L138.611 162.627V160.688L139.389 153.32L139.583 152.932L139.778 151.187L140.75 149.635L141.139 148.278L141.917 146.921H142.306L142.5 146.145L143.083 144.982H143.472L143.861 144.012L139.972 147.89L138.222 149.248L135.694 150.993L134.139 151.962L132 152.932L128.889 153.901L127.333 154.095H122.861L119.556 153.126L116.25 151.38L114.111 149.829L112.167 147.89V147.502L111.389 147.115L109.639 144.982L107.5 141.298L105.944 138.001L104.583 134.511L104 132.184V131.215L104.389 130.827L105.361 131.021L106.917 133.929L109.056 136.256L110.611 137.613L112.75 138.971L114.5 139.94L117.222 140.716V141.104L119.75 141.298V141.685H128.889L131.028 141.491V141.104L135.5 139.94L137.639 139.552V139.165L139.194 138.971V138.583L142.306 137.032L144.444 135.674L145.028 135.48L146 134.511H146.389L146 134.123L144.639 134.899L143.667 134.123L143.861 133.348V131.602L144.639 129.663L145.417 125.785L145.806 124.04L146.194 123.265H146.583L146.389 122.295L146.778 121.907L147.167 119.774L146.194 120.356L144.833 121.52L143.083 122.295H140.556L138.806 121.52L137.25 120.162L135.889 118.223L134.528 115.315L133.75 111.437V106.201L134.528 102.323L135.694 99.2207L137.444 96.5061L138.611 95.1488L140.167 93.9854L141.722 93.4037H144.25L146.583 94.5671L148.139 96.1183L149.694 98.8329L150.472 100.772L151.056 103.487L151.25 106.977L151.444 106.395H151.833L152.222 103.487L152.611 101.548L153 98.8329L153.583 97.2817L154.167 96.8939L154.361 96.3122L155.139 95.9244L155.333 95.3427H154.167L152.806 94.3732L148.333 89.9134L146.778 87.9744L146.972 87.0049H148.139L150.278 88.75L153.389 91.6585L154.75 92.8219L155.528 93.5976L155.917 93.7915L155.139 92.4341L154.944 91.4646L154.75 90.3012L155.333 86.2293L155.528 85.0659V81.7695L154.944 79.6366L155.139 78.861L155.722 77.6976Z" fill="#9E9E9E"/>
<path d="M119.75 178.915H123.833L130.25 180.078L134.333 181.241L137.25 182.793L139.389 184.538L141.139 186.089L143.278 188.998L144.056 190.161L144.25 190.743L145.222 190.549L146.972 189.385L148.333 188.998L149.889 188.804H155.333L158.056 189.385L160.972 190.549L163.889 192.1L165.639 193.457V193.845L166.611 194.233L167.778 195.59L169.722 197.141L171.083 198.305L171.472 198.499V198.111L173.028 197.335L176.528 196.56L178.083 196.366H181.778L188.778 196.754L197.333 198.305L203.556 199.662L207.25 200.244L211.333 200.632V201.213H210.556V201.601L207.833 202.571L205.889 203.346L203.556 203.734L195.778 203.928L182.944 204.122L175.556 204.704L170.111 206.255V204.316L170.694 201.989L171.278 200.826V199.662L170.306 200.244L169.333 202.377L168.75 205.867L167.778 205.673L164.861 204.316L162.139 202.959L160.389 202.377L155.528 201.601H151.444L147.556 202.183L145.222 202.765L144.25 202.959L144.056 202.571L144.444 195.59L145.028 192.488H144.444L143.667 194.621L143.472 196.754L143.278 201.795L142.5 201.601L140.556 199.856L137.444 197.529L135.694 196.56L133.361 195.59L130.833 194.621L127.333 194.039H124.222L121.111 194.233L117.611 194.815L111.778 196.56L110.417 196.948L108.861 197.529L109.056 195.784L109.25 194.621V190.355L109.056 189.967H108.472L108.083 194.039L107.306 197.141L106.333 196.948L103.611 195.978L101.472 195.396H98.3611L95.4444 195.978L91.5556 197.335L88.6389 198.887H88.0556V199.274L85.9167 200.826L83.9722 202.377L82.0278 204.122H81.6389L82.0278 201.02L81.25 200.826L79.8889 204.316L79.3056 205.673L78.5278 205.285L76.1944 203.152L73.4722 201.02L70.9444 199.274L67.8333 197.723L64.1389 196.754L60.8333 196.172L56.5556 195.784L52.4722 195.978L48.3889 196.56L46.4444 196.948L46.6389 196.366L49.75 194.815L53.8333 193.07L56.75 192.1L59.4722 191.518L60.8333 191.324H65.1111L68.4167 192.1L72.5 193.651L78.1389 196.366L81.0556 197.917L81.8333 198.305H83L84.1667 197.335L86.1111 194.427L88.25 192.1L90.1944 190.743L92.5278 189.773L96.0278 188.804L98.3611 188.416H103.222L105.75 188.998H106.528L108.667 185.507L110.222 183.568L112.361 181.823L115.667 180.078L118.583 179.109L119.75 178.915Z" fill="#656565"/>
<path d="M163.111 118.611L163.889 119.387L164.278 121.132L164.861 122.683L165.25 124.04L165.833 125.01V127.337L166.611 130.245L167 131.215L167.389 132.96L167.583 133.541L167.778 134.899L168.167 137.807L168.75 139.552L169.139 141.879L169.528 142.655V144.012L169.917 144.788L170.306 146.921L171.083 149.829L171.861 151.768L172.833 155.452L173.222 156.422L173.806 159.137L174.389 160.494L174.972 160.688L176.528 165.729L178.278 169.995L179.833 173.098L181.194 175.424L183.528 178.721L185.861 181.823L187.611 183.956L189.361 185.895L192.472 188.998L195 190.937L197.917 192.682L202.778 195.009L206.667 196.56L210.75 197.723L213.667 198.305L214.25 198.887L213.083 199.08L207.639 198.887L197.917 197.141L187.611 195.202L183.139 194.233L180.611 193.845H176.722L174.389 194.427L173.222 194.815L172.25 194.621L170.694 191.906L169.333 189.191L167.194 183.374L165.833 178.915L164.667 173.679L163.694 166.311L162.917 159.33L162.722 157.973L162.528 153.513L162.333 142.267L162.139 138.389L162.333 159.718L162.917 167.087L163.111 168.832V170.771H162.917L162.139 162.627L161.75 157.391L161.556 141.491L161.361 136.45L160.972 132.766L161.361 125.979L161.75 123.846L162.139 122.877L162.333 121.326L162.528 120.356L163.111 118.611Z" fill="#797979"/>
<path d="M119.75 178.915H123.833L130.25 180.078L132.583 180.66V181.241L135.111 182.599L135.5 183.956L135.111 184.732L133.75 185.313L132.778 185.895L132 186.865H131.611L131.417 187.64L130.639 188.998L130.25 190.549L130.444 191.712L129.861 192.488L128.694 192.682V193.07L127.333 193.457V193.845L121.111 194.233L117.611 194.815L111.778 196.56L110.417 196.948L108.861 197.529L109.056 195.784L109.25 194.621V190.355L109.056 189.967H108.472L108.083 194.039L107.306 197.141L106.333 196.948L103.611 195.978L101.472 195.396H98.3611L95.4444 195.978L91.5556 197.335L88.6389 198.887H88.0556V199.274L85.9167 200.826L83.9722 202.377L82.0278 204.122H81.6389L82.0278 201.02L81.25 200.826L79.8889 204.316L79.3056 205.673L78.5278 205.285L76.1944 203.152L73.4722 201.02L70.9444 199.274L67.8333 197.723L64.1389 196.754L60.8333 196.172L56.5556 195.784L52.4722 195.978L48.3889 196.56L46.4444 196.948L46.6389 196.366L49.75 194.815L53.8333 193.07L56.75 192.1L59.4722 191.518L60.8333 191.324H65.1111L68.4167 192.1L72.5 193.651L78.1389 196.366L81.0556 197.917L81.8333 198.305H83L84.1667 197.335L86.1111 194.427L88.25 192.1L90.1944 190.743L92.5278 189.773L96.0278 188.804L98.3611 188.416H103.222L105.75 188.998H106.528L108.667 185.507L110.222 183.568L112.361 181.823L115.667 180.078L118.583 179.109L119.75 178.915Z" fill="#656565"/>
<path d="M124.417 51.9085H128.5L133.556 52.4902L136.667 53.4598L139 54.6232L142.111 57.1439L145.417 60.4402L146.972 61.7976L149.306 64.3183L150.667 65.8695L150.278 66.0634V66.4512L146.583 67.4207L141.722 68.5841L136.472 69.3598L129.083 69.9415H118.778L111.778 69.3598L108.083 68.778L106.139 68.5841L104.389 68.1963L104.778 67.2268L107.111 64.1244L109.833 61.2159L111.778 59.2768L115.083 56.7561L118 54.6232L122.472 52.4902L124.417 51.9085Z" fill="#F9F9F9"/>
<path d="M152.611 67.4207L153.389 67.6146L156.889 72.85V73.2378L153.778 74.9829L151.056 76.1463L146.389 77.6976L140.75 79.0549L135.111 80.0244L128.694 80.6061H119.556L114.306 80.2183L109.056 79.4427L102.444 77.8915L99.9167 77.1159L99.7222 76.5341L103.028 69.7476L103.222 69.3598L104.583 69.5537L108.472 70.7171L113.139 71.4927L120.139 72.0744H128.111L134.139 71.6866L139 71.1049L144.056 70.1354L148.528 68.972L152.611 67.4207Z" fill="#505050"/>
<path d="M104.389 130.827L105.361 131.021L106.917 133.929L109.056 136.256L110.611 137.613L112.75 138.971L114.5 139.94L117.222 140.716V141.104L119.75 141.298V141.685H128.889L131.028 141.491V141.104L135.5 139.94L137.639 139.552V139.165L139.194 138.971V138.583L142.306 137.032L144.444 135.674L145.028 135.48L146 134.511L146.972 133.929L147.75 133.154H148.333L148.722 132.378L150.278 131.215H150.667V130.827H151.444L151.25 132.378L149.889 135.093H149.5L149.111 136.45H148.722L147.944 138.389H147.556V138.971H147.167V139.552H146.778L146.389 140.522L145.611 141.685H145.222L144.833 142.655H144.444V143.237L143.472 144.206L142.111 145.757L139.972 147.89L138.222 149.248L135.694 150.993L134.139 151.962L132 152.932L128.889 153.901L127.333 154.095H122.861L119.556 153.126L116.25 151.38L114.111 149.829L112.167 147.89V147.502L111.389 147.115L109.639 144.982L107.5 141.298L105.944 138.001L104.583 134.511L104 132.184V131.215L104.389 130.827Z" fill="#080808"/>
<path d="M142.111 94.761H143.861L145.417 95.3427L146.972 96.7V97.2817L144.833 98.4451L143.667 99.8024L142.889 101.741V105.038L143.861 106.783L144.444 107.171L144.639 107.752L146 108.722L147.167 109.11H149.5L149.306 111.824H148.917L148.722 113.182L147.556 116.672H147.167L146.778 117.835L145.028 119.774L143.472 120.744L142.889 120.938H140.361L138.806 119.968L137.444 118.417L135.889 115.121L135.306 112.406L135.111 110.855V106.589L135.306 104.65L136.667 100.19L137.833 98.0573L139.194 96.3122L140.944 95.1488L142.111 94.761Z" fill="#F9F9F9"/>
<path d="M113.528 98.2512L116.056 98.4451L118 99.8024L118.972 100.966V101.354L117.222 101.741L115.667 102.905L114.694 104.456L114.306 105.62V108.722L115.278 110.467L116.444 111.63L118 112.406H120.139L119.944 113.376L118.389 116.478L117.222 118.223L115.667 119.774L113.333 120.938L112.556 121.132H110.028L108.667 120.55L106.917 119.193L105.361 116.09L104.778 114.151V108.916L105.361 106.201L106.528 103.487L108.472 100.772L109.833 99.6085L111.583 98.639L113.528 98.2512Z" fill="#F9F9F9"/>
<path d="M177.111 170.771L177.889 170.965L178.861 172.71L179.639 174.067L182.361 178.139L183.722 179.884L185.667 182.405L187.417 184.344L187.806 184.15L189.167 185.701L192.472 188.998L195 190.937L197.917 192.682L202.778 195.009L206.667 196.56L210.75 197.723L213.667 198.305L214.25 198.887L213.083 199.08L207.639 198.887L197.917 197.141L187.611 195.202L183.139 194.233L183.722 194.039L183.528 193.457L182.75 192.876V192.488L181.972 192.294L181.389 191.712L180.806 188.998L180.417 188.028L180.028 187.252L180.222 185.313L180.028 184.926L179.639 180.854L179.056 179.884L178.083 178.139L177.306 175.424L176.917 173.679L176.722 171.352L177.111 170.771Z" fill="#505050"/>
<path d="M178.083 196.366H181.778L188.778 196.754L197.333 198.305L203.556 199.662L207.25 200.244L211.333 200.632V201.213H210.556V201.601L207.833 202.571L205.889 203.346L203.556 203.734L195.778 203.928L182.944 204.122L178.083 204.51H175.75V204.316L177.111 204.122L175.75 202.571L175.944 199.662L176.333 198.693V198.305H176.722V197.917L177.694 196.948L176.528 196.754V196.56L178.083 196.366Z" fill="#505050"/>
<path d="M60.8333 191.324H65.1111L68.4167 192.1L72.5 193.651L78.1389 196.366L81.0556 197.917L82.8056 198.499L82.6111 198.887L81.6389 199.274L80.8611 200.438H80.4722L80.0833 201.601L79.1111 203.928L78.7222 205.285L77.1667 204.122L75.0278 202.183L71.9167 199.856L68.8056 198.111L65.8889 197.141L60.8333 196.172L56.5556 195.784L52.4722 195.978L48.3889 196.56L46.4444 196.948L46.6389 196.366L49.75 194.815L53.8333 193.07L56.75 192.1L59.4722 191.518L60.8333 191.324Z" fill="#505050"/>
<path d="M141.722 93.4037H144.25L146.583 94.5671L148.139 96.1183L149.694 98.8329L150.472 100.772L150.861 103.874V109.304L150.667 111.63L150.083 113.182L149.306 115.509L148.139 118.029H147.75L147.361 118.805L146 120.55L144.833 121.52L143.083 122.295H140.556L138.806 121.52L137.25 120.162L135.889 118.223L134.528 115.315L133.75 111.437V106.201L134.528 102.323L135.694 99.2207L137.444 96.5061L138.611 95.1488L140.167 93.9854L141.722 93.4037ZM142.111 94.761L140.167 95.5366L138.611 96.8939L137.444 98.639L136.472 100.772L135.306 104.65L135.111 106.589V110.855L135.694 113.957L136.083 115.509L137.639 118.611L139.194 120.356L140.361 120.938H142.889L144.833 119.968L146.389 118.417L147.167 117.06V116.672H147.556L148.917 112.6V111.824H149.306L149.5 109.11H147.167L145.417 108.334L144.639 107.752L144.444 107.171L143.472 106.201L142.889 105.038V101.741L143.667 99.8024L145.028 98.2512L146.972 97.2817L146.778 96.5061L145.028 95.1488L143.861 94.761H142.111Z" fill="#111111"/>
<path d="M132 180.854L133.75 181.048L136.861 182.599L139 184.15L141.139 186.089L142.889 188.416L142.694 189.385L142.5 188.998L141.917 189.579L141.528 191.13L141.722 192.876L141.917 195.396V197.917L142.306 197.723L142.5 198.305L142.889 198.693L143.083 201.601L142.889 201.213L141.917 201.02L138.806 198.499L136.278 196.754L133.361 195.59L130.833 194.621L127.333 194.039L127.139 193.457L127.722 193.07H128.694V192.682L129.861 192.488L130.25 191.324L130.056 190.161L130.833 188.222L131.611 186.865H132L132.194 186.283H132.583L132.778 185.701L134.333 184.732L135.111 184.538L135.306 183.762L135.111 182.599L134.139 182.211L132.583 181.435L132 180.854Z" fill="#797979"/>
<path d="M159.806 190.355L160.972 190.549L163.889 192.1L165.639 193.457V193.845L166.611 194.233L167.778 195.59L169.722 197.141L171.083 198.305L171.472 198.499V198.111L173.028 197.335L175.556 196.754H177.889L177.306 197.723L176.722 197.917V198.305H176.333L176.528 198.887L176.139 199.856L175.944 202.571L176.917 203.54L177.111 204.122L177.694 203.928L177.889 204.316L175.75 204.51L170.5 206.255H170.111V204.316L170.694 201.989L171.278 200.826V199.662L170.306 200.244L169.333 202.377L168.75 205.867L167.778 205.673L164.861 204.316L162.139 202.959L160 202.183L159.222 201.213H159.806L160.194 199.662V198.305L159.806 197.141L160.389 196.366L160.778 194.039L161.361 193.457H161.75L161.556 192.488H160.972L160.778 191.518L159.806 190.937V190.355Z" fill="#797979"/>
<path d="M112.167 97.0878H115.472L117.806 98.0573L119.556 99.6085L121.111 102.323L121.889 104.456L122.083 105.426V109.498L121.5 112.406L120.917 114.345L119.361 117.448L117.611 119.58L115.667 121.132L113.722 122.101L112.361 122.489H110.222L108.083 121.713L106.139 119.968L104.972 118.611L104.194 117.06L103.417 114.345V108.916L104 106.201L104.778 104.262L105.944 102.129L107.5 100.19L108.861 98.8329L111 97.4756L112.167 97.0878ZM113.528 98.2512L111.194 98.8329L109.056 100.19L107.694 101.741L106.333 103.874L105.167 106.783L104.778 108.916V114.151L105.556 116.672L107.111 119.387L109.25 120.938L110.028 121.132H112.556L114.694 120.356L116.25 119.193L117.611 117.835L119.361 114.733L120.139 113.182V112.406H118L116.25 111.437L114.889 109.885L114.306 108.722V105.62L115.083 103.874L116.25 102.323L117.806 101.548L118.972 101.354L118.583 100.384L117.028 99.0268L116.056 98.4451L113.528 98.2512Z" fill="#101010"/>
<path d="M173.028 163.596L174 163.79L174.972 165.341L176.139 167.087L176.722 168.25V168.638H177.111L177.694 170.189L177.889 170.965H177.111L176.917 172.322L177.306 174.455L177.889 176.976L178.861 179.302L179.833 180.854L180.222 184.926L180.417 186.089L180.222 187.252L180.806 188.222L181.389 190.743L181.778 191.906L182.75 192.488L183.722 193.457V194.039H181.778L180.611 193.845H175.75L176.139 193.457L179.25 193.263L178.667 192.682L177.694 191.906L176.722 190.937L176.139 189.191L175.75 187.059L174.972 183.956L174.583 181.629L174.389 179.69L173.806 177.363L173.611 176.2V174.455L173.028 171.74L172.833 169.026L172.639 168.056V164.76L173.028 163.596Z" fill="#656565"/>
<path d="M155.722 77.6976H157.278L158.444 78.861L158.833 79.0549L160.583 83.7085L161.361 85.8415L161.556 87.0049H161.167L160 84.678V83.9024H159.611L158.444 82.1573L158.056 81.3817H157.278L157.472 84.872L157.278 87.9744L156.694 90.1073V93.4037L156.889 94.3732V96.7L156.694 98.4451V100.772L155.917 103.099L154.944 105.426L153.583 107.365L152.611 109.304L151.833 111.63V112.212L151.444 112.406L151.25 113.182H150.278V111.824L150.472 111.63L150.667 109.304V103.874L150.472 101.741L150.861 102.517L151.056 103.487L151.25 106.977L151.444 106.395H151.833L152.222 103.487L152.611 101.548L153 98.8329L153.583 97.2817L154.167 96.8939L154.361 96.3122L155.139 95.9244L155.333 95.3427H154.167L152.806 94.3732L148.333 89.9134L146.778 87.9744L146.972 87.0049H148.139L150.278 88.75L153.389 91.6585L154.75 92.8219L155.528 93.5976L155.917 93.7915L155.139 92.4341L154.944 91.4646L154.75 90.3012L155.333 86.2293L155.528 85.0659V81.7695L154.944 79.6366L155.139 78.861L155.722 77.6976Z" fill="#B4B4B4"/>
<path d="M164.083 148.278L164.667 148.472L165.056 150.799L165.639 151.574L165.833 153.32V154.483L166.222 156.422V160.3L166.611 161.27L167 165.341V165.923L167.194 167.087V170.189L167.583 171.352L167.389 172.516H167.778V174.067L167.972 174.455L168.167 176.2L168.361 176.782V177.17L168.75 178.527V179.69H169.139L169.917 183.568L170.306 185.313V186.089H170.694L171.083 188.222L171.472 188.804L171.861 189.967L172.25 190.743V191.324L171.083 191.13L170.111 190.937L168.167 186.089L166.222 180.272L164.861 174.649L163.889 168.056L163.111 160.882V159.33L163.5 160.106L163.694 159.912V151.38L164.083 148.278Z" fill="#656565"/>
<path d="M115.667 183.568L116.639 183.762L117.417 184.732L118.194 185.12L119.556 185.313L119.75 185.507L119.556 186.865L119.167 188.998L118.778 190.161L118.389 192.1V192.876L120.139 193.651L120.528 193.457L120.333 194.233L118.583 194.621L113.528 195.978L110.417 196.948L108.861 197.529L109.056 195.784L109.25 194.621V189.579L108.861 189.385L110.028 188.998V188.61L110.611 188.222L110.806 187.64H111.194L111 187.059H111.389L111.583 186.283L113.722 184.926H114.111V184.538L115.278 183.956L115.667 183.568Z" fill="#797979"/>
<path d="M96.0278 188.804H97.5833L97.1944 189.579L95.4444 190.549H95.0556V190.937L94.2778 191.712L94.4722 193.07L94.0833 193.457L93.5 194.233H93.1111L92.7222 195.202H95.0556L95.8333 195.59H95.4444V195.978L91.5556 197.335L88.6389 198.887H88.0556V199.274L85.9167 200.826L83.9722 202.377L82.0278 204.122H81.6389L82.0278 201.02L81.25 200.826L79.8889 204.316L79.3056 205.673L78.7222 205.479L79.1111 203.54L80.4722 200.438L82.0278 198.887L83.3889 198.111L84.5556 196.754L86.1111 194.427L88.25 192.1L90.1944 190.743L92.5278 189.773L96.0278 188.804Z" fill="#656565"/>
<path d="M98.3611 188.416H103.222L105.75 188.998H106.722V190.161L106.917 190.355V192.1L106.528 193.457V194.621L105.75 195.59H105.361V195.978H103.611L101.472 195.396H98.3611L95.4444 195.784L95.0556 195.396H92.7222L92.3333 195.009L93.5 194.039L93.8889 193.263L94.2778 193.07L94.0833 191.712L94.6667 190.937H95.0556V190.549L97.3889 189.191L97.5833 188.804L96.8056 188.61L98.3611 188.416Z" fill="#505050"/>
<path d="M142.889 138.583H143.278L143.083 140.91L142.111 142.073L137.833 144.012L136.083 144.4L134.917 144.594L134.528 144.4L134.333 142.655L131.611 143.43L131.028 144.594H130.639V143.624H129.278L129.472 144.4H130.444V144.788H131.611L131.806 143.818L132.778 144.012L133.75 143.818L134.333 144.206V144.788L132.583 145.176H131.417V145.563L126.167 145.951L121.111 145.563L119.556 145.176L119.361 144.788L117.028 144.4L112.944 143.043L111.194 141.685L111 140.91L111.972 141.104L113.333 141.685L112.361 140.91L111.583 140.522V140.134L110.417 139.746V138.971L111.583 139.359L113.139 140.522L115.083 141.104L116.25 141.685L118 142.073L118.389 142.461L119.167 142.267L124.417 142.849L125.389 143.237L125.778 143.043H127.333L128.111 144.012L128.306 145.37H128.694V144.012L128.889 143.624H128.5L128.694 143.043L134.528 141.685L135.889 141.104L137.639 140.716V141.104L138.222 141.298L138.417 143.237H138.806L138.611 141.298L138.222 140.91V140.328L139 139.94H139.778V139.552L141.528 138.971L142.889 138.583Z" fill="#727272"/>
<path d="M145.611 153.32L145.806 154.095L144.25 163.209L143.667 167.28L143.472 169.413V180.854L143.667 184.732L142.889 184.344L140.361 181.823L137.25 179.884L135.306 178.915L131.222 177.751L126.556 176.976L122.278 176.782V176.588H127.139L132.778 177.17L134.722 177.751L137.056 178.721L138.028 178.333L138.417 177.557L138.611 176.2L139 175.424L139.583 174.843L139.972 173.291V171.934L140.361 170.771L140.75 168.832L141.528 166.311L142.306 165.535H142.889V166.117H143.278L144.25 160.3L144.056 159.524H143.667V159.137H143.278V157.391L143.667 156.616H144.444L144.639 157.004L145.028 155.84L145.611 153.32Z" fill="#767676"/>
<path d="M194.806 198.111L197.333 198.305L203.556 199.662L207.25 200.244L211.333 200.632V201.213H210.556V201.601L207.833 202.571L205.889 203.346L203.556 203.734H187.806L186.444 203.346L186.833 203.152L186.639 202.377L187.806 201.795L188.194 201.213L190.139 200.632L190.917 200.438L192.083 200.244L193.833 200.632L195.194 200.244L199.278 200.05L199.667 199.856V199.468L197.917 199.274L196.75 198.887L194.806 198.499V198.111Z" fill="#656565"/>
<path d="M159.611 178.139L160.194 178.333L161.167 180.078L161.944 181.629V182.017H162.333L163.5 183.374L164.667 184.344L164.472 185.12L165.444 185.507L165.833 186.283L165.639 184.732L166.028 185.313L167.972 191.13L168.361 191.906L168.167 192.488L164.861 189.967L162.139 188.416L158.833 187.252L155.528 186.671H153.583L150.083 187.059L146 188.416L145.417 186.671L145.611 185.895L145.806 186.283L147.361 185.507L150.083 184.926L152.028 184.732H158.25L159.222 184.926L159.417 182.987V178.333L159.611 178.139Z" fill="#787878"/>
<path d="M164.667 84.0963L165.444 84.4841L167 86.0354L169.722 87.7805L172.639 89.1378L176.333 90.3012L179.444 90.689H183.139L183.917 90.4951L183.528 91.2707L181.778 93.2098L180.222 95.7305L179.056 98.639L178.278 98.2512L176.917 96.7L175.556 95.3427L173.417 93.5976L170.111 91.2707L167.972 89.9134L166.806 88.5561L164.667 84.4841V84.0963Z" fill="#505050"/>
<path d="M81.8333 179.302L82.6111 179.496L83.1944 181.241L83.3889 183.18L83.1944 185.12L83 186.089L82.8056 186.477L82.4167 189.967L83 187.252H83.1944L83 189.191L81.8333 195.202L81.25 195.784L80.8611 195.396H81.4444L81.6389 193.457L79.6944 193.845L79.3056 193.651V193.263L78.5278 192.876L77.1667 190.937L76.9722 189.967L77.3611 188.222L78.5278 185.895L79.1111 184.538L79.6944 182.987L80.4722 181.048L81.6389 179.496L81.8333 179.302Z" fill="#B5B5B5"/>
<path d="M164.278 86.811L165.056 87.5866L166.806 90.8829L168.75 95.5366L171.083 100.384L172.25 102.323L173.806 104.262L175.361 105.62V106.007L173.028 106.977L169.917 108.916H169.528L168.556 103.099L166.806 95.7305L165.639 91.0768L164.278 87.1988V86.811Z" fill="#505050"/>
<path d="M105.556 141.879L106.528 142.073L108.472 144.982L110.028 147.115L110.611 147.89V148.278H111L112.361 149.829L113.917 151.187L117.028 152.738L120.722 154.095L123.25 154.483H127.722L130.444 154.289L133.75 153.32L135.111 152.738H135.694L135.5 153.513L134.528 154.289L132.194 155.259L129.278 156.034L127.917 156.228H123.639L119.361 155.452L116.444 154.483L113.528 152.544L111.583 150.993L110.222 149.441L108.472 147.115L106.917 144.594L105.556 142.267V141.879Z" fill="#1C1C1C"/>
<path d="M91.9444 189.967H93.1111L92.7222 190.161V190.549L91.3611 191.13L89.6111 191.712V192.1H89.2222V192.488H88.8333L88.4444 193.845L88.25 194.621V195.59L87.0833 197.529L86.8889 198.305L87.8611 198.111L88.4444 197.917L90 197.529V198.111L88.6389 198.887H88.0556V199.274L85.9167 200.826L83.9722 202.377L82.0278 204.122H81.6389L82.0278 201.02L81.25 200.826L79.8889 204.316L79.3056 205.673L78.7222 205.479L79.1111 203.54L80.4722 200.438L82.0278 198.887L83.3889 198.111L84.5556 196.754L86.1111 194.427L88.25 192.1L90.1944 190.743L91.9444 189.967Z" fill="#787878"/>
<path d="M155.722 116.866L156.5 117.06L156.694 117.641L155.139 119.193L153.972 120.744L153 121.713L151.833 123.459L151.639 123.846L152.806 123.265L154.167 121.713L156.306 119.58L156.694 120.162L157.278 120.744L156.889 121.52L155.333 123.459L153.583 126.173L153.389 126.561L154.361 126.173L155.917 124.234L157.278 122.489L157.861 122.101L157.278 123.846L155.917 125.979L154.556 127.337L154.167 127.53H152.028L150.472 126.561V126.173H150.083L149.111 124.816L148.917 124.04V122.489L150.083 120.356L152.028 118.611L152.417 118.417L152.028 119.387L150.472 121.52L149.694 122.877L149.5 123.846L150.472 123.652L150.861 122.683L152.417 120.356L154.167 118.417L155.722 116.866Z" fill="#F8F8F8"/>
<path d="M143.667 144.4L143.861 144.982L143.278 145.757L142.694 147.502L141.722 150.023L141.139 151.768L140.75 153.707L140.556 154.095V155.259L139.972 158.167V161.851L139.583 163.596L138.417 169.413L138.028 170.771L137.833 171.546L137.25 173.098L136.861 174.649L136.083 175.618L135.694 177.17H133.75L132.583 176.782H130.639V176.394H133.361L134.139 176.2L134.722 174.843L135.306 173.291H135.694L135.889 172.322L136.861 170.577L137.639 167.668L138.028 166.505L138.222 164.372L138.611 162.627V160.688L139.389 153.32L139.583 152.932L139.778 151.187L140.75 149.635L141.139 148.278L141.917 146.921H142.306L142.5 146.145L143.083 144.982H143.472L143.667 144.4Z" fill="#B7B7B7"/>
<path d="M142.889 138.583H143.278L143.083 140.91L142.111 142.073L137.833 144.012L136.083 144.4L134.917 144.594L134.528 144.4L134.333 142.655L131.611 143.43L131.028 144.594H130.639V143.624H129.278L129.472 144.4H130.444V144.788H131.611L131.806 143.818L132.778 144.012L133.75 143.818L134.333 144.206V144.788L131.028 145.37L129.083 145.563L128.694 145.37V144.012L128.889 143.624H128.5L128.694 143.043L134.528 141.685L135.889 141.104L137.639 140.716V141.104L138.222 141.298L138.417 143.237H138.806L138.611 141.298L138.222 140.91V140.328L139 139.94H139.778V139.552L141.528 138.971L142.889 138.583Z" fill="#F4F4F4"/>
<path d="M203.167 199.856H204.722L209.194 200.438L211.333 200.632V201.213H210.556V201.601L207.833 202.571L205.889 203.346L203.556 203.734H192.861V203.54L194.611 203.346H196.556L196.944 202.377L197.722 202.183L197.917 201.601L199.667 201.795L200.444 201.407L202.389 201.213L203.556 200.826V200.05L203.167 199.856Z" fill="#787878"/>
<path d="M107.694 172.71L108.472 172.904L108.667 174.261V177.751L108.278 179.302L107.306 182.405V183.568L106.722 184.926H106.139L105.944 185.313L104.389 185.507L104 184.732H103.611L103.417 183.762L103.806 182.405L104.972 178.915H105.361L105.75 177.751L106.528 176.2L106.722 174.649L107.5 172.904L107.694 172.71Z" fill="#B7B7B7"/>
<path d="M148.722 190.743L150.083 190.937L150.278 191.906L149.694 192.488H148.528L147.944 194.815L148.139 195.784L147.75 195.978L146.972 199.08L146 200.05L145.806 201.213H146.194L146 202.377L144.833 202.959L144.056 202.765L144.25 197.917L144.639 194.621L145.417 192.294H146L146.972 191.13H148.139L148.722 190.743Z" fill="#787878"/>
<path d="M148.722 117.254H149.306V117.641H148.917L149.111 118.223H148.722L149.111 120.55L150.083 119.968L150.861 119.58L150.667 120.162L149.889 120.938L149.111 122.489L148.917 123.846H147.75L147.361 125.01L146.972 126.755H146.583L146.389 128.306L145.417 131.021L145.222 133.541H146.583L147.556 132.96H148.139L146.583 134.511L146 134.123L144.639 134.899L143.667 134.123L143.861 133.348V131.602L144.639 129.663L145.417 125.785L145.806 124.04L146.194 123.265H146.583L146.389 122.295L146.778 121.907L147.167 119.774L146.583 119.58L147.75 118.029H148.139V117.641L148.722 117.254Z" fill="#B5B5B5"/>
<path d="M125 179.302L127.139 179.496L129.278 179.884V180.466L130.444 181.048L131.028 181.823V182.405H130.639L130.444 182.987L128.111 184.344L126.556 184.926H125.389L124.028 183.956L123.25 182.405V180.854L123.833 180.272L125 179.69L126.944 179.884L125 179.496V179.302Z" fill="#505050"/>
<path d="M175.556 196.754H177.889L177.306 197.723L176.722 197.917V198.305H176.333L176.528 198.887L176.139 199.856L175.944 202.571L176.917 203.54L177.111 204.122L177.694 203.928L177.889 204.316L175.75 204.51L170.5 206.255H170.111V204.316L170.306 203.152L171.083 202.765L171.667 202.571V202.183H173.028L173.222 201.989H174.194L174 201.407L174.389 200.632L174.583 198.305L175.361 197.917V197.141L174.778 196.948L175.556 196.754Z" fill="#656565"/>
<path d="M111 90.1073H112.556V91.6585L106.333 94.3732L101.861 96.5061H100.694L100.306 96.1183L100.5 95.3427L103.028 93.5976L106.139 92.0463L108.278 91.0768L110.028 90.4951L111 90.1073Z" fill="#0E0E0E"/>
<path d="M161.75 125.979H162.139L162.333 135.48L162.917 143.043L163.111 159.33H162.917L162.722 157.973L162.528 153.513L162.333 142.267L162.139 138.389L162.333 159.718L162.917 167.087L163.111 168.832V170.771H162.917L162.139 162.627L161.75 157.391L161.556 134.899V127.918L161.75 125.979Z" fill="#585858"/>
<path d="M146.972 87.0049H148.139L150.278 88.75L153.389 91.6585L154.75 92.8219L155.333 93.4037L155.528 94.5671L155.139 95.1488H153.778L152.806 94.3732L148.333 89.9134L146.778 87.9744L146.972 87.0049Z" fill="#0F0F0F"/>
<path d="M154.944 194.427L155.333 194.621L153.972 195.784L153.583 196.366H153.194L152.806 197.141L152.222 198.111V199.274L152.417 199.468V200.438L151.639 200.826V201.213H152.222L152.417 200.826H153.194V201.213H155.139V201.407L149.694 201.795L147.556 201.989L147.75 200.826L148.139 200.244H148.528L148.917 199.08L148.722 198.305L149.306 198.111V197.723L149.694 197.529L150.278 196.366L150.667 195.784L151.833 195.978L152.611 195.784L153.778 195.202H154.361L154.556 194.621L154.944 194.427Z" fill="#505050"/>
<path d="M142.889 188.804L143.472 189.385L144.25 190.355V190.743H144.639L144.444 191.906V192.488L143.667 194.621L143.472 196.754L143.278 201.795L142.5 201.601L142.306 201.213L142.889 201.02L142.694 198.693L141.722 197.917V194.621L141.333 191.906L141.528 189.967L141.722 189.191L142.5 188.998L142.694 189.191L142.889 188.804Z" fill="#515151"/>
<path d="M151.833 186.283H156.111L158.25 186.671H160.389L160.583 186.477H162.528L164.278 187.252L166.222 188.61L166.611 188.998L167 188.416L168.167 191.518L168.361 192.488L166.611 191.324L164.278 189.579L161.167 188.028L158.056 187.059L155.528 186.671H153.583L150.083 187.059L148.722 187.252L149.5 186.671L151.833 186.283Z" fill="#5F5F5F"/>
<path d="M174 197.141H175.361V197.917L174.778 198.305L174.583 200.632L174.194 201.601V201.989H173.222L173.028 202.377L171.667 202.183V202.571L170.889 203.152L170.694 204.122H170.5V202.571L171.278 200.826V199.662H170.694V199.274L171.667 198.887L171.472 198.111L173.028 197.335L174 197.141Z" fill="#777777"/>
<path d="M140.361 186.865L141.333 187.059H141.917L142.889 188.416L142.694 189.385L142.5 188.998L141.917 189.579L141.528 191.13L141.722 192.876L141.917 195.396V197.917L142.306 197.723L142.5 198.305L142.889 198.693V200.826L142.694 200.438L141.722 200.244L141.139 198.693L140.944 196.948L140.75 192.488L140.556 189.191H140.167V187.059L140.361 186.865Z" fill="#656565"/>
<path d="M152.611 189.191H154.167L154.944 189.579L155.139 189.967H156.306L156.5 191.324L156.306 191.712H155.528L155.333 192.294L153.778 193.07L153.389 192.876L153 193.651H152.611L152.417 194.039L151.833 193.457L151.056 190.743V190.161L151.833 189.967L152.611 189.191Z" fill="#505050"/>
<path d="M142.889 138.583H143.278L143.083 140.91L142.111 142.073L138.611 143.624V141.298L138.222 140.91V140.328L139 139.94H139.778V139.552L141.528 138.971L142.889 138.583Z" fill="#F6F6F6"/>
<path d="M111 140.91L111.972 141.104L112.75 141.491L112.944 141.879L114.111 142.267L114.306 142.655L115.083 142.849V143.237L116.444 143.043L116.25 142.073L117.806 142.267V142.655L117.222 143.043V143.624H118.389V144.012L120.139 143.818L121.5 144.788L121.889 144.206H122.472L122.861 144.012L123.833 144.4H124.417L124.611 143.818L125 144.012L124.611 144.788L124.806 144.982L125 145.37L124.028 145.563L121.5 145.37L119.556 144.982L119.361 144.788L117.028 144.4L112.944 143.043L111.194 141.685L111 140.91Z" fill="#ECECEC"/>
<path d="M166.417 176.588H167V177.17L167.389 177.363L167.778 179.496H168.167L168.75 182.017L169.333 183.762L169.528 184.732L169.917 186.089L169.722 186.671L169.333 186.477V186.089H168.944L169.139 188.222L168.75 187.64L166.806 182.211L167.194 181.048L166.611 177.363L166.417 176.588Z" fill="#515151"/>
<path d="M62.5833 194.233L63.3611 194.427L65.6944 195.59L66.2778 196.56L67.8333 197.141V197.335L65.8889 197.141L60.8333 196.172L58.8889 195.978V195.59H57.7222L57.5278 195.202L60.8333 194.621L62.5833 194.233Z" fill="#646464"/>
<path d="M155.333 115.702L155.917 115.896L155.528 116.866L154.75 117.641H154.361L153.972 118.611L152.028 121.132L150.472 123.652L149.5 123.846V122.877L151.444 119.774L152.222 118.805H152.611L153 117.835L154.944 115.896L155.333 115.702Z" fill="#1C1C1C"/>
<path d="M147.361 146.921H147.75L147.556 149.829L146.194 159.137L145.222 166.893L144.833 171.159V174.843L145.222 182.405V184.344H145.028L144.639 180.272L144.444 176.2V170.577L145.222 163.015L146.583 153.32L147.167 149.248V147.309L147.361 146.921Z" fill="#606060"/>
<path d="M102.639 122.683H103.611V123.459L102.25 124.234L98.3611 126.367L97 127.143L96.2222 127.724L95.6389 127.337V126.755L98.5556 124.816L101.667 123.265L102.639 122.683Z" fill="#232323"/>
<path d="M110.417 138.971L111.583 139.359L113.139 140.522L115.083 141.104L116.25 141.685L118 142.073L118.194 142.655L118 143.43L117.417 143.624L117.222 142.849L117.806 142.655V142.267L116.25 142.073L116.639 143.237H115.083V142.849L114.111 142.655L113.917 142.267L112.75 141.879L113.333 141.685L112.361 140.91L111.583 140.522V140.134L110.417 139.746V138.971Z" fill="#4C4C4C"/>
<path d="M111 191.906L111.194 192.682L111 194.621L110.806 195.396L111.972 195.59L112.556 195.784L112.361 196.366L110.417 196.948L108.861 197.529L109.056 196.56L109.444 194.815L109.639 193.07L110.028 192.488H110.611V192.1L111 191.906Z" fill="#9B9B9B"/>
<path d="M112.361 154.677H112.944L112.75 162.045H112.556L112.167 159.33L111.583 164.76L110.417 171.352H110.222L110.417 168.832L111.194 164.372L111.389 162.627L111.583 158.555L111.972 155.259L112.361 154.677Z" fill="#737373"/>
<path d="M99.9167 121.52L100.5 121.713L100.306 122.877L96.2222 125.398L95.0556 126.367H94.4722V125.398L95.8333 124.234L98.9444 122.295L99.9167 121.52Z" fill="#202020"/>
<path d="M156.5 118.029L157.278 118.223L157.083 118.805H156.694L156.306 119.774L152.222 123.846H151.639L152.028 122.683L153.583 120.744H153.972L154.361 119.968L156.5 118.029Z" fill="#242424"/>
<path d="M98.5556 120.162H99.5278L99.3333 120.938L96.6111 122.877L93.6944 124.816H93.1111L93.3056 124.04L95.6389 122.101L98.5556 120.162Z" fill="#1C1C1C"/>
<path d="M145.611 153.32L145.806 154.095L144.25 163.209L143.667 167.28H143.472V165.341L144.25 160.3L144.056 159.524H143.667V159.137H143.278V157.391L143.667 156.616H144.444L144.639 157.004L145.028 155.84L145.611 153.32Z" fill="#6D6D6D"/>
<path d="M157.667 120.356H157.861V121.52L157.278 122.683L155.333 125.204L154.167 126.561H153.389L153.778 125.398L156.306 121.907H156.694L157.083 121.132L157.667 120.356Z" fill="#2A2A2A"/>
<path d="M117.611 103.68L118.972 103.874L119.556 104.262V105.62L119.167 106.201L117.417 106.395L116.444 105.426V104.65H116.833L117.222 103.874L117.611 103.68Z" fill="#F5F5F5"/>
<path d="M146.194 99.9963H147.361L148.139 100.966V102.129L146.972 102.711H145.806L145.222 102.129V100.966L146.194 99.9963Z" fill="#F3F3F3"/>
<path d="M142.889 138.583H143.278L143.083 140.91L142.5 140.328L141.722 141.104H141.333L140.944 141.879H139.583L139.778 140.91L140.556 139.94L139.778 139.552L141.528 138.971L142.889 138.583Z" fill="#707070"/>
<path d="M83 198.305L83.7778 198.499L82.8056 199.274H82.4167L82.2222 199.856L81.4444 200.244L79.6944 204.898L79.3056 205.673L78.7222 205.479L79.1111 203.54L80.4722 200.438L82.0278 198.887L83 198.305Z" fill="#878787"/>
<path d="M161.944 124.234H162.139V125.979H161.75V141.491H161.556L161.361 136.45L160.972 132.766L161.361 125.979L161.556 124.428L161.944 124.234Z" fill="#787878"/>
<path d="M119.361 143.818L120.333 144.012L121.5 144.788L121.889 144.206H122.472L122.861 144.012L123.833 144.4H124.417L124.611 143.818L125 144.012L124.611 144.788L124.806 144.982L125 145.37L124.028 145.563L121.5 145.37L119.556 144.982L118.972 144.594V144.206L118.583 144.012L119.361 143.818Z" fill="#F6F6F6"/>
<path d="M133.556 142.655H134.333L134.528 144.4L135.306 144.788H134.333V144.206L132.972 144.012H131.806L131.611 144.788H130.444V144.4L129.278 144.594V143.624H130.639V144.594L131.028 144.4L131.611 143.237L133.556 142.655Z" fill="#696969"/>
<path d="M125.778 143.043H127.333L128.111 144.012L128.306 145.37L128.694 145.563H125.583L125.194 144.788L125.389 144.4L126.556 144.594L127.528 144.4V143.624L126.167 144.012L125.389 143.818L125.778 143.043Z" fill="#F2F2F2"/>
<path d="M84.9444 200.632H85.3333L85.1389 201.407L82.4167 203.734L81.6389 204.122L81.8333 202.571L82.0278 201.989H82.4167V201.02L82.6111 201.407L84.3611 201.02H84.9444V200.632Z" fill="#9F9F9F"/>
<path d="M148.333 188.998H152.028L151.639 189.385L149.889 189.967L148.333 190.161L146.972 190.549H146L146.583 189.579L148.333 188.998Z" fill="#757575"/>
<path d="M64.1389 191.518H66.0833L69 192.294L72.8889 193.845L73.2778 194.039V194.427L72.5 194.233L70.1667 193.457L68.2222 192.682L66.4722 192.294L64.5278 192.1L64.1389 191.906V191.518Z" fill="#5C5C5C"/>
<path d="M147.361 146.921H147.75L147.556 149.829L146.194 159.137L145.417 164.178H145.222L145.417 161.657L146.778 152.156L147.167 149.248V147.309L147.361 146.921Z" fill="#616161"/>
<path d="M173.028 203.928H173.806V204.316L174.778 204.51V204.898L170.889 206.061H170.306V204.51L171.861 204.704H172.25L173.028 203.928Z" fill="#757575"/>
<path d="M107.694 190.355H108.083V194.039L107.306 197.141H106.528L106.333 196.366L106.917 195.59L107.5 193.457V190.743L107.694 190.355Z" fill="#797979"/>
<path d="M116.833 106.977L118 107.171L118.583 107.559V108.528L117.806 109.304L116.639 109.11L116.444 108.916V107.365L116.833 106.977Z" fill="#F4F4F4"/>
<path d="M207.639 200.632L211.139 200.826V201.213H210.556V201.601L207.833 202.571L207.25 202.377L207.639 201.601H208.028V201.213L207.639 201.02V200.632Z" fill="#A5A5A5"/>
<path d="M119.167 143.237L121.306 143.43L121.5 143.818L121.694 143.43L123.639 143.624L124.222 144.012L124.028 144.206H122.667L122.083 144.788L121.889 144.4L121.5 144.982L120.139 144.012L118.972 143.818L119.167 143.237Z" fill="#565656"/>
<path d="M118.583 142.655H120.139L124.222 143.043L124.611 143.237V143.624H122.667L121.694 143.43L121.5 144.012L121.306 143.43H118.583L118.194 142.849L118.583 142.655Z" fill="#F2F2F2"/>
<path d="M206.472 202.377L207.639 202.571L206.861 202.959L204.917 203.54L203.556 203.734H199.667L199.472 203.346L204.917 202.959L206.472 202.377Z" fill="#8B8B8B"/>
<path d="M166.028 90.3012L166.611 91.0768L167.389 94.1793L167.583 94.761L167 95.5366L166.222 93.4037L166.028 92.4341V90.3012Z" fill="#646464"/>
<path d="M172.056 197.723L172.444 197.917L173.222 198.887V199.468L171.861 200.05L171.472 200.438L171.278 199.662H170.694V199.274L171.667 198.887L171.472 198.111L172.056 197.723Z" fill="#646464"/>
<path d="M110.417 138.971L111.583 139.359L113.139 140.522L114.5 141.104L115.083 141.685L114.889 141.879H113.917L112.556 140.716L110.417 139.746V138.971Z" fill="#EDEDED"/>
<path d="M146.389 103.487L147.361 103.68L147.556 103.874V105.038L146.389 105.426L145.611 104.844L145.806 103.874L146.389 103.487Z" fill="#F1F1F1"/>
<path d="M126.361 143.624H127.528V144.4L126.361 144.788L125.389 144.4L125.583 145.563H124.417L125 145.37L124.222 144.982L124.417 144.594L125.389 143.818L126.361 143.624Z" fill="#9C9C9C"/>
<path d="M164.278 86.811L165.056 87.5866L166.222 89.7195L166.028 91.8524L165.639 91.0768L164.278 87.1988V86.811Z" fill="#575757"/>
<path d="M128.889 142.655H130.639V142.849L128.694 143.237L128.5 143.624H128.889L128.694 145.37H128.306L127.722 143.624L127.333 143.237L125.778 143.043V142.849H127.528L128.111 143.043L128.889 142.655Z" fill="#6A6A6A"/>
<path d="M164.667 193.263L165.639 193.457V193.845L166.611 194.233L167.778 195.59L168.944 196.56L169.333 197.335L168.556 196.948L166.611 195.202V194.815L165.833 194.621L164.861 193.651L164.667 193.263Z" fill="#949494"/>
<path d="M142.5 140.134L142.889 140.328L142.694 141.491L141.722 142.267L140.944 142.461L141.139 141.104L141.722 140.716H142.111L142.5 140.134Z" fill="#DEDEDE"/>
<path d="M122.278 176.588H127.139L130.444 176.976V177.363L131.028 177.557L129.083 177.363L126.556 176.976L122.278 176.782V176.588Z" fill="#626262"/>
<path d="M91.9444 189.967H93.1111L92.7222 190.161V190.549L91.3611 191.13L89.6111 191.712L89.8056 190.937L91.9444 189.967Z" fill="#707070"/>
<path d="M131.611 143.237H132.194L131.806 144.012L131.611 144.788H130.444V144.4L129.278 144.594V143.624H130.639V144.594L131.028 144.4L131.611 143.237Z" fill="#5C5C5C"/>
<path d="M166.806 106.977H167L167.389 109.11V111.824H167L166.806 110.273L166.611 110.079V108.722H167L166.806 106.977Z" fill="#969696"/>
<path d="M100.694 74.4012H101.083V77.1159H99.9167L99.7222 76.5341L100.694 74.4012Z" fill="#626262"/>
<path d="M83.1944 185.313L83.3889 186.089L82.4167 190.743H82.2222L82.4167 188.416L82.6111 186.477L83.1944 185.313Z" fill="#FAFAFA"/>
<path d="M161.944 124.234H162.139V125.979H161.75V127.918L161.361 128.5V125.979L161.556 124.428L161.944 124.234Z" fill="#707070"/>
<path d="M210.75 198.111H212.5L214.056 198.499L214.25 198.887L213.083 199.08L211.333 198.693L210.75 198.499V198.111Z" fill="#656565"/>
<path d="M157.472 118.611H157.667L157.472 120.938L156.694 120.55L156.306 119.387L157.472 118.611Z" fill="#B8B8B8"/>
<path d="M83 198.305L83.7778 198.499L82.8056 199.274H82.4167L82.2222 199.856L81.4444 200.244L81.25 200.632H80.8611L81.25 199.662L82.0278 198.887L83 198.305Z" fill="#9D9D9D"/>
<path d="M108.472 178.915L108.667 179.69L107.5 182.793H107.111L107.889 179.69L108.472 178.915Z" fill="#FAFAFA"/>
<path d="M111.583 140.328L112.556 140.522L113.917 141.685H115.278L115.861 141.879L115.667 142.461H115.278V142.073L113.917 142.267L112.75 141.879L113.333 141.685L112.361 140.91L111.583 140.328Z" fill="#7D7D7D"/>
<path d="M138.028 140.328L138.806 141.298V143.237H138.417L138.028 141.298L137.639 141.104V140.716L137.056 140.522L138.028 140.328Z" fill="#5D5D5D"/>
<path d="M142.889 138.583H143.278L143.083 139.359L141.528 139.94L140.944 139.746L141.528 138.971L142.889 138.583Z" fill="#EEEEEE"/>
<path d="M164.278 94.761L164.667 95.5366L165.25 98.2512L165.056 99.0268V98.4451H164.667L164.278 97.0878V94.761Z" fill="#888888"/>
<path d="M194.806 198.111L197.333 198.305L199.083 198.693L198.306 199.274L196.75 198.887L194.806 198.499V198.111Z" fill="#5E5E5E"/>
<path d="M185.083 181.629L185.861 181.823L187.611 183.956L187.417 184.538L185.083 182.017V181.629Z" fill="#666666"/>
<path d="M178.667 96.8939L179.25 97.0878V98.2512L179.056 98.639L178.278 98.2512L177.694 97.4756V97.0878L178.667 96.8939Z" fill="#636363"/>
<path d="M146.972 186.865L147.75 187.059L147.944 187.252L148.722 187.446L146 188.416L145.806 187.446L146.583 187.64L146.778 187.446L146.972 186.865Z" fill="#5D5D5D"/>
<path d="M80.4722 200.438L81.25 200.826L80.2778 202.959H79.8889L80.0833 201.213L80.4722 200.438Z" fill="#8B8B8B"/>
<path d="M136.667 141.685L137.25 141.879L137.444 142.461L138.028 143.043V143.624L137.25 143.43L136.472 142.461L136.667 141.685Z" fill="#454545"/>
<path d="M107.694 190.355H108.083V194.039H107.889L107.694 192.682L107.5 191.712L107.694 190.355Z" fill="#737373"/>
<path d="M121.694 143.43L123.639 143.624L124.222 144.012L124.028 144.206H122.667L122.083 144.788L121.694 143.43Z" fill="#4B4B4B"/>
<path d="M156.306 116.09L156.694 116.284V117.448L156.5 117.06L155.528 117.254L154.167 118.611V118.029L155.139 117.06L156.306 116.09Z" fill="#C0C0C0"/>
<path d="M132.972 142.849L133.75 143.043L133.556 143.818L132.389 144.206L132 143.624L132.583 143.043L132.972 142.849Z" fill="#7E7E7E"/>
<path d="M64.1389 191.518H66.0833L67.4444 192.1V192.294L64.5278 192.1L64.1389 191.906V191.518Z" fill="#636363"/>
<path d="M164.667 84.0963L165.444 84.4841L166.222 86.0354V86.6171H165.833L164.667 84.4841V84.0963Z" fill="#5B5B5B"/>
<path d="M190.917 188.028L191.694 188.222L193.639 189.967L194.222 190.355L194.028 190.743L192.083 189.191L190.917 188.222V188.028Z" fill="#5C5C5C"/>
<path d="M135.306 142.073H135.889V143.624L135.111 143.43L134.722 142.267L135.306 142.073Z" fill="#585858"/>
<path d="M79.8889 201.601L80.0833 202.377L79.8889 202.959H80.2778L80.0833 203.928H79.5L78.9167 204.51L79.1111 203.54L79.8889 201.601Z" fill="#767676"/>
<path d="M126.361 143.624H127.528V144.4L126.361 144.788L125.972 144.594L126.167 143.818L126.361 143.624Z" fill="#6F6F6F"/>
<path d="M122.278 143.043H124.222L124.611 143.237V143.624H122.667L122.278 143.43V143.043Z" fill="#FAFAFA"/>
<path d="M145.611 102.517H147.556L147.361 103.68H146.194L146 103.099L145.611 102.905V102.517Z" fill="#616161"/>
<path d="M103.222 69.3598L104.583 69.5537L104.778 69.9415L103.611 70.1354L102.833 70.911L103.028 69.7476L103.222 69.3598Z" fill="#606060"/>
<path d="M118 142.655L118.583 142.849V143.237L118.972 143.43V143.818L119.361 144.012H118.389V143.624L117.222 143.818L117.028 143.043L117.611 143.43H118V142.655Z" fill="#878787"/>
<path d="M149.694 115.121L150.472 115.315L150.083 116.09L149.5 116.284L149.306 116.672H148.917L149.111 115.509L149.694 115.121Z" fill="#AAAAAA"/>
<path d="M164.472 169.22H164.861L165.056 170.771L164.861 172.128L164.472 171.352V169.22Z" fill="#777777"/>
<path d="M153.194 117.254V117.835L152.417 118.805H152.028L151.25 119.58L150.861 119.387L151.639 118.417L152.611 118.029L153.194 117.254Z" fill="#C3C3C3"/>
<path d="M130.639 143.237H131.611L131.028 144.594H130.639V143.624H129.667V143.43L130.639 143.237Z" fill="#AFAFAF"/>
<path d="M160.778 84.678L161.167 85.0659L161.556 87.0049H161.167L160.389 85.4537V85.0659H160.778V84.678Z" fill="#B0B0B0"/>
<path d="M164.667 193.263L165.639 193.457V193.845L166.611 194.233V194.815L165.833 194.621L164.861 193.651L164.667 193.263Z" fill="#8D8D8D"/>
<path d="M131.611 143.237H132.194L131.806 144.012L131.611 144.788H130.444L130.639 144.4H131.028L131.611 143.237Z" fill="#6C6C6C"/>
<path d="M70.9444 198.887L72.1111 199.274L73.2778 200.244L72.6944 200.438L70.9444 199.274V198.887Z" fill="#606060"/>
<path d="M81.0556 198.305L82.8056 198.499L82.6111 198.887L81.6389 199.274L81.25 199.662L81.4444 198.693H81.0556V198.305Z" fill="#696969"/>
<path d="M118.778 142.267L122.472 142.655V142.849H118.972L118.389 142.461L118.778 142.267Z" fill="#636363"/>
<path d="M143.083 139.165L143.278 139.552L143.083 140.91L142.5 140.328L141.528 139.94L143.083 139.165Z" fill="#747474"/>
<path d="M147.75 132.766L148.139 132.96L146.583 134.511L146 133.735L147.361 133.154L147.75 132.766Z" fill="#D1D1D1"/>
</svg>