<svg width="256" height="256" title="JSON Schema" viewBox="0 0 256 256" fill="none" xmlns="http://www.w3.org/2000/svg">
<rect width="256" height="256" rx="40" fill="#002CC4"/>
<path d="M90.9772 202.891C81.1674 200.761 73.7993 195.011 71.2339 187.484C69.4455 182.236 69.7001 173.726 71.9899 162.221C73.0891 156.698 73.9879 150.106 73.9872 147.571C73.985 139.147 70.1098 134.577 62.43 133.94L58 133.573V122.732L62.197 122.163C68.3209 121.334 70.6821 119.834 72.5672 115.573C73.9523 112.443 74.1282 110.886 73.7128 105.44C73.4428 101.9 72.4998 95.5877 71.6172 91.4117C69.3748 80.8024 69.4684 72.1875 71.8825 67.0046C75.4371 59.3729 84.2033 53.7409 94.3903 52.5439L98.7706 52.0292V63.4385H95.8253C91.8101 63.4385 86.1951 66.2986 84.7589 69.0753C83.3812 71.7389 83.2768 75.5642 84.4001 82.2205C86.1754 92.7405 86.7728 102.833 85.9318 108.097C84.9695 114.119 81.4568 121.228 77.5946 124.971L74.9204 127.562L78.58 132.054C83.0907 137.591 84.8448 141.453 85.9286 148.236C86.7859 153.602 86.1198 164.735 84.4087 173.642C82.0211 186.069 84.7765 190.976 94.9734 192.46L98.7706 193.012V198.558C98.7706 204.883 99.1578 204.668 90.9772 202.891Z" fill="white"/>
<path d="M157.229 192.99L161.874 192.031C167.002 190.972 171.061 187.809 171.977 184.159C172.266 183.009 171.722 176.991 170.768 170.785C167.66 150.555 169.383 140.116 177.238 131.597L180.597 127.954L178.08 125.087C169.064 114.821 167.5 105.712 170.933 83.4704C172.663 72.2643 172.665 72.1555 171.13 69.4838C169.324 66.3386 163.689 63.1946 159.858 63.1946H157.229V57.5999C157.229 51.2314 157.097 51.3157 164.585 52.904C173.569 54.8097 180.004 59.3682 183.343 66.1909C185.259 70.1058 185.547 71.6285 185.494 77.5432C185.46 81.3003 184.683 88.1506 183.769 92.7662C180.373 109.902 180.675 114.461 185.503 118.894C187.745 120.952 189.22 121.551 193.141 121.995L198 122.544V133.527L194.203 133.529C189.327 133.53 185.292 135.589 183.238 139.122C181.081 142.833 181.216 150.918 183.631 162.699C185.686 172.717 186.016 181.862 184.511 187.006C182.923 192.43 175.855 199.004 169.221 201.227C166.363 202.185 162.496 203.2 160.627 203.484L157.229 204L157.229 192.99Z" fill="white"/>
<path d="M110.802 189.47C108.487 186.528 108.824 181.458 111.665 176.485C113.767 172.804 122.562 160.743 128.911 152.83L131.474 149.637L127.39 137.799C122.809 124.52 122.836 124.263 128.876 123.362L132.204 122.866L135.922 130.457C137.967 134.632 139.932 138.048 140.29 138.048C140.647 138.048 144.312 134.071 148.433 129.21C155.592 120.767 156.04 120.394 158.463 120.843C159.926 121.114 161.224 120.948 161.532 120.451C162.253 119.284 164.321 121.01 164.321 122.778C164.321 123.504 163.291 125.348 162.033 126.876C156.894 133.119 145.934 147.882 145.934 148.561C145.934 148.961 148.144 154.118 150.844 160.02L155.754 170.751L154.263 172.982C153.442 174.209 152.762 175.533 152.75 175.924C152.739 176.316 152.121 177.02 151.377 177.489C149.492 178.678 148.099 177.228 142.337 168.08C139.699 163.892 137.28 160.457 136.961 160.446C136.252 160.422 128.37 172.073 122.278 182.151C116.905 191.04 117.885 189.901 114.877 190.763C112.712 191.384 112.172 191.212 110.802 189.47Z" fill="white"/>
<path d="M111.353 133.763C106.478 125.047 97.715 112.403 94.1797 108.983C92.3838 107.245 90.9144 105.415 90.9144 104.915C90.9144 103.552 94.5785 102.152 98.1445 102.152C101.993 102.152 106.067 105.5 109.701 111.649C111.02 113.881 112.321 115.714 112.593 115.723C112.865 115.732 114.426 111.982 116.062 107.39C119.566 97.5571 128.805 78.4414 132.433 73.5178C135.544 69.2968 140.205 67.0267 145.809 67.0029C153.137 66.9718 153.158 67.2976 146.273 74.4716C135.768 85.4194 130.947 94.4302 120.776 122.132C117.952 129.825 115.36 136.811 115.016 137.656C114.494 138.938 113.887 138.293 111.353 133.763Z" fill="white"/>
</svg>