<svg width="256" height="256" title="Julia" viewBox="0 0 256 256" fill="none" xmlns="http://www.w3.org/2000/svg" id="julia">
<style>
#julia {
    rect {fill: #15191C}

    @media (prefers-color-scheme: light) {
        rect {fill: #F4F2ED}
    }
}
</style>
<rect width="256" height="256" rx="40" fill="#15191C"/>
<path d="M75.945 164.685C75.945 168.966 75.4634 172.424 74.5002 175.056C73.5371 177.69 72.1678 179.734 70.3901 181.19C68.6147 182.646 66.4842 183.62 64.0009 184.113C61.5175 184.603 58.7545 184.85 55.7164 184.85C51.6041 184.85 48.4572 184.208 46.2756 182.923C44.0919 181.638 43 180.098 43 178.298C43 176.8 43.6081 175.538 44.8287 174.51C46.0493 173.482 47.6871 172.97 49.7421 172.97C51.2845 172.97 52.5162 173.387 53.435 174.221C54.356 175.056 55.1172 175.881 55.7164 176.694C56.3999 177.593 56.9791 178.192 57.4496 178.491C57.9201 178.791 58.3484 178.942 58.7346 178.942C59.5468 178.942 60.1682 178.46 60.5965 177.497C61.0249 176.534 61.2379 174.661 61.2379 171.878V119.086L75.945 115.04V164.685ZM96.8904 116.452V150.427C96.8904 151.37 97.0723 152.257 97.4363 153.092C97.8003 153.926 98.304 154.645 98.9454 155.245C99.589 155.844 100.337 156.325 101.194 156.689C102.05 157.053 102.971 157.235 103.957 157.235C105.068 157.235 106.333 156.612 107.874 155.533C110.312 153.824 111.791 152.65 111.791 151.261C111.791 150.928 111.791 116.452 111.791 116.452H126.433V164.685H111.791V160.189C109.864 161.816 107.809 163.121 105.625 164.106C103.442 165.091 101.322 165.584 99.2672 165.584C96.8704 165.584 94.6423 165.187 92.5872 164.395C90.5322 163.602 88.7346 162.522 87.1944 161.152C85.652 159.783 84.4425 158.176 83.5637 156.334C82.6871 154.494 82.2477 152.524 82.2477 150.427V116.452H96.8904ZM146.968 164.685H132.39V97.0577L146.968 93.012V164.685ZM153.058 119.086L167.7 115.04V164.685H153.058V119.086ZM198.295 139.765C196.881 140.367 195.457 141.061 194.023 141.854C192.589 142.646 191.282 143.514 190.106 144.455C188.928 145.395 187.976 146.403 187.248 147.473C186.52 148.542 186.156 149.656 186.156 150.813C186.156 151.711 186.273 152.579 186.509 153.414C186.744 154.248 187.077 154.965 187.505 155.564C187.933 156.163 188.404 156.645 188.919 157.009C189.431 157.373 189.988 157.555 190.588 157.555C191.786 157.555 192.996 157.191 194.216 156.463C195.437 155.735 196.795 154.816 198.295 153.702V139.765ZM213 164.685H198.295V160.83C197.481 161.516 196.688 162.149 195.918 162.726C195.148 163.303 194.281 163.806 193.317 164.235C192.354 164.663 191.273 164.994 190.073 165.231C188.874 165.466 187.461 165.584 185.836 165.584C183.608 165.584 181.606 165.262 179.831 164.621C178.053 163.977 176.544 163.101 175.304 161.987C174.061 160.875 173.109 159.557 172.445 158.036C171.782 156.518 171.449 154.858 171.449 153.061C171.449 151.219 171.802 149.55 172.51 148.05C173.215 146.552 174.178 145.205 175.399 144.004C176.62 142.806 178.042 141.736 179.669 140.793C181.296 139.852 183.042 138.984 184.904 138.192C186.766 137.399 188.704 136.674 190.716 136.01C192.727 135.347 194.72 134.714 196.688 134.115L198.295 133.729V128.977C198.295 125.895 197.705 123.711 196.529 122.426C195.35 121.141 193.777 120.5 191.808 120.5C189.496 120.5 187.889 121.057 186.99 122.169C186.091 123.283 185.641 124.63 185.641 126.214C185.641 127.113 185.545 127.992 185.352 128.849C185.162 129.705 184.829 130.453 184.358 131.097C183.888 131.738 183.213 132.253 182.334 132.637C181.458 133.023 180.355 133.216 179.028 133.216C176.972 133.216 175.304 132.626 174.019 131.45C172.734 130.271 172.092 128.784 172.092 126.984C172.092 125.316 172.658 123.764 173.792 122.331C174.929 120.895 176.458 119.663 178.386 118.638C180.312 117.608 182.538 116.796 185.064 116.197C187.589 115.597 190.266 115.298 193.091 115.298C196.56 115.298 199.547 115.609 202.052 116.228C204.556 116.849 206.622 117.737 208.249 118.893C209.875 120.049 211.074 121.441 211.844 123.067C212.616 124.694 213 126.516 213 128.527V164.685Z" fill="black"/>
<path d="M171.051 102.632C171.051 108.125 166.6 112.575 161.109 112.575C155.617 112.575 151.167 108.125 151.167 102.632C151.167 97.142 155.617 92.6902 161.109 92.6902C166.6 92.6902 171.051 97.142 171.051 102.632Z" fill="#CB3C33"/>
<path d="M78.8322 102.632C78.8322 108.125 74.3804 112.575 68.8899 112.575C63.3995 112.575 58.9476 108.125 58.9476 102.632C58.9476 97.142 63.3995 92.6902 68.8899 92.6902C74.3804 92.6902 78.8322 97.142 78.8322 102.632Z" fill="#4063D8"/>
<path d="M194.94 102.632C194.94 108.125 190.488 112.575 184.997 112.575C179.507 112.575 175.055 108.125 175.055 102.632C175.055 97.142 179.507 92.6902 184.997 92.6902C190.488 92.6902 194.94 97.142 194.94 102.632Z" fill="#9558B2"/>
<path d="M182.998 81.9423C182.998 87.4328 178.546 91.8846 173.055 91.8846C167.563 91.8846 163.113 87.4328 163.113 81.9423C163.113 76.4518 167.563 72 173.055 72C178.546 72 182.998 76.4518 182.998 81.9423Z" fill="#389826"/>
<path d="M75.945 164.685C75.945 168.966 75.4634 172.424 74.5002 175.056C73.5371 177.69 72.1678 179.734 70.3901 181.19C68.6147 182.646 66.4842 183.62 64.0009 184.113C61.5175 184.603 58.7545 184.85 55.7164 184.85C51.6041 184.85 48.4572 184.208 46.2756 182.923C44.0919 181.638 43 180.098 43 178.298C43 176.8 43.6081 175.538 44.8287 174.51C46.0493 173.482 47.6871 172.97 49.7421 172.97C51.2845 172.97 52.5162 173.387 53.435 174.221C54.356 175.056 55.1172 175.881 55.7164 176.694C56.3999 177.593 56.9791 178.192 57.4496 178.491C57.9201 178.791 58.3484 178.942 58.7346 178.942C59.5468 178.942 60.1682 178.46 60.5965 177.497C61.0249 176.534 61.2379 174.661 61.2379 171.878V119.086L75.945 115.04V164.685ZM96.8904 116.452V150.427C96.8904 151.37 97.0723 152.257 97.4363 153.092C97.8003 153.926 98.304 154.645 98.9454 155.245C99.589 155.844 100.337 156.325 101.194 156.689C102.05 157.053 102.971 157.235 103.957 157.235C105.068 157.235 106.333 156.612 107.874 155.533C110.312 153.824 111.791 152.65 111.791 151.261C111.791 150.928 111.791 116.452 111.791 116.452H126.433V164.685H111.791V160.189C109.864 161.816 107.809 163.121 105.625 164.106C103.442 165.091 101.322 165.584 99.2672 165.584C96.8704 165.584 94.6423 165.187 92.5872 164.395C90.5322 163.602 88.7346 162.522 87.1944 161.152C85.652 159.783 84.4425 158.176 83.5637 156.334C82.6871 154.494 82.2477 152.524 82.2477 150.427V116.452H96.8904ZM146.968 164.685H132.39V97.0577L146.968 93.012V164.685ZM153.058 119.086L167.7 115.04V164.685H153.058V119.086ZM198.295 139.765C196.881 140.367 195.457 141.061 194.023 141.854C192.589 142.646 191.282 143.514 190.106 144.455C188.928 145.395 187.976 146.403 187.248 147.473C186.52 148.542 186.156 149.656 186.156 150.813C186.156 151.711 186.273 152.579 186.509 153.414C186.744 154.248 187.077 154.965 187.505 155.564C187.933 156.163 188.404 156.645 188.919 157.009C189.431 157.373 189.988 157.555 190.588 157.555C191.786 157.555 192.996 157.191 194.216 156.463C195.437 155.735 196.795 154.816 198.295 153.702V139.765ZM213 164.685H198.295V160.83C197.481 161.516 196.688 162.149 195.918 162.726C195.148 163.303 194.281 163.806 193.317 164.235C192.354 164.663 191.273 164.994 190.073 165.231C188.874 165.466 187.461 165.584 185.836 165.584C183.608 165.584 181.606 165.262 179.831 164.621C178.053 163.977 176.544 163.101 175.304 161.987C174.061 160.875 173.109 159.557 172.445 158.036C171.782 156.518 171.449 154.858 171.449 153.061C171.449 151.219 171.802 149.55 172.51 148.05C173.215 146.552 174.178 145.205 175.399 144.004C176.62 142.806 178.042 141.736 179.669 140.793C181.296 139.852 183.042 138.984 184.904 138.192C186.766 137.399 188.704 136.674 190.716 136.01C192.727 135.347 194.72 134.714 196.688 134.115L198.295 133.729V128.977C198.295 125.895 197.705 123.711 196.529 122.426C195.35 121.141 193.777 120.5 191.808 120.5C189.496 120.5 187.889 121.057 186.99 122.169C186.091 123.283 185.641 124.63 185.641 126.214C185.641 127.113 185.545 127.992 185.352 128.849C185.162 129.705 184.829 130.453 184.358 131.097C183.888 131.738 183.213 132.253 182.334 132.637C181.458 133.023 180.355 133.216 179.028 133.216C176.972 133.216 175.304 132.626 174.019 131.45C172.734 130.271 172.092 128.784 172.092 126.984C172.092 125.316 172.658 123.764 173.792 122.331C174.929 120.895 176.458 119.663 178.386 118.638C180.312 117.608 182.538 116.796 185.064 116.197C187.589 115.597 190.266 115.298 193.091 115.298C196.56 115.298 199.547 115.609 202.052 116.228C204.556 116.849 206.622 117.737 208.249 118.893C209.875 120.049 211.074 121.441 211.844 123.067C212.616 124.694 213 126.516 213 128.527V164.685Z" stroke="#EEEEEE" stroke-width="2.66667"/>
<path d="M171.051 102.632C171.051 108.125 166.6 112.575 161.109 112.575C155.617 112.575 151.167 108.125 151.167 102.632C151.167 97.142 155.617 92.6902 161.109 92.6902C166.6 92.6902 171.051 97.142 171.051 102.632Z" stroke="#EEEEEE" stroke-width="2.66667"/>
<path d="M78.8322 102.632C78.8322 108.125 74.3804 112.575 68.8899 112.575C63.3995 112.575 58.9476 108.125 58.9476 102.632C58.9476 97.142 63.3995 92.6902 68.8899 92.6902C74.3804 92.6902 78.8322 97.142 78.8322 102.632Z" stroke="#EEEEEE" stroke-width="2.66667"/>
<path d="M194.94 102.632C194.94 108.125 190.488 112.575 184.997 112.575C179.507 112.575 175.055 108.125 175.055 102.632C175.055 97.142 179.507 92.6902 184.997 92.6902C190.488 92.6902 194.94 97.142 194.94 102.632Z" stroke="#EEEEEE" stroke-width="2.66667"/>
<path d="M182.998 81.9423C182.998 87.4328 178.546 91.8846 173.055 91.8846C167.563 91.8846 163.113 87.4328 163.113 81.9423C163.113 76.4518 167.563 72 173.055 72C178.546 72 182.998 76.4518 182.998 81.9423Z" stroke="#EEEEEE" stroke-width="2.66667"/>
</svg>