<svg width="256" height="256" title="JUnit 4" viewBox="0 0 256 256" fill="none" xmlns="http://www.w3.org/2000/svg" id="junit4">
<style>
#junit4 {
    rect {fill: #15191C}

    @media (prefers-color-scheme: light) {
        rect {fill: #F4F2ED}
    }
}
</style>
<rect width="256" height="256" rx="40" fill="#15191C"/>
<path d="M61.6301 97C71.6205 97 81.611 97 91.9041 97C91.9041 98.5276 91.9041 100.055 91.9041 101.629C89.5986 102.011 87.2931 102.393 84.9178 102.786C84.9422 104.082 84.9666 105.378 84.9917 106.713C85.0763 111.54 85.1296 116.366 85.1737 121.193C85.197 123.279 85.2288 125.364 85.2692 127.45C85.3259 130.455 85.3521 133.459 85.3726 136.464C85.3967 137.39 85.4207 138.317 85.4455 139.271C85.4479 145.417 84.3194 148.807 80.2603 153.706C74.1625 159.312 69.1549 159.854 61.0843 159.736C55.0916 159.24 50.6728 157.118 46.6387 152.765C44.0047 148.839 43 146.829 43 142.133C45.2571 135.049 45.2571 135.049 48.6036 132.296C52.9136 131.317 56.4828 131.943 60.3202 134.105C62.5671 137.951 62.0507 141.216 61.6301 145.605C57.6302 148.255 55.8253 148.126 51.1507 147.919C53.519 150.622 55.2211 152.339 58.6464 153.561C62.2817 153.737 64.2899 153.175 67.4521 151.391C70.6504 147.021 70.1887 141.87 70.2629 136.69C70.2855 135.721 70.308 134.751 70.3313 133.752C70.4007 130.663 70.4549 127.574 70.5086 124.485C70.553 122.387 70.5985 120.29 70.645 118.192C70.7567 113.057 70.8546 107.922 70.9452 102.786C67.8712 102.404 64.7973 102.023 61.6301 101.629C61.6301 100.101 61.6301 98.5739 61.6301 97Z" fill="#4E9A05"/>
<path d="M87.2466 103.944C96.4685 103.944 105.69 103.944 115.192 103.944C115.192 105.471 115.192 106.999 115.192 108.573C112.886 108.573 110.581 108.573 108.205 108.573C108.228 113.742 108.288 118.909 108.383 124.077C108.41 125.833 108.427 127.59 108.433 129.346C108.444 131.878 108.492 134.408 108.547 136.939C108.565 138.46 108.583 139.981 108.602 141.549C109.547 146.541 111.251 148.262 115.192 151.391C119.272 152.471 123.257 151.784 127.272 150.523C129.694 148.672 130.37 147.283 131.493 144.448C131.851 140.9 131.851 140.9 131.802 136.989C131.805 135.552 131.808 134.116 131.812 132.635C131.798 130.391 131.798 130.391 131.784 128.101C131.793 126.596 131.802 125.091 131.812 123.54C131.809 122.107 131.806 120.673 131.802 119.196C131.8 117.88 131.797 116.564 131.794 115.208C131.818 111.876 131.818 111.876 129.164 109.73C126.756 108.986 126.756 108.986 124.507 108.573C124.507 107.045 124.507 105.517 124.507 103.944C131.808 103.944 139.108 103.944 146.63 103.944C146.63 105.471 146.63 106.999 146.63 108.573C145.694 108.907 144.757 109.241 143.792 109.585C140.654 110.578 140.654 110.578 139.644 113.202C139.506 115.556 139.435 117.914 139.398 120.272C139.349 122.407 139.349 122.407 139.298 124.584C139.238 127.586 139.186 130.588 139.144 133.589C139.089 135.733 139.089 135.733 139.034 137.92C139.011 139.226 138.988 140.533 138.964 141.879C138.137 148.239 135.361 153.177 130.329 157.177C122.77 160.842 113.257 160.728 105.367 158.045C101.503 156.159 99.1908 154.736 96.5616 151.391C95.1877 147.294 95.1305 143.496 95.0288 139.226C95.0046 138.384 94.9804 137.541 94.9555 136.673C94.8795 133.984 94.8108 131.296 94.7423 128.608C94.692 126.784 94.6412 124.96 94.5899 123.136C94.4653 118.667 94.3474 114.199 94.2329 109.73C90.7747 109.157 90.7747 109.157 87.2466 108.573C87.2466 107.045 87.2466 105.517 87.2466 103.944Z" fill="#CB0000"/>
<path d="M140.808 131.718C147.858 131.492 147.858 131.492 150.123 131.718C150.892 132.482 151.66 133.245 152.452 134.032C153.221 133.269 153.989 132.505 154.781 131.718C157.178 131.288 157.178 131.288 159.948 131.211C160.859 131.165 161.77 131.119 162.709 131.071C165.26 131.718 165.26 131.718 167.325 134.078C169.091 138.314 169.141 142.048 168.972 146.545C168.948 147.748 168.948 147.748 168.924 148.975C168.883 150.938 168.82 152.901 168.753 154.863C170.29 154.863 171.827 154.863 173.411 154.863C173.411 156.009 173.411 157.154 173.411 158.335C168.416 158.335 163.421 158.335 158.274 158.335C158.274 157.189 158.274 156.043 158.274 154.863C159.811 154.863 161.348 154.863 162.932 154.863C162.862 152.21 162.758 149.558 162.64 146.907C162.586 145.43 162.532 143.953 162.477 142.431C162.203 138.555 162.203 138.555 159.384 136.989C158.633 136.777 157.883 136.565 157.11 136.347C153.914 138.964 152.575 140.369 151.743 144.466C151.661 146.319 151.661 146.319 151.579 148.209C151.513 149.456 151.447 150.703 151.379 151.988C151.349 152.937 151.319 153.885 151.288 154.863C152.825 154.863 154.362 154.863 155.945 154.863C155.945 156.009 155.945 157.154 155.945 158.335C150.95 158.335 145.955 158.335 140.808 158.335C140.808 157.189 140.808 156.043 140.808 154.863C142.345 154.863 143.882 154.863 145.466 154.863C145.466 148.371 145.466 141.879 145.466 135.19C143.929 135.19 142.392 135.19 140.808 135.19C140.808 134.044 140.808 132.898 140.808 131.718Z" fill="#CC0000"/>
<path d="M199.027 121.302C200.18 121.302 201.333 121.302 202.521 121.302C202.521 124.74 202.521 128.177 202.521 131.718C205.21 131.718 207.9 131.718 210.671 131.718C210.671 132.863 210.671 134.009 210.671 135.19C207.982 135.19 205.292 135.19 202.521 135.19C202.905 141.3 203.289 147.41 203.685 153.706C204.838 153.706 205.99 153.706 207.178 153.706C207.947 151.796 208.715 149.887 209.507 147.919C210.66 148.301 211.812 148.683 213 149.077C209.652 157.033 209.652 157.033 208.342 158.335C200.933 158.88 200.933 158.88 198.203 156.871C196.375 154.431 196.289 153.232 196.357 150.22C196.369 149.344 196.38 148.468 196.392 147.565C196.421 146.655 196.45 145.746 196.48 144.809C196.504 143.425 196.504 143.425 196.528 142.013C196.569 139.738 196.632 137.464 196.699 135.19C195.162 135.19 193.625 135.19 192.041 135.19C192.041 134.044 192.041 132.898 192.041 131.718C192.762 131.503 193.482 131.288 194.224 131.067C197.928 128.577 198.09 125.497 199.027 121.302Z" fill="#CC0000"/>
<path d="M174.575 131.718C178.418 131.718 182.26 131.718 186.219 131.718C186.219 139.356 186.219 146.994 186.219 154.863C187.756 154.863 189.293 154.863 190.877 154.863C190.877 156.009 190.877 157.154 190.877 158.335C185.497 158.335 180.118 158.335 174.575 158.335C175.152 156.616 175.152 156.616 175.74 154.863C176.892 154.481 178.045 154.099 179.233 153.706C179.233 147.595 179.233 141.485 179.233 135.19C177.696 135.19 176.159 135.19 174.575 135.19C174.575 134.044 174.575 132.898 174.575 131.718Z" fill="#CC0000"/>
<path d="M180.397 116.673C182.653 117.035 182.653 117.035 185.055 117.831C185.439 118.976 185.823 120.122 186.219 121.302C185.835 122.066 185.451 122.83 185.055 123.617C182.217 123.183 182.217 123.183 179.233 122.46C178.849 121.696 178.464 120.932 178.068 120.145C178.837 119 179.605 117.854 180.397 116.673Z" fill="#CD0000"/>
</svg>