<svg width="256" height="256" title="JUnit 5" viewBox="0 0 256 256" fill="none" xmlns="http://www.w3.org/2000/svg" id="junit5">
<style>
#junit5 {
    rect {fill: #15191C}

    @media (prefers-color-scheme: light) {
        rect {fill: #F4F2ED}
    }
}
</style>
<rect width="256" height="256" rx="40" fill="#15191C"/>
<path d="M128.059 46.0012C128.372 46.0019 128.684 46.0026 129.006 46.0033C133.623 46.0197 138.125 46.1525 142.664 47.0674C142.981 47.1279 143.297 47.1884 143.623 47.2508C157.095 49.8801 169.618 55.529 180.323 64.1263C180.51 64.2766 180.698 64.4269 180.891 64.5818C185.408 68.241 189.677 72.3708 193.198 77.001C193.496 77.3792 193.794 77.7572 194.093 78.135C204.176 91.0573 210.882 108.146 210.966 124.641C210.968 124.938 210.971 125.235 210.973 125.541C211.047 137.966 211.047 137.966 209.935 143.306C209.839 143.777 209.839 143.777 209.741 144.258C206.441 160.031 199.251 174.194 188.048 185.792C187.855 185.992 187.662 186.192 187.464 186.397C184.997 188.941 182.505 191.369 179.679 193.517C179.505 193.651 179.331 193.785 179.152 193.923C168.006 202.491 154.971 208.149 141.055 210.254C140.693 210.311 140.331 210.368 139.958 210.427C136.239 210.958 132.556 211.012 128.803 210.998C128.483 210.998 128.162 210.997 127.832 210.996C123.168 210.982 118.602 210.866 114.017 209.932C113.722 209.873 113.427 209.815 113.124 209.754C111.047 209.332 108.989 208.85 106.936 208.323C106.693 208.26 106.45 208.198 106.2 208.134C100.492 206.64 95.0784 204.329 89.877 201.563C89.6473 201.443 89.4176 201.323 89.1809 201.199C78.8633 195.777 69.4329 187.792 62.5179 178.389C62.249 178.033 61.9799 177.677 61.7107 177.322C58.3209 172.776 55.5726 167.752 53.1837 162.618C53.0788 162.394 52.974 162.171 52.866 161.94C49.8192 155.352 47.7792 148.235 46.7462 141.052C46.6896 140.668 46.633 140.284 46.5747 139.887C46.0504 136.079 45.9869 132.299 46.0019 128.459C46.0026 128.139 46.0033 127.819 46.004 127.49C46.0202 122.833 46.1158 118.269 47.0681 113.694C47.132 113.38 47.196 113.065 47.2619 112.742C50.5198 97.1697 57.5741 83.0117 68.6335 71.5292C68.837 71.317 69.0404 71.1048 69.25 70.8861C72.1934 67.8322 75.1859 65.0191 78.6115 62.517C78.982 62.2408 79.3525 61.9646 79.723 61.6884C82.359 59.7451 85.0957 58.0126 87.9458 56.4015C88.1734 56.2721 88.401 56.1426 88.6356 56.0092C96.0822 51.8168 104.184 49.0008 112.549 47.2887C112.78 47.2412 113.012 47.1938 113.25 47.1449C118.178 46.2083 123.055 45.9812 128.059 46.0012Z" fill="#DC524A"/>
<path d="M156.504 51.2516C158.901 51.5511 158.901 51.5511 160.03 52.055C160.253 52.1536 160.475 52.2521 160.705 52.3536C160.938 52.4613 161.172 52.569 161.413 52.6799C161.787 52.8499 161.787 52.8499 162.169 53.0232C174.062 58.5028 185.217 66.5041 193.198 77.001C193.496 77.3792 193.794 77.7572 194.093 78.135C204.176 91.0573 210.882 108.146 210.966 124.641C210.968 124.938 210.971 125.235 210.973 125.541C211.047 137.966 211.047 137.966 209.935 143.306C209.839 143.777 209.839 143.777 209.741 144.258C206.441 160.031 199.251 174.194 188.048 185.792C187.855 185.992 187.662 186.192 187.464 186.397C184.997 188.941 182.505 191.369 179.679 193.517C179.505 193.651 179.331 193.785 179.152 193.923C168.006 202.491 154.971 208.149 141.055 210.254C140.693 210.311 140.331 210.368 139.958 210.427C136.239 210.958 132.556 211.012 128.803 210.998C128.483 210.998 128.162 210.997 127.832 210.996C123.168 210.982 118.602 210.866 114.017 209.932C113.575 209.844 113.575 209.844 113.124 209.754C111.047 209.332 108.989 208.85 106.936 208.323C106.693 208.26 106.45 208.198 106.2 208.134C101.087 206.796 96.2904 204.713 91.4864 202.529C91.5926 194.669 91.6988 186.809 91.8082 178.711C93.7202 179.561 95.6321 180.41 97.6019 181.286C98.7573 181.687 99.8473 182.05 101.022 182.352C101.31 182.429 101.599 182.506 101.897 182.585C105.08 183.387 108.318 183.773 111.58 184.097C112.082 184.149 112.583 184.207 113.082 184.275C115.402 184.588 117.735 184.564 120.071 184.564C120.809 184.565 121.546 184.571 122.283 184.577C125.38 184.589 128.336 184.362 131.398 183.861C131.663 183.819 131.928 183.776 132.2 183.733C142.111 182.076 151.643 178.021 157.671 169.638C163.532 160.993 165.614 150.028 163.865 139.748C162.284 131.713 158.473 124.594 151.61 119.869C147.572 117.247 143.168 115.418 138.48 114.338C138.225 114.277 137.97 114.217 137.707 114.154C134.617 113.53 131.493 113.585 128.354 113.592C127.386 113.593 126.419 113.586 125.451 113.577C121.786 113.566 118.285 113.819 114.673 114.452C113.691 114.622 112.765 114.707 111.764 114.659C111.983 108.882 112.545 103.135 113.072 97.3792C113.384 93.9471 113.696 90.5149 114.017 86.9788C128.144 86.9788 142.271 86.9788 156.826 86.9788C156.72 81.668 156.614 76.3572 156.504 70.8855C156.485 67.2773 156.472 63.6707 156.484 60.0627C156.486 59.1902 156.487 58.3176 156.489 57.4451C156.492 55.3806 156.497 53.3161 156.504 51.2516Z" fill="#25A162"/>
<path d="M98.2457 70.8855C117.577 70.8855 136.909 70.8855 156.826 70.8855C156.826 76.1963 156.826 81.5071 156.826 86.9788C142.699 86.9788 128.572 86.9788 114.017 86.9788C114.017 88.2534 114.017 89.528 114.017 90.8412C113.973 91.6246 113.917 92.4076 113.845 93.1889C113.808 93.6056 113.77 94.0223 113.731 94.4517C113.69 94.8927 113.648 95.3338 113.606 95.7749C113.564 96.2394 113.521 96.704 113.479 97.1686C113.39 98.1349 113.301 99.1011 113.21 100.067C113.094 101.299 112.981 102.531 112.868 103.764C112.759 104.95 112.65 106.136 112.54 107.322C112.52 107.544 112.499 107.767 112.478 107.996C112.272 110.222 112.061 112.444 111.764 114.659C112.378 114.52 112.378 114.52 113.004 114.378C117.814 113.401 122.52 113.236 127.415 113.231C127.735 113.229 128.054 113.227 128.383 113.226C132.194 113.21 135.745 113.381 139.445 114.338C139.698 114.4 139.95 114.462 140.21 114.526C145.225 115.835 150.004 118.007 153.929 121.419C154.099 121.565 154.268 121.711 154.442 121.862C158.691 125.608 161.796 130.409 163.264 135.903C163.356 136.244 163.356 136.244 163.451 136.593C166.003 146.353 164.866 157.53 160.04 166.428C155.237 174.532 147.902 180.112 138.839 182.649C137.011 183.098 135.175 183.492 133.33 183.861C133.041 183.924 132.752 183.987 132.455 184.052C119.753 186.785 104.036 185.082 92.452 179.355C91.8082 178.711 91.8082 178.711 91.7308 178.022C91.7323 177.738 91.7337 177.454 91.7352 177.16C91.7352 176.838 91.7353 176.516 91.7353 176.184C91.7386 175.836 91.742 175.487 91.7454 175.128C91.7463 174.771 91.7472 174.415 91.7481 174.048C91.7518 172.907 91.7598 171.765 91.768 170.624C91.7712 169.852 91.7742 169.079 91.7768 168.307C91.7839 166.41 91.7947 164.514 91.8082 162.618C92.9036 162.971 93.9639 163.336 95.0031 163.831C99.2239 165.8 103.428 167.113 107.962 168.15C108.18 168.199 108.397 168.249 108.621 168.301C112.541 169.154 116.406 169.498 120.415 169.477C120.64 169.477 120.866 169.476 121.098 169.476C124.407 169.463 127.554 169.324 130.755 168.411C131.268 168.271 131.268 168.271 131.792 168.128C136.627 166.667 140.558 164.035 143.158 159.643C145.973 154.344 146.582 147.54 145.038 141.736C143.38 137.018 140.727 133.664 136.227 131.396C126.762 126.93 115.109 128.025 105.171 130.152C101.916 130.791 100.367 129.943 97.6221 128.178C97.2791 127.963 96.9362 127.748 96.5829 127.527C95.7394 126.997 94.8992 126.463 94.0614 125.925C94.2726 119.851 94.7359 113.8 95.2045 107.742C95.269 106.907 95.333 106.072 95.397 105.237C95.9853 97.5532 96.5911 89.8713 97.2197 82.1911C97.2534 81.7783 97.2872 81.3655 97.3219 80.9401C97.4168 79.7821 97.5123 78.6241 97.6082 77.4662C97.6493 76.9655 97.6493 76.9655 97.6913 76.4547C97.7303 75.9871 97.7303 75.9871 97.7702 75.51C97.7922 75.2443 97.8143 74.9787 97.837 74.7049C97.9569 73.4302 98.1043 72.1581 98.2457 70.8855Z" fill="#FEFDFD"/>
</svg>