<svg width="256" height="256" title="K3s" viewBox="0 0 256 256" fill="none" xmlns="http://www.w3.org/2000/svg" id="k3s">
<style>
#k3s {
    rect {fill: #15191C}

    @media (prefers-color-scheme: light) {
        rect {fill: #F4F2ED}
    }
}
</style>
<rect width="256" height="256" rx="40" fill="#15191C"/>
<path d="M191.065 63H64.935C60.4476 63.0131 56.1478 64.8011 52.9747 67.9733C49.8016 71.1455 48.0132 75.4442 48 79.9304V177.07C48.0132 181.556 49.8016 185.854 52.9747 189.027C56.1478 192.199 60.4476 193.987 64.935 194H191.065C195.552 193.987 199.852 192.199 203.025 189.027C206.198 185.854 207.987 181.556 208 177.07V79.9304C207.987 75.4442 206.198 71.1455 203.025 67.9733C199.852 64.8011 195.552 63.0131 191.065 63ZM115.608 158.261L84.8263 176.144C83.8912 176.688 82.8581 177.042 81.7861 177.186C80.7141 177.33 79.6243 177.262 78.5787 176.985C76.4671 176.425 74.6642 175.05 73.5666 173.162C72.4691 171.274 72.1667 169.027 72.7261 166.916C73.2856 164.805 74.6609 163.003 76.5496 161.905L107.331 144.022C108.266 143.478 109.3 143.123 110.372 142.978C111.445 142.833 112.535 142.901 113.581 143.177C114.628 143.454 115.609 143.934 116.47 144.59C117.33 145.246 118.053 146.065 118.597 147.001C119.141 147.936 119.495 148.969 119.639 150.042C119.783 151.114 119.714 152.204 119.436 153.25C119.159 154.296 118.678 155.276 118.021 156.136C117.364 156.996 116.544 157.718 115.608 158.261ZM127.717 131.014H127.68C126.599 131.009 125.529 130.792 124.531 130.374C123.534 129.955 122.628 129.345 121.867 128.577C121.105 127.809 120.503 126.899 120.093 125.898C119.684 124.897 119.475 123.825 119.48 122.744L119.635 87.2923C119.644 85.1148 120.516 83.0298 122.06 81.4933C123.603 79.9569 125.692 79.0941 127.87 79.0937H127.907C130.092 79.1033 132.183 79.9799 133.721 81.5309C135.259 83.0818 136.117 85.18 136.108 87.3639L135.953 122.816C135.944 124.993 135.072 127.078 133.528 128.615C131.985 130.151 129.896 131.014 127.717 131.014ZM182.182 173.139C181.641 174.076 180.921 174.897 180.063 175.555C179.205 176.214 178.226 176.697 177.181 176.977C176.136 177.257 175.046 177.328 173.973 177.187C172.901 177.045 171.867 176.694 170.93 176.153L140.104 158.36C139.166 157.82 138.344 157.1 137.684 156.242C137.025 155.384 136.541 154.405 136.26 153.36C135.98 152.315 135.908 151.225 136.049 150.152C136.19 149.079 136.541 148.045 137.082 147.108C137.623 146.17 138.344 145.349 139.203 144.691C140.062 144.032 141.042 143.55 142.087 143.27C143.133 142.99 144.223 142.92 145.296 143.062C146.369 143.204 147.403 143.556 148.34 144.097L179.167 161.891C180.104 162.431 180.925 163.151 181.583 164.009C182.242 164.867 182.725 165.846 183.005 166.891C183.285 167.935 183.356 169.024 183.215 170.097C183.074 171.169 182.722 172.202 182.182 173.139Z" fill="#FFC61C"/>
</svg>