<svg width="256" height="256" title="Kaggle" viewBox="0 0 256 256" fill="none" xmlns="http://www.w3.org/2000/svg">
<rect width="256" height="256" rx="40" fill="#20BEFF"/>
<path d="M177.831 214.18C177.657 214.866 176.97 215.21 175.773 215.21H152.872C151.495 215.21 150.301 214.609 149.271 213.406L111.448 165.297L100.9 175.33V212.639C100.9 214.356 100.041 215.213 98.3268 215.213H80.5741C78.8571 215.213 78 214.356 78 212.639V42.5712C78 40.8599 78.8571 40 80.5741 40H98.3268C100.041 40 100.9 40.8599 100.9 42.5712V147.287L146.183 101.491C147.383 100.294 148.584 99.6904 149.785 99.6904H173.458C174.486 99.6904 175.169 100.12 175.516 100.974C175.859 102.005 175.773 102.775 175.259 103.292L127.4 149.599L177.314 211.606C177.998 212.293 178.171 213.149 177.831 214.18Z" fill="white"/>
</svg>