<svg width="256" height="256" title="Keras" viewBox="0 0 256 256" fill="none" xmlns="http://www.w3.org/2000/svg">
<rect width="256" height="256" rx="40" fill="#D00000"/>
<path d="M69.0026 201.907C69.0026 202.109 69.1205 202.391 69.2615 202.532L73.843 207.114C73.9866 207.257 74.2686 207.373 74.4686 207.373H90.1461C90.3487 207.373 90.6307 207.255 90.7717 207.114L95.3532 202.532C95.4967 202.389 95.6121 202.107 95.6121 201.907V152.162C95.6121 151.959 95.7326 151.68 95.8787 151.541L115.797 132.518C115.943 132.38 116.156 132.4 116.269 132.569L166.593 207.073C166.706 207.24 166.965 207.378 167.165 207.378H189.375C189.578 207.378 189.818 207.232 189.911 207.052L193.941 199.243C194.033 199.064 194.015 198.782 193.9 198.615L135.035 113.292C134.92 113.125 134.943 112.874 135.087 112.731L189.229 58.8424C189.372 58.6988 189.488 58.4194 189.488 58.2168V57.2221C189.488 57.0195 189.421 56.7042 189.342 56.517L186.219 49.3359C186.139 49.1513 185.906 49 185.706 49H163.752C163.55 49 163.268 49.1179 163.127 49.2589L95.8762 116.763C95.7326 116.907 95.6172 116.858 95.6172 116.656V54.7275C95.6172 54.525 95.5044 54.2404 95.366 54.0917L90.8717 49.2718C90.7332 49.1231 90.4563 49.0026 90.2538 49.0026H74.4686C74.266 49.0026 73.9891 49.1231 73.8507 49.2718L69.2487 54.2404C69.1102 54.3891 69 54.6737 69 54.8762V201.907H69.0026Z" fill="white"/>
</svg>