<svg width="256" height="256" title="Kestra" viewBox="0 0 256 256" fill="none" xmlns="http://www.w3.org/2000/svg" id="kestra">
<rect width="256" height="256" rx="40" fill="#2C0059"/>
<path d="M122.339 109.596C125.465 106.464 130.533 106.464 133.66 109.596L146.51 122.469C149.636 125.6 149.636 130.678 146.51 133.809L133.66 146.682C130.533 149.814 125.465 149.814 122.339 146.682L109.488 133.809C106.362 130.678 106.362 125.6 109.488 122.469L122.339 109.596Z" fill="#A950FF"/>
<path d="M181.526 109.493C184.596 106.418 189.574 106.418 192.644 109.493L205.697 122.569C208.768 125.644 208.768 130.631 205.697 133.706L192.644 146.782C189.574 149.858 184.596 149.858 181.526 146.782L168.473 133.706C165.403 130.631 165.403 125.644 168.473 122.569L181.526 109.493Z" fill="#A950FF"/>
<path d="M122.44 50.3067C125.51 47.2311 130.488 47.2311 133.559 50.3067L146.611 63.3822C149.682 66.4579 149.682 71.4445 146.611 74.5199L133.559 87.5957C130.488 90.6711 125.51 90.6711 122.44 87.5957L109.387 74.5199C106.317 71.4445 106.317 66.4579 109.387 63.3822L122.44 50.3067Z" fill="#E9C1FF"/>
<path d="M116.97 92.8751C120.096 96.0067 120.096 101.084 116.97 104.216L104.12 117.088C100.993 120.22 95.9249 120.22 92.7987 117.088L79.9483 104.216C76.8218 101.084 76.8218 96.0067 79.9483 92.8751L92.7987 80.0021C95.9249 76.8706 100.993 76.8706 104.12 80.0021L116.97 92.8751Z" fill="#CD88FF"/>
<path d="M87.5272 122.569C90.5973 125.644 90.5973 130.631 87.5272 133.706L74.474 146.782C71.404 149.858 66.426 149.858 63.3556 146.782L50.3027 133.706C47.2324 130.631 47.2324 125.644 50.3027 122.569L63.3556 109.493C66.426 106.418 71.404 106.418 74.474 109.493L87.5272 122.569Z" fill="#A950FF"/>
<path d="M176.054 92.8751C179.18 96.0067 179.18 101.084 176.054 104.216L163.203 117.088C160.077 120.22 155.009 120.22 151.882 117.088L139.032 104.216C135.906 101.084 135.906 96.0067 139.032 92.8751L151.882 80.0021C155.009 76.8706 160.077 76.8706 163.203 80.0021L176.054 92.8751Z" fill="#CD88FF"/>
<path d="M140.646 177.417C147.63 184.413 147.63 195.757 140.646 202.753C133.662 209.749 122.338 209.749 115.354 202.753C108.37 195.757 108.37 184.413 115.354 177.417C122.338 170.421 133.662 170.421 140.646 177.417Z" fill="#F62E76"/>
</svg>