<svg width="256" height="256" title="Keycloak" viewBox="0 0 256 256" fill="none" xmlns="http://www.w3.org/2000/svg" id="keycloak">
<style>
#keycloak {
    rect {fill: #15191C}

    @media (prefers-color-scheme: light) {
        rect {fill: #F4F2ED}
    }
}
</style>
<rect width="256" height="256" rx="40" fill="#15191C"/>
<path d="M69.6591 94.4232L89.0503 61.0102L167.141 61L186.427 94.7449L186.451 162.248L167.144 195.973L89.0774 196L69.4624 162.252L69.6591 94.4232Z" fill="#4D4D4D"/>
<path d="M69.4658 162.242H104.659L85.3288 128.236L101.049 94.43L69.6626 94.4232L50 128.51" fill="#EDEDED"/>
<path d="M115.332 162.242H141.056L163.803 129.143L141.453 94.7483H111.193L92.9652 127.985L115.332 162.242Z" fill="#E0E0E0"/>
<path d="M50 128.507L69.4658 162.252H104.662L85.5426 128.622L50 128.507Z" fill="#ACACAC"/>
<path d="M93.335 128.514L115.335 162.252H141.056L163.446 128.527L93.335 128.514Z" fill="#9E9E9E"/>
<path d="M102.047 128.53L95.4078 130.461L89.0368 128.527L115.047 83.5181L121.553 94.7551" fill="#00B8E3"/>
<path d="M121.526 162.242L115.053 173.526L97.7757 154.943L89.0232 128.537V128.524H102.043" fill="#33C6E9"/>
<path d="M89.0402 128.527H89.0266V128.537L82.5233 139.788L75.9929 128.588L102.047 83.5248H115.053" fill="#008AAA"/>
<path d="M160.607 162.242H200L199.976 94.7449H160.607V162.242Z" fill="#D4D4D4"/>
<path d="M160.607 128.619V162.248H199.929V128.619H160.607Z" fill="#919191"/>
<path d="M115.06 173.54H102.043L82.5232 139.784L89.0265 128.541L115.06 173.54Z" fill="#00B8E3"/>
<path d="M167.103 128.527L141.087 173.529C138.695 170.021 134.597 162.252 134.597 162.252L154.114 128.52L167.103 128.527Z" fill="#008AAA"/>
<path d="M154.08 173.529L141.087 173.526L173.607 117.287L180.127 128.598M167.103 128.527L154.117 128.527L134.594 94.7517L141.056 83.5282L156.858 103.584L167.103 128.527Z" fill="#00B8E3"/>
<path d="M173.607 117.28V117.29L167.103 128.527L141.06 83.5316L154.09 83.5384L173.607 117.28Z" fill="#33C6E9"/>
</svg>