<svg width="256" height="256" title="Kiro" viewBox="0 0 256 256" fill="none" xmlns="http://www.w3.org/2000/svg">
<rect width="256" height="256" rx="40" fill="#793DDA"/>
<path d="M130.693 37H139.849L142.542 37.2699L146.312 37.8097L150.083 38.6195L154.526 39.8341L157.623 40.9137L160.316 41.9934L163.144 43.208L165.702 44.5575L167.856 45.7721L169.876 46.9867L171.492 48.0664L173.781 49.6858L175.666 51.1704L177.147 52.5199L178.628 53.7345L180.379 55.354L182.937 57.9181L183.88 59.1327L185.092 60.4823L186.169 61.8319L186.573 62.3717V62.6416H186.842L188.323 64.8009L189.266 66.1504L190.208 67.635L191.824 70.3341L192.901 72.4934L194.113 74.7876L195.056 77.0819L195.594 78.2965L197.21 82.4801L198.018 85.0442L198.691 87.3385L199.634 91.1173L200.307 94.2212L201.115 98.5398L201.923 104.208L202.192 107.312L202.461 109.471L203 118.243V129.175L202.596 135.248L202.327 138.892L201.519 145.504L200.98 149.148L200.307 152.522L199.903 154.412L199.23 157.65L198.287 161.294L196.941 166.153L195.594 170.336L193.978 174.925L192.497 178.704L191.285 181.538L189.804 184.777L188.996 186.531L187.919 188.69L186.169 191.929L184.418 194.898L182.264 198.137L181.187 199.487L179.706 201.241L178.494 202.726L176.878 204.48L176.07 205.425H175.801L175.531 205.965L174.589 206.909L173.512 207.854L172.165 209.069L170.819 210.148L168.934 211.633L166.645 213.252L164.355 214.737L162.201 215.951L158.835 217.571L156.276 218.515L153.583 219.325L151.968 219.73L149.813 220H147.524L145.504 219.73L142.811 218.92L140.657 217.841L139.041 216.626L137.425 215.142L135.81 212.982L134.463 210.688L133.386 208.124L132.847 206.909L132.04 207.179L130.693 208.394L128.404 210.013L125.846 211.633L124.095 212.712L120.998 214.467L117.632 215.951L115.612 216.761L111.977 217.976L108.072 218.92L105.648 219.325L103.359 219.595L102.551 219.73H98.1077L94.4722 219.19L90.0287 217.976L87.0664 216.626L85.0467 215.277L83.5655 214.062L82.4883 213.117L81.2765 211.633L79.93 209.608L78.8528 207.449L78.3142 205.965L77.6409 203.67L77.237 200.836L77.1023 199.352V197.192L77.3716 194.088L77.7756 191.119L78.7181 187.341L79.6607 184.372L80.4686 182.212L81.0072 180.728L81.5458 179.783L81.6804 178.838L78.1795 180.323L75.2172 181.268L71.9856 182.077L69.0233 182.482H63.6373L61.2136 181.942L59.4632 181.268L58.2513 180.593L57.0395 179.648L55.9623 178.569L55.0197 177.219L53.9425 175.06L53.4039 173.305L53 171.416V168.447L53.8079 164.533L54.7504 162.104L56.5009 158.595L58.1167 155.626L60.2711 151.442L62.0215 147.529L62.9641 144.965L63.772 142.535L64.5799 139.701L65.1185 137.677L65.5224 135.788L66.465 130.929L67.4075 124.316L67.6768 121.887L68.2154 117.164L68.6194 112.845L69.0233 109.471L69.2926 106.232L69.6966 103.398L70.2352 99.2146L70.7738 96.3805L71.5817 92.0619L72.5242 88.2832L73.4668 84.9093L74.6786 80.9956L75.6212 78.4314L76.4291 76.2721L77.1023 74.7876L77.7756 73.1681L78.8528 71.0088L80.8725 67.2301L82.3537 64.9358L83.5655 63.1814L84.912 61.292L86.3932 59.5376L87.4704 58.1881L88.9515 56.5686L90.1634 55.219L91.9138 53.4646L92.991 52.5199L94.7415 51.0354L96.6266 49.5509L99.0503 47.7965L101.339 46.3119L103.628 44.9624L106.052 43.6128L108.88 42.2633L110.63 41.5885L113.323 40.5088L116.555 39.4292L120.325 38.4845L123.557 37.8097L128.404 37.135L130.693 37Z" fill="#FDFDFD"/>
<path d="M166.106 87.7434H168.664L170.415 88.2832L171.896 89.0929L173.646 90.7124L174.858 92.6018L175.801 94.896L176.339 97.1903L176.609 98.9447L176.743 101.239V103.668L176.474 106.637L175.935 109.066L175.127 111.361L174.185 113.115L173.108 114.465L171.761 115.544L169.876 116.489L168.934 116.759H165.971L164.625 116.354L163.144 115.544L161.797 114.33L160.855 112.98L159.777 110.686L159.104 107.987L158.7 104.613V99.7544L159.104 96.6504L159.777 93.8164L160.855 91.6571L161.662 90.4425L162.874 89.2279L164.221 88.4181L165.567 87.8783L166.106 87.7434Z" fill="black"/>
<path d="M135.136 87.7434H137.829L139.445 88.2832L140.926 89.0929L142.273 90.3075L143.215 91.3872L144.023 92.8717L144.697 94.4911L145.37 97.3252L145.639 99.4845V105.018L145.235 107.987L144.562 110.551L143.485 112.71L142.138 114.465L141.061 115.409L139.715 116.219L138.099 116.759L136.079 116.894L134.463 116.624L132.847 115.949L131.366 114.869L130.289 113.52L129.212 111.631L128.539 109.606L128.135 107.582L127.865 105.288V99.3496L128.135 96.9204L128.539 94.7611L129.212 92.7367L130.154 91.1173L131.366 89.7677L132.443 88.823L134.194 88.0133L135.136 87.7434Z" fill="black"/>
</svg>