<svg width="256" height="256" title="Kitty" viewBox="0 0 256 256" fill="none" xmlns="http://www.w3.org/2000/svg" id="kitty">
<style>
#kitty {
    rect {fill: #15191C}

    @media (prefers-color-scheme: light) {
        rect {fill: #F4F2ED}
    }
}
</style>
<rect width="256" height="256" rx="40" fill="#15191C"/>
<path d="M171.565 61.3441H89.4184V193.277H171.565V61.3441Z" fill="#DDDDDD"/>
<path d="M85.3881 208H170.612C171.371 208 172.122 207.851 172.823 207.561C173.524 207.271 174.161 206.846 174.698 206.31C175.234 205.774 175.66 205.138 175.95 204.438C176.24 203.738 176.39 202.987 176.39 202.23V117.127C176.39 115.597 175.781 114.129 174.697 113.047C173.614 111.965 172.144 111.357 170.612 111.357H85.3881C83.8557 111.357 82.386 111.965 81.3025 113.047C80.2189 114.129 79.6102 115.597 79.6102 117.127V202.23C79.6102 203.76 80.2189 205.227 81.3025 206.309C82.386 207.391 83.8557 208 85.3881 208ZM131.033 176.68H161.656C162.575 176.68 163.457 177.045 164.107 177.694C164.758 178.344 165.123 179.224 165.123 180.143C165.123 181.061 164.758 181.941 164.107 182.591C163.457 183.24 162.575 183.605 161.656 183.605H131.034C130.115 183.605 129.233 183.24 128.583 182.591C127.933 181.942 127.567 181.061 127.567 180.143C127.567 179.225 127.933 178.344 128.583 177.695C129.233 177.046 130.115 176.681 131.034 176.681M94.2059 139.352C93.5965 138.695 93.2657 137.828 93.2829 136.933C93.3001 136.038 93.6638 135.184 94.2979 134.551C94.9319 133.918 95.7869 133.555 96.6833 133.538C97.5797 133.521 98.4478 133.851 99.1054 134.46L120.761 156.072C121.411 156.721 121.775 157.601 121.775 158.519C121.775 159.436 121.411 160.316 120.761 160.965L99.1054 182.59C98.4485 183.204 97.5786 183.538 96.6794 183.523C95.7801 183.508 94.9219 183.145 94.286 182.51C93.6501 181.874 93.2863 181.017 93.2713 180.119C93.2564 179.222 93.5915 178.353 94.2059 177.697L113.412 158.519L94.2059 139.352Z" fill="black"/>
<path fill-rule="evenodd" clip-rule="evenodd" d="M108.442 100.554C109.98 100.554 111.211 97.6357 111.211 93.8823C111.211 90.1297 109.98 87.211 108.442 87.211C106.904 87.211 105.673 90.1297 105.673 93.8831C105.673 97.6356 106.903 100.554 108.442 100.554Z" fill="#C0C81F"/>
<path fill-rule="evenodd" clip-rule="evenodd" d="M187.806 50.5282C184.047 46.5674 166.927 51.3629 156.487 57.8259C148.344 53.656 138.531 51.1538 128.092 51.1538C117.444 51.1538 107.63 53.656 99.4866 57.8259C89.0471 51.3629 71.7174 46.3583 68.1681 50.5282C64.4102 54.6981 70.8832 72.0032 78.6076 81.594C77.9811 84.0963 77.564 86.5985 77.564 89.3082C77.564 97.6479 81.1134 105.363 87.1685 111.618H121.619C120.575 109.533 122.036 108.282 128.3 108.282C134.564 108.49 135.816 109.533 134.982 111.618H169.432C175.487 105.362 179.036 97.4405 179.036 89.3082C179.036 86.5985 178.619 84.0963 177.993 81.594C185.3 72.0032 191.564 54.4898 187.806 50.5282ZM108.465 105.571C101.157 105.571 95.1023 99.5246 95.1023 92.2269C95.1023 84.9292 101.157 78.8835 108.465 78.8835C115.774 78.8835 121.828 84.9301 121.828 92.2278C121.828 99.5254 115.773 105.571 108.465 105.571ZM147.718 105.571C140.41 105.571 134.355 99.5246 134.355 92.2269C134.355 84.9292 140.41 78.8835 147.718 78.8835C155.026 78.8835 161.081 84.9301 161.081 92.2278C161.081 99.5254 155.234 105.571 147.718 105.571Z" fill="#784421"/>
<path fill-rule="evenodd" clip-rule="evenodd" d="M167.67 104.737C180.198 89.0999 205.879 81.594 223 92.436C202.956 89.3082 184.791 94.5209 167.67 104.737Z" fill="#2B1100"/>
<path fill-rule="evenodd" clip-rule="evenodd" d="M166.835 100.985C173.934 84.3045 195.022 73.4633 211.934 79.3008C194.187 81.594 179.78 88.4752 166.835 100.985ZM166.626 109.115C179.572 96.8141 208.176 92.6442 216.945 105.571C199.198 99.9419 183.747 102.443 166.627 109.115" fill="#2B1100"/>
<path fill-rule="evenodd" clip-rule="evenodd" d="M88.3298 104.737C75.8024 89.0999 50.1211 81.594 33 92.436C53.044 89.3082 71.2087 94.5209 88.3298 104.737Z" fill="#2B1100"/>
<path fill-rule="evenodd" clip-rule="evenodd" d="M89.1648 100.985C82.0661 84.3045 60.9777 73.4633 44.066 79.3008C61.8127 81.594 76.2195 88.4752 89.1648 100.985ZM89.3742 109.115C76.428 96.8141 47.8239 92.6442 39.0552 105.571C56.8019 99.9419 72.2539 102.443 89.3742 109.115Z" fill="#2B1100"/>
<path fill-rule="evenodd" clip-rule="evenodd" d="M72.8787 96.8141C67.6594 96.8141 63.275 99.5254 61.1871 103.694H60.5607C54.9234 103.694 50.1211 107.864 50.1211 113.077C50.1211 120.374 57.6369 124.336 64.5271 121.833C68.7029 127.88 77.681 128.297 81.0226 121.833C86.0326 121.625 94.1756 120.791 95.4286 113.077C96.2636 107.864 90.8348 103.694 84.989 103.694H84.3626C82.6926 99.5246 78.0989 96.8141 72.8795 96.8141M183.122 96.8141C188.341 96.8141 192.726 99.5254 194.814 103.694H195.44C198.363 103.694 205.88 107.864 205.88 113.077C205.88 120.374 198.364 124.336 191.474 121.833C187.297 127.88 178.32 128.297 174.978 121.833C169.968 121.625 161.825 120.791 160.572 113.077C159.737 107.864 168.088 103.694 171.012 103.694H171.638C173.308 99.5246 177.902 96.8141 183.121 96.8141" fill="#483737"/>
<path fill-rule="evenodd" clip-rule="evenodd" d="M147.253 100.554C148.792 100.554 150.022 97.6357 150.022 93.8823C150.022 90.1297 148.792 87.211 147.253 87.211C145.716 87.211 144.484 90.1297 144.484 93.8831C144.484 97.6356 145.715 100.554 147.253 100.554Z" fill="#C0C81F"/>
</svg>