<svg width="256" height="256" title="Koin" viewBox="0 0 256 256" fill="none" xmlns="http://www.w3.org/2000/svg">
<rect width="256" height="256" rx="40" fill="#F4F2ED"/>
<path d="M153.327 46.066L153.988 46.2773C163.11 49.2345 171.676 53.8832 179.205 59.8089L180.001 60.4344C181.562 61.6885 183.043 63.0181 184.507 64.3813C185.222 65.043 185.95 65.6889 186.682 66.3333C187.612 67.1679 188.484 68.0674 189.287 69.0248C189.836 69.6664 190.412 70.2767 190.989 70.8925C206.034 87.4162 212.871 109.972 211.911 132.046C211.314 142.988 208.571 153.826 203.763 163.673L203.401 164.427C200.111 171.214 195.944 177.617 190.831 183.176C190.363 183.686 189.916 184.205 189.471 184.734C187.313 187.213 184.92 189.608 182.374 191.687L181.975 192.018C163.962 206.899 141.279 213.793 118.051 211.602C108.267 210.597 98.7943 207.883 89.9496 203.58L89.2345 203.235C82.7318 200.062 76.3841 195.996 71.1016 191.013C70.5445 190.495 69.9774 189.988 69.4008 189.492C68.2917 188.524 67.2391 187.509 66.2 186.468L65.6402 185.907C64.4275 184.679 63.3008 183.428 62.2358 182.069C61.6632 181.341 61.0611 180.644 60.4562 179.944C56.355 175.005 53.0636 169.45 50.3186 163.657C50.1573 163.318 49.994 162.98 49.8284 162.643C46.0612 154.95 43.7216 146.252 42.6811 137.773L42.5988 137.118C40.0696 116.057 45.5804 93.2976 58.6077 76.4092C59.0175 75.8948 59.4301 75.3828 59.8457 74.8732L60.4338 74.1318C61.7013 72.5492 63.0401 71.046 64.4194 69.5615C65.0528 68.8752 65.6684 68.1766 66.2824 67.4731C79.7761 52.4891 100.591 43.6729 120.45 42.1493C131.659 41.5702 142.6 42.6345 153.327 46.066Z" fill="#F9B233"/>
<path d="M154.601 44.1856L155.282 44.4032C164.672 47.4473 173.49 52.2328 181.241 58.3327L182.06 58.9766C183.667 60.2676 185.191 61.6363 186.699 63.0396C187.435 63.7208 188.184 64.3857 188.937 65.049C189.895 65.9082 190.792 66.8341 191.619 67.8197C192.184 68.4802 192.777 69.1084 193.371 69.7423C208.859 86.752 215.897 109.971 214.909 132.695C214.294 143.958 211.47 155.115 206.521 165.252L206.148 166.028C202.761 173.015 198.472 179.606 193.208 185.328C192.727 185.853 192.267 186.388 191.808 186.932C189.587 189.484 187.124 191.95 184.503 194.09L184.092 194.43C165.549 209.749 142.199 216.846 118.288 214.59C108.216 213.556 98.4648 210.762 89.3599 206.333L88.6238 205.977C81.9298 202.711 75.3954 198.525 69.9576 193.396C69.3841 192.863 68.8003 192.341 68.2067 191.83C67.065 190.834 65.9815 189.789 64.9118 188.717L64.3355 188.14C63.0872 186.876 61.9273 185.588 60.831 184.189C60.2416 183.439 59.6218 182.722 58.9991 182.001C54.7772 176.917 51.389 171.199 48.5633 165.235C48.3973 164.886 48.2291 164.538 48.0587 164.191C44.1807 156.272 41.7723 147.318 40.7012 138.59L40.6164 137.916C38.0128 116.235 43.6857 92.8064 57.0962 75.4213C57.518 74.8918 57.9428 74.3647 58.3706 73.8401L58.976 73.0769C60.2808 71.4478 61.659 69.9004 63.0788 68.3722C63.7309 67.6657 64.3646 66.9466 64.9966 66.2224C78.8872 50.7977 100.314 41.7221 120.757 40.1537C132.296 39.5576 143.559 40.6532 154.601 44.1856ZM82.9337 77.6116C82.3786 78.1147 81.8127 78.5965 81.2388 79.0772C69.0369 89.7656 62.1075 106.641 60.8171 122.539C60.4243 129.49 60.9802 136.47 62.72 143.215L62.9037 143.977C63.094 144.728 63.3098 145.466 63.5355 146.208L63.7078 146.784C66.1878 154.96 70.103 162.438 75.4963 169.061L76.2109 169.96C79.1734 173.626 82.5909 177.122 86.3697 179.943L86.8867 180.337C101.455 191.384 119.107 195.833 137.202 193.561C142.44 192.822 147.571 191.57 152.426 189.465L153.4 189.059C160.062 186.256 165.854 182.578 171.454 178.039L172.022 177.58L172.55 177.142L173.022 176.752C173.42 176.422 173.42 176.422 173.357 175.862L173.845 175.643C175.612 174.686 176.972 172.758 178.25 171.237L178.635 170.781C182.54 166.131 185.645 161.187 188.308 155.73C188.489 155.367 188.67 155.004 188.852 154.642C186.596 153.238 184.32 151.867 182.025 150.527C181.16 150.022 180.296 149.516 179.432 149.01L178.911 148.705C177.42 147.831 175.931 146.954 174.445 146.072C172.137 144.706 169.827 143.346 167.513 141.991C164.65 140.313 161.79 138.628 158.934 136.937C157.133 135.871 155.33 134.808 153.525 133.748C152.379 133.074 151.234 132.4 150.089 131.725C149.083 131.132 148.077 130.542 147.069 129.953L146.434 129.582C146.033 129.348 145.632 129.114 145.231 128.881L144.682 128.559L144.202 128.279C143.657 127.936 143.15 127.556 142.64 127.164L143.165 126.857C147.969 124.056 152.764 121.239 157.55 118.408C159.241 117.407 160.934 116.409 162.627 115.413C164.212 114.481 165.794 113.545 167.377 112.609C169.326 111.455 171.277 110.304 173.229 109.156C175.069 108.072 176.908 106.986 178.746 105.897C179.92 105.202 181.094 104.508 182.272 103.82C184.403 102.573 186.512 101.308 188.58 99.958C188.409 98.7074 187.907 97.6684 187.34 96.557L187.045 95.9754C182.895 87.9023 176.697 80.5178 169.552 74.9283L168.78 74.2971C147.865 57.5407 118.193 56.2152 82.9337 77.6116Z" fill="#2E2F2E"/>
<path d="M127.06 60.4071L127.831 60.4079C143.104 60.4547 158.02 65.3532 169.823 75.2004L170.285 75.578C173.997 78.6229 177.525 81.9725 180.425 85.8107L180.771 86.2636C183.266 89.5349 185.516 92.9329 187.374 96.6082L187.65 97.1515C188.108 98.0871 188.399 98.9359 188.58 99.958C186.132 101.48 183.662 102.959 181.173 104.413L178.072 106.227C176.782 106.982 175.493 107.739 174.205 108.499C172.395 109.566 170.586 110.636 168.777 111.706C167.086 112.707 165.394 113.705 163.7 114.701C162.115 115.634 160.532 116.569 158.95 117.506C157.184 118.551 155.418 119.594 153.649 120.634C151.842 121.698 150.035 122.764 148.229 123.831L147.488 124.269C145.868 125.227 144.252 126.192 142.64 127.164C144.101 128.187 145.601 129.103 147.159 129.969C148.7 130.826 150.226 131.711 151.734 132.624C153.591 133.746 155.464 134.841 157.336 135.938C159.69 137.315 162.04 138.698 164.387 140.087C166.694 141.452 169.005 142.812 171.319 144.167C174.117 145.806 176.91 147.452 179.7 149.105C180.703 149.699 181.708 150.291 182.714 150.881C183.398 151.281 184.081 151.683 184.764 152.085C185.097 152.28 185.431 152.476 185.766 152.671C186.23 152.942 186.694 153.215 187.158 153.489L187.97 153.964C188.58 154.37 188.58 154.37 188.852 154.914C188.551 155.504 188.228 156.083 187.883 156.648C187.18 157.836 186.525 159.015 185.947 160.27C183.446 165.351 179.577 169.831 175.753 173.958L175.219 174.536L174.281 175.532C173.901 175.862 173.901 175.862 173.357 175.862L173.086 176.678C172.298 177.425 171.434 178.078 170.579 178.747C170.07 179.147 169.565 179.553 169.06 179.959C163.25 184.576 156.525 188.318 149.436 190.554C149.033 190.695 148.632 190.837 148.229 190.979C131.753 196.345 113.573 194.912 98.0587 187.289L97.4419 186.986C88.7295 182.651 80.5174 176.042 74.7544 168.171C74.3905 167.678 74.0222 167.188 73.6497 166.702C67.5785 158.671 64.0645 149.449 61.9045 139.678L61.7346 138.921C58.9858 125.359 61.3078 110.676 67.3412 98.3254L67.6712 97.6447C70.4464 91.9796 73.9397 87.0145 78.1869 82.362C78.686 81.8098 79.1644 81.2463 79.6418 80.6755C91.2016 67.4948 109.855 60.3674 127.06 60.4071ZM115.184 72.2077L114.429 72.3707C102.334 75.0523 90.9292 82.565 83.3795 92.3401L83.0359 92.777C78.4691 98.6127 74.9224 105.447 73.199 112.673C73.0875 113.132 72.9707 113.59 72.8502 114.046C70.9767 121.221 70.8033 129.099 71.9624 136.414L72.0554 137.017C73.7312 147.347 78.7453 156.882 85.5542 164.708C85.6766 164.851 85.7989 164.994 85.9253 165.14C87.2429 166.676 88.6268 168.035 90.1754 169.333L90.9252 170C102.87 180.562 117.799 184.175 133.397 183.48C135.53 183.314 137.579 182.915 139.65 182.392L140.483 182.188C151.799 179.381 162.937 173.356 170.367 164.164L170.749 163.701C171.19 163.165 171.628 162.628 172.066 162.089L172.495 161.567C173.291 160.575 173.92 159.62 174.445 158.451C172.699 157.253 170.909 156.159 169.076 155.101C168.496 154.764 167.917 154.428 167.338 154.091L166.419 153.558C164.793 152.614 163.171 151.665 161.549 150.714L161.046 150.419C158.455 148.9 155.879 147.358 153.307 145.806C151.012 144.425 148.695 143.086 146.372 141.753C144.058 140.422 141.77 139.052 139.485 137.672C137.47 136.457 135.438 135.272 133.397 134.101C130.949 132.696 128.514 131.267 126.092 129.816L125.22 129.295L123.703 128.382C123.104 128.003 122.541 127.598 121.98 127.164L123.079 126.514C124.248 125.822 124.248 125.822 125.418 125.13C126.75 124.343 128.081 123.556 129.412 122.767C132.213 121.106 135.02 119.454 137.832 117.812L138.338 117.515C140.67 116.149 142.993 114.769 145.307 113.374C148.279 111.583 151.271 109.829 154.27 108.085C155.871 107.152 157.471 106.217 159.069 105.28L159.571 104.986C162.212 103.435 164.845 101.868 167.468 100.286C169.784 98.8905 172.111 97.5144 174.445 96.1489C174.018 94.7614 173.165 93.7932 172.253 92.697L171.771 92.1121C162.938 81.4425 151.209 74.1037 137.475 71.6636L136.821 71.5414C129.538 70.2208 122.383 70.6284 115.184 72.2077Z" fill="#FEFEFD"/>
</svg>