<svg width="256" height="256" title="Konva" viewBox="0 0 256 256" fill="none" xmlns="http://www.w3.org/2000/svg" id="konva">
<style>
#konva {
    rect {fill: #15191C}

    @media (prefers-color-scheme: light) {
        rect {fill: #F4F2ED}
    }
}
</style>
<rect width="256" height="256" rx="40" fill="#15191C"/>
<path d="M134.353 81.0667L136.706 81.1451L145.333 81.6941L147.137 81.851L150.902 82.0863L154.275 82.2431L158.588 82.5569L163.059 82.949L163.451 83.1059L163.686 83.4196L163.765 83.6549V85.2235L163.216 92.8314L162.745 98.5569L162.275 104.988L161.726 110.635L161.569 112.91L161.333 113.38L160.784 113.929L157.804 115.812L155.922 116.988L154.275 118.008L153.02 118.792L151.216 119.89L149.49 120.988L148 121.851L146.039 123.027L144.784 123.812L144.078 124.282L145.255 124.91L148 126.086V126.243L148.471 126.322L149.176 126.635L150.51 127.184V127.341L151.137 127.498L152.784 128.204L155.059 129.224L157.02 130.086L159.059 131.027L160.314 131.655L161.333 132.204L161.961 132.753L162.196 133.459L163.451 141.067L164.235 146.243L165.412 153.537L166.353 159.498L167.294 164.753L167.765 167.498L168 169.145V169.851L167.765 170.165L166.667 170.322L160.784 170.714L151.294 171.263L147.608 171.498L139.059 172.125H137.647L137.412 171.969L137.255 171.184L136.627 161.067L136.157 154.871L136 153.224L135.765 148.204L135.686 147.027L135.608 146.714L134.824 146.243L134.118 145.773L130.667 143.42L127.294 141.145L126.98 140.831L126.588 140.675L125.412 139.89L123.608 138.714L122.98 138.322L122.902 138.165L122.353 137.929L120.157 136.439L119.843 136.282L120.157 141.537L120.392 146.635L120.706 159.89L120.941 168.282V170.165L120.863 170.322L120.549 170.4L117.725 170.557L99.8431 171.184L93.5686 171.498H91.8431L91.7647 171.42L91.6863 168.361L91.6078 159.812L91.2941 145.537L91.0588 130.086L90.902 123.263L90.8235 119.106L90.7451 111.42L90.6667 88.2039V82.5569L90.7451 81.9294L90.9804 81.7726L109.569 81.3804H117.804L118.196 81.7726L118.275 83.498L118.431 93.5373L118.588 101.224L118.745 112.204L118.824 116.753L120.471 115.655L122.196 114.478L123.608 113.459L124.941 112.518L127.765 110.478L129.02 109.616L130.51 108.518L130.824 108.439L130.98 108.125L132.392 107.106L133.255 106.478L133.412 106.322L133.49 103.341L133.569 97.6941L133.725 90.5569L133.882 86.3216L134.039 81.5373L134.196 81.1451L134.353 81.0667Z" fill="white"/>
<path d="M128 48C83.82 48 48 83.82 48 128C48 172.18 83.82 208 128 208C172.18 208 208 172.18 208 128C208 83.82 172.18 48 128 48ZM137.273 171.607L135.68 146.54L119.74 135.82L120.753 170.013L91.92 171.027L90.7667 81.6333L118 81.2L118.58 116.84L133.36 106.12L134.087 80.9133L163.5 82.8L161.18 113.373L143.793 124.093L161.613 131.92L167.7 169.88L137.273 171.607Z" fill="#0D83CD"/>
</svg>