<svg width="256" height="256" title="Kubuntu" viewBox="0 0 256 256" fill="none" xmlns="http://www.w3.org/2000/svg" id="kubuntu">
<style>
#kubuntu {
    rect {fill: #15191C}

    @media (prefers-color-scheme: light) {
        rect {fill: #F4F2ED}
    }
}
</style>
<rect width="256" height="256" rx="40" fill="#15191C"/>
<path d="M211 128.497C211 174.059 174.063 211 128.498 211C82.936 211 46 174.059 46 128.497C46 82.9351 82.936 46 128.498 46C174.063 46 211 82.9351 211 128.497Z" fill="#0079C1"/>
<path d="M101.474 157.968L104.278 97.1405L85.6334 80.1571C85.1903 79.8677 84.607 79.9277 84.2347 80.3026L75.6212 88.9146C75.2591 89.2779 75.1908 89.8421 75.4577 90.2819L85.542 106.89C83.7533 109.897 82.3209 113.14 81.2963 116.56L62.7823 120.411C62.2672 120.517 61.896 120.974 61.896 121.502V133.682C61.896 134.197 62.2477 134.643 62.744 134.763L80.7133 139.155C81.6716 143.116 83.1569 146.872 85.1194 150.323L74.7188 166.184C74.4286 166.627 74.4894 167.211 74.8643 167.585L83.4752 176.197C83.8373 176.558 84.4026 176.628 84.8443 176.362L101.474 157.968Z" fill="white"/>
<path d="M115.644 90.6169L167.745 122.566L192.216 117.21C192.693 116.982 192.945 116.452 192.818 115.939L189.936 104.105C189.814 103.607 189.367 103.255 188.853 103.255L169.423 103.241C167.783 100.15 165.757 97.2414 163.367 94.5888L169.697 76.7694C169.874 76.2737 169.677 75.7195 169.225 75.4449L158.819 69.1163C158.379 68.8487 157.815 68.9173 157.455 69.2791L144.365 82.3498C140.483 81.1103 136.502 80.4278 132.533 80.3113L124.386 63.1833C124.158 62.7051 123.628 62.4535 123.114 62.5798L111.282 65.462C110.785 65.5836 110.431 66.0304 110.429 66.5456L115.644 90.6169Z" fill="white"/>
<path d="M166.723 136.935L114.146 165.76L107.785 189.836C107.755 190.364 108.098 190.84 108.609 190.975L120.371 194.139C120.867 194.272 121.39 194.049 121.637 193.598L130.994 176.569C134.492 176.618 138.017 176.24 141.492 175.421L154.071 189.54C154.421 189.933 155.001 190.027 155.459 189.763L166.012 183.683C166.458 183.426 166.669 182.899 166.526 182.409L161.361 164.646C164.315 161.838 166.827 158.676 168.838 155.253L187.773 156.347C188.302 156.377 188.778 156.033 188.914 155.521L192.078 143.761C192.21 143.267 191.988 142.742 191.538 142.492L166.723 136.935Z" fill="white"/>
<path d="M168.323 128.499C168.323 150.491 150.493 168.323 128.499 168.323C106.506 168.323 88.6772 150.491 88.6772 128.499C88.6772 106.506 106.506 88.6773 128.499 88.6773C150.493 88.6773 168.323 106.506 168.323 128.499Z" fill="#0079C1"/>
</svg>