<svg width="256" height="256" title="LeetCode" viewBox="0 0 256 256" fill="none" xmlns="http://www.w3.org/2000/svg" id="leetcode">
<style>
#leetcode {
    rect {fill: #15191C}
    path.leet {fill: #F4F2ED}

    @media (prefers-color-scheme: light) {
        rect {fill: #F4F2ED}
        path.leet {fill: #15191C}
    }
}
</style>
<rect width="256" height="256" rx="40" fill="#15191C"/>
<path d="M158.542 168.716C162.256 165.007 168.268 165.017 171.97 168.738C175.672 172.458 175.663 178.481 171.949 182.189L155.457 198.657C140.241 213.85 115.43 214.07 99.9587 199.169C99.8692 199.083 92.98 192.328 70.253 170.042C55.1333 155.217 53.627 131.494 67.8551 116.261L94.3831 87.8557C108.504 72.7347 134.534 71.082 150.68 84.1388L174.774 103.624C178.854 106.924 179.491 112.913 176.197 117C172.903 121.087 166.925 121.726 162.845 118.426L138.751 98.9407C130.307 92.1122 115.537 93.05 108.251 100.852L81.7224 129.257C74.7958 136.673 75.5544 148.621 83.5368 156.448C100.226 172.812 113.088 185.424 113.102 185.438C121.146 193.186 134.152 193.07 142.05 185.184L158.542 168.716Z" fill="#FFA116"/>
<path fill-rule="evenodd" clip-rule="evenodd" d="M118.479 152.236C113.235 152.236 108.983 147.978 108.983 142.724C108.983 137.471 113.235 133.213 118.479 133.213H188.505C193.749 133.213 198 137.471 198 142.724C198 147.978 193.749 152.236 188.505 152.236H118.479Z" fill="#B3B3B3"/>
<path fill-rule="evenodd" clip-rule="evenodd" d="M131.593 48.0135C135.175 44.1774 141.184 43.977 145.013 47.5658C148.843 51.1547 149.043 57.1738 145.46 61.0099L81.7224 129.257C74.7958 136.673 75.5544 148.621 83.5368 156.448L112.971 185.311C116.719 188.986 116.783 195.008 113.115 198.762C109.446 202.516 103.435 202.58 99.6872 198.906L70.253 170.042C55.1333 155.217 53.627 131.494 67.8551 116.261L131.593 48.0135Z" class="leet" fill="#F4F2ED"/>
</svg>