<svg width="256" height="256" title="LemonSqueezy" viewBox="0 0 256 256" fill="none" xmlns="http://www.w3.org/2000/svg">
<rect width="256" height="256" rx="40" fill="#5523E7"/>
<path fill-rule="evenodd" clip-rule="evenodd" d="M106.658 149.246L156.154 172.13C162.289 174.967 166.619 179.729 168.958 185.192C174.873 199.026 166.789 213.173 154.098 218.262C141.405 223.348 127.878 220.075 121.727 205.689L100.187 155.183C98.5175 151.268 102.711 147.421 106.658 149.246ZM109.625 134.433L160.718 115.118C177.699 108.7 196.248 120.845 195.997 138.492C195.994 138.722 195.99 138.952 195.984 139.185C195.617 156.369 177.584 167.919 160.976 161.84L109.673 143.063C105.581 141.566 105.551 135.973 109.625 134.433ZM106.765 127.743L156.991 106.401C173.681 99.3085 177.917 78.0214 164.845 65.7218C164.674 65.5602 164.502 65.3995 164.329 65.2398C151.513 53.3442 130.328 57.5326 123.032 73.2008L100.493 121.609C98.6946 125.469 102.759 129.444 106.765 127.743ZM93.8391 119.309L112.1 69.2388C114.364 63.0305 113.945 56.6992 111.604 51.2364C105.677 37.4087 89.6257 32.9452 76.9371 38.0411C64.2505 43.1389 57.0817 54.7163 63.2446 69.0964L84.9264 119.547C86.6078 123.457 92.3836 123.303 93.8391 119.309Z" fill="#FFC233"/>
</svg>