<svg width="256" height="256" title="LibrePCB" viewBox="0 0 256 256" fill="none" xmlns="http://www.w3.org/2000/svg" id="librepcb">
<style>
#librepcb {
    rect {fill: #15191C}

    @media (prefers-color-scheme: light) {
        rect {fill: #F4F2ED}
    }
}
</style>
<rect width="256" height="256" rx="40" fill="#15191C"/>
<path d="M216 133C216 181.325 176.825 220.5 128.5 220.5C80.1751 220.5 41 181.325 41 133C41 84.6751 80.1751 45.5 128.5 45.5C176.825 45.5 216 84.6751 216 133Z" fill="#29D682"/>
<path d="M150.598 162.159H140.555V183H150.598V162.159Z" fill="white"/>
<path d="M133.02 162.159H122.977V183H133.02V162.159Z" fill="white"/>
<path d="M115.445 162.159H105.402V183H115.445V162.159Z" fill="white"/>
<path d="M150.598 73H140.555V93.8406H150.5L150.598 73Z" fill="white"/>
<path d="M133.02 73H122.977V93.8406H133.02V73Z" fill="white"/>
<path d="M115.445 73H105.402L105.04 93.8406H115.445V73Z" fill="white"/>
<path d="M93.8406 140.555H73V150.598H93.8406V140.555Z" fill="white"/>
<path d="M93.8406 122.977H73V133.02H93.8406V122.977Z" fill="white"/>
<path d="M93.8406 105.5L73 105.402V115.445H93.8406V105.5Z" fill="white"/>
<path d="M183 140.555H162.159V150.598H183V140.555Z" fill="white"/>
<path d="M183 122.977H162.159V133.02H183V122.977Z" fill="white"/>
<path d="M183 105.402H162.159V115.445H183V105.402Z" fill="white"/>
<path d="M153.324 93.8406H102.676C101.515 93.8397 100.366 94.0677 99.2937 94.5114C98.2214 94.9551 97.247 95.6058 96.4264 96.4264C95.6058 97.247 94.9551 98.2214 94.5114 99.2937C94.0677 100.366 93.8397 101.515 93.8406 102.676V153.324C93.8412 155.667 94.7722 157.914 96.429 159.571C98.0858 161.228 100.333 162.159 102.676 162.159H153.324C155.667 162.159 157.914 161.228 159.571 159.571C161.228 157.914 162.159 155.667 162.159 153.324V102.676C162.16 101.515 161.932 100.366 161.489 99.2937C161.045 98.2214 160.394 97.247 159.574 96.4264C158.753 95.6058 157.779 94.9551 156.706 94.5114C155.634 94.0677 154.485 93.8397 153.324 93.8406ZM100.955 109.3C100.956 107.988 101.346 106.706 102.076 105.616C102.805 104.526 103.842 103.677 105.054 103.176C106.266 102.675 107.6 102.545 108.886 102.802C110.172 103.059 111.353 103.692 112.28 104.62C113.206 105.549 113.836 106.731 114.091 108.018C114.345 109.305 114.213 110.638 113.709 111.849C113.206 113.06 112.355 114.095 111.263 114.822C110.172 115.55 108.889 115.937 107.577 115.935C106.707 115.935 105.844 115.764 105.04 115.43C104.235 115.097 103.505 114.608 102.89 113.992C102.274 113.375 101.787 112.644 101.455 111.839C101.123 111.033 100.953 110.171 100.955 109.3Z" fill="#4D4D4D"/>
</svg>