<svg width="256" height="256" title="Lidarr" viewBox="0 0 256 256" fill="none" xmlns="http://www.w3.org/2000/svg">
<rect width="256" height="256" rx="40" fill="#15191C"/>
<path d="M128.5 211C174.063 211 211 174.063 211 128.5C211 82.9365 174.063 46 128.5 46C82.9365 46 46 82.9365 46 128.5C46 174.063 82.9365 211 128.5 211Z" fill="#E5E5E5"/>
<path d="M194.532 128.758C194.532 92.1807 164.884 62.5322 128.307 62.5322V57.5049L125.342 62.5645C90.1504 64.1436 62.0811 93.1475 62.0811 128.758C62.0811 165.335 91.7295 194.983 128.307 194.983V199.979L131.271 194.919C166.463 193.34 194.532 164.336 194.532 128.758ZM163.466 93.5664C167.913 98.0137 171.394 103.138 173.843 108.713H128.307V79C141.584 79 154.088 84.1563 163.466 93.5664ZM93.1152 93.5664C99.2061 87.4756 106.586 83.1572 114.643 80.8691L79.9024 140.359C79 136.589 78.5488 132.722 78.5488 128.758C78.5488 115.448 83.7373 102.977 93.1152 93.5664ZM93.1152 163.917C88.668 159.47 85.1875 154.346 82.7383 148.771H128.307V178.483C114.997 178.483 102.525 173.327 93.1152 163.917ZM141.938 176.614L176.679 117.124C177.581 120.895 178.032 124.762 178.032 128.726C178.032 142.003 172.844 154.507 163.466 163.917C157.407 170.008 149.995 174.326 141.938 176.614Z" fill="black"/>
<path d="M190.214 102.59C186.83 94.5977 181.996 87.4111 175.809 81.2236C169.653 75.0684 162.467 70.2022 154.442 66.8184C146.547 63.4668 138.2 61.7266 129.563 61.5654V52.7354L124.343 61.6621C116.641 62.1133 109.196 63.8213 102.106 66.8184C94.1142 70.2022 86.9277 75.0361 80.7402 81.2236C74.5849 87.3789 69.7187 94.5654 66.3349 102.59C62.8222 110.872 61.0498 119.67 61.0498 128.758C61.0498 137.846 62.8222 146.644 66.3349 154.926C69.7187 162.918 74.5527 170.104 80.7402 176.292C86.9277 182.479 94.082 187.313 102.106 190.697C110.002 194.049 118.349 195.789 126.985 195.95V204.78L132.206 195.854C139.908 195.402 147.353 193.694 154.442 190.697C162.435 187.313 169.621 182.479 175.809 176.292C181.996 170.104 186.83 162.95 190.214 154.926C193.727 146.644 195.499 137.846 195.499 128.758C195.499 119.67 193.727 110.872 190.214 102.59ZM143.646 110.002H179.353L130.305 193.984C130.079 193.984 129.821 193.984 129.596 194.017V152.928C142.39 152.251 152.541 141.681 152.541 128.726C152.541 121.185 149.061 114.449 143.646 110.002ZM112.935 147.481H77.2598L126.276 63.5313C126.502 63.5313 126.76 63.5313 126.985 63.499V104.556C114.191 105.232 104.04 115.803 104.04 128.758C104.072 136.299 107.52 143.034 112.935 147.481ZM63.0478 128.758C63.0478 94.501 89.6025 66.3027 123.215 63.6924L72.748 150.06H116.802C119.863 151.735 123.344 152.734 127.018 152.928V193.984C91.6328 193.308 63.0478 164.304 63.0478 128.758ZM133.398 193.791L183.865 107.424H139.812C136.75 105.748 133.27 104.749 129.596 104.556V63.499C164.98 64.1758 193.565 93.1797 193.565 128.758C193.565 163.015 167.011 191.181 133.398 193.791Z" fill="#009252"/>
</svg>