<svg width="256" height="256" title="Linux Mint" viewBox="0 0 256 256" fill="none" xmlns="http://www.w3.org/2000/svg">
<rect width="256" height="256" rx="40" fill="#86BE43"/>
<path d="M81.5192 84.8342V144.603C81.5192 159.195 93.49 171.166 108.082 171.166H147.925C162.517 171.166 174.488 159.195 174.488 144.603V111.397C174.46 106.121 172.352 101.07 168.621 97.3406C164.89 93.6111 159.838 91.5044 154.563 91.4783C149.641 91.5104 144.907 93.371 141.281 96.6988C137.655 93.371 132.921 91.5104 128 91.4783C122.726 91.5062 117.676 93.6137 113.946 97.3431C110.217 101.072 108.11 106.123 108.082 111.397V144.603H121.363V111.397C121.363 107.65 124.253 104.76 128 104.76C131.747 104.76 134.644 107.65 134.644 111.397V144.603H147.925V111.397C147.925 107.65 150.815 104.76 154.563 104.76C158.31 104.76 161.207 107.65 161.207 111.397V144.603C161.221 146.351 160.887 148.085 160.225 149.703C159.562 151.32 158.584 152.79 157.348 154.026C156.112 155.262 154.642 156.24 153.025 156.902C151.407 157.565 149.673 157.899 147.925 157.885H108.082C106.334 157.899 104.6 157.565 102.982 156.902C101.365 156.24 99.895 155.262 98.6589 154.026C97.4227 152.79 96.445 151.32 95.7826 149.703C95.1201 148.085 94.7863 146.351 94.8004 144.603V84.8342H81.5192ZM128 43C81.1367 43 43 81.1367 43 128C43 174.863 81.1367 213 128 213C174.863 213 213 174.863 213 128C213 81.1367 174.863 43 128 43ZM128 56.2813C137.422 56.2673 146.754 58.1128 155.462 61.712C164.17 65.3113 172.082 70.5935 178.744 77.256C185.407 83.9185 190.689 91.8302 194.288 100.538C197.887 109.246 199.733 118.578 199.719 128C199.733 137.422 197.887 146.754 194.288 155.462C190.689 164.17 185.407 172.082 178.744 178.744C172.082 185.407 164.17 190.689 155.462 194.288C146.754 197.887 137.422 199.733 128 199.719C118.578 199.733 109.246 197.887 100.538 194.288C91.8302 190.689 83.9185 185.407 77.256 178.744C70.5935 172.082 65.3113 164.17 61.712 155.462C58.1128 146.754 56.2673 137.422 56.2813 128C56.2673 118.578 58.1128 109.246 61.712 100.538C65.3113 91.8302 70.5935 83.9185 77.256 77.256C83.9185 70.5935 91.8302 65.3113 100.538 61.712C109.246 58.1128 118.578 56.2673 128 56.2813Z" fill="white"/>
</svg>