<svg width="256" height="256" title="LiteRT" viewBox="0 0 256 256" fill="none" xmlns="http://www.w3.org/2000/svg" id="litert">
<style>
#litert {
    rect {fill: #15191C}

    @media (prefers-color-scheme: light) {
        rect {fill: #F4F2ED}
    }
}
</style>
<rect width="256" height="256" rx="40" fill="#15191C"/>
<path d="M184.018 94.7898L184.754 95.1569L186.41 96.809L187.514 97.7268L188.802 99.1953L190.089 100.48L192.849 104.152L194.689 107.456L196.16 110.76L197.264 114.615L197.816 117.735L198 119.571V123.426L197.448 127.648L196.528 131.319L195.424 134.44L193.217 139.029L191.193 142.149L188.802 145.27L187.882 146.371H187.514L187.146 147.106L185.49 148.758L184.018 150.043L181.259 152.245L178.499 154.081L173.716 156.835L169.117 159.404L164.886 161.791L161.022 163.994L156.791 166.38L152.192 168.95L143.177 174.09L138.578 176.66L133.427 179.597L128.46 182.35L119.445 187.49L110.247 192.63L105.832 195.2L100.497 198.137L96.6334 200.339L92.0342 202.909L87.6189 205.479L82.2838 208.416L73.8213 213.189L69.2221 215.759L66.0946 217.594L61.4954 220.164L58.3679 222L58 221.816L73.6373 206.213L74.7411 204.929H75.1091L75.477 204.194H75.8449L76.2129 203.46H76.5808L76.9488 202.726L91.1143 188.591L92.2181 187.306L92.954 186.572H93.3219L93.6899 185.838L108.407 171.153L109.695 169.684L124.781 154.632L124.965 154.265H125.332L125.7 153.53H126.068L126.436 152.796L145.017 134.256L145.937 133.155L147.225 132.053L147.593 131.503H147.961L148.329 130.768L163.23 115.9L164.334 114.615L181.811 97.1761L183.099 95.7076L184.018 94.7898Z" fill="#00C89B"/>
<path d="M156.791 69.4578L157.711 69.6414L160.838 72.762L162.862 75.3319L164.518 77.9018L165.989 81.0224L166.909 84.143L167.277 86.1622L167.461 88.1814V90.2006L167.093 93.5048L166.173 97.1761L164.702 100.664L163.414 103.05L161.758 105.437L160.286 107.272L158.079 109.658L155.503 111.678L153.296 113.33L149.432 115.533L144.833 118.102L140.418 120.672L136.371 122.875L132.507 125.078L128.276 127.464L123.125 130.401L118.158 133.155L114.294 135.358L109.695 137.927L105.832 140.13L101.233 142.7L97.3693 144.903L92.77 147.473L88.9067 149.676L84.3075 152.245L80.4442 154.448L75.8449 157.018L70.6938 159.955L67.3824 161.791L63.703 163.994L63.1511 163.81L64.6229 162.342L65.9106 161.24L67.1984 159.772L86.883 140.13L87.8029 139.029L88.9067 138.111L89.4586 137.377H89.8265L90.1945 136.642H90.5624L90.9304 135.908L103.624 123.242L104.728 121.957L105.464 121.223H105.832L106.2 120.489L122.389 104.335L123.677 102.867L138.578 87.9979L138.946 87.4472H139.314L139.682 86.7129H140.05L140.418 85.9787L156.607 69.825L156.791 69.4578Z" fill="#00C89B"/>
<path d="M137.658 50L138.394 50.3671L140.418 52.3863L142.442 55.1398L143.729 57.8933L144.465 60.6467L144.649 62.2988V64.318L144.281 66.7044L143.361 69.6414L142.074 72.2113L140.418 74.5977L138.394 76.8004L135.819 78.8196L133.059 80.4717L128.46 83.0416L123.309 85.9787L118.71 88.5486L113.558 91.4856L108.591 94.2391L99.5769 99.3789L90.3785 104.519L85.9632 107.089L81.9159 109.291L78.9724 110.943L76.0289 112.779L75.477 112.596L92.77 95.3404L93.8739 94.0555H94.2418L94.6097 93.3212H94.9777L95.3456 92.587L110.247 77.7183L111.351 76.4333L126.804 61.0139L128.092 59.5454L137.658 50Z" fill="#00C89B"/>
</svg>