<svg width="256" height="256" title="Litestar" viewBox="0 0 256 256" fill="none" xmlns="http://www.w3.org/2000/svg" id="litestar">
<style>
#litestar {
    rect {fill: #15191C}

    @media (prefers-color-scheme: light) {
        rect {fill: #F4F2ED}
    }
}
</style>
<rect width="256" height="256" rx="40" fill="#15191C"/>
<path d="M107.009 155.722C114.279 152.399 120.596 148.737 125.769 145.345C135.662 138.861 148.308 126.804 149.002 125.842L140.353 120.054L157.142 119.397L161.707 103.207L167.518 118.991L184.307 118.335L171.111 128.745L176.924 144.528L162.956 135.181L149.759 145.593L153.212 133.341L153.427 132.576C141.268 141.687 124.26 150.466 114.091 153.713C111.758 154.458 109.397 155.127 107.009 155.722ZM83.0962 165.05C101.118 164.345 122.588 159.758 143.716 146.296L139.645 160.739L163.228 142.135L188.186 158.837L177.8 130.636L201.381 112.032L171.381 113.205L160.995 85.0033L152.84 113.931L122.84 115.106L140.208 126.728C128.776 137.138 100.102 159.336 62.1171 160.825C54.437 161.124 46.374 160.577 38 158.915C38 158.915 56.9056 166.078 83.0962 165.05Z" fill="#EDB641"/>
<path d="M161.068 71C129.623 71 104.135 96.5207 104.135 128C104.135 133.963 105.05 139.708 106.745 145.109C109.221 143.874 111.588 142.596 113.839 141.298C112.652 137.068 112.017 132.609 112.017 128C112.017 100.879 133.977 78.8909 161.068 78.8909C188.158 78.8909 210.117 100.879 210.117 128C210.117 155.123 188.158 177.109 161.068 177.109C146.375 177.109 133.195 170.64 124.205 160.394C121.591 161.414 118.944 162.341 116.265 163.178C126.69 176.465 142.881 185 161.068 185C192.511 185 218 159.481 218 128C218 96.5207 192.511 71 161.068 71Z" fill="#EDB641"/>
<path d="M78.0136 120.388L81.1557 130.07H91.3229L83.0962 136.053L86.2383 145.734L78.0136 139.751L69.787 145.734L72.929 136.053L64.7044 130.07H74.8716L78.0136 120.388Z" fill="#EDB641"/>
<path d="M92.6452 88.476L95.3574 96.8345H104.135L97.0338 101.997L99.746 110.356L92.6452 105.191L85.5443 110.356L88.2565 101.997L81.1557 96.8345H89.933L92.6452 88.476Z" fill="#EDB641"/>
<path d="M47.8315 139.351L49.4158 144.227H54.5372L50.3942 147.24L51.9765 152.118L47.8315 149.102L43.6905 152.118L45.2728 147.24L41.1298 144.227H46.2512L47.8315 139.351Z" fill="#EDB641"/>
</svg>