<svg xmlns="http://www.w3.org/2000/svg" width="256" height="256" fill="none" viewBox="0 0 256 256"><path fill="#162131" clip-rule="evenodd" d="M60 0h136c33.1 0 60 26.9 60 60v136c0 33.1-26.9 60-60 60H60c-33.1 0-60-26.9-60-60V60C0 26.9 26.9 0 60 0z"/><path fill="#fb70a9" fill-rule="evenodd" clip-rule="evenodd" d="M206.2 188.3c-3.2 4.9-5.7 10.9-12.2 10.9-11 0-11.6-17-22.7-17s-10.5 17-21.5 17-11.6-17-22.7-17-10.5 17-21.5 17-11.6-17-22.7-17-10.4 17-21.5 17c-3.5 0-5.9-1.7-8-4-8.2-14.3-12.5-30.6-12.5-47.1 0-50.5 39-91.4 87.1-91.4s87.1 40.9 87.1 91.4c0 14.5-3.2 28.1-8.9 40.2z"/><path fill="#e24ca6" fill-rule="evenodd" d="M187.4 197.4c22.8-33.9 23.4-71.6 1.8-112.9 16.7 17.1 26 40 25.9 63.9 0 14.4-3.3 28-9.2 40.1-3.3 4.9-5.9 10.9-12.7 10.9-2.3-.2-4.2-.9-5.8-2z"/><path fill="#fff" fill-rule="evenodd" clip-rule="evenodd" d="M123.3 170.9c30.3 0 43-17.6 43-42.5 0-25-19.3-47.9-43-47.9-23.8 0-43 23-43 47.9 0 25 12.8 42.5 43 42.5z"/><path fill="#030776" d="M111.8 129.8c8.9 0 16.1-8 16.1-17.8s-7.2-17.8-16.1-17.8-16.1 8-16.1 17.8c-.1 9.9 7.2 17.8 16.1 17.8z"/><path fill="#fff" d="M109.1 116.1c4.4 0 8.1-3.7 8.1-8.2s-3.6-8.2-8.1-8.2-8.1 3.7-8.1 8.2 3.6 8.2 8.1 8.2z"/></svg>
