<svg width="256" height="256" title="Livewire" viewBox="0 0 256 256" fill="none" xmlns="http://www.w3.org/2000/svg" id="livewire">
<style>
#livewire {
    rect {fill: #15191C}

    @media (prefers-color-scheme: light) {
        rect {fill: #F4F2ED}
    }
}
</style>
<rect width="256" height="256" rx="40" fill="#15191C"/>
<path fill-rule="evenodd" clip-rule="evenodd" d="M195.365 155.946C192.582 160.14 190.471 165.301 184.817 165.301C175.299 165.301 174.787 150.677 165.261 150.677C155.741 150.677 156.258 165.301 146.742 165.301C137.222 165.301 136.712 150.677 127.186 150.677C117.666 150.677 118.182 165.301 108.667 165.301C99.1469 165.301 98.6367 150.677 89.1165 150.677C79.5905 150.677 80.1064 165.301 70.5934 165.301C67.6001 165.301 65.5006 163.856 63.7273 161.875C56.9187 150.067 53 136.227 53 121.429C53 78.1142 86.5787 43 127.999 43C169.421 43 203 78.1142 203 121.431C203 133.814 200.255 145.532 195.365 155.946Z" fill="#FB70A9"/>
<path fill-rule="evenodd" clip-rule="evenodd" d="M98.0477 148.204V180.692C98.0477 186.52 93.3041 191.245 87.4554 191.245C86.065 191.246 84.6879 190.974 83.4029 190.444C82.118 189.914 80.9503 189.137 79.9666 188.157C78.9829 187.177 78.2026 186.013 77.6701 184.732C77.1376 183.451 76.8634 182.077 76.8632 180.691V141.475C78.8391 137.858 81.0952 134.728 85.1691 134.728C91.7938 134.728 94.1117 143.027 98.0477 148.205V148.204ZM138.059 149.899V201.272C138.058 202.812 137.754 204.338 137.162 205.761C136.571 207.184 135.704 208.477 134.611 209.566C133.519 210.655 132.222 211.519 130.795 212.108C129.368 212.697 127.838 213 126.294 213C119.794 213 114.523 207.749 114.523 201.272V143.126C116.74 138.865 119.024 134.727 123.706 134.727C131.121 134.727 133.137 145.106 138.06 149.899H138.059ZM175.724 148.953V186.25C175.724 192.079 170.982 196.804 165.133 196.804C159.283 196.804 154.54 192.079 154.54 186.25V140.41C156.38 137.264 158.576 134.727 162.248 134.727C169.203 134.727 171.409 143.871 175.724 148.953Z" fill="#4E56A6"/>
<path fill-rule="evenodd" clip-rule="evenodd" d="M98.0477 158.163C96.1666 155.867 93.9436 154.164 90.7275 154.164C83.0883 154.164 81.6844 163.761 76.8632 168.084V126.705C76.8634 125.318 77.1375 123.945 77.6699 122.664C78.2023 121.383 78.9826 120.22 79.9661 119.239C80.9496 118.259 82.1172 117.482 83.402 116.952C84.6867 116.422 86.0637 116.15 87.454 116.151C93.3041 116.151 98.0477 120.876 98.0477 126.705V158.163ZM138.059 158.901C136.055 156.243 133.714 154.166 130.161 154.166C121.662 154.166 120.882 166.04 114.523 169.327V151.024C114.523 144.546 119.794 139.296 126.294 139.296C127.838 139.295 129.368 139.598 130.795 140.187C132.223 140.777 133.52 141.64 134.612 142.729C135.705 143.818 136.572 145.112 137.163 146.535C137.755 147.958 138.06 149.483 138.06 151.024L138.059 158.901ZM175.724 156.847C174.092 155.246 172.16 154.166 169.595 154.166C161.361 154.166 160.372 165.312 154.54 168.99V131.849C154.54 129.047 155.656 126.36 157.642 124.379C159.628 122.398 162.323 121.285 165.132 121.285C167.941 121.285 170.635 122.398 172.622 124.379C174.608 126.36 175.724 129.047 175.724 131.849V156.847Z" fill="black" fill-opacity="0.298039"/>
<path fill-rule="evenodd" clip-rule="evenodd" d="M195.365 155.946C192.582 160.14 190.471 165.301 184.817 165.301C175.299 165.301 174.787 150.677 165.261 150.677C155.741 150.677 156.258 165.301 146.742 165.301C137.222 165.301 136.712 150.677 127.186 150.677C117.666 150.677 118.182 165.301 108.667 165.301C99.1469 165.301 98.6367 150.677 89.1165 150.677C79.5905 150.677 80.1064 165.301 70.5934 165.301C67.6001 165.301 65.5006 163.856 63.7273 161.875C56.9187 150.067 53 136.227 53 121.429C53 78.1142 86.5787 43 127.999 43C169.421 43 203 78.1142 203 121.431C203 133.814 200.255 145.532 195.365 155.946Z" fill="#FB70A9"/>
<path fill-rule="evenodd" clip-rule="evenodd" d="M179.137 163.738C198.79 134.598 199.295 102.283 180.659 66.7773C194.473 80.8861 203 100.24 203 121.598C203 133.939 200.155 145.605 195.085 155.985C192.205 160.155 190.011 165.301 184.149 165.301C182.355 165.317 180.602 164.771 179.137 163.738Z" fill="#E24CA6"/>
<path fill-rule="evenodd" clip-rule="evenodd" d="M123.98 140.997C150.062 140.997 161.041 125.92 161.041 104.507C161.041 83.0918 144.447 63.3849 123.98 63.3849C103.51 63.3849 86.9165 83.0918 86.9165 104.506C86.9165 125.921 97.8939 140.997 123.98 140.997Z" fill="white"/>
<path fill-rule="evenodd" clip-rule="evenodd" d="M127.91 90.4314C127.91 98.8731 121.685 105.721 114.011 105.721C106.332 105.721 100.113 98.8746 100.113 90.4314C100.113 81.9896 106.332 75.1417 114.011 75.1417C121.685 75.1417 127.91 81.9882 127.91 90.4314Z" fill="#030776"/>
<path fill-rule="evenodd" clip-rule="evenodd" d="M118.643 86.9042C118.643 90.8012 115.533 93.9586 111.694 93.9586C107.854 93.9586 104.744 90.8012 104.744 86.9042C104.744 83.0072 107.854 79.8498 111.694 79.8498C115.533 79.8498 118.643 83.0072 118.643 86.9042Z" fill="white"/>
</svg>