<svg width="256" height="256" title="LlamaIndex" viewBox="0 0 256 256" fill="none" xmlns="http://www.w3.org/2000/svg" id="llamaindex">
<style>
#llamaindex {
    rect {fill: #15191C}

    @media (prefers-color-scheme: light) {
        rect {fill: #F4F2ED}
    }
}
</style>
<rect width="256" height="256" rx="40" fill="#15191C"/>
<path d="M152.014 160.726C138.854 166.539 124.599 164.155 119.113 162.236C119.113 163.557 119.051 167.628 118.812 173.435C118.572 179.249 116.723 182.917 115.823 184.03C115.924 187.661 116.006 195.588 115.528 198.249C115.069 200.402 114.034 202.39 112.533 204H104.456C105.173 200.37 107.947 198.048 109.243 197.343C109.96 189.837 108.551 183.319 107.746 181.004C106.953 183.829 104.997 190.379 103.563 194.015C102.388 196.903 100.883 199.646 99.0774 202.188H93.0948C92.7929 198.551 94.7933 197.343 96.0829 197.343C96.6806 196.23 98.1149 192.744 99.0774 187.654C100.034 182.577 98.6747 173.032 97.8821 168.899V155.888C88.3075 150.741 84.7218 145.594 82.325 139.844C80.4126 135.251 80.9285 128.248 81.4317 125.323C80.8278 124.215 79.0853 121.39 78.4373 117.458C77.544 112.01 78.041 108.077 78.4373 105.957C77.8397 105.353 76.6444 102.264 76.6444 94.7578C76.6444 87.2581 78.8399 83.3636 79.9345 82.3506V79.0223C75.7449 78.7203 71.5615 76.9083 69.1647 74.486C66.7742 72.0637 68.5671 68.4335 70.0643 67.2255C71.5615 66.0112 73.0524 66.9172 75.1472 66.3132C77.2421 65.7092 79.0349 65.1052 79.9282 63.2932C80.658 61.8272 79.2425 55.8187 78.4436 53C82.0293 53.4845 84.3255 56.6303 85.0238 58.1466V53C89.5091 55.1203 97.5864 60.2606 100.279 71.4597C102.43 80.4191 103.965 99.1997 104.462 107.467C115.93 107.568 130.487 105.831 143.648 108.681C155.606 111.273 160.991 116.546 167.269 116.546C173.554 116.546 177.146 112.916 181.625 115.942C186.117 118.968 188.507 127.443 187.909 133.798C187.431 138.881 183.525 140.555 181.631 140.756C179.241 148.747 181.631 156.391 183.122 159.216V170.711C183.82 171.717 185.217 174.832 185.217 179.186C185.217 183.546 183.82 186.446 183.122 187.359C184.317 194.135 182.619 201.074 181.625 203.698H173.554C174.51 201.276 176.146 200.672 176.844 200.672C178.278 193.166 177.24 186.245 176.542 183.728C172 181.061 169.069 176.367 168.169 174.347C168.27 176.059 167.987 180.822 166.074 186.144C164.162 191.473 161.293 194.619 160.098 195.525V201.88H152.021C152.021 198.01 154.21 197.243 155.311 197.343C156.707 194.827 160.092 190.989 160.092 183.426C160.092 177.04 155.606 174.039 152.316 168.295C150.756 165.564 151.517 162.142 152.021 160.726H152.014Z" fill="url(#linearGradient)"/>
<linearGradient id="linearGradient" x1="77.5692" y1="65.7092" x2="207.124" y2="174.266" gradientUnits="userSpaceOnUse">
<stop offset="0.062" stop-color="#F6DCD9"/>
<stop offset="0.326" stop-color="#FFA5EA"/>
<stop offset="0.589" stop-color="#45DFF8"/>
<stop offset="1" stop-color="#BC8DEB"/>
</linearGradient>
</svg>