<svg width="256" height="256" title="LM Studio" viewBox="0 0 256 256" fill="none" xmlns="http://www.w3.org/2000/svg">
<rect width="256" height="256" rx="40" fill="url(#linearGradient)"/>
<path fill-rule="evenodd" clip-rule="evenodd" d="M66.9359 64C65.821 64 64.717 64.2191 63.687 64.6447C62.657 65.0704 61.7211 65.6943 60.9328 66.4808C60.1445 67.2673 59.5191 68.201 59.0925 69.2286C58.6658 70.2562 58.4462 71.3576 58.4462 72.4699C58.4462 73.5821 58.6658 74.6835 59.0925 75.7111C59.5191 76.7388 60.1445 77.6725 60.9328 78.459C61.7211 79.2455 62.657 79.8693 63.687 80.295C64.717 80.7206 65.821 80.9397 66.9359 80.9397H160.979C163.23 80.9397 165.39 80.0474 166.982 78.459C168.574 76.8706 169.468 74.7162 169.468 72.4699C169.468 70.2235 168.574 68.0692 166.982 66.4808C165.39 64.8924 163.23 64 160.979 64H66.9359ZM100.901 86.1474C98.6487 86.1474 96.4884 87.0401 94.8957 88.6291C93.3029 90.2181 92.4082 92.3733 92.4082 94.6205C92.4082 96.8678 93.3029 99.023 94.8957 100.612C96.4884 102.201 98.6487 103.094 100.901 103.094H194.931C197.141 103.032 199.24 102.112 200.782 100.531C202.323 98.9491 203.186 96.83 203.186 94.6239C203.186 92.4177 202.323 90.2986 200.782 88.7169C199.24 87.1353 197.141 86.2158 194.931 86.154L100.901 86.1474ZM72.1623 116.775C72.1623 112.092 75.9622 108.301 80.6553 108.301H174.691C176.902 108.363 179.001 109.283 180.542 110.864C182.084 112.446 182.946 114.565 182.946 116.771C182.946 118.977 182.084 121.096 180.542 122.678C179.001 124.26 176.902 125.179 174.691 125.241H80.6553C75.9688 125.241 72.1623 121.45 72.1623 116.775ZM56.4896 131.759C54.2381 131.759 52.0787 132.651 50.4866 134.24C48.8944 135.828 48 137.982 48 140.229C48 142.475 48.8944 144.629 50.4866 146.218C52.0787 147.806 54.2381 148.699 56.4896 148.699H150.532C152.743 148.637 154.842 147.717 156.383 146.136C157.925 144.554 158.787 142.435 158.787 140.229C158.787 138.023 157.925 135.904 156.383 134.322C154.842 132.74 152.743 131.821 150.532 131.759H56.4896ZM72.1623 162.379C72.1623 157.697 75.9622 153.906 80.6553 153.906H174.691C176.943 153.906 179.102 154.799 180.694 156.387C182.287 157.975 183.181 160.13 183.181 162.376C183.181 164.622 182.287 166.777 180.694 168.365C179.102 169.954 176.943 170.846 174.691 170.846H80.6553C75.9688 170.846 72.1623 167.055 72.1623 162.379ZM134.86 176.06C132.608 176.06 130.449 176.953 128.857 178.541C127.265 180.129 126.37 182.284 126.37 184.53C126.37 186.776 127.265 188.931 128.857 190.519C130.449 192.108 132.608 193 134.86 193H199.51C201.762 193 203.921 192.108 205.513 190.519C207.106 188.931 208 186.776 208 184.53C208 182.284 207.106 180.129 205.513 178.541C203.921 176.953 201.762 176.06 199.51 176.06H134.86Z" fill="white" fill-opacity="0.5"/>
<path fill-rule="evenodd" clip-rule="evenodd" d="M66.9359 64C65.821 64 64.717 64.2191 63.687 64.6447C62.657 65.0704 61.7211 65.6943 60.9328 66.4808C60.1445 67.2673 59.5191 68.201 59.0925 69.2286C58.6658 70.2562 58.4462 71.3576 58.4462 72.4699C58.4462 73.5821 58.6658 74.6835 59.0925 75.7111C59.5191 76.7388 60.1445 77.6725 60.9328 78.459C61.7211 79.2455 62.657 79.8693 63.687 80.295C64.717 80.7206 65.821 80.9397 66.9359 80.9397H135.513C137.723 80.8779 139.823 79.9585 141.364 78.3768C142.906 76.7951 143.768 74.676 143.768 72.4699C143.768 70.2637 142.906 68.1446 141.364 66.5629C139.823 64.9813 137.723 64.0618 135.513 64H66.9359ZM100.901 86.1474C98.6487 86.1474 96.4884 87.0401 94.8957 88.6291C93.3029 90.2181 92.4082 92.3733 92.4082 94.6205C92.4082 96.8678 93.3029 99.023 94.8957 100.612C96.4884 102.201 98.6487 103.094 100.901 103.094H169.465C171.675 103.032 173.774 102.112 175.316 100.531C176.858 98.9491 177.72 96.83 177.72 94.6239C177.72 92.4177 176.858 90.2986 175.316 88.7169C173.774 87.1353 171.675 86.2158 169.465 86.154L100.901 86.1474ZM72.1623 116.775C72.1623 112.092 75.9622 108.301 80.6553 108.301H149.226C151.477 108.301 153.637 109.194 155.229 110.782C156.821 112.371 157.715 114.525 157.715 116.771C157.715 119.018 156.821 121.172 155.229 122.76C153.637 124.349 151.477 125.241 149.226 125.241H80.6553C75.9688 125.241 72.1623 121.45 72.1623 116.775ZM56.4896 131.759C54.2381 131.759 52.0787 132.651 50.4866 134.24C48.8944 135.828 48 137.982 48 140.229C48 142.475 48.8944 144.629 50.4866 146.218C52.0787 147.806 54.2381 148.699 56.4896 148.699H125.067C127.277 148.637 129.376 147.717 130.918 146.136C132.459 144.554 133.322 142.435 133.322 140.229C133.322 138.023 132.459 135.904 130.918 134.322C129.376 132.74 127.277 131.821 125.067 131.759H56.4896ZM72.1623 162.379C72.1623 157.697 75.9622 153.906 80.6553 153.906H149.226C151.477 153.906 153.637 154.799 155.229 156.387C156.821 157.975 157.715 160.13 157.715 162.376C157.715 164.622 156.821 166.777 155.229 168.365C153.637 169.954 151.477 170.846 149.226 170.846H80.6553C75.9688 170.846 72.1623 167.055 72.1623 162.379ZM134.86 176.06C132.608 176.06 130.449 176.953 128.857 178.541C127.265 180.129 126.37 182.284 126.37 184.53C126.37 186.776 127.265 188.931 128.857 190.519C130.449 192.108 132.608 193 134.86 193H173.391C175.643 193 177.802 192.108 179.395 190.519C180.987 188.931 181.881 186.776 181.881 184.53C181.881 182.284 180.987 180.129 179.395 178.541C177.802 176.953 175.643 176.06 173.391 176.06H134.86Z" fill="white"/>
<linearGradient id="linearGradient" x1="21.801" y1="1.34365e-06" x2="234.199" y2="256" gradientUnits="userSpaceOnUse">
<stop stop-color="#6B74ED"/>
<stop offset="1" stop-color="#4F16BF"/>
</linearGradient>
</svg>