<svg width="256" height="256" title="Logto" viewBox="0 0 256 256" fill="none" xmlns="http://www.w3.org/2000/svg" id="logto">
<style>
#logto {
    rect {fill: #15191C}

    @media (prefers-color-scheme: light) {
        rect {fill: #F4F2ED}
    }
}
</style>
<rect width="256" height="256" rx="40" fill="#15191C"/>
<path fill-rule="evenodd" clip-rule="evenodd" d="M61 72.2957C61 67.6412 61 65.3139 61.9025 63.4407C62.6979 61.7899 63.9771 60.3908 65.5877 59.4099C67.4153 58.297 69.8451 57.9666 74.7046 57.3059L144.011 47.8829C150.302 47.0276 153.447 46.5999 155.892 47.5029C158.037 48.2956 159.828 49.7672 160.96 51.6685C162.25 53.8344 162.25 56.8472 162.25 62.8727V193.127C162.25 199.153 162.25 202.166 160.96 204.331C159.828 206.233 158.037 207.704 155.892 208.497C153.447 209.4 150.302 208.972 144.011 208.117L74.7046 198.694C69.8452 198.033 67.4152 197.703 65.5877 196.59C63.9771 195.609 62.6979 194.21 61.9025 192.559C61 190.686 61 188.359 61 183.704V72.2957ZM135.25 116.214C135.25 114.797 135.25 114.088 135.488 113.528C135.698 113.034 136.034 112.622 136.454 112.344C136.93 112.027 137.561 111.963 138.822 111.835L144.467 111.261C145.953 111.109 146.695 111.034 147.269 111.311C147.773 111.555 148.189 111.981 148.451 112.52C148.75 113.134 148.75 113.969 148.75 115.639V140.361C148.75 142.031 148.75 142.866 148.451 143.48C148.189 144.019 147.773 144.445 147.269 144.689C146.695 144.966 145.953 144.891 144.467 144.739L138.822 144.165C137.561 144.037 136.93 143.973 136.454 143.656C136.034 143.378 135.698 142.966 135.488 142.472C135.25 141.912 135.25 141.203 135.25 139.786V116.214ZM181.3 63.875H172.375V195.5H181.3C186.445 195.5 189.018 195.5 190.983 194.496C192.712 193.612 194.118 192.203 194.999 190.469C196 188.498 196 185.918 196 180.758V78.617C196 73.4568 196 70.8767 194.999 68.9058C194.118 67.1721 192.712 65.7626 190.983 64.8792C189.018 63.875 186.445 63.875 181.3 63.875Z" fill="url(#linearGradient)"/>
<linearGradient id="linearGradient" x1="19.2141" y1="159.034" x2="185.502" y2="91.0562" gradientUnits="userSpaceOnUse">
<stop stop-color="#4B2EFB"/>
<stop offset="1" stop-color="#E65FFC"/>
</linearGradient>
</svg>