<svg width="256" height="256" title="Looker Studio" viewBox="0 0 256 256" fill="none" xmlns="http://www.w3.org/2000/svg" id="lookerstudio">
<style>
#lookerstudio {
    rect {fill: #15191C}

    @media (prefers-color-scheme: light) {
        rect {fill: #F4F2ED}
    }
}
</style>
<rect width="256" height="256" rx="40" fill="#15191C"/>
<path d="M127.413 40C118.586 40 111.972 46.6068 111.972 55.4251C111.972 58.3645 112.71 61.304 114.915 64.2434L121.528 57.6367V55.4345C121.528 51.7578 124.47 48.8277 128.142 48.8277C131.813 48.8277 134.755 51.7671 134.755 55.4345C134.755 59.1017 131.813 62.0412 128.142 62.0412H125.937L119.324 67.9201C126.675 72.3245 136.241 70.8595 140.65 63.5156C145.059 56.1716 143.592 46.6161 136.241 42.2116C134.036 40.7466 131.094 40.0093 127.413 40.0093V40Z" fill="#AECBFA"/>
<path d="M121.528 84.8104C121.528 79.6686 120.061 74.5269 117.119 70.1224L108.291 78.9407C109.029 81.1432 109.758 82.6172 109.758 84.8197C109.758 88.4963 108.291 91.4262 106.077 93.638L110.486 105.396C117.838 100.991 121.518 92.9101 121.518 84.8291L121.528 84.8104Z" fill="#5E97F6"/>
<path d="M97.9974 97.2959C91.3835 97.2959 85.4984 92.1541 85.4984 85.5378C85.4984 78.922 90.6455 73.0524 97.2687 73.0524C99.4729 73.0524 102.416 73.7896 104.62 75.2548L113.447 67.1735C108.3 62.769 103.153 60.5668 97.2687 60.5668C84.0322 60.5668 73 71.5873 73 84.8104C73 98.0332 83.2942 109.053 97.2687 109.053C98.7349 109.053 100.949 109.053 102.416 108.316L98.0067 97.2959H97.9974Z" fill="#5E97F6"/>
<path d="M128.151 106.842C123.004 106.842 117.857 107.579 112.71 109.044L119.323 125.207C122.266 125.207 125.208 124.469 128.151 124.469C148.739 124.469 164.918 141.369 164.918 161.198C164.918 181.028 148.001 197.928 128.151 197.928C108.301 197.928 91.3835 181.028 91.3835 161.198C91.3835 147.238 98.7354 134.753 111.234 128.874L104.62 112.711C77.4095 125.943 66.3866 158.996 79.6138 185.441C92.8502 212.624 125.937 223.636 152.41 210.413C179.621 197.19 190.644 164.138 177.407 137.692C167.851 119.328 148.73 106.842 128.141 106.842H128.151Z" fill="#4285F4"/>
</svg>