<svg width="256" height="256" title="Lubuntu" viewBox="0 0 256 256" fill="none" xmlns="http://www.w3.org/2000/svg" id="lubuntu">
<style>
#lubuntu {
    rect {fill: #15191C}

    @media (prefers-color-scheme: light) {
        rect {fill: #F4F2ED}
    }
}
</style>
<rect width="256" height="256" rx="40" fill="#15191C"/>
<path d="M211 128.503C211 82.941 174.063 46 128.498 46C82.936 46 46 82.941 46 128.503C46 174.065 82.936 211 128.498 211C174.063 211 211 174.065 211 128.503Z" fill="#0068C8"/>
<path d="M123.576 114.238C120.643 111.06 118.71 106.974 118.114 102.692C117.518 98.4097 118.261 93.9513 120.214 90.0937C122.167 86.2361 125.321 82.9965 129.127 80.9397C132.932 78.8829 137.372 78.018 141.672 78.4959C148.588 79.2645 155.002 83.6357 158.243 89.789L197.208 95.1593H152.798C150.027 91.6156 145.842 89.209 141.383 88.5959C138.199 88.158 134.896 88.618 131.953 89.9089C129.011 91.1999 126.436 93.3182 124.604 95.9567C122.772 98.5952 121.687 101.746 121.507 104.952C121.326 108.159 122.051 111.411 123.576 114.238Z" fill="white"/>
<path d="M129.054 128.807L69.4134 85.9585C66.5561 91.5971 65.4253 98.0948 66.2098 104.366C66.9943 110.638 69.6911 116.657 73.8495 121.419C79.3033 127.665 87.271 131.654 95.5429 132.28C91.638 131.019 88.061 128.759 85.2476 125.773C82.4342 122.788 80.3903 119.085 79.3648 115.115C78.1903 110.567 78.3637 105.68 79.8577 101.226L129.054 128.807Z" fill="white"/>
<path d="M125.744 140.382L73.3402 125.647C72.9178 130.545 73.8796 135.554 76.0857 139.948C78.292 144.342 81.736 148.107 85.9178 150.696C92.1213 154.538 99.933 155.686 106.981 153.793C99.9203 153.84 92.9251 150.335 88.7402 144.652C86.3776 141.444 84.8924 137.597 84.4867 133.634L125.744 140.382Z" fill="white"/>
<path d="M149.643 107.496C148.669 109.515 147.992 111.677 147.64 113.891C146.549 120.757 148.591 127.693 150.626 134.341C152.661 140.99 154.735 147.908 153.709 154.785C152.942 159.921 150.436 164.728 146.928 168.559C143.42 172.391 138.943 175.272 134.132 177.234C126.206 180.465 117.291 181.225 108.932 179.38V202.238L115.806 185.921C124.714 187.953 134.252 187.131 142.68 183.605C148.717 181.08 154.225 177.149 158.196 171.952C162.167 166.754 164.536 160.26 164.368 153.723C164.166 145.864 160.452 138.581 156.858 131.589C153.263 124.597 149.621 117.257 149.581 109.397C149.576 108.762 149.598 108.128 149.643 107.496Z" fill="white"/>
</svg>