<svg width="256" height="256" title="Lumo" viewBox="0 0 256 256" fill="none" xmlns="http://www.w3.org/2000/svg" id="lumo">
<style>
#lumo {
    rect {fill: #15191C}

    @media (prefers-color-scheme: light) {
        rect {fill: #F4F2ED}
    }
}
</style>
<rect width="256" height="256" rx="40" fill="#15191C"/>
<path d="M156.318 71.8562L176.62 58.8175C183.659 54.2965 193.001 58.6584 194.068 66.9515L198.982 105.216L156.309 71.8562H156.318Z" fill="#6D4AFF"/>
<path d="M101.207 71.8562L80.9047 58.8175C73.8657 54.2965 64.5243 58.6584 63.4572 66.9515L58.5431 105.216L101.216 71.8562H101.207Z" fill="#6D4AFF"/>
<path d="M75.3026 74.1962L85.1588 80.533L69.0874 91.3347L71.0344 76.1805C71.2965 74.1494 73.5804 73.0917 75.2933 74.1962H75.3026Z" fill="#4A2DC5"/>
<path d="M180.699 74.1962L170.843 80.533L186.914 91.3347L184.967 76.1805C184.705 74.1494 182.421 73.0917 180.709 74.1962H180.699Z" fill="#4A2DC5"/>
<path d="M213 145.315C213 184.366 166.658 198.284 128 198.284C94.0224 198.284 43 184.366 43 145.315C43 106.264 81.0587 66.7921 128 66.7921C174.942 66.7921 213 106.264 213 145.315Z" fill="#6D4AFF"/>
<path d="M169.676 158.051C183.731 151.989 190.764 136.962 185.384 124.487C180.004 112.013 164.248 106.814 150.193 112.876C136.137 118.938 129.105 133.965 134.485 146.439C139.865 158.914 155.621 164.113 169.676 158.051Z" fill="white"/>
<path d="M133.657 130.938C136.456 116.336 152.368 106.779 166.717 109.007C182.264 111.094 192.757 126.829 185.718 141.515C187.441 134.879 186.552 127.671 182.611 122.102C169.9 104.411 141.079 111.703 133.657 130.938Z" fill="#4129A3"/>
<path d="M106.364 146.432C111.744 133.957 104.711 118.93 90.656 112.868C76.6004 106.806 60.8448 112.005 55.4646 124.479C50.0844 136.954 57.1171 151.981 71.1724 158.043C85.2279 164.105 100.984 158.906 106.364 146.432Z" fill="white"/>
<path d="M167.98 150.102C173.103 150.102 177.256 143.335 177.256 134.986C177.256 126.637 173.103 119.869 167.98 119.869C162.857 119.869 158.704 126.637 158.704 134.986C158.704 143.335 162.857 150.102 167.98 150.102Z" fill="#4129A3"/>
<path d="M89.4187 151.267C94.5417 151.267 98.6948 144.499 98.6948 136.15C98.6948 127.801 94.5417 121.033 89.4187 121.033C84.2956 121.033 80.1428 127.801 80.1428 136.15C80.1428 144.499 84.2956 151.267 89.4187 151.267Z" fill="#4129A3"/>
<path d="M107.195 130.938C99.7721 111.703 70.9517 104.411 58.2407 122.102C54.3094 127.662 53.4108 134.879 55.1331 141.515C48.0849 126.81 58.5776 111.094 74.1343 109.007C88.4835 106.779 104.405 116.336 107.195 130.938Z" fill="#4129A3"/>
<path d="M111.919 157.465C115.025 157.465 117.532 159.982 117.532 163.078" stroke="white" stroke-width="2" stroke-linecap="round"/>
<path d="M123.152 157.465C120.046 157.465 117.539 159.982 117.539 163.078" stroke="white" stroke-width="2" stroke-linecap="round"/>
<path opacity="0.7" d="M96.0085 131.648C97.942 131.648 99.5093 130.081 99.5093 128.147C99.5093 126.214 97.942 124.647 96.0085 124.647C94.0753 124.647 92.5081 126.214 92.5081 128.147C92.5081 130.081 94.0753 131.648 96.0085 131.648Z" fill="white"/>
<path opacity="0.7" d="M174.569 130.484C176.503 130.484 178.07 128.916 178.07 126.983C178.07 125.05 176.503 123.482 174.569 123.482C172.636 123.482 171.069 125.05 171.069 126.983C171.069 128.916 172.636 130.484 174.569 130.484Z" fill="white"/>
</svg>