<svg width="256" height="256" title="Lynx.js" viewBox="0 0 256 256" fill="none" xmlns="http://www.w3.org/2000/svg" id="lynxjs">
<style>
#lynxjs {
    rect {fill: #15191C}
    path {fill: white}

    @media (prefers-color-scheme: light) {
        rect {fill: #F4F2ED}
        path {fill: black}
    }
}
</style>
<rect width="256" height="256" rx="40" fill="#15191C"/>
<path fill-rule="evenodd" clip-rule="evenodd" d="M89.0408 80.8394L66.6413 96.2321C64.207 97.9049 62.5216 100.419 61.9296 103.259L59.7396 113.768C59.6235 114.325 59.366 114.845 58.9905 115.281L48.8263 128.574C47.4578 130.162 47.4908 134.382 51.2391 137.084C52.6764 138.334 54.5982 141.136 56.7841 144.323C61.4122 151.071 67.2245 159.546 72.1307 158.665C79.0733 156.232 87.5717 155.453 94.0966 158.665C106.78 169.59 103.666 179.662 99.2012 194.103C97.4046 199.914 95.3892 206.432 94.0966 213.998C100.189 191.878 113.888 166.187 138.589 157.47C134.138 153.843 125.056 150.474 117.019 149.663C117.019 149.663 141.711 128.574 172.165 118.883C150.905 68.4181 115.812 44.3014 115.812 44.3014C114.024 42.0949 110.413 42.8188 109.668 45.5331C109.069 53.5111 108.077 58.936 106.439 64.0498L94.0966 49.8417C92.8073 48.2912 90.2299 49.1865 90.2428 51.1804C92.3325 62.7699 92.0392 69.2752 89.0408 80.8394ZM97.7287 79.78L97.8024 79.7753C97.9637 79.765 98.1223 79.744 98.2775 79.7131L97.7287 79.78ZM114.427 53.7589C122.885 68.3391 126.717 76.6221 128.017 92.0804C119.02 86.9817 115.099 85.6841 108.483 85.7163C112.343 74.0077 113.522 66.9573 114.427 53.7589Z" fill="white"/>
<path d="M168.79 162.046C134.339 169.91 114.769 181.753 99.8018 214C126.669 169.031 208 177.073 208 177.073C206.481 169.728 190.31 155.72 179.675 147.128C179.675 147.128 188.255 136.605 207.223 131.278C207.223 131.278 170.755 133.387 149.524 144.822C156.402 148.443 165.212 154.555 168.79 162.046Z" fill="white"/>
</svg>