<svg width="256" height="256" title="macOS" viewBox="0 0 256 256" fill="none" xmlns="http://www.w3.org/2000/svg" id="macos">
<style>
#macos {
    rect {fill: #15191C}

    @media (prefers-color-scheme: light) {
        rect {fill: #F4F2ED}
    }
}
</style>
<rect width="256" height="256" rx="40" fill="#15191C"/>
<path fill-rule="evenodd" clip-rule="evenodd" d="M134.647 168.799C114.294 169.591 92.3599 165.76 73.8611 156.509L77.6926 150.43C95.6637 158.887 116.278 161.796 134.647 161.002C134.647 161.662 135.436 148.58 136.626 141.444H109.01C111.519 112.638 120.373 87.002 133.588 65.1994H51V190.998H137.814C135.833 183.464 134.647 168.533 134.647 168.799Z" fill="#D0E9FB"/>
<path fill-rule="evenodd" clip-rule="evenodd" d="M142.969 160.472C158.034 159.018 171.247 155.054 179.308 149.902L184.066 155.979C172.964 162.456 158.562 166.683 142.969 168.269C143.366 176.066 144.556 183.464 146.537 190.998H206V65.1994H142.704C129.226 85.814 121.563 108.806 118.656 133.12H147.067C144.687 142.369 143.234 151.488 142.969 160.472ZM88.5269 84.2276H96.5884V102.86H88.5269V84.2276Z" fill="#00ACEC"/>
<path fill-rule="evenodd" clip-rule="evenodd" d="M155.653 84.2276H163.716V102.86H155.653V84.2276Z" fill="black"/>
<path fill-rule="evenodd" clip-rule="evenodd" d="M142.969 160.472C158.034 159.018 171.247 155.054 179.308 149.902L184.066 155.979C172.964 162.456 158.562 166.683 142.969 168.269C143.63 182.275 147.067 196.149 153.936 209.496L147.067 213.195C134.514 193.376 132.266 166.683 136.626 141.444H109.01C112.445 102.199 127.508 68.8986 149.444 43L155.388 48.1532C133.985 72.9963 122.223 101.935 118.656 133.12H147.067C144.687 142.369 143.234 151.488 142.969 160.472Z" fill="black"/>
<path fill-rule="evenodd" clip-rule="evenodd" d="M134.647 161.002V168.799C114.294 169.591 92.3599 165.76 73.8611 156.509L77.6926 150.43C95.6621 158.887 116.277 161.794 134.647 161.002Z" fill="#00ACEC"/>
</svg>