<svg width="256" height="256" title="Magic UI" viewBox="0 0 256 256" fill="none" xmlns="http://www.w3.org/2000/svg" id="magicui">
<style>
#magicui {
    rect {fill: #15191C}

    @media (prefers-color-scheme: light) {
        rect {fill: #F4F2ED}
    }
}
</style>
<rect width="256" height="256" rx="40" fill="#15191C"/>
<path d="M208 128C208 83.8172 172.183 48 128 48C83.8172 48 48 83.8172 48 128C48 172.183 83.8172 208 128 208C172.183 208 208 172.183 208 128Z" fill="url(#linearGradient1)"/>
<path d="M208 128C208 83.8172 172.183 48 128 48C83.8172 48 48 83.8172 48 128C48 172.183 83.8172 208 128 208C172.183 208 208 172.183 208 128Z" fill="url(#linearGradient2)"/>
<path d="M125.598 169.047C125.462 169.114 125.326 169.148 125.191 169.148C125.054 169.148 124.782 169.148 124.375 169.148C123.424 169.148 122.303 168.979 121.011 168.641C119.789 168.369 118.566 167.997 117.342 167.522C116.187 167.116 115.168 166.642 114.284 166.101C113.469 165.559 112.959 165.084 112.756 164.678C112.688 163.729 112.654 162.748 112.654 161.731C112.654 160.716 112.654 159.733 112.654 158.785C112.654 151.199 113.198 143.274 114.284 135.011C115.44 126.747 117.308 117.806 119.891 108.188C120.162 107.24 120.434 106.054 120.706 104.632C121.046 103.142 121.385 101.55 121.725 99.8565C120.094 101.143 118.158 103.209 115.916 106.054C113.673 108.831 111.295 112.15 108.781 116.011C106.335 119.804 103.854 124.004 101.34 128.609C98.8942 133.148 96.6519 137.788 94.6134 142.529C92.575 147.203 90.8083 151.842 89.3134 156.448C87.8866 161.054 87.0032 165.321 86.6634 169.25C83.4019 168.302 81.1256 167.354 79.8346 166.405C78.6116 165.457 78 164.306 78 162.951C78 161.731 78.3737 160.004 79.1211 157.769C79.8686 155.534 80.9218 152.893 82.2808 149.844C83.6398 146.796 85.3045 143.409 87.275 139.684C89.2455 135.891 91.4199 131.827 93.7981 127.492C96.516 122.547 99.166 117.908 101.748 113.573C104.398 109.238 106.98 105.309 109.494 101.787C112.008 98.2647 114.454 95.2167 116.833 92.6429C119.279 90.069 121.691 88.1047 124.069 86.75C125.021 86.75 126.278 86.9871 127.841 87.4612C129.471 87.9354 131.034 88.5111 132.529 89.1884C134.092 89.8657 135.451 90.577 136.606 91.3221C137.829 91.9994 138.508 92.5751 138.644 93.0492C137.693 94.9458 136.572 97.7906 135.281 101.584C133.99 105.377 132.665 109.678 131.306 114.487C130.015 119.296 128.757 124.41 127.534 129.829C126.379 135.18 125.462 140.327 124.782 145.272C126.346 141.547 128.146 137.686 130.184 133.689C132.291 129.626 134.499 125.629 136.809 121.701C139.12 117.704 141.464 113.844 143.843 110.118C146.289 106.393 148.667 103.006 150.977 99.9581C153.287 96.8424 155.428 94.133 157.398 91.8301C159.436 89.5271 161.237 87.8337 162.8 86.75C163.751 86.75 165.008 86.9871 166.571 87.4612C168.202 87.9354 169.765 88.5111 171.259 89.1884C172.822 89.8657 174.181 90.577 175.336 91.3221C176.559 91.9994 177.239 92.5751 177.375 93.0492C175.201 96.9101 173.298 101.618 171.667 107.172C170.036 112.726 168.644 118.551 167.489 124.647C166.401 130.743 165.552 136.806 164.941 142.834C164.397 148.794 164.125 154.146 164.125 158.887C164.125 160.444 164.125 162.07 164.125 163.764C164.125 165.457 164.193 167.218 164.329 169.047C163.378 169.047 162.223 168.911 160.864 168.641C159.573 168.437 158.281 168.132 156.991 167.726C155.767 167.319 154.646 166.846 153.627 166.304C152.608 165.829 151.894 165.287 151.486 164.678C151.419 163.729 151.384 162.748 151.384 161.731C151.384 160.716 151.384 159.733 151.384 158.785C151.384 151.199 151.928 143.274 153.016 135.011C154.171 126.747 156.039 117.806 158.621 108.188C158.893 107.24 159.199 105.953 159.539 104.327C159.878 102.701 160.218 101.008 160.557 99.2469C158.655 100.195 156.481 102.024 154.034 104.733C151.656 107.375 149.21 110.626 146.696 114.487C144.25 118.28 141.804 122.514 139.357 127.187C136.979 131.861 134.805 136.636 132.834 141.513C130.932 146.322 129.301 151.131 127.942 155.94C126.651 160.682 125.87 165.051 125.598 169.047Z" fill="white"/>
<linearGradient id="linearGradient1" x1="128" y1="48" x2="128" y2="208" gradientUnits="userSpaceOnUse">
<stop stop-color="#EF786F"/>
<stop offset="1" stop-color="#D8595E"/>
</linearGradient>
<linearGradient id="linearGradient2" x1="96.75" y1="48" x2="195.5" y2="208" gradientUnits="userSpaceOnUse">
<stop stop-color="#9E7AFF"/>
<stop offset="0.333333" stop-color="#FE8BBB"/>
<stop offset="0.666667" stop-color="#FFBD7A"/>
<stop offset="1" stop-color="#F8EAC3"/>
</linearGradient>
</svg>