<svg width="256" height="256" title="Magisk" viewBox="0 0 256 256" fill="none" xmlns="http://www.w3.org/2000/svg" id="magisk">
<style>
#magisk {
    rect {fill: #15191C}

    @media (prefers-color-scheme: light) {
        rect {fill: #F4F2ED}
    }
}
</style>
<rect width="256" height="256" rx="40" fill="#15191C"/>
<path d="M126.536 46H129.548L133.083 46.1308L137.405 46.5234L142.905 47.3085L147.357 48.2244L151.024 49.1404L155.607 50.5797L159.405 52.019L163.333 53.7201L168.31 56.2062L170.536 57.5147L173.679 59.4774L175.774 60.9167L178.262 62.7486L180.095 64.1879L181.536 65.3656L183.369 66.9358L185.464 68.8985L187.167 70.4687L188.083 71.5155L189.393 72.8239L190.31 73.8707L191.881 75.7026L193.583 77.7962L195.155 79.8898L196.726 82.1142L198.167 84.3386L199.214 86.0396L200.524 88.2641L202.095 91.2736L203.143 93.3672L204.19 95.5916L205.631 99.1245L206.81 102.396L208.119 106.714L209.298 111.686L210.083 116.135L210.607 120.322L210.869 123.593L211 127.126V130.397L210.869 133.669L210.345 138.902L209.56 144.136L208.381 149.37L207.071 153.819L205.762 157.614L204.19 161.408L202.75 164.549L201.048 167.951L198.952 171.484L196.988 174.624L195.548 176.587L194.238 178.419L192.536 180.512L191.357 181.952L190.179 183.26L189.262 184.307L187.69 186.008L184.94 188.756L183.893 189.672L182.583 190.849L181.143 192.027L178.917 193.859L177.083 195.167L175.119 196.607L171.845 198.7L168.964 200.401L165.298 202.364L161.107 204.327L156.393 206.159L152.464 207.467L148.012 208.645L144.607 209.43L139.762 210.215L135.048 210.738L131.25 211H126.405L122.214 210.738L118.155 210.346L112.917 209.561L108.857 208.645L104.929 207.598L100.083 206.028L96.1548 204.458L93.0119 203.018L90.7857 201.971L87.9048 200.401L85.0238 198.7L81.0952 196.083L78.6071 194.251L76.6429 192.681L75.2024 191.504L73.369 189.933L71.2738 187.971L67.7381 184.438L66.8214 183.391L65.25 181.559L63.8095 179.858L62.2381 177.764L60.5357 175.409L59.2262 173.446L57.6548 170.96L56.0833 168.213L54.5119 165.203L52.9405 161.932L51.2381 157.745L50.3214 155.128L49.4048 152.38L48.2262 148.062L47.3095 143.744L46.6548 139.557L46.131 134.715L46 132.622V124.64L46.3929 119.668L46.9167 115.742L47.5714 111.948L48.619 107.499L49.9286 103.05L51.1071 99.6479L52.5476 96.115L53.9881 92.9746L56.0833 88.7875L58.1786 85.2546L59.619 83.0301L61.3214 80.544L63.1548 78.0579L64.9881 75.8335L66.4286 74.1324L66.9524 73.4782H67.2143L67.4762 72.9548L69.4405 70.8612L71.9286 68.3751L72.9762 67.4592L74.4167 66.1507L75.8571 64.973L78.0833 63.1412L79.5238 62.0944L81.75 60.5242L84.1071 58.954L86.8571 57.253L90.3929 55.2902L93.5357 53.7201L98.1191 51.7573L102.048 50.318L106.369 49.0095L111.214 47.8319L115.536 47.0468L119.595 46.5234L123.786 46.1308L126.536 46Z" fill="#10A08A"/>
<path d="M119.988 131.444H122.476L124.44 131.967L126.405 133.014L127.845 134.061L128.238 134.454L128.893 134.323L129.94 133.407L131.774 132.36L133.476 131.706L134.524 131.444H136.357L138.321 131.967L139.893 132.622L141.595 133.669L142.905 134.715L144.214 135.893L146.048 137.725L147.226 139.164L148.798 140.865L149.976 142.305L152.464 144.791L154.429 146.23L156.524 147.277L158.619 147.931L162.286 148.585H166.083L167.917 148.193L170.012 147.408L171.976 146.361L174.202 144.791L175.774 143.351L176.821 142.435L178.786 140.342L180.226 138.51L181.274 137.201L182.583 135.37L183.107 134.977L183.238 135.37L182.452 137.463L181.012 140.342L179.31 143.09L177.607 145.314L176.429 146.753L174.464 148.847L173.155 150.025L171.452 151.333L169.619 152.511L167.524 153.688L164.25 154.997L161.631 155.651L159.798 155.913L158.095 156.044H155.869L153.25 155.651L150.5 154.735L148.274 153.557L146.833 152.511L145.393 151.333L144.738 150.81V150.548H144.476V150.286L143.952 150.025V149.763H143.69L142.774 148.716L141.595 147.538L140.679 146.492L138.845 144.66L136.881 143.22L134.786 142.174L132.69 141.65L131.25 141.389L130.464 140.865L129.679 139.949L129.024 138.51L128.5 136.416V136.155H128.238L128.107 137.594L127.452 139.426L126.667 140.603L126.012 141.127L124.964 141.519L122.738 141.912L121.036 142.566L119.464 143.482L117.631 145.052L115.012 147.669L114.095 148.716L111.345 151.464L109.643 152.772L107.548 154.081L105.452 154.997L103.095 155.651L101.393 155.913H97.3333L94.9762 155.52L92.3571 154.866L89.7381 153.819L87.5119 152.642L85.9405 151.595L83.8452 150.025L82.9286 149.109L82.6667 148.978V148.716L82.1429 148.454L81.0952 147.408L80.1786 146.361L78.869 144.791L77.2976 142.566L76.119 140.603L74.5476 137.594L73.7619 135.762V134.977L74.2857 135.239L75.5952 137.071L76.9048 138.772L78.4762 140.603L79.9167 142.174L81.4881 143.744L83.3214 145.183L84.631 146.099L86.4643 147.146L88.2976 147.931L90.131 148.454L91.0476 148.585H93.7976L96.4167 148.193L99.0357 147.669L101.131 146.884L103.095 145.707L104.798 144.267L105.452 143.744L106.369 142.697L107.417 141.65L108.333 140.603L109.774 138.902L111.083 137.463L112 136.416L113.44 134.977L115.143 133.669L117.107 132.491L118.94 131.706L119.988 131.444Z" fill="#232324"/>
<path d="M121.821 147.669L122.476 148.324L123.917 150.025L124.964 150.81L126.536 151.726L127.845 152.118H129.548L131.381 151.464L133.083 150.286L134.262 149.109L135.048 148.062H135.31L135.179 149.239L134.786 153.165V158.268L135.31 164.941L135.44 168.605L135.179 172.792L134.786 176.063L134 180.381L132.952 185.092L131.905 189.148L130.333 194.382L128.893 198.7L127.452 202.495H126.929L125.75 197.784L124.702 193.466L123.524 187.971L122.345 181.036L121.69 175.54L121.429 172.792L121.298 168.605L121.429 165.334L121.821 160.492L121.952 157.745V149.763L121.821 147.669Z" fill="#232324"/>
<path d="M175.512 104.62L176.036 104.751L176.298 106.059L176.429 108.022V114.826L176.167 118.359L175.512 122.808L174.857 125.948L174.071 128.958L172.762 132.622L171.452 135.37L170.274 137.201L169.226 138.641L168.048 139.949L166.738 141.258L164.905 142.566L162.81 143.613L161.893 143.875L160.976 143.744L160.06 142.959L159.143 141.389L158.488 139.818L157.179 137.332L156.131 135.762L155.083 134.454L153.905 133.145L152.071 131.706L150.5 130.528L146.048 127.257L143.821 125.556L141.464 123.855L139.369 122.416L138.976 122.023L139.107 121.761L140.024 122.154L143.952 124.247L146.179 125.033L148.536 125.687L150.893 126.079L152.595 126.21H154.167L156.786 125.948L159.143 125.294L161.107 124.509L163.333 123.331L165.56 121.63L167.131 120.191L167.262 119.929H167.524L167.786 119.406L169.226 117.574L170.667 115.481L172.238 112.733L173.81 109.2L174.988 106.19L175.381 104.751L175.512 104.62Z" fill="#F7ABBD"/>
<path d="M80.9643 104.489L81.4881 105.013L82.9286 108.938L84.1071 111.686L85.5476 114.565L86.8571 116.658L88.4286 118.752L90 120.584L91.5714 122.023L94.0595 123.724L96.1548 124.771L97.8571 125.425L99.9524 125.948L102.048 126.21H104.667L107.548 125.818L111.476 124.771L113.964 123.724L116.845 122.154L117.631 121.761L117.893 121.892L115.929 123.462L113.833 124.902L112.131 126.21L109.774 127.911L108.071 129.22L104.405 131.967L102.702 133.538L101.393 134.846L99.9524 136.809L98.6429 139.164L97.5952 141.519L96.5476 143.22L95.8929 143.744L94.7143 143.875L92.3571 142.828L90.9167 141.912L89.4762 140.734L88.2976 139.557L86.8571 137.725L85.6786 135.893L84.631 133.93L83.5833 131.444L82.5357 128.304L81.75 125.294L81.0952 121.892L80.5714 117.836L80.3095 112.994V109.723L80.5714 105.667L80.7024 104.751L80.9643 104.489Z" fill="#F7ABBD"/>
<path d="M103.881 66.8049H105.19L106.369 67.59L107.286 68.7676L108.333 70.7304L109.25 73.2165L110.167 76.3569L110.952 79.7589L111.738 84.3386L112.524 91.797L113.31 95.0682L114.619 98.8628L116.452 103.181L118.548 107.761L119.464 109.723V110.247L118.81 109.985L117.5 108.676L116.452 107.761L114.488 105.929L113.571 105.013L112.655 103.966L111.345 102.527L110.167 101.087L108.464 98.9937L106.631 96.5075L105.321 94.6757L103.488 92.0587L102.048 89.9651L99.9524 86.8247L96.9405 82.3759L92.3571 75.8335L91.9643 75.0484L92.0952 74.2633L93.1429 72.8239L94.7143 71.3846L96.0238 70.4687L98.381 69.0293L100.476 67.9826L102.44 67.1975L103.881 66.8049Z" fill="#FDFDFD"/>
<path d="M151.548 66.8049H152.857L155.083 67.4592L157.44 68.5059L159.536 69.6836L160.976 70.5995L162.679 71.908L164.25 73.4782L164.905 74.6558L164.774 75.4409L163.071 77.7962L161.369 80.2823L160.06 82.1142L154.56 90.2268L153.512 91.797L150.369 96.2458L148.798 98.3394L147.357 100.171L146.179 101.611L145 102.919L144.083 103.966L143.69 104.489H143.429L143.167 105.013L140.548 107.63L139.5 108.546L138.321 109.723L137.667 110.247H137.274L137.405 109.462L138.452 107.368L139.762 104.62L141.464 100.695L142.512 98.0777L143.69 94.414L144.345 91.4044L144.607 88.6566L145.131 83.8152L145.917 79.3664L146.702 76.0952L147.75 72.5623L148.929 69.8144L150.107 67.9826L151.286 66.9358L151.548 66.8049Z" fill="#FDFDFD"/>
<path d="M138.19 63.272H140.81L143.952 64.0571L147.357 65.1039L147.619 65.2347L147.488 65.7581L146.048 66.8049L144.738 67.9826L143.298 69.4219L141.857 71.3846L140.81 73.0856L139.5 76.3569L138.976 78.3196L138.714 80.0206V83.2918L138.583 86.6939L138.321 89.0492L137.536 92.9746L136.619 96.5075L135.44 100.564L133.738 106.975L132.69 111.686L131.905 116.004L131.643 117.705L131.381 120.191L130.988 126.734L130.464 126.864L130.202 126.341L129.94 123.724L129.679 115.219L129.548 101.087L129.286 88.6566L129.155 85.1237V77.1419L129.81 74.1324L130.595 72.0389L131.643 69.9453L132.821 68.1134L134.131 66.4124L135.31 65.1039L136.357 64.1879L137.405 63.5337L138.19 63.272Z" fill="#FDA327"/>
<path d="M115.798 63.272H118.548L120.381 64.1879L122.083 65.7581L123.393 67.3283L124.702 69.1602L125.488 70.4687L126.536 72.9548L127.321 75.7026L127.714 78.3196V80.9366L127.452 85.6471L127.321 91.797L127.06 114.565L126.798 123.462L126.667 126.21L126.274 126.603L125.75 126.472L125.357 120.06L124.964 117.312L124.702 115.219L124.31 112.602L123.917 111.032L123.524 109.069L123 106.845L121.952 102.788L120.905 99.1245L119.726 94.9373L119.202 92.9746L118.81 90.881L118.417 88.6566L118.155 86.8247L118.024 79.4972L117.369 76.4877L116.321 73.7399L115.274 71.7772L114.226 70.3378L113.31 69.291V69.0293H113.048L112.131 67.9826L110.429 66.5432L109.25 65.7581L109.119 65.3656L109.774 64.973L113.44 63.7954L115.798 63.272Z" fill="#FCA227"/>
<path d="M174.857 94.2831L175.25 94.414L175.119 95.7224L174.202 100.04L173.417 103.05L172.369 105.929L171.19 108.676L169.226 112.471L167.524 114.957L165.821 116.92L163.988 118.752L162.155 120.06L160.321 121.107L157.702 122.154L155.476 122.677L154.56 122.808H150.762L148.143 122.416L145.524 121.63L143.429 120.584L141.857 119.406L140.94 118.49L140.155 117.443L139.893 116.658V115.742L140.548 114.172L141.464 112.994L142.381 112.079L143.821 111.163L146.048 110.116L148.405 109.331L154.56 107.761L157.31 107.106L160.452 106.19L163.333 105.144L166.607 103.573L168.964 102.003L170.798 100.433L172.369 98.732L173.548 96.9001L174.726 94.414L174.857 94.2831Z" fill="#273097"/>
<path d="M81.619 94.2831L82.2738 94.9373L83.3214 97.0309L83.9762 98.0777L85.1548 99.517L86.2024 100.695L87.25 101.48V101.741L87.7738 102.003L89.7381 103.312L92.4881 104.751L95.8929 106.059L99.4286 107.106L107.286 109.069L109.905 109.854L112.393 110.901L114.095 111.948L115.405 113.125L116.19 114.172L116.845 115.611V117.051L116.06 118.359L114.488 119.929L112.786 120.976L110.821 121.761L109.643 122.154L107.286 122.677L106.107 122.808H102.179L99.9524 122.416L97.8571 121.761L95.7619 120.715L93.9286 119.537L92.4881 118.359L90.131 116.004L88.9524 114.434L87.6429 112.471L86.4643 110.377L85.2857 107.891L84.5 106.19L83.5833 103.704L82.6667 100.433L82.2738 98.8628L81.881 96.7692L81.4881 95.199L81.619 94.2831Z" fill="#273097"/>
<path d="M119.464 148.193L119.726 148.324L119.595 149.239L118.81 151.987L117.762 155.913L117.107 159.184L116.583 163.24L116.452 165.072V169.914L116.845 173.839L117.5 178.157L118.417 183.391L118.679 184.699V185.746L118.155 185.877L117.107 185.354L115.667 184.307L114.095 182.868L113.048 181.952L110.167 179.073L109.25 178.026L107.286 175.933L105.976 174.493L104.798 173.054L103.226 171.222L102.048 169.783L100.345 167.689L98.7738 165.596L96.9405 163.109L95.1071 160.362L93.7976 158.53L93.6667 157.875L94.5833 158.399L95.7619 159.315L98.25 160.623L100.476 161.278L101.393 161.408H102.571L104.143 161.147L106.107 160.362L107.81 159.315L109.25 158.137L110.167 157.221L111.214 156.305L112.131 155.389L113.179 154.473L115.012 152.642L115.929 151.595L118.94 148.585L119.464 148.193Z" fill="#FDFCFD"/>
<path d="M136.881 147.538L137.405 147.669L141.988 152.249L142.905 153.296L144.214 154.473V154.735L144.738 154.997L145.917 156.174L146.964 157.09L148.274 158.268L150.238 159.577L152.071 160.362L153.381 160.623H155.345L157.571 160.1L159.929 159.053L161.5 158.006L162.548 157.221H162.94L162.679 157.875L161.631 159.315L160.452 161.147L158.75 163.502L157.179 165.596L155.738 167.427L153.905 169.652L152.857 170.96L149.714 174.624L148.798 175.671H148.536L148.274 176.194L146.31 178.288L145.393 179.204L144.476 180.251L142.905 181.69L141.071 183.391L139.238 184.699L138.583 185.092H137.929L137.798 184.961L137.929 183.783L139.369 175.54L139.893 171.615L140.155 168.343V164.941L139.762 160.362L139.107 156.698L137.143 148.847L136.881 148.324V147.538Z" fill="#FDFCFD"/>
<path d="M166.869 76.7494L167.393 77.0111L168.44 78.3196L169.357 79.6281L170.929 81.9833L171.845 83.5535L172.893 85.9088L173.417 87.7407V89.9651L172.631 92.3204L171.452 94.414L170.012 96.2458L168.44 97.816L166.345 99.3862L164.25 100.695L161.5 102.003L158.881 102.919L153.905 104.489L150.238 105.798L146.44 107.368L144.345 108.415L141.071 109.985L140.286 110.116L140.94 109.462L144.476 107.368L146.702 105.929L148.143 104.751L149.583 103.443L150.369 102.788L151.679 101.087H151.94L152.202 100.564L154.298 98.3394L155.738 96.7692L157.833 94.1523L159.929 91.0119L161.5 88.2641L163.071 85.2546L164.643 81.9833L166.214 78.3196L166.869 76.7494Z" fill="#FC5633"/>
<path d="M89.6071 76.7494L90.131 77.0111L90.7857 78.843L92.4881 82.7684L94.3214 86.563L95.7619 89.3109L97.3333 91.9278L98.7738 94.0214L99.8214 95.3299V95.5916H100.083L101.131 96.9001L102.179 97.9469L103.095 98.9937L104.405 100.433L105.583 101.872L107.024 103.443L108.071 104.358L109.643 105.667L111.869 107.106L115.012 109.069L116.321 109.985L115.798 110.116L114.75 109.723L111.869 108.153L109.381 106.975L108.071 106.452L104.667 105.144L95.2381 102.003L92.75 100.826L90.3929 99.3862L88.6905 98.0777L86.7262 96.2458L85.4167 94.5448L84.369 92.7129L83.5833 90.6193L83.3214 89.5726V87.7407L83.7143 86.3013L84.631 84.0769L86.2024 81.3291L87.9048 78.843L89.2143 77.1419L89.6071 76.7494Z" fill="#FC5633"/>
</svg>