<svg width="256" height="256" title="Mamba UI" viewBox="0 0 256 256" fill="none" xmlns="http://www.w3.org/2000/svg">
<rect width="256" height="256" rx="40" fill="#6D28D9"/>
<path d="M74.9695 153.491C83.6542 155.817 91.6068 158.646 101.037 160.44C100.595 173.984 101.499 187.538 103.734 200.903C92.4155 188.182 76.1502 166.326 74.9695 153.491ZM180.587 153.491C172.198 155.817 164.518 158.646 155.41 160.44C155.838 173.98 154.966 187.53 152.807 200.903C163.766 188.182 179.482 166.326 180.587 153.491ZM93.2175 55C108.667 82.7927 157.791 79.192 169.615 55C175.426 56.8948 180.748 60.0505 185.198 64.2413C184.623 88.288 169.615 96.8907 169.615 96.8907L170.133 102.475C187.238 97.5227 193.611 98.0533 192.373 68.9973C200.969 76.0527 208.746 89.444 207.943 98.0533C207.11 106.997 194.363 133.899 195.942 133.425C177.555 141.508 158.764 148.638 139.643 154.787C138.47 152.069 136.694 149.652 134.45 147.721C132.205 145.79 129.551 144.394 126.688 143.639C122.343 147.192 118.359 151.165 114.795 155.501C99.1482 149.817 85.3028 143.5 70.8322 137.361L59.4622 133.173L54.2888 119.908C47.3408 102.715 44.1828 93.1387 55.3248 78.0487C57.7508 74.7707 61.9762 67.646 65.6968 66.0853C64.9702 90.72 57.5355 102.443 85.3222 102.468L85.8395 96.8847C85.8395 96.8847 73.7755 95.3747 70.8448 64.2347L93.2175 55ZM107.037 129.686C105.655 131.543 104.795 132.01 103.419 133.874C103.765 134.802 102.041 135.036 102.383 135.965C103.597 138.962 105.553 141.603 108.067 143.638C110.376 143.176 112.57 142.26 114.522 140.943C116.474 139.625 118.144 137.933 119.436 135.964C118.059 133.033 109.817 128.208 107.037 129.686ZM144.791 129.686C142.031 131.543 138.759 134.107 135.999 135.965C136.857 137.361 141.342 140.847 142.208 142.243C144.81 143.809 144.179 145.092 147.381 143.639C149.032 142.937 150.446 141.774 151.454 140.29C152.462 138.806 153.022 137.063 153.066 135.269C151.689 133.64 150.306 131.316 148.929 129.686H144.791Z" fill="white"/>
</svg>