<svg width="256" height="256" title="ManifoldJS" viewBox="0 0 256 256" fill="none" xmlns="http://www.w3.org/2000/svg" id="manifoldjs">
<style>
#manifoldjs {
    rect {fill: #15191C}

    @media (prefers-color-scheme: light) {
        rect {fill: #F4F2ED}
    }
}
</style>
<rect width="256" height="256" rx="40" fill="#15191C"/>
<path d="M186 65.1758C186 58.7255 182.75 52.8757 177.25 49.4756L154.75 35.5256C154.7 35.4757 154.65 35.4757 154.6 35.4254C149.5 32.3752 143.3 32.1758 138.05 34.9757L90.5006 60.0251C78.5002 66.3757 71 78.726 71 92.3257V216.625C71 220.475 75.2002 222.976 81.7498 222.976C83 222.976 84.2502 222.875 85.5502 222.726C92.4502 221.776 99.3996 218.275 99.3996 213.426V100.475L114.3 109.726V203.726C114.3 207.575 118.55 210.075 125.05 210.075C126.3 210.075 127.55 209.976 128.85 209.826C135.75 208.875 142.7 205.376 142.7 200.525V68.7758L94.2502 94.3256V207.825C92.6501 207.326 90.8002 207.026 88.6498 207.026C87.4001 207.026 86.1499 207.126 84.8499 207.275C81.7503 207.725 78.6502 208.676 76.1498 210.026V92.2754C76.1498 80.6258 82.5499 69.9757 92.8999 64.5258L140.4 39.4756C144.05 37.5259 148.35 37.6755 151.9 39.8259C155.45 41.9755 157.55 45.7255 157.55 49.8754V190.776C157.55 194.625 161.75 197.126 168.3 197.126C169.55 197.126 170.8 197.026 172.1 196.876C179 195.925 185.95 192.426 185.95 187.576V65.1758H186ZM137.55 100.275V194.876C135.95 194.376 134.1 194.076 131.95 194.076C130.7 194.076 129.45 194.176 128.15 194.326C125.05 194.776 121.95 195.726 119.45 197.076V109.825L137.55 100.276V100.275ZM128.15 204.675C127.1 204.825 126.05 204.875 125.05 204.875C121.55 204.875 119.8 203.975 119.45 203.575C119.8 202.625 123.15 200.225 128.85 199.425C129.9 199.275 130.95 199.225 131.95 199.225C135.45 199.225 137.2 200.125 137.55 200.525C137.2 201.525 133.85 203.926 128.15 204.675ZM137.55 94.4752L116.95 105.325L101.95 96.0255L137.55 77.2755V94.4757L137.55 94.4752ZM85.5502 212.376C86.6 212.226 87.6498 212.175 88.6498 212.175C92.1501 212.175 93.8998 213.076 94.2502 213.475C93.8998 214.426 90.55 216.826 84.8499 217.625C83.8 217.775 82.7502 217.826 81.7503 217.826C78.2499 217.826 76.4998 216.926 76.1498 216.526C76.5002 215.576 79.8501 213.175 85.5502 212.376ZM180.85 65.1758V181.975C179.25 181.475 177.4 181.176 175.25 181.176C174 181.176 172.75 181.275 171.45 181.426C168.35 181.876 165.25 182.826 162.75 184.176V49.8256C162.75 48.5754 162.6 47.4254 162.35 46.2255L174.55 53.7755C178.5 56.2754 180.85 60.5255 180.85 65.1758ZM171.45 191.776C170.4 191.926 169.35 191.975 168.35 191.975C164.85 191.975 163.1 191.076 162.75 190.675C163.1 189.726 166.45 187.326 172.15 186.526C173.2 186.375 174.25 186.326 175.25 186.326C178.75 186.326 180.5 187.225 180.85 187.626C180.5 188.576 177.15 190.975 171.45 191.776ZM95.0498 74.3255C89.5002 76.6255 87.0501 83.3755 86.9504 83.6257C86.6 84.5758 87.1 85.6755 88.1004 86.0254C88.2999 86.0757 88.5002 86.1256 88.75 86.1256C89.5002 86.1256 90.2504 85.6256 90.5001 84.8754C90.5001 84.826 92.5001 79.4255 96.5502 77.7256C98.4001 76.9754 100.4 77.1255 102.7 78.1758C103.65 78.6254 104.75 78.2252 105.2 77.2755C105.65 76.3254 105.25 75.2257 104.3 74.7756C101 73.3255 97.9001 73.1755 95.0498 74.3255ZM145.85 52.9755C142.6 51.4257 139.5 51.2756 136.65 52.4755C131.1 54.7755 128.65 61.5255 128.55 61.7757C128.2 62.7258 128.7 63.8255 129.7 64.1754C129.9 64.2257 130.1 64.2756 130.35 64.2756C131.1 64.2756 131.85 63.7756 132.1 63.0254C132.1 62.976 134.1 57.5755 138.15 55.8756C140 55.1254 142 55.2755 144.3 56.3258C145.25 56.7754 146.35 56.3752 146.8 55.4255C147.15 54.5257 146.75 53.4256 145.85 52.9755Z" fill="#F22E2E"/>
</svg>