<svg width="256" height="256" title="Manim" viewBox="0 0 256 256" fill="none" xmlns="http://www.w3.org/2000/svg" id="manim">
<style>
#manim {
    rect {fill: #15191C}
    path.manim {fill: #ECE6E2}

    @media (prefers-color-scheme: light) {
        rect {fill: #F4F2ED}
        path.manim {fill: #212121}
    }
}
</style>
<rect width="256" height="256" rx="40" fill="#15191C"/>
<path d="M216 178.426H165.04L190.52 134.326L216 178.426Z" fill="#E07A5F"/>
<path d="M190.52 104.501H131.547V163.43H190.52V104.501Z" fill="#525893"/>
<path d="M131.134 194C147.801 194 161.313 180.498 161.313 163.843C161.313 147.188 147.801 133.686 131.134 133.686C114.467 133.686 100.955 147.188 100.955 163.843C100.955 180.498 114.467 194 131.134 194Z" fill="#87C2A5"/>
<path d="M93.7915 131.595L73.4049 83.1707C72.5694 81 72.5695 81 69.5617 81H49.8434C47.8381 81 46.3342 81 46.3342 82.8368C46.3342 84.6735 48.1723 84.6735 48.6736 84.6735C50.0103 84.6735 52.8511 85.0075 55.1907 85.8424V142.616C55.1907 144.954 55.1907 149.629 48.0052 150.297C45.9999 150.464 46 151.967 46 152.134C46 153.971 47.671 153.971 49.6763 153.971H66.0523C68.0576 153.971 69.5617 153.971 69.5617 152.134C69.5617 151.132 68.726 150.297 67.8906 150.297C59.7025 149.629 59.7025 145.121 59.7025 142.616V89.683L59.8692 89.5161L85.77 151.8C86.7726 153.637 87.4412 153.971 88.1096 153.971C89.4463 153.971 89.6134 153.136 90.282 151.8L116.35 89.5161L116.517 89.683V142.616C116.517 144.954 116.517 149.629 109.164 150.297C107.159 150.464 107.159 151.967 107.159 152.134C107.159 153.971 108.83 153.971 110.835 153.971H139.243C141.248 153.971 142.752 153.971 142.752 152.134C142.752 151.132 141.916 150.297 141.081 150.297C132.893 149.629 132.893 145.121 132.893 142.616V92.3547C132.893 90.017 132.893 85.3414 140.078 84.6735C141.248 84.6735 142.083 84.0056 142.083 82.8368C142.083 81 140.579 81 138.574 81H118.02C115.347 81 115.013 81 114.177 83.1707L93.7915 131.595ZM90.6165 133.599C91.4521 135.269 91.6192 135.436 92.9561 135.937L88.1101 147.124H87.9434L63.7134 89.1821C63.212 87.8462 62.2093 86.0094 60.8726 84.6735H70.0634L90.6165 133.599ZM120.194 84.6735H131.557C129.05 87.3452 129.05 90.1839 129.05 92.0207V142.95C129.05 144.787 129.05 147.625 131.557 150.297H117.854C120.194 147.625 120.194 144.787 120.194 142.95V84.6735Z" class="manim" fill="#ECE6E2"/>
</svg>