<svg width="256" height="256" title="Mapbox" viewBox="0 0 256 256" fill="none" xmlns="http://www.w3.org/2000/svg">
<rect width="256" height="256" rx="40" fill="#004997"/>
<path d="M128.5 51C85.6942 51 51 85.6942 51 128.5C51 171.306 85.6942 206 128.5 206C171.306 206 206 171.306 206 128.5C206 85.6942 171.306 51 128.5 51ZM165.287 147.507C138.788 174.005 91.4485 165.551 91.4485 165.551C91.4485 165.551 82.9042 118.302 109.493 91.7133C124.225 76.9819 148.637 77.589 164.066 92.934C179.495 108.279 180.025 132.769 165.287 147.507ZM137.393 96.4215L129.811 112.025L114.208 119.607L129.811 127.189L137.393 142.792L144.975 127.189L160.579 119.607L144.975 112.025L137.393 96.4215Z" fill="white"/>
</svg>