<svg width="256" height="256" title="Medium" viewBox="0 0 256 256" fill="none" xmlns="http://www.w3.org/2000/svg">
<rect width="256" height="256" rx="40" fill="black"/>
<path d="M138.89 128.273C138.89 154.934 117.424 176.548 90.9442 176.548C64.4641 176.548 43 154.94 43 128.273C43 101.606 64.4657 80 90.9442 80C117.423 80 138.89 101.612 138.89 128.273ZM191.487 128.273C191.487 153.371 180.753 173.715 167.514 173.715C154.275 173.715 143.541 153.364 143.541 128.273C143.541 103.182 154.275 82.8312 167.514 82.8312C180.753 82.8312 191.487 103.182 191.487 128.273ZM213 128.273C213 150.76 209.225 168.987 204.568 168.987C199.912 168.987 196.137 150.753 196.137 128.273C196.137 105.793 199.912 87.559 204.57 87.559C209.228 87.559 213 105.788 213 128.273Z" fill="white"/>
</svg>