<svg width="256" height="256" title="Mermaid" viewBox="0 0 256 256" fill="none" xmlns="http://www.w3.org/2000/svg">
<rect width="256" height="256" rx="40" fill="#FF3670"/>
<path d="M207.936 62.0692C190.652 61.3567 173.591 66.1628 159.22 75.7918C144.85 85.4208 133.916 99.373 128.003 115.629C122.089 99.373 111.156 85.4208 96.7855 75.7918C82.4151 66.1628 65.3533 61.3567 48.0698 62.0692C47.4973 75.8938 50.4526 89.6368 56.6572 102.004C62.8619 114.371 72.1119 124.956 83.5363 132.762C89.3991 136.792 94.1907 142.191 97.4957 148.491C100.801 154.79 102.519 161.801 102.503 168.915V193.942H153.503V168.915C153.485 161.802 155.202 154.791 158.506 148.491C161.81 142.191 166.601 136.792 172.463 132.762C183.89 124.96 193.143 114.375 199.348 102.007C205.553 89.639 208.513 75.8945 207.936 62.0692Z" fill="white"/>
</svg>