<svg width="256" height="256" title="Metasploit" viewBox="0 0 256 256" fill="none" xmlns="http://www.w3.org/2000/svg" id="metasploit">
<style>
#metasploit {
    rect {fill: #15191C}

    @media (prefers-color-scheme: light) {
        rect {fill: #F4F2ED}
    }
}
</style>
<rect width="256" height="256" rx="40" fill="#15191C"/>
<path d="M191 149.314C191.126 165.216 131.381 210.991 128.5 210.991C125.752 210.991 65.8817 165.75 66.0002 149.314V57.8972C79.8512 52.9123 101.383 45.8757 128.87 46.0017C155.506 46.1202 177.327 52.979 190.992 57.8972V149.314H191Z" fill="#0F78B9"/>
<path d="M128.878 46.0017H128.5L128.5 210.991C131.381 210.991 191.118 165.216 191 149.314L191 57.8972C177.334 52.979 155.513 46.1202 128.878 46.0017Z" fill="#2B6692"/>
<path d="M158.757 68.0299L128.507 97.1244L97.0057 68.0299L76.881 68.0003V138.774C77.0884 142.262 78.1031 149.625 79.3031 152.506C80.5919 155.595 92.3985 172.016 97.0057 175.431V99.8798L119.004 117.627V149.625H137.751V117.627L158.75 99.8798V175.431C162.394 172.705 168.179 165.705 174.149 157.81C177.978 152.743 178.949 143.107 179.245 138.803V68.0299H158.743H158.757Z" fill="white"/>
</svg>