<svg width="256" height="256" title="MGX" viewBox="0 0 256 256" fill="none" xmlns="http://www.w3.org/2000/svg" id="mgx">
<rect width="256" height="256" rx="40" fill="#F4F2ED"/>
<path d="M123.679 151.277L107.271 161.417C107.105 162.636 107.023 163.865 107.026 165.095C107.026 178.221 116.537 188.862 128.273 188.862C139.808 188.862 149.197 178.589 149.519 165.774C154.67 168.404 160.432 170.009 166.539 170.343C163.246 190.623 147.361 206 128.273 206C106.804 206 89.3838 186.533 89.3838 162.521C89.3838 148.358 95.4463 135.778 104.824 127.833L104.89 127.744L123.679 151.277Z" fill="#212121"/>
<path d="M170.867 89.1559C178.654 89.1559 187.987 91.5851 195.84 96.5994C203.849 101.692 211.102 109.993 212.637 121.816C215.407 143.009 201.925 159.233 185.717 164.214C181.776 165.398 177.703 166.09 173.592 166.276C168.971 165.693 164.522 164.149 160.533 161.74C147.207 153.773 140.443 144.179 129.753 128H125.482C135.426 142.653 150.154 163.546 171.145 166.342C157.352 166.376 140.933 161.083 128.585 144.547L127.54 143.121C123.769 138 119.916 132.94 115.982 127.944H115.871L113.668 125.002L112 122.752C100.842 107.831 85.0909 107.163 75.9471 109.982C71.4912 111.321 67.6704 114.232 65.1918 118.175C62.7131 122.119 61.7444 126.828 62.465 131.432C63.0768 136.134 65.9134 139.967 70.4853 142.876C75.1907 145.884 82.8662 145.873 89.6629 144.358L85.1354 166.599C76.2874 166.457 67.6484 163.882 60.1624 159.155C52.1532 154.074 44.8893 145.75 43.3654 133.939C40.5844 112.745 54.0776 96.5214 70.2851 91.5405C73.422 90.5711 77.015 89.8691 80.8861 89.5682C85.7828 90.0685 90.5084 91.6477 94.7242 94.1925C108.051 102.171 114.792 111.754 125.493 127.944H129.764C119.642 112.991 104.524 91.5628 82.8662 89.4457C97.0491 88.8885 114.469 93.8694 127.417 111.208L128.474 112.623C132.912 118.573 136.65 123.587 140.021 127.81H140.143L142.345 130.752L144.014 132.992C155.149 147.923 170.912 148.592 180.055 145.773C184.511 144.434 188.332 141.523 190.811 137.58C193.289 133.636 194.258 128.927 193.537 124.323C192.926 119.621 190.089 115.787 185.517 112.879C180.812 109.882 173.136 109.882 166.34 111.397L170.867 89.1559Z" fill="#212121"/>
<path d="M127.695 50C149.175 50 166.584 69.4666 166.584 93.4794C166.584 107.698 160.488 120.323 151.044 128.256L132.233 104.7L148.708 94.5157C148.863 93.3345 148.945 92.1274 148.952 90.8943C148.952 77.7791 139.43 67.1377 127.706 67.1377C116.471 67.1377 107.293 76.8654 106.504 89.1783C101.256 86.4681 95.5002 84.889 89.6065 84.5428C93.3107 64.82 108.962 50 127.695 50Z" fill="#212121"/>
</svg>