<svg width="256" height="256" title="mikroC" viewBox="0 0 256 256" fill="none" xmlns="http://www.w3.org/2000/svg">
<rect width="256" height="256" rx="40" fill="#ED1D26"/>
<path d="M147.502 51.7949H152.809L159.708 52.3248L165.811 53.1197L171.118 54.1795L176.955 56.0342L182.262 58.1538L187.303 60.8034L191.549 63.7179L194.468 66.1026L197.121 68.4872L199.774 71.6667L202.693 76.4359L204.551 81.2051L205.877 85.9744L206.939 91.8034L207.735 99.7521L208 105.051V110.615H159.973L159.708 110.35L159.443 87.2991L158.647 83.3248L157.32 80.6752L155.728 79.3504L154.136 78.8205H150.156L148.033 79.6154L147.237 79.8803L146.706 80.9402L145.645 83.3248L145.114 86.7692L144.849 90.4786V165.462L145.645 171.291L146.972 175.265L148.829 177.65L150.421 178.709L153.075 179.504H154.932L157.851 178.444L159.973 176.59L161.035 174.47L161.831 169.966L162.362 160.692L162.627 142.94L162.892 142.41H208V149.564L207.469 160.957L206.939 167.051L205.612 173.675L203.489 178.974L201.897 181.889L199.244 185.863L196.325 189.573L191.284 194.607L186.773 197.786L183.589 199.641L179.343 201.496L174.036 203.35L168.199 204.675L163.158 205.47L157.851 206H143.788L137.42 205.47L130.521 204.41L125.214 203.085L119.907 201.231L114.335 198.581L110.355 195.932L106.64 192.752L102.925 188.778L99.7413 183.744L97.3532 178.179L95.7612 172.615L94.6998 167.051L93.9038 161.222L93.3731 154.333L93.1078 139.496V132.872L93.3731 99.2222L93.9038 92.3333L94.9652 85.4444L96.5572 79.3504L98.4146 75.1111L100.803 71.4017L103.191 68.7521L105.579 66.3675L109.028 63.7179L113.539 60.8034L119.642 57.6239L124.418 55.7692L130.521 53.9145L137.95 52.5897L147.502 51.7949Z" fill="#FEFEFD"/>
<path d="M58.8789 158.838H85.1476L85.6783 160.427L86.7396 168.376L87.005 171.556L63.3897 171.821L58.6136 172.085L57.5522 172.615L57.2869 174.205L58.3483 175.265L59.675 175.53L88.0663 175.795L88.8624 177.65L90.9851 182.949L93.6385 187.983V188.513L63.9204 188.778L57.2869 189.308V190.897L58.0829 192.222L60.7363 192.752H97.3532L101.333 196.727L105.844 200.171L110.09 202.556L115.131 204.94L115.927 205.47H49.3267L49.0614 204.675V193.812L49.3267 192.487H52.2454L51.7148 191.162L49.592 189.308L48.2653 186.658L48 185.863V183.214L49.0614 180.564L51.1841 177.915L53.0415 176.325L51.7148 174.735L50.3881 173.675L48.5307 170.761L48 169.436V165.991L49.0614 163.607L51.1841 160.957L53.3068 159.632L55.6949 159.103L58.8789 158.838Z" fill="#FEFEFD"/>
<path d="M62.063 51H81.9635L86.7396 51.265L90.4544 52.0598L94.1692 53.9145L96.8226 56.2991L98.4146 58.9487L99.2106 61.5983V63.188L96.2919 65.8376L94.4345 67.9573L92.0464 71.1368L89.6584 75.3761L87.801 80.6752L87.5357 80.9402H61.267L56.4909 79.8803L53.3068 78.2906L50.6534 75.641L49.0614 72.4615L48.2653 70.0769L48 65.5727L48.5307 61.8632L49.592 58.9487L51.1841 56.2991L53.0415 54.1795L56.2255 52.3248L58.6136 51.5299L62.063 51Z" fill="#FEFEFD"/>
<path d="M49.0614 108.231L51.4494 108.496L67.1045 112.735L69.2272 113L84.3516 109.556H84.8823L85.1476 110.35V118.034L84.8823 121.744L79.5755 123.068H84.8823V136.051H49.0614V123.068H59.1443L61.7977 123.333V122.803L58.8789 122.009L49.8574 119.359L49.0614 118.829V108.231Z" fill="#FEFEFD"/>
<path d="M55.9602 83.5897H65.5124L65.7778 83.8547L66.3085 87.8291L67.3698 89.4188L68.6965 90.4786L70.2886 91.0085L74.534 91.2735H83.8209L85.4129 91.5385V95.7778L85.1476 101.872L84.8823 104.521H49.3267L49.0614 103.991V91.8034L50.3881 91.5385H54.1028L51.9801 89.9487L49.3267 87.2991L48.2653 85.4444L48 83.8547L55.9602 83.5897Z" fill="#FEFEFD"/>
<path d="M60.2056 140.821H84.8823L85.1476 143.47V154.068L84.8823 154.333H60.2056L59.9403 154.068V141.085L60.2056 140.821Z" fill="#FEFEFD"/>
<path d="M63.9204 63.9829H85.6783L89.393 64.2479L90.4544 64.7778L90.7197 66.8974L89.9237 67.6923L88.597 67.9573L84.8823 68.2222H69.4925L58.8789 67.9573L57.0216 67.1624L57.2869 65.0427L58.0829 64.5128L59.4096 64.2479L63.9204 63.9829Z" fill="#ED1D26"/>
<path d="M49.592 140.821H56.7562L57.0216 141.35L56.7562 154.333H49.3267L49.0614 153.803V141.085L49.592 140.821Z" fill="#FEFEFD"/>
</svg>