<svg width="256" height="256" title="Milligram" viewBox="0 0 256 256" fill="none" xmlns="http://www.w3.org/2000/svg" id="milligram">
<style>
#milligram {
    rect {fill: #15191C}

    @media (prefers-color-scheme: light) {
        rect {fill: #F4F2ED}
    }
}
</style>
<rect width="256" height="256" rx="40" fill="#15191C"/>
<path d="M128.5 45C87.3821 112.481 71 125.276 71 153.618C71 185.375 96.7438 211.118 128.5 211.118C160.256 211.118 186 185.375 186 153.618C186 125.028 169.367 112.357 128.5 45ZM128.5 201.677C101.905 201.677 80.3455 180.117 80.3455 153.522C80.3455 129.787 94.0651 119.071 128.5 62.5577C162.725 118.967 176.654 129.579 176.654 153.522C176.654 180.117 155.095 201.677 128.5 201.677ZM122.539 181.478C116.999 180.235 112.799 177.999 108.824 174.247C105.967 171.539 104.402 169.477 102.811 166.396C100.302 161.502 99.4324 157.576 99.631 151.985C99.7055 149.227 99.8798 147.836 100.377 145.997C101.122 143.19 102.364 140.109 103.035 139.364C103.308 139.066 103.532 138.717 103.532 138.569C103.532 138.42 103.731 138.022 103.954 137.675C104.6 136.656 104.625 135.215 104.029 134.022C102.687 131.414 100.501 130.32 97.8175 130.917C95.9541 131.339 94.9851 132.581 93.0966 136.954C90.8357 142.221 89.9166 146.097 89.6929 151.365C88.8479 170.545 102.041 187.416 120.849 191.242C122.763 191.615 123.632 191.689 124.402 191.515C128.253 190.646 129.67 186.223 127.036 183.341C126.241 182.447 125.496 182.148 122.539 181.478Z" fill="#9B4DCA"/>
</svg>