<svg width="256" height="256" title="MiniMax" viewBox="0 0 256 256" fill="none" xmlns="http://www.w3.org/2000/svg">
<rect width="256" height="256" rx="40" fill="url(#linearGradient)"/>
<path d="M156.129 64C163.595 64 169.646 69.9791 169.646 77.3515V157.983C169.698 159.218 170.228 160.385 171.124 161.238C172.02 162.091 173.213 162.564 174.451 162.556C175.688 162.562 176.879 162.089 177.774 161.236C178.669 160.383 179.198 159.217 179.25 157.983V109.788C179.259 108.044 179.612 106.318 180.289 104.709C180.967 103.101 181.954 101.641 183.196 100.414C184.438 99.1867 185.91 98.2158 187.528 97.5567C189.146 96.8975 190.878 96.5631 192.625 96.5725C194.372 96.5631 196.105 96.8978 197.723 97.5573C199.341 98.2168 200.813 99.1883 202.055 100.416C203.297 101.644 204.285 103.104 204.962 104.714C205.639 106.323 205.992 108.05 206 109.795V152.113C205.993 153.222 205.546 154.283 204.756 155.063C203.967 155.843 202.9 156.279 201.789 156.274C201.239 156.277 200.693 156.172 200.183 155.965C199.673 155.758 199.209 155.452 198.818 155.066C198.426 154.679 198.115 154.22 197.901 153.713C197.687 153.207 197.575 152.663 197.572 152.113V109.795C197.568 109.149 197.438 108.511 197.187 107.916C196.937 107.321 196.572 106.781 196.112 106.327C195.653 105.873 195.108 105.514 194.51 105.27C193.912 105.026 193.271 104.902 192.625 104.906C191.979 104.902 191.338 105.026 190.74 105.27C190.141 105.514 189.597 105.873 189.137 106.327C188.678 106.781 188.313 107.321 188.062 107.916C187.812 108.511 187.681 109.149 187.678 109.795V157.989C187.668 159.715 187.319 161.421 186.649 163.012C185.979 164.602 185.003 166.045 183.774 167.259C182.546 168.472 181.091 169.432 179.491 170.084C177.891 170.736 176.179 171.066 174.451 171.057C172.723 171.066 171.011 170.736 169.411 170.084C167.811 169.432 166.356 168.472 165.128 167.259C163.9 166.045 162.923 164.602 162.253 163.012C161.583 161.421 161.234 159.715 161.224 157.989V77.3644C161.171 76.0543 160.611 74.816 159.661 73.9101C158.712 73.0042 157.448 72.5014 156.135 72.5075C154.822 72.4997 153.558 73.0009 152.607 73.9055C151.657 74.8102 151.095 76.0478 151.04 77.3579L151.033 179.939C151.013 183.422 149.608 186.755 147.127 189.204C144.647 191.653 141.294 193.019 137.806 193C136.079 193.009 134.366 192.679 132.767 192.027C131.167 191.375 129.711 190.415 128.483 189.202C127.255 187.988 126.278 186.545 125.608 184.955C124.939 183.364 124.589 181.658 124.58 179.932V167.458C124.58 165.162 126.466 163.298 128.791 163.298C131.116 163.298 133.001 165.162 133.001 167.458V179.932C133.001 181.628 133.919 183.196 135.404 184.047C136.889 184.892 138.724 184.892 140.209 184.047C140.938 183.635 141.544 183.036 141.966 182.313C142.388 181.591 142.611 180.769 142.611 179.932V77.3515C142.611 69.9791 148.663 64 156.129 64ZM119.484 64C126.95 64 133.001 69.9791 133.001 77.3515V151.675C132.999 152.224 132.888 152.768 132.675 153.274C132.462 153.781 132.151 154.24 131.76 154.627C131.369 155.013 130.905 155.319 130.396 155.526C129.886 155.733 129.341 155.838 128.791 155.835C128.241 155.838 127.695 155.733 127.186 155.526C126.676 155.319 126.213 155.013 125.822 154.627C125.43 154.24 125.119 153.781 124.906 153.274C124.693 152.768 124.582 152.224 124.58 151.675V77.3515C124.571 76.0097 124.03 74.7262 123.074 73.7829C122.119 72.8396 120.828 72.3136 119.484 72.3205C118.141 72.3136 116.849 72.8396 115.894 73.7829C114.939 74.7262 114.397 76.0097 114.389 77.3515V167.735C114.368 171.257 112.948 174.626 110.442 177.103C107.935 179.58 104.546 180.962 101.02 180.945C97.4924 180.964 94.1019 179.583 91.5937 177.106C89.0856 174.629 87.6651 171.258 87.6446 167.735V109.795C87.6412 109.149 87.5106 108.511 87.2601 107.916C87.0097 107.321 86.6443 106.781 86.1849 106.327C85.7256 105.873 85.1811 105.514 84.5828 105.27C83.9844 105.026 83.3438 104.902 82.6975 104.906C82.0512 104.902 81.4106 105.026 80.8122 105.27C80.2139 105.514 79.6694 105.873 79.2101 106.327C78.7507 106.781 78.3853 107.321 78.1349 107.916C77.8844 108.511 77.7538 109.149 77.7504 109.795V134.305C77.7411 136.05 77.3878 137.776 76.7106 139.384C76.0334 140.993 75.0455 142.452 73.8035 143.679C72.5615 144.907 71.0896 145.878 69.4719 146.537C67.8542 147.196 66.1223 147.53 64.3752 147.521C62.6281 147.53 60.8962 147.196 59.2785 146.537C57.6608 145.878 56.1889 144.907 54.9469 143.679C53.7049 142.452 52.7171 140.993 52.0399 139.384C51.3626 137.776 51.0093 136.05 51 134.305V125.417C51 123.114 52.8858 121.25 55.2108 121.25C57.5358 121.25 59.4281 123.121 59.4281 125.417V134.305C59.4281 137.001 61.6433 139.188 64.3752 139.188C67.1071 139.188 69.3223 137.001 69.3223 134.305V109.788C69.3428 106.267 70.7624 102.897 73.2692 100.42C75.7759 97.9434 79.1648 96.5617 82.691 96.5789C86.2184 96.56 89.6089 97.941 92.1171 100.418C94.6253 102.895 96.0458 106.266 96.0663 109.788V167.735C96.0663 170.438 98.2815 172.624 101.02 172.624C103.752 172.624 105.967 170.438 105.967 167.735V77.3515C105.967 69.9791 112.018 64 119.484 64Z" fill="white"/>
<linearGradient id="linearGradient" x1="256" y1="219.354" x2="-1.60864e-05" y2="36.6462" gradientUnits="userSpaceOnUse">
<stop stop-color="#FE603C"/>
<stop offset="1" stop-color="#E2167E"/>
</linearGradient>
</svg>