<svg width="256" height="256" title="MinIO" viewBox="0 0 256 256" fill="none" xmlns="http://www.w3.org/2000/svg" id="minio">
<style>
#minio {
    rect {fill: #15191C}

    @media (prefers-color-scheme: light) {
        rect {fill: #F4F2ED}
    }
}
</style>
<rect width="256" height="256" rx="40" fill="#15191C"/>
<path d="M131.7 42.0432C127.221 41.6987 123.052 43.4438 120.017 46.2385C117.031 49.0528 115.284 52.9366 115.157 57.0381C115.03 61.1395 116.535 65.1238 119.341 68.1172L143.904 93.7118C146.137 96.104 147.806 98.9657 148.789 102.087C149.772 105.208 150.044 108.51 149.585 111.75C149.126 114.99 147.948 118.087 146.137 120.812C144.326 123.538 141.928 125.823 139.119 127.501L135.782 129.219V94.5148C121.157 102.051 108.388 112.741 98.3953 125.812C88.4029 138.884 81.4369 154.011 78 170.103V170.23L125.197 146.24V201.174L135.824 215V140.622L142.285 137.286C146.748 135.036 150.622 131.774 153.598 127.759C156.574 123.744 158.57 119.088 159.425 114.164C160.28 109.24 159.971 104.184 158.522 99.4003C157.074 94.617 154.526 90.239 151.083 86.6167L126.788 61.2044C125.82 60.1586 125.305 58.7724 125.355 57.3481C125.405 55.9239 126.016 54.5772 127.055 53.6018C128.104 52.6352 129.492 52.1213 130.918 52.1714C132.343 52.2214 133.692 52.8315 134.67 53.8692L138.035 57.3746L137.991 57.4171L167.327 88.01C167.365 88.0501 167.411 88.082 167.462 88.1037C167.513 88.1255 167.567 88.1368 167.623 88.1368C167.678 88.1368 167.733 88.1255 167.783 88.1037C167.834 88.082 167.88 88.0501 167.918 88.01C167.971 87.9363 168 87.8476 168 87.7567C168 87.6657 167.971 87.577 167.918 87.5033L145.284 50.4344L144.214 51.4616L145.284 50.42C140.978 44.83 136.18 42.3878 131.7 42.0432ZM125.197 113.155V134.737L95.271 150.224C100.236 139.706 106.984 130.127 115.217 121.912C118.35 118.779 121.684 115.854 125.197 113.155Z" fill="#C62B47"/>
</svg>