<svg width="256" height="256" title="MkDocs" viewBox="0 0 256 256" fill="none" xmlns="http://www.w3.org/2000/svg" id="mkdocs">
<style>
#mkdocs {
    rect {fill: #15191C}
    path {fill: white}

    @media (prefers-color-scheme: light) {
        rect {fill: #F4F2ED}
        path {fill: #212121}
    }
}
</style>
<rect width="256" height="256" rx="40" fill="#15191C"/>
<path fill-rule="evenodd" clip-rule="evenodd" d="M118.401 57.5626C116.883 58.3134 55.1149 126.961 53.1651 130.065C51.4802 132.747 49.8083 136.975 48.3563 142.225C47.2752 146.134 47.1815 146.761 47.0508 150.958C46.9326 154.756 47.0002 155.914 47.4735 158.197C48.9273 165.212 53.1849 171.748 59.1317 176.094C62.327 178.43 56.3759 176.534 116.326 194.31C129.825 198.313 135.872 199.986 136.849 199.986C139.838 199.986 138.145 201.847 170.134 163.391C186.295 143.964 199.883 127.512 200.33 126.831C201.565 124.952 201.647 123.646 200.724 120.535C199.656 116.932 199.663 113.789 200.746 110.416C201.336 108.575 201.476 107.7 201.349 106.627C200.882 102.695 196.705 100.31 193.084 101.909C191.195 102.744 190.738 103.21 189.799 105.262C188.072 109.032 187.306 114.221 187.889 118.206C188.091 119.59 188.265 121.103 188.275 121.569C188.29 122.289 184.244 127.287 161.464 154.68C135.378 186.048 134.613 186.936 133.877 186.693C132.803 186.339 74.0384 169.008 70.4493 167.987C66.4069 166.837 64.7189 165.962 63.0759 164.167C60.208 161.033 58.9591 156.781 59.2019 150.976C59.4848 144.213 61.8112 141.209 66.7668 141.209C67.6247 141.209 75.3676 143.302 89.2797 147.294C100.943 150.64 115.18 154.724 120.92 156.369C132.145 159.586 132.757 159.682 135.061 158.588C135.904 158.188 143.519 149.588 168.445 120.887C186.206 100.436 201.025 83.1415 201.376 82.4549C202.165 80.9151 202.21 78.7884 201.488 77.2017C200.925 75.9643 199.272 74.3632 198.094 73.9153C197.683 73.759 180.586 69.8891 160.1 65.3155C134.474 59.5941 122.336 56.9997 121.196 57C120.112 57 119.146 57.1947 118.401 57.5626ZM116.427 81.363C115.96 81.5277 115.293 81.8674 114.944 82.1177C113.815 82.9293 108.929 89.037 108.929 89.6366C108.929 90.6132 109.711 91.4076 111.122 91.8642C111.861 92.1033 122.458 94.7353 134.671 97.7131C158.702 103.572 158.532 103.542 161.095 102.317C162.485 101.652 168.063 95.0938 168.063 94.1249C168.063 93.2141 167.047 92.3703 165.381 91.8967C164.6 91.6746 154.263 89.1365 142.412 86.2561C120.091 80.8314 118.685 80.5667 116.427 81.363Z" fill="white"/>
</svg>