<svg width="256" height="256" title="Model Context Protocol" viewBox="0 0 256 256" fill="none" xmlns="http://www.w3.org/2000/svg">
<rect width="256" height="256" rx="40" fill="#15191C"/>
<path fill-rule="evenodd" clip-rule="evenodd" d="M149.146 63.4139C145.851 60.2007 141.436 58.4027 136.839 58.4027C132.242 58.4027 127.827 60.2007 124.532 63.4139L58.9013 127.92C57.803 128.99 56.3319 129.588 54.8003 129.588C53.2687 129.588 51.7974 128.99 50.6992 127.92C50.1615 127.396 49.7341 126.769 49.4422 126.077C49.1504 125.384 49 124.64 49 123.888C49 123.137 49.1504 122.393 49.4422 121.7C49.7341 121.008 50.1615 120.381 50.6992 119.857L116.33 55.3506C121.821 49.996 129.179 47 136.839 47C144.499 47 151.858 49.996 157.347 55.3506C160.524 58.4468 162.924 62.253 164.351 66.4574C165.778 70.6619 166.191 75.1453 165.557 79.5405C170 78.907 174.53 79.3046 178.796 80.7026C183.062 82.1005 186.951 84.4616 190.163 87.6037L190.504 87.9454C193.193 90.5658 195.329 93.6998 196.789 97.1622C198.248 100.625 199 104.345 199 108.103C199 111.862 198.248 115.582 196.789 119.045C195.329 122.507 193.193 125.642 190.504 128.262L131.146 186.597C130.967 186.772 130.824 186.98 130.727 187.211C130.629 187.442 130.579 187.69 130.579 187.94C130.579 188.191 130.629 188.438 130.727 188.669C130.824 188.899 130.967 189.109 131.146 189.282L143.337 201.269C143.874 201.793 144.302 202.419 144.594 203.112C144.886 203.804 145.036 204.548 145.036 205.3C145.036 206.051 144.886 206.796 144.594 207.488C144.302 208.181 143.874 208.807 143.337 209.331C142.238 210.402 140.767 211 139.236 211C137.704 211 136.233 210.402 135.135 209.331L122.944 197.353C121.688 196.13 120.69 194.668 120.008 193.051C119.327 191.435 118.976 189.698 118.976 187.944C118.976 186.189 119.327 184.452 120.008 182.836C120.69 181.22 121.688 179.757 122.944 178.534L182.302 120.191C183.914 118.619 185.196 116.738 186.071 114.661C186.946 112.584 187.396 110.351 187.396 108.097C187.396 105.842 186.946 103.61 186.071 101.532C185.196 99.4551 183.914 97.5746 182.302 96.0018L181.961 95.667C178.671 92.4571 174.261 90.6593 169.669 90.6555C165.077 90.6516 160.664 92.4421 157.368 95.6465L108.469 143.712L108.455 143.725L107.787 144.388C106.688 145.46 105.216 146.06 103.682 146.06C102.149 146.06 100.677 145.46 99.5777 144.388C99.0402 143.864 98.6129 143.238 98.3211 142.545C98.0293 141.853 97.8789 141.108 97.8789 140.357C97.8789 139.605 98.0293 138.86 98.3211 138.168C98.6129 137.475 99.0402 136.849 99.5777 136.325L149.166 87.5832C150.774 86.0095 152.051 84.1291 152.922 82.0529C153.794 79.9767 154.242 77.7466 154.24 75.4943C154.238 73.2419 153.787 71.0126 152.912 68.9379C152.037 66.8632 150.756 64.985 149.146 63.4139Z" fill="#FFFFFF"/>
<path fill-rule="evenodd" clip-rule="evenodd" d="M140.604 79.8201C141.137 79.3009 141.562 78.6797 141.852 77.9936C142.142 77.3075 142.291 76.5701 142.291 75.8252C142.291 75.0804 142.142 74.3431 141.852 73.657C141.562 72.9708 141.137 72.3497 140.604 71.8304C139.512 70.7682 138.049 70.1739 136.526 70.1739C135.003 70.1739 133.539 70.7682 132.447 71.8304L84.2262 119.106C81.5553 121.702 79.4321 124.807 77.9824 128.238C76.5327 131.669 75.7857 135.356 75.7857 139.08C75.7857 142.805 76.5327 146.491 77.9824 149.922C79.4321 153.352 81.5553 156.458 84.2262 159.054C89.6813 164.358 96.9912 167.326 104.601 167.326C112.212 167.326 119.521 164.358 124.977 159.054L173.204 111.779C173.739 111.259 174.163 110.639 174.454 109.953C174.744 109.267 174.893 108.529 174.893 107.784C174.893 107.039 174.744 106.302 174.454 105.616C174.163 104.929 173.739 104.309 173.204 103.789C172.113 102.727 170.65 102.133 169.127 102.133C167.604 102.133 166.141 102.727 165.049 103.789L116.828 151.064C113.554 154.248 109.168 156.03 104.601 156.03C100.034 156.03 95.6477 154.248 92.3749 151.064C90.7731 149.506 89.5 147.643 88.6307 145.584C87.7614 143.526 87.3136 141.314 87.3136 139.08C87.3136 136.845 87.7614 134.634 88.6307 132.575C89.5 130.517 90.7731 128.653 92.3749 127.095L140.604 79.8201Z" fill="#FFFFFF"/>
</svg>