<svg width="256" height="256" title="MohistMC" viewBox="0 0 256 256" fill="none" xmlns="http://www.w3.org/2000/svg" id="mohistmc">
<style>
#mohistmc {
    rect {fill: #15191C}

    @media (prefers-color-scheme: light) {
        rect {fill: #F4F2ED}
    }
}
</style>
<rect width="256" height="256" rx="40" fill="#15191C"/>
<path d="M131.297 38H133.495L134.716 38.856L135.205 40.0788L135.571 43.1359L136.06 45.0924L136.67 46.5598L137.525 47.9049L138.746 49.1277L139.967 49.9837L141.677 50.7174L143.387 51.2065L145.829 51.6957L149.004 52.5516L152.301 53.6522L154.621 54.2636L155.72 54.3859H157.552L159.262 54.019L160.483 53.5299L161.826 52.6739L163.292 51.3288L164.635 49.7391L165.734 48.394L166.589 47.6603L167.444 47.2935H168.543L169.886 47.7826L173.305 49.6168L175.87 50.962L177.091 51.8179L177.946 53.0408L178.19 53.8967V54.7527L177.579 56.7092L176.847 58.2989L176.358 60.1332L176.114 61.1114V63.3125L176.602 65.1467L177.335 66.6141L178.312 67.9592L179.411 69.1821L180.632 70.1603L181.243 70.7717L182.464 71.8723L185.639 75.0516L186.372 75.9076V76.1522H186.616L187.471 77.1304L188.326 77.9864L189.669 78.8424L191.256 79.4538L192.6 79.6984H194.065L195.531 79.4538L197.973 78.7201L200.171 77.8641L201.758 77.6196L202.735 77.8641L203.712 78.4755L204.445 79.3315L205.178 80.5543L206.643 83.2446L207.62 84.8342L208.475 86.7908V88.5027L207.742 89.9701L206.643 90.9484L204.567 92.4158L203.346 93.5163L202.247 95.2283L201.758 96.3288L201.27 98.7745L201.392 100.364L201.881 102.321L202.98 106.234L203.59 108.313L204.567 112.592L205.544 115.527L206.277 116.75L207.376 117.973L208.597 118.951L209.818 119.563L210.917 119.929L212.627 120.296L215.436 120.663L216.657 121.152L217.512 121.886L218 122.864V133.258L217.145 134.359L216.168 134.848L214.581 135.215L212.261 135.459L209.452 136.315L208.231 137.049L206.887 138.149L206.033 139.25L205.3 140.595L204.567 143.163L203.468 148.054L202.491 151.234L201.636 154.291L201.392 155.514V157.348L201.881 159.304L202.735 161.016L204.201 162.851L205.544 163.951L206.033 164.318V164.563L206.521 164.807L207.742 165.908L208.475 167.375V168.965L207.986 170.188L207.01 171.899L205.91 173.734L204.811 175.69L203.834 177.035L202.858 177.769L201.636 178.136H200.782L198.828 177.524L195.897 176.302L194.798 176.057H192.233L190.646 176.424L189.058 177.28L187.837 178.258L186.616 179.481L185.761 180.459L184.296 182.049L181.609 184.739L180.632 185.595L178.19 188.041L177.091 189.63L176.48 190.976L176.114 192.443V194.522L176.725 196.845L177.701 199.291L178.19 200.88V201.981L177.701 203.326L176.48 204.427L172.084 206.872L170.863 207.606L169.52 208.34L169.031 208.462H167.199L166.1 207.851L165.123 206.872L164.024 205.527L162.681 204.06L161.46 202.959L160.239 202.226L159.262 201.736L157.308 201.37H155.476L153.278 201.736L151.08 202.348L147.172 203.571L144.608 204.182L143.02 204.549L142.41 204.793L140.7 205.283L138.991 206.261L138.502 206.75H138.258L138.136 207.117L137.525 207.728L136.304 209.685L135.693 211.764L135.449 213.598L135.327 215.188L134.839 216.655L133.984 217.633L133.373 218H130.809V203.204L130.931 200.147L131.053 188.897L131.297 188.652L131.908 188.53L136.182 188.163L139.479 187.552L142.532 186.94L146.806 185.717L150.225 184.495L152.423 183.516L154.866 182.416L157.186 181.193L158.896 180.215L161.216 178.747L163.536 177.158L164.879 176.179L166.223 175.079L168.054 173.489L169.886 171.777L170.863 170.921L172.084 169.698L172.939 168.72L174.282 167.253L176.48 164.563L177.579 163.095L178.801 161.261L179.9 159.549L181.487 156.859L182.464 154.902L184.052 151.478L185.028 148.91L186.128 145.731L187.471 140.351L188.081 137.049L188.57 132.524L188.692 130.323V124.576L188.448 121.397L188.081 118.462L187.104 113.693L186.494 111.247L185.883 109.291L184.54 105.5L183.075 102.076L181.243 98.4076L180.022 96.3288L178.556 94.0054L177.701 92.7826L176.725 91.4375L175.137 89.481L173.794 87.769L172.573 86.5462L171.718 85.5679L169.642 83.4891L168.665 82.6332L166.955 81.1658L164.879 79.5761L162.925 78.1087L160.605 76.6413L158.041 75.0516L154.499 73.2174L151.935 71.9946L149.126 70.894L148.149 70.5272L146.44 69.9158L145.096 69.5489L143.509 69.0598L140.334 68.3261L137.769 67.837L135.449 67.4701L131.297 67.1033L131.053 66.6141V42.769L131.175 38.6114L131.297 38Z" fill="#F9026E"/>
<path d="M124.703 38H122.505L121.284 38.856L120.795 40.0788L120.429 43.1359L119.94 45.0924L119.33 46.5598L118.475 47.9049L117.254 49.1277L116.033 49.9837L114.323 50.7174L112.613 51.2065L110.171 51.6957L106.996 52.5516L103.699 53.6522L101.379 54.2636L100.28 54.3859H98.4478L96.7381 54.019L95.517 53.5299L94.1737 52.6739L92.7083 51.3288L91.365 49.7391L90.2659 48.394L89.4111 47.6603L88.5563 47.2935H87.4573L86.114 47.7826L82.6947 49.6168L80.1303 50.962L78.9091 51.8179L78.0543 53.0408L77.81 53.8967V54.7527L78.4206 56.7092L79.1533 58.2989L79.6418 60.1332L79.886 61.1114V63.3125L79.3976 65.1467L78.6649 66.6141L77.6879 67.9592L76.5889 69.1821L75.3677 70.1603L74.7571 70.7717L73.536 71.8723L70.3609 75.0516L69.6282 75.9076V76.1522H69.384L68.5292 77.1304L67.6744 77.9864L66.3311 78.8424L64.7436 79.4538L63.4003 79.6984H61.9349L60.4695 79.4538L58.0271 78.7201L55.829 77.8641L54.2415 77.6196L53.2646 77.8641L52.2877 78.4755L51.555 79.3315L50.8223 80.5543L49.3569 83.2446L48.3799 84.8342L47.5251 86.7908V88.5027L48.2578 89.9701L49.3569 90.9484L51.4328 92.4158L52.654 93.5163L53.7531 95.2283L54.2415 96.3288L54.73 98.7745L54.6079 100.364L54.1194 102.321L53.0204 106.234L52.4098 108.313L51.4328 112.592L50.4559 115.527L49.7232 116.75L48.6242 117.973L47.403 118.951L46.1818 119.563L45.0828 119.929L43.3731 120.296L40.5645 120.663L39.3433 121.152L38.4885 121.886L38 122.864V133.258L38.8548 134.359L39.8318 134.848L41.4193 135.215L43.7395 135.459L46.5482 136.315L47.7693 137.049L49.1126 138.149L49.9674 139.25L50.7001 140.595L51.4328 143.163L52.5319 148.054L53.5088 151.234L54.3636 154.291L54.6079 155.514V157.348L54.1194 159.304L53.2646 161.016L51.7992 162.851L50.4559 163.951L49.9674 164.318V164.563L49.479 164.807L48.2578 165.908L47.5251 167.375V168.965L48.0136 170.188L48.9905 171.899L50.0896 173.734L51.1886 175.69L52.1655 177.035L53.1425 177.769L54.3636 178.136H55.2185L57.1723 177.524L60.1031 176.302L61.2022 176.057H63.7666L65.3541 176.424L66.9417 177.28L68.1628 178.258L69.384 179.481L70.2388 180.459L71.7042 182.049L74.3908 184.739L75.3677 185.595L77.81 188.041L78.9091 189.63L79.5197 190.976L79.886 192.443V194.522L79.2754 196.845L78.2985 199.291L77.81 200.88V201.981L78.2985 203.326L79.5197 204.427L83.9159 206.872L85.137 207.606L86.4803 208.34L86.9688 208.462H88.8005L89.8996 207.851L90.8765 206.872L91.9756 205.527L93.3189 204.06L94.54 202.959L95.7612 202.226L96.7381 201.736L98.692 201.37H100.524L102.722 201.736L104.92 202.348L108.828 203.571L111.392 204.182L112.98 204.549L113.59 204.793L115.3 205.283L117.009 206.261L117.498 206.75H117.742L117.864 207.117L118.475 207.728L119.696 209.685L120.307 211.764L120.551 213.598L120.673 215.188L121.161 216.655L122.016 217.633L122.627 218H125.191V203.204L125.069 200.147L124.947 188.897L124.703 188.652L124.092 188.53L119.818 188.163L116.521 187.552L113.468 186.94L109.194 185.717L105.775 184.495L103.577 183.516L101.134 182.416L98.8141 181.193L97.1045 180.215L94.7843 178.747L92.464 177.158L91.1208 176.179L89.7775 175.079L87.9457 173.489L86.114 171.777L85.137 170.921L83.9159 169.698L83.0611 168.72L81.7178 167.253L79.5197 164.563L78.4206 163.095L77.1995 161.261L76.1004 159.549L74.5129 156.859L73.536 154.902L71.9484 151.478L70.9715 148.91L69.8725 145.731L68.5292 140.351L67.9186 137.049L67.4301 132.524L67.308 130.323V124.576L67.5522 121.397L67.9186 118.462L68.8955 113.693L69.5061 111.247L70.1167 109.291L71.46 105.5L72.9254 102.076L74.7571 98.4076L75.9783 96.3288L77.4437 94.0054L78.2985 92.7826L79.2754 91.4375L80.863 89.481L82.2062 87.769L83.4274 86.5462L84.2822 85.5679L86.3582 83.4891L87.3351 82.6332L89.0448 81.1658L91.1208 79.5761L93.0746 78.1087L95.3948 76.6413L97.9593 75.0516L101.501 73.2174L104.065 71.9946L106.874 70.894L107.851 70.5272L109.56 69.9158L110.904 69.5489L112.491 69.0598L115.666 68.3261L118.231 67.837L120.551 67.4701L124.703 67.1033L124.947 66.6141V42.769L124.825 38.6114L124.703 38Z" fill="#0384FB"/>
<path d="M131.297 77.2527L133.495 77.375L137.159 77.8641L141.189 78.7201L144.974 79.8207L149.859 81.7772L153.034 83.3668L155.72 84.9565L157.186 85.9348L159.506 87.5245L161.216 88.9918L162.437 89.9701L164.391 91.8043L165.978 93.394L166.833 94.3723L167.932 95.7174L169.275 97.4293L170.374 98.8967L171.474 100.609L172.695 102.565L174.771 106.601L176.236 110.024L177.457 113.815L178.312 117.117L179.045 121.397L179.289 125.921V129.345L179.045 133.87L178.556 137.171L178.19 139.128L177.335 142.063L176.114 145.731L174.893 148.666L174.282 150.011L173.305 151.967L171.84 154.535L170.985 155.758L170.13 157.103L167.688 160.283L166.345 161.75L165.49 162.728L163.17 165.052L162.193 165.908L160.972 167.008L159.628 167.986L157.43 169.698L154.255 171.655L152.301 172.755L150.347 173.734L148.638 174.467L147.172 175.079L144.242 176.179L141.921 176.791L139.723 177.402L136.548 178.014L134.839 178.258L132.64 178.503H131.175L131.053 178.38L130.931 152.885V148.788L131.053 130.079L131.297 129.467H137.647L147.417 129.345H152.912L154.621 129.467L155.11 129.957L155.598 131.057L156.697 132.28L157.919 133.014L159.14 133.38L160.361 133.503L162.071 133.136L163.78 132.28L164.879 131.179L165.612 129.59L165.734 128.978V126.41L165.246 125.065L164.391 123.965L163.414 123.109L162.437 122.62L160.849 122.13L159.262 122.253L157.552 122.864L156.209 123.965L155.476 124.943L154.866 126.043H154.621V126.288H132.518L131.297 126.41L131.053 125.799V107.09L131.419 106.723H145.585L146.195 106.967L147.05 108.557L147.661 109.291L149.248 110.269L150.469 110.636H152.668L153.889 110.269L155.11 109.413L155.72 108.924L156.575 107.701L157.186 105.745V104.399L156.697 102.565L156.209 101.832L155.354 100.853L153.889 99.875L152.668 99.5082H150.592L149.37 99.875L148.149 100.609L147.05 101.709L146.195 103.177L145.829 103.421H131.297L131.053 103.177V77.4973L131.297 77.2527ZM150.714 144.875L149.126 145.364L147.905 146.22L147.05 146.954L146.562 147.688L146.195 148.666L130.931 148.788V152.885L146.195 152.701L146.928 154.046L147.539 154.78L148.76 155.636L150.225 156.247L150.836 156.37H151.935L153.645 156.003L154.621 155.514L155.843 154.535L156.697 153.313L157.186 151.723L157.308 151.111V150.011L156.942 148.543L156.209 147.321L155.598 146.587L154.133 145.486L153.278 145.12L152.545 144.875H150.714Z" fill="#2A3291"/>
<path d="M124.214 77.2527L124.825 77.375L124.947 77.4973V178.38L124.825 178.503H123.604L120.429 178.136L116.643 177.402L114.323 176.791L111.636 175.935L109.805 175.323L106.752 174.101L104.92 173.245L101.867 171.533L99.9132 170.31L98.5699 169.332L96.8602 168.109L95.1506 166.641L93.8073 165.541L90.8765 162.606L90.0217 161.628L88.6784 160.038L87.213 158.082L85.7476 156.003L84.1601 153.435L83.1832 151.723L82.2062 149.766L81.2293 147.688L80.0081 144.63L79.2754 142.185L78.4206 138.883L77.9322 136.438L77.5658 133.87L77.3216 130.813V125.554L77.5658 122.13L78.0543 118.829L78.9091 115.038L79.6418 112.47L80.3745 110.269L81.5957 107.212L83.1832 103.91L85.137 100.609L86.114 99.2636L87.3351 97.5516L88.5563 95.962L89.8996 94.3723L90.7544 93.394L92.2198 91.8043L93.6852 90.337L95.0285 89.2364L96.9824 87.6467L98.692 86.4239L100.524 85.2011L102.111 84.2228L104.92 82.6332L108.461 81.0435L112.003 79.6984L114.445 78.9647L117.376 78.231L120.062 77.7418L122.261 77.375L124.214 77.2527ZM118.231 84.2228L116.155 84.712L111.758 86.1793L108.95 87.4022L105.653 89.1141L103.088 90.7038L102.111 91.4375L100.402 92.6603L99.1805 93.7609L97.8372 94.8614L95.1506 97.5516L94.2958 98.5299L92.7083 100.364L91.2429 102.443L89.7775 104.644L87.9457 108.068L87.0909 109.902L85.8697 113.082L85.137 115.405L84.4043 118.095L84.038 119.929L83.5495 123.598L83.4274 125.554V130.568L83.6716 133.87L84.2822 136.927L84.8928 139.495L85.6255 142.063L86.4803 144.386L87.3351 146.465L89.1669 150.133L89.8996 151.234L91.1208 153.19L92.5862 155.024L93.8073 156.614L94.9064 157.959L96.9824 160.038L97.9593 160.894L99.1805 162.117L100.768 163.34L102.722 164.807L104.676 166.03L106.385 167.008L107.607 167.742L111.148 169.332L113.346 170.188L117.009 171.288L118.231 171.533L118.841 171.41V152.701L118.597 152.457H109.927L109.56 152.823L108.583 154.535L107.851 155.147L106.63 155.88L105.653 156.247L104.92 156.37H103.699L101.989 155.88L100.646 155.024L99.6689 154.046L98.9362 152.579L98.692 151.234V150.011L99.0583 148.543L99.9132 147.076L100.768 146.22L102.233 145.364L103.699 144.997H104.92L106.63 145.486L107.973 146.342L109.072 147.565L109.682 148.788L109.927 148.91H118.719L118.841 148.788V129.957L118.719 129.712L114.934 129.59H103.821L101.134 129.712L100.89 129.834L100.035 131.546L99.1805 132.402L97.9593 133.136L96.8602 133.503H94.54L93.0746 133.014L91.9756 132.28L90.9986 131.179L90.3881 129.957L90.1438 129.101V126.777L90.7544 125.188L91.6092 124.087L91.8535 123.598L92.464 123.353L93.1967 122.864L94.7843 122.375H96.4939L98.0814 122.864L99.4247 123.72L100.28 124.698L101.012 126.043L101.501 126.288H118.597L118.841 126.043V107.09L118.109 106.967H110.049L109.56 107.457L108.95 108.557L108.461 109.168L107.484 109.902L106.385 110.514L104.676 110.88H103.821L101.989 110.391L100.89 109.658L99.791 108.679L99.1805 107.579L98.8141 106.478L98.692 105.867V104.399L99.0583 102.932L99.791 101.709L100.524 100.853L101.867 99.9973L103.088 99.6304L104.676 99.5082L106.019 99.7527L107.118 100.242L108.461 101.22L109.194 102.198L109.805 103.299L110.049 103.543H118.597L118.963 103.054L118.841 84.4674L118.719 84.2228H118.231Z" fill="#2A3290"/>
</svg>