<svg width="256" height="256" title="MotherDuck" viewBox="0 0 256 256" fill="none" xmlns="http://www.w3.org/2000/svg" id="motherduck">
<style>
#motherduck {
    rect {fill: #15191C}

    @media (prefers-color-scheme: light) {
        rect {fill: #F4F2ED}
    }
}
</style>
<rect width="256" height="256" rx="40" fill="#15191C"/>
<path d="M49.2022 152.416C49.2022 152.416 95.965 185.802 98.7278 187.476C101.491 189.16 105.537 189.541 109.025 188.151C112.513 186.752 115.168 183.688 116.01 180.566C116.853 177.443 127.601 121.036 127.601 121.036C127.738 120.263 128.032 118.022 126.768 115.839C125.083 112.912 121.35 111.366 118.068 112.286C115.452 113.02 114.061 115.066 113.649 115.712C113.081 116.788 111.993 118.531 110.073 120.087C108.594 121.291 107.134 121.947 106.419 122.23C100.423 124.628 93.741 122.622 89.9984 117.738C87.6078 114.733 83.444 113.519 79.6916 115.017C75.9392 116.514 73.774 120.273 74.1169 124.09C74.7831 130.207 71.3442 136.266 65.3482 138.664C62.1249 139.956 58.7056 139.966 55.6586 138.948C54.9238 138.752 52.4745 138.214 50.0448 139.496C47.0272 141.101 45.4008 144.791 46.2042 148.07C46.8018 150.517 48.5654 151.936 49.2022 152.406V152.416Z" fill="#FF9538"/>
<path d="M127.14 79.35C127.14 79.35 143.776 134.309 144.942 137.333C146.108 140.348 149.067 143.127 152.692 144.145C156.317 145.173 160.285 144.361 162.861 142.393C165.438 140.436 208.419 102.312 208.419 102.312C208.997 101.784 210.604 100.188 210.937 97.6923C211.388 94.3449 209.379 90.8506 206.215 89.5782C203.687 88.5603 201.345 89.3335 200.62 89.5978C199.513 90.1068 197.593 90.8213 195.104 90.88C193.194 90.9289 191.646 90.557 190.901 90.3515C184.69 88.5994 180.624 82.9323 180.644 76.7758C180.585 72.9389 178.028 69.4349 174.138 68.3387C170.249 67.2424 166.241 68.8868 164.174 72.1265C160.961 77.3728 154.534 80.0743 148.322 78.3222C144.981 77.3826 142.267 75.3076 140.474 72.6355C140.014 72.0385 138.407 70.1103 135.693 69.6502C132.323 69.0727 128.776 71.0107 127.415 74.0939C126.396 76.4038 126.915 78.5963 127.14 79.35Z" fill="#FF9538"/>
</svg>