<svg width="256" height="256" title="Motion" viewBox="0 0 256 256" fill="none" xmlns="http://www.w3.org/2000/svg">
<rect width="256" height="256" rx="40" fill="#FFF312"/>
<path d="M108.364 99L75.7299 157H46L71.4817 111.711C75.4318 104.691 85.289 99 93.4988 99H108.364ZM181.27 113.5C181.27 105.492 187.925 99 196.135 99C204.344 99 211 105.492 211 113.5C211 121.508 204.344 128 196.135 128C187.925 128 181.27 121.508 181.27 113.5ZM113.938 99H143.668L111.034 157H81.3042L113.938 99ZM149.052 99H178.782L153.3 144.289C149.35 151.309 139.492 157 131.283 157H116.418L149.052 99Z" fill="black"/>
</svg>