<svg width="256" height="256" title="MQTT" viewBox="0 0 256 256" fill="none" xmlns="http://www.w3.org/2000/svg">
<rect width="256" height="256" rx="40" fill="#49014C"/>
<path d="M0 25.5L0.12614 64.347H0.883161C107.371 64.347 194.117 150.269 195 256H232C230.991 128.946 127.937 25.8785 0 25.5ZM0 106V145C61.6974 145 113.117 194.807 114 256H152C151.117 173.484 83.1464 106.379 0 106ZM256 154.685V75.8285C246.285 62.5806 234.299 47.4402 222.312 35.7063C208.938 22.4584 193.293 10.4722 178.153 6.22356e-05H94.3755C167.807 26.3697 226.728 83.0202 256 154.685Z" fill="white"/>
</svg>