<svg width="256" height="256" title="MS-DOS" viewBox="0 0 256 256" fill="none" xmlns="http://www.w3.org/2000/svg" id="msdos">
<style>
#msdos {
    rect {fill: #15191C}

    @media (prefers-color-scheme: light) {
        rect {fill: #F4F2ED}
    }
}
</style>
<rect width="256" height="256" rx="40" fill="#15191C"/>
<path d="M53.3333 43V107.125H48V208.656H53.3333V214H101.333V208.656H112V214H149.333V208.656H154.667V214H186.667V208.656H197.333V203.312H202.667V197.969H208V160.562H202.667V155.219H197.333V149.875H186.667V144.531H176V133.844H181.333V139.188H186.667V144.531H202.667V139.188H208V123.156H202.667V117.812H197.333V112.469H186.667V107.125H192V101.781H197.333V85.75H192V80.4062H186.667V75.0625H176V69.7188H160V59.0312H176V69.7188H197.333V53.6875H192V48.3438H181.333V43H154.667V48.3438H144V53.6875H138.667V75.0625H144V80.4062H154.667V85.75H170.667V91.0938H176V96.4375H160V91.0938H154.667V85.75H138.667V101.781H144V107.125H149.333V112.469H144V107.125H133.333V43H112V48.3438H106.667V59.0312H101.333V69.7188H96V80.4062H90.6667V69.7188H85.3333V59.0312H80V48.3438H74.6667V43H53.3333ZM74.6667 91.0938H80V101.781H85.3333V107.125H74.6667V91.0938ZM106.667 91.0938H112V107.125H106.667V112.469H101.333V101.781H106.667V91.0938ZM74.6667 144.531H85.3333V171.25H90.6667V176.594H74.6667V144.531ZM128 144.531H133.333V149.875H138.667V155.219H144V160.562H149.333V165.906H138.667V171.25H133.333V176.594H128V144.531ZM170.667 171.25H181.333V176.594H170.667V171.25Z" fill="black"/>
<path d="M138.667 197.969V203.312H144V197.969H138.667ZM144 208.656H149.333V203.312H144V208.656ZM154.667 171.25H160V165.906H154.667V171.25ZM112 203.312V208.656H117.333V203.312H112ZM122.667 197.969H117.333V203.312H122.667V197.969ZM128 203.312H133.333V197.969H128V203.312ZM133.333 203.312V208.656H138.667V203.312H133.333ZM128 208.656V203.312H122.667V208.656H128ZM128 139.188H133.333V133.844H128V139.188ZM101.333 155.219H106.667V149.875H101.333V155.219ZM106.667 160.562H101.333V165.906H106.667V160.562ZM101.333 139.188V144.531H106.667V139.188H101.333ZM154.667 155.219V160.562H160V155.219H154.667ZM154.667 139.188H160V133.844H154.667V139.188ZM160 144.531H154.667V149.875H160V144.531ZM138.667 123.156V117.812H133.333V123.156H138.667ZM144 117.812V112.469H138.667V117.812H144Z" fill="#000080"/>
<path d="M138.667 203.312V208.656H144V203.312H138.667ZM112 197.969V203.312H117.333V197.969H112ZM117.333 208.656H122.667V203.312H117.333V208.656ZM133.333 197.969V203.312H138.667V197.969H133.333ZM128 203.312V197.969H122.667V203.312H128V208.656H133.333V203.312H128ZM106.667 133.844H112V128.5H106.667V133.844ZM101.333 155.219V160.562H106.667V155.219H101.333ZM101.333 139.188H106.667V133.844H101.333V139.188ZM106.667 144.531H101.333V149.875H106.667V144.531ZM133.333 128.5H128V133.844H133.333V128.5ZM154.667 155.219H160V149.875H154.667V155.219ZM160 160.562H154.667V165.906H160V160.562ZM154.667 139.188V144.531H160V139.188H154.667Z" fill="#800080"/>
<path d="M165.333 171.25V165.906H160V171.25H165.333ZM96 165.906H90.6667V171.25H96V165.906ZM101.333 176.594V171.25H96V176.594H101.333ZM128 187.281H133.333V181.938H128V187.281ZM133.333 192.625H128V197.969H133.333V192.625ZM122.667 187.281V192.625H128V187.281H122.667ZM122.667 192.625H117.333V197.969H122.667V192.625ZM101.333 160.562H96V165.906H101.333V160.562ZM96 149.875V155.219H101.333V149.875H96ZM90.6667 160.562H96V155.219H90.6667V160.562ZM96 144.531H90.6667V149.875H96V144.531ZM96 133.844H90.6667V139.188H96V133.844ZM101.333 144.531V139.188H96V144.531H101.333ZM101.333 128.5H96V133.844H101.333V128.5ZM101.333 123.156V128.5H106.667V123.156H101.333ZM133.333 117.812H128V123.156H133.333V117.812ZM112 123.156V117.812H106.667V123.156H112ZM122.667 123.156V128.5H128V123.156H122.667ZM112 123.156V128.5H117.333V123.156H112ZM117.333 117.812V112.469H112V117.812H117.333ZM122.667 112.469V117.812H128V112.469H122.667ZM122.667 117.812H117.333V123.156H122.667V117.812ZM170.667 160.562H165.333V165.906H170.667V160.562ZM170.667 149.875H165.333V155.219H170.667V149.875ZM165.333 144.531H170.667V139.188H165.333V144.531ZM160 144.531V149.875H165.333V144.531H160ZM160 155.219V160.562H165.333V155.219H160ZM160 133.844V139.188H165.333V133.844H160ZM138.667 117.812V112.469H133.333V117.812H138.667Z" fill="#FF00FF"/>
<path d="M165.333 176.594V171.25H160V176.594H165.333ZM170.667 165.906H165.333V171.25H170.667V165.906ZM133.333 192.625V197.969H138.667V192.625H133.333ZM101.333 171.25V165.906H96V171.25H101.333ZM128 192.625H122.667V197.969H128V192.625ZM128 187.281V192.625H133.333V187.281H128ZM122.667 181.938V187.281H128V181.938H122.667ZM117.333 192.625H112V197.969H117.333V192.625H122.667V187.281H117.333V192.625ZM96 149.875H101.333V144.531H96V149.875ZM96 155.219V160.562H101.333V155.219H96ZM96 160.562H90.6667V165.906H96V160.562ZM96 149.875H90.6667V155.219H96V149.875ZM90.6667 144.531H96V139.188H90.6667V144.531ZM101.333 139.188V133.844H96V139.188H101.333ZM106.667 128.5H101.333V133.844H106.667V128.5ZM106.667 117.812H101.333V123.156H106.667V117.812ZM96 123.156V128.5H101.333V123.156H96ZM128 123.156V128.5H133.333V123.156H128ZM133.333 117.812V112.469H128V117.812H133.333ZM122.667 117.812V123.156H128V117.812H122.667ZM117.333 123.156V117.812H112V123.156H117.333V128.5H122.667V123.156H117.333ZM112 128.5V123.156H106.667V128.5H112ZM112 117.812V112.469H106.667V117.812H112ZM117.333 117.812H122.667V112.469H117.333V117.812ZM165.333 160.562H160V165.906H165.333V160.562H170.667V155.219H165.333V160.562ZM170.667 144.531H165.333V149.875H170.667V144.531ZM170.667 133.844H165.333V139.188H170.667V133.844ZM160 149.875V155.219H165.333V149.875H160ZM160 139.188V144.531H165.333V139.188H160Z" fill="#0000FF"/>
<path d="M181.333 171.25H186.667V165.906H181.333V171.25ZM192 187.281V192.625H186.667V197.969H160V192.625H149.333V187.281H144V176.594H138.667V192.625H144V197.969H149.333V203.312H154.667V208.656H186.667V203.312H197.333V197.969H202.667V181.938H197.333V187.281H192ZM181.333 160.562H176V165.906H181.333V160.562ZM186.667 133.844V139.188H202.667V128.5H197.333V133.844H186.667ZM149.333 149.875H144V155.219H149.333V149.875ZM144 144.531H138.667V149.875H144V144.531ZM186.667 128.5H181.333V133.844H186.667V128.5Z" fill="#808000"/>
<path d="M106.667 192.625H101.333V197.969H58.6667V203.312H53.3333V208.656H101.333V203.312H106.667V192.625ZM117.333 176.594H112V187.281H117.333V176.594H122.667V171.25H117.333V176.594ZM96 112.469V117.812H101.333V112.469H96ZM96 117.812H90.6667V123.156H96V117.812ZM69.3333 128.5V139.188H85.3333V133.844H90.6667V128.5H69.3333Z" fill="#800000"/>
<path d="M69.3333 139.188V128.5H90.6667V117.812H96V112.469H53.3333V203.312H58.6667V197.969H101.333V192.625H106.667V187.281H112V176.594H117.333V171.25H122.667V133.844H112V171.25H106.667V176.594H101.333V181.938H69.3333V139.188Z" fill="#FF0000"/>
<path d="M74.6667 75.0625V69.7188H69.3333V64.375H64V107.125H69.3333V75.0625H74.6667ZM80 59.0312H74.6667V64.375H80V59.0312ZM69.3333 48.3438V53.6875H74.6667V48.3438H69.3333ZM117.333 75.0625V69.7188H112V75.0625H117.333ZM96 91.0938H90.6667V96.4375H96V91.0938ZM90.6667 85.75V80.4062H85.3333V85.75H90.6667ZM85.3333 75.0625V69.7188H80V75.0625H85.3333ZM128 48.3438H122.667V107.125H128V48.3438ZM192 101.781V85.75H186.667V101.781H192ZM186.667 107.125V101.781H181.333V107.125H186.667ZM186.667 85.75V80.4062H181.333V85.75H186.667ZM176 75.0625H170.667V80.4062H176V75.0625ZM154.667 59.0312H149.333V75.0625H160V69.7188H154.667V59.0312H160V53.6875H154.667V59.0312ZM176 48.3438V53.6875H181.333V48.3438H176ZM192 64.375V53.6875H186.667V64.375H192Z" fill="#808080"/>
<path d="M112 48.3438V59.0312H106.667V69.7188H101.333V80.4062H96V96.4375H90.6667V85.75H85.3333V75.0625H80V64.375H74.6667V53.6875H69.3333V48.3438H58.6667V107.125H64V64.375H69.3333V69.7188H74.6667V80.4062H80V91.0938H85.3333V101.781H90.6667V107.125H96V101.781H101.333V91.0938H106.667V80.4062H112V69.7188H117.333V107.125H122.667V48.3438H112ZM154.667 91.0938H144V101.781H149.333V107.125H181.333V101.781H186.667V85.75H181.333V80.4062H170.667V85.75H176V91.0938H181.333V96.4375H176V101.781H154.667V91.0938ZM160 75.0625H154.667V80.4062H170.667V75.0625H160ZM154.667 59.0312V53.6875H144V75.0625H149.333V59.0312H154.667ZM176 53.6875V59.0312H181.333V64.375H186.667V53.6875H176ZM176 53.6875V48.3438H154.667V53.6875H160H176Z" fill="#C0C0C0"/>
<path d="M176 149.875V160.562H181.333V165.906H186.667V176.594H181.333V181.938H160V176.594H154.667V171.25H138.667V176.594H144V187.281H149.333V192.625H160V197.969H186.667V192.625H192V187.281H197.333V181.938H202.667V160.562H197.333V155.219H186.667V149.875H176ZM186.667 117.812V112.469H149.333V117.812H144V123.156H138.667V144.531H144V149.875H149.333V133.844H154.667V128.5H186.667V133.844H197.333V128.5H202.667V123.156H197.333V117.812H186.667Z" fill="#FFFF00"/>
</svg>