<svg width="256" height="256" title="MSYS2" viewBox="0 0 256 256" fill="none" xmlns="http://www.w3.org/2000/svg">
<rect width="256" height="256" rx="40" fill="#8D4C83"/>
<path d="M195.359 149.392C194.29 145.462 192.339 146.681 176.355 146.681C155.04 146.681 153.672 147.776 163.006 134.338C175.364 116.548 180.562 104.462 177.131 99.2116C174.758 95.5793 172.039 96.0621 167.439 100.933C163.171 105.452 158.04 103.04 158.04 96.112C158.04 85.9646 172.15 75.939 185.145 75.978C193.262 76.0032 197.399 78.015 201.319 83.8478C206.953 92.2317 204.997 103.293 195.615 116.11C187.851 126.717 191.924 134.329 200.422 125.092C207.779 116.58 208.265 129.433 207.921 133.68C206.759 147.278 197.475 157.168 195.359 149.392Z" fill="#EF7E19"/>
<path d="M43.6463 169.933C42.1078 168.928 43.2259 165.586 47.9752 156.997C55.9344 142.603 74.2385 103.437 81.9665 84.2642C86.5535 72.8843 86.9233 69.9643 84.0701 67.6542C82.5512 66.4245 82.3526 65.9395 82.9559 64.933C85.1776 61.2263 97.9845 59.6352 103.393 62.3939C109.419 65.4677 112.189 72.8934 115.823 95.7216C118.721 113.929 120.861 126.168 121.259 126.814C122.332 128.554 124.462 124.298 132.548 104.252C143.879 76.1625 148.872 67.1399 154.765 64.0984C157.376 62.7511 159.288 62.3588 164.319 62.1382C172.383 61.7845 172.622 61.9732 172.612 68.677C172.6 77.3703 172.206 78.5922 168.772 80.6106C162.354 84.382 157.868 90.7327 157.858 96.0586C157.845 103.371 163.283 105.639 168.282 100.406C169.328 99.3125 170.429 98.4175 170.729 98.4175C171.03 98.4175 171.277 101.223 171.279 104.652C171.282 108.08 171.571 112.646 171.922 114.797C172.646 119.229 172.748 119.013 162.691 134.297C157.105 142.787 156.615 143.988 158.123 145.502C159.036 146.42 161.15 146.642 170.637 146.819L182.052 147.032L184.864 150.766C188.298 155.328 188.517 157.824 185.795 161.403C183.31 164.668 178.326 168.241 174.916 169.199C169.937 170.598 163.724 167.847 158.322 161.851C151.392 154.159 148.29 141.97 147.359 118.78C147.036 110.739 146.661 107.207 146.147 107.379C145.737 107.515 141.139 117.487 135.928 129.538C119.396 167.766 117.399 171.327 113.093 170.244C110.399 169.565 106.308 164.888 103.486 159.258C97.9059 148.124 94.7595 133.788 93.24 112.571C92.802 106.455 92.1911 101.168 91.8823 100.823C91.1989 100.059 88.9431 104.973 81.4012 123.655C71.2679 148.755 67.3369 156.653 62.1871 162.255C57.8093 167.018 46.4089 171.739 43.6463 169.933Z" fill="white"/>
<path d="M132.017 203.483C130.387 202.197 130.233 201.697 130.414 198.259L130.613 194.458H132.922C135.16 194.458 135.232 194.54 135.274 197.154L135.318 199.849L138.854 200.053C141.564 200.21 142.484 200.013 142.791 199.209C143.594 197.11 142.252 194.681 137.83 190.235C135.347 187.739 132.632 184.803 131.797 183.712C129.855 181.177 129.742 176.735 131.562 174.482C132.74 173.023 133.35 172.891 138.885 172.891C145.772 172.891 147.325 173.697 147.956 177.6C148.536 181.181 147.618 183.674 145.719 183.674C144.38 183.674 144 183.181 143.387 180.641C142.718 177.871 142.46 177.59 140.405 177.39C139.168 177.27 137.442 177.352 136.569 177.572C133.575 178.325 134.676 180.488 141.367 186.993L147.752 193.201V197.749C147.752 204.699 147.532 204.904 140.09 204.904C134.728 204.904 133.558 204.698 132.017 203.483Z" fill="white"/>
<path d="M158.777 214.561C159.014 213.142 159.378 209.251 159.586 205.915C159.939 200.234 159.763 199.08 156.813 187.718C155.08 181.046 153.507 174.904 153.317 174.07C153.018 172.758 153.243 172.554 154.984 172.554C156.091 172.554 157.335 172.963 157.748 173.462C158.162 173.962 159.27 177.828 160.211 182.055C162.31 191.485 162.491 192.099 163.174 192.099C163.974 192.099 164.965 189.259 166.937 181.32C168.896 173.43 169.377 172.554 171.747 172.554C173.722 172.554 174.067 170.36 168.22 194.985C165.863 204.913 163.543 213.86 163.063 214.867C162.471 216.113 161.577 216.769 160.269 216.92C158.388 217.136 158.355 217.085 158.777 214.561Z" fill="white"/>
<path d="M195.639 193.31L195.632 198.571C195.632 198.571 195.841 203.593 195.089 204.305C194.323 205.03 191.417 204.904 187.381 204.904C180.37 204.904 179.996 204.832 178.983 203.281C178.264 202.181 177.988 200.495 178.127 198.057C178.327 194.557 178.387 194.458 180.339 194.458C181.831 194.458 182.399 194.804 182.55 195.806C183.21 200.179 183.217 200.186 186.664 200.186C193.356 200.186 192.632 196.44 184.552 189.256C179.587 184.842 177.991 182.462 178.005 179.495C178.03 174.33 180.229 172.554 186.6 172.554C193.867 172.554 196.143 174.407 196.143 180.322C196.143 184.609 192.082 185.435 191.41 181.285C190.842 177.779 190.304 177.272 187.164 177.272C184.193 177.272 182.705 178.158 182.695 179.934C182.692 180.508 185.641 183.781 189.248 187.207" fill="white"/>
</svg>