<svg width="256" height="256" title="n8n" viewBox="0 0 256 256" fill="none" xmlns="http://www.w3.org/2000/svg">
<rect width="256" height="256" rx="40" fill="#EA4B71"/>
<path d="M190.092 84.4208C184.626 86.2228 179.804 90.788 178.236 95.5933L177.754 97.1151H166.421C154.123 97.1151 152.194 97.3553 148.416 99.3976C145.804 100.799 142.267 104.603 141.022 107.326C140.459 108.528 139.655 111.411 139.253 113.734C138.369 118.619 137.887 119.701 135.676 121.663C133.626 123.505 131.938 123.945 127.076 123.945C123.7 123.945 123.138 123.865 122.936 123.225C122.052 120.661 120.283 117.818 118.314 115.816C111.884 109.449 101.636 108.808 94.4019 114.334C92.0308 116.177 89.2978 119.941 88.5745 122.383L88.0922 123.945H83.2293H78.3664L77.4019 121.502C76.7588 119.86 75.7139 118.259 74.0662 116.497C65.2246 107.086 50.1938 109.249 44.487 120.702C43 123.665 43 123.785 43 128.51C43 133.116 43.0804 133.475 44.2861 136.079C48.3452 144.568 58.2719 148.652 67.1537 145.449C69.6454 144.528 71.695 143.127 73.9858 140.724C75.7943 138.802 78.1655 134.757 78.1655 133.596C78.1655 133.316 79.8936 133.155 83.1088 133.155H88.0922L88.5745 134.717C89.8605 139.042 94.5224 143.727 99.1844 145.409C108.95 148.933 119.641 143.727 122.936 133.836C123.138 133.236 123.7 133.155 127.076 133.155C131.938 133.155 133.626 133.596 135.676 135.438C137.846 137.4 138.248 138.281 139.213 143.367C140.258 148.853 141.745 151.976 144.558 154.66C148.416 158.264 152.556 159.985 157.418 159.985C159.308 159.985 159.83 160.105 159.991 160.666C161.558 165.352 165.175 169.476 169.595 171.638C172.329 172.96 172.57 173 177.232 173C181.814 173 182.175 172.92 184.787 171.719C196.281 166.272 198.974 151.456 190.092 142.566C180.567 133.075 164.21 137.16 159.991 150.055C159.83 150.575 159.348 150.775 158.101 150.775C155.65 150.775 153.52 150.014 151.752 148.533C149.702 146.771 149.019 145.249 148.135 140.203C147.291 135.638 145.844 132.435 143.553 129.952L142.267 128.55L143.594 127.149C145.563 125.066 147.251 121.302 147.974 117.498C149.1 111.451 149.26 111.05 151.27 109.088C153.962 106.486 155.007 106.325 167.345 106.325C175.865 106.325 177.834 106.445 177.834 106.846C177.834 108.127 180.447 112.453 182.456 114.454C191.338 123.304 206.289 120.621 211.714 109.249C212.919 106.645 213 106.286 213 101.72C213 97.1551 212.96 96.7947 211.714 94.1918C209.986 90.5477 206.49 87.1038 202.872 85.382C200.421 84.2607 199.698 84.1005 195.919 84.0204C193.227 83.9403 191.097 84.1005 190.092 84.4208ZM198.934 93.8715C205.525 96.8347 205.605 106.205 199.054 109.569C197.286 110.49 193.709 110.57 191.78 109.769C188.766 108.528 186.636 105.204 186.636 101.72C186.636 95.4732 193.227 91.2685 198.934 93.8715ZM64.4208 120.702C67.4752 122.263 69.3641 125.267 69.3641 128.47C69.3641 131.073 68.922 132.274 67.234 134.156C61.9692 140.164 52.0827 136.559 52.0425 128.63C52.0425 123.705 55.7802 119.981 60.8038 119.941C62.13 119.941 63.4965 120.221 64.4208 120.702ZM109.352 120.702C110.236 121.102 111.522 122.103 112.205 122.944C116.747 128.43 113.371 136.559 106.298 137.08C103.244 137.32 101.475 136.679 99.5059 134.677C95.2861 130.512 96.1702 124.065 101.395 121.062C103.686 119.701 106.861 119.58 109.352 120.702ZM180.808 147.331C182.858 148.172 184.988 150.655 185.671 152.937C187.802 159.985 180.205 166.352 173.534 163.149C166.943 159.985 166.984 150.575 173.614 147.532C175.544 146.651 178.919 146.531 180.808 147.331Z" fill="#FFFFFF"/>
</svg>