<svg width="256" height="256" title="Navicat" viewBox="0 0 256 256" fill="none" xmlns="http://www.w3.org/2000/svg" id="navicat">
<style>
#navicat {
    rect {fill: #15191C}

    @media (prefers-color-scheme: light) {
        rect {fill: #F4F2ED}
    }
}
</style>
<rect width="256" height="256" rx="40" fill="#15191C"/>
<path d="M119.001 98.9918C121.12 98.7824 122.714 97.0292 122.78 94.9558L122.78 94.8155C122.751 87.4326 122.007 80.0174 120.562 72.7153L119.96 69.6702C118.793 63.778 113.053 59.9337 107.164 61.1006C106.748 61.1829 106.337 61.2891 105.939 61.4161C92.1496 66.2049 80.4685 75.091 72.126 87.1271C63.8218 99.1082 59.5943 113.092 59.8947 127.575L59.9629 128.484C60.0381 129.004 60.2078 129.494 60.4671 129.941C62.3914 133.257 61.2639 137.506 57.9495 139.431C54.6353 141.356 50.3878 140.229 48.4637 136.913C47.2283 134.784 46.4548 132.458 46.1644 130.001C46.1527 129.903 46.1433 129.804 46.1361 129.706L46.0404 128.431C46.0311 128.311 46.0255 128.192 46.0227 128.073C45.6157 110.57 50.6978 93.675 60.7202 79.2148C70.7654 64.7222 84.8425 54.0259 101.43 48.2834C101.47 48.2696 101.546 48.2438 101.586 48.2308C102.523 47.9253 103.493 47.6725 104.468 47.4793C110.958 46.1942 117.56 47.5136 123.057 51.1953C128.555 54.8774 132.29 60.4807 133.575 66.9734L134.178 70.0185C136.098 79.7211 136.911 89.609 136.593 99.4068C136.591 99.5002 136.586 99.5934 136.579 99.6868L136.568 99.8315C136.251 106.604 130.957 112.193 124.193 112.862C123.9 112.891 123.603 112.911 123.308 112.921C123.14 112.927 122.973 112.926 122.806 112.92L122.69 112.915C121.569 112.874 120.427 112.86 119.298 112.875L116.659 113.118C116.529 113.13 116.399 113.138 116.268 113.143C97.0579 113.82 81.101 128.15 78.3258 147.216C77.0676 155.859 78.6163 164.462 82.8042 172.094C86.8597 179.485 93.2725 185.507 100.861 189.051L102.973 190.027C107.972 192.026 113.234 193.437 118.616 194.221C140.034 197.341 161.175 190.416 176.631 175.218L177.357 174.468C180.463 171.221 182.467 167.103 183.124 162.592C183.78 158.083 183.033 153.566 180.965 149.53L180.816 149.239C173.635 135.785 162.06 124.981 148.217 118.813C148.147 118.782 148.077 118.75 148.009 118.716L147.668 118.551C143.333 116.446 140.463 112.326 139.989 107.533C139.865 106.27 139.914 105.001 140.136 103.759C140.152 103.669 140.17 103.58 140.189 103.491L140.234 103.286C143.322 89.1504 148.738 75.6968 156.331 63.3056C156.351 63.2736 156.37 63.2416 156.391 63.2101L156.598 62.8835C158.602 59.6828 161.872 57.4277 165.576 56.6942C169.138 55.987 172.764 56.699 175.796 58.6949L175.975 58.8081C176.082 58.875 176.186 58.9452 176.289 59.0181C193.539 71.2803 205.303 89.4749 209.415 110.25C210.664 116.556 211.178 122.984 210.946 129.355L210.937 129.579C210.932 129.71 210.923 129.841 210.911 129.971C210.608 133.153 209.454 136.208 207.573 138.806C205.325 141.912 200.986 142.606 197.882 140.357C194.777 138.108 194.083 133.768 196.331 130.662C196.732 130.108 196.988 129.467 197.077 128.801C197.267 123.527 196.837 118.189 195.8 112.948C192.703 97.3014 184.389 83.416 172.195 73.3599L172.1 73.2857C171.278 72.6377 170.215 72.2947 169.091 72.4059C167.686 72.5447 166.512 73.3623 165.861 74.502L165.794 74.6111C160.811 83.5262 157.052 93.0058 154.582 102.886L154.566 102.993C154.494 103.375 154.476 103.772 154.515 104.178C154.659 105.626 155.521 106.829 156.714 107.467C156.754 107.489 156.795 107.509 156.835 107.529L156.916 107.566C172.232 115.172 184.996 127.561 193.089 142.755C193.107 142.788 193.124 142.821 193.141 142.853L193.316 143.195C196.708 149.813 197.933 157.213 196.859 164.593C195.784 171.978 192.498 178.722 187.356 184.099L186.543 184.939C186.505 184.978 186.467 185.016 186.428 185.054C177.544 193.809 166.619 200.541 154.835 204.522C146.314 207.399 137.558 208.844 128.684 208.844C124.681 208.844 120.656 208.55 116.616 207.962C110.087 207.011 103.7 205.289 97.6328 202.845C97.5261 202.802 97.4204 202.756 97.3159 202.708L95.0166 201.646C84.7498 196.851 76.1013 188.733 70.6374 178.776C64.9853 168.476 62.8946 156.871 64.5912 145.215C68.3236 119.572 89.7489 100.281 115.576 99.2732L118.292 99.0229C118.465 99.0071 118.639 98.9977 118.813 98.9948L119.001 98.9918Z" fill="url(#linearGradient)"/>
<linearGradient id="linearGradient" x1="46" y1="353.608" x2="16239.4" y2="16237.3" gradientUnits="userSpaceOnUse">
<stop stop-color="#DBBB42"/>
<stop offset="0.377732" stop-color="#F8D957"/>
<stop offset="0.502431" stop-color="#FFE36C"/>
<stop offset="0.666876" stop-color="#F5CC52"/>
<stop offset="1" stop-color="#C89225"/>
</linearGradient>
</svg>