<svg width="256" title="NeoForge" height="256" viewBox="0 0 256 256" fill="none" xmlns="http://www.w3.org/2000/svg" id="neoforge">
<style>
#neoforge {
    rect {fill: #15191C}

    @media (prefers-color-scheme: light) {
        rect {fill: #F4F2ED}
    }
}
</style>
<rect width="256" height="256" rx="40" fill="#15191C"/>
<path d="M50.8214 46L206.207 46.0354C206.353 47.2269 206.311 48.4316 206.31 49.6297C206.31 51.6122 206.288 53.599 206.393 55.5794C208.061 55.725 209.76 55.6639 211.434 55.6569C212.951 55.6506 214.484 55.6929 216 55.645V201.359C212.81 201.384 209.618 201.375 206.427 201.336L206.41 201.486C206.177 203.596 206.316 206.041 206.344 208.182C206.353 208.865 206.432 209.599 206.372 210.277C206.35 210.523 206.309 210.684 206.179 210.894C205.906 211.028 174.068 210.912 170.828 210.911L54.605 210.92C53.3393 210.927 52.0597 211.015 50.7969 210.965C50.7894 210.936 50.7812 210.905 50.7742 210.876C50.439 209.417 51.0033 201.931 50.4069 201.362C49.2254 201.162 47.8176 201.371 46.6093 201.373L42.8992 201.362C42.2974 201.361 41.5869 201.287 41 201.392V55.6628C44.1603 55.6908 47.4163 55.7881 50.5655 55.5717C50.8878 52.4019 50.5185 49.1772 50.8214 46Z" fill="#AEB1B2"/>
<path d="M50.5704 46H206.258C206.406 47.2001 206.311 47.7672 206.311 48.9741C206.31 50.9708 206.288 52.9718 206.393 54.9665C208.061 55.1131 209.76 55.0517 211.434 55.0446C212.951 55.0381 214.484 55.0808 216 55.0326V133.284C212.813 133.338 209.625 133.34 206.436 133.289C206.31 131.918 206.358 130.515 206.355 129.139L206.344 122.659L206.268 104.58C205.255 104.363 204.145 104.422 203.114 104.423C201.159 104.425 199.186 104.517 197.236 104.357C197.207 109.219 197.2 114.088 197.087 118.949C196.902 126.911 196.609 134.878 196.711 142.844L190.649 142.829C189.571 142.827 188.234 142.682 187.193 142.934C184.265 142.76 181.307 143.008 178.373 142.882L177.634 142.892C177.636 145.247 177.549 147.59 177.585 149.945C177.597 150.688 177.528 151.564 177.683 152.285L177.627 152.373C176.313 152.571 174.88 152.457 173.547 152.464C171.649 152.472 169.749 152.53 167.853 152.524C167.495 152.547 167.179 152.533 166.826 152.476C166.921 148.856 166.895 145.217 166.86 141.595C166.969 138.452 166.945 135.307 167.042 132.165C166.965 131.439 167.018 130.646 167.02 129.914L167.034 125.8C167.036 125.056 167.109 124.226 166.934 123.499C166.742 123.334 166.443 123.359 166.2 123.341C166.402 123.216 166.614 123.136 166.831 123.044L166.837 122.768L166.87 122.873C167.084 121.336 166.835 119.582 166.802 118.024C166.773 116.66 166.904 115.178 166.727 113.833C166.475 112.129 166.6 110.277 166.648 108.561C166.686 107.04 166.71 105.52 166.72 103.998C164.696 104.035 162.676 104.135 160.653 104.204C159.538 104.243 158.36 104.195 157.257 104.333C156.247 104.491 148.22 104.461 147.601 104.125L147.464 104.247C144.488 104.048 141.448 104.168 138.464 104.142C136.92 103.949 135.099 104.109 133.528 104.114C131.744 104.201 129.931 104.125 128.142 104.125C125.013 104.142 121.883 104.14 118.754 104.122L118.739 104.213C117.379 103.984 115.341 104.211 113.921 104.245C112.473 104.28 110.997 104.224 109.553 104.313L109.378 104.364C106.192 104.244 102.988 104.554 99.7939 104.321C99.6504 101.168 99.65 97.9781 99.6915 94.8232L99.6369 94.7437C98.0207 94.7455 91.3921 94.8616 90.2254 94.4099C90.1921 91.674 90.2516 88.938 90.2389 86.2015C90.2367 85.6591 90.3474 84.5168 90.2 84.036C90.1776 83.964 90.1204 83.9082 90.0805 83.8441L90.1151 83.8081C90.4187 80.6316 90.0333 77.402 90.2884 74.2276C92.3534 74.2876 94.4249 74.2516 96.4904 74.2494C97.5404 74.2482 98.7225 74.3652 99.7493 74.1855C99.5979 73.0711 99.7615 71.7663 99.7742 70.6348C99.7961 68.6706 99.734 66.3717 99.7891 64.4091H99.618C96.115 64.3239 92.6115 64.4091 89.1932 64.4091C82.7136 64.4091 76.1903 64.3414 69.711 64.4091C69.711 63.0455 69.711 61.5114 69.711 60.0625C69.711 58.2727 69.711 56.6534 69.711 54.8636C65.9228 54.8083 62.0533 54.8842 58.2657 54.9301C55.7199 54.9609 53.1034 54.7676 50.5704 54.9587C50.5705 51.7102 50.5706 49.2387 50.5704 46Z" fill="#8D8F91"/>
<path d="M206.44 54.8601L206.433 64.4665C205.306 64.3335 204.1 64.4123 202.965 64.4121L196.88 64.4067L157.209 64.4155L138.069 64.4208C138.072 67.5911 138.111 70.7655 138.076 73.9354C138.076 77.1163 137.97 80.3348 138.092 83.5111L118.927 83.509L118.915 64.4326C112.549 64.3066 106.161 64.4182 99.7917 64.421C92.9602 64.3463 86.1225 64.4189 79.2901 64.4084L69.7625 64.4109L69.7143 64.427C67.5159 64.3762 65.3118 64.4118 63.1129 64.4152C62.1418 64.4165 61.1208 64.4785 60.1565 64.3922C60.1324 67.5558 60.2467 70.7465 60.1288 73.9061L60.0937 73.9405C56.9228 74.0214 53.7415 73.9437 50.5687 73.9724L50.5562 54.8568L206.44 54.8601Z" fill="#E5EAEA"/>
<path d="M128.495 64.4058L134.783 64.4119C135.87 64.4108 136.987 64.3571 138.069 64.4208C138.072 67.5913 138.11 70.7657 138.076 73.9354C138.076 77.1164 137.969 80.3351 138.091 83.5114L118.927 83.509L118.915 64.4326C122.104 64.3441 125.305 64.4208 128.495 64.4058Z" fill="#C5CACA"/>
<path d="M41 132.592L50.569 132.597L50.5707 181.71C50.5678 188.021 50.4283 194.494 50.573 200.782C47.3891 200.703 44.186 200.777 41 200.778V132.592Z" fill="#76757F"/>
<path d="M118.917 64.4326L118.929 83.5091C118.924 87.1301 118.818 90.7894 118.941 94.406C115.753 94.3955 112.558 94.4431 109.37 94.3998L109.357 94.354C109.429 90.7383 109.351 87.1152 109.375 83.4978L99.7838 83.4916L99.799 73.9621C99.74 70.786 99.7946 67.5985 99.7934 64.4211C106.163 64.4183 112.551 64.3067 118.917 64.4326Z" fill="#67534F"/>
<path d="M99.7974 73.9626L109.361 73.9572C109.356 77.1265 109.468 80.3338 109.373 83.4982L99.782 83.492L99.7974 73.9626Z" fill="#8E716A"/>
<path d="M109.357 94.354L109.37 94.3998L109.365 100.693C109.365 101.751 109.306 102.853 109.378 103.906L109.414 103.95C109.269 105.033 109.355 106.205 109.355 107.299L109.363 113.505L90.2229 113.5L90.2107 123.03C89.0189 122.956 87.7773 123.033 86.5794 123.037L79.2944 123.063C79.2196 119.879 79.2821 116.681 79.2814 113.495H90.2234C90.2217 112.215 90.082 104.515 90.2807 103.958C93.4487 103.939 96.6205 103.92 99.788 103.954L99.7858 94.4256C101.966 94.3784 104.154 94.4217 106.335 94.4247C107.293 94.426 108.422 94.5377 109.357 94.354Z" fill="#C06235"/>
<path d="M109.357 94.354L109.37 94.3998L109.364 100.693C109.365 101.751 109.306 102.853 109.378 103.906C108.428 104.089 107.23 103.963 106.253 103.962L99.788 103.954L99.7858 94.4256C101.966 94.3784 104.154 94.4217 106.335 94.4247C107.292 94.426 108.422 94.5377 109.357 94.354Z" fill="#C6A3B9"/>
<path d="M79.2904 94.3993C82.9289 94.401 86.6085 94.2806 90.241 94.3996C93.4146 94.4219 96.6166 94.3152 99.7858 94.4256L99.788 103.954C96.6205 103.921 93.4484 103.939 90.2804 103.959C90.0818 104.516 90.2214 112.216 90.2231 113.496H79.2812C79.3766 107.135 79.2751 100.762 79.2904 94.3993Z" fill="#A54F38"/>
<path d="M90.2421 94.3996C93.4157 94.4218 96.6165 94.3148 99.7858 94.4256L99.788 103.954C96.6205 103.921 93.4495 103.939 90.2815 103.959C90.072 103.471 90.2193 95.5704 90.2421 94.3996Z" fill="#67534F"/>
<path d="M90.2271 83.5061L99.7838 83.4916L109.374 83.4978C109.35 87.1151 109.429 90.7382 109.356 94.3539C108.421 94.538 107.292 94.4259 106.334 94.4246C104.153 94.422 101.965 94.3788 99.7848 94.4254C96.6155 94.3151 93.4151 94.4219 90.241 94.3996C90.143 90.7756 90.2215 87.1326 90.2271 83.5061Z" fill="#C5CACA"/>
<path d="M90.2271 83.5061L99.7838 83.4916L99.7848 94.4254C96.6155 94.3151 93.4151 94.4219 90.241 94.3996C90.143 90.7756 90.2215 87.1326 90.2271 83.5061Z" fill="#8E716A"/>
<path d="M79.2917 83.4847C82.9148 83.6333 86.599 83.5026 90.2271 83.5061C90.2215 87.1326 90.143 90.7756 90.241 94.3996C86.6085 94.2806 82.9289 94.401 79.2904 94.3993L79.2777 94.3411C79.4134 90.7437 79.2897 87.0878 79.2917 83.4847Z" fill="#67534F"/>
<path d="M50.5632 83.4937C53.7331 83.4988 56.9567 83.3747 60.1186 83.5152L60.1445 83.6113L60.1377 94.4091C56.9648 94.4109 53.7336 94.2794 50.5681 94.4318L50.5632 83.4937Z" fill="#E5EAEA"/>
<path d="M90.2152 73.9798C93.391 73.9024 96.6224 73.8784 99.7974 73.9626L99.782 83.492L90.2261 83.5061L90.2152 73.9798Z" fill="#67534F"/>
<path d="M69.6979 123.048C72.8959 123.034 76.0937 123.039 79.2917 123.064C79.2859 126.244 79.2484 129.428 79.2781 132.608C76.1079 132.481 72.8984 132.588 69.7238 132.593C69.663 129.414 69.7289 126.228 69.6979 123.048Z" fill="#C06235"/>
<path d="M60.1577 64.3921C61.122 64.4784 62.1429 64.4166 63.114 64.4151C65.3129 64.4118 67.517 64.3762 69.7154 64.427L69.7069 70.4556C69.7069 71.6151 69.6608 72.7999 69.7421 73.9561C67.5727 73.932 65.4003 73.9623 63.2306 73.9658C62.2339 73.9675 61.1078 74.0737 60.1301 73.9061C60.2478 70.7464 60.1335 67.5558 60.1577 64.3921Z" fill="#ABB0B1"/>
<path d="M157.21 64.4158L187.292 64.4105L196.881 64.4069L202.966 64.4124C204.101 64.4126 205.307 64.3338 206.435 64.4668L206.441 94.3924C206.406 97.5979 206.432 100.806 206.434 104.012C205.33 103.903 204.19 103.956 203.08 103.956C201.007 103.956 198.931 103.979 196.859 103.954L196.865 132.583L196.86 142.135L177.748 142.138C177.631 145.314 177.818 148.502 177.709 151.678L166.792 151.698L166.785 161.241C166.768 164.856 166.89 168.512 166.767 172.122C160.396 172.208 154.019 172.096 147.648 172.15L147.645 161.23C144.456 161.174 141.26 161.22 138.071 161.228L118.942 161.227C115.746 161.18 112.546 161.266 109.35 161.212C105.754 161.298 102.141 161.224 98.5437 161.224C95.7787 161.224 92.9857 161.322 90.2251 161.221C90.1712 158.049 90.2163 154.87 90.2137 151.698L79.2807 151.693C79.2195 148.515 79.2824 145.325 79.2865 142.147C79.2362 138.969 79.2944 135.785 79.2804 132.608C79.2506 129.427 79.2882 126.244 79.294 123.064L86.5794 123.037C87.7772 123.033 89.019 122.957 90.2107 123.03L90.2229 113.5L109.362 113.505L109.355 107.299C109.354 106.205 109.268 105.034 109.414 103.95L109.378 103.906C109.306 102.853 109.365 101.751 109.364 100.693L109.369 94.3998C112.558 94.4435 115.752 94.3954 118.941 94.4059C118.817 90.7898 118.923 87.1305 118.928 83.5093L138.093 83.5113C137.971 80.335 138.077 77.1166 138.077 73.9357C138.112 70.7657 138.073 67.5914 138.071 64.4211L157.21 64.4158Z" fill="#D7742F"/>
<path d="M157.21 64.4158L187.292 64.4105L196.88 64.4067L202.965 64.4121C204.1 64.4123 205.305 64.3335 206.433 64.4665L206.44 94.3924C206.405 97.5979 206.425 101.431 206.428 104.637C205.317 104.637 204.206 104.637 203.096 104.637C201.023 104.636 199.357 104.662 197.285 104.637L196.865 132.583L196.864 142.903H187.287L177.746 142.138L177.723 142.081C177.594 138.933 177.703 135.734 177.698 132.58C177.83 129.42 177.691 126.216 177.723 123.051C177.654 119.864 177.707 116.667 177.706 113.479C174.066 113.534 170.421 113.505 166.781 113.503L166.779 103.953L157.215 103.949C154.029 103.954 150.841 103.986 147.656 103.955C147.489 100.807 147.632 97.5788 147.64 94.4221C144.487 94.2467 141.233 94.3789 138.071 94.4168L138.091 83.5114C137.969 80.3351 138.076 77.1164 138.076 73.9354C138.11 70.7655 138.071 67.5912 138.069 64.4208L157.21 64.4158Z" fill="#C5CACA"/>
<path d="M138.069 64.4208L157.209 64.4155C157.204 67.5726 157.128 70.7479 157.222 73.9027L157.265 73.9476C157.111 75.0765 157.196 76.3096 157.202 77.4485C157.218 79.4689 157.223 81.4895 157.217 83.5102C154.029 83.4124 150.817 83.4948 147.627 83.4993L147.64 94.4221C144.487 94.2467 141.233 94.3789 138.071 94.4168L138.091 83.5114C137.969 80.3351 138.076 77.1164 138.076 73.9354C138.11 70.7655 138.071 67.5912 138.069 64.4208Z" fill="#67534F"/>
<path d="M157.222 73.9026L157.265 73.9476C157.11 75.0767 157.196 76.3093 157.201 77.4482C157.217 79.4687 157.222 81.4893 157.216 83.51C154.029 83.4121 150.816 83.4947 147.626 83.4991L147.643 73.963L153.978 73.9648C155.032 73.9656 156.181 74.0528 157.222 73.9026Z" fill="#8E716A"/>
<path d="M166.793 83.4479L166.836 83.4926C166.679 84.6371 166.77 85.8873 166.771 87.0446C166.775 89.4934 166.827 91.951 166.776 94.3986L157.216 94.4247V103.949C154.03 103.954 150.842 103.986 147.656 103.955C147.489 100.807 147.633 97.5788 147.641 94.4221L147.628 83.4991C150.817 83.4947 154.03 83.4124 157.217 83.5102C159.398 83.4363 161.6 83.5066 163.783 83.5111C164.764 83.5128 165.823 83.5878 166.793 83.4479Z" fill="#C5CACA"/>
<path d="M166.795 83.4479L166.838 83.4926C166.68 84.6371 166.772 85.8873 166.774 87.0446C166.777 89.4934 166.829 91.951 166.778 94.3986L157.218 94.4247L157.22 83.51C159.4 83.436 161.602 83.5066 163.785 83.5111C164.765 83.5128 165.826 83.5878 166.795 83.4479Z" fill="#8E716A"/>
<path d="M147.641 94.4221L157.216 94.4247V103.949C154.03 103.954 150.842 103.986 147.656 103.955C147.489 100.807 147.633 97.5788 147.641 94.4221Z" fill="#C6A3B9"/>
<path d="M157.218 94.4247L166.778 94.3986L177.712 94.386L177.709 113.479C174.069 113.534 170.424 113.504 166.784 113.503L166.782 103.953L157.218 103.949V94.4247Z" fill="#A54F38"/>
<path d="M157.218 94.4247L166.778 94.3986L166.787 100.723C166.788 101.786 166.856 102.894 166.782 103.953L157.218 103.949V94.4247Z" fill="#67534F"/>
<path d="M166.836 83.4926L177.718 83.4982L177.71 94.3858L166.776 94.3986C166.827 91.951 166.775 89.4934 166.771 87.0446C166.769 85.8873 166.679 84.6371 166.836 83.4926Z" fill="#67534F"/>
<path d="M196.859 83.4989C198.943 83.5241 201.031 83.5006 203.115 83.5009C204.212 83.5012 205.345 83.4433 206.435 83.5571L206.443 94.3921C203.266 94.5165 200.046 94.4126 196.865 94.4161L196.859 83.4989Z" fill="#ABB0B1"/>
<path d="M187.292 64.4105L196.881 64.4069C196.81 65.5326 196.856 66.6886 196.856 67.8177L196.864 73.958L187.294 73.9614L187.292 64.4105Z" fill="#ABB0B1"/>
<path d="M177.726 123.051L187.288 123.044L187.291 132.605C184.101 132.515 180.894 132.595 177.701 132.58C177.833 129.42 177.694 126.216 177.726 123.051Z" fill="#C06235"/>
<path d="M157.265 73.9476C160.436 73.9657 163.608 73.9674 166.779 73.953C166.774 77.101 166.639 80.3064 166.793 83.4479C165.823 83.5877 164.763 83.5128 163.783 83.5111C161.599 83.5066 159.397 83.4362 157.217 83.5102C157.222 81.4896 157.218 79.4691 157.202 77.4485C157.196 76.3096 157.111 75.0765 157.265 73.9476Z" fill="#67534F"/>
<path d="M118.928 83.5093L138.093 83.5113L138.071 94.4168C141.233 94.3789 144.487 94.2468 147.641 94.4221C147.633 97.5788 147.49 100.806 147.657 103.954C144.463 103.911 141.263 103.953 138.069 103.955L118.986 103.962L118.942 103.94C115.782 104.055 112.577 103.968 109.414 103.95L109.378 103.906C109.305 102.852 109.365 101.752 109.364 100.693L109.37 94.3998C112.558 94.4434 115.752 94.3954 118.941 94.4059C118.818 90.7898 118.923 87.1304 118.928 83.5093Z" fill="#A54F38"/>
<path d="M118.932 94.4125L131.583 94.4108C133.741 94.4104 135.922 94.4758 138.078 94.3969C138.055 97.5827 138.051 100.769 138.069 103.955L118.986 103.962L118.942 103.94C118.898 100.766 118.931 97.5876 118.932 94.4125Z" fill="#C06235"/>
<path d="M118.986 103.962L138.069 103.955L138.067 123.044L128.488 123.04L128.496 132.591H118.93L118.94 111.975L118.923 106.749C118.919 105.862 118.817 104.828 118.986 103.962Z" fill="#E68C37"/>
<path d="M166.787 132.617C170.424 132.534 174.064 132.629 177.701 132.58C177.705 135.734 177.596 138.933 177.726 142.081L177.748 142.138C177.632 145.314 177.818 148.502 177.71 151.678L166.793 151.698C166.726 148.517 166.786 145.324 166.783 142.141C166.823 138.968 166.788 135.792 166.787 132.617Z" fill="#D7742F"/>
<path d="M166.785 132.617C170.422 132.534 174.061 132.629 177.698 132.58C177.702 135.734 177.593 138.933 177.723 142.081C176.818 142.304 175.29 142.147 174.311 142.145L166.781 142.141C166.821 138.968 166.787 135.792 166.785 132.617Z" fill="#C06235"/>
<path d="M166.785 161.241C166.768 164.856 166.89 168.512 166.767 172.122C160.396 172.208 154.019 172.096 147.648 172.15L147.645 161.23C149.974 161.156 152.322 161.221 154.654 161.222L166.785 161.241Z" fill="#C06235"/>
<path d="M79.2917 123.064L86.577 123.038C87.7749 123.034 89.0165 122.957 90.2083 123.03C90.199 126.721 90.2646 130.419 90.1929 134.108L90.2051 142.066C88.3988 142.239 86.524 142.141 84.7072 142.142C82.9107 142.144 81.0766 142.224 79.2846 142.147C79.2343 138.97 79.2921 135.785 79.2781 132.608C79.2484 129.428 79.2859 126.244 79.2917 123.064Z" fill="#D7742F"/>
<path d="M79.2781 132.608C81.5377 132.582 83.7975 132.575 86.0568 132.586C87.4113 132.588 88.7981 132.534 90.1479 132.636C90.1409 133.079 90.0639 133.692 90.1929 134.108L90.2051 142.066C88.3988 142.239 86.524 142.141 84.7072 142.142C82.9107 142.144 81.0766 142.224 79.2846 142.147C79.2343 138.97 79.2921 135.785 79.2781 132.608Z" fill="#C06235"/>
<path d="M157.214 103.949L166.779 103.953L166.781 113.503C164.653 113.432 162.502 113.499 160.372 113.499L147.643 113.506C147.618 110.323 147.622 107.138 147.655 103.955C150.841 103.986 154.028 103.954 157.214 103.949Z" fill="#C06235"/>
<path d="M90.2107 123.03L99.7995 123.04C99.7895 126.199 99.7995 129.352 99.8043 132.595L99.7982 142.157C98.7976 142.226 97.7572 142.154 96.7518 142.151L90.2231 142.147L90.2073 142.066L90.1951 134.108C90.2668 130.418 90.2016 126.72 90.2107 123.03Z" fill="#E5EAEA"/>
<path d="M157.187 123.043C160.382 123.04 163.589 122.977 166.783 123.055L166.787 132.617C166.788 135.792 166.823 138.968 166.783 142.141C165.204 142.143 158.152 141.954 157.21 142.226L157.207 132.599C157.261 129.419 157.234 126.222 157.187 123.043Z" fill="#E5EAEA"/>
<path d="M147.643 132.594L157.204 132.599L157.207 142.225L157.213 151.624L157.143 151.622C156.184 151.834 154.91 151.681 153.908 151.679L147.68 151.682C147.479 150.106 147.641 147.452 147.641 145.777L147.643 132.594Z" fill="#27303C"/>
<path d="M147.639 142.136C150.772 142.132 154.078 142.067 157.209 142.136C157.209 145.273 157.189 148.418 157.209 151.596C156.44 151.852 154.911 151.681 153.909 151.679L147.681 151.683C147.468 148.528 147.597 145.297 147.639 142.136Z" fill="#151619"/>
<path d="M166.781 113.503C170.421 113.505 174.066 113.534 177.706 113.479C177.706 116.667 177.654 119.864 177.723 123.051C174.103 122.947 170.469 123.094 166.847 123.021C166.727 121.791 166.773 120.51 166.77 119.274L166.781 113.503Z" fill="#C06235"/>
<path d="M147.631 123.041L157.187 123.043C157.233 126.222 157.26 129.419 157.206 132.599L147.646 132.594C147.584 129.413 147.63 126.224 147.631 123.041Z" fill="#C5CACA"/>
<path d="M99.7976 123.041C102.983 123.041 106.176 122.993 109.36 123.052C109.362 126.232 109.403 129.416 109.356 132.594H99.788C99.7894 129.438 99.7443 126.2 99.7976 123.041Z" fill="#C5CACA"/>
<path d="M90.2216 142.148L96.7503 142.151C97.7562 142.155 98.7961 142.226 99.7967 142.157L99.7936 151.681L90.2185 151.696C90.1992 148.513 90.2001 145.33 90.2216 142.148Z" fill="#C5CACA"/>
<path d="M166.781 142.141C166.784 145.323 166.724 148.516 166.79 151.698C164.583 151.659 162.371 151.692 160.164 151.694C159.265 151.695 158.074 151.84 157.214 151.624L157.207 142.225C158.149 141.953 165.203 142.143 166.781 142.141Z" fill="#C5CACA"/>
<path d="M109.356 132.594L109.352 142.205C108.569 141.972 101.184 142.139 99.7967 142.157L99.8022 132.595L109.356 132.594Z" fill="#27303C"/>
<path d="M99.7991 142.157C101.186 142.139 108.572 141.972 109.355 142.206L109.358 151.681H99.7961L99.7991 142.157Z" fill="#151619"/>
<path d="M118.912 142.124C121.046 142.234 123.24 142.138 125.379 142.137L138.083 142.13C138.032 145.312 138.073 148.501 138.074 151.685L118.934 151.689L118.912 142.124Z" fill="#C06235"/>
<path d="M109.349 161.213C112.546 161.266 115.747 161.18 118.942 161.227L138.071 161.228C141.26 161.22 144.456 161.174 147.645 161.23L147.648 172.15C147.649 175.323 147.722 178.512 147.639 181.684C147.601 184.866 147.635 188.051 147.641 191.234L109.376 191.229C109.305 188.053 109.369 184.864 109.358 181.686C109.297 179.197 109.354 176.698 109.336 174.208C109.396 169.877 109.329 165.543 109.349 161.213Z" fill="#A54F38"/>
<path d="M118.941 161.226L138.069 161.227C138.053 164.861 138.018 168.502 138.068 172.135L118.951 172.131C118.841 168.509 118.94 164.851 118.941 161.226Z" fill="#151619"/>
<path d="M109.35 161.212C112.547 161.266 115.746 161.18 118.941 161.226C118.941 164.851 118.843 168.51 118.952 172.131C118.918 174.064 118.911 175.995 118.929 177.928C118.931 179.175 118.888 180.442 118.945 181.687L109.358 181.685C109.297 179.197 109.354 176.699 109.336 174.208C109.396 169.877 109.33 165.543 109.35 161.212Z" fill="#E5EAEA"/>
<path d="M138.07 161.228C141.259 161.22 144.455 161.174 147.644 161.23L147.647 172.149C147.649 175.322 147.722 178.512 147.639 181.684L138.069 181.686C138.06 178.505 138.138 175.315 138.068 172.135C138.018 168.502 138.054 164.861 138.07 161.228Z" fill="#E5EAEA"/>
<path d="M118.952 172.131L138.071 172.135C138.139 175.315 138.061 178.505 138.07 181.686L118.945 181.687C118.888 180.442 118.931 179.175 118.929 177.928C118.911 175.995 118.918 174.064 118.952 172.131Z" fill="#C5CACA"/>
<path d="M79.2791 151.692L90.2121 151.698C90.2148 154.87 90.1693 158.05 90.2235 161.221L90.216 172.151C86.5975 172.014 82.9202 172.134 79.2962 172.138C79.1796 165.328 79.2955 158.504 79.2791 151.692Z" fill="#A54F38"/>
<path d="M166.792 151.698L177.709 151.678L177.719 172.143L170.495 172.131C169.261 172.13 167.997 172.185 166.767 172.122C166.889 168.512 166.768 164.856 166.785 161.241L166.792 151.698Z" fill="#A54F38"/>
<path d="M90.2262 161.221C92.9868 161.322 95.7803 161.223 98.5448 161.223C102.142 161.224 105.755 161.298 109.351 161.212C109.331 165.543 109.398 169.877 109.338 174.208C109.209 173.554 109.271 172.831 109.278 172.165C106.847 172.071 104.391 172.134 101.959 172.133L90.2188 172.15L90.2262 161.221Z" fill="#C06235"/>
<path d="M147.649 172.149C154.021 172.096 160.397 172.208 166.768 172.122L166.783 181.688L154.256 181.677C152.055 181.677 149.84 181.627 147.641 181.684C147.724 178.512 147.65 175.322 147.649 172.149Z" fill="#A54F38"/>
<path d="M90.2178 172.15L101.957 172.133C104.39 172.134 106.846 172.071 109.277 172.165C109.27 172.831 109.207 173.554 109.336 174.208C109.355 176.699 109.298 179.196 109.358 181.685C102.996 181.547 96.6009 181.679 90.2353 181.684C90.1596 178.511 90.2257 175.324 90.2178 172.15Z" fill="#A54F38"/>
<path d="M60.1406 181.692L69.7138 181.677C69.7087 184.851 69.6106 188.058 69.7221 191.229L60.1476 191.241L60.1406 181.692Z" fill="#76757F"/>
<path d="M69.7028 142.132C72.8919 142.154 76.1003 142.057 79.2865 142.147C79.2824 145.325 79.2195 148.515 79.2807 151.693C76.1072 151.587 72.9033 151.68 69.7265 151.684C69.6554 148.506 69.7144 145.312 69.7028 142.132Z" fill="#A54F38"/>
<path d="M177.744 142.137L187.288 142.141L187.287 151.689L177.706 151.678C177.815 148.502 177.628 145.314 177.744 142.137Z" fill="#A54F38"/>
<path d="M187.293 181.687L196.863 181.677C196.857 184.851 196.757 188.06 196.871 191.23L187.298 191.24L187.293 181.687Z" fill="#76757F"/>
<path d="M41 132.706C43.0594 132.705 45.1185 132.644 47.1779 132.624C48.1496 132.614 49.1766 132.544 50.1431 132.643C50.3139 132.387 50.2244 133.129 50.2285 133.496C50.4075 149.565 50.4653 165.666 50.3732 181.735C50.2094 183.207 50.3813 185.037 50.3862 186.541C50.4011 191.205 50.5694 195.869 50.5451 200.531C52.2247 200.411 53.9882 200.553 55.6757 200.589C59.1086 200.69 62.5423 200.747 65.9764 200.756L191.005 200.714C196.114 200.67 201.213 200.537 206.322 200.581C206.178 198.414 206.335 196.138 206.342 193.956L206.429 178.256C206.318 163.047 206.319 147.838 206.436 132.629C209.624 132.679 212.813 132.678 216 132.625V201.369C212.81 201.394 209.62 201.409 206.43 201.369L205.746 201.454L206.43 200.773C206.43 202.477 206.403 205.46 206.43 207.506C206.439 208.188 206.403 208.856 206.43 209.551C206.44 209.807 206.43 210.659 206.43 210.914C206.088 210.914 174.472 210.914 170.883 210.914H54.8428C53.577 210.921 51.8521 211 50.5703 211C50.3994 210.659 51.1685 210.914 50.5451 210.914C50.249 209.466 50.4451 202.212 50.4451 201.405C49.2053 201.405 47.6769 201.403 46.4688 201.405H42.7944C42.1927 201.403 41.5981 201.405 41 201.405V132.706Z" fill="#75757F"/>
<path d="M41 55.6365C44.1603 55.6644 47.4163 55.7618 50.5655 55.5455C50.4191 58.2355 50.5939 60.946 50.5703 63.6421C50.5523 65.7011 50.5703 68.1591 50.5703 70.375V129.863C50.5694 131.309 50.5703 131.851 50.5703 133.273C50.1431 133.273 50.3642 133.273 50.1431 133.273C49.2031 133.273 48.0923 133.273 47.1524 133.273C45.1016 133.273 43.0508 133.273 41 133.273V55.6365Z" fill="#8D8F91"/>
</svg>