<svg width="256" height="256" title="Neon" viewBox="0 0 256 256" fill="none" xmlns="http://www.w3.org/2000/svg" id="neon">
<style>
#neon {
    rect {fill: #15191C}

    @media (prefers-color-scheme: light) {
        rect {fill: #F4F2ED}
    }
}
</style>
<rect width="256" height="256" rx="40" fill="#15191C"/>
<path fill-rule="evenodd" clip-rule="evenodd" d="M58 86.7931C58 73.6525 68.8069 63 82.138 63H173.862C187.193 63 198 73.6525 198 86.7931V163.69C198 177.285 180.547 183.185 172.083 172.452L145.621 138.897V179.586C145.621 191.413 135.895 201 123.897 201H82.138C68.8069 201 58 190.347 58 177.207V86.7931ZM82.138 82.0345C79.4718 82.0345 77.3104 84.165 77.3104 86.7931V177.207C77.3104 179.835 79.4718 181.965 82.138 181.965H124.621C125.954 181.965 126.31 180.9 126.31 179.586V125.022C126.31 111.428 143.763 105.527 152.228 116.26L178.69 149.815V86.7931C178.69 84.165 178.942 82.0345 176.276 82.0345H82.138Z" fill="#32C0ED"/>
<path fill-rule="evenodd" clip-rule="evenodd" d="M58 86.7931C58 73.6525 68.8069 63 82.138 63H173.862C187.193 63 198 73.6525 198 86.7931V163.69C198 177.285 180.547 183.185 172.083 172.452L145.621 138.897V179.586C145.621 191.413 135.895 201 123.897 201H82.138C68.8069 201 58 190.347 58 177.207V86.7931ZM82.138 82.0345C79.4718 82.0345 77.3104 84.165 77.3104 86.7931V177.207C77.3104 179.835 79.4718 181.965 82.138 181.965H124.621C125.954 181.965 126.31 180.9 126.31 179.586V125.022C126.31 111.428 143.763 105.527 152.228 116.26L178.69 149.815V86.7931C178.69 84.165 178.942 82.0345 176.276 82.0345H82.138Z" fill="url(#linearGradient1)"/>
<path fill-rule="evenodd" clip-rule="evenodd" d="M58 86.7931C58 73.6525 68.8069 63 82.138 63H173.862C187.193 63 198 73.6525 198 86.7931V163.69C198 177.285 180.547 183.185 172.083 172.452L145.621 138.897V179.586C145.621 191.413 135.895 201 123.897 201H82.138C68.8069 201 58 190.347 58 177.207V86.7931ZM82.138 82.0345C79.4718 82.0345 77.3104 84.165 77.3104 86.7931V177.207C77.3104 179.835 79.4718 181.965 82.138 181.965H124.621C125.954 181.965 126.31 180.9 126.31 179.586V125.022C126.31 111.428 143.763 105.527 152.228 116.26L178.69 149.815V86.7931C178.69 84.165 178.942 82.0345 176.276 82.0345H82.138Z" fill="url(#linearGradient2)" fill-opacity="0.35"/>
<path d="M173.862 63C187.193 63 198 73.6525 198 86.7931V163.69C198 177.285 180.547 183.185 172.083 172.452L145.621 138.897V179.586C145.621 191.413 135.895 201 123.897 201C125.23 201 126.311 199.935 126.311 198.621L126.31 125.022C126.31 111.428 143.763 105.527 152.228 116.26L178.69 149.815L178.69 67.7586C178.69 65.1305 176.528 63 173.862 63Z" fill="#63F655"/>
<linearGradient id="linearGradient1" x1="198" y1="201" x2="76.8908" y2="61.2716" gradientUnits="userSpaceOnUse">
<stop stop-color="#2EF51C"/>
<stop offset="1" stop-color="#2EF51C" stop-opacity="0"/>
</linearGradient>
<linearGradient id="linearGradient2" x1="198" y1="201" x2="115.163" y2="168.312" gradientUnits="userSpaceOnUse">
<stop stop-opacity="0.9"/>
<stop offset="1" stop-color="#1A1A1A" stop-opacity="0"/>
</linearGradient>
</svg>