<svg width="256" height="256" title="Auth.js" viewBox="0 0 256 256" fill="none" xmlns="http://www.w3.org/2000/svg" id="authjs">
<style>
#authjs {
    rect {fill: #15191C}

    @media (prefers-color-scheme: light) {
        rect {fill: #F4F2ED}
    }
}
</style>
<rect width="256" height="256" rx="40" fill="#15191C"/>
<path fill-rule="evenodd" clip-rule="evenodd" d="M202.658 67.8642L74.5821 165.374C58.8546 136.837 53.407 102.412 53 81.7643V69.1266C53 67.2884 54.9928 66.2163 55.9894 65.9097C77.0685 59.5527 119.871 46.6544 122.446 45.9191C125.022 45.1838 127.198 45 127.966 45H128.035C128.802 45 130.978 45.1838 133.554 45.9191C136.129 46.6544 178.932 59.5527 200.011 65.9097C200.752 66.1377 202.045 66.7893 202.658 67.8642Z" fill="url(#linearGradient1)"/>
<path fill-rule="evenodd" clip-rule="evenodd" d="M74.5815 165.534L202.657 68.0239C202.869 68.3947 203 68.8152 203 69.2863V81.924C202.31 116.927 187.133 191.528 131.944 209.91C131.178 210.216 129.368 210.829 128.265 210.829H127.735C126.631 210.829 124.822 210.216 124.055 209.91C101.421 202.371 85.5163 185.376 74.5815 165.534Z" fill="url(#linearGradient2)"/>
<path d="M133.133 45.9209C130.557 45.1842 128.379 45 127.611 45L127.381 211H127.841C128.946 211 130.756 210.386 131.523 210.079C186.739 191.66 201.924 116.91 202.613 81.8378V69.1748C202.613 67.3329 200.62 66.2585 199.622 65.9515C178.533 59.5816 135.71 46.6577 133.133 45.9209Z" fill="url(#linearGradient3)" fill-opacity="0.21"/>
<path d="M128.232 161.039C147.164 161.039 162.512 145.783 162.512 126.964C162.512 108.145 147.164 92.8891 128.232 92.8891C109.299 92.8891 93.9516 108.145 93.9516 126.964C93.9516 145.783 109.299 161.039 128.232 161.039Z" fill="#E3E2FA"/>
<path fill-rule="evenodd" clip-rule="evenodd" d="M122.02 134.332C119.413 134.562 112.817 133.411 109.597 130.648C106.138 127.681 104.305 123.741 104.305 117.985C104.305 110.844 110.747 103.25 119.72 103.48C128.242 103.699 133.99 108.506 135.134 116.143C135.731 120.128 135.123 122.044 134.649 123.531C134.576 123.763 134.506 123.984 134.444 124.201C134.214 124.969 133.892 126.642 134.444 127.194C134.996 127.747 143.416 135.867 147.558 139.857C147.941 140.318 148.708 141.469 148.708 142.39V146.764C148.708 147.455 148.524 147.685 147.788 147.685H138.585C138.049 147.608 136.974 147.087 136.974 145.613C136.974 144.042 136.807 143.811 136.472 143.348C136.415 143.269 136.352 143.182 136.284 143.081C135.824 142.39 134.904 142.39 133.984 142.39C133.064 142.39 132.373 142.159 131.913 141.699C131.453 141.238 131.453 140.548 131.683 139.627C131.913 138.706 131.683 137.785 131.223 137.555C131.15 137.518 131.065 137.47 130.97 137.415C130.465 137.128 129.659 136.67 128.692 136.864C127.542 137.095 125.931 136.864 125.011 135.944C124.091 135.022 122.94 134.279 122.02 134.332ZM115.808 116.834C117.714 116.834 119.259 115.288 119.259 113.38C119.259 111.473 117.714 109.927 115.808 109.927C113.902 109.927 112.357 111.473 112.357 113.38C112.357 115.288 113.902 116.834 115.808 116.834Z" fill="url(#linearGradient4)"/>
<linearGradient id="linearGradient1" x1="67.0662" y1="140.568" x2="141.453" y2="84.098" gradientUnits="userSpaceOnUse">
<stop stop-color="#45FFC8"/>
<stop offset="1" stop-color="#1DBBF1"/>
</linearGradient>
<linearGradient id="linearGradient2" x1="89.5989" y1="138.136" x2="170.628" y2="177.74" gradientUnits="userSpaceOnUse">
<stop stop-color="#D14AE8"/>
<stop offset="0.552228" stop-color="#B628E3"/>
<stop offset="1" stop-color="#8315FD"/>
</linearGradient>
<linearGradient id="linearGradient3" x1="127.631" y1="60.6561" x2="127.631" y2="176.004" gradientUnits="userSpaceOnUse">
<stop stop-color="#20ABF5"/>
<stop offset="0.398093" stop-color="#2A8CC3"/>
<stop offset="1" stop-color="#A104DC"/>
</linearGradient>
<linearGradient id="linearGradient4" x1="117.649" y1="116.373" x2="145.738" y2="144.672" gradientUnits="userSpaceOnUse">
<stop stop-color="#FE5B01"/>
<stop offset="1" stop-color="#FFB200"/>
</linearGradient>
</svg>