<svg width="256" height="256" title="NGINX" viewBox="0 0 256 256" fill="none" xmlns="http://www.w3.org/2000/svg">
<rect width="256" height="256" rx="40" fill="#009639"/>
<path d="M128 41L53 84.29V170.87L128 214.16L203 170.87V84.29L128 41ZM171.29 160.697C171.29 165.784 166.629 170.004 160.258 170.004C155.706 170.004 150.511 168.165 147.264 164.16L103.974 112.638V160.69C103.974 165.892 99.8615 169.997 94.7821 169.997H94.2338C89.0317 169.997 84.9264 165.668 84.9264 160.69V94.4632C84.9264 89.3766 89.4719 85.1558 95.7489 85.1558C100.41 85.1558 105.706 86.9957 108.952 91L152.026 142.522V94.4632C152.026 89.2612 156.355 85.1558 161.333 85.1558H161.874C167.069 85.1558 171.182 89.4848 171.182 94.4632V160.697H171.29Z" fill="white"/>
</svg>