<svg width="256" height="256" title="Niri" viewBox="0 0 256 256" fill="none" xmlns="http://www.w3.org/2000/svg">
<rect width="256" height="256" rx="40" fill="#15191C"/>
<path d="M156.979 195C156.979 202 153.474 209 128.938 209C104.402 209 100.897 202 100.897 195C100.897 184.5 107.907 177.5 128.938 177.5C149.969 177.5 156.979 184.5 156.979 195Z" fill="#D55C44"/>
<path d="M100.897 48C114.918 48 171 90 171 125C171 148.623 159.912 158.959 150.208 163.482C142.857 166.908 140.821 162.339 144.909 155.306C147.656 150.58 149.969 144.861 149.969 139C149.969 128.5 146.464 121.5 139.454 114.5C132.443 107.5 123.439 104 118.423 104C111.412 104 107.907 124.575 107.907 135.5C107.907 144.206 110.51 152.045 113.125 157.726C115.592 163.083 113.527 166.763 107.995 164.732C101.951 162.512 94.7036 158.132 90.3814 149.5C83.3711 135.5 86.8763 115.353 86.8763 97C86.8763 69 86.8763 48 100.897 48Z" fill="#D55C44"/>
</svg>