<svg width="256" height="256" title="Nitro" viewBox="0 0 256 256" fill="none" xmlns="http://www.w3.org/2000/svg" id="nitro">
<style>
#nitro {
    rect {fill: #15191C}

    @media (prefers-color-scheme: light) {
        rect {fill: #F4F2ED}
    }
}
</style>
<rect width="256" height="256" rx="40" fill="#15191C"/>
<path fill-rule="evenodd" clip-rule="evenodd" d="M188.861 76.0801C160.186 42.4674 109.693 38.4643 76.0801 67.1388C42.4674 95.8134 38.4643 146.307 67.1388 179.92C95.8134 213.532 146.307 217.535 179.92 188.861C213.533 160.187 217.536 109.693 188.861 76.0801ZM149.006 118.069C152.089 118.069 154.057 121.409 152.51 124.076L152.065 124.843L121.874 174.515C121.313 175.438 120.311 176.001 119.231 176.001H116.349C114.375 176.001 112.931 174.137 113.425 172.225L121.618 140.552C122.272 138.019 120.361 135.55 117.745 135.55H105.162C102.546 135.55 100.635 133.081 101.289 130.549L113.651 82.7309C114.101 81.1216 115.558 79.9887 117.229 80.0077C117.431 80.01 117.615 80.0133 117.767 80.0181L130.439 80.0179C132.864 80.0168 134.732 82.1551 134.405 84.5572L134.327 85.1291L129.494 113.395C129.077 115.838 130.958 118.069 133.437 118.069H149.006Z" fill="url(#radialGradient)"/>
<radialGradient id="radialGradient" cx="0" cy="0" r="1" gradientUnits="userSpaceOnUse" gradientTransform="translate(64 128) scale(156 1590.81)">
<stop stop-color="#31B2F3"/>
<stop offset="0.473958" stop-color="#F27CEC"/>
<stop offset="1" stop-color="#FD6641"/>
</radialGradient>
</svg>