<svg width="256" height="256" title="Nodemon" viewBox="0 0 256 256" fill="none" xmlns="http://www.w3.org/2000/svg">
<rect width="256" height="256" rx="40" fill="#76D04B"/>
<path d="M189.494 102.414L185.235 99.9587C191.784 90.2857 195.699 75.7426 190.791 54C190.791 54 179.738 85.0152 157.517 83.9871L131.5 68.9979C130.528 68.4288 129.431 68.1099 128.307 68.0699H127.707C126.58 68.1116 125.48 68.4303 124.504 68.9979L98.4851 83.9871C76.2656 85.0192 65.2091 54 65.2091 54C60.2975 75.7418 64.2189 90.2849 70.7669 99.9587L66.5088 102.414C65.4403 103.031 64.5533 103.919 63.9372 104.989C63.3212 106.059 62.9979 107.273 63 108.508L63.128 198.482C63.128 199.738 63.7774 200.901 64.878 201.511C65.4023 201.83 66.004 201.999 66.6175 201.999C67.231 201.999 67.8328 201.83 68.3571 201.511L102.824 181.752C105.005 180.456 106.331 178.167 106.331 175.667V133.633C106.331 131.128 107.657 128.804 109.829 127.562L124.505 119.1C125.571 118.477 126.783 118.15 128.017 118.153C129.211 118.153 130.438 118.463 131.501 119.1L146.173 127.562C147.239 128.176 148.124 129.06 148.739 130.126C149.354 131.192 149.677 132.402 149.675 133.633V175.667C149.675 178.168 151.019 180.474 153.187 181.753L187.644 201.512C188.173 201.831 188.778 202 189.396 202C190.013 202 190.618 201.831 191.147 201.512C191.677 201.205 192.117 200.763 192.423 200.231C192.728 199.7 192.889 199.097 192.887 198.483L193 108.509C192.997 105.98 191.672 103.661 189.494 102.414Z" fill="#4F4D3F"/>
</svg>