<svg width="256" height="256" title="Notepad++" viewBox="0 0 256 256" fill="none" xmlns="http://www.w3.org/2000/svg" id="notepadpp">
<style>
#notepadpp {
    rect {fill: #15191C}

    @media (prefers-color-scheme: light) {
        rect {fill: #F4F2ED}
    }
}
</style>
<rect width="256" height="256" rx="40" fill="#15191C"/>
<path d="M87.7996 92.1913C92.6176 87.43 99.5329 86.1263 105.825 84.1424C113.023 83.7456 120.222 85.9562 126.741 88.9604C129.575 90.0941 129.405 93.4383 130.028 95.9891C127.988 96.4425 125.947 96.8393 123.907 97.3495C124.813 95.9324 125.664 94.572 126.514 93.1549C126.457 91.7945 124.87 91.2844 124.077 90.3208L120.846 92.5314L118.635 90.6609C116.651 90.9443 114.497 91.2277 112.627 90.1507C109.452 88.7337 106.051 87.6567 102.537 87.9968C100.95 88.677 99.703 89.924 98.3993 91.001C98.3993 90.4342 98.456 89.3005 98.456 88.7337C97.7191 89.5839 96.9822 90.4342 96.302 91.3411C91.4273 91.8512 89.16 96.896 90.237 101.261C89.2167 102.054 88.1397 102.904 87.1194 103.698C88.2531 101.487 89.2167 99.0499 87.913 96.6693C84.2853 97.7462 84.0018 101.714 82.358 104.548C80.6576 107.666 77.7667 110.046 76.4064 113.334C76.293 115.148 76.5764 116.905 76.7464 118.719C75.3861 118.322 74.0257 117.982 72.722 117.585C76.1229 108.346 80.2608 98.8232 87.7996 92.1913Z" fill="#90E59A"/>
<path d="M98.3993 91.0577C99.7597 89.9807 100.95 88.677 102.537 88.0535C106.051 87.7134 109.452 88.7904 112.627 90.2074C112.173 92.1913 111.493 94.1185 110.586 95.9324C107.865 94.5153 105.145 92.9849 102.594 91.3411L104.124 94.402C103.557 95.1955 102.934 95.9324 102.367 96.7259C101.233 95.2522 100.1 93.7784 99.0228 92.248C98.626 94.4586 96.9822 96.1024 94.7149 94.8554C95.225 93.6651 95.7352 92.5314 96.2453 91.3978C96.9255 90.4908 97.6624 89.6406 98.3993 88.7904C98.456 89.3005 98.3993 90.4342 98.3993 91.0577Z" fill="#5CCE74"/>
<path d="M112.627 90.1507C114.497 91.2277 116.594 90.9443 118.635 90.6609L120.846 92.5314L124.077 90.3208C124.813 91.2844 126.457 91.7945 126.514 93.1549C125.72 94.572 124.813 95.9891 123.907 97.3495C123.396 97.4628 122.376 97.6895 121.923 97.8596C122.943 99.1066 123.963 100.354 124.984 101.544C120.676 101.771 117.558 98.8232 114.27 96.6693C111.266 97.1227 109.112 100.354 105.995 100.694C104.464 100.014 103.047 99.1066 101.63 98.1997C101.12 99.8435 100.78 101.544 99.8164 102.961C98.3993 103.925 96.5854 103.925 94.9416 104.378C94.9983 105.115 95.1117 105.909 95.1684 106.645C93.4112 104.945 91.2572 103.358 88.7632 104.491C90.5771 106.362 87.8563 107.099 86.6093 107.949C84.1719 109.31 81.4511 111.067 81.1677 114.128C80.4875 115.885 81.2244 118.606 79.2405 119.569C76.9165 120.193 74.5358 119.796 72.2118 119.739C72.3819 119.172 72.6653 118.095 72.8353 117.529C74.1957 117.925 75.5561 118.265 76.8598 118.662C76.6331 116.848 76.3497 115.091 76.5197 113.277C77.8801 109.99 80.7709 107.609 82.4714 104.491C84.1152 101.657 84.3986 97.6896 88.0263 96.6126C89.33 98.9933 88.3664 101.431 87.2328 103.641C88.2531 102.791 89.2733 101.997 90.3503 101.204C89.2733 96.8393 91.5407 91.7945 96.4154 91.2844C95.9052 92.4181 95.3951 93.6084 94.8849 94.742C97.0956 95.9891 98.7961 94.3453 99.1928 92.1346C100.27 93.6651 101.403 95.1388 102.537 96.6126C103.104 95.819 103.671 95.0821 104.294 94.2886L102.764 91.2277C105.371 92.8715 108.035 94.3453 110.756 95.819C111.493 94.1185 112.173 92.1913 112.627 90.1507ZM90.0102 126.201C91.2572 126.428 92.4476 126.654 93.6946 126.938C92.2775 130.736 90.2936 134.59 90.5204 138.785C91.2572 141.505 93.5246 143.546 95.225 145.757C92.731 146.493 89.2733 145.927 87.5729 148.251C86.5526 152.785 90.6904 155.393 93.3545 158.17C89.5001 156.753 85.1922 154.712 83.8318 150.461C85.7023 148.137 88.0263 146.267 90.4637 144.453C86.9494 139.125 85.4189 131.302 90.0102 126.201ZM129.291 135.78C130.198 136.574 131.162 137.368 132.069 138.104C132.182 139.635 132.296 141.222 132.352 142.752C130.765 140.712 129.348 138.501 129.291 135.78ZM153.438 136.971C154.402 135.61 156.046 135.724 157.066 136.914C158.993 139.408 160.07 142.356 161.374 145.19C163.018 145.303 164.661 145.416 166.249 145.53C163.018 146.72 159.957 148.534 159.503 152.275C158.143 150.348 160.127 148.591 160.92 146.834C159.107 143.036 154.685 141.109 153.438 136.971ZM107.185 139.408L108.149 138.898C108.319 141.449 109.509 144.396 107.639 146.55C105.768 146.38 103.954 146.267 102.14 145.927C104.578 144.339 106.392 142.356 107.185 139.408ZM132.352 142.809C133.713 144.623 135.243 146.21 136.944 147.684C138.757 145.587 142.782 142.242 144.426 146.21C141.705 147.514 138.304 148.477 137.397 151.765C137.397 151.878 137.34 152.048 137.34 152.162C137.737 155.053 138.814 157.83 139.664 160.607C133.429 156.583 137.17 147.911 132.352 142.809ZM166.249 143.603C168.913 143.886 171.747 144.51 173.787 146.493C171.237 146.323 168.629 146.437 166.249 145.53V143.603ZM159.56 158.227C162.791 159.644 165.965 161.174 169.366 162.308C171.293 161.514 174.014 157.263 175.601 160.381C173.107 162.648 169.65 164.972 166.135 164.178C163.414 162.875 161.657 160.267 159.56 158.227ZM69.6044 158.737C70.2279 158.85 71.4183 159.02 72.0985 159.077C74.8192 165.369 74.9326 172.681 78.6737 178.576C80.8276 182.09 82.5848 185.775 84.6254 189.346C86.7793 193.03 90.3503 195.524 93.6946 198.075C100.837 203.346 112.627 202.553 117.671 194.787C120.902 187.872 116.878 180.56 114.1 174.211C109.339 166.729 96.9255 172.397 97.2656 180.56C95.8486 172.454 106.222 165.596 113.137 169.733C118.068 172.908 119.429 178.916 121.356 184.074C123.623 190.253 120.279 197.565 114.441 200.285C109.906 203.176 104.351 202.043 99.3062 202.043C92.3909 201.703 87.913 196.091 83.435 191.613C79.0704 186.285 76.2363 179.936 72.8353 173.928C71.0215 169.11 70.0012 163.952 69.6044 158.737ZM106.335 179.483C107.128 180.39 107.752 181.41 108.545 182.374C106.618 184.868 103.501 184.754 100.723 184.358C99.5896 183.111 98.3993 181.864 97.2656 180.616C99.9864 182.26 103.047 185.605 106.448 183.507C106.335 182.147 106.335 180.843 106.335 179.483Z" fill="#75D66F"/>
<path d="M105.881 100.694C108.999 100.354 111.153 97.1227 114.157 96.6693C117.501 98.8799 120.619 101.771 124.87 101.544C123.85 100.297 122.83 99.0499 121.809 97.8596C122.319 97.7462 123.34 97.4628 123.793 97.3495C125.834 96.8393 127.874 96.4425 129.915 95.9891C130.425 97.9163 130.935 99.9002 131.559 101.827C130.595 102.791 129.631 103.811 128.611 104.775C130.708 107.666 132.636 110.727 134.733 113.617C139.098 112.427 141.875 116.622 143.802 119.909C139.891 119.682 135.47 119.626 132.409 116.792C130.538 115.091 128.725 113.334 126.741 111.69L123.17 112.71C122.206 110.387 121.639 107.326 118.692 106.759C118.918 107.949 119.202 109.083 119.429 110.273C117.671 111.293 115.744 111.747 113.76 111.18C114.554 109.536 115.404 107.949 116.254 106.305C113.817 106.079 112.4 108.176 111.04 109.82C110.756 108.969 110.473 108.119 110.246 107.269C109.339 107.156 108.489 106.929 107.582 106.872C106.278 107.156 105.768 109.026 104.351 109.083C102.027 108.856 99.8163 107.892 97.4357 107.779C94.6015 108.176 91.9374 109.423 89.16 110.216C88.2531 109.48 87.2894 108.743 86.3825 108.006C87.6295 107.099 90.407 106.419 88.5365 104.548C91.0872 103.415 93.1845 105.002 94.9416 106.702C94.8849 105.965 94.7716 105.172 94.7149 104.435C96.3587 104.038 98.1159 103.981 99.5896 103.018C100.553 101.601 100.893 99.8435 101.403 98.2564C102.934 99.1066 104.351 100.014 105.881 100.694Z" fill="#8FE772"/>
<path d="M128.668 104.775C129.632 103.811 130.595 102.791 131.615 101.827C132.579 104.718 133.826 107.666 136.263 109.593C140.345 112.71 144.596 116.111 149.697 117.302C154.232 118.152 159.22 117.642 163.131 115.034C166.532 111.974 168.119 107.496 171.633 104.548C174.921 106.192 178.605 106.929 181.78 108.799C185.067 110.897 186.654 114.638 188.638 117.869C186.484 118.265 184.387 118.719 182.233 119.172C183.027 120.533 183.877 121.95 184.727 123.31C184.16 124.16 183.594 125.011 183.083 125.918C182.006 124.217 180.986 122.517 179.966 120.816C177.642 121.383 175.431 122.29 173.447 123.537L174.128 126.768C169.139 124.217 163.811 126.768 159.333 129.262C157.973 129.999 156.556 130.849 155.195 131.586C152.361 130.055 149.584 128.468 146.58 127.278C145.389 129.205 143.972 131.076 142.555 132.89C142.045 131.416 141.478 129.942 141.025 128.412C140.515 128.468 139.494 128.638 138.984 128.695C138.757 130.792 138.814 132.89 139.098 134.987C137.737 134.817 136.32 134.647 134.96 134.477C135.583 131.643 136.32 128.865 136.887 125.974C136.207 126.031 134.79 126.144 134.109 126.201C131.785 129.772 131.672 134.08 132.126 138.218C131.162 137.424 130.255 136.631 129.348 135.894C129.461 132.946 129.858 130.055 130.085 127.108C127.024 125.804 125.777 129.319 125.21 131.586C123.51 131.019 121.809 130.509 120.165 129.885C116.368 128.695 113.874 125.351 110.189 123.877C108.262 123.083 106.845 121.496 105.371 120.079C105.201 120.646 104.861 121.78 104.748 122.347C106.222 124.841 106.222 128.072 103.331 129.602C102.424 129.489 100.61 129.262 99.6463 129.092C102.707 132.209 107.185 132.776 111.21 133.853L108.942 135.44C105.088 134.193 100.893 134.08 97.2656 132.096C97.1523 130.622 96.9822 129.092 96.8688 127.618C95.7919 127.391 94.7716 127.221 93.6946 126.995C92.4476 126.768 91.2572 126.541 90.0102 126.258C89.1033 125.181 88.083 123.31 86.4392 124.274C85.1355 125.464 84.0585 126.881 82.8115 128.185C82.0746 127.165 81.2811 126.144 80.5442 125.124C74.9893 125.804 75.4427 132.493 71.8717 135.497C69.6044 137.141 69.7178 140.258 67.6205 142.072C67.3371 139.521 67.1671 137.027 67.4505 134.477C68.5841 129.999 70.568 125.804 71.7017 121.27C71.815 120.929 71.9851 120.193 72.0985 119.796C74.4225 119.909 76.8598 120.249 79.1271 119.626C81.111 118.662 80.3175 115.941 81.0543 114.184C81.3944 111.123 84.0585 109.366 86.4959 108.006C87.4028 108.743 88.3664 109.48 89.2733 110.216C92.0508 109.366 94.7149 108.176 97.549 107.779C99.9297 107.892 102.14 108.856 104.464 109.083C105.881 109.026 106.335 107.156 107.695 106.872C108.602 106.929 109.452 107.156 110.359 107.269C110.643 108.119 110.926 108.969 111.153 109.82C112.57 108.176 113.93 106.079 116.368 106.305C115.517 107.949 114.724 109.536 113.874 111.18C115.858 111.747 117.785 111.237 119.542 110.273C119.259 109.083 119.032 107.949 118.805 106.759C121.753 107.269 122.319 110.33 123.283 112.71L126.854 111.69C128.781 113.334 130.652 115.091 132.522 116.792C135.583 119.626 140.004 119.682 143.916 119.909C142.045 116.678 139.211 112.427 134.846 113.617C132.749 110.727 130.765 107.666 128.668 104.775Z" fill="#A9F37E"/>
<path d="M182.29 119.172C184.444 118.719 186.541 118.322 188.695 117.869C189.375 119.342 189.942 120.816 190.509 122.29C184.614 128.185 175.941 129.715 168.176 131.529C164.945 132.493 161.941 130.792 159.277 129.262C163.755 126.825 169.083 124.217 174.071 126.768L173.391 123.537C175.431 122.29 177.642 121.383 179.909 120.816C180.929 122.517 182.006 124.217 183.027 125.918C183.537 125.067 184.104 124.16 184.671 123.31C183.934 121.95 183.083 120.533 182.29 119.172Z" fill="#87DE71"/>
<path d="M139.438 105.909L139.324 106.589C144.199 111.463 151.454 114.468 158.256 112.484C160.864 111.067 163.471 109.31 164.718 106.532C168.969 97.7462 169.706 87.3733 166.815 78.0773C164.208 76.2068 161.714 74.0528 160.184 71.2187C157.066 66.9108 151.908 62.3762 146.24 64.4168C140.458 65.2103 136.377 70.3118 134.79 75.6399C132.636 82.4419 131.899 90.1507 134.846 96.8393C135.413 100.184 136.037 104.321 139.438 105.909ZM150.321 89.1871C151.568 92.8715 149.527 97.973 144.993 98.0297C142.952 96.6126 140.118 95.3089 140.571 92.3614C139.778 86.9198 147.146 87.0899 150.321 89.1871Z" fill="#FBFDFC"/>
<path d="M188.468 110.613C191.076 107.836 194.25 105.682 197.027 103.131C201.789 96.1591 205.813 86.9198 202.186 78.5308C200.938 72.9759 194.477 71.0486 189.432 71.6722C182.8 72.8058 175.488 75.1865 171.974 81.4783C172.087 87.6 173.051 93.7218 171.804 99.7868C178.265 101.487 185.294 104.321 188.468 110.613ZM193.23 84.8226C194.533 84.5391 195.894 84.1991 197.197 83.8023C198.671 86.0696 198.614 89.3005 197.821 91.7945C195.214 94.3453 191.472 91.7379 190.395 88.9604C191.359 87.5433 192.323 86.1829 193.23 84.8226Z" fill="#FBFDFC"/>
<path d="M166.249 143.603C166.305 143.659 166.305 143.659 166.249 143.603Z" fill="#231F20"/>
<path d="M54.0166 147.344C53.3931 148.761 52.6563 150.235 51.9194 151.595C52.5429 153.409 53.5065 155.109 54.6402 156.64C54.9803 156.47 55.6604 156.186 55.9439 156.073C53.5065 153.239 55.4337 149.838 57.0208 147.117C56.0005 147.287 54.9803 147.344 54.0166 147.344Z" fill="white"/>
<path d="M61.102 148.421L60.8753 147.797C60.7619 148.024 60.5919 148.477 60.5352 148.704L59.9117 149.441C59.7983 149.554 59.5716 149.838 59.5149 149.951C58.0411 151.198 58.3245 153.125 58.1545 154.826C58.3812 155.223 58.8914 156.073 59.1181 156.526C61.6688 158.057 61.1587 152.445 59.4015 152.332C60.4785 151.028 61.6688 149.781 62.0089 148.081L61.102 148.421Z" fill="white"/>
<path d="M144.993 98.0297C149.527 98.0297 151.511 92.8715 150.321 89.1871C147.146 87.0899 139.834 86.9198 140.571 92.3047C140.118 95.2522 142.952 96.6126 144.993 98.0297Z" fill="#231F20"/>
<path d="M197.821 91.7379C198.614 89.2438 198.671 86.0129 197.197 83.7456C195.894 84.1424 194.59 84.4825 193.23 84.7659C192.266 86.1263 191.359 87.4866 190.395 88.847C191.472 91.6812 195.157 94.2886 197.821 91.7379Z" fill="#231F20"/>
<path d="M195.327 146.55C189.489 145.53 183.594 146.493 177.755 146.38C175.148 144.623 172.597 142.582 169.366 142.356C168.346 142.809 167.326 143.206 166.305 143.603C168.969 143.886 171.747 144.51 173.787 146.437C171.237 146.267 168.629 146.38 166.249 145.473C163.018 146.663 159.957 148.477 159.503 152.218C158.143 150.291 160.127 148.534 160.92 146.777C159.107 142.979 154.742 140.995 153.438 136.914C154.402 135.554 156.046 135.667 157.066 136.857C158.993 139.351 160.07 142.299 161.374 145.133C163.018 145.246 164.661 145.36 166.249 145.473V143.603C165.455 143.943 164.605 144.283 163.811 144.68C162.394 141.562 161.204 138.388 160.184 135.157C162.111 135.61 163.981 136.291 165.908 136.687C174.751 135.327 184.217 133.57 191.132 127.448C192.606 125.974 195.214 124.671 194.76 122.233C194.59 120.986 194.193 119.796 193.626 118.719C192.663 116.678 191.302 114.808 190.452 112.654C192.436 111.917 194.477 111.18 196.404 110.273C203.319 103.528 206.777 93.8918 207.514 84.3691C206.833 79.3243 205.416 73.7694 201.505 70.1984C194.363 66.6274 185.974 67.761 178.719 70.3684C175.431 71.6721 173.051 74.3362 170.273 76.4902C168.062 75.98 166.702 73.4293 165.228 71.7288C162.394 66.9108 158.54 62.4895 153.268 60.3923C148.847 60.2222 143.802 59.0319 140.004 61.866C138.077 63.113 135.923 64.2467 134.563 66.2306C131.502 71.9556 129.745 78.304 129.235 84.7092C128.271 84.3124 127.308 83.9723 126.344 83.5755C119.599 81.0815 112.57 79.381 105.371 79.6077C100.383 80.5713 95.5085 82.0451 90.8605 84.1424C81.3944 89.0738 75.3861 98.7098 71.8717 108.516C69.7178 112.824 68.1873 117.358 67.3371 122.063C66.5435 126.314 64.8997 130.452 64.673 134.817C64.673 137.764 64.8997 140.712 64.8431 143.659C64.7297 143.716 64.5596 143.829 64.4463 143.886C61.3854 145.587 57.7577 145.53 54.3567 146.097C51.806 146.04 49.3687 144.793 46.8179 145.53H46.7612C44.0405 146.834 41.1496 147.57 38.4289 148.817C37.8054 152.672 37.1819 158 41.8298 159.474H46.8179C52.7129 159.474 58.5513 159.53 64.4463 159.587H65.8067C67.2237 166.956 68.6408 174.551 72.5519 181.07C77.1432 188.495 81.6778 196.261 88.6498 201.702C95.3384 206.18 103.784 206.35 111.436 204.99C114.327 204.65 116.368 202.383 118.975 201.306C120.562 200.342 122.943 200.115 123.51 198.075C128.725 189.572 124.757 179.086 119.995 171.321C116.991 165.992 110.416 164.915 104.861 165.142C101.574 165.652 99.5329 168.43 96.8688 170.13C93.978 171.887 91.1439 175.628 93.3545 179.029C95.225 182.6 97.549 187.362 102.31 187.078C105.315 186.738 109.282 186.058 110.586 182.94C111.153 179.143 106.675 177.329 103.671 176.649C103.841 178.519 104.011 180.333 104.181 182.204C102.65 181.127 101.063 180.106 99.4762 179.029C100.44 174.041 105.995 174.155 109.849 172.624C113.76 178.689 117.841 186.512 114.667 193.767C110.983 198.358 104.351 197.791 99.2495 196.601C92.561 195.581 88.083 189.572 85.1355 183.961C80.6576 176.195 75.216 167.863 76.1796 158.51C79.2972 158.454 82.4714 158.227 85.5323 158.567C88.5365 159.247 91.2006 161.854 94.4315 160.607C101.347 158.737 108.545 159.871 115.631 159.757C121.186 159.474 126.797 159.19 132.352 159.53C134.336 160.097 135.47 162.535 137.794 162.365C140.458 163.272 141.988 160.494 143.972 159.36C148.45 159.19 152.985 159.077 157.406 159.36C159.503 163.045 162.678 167.013 167.212 167.579C172.71 167.806 177.415 163.895 180.363 159.587C184.274 160.494 188.468 161.684 192.266 159.757C200.485 156.3 209.554 156.3 218 153.862V151.425C211.368 147.23 202.979 148.477 195.327 146.55ZM157.406 146.72C152.361 146.834 146.353 147.457 143.292 142.469C141.251 143.036 139.211 143.829 138.134 145.813C137.397 145.416 135.867 144.566 135.13 144.169C135.13 142.299 135.13 140.428 135.3 138.558H138.701C141.818 138.728 144.879 138.218 147.94 137.821C149.527 137.991 149.924 139.918 150.944 140.882C152.758 143.149 155.309 144.736 157.406 146.72ZM153.835 151.878C149.924 151.992 146.07 151.992 142.215 151.765C141.818 149.441 144.766 149.894 146.183 149.554C149.47 149.328 152.701 149.498 155.989 149.498C156.102 151.141 155.422 151.935 153.835 151.878ZM171.974 81.535C175.488 75.2432 182.8 72.8625 189.432 71.7288C194.477 71.1053 200.882 73.0325 202.186 78.5874C205.813 86.9198 201.789 96.1591 197.027 103.188C194.25 105.795 191.076 107.892 188.468 110.67C185.294 104.321 178.265 101.487 171.804 99.9002C172.994 93.7784 172.087 87.6 171.974 81.535ZM134.79 75.6399C136.377 70.3118 140.458 65.2103 146.24 64.4168C151.908 62.3762 157.123 66.9108 160.184 71.2187C161.771 74.1095 164.208 76.2068 166.815 78.0773C169.706 87.3733 168.969 97.7462 164.718 106.532C163.471 109.366 160.807 111.067 158.256 112.484C151.398 114.468 144.199 111.463 139.324 106.589L139.438 105.909C135.98 104.321 135.413 100.127 134.79 96.8393C131.899 90.1507 132.636 82.4419 134.79 75.6399ZM46.8179 157.66C44.7773 157.603 42.7934 157.49 40.7529 157.15C40.4128 155.223 39.5625 152.388 41.5464 151.085C43.587 149.951 45.0041 148.137 46.1944 146.153C46.4211 146.21 46.5912 146.21 46.8179 146.21C48.5184 146.437 50.2756 146.38 51.9761 146.04C51.806 148.251 48.8018 149.214 49.1986 151.482C49.7088 153.692 50.9558 155.676 51.8627 157.773C50.1622 157.717 48.5184 157.66 46.8179 157.66ZM55.9439 156.13C55.6038 156.3 54.9236 156.583 54.6402 156.696C53.5065 155.109 52.5996 153.465 51.9194 151.652C52.7129 150.291 53.3931 148.817 54.0166 147.4C54.9803 147.344 56.0005 147.287 56.9641 147.174C55.4337 149.894 53.5065 153.239 55.9439 156.13ZM59.0047 156.47C58.778 156.073 58.2679 155.223 58.0411 154.769C58.2112 153.069 57.9278 151.141 59.4015 149.894C59.5149 149.781 59.6849 149.554 59.7983 149.384L60.4218 148.647C60.5352 148.421 60.7052 147.967 60.7619 147.74L60.9886 148.364L61.7822 148.024C61.4988 149.724 60.2518 150.971 59.1748 152.275C61.102 152.388 61.5555 158 59.0047 156.47ZM63.1426 151.708C63.426 150.858 63.8794 150.235 64.4463 149.781C66.4302 148.251 69.8311 148.647 72.2118 148.477C75.046 148.874 78.5603 147.74 80.7142 150.178L79.8073 152.218C74.7059 151.992 69.5477 151.878 64.4463 151.765C63.9928 151.765 63.596 151.765 63.1426 151.708ZM86.7793 143.489C83.8318 145.02 80.5442 145.076 77.37 145.076C76.6898 140.202 79.7506 136.064 82.0179 132.039C83.0382 131.813 84.0585 131.586 85.0788 131.302C83.6618 135.497 84.4553 139.805 86.7793 143.489ZM78.617 178.633C80.7709 182.147 82.5281 185.831 84.5687 189.402C86.7226 193.087 90.2936 195.581 93.6379 198.131C100.78 203.403 112.57 202.609 117.615 194.844C120.846 187.929 116.821 180.616 114.044 174.268C109.282 166.786 96.8688 172.454 97.2089 180.616C99.9297 182.26 102.991 185.605 106.392 183.507C106.335 182.204 106.278 180.843 106.278 179.483C107.072 180.39 107.695 181.41 108.489 182.374C106.562 184.868 103.444 184.754 100.667 184.358C99.5329 183.111 98.3426 181.864 97.2089 180.616C95.7919 172.511 106.165 165.652 113.08 169.79C118.012 172.964 119.372 178.973 121.299 184.131C123.566 190.309 120.222 197.621 114.384 200.342C109.849 203.233 104.294 202.099 99.2495 202.099C92.3342 201.759 87.8563 196.148 83.3783 191.67C79.0138 186.341 76.1796 179.993 72.7787 173.985C71.0215 169.11 70.0012 163.895 69.6044 158.737C70.2279 158.85 71.4183 159.02 72.0985 159.077C74.7625 165.425 74.9326 172.681 78.617 178.633ZM65.2398 156.3C65.0131 155.903 64.673 155.109 64.4463 154.712C70.4547 153.749 76.463 155.166 82.4714 155.393C82.6981 155.676 83.1516 156.186 83.435 156.47C77.37 156.47 71.2482 156.923 65.2398 156.3ZM83.8885 150.405C85.759 148.081 88.083 146.21 90.5204 144.396C87.006 139.125 85.4189 131.302 90.0102 126.201C89.1033 125.124 88.083 123.253 86.4392 124.217C85.1355 125.407 84.0585 126.825 82.8115 128.128C77.54 132.153 75.4994 138.558 72.3252 144.056C70.7948 143.999 69.2643 143.943 67.7339 143.943C67.7339 143.489 67.6772 142.526 67.6205 142.016C67.3371 139.465 67.1671 136.971 67.4505 134.42C68.5841 129.942 70.568 125.748 71.7017 121.213C71.815 120.873 71.9851 120.136 72.0985 119.739C72.2685 119.172 72.5519 118.095 72.722 117.529C76.1229 108.289 80.3175 98.8232 87.7996 92.1346C92.6176 87.3733 99.5329 86.0696 105.825 84.0857C112.91 83.6889 119.995 85.8428 126.401 88.7903L126.741 88.9604C129.575 90.0941 129.405 93.4383 130.028 95.9891C130.538 97.9163 131.049 99.9002 131.672 101.827C132.636 104.718 133.883 107.666 136.32 109.593C140.401 112.71 144.652 116.111 149.754 117.302C154.289 118.152 159.277 117.642 163.188 115.034C166.589 111.974 168.176 107.496 171.69 104.548C174.978 106.192 178.662 106.929 181.836 108.799C185.124 110.897 186.711 114.638 188.695 117.869L189.035 118.719C189.545 119.909 189.999 121.1 190.509 122.29C184.614 128.185 175.941 129.715 168.176 131.529C164.945 132.493 161.941 130.792 159.277 129.262C157.916 129.999 156.499 130.849 155.139 131.586C150.264 134.193 144.596 135.61 139.041 134.987C137.68 134.817 136.263 134.647 134.903 134.477C135.527 131.643 136.263 128.865 136.83 125.974C136.15 126.031 134.733 126.144 134.053 126.201C131.729 129.772 131.615 134.08 132.069 138.218C132.182 139.748 132.296 141.335 132.352 142.866C130.708 140.825 129.348 138.558 129.291 135.894C129.405 132.946 129.802 130.055 130.028 127.108C126.967 125.804 125.72 129.319 125.154 131.586C125.154 132.833 125.267 134.08 125.324 135.327C119.939 136.574 114.214 137.197 108.886 135.44C105.031 134.193 100.837 134.08 97.2089 132.096C97.0956 130.622 96.9255 129.092 96.8122 127.618C95.7352 127.391 94.7149 127.221 93.6379 126.995C92.2208 130.792 90.237 134.647 90.4637 138.841C91.2006 141.562 93.4679 143.603 95.1684 145.813C92.6743 146.55 89.2167 145.983 87.5162 148.307C86.4959 152.842 90.6337 155.449 93.2978 158.227C89.5001 156.696 85.1922 154.656 83.8885 150.405ZM131.445 147.23C124.417 147.344 117.331 147.57 110.303 146.947C110.756 144.623 111.55 142.356 112.173 140.032C117.105 139.862 122.036 140.032 126.967 139.805C129.348 141.619 130.368 144.566 131.445 147.23ZM107.639 146.55C105.768 146.38 103.954 146.267 102.14 145.927C104.578 144.283 106.392 142.299 107.185 139.408L108.149 138.898C108.319 141.449 109.509 144.396 107.639 146.55ZM102.084 138.048C101.744 139.351 101.46 140.655 101.233 142.016C99.4763 142.979 97.8891 144.283 96.3587 145.473C94.3181 142.469 93.5246 138.955 94.2048 135.384C96.8122 136.177 99.9864 136.064 102.084 138.048ZM91.5407 151.992C91.2006 150.801 90.8605 149.554 90.4637 148.364C93.0711 148.987 97.2089 147.457 98.7961 149.611C101.12 150.008 103.331 151.085 105.711 151.141C114.157 148.647 123.113 150.008 131.785 150.008C131.842 150.745 131.955 152.275 132.012 153.012C125.494 153.239 118.975 153.295 112.457 153.125C109.056 153.125 105.825 150.858 102.424 151.878C100.95 151.992 99.2495 153.579 97.9458 152.218C95.7352 152.105 93.6379 152.048 91.5407 151.992ZM131.729 157.49C121.923 157.83 112.173 157.66 102.367 157.603C100.326 157.547 98.2292 157.433 96.1886 157.377C95.6785 156.696 95.1684 155.959 94.6582 155.279C97.2089 155.279 99.7597 155.336 102.367 155.279C112.4 155.393 122.433 155.563 132.466 156.243C132.239 156.583 131.899 157.206 131.729 157.49ZM133.203 143.773C134.336 145.19 135.583 146.437 136.944 147.627C138.757 145.53 142.782 142.186 144.426 146.153C141.705 147.457 138.304 148.421 137.397 151.708L137.34 152.105C137.737 154.996 138.814 157.773 139.664 160.551C133.826 156.81 136.717 148.987 133.203 143.773ZM166.135 164.178C163.414 162.875 161.714 160.267 159.617 158.227C162.848 159.644 166.022 161.174 169.423 162.308C171.35 161.514 174.071 157.263 175.658 160.381C173.107 162.648 169.65 164.972 166.135 164.178ZM182.687 157.206C180.079 157.547 177.642 155.903 174.978 156.13C169.763 156.47 164.491 156.923 159.333 155.789C153.438 157.036 147.373 156.47 141.422 156.81C141.365 156.243 141.308 155.109 141.251 154.542C147.317 154.032 153.382 154.259 159.333 155.449C164.888 154.712 170.556 155.393 176.111 154.429C178.379 154.599 183.197 153.579 182.687 157.206ZM172.71 152.388C169.309 151.935 165.738 152.559 162.394 151.538C162.621 151.141 163.074 150.291 163.301 149.838C169.366 149.328 175.431 148.477 181.61 148.817C183.31 149.158 184.614 150.518 186.031 151.425C181.893 153.465 177.132 152.955 172.71 152.388ZM202.242 154.939C197.651 155.789 193.343 157.83 188.638 157.943C188.752 156.696 188.808 155.393 188.808 154.146C189.319 153.806 190.395 153.069 190.962 152.729C191.076 151.368 191.246 150.008 191.359 148.647C195.157 148.477 198.728 149.894 202.469 150.291C202.526 151.765 202.979 153.465 202.242 154.939Z" fill="#231F20"/>
<path d="M105.371 120.023C106.845 121.44 108.262 123.027 110.189 123.82C113.817 125.237 116.368 128.638 120.165 129.829C119.825 130.396 119.485 131.019 119.145 131.586C113.987 129.942 108.489 131.189 103.331 129.545C106.222 128.015 106.222 124.784 104.748 122.29C104.861 121.723 105.201 120.589 105.371 120.023Z" fill="#97EB74"/>
<path d="M71.815 135.44C75.3861 132.436 74.9326 125.748 80.4875 125.067C81.2811 126.088 82.0179 127.108 82.7548 128.128C77.4833 132.153 75.4427 138.558 72.2685 144.056C70.7381 143.999 69.2076 143.943 67.6772 143.943C67.6772 143.489 67.6205 142.526 67.5638 142.016C69.6611 140.202 69.5477 137.084 71.815 135.44Z" fill="#84CB71"/>
<path d="M146.523 127.278C149.527 128.468 152.305 130.055 155.139 131.586C150.264 134.193 144.596 135.61 139.041 134.987C138.757 132.89 138.701 130.792 138.927 128.695C139.438 128.638 140.458 128.525 140.968 128.412C141.478 129.885 141.988 131.359 142.498 132.89C143.916 131.076 145.276 129.205 146.523 127.278Z" fill="#6CB960"/>
<path d="M99.6463 129.035C100.553 129.149 102.367 129.375 103.331 129.545C108.489 131.189 113.987 129.942 119.145 131.586C119.485 131.019 119.825 130.396 120.165 129.829C121.866 130.452 123.51 130.962 125.21 131.529C125.21 132.776 125.324 134.023 125.38 135.27C119.995 136.517 114.27 137.141 108.942 135.384L111.21 133.796C107.185 132.72 102.707 132.153 99.6463 129.035Z" fill="#77C66C"/>
<path d="M46.2511 146.153C48.1783 146.437 50.1055 146.437 52.0327 146.04C51.8627 148.251 48.8585 149.214 49.2553 151.482C49.7654 153.692 51.0125 155.676 51.9194 157.773C48.235 157.603 44.4939 157.83 40.8662 157.15C40.5261 155.223 39.6759 152.388 41.6598 151.085C43.6437 149.894 45.0608 148.137 46.2511 146.153Z" fill="#D07B84"/>
<path d="M191.359 148.647C195.157 148.477 198.728 149.894 202.469 150.291C202.469 151.822 202.922 153.522 202.186 154.996C197.594 155.846 193.286 157.887 188.582 158C188.695 156.753 188.752 155.449 188.752 154.202C189.262 153.862 190.339 153.125 190.906 152.785C191.076 151.368 191.246 150.008 191.359 148.647Z" fill="#FEFEFE"/>
<path d="M90.4637 148.364C93.0711 148.987 97.2089 147.457 98.7961 149.611L96.9822 149.384C97.2656 150.291 97.549 151.255 97.8891 152.162C95.7919 152.162 93.6379 152.048 91.5407 152.048C91.2006 150.801 90.8038 149.554 90.4637 148.364ZM64.4463 154.712C70.4547 153.749 76.463 155.166 82.4714 155.393C82.6981 155.676 83.1516 156.186 83.435 156.47C77.37 156.47 71.2482 156.923 65.2398 156.3C65.0131 155.903 64.6163 155.109 64.4463 154.712Z" fill="#E1CB86"/>
<path d="M63.1426 151.708C64.2762 147.967 69.1509 148.647 72.2685 148.477C75.1026 148.874 78.617 147.74 80.7709 150.178L79.864 152.218C74.2524 151.935 68.6975 151.878 63.1426 151.708ZM102.367 155.336C112.4 155.449 122.433 155.619 132.466 156.3C132.296 156.64 131.899 157.263 131.729 157.547C121.923 157.887 112.173 157.717 102.367 157.66V155.336Z" fill="#DDC377"/>
<path d="M96.9822 149.384L98.7961 149.611C101.12 150.008 103.331 151.085 105.711 151.141C114.157 148.647 123.113 150.008 131.785 150.008C131.842 150.745 131.955 152.275 132.012 153.012C125.494 153.239 118.975 153.295 112.457 153.125C109.056 153.125 105.825 150.858 102.424 151.878C100.95 151.992 99.2495 153.579 97.9458 152.218C97.549 151.198 97.2656 150.291 96.9822 149.384ZM94.6582 155.279C97.2089 155.279 99.7597 155.336 102.367 155.279V157.603C100.326 157.547 98.2292 157.433 96.1886 157.377C95.6785 156.696 95.1684 156.016 94.6582 155.279Z" fill="#DCC576"/>
<path d="M142.215 151.765C141.818 149.441 144.766 149.894 146.183 149.554C149.47 149.328 152.701 149.498 155.989 149.498C156.159 151.141 155.479 151.935 153.892 151.878C149.981 151.992 146.07 151.992 142.215 151.765ZM163.301 149.838C169.366 149.328 175.431 148.477 181.61 148.817C183.31 149.158 184.614 150.518 186.031 151.425C181.893 153.465 177.188 153.012 172.71 152.388C169.309 151.935 165.738 152.559 162.394 151.538C162.621 151.085 163.074 150.235 163.301 149.838ZM141.251 154.599C147.317 154.089 153.382 154.316 159.333 155.506C164.888 154.769 170.556 155.449 176.111 154.486C178.435 154.656 183.253 153.635 182.687 157.263C180.079 157.603 177.642 155.959 174.978 156.186C169.763 156.526 164.491 156.98 159.333 155.846C153.438 157.093 147.373 156.526 141.422 156.866C141.365 156.3 141.308 155.166 141.251 154.599Z" fill="#F5D776"/>
</svg>