<svg width="256" height="256" title="NuGet" viewBox="0 0 256 256" fill="none" xmlns="http://www.w3.org/2000/svg">
<rect width="256" height="256" rx="40" fill="white"/>
<path fill-rule="evenodd" clip-rule="evenodd" d="M166.292 198.057C150.015 198.057 136.818 184.86 136.818 168.583C136.818 152.314 150.015 139.109 166.292 139.109C182.568 139.109 195.765 152.314 195.765 168.583C195.765 184.86 182.568 198.057 166.292 198.057ZM107.499 130.503C97.3232 130.503 89.0779 122.251 89.0779 112.082C89.0779 101.906 97.3232 93.6611 107.499 93.6611C117.675 93.6611 125.92 101.906 125.92 112.082C125.92 122.251 117.675 130.503 107.499 130.503ZM167.596 73H118.404C93.3368 73 73 93.3368 73 118.412V167.596C73 192.678 93.3368 213 118.404 213H167.596C192.678 213 213 192.678 213 167.596V118.412C213 93.3368 192.678 73 167.596 73Z" fill="#004880"/>
<path fill-rule="evenodd" clip-rule="evenodd" d="M73 58C73 66.2875 66.28 73 58 73C49.7125 73 43 66.2875 43 58C43 49.72 49.7125 43 58 43C66.28 43 73 49.72 73 58Z" fill="#004880"/>
</svg>