<svg width="256" height="256" title="Nunjucks" viewBox="0 0 256 256" fill="none" xmlns="http://www.w3.org/2000/svg">
<rect width="256" height="256" rx="40" fill="#1C4913"/>
<path d="M33 35C43.5196 35 54.0392 35 64.5588 35C72.3097 60.2409 80.0485 85.4849 87.775 110.732C87.711 85.494 87.775 60.2562 87.775 35.0091C98.4593 35.0091 109.143 35.0091 119.791 35.0091C119.791 96.7606 119.791 158.515 119.791 220.273C109.198 220.273 98.6056 220.273 88.0129 220.273C80.268 193.398 72.5353 166.519 64.8149 139.638C64.8149 166.519 64.8149 193.398 64.8149 220.273H33C33 158.515 33 96.7576 33 35Z" fill="#FEFFFC"/>
<path d="M190.849 78.8987H222.993C222.993 119.251 222.993 159.604 222.993 199.956C223.099 203.867 222.028 207.72 219.919 211.016C217.272 215.14 213.219 218.165 208.512 219.532C205.267 220.216 201.944 220.462 198.633 220.264C184.107 220.264 169.584 220.264 155.064 220.264C151.164 220.279 147.354 219.094 144.151 216.87C140.308 214.197 137.524 210.261 136.284 205.747C135.607 202.438 135.37 199.055 135.58 195.684C135.58 184.439 135.58 173.194 135.58 161.949C146.291 159.451 157.012 157 167.715 154.502C167.715 165.708 167.715 176.914 167.715 188.119H190.849C190.849 151.694 190.849 115.287 190.849 78.8987Z" fill="#FEFFFC"/>
</svg>