<svg width="256" height="256" title="NuxtHub" viewBox="0 0 256 256" fill="none" xmlns="http://www.w3.org/2000/svg" id="nuxthub">
<style>
#nuxthub {
    rect {fill: #15191C}

    @media (prefers-color-scheme: light) {
        rect {fill: #F4F2ED}
    }
}
</style>
<rect width="256" height="256" rx="40" fill="#15191C"/>
<path d="M159.635 113.666L183.255 115.001L191.038 129.157L198.822 141.978L193.186 166.017M41.5359 179.105L64.3504 167.086M64.3504 167.086L60.8611 136.637L70.7921 120.344L82.8703 100.312L106.49 93.1007M64.3504 167.086L76.4286 184.447L91.9961 184.981C91.9961 184.981 99.2294 185.231 103.538 183.913C108.068 182.527 114.005 180.174 114.005 180.174L115.616 155.868H134.136L129.573 132.096L139.772 113.4L127.962 95.7716L121.789 84.0194L106.49 93.1007M106.49 93.1007L96.2906 76.8079M129.305 131.294L135.747 120.344L144.604 104.318L160.708 113.132L162.587 90.429M213.853 167.62H193.186L172.25 183.111L151.583 167.085M139.176 184.537H204.232C206.298 184.538 208.328 184.017 210.117 183.029C211.906 182.042 213.392 180.621 214.425 178.91C215.457 177.199 216.001 175.258 216 173.283C215.999 171.307 215.454 169.367 214.42 167.657L170.731 95.3118C169.698 93.6012 168.212 92.1807 166.424 91.193C164.635 90.2054 162.605 89.6854 160.539 89.6854C158.473 89.6854 156.444 90.2054 154.655 91.193C152.866 92.1807 151.38 93.6012 150.348 95.3118L139.176 113.823L117.335 77.6255C116.302 75.9151 114.816 74.4948 113.026 73.5073C111.237 72.5199 109.207 72 107.14 72C105.074 72 103.044 72.5199 101.255 73.5073C99.4654 74.4948 97.9792 75.9151 96.9457 77.6255L42.5802 167.657C41.5459 169.367 41.0009 171.307 41 173.283C40.9991 175.258 41.5423 177.199 42.575 178.91C43.6077 180.621 45.0935 182.042 46.8829 183.029C48.6724 184.017 50.7023 184.538 52.7685 184.537H93.6046C109.784 184.537 121.716 177.742 129.927 164.487L160.536 113.823L192.579 166.875H149.86L139.176 184.537ZM92.9389 166.857L64.4405 166.851L107.16 96.1179L128.475 131.484L114.203 155.123C108.751 163.723 102.557 166.857 92.9389 166.857Z" stroke="#00DC82" stroke-width="5.92"/>
</svg>