<svg width="256" height="256" title="OBS" viewBox="0 0 256 256" fill="none" xmlns="http://www.w3.org/2000/svg" id="obs">
<style>
#obs {
    rect {fill: #15191C}

    @media (prefers-color-scheme: light) {
        rect {fill: #F4F2ED}
    }
}
</style>
<rect width="256" height="256" rx="40" fill="#15191C"/>
<path d="M211 128.5C211 174.063 174.063 211 128.5 211C82.9365 211 46 174.063 46 128.5C46 82.9365 82.9365 46 128.5 46C174.063 46 211 82.9365 211 128.5Z" fill="white"/>
<path d="M128.5 51.1562C85.85 51.1562 51.1562 85.85 51.1562 128.5C51.1562 171.15 85.85 205.844 128.5 205.844C171.15 205.844 205.844 171.15 205.844 128.5C205.844 85.85 171.15 51.1562 128.5 51.1562ZM191.602 160.019C195.863 147.513 191.162 133.016 179.607 125.618C166.076 116.956 148.085 120.907 139.422 134.439C133.188 144.177 133.517 156.209 139.217 165.427C135.824 170.659 131.251 175.236 125.531 178.646C107.372 189.474 83.9803 185.21 70.9697 169.301C70.3442 168.419 69.7356 167.528 69.1504 166.62C77.9609 177.627 94.0484 180.788 106.699 173.649C120.692 165.753 125.635 148.007 117.739 134.015C112.298 124.374 102.18 119.03 91.8357 119.222C88.4931 113.196 86.5797 106.269 86.5797 98.8874C86.5797 80.4527 98.4738 64.8595 114.988 59.2067C116.199 58.9713 117.436 58.8166 118.667 58.6418C107.499 62.704 99.5062 73.3842 99.5062 85.9576C99.5062 102.025 112.53 115.049 128.598 115.049C139.288 115.049 148.603 109.268 153.66 100.676C161.048 100.727 168.514 102.674 175.273 106.813C192.275 117.218 199.394 138.067 193.398 156.29C192.853 157.564 192.218 158.788 191.602 160.019Z" fill="black"/>
</svg>