<svg width="256" height="256" title="Ollama" viewBox="0 0 256 256" fill="none" xmlns="http://www.w3.org/2000/svg" id="ollama">
<style>
#ollama {
    rect {fill: #15191C}
    path {fill: #F4F2ED}

    @media (prefers-color-scheme: light) {
        rect {fill: #F4F2ED}
        path {fill: #15191C}
    }
}
</style>
<rect width="256" height="256" rx="40" fill="#15191C"/>
<path d="M93.2115 45.0464C91.6695 45.2955 89.8191 46.1021 88.5143 47.0985C84.5644 50.0995 81.5041 56.4692 80.2112 64.4046C79.7249 67.4056 79.3928 71.5691 79.3928 74.7481C79.3928 78.4963 79.8316 83.2883 80.4603 86.5977C80.6026 87.3332 80.6738 87.9857 80.6145 88.0331C80.5671 88.0805 79.9858 88.5549 79.3334 89.0768C77.1035 90.856 74.5532 93.5962 72.7977 96.0991C69.429 100.879 67.2464 106.312 66.3331 112.195C65.9772 114.52 65.8823 119.217 66.167 121.542C66.7957 126.904 68.4089 131.435 71.1726 135.586L72.0741 136.927L71.8132 137.366C69.9627 140.473 68.3851 144.969 67.6497 149.287C67.0685 152.703 66.9973 153.616 66.9973 158.195C66.9973 162.809 67.0566 163.722 67.6023 166.913C68.2547 170.733 69.5832 174.777 71.0659 177.47C71.5522 178.348 72.7384 180.174 72.8807 180.269C72.9282 180.293 72.7858 180.732 72.5604 181.242C70.8524 184.978 69.3934 189.948 68.7884 194.136C68.3614 197.006 68.3021 197.931 68.3021 200.956C68.3021 204.811 68.5156 206.685 69.3222 209.757L69.4408 210.208H79.6063L79.2741 209.579C77.2221 205.784 77.0323 198.738 78.7997 191.704C79.6063 188.454 80.5196 186.07 82.2277 182.784L83.2478 180.791V179.569C83.2478 178.431 83.2241 178.3 82.8564 177.553C82.5717 176.984 82.1921 176.497 81.516 175.833C80.3654 174.718 79.5351 173.544 78.8708 172.097C75.9529 165.762 75.3835 156.356 77.4356 148.338C78.2896 144.993 79.7012 142.015 81.1839 140.39C82.1921 139.275 82.714 138.03 82.714 136.737C82.714 135.397 82.2395 134.294 81.172 133.143C78.1117 129.869 76.2257 125.883 75.5496 121.246C74.5888 114.639 76.3324 107.439 80.2942 101.733C84.173 96.1345 89.6175 92.5404 95.7026 91.5797C97.0666 91.3543 99.6169 91.3899 101.04 91.6509C102.594 91.9238 103.567 91.8406 104.563 91.3661C105.797 90.785 106.414 90.0613 107.137 88.4007C107.778 86.9181 108.276 86.1115 109.616 84.439C111.229 82.4344 112.783 81.0702 115.274 79.4214C118.121 77.5592 121.359 76.207 124.586 75.5546C125.76 75.3173 126.306 75.2817 128.5 75.2817C130.694 75.2817 131.24 75.3173 132.414 75.5546C137.147 76.5155 141.844 78.959 145.593 82.4224C146.399 83.1697 148.333 85.5658 148.949 86.5623C149.187 86.9536 149.602 87.7841 149.863 88.4007C150.586 90.0613 151.203 90.785 152.437 91.3661C153.398 91.8287 154.406 91.9238 155.9 91.6745C158.261 91.2713 160.076 91.3069 162.389 91.7813C170.265 93.3707 177.121 99.8591 180.157 108.554C182.803 116.181 182.055 124.164 178.117 130.26C177.453 131.293 176.789 132.123 175.828 133.143C173.752 135.361 173.752 138.113 175.816 140.39C179.209 144.103 181.332 153.237 180.691 161.291C180.264 166.605 178.9 171.361 177.026 174.054C176.694 174.528 176.006 175.335 175.484 175.833C174.808 176.497 174.428 176.984 174.144 177.553C173.776 178.3 173.752 178.431 173.752 179.569V180.791L174.772 182.784C176.48 186.07 177.394 188.454 178.2 191.704C179.944 198.643 179.79 205.546 177.797 209.473C177.631 209.805 177.489 210.113 177.489 210.149C177.489 210.184 179.754 210.208 182.53 210.208H187.559L187.69 209.698C187.761 209.425 187.879 209.01 187.939 208.773C188.069 208.251 188.33 206.709 188.544 205.226C188.745 203.732 188.745 198.228 188.544 196.567C187.785 190.541 186.515 185.761 184.44 181.242C184.214 180.732 184.072 180.293 184.119 180.269C184.179 180.234 184.511 179.759 184.866 179.225C187.452 175.311 189.042 170.389 189.848 163.888C190.062 162.097 190.062 154.399 189.848 152.679C189.279 148.243 188.591 145.23 187.452 142.181C186.978 140.912 185.721 138.232 185.187 137.366L184.926 136.927L185.827 135.586C188.591 131.435 190.204 126.904 190.833 121.542C191.118 119.217 191.023 114.52 190.667 112.195C189.742 106.3 187.571 100.891 184.202 96.0991C182.447 93.5962 179.896 90.856 177.667 89.0768C177.014 88.5549 176.433 88.0805 176.385 88.0331C176.326 87.9857 176.397 87.3332 176.54 86.5977C177.975 79.113 177.927 69.7781 176.421 62.483C175.116 56.1252 172.744 51.0721 169.684 48.1542C167.24 45.8293 164.749 44.8329 161.76 45.0227C154.904 45.426 149.377 53.314 147.194 65.745C146.838 67.7496 146.53 70.0983 146.53 70.7388C146.53 70.9878 146.482 71.1894 146.423 71.1894C146.364 71.1894 145.901 70.9522 145.403 70.6558C140.113 67.5242 134.229 65.8518 128.5 65.8518C122.771 65.8518 116.887 67.5242 111.597 70.6558C111.099 70.9522 110.636 71.1894 110.577 71.1894C110.518 71.1894 110.47 70.9878 110.47 70.7388C110.47 70.0745 110.15 67.6548 109.806 65.745C107.825 54.5832 103.282 47.1934 97.2446 45.3311C96.4143 45.082 94.0538 44.916 93.2115 45.0464ZM95.2281 54.7018C96.9361 56.054 98.834 59.9209 99.9253 64.2504C100.127 65.0333 100.34 65.9348 100.4 66.2668C100.447 66.5873 100.578 67.3108 100.684 67.8682C101.147 70.3829 101.36 73.0993 101.384 76.4087L101.396 79.6707L100.578 80.8804L99.7593 82.1022H97.8495C95.6196 82.1022 93.4013 82.387 91.2781 82.9563C90.519 83.1461 89.7835 83.3359 89.6412 83.3715C89.4158 83.4189 89.3802 83.3477 89.2498 82.375C88.5499 77.0966 88.5855 71.2488 89.3566 66.3854C90.2105 60.9648 92.2034 56.054 94.1486 54.6069C94.6113 54.2629 94.6943 54.2748 95.2281 54.7018ZM162.863 54.6188C164.038 55.4847 165.33 57.7858 166.291 60.7275C168.225 66.6109 168.77 74.6887 167.75 82.375C167.62 83.3477 167.584 83.4189 167.359 83.3715C167.217 83.3359 166.481 83.1461 165.722 82.9563C163.599 82.387 161.38 82.1022 159.151 82.1022H157.241L156.422 80.8804L155.604 79.6707L155.616 76.4087C155.639 71.8063 156.067 68.2123 157.086 64.2149C158.166 59.9209 160.076 56.054 161.772 54.7018C162.306 54.2748 162.389 54.2629 162.863 54.6188Z" fill="#F4F2ED"/>
<path d="M126.661 114.318C124.087 114.568 123.388 114.662 122.154 114.912C120.149 115.327 117.468 116.252 115.606 117.165C109.13 120.332 104.67 125.611 103.306 131.719C103.033 132.929 102.997 133.333 102.997 135.373C102.997 137.389 103.033 137.828 103.294 138.979C105.109 146.962 112.463 152.857 121.976 153.936C124.04 154.162 132.96 154.162 135.024 153.936C142.663 153.07 149.234 148.931 152.188 143.118C152.97 141.565 153.35 140.556 153.706 138.979C153.967 137.828 154.002 137.389 154.002 135.373C154.002 133.333 153.967 132.929 153.694 131.719C151.713 122.847 143.102 115.86 132.545 114.532C131.169 114.366 127.563 114.223 126.661 114.318ZM131.098 120.771C134.621 121.151 138.167 122.408 141.014 124.306C142.544 125.326 144.703 127.461 145.628 128.861C146.767 130.592 147.419 132.36 147.716 134.507C147.846 135.491 147.775 136.239 147.419 137.828C146.862 140.2 145.13 142.68 142.793 144.411C141.702 145.206 139.436 146.357 138.049 146.807C135.415 147.65 133.695 147.804 127.551 147.756C123.542 147.721 122.83 147.685 121.679 147.472C117.753 146.736 114.646 145.17 112.392 142.786C110.565 140.865 109.735 139.109 109.284 136.274C109.082 134.958 109.462 132.775 110.233 130.937C111.17 128.695 113.59 125.907 115.986 124.306C118.761 122.455 122.415 121.139 125.772 120.783C127.065 120.641 129.805 120.641 131.098 120.771Z" fill="#F4F2ED"/>
<path d="M123.969 129.43C123.068 129.917 122.439 131.15 122.629 132.063C122.842 133.048 123.708 134.044 125.06 134.863C125.784 135.302 125.831 135.361 125.867 135.8C125.89 136.061 125.796 136.808 125.665 137.473C125.523 138.125 125.416 138.813 125.416 139.003C125.428 139.513 125.902 140.343 126.401 140.746C126.84 141.102 126.923 141.114 128.156 141.15C129.283 141.185 129.52 141.161 129.971 140.948C131.134 140.378 131.43 139.335 131.003 137.33C130.647 135.658 130.718 135.397 131.608 134.887C132.545 134.341 133.541 133.38 133.838 132.728C134.407 131.482 133.885 130.071 132.628 129.418C132.32 129.264 131.94 129.193 131.383 129.193C130.517 129.193 129.959 129.395 128.939 130.047L128.358 130.415L127.99 130.189C126.484 129.3 126.211 129.193 125.297 129.205C124.645 129.205 124.289 129.264 123.969 129.43Z" fill="#F4F2ED"/>
<path d="M95.1687 115.659C93.0693 116.323 91.5035 117.865 90.697 120.06C90.3055 121.104 90.1157 122.752 90.2817 123.642C90.6732 125.765 92.4168 127.699 94.3978 128.232C96.8887 128.885 98.751 128.458 100.4 126.821C101.36 125.884 101.883 125.065 102.404 123.737C102.784 122.8 102.808 122.634 102.808 121.305L102.819 119.882L102.321 118.862C101.527 117.248 100.091 116.05 98.4307 115.611C97.4936 115.374 95.9872 115.386 95.1687 115.659Z" fill="#F4F2ED"/>
<path d="M158.522 115.623C156.897 116.062 155.45 117.272 154.679 118.862L154.181 119.882L154.192 121.305C154.192 122.634 154.216 122.8 154.596 123.737C155.118 125.065 155.639 125.884 156.6 126.821C158.249 128.458 160.111 128.885 162.602 128.232C164.038 127.853 165.473 126.643 166.161 125.231C166.754 124.033 166.896 123.167 166.706 121.803C166.268 118.684 164.441 116.418 161.724 115.623C160.93 115.386 159.388 115.386 158.522 115.623Z" fill="#F4F2ED"/>
</svg>