<svg width="256" height="256" title="Ombi" viewBox="0 0 256 256" fill="none" xmlns="http://www.w3.org/2000/svg">
<rect width="256" height="256" rx="40" fill="#F4F2ED"/>
<path d="M46 128.5C46 174.068 82.9316 211 128.5 211C174.068 211 211 174.068 211 128.5C211 82.9316 174.068 46 128.5 46C82.9316 46 46 82.9316 46 128.5Z" fill="url(#linearGradient)"/>
<path d="M123.763 118.413L131.594 126.244L137.942 132.593C138.297 132.947 138.619 133.302 138.974 133.656L148.029 142.712C148.416 143.099 148.803 143.485 149.028 143.969C149.931 145.677 149.608 147.353 148.223 148.738C146.998 149.995 145.612 150.156 144.033 149.673C143.356 149.479 142.873 148.996 142.39 148.545C139.006 145.161 135.59 141.745 132.174 138.361L117.994 124.182C117.607 123.795 117.253 123.408 116.866 123.021L110.292 116.447C109.937 116.093 109.615 115.738 109.39 115.287C108.552 113.676 108.971 111.71 110.163 110.582C111.613 109.229 113.547 108.938 115.223 110.002C115.609 110.228 115.899 110.582 116.222 110.904C118.735 113.418 121.249 115.899 123.763 118.413Z" fill="#BFBFBF"/>
<path d="M124.343 130.498C123.344 130.981 122.345 131.529 121.281 131.852C117.833 132.947 114.417 132.947 110.969 131.884C108.584 131.11 106.522 129.854 104.749 128.081C99.5606 122.893 94.4043 117.704 89.1836 112.548C86.7022 110.099 85.3164 107.069 84.7686 103.686C84.1563 99.7539 84.9297 95.9834 87.0889 92.6318C89.0547 89.5381 91.7617 87.2822 95.2744 86.0254C98.207 84.9941 101.172 84.8008 104.137 85.3809C106.328 85.7998 108.391 86.6377 110.228 88.0557C111.065 88.7002 111.807 89.3447 112.548 90.0859C117.607 95.1455 122.635 100.205 127.727 105.232C129.757 107.263 131.046 109.68 131.755 112.387C132.561 115.48 132.496 118.606 131.433 121.668C131.078 122.731 130.53 123.698 130.079 124.729L123.73 118.413C124.214 117.865 124.149 117.124 124.117 116.512C124.053 114.288 123.344 112.322 121.7 110.711C116.673 105.716 111.646 100.688 106.65 95.6611C106.167 95.1777 105.651 94.791 105.071 94.4365C101.107 91.8584 95.6612 93.5342 93.5987 97.627C91.9551 100.914 92.8574 104.846 95.1133 107.037C100.205 112.064 105.232 117.124 110.292 122.184C111.871 123.763 113.772 124.472 115.932 124.601C116.641 124.633 117.35 124.633 117.962 124.182L124.343 130.498ZM169.686 148.352C169.041 147.03 168.268 145.773 167.204 144.71C161.661 139.135 156.086 133.592 150.511 128.017C149.866 127.372 149.125 126.889 148.352 126.438C145.387 124.665 142.164 123.859 138.716 124.085C137.105 124.214 135.525 124.504 134.011 125.116C133.173 125.438 132.399 125.857 131.594 126.244L137.942 132.593C138.039 132.528 138.522 132.399 138.651 132.399C141.455 132.013 143.614 132.561 145.677 134.623L160.759 149.705C163.627 152.573 163.756 156.795 161.919 159.824C160.018 162.95 155.248 164.723 151.542 162.757C150.704 162.306 149.931 161.822 149.254 161.146C144.259 156.15 139.296 151.123 134.269 146.16C132.722 144.613 131.948 142.776 131.755 140.682C131.69 139.908 131.69 139.07 132.174 138.361L125.825 132.045C125.438 132.851 125.02 133.624 124.697 134.462C123.73 136.879 123.44 139.425 123.73 142.003C123.956 144.291 124.601 146.482 125.825 148.448C126.566 149.641 127.372 150.736 128.371 151.735C133.463 156.827 138.555 161.919 143.647 166.979C144.033 167.365 144.42 167.72 144.807 168.106C145 168.3 145.193 168.493 145.419 168.654C147.191 169.75 149.028 170.781 151.091 171.265C153.314 171.813 155.538 171.909 157.762 171.522C160.243 171.104 162.563 170.201 164.594 168.622C166.076 167.494 167.365 166.237 168.429 164.723C169.718 162.918 170.588 160.888 170.975 158.729C171.651 155.151 171.297 151.639 169.686 148.352ZM152.928 105.297C153.089 104.556 152.928 104.008 152.412 103.589C151.929 103.202 151.381 103.234 150.801 103.524L142.293 112.032C142.293 112.387 142.261 112.741 142.261 113.063L143.292 114.095L144.259 113.998L152.928 105.297ZM158.535 117.704C157.923 117.285 157.439 117.188 156.892 117.188H146.547C145.967 117.188 145.419 117.285 144.871 117.833L144.613 119.025L145.612 120.024C147.675 120.186 156.795 120.121 157.987 119.96C158.245 119.67 158.535 119.315 158.857 118.961L158.535 117.704ZM136.202 98.4648V110.582L137.169 111.549C138.007 111.678 138.619 111.452 139.006 110.711C139.038 110.485 139.07 110.26 139.07 110.034V99.2705C139.07 98.916 139.006 98.5293 138.974 98.2715C138.394 97.4658 137.717 97.4981 137.008 97.6592L136.202 98.4648Z" fill="white"/>
<linearGradient id="linearGradient" x1="128.491" y1="211.002" x2="128.491" y2="46.0004" gradientUnits="userSpaceOnUse">
<stop stop-color="#E37200"/>
<stop offset="1" stop-color="#E3913E"/>
</linearGradient>
</svg>