<svg width="256" height="256" title="Onyx" viewBox="0 0 256 256" fill="none" xmlns="http://www.w3.org/2000/svg" id="onyx">
<style>
#onyx {
    rect {fill: #15191C}

    @media (prefers-color-scheme: light) {
        rect {fill: #F4F2ED}
    }
}
</style>
<rect width="256" height="256" rx="40" fill="#15191C"/>
<path d="M208 86.95V169.05C208 170.437 207.63 171.799 206.928 173C206.226 174.201 205.216 175.198 204 175.892L132 216.942C130.784 217.635 129.404 218 128 218C126.596 218 125.216 217.635 124 216.942L52 175.892C50.7839 175.198 49.774 174.201 49.0718 173C48.3697 171.799 48 170.437 48 169.05V86.95C48 85.5633 48.3697 84.201 49.0718 83C49.774 81.799 50.7839 80.8017 52 80.1084L124 39.0584C125.216 38.365 126.596 38 128 38C129.404 38 130.784 38.365 132 39.0584L204 80.1084C205.216 80.8017 206.226 81.799 206.928 83C207.63 84.201 208 85.5633 208 86.95Z" fill="black"/>
<path fill-rule="evenodd" clip-rule="evenodd" d="M197.277 90.7785L55.6266 171.801C55.4022 171.93 55.2158 172.115 55.0861 172.338C54.9564 172.562 54.8882 172.816 54.8882 173.074C54.8882 173.332 54.9564 173.586 55.0861 173.81C55.2158 174.033 55.4022 174.218 55.6266 174.347L123.731 213.303C124.751 213.887 125.961 214.044 127.096 213.739C128.232 213.435 129.201 212.695 129.792 211.68L199.146 92.6613C199.299 92.4001 199.36 92.096 199.322 91.7962C199.284 91.4964 199.147 91.2176 198.934 91.003C198.721 90.7885 198.443 90.6502 198.144 90.6096C197.844 90.569 197.539 90.6284 197.277 90.7785Z" fill="#4D4D4D"/>
<path fill-rule="evenodd" clip-rule="evenodd" d="M202.732 91.9697L131.875 213.199C131.799 213.33 131.768 213.482 131.787 213.632C131.806 213.782 131.874 213.922 131.981 214.03C132.087 214.138 132.226 214.207 132.376 214.228C132.527 214.248 132.679 214.218 132.811 214.143L202.751 174.254C203.423 173.871 203.982 173.317 204.37 172.648C204.759 171.98 204.963 171.22 204.963 170.447V92.5734C204.963 92.3104 204.877 92.0548 204.717 91.846C204.557 91.6371 204.333 91.4868 204.079 91.4181C203.825 91.3493 203.555 91.3661 203.312 91.4658C203.068 91.5655 202.864 91.7426 202.732 91.9697Z" fill="#333333"/>
<path fill-rule="evenodd" clip-rule="evenodd" d="M51.544 87.8309V164.962C51.544 165.489 51.682 166.006 51.9445 166.463C52.2069 166.919 52.5845 167.299 53.0395 167.564C53.4946 167.829 54.0113 167.97 54.538 167.974C55.0647 167.977 55.5831 167.842 56.0415 167.583L197.548 87.5005C197.776 87.3716 197.955 87.171 198.056 86.93C198.158 86.689 198.177 86.4212 198.11 86.1682C198.044 85.9153 197.895 85.6916 197.688 85.5319C197.481 85.3722 197.226 85.2856 196.965 85.2856H54.0907C53.7562 85.2856 53.4251 85.3515 53.1161 85.4794C52.8071 85.6073 52.5264 85.7948 52.2899 86.0311C52.0534 86.2675 51.8658 86.5481 51.7379 86.8569C51.6099 87.1657 51.544 87.4967 51.544 87.8309Z" fill="#999999"/>
<path fill-rule="evenodd" clip-rule="evenodd" d="M125.233 41.1894L56.2544 80.1221C56.0263 80.2508 55.8473 80.4514 55.7454 80.6925C55.6434 80.9337 55.6243 81.2017 55.6908 81.4549C55.7574 81.7081 55.906 81.9321 56.1134 82.0919C56.3208 82.2517 56.5753 82.3384 56.8373 82.3384H200.058C200.209 82.3385 200.355 82.2887 200.474 82.1969C200.593 82.1051 200.679 81.9765 200.717 81.8311C200.755 81.6858 200.744 81.5318 200.685 81.3934C200.627 81.2549 200.524 81.1397 200.393 81.0658L129.743 41.1894C129.055 40.8011 128.278 40.597 127.488 40.597C126.698 40.597 125.921 40.8011 125.233 41.1894Z" fill="#4D4D4D"/>
<path d="M205.063 87.658L202.84 88.8998L200.653 87.5968L200.688 85.052L202.911 83.8102L205.098 85.1131L205.063 87.658Z" fill="white"/>
</svg>