<svg width="256" height="256" title="OpenLayers" viewBox="0 0 256 256" fill="none" xmlns="http://www.w3.org/2000/svg" id="openlayers">
<style>
#openlayers {
    rect {fill: #15191C}

    @media (prefers-color-scheme: light) {
        rect {fill: #F4F2ED}
    }
}
</style>
<rect width="256" height="256" rx="40" fill="#15191C"/>
<path d="M105.828 88.0777L53.8995 131.654C41.9575 141.675 42.0066 157.864 54.009 167.813L106.817 211.585C118.82 221.534 138.23 221.475 150.172 211.454L202.101 167.877C214.042 157.856 213.993 141.667 201.991 131.719L149.183 87.9464C137.18 77.9977 117.77 78.0565 105.828 88.0777Z" fill="#005964"/>
<path d="M105.828 74.2171L53.8995 117.793C41.9575 127.815 42.0066 144.003 54.009 153.952L106.817 197.724C118.82 207.673 138.23 207.614 150.172 197.593L202.101 154.017C214.042 143.996 213.993 127.807 201.991 117.858L149.183 74.0857C137.18 64.137 117.77 64.1958 105.828 74.2171Z" fill="#E5E5E5"/>
<path d="M105.828 58.878L53.8995 102.454C41.9575 112.476 42.0066 128.664 54.009 138.613L106.817 182.385C118.82 192.334 138.23 192.275 150.172 182.254L202.1 138.678C214.042 128.656 213.993 112.468 201.991 102.519L149.183 58.7467C137.18 48.798 117.77 48.8568 105.828 58.878Z" fill="#53C5D5"/>
<mask id="mask_ol" style="mask-type:luminance" maskUnits="userSpaceOnUse" x="44" y="51" width="168" height="139">
<path d="M105.828 58.8781L53.8994 102.454C41.9575 112.476 42.0065 128.664 54.0089 138.613L106.817 182.385C118.82 192.334 138.23 192.275 150.172 182.254L202.1 138.678C214.042 128.656 213.993 112.468 201.991 102.519L149.183 58.7467C137.18 48.798 117.77 48.8568 105.828 58.8781Z" fill="white"/>
</mask>
<g mask="url(#mask_ol)">
<path d="M58.5641 145.618C94.9753 99.5856 157.734 83.6926 211.665 106.846L211.665 135.166L129.109 203.545L58.5641 145.618Z" fill="#35BCCE"/>
</g>
</svg>