<svg width="256" height="256" title="OpenVPN" viewBox="0 0 256 256" fill="none" xmlns="http://www.w3.org/2000/svg" id="openvpn">
<style>
#openvpn {
    rect {fill: #15191C}

    @media (prefers-color-scheme: light) {
        rect {fill: #F4F2ED}
    }
}
</style>
<rect width="256" height="256" rx="40" fill="#15191C"/>
<path d="M128 53C86.5812 53 53 86.5775 53 128C53 155.724 68.0825 179.874 90.4513 192.856L107.349 163.67C95.045 156.53 86.75 143.247 86.75 128C86.75 105.219 105.219 86.75 128 86.75C150.781 86.75 169.25 105.219 169.25 128C169.25 143.247 160.955 156.53 148.651 163.67L165.549 192.856C187.918 179.874 203 155.724 203 128C203 86.5775 169.419 53 128 53Z" fill="#FF9100"/>
<path d="M150.5 128C150.5 115.573 140.424 105.5 128 105.5C115.576 105.5 105.5 115.573 105.5 128C105.5 137.585 111.504 145.749 119.945 148.989L110.345 200.821C116.019 202.194 121.91 203 128 203C134.09 203 139.981 202.194 145.651 200.825L136.051 148.992C144.496 145.749 150.5 137.585 150.5 128Z" fill="#1A237E"/>
</svg>