<svg width="256" height="256" title="Open OnDemand" viewBox="0 0 256 256" fill="none" xmlns="http://www.w3.org/2000/svg" id="openondemand">
<style>
#openondemand {
    rect {fill: #15191C}

    @media (prefers-color-scheme: light) {
        rect {fill: #F4F2ED}
    }
}
</style>
<rect width="256" height="256" rx="40" fill="#15191C"/>
<path d="M129.104 44.4719C102.61 44.4719 79.0605 55.5108 63.606 74.645C64.3419 74.645 65.8138 74.645 66.5497 76.1169L97.4588 91.5714C105.554 84.2121 116.593 79.7966 128.368 79.7966C154.861 79.7966 176.203 101.139 176.203 127.632C176.203 154.126 154.861 175.468 128.368 175.468C101.874 175.468 105.554 171.052 97.4588 163.693L66.5497 179.147C65.8138 179.147 64.3419 179.883 63.606 180.619C79.0605 199.753 102.61 212.264 129.104 212.264C175.468 212.264 213 174.732 213 128.368C213 82.0043 175.468 44.4719 129.104 44.4719Z" fill="#CE0E2D"/>
<path d="M59.1905 93.0433C50.3593 88.6277 43 93.0433 43 102.61V151.182C43 160.749 50.3593 165.165 59.1905 160.749L113.649 134.255C122.481 129.84 122.481 123.216 113.649 118.801L59.1905 92.3073V93.0433Z" fill="#CE0E2D"/>
</svg>