<svg width="256" height="256" title="OpenWeather" viewBox="0 0 256 256" fill="none" xmlns="http://www.w3.org/2000/svg" id="openweather">
<style>
#openweather {
    rect {fill: #15191C}

    @media (prefers-color-scheme: light) {
        rect {fill: #F4F2ED}
    }
}
</style>
<rect width="256" height="256" rx="40" fill="#15191C"/>
<path d="M196.295 138.936C194.345 138.857 192.378 138.936 190.411 138.936C182.417 138.936 182.417 138.936 182.593 130.822C182.935 121.437 181.243 112.089 177.634 103.419C174.024 94.7475 168.582 86.9579 161.68 80.5831V80.5032L160.241 79.2253C153.053 72.9251 144.569 68.276 135.387 65.6054C126.205 62.9349 116.549 62.3077 107.099 63.7682C97.6487 65.2287 88.6336 68.7412 80.6886 74.0585C72.7436 79.3758 66.0619 86.3686 61.114 94.5445L61.002 94.7202C60.6663 95.2953 60.3145 95.8703 59.9948 96.4454C53.6274 107.696 50.7608 120.587 51.7608 133.473C51.8887 135.614 53.3596 138.777 49.0108 139.08C45.2536 139.336 42.4396 141.205 43.0951 145.47C43.7507 149.735 47.0283 150.262 50.6896 150.262C56.3654 150.15 62.0573 150.262 67.7331 150.262C71.3785 150.262 74.0005 151.732 74.1284 155.582C74.2404 159.064 72.018 160.997 68.5805 161.045C64.3116 161.045 61.5297 163.009 61.8654 167.306C62.2012 171.604 65.7186 172.099 69.3479 172.003C79.5325 171.923 89.717 171.907 99.9176 172.003C103.675 172.003 106.457 173.6 106.233 177.961C106.025 181.939 103.451 183.201 99.8376 183.185C93.5702 183.185 87.3028 183.185 81.0194 183.185C77.0383 183.185 73.1372 183.392 73.1212 188.616C73.1052 193.839 77.0543 194.015 81.0194 193.999C102.188 193.999 123.356 193.999 144.509 193.999C153.718 193.999 162.927 193.999 172.137 193.999C175.878 193.999 178.98 193.312 179.092 188.856C179.22 184.063 175.894 183.105 171.993 183.201C170.394 183.201 168.795 183.201 167.292 183.201H139.073C135.38 183.201 132.933 181.603 132.822 177.77C132.71 173.936 135.252 172.274 138.833 172.019C140 171.923 141.183 172.019 142.351 172.019C145.932 172.019 149.273 171.619 149.561 167.099C149.881 162.307 146.683 161.172 142.718 161.156C139.105 160.965 137.01 158.856 137.01 155.661C137.01 152.035 139.393 150.07 143.214 150.182C145.564 150.182 147.93 150.182 150.281 150.182C165.566 150.182 180.85 150.182 196.135 150.182C199.988 150.182 202.754 148.968 202.882 144.671C203.01 140.374 199.972 139.096 196.295 138.936Z" fill="#EB6D4A"/>
<path d="M194.017 171.89C196.994 171.89 199.408 169.478 199.408 166.504C199.408 163.53 196.994 161.118 194.017 161.118C191.04 161.118 188.627 163.53 188.627 166.504C188.627 169.478 191.04 171.89 194.017 171.89Z" fill="#EB6D4A"/>
<path d="M207.61 171.89C210.587 171.89 213 169.478 213 166.504C213 163.53 210.587 161.118 207.61 161.118C204.633 161.118 202.219 163.53 202.219 166.504C202.219 169.478 204.633 171.89 207.61 171.89Z" fill="#EB6D4A"/>
<path d="M207.946 161.118H193.466V171.89H207.946V161.118Z" fill="#EB6D4A"/>
<path d="M162.257 171.89C165.234 171.89 167.647 169.478 167.647 166.504C167.647 163.53 165.234 161.118 162.257 161.118C159.28 161.118 156.866 163.53 156.866 166.504C156.866 169.478 159.28 171.89 162.257 171.89Z" fill="#EB6D4A"/>
<path d="M175.849 171.89C178.826 171.89 181.24 169.478 181.24 166.504C181.24 163.53 178.826 161.118 175.849 161.118C172.872 161.118 170.459 163.53 170.459 166.504C170.459 169.478 172.872 171.89 175.849 171.89Z" fill="#EB6D4A"/>
<path d="M176.185 161.118H161.705V171.89H176.185V161.118Z" fill="#EB6D4A"/>
</svg>