<svg width="256" height="256" title="OpenAPI Initiative" viewBox="0 0 256 256" fill="none" xmlns="http://www.w3.org/2000/svg" id="openapi">
<style>
#openapi {
    rect {fill: #15191C}

    @media (prefers-color-scheme: light) {
        rect {fill: #F4F2ED}
    }
}
</style>
<rect width="256" height="256" rx="40" fill="#15191C"/>
<path d="M186.194 48H190.222L192.861 48.4167L195.778 49.3889L198 50.5L200.083 51.8889L201.889 53.4167L203 54.5278L204.389 56.3333L205.5 58.1389L206.472 60.0833L207.306 62.5833L207.861 65.2222L208 68.1389L207.722 71.0556L206.889 74.25L205.778 76.75L204.667 78.6944L203.278 80.5L201.75 82.1667L200.083 83.5556L198.139 84.8056L195.917 85.9167L193 86.8889L190.917 87.3056L189.528 87.4444H186.75L183.833 87.0278L181.194 86.1944L179.389 85.5L136.75 128.139L136.889 128.972L137.722 131.333L138.278 133.417L138.556 135.639V138.694L138.278 140.917L137.444 143.833L136.472 146.056L135.639 147.583L134.25 149.528L132.722 151.194L131.611 152.306L129.25 153.972L127.167 155.083L124.528 156.056L122.167 156.611L119.667 156.889H117.861L115.361 156.611L112.583 155.917L109.667 154.667L107.583 153.417L106.056 152.167L104.389 150.639L103 148.972L101.611 146.889L100.5 144.528L99.6667 142.028L99.25 139.806L99.1111 138.833V135.5L99.5278 132.861L100.361 130.083L101.333 127.861L102.722 125.639L103.972 124.111L105.083 122.861H105.361L105.5 122.444L107.861 120.639L110.083 119.389L111.611 118.694L113.694 118L115.639 117.583L116.889 117.444H120.639L123.417 117.861L125.639 118.556L127.306 119.25L127.861 119.111L170.361 76.6111L170.222 76.0556L168.972 72.3056L168.556 70.0833L168.417 68.4167V67.0278L168.694 64.3889L169.389 61.6111L170.222 59.5278L171.194 57.5833L172.861 55.2222L174.389 53.5556L176.056 52.0278L178.139 50.6389L180.361 49.5278L182.583 48.6944L184.944 48.1389L186.194 48Z" fill="#444343"/>
<path d="M133.417 161.75L133.833 161.889L136.056 165.639L138.417 169.528L140.917 173.694L143.278 177.583L147.028 183.833L149.389 187.722L151.611 191.472L153.972 195.361L155.361 197.583L154.667 198.278L150.917 200.361L147.722 201.889L143.556 203.556L138.972 205.083L134.806 206.194L130.5 207.028L126.611 207.583L123.694 207.861L120.778 208H116.75L112.028 207.722L106.194 206.889L101.611 205.917L97.3056 204.667L93.6944 203.417L92.1667 202.722L91.8889 202.583L92.1667 201.75L94.25 196.75L97.0278 189.944L99.3889 184.25L101.611 178.833L103.972 173.139L106.056 168L107.444 164.667L107.861 163.833L108.694 163.972L112.028 164.944L114.806 165.5L116.056 165.639L119.389 165.778L122.722 165.5L126.194 164.806L129.528 163.694L133.278 161.889L133.417 161.75Z" fill="#A0D605"/>
<path d="M68.6944 87.0278L69.6667 87.8611L98.4167 116.611L98.2778 117.167L96.6111 118.972L94.9444 121.333L93.6944 123.417L92.1667 126.611L91.1944 129.667L90.6389 132.167L90.0833 137.028L89.9444 137.167H48.1389L48 137.028V134.111L48.2778 130.222L48.8333 126.056L49.8056 121.056L51.0556 116.333L52.4444 112.306L53.9722 108.556L55.2222 105.778L56.8889 102.722L58.5556 99.8056L59.9444 97.7222L61.4722 95.5L63.2778 93.1389L64.8056 91.3333L66.0556 89.8056L67.0278 88.8333L68 87.7222L68.6944 87.0278Z" fill="#4E5A31"/>
<path d="M147.583 137.167H189.528L189.667 137.306V138.972L189.389 143.694L188.833 148.139L188.139 151.889L187.306 155.361L186.333 158.694L184.944 162.722L183.417 166.333L181.472 170.361L179.667 173.556L177.722 176.611L175.778 179.389L174.25 181.333L172.583 183.278L171.333 184.806L168.972 187.167H168.694L167.722 186.056L139.25 157.583L139.528 156.889L140.778 155.639L142.444 153.417L144.111 150.639L145.361 148L146.472 144.667L147.167 141.333L147.583 137.167Z" fill="#72A43F"/>
<path d="M117.583 66.1944H118.694L118.833 66.3333V108.278L118.278 108.417L115.222 108.694L111.611 109.389L108.278 110.5L104.944 112.028L104.389 112.444L103.833 112.306L101.194 107.861L98.8333 103.972L97.1667 101.194L94.8056 97.3056L92.5833 93.5556L91.0556 91.0556L88.6944 87.1667L86.4722 83.4167L84.1111 79.5278L82.4444 76.75L82.5833 76.1944L86.3333 74.1111L90.6389 72.0278L94.5278 70.5L98.6944 69.1111L103 68L108 67.0278L112.722 66.4722L117.583 66.1944Z" fill="#72A43F"/>
<path d="M121.611 66.3333L124.667 66.4722L129.528 67.0278L134.111 67.8611L138.556 68.9722L143.556 70.6389L147.306 72.1667L150.083 73.4167L152.722 74.8056L156.472 77.0278L158.972 78.6944L158.833 79.25L128.139 109.944L126.611 109.528L123.278 108.833L121.75 108.556L121.611 105.083V66.3333Z" fill="#4E5A31"/>
<path d="M177.028 96.75L177.444 97.1667L178.833 99.3889L180.083 101.472L181.333 103.694L182.861 106.611L184.389 110.083L185.639 113.417L187.028 117.722L188 121.611L188.833 126.056L189.389 130.5L189.528 132.306V134.25H147.444L147.167 133.139L146.472 129.667L146.056 128.278L146.194 127.583L148 125.917L148.972 124.806L177.028 96.75Z" fill="#4E5A31"/>
<path d="M48.1389 139.944H90.2222L90.5 141.056L91.1944 144.528L92.4444 148.278L92.8611 149.111V149.528L89.1111 151.75L85.2222 154.111L83.1389 155.361L79.25 157.722L76.4722 159.389L72.5833 161.75L68.1389 164.389L65.2222 166.194L61.4722 168.417L57.5833 170.778L57.0278 171.194L56.6111 171.056L55.0833 168.139L53.2778 164.111L51.8889 160.5L50.6389 156.472L49.6667 152.583L48.8333 148.139L48.2778 143.833L48.1389 142.167V139.944Z" fill="#A0D605"/>
<path d="M100.5 159.389L101.472 159.944L103.694 161.472L105.222 162.444L105.083 163.278L102.444 169.667L98 180.5L95.6389 186.194L93.6944 190.917L91.4722 196.333L89.3889 201.333L89.1111 201.472L85.6389 199.806L82.4444 198L79.3889 196.056L76.8889 194.25L75.0833 192.861L73.5556 191.611L71.75 190.083L70.9167 189.389L71.1944 188.833L84.6667 175.361L85.6389 174.25L92.1667 167.722H92.4444L92.7222 167.167H93L93.2778 166.611H93.5556L93.8333 166.056H94.1111L94.3889 165.5H94.6667L94.9444 164.944L95.7778 164.25L96.4722 163.417L97.5833 162.444L98.1389 161.75L99.8056 160.083H100.083L100.361 159.528L100.5 159.389Z" fill="#4E5A31"/>
<path d="M93.9722 152.028L94.5278 152.167L95.7778 154.111L97.5833 156.333L98.4167 157.306L98.1389 157.861L96.0556 159.944L95.3611 160.778H95.0833V161.056H94.8056L94.5278 161.611L70.3611 185.778L69.5278 186.472L68.9722 187.167L68.4167 186.889L66.6111 185.083L65.6389 183.972L63.9722 182.028L62.1667 179.667L60.6389 177.583L58.8333 174.806L58.2778 173.972L58.4167 173.417L60.6389 172.167L62.4444 171.056L66.3333 168.694L71.8889 165.361L75.7778 163L80.2222 160.361L82.4444 158.972L86.8889 156.333L90.0833 154.389L93.5556 152.306L93.9722 152.028Z" fill="#72A440"/>
<path d="M79.6667 78L80.2222 78.2778L81.4722 80.5L83.8333 84.3889L86.4722 88.8333L88.8333 92.7222L93.8333 101.056L95.3611 103.556L97.0278 106.333L99.3889 110.222L101.056 113L101.611 113.833L101.472 114.389L100.778 114.806L100.222 114.528L70.9167 85.2222L71.1944 84.6667L73 83L76.8889 79.9444L79.6667 78Z" fill="#A0D605"/>
<path d="M136.889 159.389L137.444 159.667L150.222 172.444V172.722L150.778 173V173.278L151.333 173.556V173.833L151.889 174.111V174.389L152.444 174.667V174.944L153 175.222V175.5L153.556 175.778V176.056L154.111 176.333L154.806 177.167L155.639 177.861L156.472 178.833L157.306 179.528L158.139 180.5L158.972 181.194L159.806 182.167L160.778 183L161.333 183.556V183.833L161.889 184.111V184.389L162.444 184.667V184.944L163 185.222V185.5L163.556 185.778V186.056L164.111 186.333L165.222 187.444V187.722L165.778 188L166.75 189.111L166.611 189.528L165.5 190.5L163.556 192.167L161.611 193.694L159.25 195.361L158 196.194L157.583 196.056L154.944 191.611L153.417 189.111L149.667 182.861L147.306 178.972L144.667 174.528L142.722 171.333L140.361 167.444L137.722 163L136.056 160.361L136.333 159.806L136.889 159.389Z" fill="#4E5B31"/>
</svg>