<svg width="256" height="256" title="OpenWebUI" viewBox="0 0 256 256" fill="none" xmlns="http://www.w3.org/2000/svg">
<rect width="256" height="256" rx="40" fill="white"/>
<path d="M96.0655 72.5011C88.3479 73.754 79.5779 77.2119 72.8125 81.7221C68.653 84.4784 63.2407 89.6903 59.7327 94.3008C56.0743 99.1118 51.9149 107.782 50.3112 113.845C49.1586 118.306 49.0082 119.809 49.0082 127.376C48.9581 134.994 49.1085 136.397 50.2611 140.707C52.9171 150.429 57.3272 158.547 63.6917 165.413C70.407 172.579 80.2795 178.443 90.0016 181.099C94.562 182.301 95.8149 182.452 104.034 182.452C113.806 182.452 117.264 181.9 124.681 178.944C142.571 171.878 156.002 154.889 158.959 135.645C159.861 129.782 159.259 119.358 157.756 113.495C155.25 103.973 150.439 95.6038 143.373 88.4876C133.05 78.1139 120.371 72.6014 105.788 72.2506C102.079 72.1503 97.6691 72.2506 96.0655 72.5011ZM112.553 95.3031C118.116 96.7063 122.676 99.4125 127.337 104.073C133.801 110.488 136.708 116.852 137.209 125.622C138.211 143.814 124.43 159.399 106.389 160.552C90.2522 161.554 76.0699 151.281 71.8603 135.595C70.7578 131.335 70.7578 123.467 71.9104 119.107C75.3683 106.178 86.2932 96.556 100.024 94.401C102.48 94.0001 109.346 94.5013 112.553 95.3031Z" fill="black"/>
<path d="M176.95 183.254H199V72H176.95V183.254Z" fill="black"/>
</svg>