<svg width="256" height="256" title="OpenSergo" viewBox="0 0 256 256" fill="none" xmlns="http://www.w3.org/2000/svg">
<rect width="256" height="256" rx="40" fill="#5A81FF"/>
<path fill-rule="evenodd" clip-rule="evenodd" d="M151.475 112.255H84.8987L129.616 67.7528L122.406 87.4773H178.317C178.345 87.4785 178.373 87.4706 178.396 87.4545C178.419 87.4384 178.436 87.4153 178.444 87.3886L190.217 55.1773C190.224 55.1572 190.227 55.1356 190.223 55.1144C190.221 55.0932 190.212 55.0731 190.2 55.0557C190.187 55.0383 190.171 55.0241 190.152 55.0145C190.133 55.0048 190.111 54.9998 190.09 55H104.518C80.2024 55 59.1896 73.5403 58.0505 97.7036C56.8414 123.412 77.4914 144.732 103.067 144.732H171.094L126.377 189.233L133.587 169.522H77.6569C77.6293 169.523 77.6025 169.531 77.5797 169.547C77.5571 169.563 77.5397 169.585 77.5297 169.61L65.7441 201.815C65.7337 201.836 65.7289 201.859 65.7304 201.882C65.7319 201.904 65.7396 201.927 65.7526 201.945C65.7657 201.964 65.7837 201.979 65.8045 201.989C65.8255 201.998 65.8485 202.002 65.8714 201.999H152.926C178.508 201.999 199.165 180.679 197.949 154.971C196.803 130.795 175.79 112.255 151.475 112.255Z" fill="white"/>
</svg>