<svg width="256" height="256" title="OpenTelemetry" viewBox="0 0 256 256" fill="none" xmlns="http://www.w3.org/2000/svg" id="opentelemetry">
<style>
#opentelemetry {
    rect {fill: #15191C}

    @media (prefers-color-scheme: light) {
        rect {fill: #F4F2ED}
    }
}
</style>
<rect width="256" height="256" rx="40" fill="#15191C"/>
<path d="M132.649 135.457C125.836 142.276 125.836 153.327 132.649 160.146C139.469 166.96 150.519 166.96 157.333 160.146C164.152 153.327 164.152 142.276 157.333 135.457C150.519 128.643 139.469 128.643 132.649 135.457ZM151.102 153.926C150.3 154.729 149.348 155.366 148.299 155.801C147.251 156.236 146.126 156.46 144.991 156.46C143.856 156.46 142.732 156.236 141.683 155.801C140.635 155.366 139.682 154.729 138.88 153.926C138.078 153.124 137.441 152.171 137.007 151.123C136.572 150.075 136.349 148.951 136.349 147.816C136.349 146.682 136.572 145.558 137.007 144.51C137.441 143.462 138.078 142.509 138.88 141.707C139.682 140.904 140.635 140.267 141.683 139.832C142.732 139.397 143.856 139.173 144.991 139.173C146.126 139.173 147.251 139.397 148.299 139.832C149.348 140.267 150.3 140.904 151.102 141.707C154.477 145.066 154.477 150.551 151.102 153.926ZM157.045 49.5695L146.349 60.2643C145.342 61.2789 144.777 62.6503 144.777 64.0798C144.777 65.5092 145.342 66.8806 146.349 67.8952L188.106 109.652C189.12 110.659 190.492 111.224 191.921 111.224C193.351 111.224 194.722 110.659 195.737 109.652L206.432 98.9563C208.523 96.8651 208.523 93.4218 206.432 91.3319L164.656 49.5682C163.644 48.5637 162.276 48 160.85 48C159.425 48 158.057 48.565 157.045 49.5695ZM82.1105 186.24C83.0225 185.324 83.5345 184.084 83.5345 182.792C83.5345 181.499 83.0225 180.259 82.1105 179.343L76.6774 173.905C75.7604 172.993 74.5199 172.482 73.2269 172.482C71.9339 172.482 70.6935 172.993 69.7765 173.905L58.5491 185.139L58.5283 185.154L55.4487 182.07C53.7433 180.364 50.9676 180.364 49.2791 182.07C47.5736 183.774 47.5736 186.549 49.2791 188.239L67.7827 206.738C68.1872 207.143 68.6677 207.464 69.1966 207.684C69.7254 207.903 70.2924 208.016 70.8649 208.016C71.4375 208.016 72.0044 207.903 72.5333 207.684C73.0622 207.464 73.5426 207.143 73.9471 206.738C75.6357 205.032 75.6526 202.257 73.9471 200.573L70.8623 197.488L70.8831 197.473L82.1105 186.24Z" fill="#F5A800"/>
<path d="M138.688 80.276L114.928 104.035C112.817 106.146 112.817 109.621 114.928 111.732L129.6 126.4C139.97 118.937 154.512 119.86 163.842 129.197L175.724 117.313C177.831 115.203 177.831 111.732 175.724 109.621L146.381 80.276C145.876 79.7705 145.277 79.3696 144.617 79.096C143.957 78.8224 143.249 78.6816 142.535 78.6816C141.821 78.6816 141.113 78.8224 140.453 79.096C139.794 79.3696 139.193 79.7705 138.688 80.276ZM123.43 132.584L114.764 123.918C112.734 121.889 109.406 121.889 107.381 123.918L76.8189 154.493C75.844 155.475 75.2969 156.803 75.2969 158.187C75.2969 159.57 75.844 160.898 76.8189 161.88L94.1341 179.196C95.1162 180.172 96.4441 180.719 97.8281 180.719C99.2121 180.719 100.54 180.172 101.522 179.196L121.177 159.509C117.021 150.925 117.767 140.555 123.43 132.584Z" fill="#425CC7"/>
</svg>