<svg width="256" height="256" title="Oracle" viewBox="0 0 256 256" fill="none" xmlns="http://www.w3.org/2000/svg" id="oracle">
<style>
#oracle {
    rect {fill: #15191C}

    @media (prefers-color-scheme: light) {
        rect {fill: #F4F2ED}
    }
}
</style>
<rect width="256" height="256" rx="40" fill="#15191C"/>
<path d="M117.388 190.651H128.27L122.522 181.562L111.954 197.979H107.148L120.001 178.283C120.281 177.89 120.654 177.568 121.087 177.345C121.52 177.122 122.002 177.004 122.491 177C122.981 176.997 123.464 177.108 123.9 177.325C124.337 177.542 124.714 177.859 125 178.248L137.888 197.979H133.083L130.819 194.308H119.808L117.409 190.651M167.343 194.308V177.199H163.258V195.993C163.258 196.254 163.311 196.513 163.415 196.753C163.52 196.994 163.673 197.211 163.865 197.392C164.059 197.585 164.29 197.739 164.545 197.843C164.8 197.948 165.074 198.001 165.351 198H183.916L186.337 194.329H167.321M99.8149 191.253C101.718 191.253 103.543 190.512 104.889 189.195C106.235 187.877 106.991 186.089 106.991 184.226C106.991 182.362 106.235 180.575 104.889 179.257C103.543 177.939 101.718 177.199 99.8149 177.199H81.9636V197.979H86.0408V180.877H99.565C100.476 180.877 101.349 181.231 101.994 181.862C102.638 182.492 103 183.348 103 184.24C103 185.132 102.638 185.987 101.994 186.618C101.349 187.249 100.476 187.603 99.565 187.603H88.0616L100.243 197.979H106.163L97.9798 191.253H99.8149ZM56.8861 197.979H69.2177C71.9833 197.909 74.6115 196.784 76.5422 194.843C78.4729 192.903 79.5533 190.301 79.5533 187.592C79.5533 184.883 78.4729 182.282 76.5422 180.341C74.6115 178.401 71.9833 177.276 69.2177 177.206H56.8861C55.4699 177.17 54.0608 177.412 52.7417 177.918C51.4227 178.424 50.2204 179.183 49.2058 180.151C48.1912 181.119 47.3848 182.276 46.8342 183.554C46.2837 184.832 46 186.205 46 187.592C46 188.98 46.2837 190.353 46.8342 191.631C47.3848 192.909 48.1912 194.066 49.2058 195.034C50.2204 196.002 51.4227 196.761 52.7417 197.267C54.0608 197.773 55.4699 198.015 56.8861 197.979ZM68.9393 194.322H57.1574C55.3748 194.266 53.6845 193.533 52.4439 192.278C51.2033 191.024 50.5097 189.346 50.5097 187.599C50.5097 185.853 51.2033 184.175 52.4439 182.921C53.6845 181.666 55.3748 180.933 57.1574 180.877H68.9393C69.8595 180.848 70.7763 181 71.6352 181.325C72.4941 181.65 73.2776 182.14 73.939 182.767C74.6005 183.394 75.1264 184.145 75.4856 184.975C75.8448 185.806 76.0299 186.698 76.0299 187.599C76.0299 188.501 75.8448 189.393 75.4856 190.223C75.1264 191.054 74.6005 191.805 73.939 192.432C73.2776 193.059 72.4941 193.549 71.6352 193.874C70.7763 194.199 69.8595 194.351 68.9393 194.322ZM146.407 197.979H158.996L161.38 194.322H146.685C145.765 194.351 144.848 194.199 143.989 193.874C143.13 193.549 142.347 193.059 141.686 192.432C141.024 191.805 140.498 191.054 140.139 190.223C139.78 189.393 139.595 188.501 139.595 187.599C139.595 186.698 139.78 185.806 140.139 184.975C140.498 184.145 141.024 183.394 141.686 182.767C142.347 182.14 143.13 181.65 143.989 181.325C144.848 181 145.765 180.848 146.685 180.877H158.646L161.059 177.206H146.407C144.991 177.17 143.582 177.412 142.262 177.918C140.943 178.424 139.741 179.183 138.727 180.151C137.712 181.119 136.906 182.276 136.355 183.554C135.804 184.832 135.521 186.205 135.521 187.592C135.521 188.98 135.804 190.353 136.355 191.631C136.906 192.909 137.712 194.066 138.727 195.034C139.741 196.002 140.943 196.761 142.262 197.267C143.582 197.773 144.991 198.015 146.407 197.979ZM196.298 194.322C194.802 194.323 193.346 193.845 192.153 192.962C190.959 192.078 190.093 190.837 189.686 189.428H207.123L209.522 185.764H189.686C190.092 184.354 190.958 183.112 192.152 182.229C193.345 181.345 194.801 180.868 196.298 180.87H208.265L210.657 177.199H196.019C193.254 177.269 190.625 178.394 188.695 180.334C186.764 182.275 185.684 184.877 185.684 187.585C185.684 190.294 186.764 192.896 188.695 194.836C190.625 196.777 193.254 197.902 196.019 197.972H208.608L211 194.315H196.291" fill="#EE0004"/>
<path d="M98.1549 166.982H160.634C174.646 166.617 187.962 160.769 197.744 150.685C207.526 140.602 213 127.079 213 113C213 98.9209 207.526 85.3985 197.744 75.3147C187.962 65.231 174.646 59.3834 160.634 59.0182H98.1549C90.98 58.8312 83.8405 60.0891 77.1574 62.7179C70.4742 65.3467 64.3828 69.293 59.2423 74.3242C54.1018 79.3554 50.0163 85.3695 47.2267 92.012C44.4372 98.6544 43 105.791 43 113C43 120.209 44.4372 127.346 47.2267 133.988C50.0163 140.63 54.1018 146.645 59.2423 151.676C64.3828 156.707 70.4742 160.653 77.1574 163.282C83.8405 165.911 90.98 167.169 98.1549 166.982ZM159.223 147.976H99.5296C90.4982 147.684 81.9342 143.874 75.6485 137.354C69.3629 130.833 65.8484 122.113 65.8484 113.036C65.8484 103.96 69.3629 95.2394 75.6485 88.7188C81.9342 82.1982 90.4982 78.3888 99.5296 78.0962H159.223C163.886 77.9452 168.531 78.7372 172.882 80.4251C177.234 82.113 181.203 84.6624 184.555 87.9218C187.906 91.1812 190.571 95.0841 192.391 99.3985C194.21 103.713 195.148 108.351 195.148 113.036C195.148 117.722 194.21 122.36 192.391 126.674C190.571 130.989 187.906 134.891 184.555 138.151C181.203 141.41 177.234 143.96 172.882 145.648C168.531 147.336 163.886 148.127 159.223 147.976Z" fill="#EE0004"/>
<path d="M219 177C218.209 177 217.436 177.235 216.778 177.674C216.12 178.114 215.607 178.738 215.304 179.469C215.002 180.2 214.923 181.004 215.077 181.78C215.231 182.556 215.612 183.269 216.172 183.828C216.731 184.388 217.444 184.769 218.22 184.923C218.996 185.077 219.8 184.998 220.531 184.696C221.262 184.393 221.886 183.88 222.326 183.222C222.765 182.564 223 181.791 223 181C223 180.475 222.897 179.955 222.696 179.469C222.494 178.984 222.2 178.543 221.828 178.172C221.457 177.8 221.016 177.506 220.531 177.304C220.045 177.103 219.525 177 219 177ZM219 184.2C218.367 184.2 217.748 184.012 217.222 183.661C216.696 183.309 216.286 182.809 216.044 182.225C215.801 181.64 215.738 180.996 215.861 180.376C215.985 179.755 216.29 179.185 216.737 178.737C217.185 178.29 217.755 177.985 218.376 177.861C218.996 177.738 219.64 177.801 220.225 178.044C220.809 178.286 221.309 178.696 221.661 179.222C222.012 179.748 222.2 180.367 222.2 181C222.2 181.849 221.863 182.663 221.263 183.263C220.663 183.863 219.849 184.2 219 184.2ZM219.1 181.508H218.524V182.8H217.8V179.284H219.104C219.446 179.263 219.785 179.36 220.064 179.56C220.179 179.657 220.27 179.781 220.328 179.92C220.386 180.059 220.411 180.21 220.4 180.36C220.408 180.571 220.354 180.78 220.244 180.96C220.131 181.138 219.966 181.278 219.772 181.36L220.532 182.796V182.836H219.756L219.1 181.544M218.524 180.96H219.108C219.261 180.969 219.411 180.918 219.528 180.82C219.581 180.769 219.622 180.706 219.647 180.637C219.673 180.568 219.683 180.493 219.676 180.42C219.682 180.347 219.673 180.274 219.649 180.205C219.624 180.136 219.586 180.073 219.536 180.02C219.477 179.968 219.409 179.929 219.334 179.905C219.26 179.881 219.182 179.873 219.104 179.88H218.524V180.96Z" fill="#EE0004"/>
</svg>