<svg width="256" height="256" title="Oracle Cloud Infrastructure" viewBox="0 0 256 256" fill="none" xmlns="http://www.w3.org/2000/svg" id="oci">
<style>
#oci {
    rect {fill: #15191C}
    path.oci {fill: white}

    @media (prefers-color-scheme: light) {
        rect {fill: #F4F2ED}
        path.oci {fill: #212121}
    }
}
</style>
<rect width="256" height="256" rx="40" fill="#15191C"/>
<path d="M103.195 140.934H108.528L105.755 136.536L100.635 144.704H98.2892L104.688 134.86C104.902 134.442 105.328 134.232 105.968 134.232C106.395 134.232 106.821 134.442 107.248 134.86L113.647 144.704H111.301L110.234 142.819H104.902L103.195 140.934ZM127.939 142.819V134.442H126.019V143.657C126.019 143.866 126.232 144.075 126.232 144.285C126.445 144.494 126.659 144.494 126.872 144.494H136.044L137.324 142.609H127.939V142.819ZM94.6631 141.353C96.5828 141.562 98.2891 140.096 98.5024 138.211C98.7157 136.326 97.2226 134.651 95.3028 134.442C95.0895 134.442 94.8763 134.442 94.8763 134.442H86.1309V144.704H88.0504V136.327H94.6631C95.5163 136.536 96.3694 137.374 96.1561 138.211C96.1561 139.049 95.5163 139.677 94.6631 139.677H88.9037L94.8763 144.913H97.8627L93.8098 141.562L94.6631 141.353ZM73.3326 144.704C70.3464 144.704 68 142.4 68 139.468C68 136.536 70.3464 134.232 73.3326 134.232H79.5182C82.5045 134.232 84.8509 136.536 84.8509 139.468C84.8509 142.4 82.5045 144.704 79.5182 144.704H73.3326ZM79.305 142.819C81.2247 142.819 82.7178 141.353 82.7178 139.677C82.7178 137.793 81.2247 136.327 79.5182 136.327H73.3326C71.4129 136.327 69.9195 137.793 69.9195 139.468C69.9195 141.353 71.4127 142.819 73.1191 142.819H79.305ZM117.7 144.704C114.714 144.704 112.367 142.4 112.367 139.468C112.367 136.536 114.714 134.232 117.7 134.232H124.952L123.672 136.117H117.7C115.78 136.117 114.287 137.793 114.5 139.468C114.5 141.143 115.993 142.609 117.7 142.609H124.952L123.672 144.494L117.7 144.704ZM142.23 142.819C140.737 142.819 139.457 141.772 139.03 140.306H147.562L148.842 138.421H139.03C139.457 136.955 140.737 135.908 142.23 135.908H148.202L149.482 134.023H142.23C139.244 134.023 136.897 136.326 136.897 139.258C136.897 142.19 139.244 144.494 142.23 144.494H148.416L149.696 142.609L142.23 142.819Z" class="oci" fill="white"/>
<path d="M76.0707 151.67H74.9436C74.877 151.352 74.7603 151.072 74.5937 150.831C74.4301 150.59 74.2301 150.388 73.9938 150.224C73.7604 150.058 73.5014 149.933 73.2166 149.85C72.9318 149.766 72.6348 149.725 72.3258 149.725C71.7622 149.725 71.2517 149.864 70.7942 150.144C70.3397 150.424 69.9776 150.836 69.708 151.38C69.4413 151.925 69.308 152.592 69.308 153.384C69.308 154.175 69.4413 154.843 69.708 155.387C69.9776 155.932 70.3397 156.344 70.7942 156.623C71.2517 156.903 71.7622 157.043 72.3258 157.043C72.6348 157.043 72.9318 157.001 73.2166 156.918C73.5014 156.834 73.7604 156.711 73.9938 156.547C74.2301 156.381 74.4301 156.177 74.5937 155.936C74.7603 155.692 74.877 155.412 74.9436 155.097H76.0707C75.9859 155.564 75.8314 155.982 75.6072 156.351C75.383 156.72 75.1042 157.034 74.7709 157.293C74.4376 157.548 74.0634 157.743 73.6483 157.877C73.2363 158.011 72.7954 158.078 72.3258 158.078C71.532 158.078 70.826 157.888 70.2079 157.507C69.5898 157.126 69.1035 156.585 68.749 155.883C68.3945 155.18 68.2173 154.348 68.2173 153.384C68.2173 152.42 68.3945 151.587 68.749 150.885C69.1035 150.183 69.5898 149.641 70.2079 149.261C70.826 148.88 71.532 148.689 72.3258 148.689C72.7954 148.689 73.2363 148.756 73.6483 148.89C74.0634 149.024 74.4376 149.22 74.7709 149.479C75.1042 149.735 75.383 150.047 75.6072 150.416C75.8314 150.782 75.9859 151.2 76.0707 151.67Z" class="oci" fill="white"/>
<path d="M78.8192 148.814V157.953H77.7467V148.814H78.8192Z" class="oci" fill="white"/>
<path d="M83.6197 158.096C82.9895 158.096 82.4366 157.949 81.9609 157.654C81.4882 157.36 81.1185 156.948 80.8519 156.418C80.5883 155.888 80.4565 155.27 80.4565 154.562C80.4565 153.848 80.5883 153.225 80.8519 152.692C81.1185 152.16 81.4882 151.746 81.9609 151.452C82.4366 151.157 82.9895 151.01 83.6197 151.01C84.2499 151.01 84.8014 151.157 85.2741 151.452C85.7497 151.746 86.1194 152.16 86.383 152.692C86.6496 153.225 86.7829 153.848 86.7829 154.562C86.7829 155.27 86.6496 155.888 86.383 156.418C86.1194 156.948 85.7497 157.36 85.2741 157.654C84.8014 157.949 84.2499 158.096 83.6197 158.096ZM83.6197 157.15C84.0985 157.15 84.4923 157.029 84.8014 156.788C85.1104 156.547 85.3392 156.231 85.4877 155.838C85.6361 155.445 85.7104 155.02 85.7104 154.562C85.7104 154.104 85.6361 153.677 85.4877 153.281C85.3392 152.885 85.1104 152.566 84.8014 152.322C84.4923 152.078 84.0985 151.956 83.6197 151.956C83.141 151.956 82.7471 152.078 82.4381 152.322C82.129 152.566 81.9003 152.885 81.7518 153.281C81.6033 153.677 81.5291 154.104 81.5291 154.562C81.5291 155.02 81.6033 155.445 81.7518 155.838C81.9003 156.231 82.129 156.547 82.4381 156.788C82.7471 157.029 83.141 157.15 83.6197 157.15Z" class="oci" fill="white"/>
<path d="M92.8196 155.151V151.099H93.8922V157.953H92.8196V156.793H92.7469C92.5833 157.141 92.3288 157.437 91.9834 157.681C91.638 157.922 91.2017 158.042 90.6745 158.042C90.2382 158.042 89.8503 157.949 89.511 157.761C89.1716 157.571 88.905 157.285 88.7111 156.904C88.5172 156.521 88.4202 156.037 88.4202 155.454V151.099H89.4928V155.383C89.4928 155.883 89.6352 156.281 89.92 156.579C90.2079 156.876 90.5745 157.025 91.0199 157.025C91.2865 157.025 91.5577 156.958 91.8334 156.824C92.1121 156.69 92.3454 156.485 92.5333 156.208C92.7242 155.932 92.8196 155.579 92.8196 155.151Z" class="oci" fill="white"/>
<path d="M98.4927 158.096C97.911 158.096 97.3974 157.952 96.952 157.663C96.5066 157.371 96.1582 156.961 95.9067 156.431C95.6552 155.899 95.5295 155.27 95.5295 154.544C95.5295 153.824 95.6552 153.199 95.9067 152.67C96.1582 152.14 96.5081 151.731 96.9566 151.443C97.405 151.154 97.9231 151.01 98.5109 151.01C98.9654 151.01 99.3244 151.084 99.588 151.233C99.8547 151.379 100.058 151.545 100.197 151.733C100.339 151.917 100.45 152.069 100.529 152.188H100.62V148.814H101.692V157.953H100.656V156.9H100.529C100.45 157.025 100.338 157.183 100.192 157.373C100.047 157.56 99.8395 157.728 99.5699 157.877C99.3002 158.023 98.9412 158.096 98.4927 158.096ZM98.6382 157.15C99.0684 157.15 99.432 157.04 99.7289 156.82C100.026 156.596 100.252 156.289 100.406 155.896C100.561 155.5 100.638 155.044 100.638 154.526C100.638 154.014 100.562 153.567 100.411 153.183C100.259 152.796 100.035 152.496 99.738 152.281C99.4411 152.064 99.0745 151.956 98.6382 151.956C98.1837 151.956 97.8049 152.07 97.502 152.299C97.202 152.525 96.9763 152.833 96.8248 153.223C96.6763 153.61 96.6021 154.044 96.6021 154.526C96.6021 155.014 96.6778 155.457 96.8293 155.856C96.9838 156.251 97.2111 156.567 97.511 156.802C97.814 157.034 98.1897 157.15 98.6382 157.15Z" class="oci" fill="white"/>
<path d="M108.678 148.814V157.953H107.551V148.814H108.678Z" class="oci" fill="white"/>
<path d="M111.865 153.83V157.953H110.792V151.099H111.828V152.17H111.919C112.083 151.822 112.331 151.542 112.665 151.331C112.998 151.117 113.428 151.01 113.955 151.01C114.428 151.01 114.842 151.105 115.196 151.295C115.551 151.483 115.826 151.768 116.023 152.152C116.22 152.533 116.319 153.015 116.319 153.598V157.953H115.246V153.669C115.246 153.131 115.104 152.711 114.819 152.411C114.534 152.107 114.143 151.956 113.646 151.956C113.304 151.956 112.998 152.029 112.728 152.174C112.462 152.32 112.251 152.533 112.097 152.812C111.942 153.092 111.865 153.431 111.865 153.83Z" class="oci" fill="white"/>
<path d="M121.387 151.099V151.991H117.624V151.099H121.387ZM118.751 157.953V150.153C118.751 149.76 118.845 149.433 119.033 149.171C119.221 148.91 119.465 148.713 119.765 148.582C120.065 148.451 120.381 148.386 120.715 148.386C120.978 148.386 121.193 148.407 121.36 148.448C121.527 148.49 121.651 148.529 121.733 148.564L121.424 149.475C121.369 149.457 121.293 149.435 121.196 149.408C121.103 149.381 120.978 149.368 120.824 149.368C120.469 149.368 120.213 149.455 120.056 149.631C119.901 149.806 119.824 150.064 119.824 150.403V157.953H118.751Z" class="oci" fill="white"/>
<path d="M122.891 157.953V151.099H123.927V152.134H124C124.127 151.795 124.357 151.52 124.69 151.309C125.024 151.098 125.399 150.992 125.817 150.992C125.896 150.992 125.995 150.993 126.113 150.996C126.231 150.999 126.32 151.004 126.381 151.01V152.081C126.345 152.072 126.261 152.058 126.131 152.041C126.004 152.02 125.869 152.009 125.727 152.009C125.387 152.009 125.084 152.079 124.818 152.219C124.554 152.356 124.345 152.546 124.19 152.79C124.039 153.031 123.963 153.306 123.963 153.616V157.953H122.891Z" class="oci" fill="white"/>
<path d="M129.707 158.114C129.264 158.114 128.863 158.032 128.502 157.868C128.142 157.702 127.855 157.462 127.643 157.15C127.431 156.834 127.325 156.454 127.325 156.007C127.325 155.615 127.404 155.296 127.562 155.053C127.719 154.806 127.93 154.612 128.193 154.472C128.457 154.333 128.748 154.229 129.066 154.16C129.387 154.089 129.71 154.032 130.034 153.991C130.458 153.937 130.802 153.897 131.066 153.87C131.332 153.84 131.526 153.791 131.647 153.723C131.772 153.654 131.834 153.535 131.834 153.366V153.33C131.834 152.89 131.711 152.548 131.466 152.304C131.223 152.06 130.855 151.938 130.361 151.938C129.849 151.938 129.448 152.048 129.157 152.268C128.866 152.488 128.661 152.723 128.543 152.973L127.525 152.616C127.707 152.2 127.949 151.875 128.252 151.643C128.558 151.408 128.892 151.245 129.252 151.153C129.616 151.057 129.973 151.01 130.325 151.01C130.549 151.01 130.807 151.037 131.097 151.09C131.391 151.141 131.675 151.246 131.947 151.407C132.223 151.568 132.452 151.81 132.634 152.134C132.815 152.458 132.906 152.893 132.906 153.437V157.953H131.834V157.025H131.779C131.706 157.174 131.585 157.333 131.416 157.502C131.246 157.672 131.02 157.816 130.738 157.935C130.457 158.054 130.113 158.114 129.707 158.114ZM129.87 157.168C130.295 157.168 130.652 157.086 130.943 156.922C131.237 156.759 131.458 156.547 131.606 156.289C131.758 156.03 131.834 155.758 131.834 155.472V154.508C131.788 154.562 131.688 154.611 131.534 154.655C131.382 154.697 131.207 154.734 131.007 154.767C130.81 154.797 130.617 154.823 130.429 154.847C130.245 154.868 130.095 154.886 129.979 154.901C129.701 154.937 129.44 154.995 129.198 155.075C128.958 155.152 128.764 155.27 128.616 155.427C128.471 155.582 128.398 155.793 128.398 156.061C128.398 156.427 128.536 156.704 128.811 156.891C129.09 157.075 129.443 157.168 129.87 157.168Z" class="oci" fill="white"/>
<path d="M139.809 152.634L138.845 152.902C138.785 152.744 138.695 152.591 138.577 152.442C138.462 152.29 138.304 152.165 138.104 152.067C137.904 151.969 137.648 151.92 137.336 151.92C136.909 151.92 136.553 152.017 136.268 152.21C135.987 152.4 135.846 152.643 135.846 152.937C135.846 153.199 135.943 153.406 136.137 153.558C136.33 153.709 136.633 153.836 137.045 153.937L138.082 154.187C138.706 154.336 139.171 154.563 139.477 154.87C139.783 155.173 139.936 155.564 139.936 156.043C139.936 156.436 139.821 156.787 139.591 157.096C139.363 157.406 139.045 157.65 138.636 157.828C138.227 158.007 137.751 158.096 137.209 158.096C136.497 158.096 135.908 157.944 135.441 157.641C134.975 157.337 134.679 156.894 134.555 156.311L135.573 156.061C135.67 156.43 135.853 156.707 136.123 156.891C136.396 157.075 136.752 157.168 137.191 157.168C137.691 157.168 138.088 157.064 138.382 156.855C138.679 156.644 138.827 156.391 138.827 156.097C138.827 155.859 138.742 155.659 138.573 155.499C138.403 155.335 138.142 155.213 137.791 155.133L136.627 154.865C135.988 154.716 135.518 154.486 135.218 154.173C134.922 153.858 134.773 153.464 134.773 152.991C134.773 152.604 134.884 152.262 135.105 151.965C135.329 151.667 135.634 151.434 136.018 151.264C136.406 151.095 136.846 151.01 137.336 151.01C138.027 151.01 138.57 151.159 138.963 151.456C139.36 151.753 139.642 152.146 139.809 152.634Z" class="oci" fill="white"/>
<path d="M144.587 151.099V151.991H140.969V151.099H144.587ZM142.023 149.457H143.096V155.99C143.096 156.287 143.14 156.51 143.228 156.659C143.319 156.805 143.434 156.903 143.573 156.953C143.715 157.001 143.865 157.025 144.023 157.025C144.141 157.025 144.238 157.019 144.314 157.007C144.39 156.992 144.45 156.98 144.496 156.971L144.714 157.917C144.641 157.944 144.54 157.971 144.409 157.998C144.279 158.027 144.114 158.042 143.914 158.042C143.611 158.042 143.314 157.978 143.023 157.85C142.735 157.722 142.496 157.528 142.305 157.266C142.117 157.004 142.023 156.674 142.023 156.275V149.457Z" class="oci" fill="white"/>
<path d="M146.2 157.953V151.099H147.236V152.134H147.309C147.436 151.795 147.666 151.52 148 151.309C148.333 151.098 148.709 150.992 149.127 150.992C149.206 150.992 149.304 150.993 149.422 150.996C149.54 150.999 149.63 151.004 149.69 151.01V152.081C149.654 152.072 149.571 152.058 149.44 152.041C149.313 152.02 149.178 152.009 149.036 152.009C148.697 152.009 148.394 152.079 148.127 152.219C147.863 152.356 147.654 152.546 147.5 152.79C147.348 153.031 147.273 153.306 147.273 153.616V157.953H146.2Z" class="oci" fill="white"/>
<path d="M155.361 155.151V151.099H156.434V157.953H155.361V156.793H155.288C155.125 157.141 154.87 157.437 154.525 157.681C154.18 157.922 153.743 158.042 153.216 158.042C152.78 158.042 152.392 157.949 152.053 157.761C151.713 157.571 151.447 157.285 151.253 156.904C151.059 156.521 150.962 156.037 150.962 155.454V151.099H152.034V155.383C152.034 155.883 152.177 156.281 152.462 156.579C152.749 156.876 153.116 157.025 153.561 157.025C153.828 157.025 154.099 156.958 154.375 156.824C154.654 156.69 154.887 156.485 155.075 156.208C155.266 155.932 155.361 155.579 155.361 155.151Z" class="oci" fill="white"/>
<path d="M161.234 158.096C160.58 158.096 160.016 157.944 159.544 157.641C159.071 157.337 158.707 156.919 158.453 156.387C158.198 155.854 158.071 155.246 158.071 154.562C158.071 153.866 158.201 153.251 158.462 152.719C158.726 152.183 159.092 151.765 159.562 151.465C160.034 151.161 160.586 151.01 161.216 151.01C161.707 151.01 162.149 151.099 162.543 151.277C162.937 151.456 163.26 151.706 163.511 152.027C163.763 152.348 163.919 152.723 163.979 153.152H162.907C162.825 152.839 162.643 152.563 162.361 152.322C162.083 152.078 161.707 151.956 161.234 151.956C160.816 151.956 160.45 152.063 160.134 152.277C159.822 152.488 159.578 152.787 159.403 153.174C159.23 153.558 159.144 154.008 159.144 154.526C159.144 155.056 159.228 155.517 159.398 155.909C159.571 156.302 159.813 156.607 160.125 156.824C160.44 157.041 160.81 157.15 161.234 157.15C161.513 157.15 161.766 157.102 161.993 157.007C162.221 156.912 162.413 156.775 162.57 156.596C162.728 156.418 162.84 156.204 162.907 155.954H163.979C163.919 156.358 163.769 156.723 163.529 157.047C163.293 157.368 162.98 157.624 162.589 157.815C162.201 158.002 161.749 158.096 161.234 158.096Z" class="oci" fill="white"/>
<path d="M168.583 151.099V151.991H164.966V151.099H168.583ZM166.02 149.457H167.093V155.99C167.093 156.287 167.137 156.51 167.224 156.659C167.315 156.805 167.43 156.903 167.57 156.953C167.712 157.001 167.862 157.025 168.02 157.025C168.138 157.025 168.235 157.019 168.311 157.007C168.386 156.992 168.447 156.98 168.492 156.971L168.711 157.917C168.638 157.944 168.536 157.971 168.406 157.998C168.276 158.027 168.111 158.042 167.911 158.042C167.608 158.042 167.311 157.978 167.02 157.85C166.732 157.722 166.493 157.528 166.302 157.266C166.114 157.004 166.02 156.674 166.02 156.275V149.457Z" class="oci" fill="white"/>
<path d="M174.596 155.151V151.099H175.669V157.953H174.596V156.793H174.523C174.36 157.141 174.105 157.437 173.76 157.681C173.414 157.922 172.978 158.042 172.451 158.042C172.015 158.042 171.627 157.949 171.287 157.761C170.948 157.571 170.682 157.285 170.488 156.904C170.294 156.521 170.197 156.037 170.197 155.454V151.099H171.269V155.383C171.269 155.883 171.412 156.281 171.697 156.579C171.984 156.876 172.351 157.025 172.796 157.025C173.063 157.025 173.334 156.958 173.61 156.824C173.889 156.69 174.122 156.485 174.31 156.208C174.501 155.932 174.596 155.579 174.596 155.151Z" class="oci" fill="white"/>
<path d="M177.633 157.953V151.099H178.669V152.134H178.742C178.869 151.795 179.1 151.52 179.433 151.309C179.766 151.098 180.142 150.992 180.56 150.992C180.639 150.992 180.737 150.993 180.856 150.996C180.974 150.999 181.063 151.004 181.124 151.01V152.081C181.087 152.072 181.004 152.058 180.874 152.041C180.746 152.02 180.612 152.009 180.469 152.009C180.13 152.009 179.827 152.079 179.56 152.219C179.297 152.356 179.088 152.546 178.933 152.79C178.782 153.031 178.706 153.306 178.706 153.616V157.953H177.633Z" class="oci" fill="white"/>
<path d="M185.109 158.096C184.437 158.096 183.857 157.95 183.369 157.658C182.884 157.364 182.51 156.953 182.246 156.427C181.986 155.897 181.855 155.282 181.855 154.58C181.855 153.877 181.986 153.259 182.246 152.723C182.51 152.185 182.876 151.765 183.346 151.465C183.819 151.161 184.37 151.01 185 151.01C185.364 151.01 185.723 151.069 186.078 151.188C186.432 151.307 186.755 151.501 187.046 151.768C187.336 152.033 187.568 152.384 187.741 152.821C187.914 153.259 188 153.797 188 154.437V154.883H182.619V153.973H186.909C186.909 153.586 186.83 153.241 186.673 152.937C186.518 152.634 186.297 152.395 186.009 152.219C185.725 152.044 185.388 151.956 185 151.956C184.573 151.956 184.204 152.06 183.891 152.268C183.582 152.473 183.345 152.741 183.178 153.071C183.011 153.402 182.928 153.756 182.928 154.133V154.74C182.928 155.258 183.019 155.697 183.201 156.057C183.385 156.414 183.641 156.686 183.969 156.873C184.296 157.058 184.676 157.15 185.109 157.15C185.391 157.15 185.646 157.111 185.873 157.034C186.103 156.953 186.302 156.834 186.468 156.677C186.635 156.516 186.764 156.317 186.855 156.079L187.891 156.364C187.782 156.71 187.599 157.013 187.341 157.275C187.083 157.534 186.765 157.736 186.387 157.882C186.008 158.024 185.582 158.096 185.109 158.096Z" class="oci" fill="white"/>
<path fill-rule="evenodd" clip-rule="evenodd" d="M111.275 75.0808C96.2856 77.3315 84.5321 86.5915 79.3065 100.267L78.7062 102.069H72.9923C66.8415 102.164 64.4577 103.081 59.3266 105.551C52.3987 108.886 45.9873 115.362 42.3213 122.727C33.5562 140.337 38.5044 162.69 53.7296 174.26C56.3512 176.253 60.936 178.519 64.8854 179.775C67.156 180.434 68.7922 180.582 72.04 180.646L129.56 180.947C198.586 181.069 194.142 181.244 200.412 178.157C204.601 176.095 207.492 173.796 210.249 170.337C216.127 162.959 218.84 153.349 217.772 143.681C215.93 127.002 204.583 115.629 188.886 114.731L184.979 114.507L184.155 113.115C181.092 107.938 175.931 103.222 170.319 100.472C165.301 98.0127 161.774 97.1829 155.938 97.0907L151.08 97.0134L149.119 93.7495C146.462 89.3257 140.206 83.0349 136.036 80.5923C129.716 76.8913 124.156 75.2572 117.18 75.0503C114.561 74.9726 111.904 74.9865 111.275 75.0808ZM110.133 84.2736C93.749 88.114 82.9573 103.717 85.5568 119.807C85.7606 121.069 85.8394 122.19 85.732 122.298C85.492 122.541 77.9398 120.081 77.2777 119.543C76.9448 119.274 76.8016 117.777 76.8016 114.571V109.985L75.754 109.991C73.964 110.003 69.7643 111.037 67.0335 112.14C54.6747 117.129 46.6269 128.901 46.5975 142.033C46.5869 146.856 47.1366 150.055 48.6675 154.084C52.4832 164.122 61.7794 172.048 72.3097 174.242C74.911 174.784 81.6649 174.854 131.578 174.854C186.397 174.854 187.989 174.833 190.847 174.092C196.35 172.666 201.739 169.095 205.015 164.705C212.489 154.691 212.809 141.655 205.817 132.114C201.438 126.137 194.534 122.805 185.937 122.52L181.747 122.382L180.604 120.243C176.957 113.42 170.092 107.929 162.7 105.924C155.516 103.976 146.906 105.191 140.595 109.043L138.343 110.418L135.204 108.947C133.478 108.137 132.059 107.344 132.051 107.184C132.004 106.293 137.824 101.924 141.184 100.329C142.228 99.8333 143.081 99.2402 143.079 99.0109C143.077 98.7819 142.196 97.4077 141.121 95.9574C137.22 90.6922 131.204 86.6568 124.227 84.6242C121.465 83.8195 112.971 83.6083 110.133 84.2736Z" class="oci" fill="white"/>
</svg>