<svg width="256" height="256" title="Outlook" viewBox="0 0 256 256" fill="none" xmlns="http://www.w3.org/2000/svg" id="outlook">
<style>
#outlook {
    rect {fill: #15191C}

    @media (prefers-color-scheme: light) {
        rect {fill: #F4F2ED}
    }
}
</style>
<rect width="256" height="256" rx="40" fill="#15191C"/>
<path d="M200 131.698C200.008 130.486 199.382 129.358 198.349 128.724H198.331L198.266 128.688L144.557 96.8947C144.325 96.738 144.084 96.5948 143.836 96.4658C141.762 95.3959 139.299 95.3959 137.225 96.4658C136.976 96.5949 136.736 96.738 136.504 96.8947L82.7947 128.688L82.7299 128.724C81.0884 129.745 80.5851 131.903 81.6059 133.544C81.9067 134.028 82.321 134.431 82.8128 134.718L136.522 166.511C136.755 166.667 136.995 166.81 137.243 166.94C139.317 168.01 141.78 168.01 143.854 166.94C144.102 166.81 144.342 166.667 144.575 166.511L198.284 134.718C199.357 134.093 200.012 132.94 200 131.698Z" fill="#0A2767"/>
<path d="M89.0559 110.47H124.302V142.778H89.0559V110.47ZM192.79 77.6279V62.8488C192.875 59.1537 189.95 56.0885 186.255 56H94.791C91.0958 56.0885 88.171 59.1537 88.2557 62.8488V77.6279L142.325 92.0465L192.79 77.6279Z" fill="#0364B8"/>
<path d="M88.2556 77.6279H124.302V110.07H88.2556V77.6279Z" fill="#0078D4"/>
<path d="M160.349 77.6279H124.302V110.07L160.349 142.512H192.791V110.07L160.349 77.6279Z" fill="#28A8EA"/>
<path d="M124.302 110.07H160.349V142.512H124.302V110.07Z" fill="#0078D4"/>
<path d="M124.302 142.512H160.349V174.953H124.302V142.512Z" fill="#0364B8"/>
<path d="M89.0559 142.778H124.302V172.149H89.0559V142.778Z" fill="#14447D"/>
<path d="M160.349 142.512H192.79V174.953H160.349V142.512Z" fill="#0078D4"/>
<path d="M198.349 134.52L198.28 134.556L144.571 164.763C144.337 164.907 144.099 165.044 143.85 165.167C142.938 165.601 141.947 165.846 140.937 165.888L138.003 164.172C137.755 164.047 137.515 163.909 137.282 163.757L82.8522 132.693H82.8269L81.0463 131.698V192.847C81.074 196.927 84.4029 200.212 88.4826 200.186H192.679C192.74 200.186 192.794 200.157 192.859 200.157C193.72 200.102 194.57 199.925 195.382 199.631C195.733 199.482 196.072 199.306 196.395 199.105C196.636 198.968 197.051 198.669 197.051 198.669C198.897 197.302 199.99 195.144 200 192.847V131.698C199.998 132.867 199.368 133.946 198.349 134.52Z" fill="url(#linearGradient1)"/>
<path opacity="0.5" d="M197.116 131.456V135.205L140.956 173.872L82.8127 132.718C82.8127 132.698 82.7965 132.682 82.7766 132.682L77.4418 129.473V126.77L79.6406 126.734L84.2906 129.401L84.3987 129.437L84.7952 129.69C84.7952 129.69 139.442 160.87 139.586 160.942L141.676 162.168C141.857 162.095 142.037 162.023 142.253 161.951C142.361 161.879 196.503 131.42 196.503 131.42L197.116 131.456Z" fill="#0A2767"/>
<path d="M198.349 134.52L198.28 134.56L144.571 164.767C144.337 164.911 144.099 165.048 143.85 165.17C141.764 166.189 139.325 166.189 137.239 165.17C136.992 165.048 136.752 164.913 136.518 164.767L82.8092 134.56L82.7443 134.52C81.7074 133.958 81.0573 132.877 81.0465 131.698V192.847C81.0723 196.926 84.4 200.212 88.479 200.186C88.479 200.186 88.4791 200.186 88.4793 200.186H192.567C196.646 200.212 199.974 196.926 200 192.847C200 192.847 200 192.847 200 192.847V131.698C199.998 132.867 199.368 133.946 198.349 134.52Z" fill="#1490DF"/>
<path opacity="0.1" d="M145.353 164.32L144.55 164.77C144.317 164.919 144.076 165.055 143.829 165.178C142.943 165.612 141.98 165.867 140.995 165.927L161.43 190.093L197.076 198.683C198.053 197.945 198.83 196.975 199.337 195.86L145.353 164.32Z" fill="black"/>
<path opacity="0.05" d="M148.994 162.272L144.55 164.77C144.317 164.919 144.076 165.055 143.829 165.178C142.943 165.612 141.98 165.867 140.995 165.927L150.569 192.324L197.087 198.672C198.92 197.296 199.999 195.138 200 192.847V192.057L148.994 162.272Z" fill="black"/>
<path d="M88.5802 200.186H192.556C194.156 200.194 195.717 199.689 197.008 198.744L138 164.179C137.752 164.055 137.511 163.916 137.279 163.765L82.8488 132.7H82.8236L81.0465 131.698V192.638C81.0424 196.803 84.4154 200.182 88.5802 200.186V200.186Z" fill="#28A8EA"/>
<path opacity="0.1" d="M131.511 91.4445V168.332C131.505 171.027 129.866 173.451 127.366 174.46C126.592 174.792 125.758 174.964 124.915 174.964H81.0463V88.4418H88.2556V84.8372H124.915C128.556 84.851 131.503 87.8029 131.511 91.4445Z" fill="black"/>
<path opacity="0.2" d="M127.907 95.0491V171.936C127.916 172.807 127.731 173.669 127.366 174.459C126.365 176.927 123.973 178.546 121.31 178.558H81.0463V88.4418H121.31C122.356 88.4313 123.387 88.6922 124.302 89.1989C126.512 90.3121 127.906 92.5749 127.907 95.0491Z" fill="black"/>
<path opacity="0.2" d="M127.907 95.0491V164.727C127.889 168.367 124.95 171.317 121.31 171.349H81.0463V88.4418H121.31C122.356 88.4313 123.387 88.6922 124.302 89.1989C126.512 90.3121 127.906 92.5749 127.907 95.0491Z" fill="black"/>
<path opacity="0.2" d="M124.302 95.0491V164.727C124.298 168.373 121.351 171.331 117.706 171.349H81.0463V88.4418H117.705C121.351 88.4437 124.304 91.4003 124.302 95.0455C124.302 95.0467 124.302 95.0479 124.302 95.0491Z" fill="black"/>
<path d="M51.6073 88.4418H117.695C121.344 88.4418 124.302 91.4 124.302 95.0491V161.137C124.302 164.786 121.344 167.744 117.695 167.744H51.6073C47.9582 167.744 45 164.786 45 161.137V95.0491C45 91.4 47.9582 88.4418 51.6073 88.4418Z" fill="url(#linearGradient2)"/>
<path d="M65.651 116.154C67.2795 112.685 69.9081 109.781 73.1992 107.817C76.844 105.73 80.9938 104.69 85.1919 104.811C89.0828 104.726 92.9221 105.713 96.2906 107.662C99.4577 109.551 102.008 112.318 103.633 115.628C105.403 119.276 106.285 123.29 106.207 127.343C106.293 131.579 105.385 135.777 103.558 139.599C101.894 143.028 99.2624 145.894 95.9878 147.843C92.4895 149.852 88.5076 150.864 84.4746 150.77C80.5006 150.866 76.5766 149.868 73.1307 147.886C69.9362 145.995 67.3535 143.224 65.6907 139.905C63.9107 136.311 63.0184 132.342 63.0882 128.331C63.0141 124.131 63.8902 119.968 65.651 116.154ZM73.6966 135.728C74.5649 137.921 76.0373 139.823 77.9429 141.214C79.8839 142.571 82.2081 143.27 84.5754 143.211C87.0965 143.311 89.5816 142.587 91.655 141.149C93.5364 139.763 94.9701 137.855 95.7786 135.663C96.6824 133.214 97.1285 130.62 97.0943 128.01C97.1223 125.375 96.703 122.755 95.8543 120.26C95.1047 118.008 93.7173 116.022 91.8604 114.543C89.839 113.037 87.3606 112.273 84.8421 112.38C82.4235 112.318 80.0473 113.023 78.0546 114.395C76.1167 115.792 74.6164 117.711 73.729 119.928C71.7605 125.012 71.7503 130.645 73.7002 135.735L73.6966 135.728Z" fill="white"/>
<path d="M160.349 77.6279H192.79V110.07H160.349V77.6279Z" fill="#50D9FF"/>
<linearGradient id="linearGradient1" x1="140.523" y1="131.698" x2="140.523" y2="200.186" gradientUnits="userSpaceOnUse">
<stop stop-color="#35B8F1"/>
<stop offset="1" stop-color="#28A8EA"/>
</linearGradient>
<linearGradient id="linearGradient2" x1="58.7764" y1="83.279" x2="110.526" y2="172.907" gradientUnits="userSpaceOnUse">
<stop stop-color="#1784D9"/>
<stop offset="0.5" stop-color="#107AD5"/>
<stop offset="1" stop-color="#0A63C9"/>
</linearGradient>
</svg>