<svg width="256" height="256" title="Overseerr" viewBox="0 0 256 256" fill="none" xmlns="http://www.w3.org/2000/svg">
<rect width="256" height="256" rx="40" fill="#F4F2ED"/>
<path fill-rule="evenodd" clip-rule="evenodd" d="M128.5 211C174.068 211 211 174.068 211 128.5C211 82.9316 174.068 46 128.5 46C82.9316 46 46 82.9316 46 128.5C46 174.068 82.9316 211 128.5 211ZM183.511 135.364C183.511 161.951 161.951 183.479 135.396 183.479C108.842 183.479 87.25 161.951 87.25 135.364C87.25 130.434 87.9912 125.664 89.377 121.185C93.1475 129.531 101.559 135.364 111.323 135.364C124.601 135.364 135.396 124.601 135.396 111.291C135.396 101.526 129.596 93.1152 121.217 89.3447C125.696 87.959 130.466 87.2178 135.396 87.2178C161.951 87.25 183.511 108.81 183.511 135.364Z" fill="url(#linearGradient1)"/>
<path opacity="0.2" fill-rule="evenodd" clip-rule="evenodd" d="M183.511 135.364C183.511 161.951 161.951 183.479 135.396 183.479C109.39 183.479 88.1846 162.821 87.3145 137.04C87.2822 137.62 87.2822 138.2 87.2822 138.78C87.2822 167.269 110.356 190.343 138.845 190.343C167.333 190.343 190.407 167.269 190.407 138.78C190.407 110.292 167.333 87.2178 138.845 87.2178C138.265 87.2178 137.685 87.2178 137.104 87.25C162.854 88.1846 183.511 109.357 183.511 135.364Z" fill="#131928"/>
<path fill-rule="evenodd" clip-rule="evenodd" d="M128.5 66.625C94.3399 66.625 66.625 94.3398 66.625 128.5C66.625 132.303 63.5313 135.364 59.7608 135.364C55.958 135.364 52.8965 132.271 52.8965 128.5C52.8643 86.7344 86.7344 52.8643 128.5 52.8643C132.303 52.8643 135.364 55.958 135.364 59.7285C135.364 63.5312 132.303 66.625 128.5 66.625Z" fill="url(#linearGradient2)"/>
<linearGradient id="linearGradient1" x1="87.25" y1="87.25" x2="206.703" y2="206.703" gradientUnits="userSpaceOnUse">
<stop stop-color="#C395FC"/>
<stop offset="1" stop-color="#4F65F5"/>
</linearGradient>
<linearGradient id="linearGradient2" x1="94.1304" y1="59.7501" x2="94.1304" y2="128.5" gradientUnits="userSpaceOnUse">
<stop stop-color="white" stop-opacity="0.4"/>
<stop offset="1" stop-color="white" stop-opacity="0"/>
</linearGradient>
</svg>