<svg width="256" height="256" title="Overleaf" viewBox="0 0 256 256" fill="none" xmlns="http://www.w3.org/2000/svg" id="overleaf">
<style>
#overleaf {
    rect {fill: #15191C}

    @media (prefers-color-scheme: light) {
        rect {fill: #F4F2ED}
    }
}
</style>
<rect width="256" height="256" rx="40" fill="#15191C"/>
<path d="M201 49.2525C201 49.2525 201 49.2525 200.991 49.2525C200.991 49.2525 200.991 49.2525 201 49.2525ZM117.376 212H111.838C81.6402 210.596 57.4132 186.391 56 156.209V150.471C57.1217 124.809 72.7196 101.009 95.8514 86.2141C95.9485 53.6398 132.24 44.1236 163.277 44H164.523C179.741 44.0618 193.554 46.357 200.982 49.2525C182.47 64.1625 173.894 94.1767 144.782 94.1767C138.423 94.1767 131.083 92.7466 122.454 89.4097C138.98 77.0156 162.579 65.6367 175.669 58.707C135.553 68.6558 81.5784 94.5298 74.1681 140.019C72.0218 152.996 74.7068 166.273 85.1113 178.517C92.1948 186.797 102.705 192.049 114.505 192.049C135.853 192.049 153.235 174.765 153.235 153.419C153.235 134.21 139.183 118.276 120.829 115.31C118.948 115.01 117.031 114.86 115.097 114.86C104.216 114.86 92.9014 119.645 85.2526 128.825C91.3116 115.142 104.136 101.407 114.647 94.724C115.344 94.6622 116.051 94.6357 116.775 94.6357C123.708 94.6357 131.64 97.1516 135.491 98.6346C157.563 107.021 173.258 128.402 173.258 153.437C173.258 184.881 148.474 210.552 117.358 212" fill="#04652F"/>
</svg>