<svg width="256" height="256" title="Overpass API" viewBox="0 0 256 256" fill="none" xmlns="http://www.w3.org/2000/svg">
<rect width="256" height="256" rx="40" fill="#134421ff"/>
<path d="M112.619 133.092C114.077 133.092 115.259 131.91 115.259 130.452C115.259 128.995 114.077 127.813 112.619 127.813C111.161 127.813 109.98 128.995 109.98 130.452C109.98 131.91 111.161 133.092 112.619 133.092Z" fill="white"/>
<path d="M151.498 130.452H205" stroke="white" stroke-width="2"/>
<path d="M99.422 107.595L66.4288 50.444" stroke="white" stroke-width="2"/>
<path d="M99.422 153.31L66.4288 210.461" stroke="white" stroke-width="2"/>
<path d="M150.363 117.255H205" stroke="white" stroke-width="2"/>
<path d="M150.363 143.65H205" stroke="white" stroke-width="2"/>
<path d="M55 57.0426L89.7616 117.255L87.1221 123.623L86.2247 130.452L87.1221 137.282L89.7616 143.65L55 203.862" stroke="white" stroke-width="2"/>
<path d="M77.8575 43.8453L86.6535 53.1758L93.3379 54.6539L99.864 56.7127L106.192 59.3323L112.263 62.4931L118.037 66.1751L123.467 70.3388L128.515 74.9645L133.141 80.0124L137.305 85.4431L140.987 91.2169L144.147 97.2876L146.767 103.616L148.826 110.142L150.304 116.826L151.201 123.616L151.498 130.452L151.201 137.289L150.304 144.078L148.826 150.763L146.767 157.289L144.147 163.617L140.987 169.688L137.305 175.462L133.141 180.892L128.515 185.94L123.467 190.566L118.037 194.73L112.263 198.412L106.192 201.572L99.864 204.192L93.3379 206.251L86.6535 207.729L77.8575 217.059" stroke="white" stroke-width="2"/>
<path d="M136.704 117.255H135.477L131.28 111.791L125.816 107.595L119.449 104.955L112.619 104.058L92.1113 68.0306L93.1981 68.3731L94.2783 68.7347L95.3526 69.1154L100.613 71.2943L105.664 73.9238L110.467 76.983L114.985 80.4499L119.183 84.2969L123.03 88.4949L126.497 93.013L129.556 97.8155L132.185 102.867L134.364 108.127L136.077 113.559L137.309 119.118L138.053 124.764L138.301 130.452L138.053 136.141L137.309 141.787L136.077 147.346L134.364 152.777L132.185 158.038L129.556 163.089L126.497 167.892L123.03 172.41L119.183 176.608L114.985 180.455L110.467 183.922L105.664 186.981L100.613 189.61L95.3526 191.789L94.2783 192.17L93.1981 192.532L92.1113 192.874L112.619 156.847L119.449 155.949L125.816 153.31L131.28 149.113L135.477 143.65H136.704" stroke="white" stroke-width="2"/>
<path d="M123.177 133.752H128.456V128.473L127.796 127.153H123.837L123.177 128.473" fill="#FF0000"/>
<path d="M127.984 125.391L132.556 122.752L129.916 118.18L128.685 117.367L125.256 119.347L125.345 120.82" fill="#FF0000"/>
<path d="M120.755 122.959L123.395 118.387L118.823 115.747L117.35 115.659L115.371 119.088L116.184 120.319" fill="#FF0000"/>
<path d="M115.918 114.616V109.337H110.64L109.32 109.997V113.956L110.64 114.616" fill="#FF0000"/>
<path d="M110.198 119.66L107.558 115.087L102.987 117.727L102.174 118.958L104.153 122.387L105.626 122.299" fill="#FF0000"/>
<path d="M100.554 119.677L95.982 117.037L93.3426 121.609L93.2542 123.082L96.6828 125.061L97.9141 124.248" fill="#FF0000"/>
<path d="M102.061 127.153H96.7825V132.432L97.4423 133.752H101.402L102.061 132.432" fill="#FF0000"/>
<path d="M97.2543 135.513L92.6827 138.153L95.3222 142.724L96.5535 143.537L99.9821 141.558L99.8937 140.085" fill="#FF0000"/>
<path d="M104.483 137.946L101.844 142.518L106.415 145.157L107.888 145.246L109.868 141.816L109.055 140.585" fill="#FF0000"/>
<path d="M109.32 146.289V151.568H114.599L115.918 150.908V146.949L114.599 146.289" fill="#FF0000"/>
<path d="M115.041 141.245L117.68 145.817L122.252 143.178L123.065 141.946L121.085 138.517L119.612 138.606" fill="#FF0000"/>
<path d="M124.685 141.228L129.256 143.867L131.896 139.296L131.984 137.823L128.556 135.843L127.324 136.656" fill="#FF0000"/>
<path d="M161.449 125.173V119.895H156.17L154.85 120.554V124.514L156.17 125.173" fill="#FF0000"/>
<path d="M170.687 126.493V121.214H165.408L164.089 121.874V125.833L165.408 126.493" fill="#FF0000"/>
<path d="M179.925 126.493V121.214H174.646L173.327 121.874V125.833L174.646 126.493" fill="#FF0000"/>
<path d="M100.871 158.719L105.442 161.358L108.082 156.787L108.17 155.314L104.742 153.334L103.51 154.147" fill="#FF0000"/>
<path d="M95.109 166.06L99.6805 168.699L102.32 164.127L102.408 162.654L98.9798 160.675L97.7485 161.488" fill="#FF0000"/>
<path d="M92.7758 175.38L97.3473 178.019L99.9867 173.448L100.075 171.975L96.6465 169.995L95.4152 170.808" fill="#FF0000"/>
<path d="M87.0139 182.72L91.5854 185.36L94.2249 180.788L94.3133 179.315L90.8847 177.336L89.6534 178.149" fill="#FF0000"/>
<path d="M82.3949 190.721L86.9664 193.36L89.6059 188.788L89.6943 187.315L86.2657 185.336L85.0343 186.149" fill="#FF0000"/>
<path d="M94.0137 106.145L89.4421 108.784L92.0816 113.356L93.3129 114.169L96.7415 112.189L96.6531 110.716" fill="#FF0000"/>
<path d="M90.5376 97.4843L85.9661 100.124L88.6055 104.696L89.8368 105.509L93.2655 103.529L93.177 102.056" fill="#FF0000"/>
<path d="M83.6328 90.8038L79.0613 93.4433L81.7007 98.0148L82.932 98.8278L86.3607 96.8482L86.2723 95.3754" fill="#FF0000"/>
<path d="M80.1566 82.1438L75.5851 84.7832L78.2245 89.3547L79.4558 90.1677L82.8845 88.1881L82.7961 86.7153" fill="#FF0000"/>
<path d="M75.5375 74.1429L70.9659 76.7824L73.6054 81.3546L74.8367 82.1675L78.2653 80.1879L78.1769 78.7151" fill="#FF0000"/>
<path d="M130.81 167.622L135.381 170.262L138.021 165.69L138.109 164.218L134.68 162.238L133.449 163.051" fill="#EEFFDD"/>
<path d="M133.829 162.445L138.613 164.676L140.844 159.891L140.804 158.417L137.216 156.743L136.06 157.66" fill="#DDFFBB"/>
<path d="M136.386 157.024L141.346 158.83L143.152 153.869L142.984 152.403L139.263 151.049L138.192 152.063" fill="#BBFF99"/>
<path d="M138.461 151.401L143.56 152.767L144.926 147.668L144.63 146.222L140.806 145.198L139.827 146.302" fill="#33BB11"/>
<path d="M126.015 206.126L132.408 201.22L138.35 195.775L143.795 189.833L148.701 183.44L153.032 176.643L156.753 169.494L159.837 162.049L162.261 154.362L164.005 146.494L165.056 138.504L165.408 130.452L165.056 122.401L164.005 114.41L162.261 106.542L159.837 98.8562L156.753 91.4105L153.032 84.2619L148.701 77.4649L143.795 71.0711L138.35 65.1293L130.885 72.5948L119.687 39L153.281 50.1982L145.816 57.6637L151.883 64.2846L157.35 71.4092L162.175 78.983L166.321 86.9486L169.758 95.2453L172.458 103.81L174.402 112.577L175.574 121.481L175.966 130.452L175.574 139.424L174.402 148.327L172.458 157.095L169.758 165.659L166.321 173.956L162.175 181.922L157.35 189.496L151.883 196.62L145.816 203.241L139.195 209.308L132.071 214.775" fill="#55FF22"/>
</svg>