<svg width="256" height="256" title="oxc" viewBox="0 0 256 256" fill="none" xmlns="http://www.w3.org/2000/svg">
<rect width="256" height="256" rx="40" fill="#15191C"/>
<path d="M144.077 92.2814C144.077 95.1387 146.401 97.4541 149.268 97.4541H168.963C171.276 97.4541 172.433 100.242 170.797 101.868L145.595 126.983C144.621 127.953 144.072 129.268 144.072 130.643V139.229C144.072 142.801 147.627 145.279 150.771 143.575C153.974 141.84 156.955 139.742 159.649 137.338C160.717 136.387 162.359 136.377 163.372 137.392L181.727 155.683C182.74 156.694 182.745 158.334 181.697 159.309C167.777 172.29 149.065 180.242 128.495 180.242C107.925 180.242 89.2142 172.29 75.2936 159.309C74.2449 158.334 74.2499 156.694 75.2635 155.683L93.6187 137.392C94.6323 136.382 96.2737 136.387 97.3417 137.338C100.035 139.742 103.017 141.84 106.22 143.575C109.369 145.279 112.918 142.801 112.918 139.229V130.643C112.918 129.268 112.37 127.953 111.395 126.983L86.1934 101.868C84.5571 100.237 85.7145 97.4541 88.0281 97.4541H107.723C110.59 97.4541 112.914 95.1387 112.914 92.2814V79.3449C112.914 77.9162 114.075 76.7585 115.509 76.7585H141.467C142.901 76.7585 144.062 77.9162 144.062 79.3449V92.2814H144.077Z" fill="url(#linearGradient)"/>
<path d="M56.8782 75C35.7692 105.11 35.6454 151.782 56.8782 182H71.1403C49.9125 151.782 50.0363 105.11 71.1403 75H56.8782Z" class="brackets" fill="#FFFFFF"/>
<path d="M200.126 75H185.863C206.972 105.11 207.096 151.782 185.863 182H200.126C221.353 151.782 221.23 105.11 200.126 75Z" class="brackets" fill="#FFFFFF"/>
<linearGradient id="linearGradient" x1="216" y1="100.435" x2="81.2819" y2="207.331" gradientUnits="userSpaceOnUse">
<stop stop-color="#42DAE9"/>
<stop offset="0.5" stop-color="#3CE7F1"/>
<stop offset="0.75" stop-color="#43DDF3"/>
<stop offset="1" stop-color="#2BB5F6"/>
</linearGradient>
</svg>