<svg width="256" height="256" title="P4" viewBox="0 0 256 256" fill="none" xmlns="http://www.w3.org/2000/svg" id="p4">
<style>
#p4 {
    rect {fill: #15191C}

    @media (prefers-color-scheme: light) {
        rect {fill: #F4F2ED}
    }
}
</style>
<rect width="256" height="256" rx="40" fill="#15191C"/>
<path d="M124.221 69.5773C124.212 69.5773 124.212 69.5682 124.203 69.5682C113.237 62.1231 90.5191 61 63.8449 61C56.9347 61 51.2981 66.4887 51.0361 73.3541L51 115.036H51.0181V158.076C51.0181 167.315 58.1812 175.067 67.3858 175.385C77.0421 175.72 84.973 168.075 84.973 158.475V154.969C84.973 154.643 85.0272 154.308 85.1627 154.009C86.4182 151.202 89.2276 149.245 92.4793 149.245C92.4976 149.245 98.1882 149.245 99.236 149.245C99.236 149.245 99.4257 149.236 99.8141 149.236C126.362 149.236 147.138 129.99 147.138 106.232C147.138 90.726 137.97 77.1401 124.221 69.5773ZM84.973 121.457V86.8948C96.9418 86.9129 106.661 89.5576 109.859 97.9266C110.563 99.7381 110.934 101.803 110.934 104.176C110.934 116.467 99.3536 121.349 84.973 121.457Z" fill="#7357A5"/>
<path d="M191.981 146.973H185.748V93.4172C185.748 89.0878 183.996 85.166 181.169 82.331C178.341 79.4961 174.43 77.739 170.112 77.739H135.986L99.8446 148.938L99.7 160.351C99.691 160.577 99.6821 160.804 99.6821 161.03C99.6821 168.783 105.96 175.078 113.701 175.078H154.476V180.322C154.476 188.981 161.477 196 170.112 196C178.748 196 185.748 188.981 185.748 180.322V175.078H191.981C195.847 175.078 199.352 173.502 201.89 170.957C204.428 168.421 206 164.907 206 161.03C206 153.268 199.722 146.973 191.981 146.973ZM154.476 109.095V138.287C154.494 138.495 154.503 138.695 154.503 138.903C154.503 139.111 154.494 139.32 154.476 139.528C154.16 143.676 150.709 146.937 146.491 146.937C146.364 146.937 146.238 146.946 146.111 146.973H135.588L154.476 109.095ZM167.402 134.347C167.429 134.329 167.457 134.32 167.474 134.32H168.089C167.99 134.329 167.754 134.329 167.402 134.347Z" fill="#7CC242"/>
</svg>