<svg width="256" height="256" title="Panda CSS" viewBox="0 0 256 256" fill="none" xmlns="http://www.w3.org/2000/svg">
<rect width="256" height="256" rx="40" fill="#F6E458"/>
<path d="M161.561 56.9303C147.437 52.8731 133.03 52.3217 118.349 53.6347C110.133 54.4884 102.235 56.1192 94.6166 58.981C78.1492 65.1666 65.7853 75.8793 58.4127 92.0096C53.1272 103.574 51.2169 115.857 51.0178 128.461C50.8074 141.78 52.4766 154.916 55.1289 167.939C57.533 179.743 60.7346 191.316 65.307 202.488C65.7415 203.55 66.2825 203.908 67.442 203.905C81.9031 203.874 96.3649 203.874 110.827 203.874C115.107 203.874 119.389 203.874 123.67 203.873C123.998 203.873 124.326 203.856 124.703 203.835C124.895 203.825 125.1 203.813 125.325 203.803C125.238 203.596 125.161 203.406 125.087 203.228C124.945 202.878 124.82 202.574 124.68 202.275C123.635 200.038 122.567 197.811 121.5 195.583C119.184 190.751 116.87 185.919 114.776 180.992C108.425 166.052 103.561 150.668 102.077 134.384C101.423 127.199 101.513 120.056 103.507 113.054C105.785 105.052 110.675 99.4021 118.782 97.0402C126.226 94.8719 133.774 94.8859 141.177 97.2803C147.785 99.4168 152.093 103.931 153.926 110.689C155.333 115.879 155.332 121.125 154.268 126.357C153.448 130.385 151.798 134.062 148.827 137.002C143.497 142.278 136.842 143.491 129.701 143.086C128.43 143.014 127.164 142.876 125.859 142.732C125.247 142.665 124.628 142.597 123.995 142.534C124.013 142.736 124.023 142.922 124.033 143.097C124.051 143.44 124.067 143.737 124.137 144.021C124.442 145.245 124.732 146.472 125.022 147.7C125.721 150.658 126.42 153.615 127.317 156.511C129.082 162.197 131.132 167.746 133.458 173.164C150.034 171.871 165.3 167.75 181.504 158.023C181.748 157.87 181.969 157.731 182.191 157.593C189.151 153.26 194.784 147.639 198.669 140.381C204.961 128.626 206.187 116.056 204.318 103.082C202.389 89.6911 196.38 78.4518 186.035 69.6359C178.861 63.5211 170.565 59.5166 161.561 56.9303Z" fill="black"/>
</svg>