<svg width="256" height="256" title="PaperMC" viewBox="0 0 256 256" fill="none" xmlns="http://www.w3.org/2000/svg" id="papermc">
<style>
#papermc {
    rect {fill: #15191C}

    @media (prefers-color-scheme: light) {
        rect {fill: #F4F2ED}
    }
}
</style>
<rect width="256" height="256" rx="40" fill="#15191C"/>
<path d="M38.0017 128.188L127.812 38L218 127.811L128.19 217.998L38.0017 128.188Z" fill="#F7E346"/>
<mask id="mask1" style="mask-type:luminance" maskUnits="userSpaceOnUse" x="38" y="38" width="180" height="180">
<path d="M38 128.188L127.811 38L217.998 127.811L128.188 217.998L38 128.188Z" fill="#FFFFFF"/>
</mask>
<g mask="url(#mask1)">
<path d="M38.6384 117.281L138.702 38.6235L217.36 138.687L117.296 217.345L38.6384 117.281Z" fill="#A49731"/>
</g>
<path d="M39.3931 112.224L143.768 39.3837L216.608 143.758L112.233 216.598L39.3931 112.224Z" fill="#428EDB"/>
<mask id="mask2" style="mask-type:luminance" maskUnits="userSpaceOnUse" x="39" y="39" width="178" height="178">
<path d="M39.3938 112.222L143.769 39.382L216.609 143.757L112.234 216.597L39.3938 112.222Z" fill="white"/>
</mask>
<g mask="url(#mask2)">
<path d="M41.437 103.364L152.628 41.4248L214.566 152.616L103.376 214.554L41.437 103.364Z" fill="#2B5F92"/>
</g>
<path d="M43.1307 98.0448L157.943 43.1098L212.878 157.922L98.0657 212.857L43.1307 98.0448Z" fill="#96C93D"/>
<mask id="mask3" style="mask-type:luminance" maskUnits="userSpaceOnUse" x="43" y="43" width="170" height="170">
<path d="M43.1284 98.0439L157.941 43.1089L212.876 157.921L98.0634 212.856L43.1284 98.0439Z" fill="white"/>
</mask>
<g mask="url(#mask3)">
<path d="M48.6268 85.5693L170.428 48.6329L207.364 170.434L85.5634 207.37L48.6268 85.5693Z" fill="#6C983F"/>
</g>
<path d="M50.9434 81.4946L174.5 50.9405L205.054 174.497L81.4976 205.051L50.9434 81.4946Z" fill="#FD4F57"/>
<mask id="mask4" style="mask-type:luminance" maskUnits="userSpaceOnUse" x="50" y="50" width="156" height="156">
<path d="M50.9421 81.4951L174.499 50.9407L205.053 174.497L81.4964 205.052L50.9421 81.4951Z" fill="white"/>
</mask>
<g mask="url(#mask4)">
<path d="M61.4713 67.3804L188.611 61.4513L194.54 188.591L67.4004 194.52L61.4713 67.3804Z" fill="#B0363C"/>
</g>
<path d="M64.3612 64.3545H191.639V191.633H64.3612V64.3545Z" fill="#3D3D3D"/>
<path d="M67.7701 67.7616H188.23V188.222H67.7701V67.7616Z" fill="#474747"/>
<path fill-rule="evenodd" clip-rule="evenodd" d="M138.271 121.603C128.435 129.222 125.751 131.951 108.549 144.679L106.809 143.804C116.141 136.263 129.882 125.246 139.206 117.715C142.688 114.952 146.203 110.642 149.641 107.785L138.271 121.603ZM134.333 155.74C134.958 156.051 135.463 156.21 136.072 156.518C131.365 160.699 126.35 165.424 121.793 169.83C120.908 170.246 120.105 170.154 119.384 169.551L122.72 166.03C126.21 162.757 129.67 159.452 133.099 156.116C133.678 155.682 133.663 155.443 134.334 155.74H134.333ZM154.886 163.435C155.559 163.017 155.909 162.69 156.164 162.052C159.758 139.153 163.577 116.305 167.621 93.4997C168.542 88.9207 168.721 89.5645 168.768 87.3889C170.835 87.709 171.694 88.9189 171.345 91.0167C170.386 96.8997 169.303 102.755 168.098 108.584C165.312 125.719 162.494 142.847 159.552 159.956C159.304 161.844 159.163 163.068 158.743 163.77C158.078 164.587 157.219 164.873 156.166 164.629C155.293 164.388 155.483 164.43 154.416 164.025L153.835 163.784C153.835 163.784 154.557 163.612 154.888 163.435H154.886Z" fill="#333333"/>
<path fill-rule="evenodd" clip-rule="evenodd" d="M134.333 155.742C134.11 155.717 133.884 155.679 133.683 155.823C129.812 159.396 126.02 163.053 122.308 166.792C122.285 166.62 122.312 166.459 122.389 166.303C122.984 165.437 123.455 164.753 124.05 163.887C124.167 163.592 124.147 163.332 124.129 163.148C123.699 158.527 122.312 154.203 120.196 150.052C120.151 149.966 120.241 149.834 120.44 149.89C125.118 151.763 129.75 153.715 134.333 155.74V155.742Z" fill="#999999"/>
<path fill-rule="evenodd" clip-rule="evenodd" d="M139.208 117.717C128.361 126.696 117.392 135.525 106.303 144.204C99.7021 141.52 93.1084 138.815 86.5238 136.089C83.9774 135.035 83.9865 132.736 86.2344 131.205C85.0155 132.749 85.2325 134.076 86.8837 135.185C89.1424 136.143 106.128 143.187 106.128 143.187C106.128 143.187 105.99 142.639 139.206 117.717H139.208Z" fill="#CCCCCC"/>
<path fill-rule="evenodd" clip-rule="evenodd" d="M153.182 162.404C155.703 163.305 155.611 162.675 156.689 161.666C156.597 162.383 156.517 163.167 155.606 163.677C154.98 164.039 154.414 164.026 153.831 163.786C147.248 161.314 140.745 158.631 134.333 155.742C129.75 153.716 125.118 151.767 120.44 149.891L120.196 150.054C122.482 154.326 123.809 158.874 124.176 163.705C123.581 164.571 122.984 165.437 122.389 166.305C122.312 166.459 122.284 166.622 122.308 166.793L119.384 169.555C118.649 169.553 118.243 169.173 118.165 168.417C118.058 162.317 118.056 156.217 118.161 150.117C118.161 150.043 118.163 149.971 118.165 149.893C118.192 148.976 119.116 148.714 120.033 149C131.106 153.422 142.156 157.89 153.182 162.406V162.404Z" fill="#B2B2B2"/>
<path fill-rule="evenodd" clip-rule="evenodd" d="M168.146 86.4485C169.05 87.1683 168.911 88.36 168.739 89.3728C164.646 113.393 160.68 137.536 156.707 161.567C156.669 161.791 156.57 162.317 156.269 162.589C155.588 163.131 154.973 163.037 153.184 162.406C153.443 161.797 153.633 161.147 153.752 160.456C158.335 137.053 163.02 113.68 167.807 90.3403C168.229 87.8718 168.193 88.5843 168.146 86.4521V86.4485Z" fill="#CCCCCC"/>
<path fill-rule="evenodd" clip-rule="evenodd" d="M168.145 86.4485C168.312 88.3655 168.335 87.5137 167.807 90.3367C163.02 113.677 158.335 137.049 153.752 160.453C153.633 161.144 153.443 161.793 153.184 162.402C142.158 157.887 131.108 153.418 120.035 148.996C119.116 148.71 118.494 149.009 118.167 149.89C118.058 156.064 118.058 162.24 118.167 168.414C118.244 169.17 118.651 169.549 119.386 169.551C119.183 169.759 118.702 169.745 118.702 169.745C118.702 169.745 116.546 169.62 116.286 169.105C116.219 168.976 116.217 168.841 116.215 168.728C116.183 162.164 116.105 155.637 115.982 149.145C115.978 148.987 115.982 148.833 116.045 148.559C116.109 148.284 116.291 147.933 116.543 147.615C126.253 136.18 135.841 124.642 145.305 113.002C143.299 114.605 141.267 116.177 139.212 117.715C110.781 139.048 106.133 143.186 106.133 143.186C106.133 143.186 93.1302 137.827 86.8891 135.183C85.238 134.075 85.021 132.747 86.2399 131.203C112.203 116.461 138.094 101.593 163.912 86.5986C164.867 86.0091 165.896 85.7921 166.999 85.9494C167.236 85.9729 167.742 86.0543 168.149 86.4485H168.145Z" fill="#F2F2F2"/>
</svg>