<svg width="256" height="256" title="Parcel" viewBox="0 0 256 256" fill="none" xmlns="http://www.w3.org/2000/svg" id="parcel">
<style>
#parcel {
    rect {fill: #15191C}

    @media (prefers-color-scheme: light) {
        rect {fill: #F4F2ED}
    }
}
</style>
<rect width="256" height="256" rx="40" fill="#15191C"/>
<path d="M136.301 191.202L182.984 161.679C183.117 161.546 183.383 161.679 183.449 161.812C183.582 161.945 183.516 162.211 183.383 162.277L136.566 191.934H136.367V191.269L136.301 191.202Z" fill="url(#paint0_linear_6_2)"/>
<path d="M136.367 192H136.234L72.6172 168.262C72.5712 168.248 72.5289 168.224 72.4932 168.191C72.4574 168.159 72.4291 168.119 72.4102 168.075C72.3912 168.031 72.3821 167.983 72.3834 167.935C72.3848 167.887 72.3966 167.84 72.4179 167.796C72.4844 167.597 72.6836 167.464 72.8828 167.53L136.301 191.202L136.301 192H136.367Z" fill="url(#paint1_linear_6_2)"/>
<path d="M203.105 78.4956L195.801 90.6639L166.25 103.298L164.59 103.963L138.094 128.765C137.562 129.297 137.23 130.028 137.164 130.427C137.164 130.56 137.031 130.494 136.898 130.427C136.832 130.427 136.633 130.494 136.633 130.427C136.633 129.829 136.566 129.23 135.703 128.698L122.422 120.054L112.727 113.87L85.4336 106.822L62.5898 100.97L48.1132 78.4291L48.3125 78.1631L102.766 64H102.832L121.359 91.9273L121.691 92.4592C122.09 93.0577 122.156 93.3901 122.156 93.6561H122.488V93.1242L122.555 92.8582V92.7252L122.687 92.3927L122.754 92.2597C122.842 92.0484 122.953 91.8477 123.086 91.6613L139.82 67.3247C139.82 67.3247 139.82 67.2582 139.953 67.3247L203.039 78.1631L203.105 78.4291V78.4956Z" fill="#E8B67F"/>
<path d="M122.422 120.121L112.727 113.804L85.4336 106.822L122.156 93.5896L122.223 93.3901V93.5896L122.422 120.121Z" fill="url(#paint2_linear_6_2)"/>
<path d="M122.156 93.5896L85.4336 106.822L82.1132 105.957L62.5898 100.904L48.1132 78.4291L48.3789 78.1631L102.699 64H102.766L121.359 91.9273L121.691 92.4592C122.09 93.0577 122.156 93.3901 122.156 93.6561L122.156 93.5896Z" fill="url(#paint3_linear_6_2)"/>
<path d="M122.289 94.986L87.4922 107.487L82.1133 106.157L121.359 91.9273L121.691 92.4592C122.09 93.0577 122.156 93.3901 122.156 93.6561H122.223V94.986H122.289Z" fill="url(#paint4_linear_6_2)"/>
<path d="M63.0547 101.037L62.5898 100.904L48.1132 78.4291L48.3125 78.1631L63.0547 101.037Z" fill="#D2A679"/>
<path d="M166.25 103.231L164.59 103.896L138.094 128.765C137.562 129.297 137.23 130.028 137.164 130.427C137.164 130.56 137.031 130.494 136.898 130.427C136.832 130.427 136.633 130.494 136.633 130.427C136.633 129.829 136.566 129.23 135.703 128.698L122.422 120.054L122.223 93.5896V93.3901L122.488 93.5896L166.316 103.231H166.25Z" fill="url(#paint5_linear_6_2)"/>
<path d="M203.105 78.4956L195.801 90.6639L168.906 102.101L166.25 103.231L122.422 93.5896C122.489 92.9242 122.717 92.2853 123.086 91.7278L139.82 67.3912C139.82 67.3912 139.82 67.3247 139.953 67.3912L203.039 78.1631L203.105 78.4956Z" fill="url(#paint6_linear_6_2)"/>
<path d="M168.906 102.101L164.656 103.896L164.059 104.428L122.223 95.1855L122.422 93.5896C122.422 93.2571 122.688 92.4592 122.953 91.9938L168.906 102.101Z" fill="url(#paint7_linear_6_2)"/>
<path d="M123.418 93.7891V120.719L122.422 120.121L121.094 119.256V93.9221L122.156 93.5896H122.488L123.418 93.7891Z" fill="url(#paint8_linear_6_2)"/>
<path d="M136.102 191.535L72.4179 167.796C72.0859 167.597 72.0195 167.264 72.0195 166.865L69.2305 112.54C69.2305 112.407 69.4297 112.341 69.4297 112.208C69.4297 112.008 68.9648 111.21 68.832 111.144L43 96.5818L43.1992 96.0499L112.727 113.804L135.703 128.698C136.566 129.23 136.633 129.829 136.633 130.361C136.633 130.493 136.832 130.493 136.898 130.493L137.164 130.427C137.23 130.028 137.562 129.297 138.094 128.765L164.656 103.963L212.668 83.4826L213 83.8816L187.035 106.689C186.504 107.221 186.305 107.819 186.371 108.085L183.715 161.28C183.715 161.679 183.516 161.745 183.184 161.945L136.699 191.468C136.5 191.601 136.301 191.668 136.035 191.535H136.102Z" fill="#BF9064"/>
<path d="M136.898 130.493L136.434 191.601H136.102L72.418 167.73C72.0859 167.597 72.0195 167.198 72.0195 166.799L69.2305 112.54V112.474H69.2969V112.407L69.3633 112.274L136.633 130.427C136.633 130.494 136.832 130.427 136.898 130.427L136.898 130.493Z" fill="#BD8F63"/>
<path d="M136.5 191.402V191.601H136.102L72.418 167.73C72.1523 167.597 72.0859 167.397 72.0195 167.131L136.434 191.335L136.5 191.402Z" fill="url(#paint9_linear_6_2)"/>
<path d="M107.68 154.365L132.316 162.41V186.481L108.078 177.571L107.68 154.298V154.365ZM120.031 170.523L120.098 181.694L132.051 186.082V174.712L120.098 170.523H120.031ZM123.551 174.113L126.008 177.97L128.332 175.909L128.73 176.374L126.34 178.502L128.73 182.358L128.398 182.624L126.008 178.768L123.617 180.829L123.219 180.364L125.676 178.236L123.219 174.313L123.551 174.113ZM130.656 178.435V179.566L131.32 179.765V180.962L130.656 180.763V181.76L129.328 179.632L130.656 178.435ZM128.531 177.105L128.996 177.238V181.627L128.531 181.494V177.039V177.105ZM108.145 166.4L108.344 177.371L119.766 181.561L119.699 170.39L108.145 166.4ZM126.008 179.499L127.27 181.494L124.746 180.563L126.008 179.499ZM127.934 177.637V180.497L126.605 178.635L127.934 177.637ZM123.02 175.044L123.484 175.244V179.632L123.02 179.433V175.044ZM124.082 176.241L125.277 178.169L124.082 179.1V176.241ZM113.723 170.922L114.188 171.121V171.387C115.648 171.919 116.977 173.382 117.707 175.576C117.242 174.845 116.844 174.645 116.18 174.911C115.914 174.379 115.184 174.113 114.719 174.379C114.615 174.163 114.454 173.979 114.254 173.847V178.036C114.254 178.435 113.988 178.768 113.324 178.635C112.727 178.502 112.461 177.97 112.527 177.305H112.859C112.859 177.837 112.926 178.103 113.324 178.236C113.656 178.236 113.789 178.169 113.789 177.837V173.714C113.696 173.697 113.601 173.7 113.509 173.723C113.418 173.746 113.332 173.789 113.258 173.847C113.125 173.448 112.395 172.983 111.93 173.315C111.465 172.717 110.734 172.517 110.336 172.916C110.867 171.387 112.328 170.855 113.723 171.254V170.922ZM121.359 175.044L122.688 177.172L121.359 178.236V177.238L120.762 177.039V175.842L121.426 176.108V175.044H121.359ZM124.813 175.51L127.336 176.374L126.008 177.504L124.813 175.51ZM120.098 170.057L132.051 174.313V162.676L120.098 158.687V170.057ZM122.289 168.528L129.461 170.988V172.451L122.289 169.991V168.528ZM116.113 171.254C116.18 171.254 116.18 171.786 116.047 171.919H115.781C115.648 171.786 115.582 171.719 115.648 171.52C115.648 171.387 116.113 171.188 116.113 171.254ZM116.777 170.124C116.844 170.124 116.844 170.656 116.711 170.789H116.445C116.313 170.656 116.246 170.589 116.313 170.39C116.313 170.257 116.777 170.057 116.777 170.124ZM114.918 170.124C114.984 170.124 114.984 170.656 114.852 170.789L114.586 170.722C114.453 170.656 114.387 170.523 114.453 170.39C114.453 170.19 114.918 170.057 114.918 170.057V170.124ZM113.059 169.791C113.125 169.791 113.125 170.323 112.992 170.456H112.66C112.594 170.39 112.527 170.257 112.594 170.124C112.594 169.924 112.992 169.791 113.059 169.791ZM127.867 162.344L129.594 165.802L128.398 165.336V170.323L127.203 169.924V165.07L126.074 164.671L127.867 162.41V162.344ZM108.012 154.764L108.211 166.001L119.766 169.991L119.633 158.62L108.012 154.764ZM123.949 161.014L125.676 164.472L124.48 164.073V169.06L123.285 168.594V163.74L122.09 163.341L123.949 161.081V161.014ZM110.602 157.024L111.531 157.357L111.996 158.953L111.465 158.886L112.859 162.277L112.195 159.485H112.594L112.129 157.49L117.043 159.152V161.812C117.043 162.809 115.914 164.139 114.387 163.474V166.134L116.578 167.597L111.266 165.735L113.391 165.868V163.208C111.797 162.743 110.734 160.881 110.734 159.751L110.602 157.024Z" fill="#322214"/>
<path d="M136.898 130.493C136.633 130.493 136.434 130.826 136.434 131.158L69.1641 112.54C69.1641 112.407 69.2969 112.341 69.3633 112.274L68.7656 111.144L43 96.5818L43.1992 96.0499L112.727 113.804L135.703 128.698C136.566 129.23 136.633 129.829 136.633 130.361C136.633 130.493 136.832 130.493 136.898 130.493Z" fill="url(#paint10_linear_6_2)"/>
<path d="M187.035 106.689C186.504 107.221 186.305 107.819 186.371 108.085L137.496 131.225H137.43C137.43 130.759 137.164 130.56 136.965 130.493L137.164 130.427C137.195 130.217 137.262 130.015 137.363 129.829C137.496 129.563 137.695 129.164 138.027 128.898L138.094 128.765L164.656 103.896L212.734 83.4826L213 83.8816L187.035 106.689Z" fill="#CD9C6B"/>
<path d="M106.75 136.544H106.816L106.617 122.98C106.617 122.581 106.484 121.65 105.953 121.251L81.3828 106.356L69.9609 103.431L94.7969 118.325C95.3945 118.724 95.4609 119.522 95.4609 120.054L95.8594 133.22V133.286L106.684 136.611L106.75 136.544Z" fill="url(#paint11_linear_6_2)"/>
<path d="M136.898 130.493C136.633 130.493 136.434 130.826 136.434 131.158C136.367 130.494 136.035 129.629 135.637 129.363L112.461 114.402L112.727 113.804L135.703 128.698C136.566 129.23 136.633 129.829 136.633 130.361C136.633 130.493 136.832 130.493 136.898 130.493Z" fill="#D4A271"/>
<path d="M112.727 113.804L112.461 114.402L43 96.4488L43.1992 95.9834L112.727 113.804Z" fill="#DEB37E"/>
<path d="M186.438 108.085L183.781 161.28C183.715 161.679 183.582 161.745 183.184 161.945L136.699 191.468C136.641 191.524 136.574 191.569 136.5 191.601L136.898 130.427C137.031 130.427 137.164 130.56 137.164 130.427L137.164 130.361L186.438 108.019V108.085Z" fill="#DBAD77"/>
<path d="M183.781 161.28C183.715 161.679 183.582 161.745 183.184 161.945L136.699 191.468C136.641 191.524 136.574 191.569 136.5 191.601V191.402L183.781 161.28Z" fill="url(#paint12_linear_6_2)"/>
<path d="M182.852 138.14L181.789 159.817L166.316 169.459L167.113 146.851L182.852 138.14ZM174.617 153.833L166.914 158.354L166.582 168.993L174.219 164.272L174.617 153.833ZM170.965 158.421V158.753C171.828 158.288 172.691 158.62 173.09 160.15C172.824 159.817 172.359 159.95 172.027 160.682C171.895 160.349 171.23 160.615 171.098 161.214L170.832 161.081L170.633 165.203C170.633 165.602 170.633 165.935 170.168 166.201C169.969 166.334 169.437 166.4 169.504 165.602L169.769 165.403C169.769 165.935 169.836 166.068 170.102 165.868C170.434 165.735 170.367 165.403 170.434 165.137L170.566 161.214C170.367 161.346 170.168 161.546 170.168 161.812C170.035 161.546 169.305 161.745 169.172 162.41C168.973 162.078 168.375 162.41 168.176 163.075C168.574 161.214 169.637 159.618 170.633 158.953V158.62L170.965 158.421ZM182.187 149.378L174.883 153.7L174.418 164.139L181.723 159.618L182.187 149.378ZM179.863 152.902L180.129 153.101L178.535 156.692L179.863 158.554L179.598 159.019L178.269 157.157L176.742 160.748L176.477 160.549L178.137 156.958L176.742 155.03L177.008 154.631L178.336 156.426L179.863 152.902ZM175.414 157.024L176.277 158.088L175.348 159.95V159.152L175.016 159.352V158.288L175.414 158.022V157.024ZM176.875 155.695L176.676 159.684L176.41 159.95L176.543 155.961L176.875 155.761V155.695ZM178.203 157.822L179 158.753L177.473 159.684L178.269 157.822H178.203ZM170.102 158.155L170.035 158.82L169.836 158.953V158.753C169.836 158.554 170.102 158.088 170.102 158.088V158.155ZM177.207 156.293L177.871 157.157L177.074 158.753L177.207 156.293ZM172.16 157.29C172.16 157.29 172.16 157.756 172.027 157.955C172.027 158.088 171.961 158.155 171.895 158.155C171.828 158.155 171.762 158.088 171.828 157.889L172.16 157.29ZM175.082 142.795L167.312 147.117L166.914 158.022L174.617 153.5L175.082 142.795ZM180.195 153.7L180.062 157.689L179.797 157.889L179.93 153.899L180.195 153.7ZM171.43 157.024C171.43 157.024 171.43 157.423 171.297 157.689L171.164 157.822C171.098 157.822 171.031 157.822 171.098 157.623C171.098 157.423 171.363 156.958 171.43 156.958V157.024ZM179.531 154.83L179.398 157.423L178.734 156.559L179.531 154.83ZM181.191 153.633V154.631L181.523 154.431V155.495L181.125 155.695V156.625L180.262 155.628L181.191 153.633ZM172.691 155.628C172.691 155.628 172.691 156.16 172.559 156.359L172.359 156.559V156.293L172.691 155.628ZM179.133 154.165L178.336 156.027L177.672 155.03L179.133 154.165ZM173.289 145.056L173.223 147.848C173.156 148.779 172.426 150.508 171.297 151.173L171.164 153.766L172.691 153.434L169.039 155.495L170.566 154.099L170.633 151.505C169.703 152.104 168.906 151.04 168.973 150.043V147.516L169.637 147.183L169.902 148.38L169.57 148.646L170.301 150.907L170.035 148.912L170.301 148.58L170.102 146.917L173.289 145.056ZM182.719 138.539L175.281 142.662L174.816 153.367L182.187 148.979L182.719 138.539ZM180.727 147.782V149.045L176.344 151.572V150.309L180.793 147.782H180.727ZM177.672 142.263L178.668 144.258L177.937 144.723L177.738 149.245L177.074 149.644L177.141 145.122L176.477 145.521L177.672 142.263ZM180.129 140.933L181.059 142.928L180.262 143.327L180.129 147.915L179.398 148.314L179.598 143.726L178.934 144.125L180.129 140.933Z" fill="#322214"/>
<path d="M164.988 104.428L138.691 128.898C138.027 129.629 137.496 130.693 137.496 131.225C137.496 131.225 137.43 131.291 137.43 131.225C137.43 130.826 137.164 130.56 136.965 130.493L137.164 130.427C137.195 130.217 137.262 130.015 137.363 129.829C137.496 129.496 137.762 129.097 138.094 128.765L164.656 103.963L164.988 104.428Z" fill="#D7AA77"/>
<path d="M159.211 134.151L159.277 134.217L167.246 130.228V130.095L167.645 117.128C167.645 116.463 168.043 115.798 168.641 115.266L194.805 91.6613L186.836 95.0525L160.473 118.99C159.809 119.655 159.609 120.453 159.543 121.118L159.211 134.151Z" fill="url(#paint13_linear_6_2)"/>
<path d="M164.988 104.428L213 83.8816L212.734 83.4826L164.59 103.896L164.988 104.428Z" fill="#F8CE93"/>
<linearGradient id="paint0_linear_6_2" x1="8441" y1="6400" x2="8551.71" y2="6547.04" gradientUnits="userSpaceOnUse">
<stop/>
<stop offset="1" stop-opacity="0"/>
</linearGradient>
<linearGradient id="paint1_linear_6_2" x1="8560" y1="6451.2" x2="8535.4" y2="6483.88" gradientUnits="userSpaceOnUse">
<stop/>
<stop offset="1" stop-opacity="0"/>
</linearGradient>
<linearGradient id="paint2_linear_6_2" x1="13898" y1="6016" x2="15846.6" y2="6800.89" gradientUnits="userSpaceOnUse">
<stop stop-color="#C37A44"/>
<stop offset="0.444" stop-color="#BB713D"/>
<stop offset="0.641" stop-color="#A05728"/>
<stop offset="1" stop-color="#964E23"/>
</linearGradient>
<linearGradient id="paint3_linear_6_2" x1="10838" y1="7910.4" x2="7953.82" y2="4807.82" gradientUnits="userSpaceOnUse">
<stop stop-color="#E9B880"/>
<stop offset="1" stop-color="#E4AF76"/>
</linearGradient>
<linearGradient id="paint4_linear_6_2" x1="8696" y1="6604.8" x2="8490.13" y2="6315.29" gradientUnits="userSpaceOnUse">
<stop stop-color="#C37A45" stop-opacity="0"/>
<stop offset="0.133" stop-color="#C37A45"/>
<stop offset="0.294" stop-color="#D08D55"/>
<stop offset="0.502" stop-color="#DEA167"/>
<stop offset="0.697" stop-color="#E8AF73"/>
<stop offset="0.863" stop-color="#ECB477"/>
<stop offset="1" stop-color="#ECB477" stop-opacity="0"/>
</linearGradient>
<linearGradient id="paint5_linear_6_2" x1="8101" y1="3763.2" x2="5439.22" y2="10608.2" gradientUnits="userSpaceOnUse">
<stop offset="0.088" stop-color="#AF6938"/>
<stop offset="0.483" stop-color="#9A5227"/>
<stop offset="0.779" stop-color="#8D4520"/>
</linearGradient>
<linearGradient id="paint6_linear_6_2" x1="7030" y1="7398.4" x2="9064.47" y2="5254.2" gradientUnits="userSpaceOnUse">
<stop offset="0.033" stop-color="#E4AF76"/>
<stop offset="1" stop-color="#E9B880"/>
</linearGradient>
<linearGradient id="paint7_linear_6_2" x1="8475" y1="6528" x2="8604.4" y2="6324.9" gradientUnits="userSpaceOnUse">
<stop stop-color="#AF6A38" stop-opacity="0"/>
<stop offset="0.086" stop-color="#AF6A38"/>
<stop offset="0.198" stop-color="#B87542"/>
<stop offset="0.583" stop-color="#D59C66"/>
<stop offset="0.777" stop-color="#E4AF76"/>
<stop offset="0.924" stop-color="#E4AF76" stop-opacity="0"/>
</linearGradient>
<linearGradient id="paint8_linear_6_2" x1="1437" y1="6464" x2="15887" y2="6464" gradientUnits="userSpaceOnUse">
<stop stop-color="#743F1A" stop-opacity="0"/>
<stop offset="0.493" stop-color="#743F1A" stop-opacity="0.9"/>
<stop offset="0.5" stop-color="#743F1A" stop-opacity="0.9"/>
<stop offset="0.53" stop-color="#743F1A" stop-opacity="0.8"/>
<stop offset="1" stop-color="#743F1A" stop-opacity="0"/>
</linearGradient>
<linearGradient id="paint9_linear_6_2" x1="8526" y1="6476.8" x2="8538.3" y2="6460.46" gradientUnits="userSpaceOnUse">
<stop stop-color="#322214"/>
<stop offset="0.24" stop-color="#322314"/>
<stop offset="1" stop-color="#322214" stop-opacity="0"/>
</linearGradient>
<linearGradient id="paint10_linear_6_2" x1="8781" y1="6233.6" x2="8468.43" y2="6756.35" gradientUnits="userSpaceOnUse">
<stop offset="0.048" stop-color="#C69866"/>
<stop offset="0.416" stop-color="#BA8C5E"/>
<stop offset="0.813" stop-color="#B5875B"/>
</linearGradient>
<linearGradient id="paint11_linear_6_2" x1="10753" y1="6054.4" x2="6075.07" y2="-142.131" gradientUnits="userSpaceOnUse">
<stop stop-color="#845F35"/>
<stop offset="0.431" stop-color="#91673C"/>
<stop offset="0.441" stop-color="#976A40"/>
<stop offset="0.874" stop-color="#986B40"/>
<stop offset="1" stop-color="#AB8157"/>
</linearGradient>
<linearGradient id="paint12_linear_6_2" x1="8543" y1="6464" x2="8555.3" y2="6480.34" gradientUnits="userSpaceOnUse">
<stop stop-color="#322214" stop-opacity="0"/>
<stop offset="1" stop-color="#322214"/>
</linearGradient>
<linearGradient id="paint13_linear_6_2" x1="7812" y1="8076.8" x2="8279.97" y2="4308.78" gradientUnits="userSpaceOnUse">
<stop stop-color="#A9794B"/>
<stop offset="0.386" stop-color="#AE7F53"/>
<stop offset="0.456" stop-color="#AC7D50"/>
<stop offset="0.624" stop-color="#A9794B"/>
<stop offset="1" stop-color="#B2875D"/>
</linearGradient>
</svg>