<svg width="256" height="256" title="Parrot OS" viewBox="0 0 256 256" fill="none" xmlns="http://www.w3.org/2000/svg" id="parrotos">
<style>
#parrotos {
    rect {fill: #15191C}

    @media (prefers-color-scheme: light) {
        rect {fill: #F4F2ED}
    }
}
</style>
<rect width="256" height="256" rx="40" fill="#15191C"/>
<path d="M126.035 46H130.772L134.445 46.1934L137.731 46.4836L141.984 47.0639L145.657 47.7409L149.427 48.6114L153.777 49.8687L156.87 50.9326L159.576 51.9965L162.09 53.0604L164.603 54.221L167.309 55.575L169.533 56.8324L171.659 58.0897L173.302 59.1536L176.009 60.9912L177.845 62.3453L179.489 63.6026L181.132 64.9566L182.195 65.8271L183.645 67.0844L184.902 68.245L186.352 69.6958L186.931 70.1794L187.608 70.9531L189.541 72.8875L190.411 73.9513L191.571 75.2087L193.698 77.9168L195.051 79.6577L196.404 81.592L197.178 82.7526L198.241 84.3968L199.787 86.9115L201.237 89.5229L202.88 92.7145L203.944 95.0358L205.297 98.3241L206.167 100.645L207.327 104.127L208.1 106.739L208.97 110.22L209.84 114.669L210.42 118.828L210.807 122.697L211 126.469V130.531L210.807 134.69L210.323 139.042L209.743 142.911L208.97 146.78L207.907 151.035L206.554 155.387L205.49 158.289L204.137 161.577L202.977 164.092L202.011 166.123L200.851 168.251L199.884 169.992L198.434 172.41L196.308 175.601L195.148 177.246L193.794 179.083L192.538 180.631L191.475 181.888L190.315 183.242L189.348 184.306L188.671 185.08L187.318 186.53L185.868 187.981L185.095 188.658L184.322 189.432L183.548 190.109L182.195 191.27L180.938 192.334L180.165 192.914L178.812 193.978L177.169 195.235L174.946 196.783L173.302 197.846L171.272 199.104L168.953 200.458L166.439 201.812L163.54 203.263L160.736 204.52L157.257 205.874L153.294 207.228L149.91 208.195L146.334 209.066L141.791 209.936L137.538 210.516L134.541 210.807L131.351 211H124.392L121.395 210.807L118.012 210.42L114.049 209.839L110.279 209.066L106.8 208.195L103.513 207.228L98.7768 205.584L95.587 204.23L92.3972 202.779L90.464 201.812L88.3374 200.651L85.6309 199.104L83.4077 197.653L81.3779 196.299L79.7346 195.138L77.0281 193.011L75.9649 192.14L74.6116 190.979L72.6784 189.239L71.2285 187.885L68.4253 185.08L67.7487 184.306L66.2988 182.758L65.4288 181.695L64.1722 180.244L63.0123 178.696L61.6591 176.955L60.4025 175.118L59.3392 173.57L58.1793 171.733L57.0193 169.798L55.6661 167.38L54.1195 164.382L52.6696 161.191L51.5097 158.289L50.4464 155.387L49.3831 152.099L48.4165 148.521L47.5466 144.555L46.8699 140.59L46.29 136.141L46.0967 133.626L46 131.402V125.018L46.1933 122.02L46.7733 116.991L47.4499 113.025L48.3199 108.963L49.4798 104.708L50.6397 101.226L51.6063 98.5176L52.5729 96.1964L53.4429 94.1653L54.1195 92.7145L54.8928 91.2638L55.6661 89.7163L57.116 87.1049L58.4692 84.8804L60.1125 82.3658L61.2724 80.7216L62.239 79.3675L63.4956 77.7233L64.7522 76.1758L65.8155 74.9185L66.6854 73.8546L67.8453 72.5973L68.522 71.8236L72.4851 67.8581L73.2583 67.1811L75.9649 64.8599L77.3181 63.796L78.768 62.6354L80.2179 61.5715L82.0545 60.3142L83.0211 59.6372L84.8576 58.4766L86.2109 57.6061L88.2408 56.4455L89.9807 55.4783L92.2039 54.3177L94.0404 53.4472L96.4569 52.3834L99.0668 51.3195L101.773 50.3523L104.77 49.3851L108.443 48.4179L113.373 47.354L116.949 46.7737L119.849 46.3869L123.522 46.0967L126.035 46Z" fill="#4BCFE5"/>
<path d="M169.919 65.7304L170.112 65.9238L169.339 66.6008L167.213 67.7614L165.376 68.7286L164.023 69.5023L162.476 70.2761L160.35 71.4367L158.803 72.2104L154.743 74.3382L152.52 75.4988L150.394 76.6594L147.011 78.4004L143.241 80.3347L141.404 81.3019L139.181 82.4625L135.605 84.2034L135.798 84.5903H140.728L142.854 84.4936L153.004 84.3001L162.38 84.01L187.898 83.4297H189.348V83.7198L187.705 84.5903L186.545 85.0739L185.675 85.4607L181.808 87.1049L178.425 88.459L175.815 89.5229L171.176 91.4572L166.439 93.3916L163.926 94.4555L159.673 96.1964L149.91 100.258L147.301 101.322L144.497 102.483L139.761 104.417L135.605 106.255L134.445 106.932L132.898 108.866L132.028 109.93L130.675 111.574L129.708 112.832L128.645 114.186L127.775 115.25L126.712 116.604L125.745 117.764L125.069 118.635L124.005 119.989L123.232 120.956L122.072 122.31L120.815 123.858L120.139 124.631L120.042 125.115L120.815 126.662L122.169 128.984L123.715 131.885L124.875 133.916L126.132 136.237L127.388 138.462L128.548 140.59L129.805 142.814L131.158 145.329L132.415 147.553L133.671 149.875L134.928 152.099L136.281 154.614L137.054 155.968L138.504 158.579L139.761 160.9L141.018 163.125L142.178 165.253L143.434 167.477L144.884 170.185L147.301 174.538L148.074 175.892L149.33 178.116L150.104 179.373L150.877 180.921L152.23 183.339L153.294 185.273L153.487 185.853V186.337L153.1 186.144L152.424 185.467L151.747 184.693L150.684 183.436L149.62 182.275L148.75 181.308L147.687 180.147L145.657 178.116L145.174 177.729L144.787 177.632L144.691 178.213L145.367 179.567L146.237 181.114L146.817 182.275L147.687 184.113L149.04 187.111L149.524 188.175L150.2 189.722L151.747 192.817L153.004 195.428L153.68 196.783L154.357 198.427V198.814L153.873 198.62L152.81 197.46L151.747 196.106L150.49 194.751L149.62 193.688L148.267 192.237L147.591 191.463L146.431 190.206L144.691 188.271L143.724 187.208L142.854 186.144L141.598 184.79L140.921 184.016L139.954 182.952L139.278 182.178L138.021 180.727L136.571 179.18L135.895 178.406L134.831 177.246L133.961 176.182L132.705 174.828L131.835 173.764L131.158 173.087L130.482 172.313L129.322 171.056L127.582 169.121L126.422 167.767L125.262 166.51L124.392 165.446L123.039 163.995L122.362 163.222L121.492 162.254L120.525 161.287L119.849 160.513L78.2847 118.925L77.8981 118.828L77.1248 119.505L75.7715 120.666L74.9982 121.246L73.645 122.407L72.3884 123.374L71.0352 124.535L69.7786 125.502L68.1353 126.856L67.1687 127.63L65.8155 128.693L65.0422 129.274L64.5589 129.467H64.2689L64.3656 128.597L65.2355 124.438L65.7188 122.02L67.8453 111.865L68.812 107.319L69.0053 106.545L69.6819 106.158L88.2408 104.901L94.9104 104.611L96.3603 104.417L96.6503 104.321L97.5202 99.9683L100.13 87.2016L101.87 78.4971L102.257 76.8529L102.74 76.466L109.893 75.3054L116.756 74.2415L122.169 73.371L160.156 67.3746L164.506 66.6975L167.986 66.1172L169.919 65.7304Z" fill="#0F0F0F"/>
</svg>