<svg width="256" height="256" title="Pennylane" viewBox="0 0 256 256" fill="none" xmlns="http://www.w3.org/2000/svg" id="pennylane">
<style>
#pennylane {
    rect {fill: #15191C}

    @media (prefers-color-scheme: light) {
        rect {fill: #F4F2ED}
    }
}
</style>
<rect width="256" height="256" rx="40" fill="#15191C"/>
<path fill-rule="evenodd" clip-rule="evenodd" d="M76.1837 73.9931C72.7715 78.6232 72.4662 84.6232 75.3595 90.1884C76.2175 91.8395 79.3452 95.056 81.2765 96.2738C83.4663 97.6547 90.8056 102.467 93.3929 104.218C94.6925 105.098 95.8291 105.744 95.9187 105.654C96.0085 105.564 95.5415 104.571 94.8809 103.447C93.3807 100.893 93.5826 101.241 87.4247 90.579C84.6023 85.6921 81.4739 80.2397 80.4725 78.4626C79.4715 76.6855 78.2485 74.7469 77.7551 74.1546L76.8581 73.0781L76.1837 73.9931ZM110.05 79.8901C109.598 80.6238 109.811 84.998 110.391 86.8701C111.213 89.5264 112.094 91.0033 114.073 93.0459C116.143 95.1823 119.515 96.9313 122.434 97.383C123.585 97.5613 127.426 97.6663 130.969 97.6166L137.41 97.5258L131.291 93.4582C124.777 89.1283 117.38 84.2652 113.415 81.705C112.087 80.8471 110.831 80.0138 110.626 79.8536C110.399 79.6768 110.172 79.691 110.05 79.8901ZM148.377 128.031C144.341 135.088 143.623 136.862 143.437 140.231C143.116 146.041 146.11 151.418 151.187 154.15C151.93 154.55 152.793 154.877 153.104 154.877C153.729 154.877 153.74 155.954 152.989 143.245C152.794 139.958 152.471 134.044 152.27 130.104C152.069 126.164 151.816 122.853 151.708 122.745C151.6 122.638 150.101 125.017 148.377 128.031ZM124.057 156.509C124.088 161.701 125.005 174.891 125.447 176.525C127.212 183.037 133.172 187.511 140.086 187.511H142.483L142.287 186.526C142.119 185.683 125.12 155.59 124.328 154.732C124.162 154.552 124.049 155.291 124.057 156.509Z" fill="#F51CB8"/>
<path fill-rule="evenodd" clip-rule="evenodd" d="M63.0124 68.3413C62.1286 68.5106 60.5243 69.0706 59.4472 69.5862C55.3713 71.5378 52.7234 74.8987 51.5175 79.6523C50.9101 82.0468 50.8769 82.5835 51.2132 84.5715C51.8673 88.4404 51.4828 87.7195 70.1829 120.143C70.7978 121.209 71.5556 122.518 71.8668 123.051C72.1776 123.584 78.9864 135.434 86.997 149.384C95.0075 163.334 102.04 175.548 102.624 176.525C103.208 177.502 104.027 178.904 104.444 179.64C113.71 196 116.58 200.714 118.408 202.571C122.01 206.229 126.224 207.613 131.139 206.753C139.286 205.326 144.499 198.101 143.334 189.85C143.168 188.674 142.966 187.645 142.884 187.563C142.803 187.481 141.611 187.442 140.234 187.475C135.955 187.579 132.286 186.096 129.267 183.041C127.047 180.795 125.784 178.359 125.193 175.18C124.951 173.876 124.569 168.605 124.345 163.465L123.938 154.121L122.982 152.318C122.456 151.327 121.334 149.352 120.489 147.93C119.644 146.508 118.612 144.744 118.197 144.01C117.781 143.275 112.731 134.479 106.974 124.462L96.5058 106.25L94.2513 104.758C90.1592 102.049 82.6804 97.1591 81.2765 96.2738C79.3452 95.056 76.2175 91.8395 75.3595 90.1884C72.7767 85.2207 72.7325 79.6662 75.2425 75.5546C76.9831 72.7042 76.9692 72.8302 75.6574 71.6926C73.8469 70.1226 71.4693 68.9497 69.0579 68.437C66.6033 67.9151 65.3439 67.8954 63.0124 68.3413ZM121.467 68.3126C117.238 69.1303 113.431 72.0906 111.4 76.1408C109.738 79.4548 109.638 79.2238 113.95 82.0406C120.868 86.5609 126.664 90.3677 132.236 94.0505L137.733 97.6835L145.527 97.6854C150.006 97.6867 154.03 97.8395 154.986 98.0453C159.09 98.9284 161.548 103.672 159.922 107.574C159.638 108.256 157.729 111.728 155.681 115.287L151.957 121.759L152.029 124.768C152.068 126.422 152.227 129.912 152.382 132.522C152.536 135.132 152.823 140.248 153.02 143.891C153.651 155.633 153.574 155.101 154.715 155.5C155.259 155.69 156.734 155.844 157.991 155.842C162.173 155.835 166.323 153.967 169.041 150.869C169.776 150.032 174.106 142.849 178.664 134.906C183.222 126.964 187.846 118.94 188.941 117.074C190.036 115.208 191.299 113.027 191.748 112.227C192.197 111.427 195.412 105.83 198.892 99.7875C202.373 93.7454 205.399 88.2204 205.617 87.5095C205.839 86.7884 206.008 84.5748 206 82.5014C205.986 78.9905 205.928 78.6665 204.944 76.6215C202.843 72.2512 198.632 69.0127 194.097 68.2783C191.674 67.8861 123.507 67.9184 121.467 68.3126Z" fill="#00B1FF"/>
<path fill-rule="evenodd" clip-rule="evenodd" d="M85.4329 68.3258C83.1758 68.7019 80.0545 70.2124 78.2914 71.7821L76.8874 73.0322L77.8646 74.2932C78.4022 74.987 79.9102 77.4448 81.2159 79.755C82.5216 82.0652 85.6078 87.4449 88.0747 91.7099C90.5412 95.9749 92.8115 99.9006 93.1198 100.434C93.428 100.967 94.2071 102.3 94.8513 103.396C95.4958 104.492 96.0227 105.484 96.0227 105.6C96.0227 105.848 96.8688 106.734 97.1056 106.734C97.4521 106.734 116.911 119.482 118.844 120.976C119.667 121.612 120.733 122.858 121.214 123.745C122.285 125.72 122.514 127.903 123.261 143.245C123.632 150.857 123.91 154.213 124.198 154.554C125.034 155.544 142.046 185.483 142.261 186.343C142.528 187.409 143.051 187.351 146.165 185.905C149.578 184.32 152.218 181.412 153.692 177.616C154.58 175.328 154.643 171.948 153.992 161.581C153.63 155.821 153.499 154.877 153.055 154.877C152.292 154.877 150.034 153.589 148.421 152.234C143.853 148.399 142.12 141.184 144.413 135.551C145.199 133.62 151.28 122.692 151.721 122.418C152 122.246 151.26 112.772 150.822 110.902C150.303 108.687 148.872 106.146 147.212 104.49C146.401 103.681 143.956 101.809 141.779 100.33L137.819 97.6411L131.012 97.6676C123.019 97.6986 121.129 97.444 118.051 95.9219C112.896 93.3729 109.754 88.2785 109.82 82.578C109.835 81.2801 109.926 80.0901 110.023 79.9334C110.119 79.777 108.784 78.7143 107.056 77.5721C94.393 69.2034 93.7011 68.815 90.5473 68.3051C88.1813 67.9226 87.846 67.9239 85.4329 68.3258Z" fill="#FFBE0C"/>
</svg>