<svg width="256" height="256" title="Penpot" viewBox="0 0 256 256" fill="none" xmlns="http://www.w3.org/2000/svg" id="penpot">
<style>
#penpot {
    rect {fill: #15191C}
    path.penpot {fill: white}

    @media (prefers-color-scheme: light) {
        rect {fill: #F4F2ED}
        path.penpot {fill: black}
    }
}
</style>
<rect width="256" height="256" rx="40" fill="#15191C"/>
<path d="M99.3002 49L82.634 72.4009V85.629L68.1306 92.5057L68 92.4442V97.8803V178.744L124.544 205.374L128 207L131.455 205.374L188 178.744V92.4442L187.894 92.4941L173.386 85.6156V72.4009L172.878 71.689L156.719 49L140.052 72.4009V72.4241L127.924 55.3968L115.89 72.293L115.46 71.689L99.3002 49ZM102.249 62.5929L108.695 71.6436H89.9054L96.2766 62.6991L102.249 62.5929ZM159.667 62.5929L166.113 71.6436H147.324L153.694 62.6991L159.667 62.5929ZM130.872 68.9906L137.319 78.0404H118.53L124.9 69.0959L130.872 68.9906ZM88.1238 76.2046H97.0354V106.118L88.1238 101.921V76.2046ZM101.611 76.2046H110.477L110.477 112.448L101.61 108.273L101.611 76.2046ZM145.541 76.2046H154.454L154.453 108.242L145.542 112.438L145.541 76.2046ZM159.028 76.2046H167.895V101.911L159.028 106.087V76.2046ZM116.748 82.6014H125.659V119.598L116.748 115.401V82.6014ZM130.234 82.6014H139.101L139.1 115.472L130.233 119.649L130.234 82.6014ZM173.385 92.4326L181.231 95.6305L173.385 99.3254V92.4326ZM82.634 92.4442V99.3361L74.7891 95.6412L82.634 92.4442ZM74.9099 103.318L124.544 126.692V197.754L74.9099 174.38V103.318ZM181.089 103.318V174.38L131.455 197.754V126.692L181.089 103.318Z" class="penpot" fill="white"/>
</svg>