<svg width="256" height="256" title="Pentaho PDI" viewBox="0 0 256 256" fill="none" xmlns="http://www.w3.org/2000/svg">
<rect width="256" height="256" rx="40" fill="#BA261D"/>
<path fill-rule="evenodd" clip-rule="evenodd" d="M65.8938 54.9439C51.7003 59.251 43.3604 72.5502 46.7555 85.462C50.7662 100.713 66.1054 108.841 80.9288 103.57L85.7377 101.86L93.129 109.162L100.519 116.463L98.2649 121.417C95.2401 128.059 95.2413 140.27 98.2673 146.917L100.525 151.876L94.8061 157.495C89.5584 162.65 88.7348 163.048 84.83 162.318C78.3801 161.111 70.5151 164.997 67.7825 170.74C63.8163 179.077 67.1633 189.165 74.973 192.42C83.8658 196.125 92.0157 193.244 96.0299 184.974C97.9511 181.014 98.4055 178.541 97.7996 175.322C97.0482 171.324 97.4161 170.557 102.619 165.288L108.253 159.584L113.225 161.836C119.889 164.854 132.133 164.855 138.792 161.838L143.758 159.59L151.079 166.961L158.4 174.333L156.686 179.129C151.359 194.032 159.543 209.209 175.104 213.284C192.332 217.798 209.818 200.164 205.269 182.864C201.258 167.61 185.901 159.476 171.096 164.764L166.287 166.481L158.797 159.016L151.307 151.55L154.335 145.255L157.364 138.96H163.349C168.872 138.96 169.732 139.376 174.516 144.356C179.226 149.259 180.218 149.751 185.376 149.751C195.898 149.751 201.752 144.178 201.752 134.163C201.752 124.148 195.898 118.575 185.376 118.575C180.218 118.575 179.226 119.068 174.516 123.971C169.717 128.968 168.885 129.367 163.278 129.367H157.223L154.38 123.072L151.538 116.776L158.912 109.311L166.287 101.845L171.096 103.562C185.901 108.85 201.258 100.717 205.269 85.462C209.818 68.1627 192.332 50.5288 175.104 55.0422C159.54 59.1191 151.349 74.3128 156.693 89.1972L158.415 93.9936L150.93 101.464L143.444 108.934L137.133 105.914L130.821 102.893V96.9242C130.821 91.4155 131.238 90.557 136.231 85.7858C138.5 82.5 141.641 80.0985 141.641 74.9544C141.641 64.4599 136.053 58.6203 126.012 58.6203C115.971 58.6203 111 64.5 110.383 74.9544C110.383 80.0985 113.5 82.5 115.793 85.7858C120.803 90.5726 121.203 91.4023 121.203 96.9949V103.034L114.892 105.869L108.58 108.704L101.095 101.349L93.6099 93.9936L95.3314 89.1972C100.61 74.4927 92.5339 59.215 77.3221 55.1285C72 54 70 54.5 65.8938 54.9439ZM67.1032 65.4575C60.5 66.3425 57.4878 73.5754 56.7989 77.235C55.0545 86.5112 63.309 95.1711 72.9604 94.1902C87.8476 92.677 91.084 72.0717 77.3341 66.3425C73.0698 64.5654 70.5 65.0023 67.1032 65.4575ZM174.426 66.3365C168.725 68.8917 165.43 74.7877 166.09 81.2496C167.624 96.2575 188.275 99.302 194.107 85.3793C196.573 79.4929 195.394 74.3068 190.518 69.592C185.802 65.0343 179.964 63.8531 174.426 66.3365ZM123 69C118.492 72.2879 121.978 81.795 128.5 79C132 77.5 131.614 70.9066 129 69C127.818 68.139 126.421 68.213 126.012 68.213C125.603 68.213 124.182 68.139 123 69ZM116.657 116.905C104.69 122.992 103.338 142.186 114.329 149.993C119.323 153.539 129.104 154.274 134.887 151.537C147.3 145.661 148.918 126.304 137.664 118.312C132.771 114.837 122.123 114.124 116.657 116.905ZM182.757 130.806C179.523 134.031 182.041 138.96 186.923 138.96C190.485 138.96 192.68 135.022 190.932 131.765C189.505 129.105 184.992 128.577 182.757 130.806ZM78.6097 174.418C74.563 178.455 77.7321 184.236 83.2371 182.857C87.1479 181.879 88.211 177.406 85.5 174.418C83.5 172.5 81 172.5 78.6097 174.418ZM174.702 174.877C166.855 178.115 163.471 189.007 168.05 196.288C171.063 201.079 177.82 204.182 183.089 203.196C187.814 202.311 194.5 197.5 195.223 191.004C197.372 180.291 185.05 170.609 174.702 174.877Z" fill="#F8F2F2"/>
</svg>