<svg width="256" height="256" title="Perplexity" viewBox="0 0 256 256" fill="none" xmlns="http://www.w3.org/2000/svg">
<rect width="256" height="256" rx="40" fill="#22B8CD"/>
<path d="M182.254 45V95.298H201V166.872H180.735V211L132.146 168.158V210.661H124.613V168.11L75.9686 211V166.284H56V94.717H75.9133V45L124.613 89.9168V46.3142H132.139V91.2033L182.254 45ZM132.146 107.554V158.177L173.201 194.379V144.877L132.146 107.554ZM124.557 107.001L83.5017 144.337V194.379L124.557 158.177V107.008V107.001ZM180.735 159.429H193.467V102.747H138.581L180.735 141.066V159.429ZM118.716 102.159H63.5262V158.841H75.9548V141.024L118.709 102.152L118.716 102.159ZM83.4464 62.1257V94.7032H118.764L83.4464 62.1257ZM174.72 62.1257L139.403 94.7032H174.72V62.1257Z" fill="white"/>
</svg>