<svg width="256" height="256" title="Phoenix" viewBox="0 0 256 256" fill="none" xmlns="http://www.w3.org/2000/svg">
<rect width="256" height="256" rx="40" fill="#FD4F00"/>
<path d="M36.5142 74.9605C36.2316 74.7276 35.9768 74.3237 36.0017 74.3082C37.0516 73.5595 38.0736 72.7426 39.2044 72.1368C49.3002 66.7348 60.0079 63.8738 71.5326 64.0043C85.8469 64.1689 97.3499 70.0804 106.663 80.6577C111.45 86.0939 116.14 91.6139 120.903 97.075C126.525 103.527 132.797 109.261 140.895 112.34C145.179 113.971 149.82 114.66 154.2 115.751C149.575 118.745 144.25 120.385 138.292 119.764C132.642 119.174 128.314 116.108 124.344 112.371C121.828 110.001 119.029 108.274 115.435 108.214C109.689 108.118 106.626 112.262 108.381 117.742C111.646 127.946 118.682 134.672 128.38 138.527C138.976 142.739 149.947 143.537 161.084 140.648C161.599 140.515 162.152 140.53 162.687 140.478C162.767 140.639 162.851 140.797 162.932 140.959C161.391 142.248 159.885 143.584 158.304 144.823C151.839 149.899 144.508 152.897 136.326 153.677C128.457 154.431 122.22 151.042 117.11 145.445C112.618 140.527 108.427 135.34 104.069 130.301C101.509 127.341 98.7757 124.464 94.7157 123.802C92.6748 123.467 90.4164 123.492 88.4283 124.014C83.8961 125.197 81.9297 129.385 83.3804 134.15C86.3999 144.084 92.7928 150.424 103.115 152.53C103.401 152.589 103.687 152.655 104.498 152.832C100.233 153.866 96.4708 153.953 92.7027 153.18C75.3628 149.617 61.6543 137.815 59.1195 117.851C58.3957 112.157 58.3833 106.376 57.9577 100.641C57.5818 95.5777 56.4759 90.654 54.2952 86.0566C50.7943 78.6696 45.1718 74.4884 36.5142 74.9605ZM57.5104 72.3418C59.5388 74.3765 61.9277 74.9388 64.5898 73.8795C66.053 73.2986 66.9134 72.1586 66.9414 70.1767C63.835 70.6023 60.856 70.9968 57.8831 71.4472C57.6595 71.4783 57.4948 71.8945 57.5104 72.3418Z" fill="white"/>
<path d="M73.8904 150.191C77.6274 152.077 81.2743 154.174 85.12 155.801C92.9606 159.116 100.981 159.669 109.098 156.625C112.779 155.245 116.523 154.292 120.384 156.016C121.021 156.298 121.633 156.64 122.602 157.128C120.757 157.606 119.259 157.939 117.796 158.389C116.411 158.818 115.072 159.383 115 161.166C114.926 162.974 116.035 163.981 117.576 164.335C120.769 165.068 123.981 165.931 127.227 166.158C132.813 166.543 138.333 166.925 143.234 169.998C145.17 171.209 147.239 172.312 148.683 174.868C146.018 174.229 143.8 173.682 141.576 173.16C136.23 171.908 130.883 172.56 125.581 173.356C118.567 174.406 111.559 175.226 104.641 173.085C91.7522 169.1 81.2339 161.812 73.8407 150.278C73.909 150.163 73.8904 150.191 73.8904 150.191Z" fill="white"/>
<path d="M156.154 191.059C151.96 190.046 148.761 187.76 146.018 184.716C142.759 181.1 138.839 178.456 134.182 176.947C134.201 176.757 134.223 176.568 134.245 176.378C137.081 176.642 139.967 176.673 142.75 177.214C148.522 178.338 152.74 181.696 155.741 186.76C156.726 188.425 158.226 189.785 159.615 191.429C158.527 191.317 157.418 191.202 156.154 191.059Z" fill="white"/>
<path d="M124.587 82.0245C130.138 83.559 134.829 86.3672 139.025 89.9862C144.145 94.3972 149.898 96.3046 156.611 94.885C156.791 94.8477 156.99 94.9067 157.182 94.9222C157.238 95.1148 157.297 95.3074 157.356 95.5C155.039 96.143 152.752 97.1402 150.395 97.367C141.548 98.2181 133.263 96.053 125.798 91.3996C121.716 88.8585 118.141 85.5036 114.354 82.4966C113.913 82.1456 113.581 81.6579 112.804 80.7943C117.06 80.7446 120.763 81.1733 124.587 82.0245Z" fill="white"/>
<path d="M177.492 108.91C162.18 114.201 147.714 112.65 134.002 104.391C129.706 101.803 126.205 98.302 123.462 93.9686C123.795 94.1581 124.146 94.3134 124.453 94.537C137.062 103.716 150.82 105.282 165.495 100.728C169.763 99.4048 174.038 98.128 178.582 98.5008C189.013 99.3613 195.723 106.814 195.484 117.611C191.996 109.51 186.013 106.661 177.492 108.91Z" fill="white"/>
<path d="M153.647 130.205C159.844 126.101 166.436 123.423 173.749 122.833C180.197 122.311 186.131 123.858 191.328 128.108C190.051 127.946 188.771 127.819 187.504 127.614C180.58 126.499 174.199 127.782 168.219 131.537C159.338 137.12 149.646 138.238 139.507 136.172C137.845 135.833 136.27 135.085 134.673 134.181C141.61 135.709 147.832 134.234 153.647 130.205Z" fill="white"/>
<path d="M166.039 144.917C169.701 140.881 173.323 136.995 178.163 134.575C184.419 131.447 190.918 131.09 197.528 133.24C198.774 133.647 199.858 134.547 201.017 135.218C200.926 135.423 200.839 135.625 200.753 135.83C199.529 135.684 198.302 135.563 197.081 135.389C193.658 134.908 190.899 136.085 188.607 138.62C186.441 141.018 184.276 143.425 181.965 145.681C175.889 151.611 168.25 153.934 160.065 154.854C157.707 155.118 155.321 155.146 152.833 155.047C158.288 153.043 162.156 149.079 166.039 144.917Z" fill="white"/>
<path d="M199.439 145.351C196.994 144.457 194.667 143.646 192.449 142.873C196.876 138.993 204.76 138.949 209.96 142.956C210.572 143.429 211.153 143.944 211.724 144.469C213.147 145.777 214.449 147.253 216.002 148.377C217.546 149.495 219.335 150.266 221 151.182C216.763 154.41 210.034 154.118 205.459 150.418C203.455 148.803 201.52 147.1 199.439 145.351Z" fill="white"/>
</svg>