<svg width="256" height="256" title="PHP" viewBox="0 0 256 256" fill="none" xmlns="http://www.w3.org/2000/svg">
<rect width="256" height="256" rx="40" fill="#777BB4"/>
<path d="M92.1146 114.951H85.2312L81.476 134.259H87.5865C91.6406 134.259 94.6594 133.494 96.6427 131.97C98.626 130.439 99.9604 127.894 100.653 124.321C101.324 120.894 101.018 118.473 99.749 117.066C98.4729 115.658 95.9354 114.951 92.1146 114.951ZM128.5 82C80.1781 82 41 102.606 41 128.025C41 153.444 80.1781 174.057 128.5 174.057C176.822 174.057 216 153.444 216 128.025C216 102.606 176.822 82 128.5 82ZM104.729 136.33C102.826 138.153 100.536 139.524 98.0427 140.348C95.5927 141.135 92.4646 141.544 88.6729 141.544H80.0615L77.6771 153.801H67.6292L76.5979 107.674H95.9208C101.732 107.674 105.969 109.198 108.637 112.253C111.306 115.301 112.108 119.559 111.044 125.028C110.636 127.192 109.885 129.277 108.82 131.204C107.777 133.064 106.414 134.777 104.729 136.33ZM134.071 141.544L138.03 121.134C138.49 118.816 138.315 117.226 137.534 116.388C136.754 115.542 135.084 115.119 132.525 115.119H124.562L119.429 141.551H109.454L118.423 95.4167H128.391L126.006 107.681H134.888C140.48 107.681 144.33 108.658 146.452 110.605C148.574 112.552 149.208 115.709 148.37 120.077L144.199 141.544H134.071ZM189.466 125.028C189.065 127.194 188.313 129.28 187.242 131.204C186.199 133.064 184.835 134.777 183.151 136.33C181.247 138.148 178.963 139.52 176.465 140.348C174.015 141.135 170.886 141.544 167.087 141.544H158.483L156.099 153.808H146.051L155.02 107.681H174.335C180.147 107.681 184.383 109.205 187.052 112.26C189.721 115.301 190.53 119.559 189.466 125.028ZM170.544 114.951H163.668L159.905 134.259H166.016C170.077 134.259 173.096 133.494 175.072 131.97C177.055 130.439 178.39 127.894 179.09 124.321C179.76 120.894 179.447 118.473 178.178 117.066C176.909 115.658 174.357 114.951 170.544 114.951Z" fill="white"/>
</svg>