<svg width="256" height="256" title="PhpStorm" viewBox="0 0 256 256" fill="none" xmlns="http://www.w3.org/2000/svg" id="phpstorm">
<style>
#phpstorm {
    rect {fill: #15191C}

    @media (prefers-color-scheme: light) {
        rect {fill: #F4F2ED}
    }
}
</style>
<rect width="256" height="256" rx="40" fill="#15191C"/>
<path d="M191.909 87.8815L191.905 58.1836C191.904 52.56 187.488 48 182.041 48H154.174C151.295 48 148.559 49.2993 146.684 51.556L67.4652 146.99C65.9336 148.836 65.0909 151.187 65.0909 153.618V183.317C65.0909 188.942 69.507 193.502 74.9546 193.502H102.826C105.705 193.502 108.442 192.202 110.316 189.946L189.534 94.5119C191.067 92.6657 191.909 90.3143 191.909 87.8815Z" fill="#D249FC"/>
<path d="M191.909 84.3097V58.185C191.909 52.56 187.493 48 182.045 48H150.337C149.87 48 149.404 48.0349 148.942 48.1018L59.4687 61.3002C54.6101 62.016 51 66.3141 51 71.3819V110.577C51 116.203 55.4175 120.763 60.8665 120.762L105.765 120.75C106.824 120.75 107.877 120.574 108.881 120.228L185.165 93.9708C189.192 92.5843 191.909 88.6938 191.909 84.3097Z" fill="url(#linearGradient1)"/>
<path d="M206 197.864V112.917C206 108.843 203.648 105.16 200.023 103.555L109.225 63.3724C107.998 62.8297 106.674 62.5488 105.339 62.5488H60.8636C55.4161 62.5488 51 67.1088 51 72.7339V117.663C51 119.675 51.5777 121.642 52.6599 123.317L104.496 203.514C106.325 206.345 109.404 208.045 112.7 208.045L196.137 208.049C201.584 208.049 206 203.489 206 197.864Z" fill="url(#linearGradient2)"/>
<path d="M176.938 78.0094H80.0625V178.041H176.938V78.0094Z" fill="black"/>
<path fill-rule="evenodd" clip-rule="evenodd" d="M107.41 91.3326H92.1593V128.02H99.0878V114.157H107.209C109.745 114.157 111.971 113.685 113.883 112.742C115.812 111.782 117.292 110.435 118.324 108.706C119.373 106.976 119.898 104.932 119.898 102.679C119.898 100.425 119.381 98.4432 118.349 96.7306C117.333 95.0177 115.879 93.691 113.983 92.7477C112.088 91.8044 109.896 91.3326 107.41 91.3326ZM109.997 107.554C109.134 107.991 108.12 108.21 106.952 108.21H99.0838V97.2821H106.952C108.12 97.2821 109.134 97.5082 109.997 97.963C110.877 98.3981 111.552 99.0273 112.027 99.8499C112.501 100.652 112.738 101.631 112.738 102.732C112.738 103.833 112.5 104.803 112.027 105.641C111.554 106.464 110.877 107.1 109.997 107.554Z" fill="white"/>
<path d="M128.844 127.209C130.925 128.169 133.268 128.651 135.874 128.651C138.496 128.651 140.846 128.17 142.928 127.21C145.009 126.25 146.632 124.913 147.8 123.201C148.968 121.471 149.552 119.506 149.552 117.304C149.552 115.523 149.179 113.882 148.435 112.378C147.692 110.858 146.634 109.59 145.263 108.578C143.911 107.566 142.346 106.892 140.569 106.56L133.514 105.197C132.396 104.971 131.525 104.515 130.899 103.834C130.273 103.136 129.96 102.279 129.96 101.266C129.96 100.392 130.214 99.6252 130.721 98.96C131.229 98.2774 131.939 97.7439 132.853 97.3608C133.767 96.9777 134.774 96.784 135.924 96.784C137.075 96.784 138.107 96.983 139.02 97.3862C139.934 97.7693 140.645 98.3128 141.152 99.0103C141.677 99.7082 141.939 100.514 141.939 101.421H148.868C148.851 99.3248 148.276 97.4745 147.143 95.8657C146.026 94.2398 144.478 92.9724 142.498 92.0655C140.535 91.1572 138.302 90.7021 135.848 90.7021C133.394 90.7021 131.186 91.1642 129.224 92.0905C127.277 93.0184 125.747 94.3089 124.63 95.9697C123.53 97.6302 122.981 99.5242 122.981 101.657C122.981 103.386 123.32 104.959 123.997 106.374C124.674 107.772 125.638 108.941 126.89 109.885C128.159 110.811 129.647 111.441 131.356 111.772L138.64 113.213C139.84 113.459 140.78 113.983 141.456 114.786C142.15 115.572 142.497 116.552 142.497 117.722C142.497 118.665 142.218 119.503 141.659 120.237C141.102 120.971 140.323 121.547 139.325 121.967C138.343 122.37 137.227 122.569 135.975 122.569C134.656 122.569 133.47 122.343 132.422 121.888C131.389 121.433 130.569 120.804 129.96 120.001C129.369 119.18 129.072 118.246 129.072 117.198H122.118C122.152 119.435 122.761 121.426 123.945 123.173C125.129 124.902 126.762 126.249 128.844 127.209Z" fill="white"/>
<path d="M92.1566 158.032H130.906V165.534H92.1566V158.032Z" fill="white"/>
<linearGradient id="linearGradient1" x1="201.197" y1="44.0538" x2="35.9541" y2="81.1581" gradientUnits="userSpaceOnUse">
<stop offset="0.16" stop-color="#D249FC"/>
<stop offset="0.55" stop-color="#FF2D90"/>
</linearGradient>
<linearGradient id="linearGradient2" x1="60.6438" y1="43.6099" x2="220.831" y2="184.642" gradientUnits="userSpaceOnUse">
<stop offset="0.3" stop-color="#FF2D90"/>
<stop offset="0.7" stop-color="#7256FF"/>
</linearGradient>
</svg>