<svg width="256" height="256" title="Pinterest" viewBox="0 0 256 256" fill="none" xmlns="http://www.w3.org/2000/svg">
<rect width="256" height="256" rx="40" fill="#CB1F27"/>
<path d="M43 128.001C43 162.807 63.9298 192.708 93.8796 205.855C93.6405 199.919 93.8371 192.794 95.3591 186.336C96.9934 179.436 106.296 140.019 106.296 140.019C106.296 140.019 103.581 134.592 103.581 126.571C103.581 113.974 110.882 104.566 119.974 104.566C127.705 104.566 131.441 110.374 131.441 117.328C131.441 125.1 126.484 136.725 123.934 147.493C121.805 156.51 128.455 163.864 137.35 163.864C153.455 163.864 164.302 143.179 164.302 118.672C164.302 100.042 151.754 86.0982 128.933 86.0982C103.149 86.0982 87.0856 105.327 87.0856 126.805C87.0856 134.211 89.269 139.433 92.6889 143.477C94.2614 145.334 94.4799 146.081 93.9108 148.214C93.5031 149.778 92.5668 153.543 92.1789 155.036C91.6132 157.188 89.8687 157.958 87.923 157.163C76.0469 152.315 70.516 139.309 70.516 124.689C70.516 100.543 90.88 71.5904 131.266 71.5904C163.718 71.5904 185.078 95.0743 185.078 120.283C185.078 153.627 166.54 178.538 139.214 178.538C130.037 178.538 121.405 173.577 118.448 167.943C118.448 167.943 113.513 187.527 112.468 191.309C110.666 197.863 107.138 204.413 103.913 209.518C111.734 211.831 119.847 213.005 128.003 213.004C174.941 213.004 213 174.947 213 128.001C213 81.0566 174.941 43 128.003 43C81.0599 43 43 81.0566 43 128.001Z" fill="white"/>
</svg>