<svg width="256" height="256" title="PlatformIO" viewBox="0 0 256 256" fill="none" xmlns="http://www.w3.org/2000/svg" id="platformio">
<style>
#platformio {
    rect {fill: #15191C}

    @media (prefers-color-scheme: light) {
        rect {fill: #F4F2ED}
    }
}
</style>
<rect width="256" height="256" rx="40" fill="#15191C"/>
<path d="M128 43C105.296 43 83.9501 51.8413 67.8957 67.8957C51.8413 83.9501 43 105.296 43 128C43 150.704 51.8413 172.05 67.8957 188.104C83.9501 204.159 105.296 213 128 213C150.704 213 172.05 204.159 188.104 188.104C204.159 172.05 213 150.704 213 128C213 105.296 204.159 83.9501 188.104 67.8957C172.05 51.8413 150.704 43 128 43Z" fill="#FF7F00"/>
<path d="M208.608 128C208.608 172.519 172.518 208.608 128 208.608C83.4813 208.608 47.3914 172.519 47.3914 128C47.3914 83.4813 83.4813 47.3921 128 47.3921C172.519 47.3921 208.608 83.4813 208.608 128Z" fill="white"/>
<path d="M149.827 92.1818L153.244 79.8721C156.739 79.56 159.481 76.6275 159.481 73.0502C159.481 69.265 156.413 66.197 152.627 66.197C148.842 66.197 145.774 69.265 145.774 73.0502C145.774 75.5437 147.111 77.7185 149.101 78.9185L145.748 91.0011C136.161 88.564 128.067 88.7499 128.067 88.7499L126.568 89.4206V182.968L128.067 183.469C137.108 183.469 176.661 156.154 176.758 126.844C176.758 105.844 162.798 96.4132 149.827 92.1818ZM140.305 152.438C132.591 140.115 135.852 111.431 156.006 107.331C161.531 106.446 168.297 110.076 170.289 118.141C175.324 135.252 145.709 159.21 140.305 152.438ZM152.402 126.04C150.746 126.04 149.159 126.697 147.988 127.868C146.818 129.038 146.16 130.626 146.16 132.281C146.16 133.101 146.322 133.913 146.635 134.67C146.949 135.427 147.409 136.115 147.988 136.695C148.568 137.274 149.256 137.734 150.014 138.048C150.771 138.361 151.583 138.523 152.402 138.523C153.222 138.523 154.034 138.361 154.791 138.047C155.548 137.734 156.236 137.274 156.816 136.694C157.395 136.115 157.855 135.426 158.168 134.669C158.482 133.912 158.643 133.1 158.643 132.281C158.643 130.625 157.985 129.038 156.815 127.868C155.644 126.697 154.057 126.04 152.402 126.04ZM154.268 131.798C154.061 131.798 153.856 131.758 153.664 131.678C153.473 131.599 153.299 131.483 153.153 131.337C153.006 131.19 152.89 131.016 152.811 130.825C152.732 130.634 152.691 130.429 152.691 130.222C152.691 130.015 152.732 129.81 152.811 129.618C152.89 129.427 153.006 129.253 153.153 129.107C153.299 128.96 153.473 128.844 153.664 128.765C153.856 128.686 154.061 128.645 154.268 128.645C154.686 128.645 155.087 128.811 155.383 129.107C155.678 129.402 155.844 129.803 155.844 130.222C155.844 130.64 155.678 131.041 155.383 131.337C155.087 131.632 154.686 131.798 154.268 131.798Z" fill="#E57200"/>
<path d="M110.317 91.2833L106.981 78.7319C108.89 77.5153 110.159 75.385 110.159 72.9539C110.159 69.1687 107.091 66.1007 103.306 66.1007C99.5217 66.1007 96.4537 69.1687 96.4537 72.9539C96.4537 76.7271 99.5031 79.7864 103.272 79.805L106.617 92.3916C93.5956 96.7147 79.467 106.166 79.467 126.843C79.7565 156.733 119.027 183.466 128.067 183.466V88.7486C128.067 88.7486 119.93 88.7074 110.317 91.2833ZM117.22 152.437C111.815 159.21 82.2003 135.251 87.2345 118.141C89.228 110.076 95.9935 106.446 101.519 107.33C121.673 111.431 124.934 140.114 117.22 152.438V152.437ZM104.722 126.233C103.067 126.233 101.479 126.89 100.309 128.061C99.1383 129.231 98.4806 130.819 98.4804 132.474C98.4803 133.294 98.6417 134.105 98.9554 134.863C99.2691 135.62 99.7289 136.308 100.309 136.888C100.888 137.468 101.576 137.927 102.334 138.241C103.091 138.555 103.903 138.716 104.723 138.716C105.542 138.716 106.354 138.554 107.111 138.241C107.868 137.927 108.556 137.467 109.136 136.887C109.715 136.308 110.175 135.62 110.489 134.862C110.802 134.105 110.964 133.293 110.963 132.474C110.963 130.818 110.306 129.231 109.135 128.06C107.965 126.89 106.377 126.232 104.722 126.232V126.233ZM102.856 131.991C102.438 131.991 102.037 131.825 101.741 131.529C101.446 131.234 101.279 130.833 101.279 130.415C101.279 129.996 101.446 129.595 101.741 129.3C102.037 129.004 102.438 128.838 102.856 128.838C103.274 128.838 103.675 129.004 103.971 129.3C104.266 129.595 104.432 129.996 104.432 130.415C104.432 130.833 104.266 131.234 103.971 131.529C103.675 131.825 103.274 131.991 102.856 131.991Z" fill="#FF7F00"/>
</svg>