<svg width="256" height="256" title="Plausible" viewBox="0 0 256 256" fill="none" xmlns="http://www.w3.org/2000/svg">
<rect width="256" height="256" rx="40" fill="#5850EC"/>
<path d="M129.326 41.0123C124.716 40.9422 120.013 41.1713 116.86 41.7323C103.43 44.065 92.1094 49.7583 82.7366 58.9142C73.105 68.3289 67.1486 79.305 64.2556 92.9955L63.253 97.6544C63.1677 136.597 63.0846 175.54 63 214.483C65.1065 214.542 67.2722 214.2 69.0837 214.045C86.0568 211.972 100.487 201.696 108.347 186.105C110.334 182.132 111.758 177.561 112.752 171.859C113.572 167.023 113.616 165.415 113.486 140.193L113.359 113.636L114.389 111.053C115.815 107.511 119.756 103.57 123.298 102.144L125.881 101.113L150.066 101.071C163.368 101.071 175.038 100.891 175.945 100.718C180.177 99.8975 184.705 96.3612 186.519 92.4309C187.038 91.351 187.727 89.2395 188.03 87.8139C188.505 85.4386 188.467 84.788 187.776 82.1105C185.617 74.1639 178.015 63.1466 170.241 56.7116C161.431 49.4128 151.709 44.5327 141.214 42.0713C138.45 41.4453 133.937 41.0824 129.326 41.0123ZM191.037 90.172C190.672 91.4717 190.329 92.8191 189.794 93.9417C187.367 99.2028 182.289 103.177 176.623 104.276C150.066 104.685 158.267 104.681 150.066 104.685L126.588 104.728L124.639 105.504C122.373 106.416 118.661 110.128 117.75 112.394L116.973 114.328L117.1 140.178C117.208 161.06 117.15 166.072 116.662 169.997C120.405 170.661 124.198 170.997 127.999 170.999C163.899 170.999 193 141.897 193 105.998C192.998 100.662 192.339 95.3467 191.037 90.172Z" fill="white"/>
</svg>