<svg width="256" height="256" title="Plotly" viewBox="0 0 256 256" fill="none" xmlns="http://www.w3.org/2000/svg">
<rect width="256" height="256" rx="40" fill="#15191C"/>
<path d="M148.002 118.017C153.522 118.017 157.997 113.542 157.997 108.022C157.997 102.502 153.522 98.0276 148.002 98.0276C142.482 98.0276 138.007 102.502 138.007 108.022C138.007 113.542 142.482 118.017 148.002 118.017Z" fill="#8C99CD"/>
<path d="M188.005 77.9897C193.525 77.9897 198 73.5148 198 67.9948C198 62.4748 193.525 58 188.005 58C182.485 58 178.01 62.4748 178.01 67.9948C178.01 73.5148 182.485 77.9897 188.005 77.9897Z" fill="#8C99CD"/>
<path d="M148.002 77.9897C153.522 77.9897 157.997 73.5148 157.997 67.9948C157.997 62.4748 153.522 58 148.002 58C142.482 58 138.007 62.4748 138.007 67.9948C138.007 73.5148 142.482 77.9897 148.002 77.9897Z" fill="#8C99CD"/>
<path d="M107.998 77.9897C113.518 77.9897 117.993 73.5148 117.993 67.9948C117.993 62.4748 113.518 58 107.998 58C102.478 58 98.0034 62.4748 98.0034 67.9948C98.0034 73.5148 102.478 77.9897 107.998 77.9897Z" fill="#8C99CD"/>
<path d="M67.9948 77.9897C73.5148 77.9897 77.9897 73.5148 77.9897 67.9948C77.9897 62.4748 73.5148 58 67.9948 58C62.4748 58 58 62.4748 58 67.9948C58 73.5148 62.4748 77.9897 67.9948 77.9897Z" fill="#8C99CD"/>
<path d="M67.9948 118.017C73.5148 118.017 77.9897 113.542 77.9897 108.022C77.9897 102.502 73.5148 98.0276 67.9948 98.0276C62.4748 98.0276 58 102.502 58 108.022C58 113.542 62.4748 118.017 67.9948 118.017Z" fill="#8C99CD"/>
<path d="M148.002 118.017C153.522 118.017 157.997 113.542 157.997 108.022C157.997 102.502 153.522 98.0276 148.002 98.0276C142.482 98.0276 138.007 102.502 138.007 108.022C138.007 113.542 142.482 118.017 148.002 118.017Z" fill="url(#linearGradient1)"/>
<path d="M188.005 77.9897C193.525 77.9897 198 73.5148 198 67.9948C198 62.4748 193.525 58 188.005 58C182.485 58 178.01 62.4748 178.01 67.9948C178.01 73.5148 182.485 77.9897 188.005 77.9897Z" fill="url(#linearGradient2)"/>
<path d="M148.002 77.9897C153.522 77.9897 157.997 73.5148 157.997 67.9948C157.997 62.4748 153.522 58 148.002 58C142.482 58 138.007 62.4748 138.007 67.9948C138.007 73.5148 142.482 77.9897 148.002 77.9897Z" fill="url(#linearGradient3)"/>
<path d="M107.998 77.9897C113.518 77.9897 117.993 73.5148 117.993 67.9948C117.993 62.4748 113.518 58 107.998 58C102.478 58 98.0034 62.4748 98.0034 67.9948C98.0034 73.5148 102.478 77.9897 107.998 77.9897Z" fill="url(#linearGradient4)"/>
<path d="M67.9948 77.9897C73.5148 77.9897 77.9897 73.5148 77.9897 67.9948C77.9897 62.4748 73.5148 58 67.9948 58C62.4748 58 58 62.4748 58 67.9948C58 73.5148 62.4748 77.9897 67.9948 77.9897Z" fill="url(#linearGradient5)"/>
<path d="M67.9948 118.017C73.5148 118.017 77.9897 113.542 77.9897 108.022C77.9897 102.502 73.5148 98.0276 67.9948 98.0276C62.4748 98.0276 58 102.502 58 108.022C58 113.542 62.4748 118.017 67.9948 118.017Z" fill="url(#linearGradient6)"/>
<path d="M67.9948 138.007C62.4663 138.007 58 142.473 58 148.002V188.005C58 193.534 62.4663 198 67.9948 198C73.5234 198 77.9897 193.534 77.9897 188.005V148.002C77.9897 142.473 73.5234 138.007 67.9948 138.007Z" class="plotly" fill="#FFFFFF"/>
<path d="M148.002 138.007C142.473 138.007 138.007 142.473 138.007 148.002V188.005C138.007 193.534 142.473 198 148.002 198C153.53 198 157.997 193.534 157.997 188.005V148.002C157.997 142.473 153.53 138.007 148.002 138.007Z" class="plotly" fill="#FFFFFF"/>
<path d="M107.998 98.0035C102.47 98.0035 98.0034 102.47 98.0034 107.998V188.005C98.0034 193.534 102.47 198 107.998 198C113.527 198 117.993 193.534 117.993 188.005V107.998C117.993 102.47 113.527 98.0035 107.998 98.0035Z" class="plotly" fill="#FFFFFF"/>
<path d="M188.005 98.0035C182.477 98.0035 178.01 102.47 178.01 107.998V188.005C178.01 193.534 182.477 198 188.005 198C193.534 198 198 193.534 198 188.005V107.998C198 102.47 193.534 98.0035 188.005 98.0035Z" class="plotly" fill="#FFFFFF"/>
<linearGradient id="linearGradient1" x1="-502.507" y1="-12.1691" x2="478.169" y2="-12.1691" gradientUnits="userSpaceOnUse">
<stop stop-color="#FF2C6D"/>
<stop offset="1" stop-color="#7FE4FF"/>
</linearGradient>
<linearGradient id="linearGradient2" x1="-782.676" y1="268.169" x2="198" y2="268.169" gradientUnits="userSpaceOnUse">
<stop stop-color="#FF2C6D"/>
<stop offset="1" stop-color="#7FE4FF"/>
</linearGradient>
<linearGradient id="linearGradient3" x1="-502.507" y1="268.169" x2="478.169" y2="268.169" gradientUnits="userSpaceOnUse">
<stop stop-color="#FF2C6D"/>
<stop offset="1" stop-color="#7FE4FF"/>
</linearGradient>
<linearGradient id="linearGradient4" x1="-222.338" y1="268.169" x2="758.338" y2="268.169" gradientUnits="userSpaceOnUse">
<stop stop-color="#FF2C6D"/>
<stop offset="1" stop-color="#7FE4FF"/>
</linearGradient>
<linearGradient id="linearGradient5" x1="57.8309" y1="268.169" x2="1038.51" y2="268.169" gradientUnits="userSpaceOnUse">
<stop stop-color="#FF2C6D"/>
<stop offset="1" stop-color="#7FE4FF"/>
</linearGradient>
<linearGradient id="linearGradient6" x1="57.9759" y1="128" x2="198" y2="128" gradientUnits="userSpaceOnUse">
<stop stop-color="#FF2C6D"/>
<stop offset="1" stop-color="#7FE4FF"/>
</linearGradient>
</svg>