<svg width="256" height="256" title="PocketBase" viewBox="0 0 256 256" fill="none" xmlns="http://www.w3.org/2000/svg" id="pocketbase">
<style>
#pocketbase {
    rect {fill: #15191C}
    path {fill: #F4F2ED}

    @media (prefers-color-scheme: light) {
        rect {fill: #F4F2ED}
        path {fill: #15191C}
    }
}
</style>
<rect width="256" height="256" rx="40" fill="#15191C"/>
<path d="M85.0775 128.5C83.9263 128.498 82.8229 128.04 82.0096 127.225C81.1962 126.41 80.7394 125.306 80.7394 124.155V76.3944C80.7394 73.995 82.6781 72.0494 85.0775 72.0494H101.371C104.534 72.0494 107.483 72.3725 110.219 73.005C113.017 73.5825 115.431 74.5863 117.459 76.03C119.542 77.4188 121.178 79.2956 122.374 81.6675C123.564 83.9706 124.162 86.8238 124.162 90.2338C124.162 93.5269 123.529 96.38 122.285 98.8069C121.149 101.164 119.463 103.213 117.369 104.781C115.196 106.38 112.74 107.554 110.13 108.239C107.394 108.996 104.472 109.367 101.378 109.367H98.2156C97.0633 109.367 95.9581 109.825 95.1432 110.639C94.3284 111.454 93.8706 112.56 93.8706 113.712V124.162C93.8688 125.313 93.4102 126.416 92.5956 127.23C91.7809 128.043 90.6768 128.5 89.5256 128.5H85.0775ZM93.8706 94.895C93.8706 97.2944 95.8162 99.24 98.2156 99.24H100.574C107.724 99.24 111.299 96.2356 111.299 90.2338C111.299 87.2913 110.371 85.215 108.521 83.9981C106.734 82.7881 104.087 82.1831 100.574 82.1831H98.2156C97.0644 82.1831 95.9603 82.64 95.1457 83.4533C94.331 84.2667 93.8724 85.3701 93.8706 86.5213V94.895ZM137.183 184.944C136.033 184.942 134.931 184.484 134.118 183.671C133.304 182.858 132.847 181.756 132.845 180.606V132.845C132.843 132.274 132.954 131.709 133.171 131.182C133.389 130.654 133.708 130.175 134.111 129.771C134.514 129.367 134.993 129.047 135.52 128.829C136.048 128.611 136.613 128.499 137.183 128.5H152.329C155.354 128.5 158.138 128.734 160.689 129.188C163.301 129.6 165.556 130.349 167.454 131.443C169.351 132.543 170.836 133.986 171.902 135.774C173.029 137.561 173.593 139.809 173.593 142.525C173.593 143.797 173.387 145.069 172.974 146.334C172.608 147.619 172.002 148.822 171.187 149.881C169.372 152.314 166.749 154.02 163.789 154.694C163.744 154.706 163.704 154.733 163.675 154.77C163.647 154.807 163.631 154.853 163.631 154.9C163.631 155.003 163.7 155.092 163.803 155.106C167.866 155.869 170.953 157.306 173.057 159.41C175.195 161.541 176.261 164.518 176.261 168.327C176.261 171.214 175.697 173.689 174.569 175.772C173.438 177.855 171.823 179.635 169.86 180.963C167.671 182.363 165.264 183.387 162.737 183.995C159.879 184.652 156.953 184.973 154.02 184.951L137.183 184.944ZM145.921 146.843C145.921 149.242 147.867 151.181 150.266 151.181H151.71C154.907 151.181 157.224 150.576 158.647 149.366C160.07 148.156 160.778 146.451 160.778 144.257C160.778 142.181 160.042 140.71 158.557 139.844C157.134 138.916 154.879 138.455 151.792 138.455H150.266C149.114 138.455 148.009 138.913 147.194 139.728C146.379 140.542 145.921 141.648 145.921 142.8V146.843ZM145.921 170.651C145.921 173.05 147.867 174.989 150.266 174.989H152.947C159.953 174.989 163.452 172.452 163.452 167.371C163.452 164.896 162.593 163.102 160.868 162.009C159.211 160.909 156.571 160.359 152.947 160.359H150.266C149.114 160.359 148.009 160.817 147.194 161.631C146.379 162.446 145.921 163.551 145.921 164.704V170.651ZM55.5494 46C50.3244 46 46 50.3244 46 55.5494V149.331C46.018 151.859 47.0296 154.278 48.8164 156.066C50.6032 157.854 53.0217 158.868 55.5494 158.888H102.444C103.594 158.884 104.695 158.424 105.507 157.61C106.319 156.796 106.775 155.692 106.775 154.543C106.771 153.395 106.314 152.295 105.502 151.484C104.691 150.672 103.591 150.215 102.444 150.211H55.5494C55.0131 150.211 54.69 149.867 54.69 149.331V55.5562C54.69 55.02 55.0131 54.6969 55.5494 54.6969H149.331C149.867 54.6969 150.204 55.02 150.204 55.5562V102.444C150.208 103.593 150.666 104.693 151.479 105.505C152.292 106.316 153.394 106.773 154.543 106.775C155.694 106.777 156.799 106.322 157.614 105.51C158.43 104.698 158.891 103.595 158.894 102.444V55.5494C158.875 53.0228 157.862 50.6054 156.076 48.8188C154.289 47.0322 151.872 46.0198 149.345 46H55.5494ZM154.556 98.0988C153.985 98.0987 153.42 98.2114 152.892 98.4301C152.364 98.6489 151.885 98.9696 151.481 99.3738C151.078 99.778 150.758 100.258 150.54 100.786C150.322 101.314 150.21 101.879 150.211 102.451C150.215 103.599 150.673 104.7 151.486 105.512C152.299 106.323 153.401 106.78 154.549 106.782H201.451C201.987 106.782 202.31 107.126 202.31 107.662V201.444C202.31 201.98 201.987 202.303 201.451 202.303H107.669C107.139 202.303 106.796 201.98 106.796 201.444V154.556C106.792 153.407 106.334 152.307 105.521 151.495C104.708 150.684 103.606 150.227 102.457 150.225C101.306 150.223 100.201 150.678 99.3855 151.49C98.5696 152.302 98.1093 153.405 98.1056 154.556V201.457C98.1272 203.983 99.1404 206.399 100.927 208.184C102.713 209.969 105.13 210.98 107.655 211H201.451C206.676 211 211 206.676 211 201.451V107.669C210.982 105.141 209.97 102.722 208.184 100.934C206.397 99.1457 203.978 98.1323 201.451 98.1125L154.556 98.0988Z" fill="#F4F2ED"/>
</svg>