<svg width="256" height="256" title="Polars" viewBox="0 0 256 256" fill="none" xmlns="http://www.w3.org/2000/svg" id="polars">
<style>
#polars {
    rect {fill: #15191C}

    @media (prefers-color-scheme: light) {
        rect {fill: #F4F2ED}
    }
}
</style>
<rect width="256" height="256" rx="40" fill="#15191C"/>
<path d="M41.9843 150.359H46.0258C46.1555 150.359 46.284 150.384 46.4038 150.434C46.5235 150.483 46.6323 150.556 46.7238 150.647C46.8153 150.739 46.8876 150.847 46.9368 150.967C46.9859 151.086 47.0109 151.214 47.0102 151.343V166.301C47.0109 166.43 46.9859 166.558 46.9368 166.678C46.8876 166.797 46.8153 166.906 46.7238 166.997C46.6323 167.089 46.5235 167.161 46.4038 167.211C46.284 167.26 46.1555 167.286 46.0258 167.286H41.9843C41.8546 167.286 41.7262 167.26 41.6064 167.211C41.4866 167.161 41.3778 167.089 41.2864 166.997C41.1949 166.906 41.1225 166.797 41.0734 166.678C41.0242 166.558 40.9993 166.43 41 166.301V151.343C41 150.799 41.4402 150.359 41.9843 150.359ZM51.3277 130.699H54.4914C54.6786 130.699 54.8639 130.736 55.0368 130.808C55.2097 130.879 55.3667 130.984 55.4988 131.115C55.6309 131.247 55.7355 131.404 55.8066 131.576C55.8777 131.748 55.914 131.933 55.9133 132.119V150.359C55.914 150.545 55.8777 150.729 55.8066 150.901C55.7355 151.074 55.6309 151.23 55.4988 151.362C55.3667 151.494 55.2097 151.598 55.0368 151.67C54.8639 151.741 54.6786 151.778 54.4914 151.778H51.3277C51.1405 151.778 50.9552 151.741 50.7823 151.67C50.6095 151.598 50.4525 151.494 50.3204 151.362C50.1883 151.23 50.0837 151.074 50.0125 150.901C49.9414 150.729 49.9051 150.545 49.9058 150.359V132.119C49.9051 131.933 49.9414 131.748 50.0125 131.576C50.0837 131.404 50.1883 131.247 50.3204 131.115C50.4525 130.984 50.6095 130.879 50.7823 130.808C50.9552 130.736 51.1405 130.699 51.3277 130.699ZM50.8875 154.192H54.9289C55.0586 154.192 55.1871 154.218 55.3069 154.267C55.4267 154.317 55.5354 154.389 55.6269 154.481C55.7184 154.572 55.7908 154.681 55.8399 154.8C55.8891 154.92 55.914 155.047 55.9133 155.176V171.016C55.914 171.145 55.8891 171.273 55.8399 171.392C55.7908 171.511 55.7184 171.62 55.6269 171.711C55.5354 171.803 55.4267 171.875 55.3069 171.925C55.1871 171.975 55.0586 172 54.9289 172H50.8875C50.7578 172 50.6293 171.975 50.5095 171.925C50.3897 171.875 50.281 171.803 50.1895 171.711C50.098 171.62 50.0256 171.511 49.9765 171.392C49.9273 171.273 49.9024 171.145 49.9031 171.016V155.176C49.9031 154.633 50.3434 154.192 50.8875 154.192ZM59.7961 110.858H63.8375C63.9672 110.858 64.0957 110.884 64.2155 110.933C64.3352 110.983 64.444 111.055 64.5355 111.147C64.6269 111.238 64.6994 111.347 64.7485 111.466C64.7977 111.585 64.8226 111.713 64.8219 111.842V141.504C64.8226 141.633 64.7977 141.761 64.7485 141.88C64.6994 141.999 64.6269 142.108 64.5355 142.199C64.444 142.291 64.3352 142.363 64.2155 142.413C64.0957 142.462 63.9672 142.488 63.8375 142.488H59.7961C59.6664 142.488 59.5379 142.462 59.4181 142.413C59.2983 142.363 59.1896 142.291 59.0981 142.199C59.0066 142.108 58.9342 141.999 58.8851 141.88C58.8359 141.761 58.811 141.633 58.8117 141.504V111.842C58.8117 111.298 59.2519 110.858 59.7961 110.858ZM59.7961 145.272H63.8375C63.9672 145.272 64.0957 145.297 64.2155 145.347C64.3352 145.397 64.444 145.469 64.5355 145.561C64.6269 145.652 64.6994 145.761 64.7485 145.88C64.7977 145.999 64.8226 146.127 64.8219 146.256V155.454C64.8226 155.583 64.7977 155.711 64.7485 155.83C64.6994 155.949 64.6269 156.058 64.5355 156.149C64.444 156.241 64.3352 156.313 64.2155 156.363C64.0957 156.412 63.9672 156.438 63.8375 156.438H59.7961C59.6664 156.438 59.5379 156.412 59.4181 156.363C59.2983 156.313 59.1896 156.241 59.0981 156.149C59.0066 156.058 58.9342 155.949 58.8851 155.83C58.8359 155.711 58.811 155.583 58.8117 155.454V146.256C58.8117 145.712 59.2519 145.272 59.7961 145.272ZM60.2336 163.933H63.3973C64.1848 163.933 64.8191 164.572 64.8191 165.353V170.573C64.8199 170.759 64.7836 170.943 64.7125 171.115C64.6413 171.287 64.5367 171.444 64.4046 171.576C64.2725 171.708 64.1155 171.812 63.9427 171.884C63.7698 171.955 63.5844 171.992 63.3973 171.992H60.2336C60.0464 171.992 59.8611 171.955 59.6882 171.884C59.5153 171.812 59.3583 171.708 59.2262 171.576C59.0941 171.444 58.9895 171.287 58.9184 171.115C58.8472 170.943 58.811 170.759 58.8117 170.573V165.353C58.811 165.167 58.8472 164.982 58.9184 164.81C58.9895 164.638 59.0941 164.481 59.2262 164.349C59.3583 164.218 59.5153 164.113 59.6882 164.042C59.8611 163.97 60.0464 163.933 60.2336 163.933ZM68.702 96.7885H72.7433C72.8731 96.7885 73.0015 96.814 73.1213 96.8635C73.2411 96.913 73.3499 96.9856 73.4413 97.0771C73.5328 97.1685 73.6052 97.2771 73.6544 97.3965C73.7035 97.5158 73.7284 97.6437 73.7277 97.7727V118.751C73.7284 118.88 73.7035 119.007 73.6544 119.127C73.6052 119.246 73.5328 119.355 73.4413 119.446C73.3499 119.538 73.2411 119.61 73.1213 119.66C73.0015 119.709 72.8731 119.735 72.7433 119.735H68.702C68.5722 119.735 68.4438 119.709 68.324 119.66C68.2042 119.61 68.0954 119.538 68.0039 119.446C67.9124 119.355 67.8401 119.246 67.7909 119.127C67.7418 119.007 67.7169 118.88 67.7176 118.751V97.7645C67.7176 97.2208 68.1578 96.7803 68.702 96.7803V96.7885ZM68.702 122.29H72.7461C72.8753 122.291 73.0033 122.316 73.1226 122.366C73.2419 122.415 73.3502 122.488 73.4413 122.579C73.5325 122.67 73.6047 122.778 73.6538 122.897C73.703 123.016 73.7281 123.143 73.7277 123.272V151.71C73.7281 151.838 73.703 151.966 73.6538 152.085C73.6047 152.204 73.5325 152.312 73.4413 152.403C73.3502 152.494 73.2419 152.566 73.1226 152.616C73.0033 152.665 72.8753 152.691 72.7461 152.691H68.702C68.5727 152.691 68.4447 152.665 68.3254 152.616C68.2061 152.566 68.0978 152.494 68.0067 152.403C67.9155 152.312 67.8433 152.204 67.7942 152.085C67.745 151.966 67.7199 151.838 67.7203 151.71V123.272C67.7203 122.728 68.1605 122.29 68.702 122.29ZM77.6078 92.4602H81.6492C81.7789 92.4602 81.9074 92.4857 82.0272 92.5353C82.147 92.5848 82.2557 92.6574 82.3472 92.7488C82.4387 92.8403 82.5111 92.9488 82.5602 93.0682C82.6093 93.1876 82.6343 93.3154 82.6336 93.4444V107.435C82.6343 107.564 82.6093 107.692 82.5602 107.811C82.5111 107.931 82.4387 108.039 82.3472 108.131C82.2557 108.222 82.147 108.295 82.0272 108.344C81.9074 108.394 81.7789 108.419 81.6492 108.419H77.6078C77.478 108.419 77.3496 108.394 77.2298 108.344C77.11 108.295 77.0013 108.222 76.9098 108.131C76.8183 108.039 76.7459 107.931 76.6968 107.811C76.6476 107.692 76.6227 107.564 76.6234 107.435V93.4417C76.6234 92.898 77.0636 92.4602 77.6078 92.4602ZM77.6078 110.877H81.6492C81.7789 110.877 81.9074 110.903 82.0272 110.952C82.147 111.002 82.2557 111.074 82.3472 111.166C82.4387 111.257 82.5111 111.366 82.5602 111.485C82.6093 111.604 82.6343 111.732 82.6336 111.861V131.988C82.6343 132.117 82.6093 132.245 82.5602 132.364C82.5111 132.484 82.4387 132.592 82.3472 132.684C82.2557 132.775 82.147 132.848 82.0272 132.897C81.9074 132.947 81.7789 132.972 81.6492 132.972H77.6078C77.478 132.972 77.3496 132.947 77.2298 132.897C77.11 132.848 77.0013 132.775 76.9098 132.684C76.8183 132.592 76.7459 132.484 76.6968 132.364C76.6476 132.245 76.6227 132.117 76.6234 131.988V111.861C76.6234 111.317 77.0636 110.877 77.6078 110.877ZM77.6078 135.871H81.6492C81.7789 135.871 81.9074 135.896 82.0272 135.946C82.147 135.995 82.2557 136.068 82.3472 136.159C82.4387 136.251 82.5111 136.359 82.5602 136.478C82.6093 136.598 82.6343 136.726 82.6336 136.855V154.94C82.6343 155.069 82.6093 155.197 82.5602 155.316C82.5111 155.435 82.4387 155.544 82.3472 155.635C82.2557 155.727 82.147 155.799 82.0272 155.849C81.9074 155.899 81.7789 155.924 81.6492 155.924H77.6078C77.478 155.924 77.3496 155.899 77.2298 155.849C77.11 155.799 77.0013 155.727 76.9098 155.635C76.8183 155.544 76.7459 155.435 76.6968 155.316C76.6476 155.197 76.6227 155.069 76.6234 154.94V136.855C76.6234 136.311 77.0636 135.871 77.6078 135.871ZM86.9457 88.9503H90.1094C90.2965 88.9503 90.4819 88.9871 90.6548 89.0585C90.8276 89.1298 90.9846 89.2345 91.1167 89.3663C91.2488 89.4982 91.3534 89.6547 91.4246 89.8268C91.4957 89.999 91.532 90.1834 91.5312 90.3695V116.635C91.532 116.821 91.4957 117.006 91.4246 117.178C91.3534 117.35 91.2488 117.507 91.1167 117.639C90.9846 117.77 90.8276 117.875 90.6548 117.946C90.4819 118.018 90.2965 118.055 90.1094 118.055H86.9457C86.7585 118.055 86.5732 118.018 86.4003 117.946C86.2274 117.875 86.0704 117.77 85.9383 117.639C85.8062 117.507 85.7016 117.35 85.6305 117.178C85.5594 117.006 85.5231 116.821 85.5238 116.635V90.3695C85.5231 90.1834 85.5594 89.999 85.6305 89.8268C85.7016 89.6547 85.8062 89.4982 85.9383 89.3663C86.0704 89.2345 86.2274 89.1298 86.4003 89.0585C86.5732 88.9871 86.7585 88.9503 86.9457 88.9503ZM86.9457 120.958H90.1094C90.2965 120.958 90.4819 120.995 90.6548 121.066C90.8276 121.138 90.9846 121.242 91.1167 121.374C91.2488 121.506 91.3534 121.663 91.4246 121.835C91.4957 122.007 91.532 122.191 91.5312 122.377V128.473C91.532 128.659 91.4957 128.843 91.4246 129.015C91.3534 129.188 91.2488 129.344 91.1167 129.476C90.9846 129.608 90.8276 129.712 90.6548 129.784C90.4819 129.855 90.2965 129.892 90.1094 129.892H86.9457C86.7585 129.892 86.5732 129.855 86.4003 129.784C86.2274 129.712 86.0704 129.608 85.9383 129.476C85.8062 129.344 85.7016 129.188 85.6305 129.015C85.5594 128.843 85.5231 128.659 85.5238 128.473V122.377C85.5231 122.191 85.5594 122.007 85.6305 121.835C85.7016 121.663 85.8062 121.506 85.9383 121.374C86.0704 121.242 86.2274 121.138 86.4003 121.066C86.5732 120.995 86.7585 120.958 86.9457 120.958ZM86.9457 131.926H90.1066C90.2938 131.926 90.4791 131.962 90.652 132.034C90.8249 132.105 90.9819 132.21 91.114 132.342C91.2461 132.473 91.3507 132.63 91.4218 132.802C91.493 132.974 91.5292 133.159 91.5285 133.345V160.489C91.5292 160.675 91.493 160.859 91.4218 161.031C91.3507 161.204 91.2461 161.36 91.114 161.492C90.9819 161.624 90.8249 161.728 90.652 161.8C90.4791 161.871 90.2938 161.908 90.1066 161.908H86.9457C86.7585 161.908 86.5732 161.871 86.4003 161.8C86.2274 161.728 86.0704 161.624 85.9383 161.492C85.8062 161.36 85.7016 161.204 85.6305 161.031C85.5594 160.859 85.5231 160.675 85.5238 160.489V133.345C85.5231 133.159 85.5594 132.974 85.6305 132.802C85.7016 132.63 85.8062 132.473 85.9383 132.342C86.0704 132.21 86.2274 132.105 86.4003 132.034C86.5732 131.962 86.7585 131.926 86.9457 131.926ZM95.8543 85.4431H99.0179C99.8054 85.4431 100.44 86.0821 100.44 86.8623V92.0823C100.441 92.2684 100.404 92.4529 100.333 92.625C100.262 92.7972 100.157 92.9537 100.025 93.0855C99.8932 93.2174 99.7362 93.322 99.5633 93.3934C99.3905 93.4648 99.2051 93.5015 99.0179 93.5015H95.8543C95.6671 93.5015 95.4817 93.4648 95.3089 93.3934C95.136 93.322 94.979 93.2174 94.8469 93.0855C94.7148 92.9537 94.6102 92.7972 94.5391 92.625C94.4679 92.4529 94.4317 92.2684 94.4324 92.0823V86.8678C94.4317 86.6817 94.4679 86.4972 94.5391 86.3251C94.6102 86.1529 94.7148 85.9964 94.8469 85.8646C94.979 85.7327 95.136 85.6281 95.3089 85.5567C95.4817 85.4853 95.6671 85.4486 95.8543 85.4486V85.4431ZM95.8543 95.962H99.0179C99.2051 95.962 99.3905 95.9987 99.5633 96.0701C99.7362 96.1415 99.8932 96.2461 100.025 96.378C100.157 96.5098 100.262 96.6663 100.333 96.8385C100.404 97.0106 100.441 97.1951 100.44 97.3812V137.678C100.441 137.865 100.404 138.049 100.333 138.221C100.262 138.393 100.157 138.55 100.025 138.682C99.8932 138.814 99.7362 138.918 99.5633 138.99C99.3905 139.061 99.2051 139.098 99.0179 139.098H95.8543C95.6671 139.098 95.4817 139.061 95.3089 138.99C95.136 138.918 94.979 138.814 94.8469 138.682C94.7148 138.55 94.6102 138.393 94.5391 138.221C94.4679 138.049 94.4317 137.865 94.4324 137.678V97.3839C94.4317 97.1978 94.4679 97.0134 94.5391 96.8412C94.6102 96.6691 94.7148 96.5126 94.8469 96.3807C94.979 96.2489 95.136 96.1442 95.3089 96.0728C95.4817 96.0015 95.6671 95.962 95.8543 95.962ZM95.8543 142.004H99.0179C99.8054 142.004 100.44 142.643 100.44 143.423V154.342C100.441 154.528 100.404 154.712 100.333 154.884C100.262 155.057 100.157 155.213 100.025 155.345C99.8932 155.477 99.7362 155.581 99.5633 155.653C99.3905 155.724 99.2051 155.761 99.0179 155.761H95.8543C95.6671 155.761 95.4817 155.724 95.3089 155.653C95.136 155.581 94.979 155.477 94.8469 155.345C94.7148 155.213 94.6102 155.057 94.5391 154.884C94.4679 154.712 94.4317 154.528 94.4324 154.342V143.423C94.4317 143.237 94.4679 143.053 94.5391 142.881C94.6102 142.708 94.7148 142.552 94.8469 142.42C94.979 142.288 95.136 142.184 95.3089 142.112C95.4817 142.041 95.6671 142.004 95.8543 142.004ZM95.8543 158.667H99.0179C99.2051 158.667 99.3905 158.704 99.5633 158.775C99.7362 158.847 99.8932 158.951 100.025 159.083C100.157 159.215 100.262 159.372 100.333 159.544C100.404 159.716 100.441 159.9 100.44 160.086V167.06C100.441 167.246 100.404 167.431 100.333 167.603C100.262 167.775 100.157 167.931 100.025 168.063C99.8932 168.195 99.7362 168.3 99.5633 168.371C99.3905 168.442 99.2051 168.479 99.0179 168.479H95.8543C95.6671 168.479 95.4817 168.442 95.3089 168.371C95.136 168.3 94.979 168.195 94.8469 168.063C94.7148 167.931 94.6102 167.775 94.5391 167.603C94.4679 167.431 94.4317 167.246 94.4324 167.06V160.086C94.4317 159.9 94.4679 159.716 94.5391 159.544C94.6102 159.372 94.7148 159.215 94.8469 159.083C94.979 158.951 95.136 158.847 95.3089 158.775C95.4817 158.704 95.6671 158.667 95.8543 158.667ZM104.76 156.473H107.924C108.711 156.473 109.346 157.112 109.346 157.892V170.57C109.346 170.756 109.31 170.94 109.239 171.113C109.168 171.285 109.063 171.441 108.931 171.573C108.799 171.705 108.642 171.81 108.469 171.881C108.296 171.952 108.111 171.989 107.924 171.989H104.76C104.573 171.989 104.388 171.952 104.215 171.881C104.042 171.81 103.885 171.705 103.753 171.573C103.621 171.441 103.516 171.285 103.445 171.113C103.374 170.94 103.338 170.756 103.338 170.57V157.892C103.338 157.706 103.374 157.522 103.445 157.35C103.516 157.178 103.621 157.021 103.753 156.889C103.885 156.757 104.042 156.653 104.215 156.581C104.388 156.51 104.573 156.473 104.76 156.473ZM104.76 112.628H107.924C108.711 112.628 109.346 113.267 109.346 114.047V145.133C109.346 145.319 109.31 145.504 109.239 145.676C109.168 145.848 109.063 146.005 108.931 146.136C108.799 146.268 108.642 146.373 108.469 146.444C108.296 146.516 108.111 146.552 107.924 146.552H104.76C104.573 146.552 104.388 146.516 104.215 146.444C104.042 146.373 103.885 146.268 103.753 146.136C103.621 146.005 103.516 145.848 103.445 145.676C103.374 145.504 103.338 145.319 103.338 145.133V114.047C103.338 113.861 103.374 113.677 103.445 113.504C103.516 113.332 103.621 113.176 103.753 113.044C103.885 112.912 104.042 112.807 104.215 112.736C104.388 112.665 104.573 112.628 104.76 112.628ZM104.76 85H107.924C108.111 85 108.296 85.0367 108.469 85.1081C108.642 85.1795 108.799 85.2841 108.931 85.416C109.063 85.5478 109.168 85.7043 109.239 85.8765C109.31 86.0486 109.346 86.2331 109.346 86.4192V108.3C109.346 108.486 109.31 108.67 109.239 108.842C109.168 109.015 109.063 109.171 108.931 109.303C108.799 109.435 108.642 109.539 108.469 109.611C108.296 109.682 108.111 109.719 107.924 109.719H104.76C104.573 109.719 104.388 109.682 104.215 109.611C104.042 109.539 103.885 109.435 103.753 109.303C103.621 109.171 103.516 109.015 103.445 108.842C103.374 108.67 103.338 108.486 103.338 108.3V86.4219C103.338 86.2358 103.374 86.0514 103.445 85.8792C103.516 85.7071 103.621 85.5506 103.753 85.4187C103.885 85.2869 104.042 85.1822 104.215 85.1108C104.388 85.0395 104.573 85 104.76 85ZM113.666 163.05H116.83C117.017 163.05 117.202 163.087 117.375 163.158C117.548 163.229 117.705 163.334 117.837 163.466C117.969 163.598 118.074 163.754 118.145 163.926C118.216 164.099 118.252 164.283 118.252 164.469V170.565C118.252 170.751 118.216 170.935 118.145 171.107C118.074 171.279 117.969 171.436 117.837 171.568C117.705 171.7 117.548 171.804 117.375 171.876C117.202 171.947 117.017 171.984 116.83 171.984H113.666C113.479 171.984 113.293 171.947 113.121 171.876C112.948 171.804 112.791 171.7 112.659 171.568C112.527 171.436 112.422 171.279 112.351 171.107C112.28 170.935 112.243 170.751 112.244 170.565V164.469C112.243 164.283 112.28 164.099 112.351 163.926C112.422 163.754 112.527 163.598 112.659 163.466C112.791 163.334 112.948 163.229 113.121 163.158C113.293 163.087 113.479 163.05 113.666 163.05ZM113.666 85.4377H116.83C117.617 85.4377 118.252 86.0766 118.252 86.8569V124.085C118.252 124.271 118.216 124.455 118.145 124.627C118.074 124.8 117.969 124.956 117.837 125.088C117.705 125.22 117.548 125.324 117.375 125.396C117.202 125.467 117.017 125.504 116.83 125.504H113.666C113.479 125.504 113.293 125.467 113.121 125.396C112.948 125.324 112.791 125.22 112.659 125.088C112.527 124.956 112.422 124.8 112.351 124.627C112.28 124.455 112.243 124.271 112.244 124.085V86.8596C112.243 86.6735 112.28 86.4891 112.351 86.3169C112.422 86.1448 112.527 85.9883 112.659 85.8564C112.791 85.7246 112.948 85.6199 113.121 85.5486C113.293 85.4772 113.479 85.4377 113.666 85.4377ZM113.666 128.41H116.83C117.617 128.41 118.252 129.049 118.252 129.829V145.133C118.252 145.319 118.216 145.504 118.145 145.676C118.074 145.848 117.969 146.005 117.837 146.136C117.705 146.268 117.548 146.373 117.375 146.444C117.202 146.516 117.017 146.552 116.83 146.552H113.666C113.479 146.552 113.293 146.516 113.121 146.444C112.948 146.373 112.791 146.268 112.659 146.136C112.527 146.005 112.422 145.848 112.351 145.676C112.28 145.504 112.243 145.319 112.244 145.133V129.829C112.243 129.643 112.28 129.459 112.351 129.287C112.422 129.115 112.527 128.958 112.659 128.826C112.791 128.694 112.948 128.59 113.121 128.518C113.293 128.447 113.479 128.41 113.666 128.41ZM122.566 87.194H125.73C126.518 87.194 127.152 87.8329 127.152 88.6132V99.0913C127.153 99.2774 127.116 99.4618 127.045 99.634C126.974 99.8061 126.869 99.9626 126.737 100.094C126.605 100.226 126.448 100.331 126.275 100.402C126.103 100.474 125.917 100.51 125.73 100.51H122.566C122.379 100.51 122.194 100.474 122.021 100.402C121.848 100.331 121.691 100.226 121.559 100.094C121.427 99.9626 121.322 99.8061 121.251 99.634C121.18 99.4618 121.144 99.2774 121.145 99.0913V88.6159C121.144 88.4298 121.18 88.2454 121.251 88.0732C121.322 87.9011 121.427 87.7446 121.559 87.6127C121.691 87.4809 121.848 87.3763 122.021 87.3049C122.194 87.2335 122.379 87.194 122.566 87.194ZM122.566 103.417H125.73C125.917 103.417 126.103 103.454 126.275 103.525C126.448 103.596 126.605 103.701 126.737 103.833C126.869 103.965 126.974 104.121 127.045 104.293C127.116 104.465 127.153 104.65 127.152 104.836V145.133C127.153 145.319 127.116 145.504 127.045 145.676C126.974 145.848 126.869 146.005 126.737 146.136C126.605 146.268 126.448 146.373 126.275 146.444C126.103 146.516 125.917 146.552 125.73 146.552H122.566C122.379 146.552 122.194 146.516 122.021 146.444C121.848 146.373 121.691 146.268 121.559 146.136C121.427 146.005 121.322 145.848 121.251 145.676C121.18 145.504 121.144 145.319 121.145 145.133V104.839C121.144 104.653 121.18 104.468 121.251 104.296C121.322 104.124 121.427 103.967 121.559 103.836C121.691 103.704 121.848 103.599 122.021 103.528C122.194 103.456 122.379 103.417 122.566 103.417ZM131.47 88.0722H134.633C134.82 88.0722 135.006 88.1089 135.179 88.1803C135.351 88.2517 135.508 88.3563 135.641 88.4882C135.773 88.62 135.877 88.7765 135.948 88.9487C136.02 89.1208 136.056 89.3053 136.055 89.4914V112.688C136.056 112.874 136.02 113.058 135.948 113.23C135.877 113.403 135.773 113.559 135.641 113.691C135.508 113.823 135.351 113.927 135.179 113.999C135.006 114.07 134.82 114.107 134.633 114.107H131.47C131.282 114.107 131.097 114.07 130.924 113.999C130.751 113.927 130.594 113.823 130.462 113.691C130.33 113.559 130.225 113.403 130.154 113.23C130.083 113.058 130.047 112.874 130.048 112.688V89.4941C130.047 89.308 130.083 89.1235 130.154 88.9514C130.225 88.7792 130.33 88.6228 130.462 88.4909C130.594 88.3591 130.751 88.2544 130.924 88.183C131.097 88.1116 131.282 88.0722 131.47 88.0722ZM131.47 117.013H134.633C134.82 117.013 135.006 117.05 135.179 117.121C135.351 117.193 135.508 117.297 135.641 117.429C135.773 117.561 135.877 117.718 135.948 117.89C136.02 118.062 136.056 118.246 136.055 118.432V137.687C136.056 137.873 136.02 138.057 135.948 138.229C135.877 138.401 135.773 138.558 135.641 138.69C135.508 138.822 135.351 138.926 135.179 138.998C135.006 139.069 134.82 139.106 134.633 139.106H131.47C131.282 139.106 131.097 139.069 130.924 138.998C130.751 138.926 130.594 138.822 130.462 138.69C130.33 138.558 130.225 138.401 130.154 138.229C130.083 138.057 130.047 137.873 130.048 137.687V118.432C130.047 118.246 130.083 118.062 130.154 117.89C130.225 117.718 130.33 117.561 130.462 117.429C130.594 117.297 130.751 117.193 130.924 117.121C131.097 117.05 131.282 117.013 131.47 117.013ZM131.47 142.004H134.633C135.421 142.004 136.055 142.643 136.055 143.423V152.15C136.056 152.337 136.02 152.521 135.948 152.693C135.877 152.865 135.773 153.022 135.641 153.154C135.508 153.285 135.351 153.39 135.179 153.461C135.006 153.533 134.82 153.57 134.633 153.57H131.47C131.282 153.57 131.097 153.533 130.924 153.461C130.751 153.39 130.594 153.285 130.462 153.154C130.33 153.022 130.225 152.865 130.154 152.693C130.083 152.521 130.047 152.337 130.048 152.15V143.423C130.047 143.237 130.083 143.053 130.154 142.881C130.225 142.708 130.33 142.552 130.462 142.42C130.594 142.288 130.751 142.184 130.924 142.112C131.097 142.041 131.282 142.004 131.47 142.004ZM140.318 89.3881H143.482C143.669 89.3881 143.854 89.4248 144.027 89.4962C144.2 89.5676 144.357 89.6722 144.489 89.804C144.621 89.9359 144.726 90.0924 144.797 90.2645C144.868 90.4367 144.904 90.6211 144.903 90.8072V126.719C144.904 126.905 144.868 127.09 144.797 127.262C144.726 127.434 144.621 127.591 144.489 127.722C144.357 127.854 144.2 127.959 144.027 128.03C143.854 128.102 143.669 128.138 143.482 128.138H140.318C140.131 128.138 139.945 128.102 139.773 128.03C139.6 127.959 139.443 127.854 139.311 127.722C139.178 127.591 139.074 127.434 139.003 127.262C138.932 127.09 138.895 126.905 138.896 126.719V90.81C138.895 90.6239 138.932 90.4394 139.003 90.2673C139.074 90.0951 139.178 89.9386 139.311 89.8068C139.443 89.6749 139.6 89.5703 139.773 89.4989C139.945 89.4275 140.131 89.3881 140.318 89.3881ZM140.318 131.045H143.482C143.669 131.045 143.854 131.081 144.027 131.153C144.2 131.224 144.357 131.329 144.489 131.461C144.621 131.593 144.726 131.749 144.797 131.921C144.868 132.093 144.904 132.278 144.903 132.464V160.921C144.904 161.107 144.868 161.292 144.797 161.464C144.726 161.636 144.621 161.792 144.489 161.924C144.357 162.056 144.2 162.161 144.027 162.232C143.854 162.304 143.669 162.34 143.482 162.34H140.318C140.131 162.34 139.945 162.304 139.773 162.232C139.6 162.161 139.443 162.056 139.311 161.924C139.178 161.792 139.074 161.636 139.003 161.464C138.932 161.292 138.895 161.107 138.896 160.921V132.464C138.895 132.278 138.932 132.093 139.003 131.921C139.074 131.749 139.178 131.593 139.311 131.461C139.443 131.329 139.6 131.224 139.773 131.153C139.945 131.081 140.131 131.045 140.318 131.045ZM149.164 88.0722H152.327C152.514 88.0722 152.7 88.1089 152.873 88.1803C153.046 88.2517 153.203 88.3563 153.335 88.4882C153.467 88.62 153.571 88.7765 153.643 88.9487C153.714 89.1208 153.75 89.3053 153.749 89.4914V104.795C153.75 104.981 153.714 105.166 153.643 105.338C153.571 105.51 153.467 105.667 153.335 105.798C153.203 105.93 153.046 106.035 152.873 106.106C152.7 106.178 152.514 106.214 152.327 106.214H149.164C148.976 106.214 148.791 106.178 148.618 106.106C148.445 106.035 148.288 105.93 148.156 105.798C148.024 105.667 147.92 105.51 147.848 105.338C147.777 105.166 147.741 104.981 147.742 104.795V89.4941C147.741 89.308 147.777 89.1235 147.848 88.9514C147.92 88.7792 148.024 88.6228 148.156 88.4909C148.288 88.3591 148.445 88.2544 148.618 88.183C148.791 88.1116 148.976 88.0722 149.164 88.0722ZM149.164 109.118H152.327C153.115 109.118 153.749 109.757 153.749 110.537V155.223C153.75 155.409 153.714 155.593 153.643 155.765C153.571 155.937 153.467 156.094 153.335 156.226C153.203 156.358 153.046 156.462 152.873 156.534C152.7 156.605 152.514 156.642 152.327 156.642H149.164C148.976 156.642 148.791 156.605 148.618 156.534C148.445 156.462 148.288 156.358 148.156 156.226C148.024 156.094 147.92 155.937 147.848 155.765C147.777 155.593 147.741 155.409 147.742 155.223V110.54C147.741 110.354 147.777 110.169 147.848 109.997C147.92 109.825 148.024 109.669 148.156 109.537C148.288 109.405 148.445 109.3 148.618 109.229C148.791 109.157 148.976 109.118 149.164 109.118ZM149.164 159.545H152.327C153.115 159.545 153.749 160.184 153.749 160.965V169.251C153.75 169.437 153.714 169.622 153.643 169.794C153.571 169.966 153.467 170.123 153.335 170.255C153.203 170.386 153.046 170.491 152.873 170.562C152.7 170.634 152.514 170.671 152.327 170.671H149.164C148.976 170.671 148.791 170.634 148.618 170.562C148.445 170.491 148.288 170.386 148.156 170.255C148.024 170.123 147.92 169.966 147.848 169.794C147.777 169.622 147.741 169.437 147.742 169.251V160.965C147.741 160.778 147.777 160.594 147.848 160.422C147.92 160.25 148.024 160.093 148.156 159.961C148.288 159.83 148.445 159.725 148.618 159.654C148.791 159.582 148.976 159.545 149.164 159.545ZM158.067 156.916H161.23C161.418 156.916 161.603 156.953 161.776 157.024C161.949 157.096 162.106 157.201 162.238 157.332C162.37 157.464 162.475 157.621 162.546 157.793C162.617 157.965 162.653 158.149 162.652 158.336V170.57C162.653 170.756 162.617 170.94 162.546 171.113C162.475 171.285 162.37 171.441 162.238 171.573C162.106 171.705 161.949 171.81 161.776 171.881C161.603 171.952 161.418 171.989 161.23 171.989H158.067C157.88 171.989 157.694 171.952 157.521 171.881C157.349 171.81 157.192 171.705 157.059 171.573C156.927 171.441 156.823 171.285 156.752 171.113C156.68 170.94 156.644 170.756 156.645 170.57V158.336C156.644 158.149 156.68 157.965 156.752 157.793C156.823 157.621 156.927 157.464 157.059 157.332C157.192 157.201 157.349 157.096 157.521 157.024C157.694 156.953 157.88 156.916 158.067 156.916ZM158.067 119.645H161.23C162.018 119.645 162.652 120.284 162.652 121.064V129.356C162.653 129.543 162.617 129.727 162.546 129.899C162.475 130.071 162.37 130.228 162.238 130.36C162.106 130.491 161.949 130.596 161.776 130.667C161.603 130.739 161.418 130.776 161.23 130.776H158.067C157.88 130.776 157.694 130.739 157.521 130.667C157.349 130.596 157.192 130.491 157.059 130.36C156.927 130.228 156.823 130.071 156.752 129.899C156.68 129.727 156.644 129.543 156.645 129.356V121.064C156.644 120.878 156.68 120.694 156.752 120.522C156.823 120.349 156.927 120.193 157.059 120.061C157.192 119.929 157.349 119.825 157.521 119.753C157.694 119.682 157.88 119.645 158.067 119.645ZM158.067 87.6372H161.23C161.418 87.6372 161.603 87.6739 161.776 87.7453C161.949 87.8167 162.106 87.9213 162.238 88.0532C162.37 88.185 162.475 88.3415 162.546 88.5137C162.617 88.6858 162.653 88.8703 162.652 89.0564V115.322C162.653 115.508 162.617 115.693 162.546 115.865C162.475 116.037 162.37 116.194 162.238 116.325C162.106 116.457 161.949 116.562 161.776 116.633C161.603 116.705 161.418 116.741 161.23 116.741H158.067C157.88 116.741 157.694 116.705 157.521 116.633C157.349 116.562 157.192 116.457 157.059 116.325C156.927 116.194 156.823 116.037 156.752 115.865C156.68 115.693 156.644 115.508 156.645 115.322V89.0564C156.644 88.8703 156.68 88.6858 156.752 88.5137C156.823 88.3415 156.927 88.185 157.059 88.0532C157.192 87.9213 157.349 87.8167 157.521 87.7453C157.694 87.6739 157.88 87.6372 158.067 87.6372ZM167.09 89.8312H170.254C171.041 89.8312 171.676 90.4701 171.676 91.2504V124.533C171.676 124.719 171.64 124.904 171.569 125.076C171.498 125.248 171.393 125.405 171.261 125.537C171.129 125.668 170.972 125.773 170.799 125.844C170.626 125.916 170.441 125.953 170.254 125.953H167.09C166.903 125.953 166.718 125.916 166.545 125.844C166.372 125.773 166.215 125.668 166.083 125.537C165.951 125.405 165.846 125.248 165.775 125.076C165.704 124.904 165.668 124.719 165.668 124.533V91.2504C165.668 91.0643 165.704 90.8799 165.775 90.7077C165.846 90.5356 165.951 90.3791 166.083 90.2472C166.215 90.1154 166.372 90.0107 166.545 89.9394C166.718 89.868 166.903 89.8312 167.09 89.8312ZM167.09 163.933H170.254C171.041 163.933 171.676 164.572 171.676 165.353V170.573C171.676 170.759 171.64 170.943 171.569 171.115C171.498 171.287 171.393 171.444 171.261 171.576C171.129 171.708 170.972 171.812 170.799 171.884C170.626 171.955 170.441 171.992 170.254 171.992H167.09C166.903 171.992 166.718 171.955 166.545 171.884C166.372 171.812 166.215 171.708 166.083 171.576C165.951 171.444 165.846 171.287 165.775 171.115C165.704 170.943 165.668 170.759 165.668 170.573V165.353C165.668 165.167 165.704 164.982 165.775 164.81C165.846 164.638 165.951 164.481 166.083 164.349C166.215 164.218 166.372 164.113 166.545 164.042C166.718 163.97 166.903 163.933 167.09 163.933ZM175.87 92.463H179.034C179.821 92.463 180.456 93.1019 180.456 93.8822V102.172C180.457 102.358 180.42 102.542 180.349 102.714C180.278 102.886 180.173 103.043 180.041 103.175C179.909 103.307 179.752 103.411 179.579 103.483C179.406 103.554 179.221 103.591 179.034 103.591H175.87C175.683 103.591 175.498 103.554 175.325 103.483C175.152 103.411 174.995 103.307 174.863 103.175C174.731 103.043 174.626 102.886 174.555 102.714C174.484 102.542 174.448 102.358 174.448 102.172V93.8794C174.448 93.6933 174.484 93.5089 174.555 93.3368C174.626 93.1646 174.731 93.0081 174.863 92.8762C174.995 92.7444 175.152 92.6398 175.325 92.5684C175.498 92.497 175.683 92.463 175.87 92.463ZM175.87 106.492H179.034C179.221 106.492 179.406 106.528 179.579 106.6C179.752 106.671 179.909 106.776 180.041 106.908C180.173 107.04 180.278 107.196 180.349 107.368C180.42 107.54 180.457 107.725 180.456 107.911V123.652C180.457 123.839 180.42 124.023 180.349 124.195C180.278 124.367 180.173 124.524 180.041 124.656C179.909 124.787 179.752 124.892 179.579 124.964C179.406 125.035 179.221 125.072 179.034 125.072H175.87C175.683 125.072 175.498 125.035 175.325 124.964C175.152 124.892 174.995 124.787 174.863 124.656C174.731 124.524 174.626 124.367 174.555 124.195C174.484 124.023 174.448 123.839 174.448 123.652V107.911C174.448 107.725 174.484 107.54 174.555 107.368C174.626 107.196 174.731 107.04 174.863 106.908C174.995 106.776 175.152 106.671 175.325 106.6C175.498 106.528 175.683 106.492 175.87 106.492ZM184.885 94.6516H188.049C188.837 94.6516 189.471 95.2905 189.471 96.0707V101.291C189.472 101.477 189.436 101.661 189.364 101.833C189.293 102.006 189.189 102.162 189.057 102.294C188.924 102.426 188.767 102.53 188.595 102.602C188.422 102.673 188.236 102.71 188.049 102.71H184.885C184.698 102.71 184.513 102.673 184.34 102.602C184.167 102.53 184.01 102.426 183.878 102.294C183.746 102.162 183.641 102.006 183.57 101.833C183.499 101.661 183.463 101.477 183.464 101.291V96.0707C183.463 95.8846 183.499 95.7002 183.57 95.5281C183.641 95.3559 183.746 95.1994 183.878 95.0676C184.01 94.9357 184.167 94.8311 184.34 94.7597C184.513 94.6883 184.698 94.6515 184.885 94.6516ZM184.885 105.176H188.049C188.236 105.176 188.422 105.213 188.595 105.284C188.767 105.355 188.924 105.46 189.057 105.592C189.189 105.724 189.293 105.88 189.364 106.052C189.436 106.224 189.472 106.409 189.471 106.595V111.375C189.472 111.561 189.436 111.745 189.364 111.917C189.293 112.089 189.189 112.246 189.057 112.378C188.924 112.51 188.767 112.614 188.595 112.686C188.422 112.757 188.236 112.794 188.049 112.794H184.885C184.698 112.794 184.513 112.757 184.34 112.686C184.167 112.614 184.01 112.51 183.878 112.378C183.746 112.246 183.641 112.089 183.57 111.917C183.499 111.745 183.463 111.561 183.464 111.375V106.595C183.463 106.409 183.499 106.224 183.57 106.052C183.641 105.88 183.746 105.724 183.878 105.592C184.01 105.46 184.167 105.355 184.34 105.284C184.513 105.213 184.698 105.176 184.885 105.176ZM184.885 115.26H188.049C188.236 115.26 188.422 115.296 188.595 115.368C188.767 115.439 188.924 115.544 189.057 115.676C189.189 115.808 189.293 115.964 189.364 116.136C189.436 116.308 189.472 116.493 189.471 116.679V124.528C189.472 124.714 189.436 124.898 189.364 125.071C189.293 125.243 189.189 125.399 189.057 125.531C188.924 125.663 188.767 125.768 188.595 125.839C188.422 125.91 188.236 125.947 188.049 125.947H184.885C184.698 125.947 184.513 125.91 184.34 125.839C184.167 125.768 184.01 125.663 183.878 125.531C183.746 125.399 183.641 125.243 183.57 125.071C183.499 124.898 183.463 124.714 183.464 124.528V116.679C183.463 116.493 183.499 116.308 183.57 116.136C183.641 115.964 183.746 115.808 183.878 115.676C184.01 115.544 184.167 115.439 184.34 115.368C184.513 115.296 184.698 115.26 184.885 115.26ZM193.789 97.286H196.952C197.139 97.286 197.325 97.3228 197.498 97.3942C197.671 97.4655 197.828 97.5702 197.96 97.702C198.092 97.8339 198.196 97.9904 198.268 98.1625C198.339 98.3347 198.375 98.5191 198.374 98.7052V125.849C198.375 126.035 198.339 126.22 198.268 126.392C198.196 126.564 198.092 126.721 197.96 126.852C197.828 126.984 197.671 127.089 197.498 127.16C197.325 127.232 197.139 127.268 196.952 127.268H193.789C193.601 127.268 193.416 127.232 193.243 127.16C193.07 127.089 192.913 126.984 192.781 126.852C192.649 126.721 192.545 126.564 192.473 126.392C192.402 126.22 192.366 126.035 192.367 125.849V98.7025C192.366 98.5164 192.402 98.332 192.473 98.1598C192.545 97.9876 192.649 97.8312 192.781 97.6993C192.913 97.5674 193.07 97.4628 193.243 97.3914C193.416 97.32 193.601 97.286 193.789 97.286ZM202.637 105.176H205.801C205.988 105.176 206.173 105.213 206.346 105.284C206.519 105.355 206.676 105.46 206.808 105.592C206.94 105.724 207.045 105.88 207.116 106.052C207.187 106.224 207.223 106.409 207.223 106.595V124.968C207.223 125.154 207.187 125.339 207.116 125.511C207.045 125.683 206.94 125.84 206.808 125.972C206.676 126.103 206.519 126.208 206.346 126.279C206.173 126.351 205.988 126.388 205.801 126.388H202.637C202.45 126.388 202.265 126.351 202.092 126.279C201.919 126.208 201.762 126.103 201.63 125.972C201.498 125.84 201.393 125.683 201.322 125.511C201.251 125.339 201.214 125.154 201.215 124.968V106.595C201.214 106.409 201.251 106.224 201.322 106.052C201.393 105.88 201.498 105.724 201.63 105.592C201.762 105.46 201.919 105.355 202.092 105.284C202.265 105.213 202.45 105.176 202.637 105.176ZM211.414 115.26H214.578C214.765 115.26 214.951 115.296 215.123 115.368C215.296 115.439 215.453 115.544 215.585 115.676C215.718 115.808 215.822 115.964 215.893 116.136C215.964 116.308 216.001 116.493 216 116.679V121.899C216.001 122.085 215.964 122.269 215.893 122.442C215.822 122.614 215.718 122.77 215.585 122.902C215.453 123.034 215.296 123.139 215.123 123.21C214.951 123.281 214.765 123.318 214.578 123.318H211.414C211.227 123.318 211.042 123.281 210.869 123.21C210.696 123.139 210.539 123.034 210.407 122.902C210.275 122.77 210.17 122.614 210.099 122.442C210.028 122.269 209.992 122.085 209.993 121.899V116.679C209.992 116.493 210.028 116.308 210.099 116.136C210.17 115.964 210.275 115.808 210.407 115.676C210.539 115.544 210.696 115.439 210.869 115.368C211.042 115.296 211.227 115.26 211.414 115.26Z" fill="#0075FF"/>
</svg>