<svg width="256" height="256" title="Pop OS" viewBox="0 0 256 256" fill="none" xmlns="http://www.w3.org/2000/svg" id="popos">
<style>
#popos {
    rect {fill: #15191C}

    @media (prefers-color-scheme: light) {
        rect {fill: #F4F2ED}
    }
}
</style>
<rect width="256" height="256" rx="40" fill="#15191C"/>
<path d="M128.5 211C174.063 211 211 174.063 211 128.5C211 82.9365 174.063 46 128.5 46C82.9365 46 46 82.9365 46 128.5C46 174.063 82.9365 211 128.5 211Z" fill="#48B9C7"/>
<path d="M91.3488 172.454H165.651C169.209 172.454 172.105 175.349 172.105 178.907V179.43C172.105 182.988 169.209 185.884 165.651 185.884H91.3488C87.7907 185.884 84.8953 182.988 84.8953 179.43V178.907C84.8953 175.331 87.7733 172.454 91.3488 172.454Z" fill="white"/>
<path d="M139.488 108.093C135.302 116.988 128.326 124.14 118.558 127.628L126.93 149.43C128.5 153.442 129.895 157.628 128.674 161.465C127.454 165.302 121.872 166.523 117.86 162.337C110.186 154.14 84.3721 102.512 82.4535 98.6744C80.5349 94.8372 78.4419 91.6977 78.4419 87.8605C78.6163 82.1046 87.5116 76.1744 91.8721 73.2093C96.2326 70.2442 104.779 66.2325 112.279 66.0581C119.779 65.8837 122.919 67.6279 127.279 70.4186C133.907 74.7791 138.616 81.5814 140.36 89.4302C142.105 97.2791 141.581 103.384 139.488 107.744M119.779 98.3256C118.209 92.9186 114.895 87.686 110.535 84.1977C109.663 83.5 108.616 82.6279 107.395 82.2791C99.3721 79.6628 102.86 93.093 104.081 96.5814C105.302 100.07 108.616 107.395 112.279 111.058C113.151 111.93 114.023 112.628 115.07 112.802C116.116 112.977 118.209 111.93 119.081 110.535C119.954 109.14 120.128 108.093 120.128 106.698C120.529 103.907 120.407 101.064 119.779 98.3256Z" fill="white"/>
<path d="M155.012 161.64C154.663 163.209 153.791 164.605 152.395 165.477C151 166.349 147.686 166.349 145.767 164.779C143.849 163.209 143.5 160.593 144.023 158.5C144.547 156.407 146.291 154.14 148.733 153.442C153.791 151.872 156.058 157.453 155.012 161.64Z" fill="white"/>
<path d="M151.872 145.767C148.733 144.547 149.779 127.802 152.744 107.395C153.616 101.814 155.012 99.0232 156.581 97.6279C158.151 96.2326 162.86 95.5349 165.651 96.0581C168.86 96.5291 171.843 97.9942 174.198 100.244C176.291 102.163 176.465 104.256 175.767 106.872C175.07 109.488 172.628 115.07 170.709 119.081L165.826 128.326C156.407 145.07 154.488 146.814 151.872 145.767Z" fill="white"/>
</svg>