<svg width="256" height="256" title="Portugol Studio" viewBox="0 0 256 256" fill="none" xmlns="http://www.w3.org/2000/svg" id="portugolstudio">
<style>
#portugolstudio {
    rect {fill: #15191C}

    @media (prefers-color-scheme: light) {
        rect {fill: #F4F2ED}
    }
}
</style>
<rect width="256" height="256" rx="40" fill="#15191C"/>
<path d="M127.292 76.061H129.708L132.448 76.3032L134.704 76.7069L137.04 77.3528L139.376 78.1602L141.471 79.0483L143.485 80.0172L145.258 80.986L146.95 82.0356L148.319 83.0044L149.447 83.8926L150.575 84.8614L151.542 85.7495L152.509 86.7184L153.234 87.6065L154.12 88.6561L155.087 90.0286L155.651 90.836L156.618 92.37L157.746 94.4692L158.712 96.4876L159.437 98.3446L160.243 100.767L160.727 102.704L161.129 104.804L161.452 107.226L161.532 108.598V110.617L161.371 112.635L160.968 114.976L160.485 116.995L159.679 119.417L158.874 121.435L157.746 123.858L156.134 127.087L155.167 128.863L154.04 130.962L153.234 132.335L152.025 134.515L150.817 136.776L149.689 138.955L148.722 141.055L147.916 143.235L147.433 145.092L147.191 146.626L146.869 149.209L146.386 151.308L145.983 152.439L145.338 153.65L144.613 154.538L143.888 155.103L143.002 155.426L142.196 155.587L139.86 155.749L136.073 155.83H119.879L115.771 155.668L114.32 155.507L113.434 155.184L112.709 154.619L111.984 153.892L111.5 153.085L111.017 151.873L110.614 150.42L110.211 148.079L109.889 145.818L109.406 143.719L108.681 141.539L107.633 139.278L106.828 137.583L105.861 135.807L104.652 133.546L103.605 131.689L102.558 129.751L101.591 127.975L100.463 125.795L99.8184 124.584L98.771 122.324L98.0459 120.709L97.2402 118.61L96.5151 116.268L96.1123 114.492L95.79 112.312L95.7095 111.02V108.114L95.8706 106.176L96.354 103.189L96.918 100.928L97.8848 98.0216L98.771 95.9224L100.221 93.0159L100.946 91.8856L101.752 90.5938L102.558 89.4634L103.202 88.6561L104.008 87.6065L104.572 87.0413L105.297 86.1532L106.344 85.1036L106.989 84.5385L108.036 83.6503L109.406 82.6008L110.856 81.6319L112.628 80.5823L114.965 79.3713L116.737 78.5639L119.074 77.6758L121.813 76.8684L124.311 76.384L126.164 76.1418L127.292 76.061ZM128.419 86.0725L126.808 86.1532L124.633 86.4762L122.699 86.9606L120.766 87.6065L119.074 88.3331L117.382 89.2212L116.334 89.8671L114.884 90.836L113.595 91.8856L112.387 93.0159L111.581 93.8233L110.856 94.7114L110.211 95.5188L109.245 96.8913L108.117 98.9905L107.392 100.605L106.828 102.139L106.344 103.996L105.941 106.418L105.78 108.195V110.617L106.103 113.523L106.667 116.188L107.23 118.044L108.358 120.79L109.406 122.889L110.292 124.423L111.259 126.038L112.306 127.733L113.434 129.509L114.965 132.093L115.932 133.869L116.898 135.887L117.785 138.067L118.59 140.247L119.315 142.266L119.96 143.719L120.363 144.446L121.007 145.172L121.732 145.495L122.78 145.657L123.988 145.737H134.301L135.509 145.495L136.315 145.092L136.959 144.365L137.765 142.669L138.974 139.278L139.86 137.018L140.827 134.838L141.955 132.658L143.244 130.478L144.049 129.186L145.097 127.491L146.305 125.553L147.191 124.019L147.675 123.212L148.803 120.951L149.689 118.771L150.414 116.51L151.059 113.604L151.381 111.101L151.461 109.244L151.381 107.629L150.978 104.642L150.495 102.543L149.77 100.444L148.803 98.4253L147.997 96.972L147.191 95.761L146.466 94.7921L145.419 93.5811L144.372 92.5315L143.485 91.8048L142.841 91.2397L141.471 90.2708L139.86 89.302L138.41 88.4946L135.912 87.445L134.381 86.9606L132.609 86.4762L130.514 86.1532L128.419 86.0725Z" fill="#FEBD0D"/>
<path d="M75.0039 65H83.8662L83.9468 66.2918V75.2537L83.8662 75.4151L83.6245 75.4959L79.9185 75.6573L77.9849 75.8996L76.3735 76.2225L75.0039 76.7069L74.0371 77.1914L73.312 77.7565L72.9897 77.918L72.8286 78.2409L72.3452 78.9676L72.0229 79.6135L71.459 81.2282L71.0562 83.2467L70.8145 85.588L70.7339 87.3643L70.6533 96.972L70.4922 103.512L70.4116 105.934L70.0894 109.729L69.6865 112.393L69.2837 114.411L68.7197 116.349L68.0752 118.125L66.9473 120.467L65.9805 122.001L65.0942 123.05L64.5303 123.696L63.4829 124.746L62.4355 125.553L61.6299 126.199L60.4214 127.006L58.9712 127.814L57.9238 128.298L57.0376 128.621L56.7959 128.783L58.085 129.509L59.2129 130.074L60.6631 130.962L62.1133 132.012L62.9995 132.739L63.8052 133.465L65.0137 134.676L65.9805 135.968L66.9473 137.502L67.9141 139.359L68.5586 141.055L69.2031 143.154L69.6865 145.495L70.1699 148.886L70.4116 151.308L70.5728 154.134L70.6533 157.444L70.7339 172.139L70.8145 173.915L71.0562 175.691L71.3784 176.983L71.8618 178.194L72.5869 179.486L72.9092 179.809V179.97L73.2314 180.132L73.876 180.697L75.165 181.343L76.6152 181.746L78.0654 181.989L81.3687 182.231L83.6245 182.312L83.9468 182.473V192H71.0562L70.0088 191.354L67.9946 190.305L67.0278 189.659L65.8999 188.77L64.6914 187.64L63.8857 186.752L62.9995 185.541L62.2744 184.33L61.6299 183.038L61.0659 181.585L60.502 179.566L60.1797 177.871L59.8574 175.368L59.6157 171.977L59.4546 168.344L59.374 165.76L59.2129 156.556L59.0518 152.6L58.8101 149.048L58.4878 145.98L58.085 143.961L57.6821 142.589L57.1182 141.216L56.3125 139.763L55.3457 138.471L54.1372 137.26L52.7676 136.291L51.2368 135.484L49.7866 134.999L47.9336 134.596L46 134.353V123.535L48.7393 123.131L50.27 122.727L51.8813 122.081L53.0093 121.435L53.9761 120.79L55.1846 119.74L55.7485 119.094L56.5542 117.964L57.2793 116.672L57.8433 115.299L58.3267 113.362L58.8101 110.294L59.0518 107.791L59.2935 102.543L59.374 99.7171L59.6157 86.2339L59.7769 83.1659L60.0991 80.9053L60.502 78.8061L61.1465 76.4647L61.8716 74.6885L62.5161 73.3967L63.2412 72.1049L64.0469 70.9746L64.6914 70.1672L65.4165 69.3598L66.2222 68.6332L67.4307 67.8258L68.5586 67.1799L69.6865 66.6147L71.7812 65.8074L73.7954 65.2422L75.0039 65Z" fill="#FEBD0D"/>
<path d="M173.134 65H181.271L184.252 65.6459L185.702 66.0496L187.394 66.6955L189.005 67.5029L190.456 68.4717L191.583 69.4406L193.114 70.9746L193.92 72.0242L194.564 73.0737L195.29 74.4463L196.015 76.3032L196.579 78.4024L196.981 80.9053L197.223 83.1659L197.384 85.588L197.545 90.513L197.707 98.9097L197.868 103.592L198.109 107.872L198.432 111.02L198.834 113.442L199.318 115.138L199.882 116.43L200.687 117.964L201.493 119.013L202.379 119.982L203.024 120.547L203.83 121.193L204.877 121.839L205.683 122.243L206.73 122.647L208.18 123.05L210.839 123.535L211 123.615V134.353L208.261 134.757L207.052 135.08L205.521 135.645L204.635 136.13L203.83 136.695L202.863 137.421L201.493 138.794L200.768 139.844L200.043 141.055L199.479 142.266L198.996 143.719L198.593 145.737L198.271 148.402L198.029 151.147L197.787 155.991L197.707 159.059L197.626 165.841L197.465 172.704L197.304 175.045L197.062 176.983L196.498 179.728L196.015 181.423L195.531 182.715L194.967 184.007L194.242 185.218L193.275 186.591L192.631 187.398L191.745 188.367L190.939 189.093L189.65 189.982L188.2 190.789L185.863 191.919L185.783 192H173.134L173.053 182.392L173.134 182.312L177.082 182.15L179.74 181.827L181.19 181.504L182.802 180.858L183.93 180.051L184.655 179.243L185.299 177.952L185.622 177.064L185.944 175.53L186.266 172.865L186.347 171.331L186.427 167.698L186.588 156.798L186.75 151.147L186.911 148.725L187.233 146.303L187.797 143.558L188.764 140.651L189.65 138.633L190.294 137.421L191.1 136.13L191.664 135.403L192.55 134.273L194.162 132.658L195.048 131.931L196.417 130.962L197.948 130.074L200.043 129.025L199.64 128.621L198.351 127.975L196.659 127.006L195.37 126.038L194.323 125.149L192.711 123.696L191.745 122.647L190.697 121.274L189.65 119.579L188.844 117.883L188.119 115.865L187.555 113.442L186.991 110.374L186.669 107.549L186.508 104.965L186.347 100.282L186.266 85.911L186.186 83.2467L185.863 81.4704L185.46 80.0172L184.655 78.4832L184.01 77.6758L183.043 76.9491L181.513 76.384L179.579 75.9803L177.565 75.7381L176.276 75.6573L173.214 75.5766L173.134 75.4959V65Z" fill="#FEBD0D"/>
<path d="M115.771 158.817L141.713 158.898L142.519 159.14L143.244 159.705L144.13 160.593L144.533 161.32L144.855 162.208L144.936 162.854V164.953L144.694 165.922L144.21 166.891L143.485 167.779L142.841 168.263L141.874 168.586L140.263 168.748H116.173L115.207 168.586L114.562 168.263L113.756 167.537L113.192 166.729L112.79 165.922L112.467 164.63L112.387 163.257L112.628 162.046L113.112 160.916L113.837 160.028L114.401 159.463L115.529 158.898L115.771 158.817Z" fill="#FEBD0D"/>
<path d="M124.633 171.654H131.642L133.737 171.735L134.542 171.896L135.348 172.3L135.993 172.784L136.637 173.592L137.121 174.561L137.362 175.53V177.548L137.121 178.517L136.557 179.647L135.832 180.535L135.187 181.02L133.898 181.423L132.287 181.585H124.311L123.263 181.423L122.458 181.1L121.813 180.535L121.249 179.889L120.766 179.082L120.443 178.032L120.282 176.983V176.095L120.524 174.641L121.007 173.673L121.652 172.865L122.458 172.139L123.263 171.735L124.633 171.654Z" fill="#FEBD0D"/>
</svg>