<svg width="256" height="256" title="PostHog" viewBox="0 0 256 256" fill="none" xmlns="http://www.w3.org/2000/svg" id="posthog">
<style>
#posthog {
    rect {fill: #15191C}
    path.head {fill: #F4F2ED}

    @media (prefers-color-scheme: light) {
        rect {fill: #F4F2ED}
        path.head {fill: #15191C}
    }
}
</style>
<rect width="256" height="256" rx="40" fill="#15191C"/>
<path d="M51 155.383C51 152.227 54.816 150.646 57.0478 152.878L73.2855 169.116C75.5173 171.348 73.9367 175.164 70.7804 175.164H54.5427C52.5861 175.164 51 173.578 51 171.621V155.383ZM51 138.28C51 139.219 51.3733 140.12 52.0376 140.785L85.379 174.126C86.0434 174.79 86.9445 175.164 87.8841 175.164H106.197C109.353 175.164 110.934 171.348 108.702 169.116L57.0478 117.461C54.816 115.229 51 116.81 51 119.966V138.28ZM51 102.863C51 103.802 51.3733 104.704 52.0376 105.368L120.796 174.126C121.46 174.79 122.361 175.164 123.301 175.164H141.614C144.77 175.164 146.351 171.348 144.119 169.116L57.0478 82.0448C54.8161 79.813 51 81.3936 51 84.5498V102.863ZM86.4167 102.863C86.4167 103.802 86.7901 104.704 87.4543 105.368L151.202 169.116C153.434 171.348 157.25 169.767 157.25 166.611V148.298C157.25 147.358 156.877 146.457 156.212 145.793L92.4645 82.0447C90.2325 79.813 86.4167 81.3936 86.4167 84.5498V102.863ZM127.881 82.0448C125.649 79.813 121.833 81.3936 121.833 84.5498V102.863C121.833 103.802 122.207 104.704 122.871 105.368L151.202 133.699C153.434 135.931 157.25 134.35 157.25 131.194V112.881C157.25 111.941 156.877 111.04 156.212 110.376L127.881 82.0448Z" fill="#F9BD2B"/>
<path d="M201.654 155.817L168.307 122.47C166.075 120.239 162.259 121.819 162.259 124.976V171.621C162.259 173.577 163.845 175.163 165.802 175.163H217.457C219.414 175.163 221 173.577 221 171.621V167.373C221 165.416 219.407 163.854 217.467 163.601C211.513 162.826 205.943 160.106 201.654 155.817ZM179.259 163.83C176.131 163.83 173.593 161.291 173.593 158.163C173.593 155.035 176.131 152.497 179.259 152.497C182.387 152.497 184.926 155.035 184.926 158.163C184.926 161.291 182.387 163.83 179.259 163.83Z" class="head" fill="#F4F2ED"/>
<path d="M56.7482 152.608L57.0478 152.878L73.2855 169.116C75.4202 171.251 74.0669 174.834 71.183 175.142L70.7804 175.164H54.5427C52.7259 175.164 51.2285 173.796 51.0238 172.034L51 171.621V155.383C51 152.364 54.4914 150.786 56.7482 152.608ZM56.7482 117.192L57.0478 117.461L86.4167 146.831V175.164L52.0376 140.785C51.484 140.231 51.1325 139.513 51.0307 138.746L51 138.28V119.966C51 116.947 54.4914 115.37 56.7482 117.192ZM51 84.5498C51 81.5308 54.4914 79.9534 56.7482 81.7751L57.0478 82.0448L86.4167 111.414V139.747L52.0376 105.368C51.484 104.814 51.1325 104.096 51.0307 103.328L51 102.863V84.5498Z" fill="#1D4AFF"/>
<path d="M86.4167 111.414L120.796 145.793C121.35 146.347 121.701 147.065 121.803 147.832L121.833 148.298V175.164L87.4543 140.785C86.9008 140.231 86.5492 139.513 86.4474 138.746L86.4167 138.28L86.4167 111.414ZM86.4167 146.83L108.702 169.116C110.837 171.251 109.484 174.834 106.6 175.142L106.197 175.164L86.4167 175.163V146.83ZM92.1648 81.7751L92.4645 82.0447L120.796 110.376C121.35 110.929 121.701 111.648 121.803 112.415L121.833 112.881V139.747L87.4543 105.368C86.9008 104.814 86.5492 104.096 86.4474 103.328L86.4167 102.863V84.5498C86.4167 81.5308 89.9083 79.9534 92.1648 81.7751Z" fill="#F54E00"/>
</svg>