<svg width="256" height="256" title="Prettier" viewBox="0 0 256 256" fill="none" xmlns="http://www.w3.org/2000/svg" id="prettier">
<style>
#prettier {
    rect {fill: #15191C}

    @media (prefers-color-scheme: light) {
        rect {fill: #F4F2ED}
    }
}
</style>
<rect width="256" height="256" rx="40" fill="#15191C"/>
<path d="M167.786 77.4286H175.643C177.843 77.4286 179.571 79.1571 179.571 81.3571C179.571 83.5571 177.843 85.2857 175.643 85.2857H167.786C165.586 85.2857 163.857 83.5571 163.857 81.3571C163.857 79.1571 165.586 77.4286 167.786 77.4286Z" fill="#56B3B4"/>
<path d="M49.9286 203.143H89.2143C91.4143 203.143 93.1429 204.871 93.1429 207.071C93.1429 209.271 91.4143 211 89.2143 211H49.9286C47.7286 211 46 209.271 46 207.071C46 204.871 47.7286 203.143 49.9286 203.143Z" fill="#EA5E5E"/>
<path d="M144.214 140.286H167.786C169.986 140.286 171.714 142.014 171.714 144.214C171.714 146.414 169.986 148.143 167.786 148.143H144.214C142.014 148.143 140.286 146.414 140.286 144.214C140.286 142.014 142.014 140.286 144.214 140.286Z" fill="#BF85BF"/>
<path d="M97.0714 140.286H128.5C130.7 140.286 132.429 142.014 132.429 144.214C132.429 146.414 130.7 148.143 128.5 148.143H97.0714C94.8714 148.143 93.1428 146.414 93.1428 144.214C93.1428 142.014 94.8714 140.286 97.0714 140.286Z" fill="#EA5E5E"/>
<path d="M49.9286 140.286H81.3571C83.5571 140.286 85.2857 142.014 85.2857 144.214C85.2857 146.414 83.5571 148.143 81.3571 148.143H49.9286C47.7286 148.143 46 146.414 46 144.214C46 142.014 47.7286 140.286 49.9286 140.286Z" fill="#56B3B4"/>
<path d="M49.9286 171.714H89.2143C91.4143 171.714 93.1429 173.443 93.1429 175.643C93.1429 177.843 91.4143 179.571 89.2143 179.571H49.9286C47.7286 179.571 46 177.843 46 175.643C46 173.443 47.7286 171.714 49.9286 171.714Z" fill="#BF85BF"/>
<path d="M49.9286 108.857H89.2143C91.4143 108.857 93.1429 110.586 93.1429 112.786C93.1429 114.986 91.4143 116.714 89.2143 116.714H49.9286C47.7286 116.714 46 114.986 46 112.786C46 110.586 47.7286 108.857 49.9286 108.857Z" fill="#BF85BF"/>
<path d="M89.2143 61.7143H167.786C169.986 61.7143 171.714 63.4429 171.714 65.6429C171.714 67.8429 169.986 69.5714 167.786 69.5714H89.2143C87.0143 69.5714 85.2857 67.8429 85.2857 65.6429C85.2857 63.4429 87.0143 61.7143 89.2143 61.7143Z" fill="#F7BA3E"/>
<path d="M49.9286 61.7143H73.5C75.7 61.7143 77.4286 63.4429 77.4286 65.6429C77.4286 67.8429 75.7 69.5714 73.5 69.5714H49.9286C47.7286 69.5714 46 67.8429 46 65.6429C46 63.4429 47.7286 61.7143 49.9286 61.7143Z" fill="#EA5E5E"/>
<path d="M81.3571 187.429H89.2143C91.4143 187.429 93.1428 189.157 93.1428 191.357C93.1428 193.557 91.4143 195.286 89.2143 195.286H81.3571C79.1571 195.286 77.4286 193.557 77.4286 191.357C77.4286 189.157 79.1571 187.429 81.3571 187.429Z" fill="#F7BA3E"/>
<path d="M81.3571 93.1429H89.2143C91.4143 93.1429 93.1428 94.8714 93.1428 97.0714C93.1428 99.2714 91.4143 101 89.2143 101H81.3571C79.1571 101 77.4286 99.2714 77.4286 97.0714C77.4286 94.8714 79.1571 93.1429 81.3571 93.1429Z" fill="#56B3B4"/>
<path d="M49.9286 187.429H65.6429C67.8429 187.429 69.5714 189.157 69.5714 191.357C69.5714 193.557 67.8429 195.286 65.6429 195.286H49.9286C47.7286 195.286 46 193.557 46 191.357C46 189.157 47.7286 187.429 49.9286 187.429Z" fill="#56B3B4"/>
<path d="M49.9286 93.1429H65.6429C67.8429 93.1429 69.5714 94.8714 69.5714 97.0714C69.5714 99.2714 67.8429 101 65.6429 101H49.9286C47.7286 101 46 99.2714 46 97.0714C46 94.8714 47.7286 93.1429 49.9286 93.1429Z" fill="#F7BA3E"/>
<path d="M112.786 124.571H175.643C177.843 124.571 179.571 126.3 179.571 128.5C179.571 130.7 177.843 132.429 175.643 132.429H112.786C110.586 132.429 108.857 130.7 108.857 128.5C108.857 126.3 110.586 124.571 112.786 124.571Z" fill="#56B3B4"/>
<path d="M73.5 124.571H97.0714C99.2714 124.571 101 126.3 101 128.5C101 130.7 99.2714 132.429 97.0714 132.429H73.5C71.3 132.429 69.5714 130.7 69.5714 128.5C69.5714 126.3 71.3 124.571 73.5 124.571Z" fill="#F7BA3E"/>
<path d="M49.9286 124.571H57.7857C59.9857 124.571 61.7143 126.3 61.7143 128.5C61.7143 130.7 59.9857 132.429 57.7857 132.429H49.9286C47.7286 132.429 46 130.7 46 128.5C46 126.3 47.7286 124.571 49.9286 124.571Z" fill="#EA5E5E"/>
<path d="M120.643 77.4286H152.071C154.271 77.4286 156 79.1571 156 81.3571C156 83.5571 154.271 85.2857 152.071 85.2857H120.643C118.443 85.2857 116.714 83.5571 116.714 81.3571C116.714 79.1571 118.443 77.4286 120.643 77.4286Z" fill="#BF85BF"/>
<path d="M49.9286 77.4286H104.929C107.129 77.4286 108.857 79.1571 108.857 81.3571C108.857 83.5571 107.129 85.2857 104.929 85.2857H49.9286C47.7286 85.2857 46 83.5571 46 81.3571C46 79.1571 47.7286 77.4286 49.9286 77.4286Z" fill="#56B3B4"/>
<path d="M73.5 156H144.214C146.414 156 148.143 157.729 148.143 159.929C148.143 162.129 146.414 163.857 144.214 163.857H73.5C71.3 163.857 69.5714 162.129 69.5714 159.929C69.5714 157.729 71.3 156 73.5 156Z" fill="#F7BA3E"/>
<path d="M49.9286 156H57.7857C59.9857 156 61.7143 157.729 61.7143 159.929C61.7143 162.129 59.9857 163.857 57.7857 163.857H49.9286C47.7286 163.857 46 162.129 46 159.929C46 157.729 47.7286 156 49.9286 156Z" fill="#BF85BF"/>
<path d="M144.214 93.1429H183.5C185.7 93.1429 187.429 94.8714 187.429 97.0714C187.429 99.2714 185.7 101 183.5 101H144.214C142.014 101 140.286 99.2714 140.286 97.0714C140.286 94.8714 142.014 93.1429 144.214 93.1429Z" fill="#EA5E5E"/>
<path d="M144.214 108.857H183.5C185.7 108.857 187.429 110.586 187.429 112.786C187.429 114.986 185.7 116.714 183.5 116.714H144.214C142.014 116.714 140.286 114.986 140.286 112.786C140.286 110.586 142.014 108.857 144.214 108.857Z" fill="#F7BA3E"/>
<path d="M49.9286 46H144.214C146.414 46 148.143 47.7286 148.143 49.9286C148.143 52.1286 146.414 53.8571 144.214 53.8571H49.9286C47.7286 53.8571 46 52.1286 46 49.9286C46 47.7286 47.7286 46 49.9286 46Z" fill="#56B3B4"/>
<path d="M159.929 46H207.071C209.271 46 211 47.7286 211 49.9286C211 52.1286 209.271 53.8571 207.071 53.8571H159.929C157.729 53.8571 156 52.1286 156 49.9286C156 47.7286 157.729 46 159.929 46Z" fill="#4D616E"/>
<path d="M183.5 61.7143H207.071C209.271 61.7143 211 63.4429 211 65.6429C211 67.8429 209.271 69.5714 207.071 69.5714H183.5C181.3 69.5714 179.571 67.8429 179.571 65.6429C179.571 63.4429 181.3 61.7143 183.5 61.7143Z" fill="#4D616E"/>
<path d="M152.071 187.429H159.929C162.129 187.429 163.857 189.157 163.857 191.357C163.857 193.557 162.129 195.286 159.929 195.286H152.071C149.871 195.286 148.143 193.557 148.143 191.357C148.143 189.157 149.871 187.429 152.071 187.429Z" fill="#4D616E"/>
<path d="M104.929 187.429H136.357C138.557 187.429 140.286 189.157 140.286 191.357C140.286 193.557 138.557 195.286 136.357 195.286H104.929C102.729 195.286 101 193.557 101 191.357C101 189.157 102.729 187.429 104.929 187.429Z" fill="#4D616E"/>
<path d="M104.929 171.714H120.643C122.843 171.714 124.571 173.443 124.571 175.643C124.571 177.843 122.843 179.571 120.643 179.571H104.929C102.729 179.571 101 177.843 101 175.643C101 173.443 102.729 171.714 104.929 171.714Z" fill="#4D616E"/>
<path d="M159.929 156H175.643C177.843 156 179.571 157.729 179.571 159.929C179.571 162.129 177.843 163.857 175.643 163.857H159.929C157.729 163.857 156 162.129 156 159.929C156 157.729 157.729 156 159.929 156Z" fill="#4D616E"/>
<path d="M175.643 187.429H207.071C209.271 187.429 211 189.157 211 191.357C211 193.557 209.271 195.286 207.071 195.286H175.643C173.443 195.286 171.714 193.557 171.714 191.357C171.714 189.157 173.443 187.429 175.643 187.429Z" fill="#4D616E"/>
<path d="M191.357 156H207.071C209.271 156 211 157.729 211 159.929C211 162.129 209.271 163.857 207.071 163.857H191.357C189.157 163.857 187.429 162.129 187.429 159.929C187.429 157.729 189.157 156 191.357 156Z" fill="#4D616E"/>
<path d="M183.5 140.286H207.071C209.271 140.286 211 142.014 211 144.214C211 146.414 209.271 148.143 207.071 148.143H183.5C181.3 148.143 179.571 146.414 179.571 144.214C179.571 142.014 181.3 140.286 183.5 140.286Z" fill="#4D616E"/>
<path d="M191.357 124.571H207.071C209.271 124.571 211 126.3 211 128.5C211 130.7 209.271 132.429 207.071 132.429H191.357C189.157 132.429 187.429 130.7 187.429 128.5C187.429 126.3 189.157 124.571 191.357 124.571Z" fill="#4D616E"/>
<path d="M191.357 77.4286H207.071C209.271 77.4286 211 79.1571 211 81.3571C211 83.5571 209.271 85.2857 207.071 85.2857H191.357C189.157 85.2857 187.429 83.5571 187.429 81.3571C187.429 79.1571 189.157 77.4286 191.357 77.4286Z" fill="#4D616E"/>
<path d="M199.214 93.1429H207.071C209.271 93.1429 211 94.8714 211 97.0714C211 99.2714 209.271 101 207.071 101H199.214C197.014 101 195.286 99.2714 195.286 97.0714C195.286 94.8714 197.014 93.1429 199.214 93.1429Z" fill="#4D616E"/>
<path d="M199.214 108.857H207.071C209.271 108.857 211 110.586 211 112.786C211 114.986 209.271 116.714 207.071 116.714H199.214C197.014 116.714 195.286 114.986 195.286 112.786C195.286 110.586 197.014 108.857 199.214 108.857Z" fill="#4D616E"/>
<path d="M136.357 171.714H207.071C209.271 171.714 211 173.443 211 175.643C211 177.843 209.271 179.571 207.071 179.571H136.357C134.157 179.571 132.429 177.843 132.429 175.643C132.429 173.443 134.157 171.714 136.357 171.714Z" fill="#4D616E"/>
<path d="M167.786 203.143H207.071C209.271 203.143 211 204.871 211 207.071C211 209.271 209.271 211 207.071 211H167.786C165.586 211 163.857 209.271 163.857 207.071C163.857 204.871 165.586 203.143 167.786 203.143Z" fill="#4D616E"/>
<path d="M104.929 203.143H152.071C154.271 203.143 156 204.871 156 207.071C156 209.271 154.271 211 152.071 211H104.929C102.729 211 101 209.271 101 207.071C101 204.871 102.729 203.143 104.929 203.143Z" fill="#4D616E"/>
<path d="M104.929 93.1429H128.5C130.7 93.1429 132.429 94.8714 132.429 97.0714C132.429 99.2714 130.7 101 128.5 101H104.929C102.729 101 101 99.2714 101 97.0714C101 94.8714 102.729 93.1429 104.929 93.1429Z" fill="#4D616E"/>
<path d="M104.929 108.857H128.5C130.7 108.857 132.429 110.586 132.429 112.786C132.429 114.986 130.7 116.714 128.5 116.714H104.929C102.729 116.714 101 114.986 101 112.786C101 110.586 102.729 108.857 104.929 108.857Z" fill="#4D616E"/>
</svg>