<svg width="256" height="256" title="PrimeVue" viewBox="0 0 256 256" fill="none" xmlns="http://www.w3.org/2000/svg" id="primevue">
<style>
#primevue {
    rect {fill: #15191C}

    @media (prefers-color-scheme: light) {
        rect {fill: #F4F2ED}
    }
}
</style>
<rect width="256" height="256" rx="40" fill="#15191C"/>
<path d="M161.478 121.018L150.522 118.584L159.044 130.753V168.479L188.261 144.14V102.763L174.87 107.631L161.478 121.018Z" fill="#41B883"/>
<path d="M93.3043 121.018L104.261 118.584L95.7391 130.753V168.479L66.5217 144.14V102.763L79.913 107.631L93.3043 121.018Z" fill="#41B883"/>
<path fill-rule="evenodd" clip-rule="evenodd" d="M99.3915 133.187L109.13 118.584L115.218 122.235H139.565L145.652 118.584L155.392 133.187V187.951L148.087 198.903L139.565 207.422H115.218L106.696 198.903L99.3915 187.951V133.187Z" fill="#41B883"/>
<path d="M159.044 191.602L174.87 175.781V159.96L159.044 173.347V191.602Z" fill="#41B883"/>
<path d="M95.7391 191.602L79.913 175.781V159.96L95.7391 173.347V191.602Z" fill="#41B883"/>
<path fill-rule="evenodd" clip-rule="evenodd" d="M143.218 48H139.565V71.4634L146.265 55.2364L143.218 48ZM137.21 77.1673L134.696 78.424V48H129.826V95.0501L137.21 77.1673ZM129.826 105.652L148.476 60.4846L152.956 71.1223L138.348 117.367H129.826V105.652ZM124.956 95.2269V48H120.087V78.424L118.06 77.4109L124.956 95.2269ZM115.218 70.0676V48H111.565L109.017 54.0499L115.218 70.0676ZM106.756 59.4177L124.956 106.435V117.367H117.652L101.826 71.1223L106.756 59.4177Z" fill="#455C71"/>
<path fill-rule="evenodd" clip-rule="evenodd" d="M65.3044 97.8954L117.652 117.367L118.87 117.367L103.044 71.1222L58 67.4713L65.3044 97.8954ZM190.696 97.8954L138.348 117.367L137.13 117.367L151.739 71.1222L198 67.4713L190.696 97.8954Z" fill="#41B883"/>
<path d="M155.391 67.4714L180.956 65.0375L163.913 48H146.87L155.391 67.4714Z" fill="#455C71"/>
<path d="M99.391 67.4714L73.826 65.0375L90.8695 48H107.913L99.391 67.4714Z" fill="#455C71"/>
<path d="M77.0174 69.0405L103.318 71.0636L119.098 117.393H117.48L100.486 111.121L77.0174 69.0405Z" fill="#455C71"/>
<path d="M178.578 69.0405L151.468 71.0636L136.497 117.393L138.52 117.353L154.301 111.526L178.578 69.0405Z" fill="#455C71"/>
<path d="M106.96 121.642L108.983 118.405L115.861 121.642H140.139L145.399 118.405L147.827 121.642L127.393 156.439L106.96 121.642Z" fill="#455C71"/>
<path fill-rule="evenodd" clip-rule="evenodd" d="M106.675 48L127.277 101.223L149.253 48H106.675Z" fill="#41B883"/>
</svg>