<svg width="256" height="256" title="Prismic" viewBox="0 0 256 256" fill="none" xmlns="http://www.w3.org/2000/svg" id="prismic">
<style>
#prismic {
    rect {fill: #15191C}

    @media (prefers-color-scheme: light) {
        rect {fill: #F4F2ED}
    }
}
</style>
<rect width="256" height="256" rx="40" fill="#15191C"/>
<path fill-rule="evenodd" clip-rule="evenodd" d="M183.817 58.0192C189.858 61.2264 194.796 66.1759 197.989 72.225C201.259 78.3508 203 84.4264 203 101.175V130.593C203 130.973 202.771 131.315 202.42 131.46C202.069 131.606 201.665 131.525 201.397 131.257V131.253L190.31 120.145C189.43 119.263 188.936 118.068 188.936 116.822V103.225C188.936 90.6608 187.629 86.1051 185.178 81.5118C182.782 76.9755 179.078 73.2641 174.547 70.8595C170.014 68.4259 165.514 67.1207 153.276 67.0935L134.948 67.093C134.569 67.091 134.229 66.8615 134.085 66.511C133.94 66.1605 134.021 65.7577 134.289 65.4896L145.375 54.378C146.252 53.4969 147.446 53 148.691 53H154.925C171.64 53 177.704 54.7454 183.817 58.0192ZM160.813 76.4884C171.169 76.4884 179.562 84.9025 179.562 95.2791V107.176C179.56 107.551 179.335 107.888 178.991 108.035C178.646 108.182 178.247 108.111 177.975 107.852L162.859 93.3708C161.857 92.3686 160.687 91.6421 159.439 91.1869C158.38 90.7856 157.256 90.5805 156.123 90.5814H111.502C111.122 90.5811 110.78 90.3522 110.635 90.0013C110.489 89.6505 110.569 89.2466 110.838 88.978L121.941 77.8622C122.818 76.9853 124.008 76.4884 125.252 76.4884H160.813Z" fill="#E55638"/>
<path fill-rule="evenodd" clip-rule="evenodd" d="M190.535 134.468L201.626 145.58C202.503 146.461 203 147.659 203 148.904V155.155C203 171.903 201.259 177.979 197.989 184.105C194.796 190.154 189.858 195.103 183.817 198.311C177.704 201.58 171.64 203.326 154.925 203.326H125.574C125.195 203.324 124.854 203.094 124.71 202.744C124.566 202.393 124.646 201.99 124.914 201.722V201.726L136.001 190.615C136.878 189.734 138.072 189.237 139.316 189.237H152.883C165.419 189.237 169.962 187.93 174.547 185.47C179.078 183.066 182.782 179.354 185.178 174.818C187.629 170.225 188.936 165.669 188.936 153.104V135.132C188.938 134.754 189.166 134.414 189.515 134.269C189.865 134.124 190.266 134.203 190.535 134.468ZM167.101 110.976L178.192 122.1C179.069 122.981 179.562 124.175 179.562 125.424V161.059C179.562 171.436 171.169 179.85 160.813 179.85H148.941C148.566 179.848 148.228 179.624 148.081 179.279C147.934 178.934 148.006 178.535 148.265 178.263V178.259L162.713 163.105C163.715 162.103 164.441 160.934 164.897 159.681C165.296 158.62 165.499 157.495 165.498 156.361V111.64C165.498 111.26 165.727 110.918 166.078 110.772C166.429 110.627 166.833 110.707 167.101 110.976Z" fill="#F4C942"/>
<path fill-rule="evenodd" clip-rule="evenodd" d="M54.5993 125.069L65.6942 136.18C66.5711 137.061 67.068 138.26 67.068 139.504V153.1C67.068 165.665 68.3708 170.221 70.8261 174.814C73.2207 179.35 76.9233 183.061 81.4533 185.466C86.0382 187.926 90.5856 189.233 103.121 189.233H121.052C121.432 189.231 121.776 189.46 121.922 189.811C122.069 190.162 121.989 190.567 121.72 190.836L110.625 201.948C109.748 202.829 108.554 203.326 107.314 203.326H101.075C84.3596 203.326 78.3006 201.58 72.1874 198.306C66.1443 195.1 61.205 190.15 58.0109 184.101C54.774 178.036 53.035 172.021 53.0005 155.65L53 125.733C53.002 125.355 53.2302 125.015 53.5793 124.87C53.9283 124.725 54.3302 124.803 54.5993 125.069ZM78.0251 148.474H78.0209L93.1453 162.955C94.1433 163.957 95.3167 164.684 96.561 165.139C97.5883 165.531 98.7074 165.744 99.8766 165.744H144.498C144.877 165.746 145.218 165.976 145.362 166.326C145.506 166.677 145.426 167.08 145.158 167.348L134.059 178.464C133.182 179.34 131.988 179.837 130.748 179.837H95.1872C90.2092 179.832 85.4372 177.849 81.9211 174.325C78.405 170.801 76.4327 166.025 76.4383 161.047V149.15C76.4401 148.775 76.6645 148.437 77.0094 148.29C77.3542 148.143 77.7534 148.215 78.0251 148.474Z" fill="#7B8FEA"/>
<path fill-rule="evenodd" clip-rule="evenodd" d="M107.059 76.4884C107.434 76.4902 107.772 76.7147 107.919 77.0595C108.066 77.4043 107.994 77.8035 107.735 78.0752L93.2831 93.233C92.2809 94.2352 91.5585 95.4044 91.1034 96.6571C90.7029 97.718 90.4977 98.8427 90.4979 99.9768V144.699C90.4943 145.076 90.2654 145.414 89.9167 145.558C89.568 145.702 89.1671 145.623 88.8986 145.358L77.8079 134.234C76.9301 133.353 76.4376 132.159 76.4383 130.915V95.2791C76.4383 84.9025 84.8315 76.4884 95.1872 76.4884H107.059ZM130.426 53C130.805 53.002 131.146 53.2315 131.29 53.582C131.434 53.9325 131.354 54.3353 131.086 54.6035L119.999 65.715C119.118 66.5961 117.928 67.093 116.684 67.093H103.117C90.5814 67.093 86.0341 68.4 81.4491 70.8595C76.9175 73.2641 73.2135 76.9755 70.8178 81.5118C68.3924 86.0567 67.0873 90.5649 67.0601 102.831L67.0596 121.198C67.0576 121.576 66.8294 121.916 66.4803 122.061C66.1313 122.205 65.7294 122.127 65.4603 121.862L54.378 110.75C53.4961 109.869 53 108.673 53 107.426V101.175C53 84.4264 54.7413 78.3508 58.0109 72.225C61.2038 66.1759 66.1417 61.2264 72.1832 58.0192C78.2353 54.7782 84.2383 53.0351 100.573 53.0005L130.426 53Z" fill="#D97EE8"/>
</svg>