<svg width="256" height="256" title="Procure" viewBox="0 0 256 256" fill="none" xmlns="http://www.w3.org/2000/svg" id="procure">
<style>
#procure {
    rect {fill: #15191C}

    @media (prefers-color-scheme: light) {
        rect {fill: #F4F2ED}
    }
}
</style>
<rect width="256" height="256" rx="40" fill="#15191C"/>
<path d="M131.321 151.913V111.271C131.321 109.395 132.261 107.519 133.985 106.425L172.381 82.3528C176.142 80.0081 181 82.6655 181 87.1986V122.213C181 125.183 179.433 127.84 176.925 129.403L135.552 154.414C133.672 155.508 131.321 154.101 131.321 151.913Z" fill="#EA6611"/>
<path d="M125.679 208.186V166.45C125.679 164.574 124.739 162.698 123.015 161.604L82.1119 135.969C79.4478 134.249 76 136.281 76 139.251V178.955C76 180.831 76.9403 182.707 78.6642 183.801L121.448 210.531C123.328 211.781 125.679 210.374 125.679 208.186Z" fill="#EA6611"/>
<path d="M131.321 49.3705V96.5774C131.321 98.7658 133.828 100.173 135.709 98.9221L167.679 78.1323C170.343 76.4129 170.5 72.6613 167.836 70.7856L135.866 47.0258C133.985 45.619 131.321 47.0258 131.321 49.3705Z" fill="#FF9B5A"/>
<path d="M125.679 48.9016V151.913C125.679 154.101 123.172 155.508 121.291 154.257L78.6642 127.528C77.097 126.433 76 124.714 76 122.682V77.976C76 76.1003 76.9403 74.2245 78.6642 73.1303L121.448 46.4006C123.328 45.3064 125.679 46.5569 125.679 48.9016Z" fill="#FE7F2D"/>
</svg>