<svg width="256" height="256" title="Proton Wallet" viewBox="0 0 256 256" fill="none" xmlns="http://www.w3.org/2000/svg" id="protonwallet">
<style>
#protonwallet {
    rect {fill: #15191C}

    @media (prefers-color-scheme: light) {
        rect {fill: #F4F2ED}
    }
}
</style>
<rect width="256" height="256" rx="40" fill="#15191C"/>
<path fill-rule="evenodd" clip-rule="evenodd" d="M48.0003 180.126C48.0003 189.398 55.5588 196.914 64.8827 196.914L191.118 196.655C200.441 196.655 208 189.139 208 179.868V126.149C208 89.0635 177.766 59 140.471 59L64.8827 59.259C55.5588 59.259 48.0003 66.7748 48.0003 76.0461L48.0003 128.678L48 174.95L48.0003 180.126ZM48 174.95H81.3718C93.3975 174.95 103.149 164.591 103.149 151.814C103.149 139.038 93.3979 128.678 81.3718 128.678H48.0003L48 174.95ZM79.694 139.578C86.5315 139.578 92.0744 145.09 92.0744 151.889C92.0744 158.688 86.5315 164.199 79.694 164.199C72.8565 164.199 67.3136 158.688 67.3136 151.889C67.3136 145.09 72.8565 139.578 79.694 139.578Z" fill="white"/>
<path d="M64.9053 196.655C55.5814 196.655 48.0229 189.139 48.0229 179.868L48.0229 75.7872C48.0229 66.5159 55.5814 59 64.9053 59H140.471C177.766 59 208 89.0635 208 126.149V179.868C208 189.139 200.441 196.655 191.118 196.655H64.9053Z" fill="url(#linearGradient1)"/>
<path d="M64.8829 197C55.559 197 48.0006 189.484 48.0006 180.213L48.0005 81.7283H123.588C151.56 81.7283 174.235 104.276 174.235 132.09V197H64.8829Z" fill="#6D4AFF"/>
<path d="M64.8829 197C55.559 197 48.0006 189.484 48.0006 180.213L48.0005 81.7283H123.588C151.56 81.7283 174.235 104.276 174.235 132.09V197H64.8829Z" fill="url(#linearGradient2)" fill-opacity="0.9"/>
<path d="M71.9434 196.654L97.7019 167.557L48.0005 173.712V179.868C48.0005 189.139 55.559 196.654 64.8829 196.654H71.9434Z" fill="#FFBB93"/>
<path fill-rule="evenodd" clip-rule="evenodd" d="M81.3718 174.95C93.3975 174.95 103.149 164.591 103.149 151.814C103.149 139.038 93.3979 128.678 81.3718 128.678H48.0003L48 174.95H81.3718ZM92.0744 151.889C92.0744 145.09 86.5315 139.578 79.694 139.578C72.8565 139.578 67.3136 145.09 67.3136 151.889C67.3136 158.688 72.8565 164.199 79.694 164.199C86.5315 164.199 92.0744 158.688 92.0744 151.889Z" fill="white"/>
<linearGradient id="linearGradient1" x1="27.8955" y1="75.0603" x2="225.68" y2="152.36" gradientUnits="userSpaceOnUse">
<stop stop-color="#957AFD"/>
<stop offset="1" stop-color="#FFC6C6"/>
</linearGradient>
<linearGradient id="linearGradient2" x1="198.957" y1="80.1864" x2="128.707" y2="232.387" gradientUnits="userSpaceOnUse">
<stop offset="0.149916" stop-color="#FA528E" stop-opacity="0"/>
<stop offset="0.720842" stop-color="#FF8065"/>
<stop offset="1" stop-color="#FFA51F"/>
</linearGradient>
</svg>