<svg width="256" height="256" title="Proton Pass" viewBox="0 0 256 256" fill="none" xmlns="http://www.w3.org/2000/svg" id="protonpass">
<style>
#protonpass {
    rect {fill: #15191C}

    @media (prefers-color-scheme: light) {
        rect {fill: #F4F2ED}
    }
}
</style>
<rect width="256" height="256" rx="40" fill="#15191C"/>
<path d="M96.1133 68.2124C107.275 57.0511 112.855 51.4704 119.291 49.3794C124.951 47.5402 131.049 47.5402 136.709 49.3794C143.145 51.4704 148.725 57.0511 159.887 68.2124L187.787 96.1133C198.949 107.275 204.53 112.856 206.62 119.291C208.46 124.951 208.46 131.049 206.62 136.709C204.53 143.144 198.949 148.725 187.787 159.887L159.887 187.787C148.725 198.949 143.145 204.53 136.709 206.62C131.049 208.46 124.951 208.46 119.291 206.62C112.855 204.53 107.275 198.949 96.1133 187.787L90.8676 181.907C87.6933 178.348 86.1061 176.568 84.9745 174.544C83.9708 172.75 83.2344 170.818 82.7887 168.81C82.286 166.547 82.286 164.163 82.286 159.394L82.286 96.6062C82.286 91.8376 82.286 89.4532 82.7886 87.1896C83.2344 85.182 83.9708 83.2502 84.9744 81.4553C86.1061 79.4315 87.6933 77.6522 90.8676 74.0934L96.1133 68.2124Z" fill="url(#radialGradient1)"/>
<path d="M96.1133 68.2124C107.275 57.0511 112.855 51.4704 119.291 49.3794C124.951 47.5402 131.049 47.5402 136.709 49.3794C143.145 51.4704 148.725 57.0511 159.887 68.2124L187.787 96.1133C198.949 107.275 204.53 112.856 206.62 119.291C208.46 124.951 208.46 131.049 206.62 136.709C204.53 143.144 198.949 148.725 187.787 159.887L159.887 187.787C148.725 198.949 143.145 204.53 136.709 206.62C131.049 208.46 124.951 208.46 119.291 206.62C112.855 204.53 107.275 198.949 96.1133 187.787L90.8676 181.907C87.6933 178.348 86.1061 176.568 84.9745 174.544C83.9708 172.75 83.2344 170.818 82.7887 168.81C82.286 166.547 82.286 164.163 82.286 159.394L82.286 96.6062C82.286 91.8376 82.286 89.4532 82.7886 87.1896C83.2344 85.182 83.9708 83.2502 84.9744 81.4553C86.1061 79.4315 87.6933 77.6522 90.8676 74.0934L96.1133 68.2124Z" fill="url(#linearGradient)"/>
<path d="M94.1204 70.2037C99.7009 64.623 102.492 61.8327 105.709 60.7872C108.54 59.8676 111.588 59.8676 114.418 60.7872C117.636 61.8327 120.426 64.623 126.007 70.2037L167.858 112.055C173.439 117.636 176.229 120.426 177.275 123.644C178.195 126.474 178.195 129.523 177.275 132.353C176.229 135.571 173.439 138.361 167.858 143.942L126.007 185.793C120.426 191.374 117.636 194.164 114.418 195.209C111.588 196.129 108.54 196.129 105.709 195.209C102.492 194.164 99.7009 191.374 94.1204 185.793L68.2124 159.885C57.0511 148.723 51.4704 143.143 49.3794 136.708C47.5402 131.047 47.5402 124.95 49.3794 119.289C51.4704 112.854 57.0511 107.273 68.2124 96.1115L94.1204 70.2037Z" fill="url(#radialGradient2)"/>
<linearGradient id="linearGradient" x1="58.8072" y1="16.2303" x2="83.502" y2="208.082" gradientUnits="userSpaceOnUse">
<stop stop-color="#6D4AFF"/>
<stop offset="0.392009" stop-color="#B39FFB" stop-opacity="0.978022"/>
<stop offset="1" stop-color="#FFE8DB" stop-opacity="0.8"/>
</linearGradient>
<radialGradient id="radialGradient1" cx="0" cy="0" r="1" gradientUnits="userSpaceOnUse" gradientTransform="translate(65.8207 211.118) rotate(-51.6591) scale(144.634 245.474)">
<stop stop-color="#FFD580"/>
<stop offset="0.09375" stop-color="#F6C592"/>
<stop offset="0.205" stop-color="#EBB6A2"/>
<stop offset="0.324466" stop-color="#DFA5AF"/>
<stop offset="0.42875" stop-color="#D397BE"/>
<stop offset="0.53375" stop-color="#C486CB"/>
<stop offset="0.64875" stop-color="#B578D9"/>
<stop offset="0.77125" stop-color="#A166E5"/>
<stop offset="0.89125" stop-color="#8B57F2"/>
<stop offset="1" stop-color="#704CFF"/>
</radialGradient>
<radialGradient id="radialGradient2" cx="0" cy="0" r="1" gradientUnits="userSpaceOnUse" gradientTransform="translate(84.5558 194.854) rotate(-58.142) scale(107.429 167.998)">
<stop stop-color="#FFD580"/>
<stop offset="0.09375" stop-color="#F6C592"/>
<stop offset="0.205" stop-color="#EBB6A2"/>
<stop offset="0.324466" stop-color="#DFA5AF"/>
<stop offset="0.42875" stop-color="#D397BE"/>
<stop offset="0.53375" stop-color="#C486CB"/>
<stop offset="0.64875" stop-color="#B578D9"/>
<stop offset="0.77125" stop-color="#A166E5"/>
<stop offset="0.89125" stop-color="#8B57F2"/>
<stop offset="1" stop-color="#704CFF"/>
</radialGradient>
</svg>