<svg width="256" height="256" title="Proton Calendar" viewBox="0 0 256 256" fill="none" xmlns="http://www.w3.org/2000/svg" id="protoncalendar">
<style>
#protoncalendar {
    rect {fill: #15191C}

    @media (prefers-color-scheme: light) {
        rect {fill: #F4F2ED}
    }
}
</style>
<rect width="256" height="256" rx="40" fill="#15191C"/>
<path d="M65.1428 63C55.6751 63 48 70.6501 48 80.087V85.7826L53.7143 91.4783V188.304L168 131.348L173.714 137.044H208V80.087C208 70.6501 200.325 63 190.857 63H65.1428Z" fill="url(#linearGradient)"/>
<path d="M160.245 85.7826L48 85.7826V177.591C48 186.653 55.3705 194 64.4626 194H122.286L152.292 149.138C155.193 142.044 162.182 137.044 170.343 137.044L173.714 137.044V99.2082C173.714 91.7934 167.684 85.7826 160.245 85.7826Z" fill="url(#radialGradient)"/>
<path d="M122.286 194L122.286 187.875C122.286 184.476 123.505 181.19 125.723 178.61L154.598 145.021C155.196 144.205 155.856 143.437 156.572 142.725L154.598 145.021C152.246 148.23 150.858 152.187 150.858 156.465V194L122.286 194Z" fill="#B8D7FF"/>
<path d="M165.714 173.413H171.546C171.783 174.416 172.374 175.301 173.22 175.92C174.048 176.538 175.079 176.855 176.127 176.805C178.764 176.805 180.505 175.368 180.505 173.263C180.505 171.157 178.697 169.987 175.113 169.987H172.797V165.242H174.809C178.274 165.242 179.694 163.972 179.694 162.084C179.694 160.196 178.156 158.893 176.026 158.893C175.079 158.843 174.133 159.143 173.422 159.761C172.696 160.38 172.256 161.248 172.172 162.185H166.543C166.745 158.876 169.382 154.13 175.992 154.13C181.3 154.13 184.968 157.122 184.968 161.332C184.968 162.686 184.545 164.006 183.734 165.092C182.923 166.178 181.79 166.997 180.489 167.398V167.481C182.01 167.749 183.379 168.551 184.343 169.737C185.306 170.923 185.813 172.411 185.763 173.948C185.763 178.509 181.537 181.517 176.077 181.517C170.278 181.55 166.137 178.292 165.714 173.413Z" fill="#8F69FF"/>
<path d="M195.955 154.584H200.198V181.135H194.722V160.766L189.447 164.309V158.945L195.955 154.584Z" fill="#8F69FF"/>
<linearGradient id="linearGradient" x1="182.414" y1="152.533" x2="83.7987" y2="15.0402" gradientUnits="userSpaceOnUse">
<stop stop-color="#BFE8FF"/>
<stop offset="0.3075" stop-color="#BFABFF"/>
<stop offset="1" stop-color="#7341FF"/>
</linearGradient>
<radialGradient id="radialGradient" cx="0" cy="0" r="1" gradientUnits="userSpaceOnUse" gradientTransform="translate(201.881 -46.2885) scale(326.679 276.76)">
<stop offset="0.502942" stop-color="#6D4AFF"/>
<stop offset="0.9944" stop-color="#06B8FF"/>
</radialGradient>
</svg>