<svg width="256" height="256" title="Prowlarr" viewBox="0 0 256 256" fill="none" xmlns="http://www.w3.org/2000/svg">
<rect width="256" height="256" rx="40" fill="#F4F2ED"/>
<path d="M128.5 212.514C174.899 212.514 212.514 174.899 212.514 128.5C212.514 82.1005 174.899 44.4863 128.5 44.4863C82.1005 44.4863 44.4863 82.1005 44.4863 128.5C44.4863 174.899 82.1005 212.514 128.5 212.514Z" fill="#FFE6D5"/>
<path d="M70.9072 143.847L86.0146 126.107L199.389 125.731L184.657 143.847H70.9072Z" fill="#83331B"/>
<path d="M70.9072 143.847V191.493C79.5205 191.869 86.083 195.15 86.083 199.081H174.13C173.446 198.09 173.07 196.996 173.07 195.902C173.07 191.801 178.095 188.349 184.657 188.007V143.847H70.9072Z" fill="#F8A37B"/>
<path d="M136.054 151.879C137.899 150.888 140.702 147.914 138.959 144.94C138.651 144.394 138.31 144.052 138.002 143.847H145.59C144.599 146.034 141.01 148.666 141.01 148.666C141.01 148.666 140.702 149.247 139.13 150.478C138.275 151.195 136.977 151.64 136.054 151.879ZM113.598 151.776C112.675 151.332 111.308 150.614 110.351 149.589C108.744 147.88 108.437 145.692 108.437 145.692L107.309 143.881H111.854C111.547 144.086 111.239 144.428 110.932 144.975C109.223 147.812 111.786 150.683 113.598 151.776ZM134.413 150.888C133.422 150.785 131.576 150.546 129.73 149.931C126.996 149.008 125.424 146.957 125.424 146.957C125.424 146.957 122.382 148.837 118.28 149.555C116.913 149.794 116.024 149.896 115.443 149.896H115.409C115.341 148.529 115.033 147.06 115.033 147.06C115.033 147.06 114.247 144.599 113.119 143.847H136.703C135.541 144.599 134.789 147.06 134.789 147.06C134.789 147.06 134.345 149.35 134.413 150.888Z" fill="#DA845D"/>
<path d="M115.067 147.094C115.067 147.094 115.922 151.605 115.067 152.187C114.213 152.768 108.607 148.871 110.897 144.975C113.188 141.044 115.067 147.094 115.067 147.094Z" fill="#DEE6E3"/>
<path d="M134.789 147.094C134.789 147.094 133.935 151.605 134.789 152.187C135.644 152.768 141.249 148.871 138.959 144.975C136.669 141.044 134.789 147.094 134.789 147.094Z" fill="#DEE6E3"/>
<path d="M101.566 109.359C102.626 114.35 99.4131 119.237 94.4229 120.263C89.4326 121.322 84.5791 118.109 83.5195 113.119C82.46 108.129 85.6729 103.241 90.6631 102.216C95.6192 101.19 100.507 104.369 101.566 109.359Z" fill="#D4541E"/>
<path d="M97.9434 103.822C95.9267 102.353 93.2949 101.703 90.6289 102.25C85.6387 103.31 82.46 108.163 83.4853 113.153C83.7246 114.247 84.1348 115.238 84.6816 116.127C88.7832 114.726 94.9355 111.444 97.9434 103.822Z" fill="#852E1B"/>
<path d="M97.5674 110.214C98.1484 112.982 96.3711 115.717 93.6025 116.298C90.834 116.879 88.0996 115.102 87.5186 112.333C86.9375 109.564 88.7148 106.83 91.4834 106.249C94.2519 105.668 96.9863 107.445 97.5674 110.214Z" fill="white"/>
<path d="M160.629 107.65C158.476 107.65 156.493 106.283 155.775 104.164C154.887 101.498 156.322 98.627 158.988 97.7383C160.458 97.2256 167.636 94.3887 165.482 87.6895C163.944 82.8701 161.005 82.1523 152.357 81.2295C150.785 81.0586 149.11 80.8877 147.436 80.6484C141.317 79.7598 136.806 77.2305 134.037 73.1289C130.004 67.1133 131.576 60.3115 131.781 59.5254C132.465 56.791 135.233 55.1504 137.968 55.834C140.702 56.5176 142.343 59.3203 141.659 62.0205C141.659 62.0205 140.976 65.1992 142.548 67.4893C143.642 69.0615 145.761 70.1211 148.871 70.5654C150.409 70.7705 151.947 70.9414 153.451 71.1123C161.483 71.9668 171.532 73.0264 175.224 84.5791C179.154 96.8838 169.618 104.984 162.235 107.411C161.688 107.582 161.176 107.65 160.629 107.65Z" fill="#E2591E"/>
<path d="M142.548 67.4893L142.411 67.25C139.062 69.4033 134.823 69.8477 132.431 69.916C132.841 70.9756 133.354 72.0693 134.071 73.0947C134.96 74.4277 136.088 75.5898 137.353 76.6152C141.83 75.8633 145.419 72.5137 147.401 70.2578C145.077 69.7109 143.437 68.7881 142.548 67.4893Z" fill="#852E1B"/>
<path d="M153.383 81.332C157.04 81.7422 159.604 82.1523 161.415 82.9043C162.68 80.8193 164.423 77.333 165.072 73.4365C162.372 72.3428 159.467 71.8301 156.63 71.4541C156.903 73.9834 156.732 78.3584 153.383 81.332Z" fill="#852E1B"/>
<path d="M175.702 93.9443C176.283 91.6201 176.317 89.0225 175.668 86.2197C174.677 87.04 173.378 87.7578 171.737 88.2021C168.969 88.9199 167.02 88.8857 165.756 88.6807C166.303 91.415 165.209 93.4658 163.739 94.9014C168.285 96.8496 172.694 95.4824 175.702 93.9443Z" fill="#852E1B"/>
<path d="M165.79 91.2442C165.79 91.1758 165.79 91.1074 165.824 91.0733L165.858 90.8682C165.893 90.6289 165.893 90.3897 165.927 90.1504V90.0137C165.927 89.7061 165.893 89.3643 165.858 89.0225C165.79 88.6123 165.687 88.168 165.551 87.7236C165.653 88.0654 165.722 88.3731 165.79 88.6807C165.961 89.6035 165.961 90.458 165.79 91.2442ZM165.517 87.6895C164.696 85.1602 163.534 83.793 161.415 82.9043C163.534 83.793 164.73 85.1943 165.517 87.6895ZM153.383 81.332C153.075 81.2978 152.733 81.2637 152.392 81.2295C150.819 81.0586 149.145 80.8877 147.47 80.6484C147.436 80.6484 147.367 80.6484 147.333 80.6143C147.367 80.6143 147.436 80.6143 147.47 80.6484C149.179 80.8877 150.819 81.0586 152.392 81.2295C152.699 81.2637 153.041 81.2978 153.383 81.332Z" fill="#83BAD2"/>
<path d="M174.916 96.2685L173.173 95.0381C174.062 94.7305 174.916 94.3545 175.634 93.9785C175.634 93.9785 175.668 93.9785 175.668 94.0127C175.463 94.7646 175.224 95.5166 174.916 96.2685ZM167.465 88.7832C166.815 88.7832 166.234 88.7148 165.79 88.6465C165.722 88.3389 165.653 88.0312 165.551 87.6894V87.6553C164.765 85.1602 163.603 83.7588 161.449 82.8701C161.894 82.1182 162.44 81.1611 162.953 80.0674C165.517 81.0928 167.26 82.6992 168.559 85.2969C169.071 86.3564 169.276 87.4844 169.208 88.6465C168.559 88.749 167.978 88.7832 167.465 88.7832ZM153.383 81.332C153.075 81.2978 152.733 81.2637 152.392 81.2295C150.819 81.0586 149.145 80.8877 147.47 80.6484C147.436 80.6484 147.367 80.6484 147.333 80.6143L147.23 80.6143C142.685 79.9307 139.062 78.29 136.361 75.7949C136.669 76.1025 137.011 76.376 137.353 76.6494C137.899 76.5469 138.412 76.4443 138.891 76.2734C141.454 77.0937 144.701 77.8115 148.632 78.0508C151.229 78.1875 153.52 78.3584 155.536 78.5635C155.023 79.5205 154.34 80.4775 153.383 81.332Z" fill="#BA4A1F"/>
<path d="M137.318 76.6152C136.977 76.3418 136.635 76.0684 136.327 75.7607L135.507 74.9404C136.464 75.3848 137.592 75.8291 138.891 76.2393C138.378 76.4102 137.865 76.5127 137.318 76.6152Z" fill="#6F2717"/>
<path d="M161.415 82.9043C159.569 82.1182 157.006 81.7422 153.383 81.332C154.34 80.4775 155.023 79.5205 155.536 78.5293C158.578 78.8369 161.005 79.3154 162.919 80.1016C162.406 81.1953 161.894 82.1182 161.415 82.9043Z" fill="#6F2717"/>
<path d="M173.173 95.0381C170.917 93.5342 168.456 92.2354 165.79 91.2783C165.927 90.4922 165.961 89.6377 165.756 88.6807C166.234 88.749 166.781 88.8174 167.431 88.8174C167.943 88.8174 168.524 88.7832 169.174 88.7148C169.14 89.2275 169.071 89.7402 168.969 90.2529C171.361 91.2783 173.583 92.543 175.634 94.0127C174.882 94.3545 174.062 94.7305 173.173 95.0381Z" fill="#6F2717"/>
<path d="M173.651 85.3994C173.651 85.3994 169.516 79.623 164.286 76.752C164.491 76.0684 164.696 75.3848 164.867 74.667C165.722 75.0771 166.508 75.5557 167.191 76.0684C171.771 79.8281 173.651 85.3994 173.651 85.3994ZM156.732 73.6758C153.69 72.582 151.571 71.9326 151.571 71.9326C151.571 71.9326 153.827 72.001 156.732 72.4795V73.6758Z" fill="#E66733"/>
<path d="M164.252 76.7519C163.808 76.5127 163.363 76.2734 162.885 76.1025C160.663 75.1455 158.51 74.3252 156.698 73.6758C156.732 73.2656 156.732 72.8555 156.698 72.4795C159.262 72.8896 162.372 73.5391 164.799 74.7012C164.662 75.3848 164.491 76.0684 164.252 76.7519Z" fill="#94401D"/>
<path d="M117.973 101.601C117.973 101.601 131.474 85.6729 158.886 89.5352C186.264 93.3975 196.483 129.149 196.483 129.149L184.726 143.881H117.973V101.601Z" fill="#EF5D22"/>
<path d="M122.279 97.7725C125.185 96.9863 129.799 96.3369 136.942 96.8154C154.237 98.0117 176.693 125.731 176.693 125.731C176.693 125.731 166.747 94.0811 135.063 91.2441C129.389 93.0898 125.116 95.6533 122.279 97.7725Z" fill="#852E1B"/>
<path d="M176.488 139.369H172.592C171.532 136.361 166.132 122.211 157.519 114.794C150.409 108.676 140.121 101.566 127.27 100.917C127.919 100.883 128.568 100.883 129.218 100.883C138.48 100.883 146.479 104.301 153.007 108.471C153.041 108.334 153.041 108.231 153.075 108.095C153.349 106.796 153.896 105.6 154.613 104.574C159.774 108.3 164.628 112.743 168.422 116.605C167.499 117.494 166.371 118.178 165.175 118.622C171.601 126.347 175.6 136.84 176.488 139.369ZM170.575 113.529C167.943 109.496 164.32 105.019 159.535 101.156L159.945 101.054L160.116 101.02C160.355 100.951 160.595 100.917 160.834 100.883L161.039 100.849C161.278 100.814 161.518 100.814 161.757 100.814H162.03C162.27 100.814 162.475 100.814 162.714 100.849H162.953C163.261 100.883 163.603 100.917 163.91 100.985C168.9 102.045 172.079 106.898 171.054 111.889C170.951 112.401 170.78 112.914 170.609 113.393L170.575 113.461C170.609 113.495 170.609 113.495 170.575 113.529Z" fill="#C74D1F"/>
<path d="M168.456 116.674C164.628 112.812 159.809 108.334 154.647 104.643C155.229 103.856 155.912 103.173 156.698 102.592C156.937 102.421 157.211 102.25 157.484 102.079C157.758 101.942 157.997 101.806 158.271 101.669L158.305 101.635C158.578 101.532 158.817 101.43 159.091 101.327L159.193 101.293C159.296 101.259 159.433 101.225 159.535 101.19C164.32 105.053 167.909 109.496 170.575 113.563C170.37 114.042 170.165 114.486 169.892 114.896C169.481 115.512 169.003 116.127 168.456 116.674Z" fill="#6F2717"/>
<path d="M149.145 108.129C148.085 113.119 151.298 117.973 156.288 119.032C161.278 120.092 166.166 116.879 167.191 111.889C168.217 106.898 165.038 102.045 160.048 100.985C155.092 99.96 150.204 103.139 149.145 108.129Z" fill="#D4541E"/>
<path d="M152.768 102.558C154.784 101.088 157.416 100.438 160.082 100.985C165.072 102.045 168.251 106.898 167.226 111.889C166.986 112.982 166.576 113.974 166.029 114.862C161.928 113.495 155.775 110.18 152.768 102.558Z" fill="#852E1B"/>
<path d="M153.144 108.949C152.563 111.718 154.34 114.452 157.108 115.033C159.877 115.614 162.611 113.837 163.192 111.068C163.773 108.3 161.996 105.565 159.228 104.984C156.459 104.403 153.725 106.181 153.144 108.949Z" fill="white"/>
<path d="M82.5625 143.847L78.0508 139.232C78.0508 139.232 92.4746 109.872 112.367 103.104C132.226 96.3027 147.846 106.488 157.519 114.828C167.191 123.134 172.797 139.95 172.797 139.95L169.242 143.847H82.5625Z" fill="#F46A2F"/>
<path d="M105.429 114.862C105.429 114.862 121.698 102.045 124.877 102.045C128.056 102.045 143.607 113.29 143.607 113.29L141.044 116.4C141.044 116.4 127.475 105.395 124.877 105.395C122.279 105.395 109.53 116.4 109.53 116.4L105.429 114.862Z" fill="#852E1B"/>
<path d="M113.495 119.784C113.495 119.784 122.86 111.854 125.526 111.854C128.192 111.854 137.113 118.759 137.113 118.759L134.687 123.476C134.687 123.476 127.611 115.819 125.526 115.819C123.441 115.819 115.478 122.963 115.478 122.963L113.495 119.784Z" fill="#852E1B"/>
<path d="M78.0508 139.232L90.6289 135.028C90.6289 135.028 86.6299 121.938 98.3193 115.683C110.009 109.428 115.204 115.854 116.811 119.579C118.417 123.305 118.417 133.148 118.417 133.148H132.362C132.362 133.148 132.226 118.485 138.207 114.315C144.223 110.111 153.246 109.564 156.767 117.357C160.287 125.185 156.767 131.952 156.767 131.952L172.729 139.916L169.174 143.812H82.5625L78.0508 139.232Z" fill="white"/>
<path d="M115.067 125.731C115.067 128.808 112.572 131.269 109.53 131.269C106.454 131.269 103.993 128.773 103.993 125.731C103.993 122.655 106.488 120.194 109.53 120.194C112.606 120.194 115.067 122.689 115.067 125.731Z" fill="#FDDD04"/>
<path d="M113.495 125.731C113.495 127.919 111.718 129.696 109.53 129.696C107.343 129.696 105.565 127.919 105.565 125.731C105.565 123.544 107.343 121.767 109.53 121.767C111.718 121.767 113.495 123.544 113.495 125.731Z" fill="#391913"/>
<path d="M108.71 123.271C108.71 124.159 107.992 124.911 107.069 124.911C106.146 124.911 105.429 124.193 105.429 123.271C105.429 122.382 106.146 121.63 107.069 121.63C107.992 121.63 108.71 122.382 108.71 123.271Z" fill="white"/>
<path d="M146.615 125.731C146.615 128.808 144.12 131.269 141.078 131.269C138.002 131.269 135.541 128.773 135.541 125.731C135.541 122.655 138.036 120.194 141.078 120.194C144.12 120.194 146.615 122.689 146.615 125.731Z" fill="#FDDD04"/>
<path d="M145.009 125.731C145.009 127.919 143.231 129.696 141.044 129.696C138.856 129.696 137.079 127.919 137.079 125.731C137.079 123.544 138.856 121.767 141.044 121.767C143.231 121.767 145.009 123.544 145.009 125.731Z" fill="#391913"/>
<path d="M140.224 123.271C140.224 124.159 139.506 124.911 138.583 124.911C137.694 124.911 136.942 124.193 136.942 123.271C136.942 122.382 137.66 121.63 138.583 121.63C139.472 121.63 140.224 122.382 140.224 123.271Z" fill="white"/>
<path d="M184.691 143.847H173.139L176.693 139.95C176.693 139.95 176.625 139.745 176.488 139.369H184.657L195.424 126.107C196.107 127.953 196.415 129.115 196.415 129.115L184.691 143.847Z" fill="#C74D1F"/>
<path d="M173.139 143.847H169.242L172.797 139.95C172.797 139.95 172.729 139.745 172.592 139.369H176.488C176.625 139.745 176.693 139.95 176.693 139.95L173.139 143.847Z" fill="#A33F1E"/>
<path d="M172.797 139.95L171.669 139.369H172.592C172.729 139.745 172.797 139.95 172.797 139.95Z" fill="#DE581D"/>
<path d="M169.242 143.847H82.5625L78.1533 139.369H171.635L172.763 139.95L169.242 143.847Z" fill="#D5D0CD"/>
<path d="M116.776 131.747C116.776 131.747 111.479 133.114 109.53 138.139C107.582 143.163 110.214 146.82 114.657 147.846C119.066 148.871 125.424 145.556 125.424 145.556C125.424 145.556 130.653 150.648 136.942 149.384C143.231 148.119 145.282 140.907 142.24 136.566C139.198 132.226 131.713 131.747 131.713 131.747C131.713 131.747 120.331 134.994 116.776 131.747Z" fill="white"/>
<path d="M125.424 145.556C125.424 145.556 125.697 145.795 126.142 146.171V138.139C126.142 137.797 125.868 137.523 125.526 137.523C125.185 137.523 124.911 137.797 124.911 138.139V145.795C125.219 145.658 125.424 145.556 125.424 145.556Z" fill="#A6B9B5"/>
<path d="M132.328 137.284C132.328 137.284 136.43 132.465 133.764 130.38C131.098 128.295 128.603 131.884 125.253 131.576C121.938 131.269 118.451 128.671 117.016 131.029C115.58 133.388 119.169 136.225 119.169 136.225C119.169 136.225 120.023 133.729 122.143 134.926C124.296 136.122 122.484 138.651 122.484 138.651C122.484 138.651 124.057 139.677 125.355 139.882C126.654 140.087 128.637 138.446 128.637 138.446C128.637 138.446 127.611 135.575 129.799 134.481C132.021 133.354 132.328 137.284 132.328 137.284Z" fill="#852E1B"/>
<path d="M91.6201 122.382C91.6201 122.382 88.4756 126.449 88.749 132.499C88.9883 138.515 97.6699 143.881 97.6699 143.881L94.2519 138.583C93.3974 137.25 93.7051 135.507 94.9355 134.516L100.233 130.312C100.233 130.312 93.0898 132.602 91.9277 130.893C90.6972 129.149 91.6201 122.382 91.6201 122.382Z" fill="#852E1B"/>
<path d="M157.382 118.759C157.382 118.759 156.903 124.057 155.605 126.688C154.306 129.32 149.794 128.124 149.794 128.124C149.794 128.124 154.818 130.688 154.818 132.294C154.818 133.9 151.435 138.993 151.435 138.993C151.435 138.993 162.44 132.055 157.382 118.759Z" fill="#852E1B"/>
<path d="M91.5176 143.847C91.5176 143.847 89.2959 142.206 87.8945 139.882C86.4932 137.558 86.0146 136.156 86.0146 136.156C86.0146 136.156 85.8437 139.198 86.6982 141.249C87.5527 143.3 88.2363 143.847 88.2363 143.847H91.5176Z" fill="#852E1B"/>
<path d="M158.988 143.847C158.988 143.847 161.039 142.172 162.851 138.993C164.628 135.849 165.277 131.713 165.277 131.713C165.277 131.713 166.132 137.66 165.551 140.189C164.97 142.753 164.081 143.812 164.081 143.812L158.988 143.847Z" fill="#852E1B"/>
<path d="M167.328 91.8936C164.696 90.7656 161.894 89.9453 158.852 89.501C156.322 89.1592 153.93 88.9541 151.64 88.9199C156.151 89.9795 165.482 92.8848 172.899 99.7207C183.085 109.086 187.05 117.665 187.05 117.665C187.05 117.665 180.932 100.78 167.328 91.8936Z" fill="#852E1B"/>
<path d="M173.651 103.31C173.651 103.31 180.282 108.539 184.247 118.759C188.212 128.979 188.109 131.713 188.109 131.713L171.225 110.59L182.436 120.878C182.401 120.878 181.957 114.862 173.651 103.31Z" fill="#852E1B"/>
<path d="M199.389 125.731L184.657 143.847L184.657 185.785C185.751 184.315 187.084 183.529 188.451 183.529C189.75 183.529 191.015 184.247 192.074 185.58L199.355 172.353V125.731H199.389Z" fill="#F6854F"/>
<path d="M168.729 160.731H175.292V155.16H178.266L172.011 148.051L165.756 155.16H168.729V160.731Z" fill="#852E1B"/>
<path d="M165.756 162.406V164.56H178.266V162.406H165.756Z" fill="#852E1B"/>
<path d="M167.807 95.79C164.696 94.6621 160.39 93.5 155.604 93.3975C154.989 93.3975 154.34 93.3633 153.725 93.3633C151.161 93.3633 148.563 93.4658 146.137 93.6367C144.872 93.1924 143.539 92.7822 142.172 92.4746C145.214 91.791 148.974 91.1758 153.007 91.1758C154.066 91.1758 155.16 91.21 156.288 91.3125C157.826 91.4492 159.262 91.6543 160.595 91.9277C162.885 92.9189 165.38 94.1836 167.807 95.79Z" fill="#F06C34"/>
<path d="M134.652 94.7988C134.652 94.7988 137.592 93.5 142.138 92.4746C143.505 92.8164 144.838 93.1924 146.103 93.6367C139.813 94.0469 134.652 94.7988 134.652 94.7988Z" fill="#94401D"/>
<path d="M172.797 98.0117C172.797 98.0117 170.917 96.918 167.807 95.79C165.38 94.1836 162.885 92.9189 160.561 91.9277C169.071 93.6709 172.797 98.0117 172.797 98.0117Z" fill="#94401D"/>
<path fill-rule="evenodd" clip-rule="evenodd" d="M128.5 41C80.1699 41 41 80.1699 41 128.5C41 176.83 80.1699 216 128.5 216C176.83 216 216 176.83 216 128.5C216 80.1699 176.83 41 128.5 41ZM128.5 58.5C167.157 58.5 198.5 89.8428 198.5 128.5C198.5 167.157 167.157 198.5 128.5 198.5C89.8428 198.5 58.5 167.157 58.5 128.5C58.5 89.8428 89.8428 58.5 128.5 58.5Z" fill="#E66001"/>
<path d="M142.548 67.4893C140.976 65.1992 141.659 62.0205 141.659 62.0205C142.343 59.2861 140.702 56.5176 137.968 55.834C135.233 55.1504 132.465 56.791 131.781 59.5254C131.61 60.2432 130.141 66.6006 133.627 72.4453C136.327 71.9326 140.326 70.7705 143.163 68.207C142.924 67.9678 142.719 67.7285 142.548 67.4893Z" fill="white"/>
</svg>