<svg width="256" height="256" title="Proxmox" viewBox="0 0 256 256" fill="none" xmlns="http://www.w3.org/2000/svg" id="proxmox">
<style>
#proxmox {
    rect {fill: #15191C}
    path.switch {fill: #F4F2ED}

    @media (prefers-color-scheme: light) {
        rect {fill: #F4F2ED}
        path.switch {fill: #15191C}
    }
}
</style>
<rect width="256" height="256" rx="40" fill="#15191C"/>
<path d="M167.497 128.333L208 172.842C203.549 177.441 197.318 180.261 190.491 180.261C183.222 180.261 176.843 177.145 172.392 172.249L149.99 147.622L132.483 128.333L149.99 109.194L172.392 84.5652C176.843 79.6703 183.222 76.5529 190.491 76.5529C197.318 76.5529 203.549 79.372 208 83.8232L167.497 128.333Z" fill="#E57000"/>
<path d="M88.5026 128.333L48 172.841C52.451 177.44 58.6821 180.261 65.5085 180.261C72.7775 180.261 79.1566 177.144 83.6077 172.248L106.01 147.621L123.517 128.333L106.01 109.193L83.6077 84.5647C79.1566 79.6697 72.7775 76.5525 65.5085 76.5525C58.6821 76.5525 52.451 79.3715 48 83.8227L88.5026 128.333Z" fill="#E57000"/>
<path d="M143.959 150.402L127.98 132.797L112 150.402L75.0309 191.028C79.0932 195.09 84.7821 197.663 91.0091 197.663C97.6451 197.663 103.198 194.954 107.395 190.351L127.98 167.871L148.427 190.351C152.49 194.818 158.312 197.663 164.947 197.663C171.177 197.663 176.865 195.09 180.927 191.028L143.959 150.402Z" class="switch" fill="#F4F2ED"/>
<path d="M143.958 106.261L127.979 123.867L111.999 106.261L75.0299 65.6354C79.0923 61.5729 84.7811 59 91.0081 59C97.6442 59 103.197 61.7091 107.394 66.3126L127.979 88.792L148.426 66.3126C152.489 61.8452 158.311 59 164.946 59C171.176 59 176.864 61.5729 180.926 65.6354L143.958 106.261Z" class="switch" fill="#F4F2ED"/>
</svg>