<svg width="256" height="256" title="Psycopg" viewBox="0 0 256 256" fill="none" xmlns="http://www.w3.org/2000/svg" id="psycopg">
<style>
#psycopg {
    rect {fill: #15191C}

    @media (prefers-color-scheme: light) {
        rect {fill: #F4F2ED}
    }
}
</style>
<rect width="256" height="256" rx="40" fill="#15191C"/>
<path d="M163.646 120.479C164.392 114.642 164.143 113.773 168.614 114.766H169.608C172.961 115.015 177.307 114.27 179.916 113.152C185.38 110.544 188.609 106.321 183.269 107.439C170.85 109.923 169.98 105.7 169.98 105.7C183.02 86.3263 188.609 61.6121 183.765 55.6508C170.974 39.1333 148.619 46.9574 148.247 47.2058H148.122C145.639 46.709 142.906 46.3364 139.801 46.3364C134.213 46.3364 129.866 47.8267 126.761 50.1864C126.761 50.1864 87.0199 33.793 88.7585 70.8023C89.2553 78.7506 100.06 130.414 113.1 114.766C117.819 109.053 122.415 104.334 122.415 104.334C124.65 105.824 127.382 106.57 130.239 106.321L130.487 106.073C130.391 106.815 130.391 107.566 130.487 108.308C127.258 112.034 128.252 112.655 121.545 114.145C114.839 115.387 118.813 117.871 121.297 118.616C124.526 119.361 131.729 120.479 136.697 113.649L136.448 114.394C137.814 115.511 137.69 121.969 137.939 126.565C138.063 131.284 138.435 135.631 139.305 138.114C140.298 140.598 141.416 147.305 150.234 145.442C157.561 143.827 163.15 141.592 163.646 120.479Z" fill="#FFC836" stroke="black" stroke-width="7.41549"/>
<path d="M117.819 103.837C117.819 103.047 118.133 102.289 118.692 101.73C119.251 101.171 120.01 100.857 120.8 100.857C121.591 100.857 122.349 101.171 122.908 101.73C123.467 102.289 123.781 103.047 123.781 103.837C123.781 105.452 122.415 106.818 120.8 106.818C119.186 106.818 117.819 105.576 117.819 103.837Z" fill="#FFFF00"/>
<path d="M93.3536 136.376C92.6085 142.213 92.8569 143.082 88.3859 142.089H87.5166C84.1634 141.84 79.8167 142.585 77.2086 143.703C71.7442 146.311 68.5152 150.534 73.8555 149.416C86.2747 146.932 87.144 151.155 87.144 151.155C74.1038 170.529 68.5152 195.243 73.3587 201.204C86.1505 217.722 108.505 209.897 108.878 209.649H109.002C111.486 210.146 114.218 210.518 117.323 210.518C122.911 210.518 127.258 209.028 130.363 206.668C130.363 206.668 170.104 223.062 168.366 186.053C167.869 178.104 157.064 126.44 144.024 142.089C139.305 147.801 134.71 152.521 134.71 152.521C132.408 150.978 129.644 150.276 126.885 150.534L126.637 150.782C126.733 150.04 126.733 149.289 126.637 148.547C129.866 144.821 128.873 144.2 135.579 142.71C142.285 141.468 138.311 138.984 135.827 138.239C132.598 137.493 125.395 136.376 120.428 143.206L120.676 142.461C119.31 141.343 119.434 134.885 119.186 130.29C119.061 125.571 118.689 121.224 117.819 118.74C116.826 116.257 115.708 109.55 106.891 111.413C99.5632 113.028 93.9746 115.263 93.4778 136.376" fill="#336791"/>
<path d="M93.3536 136.376C92.6085 142.213 92.8569 143.082 88.3859 142.089H87.5166C84.1634 141.84 79.8167 142.585 77.2086 143.703C71.7442 146.311 68.5152 150.534 73.8555 149.416C86.2747 146.932 87.144 151.155 87.144 151.155C74.1038 170.529 68.5152 195.243 73.3587 201.204C86.1505 217.722 108.505 209.897 108.878 209.649H109.002C111.486 210.146 114.218 210.518 117.323 210.518C122.911 210.518 127.258 209.028 130.363 206.668C130.363 206.668 170.104 223.062 168.366 186.053C167.869 178.104 157.064 126.44 144.024 142.089C139.305 147.801 134.71 152.521 134.71 152.521C132.408 150.978 129.644 150.276 126.885 150.534L126.637 150.782C126.733 150.04 126.733 149.289 126.637 148.547C129.866 144.821 128.873 144.2 135.579 142.71C142.285 141.468 138.311 138.984 135.827 138.239C132.598 137.493 125.395 136.376 120.428 143.206L120.676 142.461C119.31 141.343 119.434 134.885 119.186 130.29C119.061 125.571 118.689 121.224 117.819 118.74C116.826 116.257 115.708 109.55 106.891 111.413C99.5632 113.028 93.9746 115.263 93.4778 136.376" stroke="black" stroke-width="7.41549"/>
<path d="M73.8555 149.54C86.2747 146.932 87.0198 151.155 87.0198 151.155C73.9797 170.529 68.391 195.243 73.2345 201.204C86.0263 217.722 108.381 209.897 108.753 209.649H108.878C111.361 210.146 114.094 210.518 117.199 210.518C122.787 210.518 127.134 209.028 130.239 206.668C130.239 206.668 169.98 223.062 168.241 186.053C167.745 178.104 156.94 126.44 143.9 142.089C139.181 147.801 134.585 152.521 134.585 152.521C132.284 150.978 129.52 150.276 126.761 150.534L126.513 150.782C126.609 150.04 126.609 149.289 126.513 148.547C129.742 144.821 128.748 144.2 135.455 142.71C142.285 141.468 138.187 138.984 135.703 138.239C132.474 137.493 125.271 136.376 120.303 143.206L120.552 142.461C119.186 141.343 118.316 135.631 118.44 130.414C118.565 125.074 118.689 121.473 117.695 118.74C116.702 116.008 115.584 109.55 106.766 111.413C99.439 113.028 95.5891 117.126 95.0923 123.832C94.7197 128.8 93.8504 128.055 93.8504 132.402L93.1052 134.389C92.3601 140.971 93.1052 143.082 88.5101 142.089H87.3924C84.0392 141.84 79.6925 142.585 77.0845 143.703C71.62 146.311 68.391 150.534 73.7313 149.416L73.8555 149.54Z" fill="#336791"/>
<path d="M119.807 145.814C120.055 133.395 119.682 121.224 118.565 118.244C117.323 115.263 114.839 109.426 105.897 111.289C98.5697 112.903 95.9617 115.884 94.7198 122.59C93.8504 127.558 92.2359 141.343 91.9875 144.2M130.363 206.917C130.363 206.917 170.104 223.062 168.241 186.177C167.869 178.228 157.064 126.565 144.024 142.213C139.305 147.926 134.958 152.396 134.958 152.396M108.753 209.897C110.244 209.401 86.6473 218.467 73.2345 201.328C68.5152 195.367 73.9797 170.653 87.144 151.279" fill="#336791"/>
<path d="M119.807 145.814C120.055 133.395 119.682 121.224 118.565 118.244C117.323 115.263 114.839 109.426 105.897 111.289C98.5697 112.903 95.9617 115.884 94.7198 122.59C93.8504 127.558 92.2359 141.343 91.9875 144.2M130.363 206.917C130.363 206.917 170.104 223.062 168.241 186.177C167.869 178.228 157.064 126.565 144.024 142.213C139.305 147.926 134.958 152.396 134.958 152.396M108.753 209.897C110.244 209.401 86.6473 218.467 73.2345 201.328C68.5152 195.367 73.9797 170.653 87.144 151.279" stroke="#FFC836" stroke-width="2.47712" stroke-linecap="round" stroke-linejoin="round"/>
<path d="M87.144 151.279C87.144 151.279 86.2747 147.056 73.8555 149.54C68.391 150.658 71.7442 146.311 77.2087 143.827C81.8038 141.716 91.8633 141.095 92.1117 144.076C92.4843 151.527 86.7715 149.292 87.144 151.155C87.5166 152.769 90.1246 154.508 91.7391 158.606C93.2294 162.208 112.231 189.902 86.5231 185.804C85.6537 185.928 93.2294 210.146 117.199 210.643C141.292 211.015 140.422 181.085 140.422 181.085" fill="#336791"/>
<path d="M87.144 151.279C87.144 151.279 86.2747 147.056 73.8555 149.54C68.391 150.658 71.7442 146.311 77.2087 143.827C81.8038 141.716 91.8633 141.095 92.1117 144.076C92.4843 151.527 86.7715 149.292 87.144 151.155C87.5166 152.769 90.1246 154.508 91.7391 158.606C93.2294 162.208 112.231 189.902 86.5231 185.804C85.6537 185.928 93.2294 210.146 117.199 210.643C141.292 211.015 140.422 181.085 140.422 181.085" stroke="#FFC836" stroke-width="2.47712" stroke-linecap="round" stroke-linejoin="bevel"/>
<path d="M126.513 148.671C129.866 144.945 128.873 144.324 135.579 142.958C142.285 141.468 138.311 138.984 135.703 138.363C132.598 137.618 125.271 136.5 120.427 143.33C118.937 145.442 120.427 148.795 122.415 149.664C123.408 150.037 124.898 150.658 126.513 148.671Z" fill="#336791" stroke="#FFC836" stroke-width="2.47712" stroke-linecap="round" stroke-linejoin="round"/>
<path d="M126.761 148.795C127.01 150.906 126.016 153.514 124.898 156.619C123.16 161.214 119.186 165.809 122.415 180.34C124.65 191.269 140.422 182.575 140.422 181.209C140.422 179.719 139.801 173.758 140.671 166.679C141.913 157.613 134.958 149.913 126.761 150.782" fill="#336791"/>
<path d="M126.761 148.795C127.01 150.906 126.016 153.514 124.898 156.619C123.16 161.214 119.186 165.809 122.415 180.34C124.65 191.269 140.422 182.575 140.422 181.209C140.422 179.719 139.801 173.758 140.671 166.679C141.913 157.613 134.958 149.913 126.761 150.782" stroke="#FFC836" stroke-width="2.47712" stroke-linecap="round" stroke-linejoin="round"/>
<path d="M130.487 181.333C130.487 180.836 129.494 179.595 128.252 179.346C127.01 179.222 125.768 180.216 125.768 180.712C125.768 181.209 126.637 181.83 128.003 181.954C129.245 182.203 130.487 181.954 130.487 181.333Z" fill="#FFC836" stroke="#FFC836" stroke-width="0.825708"/>
<path d="M91.2423 182.451C91.1181 181.954 92.1117 180.588 93.3536 180.34C94.5955 180.216 95.8374 181.209 95.8374 181.706C95.8374 182.203 94.9681 182.824 93.602 182.948C92.2359 183.072 91.1181 182.948 91.1181 182.451H91.2423Z" fill="#FFC836" stroke="#FFC836" stroke-width="0.412854"/>
<path d="M86.523 185.928C86.2746 181.954 87.3924 179.222 87.5166 175.124C87.7649 168.914 84.6601 161.959 89.2552 155.005" fill="#336791"/>
<path d="M86.523 185.928C86.2746 181.954 87.3924 179.222 87.5166 175.124C87.7649 168.914 84.6601 161.959 89.2552 155.005" stroke="#FFC836" stroke-width="2.47712" stroke-linecap="round" stroke-linejoin="round"/>
<path d="M183.144 107.315C170.725 109.923 169.98 105.7 169.98 105.7C183.02 86.3263 188.609 61.6121 183.765 55.6508C170.974 39.1333 148.619 46.9574 148.246 47.2058H148.122C145.638 46.709 142.906 46.3364 139.801 46.3364C134.213 46.3364 129.866 47.8267 126.761 50.1864C126.761 50.1864 87.0198 33.793 88.7585 70.8023C89.2552 78.7506 100.06 130.414 113.1 114.766C117.819 109.053 122.415 104.21 122.415 104.21C124.65 105.824 127.382 106.57 130.239 106.321L130.487 106.073C130.391 106.815 130.391 107.566 130.487 108.308C127.258 112.034 128.252 112.655 121.545 114.145C114.715 115.387 118.689 117.871 121.297 118.616C124.526 119.361 131.729 120.479 136.697 113.649L136.448 114.394C137.814 115.511 138.684 121.224 138.56 126.44C138.435 131.781 138.311 135.382 139.305 138.114C140.298 140.847 141.416 147.305 150.234 145.442C157.561 143.827 161.411 139.729 161.908 133.023C162.28 128.055 163.15 128.8 163.15 124.453L163.895 122.466C164.64 115.884 163.895 113.773 168.49 114.766H169.608C172.961 115.015 177.307 114.27 179.915 113.152C185.38 110.544 188.609 106.321 183.269 107.439L183.144 107.315Z" fill="#FFC836"/>
<path d="M163.646 120.479C164.391 114.642 164.143 113.773 168.614 114.766H169.608C172.961 115.015 177.307 114.27 179.915 113.152C185.38 110.544 188.609 106.321 183.269 107.439C170.849 109.923 169.98 105.7 169.98 105.7C183.02 86.3263 188.609 61.6121 183.765 55.6508C170.974 39.1333 148.619 46.9574 148.246 47.2058H148.122C145.638 46.709 142.906 46.3364 139.801 46.3364C134.213 46.3364 129.866 47.8267 126.761 50.1864C126.761 50.1864 87.0198 33.793 88.7585 70.8023C89.2552 78.7506 100.06 130.414 113.1 114.766C117.819 109.053 122.415 104.334 122.415 104.334C124.65 105.824 127.382 106.57 130.239 106.321L130.487 106.073C130.391 106.815 130.391 107.566 130.487 108.308C127.258 112.034 128.252 112.655 121.545 114.145C114.839 115.387 118.813 117.871 121.297 118.616C124.526 119.361 131.729 120.479 136.697 113.649L136.448 114.394C137.814 115.511 137.69 121.969 137.939 126.565C138.063 131.284 138.435 135.631 139.305 138.114C140.298 140.598 141.416 147.305 150.234 145.442C157.561 143.827 163.15 141.592 163.646 120.479Z" fill="#FFC836"/>
<path d="M126.637 49.938C126.637 49.938 86.8956 33.793 88.7585 70.6781C89.1311 78.6264 99.9358 130.29 112.976 114.642C117.695 108.929 122.042 104.458 122.042 104.458M137.193 111.041C136.945 123.46 137.318 135.631 138.435 138.611C139.677 141.592 142.161 147.429 151.103 145.566C158.43 143.951 161.038 140.971 162.28 134.14C163.15 129.173 164.764 115.511 164.888 112.655M148.246 46.9574C146.756 47.4542 170.353 38.3881 183.765 55.5267C188.485 61.4879 183.02 86.2021 169.856 105.576" fill="#FFC836"/>
<path d="M126.637 49.938C126.637 49.938 86.8956 33.793 88.7585 70.6781C89.1311 78.6264 99.9358 130.29 112.976 114.642C117.695 108.929 122.042 104.458 122.042 104.458M137.193 111.041C136.945 123.46 137.318 135.631 138.435 138.611C139.677 141.592 142.161 147.429 151.103 145.566C158.43 143.951 161.038 140.971 162.28 134.14C163.15 129.173 164.764 115.511 164.888 112.655M148.246 46.9574C146.756 47.4542 170.353 38.3881 183.765 55.5267C188.485 61.4879 183.02 86.2021 169.856 105.576" stroke="#336791" stroke-width="2.47712" stroke-linecap="round" stroke-linejoin="round"/>
<path d="M169.856 105.576C169.856 105.576 170.725 109.799 183.145 107.315C188.609 106.197 185.256 110.544 179.791 113.028C175.196 115.139 165.137 115.76 164.888 112.779C164.516 105.328 170.229 107.563 169.856 105.7C169.483 104.086 166.875 102.347 165.261 98.2487C163.771 94.523 144.769 66.9523 170.477 71.0507C171.346 70.9265 163.771 46.709 139.801 46.2123C115.708 45.8397 116.578 75.77 116.578 75.77" fill="#FFC836"/>
<path d="M169.856 105.576C169.856 105.576 170.725 109.799 183.145 107.315C188.609 106.197 185.256 110.544 179.791 113.028C175.196 115.139 165.137 115.76 164.888 112.779C164.516 105.328 170.229 107.563 169.856 105.7C169.483 104.086 166.875 102.347 165.261 98.2487C163.771 94.523 144.769 66.9523 170.477 71.0507C171.346 70.9265 163.771 46.709 139.801 46.2123C115.708 45.8397 116.578 75.77 116.578 75.77" stroke="#336791" stroke-width="2.47712" stroke-linecap="round" stroke-linejoin="bevel"/>
<path d="M130.487 108.184C127.134 111.91 128.127 112.531 121.421 113.897C114.715 115.387 118.689 117.871 121.297 118.492C124.402 119.237 131.729 120.355 136.572 113.524C138.063 111.413 136.572 108.06 134.585 107.191C133.592 106.818 132.102 106.197 130.487 108.184Z" fill="#FFC836" stroke="#336791" stroke-width="2.47712" stroke-linecap="round" stroke-linejoin="round"/>
<path d="M130.239 108.06C129.99 105.949 130.984 103.341 132.102 100.236C133.84 95.6407 137.814 91.0456 134.585 76.5151C132.35 65.5862 116.578 74.1555 116.578 75.6458C116.578 77.1361 117.199 83.0973 116.329 90.1763C115.087 99.2423 122.042 106.942 130.239 106.073" fill="#FFC836"/>
<path d="M130.239 108.06C129.99 105.949 130.984 103.341 132.102 100.236C133.84 95.6407 137.814 91.0456 134.585 76.5151C132.35 65.5862 116.578 74.1555 116.578 75.6458C116.578 77.1361 117.199 83.0973 116.329 90.1763C115.087 99.2423 122.042 106.942 130.239 106.073" stroke="#336791" stroke-width="2.47712" stroke-linecap="round" stroke-linejoin="round"/>
<path d="M126.513 75.5216C126.513 76.0183 127.506 77.2603 128.748 77.5086C129.99 77.6328 131.232 76.6393 131.232 76.1425C131.232 75.6458 130.363 75.0248 128.997 74.9006C127.755 74.6522 126.513 74.9006 126.513 75.5216Z" fill="#336791" stroke="#336791" stroke-width="0.825708"/>
<path d="M165.758 74.4039C165.882 74.9006 164.888 76.2667 163.646 76.5151C162.404 76.6393 161.162 75.6458 161.162 75.149C161.162 74.6522 162.032 74.0313 163.398 73.9071C164.764 73.7829 165.882 73.9071 165.882 74.4039H165.758Z" fill="#336791" stroke="#336791" stroke-width="0.412854"/>
<path d="M170.477 70.9265C170.725 74.9006 169.608 77.6328 169.483 81.7312C169.235 87.9408 172.34 94.8955 167.745 101.85" fill="#FFC836"/>
<path d="M170.477 70.9265C170.725 74.9006 169.608 77.6328 169.483 81.7312C169.235 87.9408 172.34 94.8955 167.745 101.85" stroke="#336791" stroke-width="2.47712" stroke-linecap="round" stroke-linejoin="round"/>
<path d="M115.832 99.8632H124.029V107.812H115.832V99.8632Z" fill="#FFC836" stroke="#336791" stroke-width="0.603402" stroke-linecap="round" stroke-linejoin="round"/>
<path d="M119.807 145.814C120.055 133.395 119.682 121.224 118.565 118.244C117.323 115.263 114.839 109.426 105.897 111.289C98.5697 112.903 95.9617 115.884 94.7198 122.59C93.8504 127.558 92.2359 141.343 91.9875 144.2" fill="#336791"/>
<path d="M119.807 145.814C120.055 133.395 119.682 121.224 118.565 118.244C117.323 115.263 114.839 109.426 105.897 111.289C98.5697 112.903 95.9617 115.884 94.7198 122.59C93.8504 127.558 92.2359 141.343 91.9875 144.2" stroke="#FFC836" stroke-width="2.47712" stroke-linecap="round" stroke-linejoin="round"/>
<path d="M125.644 139.48H153.09V157.364H125.644V139.48Z" fill="#336791"/>
<path d="M105.897 106.073H130.86V117.499H105.897V106.073Z" fill="#FFC836"/>
<path d="M128.127 95.6407C125.395 95.6407 122.911 95.8891 120.676 96.2616C114.094 97.5036 112.852 99.9874 112.852 104.334V110.295H128.5V112.282H107.015C104.738 112.24 102.519 113.001 100.748 114.432C98.9761 115.863 97.7653 117.872 97.3278 120.107C95.9143 125.275 95.9573 130.733 97.452 135.879C98.6939 140.474 101.178 143.827 105.773 143.827H111.113V136.748C111.176 134.199 112.217 131.771 114.02 129.968C115.823 128.165 118.251 127.124 120.8 127.061H136.324C140.671 127.061 144.024 123.46 144.024 119.113V104.334C144.024 100.112 140.547 97.0068 136.324 96.2616C133.655 95.8297 130.955 95.622 128.252 95.6407H128.127Z" stroke="#FFC836" stroke-width="1.5879"/>
<path d="M145.887 112.282V119.113C145.888 121.706 144.875 124.196 143.065 126.052C141.255 127.908 138.792 128.984 136.2 129.048H120.676C116.453 129.048 112.852 132.65 112.852 136.872V151.776C112.852 155.874 116.578 158.358 120.676 159.6C125.731 161.175 131.145 161.175 136.2 159.6C140.05 158.358 143.9 156.122 143.9 151.651V145.814H128.5V143.827H151.848C156.319 143.827 158.058 140.598 159.548 135.879C161.163 131.035 161.163 126.44 159.548 120.107C158.43 115.636 156.319 112.282 151.848 112.282H145.887Z" stroke="#336791" stroke-width="2.38185"/>
<path d="M128.127 95.6407C125.395 95.6407 122.911 95.8891 120.676 96.2616C114.094 97.5036 112.852 99.9874 112.852 104.334V110.295H128.5V112.282H107.015C104.738 112.24 102.519 113.001 100.748 114.432C98.9761 115.863 97.7653 117.872 97.3278 120.107C95.9143 125.275 95.9573 130.733 97.452 135.879C98.6939 140.474 101.178 143.827 105.773 143.827H111.113V136.748C111.176 134.199 112.217 131.771 114.02 129.968C115.823 128.165 118.251 127.124 120.8 127.061H136.324C140.671 127.061 144.024 123.46 144.024 119.113V104.334C144.024 100.112 140.547 97.0068 136.324 96.2616C133.655 95.8297 130.955 95.622 128.252 95.6407H128.127Z" stroke="#FFC836" stroke-width="2.38185"/>
<path d="M145.887 112.282V119.113C145.888 121.706 144.875 124.196 143.065 126.052C141.255 127.908 138.792 128.984 136.2 129.048H120.676C116.453 129.048 112.852 132.65 112.852 136.872V151.776C112.852 155.874 116.578 158.358 120.676 159.6C125.731 161.175 131.145 161.175 136.2 159.6C140.05 158.358 143.9 156.122 143.9 151.651V145.814H128.5V143.827H151.848C156.319 143.827 158.058 140.598 159.548 135.879C161.163 131.035 161.163 126.44 159.548 120.107C158.43 115.636 156.319 112.282 151.848 112.282H145.887Z" stroke="#336791" stroke-width="1.5879"/>
<path d="M128.127 95.6407C125.395 95.6407 122.911 95.8891 120.676 96.2616C114.094 97.5036 112.852 99.9874 112.852 104.334V110.295H128.5V112.282H107.015C104.738 112.24 102.519 113.001 100.748 114.432C98.9761 115.863 97.7653 117.872 97.3278 120.107C95.9143 125.275 95.9573 130.733 97.452 135.879C98.6939 140.474 101.178 143.827 105.773 143.827H111.113V136.748C111.176 134.199 112.217 131.771 114.02 129.968C115.823 128.165 118.251 127.124 120.8 127.061H136.324C140.671 127.061 144.024 123.46 144.024 119.113V104.334C144.024 100.112 140.547 97.0068 136.324 96.2616C133.655 95.8297 130.955 95.622 128.252 95.6407H128.127ZM119.682 100.484C121.297 100.484 122.539 101.726 122.539 103.465C122.539 105.079 121.297 106.321 119.682 106.321C118.068 106.321 116.826 105.079 116.826 103.465C116.826 101.726 118.068 100.484 119.682 100.484Z" fill="#336791"/>
<path d="M145.887 112.282V119.113C145.888 121.706 144.875 124.196 143.065 126.052C141.255 127.908 138.792 128.984 136.2 129.048H120.676C116.453 129.048 112.852 132.65 112.852 136.872V151.776C112.852 155.874 116.578 158.358 120.676 159.6C125.731 161.175 131.145 161.175 136.2 159.6C140.05 158.358 143.9 156.122 143.9 151.651V145.814H128.5V143.827H151.848C156.319 143.827 158.058 140.598 159.548 135.879C161.163 131.035 161.163 126.44 159.548 120.107C158.43 115.636 156.319 112.282 151.848 112.282H145.887ZM137.193 149.54C138.808 149.54 140.05 150.906 140.05 152.521C140.05 154.135 138.808 155.501 137.193 155.501C135.579 155.501 134.213 154.259 134.213 152.521C134.213 150.906 135.455 149.54 137.193 149.54Z" fill="#FFC836"/>
<path d="M144.893 110.792H145.763V111.537H144.893V110.792Z" fill="#336791"/>
</svg>

