<svg width="256" height="256" title="Pull" viewBox="0 0 256 256" fill="none" xmlns="http://www.w3.org/2000/svg" id="pull">
<style>
#pull {
    rect {fill: #15191C}
    path {fill: white}

    @media (prefers-color-scheme: light) {
        rect {fill: #F4F2ED}
        path {fill: #212121}
    }
}
</style>
<rect width="256" height="256" rx="40" fill="#15191C"/>
<path d="M149.333 177.97C149.331 181.626 150.292 185.218 152.119 188.385C153.947 191.553 156.576 194.183 159.742 196.013C162.909 197.842 166.502 198.806 170.159 198.807C173.817 198.809 177.41 197.847 180.578 196.02C183.746 194.193 186.377 191.564 188.207 188.398C190.036 185.232 190.999 181.64 191 177.984C191 174.328 190.038 170.736 188.21 167.569C186.381 164.403 183.751 161.773 180.583 159.945V91.8624C184.555 89.5701 187.659 86.0318 189.414 81.7962C191.169 77.5606 191.477 72.8644 190.29 68.4361C189.103 64.0077 186.488 60.0946 182.849 57.3037C179.211 54.5128 174.753 53 170.167 53C165.581 53 161.123 54.5128 157.484 57.3037C153.846 60.0946 151.23 64.0077 150.043 68.4361C148.856 72.8644 149.164 77.5606 150.919 81.7962C152.674 86.0318 155.778 89.5701 159.75 91.8624V159.945C156.585 161.772 153.956 164.399 152.127 167.563C150.299 170.727 149.335 174.316 149.333 177.97ZM170.167 188.383C168.106 188.383 166.092 187.772 164.379 186.628C162.666 185.484 161.331 183.857 160.543 181.954C159.755 180.052 159.548 177.958 159.95 175.938C160.352 173.918 161.344 172.063 162.801 170.606C164.258 169.15 166.114 168.158 168.134 167.756C170.155 167.355 172.25 167.561 174.153 168.349C176.056 169.137 177.683 170.472 178.828 172.184C179.972 173.897 180.583 175.91 180.583 177.97C180.583 180.731 179.486 183.38 177.532 185.333C175.579 187.286 172.929 188.383 170.167 188.383ZM170.167 63.4247C172.227 63.4247 174.241 64.0355 175.954 65.1797C177.667 66.3239 179.002 67.9502 179.79 69.853C180.579 71.7557 180.785 73.8495 180.383 75.8694C179.981 77.8894 178.989 79.7448 177.532 81.2011C176.076 82.6574 174.219 83.6492 172.199 84.051C170.178 84.4528 168.084 84.2466 166.18 83.4584C164.277 82.6703 162.65 81.3356 161.506 79.6232C160.361 77.9107 159.75 75.8974 159.75 73.8379C159.75 71.0762 160.847 68.4275 162.801 66.4747C164.754 64.5218 167.404 63.4247 170.167 63.4247Z" fill="white"/>
<path d="M76.4167 91.8624V158.445C76.4253 166.382 79.5833 173.992 85.1977 179.605C90.8122 185.217 98.4245 188.374 106.365 188.383H112.875V198.796C112.875 199.825 113.181 200.831 113.754 201.687C114.326 202.543 115.139 203.21 116.091 203.604C117.042 203.998 118.089 204.101 119.099 203.9C120.109 203.699 121.037 203.204 121.765 202.476L142.598 181.65C143.574 180.674 144.123 179.35 144.123 177.97C144.123 176.589 143.574 175.265 142.598 174.289L121.765 153.463C121.037 152.735 120.109 152.24 119.099 152.039C118.089 151.838 117.042 151.941 116.091 152.335C115.139 152.729 114.326 153.396 113.754 154.252C113.181 155.108 112.875 156.114 112.875 157.143V167.556H106.365C103.947 167.556 101.629 166.596 99.9196 164.888C98.2103 163.179 97.25 160.861 97.25 158.445V91.8624C101.222 89.5702 104.326 86.0318 106.081 81.7962C107.836 77.5606 108.144 72.8644 106.957 68.4361C105.77 64.0077 103.154 60.0946 99.5159 57.3037C95.8774 54.5128 91.4195 53 86.8333 53C82.2472 53 77.7892 54.5128 74.1508 57.3037C70.5124 60.0946 67.8969 64.0077 66.7099 68.4361C65.5229 72.8644 65.8308 77.5606 67.5858 81.7962C69.3409 86.0318 72.445 89.5702 76.4167 91.8624ZM86.8333 63.4248C88.8936 63.4248 90.9075 64.0355 92.6205 65.1797C94.3335 66.3239 95.6687 67.9502 96.4571 69.853C97.2455 71.7557 97.4518 73.8495 97.0498 75.8694C96.6479 77.8894 95.6558 79.7448 94.199 81.2011C92.7422 82.6574 90.8862 83.6492 88.8655 84.051C86.8449 84.4528 84.7504 84.2466 82.847 83.4584C80.9437 82.6703 79.3168 81.3356 78.1722 79.6232C77.0276 77.9107 76.4167 75.8974 76.4167 73.8379C76.4167 71.0762 77.5141 68.4275 79.4676 66.4747C81.4211 64.5219 84.0707 63.4248 86.8333 63.4248Z" fill="white"/>
</svg>