<svg width="256" height="256" title="Pydantic" viewBox="0 0 256 256" fill="none" xmlns="http://www.w3.org/2000/svg">
<rect width="256" height="256" rx="40" fill="#E92063"/>
<path d="M211.769 166.047L181.805 124.616L133.305 57.5418C130.842 54.1527 125.149 54.1527 122.699 57.5418L74.2135 124.602L44.2356 166.047C43.0178 167.741 42.678 169.902 43.3152 171.879C43.9666 173.856 45.5101 175.409 47.4926 176.059L125.956 201.674C125.956 201.674 125.956 201.674 125.97 201.675C126.622 201.887 127.301 202 127.995 202C128.689 202 129.369 201.887 130.02 201.675C130.02 201.675 130.02 201.675 130.034 201.675L208.498 176.059C210.48 175.409 212.038 173.87 212.675 171.879C213.327 169.902 212.987 167.741 211.755 166.047H211.769ZM128.009 72.4958L159.46 115.988L130.049 106.386C129.822 106.315 129.581 106.33 129.355 106.273C129.128 106.217 128.902 106.188 128.675 106.16C128.448 106.132 128.236 106.047 128.009 106.047C127.783 106.047 127.57 106.132 127.344 106.16C127.103 106.188 126.891 106.217 126.664 106.273C126.438 106.315 126.197 106.315 125.984 106.386L96.7571 115.932L96.573 115.988L128.024 72.4958H128.009ZM83.5736 133.95L117.814 122.766L121.467 121.58V186.494L60.0813 166.442L83.5736 133.95ZM134.552 186.48V121.58L172.445 133.95L195.938 166.428L134.552 186.48Z" fill="white"/>
</svg>