<svg width="256" height="256" title="Pygame" viewBox="0 0 256 256" fill="none" xmlns="http://www.w3.org/2000/svg" id="pygame">
<style>
#pygame {
    rect {fill: #15191C}

    @media (prefers-color-scheme: light) {
        rect {fill: #F4F2ED}
    }
}
</style>
<rect width="256" height="256" rx="40" fill="#15191C"/>
<path fill-rule="evenodd" clip-rule="evenodd" d="M202.047 138.124C202.137 137.896 202.536 136.762 202.746 134.891C202.925 133.286 202.928 126.949 202.746 125.307C202.463 122.756 200.75 114.783 200.75 114.783L226.741 118.016C226.741 118.016 225.314 119.477 224.841 120.277C224.141 121.46 222.914 123.39 222.205 125.074C221.242 127.363 220.299 131.228 219.22 134.196C217.965 137.652 216.283 143.005 214.829 145.999C213.728 148.267 211.957 150.812 210.492 152.163C209.289 153.272 207.438 153.681 205.874 153.926C204.31 154.171 201.089 153.959 192.068 150.984C189.116 150.01 173.703 151.117 170.205 151.863C166.87 152.574 164.506 153.389 164.362 153.425C153.399 156.13 145.409 152.529 143.455 152.48C140.256 152.399 127.737 155.652 122.724 155.889C116.304 156.191 116.731 155.721 107.676 152.758C102.754 151.148 101.582 149.698 96.4306 149.288C88.9944 148.695 79.7367 152.336 76.437 153.092C71.9973 154.109 64.559 154.342 61.1207 152.48C58.6074 151.118 57.5008 149.055 53.8011 150.552C52.2377 151.184 50.1969 153.096 49.5734 154.112C48.9947 155.744 48.4848 155.717 48.4419 154.112C48.3838 151.942 49.8737 149.493 52.0907 147.877C52.988 147.204 55.5777 146.322 58.5972 147.074C60.9306 147.655 66.6028 147.623 71.2209 147.074C75.1502 146.608 81.7415 144.541 85.7146 142.178C91.4305 138.779 97.9518 139.524 99.6483 139.648C102.429 139.851 113.758 144.005 119.616 144.232C125.732 144.469 135.427 140.937 138.861 140.517C146.227 139.615 157.094 141.28 164.045 139.637C170.371 138.141 180.806 138.009 186.701 137.936C193.926 137.846 200.038 143.207 202.047 138.124Z" fill="#AA910D" stroke="black" stroke-width="0.6" stroke-miterlimit="1.5" stroke-linecap="round" stroke-linejoin="round"/>
<path fill-rule="evenodd" clip-rule="evenodd" d="M219.763 121.365L226.563 117.963C226.563 117.963 225.135 119.425 224.662 120.224C223.963 121.408 222.736 123.337 222.027 125.022C221.064 127.311 220.121 131.175 219.042 134.143C217.786 137.6 216.105 142.952 214.65 145.947C213.548 148.214 211.939 150.609 210.473 151.961C209.271 153.07 207.87 153.226 206.472 153.53C204.346 153.994 201.131 153.047 201.131 153.047C203.262 152.826 205.645 151.828 206.492 150.867C207.956 149.207 209.872 146.394 212.605 140.467C213.522 138.476 214.237 135.942 214.89 134.362C216.123 131.376 216.814 127.314 217.837 124.945C218.4 123.642 219.763 121.365 219.763 121.365Z" fill="#DCBC00"/>
<path fill-rule="evenodd" clip-rule="evenodd" d="M195.773 149.567C196.115 149.261 197.448 149.272 197.448 149.272C197.448 149.272 197.382 149.333 197.353 149.366C195.9 151.025 202.675 155.704 209.849 152.486C206.307 156.279 194.609 155.155 191.32 154.74C191.289 154.757 191.272 154.766 191.272 154.766C191.272 154.766 183.304 155.731 182.418 155.639C181.133 155.506 178.336 154.984 176.093 153.527C172.035 150.89 167.038 152.769 165.209 153.338C164.796 153.467 164.774 153.509 164.445 153.585C161.24 154.323 156.066 155.159 151.752 154.357C150.899 154.198 149.211 154.013 148.648 153.888C146.242 156.432 142.301 157.023 140.258 155.821C136.351 153.519 133.642 154.256 130.151 154.675L130.183 154.656C129.873 154.763 129.594 154.86 129.581 154.869C124.791 158.266 116.35 156.785 112.04 154.487C111.773 154.345 109.581 154.425 108.853 154.357C106.848 154.169 104.672 154.306 103.794 154.869C101.702 156.211 98.0774 156.481 94.0606 156.223C90.2276 155.976 88.7911 154.438 88.1954 154.03C85.4312 152.134 82.5012 152.277 80.6384 153.585C79.1795 154.609 75.669 155.579 75.0191 155.639C71.6416 155.951 66.8905 156.467 63.2531 155.639C58.4306 154.541 55.111 151.953 55.0924 151.937C54.9205 151.787 54.7391 151.878 54.0634 152.128C52.6648 152.634 51.6859 153.299 51.0741 154.138C49.9379 155.729 49.5883 156.008 48.889 155.903C47.8751 155.729 47.7178 155.449 47.7352 153.806C47.7527 152.547 47.8227 152.215 48.3645 151.061C48.9589 149.768 49.8048 149.034 50.0777 148.789C50.1265 148.745 50.2078 148.668 50.2525 148.631C50.3336 148.565 50.7245 148.159 51.3013 147.792L52.624 147.024C52.624 147.024 54.2125 146.111 55.0924 146.086C60.5887 145.929 61.1948 152.324 85.602 146.086C93.275 144.125 101.573 147.41 109.337 147.151C117.929 146.865 131.875 145.231 137.586 145.191C139.671 145.176 146.823 144.872 152.955 147.574C153.671 147.89 156.346 147.699 156.583 147.374C160.005 142.684 166.19 144.893 171.076 145.098C176.035 145.307 180.707 146.463 186.341 148.624C187.38 149.022 194.963 148.837 195.773 149.567ZM48.6793 153.631C48.6353 151.988 49.763 150.135 51.4412 148.911C52.1204 148.402 52.624 148.105 52.624 148.105C52.624 148.105 52.6754 148.402 52.6998 148.492C52.8245 148.949 52.8572 148.999 53.0495 149.366C53.2418 149.715 53.4738 150.234 53.4738 150.234C53.4738 150.234 53.032 150.502 52.56 150.799C51.5286 151.446 49.9655 152.803 49.5358 153.631C48.9318 154.794 48.7118 154.846 48.6793 153.631Z" fill="black"/>
<path fill-rule="evenodd" clip-rule="evenodd" d="M81.2226 153.186C79.1869 154.672 75.8136 155.59 73.3467 156.081C68.9679 156.952 64.4058 156.472 60.167 155.164C55.4111 153.696 50.8659 148.372 52.9611 143.203C53.302 142.363 54.5042 140.98 55.2045 140.216C55.5216 139.88 55.7213 139.666 55.7213 139.666C55.7213 139.666 55.5109 139.882 55.2045 140.216C54.2829 141.194 52.3697 143.205 51.4781 144.018C49.2172 146.08 46.0793 146.67 43.1377 146.9L43.2251 149.033C43.251 149.662 43.305 150.299 43.2067 150.92C42.9743 152.389 41.2033 152.733 40.3054 153.573C39.9083 153.944 39.7607 154.524 39.3927 154.924C37.9631 156.479 35.7347 156.825 33.733 156.812C31.88 156.795 30.9535 156.707 29.9396 156.445C29.216 156.254 28.4241 155.992 27.8818 155.433C27.341 154.875 27.0583 154.026 26.8805 153.298C26.3451 151.105 26.0224 149.373 25.7792 147.128C25.6743 146.166 25.4996 144.75 25.4121 143.981C25.1324 141.831 24.9226 134.716 25.0275 131.22C25.0832 129.244 25.0752 127.416 25.6475 125.478C26.0757 124.028 27.5484 122.484 28.9615 121.493C30.3335 119.547 33.1942 117.792 35.3923 117.167C37.1995 116.653 39.6406 116.459 41.4921 116.394C44.4472 116.29 47.2015 116.673 50.311 117.358C52.7231 117.889 54.3132 118.906 56.3708 120.26C58.5473 117.944 62.1813 115.553 65.623 117.188C66.3921 117.555 67.9794 119.072 68.1714 120.434C68.424 122.228 67.1041 125.696 67.1391 125.801C67.2614 126.116 67.3677 126.596 68.837 126.959C70.0226 127.251 69.5161 126.711 69.4035 125.304C69.307 124.099 69.48 123.623 69.8731 123.057C70.5338 122.104 71.2137 121.955 72.6693 120.634C74.0309 119.398 74.3138 118.511 77.282 117.007C78.0879 116.599 80.3398 115.75 81.5153 116.269C82.9417 116.898 83.3588 117.489 84.0688 118.264C84.8265 119.093 85.9088 121.382 86.0613 121.237C87.2853 120.07 88.1696 118.391 89.7594 117.795C91.2803 117.235 96.2273 117.445 99.7759 118.214C100.471 118.365 100.86 118.258 100.86 118.258C100.86 118.258 101.134 117.56 101.507 117.27C102.444 116.542 105.475 116.658 106.786 116.956C107.695 117.183 108.614 118.261 108.919 119.263C109.376 120.771 110.125 124.577 110.125 124.577C110.125 124.577 111.908 122.337 112.869 121.693C116.672 119.147 121.165 117.896 125.634 117.169C127.94 116.794 131.925 116.58 134.581 120.434C136.676 123.476 136.95 124.936 137.232 125.218C137.315 125.301 138.903 123.794 139.633 122.794C140.492 121.617 142.386 120.018 143.793 119.351C145.094 118.734 146.992 118.669 148.076 118.791C148.928 118.882 149.936 119.246 150.673 119.674C151.631 120.231 152.589 121.44 152.716 121.693C152.823 121.908 153.26 120.238 154.002 119.263C154.726 118.313 156.387 117.501 157.357 117.27C161.924 116.185 166.369 117.124 169.306 121.237C169.856 122.006 171.371 124.577 171.371 124.577C171.371 124.577 174.769 121.271 176.138 120.07C176.996 119.317 179.409 117.997 180.509 117.654C188.226 115.245 196.093 119.627 199.963 126.434C201.461 129.069 201.596 132.217 201.867 135.144C201.959 136.147 202.035 136.436 201.281 137.199C201.102 137.381 200.13 137.745 200.255 137.819C200.43 137.923 201.48 138.253 201.769 138.564C202.434 139.283 202.141 141.391 201.906 142.187C200.929 145.49 199.526 147.945 196.061 151.651C193.3 154.604 191.357 155.363 187.163 155.874C184.681 156.176 181.796 155.631 179.774 155.164C178.026 154.76 176.059 153.141 174.73 151.938C172.343 149.775 171.131 145.923 171.075 145.511C170.122 150.081 164.477 156.336 159.384 152.437C157.076 150.67 156.425 146.859 156.203 145.168C156.069 144.144 156.54 141.441 156.151 141.235C155.763 141.024 155.478 141.561 155.318 141.781C154.741 142.57 154.624 142.916 153.79 143.472C153.314 143.782 153.415 144.461 153.388 144.923C153.359 145.43 152.854 149.643 151.418 151.65C149.925 153.737 145.012 155.085 143.393 154.521C138.946 152.971 137.569 145.337 137.569 145.337C137.569 145.337 136.947 153.959 127.04 155.433C122.62 156.091 115.84 154.435 113.571 153.186C109.77 151.095 109.495 149.707 109.337 148.633C108.31 152.693 106.53 153.746 103.671 154.945C102.01 155.641 97.1112 156.279 94.654 156.279C92.662 156.279 90.8092 155.764 88.9278 154.569C86.6652 153.132 85.454 151.247 85.5606 147.165C84.7856 150.348 83.2582 151.7 81.2226 153.186ZM96.7693 143.229C96.6978 143.097 96.6447 142.956 96.5933 142.815C96.4613 142.452 96.9795 142.317 97.2313 142.298C97.374 142.288 97.5182 142.301 97.6608 142.288C97.8135 142.273 98.272 142.164 98.3522 142.176C98.4773 142.194 98.5122 142.352 98.5133 142.452C98.5151 142.637 98.474 142.899 98.392 143.067C98.2449 143.368 97.8867 143.439 97.5908 143.492C97.0664 143.562 96.9266 143.527 96.7693 143.229ZM185.258 141.831C185.075 141.762 184.456 141.522 184.528 141.399C184.612 141.259 185.437 141.287 185.69 141.28C186.191 141.268 187.222 141.243 187.356 141.376C187.431 141.452 187.231 141.73 187.163 141.814C186.832 142.198 186.272 142.216 185.258 141.831ZM43.6797 132.129C43.6797 131.185 43.4 130.835 42.2463 130.381C42.0348 130.295 41.818 130.22 41.5967 130.164C41.4305 130.122 41.2594 130.095 41.0881 130.088C40.9896 130.084 40.8875 130.097 40.7958 130.133C40.5294 130.238 40.6859 130.606 40.7434 130.769C40.9434 131.336 41.2584 131.877 41.7217 132.269C42.2811 132.758 42.928 133.038 43.3476 133.003C43.6447 132.968 43.6971 132.846 43.6797 132.129ZM96.3589 130.614C96.3589 130.452 96.2898 130.181 96.2303 130.032C95.9755 129.392 95.9332 129.326 95.5504 128.755C95.4507 128.606 95.2418 128.472 95.0634 128.578C94.8522 128.702 94.8081 128.981 94.8606 129.201C94.9863 129.725 95.2134 130.263 95.6614 130.593C95.7298 130.644 96.0438 130.759 96.1278 130.768C96.2198 130.778 96.3589 130.727 96.3589 130.614Z" fill="#000100"/>
<path d="M183.527 151.585C179.209 150.572 175.888 148.526 173.755 145.554C172.829 144.243 171.77 142.082 171.588 141.481C170.915 139.264 171.518 130.731 171.745 129.612C172.829 124.385 176.15 120.539 181.08 118.844C182.531 118.354 182.863 118.302 184.768 118.302C189.034 118.319 192.198 119.718 195.572 123.126C196.9 124.455 197.407 125.119 197.827 126.028C198.124 126.675 198.543 127.479 198.753 127.811C199.33 128.755 199.889 131.307 200.012 133.58C200.099 135.328 200.082 135.643 199.82 135.888C199.12 136.604 196.428 136.901 190.799 136.901C187.041 136.919 181.325 136.657 181.028 136.482C180.958 136.429 180.73 136.499 180.556 136.639C180.276 136.831 180.223 137.076 180.241 138.073C180.276 139.489 180.521 140.03 181.569 141.027C182.583 141.988 183.283 142.39 184.926 142.915C186.709 143.509 187.583 143.509 188.439 142.915C189.279 142.355 189.593 141.953 190.275 140.73C190.904 139.541 191.201 139.401 193.334 139.279C194.208 139.209 195.642 139.087 196.533 138.982C198.596 138.719 200.029 138.842 200.344 139.261C201.043 140.223 199.646 144.105 198.246 145.991C196.717 148.051 193.62 150.688 191.166 151.62C188.786 152.525 185.503 152.04 183.527 151.585ZM190.153 130.398C191.376 129.777 191.394 129.384 190.328 128.387C189.873 127.985 188.964 127.356 188.3 127.006C186.639 126.132 185.433 126.115 183.982 126.936C182.356 127.845 181.377 129.052 181.797 129.628C182.129 130.083 183.143 130.625 183.912 130.765C184.367 130.852 185.765 130.905 187.006 130.87C189.016 130.835 189.384 130.782 190.153 130.398Z" fill="#6AF02A"/>
<path d="M183.527 151.585C179.21 150.572 175.888 148.526 173.755 145.554C172.829 144.243 171.858 142.305 171.588 141.448C171.451 141.012 171.389 140.479 171.369 140.164C171.369 140.164 172.101 139.896 172.474 139.547C172.88 139.167 173.409 138.355 173.742 138.269C174.48 138.077 175.147 140.249 175.298 140.34C175.448 140.431 177.012 140.484 177.167 140.305C177.934 139.416 179.162 138.675 179.687 139.391C180.003 139.822 180.405 140.576 180.863 140.765C181.029 140.833 181.242 140.753 181.242 140.753C181.242 140.753 181.664 141.116 181.694 141.144C182.643 142.022 183.351 142.412 184.926 142.915C186.709 143.509 187.583 143.509 188.439 142.915C189.077 142.49 189.411 142.156 189.834 141.484C189.968 141.271 190.908 141.638 192.242 141.012C194.186 140.1 194.372 139.358 195.039 139.84C195.821 140.407 196.15 140.224 197.24 140.279C199.082 140.373 199.244 138.862 199.877 139.061C200.087 139.127 200.265 139.156 200.344 139.261C201.043 140.223 199.646 144.105 198.246 145.992C196.717 148.051 193.62 150.688 191.166 151.62C188.786 152.525 185.503 152.04 183.527 151.585Z" fill="#C1FD20"/>
<path d="M199.418 129.626C199.463 129.803 198.365 128.747 197.267 128.996C195.044 129.499 195.377 130.437 194.487 130.586C193.416 130.766 192.632 128.691 192.523 129.177C192.352 129.937 191.994 130.743 190.884 129.949C190.822 129.904 191.238 129.77 191.04 129.251C190.676 128.297 187.511 126.092 185.704 126.344C183.707 126.624 181.436 128.604 181.738 129.522C181.871 129.927 181.821 130.664 180.842 130.625C179.089 130.578 178.98 128.804 177.718 129.005C176.532 129.194 175.869 130.988 175.106 131.619C174.637 132.006 174.22 130.101 172.927 130.085C172.392 130.079 172.173 130.504 171.936 130.725C171.804 130.848 171.64 130.822 171.644 130.749C171.675 130.194 171.709 129.79 171.745 129.612C172.829 124.385 176.15 120.539 181.08 118.844C182.531 118.354 182.863 118.302 184.769 118.302C189.034 118.319 192.198 119.718 195.572 123.126C196.9 124.455 197.407 125.119 197.827 126.028C198.124 126.675 198.544 127.479 198.753 127.811C198.988 128.194 199.218 128.841 199.418 129.626Z" fill="#08DF1C"/>
<path d="M171.396 130.503C171.616 132.238 171.593 133.613 171.48 136.418C171.365 139.29 170.977 141.896 170.871 142.303C170.329 144.436 169.665 145.764 168.668 146.743C167.34 148.019 166.239 148.421 164.648 148.177C163.949 148.072 163.686 147.897 162.673 146.901C161.239 145.467 160.627 144.261 160.487 142.583C160.365 141.324 160.505 140.188 161.326 135.975C161.554 134.734 161.816 132.968 161.868 132.024C161.991 130.416 161.973 130.276 161.536 129.42C160.75 127.864 159.876 127.864 159.596 129.437C159.229 131.482 157.76 137.076 157.393 137.863C156.554 139.646 155.261 140.065 153.932 139.017C153.268 138.492 151.852 136.464 149.842 133.23C149.404 132.496 148.74 131.57 148.391 131.15C147.814 130.486 147.726 130.433 147.482 130.678C147.132 131.028 146.804 132.728 147.272 134.209C147.482 134.874 149.387 138.475 149.807 138.999C150.034 139.279 150.803 140.765 151.485 142.233C152.254 143.876 152.079 146.726 151.1 148.666C150.576 149.697 149.422 150.851 148.513 151.253C147.464 151.725 145.227 151.795 144.248 151.358C143.356 150.974 141.713 149.278 141.049 148.089C139.598 145.502 138.479 141.621 138.164 138.125C137.587 131.919 139.178 125.137 141.8 122.497C143.251 121.046 145.349 120.12 147.237 120.12C148.286 120.12 148.548 120.19 149.527 120.784C150.139 121.134 150.96 121.815 151.362 122.287C152.429 123.563 152.617 123.966 153.041 123.966C153.464 123.966 153.723 123.007 154.095 121.914C154.436 120.914 154.382 120.369 155.138 119.613C156.624 118.127 161.309 117.585 163.879 118.581C166.431 119.578 168.931 122.55 170.154 126.011C170.609 127.287 171.199 128.962 171.396 130.503Z" fill="#6AF02A"/>
<path d="M160.688 139.458C160.727 139.214 161.434 140.465 162.504 140.971C162.733 141.079 163.997 139.202 165.725 139.196C166.359 139.194 166.82 139.292 167.987 140.955C168.213 141.277 168.992 141.337 170.034 140.965C170.879 140.664 171.194 140.096 171.185 140.176C171.056 141.295 170.926 142.093 170.871 142.303C170.329 144.436 169.665 145.764 168.668 146.743C167.34 148.019 166.239 148.421 164.648 148.177C163.949 148.072 163.686 147.897 162.673 146.901C161.239 145.467 160.627 144.261 160.487 142.583C160.409 141.774 160.438 141.015 160.688 139.458Z" fill="#C1FD20"/>
<path d="M141.049 148.089C139.988 146.198 138.579 140.967 138.579 140.967C139.305 141.284 139.701 141.424 140.11 141.106C140.584 140.737 140.951 139.305 141.619 139.592C142.155 139.824 142.832 141.155 143.29 141.372C143.984 141.701 144.482 140.11 145.161 140.064C146.629 139.965 147.542 140.362 148.067 139.509C148.453 138.882 149.224 139.221 149.325 139.305C149.789 139.691 149.88 141.001 150.576 141.148C150.83 141.202 150.882 140.976 150.882 140.976C150.882 140.976 151.286 141.805 151.485 142.233C152.254 143.876 152.079 146.726 151.1 148.666C150.576 149.697 149.422 150.851 148.513 151.253C147.464 151.725 145.226 151.795 144.248 151.358C143.356 150.974 141.713 149.278 141.049 148.089Z" fill="#C1FD20"/>
<path d="M171.098 128.98C171.109 129.029 170.637 129.297 170.481 129.48C169.904 130.153 170.31 131.441 169.734 131.771C169.229 132.06 168.825 131.688 168.745 131.617C168.003 130.957 167.265 129.118 165.642 129.216C164.291 129.297 163.48 130.845 162.577 130.661C162.021 130.548 161.615 129.574 161.536 129.42C161.089 128.535 160.696 128.225 160.301 128.279C160.176 128.296 159.88 128.467 159.699 129.012C159.682 129.111 159.374 128.777 159.2 128.98C158.595 129.689 158.415 129.261 158.305 129.403C157.905 129.919 157.532 129.928 157.123 129.849C156.649 129.757 156.332 128.955 156.332 128.955C156.245 129.767 156.197 131.123 155.006 130.244C154.321 129.738 153.821 129.036 153.028 129.007C151.835 128.965 150.553 129.688 150.534 130.252C150.488 131.567 149.905 131.572 149.794 131.568C149.133 131.544 148.372 130.453 148.115 130.122C147.802 129.72 146.341 128.497 145.864 128.739C144.193 129.588 145.404 130.566 144.645 131.584C144.445 131.851 143.783 131.934 143.285 131.627C142.535 131.166 141.915 130.145 141.872 130.1C141.416 129.617 141.076 129.615 140.669 129.394C140.38 129.237 140.094 128.933 140.01 128.624C139.944 128.382 138.876 128.586 138.876 128.586C138.876 128.586 139.549 126.282 139.985 125.312C140.507 124.149 141.119 123.183 141.8 122.497C143.251 121.046 145.349 120.12 147.237 120.12C148.286 120.12 148.548 120.19 149.527 120.784C150.139 121.134 150.96 121.815 151.362 122.287C152.429 123.563 152.608 123.966 153.041 123.966C153.473 123.966 153.723 123.009 154.105 121.886C154.445 120.89 154.402 120.349 155.138 119.613C156.624 118.127 161.309 117.585 163.879 118.581C166.431 119.578 168.931 122.55 170.154 126.011C170.609 127.287 170.731 127.31 171.098 128.98Z" fill="#08DF1C"/>
<path d="M123.498 152.092C121.837 151.918 119.477 151.376 118.166 150.851C113.149 148.893 110.422 146.324 109.863 143.002C109.408 140.363 110.107 138.3 112.467 135.171C113.149 134.279 115.107 132.793 116.54 132.094C117.642 131.552 118.044 131.447 119.512 131.36C121.138 131.273 121.278 131.29 122.659 131.814C123.463 132.129 124.547 132.619 125.106 132.898C125.648 133.178 126.434 133.458 126.854 133.51C127.553 133.615 127.658 133.563 128.392 132.916C129.144 132.251 129.179 132.182 129.161 131.273C129.144 130.748 129.004 130.049 128.847 129.717C128.48 128.948 126.994 127.287 126.137 126.693C125.49 126.238 125.403 126.221 124.442 126.395C123.882 126.5 123.113 126.745 122.728 126.955C121.907 127.374 120.82 128.336 120.176 128.86C119.71 129.24 119.582 129.489 118.865 130.101C117.764 131.045 117.379 131.255 116.54 131.43C115.526 131.622 114.058 131.5 113.394 131.15C112.24 130.521 111.558 128.825 111.541 126.5C111.523 125.591 111.593 125.347 112.1 124.612C113.027 123.284 114.023 122.48 115.893 121.536C117.729 120.609 120.434 119.663 121.662 119.351C122.118 119.234 123.289 118.952 124.109 118.809C128.102 118.112 130.385 118.546 131.696 119.613C132.098 119.945 132.745 120.627 133.13 121.134C133.969 122.235 134.954 123.662 135.56 125.084C136.227 126.652 136.731 128.476 137.133 130.538C137.465 132.269 137.5 132.968 137.43 136.569C137.36 140.992 137.273 141.656 136.259 144.611C135.385 147.11 134.755 148.212 133.392 149.593C131.451 151.533 130.158 152.057 126.994 152.18C125.893 152.232 124.319 152.197 123.498 152.092ZM122.756 144.335C124.111 144.824 125.482 144.86 126.277 144.519C126.553 144.401 126.848 144.058 127.033 143.354C127.068 143.22 127.05 143.11 127.047 143.076C126.983 142.445 126.494 141.703 125.562 140.879C123.674 139.184 122.101 139.032 120.702 140.326C120.08 140.901 119.833 141.383 119.869 141.845C119.886 142.057 119.981 142.307 120.095 142.512C120.607 143.432 121.452 143.865 122.756 144.335Z" fill="#6AF02A"/>
<path d="M123.498 152.092C121.837 151.918 119.477 151.376 118.166 150.851C113.149 148.893 110.422 146.324 109.862 143.002C109.712 142.13 109.808 140.516 109.808 140.516C109.808 140.516 110.094 140.912 111.157 139.59C112.219 138.271 112.928 141.209 114.14 141.234C114.594 141.243 115.733 141.356 117.522 139.435C118.28 138.622 119.328 138.945 119.253 139.713C119.119 141.092 119.859 141.844 119.859 141.844C119.859 141.844 120.031 142.792 120.749 143.318C121.878 144.147 123.979 145.035 126.007 144.619C126.684 144.481 126.946 143.762 127.032 143.316C127.167 142.615 126.342 141.674 126.342 141.674C126.342 141.674 127 141.809 127.597 141.477C128.483 140.983 129.502 139.106 130.733 137.844C131.727 136.827 133.065 138.248 132.75 139.672C132.694 139.925 133.345 140.716 133.538 140.747C133.74 140.78 134.545 139.787 135.535 139.539C136.572 139.28 137.33 139.827 137.322 139.938C137.201 141.68 136.938 142.631 136.259 144.611C135.385 147.11 134.755 148.212 133.392 149.593C131.451 151.533 130.158 152.057 126.994 152.18C125.893 152.232 124.319 152.197 123.498 152.092Z" fill="#C1FD20"/>
<path d="M135.015 129.357C134.449 129.878 133.94 131.34 133.256 131.491C133.028 131.541 132.685 130.805 132.612 130.673C132.168 129.866 131.743 128.588 130.202 128.781C129.522 128.866 129.534 129.49 129.348 129.658C129.057 129.923 128.861 129.746 128.847 129.717C128.48 128.948 126.994 127.287 126.137 126.693C125.491 126.238 125.403 126.221 124.442 126.395C123.882 126.5 123.113 126.745 122.729 126.955C121.907 127.374 120.176 128.86 120.176 128.86C120.176 128.86 119.666 128.59 118.693 129.325C118.088 129.782 117.956 129.46 117.637 129.621C117.412 129.734 117.252 130.235 116.831 130.323C116.636 130.36 116.363 129.852 115.945 129.825C115.435 129.792 115.39 130.495 114.414 130.346C114.004 130.284 114.072 129.948 113.718 129.796C113.415 129.666 113.085 129.733 113.071 129.686C112.868 128.982 112.287 128.885 112.049 128.918C112 128.925 111.826 128.811 111.81 128.752C111.64 128.097 111.547 127.34 111.541 126.5C111.523 125.591 111.593 125.346 112.1 124.612C113.027 123.284 114.023 122.48 115.893 121.536C117.729 120.609 120.492 119.646 121.662 119.351C122.041 119.255 123.634 118.895 124.11 118.809C128.097 118.085 130.385 118.546 131.696 119.613C132.098 119.945 132.745 120.627 133.13 121.134C134.449 122.873 134.973 123.88 135.56 125.084C136.064 126.119 136.651 128.361 136.651 128.361C136.651 128.361 135.503 128.907 135.015 129.357Z" fill="#08DF1C"/>
<path d="M86.9162 135.7C86.8638 135.7 86.4731 129.839 86.4731 129.839L86.4031 127.829C86.2983 125.312 86.4731 124 87.0674 123.144C87.3122 122.777 87.7142 122.095 87.959 121.606C88.5009 120.522 89.2875 119.683 90.1965 119.193C91.2803 118.616 94.4444 118.669 97.8881 119.333C99.3391 119.613 100.86 119.84 101.297 119.84C102.031 119.857 102.084 119.823 102.084 119.385C102.084 118.686 102.521 118.372 103.762 118.197C105.055 118.004 106.506 118.249 107.048 118.739C107.573 119.246 108.412 122.375 108.884 125.714C110.107 134.402 109.618 144.733 107.835 148.299C106.978 149.977 104.461 151.446 101.647 151.883C99.2342 152.25 94.5143 152.11 92.7313 151.585C90.2839 150.886 88.7106 149.645 87.7492 147.67C86.9276 145.957 86.6654 144.208 86.9276 142.233C87.1898 140.188 87.5044 139.576 88.4309 139.331C89.4623 139.034 90.7734 138.964 91.6824 139.156C92.1194 139.261 92.8361 139.384 93.2906 139.436C93.92 139.524 94.2871 139.698 94.759 140.153C95.3884 140.747 95.4058 140.765 95.301 141.814C95.1611 142.985 95.4058 143.771 96.0701 144.401C96.5596 144.855 97.4336 144.873 98.8146 144.488C100.772 143.929 101.821 143.177 102.381 141.953C102.818 140.957 103.115 138.405 102.958 136.954L102.818 135.765L102.608 136.359C102.363 137.094 101.769 137.566 100.842 137.775C99.5313 138.073 94.8814 138.335 92.032 138.265C88.5009 138.195 88.0464 138.038 87.3471 136.604C87.1024 136.097 86.9861 135.7 86.9162 135.7ZM99.1817 131.395C101.262 130.329 101.524 126.186 99.6187 124.682C98.6923 123.948 95.5981 124.298 94.829 125.224C94.357 125.801 93.9724 127.007 93.85 128.336C93.6752 130.154 94.3045 131.098 96.0526 131.675C96.6819 131.884 98.5699 131.727 99.1817 131.395Z" fill="#6AF02A"/>
<path d="M102.519 141.856C102.677 141.547 102.833 141.446 103.115 141.446C103.447 141.446 103.849 141.097 104.793 139.978C105.475 139.174 106.156 138.457 106.296 138.405C106.961 138.143 107.223 138.3 107.433 139.051C107.73 140.188 108.237 140.922 108.744 140.922C108.789 140.922 108.83 140.923 108.867 140.926C109.195 140.651 109.384 140.662 109.327 141.311C109.054 144.364 108.548 146.873 107.835 148.299C106.978 149.977 104.461 151.446 101.646 151.883C100.671 152.031 99.3186 152.097 97.9355 152.087C97.7383 152.095 97.5731 152.097 97.451 152.092C97.3805 152.089 97.2824 152.082 97.1638 152.074C95.3835 152.027 93.6593 151.858 92.7312 151.585C90.2837 150.886 88.7105 149.645 87.749 147.67C86.9274 145.957 86.6652 144.208 86.9274 142.233C86.9585 141.991 86.9903 141.768 87.0239 141.564C87.0461 141.429 87.5636 141.431 87.6696 141.364C87.8765 141.233 88.2441 140.979 88.5532 140.695C89.8292 139.489 90.3886 139.139 91.0005 139.209C91.5774 139.261 91.7697 139.471 91.927 140.258C92.0493 140.835 92.7486 141.097 94.217 141.097L95.3491 141.115C95.3491 141.115 95.3476 141.246 95.3379 141.395C95.3271 141.559 95.3077 141.745 95.3008 141.814C95.1609 142.985 95.4057 143.771 96.0699 144.401C96.5594 144.855 97.4334 144.873 98.8145 144.488C100.772 143.929 101.821 143.177 102.381 141.953C102.409 141.887 102.456 141.857 102.519 141.856Z" fill="#C1FD20"/>
<path d="M100.863 128.584C100.863 128.584 101.188 125.85 99.6297 124.703C98.3509 123.742 95.2507 124.64 94.8218 125.216C93.9768 126.352 93.8948 128.438 93.8329 128.531C93.8329 128.531 92.6539 129.403 92.2692 130.154C91.675 131.343 90.8028 131.377 90.5056 130.171C90.4531 129.944 90.0391 129.647 89.6896 129.489C89.3748 129.35 89.0338 128.975 88.9113 128.818C88.5793 128.416 88.3085 128.615 87.347 129.402L86.499 130.002L86.473 129.839L86.4031 127.829C86.2983 125.311 86.473 124.001 87.0674 123.144C87.3122 122.777 87.7142 122.095 87.9589 121.606C88.5008 120.522 89.2875 119.683 90.1965 119.193C91.2803 118.616 94.4443 118.669 97.8881 119.333C99.339 119.613 100.86 119.84 101.297 119.84C102.031 119.857 102.084 119.822 102.084 119.386C102.084 118.686 102.521 118.372 103.762 118.197C105.055 118.004 106.506 118.249 107.048 118.739C107.572 119.246 108.412 122.375 108.884 125.714C109.113 127.343 109.282 129.029 109.394 130.718C109.346 130.165 109.283 129.841 109.206 129.853C108.436 129.94 107.87 129.857 107.415 129.35L106.908 128.808C106.908 128.808 106.235 129.52 105.448 129.635C104.977 129.704 104.286 129.227 104.286 129.227C104.013 129.362 103.951 129.716 103.732 129.91C103.01 130.547 102.748 130.94 101.979 129.472C101.565 127.705 101.082 127.96 100.863 128.584Z" fill="#08DF1C"/>
<path d="M57.4601 130.763C57.4314 130.715 57.0857 129.991 57.0288 128.907C56.9213 126.861 57.035 123.712 57.035 123.563C57.035 122.951 57.5244 121.57 58.0489 120.749C58.5383 119.945 60.3738 118.651 61.4402 118.337C61.7898 118.232 63.9574 117.899 64.7266 118.249C65.7055 118.686 66.2299 119.176 66.6845 120.05C67.104 120.871 67.0341 121.588 66.2824 124C66.0027 124.909 65.7754 125.783 65.7754 125.941C65.7754 126.378 66.597 127.287 67.3312 127.654C69.1318 128.563 72.5755 128.458 74.1838 127.462C75.0403 126.955 75.5648 126.238 75.5648 125.644C75.5648 125.469 75.2851 124.752 74.9529 124.053C74.1488 122.445 74.009 121.326 74.4984 120.557C75.2676 119.333 78.152 117.602 79.7252 117.41C81.4034 117.218 82.9592 118.319 84.4101 120.766C85.1968 122.06 86.4107 124.822 86.4107 125.644C86.4281 126.255 86.9837 135.698 86.9138 135.698C86.8613 135.698 86.7526 136.359 86.7001 137.164C86.5253 139.873 85.7737 142.985 84.7772 145.152C83.8158 147.285 83.6934 147.46 82.5397 148.544C79.7952 151.078 76.7535 152.145 72.2784 152.145C66.632 152.145 61.8073 150.362 58.8355 147.198C57.4545 145.712 56.965 144.506 57.0874 142.827C57.2447 140.555 58.9229 138.073 60.6011 137.653C61.7898 137.356 63.9399 137.74 65.0762 138.457C65.5832 138.772 66.2824 139.558 66.2999 139.821C66.2999 140.223 67.4012 141.289 67.9955 141.499C69.6213 142.023 73.2048 141.009 74.6208 139.628C76.0542 138.212 76.1941 137.268 75.0928 136.709C74.0964 136.202 73.2398 136.22 70.6351 136.779C67.7508 137.391 66.16 137.461 64.0448 137.041C61.0556 136.464 59.6746 135.415 58.346 132.688C57.909 131.797 57.4813 130.798 57.4601 130.763Z" fill="#6AF02A"/>
<path d="M57.9712 140.033C57.9803 140.017 59.0097 139.317 59.5 139.436C59.7447 139.489 60.3216 139.908 60.7761 140.345C61.5278 141.097 61.6152 141.132 62.1222 140.957C62.4194 140.852 63.0312 140.485 63.4681 140.153C64.4646 139.384 64.9191 139.366 65.426 140.048C65.6532 140.345 65.9156 140.572 66.0204 140.572C66.1427 140.572 66.5274 140.782 66.8944 141.027C67.786 141.656 68.7649 141.814 70.4431 141.604C72.7505 141.324 72.9604 141.272 73.3973 140.87C73.6421 140.66 74.0792 140.293 74.3763 140.048C74.691 139.803 75.2504 139.349 75.6349 139.051C76.6663 138.195 77.6977 138.317 77.6977 139.279C77.6977 139.489 77.7675 139.698 77.8724 139.733C77.9598 139.768 78.0647 139.961 78.0997 140.17C78.2046 140.87 78.5717 141.114 79.4283 141.079C80.3897 141.027 80.6695 140.887 81.7882 139.908C83.1692 138.702 83.8335 138.754 84.1132 140.1C84.2181 140.625 84.7599 141.097 85.2669 141.097C85.4062 141.097 85.5729 141.193 85.6456 141.312C85.8458 141.231 86.0373 141.401 86.0282 141.438C85.6964 142.798 85.2663 144.089 84.7774 145.152C83.8159 147.285 83.6936 147.46 82.5398 148.544C79.7953 151.078 76.7536 152.145 72.2784 152.145C66.6321 152.145 61.8074 150.362 58.8356 147.198C57.4546 145.712 56.9651 144.505 57.0876 142.827C57.1533 141.877 57.485 140.89 57.9712 140.033Z" fill="#C1FD20"/>
<path d="M57.0515 129.198C57.0418 129.105 57.0341 129.007 57.0287 128.907C56.9213 126.861 57.035 123.712 57.035 123.563C57.035 122.951 57.5244 121.571 58.0489 120.749C58.5383 119.945 60.3739 118.651 61.4402 118.337C61.7898 118.232 63.9574 117.899 64.7266 118.249C65.7055 118.686 66.2299 119.176 66.6844 120.05C67.1039 120.871 67.0341 121.588 66.2824 124C66.0027 124.909 65.7754 125.783 65.7754 125.941C65.7754 126.378 66.597 127.287 67.3313 127.654C69.1317 128.563 72.5755 128.458 74.1838 127.462C75.0403 126.955 75.5647 126.238 75.5647 125.644C75.5647 125.469 75.2851 124.752 74.9529 124.053C74.1488 122.445 74.009 121.326 74.4984 120.557C75.2675 119.333 78.1519 117.602 79.7252 117.41C81.4033 117.218 82.9592 118.319 84.4101 120.766C85.1967 122.06 86.4106 124.822 86.4106 125.644C86.4191 125.937 86.6404 129.902 86.6404 129.902C86.6404 129.902 85.511 130.88 85.2061 131.024C84.6814 131.271 84.4074 130.967 84.2004 130.346C83.8858 129.385 83.4663 129.018 82.5572 128.913C81.893 128.843 81.7357 128.895 81.2812 129.332C80.6343 129.961 79.9001 130.433 79.5506 130.433C79.061 130.433 78.5715 129.699 78.5715 129C78.5715 128.633 78.4842 128.336 78.3792 128.336C78.2919 128.336 77.8374 128.615 77.4003 128.948C76.4739 129.664 76.2117 129.699 75.6697 129.192L75.2677 128.825L74.5335 129.629C73.6769 130.573 72.8728 130.731 72.3833 130.049C72.2434 129.822 71.9288 129.42 71.7016 129.157C71.282 128.668 71.282 128.668 70.6177 128.93C70.2506 129.087 69.8311 129.367 69.7087 129.577C69.4989 129.874 69.2892 129.909 68.3103 129.874C67.4013 129.839 67.1391 129.892 67.0166 130.136C66.7194 130.643 66.3175 130.468 65.1637 129.367C63.8876 128.143 63.6429 128.126 62.664 129.21C62.052 129.874 61.1431 130.433 60.6886 130.433C60.5662 130.433 60.2166 130.171 59.9019 129.874C59.0803 129 58.2588 128.615 57.5245 128.755C57.2134 128.815 57.0287 128.93 57.0287 128.93C57.0287 128.93 57.05 129.149 57.0515 129.198Z" fill="#08DF1C"/>
<path d="M35.0162 152.061C33.5304 151.869 32.4465 151.519 32.062 151.082C31.4326 150.365 30.3838 145.243 30.0342 141.118C29.9642 140.454 29.8943 139.859 29.8594 139.807C29.6845 139.527 29.5097 134.685 29.5097 130.455C29.5097 125.525 29.1863 121.998 33.2827 119.393C34.9449 118.335 38.8131 117.395 44.7101 117.87C51.0513 118.38 53.9306 119.948 55.0669 121.12C56.1157 122.204 56.3206 122.526 56.8788 124.218C57.0914 124.862 56.94 127.566 56.9723 128.8C57.001 129.89 57.0894 130.979 56.9723 132.063C56.8354 133.33 56.6577 134.423 56.0458 136.398C55.7486 137.342 54.49 138.985 53.3013 139.929C52.8993 140.244 52.4972 140.576 52.3923 140.663C51.9553 141.013 50.4869 141.59 49.2108 141.905C48.3367 142.114 46.3535 142.305 45.0618 142.318C43.8198 142.33 42.1967 142.464 41.5034 142.722C41.1919 142.838 40.9547 142.968 40.7379 143.319C40.6727 143.425 40.7888 144.041 40.8404 144.284C40.9972 145.025 41.0624 145.427 41.2026 145.992C41.4671 147.058 42.1322 149.622 41.7482 150.376C41.0556 151.735 39.3166 152.061 37.8656 152.131C36.9217 152.166 35.6456 152.131 35.0162 152.061ZM45.1027 134.195C47.0956 133.461 48.3018 131.451 48.3018 128.881C48.3018 127.71 48.2668 127.588 47.6899 126.923C46.9557 126.067 45.9943 125.647 44.4385 125.525C41.4842 125.28 39.5962 126.941 39.4214 129.965C39.3515 131.084 39.404 131.329 39.806 132.01C40.9073 133.898 43.2847 134.877 45.1027 134.195Z" fill="#6AF02A"/>
<path d="M40.7079 151.446C39.4265 152.198 37.3241 152.296 35.2353 152.145C34.2569 152.074 32.1597 151.538 31.8625 150.803C31.3905 149.65 30.6355 146.19 30.216 142.851C30.0412 141.557 30.1843 141.377 30.464 141.009C31.0758 140.24 32.4394 139.174 32.8239 139.174C33.0512 139.174 33.4707 139.401 33.7854 139.698C34.6245 140.468 35.044 140.502 36.0055 139.943C36.46 139.681 36.862 139.366 36.9145 139.244C36.9669 139.104 37.1068 138.999 37.2291 138.999C37.334 138.999 37.5788 138.842 37.7536 138.65C38.1731 138.178 38.9947 138.195 39.2395 138.667C39.3618 138.859 39.4143 139.349 39.3793 139.751L39.3269 140.485L40.1834 140.468C40.8127 140.468 41.0924 140.38 41.3197 140.1C41.6343 139.698 42.2287 139.349 42.6308 139.349C42.7706 139.349 42.9804 139.628 43.1027 139.961C43.365 140.677 43.5572 140.66 44.746 139.856C45.8997 139.087 46.6339 139.244 46.8262 140.31C46.9486 140.905 46.966 140.922 47.8051 140.922C48.5918 140.922 48.7316 140.852 49.4658 140.153C50.235 139.401 50.8818 139.034 51.0741 139.244C51.1265 139.296 51.2139 139.593 51.2838 139.908C51.3712 140.31 51.5111 140.502 51.8257 140.572L52.2948 140.729C52.2948 140.729 52.0329 140.909 51.7168 141.052C51.2359 141.269 50.6213 141.484 50.5496 141.516C49.5532 141.971 47.5779 142.268 45.2529 142.303C42.2811 142.355 41.3896 142.691 40.7253 143.352C40.675 143.672 40.9176 144.855 41.2672 146.271C41.6169 147.705 41.8966 149.173 41.914 149.523C41.949 150.257 41.4945 150.991 40.7079 151.446Z" fill="#C1FD20"/>
<path d="M29.8564 128.876C29.5434 128.616 29.4102 128.296 29.5752 126.013C29.6267 125.3 29.7419 124.43 29.9208 123.728C31.0428 119.322 35.6385 117.322 43.612 117.77C51.9723 118.24 55.9908 120.44 56.8788 124.218C57.0475 124.936 57.0019 125.535 57.0037 126.257C57.0041 126.398 56.9572 126.923 56.9602 127.813C56.9619 128.283 56.9741 128.895 56.978 128.958C56.8509 128.995 56.1039 129.498 55.919 129.46C55.7341 129.421 55.3538 129.208 55.074 128.985C54.1241 128.23 52.61 128.679 51.695 129.987C50.6746 131.445 49.7694 131.108 49.3698 129.121C49.2952 128.75 48.2905 128.356 48.2905 128.116C48.2905 127.256 47.1513 126.334 46.8364 126.174C45.8983 125.7 44.6541 125.418 43.435 125.524C41.4916 125.693 39.404 127.088 39.404 130.246C39.404 131.08 38.228 129.172 38.327 128.896C38.4488 128.556 37.9632 128.753 37.4902 129.235C36.8493 129.888 35.3823 130.847 35.1567 130.761C34.7733 130.613 35.1116 129.522 35.7253 128.926C36.3238 128.345 36.1617 128.027 35.4781 128.442C35.2402 128.586 34.678 128.836 34.2284 128.998C33.6395 129.209 33.3058 129.424 33.0345 129.767C32.2929 130.703 30.0361 130.277 30.0361 129.2C30.0361 129.104 29.9552 128.958 29.8564 128.876Z" fill="#08DF1C"/>
<path fill-rule="evenodd" clip-rule="evenodd" d="M221.132 120.215C224.415 120.618 226.753 123.613 226.35 126.897C225.945 130.181 222.951 132.52 219.668 132.116C218.132 131.927 216.805 131.173 215.866 130.087C215.861 130.082 215.852 130.071 215.852 130.071L207.312 129.017C207.312 129.017 207.296 129.028 207.289 129.034C206.115 129.859 204.645 130.268 203.111 130.08C199.827 129.676 197.489 126.682 197.893 123.397C198.297 120.113 201.291 117.774 204.575 118.178C206.308 118.392 219.532 120.018 221.132 120.215Z" fill="#CBCFCC" stroke="black" stroke-width="0.6" stroke-miterlimit="1.5" stroke-linecap="round" stroke-linejoin="round"/>
<path fill-rule="evenodd" clip-rule="evenodd" d="M220.878 120.971C223.736 121.307 225.783 123.9 225.447 126.758C225.112 129.615 222.519 131.663 219.662 131.327C216.804 130.992 214.757 128.399 215.093 125.541C215.428 122.683 218.021 120.636 220.878 120.971Z" fill="#465D63"/>
<path d="M222.167 123.223L222.428 122.911L222.264 122.578L222.417 122.596L222.522 122.819L222.673 122.626L222.824 122.644L222.586 122.935L222.768 123.293L222.611 123.275L222.494 123.034L222.324 123.241L222.167 123.223Z" fill="#C8D0D2"/>
<path d="M215.682 127.371L215.713 127.098L215.521 126.696L215.674 126.714L215.796 126.988L215.975 126.75L216.125 126.767L215.843 127.115L215.812 127.386L215.682 127.371Z" fill="#C8D0D2"/>
<path d="M217.579 129.027L217.838 129.058C217.889 129.064 217.927 129.07 217.951 129.077C217.976 129.085 217.997 129.096 218.016 129.112C218.034 129.128 218.048 129.148 218.059 129.172C218.07 129.196 218.073 129.222 218.07 129.25C218.066 129.28 218.055 129.307 218.036 129.33C218.016 129.354 217.992 129.37 217.963 129.38C218.001 129.396 218.029 129.419 218.047 129.449C218.065 129.479 218.071 129.513 218.067 129.55C218.063 129.579 218.053 129.607 218.036 129.633C218.019 129.66 217.998 129.68 217.972 129.693C217.947 129.707 217.916 129.714 217.881 129.714C217.859 129.714 217.807 129.709 217.723 129.7L217.503 129.674L217.579 129.027ZM217.697 129.15L217.68 129.3L217.765 129.31C217.816 129.316 217.848 129.319 217.86 129.319C217.883 129.319 217.901 129.313 217.916 129.302C217.93 129.29 217.938 129.274 217.941 129.254C217.943 129.234 217.939 129.217 217.93 129.203C217.92 129.189 217.905 129.18 217.883 129.174C217.871 129.171 217.834 129.166 217.772 129.159L217.697 129.15ZM217.667 129.407L217.647 129.58L217.767 129.594C217.814 129.6 217.844 129.602 217.857 129.601C217.877 129.6 217.894 129.593 217.908 129.581C217.922 129.568 217.93 129.551 217.933 129.528C217.935 129.509 217.932 129.492 217.924 129.477C217.917 129.462 217.904 129.451 217.887 129.443C217.87 129.434 217.832 129.427 217.772 129.42L217.667 129.407Z" fill="#C8D0D2"/>
<path d="M224.967 125.713L224.825 125.696L224.786 125.543L224.527 125.513L224.457 125.653L224.318 125.637L224.646 125.02L224.784 125.036L224.967 125.713ZM224.757 125.429L224.696 125.179L224.58 125.408L224.757 125.429Z" fill="#C8D0D2"/>
<path fill-rule="evenodd" clip-rule="evenodd" d="M221.21 125.104C221.807 124.71 221.972 123.904 221.578 123.306C221.183 122.708 220.377 122.543 219.78 122.938L216.744 124.942C216.146 125.337 215.981 126.142 216.376 126.74C216.77 127.338 217.576 127.503 218.174 127.108L221.21 125.104Z" fill="#D1D1CD"/>
<path fill-rule="evenodd" clip-rule="evenodd" d="M218.433 125.382C218.747 125.858 218.616 126.499 218.14 126.813C217.665 127.127 217.024 126.995 216.71 126.52C216.396 126.044 216.527 125.403 217.003 125.089C217.478 124.775 218.119 124.907 218.433 125.382Z" fill="#BE0003"/>
<path fill-rule="evenodd" clip-rule="evenodd" d="M221.261 123.515C221.575 123.991 221.443 124.632 220.968 124.946C220.492 125.26 219.851 125.129 219.537 124.653C219.224 124.177 219.355 123.536 219.83 123.222C220.306 122.908 220.947 123.04 221.261 123.515Z" fill="#BE0003"/>
<path fill-rule="evenodd" clip-rule="evenodd" d="M223.631 127.534C224.229 127.14 224.394 126.334 223.999 125.736C223.605 125.138 222.799 124.973 222.201 125.368L219.165 127.372C218.568 127.767 218.403 128.572 218.797 129.17C219.192 129.768 219.997 129.933 220.595 129.538L223.631 127.534Z" fill="#D1D1CD"/>
<path fill-rule="evenodd" clip-rule="evenodd" d="M220.853 127.812C221.167 128.288 221.036 128.929 220.56 129.243C220.085 129.557 219.444 129.425 219.13 128.95C218.816 128.474 218.947 127.833 219.423 127.519C219.898 127.205 220.539 127.336 220.853 127.812Z" fill="#BE0003"/>
<path fill-rule="evenodd" clip-rule="evenodd" d="M223.682 125.945C223.996 126.421 223.865 127.062 223.389 127.376C222.914 127.69 222.273 127.559 221.959 127.083C221.645 126.607 221.776 125.966 222.252 125.652C222.727 125.338 223.368 125.47 223.682 125.945Z" fill="#BE0003"/>
<path fill-rule="evenodd" clip-rule="evenodd" d="M210.468 125.084C210.371 124.923 210.162 124.871 210.001 124.967L208.531 125.85C208.37 125.947 208.318 126.156 208.415 126.317C208.511 126.477 208.72 126.53 208.881 126.433L210.351 125.55C210.512 125.454 210.564 125.245 210.468 125.084Z" fill="#334249" stroke="black" stroke-width="0.6" stroke-miterlimit="1.5" stroke-linecap="round" stroke-linejoin="round"/>
<path fill-rule="evenodd" clip-rule="evenodd" d="M213.572 125.465C213.475 125.304 213.266 125.252 213.105 125.349L211.636 126.232C211.475 126.329 211.423 126.538 211.52 126.699C211.616 126.86 211.826 126.912 211.986 126.815L213.456 125.932C213.616 125.835 213.669 125.626 213.572 125.465Z" fill="#324148" stroke="black" stroke-width="0.6" stroke-miterlimit="1.5" stroke-linecap="round" stroke-linejoin="round"/>
<path fill-rule="evenodd" clip-rule="evenodd" d="M215.884 121.05C215.93 120.673 215.662 120.33 215.286 120.284L209.562 119.58C209.186 119.533 208.843 119.801 208.796 120.178L208.628 121.542C208.582 121.919 208.85 122.262 209.227 122.308L214.95 123.012C215.327 123.059 215.67 122.791 215.716 122.414L215.884 121.05Z" fill="#646464"/>
<path fill-rule="evenodd" clip-rule="evenodd" d="M203.036 124.994L202.972 125.99C202.939 126.5 202.885 126.439 203.396 126.472L204.301 126.531C204.81 126.564 204.749 126.617 204.782 126.107L204.847 125.111L205.842 125.176C206.352 125.209 206.292 125.262 206.324 124.752L206.383 123.847C206.416 123.337 206.469 123.398 205.96 123.365L204.964 123.3L205.028 122.304C205.061 121.794 205.115 121.855 204.604 121.822L203.699 121.764C203.189 121.731 203.251 121.677 203.217 122.187L203.153 123.183L202.157 123.119C201.648 123.086 201.709 123.032 201.676 123.542L201.617 124.448C201.583 124.958 201.53 124.897 202.04 124.93L203.036 124.994Z" fill="#202C33" stroke="black" stroke-width="0.6" stroke-miterlimit="1.5" stroke-linecap="round" stroke-linejoin="round"/>
<path fill-rule="evenodd" clip-rule="evenodd" d="M202.48 124.003L205.592 124.204C205.75 124.214 205.954 124.317 205.954 124.317C205.954 124.317 205.961 124.248 205.964 124.208L205.973 124.059C206.002 123.622 206.088 123.745 205.624 123.715L204.571 123.649L204.644 122.515C204.672 122.078 204.759 122.201 204.294 122.171L204.086 122.161C203.622 122.131 203.723 122.02 203.694 122.457L203.621 123.591L202.511 123.514C202.048 123.484 202.149 123.373 202.121 123.81L202.111 123.959C202.108 124.004 202.104 124.051 202.104 124.051C202.104 124.051 202.327 123.993 202.48 124.003Z" fill="#111618"/>
<path fill-rule="evenodd" clip-rule="evenodd" d="M203.506 127.917C203.59 127.932 204.462 128.07 205.51 127.569C206.151 127.263 206.697 126.585 206.697 126.585C206.697 126.585 206.314 127.262 205.544 127.634C204.589 128.097 203.596 127.933 203.506 127.917Z" fill="#808080"/>
<path fill-rule="evenodd" clip-rule="evenodd" d="M207.302 123.157C207.249 123.007 207.173 122.837 207.063 122.674C206.76 122.227 206.21 121.798 205.712 121.497C205.303 121.25 204.844 120.971 204.261 120.851C203.734 120.743 202.923 120.819 202.923 120.819C202.923 120.819 204.62 120.322 205.96 121.273C206.782 121.856 207.146 122.66 207.302 123.157C207.389 123.412 207.409 123.609 207.409 123.609C207.409 123.609 207.386 123.429 207.302 123.157Z" fill="#3B3B3B"/>
<path fill-rule="evenodd" clip-rule="evenodd" d="M215.536 102.718C218.021 103.025 218.215 101.689 220.543 101.513C221.813 101.417 223.358 101.83 223.766 101.991C225.861 102.814 226.341 105.056 226.648 106.316C226.977 107.663 226.93 108.248 227.398 109.823C227.767 111.06 228.038 111.948 228.199 112.807C228.371 113.726 228.539 114.428 228.427 115.334C228.325 116.171 228.049 117.169 227.608 117.728C227.182 118.267 226.387 118.357 225.783 118.686C225.127 119.043 224.29 119.443 223.669 119.87C223.086 120.27 222.582 120.874 222.055 121.247C221.573 121.589 221.035 121.847 220.505 122.107C219.899 122.405 219.149 122.816 218.421 123.033C217.694 123.25 216.912 123.379 216.143 123.409C215.197 123.446 213.825 123.387 212.747 123.254C211.709 123.127 210.54 122.874 209.675 122.614C208.938 122.393 208.208 122.083 207.555 121.697C206.903 121.31 206.274 120.729 205.759 120.294C205.307 119.912 204.848 119.532 204.464 119.084C204.041 118.594 203.7 117.886 203.231 117.357C202.732 116.792 202.016 116.2 201.466 115.695C200.961 115.231 200.21 114.95 199.928 114.324C199.635 113.675 199.59 112.619 199.713 111.802C199.835 110.986 200.267 110.181 200.662 109.424C201.092 108.601 201.805 107.754 202.289 106.866C202.826 105.882 203.254 104.614 203.883 103.517C204.529 102.391 205.734 100.572 207.338 100.078C208.423 99.744 210.269 100.078 211.101 100.352C213.32 101.082 213.128 102.42 215.536 102.718Z" fill="#FEE32D" stroke="black" stroke-width="0.6" stroke-miterlimit="1.5" stroke-linecap="round" stroke-linejoin="round"/>
<path fill-rule="evenodd" clip-rule="evenodd" d="M220.537 101.838C221.28 101.559 222.772 101.753 223.56 102.071C224.313 102.375 224.853 103.037 225.264 103.745C225.787 104.646 225.964 104.425 226.816 108.468C227.01 109.379 227.227 110.32 227.423 110.945C227.561 111.383 227.67 111.745 227.783 112.189C227.93 112.763 228.082 113.693 228.097 114.361C228.11 114.981 228.109 115.63 227.871 116.201C227.632 116.771 227.484 117.516 226.871 117.812C225.878 118.29 223.514 119.528 223.514 119.528C223.379 119.226 224.139 118.05 223.467 116.475C222.687 114.644 221.702 114.112 221.702 114.112C221.702 114.112 224.015 113.223 224.776 110.086C225.1 108.75 224.913 106.273 224.166 105.092C222.912 103.108 221.848 103.012 220.709 102.764C220.187 102.649 220.315 101.921 220.537 101.838Z" fill="#FFDF26"/>
<path fill-rule="evenodd" clip-rule="evenodd" d="M216.171 103.132C216.171 103.132 217.188 103.033 217.618 102.842C218.371 102.509 219.467 101.849 220.271 101.857C220.665 101.861 220.327 102.273 220.193 102.443C219.992 102.699 220.088 102.414 218.66 103.414C217.332 104.344 216.304 106.432 216.053 108.37C215.936 109.269 216.41 111.402 216.593 111.457L214.814 110.976C214.814 110.976 214.93 108.451 215.145 107.208C215.371 105.901 216.171 103.132 216.171 103.132Z" fill="#F0CC00"/>
<path fill-rule="evenodd" clip-rule="evenodd" d="M203.319 116.92C203.319 116.92 200.71 114.63 200.468 114.469C199.792 114.02 199.929 112.627 200.01 111.787C200.09 110.945 200.561 110.175 200.956 109.424C201.357 108.663 201.984 107.992 202.408 107.222C202.989 106.161 203.647 104.121 204.45 103.058C205.097 102.2 205.964 100.907 206.788 100.536C208.166 99.9152 209.151 100.33 209.17 100.492C209.183 100.595 208.528 101.036 207.571 101.56C206.87 101.944 206.192 102.538 205.961 102.823C205.508 103.382 204.55 104.924 204.289 106.694C204.187 107.382 204.247 108.773 204.317 109.249C204.43 110.006 204.51 111.485 204.471 111.808C204.435 112.098 204.142 112.289 203.988 112.537C203.824 112.801 203.596 113.082 203.488 113.395C203.352 113.794 203.194 114.409 203.168 114.931C203.141 115.519 203.319 116.92 203.319 116.92Z" fill="#EFCC00"/>
<path fill-rule="evenodd" clip-rule="evenodd" d="M223.715 102.905C223.878 102.656 224.604 103.039 224.797 103.307C225.022 103.619 225.156 104.459 225.05 104.51C224.901 104.584 224.633 103.938 224.415 103.635C224.19 103.323 223.652 103.002 223.715 102.905Z" fill="white"/>
<path fill-rule="evenodd" clip-rule="evenodd" d="M227.851 114.614C227.688 114.556 227.646 114.977 227.525 115.362C227.387 115.805 227.308 115.927 227.109 116.155C226.496 116.859 226.471 117.338 226.603 117.349C227.165 117.397 227.527 116.611 227.732 116.071C227.857 115.747 227.942 114.648 227.851 114.614Z" fill="white"/>
<path fill-rule="evenodd" clip-rule="evenodd" d="M213.344 103.345C213.419 103.267 213.826 103.514 213.959 103.683C214.092 103.852 214.214 104.283 214.139 104.361C214.063 104.44 213.591 104.248 213.459 104.078C213.327 103.909 213.268 103.423 213.344 103.345Z" fill="white"/>
<path fill-rule="evenodd" clip-rule="evenodd" d="M221.2 103.291C223.386 103.559 224.861 106.222 224.49 109.232C224.12 112.242 222.044 114.468 219.859 114.199C217.673 113.93 216.2 111.268 216.569 108.258C216.94 105.248 219.015 103.022 221.2 103.291Z" fill="white" stroke="black" stroke-width="0.6" stroke-miterlimit="1.5" stroke-linecap="round" stroke-linejoin="round"/>
<path fill-rule="evenodd" clip-rule="evenodd" d="M218.644 109.531C219.33 109.615 219.819 110.241 219.735 110.927C219.651 111.614 219.024 112.103 218.337 112.018C217.652 111.934 217.162 111.308 217.246 110.621C217.332 109.935 217.957 109.446 218.644 109.531Z" fill="black"/>
<path fill-rule="evenodd" clip-rule="evenodd" d="M209.515 101.853C211.7 102.122 213.174 104.784 212.803 107.795C212.434 110.805 210.358 113.031 208.173 112.762C205.987 112.493 204.513 109.831 204.883 106.82C205.254 103.81 207.328 101.585 209.515 101.853Z" fill="white" stroke="black" stroke-width="0.6" stroke-miterlimit="1.5" stroke-linecap="round" stroke-linejoin="round"/>
<path fill-rule="evenodd" clip-rule="evenodd" d="M210.508 108.53C211.194 108.614 211.683 109.24 211.599 109.927C211.515 110.613 210.888 111.102 210.201 111.018C209.515 110.933 209.026 110.307 209.11 109.621C209.195 108.934 209.821 108.445 210.508 108.53Z" fill="black"/>
<path fill-rule="evenodd" clip-rule="evenodd" d="M207.043 128.034C207.569 128.063 209.701 128.859 211.051 128.992C213.468 129.231 214.075 129.029 214.469 129.144C216.306 129.68 216.462 131.31 216.156 132.268C215.776 133.46 214.627 135.405 210.087 134.819C204.892 134.148 204.48 131.216 204.782 129.935C205.194 128.184 206.432 128 207.043 128.034Z" fill="#F0CC00" stroke="black" stroke-width="0.6" stroke-miterlimit="1.5" stroke-linecap="round" stroke-linejoin="round"/>
<path fill-rule="evenodd" clip-rule="evenodd" d="M209.189 129.408C209.852 129.447 210.407 129.559 211.214 129.569C212.438 129.585 213.21 129.317 214.077 129.296C214.944 129.275 215.617 129.9 215.927 130.569C216.278 131.327 216.105 131.911 215.965 132.325C215.426 133.913 213.908 134.702 210.461 134.242C209.102 134.06 208.418 133.883 207.506 133.109C206.818 132.525 206.384 131.096 206.884 130.209C207.463 129.182 208.563 129.371 209.189 129.408Z" fill="#FEE32D"/>
<path fill-rule="evenodd" clip-rule="evenodd" d="M214.644 130.121C214.768 130.136 215.117 130.351 215.222 130.572C215.34 130.819 215.371 131.435 215.35 131.601C215.34 131.685 215.152 131.637 215.101 131.571C215.027 131.478 215.005 131.204 214.912 131.041C214.807 130.859 214.518 130.634 214.473 130.481C214.436 130.353 214.519 130.106 214.644 130.121Z" fill="white"/>
<path fill-rule="evenodd" clip-rule="evenodd" d="M213.055 115.413C218.053 116.028 221.867 118.498 221.569 120.925C221.27 123.352 216.971 124.824 211.974 124.21C206.976 123.595 203.162 121.125 203.46 118.698C203.759 116.27 208.058 114.799 213.055 115.413Z" fill="black" fill-opacity="0.27"/>
<path fill-rule="evenodd" clip-rule="evenodd" d="M219.407 122.498L221.07 121.783L219.789 127.929L219.407 122.498Z" fill="white" stroke="black" stroke-width="0.6" stroke-miterlimit="1.5" stroke-linecap="round" stroke-linejoin="round"/>
<path fill-rule="evenodd" clip-rule="evenodd" d="M206.213 120.875L204.772 119.778L204.526 126.052L206.213 120.875Z" fill="white" stroke="black" stroke-width="0.6" stroke-miterlimit="1.5" stroke-linecap="round" stroke-linejoin="round"/>
<path fill-rule="evenodd" clip-rule="evenodd" d="M214.151 111.345C219.612 112.021 223.715 115.236 223.309 118.52C222.903 121.804 218.139 123.921 212.679 123.246C207.218 122.57 203.114 119.355 203.521 116.071C203.927 112.787 208.69 110.67 214.151 111.345Z" fill="#FEE32D" stroke="black" stroke-width="0.6" stroke-miterlimit="1.5" stroke-linecap="round" stroke-linejoin="round"/>
<path fill-rule="evenodd" clip-rule="evenodd" d="M209.732 111.781C209.732 111.781 205.712 112.707 205.27 116.288C204.826 119.868 208.409 121.601 208.409 121.601C208.409 121.601 203.564 119.712 204.007 116.132C204.45 112.551 209.732 111.781 209.732 111.781Z" fill="#E8C500"/>
<path fill-rule="evenodd" clip-rule="evenodd" d="M217.247 116.569C218.397 116.712 219.269 117.327 219.193 117.943C219.117 118.559 218.121 118.944 216.971 118.802C215.821 118.659 214.95 118.044 215.026 117.428C215.102 116.812 216.098 116.427 217.247 116.569Z" fill="#F7DB27"/>
<path fill-rule="evenodd" clip-rule="evenodd" d="M215.058 117.3C215.26 116.769 216.186 116.454 217.244 116.585C218.394 116.728 219.266 117.343 219.189 117.959C219.146 118.311 218.803 118.587 218.303 118.733C218.32 118.687 218.332 118.639 218.338 118.589C218.414 117.973 217.543 117.358 216.393 117.215C215.899 117.154 215.435 117.19 215.058 117.3Z" fill="#CDB100"/>
<path fill-rule="evenodd" clip-rule="evenodd" d="M209.487 115.609C210.637 115.751 211.509 116.367 211.433 116.983C211.356 117.599 210.361 117.984 209.211 117.842C208.061 117.699 207.19 117.084 207.266 116.468C207.342 115.851 208.338 115.467 209.487 115.609Z" fill="#F7DB27"/>
<path fill-rule="evenodd" clip-rule="evenodd" d="M207.298 116.34C207.5 115.809 208.426 115.494 209.484 115.625C210.634 115.767 211.506 116.383 211.429 116.999C211.386 117.351 211.043 117.627 210.542 117.773C210.56 117.727 210.572 117.679 210.578 117.629C210.654 117.013 209.783 116.397 208.633 116.255C208.139 116.194 207.675 116.23 207.298 116.34Z" fill="#CDB100"/>
<path fill-rule="evenodd" clip-rule="evenodd" d="M220.606 114.538C220.762 114.357 221.536 115.162 221.605 115.281C221.69 115.429 222.428 116.096 222.021 116.369C221.602 116.648 221.476 115.842 221.227 115.53C221 115.244 220.322 114.871 220.606 114.538Z" fill="white"/>
</svg>