<svg width="256" height="256" title="PyMC" viewBox="0 0 256 256" fill="none" xmlns="http://www.w3.org/2000/svg" id="pymc">
<style>
#pymc {
    rect {fill: #15191C}
    path.pymc {fill: #E9E9E9}

    @media (prefers-color-scheme: light) {
        rect {fill: #F4F2ED}
        path.pymc {fill: #514A4E}
    }
}
</style>
<rect width="256" height="256" rx="40" fill="#15191C"/>
<path d="M105.445 188.045L89.6587 168.352L91.0086 167.229L106.832 186.921L105.445 188.045Z" fill="#0E688A"/>
<path d="M105.295 189.43L88.2713 168.202L91.1586 165.844L108.182 187.071L105.295 189.43Z" fill="#11688B"/>
<path d="M169.451 104.183C161.99 100.028 159.29 90.5184 163.414 83.0308C167.539 75.5432 176.988 72.8102 184.45 76.9658C191.912 81.1215 194.612 90.6307 190.487 98.1183C186.362 105.606 176.913 108.339 169.451 104.183ZM183.138 79.3244C176.951 75.8801 169.189 78.1264 165.739 84.3411C162.327 90.5558 164.577 98.3804 170.726 101.825C176.876 105.269 184.675 103.023 188.125 96.808C191.537 90.5933 189.325 82.7687 183.138 79.3244Z" fill="#504A4E"/>
<path d="M181.825 81.2712C181.825 81.2712 173.539 80.2978 167.314 87.2613C167.314 87.2613 171.476 78.089 181.825 81.2712Z" fill="#0E688A"/>
<path d="M182.05 84.416C182.05 84.416 175.863 83.7047 171.214 88.8711C171.214 88.9086 174.326 82.0574 182.05 84.416Z" fill="#0E688A"/>
<path d="M103.007 196.992H68.8856V200.699H103.007V196.992Z" fill="#11688B"/>
<path d="M178.638 196.992H130.192V200.699H178.638V196.992Z" fill="#11688B"/>
<path d="M131.542 194.035L150.216 160.116L132.517 150.27L113.881 184.188L116.994 185.911L133.867 155.211L145.341 161.613L128.43 192.313L131.542 194.035Z" fill="#11688B"/>
<path d="M59.9614 186.772C53.362 186.772 48 192.163 48 198.789C48 205.416 53.362 210.807 59.9614 210.807C66.5608 210.807 71.9228 205.416 71.9228 198.789C71.9228 192.163 66.5608 186.772 59.9614 186.772ZM59.9614 207.587C55.1618 207.587 51.2247 203.656 51.2247 198.789C51.2247 193.96 55.1243 189.991 59.9614 189.991C64.761 189.991 68.6981 193.922 68.6981 198.789C68.6981 203.656 64.761 207.587 59.9614 207.587Z" class="pymc" fill="#E9E9E9"/>
<path d="M188.725 186.772C182.125 186.772 176.763 192.163 176.763 198.789C176.763 205.416 182.125 210.807 188.725 210.807C195.324 210.807 200.686 205.416 200.686 198.789C200.686 192.163 195.324 186.772 188.725 186.772ZM188.725 207.587C183.925 207.587 179.988 203.656 179.988 198.789C179.988 193.96 183.888 189.991 188.725 189.991C193.524 189.991 197.461 193.922 197.461 198.789C197.461 203.656 193.524 207.587 188.725 207.587Z" class="pymc" fill="#E9E9E9"/>
<path d="M83.8093 147.911C82.7593 147.911 81.6719 148.061 80.6595 148.36C74.3226 150.12 70.573 156.746 72.2978 163.148C73.7227 168.352 78.4472 171.984 83.8093 171.984C84.8592 171.984 85.9466 171.834 86.959 171.534C93.2959 169.775 97.0455 163.148 95.3207 156.746C93.8958 151.542 89.1713 147.911 83.8093 147.911ZM83.8093 168.727C79.8721 168.727 76.4224 166.068 75.3725 162.25C74.0976 157.57 76.8349 152.74 81.4845 151.43C82.2344 151.206 83.0218 151.131 83.8093 151.131C87.7464 151.131 91.1961 153.789 92.246 157.607C92.8459 159.854 92.5835 162.25 91.4211 164.271C90.2587 166.331 88.3838 167.791 86.134 168.39C85.3466 168.614 84.5592 168.727 83.8093 168.727Z" class="pymc" fill="#E9E9E9"/>
<path d="M125.28 184.413C122.881 183.065 120.181 182.391 117.444 182.391C111.519 182.391 106.082 185.611 103.232 190.815C101.133 194.634 100.645 199.014 101.845 203.207C103.045 207.4 105.782 210.882 109.569 212.978C111.969 214.326 114.669 215 117.406 215C123.331 215 128.768 211.78 131.617 206.576C133.717 202.758 134.205 198.377 133.005 194.184C131.805 189.991 129.068 186.51 125.28 184.413ZM105.295 202.159C104.357 198.902 104.732 195.457 106.382 192.5C108.594 188.456 112.869 185.948 117.481 185.948C119.618 185.948 121.718 186.51 123.593 187.52C129.705 190.927 131.917 198.677 128.543 204.817C126.33 208.86 122.056 211.369 117.481 211.369C115.344 211.369 113.244 210.807 111.369 209.796C108.37 208.149 106.232 205.453 105.295 202.159Z" class="pymc" fill="#E9E9E9"/>
<path d="M155.315 167.042L123.668 149.408C122.581 148.809 122.056 147.574 122.393 146.376C134.767 99.1292 154.753 73.3343 169.376 60.0438C185.425 45.443 198.474 42.1859 199.036 42.0735C199.674 41.9238 200.349 41.9987 200.949 42.3356L204.586 44.3573C205.148 44.6942 205.598 45.2183 205.823 45.8548C206.011 46.3789 210.21 59.2576 206.423 80.6722C202.973 100.177 191.874 130.914 158.615 166.555C157.715 167.416 156.365 167.641 155.315 167.042ZM128.055 145.702L156.065 161.314C211.448 101.076 202.786 55.5513 200.986 48.5129L199.261 47.5769C196.111 48.5878 185.275 52.6685 172.601 64.3118C158.84 76.9284 140.054 101.263 128.055 145.702Z" fill="#0E688A"/>
<path d="M104.807 160.378C104.77 160.34 104.695 160.303 104.657 160.303C103.832 159.741 103.345 158.768 103.457 157.757L105.745 134.995C105.745 134.92 105.745 134.883 105.782 134.808C110.244 108.264 137.129 108.264 137.429 108.264C138.892 108.264 140.092 109.5 140.054 110.997C140.054 112.495 138.817 113.655 137.354 113.655C136.417 113.655 114.781 113.767 111.069 135.631L109.307 153.077L123.593 144.729C124.868 143.98 126.518 144.429 127.23 145.702C127.98 146.975 127.53 148.622 126.255 149.371L107.432 160.34C106.645 160.827 105.632 160.827 104.807 160.378Z" fill="#0E688A"/>
<path d="M156.028 188.906C155.203 188.456 154.678 187.595 154.64 186.659L153.89 164.796C153.853 163.298 154.978 162.063 156.478 162.025C157.94 161.988 159.177 163.148 159.252 164.608L159.815 181.231L173.576 170.486C190.037 155.698 178.638 137.166 178.113 136.38C177.326 135.145 177.701 133.46 178.938 132.674C180.175 131.887 181.825 132.224 182.613 133.497C182.763 133.722 197.049 156.671 177.026 174.567C176.988 174.604 176.951 174.642 176.876 174.679L158.915 188.681C158.127 189.317 157.04 189.43 156.14 188.981C156.14 188.981 156.103 188.943 156.028 188.906Z" fill="#0E688A"/>
<path d="M192.324 85.951C191.124 81.7579 188.387 78.2762 184.6 76.1796C182.2 74.8319 179.501 74.158 176.763 74.158C170.839 74.158 165.402 77.3776 162.552 82.5815C158.24 90.4435 161.052 100.402 168.889 104.745C171.289 106.093 173.989 106.767 176.726 106.767C182.65 106.767 188.087 103.547 190.937 98.343C193.037 94.5617 193.524 90.144 192.324 85.951ZM176.801 77.752C178.938 77.752 181.038 78.3136 182.913 79.3244C185.875 80.9717 188.012 83.6672 188.95 86.9243C189.887 90.1815 189.512 93.6258 187.862 96.5834C185.65 100.627 181.375 103.135 176.763 103.135C174.626 103.135 172.526 102.573 170.651 101.563C167.689 99.9154 165.552 97.2198 164.614 93.9627C163.677 90.7056 164.052 87.2613 165.702 84.3037C167.914 80.2604 172.189 77.752 176.801 77.752Z" class="pymc" fill="#E9E9E9"/>
</svg>