<svg width="256" height="256" title="PyPI" viewBox="0 0 256 256" fill="none" xmlns="http://www.w3.org/2000/svg" id="pypi">
<style>
#pypi {
    rect {fill: #15191C}

    @media (prefers-color-scheme: light) {
        rect {fill: #F4F2ED}
    }
}
</style>
<rect width="256" height="256" rx="40" fill="#15191C"/>
<path d="M66.837 112.073L89.5747 120.35L112.65 111.951L89.9123 103.674L66.837 112.073ZM89.6741 93.3878L112.413 101.664L135.487 93.265L112.749 84.9885L89.6741 93.3878Z" fill="#F7F7F4" stroke="#CCCCCC" stroke-width="0.378666" stroke-linejoin="bevel"/>
<path d="M89.6741 93.3878L112.413 101.664V128.388L89.6741 120.113V93.3878Z" fill="#EFEEEA" stroke="#CCCCCC" stroke-width="0.378666" stroke-linejoin="bevel"/>
<path d="M44 147.366L66.7377 155.644L89.813 147.245L67.0739 138.968L44 147.366Z" fill="#F7F7F4" stroke="#CCCCCC" stroke-width="0.378666" stroke-linejoin="bevel"/>
<path d="M44 147.366L66.7377 155.644V182.368L44 174.093V147.366Z" fill="#EFEEEA" stroke="#CCCCCC" stroke-width="0.378666" stroke-linejoin="bevel"/>
<path d="M67.0362 111.721L90.333 120.472V148.722L67.0362 139.975V111.721Z" fill="#EFEEEA" stroke="#CCCCCC" stroke-width="0.378666" stroke-linejoin="bevel"/>
<path d="M66.8357 155.672L89.5748 163.948V190.674L66.8372 182.397L66.8357 155.672Z" fill="#EFEEEA" stroke="#CCCCCC" stroke-width="0.378666" stroke-linejoin="bevel"/>
<path d="M66.8357 128.682L89.5748 136.958L112.65 128.559L89.9125 120.284L66.8357 128.682Z" fill="#F7F7F4" stroke="#CCCCCC" stroke-width="0.378666" stroke-linejoin="bevel"/>
<path d="M66.8357 128.682L89.5748 136.958V163.684L66.8372 155.407L66.8357 128.682Z" fill="#EFEEEA" stroke="#CCCCCC" stroke-width="0.378666" stroke-linejoin="bevel"/>
<path d="M180.926 147.338V174.064L204 165.666V138.941L180.926 147.338Z" fill="white" stroke="#CCCCCC" stroke-width="0.378666" stroke-linejoin="bevel"/>
<path d="M158.087 155.644V182.368L181.163 173.97V147.245L158.087 155.644Z" fill="#FFD242" stroke="#CCCCCC" stroke-width="0.378666" stroke-linejoin="bevel"/>
<path d="M176.981 162.159C176.981 162.779 176.866 163.434 176.644 164.087C176.421 164.74 176.095 165.379 175.683 165.967C175.271 166.555 174.783 167.08 174.245 167.513C173.707 167.945 173.131 168.277 172.549 168.489C171.374 168.916 170.247 168.829 169.416 168.248C168.585 167.666 168.118 166.637 168.118 165.387C168.118 164.768 168.232 164.113 168.455 163.459C168.677 162.806 169.004 162.167 169.415 161.58C169.827 160.992 170.315 160.467 170.853 160.034C171.39 159.601 171.967 159.269 172.549 159.057C173.131 158.846 173.707 158.758 174.245 158.799C174.782 158.84 175.271 159.01 175.683 159.298C176.094 159.586 176.421 159.987 176.643 160.479C176.866 160.97 176.981 161.54 176.981 162.159Z" fill="white"/>
<path d="M135.25 163.948V190.674L158.326 182.275V155.549L135.25 163.948Z" fill="#FFD242" stroke="#CCCCCC" stroke-width="0.378666" stroke-linejoin="bevel"/>
<path d="M112.413 172.253V198.978L135.487 190.579V163.855L112.413 172.253Z" fill="white" stroke="#CCCCCC" stroke-width="0.378666" stroke-linejoin="bevel"/>
<path d="M89.6741 163.976L112.413 172.253V198.978L89.6741 190.702V163.976Z" fill="#EFEEEA" stroke="#CCCCCC" stroke-width="0.378666" stroke-linejoin="bevel"/>
<path d="M180.926 120.35V147.074L204 138.676V111.951L180.926 120.35Z" fill="#FFD242" stroke="#CCCCCC" stroke-width="0.378666" stroke-linejoin="bevel"/>
<path d="M158.187 85.0835L180.926 93.36L204 84.9607L181.262 76.6842L158.187 85.0835Z" fill="#FFC91D" stroke="#CCCCCC" stroke-width="0.378666" stroke-linejoin="bevel"/>
<path d="M180.926 93.36V120.084L204 111.686V84.9607L180.926 93.36ZM158.087 128.654V155.378L181.163 146.98V120.255L158.087 128.654Z" fill="#FFD242" stroke="#CCCCCC" stroke-width="0.378666" stroke-linejoin="bevel"/>
<path d="M158.087 101.664V128.388L181.163 119.99V93.265L158.087 101.664Z" fill="#3775A9" stroke="#CCCCCC" stroke-width="0.378666" stroke-linejoin="bevel"/>
<path d="M135.35 66.3978L158.087 74.6743L181.163 66.275L158.425 58L135.35 66.3978Z" fill="#2F6491" stroke="#CCCCCC" stroke-width="0.378666" stroke-linejoin="bevel"/>
<path d="M158.087 74.6728V101.398L181.163 93.0004V66.275L158.087 74.6728Z" fill="#3775A9" stroke="#CCCCCC" stroke-width="0.378666" stroke-linejoin="bevel"/>
<path d="M135.25 136.958V163.684L158.326 155.285V128.559L135.25 136.958Z" fill="#FFD242" stroke="#CCCCCC" stroke-width="0.378666" stroke-linejoin="bevel"/>
<path d="M135.25 109.969V136.694L158.326 128.295V101.569L135.25 109.969ZM112.413 145.263V171.988L135.487 163.589V136.865L112.413 145.263Z" fill="#3775A9" stroke="#CCCCCC" stroke-width="0.378666" stroke-linejoin="bevel"/>
<path d="M89.6741 136.988L112.413 145.263V171.988L89.6741 163.712V136.988ZM89.6741 109.996L112.413 118.273L135.487 109.875L112.749 101.598L89.6741 109.996Z" fill="#2F6491" stroke="#CCCCCC" stroke-width="0.378666" stroke-linejoin="bevel"/>
<path d="M112.413 118.273V144.998L135.487 136.599V109.875L112.413 118.273Z" fill="#3775A9" stroke="#CCCCCC" stroke-width="0.378666" stroke-linejoin="bevel"/>
<path d="M89.6741 109.996L112.413 118.273V144.998L89.6741 136.722V109.996ZM112.513 74.7021L135.25 82.9786L158.326 74.5793L135.587 66.3043L112.513 74.7021Z" fill="#2F6491" stroke="#CCCCCC" stroke-width="0.378666" stroke-linejoin="bevel"/>
<path d="M135.25 82.9786V109.704L158.326 101.305V74.5793L135.25 82.9786Z" fill="#3775A9" stroke="#CCCCCC" stroke-width="0.378666" stroke-linejoin="bevel"/>
<path d="M112.513 74.7021L135.25 82.9786V109.704L112.513 101.427V74.7021Z" fill="#2F6491" stroke="#CCCCCC" stroke-width="0.378666" stroke-linejoin="bevel"/>
<path d="M148.297 91.562C148.297 92.1814 148.182 92.8365 147.96 93.4898C147.737 94.1432 147.41 94.782 146.999 95.3698C146.587 95.9575 146.099 96.4828 145.561 96.9154C145.023 97.3481 144.447 97.6798 143.865 97.8915C143.283 98.1033 142.706 98.1911 142.169 98.1498C141.631 98.1085 141.142 97.9389 140.731 97.6507C140.319 97.3626 139.993 96.9614 139.77 96.4703C139.547 95.9791 139.432 95.4075 139.432 94.7881C139.432 94.1688 139.547 93.5137 139.77 92.8603C139.992 92.207 140.319 91.5682 140.73 90.9804C141.142 90.3926 141.631 89.8674 142.168 89.4347C142.706 89.0021 143.282 88.6704 143.865 88.4587C144.447 88.2469 145.023 88.1591 145.561 88.2004C146.098 88.2417 146.587 88.4113 146.999 88.6994C147.41 88.9876 147.737 89.3887 147.959 89.8799C148.182 90.3711 148.297 90.9427 148.297 91.562Z" fill="white"/>
</svg>