<svg width="256" height="256" title="Pyramid" viewBox="0 0 256 256" fill="none" xmlns="http://www.w3.org/2000/svg" id="pyramid">
<style>
#pyramid {
    rect {fill: #15191C}

    @media (prefers-color-scheme: light) {
        rect {fill: #F4F2ED}
    }
}
</style>
<rect width="256" height="256" rx="40" fill="#15191C"/>
<path d="M149.333 67.0345C149.333 75.8901 142.17 83.069 133.333 83.069C124.497 83.069 117.333 75.8901 117.333 67.0345C117.333 58.1789 124.497 51 133.333 51C142.17 51 149.333 58.1789 149.333 67.0345Z" fill="#AB2430"/>
<path d="M208 179.276C208 188.131 200.837 195.31 192 195.31C183.163 195.31 176 188.131 176 179.276C176 170.42 183.163 163.241 192 163.241C200.837 163.241 208 170.42 208 179.276Z" fill="#AB2430"/>
<path d="M80 173.931C80 182.787 72.8366 189.966 64 189.966C55.1634 189.966 48 182.787 48 173.931C48 165.075 55.1634 157.897 64 157.897C72.8366 157.897 80 165.075 80 173.931Z" fill="#AB2430"/>
<path d="M112 91.0862C112 98.4659 106.03 104.448 98.6667 104.448C91.3029 104.448 85.3333 98.4659 85.3333 91.0862C85.3333 83.7065 91.3029 77.7241 98.6667 77.7241C106.03 77.7241 112 83.7065 112 91.0862Z" fill="#AB2430"/>
<path d="M114.667 192.638C114.667 200.018 108.697 206 101.333 206C93.9695 206 88 200.018 88 192.638C88 185.258 93.9695 179.276 101.333 179.276C108.697 179.276 114.667 185.258 114.667 192.638Z" fill="#AB2430"/>
<path d="M200 139.19C200 146.569 194.03 152.552 186.667 152.552C179.303 152.552 173.333 146.569 173.333 139.19C173.333 131.81 179.303 125.828 186.667 125.828C194.03 125.828 200 131.81 200 139.19Z" fill="#AB2430"/>
<path d="M177.333 113.134C177.333 119.406 172.259 124.491 166 124.491C159.741 124.491 154.667 119.406 154.667 113.134C154.667 106.861 159.741 101.776 166 101.776C172.259 101.776 177.333 106.861 177.333 113.134Z" fill="#AB2430"/>
<path d="M97.3333 121.151C97.3333 127.424 92.2592 132.509 86 132.509C79.7408 132.509 74.6667 127.424 74.6667 121.151C74.6667 114.878 79.7408 109.793 86 109.793C92.2592 109.793 97.3333 114.878 97.3333 121.151Z" fill="#AB2430"/>
<path d="M145.333 187.961C145.333 194.234 140.259 199.319 134 199.319C127.741 199.319 122.667 194.234 122.667 187.961C122.667 181.688 127.741 176.603 134 176.603C140.259 176.603 145.333 181.688 145.333 187.961Z" fill="#AB2430"/>
<path d="M102.667 147.875C102.667 152.672 98.7865 156.56 94 156.56C89.2135 156.56 85.3333 152.672 85.3333 147.875C85.3333 143.078 89.2135 139.19 94 139.19C98.7865 139.19 102.667 143.078 102.667 147.875Z" fill="#AB2430"/>
<path d="M161.333 169.254C161.333 174.051 157.453 177.94 152.667 177.94C147.88 177.94 144 174.051 144 169.254C144 164.458 147.88 160.569 152.667 160.569C157.453 160.569 161.333 164.458 161.333 169.254Z" fill="#AB2430"/>
<path d="M150.667 107.789C150.667 112.586 146.786 116.474 142 116.474C137.214 116.474 133.333 112.586 133.333 107.789C133.333 102.992 137.214 99.1034 142 99.1034C146.786 99.1034 150.667 102.992 150.667 107.789Z" fill="#AB2430"/>
<path d="M129.333 111.797C129.333 115.856 126.05 119.147 122 119.147C117.95 119.147 114.667 115.856 114.667 111.797C114.667 107.739 117.95 104.448 122 104.448C126.05 104.448 129.333 107.739 129.333 111.797Z" fill="#AB2430"/>
<path d="M116 162.573C116 166.632 112.717 169.922 108.667 169.922C104.617 169.922 101.333 166.632 101.333 162.573C101.333 158.514 104.617 155.224 108.667 155.224C112.717 155.224 116 158.514 116 162.573Z" fill="#AB2430"/>
<path d="M164 149.211C164 153.27 160.717 156.56 156.667 156.56C152.617 156.56 149.333 153.27 149.333 149.211C149.333 145.152 152.617 141.862 156.667 141.862C160.717 141.862 164 145.152 164 149.211Z" fill="#AB2430"/>
<path d="M158.667 131.841C158.667 135.161 155.98 137.853 152.667 137.853C149.353 137.853 146.667 135.161 146.667 131.841C146.667 128.52 149.353 125.828 152.667 125.828C155.98 125.828 158.667 128.52 158.667 131.841Z" fill="#AB2430"/>
<path d="M118.667 126.496C118.667 129.817 115.98 132.509 112.667 132.509C109.353 132.509 106.667 129.817 106.667 126.496C106.667 123.175 109.353 120.483 112.667 120.483C115.98 120.483 118.667 123.175 118.667 126.496Z" fill="#AB2430"/>
<path d="M132 163.909C132 167.23 129.314 169.922 126 169.922C122.686 169.922 120 167.23 120 163.909C120 160.589 122.686 157.897 126 157.897C129.314 157.897 132 160.589 132 163.909Z" fill="#AB2430"/>
<path d="M142.667 159.901C142.667 162.484 140.577 164.578 138 164.578C135.423 164.578 133.333 162.484 133.333 159.901C133.333 157.318 135.423 155.224 138 155.224C140.577 155.224 142.667 157.318 142.667 159.901Z" fill="#AB2430"/>
<path d="M116 141.194C116 143.777 113.911 145.871 111.333 145.871C108.756 145.871 106.667 143.777 106.667 141.194C106.667 138.611 108.756 136.517 111.333 136.517C113.911 136.517 116 138.611 116 141.194Z" fill="#AB2430"/>
<path d="M145.333 125.159C145.333 127.742 143.244 129.836 140.667 129.836C138.089 129.836 136 127.742 136 125.159C136 122.577 138.089 120.483 140.667 120.483C143.244 120.483 145.333 122.577 145.333 125.159Z" fill="#AB2430"/>
</svg>