<svg width="256" height="256" title="Qdrant" viewBox="0 0 256 256" fill="none" xmlns="http://www.w3.org/2000/svg" id="qdrant">
<style>
#qdrant {
    rect {fill: #15191C}

    @media (prefers-color-scheme: light) {
        rect {fill: #F4F2ED}
    }
}
</style>
<rect width="256" height="256" rx="40" fill="#15191C"/>
<path d="M172.891 203.519L169.322 105.125L162.859 79.1839L206 83.751V202.775L179.647 217.984L172.891 203.519Z" fill="#24386C"/>
<path d="M205.997 83.744L179.644 98.964L125.261 87.0347L61.6054 112.952L51 83.744L128.498 39L205.997 83.744Z" fill="#7589BE"/>
<path d="M51.0019 83.744L77.3551 98.964L92.6314 144.396L144.212 185.666L128.501 217.976L51.0019 173.231V83.7429" fill="#B2BFE8"/>
<path d="M145.972 161.794L128.501 187.55V217.978L153.292 203.674L166.066 184.6" fill="#24386C"/>
<path d="M128.511 157.131L103.709 114.19L109.052 99.9576L129.36 90.1111L153.292 114.191L128.511 157.131Z" fill="#7589BE"/>
<path d="M103.709 114.186L128.501 128.49V157.122L105.572 158.108L91.7025 140.399L103.709 114.186Z" fill="#B2BFE8"/>
<path d="M128.501 128.488L153.292 114.185L170.164 142.279L149.746 159.149L128.501 157.12V128.488Z" fill="#24386C"/>
<path d="M153.292 203.672L179.645 217.977V98.9652L128.501 69.4412L77.3562 98.9652V158.024L128.501 187.549L153.292 173.232V203.672ZM153.292 142.804L128.501 157.12L103.709 142.804V114.184L128.501 99.8683L153.292 114.184V142.804Z" fill="#DC244C"/>
<path d="M128.511 187.56V157.127L103.849 142.933V173.315L128.511 187.56Z" fill="url(#linearGradient)"/>
<linearGradient id="linearGradient" x1="2115.33" y1="2144.08" x2="-342.182" y2="2144.08" gradientUnits="userSpaceOnUse">
<stop stop-color="#FF3364"/>
<stop offset="1" stop-color="#C91540" stop-opacity="0"/>
</linearGradient>
</svg>