<svg width="256" height="256" title="Qoder" viewBox="0 0 256 256" fill="none" xmlns="http://www.w3.org/2000/svg" id="qoder">
<style>
#qoder {
    rect {fill: #15191C}
    path.qoder {fill: #FFFFFF}

    @media (prefers-color-scheme: light) {
        rect {fill: #F4F2ED}
        path.qoder {fill: #212121}
    }
}
</style>
<rect width="256" height="256" rx="40" fill="#15191C"/>
<path d="M196 142.738V119.245C196 105.898 190.208 95.1876 180.127 89.8559L128.061 62.323L127.539 63.3227C137.24 68.452 142.806 78.7999 142.806 91.7125V115.205C142.806 115.913 142.788 116.657 142.752 117.401C142.746 117.544 142.734 117.686 142.722 117.835L142.699 118.186C142.669 118.656 142.639 119.132 142.592 119.602C142.574 119.793 142.55 119.989 142.527 120.18L142.473 120.626C142.426 121.019 142.384 121.405 142.325 121.798C142.295 122.018 142.26 122.233 142.224 122.453L142.171 122.792C142.105 123.191 142.04 123.589 141.963 123.988C141.85 124.583 141.732 125.172 141.601 125.761L141.56 125.934C141.429 126.505 141.287 127.07 141.132 127.636L140.996 128.135C140.836 128.707 140.669 129.278 140.491 129.849L140.331 130.343C140.129 130.968 139.916 131.593 139.69 132.211C139.631 132.378 139.566 132.539 139.501 132.705L139.4 132.973C139.216 133.449 139.032 133.931 138.836 134.407C138.723 134.687 138.599 134.967 138.48 135.246L138.438 135.347C138.284 135.71 138.124 136.073 137.958 136.43C137.815 136.752 137.661 137.067 137.513 137.383C137.341 137.74 137.175 138.091 136.997 138.442C136.83 138.769 136.664 139.09 136.492 139.412C136.326 139.727 136.154 140.048 135.982 140.364C135.804 140.685 135.62 141.006 135.436 141.328C135.258 141.637 135.08 141.952 134.89 142.256C134.7 142.577 134.504 142.893 134.303 143.208C134.113 143.512 133.929 143.809 133.733 144.107C133.531 144.422 133.324 144.725 133.086 145.082C132.897 145.362 132.707 145.642 132.517 145.915C132.315 146.201 132.113 146.481 131.876 146.808C131.656 147.111 131.437 147.409 131.211 147.707C130.992 147.998 130.772 148.278 130.547 148.564C130.315 148.855 130.084 149.153 129.853 149.438C129.651 149.688 129.443 149.932 129.236 150.176L129.194 150.224C128.921 150.551 128.642 150.872 128.357 151.194C128.132 151.449 127.906 151.699 127.681 151.949C127.396 152.265 127.111 152.568 126.821 152.878C126.601 153.11 126.376 153.336 126.15 153.568C125.764 153.961 125.373 154.341 124.975 154.722L124.803 154.889C124.661 155.026 124.524 155.157 124.382 155.293C123.883 155.758 123.379 156.21 122.863 156.656L122.721 156.781C122.667 156.829 122.608 156.882 122.554 156.93L122.311 157.132C121.89 157.49 121.463 157.835 121.035 158.18C120.905 158.287 120.768 158.388 120.632 158.495L120.531 158.572C120.169 158.852 119.807 159.126 119.41 159.417C119.244 159.536 119.083 159.661 118.917 159.78C118.496 160.084 118.075 160.375 117.647 160.661L117.315 160.893C116.757 161.262 116.194 161.619 115.624 161.964L115.262 162.178C114.811 162.446 114.36 162.708 113.903 162.963C113.767 163.041 113.63 163.113 113.494 163.183L113.28 163.297C112.901 163.499 112.527 163.696 112.147 163.892C111.939 163.993 111.732 164.094 111.524 164.195L111.453 164.231C111.085 164.409 110.723 164.577 110.349 164.743C110.112 164.85 109.874 164.957 109.631 165.058C109.257 165.219 108.878 165.374 108.504 165.523L108.302 165.6C108.136 165.665 107.97 165.73 107.804 165.796C107.394 165.951 106.979 166.093 106.563 166.236L106.338 166.314C106.213 166.356 106.089 166.403 105.964 166.445C105.306 166.659 104.695 166.843 104.101 167.01L100.464 168.009C99.924 168.159 99.384 168.295 98.85 168.42C98.7491 168.444 98.6541 168.462 98.5532 168.479L98.1498 168.563C97.8472 168.629 97.5505 168.694 97.2479 168.747C97.1233 168.772 96.9928 168.79 96.8682 168.813L96.3816 168.896C96.1443 168.938 95.907 168.98 95.6696 169.01C95.5331 169.028 95.3967 169.045 95.2602 169.057L94.7677 169.117C94.5482 169.146 94.3286 169.17 94.109 169.194C94.0201 169.2 93.9311 169.206 93.848 169.217L93.6463 169.235C93.3021 169.265 92.958 169.295 92.6138 169.312C92.4833 169.319 92.3586 169.325 92.2281 169.325H92.0383C91.7357 169.342 91.439 169.355 91.1423 169.355C90.9999 169.355 90.8515 169.355 90.7092 169.355H90.5312C90.2523 169.355 89.9675 169.348 89.6886 169.337C89.5343 169.337 89.38 169.325 89.2258 169.313H89.0715C88.7808 169.289 88.496 169.271 88.2052 169.247L87.8255 169.212C87.4635 169.176 87.1075 169.14 86.7456 169.092L86.5142 169.063C86.0929 169.003 85.6716 168.938 85.2503 168.86L84.9358 168.801C84.6747 168.747 84.4137 168.694 84.1526 168.635C83.7432 168.545 83.3397 168.444 82.9362 168.331L82.7642 168.284C82.687 168.266 82.6158 168.242 82.5387 168.224C82.0047 168.069 81.4825 167.903 80.9901 167.73L80.6222 167.593C80.2602 167.462 79.8923 167.319 79.5363 167.171C79.3999 167.111 79.2634 167.051 79.1269 166.992L79.0379 166.951C78.7234 166.813 78.4149 166.67 78.1064 166.522L77.9639 166.45C77.9283 166.431 77.9007 166.417 77.8809 166.409L74.0063 164.374L76.8128 167.189H76.9078L128.85 194.65C129.028 194.745 129.206 194.834 129.39 194.929C129.449 194.959 129.508 194.983 129.568 195.013L129.681 195.067C130.001 195.221 130.321 195.37 130.654 195.513L130.749 195.555C130.891 195.614 131.027 195.68 131.17 195.739C131.544 195.894 131.918 196.037 132.297 196.179L132.422 196.227C132.487 196.25 132.547 196.275 132.6 196.298L132.677 196.322C133.199 196.507 133.745 196.679 134.291 196.834C134.374 196.858 134.457 196.881 134.54 196.899L134.7 196.941C135.116 197.054 135.543 197.161 135.97 197.256L136.071 197.28C136.124 197.292 136.172 197.304 136.225 197.316C136.35 197.346 136.48 197.369 136.611 197.394L137.115 197.489C137.548 197.566 137.982 197.637 138.421 197.703L138.664 197.732C139.032 197.78 139.406 197.821 139.779 197.857L140.509 197.923C140.622 197.929 140.735 197.935 140.853 197.941L141.138 197.953C141.328 197.964 141.512 197.976 141.708 197.982C141.975 197.994 142.248 197.994 142.515 198H142.74C142.853 198 142.96 198 143.073 198C143.12 198 143.162 198 143.209 198C143.5 198 143.79 197.989 144.141 197.971H144.33C144.461 197.959 144.597 197.959 144.734 197.946C145.084 197.929 145.44 197.899 145.796 197.869L145.986 197.851C146.081 197.846 146.176 197.839 146.324 197.821C146.532 197.798 146.739 197.774 146.947 197.75L147.416 197.691C147.57 197.673 147.724 197.655 147.879 197.631C148.128 197.596 148.371 197.553 148.62 197.512L149.095 197.435C149.232 197.411 149.368 197.394 149.505 197.363C149.813 197.304 150.122 197.238 150.43 197.173L150.81 197.096C150.923 197.072 151.035 197.049 151.148 197.024C151.7 196.899 152.252 196.756 152.809 196.602L156.447 195.603C157.046 195.435 157.675 195.251 158.357 195.025C158.488 194.983 158.613 194.942 158.737 194.894L158.974 194.811C159.402 194.662 159.829 194.513 160.25 194.359C160.434 194.293 160.612 194.216 160.79 194.144L160.962 194.073C161.348 193.918 161.739 193.764 162.119 193.597C162.362 193.49 162.606 193.383 162.855 193.276C163.235 193.103 163.609 192.931 163.982 192.752L164.107 192.693C164.303 192.597 164.498 192.502 164.694 192.407C165.086 192.21 165.472 192.008 165.857 191.8L166.071 191.687C166.213 191.61 166.356 191.538 166.492 191.46C166.961 191.204 167.418 190.931 167.881 190.657L168.034 190.568C168.106 190.527 168.177 190.484 168.255 190.443C168.806 190.11 169.353 189.765 169.893 189.408L170.266 189.152L181.699 194.377C188.381 197.429 195.976 192.532 195.976 185.165V142.726C195.976 142.722 195.976 142.718 195.976 142.714L196 142.738Z" fill="#2ADB5C"/>
<path d="M128.09 62.3349C127.912 62.2397 127.734 62.1505 127.556 62.0612C127.461 62.0136 127.361 61.9719 127.266 61.9243C126.945 61.7696 126.625 61.6209 126.304 61.478C126.132 61.4007 125.966 61.3293 125.788 61.2519C125.42 61.0972 125.047 60.9544 124.667 60.8175C124.566 60.7818 124.465 60.7342 124.358 60.6985C124.334 60.6926 124.311 60.6807 124.287 60.6747C123.759 60.4903 123.225 60.3177 122.685 60.163C122.548 60.1213 122.412 60.0916 122.276 60.0559C121.86 59.9428 121.439 59.8357 121.018 59.7465C120.929 59.7286 120.846 59.6989 120.762 59.681C120.579 59.6393 120.395 59.6096 120.211 59.5739C120.104 59.5501 119.991 59.5322 119.884 59.5084C119.457 59.4311 119.024 59.3597 118.585 59.3002C118.502 59.2883 118.419 59.2823 118.336 59.2704C117.968 59.2228 117.606 59.1812 117.232 59.1455C117.102 59.1336 116.971 59.1217 116.84 59.1098C116.728 59.0979 116.615 59.086 116.502 59.08C116.318 59.0681 116.134 59.0621 115.95 59.0502C115.737 59.0383 115.523 59.0264 115.31 59.0205C115.025 59.0086 114.734 59.0086 114.443 59.0026C114.236 59.0026 114.022 58.9967 113.814 59.0026C113.512 59.0026 113.203 59.0205 112.895 59.0264C112.699 59.0324 112.497 59.0383 112.301 59.0502C111.951 59.0681 111.595 59.0979 111.245 59.1276C111.085 59.1395 110.925 59.1514 110.765 59.1633C110.747 59.1633 110.729 59.1633 110.717 59.1633C110.432 59.1931 110.141 59.2347 109.851 59.2704C109.619 59.3002 109.394 59.324 109.162 59.3537C108.836 59.4013 108.51 59.4608 108.183 59.5144C107.97 59.5501 107.756 59.5798 107.543 59.6215C107.175 59.6929 106.801 59.7703 106.427 59.8536C106.249 59.8893 106.077 59.925 105.899 59.9666C105.347 60.0916 104.795 60.2344 104.244 60.3891L100.606 61.3888C99.9655 61.5673 99.3306 61.7577 98.6957 61.966C98.488 62.0314 98.2862 62.1088 98.0786 62.1802C97.6514 62.329 97.2241 62.4777 96.8029 62.6324C96.5655 62.7217 96.3282 62.8169 96.0849 62.9121C95.6992 63.0668 95.3136 63.2215 94.9279 63.3882C94.6846 63.4953 94.4354 63.6024 94.1922 63.7095C93.8124 63.882 93.4386 64.0546 93.0647 64.2331C92.8275 64.3462 92.5901 64.4592 92.3527 64.5783C91.9611 64.7746 91.5754 64.9769 91.1898 65.1852C90.9762 65.2983 90.7625 65.4113 90.5549 65.5244C90.0861 65.7803 89.6293 66.054 89.1664 66.3277C89.0419 66.3991 88.9173 66.4705 88.7927 66.5479C88.2408 66.8811 87.695 67.2322 87.149 67.5892C87.1193 67.6071 87.0897 67.6309 87.0601 67.6487C86.9414 67.7261 86.8286 67.8094 86.7159 67.8867C86.2768 68.1842 85.8437 68.4818 85.4165 68.7912C85.2384 68.9221 85.0604 69.053 84.8825 69.178C84.5086 69.4577 84.1348 69.7373 83.7669 70.0229C83.5948 70.1539 83.4228 70.2907 83.2567 70.4217C82.8175 70.7727 82.3785 71.1297 81.9454 71.4927C81.8622 71.5642 81.7792 71.6296 81.6961 71.695C81.6783 71.707 81.6606 71.7247 81.6428 71.7367C81.5537 71.8141 81.4706 71.8974 81.3817 71.9747C80.8595 72.427 80.3374 72.8911 79.833 73.3671C79.6254 73.5575 79.4295 73.7539 79.2219 73.9502C78.8184 74.337 78.4209 74.7297 78.0233 75.1285C77.9165 75.2356 77.8097 75.3367 77.7028 75.4438C77.5782 75.5689 77.4655 75.7056 77.341 75.8306C77.0442 76.146 76.7476 76.4614 76.4568 76.7827C76.2254 77.0385 75.994 77.2945 75.7626 77.5503C75.4719 77.8775 75.193 78.2108 74.9081 78.5381C74.7657 78.7047 74.6233 78.8654 74.4869 79.032C74.4039 79.1332 74.3207 79.2402 74.2376 79.3414C73.9944 79.639 73.7571 79.9364 73.5256 80.2399C73.3002 80.5315 73.0688 80.8231 72.8433 81.1147C72.6119 81.4182 72.3865 81.7276 72.1609 82.037C72.0185 82.2334 71.8702 82.4238 71.7278 82.6261C71.6506 82.7332 71.5854 82.8403 71.5082 82.9475C71.3006 83.2449 71.0988 83.5484 70.8912 83.846C70.6776 84.1613 70.4639 84.4767 70.2563 84.798C70.0605 85.1015 69.8647 85.4109 69.6748 85.7203C69.5443 85.9226 69.4137 86.125 69.2891 86.3332C69.2179 86.4522 69.1527 86.5772 69.0755 86.6962C68.8856 87.0116 68.7017 87.327 68.5237 87.6483C68.3338 87.9756 68.1499 88.3029 67.9659 88.6361C67.7879 88.9574 67.6159 89.2847 67.4438 89.606C67.337 89.8083 67.2183 90.0106 67.1174 90.2189C67.0522 90.3438 66.9988 90.4689 66.9335 90.5938C66.7496 90.9567 66.5775 91.3197 66.3995 91.6827C66.2452 92.0041 66.0909 92.3253 65.9426 92.6526C65.7765 93.0215 65.6163 93.3906 65.4561 93.7595C65.3611 93.9796 65.2543 94.1998 65.1653 94.4259C65.1238 94.5211 65.0882 94.6223 65.0467 94.7235C64.8449 95.2054 64.661 95.6933 64.4711 96.1872C64.3702 96.4491 64.2694 96.705 64.1744 96.9667C63.943 97.5975 63.7294 98.2343 63.5217 98.8769C63.4861 98.984 63.4446 99.0911 63.409 99.2042C63.409 99.2161 63.4031 99.2339 63.3971 99.2458C63.3793 99.2934 63.3675 99.347 63.3497 99.3945C63.1657 99.9777 62.9996 100.561 62.8334 101.144C62.786 101.317 62.7385 101.483 62.697 101.656C62.5427 102.233 62.3944 102.816 62.2638 103.399C62.252 103.459 62.2342 103.518 62.2223 103.578C62.1036 104.09 61.9968 104.601 61.8959 105.119C61.8781 105.214 61.8663 105.303 61.8485 105.399C61.7654 105.827 61.7001 106.255 61.6289 106.69C61.5755 107.005 61.5221 107.327 61.4747 107.642C61.4094 108.094 61.3619 108.546 61.3085 108.999C61.2729 109.296 61.2314 109.594 61.2077 109.891C61.1602 110.391 61.1246 110.897 61.0949 111.403C61.0771 111.653 61.0534 111.897 61.0415 112.146C61.0178 112.878 61 113.634 61 114.384V137.876C61 146.439 63.4209 153.752 67.5743 159.262C67.9897 159.816 68.4228 160.345 68.8679 160.863C69.5443 161.637 70.2504 162.369 70.998 163.053C72.7365 164.653 74.6709 166.022 76.7654 167.129L128.832 194.656C119.267 189.598 113.073 179.107 113.067 165.403V141.911C113.067 141.161 113.085 140.405 113.12 139.656C113.132 139.406 113.156 139.162 113.174 138.912C113.209 138.406 113.239 137.906 113.286 137.4C113.316 137.103 113.357 136.805 113.387 136.508C113.44 136.056 113.488 135.603 113.553 135.151C113.601 134.836 113.654 134.514 113.707 134.199C113.779 133.771 113.85 133.336 113.927 132.908C114.04 132.301 114.164 131.694 114.301 131.093C114.313 131.033 114.331 130.974 114.342 130.914C114.479 130.331 114.621 129.748 114.776 129.171C114.823 129.004 114.865 128.832 114.912 128.665C115.072 128.082 115.244 127.493 115.428 126.916C115.446 126.868 115.458 126.814 115.476 126.767C115.511 126.648 115.559 126.523 115.6 126.404C115.808 125.767 116.022 125.124 116.253 124.494C116.348 124.232 116.449 123.976 116.55 123.714C116.734 123.226 116.923 122.738 117.125 122.25C117.256 121.929 117.398 121.608 117.535 121.292C117.695 120.923 117.855 120.555 118.021 120.186C118.17 119.858 118.324 119.537 118.478 119.216C118.65 118.853 118.828 118.49 119.012 118.127C119.178 117.794 119.35 117.466 119.522 117.133C119.694 116.806 119.866 116.484 120.045 116.163C120.228 115.83 120.412 115.503 120.602 115.175C120.786 114.86 120.97 114.539 121.154 114.223C121.35 113.896 121.552 113.575 121.753 113.253C121.943 112.944 122.139 112.64 122.335 112.331C122.543 112.01 122.756 111.694 122.97 111.379C123.172 111.075 123.373 110.778 123.587 110.48C123.8 110.177 124.02 109.873 124.24 109.576C124.465 109.266 124.69 108.957 124.922 108.653C125.147 108.356 125.373 108.07 125.604 107.779C125.842 107.481 126.079 107.178 126.316 106.88C126.536 106.613 126.761 106.345 126.987 106.077C127.272 105.744 127.55 105.411 127.841 105.083C128.067 104.827 128.298 104.572 128.53 104.316C128.82 103.994 129.117 103.679 129.414 103.364C129.639 103.126 129.865 102.894 130.096 102.661C130.488 102.263 130.891 101.87 131.294 101.483C131.496 101.287 131.698 101.09 131.906 100.9C132.416 100.424 132.932 99.9599 133.454 99.5076C133.561 99.4184 133.662 99.3173 133.769 99.2279C133.852 99.1566 133.935 99.0911 134.018 99.0256C134.451 98.6627 134.884 98.3056 135.329 97.9546C135.501 97.8177 135.673 97.6868 135.846 97.5558C136.213 97.2702 136.587 96.9846 136.961 96.7109C137.139 96.58 137.317 96.4491 137.495 96.3182C137.922 96.0088 138.361 95.7053 138.794 95.4137C138.907 95.3364 139.02 95.2531 139.139 95.1816C139.708 94.8008 140.284 94.4378 140.865 94.0808C140.99 94.0094 141.114 93.9379 141.233 93.8666C141.696 93.5929 142.159 93.3191 142.628 93.0633C142.835 92.9443 143.049 92.8372 143.262 92.7241C143.648 92.5158 144.04 92.3135 144.431 92.1171C144.669 91.9982 144.9 91.8851 145.137 91.772C145.511 91.5935 145.891 91.415 146.271 91.2425C146.514 91.1353 146.757 91.0282 147.001 90.9211C147.386 90.7545 147.772 90.5997 148.164 90.4451C148.401 90.3498 148.638 90.2546 148.876 90.1654C149.297 90.0047 149.724 89.856 150.151 89.7132C150.359 89.6417 150.561 89.5703 150.768 89.4989C151.403 89.2906 152.038 89.1003 152.679 88.9217L156.316 87.922C156.874 87.7674 157.425 87.6305 157.972 87.5055C158.161 87.4639 158.345 87.4282 158.53 87.3865C158.892 87.3091 159.253 87.2258 159.61 87.1604C159.829 87.1187 160.048 87.0889 160.268 87.0533C160.588 86.9997 160.909 86.9402 161.229 86.8926C161.46 86.8569 161.692 86.839 161.923 86.8093C162.226 86.7736 162.528 86.732 162.831 86.7022C162.991 86.6844 163.146 86.6784 163.306 86.6665C163.662 86.6367 164.018 86.607 164.368 86.5891C164.563 86.5772 164.759 86.5772 164.955 86.5654C165.264 86.5534 165.572 86.5415 165.881 86.5356C166.094 86.5356 166.303 86.5356 166.51 86.5356C166.8 86.5356 167.092 86.5355 167.376 86.5534C167.59 86.5593 167.803 86.5713 168.017 86.5832C168.313 86.601 168.611 86.6189 168.901 86.6426C169.032 86.6546 169.162 86.6665 169.293 86.6784C169.661 86.7141 170.029 86.7557 170.397 86.8033C170.48 86.8153 170.562 86.8212 170.646 86.8331C171.085 86.8926 171.518 86.964 171.945 87.0414C172.052 87.0592 172.165 87.083 172.272 87.1068C172.544 87.1604 172.812 87.2199 173.084 87.2794C173.505 87.3746 173.927 87.4817 174.342 87.5888C174.478 87.6245 174.615 87.6602 174.751 87.6959C175.291 87.8506 175.826 88.0173 176.353 88.2017C176.485 88.2493 176.608 88.2969 176.74 88.3445C177.113 88.4813 177.487 88.6242 177.855 88.7789C178.027 88.8503 178.199 88.9276 178.371 89.005C178.697 89.1478 179.018 89.2966 179.333 89.4513C179.611 89.5882 179.884 89.7191 180.157 89.8619L128.09 62.3349Z" class="qoder" fill="#FFFFFF"/>
</svg>