<svg width="256" height="256" title="Qubes OS" viewBox="0 0 256 256" fill="none" xmlns="http://www.w3.org/2000/svg" id="qubesos">
<style>
#qubesos {
    rect {fill: #15191C}

    @media (prefers-color-scheme: light) {
        rect {fill: #F4F2ED}
    }
}
</style>
<rect width="256" height="256" rx="40" fill="#15191C"/>
<path d="M127.292 44.0045C124.194 43.933 121.136 44.719 118.454 46.2763L61.4432 79.2983C58.877 80.7842 56.7457 82.9219 55.2636 85.4964C53.7815 88.071 53.0008 90.9918 53 93.9652V160.044C53.0038 163.014 53.7859 165.932 55.2679 168.503C56.7498 171.074 58.8795 173.209 61.4432 174.693L118.454 207.741C121.019 209.228 123.93 210.011 126.892 210.011C129.855 210.011 132.766 209.228 135.331 207.741L192.35 174.693C194.912 173.208 197.04 171.073 198.521 168.501C200.001 165.93 200.782 163.013 200.785 160.044V93.9652C200.785 90.9926 200.006 88.0724 198.525 85.4979C197.044 82.9234 194.915 80.7853 192.35 79.2983L135.331 46.2763C132.883 44.855 130.119 44.0738 127.292 44.0045ZM127.109 81.354C128.664 81.39 130.186 81.8177 131.533 82.5979L162.895 100.763C164.306 101.581 165.478 102.757 166.292 104.173C167.107 105.589 167.535 107.196 167.535 108.831V145.178C167.532 146.811 167.102 148.413 166.288 149.826C165.474 151.239 164.304 152.412 162.895 153.229L131.533 171.411C130.123 172.228 128.523 172.658 126.895 172.658C125.266 172.658 123.666 172.228 122.256 171.411L90.8927 153.229C89.4846 152.412 88.3149 151.239 87.5008 149.826C86.6867 148.413 86.2567 146.81 86.2539 145.178V108.831C86.2536 107.196 86.6822 105.589 87.4964 104.173C88.3107 102.757 89.482 101.581 90.8927 100.763L122.256 82.5979C123.729 81.7448 125.408 81.3145 127.109 81.354Z" fill="#63A0FF"/>
<path d="M198.521 85.5234L166.28 104.199C167.095 105.614 167.526 107.219 167.527 108.854V145.192C167.526 146.826 167.097 148.43 166.283 149.845C165.468 151.26 164.298 152.434 162.888 153.252L131.535 171.426C130.128 172.236 128.535 172.661 126.913 172.66V210.011C129.867 210.012 132.77 209.234 135.331 207.756L148.015 200.405L164.2 209.836C171.439 214.055 183.094 214.055 190.333 209.836L197.571 205.619C204.81 201.401 204.81 194.608 197.571 190.39L181.475 181.011L192.351 174.708C194.913 173.222 197.041 171.087 198.521 168.516C200.002 165.944 200.783 163.028 200.786 160.058V93.9882C200.784 91.0161 200.003 88.0968 198.521 85.5234Z" fill="#3874D8"/>
<path d="M55.2796 85.4953L87.5148 104.18C88.3278 102.763 89.498 101.586 90.9078 100.767L122.265 82.5979C123.676 81.7824 125.275 81.3534 126.903 81.354C128.53 81.3545 130.129 81.7846 131.539 82.6011L162.899 100.766C164.301 101.583 165.465 102.755 166.275 104.165L198.504 85.4905C197.028 82.9226 194.906 80.7886 192.35 79.3017L135.323 46.2676C132.76 44.7836 129.853 44.002 126.894 44.001C123.935 44.0001 121.028 44.7799 118.464 46.2623L61.4529 79.2974C58.8888 80.7846 56.7597 82.9228 55.2796 85.4972V85.4953Z" fill="#99BFFF"/>
</svg>