<svg width="256" height="256" title="QuiltMC" viewBox="0 0 256 256" fill="none" xmlns="http://www.w3.org/2000/svg" id="quiltmc">
<style>
#quiltmc {
    rect {fill: #15191C}

    @media (prefers-color-scheme: light) {
        rect {fill: #F4F2ED}
    }
}
</style>
<rect width="256" height="256" rx="40" fill="#15191C"/>
<path d="M91.8908 74.8089C91.8912 75.5163 92.1723 76.1946 92.6723 76.6949C93.1723 77.1952 93.8504 77.4768 94.5577 77.4777H99.1017V87.6144H94.5577C93.862 87.6322 93.2007 87.9211 92.715 88.4195C92.2292 88.9179 91.9573 89.5863 91.9573 90.2823C91.9573 90.9782 92.2292 91.6467 92.715 92.145C93.2007 92.6434 93.862 92.9323 94.5577 92.9501H99.1017V100.727C99.1019 101.038 99.0409 101.345 98.9223 101.632C98.8037 101.919 98.6296 102.18 98.4102 102.399C98.1908 102.619 97.9302 102.793 97.6434 102.912C97.3566 103.031 97.0492 103.092 96.7388 103.092H88.9617V98.548C88.9617 97.8402 88.6805 97.1614 88.18 96.6609C87.6796 96.1605 87.0008 95.8793 86.293 95.8793C85.5852 95.8793 84.9064 96.1605 84.4059 96.6609C83.9055 97.1614 83.6243 97.8402 83.6243 98.548V103.092H73.4878V98.548C73.4969 98.1919 73.4347 97.8376 73.3047 97.506C73.1747 97.1743 72.9797 96.872 72.7311 96.617C72.4824 96.3619 72.1852 96.1591 71.857 96.0207C71.5288 95.8823 71.1762 95.811 70.82 95.811C70.4638 95.811 70.1112 95.8823 69.783 96.0207C69.4548 96.1591 69.1576 96.3619 68.909 96.617C68.6603 96.872 68.4653 97.1743 68.3353 97.506C68.2054 97.8376 68.1431 98.1919 68.1522 98.548V103.092H60.3646C59.7376 103.092 59.1364 102.842 58.6931 102.399C58.2497 101.956 58.0005 101.354 58 100.727V64.3646C58 63.7375 58.2491 63.136 58.6926 62.6926C59.136 62.2491 59.7375 62 60.3646 62H96.7318C97.0423 62 97.3497 62.0612 97.6364 62.18C97.9232 62.2989 98.1838 62.4731 98.4032 62.6927C98.6226 62.9123 98.7967 63.173 98.9153 63.4599C99.0339 63.7467 99.0949 64.0542 99.0947 64.3646V72.1384H94.5507C93.8442 72.1408 93.1673 72.4232 92.6687 72.9238C92.1701 73.4244 91.8903 74.1024 91.8908 74.8089Z" fill="#9722FF"/>
<path d="M138.323 74.8089C138.323 75.5164 138.604 76.195 139.104 76.6954C139.604 77.1958 140.282 77.4772 140.99 77.4777H145.534V87.6144H140.99C140.294 87.6322 139.633 87.9211 139.147 88.4195C138.661 88.9179 138.389 89.5863 138.389 90.2823C138.389 90.9782 138.661 91.6467 139.147 92.145C139.633 92.6434 140.294 92.9323 140.99 92.9501H145.534V100.727C145.534 101.354 145.285 101.955 144.842 102.399C144.399 102.842 143.798 103.092 143.171 103.092H106.797C106.486 103.092 106.179 103.031 105.892 102.912C105.605 102.793 105.345 102.619 105.125 102.399C104.906 102.18 104.732 101.919 104.613 101.632C104.494 101.345 104.434 101.038 104.434 100.727V92.9501H108.967C109.323 92.9592 109.678 92.897 110.009 92.767C110.341 92.637 110.643 92.442 110.898 92.1933C111.153 91.9447 111.356 91.6475 111.494 91.3193C111.633 90.9911 111.704 90.6385 111.704 90.2823C111.704 89.926 111.633 89.5734 111.494 89.2452C111.356 88.917 111.153 88.6198 110.898 88.3712C110.643 88.1225 110.341 87.9275 110.009 87.7975C109.678 87.6675 109.323 87.6053 108.967 87.6144H104.434V77.4777H108.967C109.324 77.4868 109.678 77.4245 110.01 77.2944C110.342 77.1644 110.644 76.9692 110.9 76.7204C111.155 76.4716 111.358 76.1742 111.496 75.8458C111.635 75.5173 111.706 75.1645 111.706 74.8081C111.706 74.4516 111.635 74.0988 111.496 73.7704C111.358 73.4419 111.155 73.1445 110.9 72.8957C110.644 72.6469 110.342 72.4518 110.01 72.3217C109.678 72.1916 109.324 72.1293 108.967 72.1384H104.434V64.3646C104.433 64.0541 104.494 63.7466 104.613 63.4596C104.731 63.1726 104.905 62.9118 105.125 62.6922C105.344 62.4725 105.605 62.2983 105.892 62.1796C106.179 62.0608 106.486 61.9998 106.797 62H143.164C143.474 62 143.782 62.0612 144.068 62.18C144.355 62.2989 144.616 62.4731 144.835 62.6927C145.055 62.9123 145.229 63.173 145.347 63.4599C145.466 63.7468 145.527 64.0542 145.527 64.3646V72.1384H140.983C140.276 72.1408 139.599 72.4232 139.101 72.9238C138.602 73.4244 138.322 74.1024 138.323 74.8089Z" fill="#DC29DD"/>
<path d="M191.957 64.3646V100.731C191.957 101.041 191.896 101.349 191.778 101.636C191.659 101.923 191.485 102.183 191.266 102.403C191.046 102.622 190.786 102.797 190.499 102.916C190.212 103.034 189.905 103.096 189.594 103.096H181.817V98.5515C181.826 98.1954 181.764 97.8411 181.634 97.5095C181.504 97.1778 181.309 96.8755 181.06 96.6205C180.812 96.3654 180.514 96.1626 180.186 96.0242C179.858 95.8858 179.505 95.8145 179.149 95.8145C178.793 95.8145 178.44 95.8858 178.112 96.0242C177.784 96.1626 177.487 96.3654 177.238 96.6205C176.99 96.8755 176.794 97.1778 176.665 97.5095C176.535 97.8411 176.472 98.1954 176.481 98.5515V103.096H166.345V98.5515C166.354 98.1954 166.292 97.8411 166.162 97.5095C166.032 97.1778 165.837 96.8755 165.588 96.6205C165.34 96.3654 165.042 96.1626 164.714 96.0242C164.386 95.8858 164.033 95.8145 163.677 95.8145C163.321 95.8145 162.968 95.8858 162.64 96.0242C162.312 96.1626 162.015 96.3654 161.766 96.6205C161.517 96.8755 161.322 97.1778 161.192 97.5095C161.062 97.8411 161 98.1954 161.009 98.5515V103.096H153.232C152.605 103.095 152.004 102.846 151.561 102.402C151.117 101.959 150.868 101.358 150.868 100.731V92.9536H155.412C155.768 92.9627 156.122 92.9005 156.454 92.7705C156.785 92.6405 157.087 92.4455 157.343 92.1968C157.598 91.9482 157.8 91.651 157.939 91.3228C158.077 90.9946 158.148 90.642 158.148 90.2858C158.148 89.9295 158.077 89.5769 157.939 89.2487C157.8 88.9205 157.598 88.6233 157.343 88.3747C157.087 88.126 156.785 87.931 156.454 87.801C156.122 87.671 155.768 87.6088 155.412 87.6179H150.868V77.4812H155.412C156.108 77.4634 156.769 77.1743 157.255 76.6756C157.742 76.1769 158.014 75.508 158.014 74.8116C158.014 74.1151 157.742 73.4463 157.255 72.9475C156.769 72.4488 156.108 72.1598 155.412 72.1419H150.868V64.3646C150.868 63.7375 151.117 63.136 151.56 62.6926C152.004 62.2491 152.605 62 153.232 62H189.594C189.905 62 190.212 62.0612 190.499 62.18C190.786 62.2989 191.046 62.4731 191.266 62.6927C191.485 62.9123 191.659 63.173 191.778 63.4599C191.896 63.7467 191.957 64.0542 191.957 64.3646Z" fill="#27A2FD"/>
<path d="M99.0947 110.794V147.162C99.0949 147.473 99.0339 147.78 98.9153 148.067C98.7967 148.354 98.6226 148.615 98.4032 148.834C98.1838 149.054 97.9232 149.228 97.6364 149.347C97.3497 149.466 97.0423 149.527 96.7318 149.527H88.9547V144.983C88.9547 144.275 88.6735 143.596 88.1731 143.096C87.6726 142.595 86.9938 142.314 86.286 142.314C85.5782 142.314 84.8994 142.595 84.399 143.096C83.8985 143.596 83.6173 144.275 83.6173 144.983V149.527H73.4808V144.983C73.49 144.627 73.4277 144.272 73.2977 143.941C73.1677 143.609 72.9727 143.307 72.7241 143.052C72.4754 142.797 72.1783 142.594 71.85 142.456C71.5218 142.317 71.1692 142.246 70.813 142.246C70.4568 142.246 70.1042 142.317 69.776 142.456C69.4478 142.594 69.1506 142.797 68.902 143.052C68.6534 143.307 68.4583 143.609 68.3283 143.941C68.1984 144.272 68.1361 144.627 68.1452 144.983V149.527H60.3646C59.7375 149.527 59.136 149.278 58.6926 148.834C58.2491 148.391 58 147.789 58 147.162V110.794C58.0009 110.168 58.2504 109.567 58.6937 109.124C59.137 108.681 59.7379 108.432 60.3646 108.431H68.1417V112.975C68.1595 113.671 68.4484 114.332 68.9468 114.818C69.4452 115.304 70.1136 115.576 70.8095 115.576C71.5055 115.576 72.1739 115.304 72.6723 114.818C73.1706 114.332 73.4595 113.671 73.4773 112.975V108.431H83.6138V112.975C83.6138 113.683 83.895 114.362 84.3955 114.862C84.8959 115.363 85.5747 115.644 86.2825 115.644C86.9903 115.644 87.6691 115.363 88.1696 114.862C88.67 114.362 88.9512 113.683 88.9512 112.975V108.431H96.7283C97.0389 108.431 97.3465 108.492 97.6336 108.61C97.9207 108.729 98.1816 108.903 98.4014 109.122C98.6211 109.342 98.7955 109.602 98.9145 109.889C99.0334 110.176 99.0947 110.484 99.0947 110.794Z" fill="#DC29DD"/>
<path d="M138.323 121.24C138.323 121.591 138.391 121.937 138.525 122.261C138.659 122.585 138.856 122.879 139.103 123.127C139.351 123.374 139.645 123.571 139.969 123.705C140.293 123.839 140.639 123.907 140.99 123.907H145.534V134.044H140.99C140.294 134.062 139.633 134.351 139.147 134.849C138.661 135.347 138.389 136.016 138.389 136.712C138.389 137.408 138.661 138.076 139.147 138.575C139.633 139.073 140.294 139.362 140.99 139.38H145.534V147.157C145.534 147.467 145.473 147.775 145.354 148.062C145.236 148.349 145.062 148.609 144.842 148.829C144.623 149.049 144.362 149.223 144.075 149.342C143.789 149.46 143.481 149.522 143.171 149.522H135.38V144.978C135.389 144.622 135.327 144.267 135.197 143.936C135.067 143.604 134.872 143.302 134.623 143.047C134.374 142.791 134.077 142.589 133.749 142.45C133.421 142.312 133.068 142.241 132.712 142.241C132.356 142.241 132.003 142.312 131.675 142.45C131.347 142.589 131.05 142.791 130.801 143.047C130.552 143.302 130.357 143.604 130.227 143.936C130.097 144.267 130.035 144.622 130.044 144.978V149.522H119.908V144.978C119.908 144.27 119.626 143.591 119.126 143.091C118.626 142.59 117.947 142.309 117.239 142.309C116.531 142.309 115.852 142.59 115.352 143.091C114.851 143.591 114.57 144.27 114.57 144.978V149.522H106.797C106.486 149.522 106.179 149.461 105.892 149.342C105.605 149.223 105.344 149.049 105.125 148.829C104.905 148.61 104.731 148.349 104.613 148.062C104.494 147.775 104.433 147.468 104.434 147.157V110.794C104.434 110.168 104.683 109.567 105.126 109.123C105.569 108.68 106.17 108.431 106.797 108.431H143.164C143.79 108.432 144.391 108.681 144.834 109.124C145.277 109.567 145.526 110.168 145.527 110.794V118.572H140.983C140.276 118.573 139.6 118.855 139.101 119.356C138.602 119.856 138.322 120.534 138.323 121.24Z" fill="#27A2FD"/>
<path d="M191.957 110.794V147.162C191.957 147.473 191.896 147.78 191.778 148.067C191.659 148.354 191.485 148.615 191.266 148.834C191.046 149.054 190.786 149.228 190.499 149.347C190.212 149.466 189.905 149.527 189.594 149.527H153.227C152.6 149.527 151.998 149.278 151.555 148.834C151.111 148.391 150.862 147.789 150.862 147.162V139.38H155.406C155.762 139.389 156.117 139.327 156.448 139.197C156.78 139.067 157.082 138.872 157.337 138.623C157.592 138.374 157.795 138.077 157.934 137.749C158.072 137.421 158.143 137.068 158.143 136.712C158.143 136.356 158.072 136.003 157.934 135.675C157.795 135.347 157.592 135.049 157.337 134.801C157.082 134.552 156.78 134.357 156.448 134.227C156.117 134.097 155.762 134.035 155.406 134.044H150.862V123.907H155.406C155.762 123.916 156.117 123.854 156.448 123.724C156.78 123.594 157.082 123.399 157.337 123.15C157.592 122.902 157.795 122.605 157.934 122.276C158.072 121.948 158.143 121.596 158.143 121.239C158.143 120.883 158.072 120.531 157.934 120.202C157.795 119.874 157.592 119.577 157.337 119.328C157.082 119.08 156.78 118.885 156.448 118.755C156.117 118.625 155.762 118.562 155.406 118.572H150.862V110.794C150.863 110.168 151.113 109.567 151.556 109.124C151.999 108.681 152.6 108.432 153.227 108.431H161.004V112.975C161.022 113.671 161.311 114.332 161.809 114.818C162.307 115.304 162.976 115.576 163.672 115.576C164.368 115.576 165.036 115.304 165.535 114.818C166.033 114.332 166.322 113.671 166.34 112.975V108.431H176.476V112.975C176.494 113.671 176.783 114.332 177.281 114.818C177.78 115.304 178.448 115.576 179.144 115.576C179.84 115.576 180.508 115.304 181.007 114.818C181.505 114.332 181.794 113.671 181.812 112.975V108.431H189.589C189.9 108.431 190.207 108.491 190.495 108.61C190.782 108.728 191.043 108.902 191.263 109.122C191.483 109.341 191.658 109.602 191.777 109.889C191.896 110.176 191.957 110.483 191.957 110.794Z" fill="#3344FF"/>
<path d="M91.8908 167.673C91.8912 168.381 92.1723 169.059 92.6723 169.559C93.1723 170.06 93.8504 170.341 94.5577 170.342H99.1017V180.479H94.5577C93.8499 180.479 93.1711 180.76 92.6707 181.26C92.1702 181.761 91.889 182.44 91.889 183.148C91.889 183.855 92.1702 184.534 92.6707 185.035C93.1711 185.535 93.8499 185.816 94.5577 185.816H99.1017V193.594C99.1019 193.904 99.0409 194.211 98.9223 194.498C98.8037 194.785 98.6296 195.046 98.4102 195.266C98.1908 195.485 97.9302 195.659 97.6434 195.778C97.3566 195.897 97.0492 195.958 96.7388 195.958H60.3646C59.7376 195.958 59.1364 195.708 58.6931 195.265C58.2497 194.822 58.0005 194.221 58 193.594V157.229C58 156.602 58.2491 156 58.6926 155.557C59.136 155.114 59.7375 154.864 60.3646 154.864H68.1417V159.4C68.1326 159.756 68.1949 160.11 68.3248 160.442C68.4548 160.773 68.6499 161.076 68.8985 161.331C69.1471 161.586 69.4443 161.789 69.7725 161.927C70.1007 162.065 70.4533 162.137 70.8095 162.137C71.1657 162.137 71.5183 162.065 71.8465 161.927C72.1748 161.789 72.4719 161.586 72.7206 161.331C72.9692 161.076 73.1643 160.773 73.2942 160.442C73.4242 160.11 73.4865 159.756 73.4773 159.4V154.864H83.6138V159.4C83.6138 160.107 83.895 160.786 84.3955 161.287C84.8959 161.787 85.5747 162.068 86.2825 162.068C86.9903 162.068 87.6691 161.787 88.1696 161.287C88.67 160.786 88.9512 160.107 88.9512 159.4V154.864H96.7283C97.0388 154.864 97.3462 154.926 97.6329 155.044C97.9197 155.163 98.1803 155.337 98.3997 155.557C98.6192 155.777 98.7932 156.037 98.9118 156.324C99.0304 156.611 99.0914 156.919 99.0912 157.229V165.003H94.5472C93.8414 165.007 93.1658 165.29 92.668 165.79C92.1702 166.29 91.8908 166.967 91.8908 167.673Z" fill="#9722FF"/>
<path d="M145.527 157.229V193.595C145.527 194.222 145.278 194.823 144.835 195.267C144.392 195.71 143.791 195.959 143.164 195.96H106.797C106.486 195.96 106.179 195.899 105.892 195.78C105.605 195.661 105.345 195.487 105.125 195.267C104.906 195.048 104.732 194.787 104.613 194.5C104.494 194.213 104.434 193.906 104.434 193.595V185.818H108.967C109.318 185.818 109.665 185.749 109.988 185.615C110.312 185.481 110.606 185.284 110.854 185.036C111.102 184.789 111.299 184.494 111.433 184.171C111.567 183.847 111.636 183.5 111.636 183.149C111.636 182.799 111.567 182.452 111.433 182.128C111.299 181.804 111.102 181.51 110.854 181.262C110.606 181.014 110.312 180.818 109.988 180.684C109.665 180.55 109.318 180.481 108.967 180.481H104.434V170.344H108.967C109.324 170.353 109.678 170.291 110.01 170.161C110.342 170.03 110.644 169.835 110.9 169.587C111.155 169.338 111.358 169.04 111.496 168.712C111.635 168.383 111.706 168.031 111.706 167.674C111.706 167.318 111.635 166.965 111.496 166.636C111.358 166.308 111.155 166.011 110.9 165.762C110.644 165.513 110.342 165.318 110.01 165.188C109.678 165.058 109.324 164.995 108.967 165.005H104.434V157.229C104.433 156.919 104.494 156.611 104.613 156.324C104.731 156.037 104.905 155.776 105.125 155.557C105.344 155.337 105.605 155.163 105.892 155.044C106.179 154.925 106.486 154.864 106.797 154.864H114.572V159.4C114.572 159.75 114.641 160.097 114.775 160.421C114.909 160.745 115.106 161.039 115.354 161.287C115.601 161.535 115.896 161.731 116.219 161.865C116.543 161.999 116.89 162.068 117.241 162.068C117.591 162.068 117.938 161.999 118.262 161.865C118.586 161.731 118.88 161.535 119.128 161.287C119.376 161.039 119.572 160.745 119.706 160.421C119.84 160.097 119.909 159.75 119.909 159.4V154.864H130.046V159.4C130.037 159.756 130.099 160.11 130.229 160.442C130.359 160.773 130.554 161.076 130.803 161.331C131.051 161.586 131.348 161.789 131.677 161.927C132.005 162.065 132.357 162.137 132.714 162.137C133.07 162.137 133.422 162.065 133.751 161.927C134.079 161.789 134.376 161.586 134.625 161.331C134.873 161.076 135.068 160.773 135.198 160.442C135.328 160.11 135.391 159.756 135.381 159.4V154.864H143.159C143.469 154.864 143.777 154.924 144.065 155.043C144.352 155.161 144.613 155.336 144.833 155.555C145.053 155.775 145.228 156.036 145.347 156.323C145.466 156.61 145.527 156.918 145.527 157.229Z" fill="#3344FF"/>
<path d="M178.249 156.534L152.535 182.248C151.611 183.172 151.611 184.669 152.535 185.593L178.249 211.307C179.173 212.231 180.67 212.231 181.593 211.307L207.307 185.593C208.231 184.669 208.231 183.172 207.307 182.248L181.593 156.534C180.67 155.61 179.173 155.61 178.249 156.534Z" fill="#9722FF"/>
</svg>