<svg width="256" height="256" title="Radarr" viewBox="0 0 256 256" fill="none" xmlns="http://www.w3.org/2000/svg">
<rect width="256" height="256" rx="40" fill="#F4F2ED"/>
<path d="M75.858 71.3346L77.1265 192.805C66.9127 194.077 59.2686 188.956 59.2686 178.747L58 77.7277C58 45.7618 87.3404 38.0965 105.198 50.8829L195.724 103.301C208.475 112.238 211.012 128.873 204.637 140.388C203.368 131.45 199.53 126.329 191.886 121.208L89.8776 63.6366C82.2335 58.5482 75.858 59.8203 75.858 71.3346ZM68.2138 199.198C75.858 201.743 83.5021 200.471 89.8776 196.654L194.456 135.266C200.831 144.204 199.562 153.174 191.918 158.295L103.897 209.441C91.1462 215.834 74.5894 209.441 68.2138 199.198Z" fill="#24292E"/>
<path d="M98.8228 163.383L161.309 127.601L100.091 93.0584L98.8228 163.383Z" fill="#FFC230"/>
</svg>