<svg width="256" height="256" title="Radix UI" viewBox="0 0 256 256" fill="none" xmlns="http://www.w3.org/2000/svg" id="radixui">
<style>
#radixui {
    rect {fill: #15191C}
    path {fill: #F4F2ED}

    @media (prefers-color-scheme: light) {
        rect {fill: #F4F2ED}
        path {fill: #15191C}
    }
}
</style>
<rect width="256" height="256" rx="40" fill="#15191C"/>
<path d="M125.118 212.118C110.765 212.118 96.9997 206.416 86.8507 196.267C76.7017 186.118 71 172.353 71 158C71 143.647 76.7017 129.882 86.8507 119.733C96.9997 109.584 110.765 103.882 125.118 103.882V212.118ZM125.118 43V97.1176H71V43H125.118ZM158.941 97.1176C151.765 97.1176 144.882 94.2668 139.808 89.1923C134.733 84.1178 131.882 77.2353 131.882 70.0588C131.882 62.8824 134.733 55.9999 139.808 50.9253C144.882 45.8508 151.765 43 158.941 43C166.118 43 173 45.8508 178.075 50.9253C183.149 55.9999 186 62.8824 186 70.0588C186 77.2353 183.149 84.1178 178.075 89.1923C173 94.2668 166.118 97.1176 158.941 97.1176Z" fill="#F4F2ED"/>
</svg>