<svg width="256" height="256" title="Railway" viewBox="0 0 256 256" fill="none" xmlns="http://www.w3.org/2000/svg" id="railway">
<style>
#railway {
    rect {fill: #15191C}
    path {fill: #F4F2ED}

    @media (prefers-color-scheme: light) {
        rect {fill: #F4F2ED}
        path {fill: #15191C}
    }
}
</style>
<rect width="256" height="256" rx="40" fill="#15191C"/>
<path d="M43.8004 115.746C43.4004 118.589 43.1333 121.449 43 124.317H172.129C171.676 123.431 171.067 122.638 170.465 121.859C148.386 93.3342 136.514 95.8133 119.535 95.0838C113.869 94.8429 110.044 94.7437 87.4904 94.7437C75.4204 94.7437 62.3092 94.7792 49.5379 94.8146C47.8804 99.2771 46.2867 103.598 45.5217 107.118H111.694V115.732H43.8004V115.746ZM173.142 132.93H43.0637C43.2054 135.239 43.4179 137.499 43.7296 139.737H163.828C169.168 139.737 172.179 136.691 173.142 132.93ZM50.4729 163.247C50.4729 163.247 70.3771 212.136 127.894 213C162.283 213 191.835 192.579 205.244 163.247H50.48H50.4729ZM127.915 43C96.125 43 68.4504 60.4675 53.8446 86.265L87.4904 86.2296V86.2154C113.77 86.2154 114.754 86.3287 119.883 86.5483L123.056 86.6617C134.127 87.03 147.741 88.22 158.444 96.3233C164.253 100.722 172.66 110.419 177.654 117.325C182.287 123.715 183.618 131.067 180.459 138.108C177.569 144.582 171.329 148.435 163.792 148.435H45.7696C45.7696 148.435 46.4708 151.41 47.5333 154.711H208.665C211.52 146.107 212.984 137.101 213 128.035C213 81.0871 174.899 43 127.915 43Z" fill="#F4F2ED"/>
</svg>