<svg width="256" height="256" title="Raylib" viewBox="0 0 256 256" fill="none" xmlns="http://www.w3.org/2000/svg">
<rect width="256" height="256" rx="40" fill="#F4F2ED"/>
<path d="M158.168 34.7109C178.696 34.7109 199.225 34.7109 220.375 34.7109C220.375 55.2393 220.375 75.7676 220.375 96.918C215.556 92.7878 211.029 88.8451 206.576 84.3957C206.044 83.8669 205.514 83.3383 204.967 82.7935C203.245 81.0761 201.526 79.3547 199.808 77.6329C198.603 76.4279 197.397 75.2232 196.191 74.0186C193.681 71.5098 191.172 68.9991 188.666 66.4869C185.445 63.2602 182.22 60.0388 178.993 56.8187C176.51 54.3399 174.03 51.8584 171.55 49.3759C170.362 48.1859 169.171 46.9967 167.98 45.8084C166.326 44.157 164.676 42.5022 163.026 40.8463C162.085 39.9048 161.145 38.9634 160.176 37.9934C158.168 35.842 158.168 35.842 158.168 34.7109Z" fill="#DD1022"/>
<path d="M194.74 181.137C196.432 181.137 198.124 181.137 199.867 181.137C199.867 184.521 199.867 187.904 199.867 191.39C206.635 191.39 213.402 191.39 220.375 191.39C220.375 199.851 220.375 208.31 220.375 217.025C211.916 217.025 203.456 217.025 194.74 217.025C194.74 205.182 194.74 193.339 194.74 181.137Z" fill="black"/>
<path d="M107.582 191.39C116.041 191.39 124.501 191.39 133.217 191.39C133.217 199.851 133.217 208.31 133.217 217.025C124.757 217.025 116.298 217.025 107.582 217.025C107.582 211.949 107.582 206.874 107.582 201.645C114.349 201.645 121.117 201.645 128.089 201.645C128.089 199.953 128.089 198.261 128.089 196.517C121.322 196.517 114.555 196.517 107.582 196.517C107.582 194.826 107.582 193.134 107.582 191.39Z" fill="black"/>
<path d="M138.344 191.39C140.036 191.39 141.727 191.39 143.471 191.39C143.471 198.158 143.471 204.926 143.471 211.899C148.546 211.899 153.622 211.899 158.851 211.899C158.851 205.13 158.851 198.363 158.851 191.39C160.543 191.39 162.235 191.39 163.978 191.39C163.978 203.234 163.978 215.077 163.978 227.279C155.519 227.279 147.06 227.279 138.344 227.279C138.344 225.587 138.344 223.896 138.344 222.152C145.111 222.152 151.879 222.152 158.851 222.152C158.851 220.46 158.851 218.768 158.851 217.025C152.084 217.025 145.316 217.025 138.344 217.025C138.344 208.566 138.344 200.106 138.344 191.39Z" fill="black"/>
<path d="M199.867 196.517C204.943 196.517 210.019 196.517 215.248 196.517C215.248 201.593 215.248 206.669 215.248 211.899C210.172 211.899 205.097 211.899 199.867 211.899C199.867 206.822 199.867 201.747 199.867 196.517Z" fill="#F4F2ED"/>
<path d="M76.8203 191.39C85.2798 191.39 93.7393 191.39 102.455 191.39C102.455 193.082 102.455 194.774 102.455 196.517C95.6875 196.517 88.92 196.517 81.9472 196.517C81.9472 203.285 81.9472 210.052 81.9472 217.025C80.2554 217.025 78.5634 217.025 76.8203 217.025C76.8203 208.566 76.8203 200.106 76.8203 191.39Z" fill="black"/>
<path d="M169.106 181.137C170.797 181.137 172.489 181.137 174.233 181.137C174.233 191.288 174.233 201.439 174.233 211.899C175.925 211.899 177.616 211.899 179.36 211.899C179.36 213.591 179.36 215.283 179.36 217.025C175.975 217.025 172.591 217.025 169.106 217.025C169.106 205.182 169.106 193.339 169.106 181.137Z" fill="black"/>
<path d="M184.486 191.39C186.178 191.39 187.87 191.39 189.613 191.39C189.613 199.851 189.613 208.31 189.613 217.025C187.921 217.025 186.229 217.025 184.486 217.025C184.486 208.566 184.486 200.106 184.486 191.39Z" fill="black"/>
<path d="M112.709 206.772C117.785 206.772 122.86 206.772 128.089 206.772C128.089 208.464 128.089 210.155 128.089 211.899C123.014 211.899 117.938 211.899 112.709 211.899C112.709 210.207 112.709 208.515 112.709 206.772Z" fill="#F4F2ED"/>
<path d="M87.0742 192.416C92.1499 192.416 97.2256 192.416 102.455 192.416C102.455 193.77 102.455 195.123 102.455 196.517C97.041 196.517 91.6269 196.517 86.0489 196.517C86.3872 195.164 86.7256 193.811 87.0742 192.416Z" fill="black"/>
<path d="M184.486 181.137C186.178 181.137 187.87 181.137 189.613 181.137C189.613 182.829 189.613 184.521 189.613 186.264C187.921 186.264 186.229 186.264 184.486 186.264C184.486 184.571 184.486 182.879 184.486 181.137Z" fill="black"/>
</svg>