<svg width="256" height="256" title="React Router" viewBox="0 0 256 256" fill="none" xmlns="http://www.w3.org/2000/svg" id="reactrouter">
<style>
#reactrouter {
    rect {fill: #15191C}
    path.rr {fill: #F4F2ED}

    @media (prefers-color-scheme: light) {
        rect {fill: #F4F2ED}
        path.rr {fill: #15191C}
    }
}
</style>
<rect width="256" height="256" rx="40" fill="#15191C"/>
<path d="M175.136 111.035C170.273 109.506 167.761 110.022 162.661 109.464C154.775 108.604 151.634 105.522 150.301 97.5909C149.555 93.1633 150.436 86.6806 148.532 82.6671C144.891 75.0143 136.371 71.5821 127.811 73.5411C120.585 75.1975 114.571 82.4202 114.238 89.8341C113.857 98.2991 118.681 105.522 126.963 108.014C130.897 109.201 135.078 109.798 139.187 110.101C146.723 110.65 147.302 114.839 149.341 118.288C150.626 120.462 151.872 122.604 151.872 129.086C151.872 135.568 150.618 137.71 149.341 139.884C147.302 143.324 144.788 145.578 137.252 146.135C133.142 146.438 128.954 147.035 125.027 148.222C116.745 150.722 111.922 157.937 112.303 166.402C112.636 173.816 118.649 181.039 125.876 182.695C134.435 184.662 142.955 181.222 146.596 173.569C148.508 169.555 149.555 165.008 150.301 160.581C151.642 152.649 154.783 149.567 162.661 148.707C167.761 148.15 173.04 148.707 177.82 145.992C182.871 142.301 187.384 136.762 187.384 129.086C187.384 121.409 182.521 113.36 175.136 111.035Z" fill="#F44250"/>
<path d="M94.232 147.076C84.2922 147.076 76.1842 138.953 76.1842 128.995C76.1842 119.036 84.2922 110.913 94.232 110.913C104.172 110.913 112.28 119.036 112.28 128.995C112.28 138.945 104.164 147.076 94.232 147.076Z" class="rr" fill="#F4F2ED"/>
<path d="M60.9841 183.822C51.0602 183.798 42.9762 175.643 43.0001 165.677C43.024 155.727 51.1638 147.628 61.1115 147.659C71.0433 147.683 79.1273 155.838 79.0955 165.805C79.0716 175.747 70.9318 183.846 60.9841 183.822Z" class="rr" fill="#F4F2ED"/>
<path d="M195.088 183.822C185.132 183.877 176.961 175.811 176.905 165.876C176.849 155.902 184.901 147.716 194.817 147.66C204.772 147.604 212.944 155.671 213 165.605C213.055 175.571 205.003 183.766 195.088 183.822Z" class="rr" fill="#F4F2ED"/>
</svg>