<svg width="256" height="256" title="ReactLynx" viewBox="0 0 256 256" fill="none" xmlns="http://www.w3.org/2000/svg" id="reactlynx">
<style>
#reactlynx {
    rect {fill: #15191C}
    path {fill: white}

    @media (prefers-color-scheme: light) {
        rect {fill: #F4F2ED}
        path {fill: #212121}
    }
}
</style>
<rect width="256" height="256" rx="40" fill="#15191C"/>
<path d="M129.701 120.562L146.74 71.1043L96.1106 142.52L121.122 143.282L106.92 186.56L157.182 121.398L129.701 120.562Z" fill="white"/>
<path d="M80.4656 72.2669C79.5756 75.7989 79.1354 79.9152 79.1865 84.5221C77.8018 84.9308 76.3986 85.3738 74.997 85.8543C72.4332 86.7327 69.8828 87.6964 67.4252 88.686C67.0022 81.7161 67.4561 75.2032 68.9075 69.4446C71.0296 61.024 75.4233 53.7784 82.7567 49.6108C95.6517 42.2828 112.057 47.3107 126.695 57.3428C139.675 66.2387 152.837 80.0273 164.089 97.0714C161.3 96.4677 158.138 95.8553 154.726 95.3161C152.363 94.9429 149.973 94.6386 147.681 94.3911C138.766 82.6566 129.12 73.2872 119.891 66.9626C106.13 57.532 95.2525 56.0447 88.7113 59.7622C85 61.8712 82.0712 65.8969 80.4656 72.2669Z" fill="white"/>
<path d="M150.849 98.7055C153.685 102.701 156.43 106.938 159.043 111.392C170.655 131.19 177.184 151.046 178.557 166.981C179.974 183.427 175.844 193.443 169.303 197.16C165.645 199.239 160.732 199.738 154.458 198.015C150.556 196.943 146.298 195.048 141.818 192.343L141.242 192.864C138.265 195.55 135.079 198.08 132.244 200.205C138.605 204.454 145.028 207.594 151.257 209.305C159.603 211.597 168.032 211.417 175.257 207.311C188.152 199.984 191.93 183.485 190.423 165.991C188.872 147.986 181.642 126.478 169.355 105.531C168.611 104.263 167.856 103.008 167.091 101.77C163.587 100.924 159.118 99.9677 154.096 99.1743C153.017 99.004 151.931 98.8482 150.849 98.7055Z" fill="white"/>
<path d="M173.71 87.4781C160.305 83.8544 144.854 81.821 128.5 81.821C103.927 81.821 81.3892 86.4119 64.7723 94.0922C48.6265 101.554 36 113.025 36 127.681C36 135.926 40.0893 143.226 46.3216 149.209C50.7611 153.469 56.4404 157.227 63.0038 160.43C63.5341 156.512 64.3133 152.611 65.4022 148.439C61.0321 146.062 57.4197 143.489 54.6357 140.817C49.9419 136.311 47.9087 131.854 47.9087 127.681C47.9087 120.246 54.6561 111.717 69.8338 104.702C84.5401 97.9056 105.275 93.5428 128.5 93.5428C144.748 93.5428 159.777 95.6781 172.376 99.2882C172.645 97.7779 172.911 96.0842 173.138 94.2664C173.43 91.9375 173.605 89.5459 173.71 87.4781Z" fill="white"/>
<path d="M176.697 100.615C180.45 101.848 183.952 103.217 187.166 104.702C202.343 111.717 209.091 120.246 209.091 127.681C209.091 131.854 207.058 136.311 202.364 140.817C199.426 143.637 195.567 146.346 190.867 148.83C191.709 152.154 192.55 156.139 193.133 160.507L193.175 160.825C200.086 157.537 206.055 153.646 210.678 149.209C216.91 143.226 221 135.926 221 127.681C221 113.025 208.373 101.554 192.228 94.092C187.905 92.0942 183.182 90.3058 178.127 88.7524C178.014 90.6615 177.841 92.7891 177.578 94.8885C177.318 96.983 177.007 98.9183 176.697 100.615Z" fill="white"/>
<path d="M140.786 63.731C151.055 56.7993 162.51 56.4006 168.789 59.9687C175.33 63.6861 179.46 73.7023 178.043 90.1474C177.578 95.557 176.516 101.418 174.866 107.575C174.928 107.696 174.994 107.827 175.066 107.968C175.504 108.823 176.122 110.043 176.849 111.51C178.303 114.442 180.197 118.369 181.947 122.332C182.076 122.624 182.206 122.928 182.339 123.243C186.502 111.935 189.059 101.01 189.91 91.1384C191.417 73.6439 187.638 57.1453 174.743 49.8173C162.974 43.1289 145.581 45.3232 131.848 55.6648C134.539 57.8886 137.487 60.4682 140.192 63.1439L140.786 63.731Z" fill="white"/>
<path d="M180.217 128.703C179.545 126.879 178.896 125.224 178.307 123.891C176.588 119.998 174.722 116.127 173.282 113.223C173.268 113.194 173.253 113.164 173.238 113.136C169.937 123.556 165.029 134.655 158.529 145.736C146.917 165.535 132.71 181.028 119.377 190.166C105.616 199.597 94.7393 201.083 88.1975 197.366C83.2123 194.533 79.5844 188.12 78.8157 177.511C78.0573 167.043 80.2314 153.636 85.5171 138.981C88.0272 132.021 92.7715 122.381 97.0138 114.283C99.1126 110.278 101.048 106.725 102.459 104.174C103.164 102.899 103.737 101.876 104.133 101.174C104.704 100.166 104.704 100.166 104.704 100.166L105.395 98.9569C104.21 99.1234 102.942 99.3083 101.588 99.5121C97.6671 100.104 93.7135 100.908 90.29 101.687C89.1406 103.798 87.8207 106.255 86.4298 108.911C82.1783 117.026 77.0991 127.283 74.2946 135.059C68.6443 150.725 66.028 165.798 66.9371 178.345C67.8359 190.749 72.3333 201.885 82.2431 207.517C95.138 214.846 111.544 209.818 126.182 199.786C141.248 189.461 156.556 172.545 168.843 151.597C173.314 143.975 177.114 136.278 180.217 128.703Z" fill="white"/>
</svg>