<svg width="256" height="256" title="React Native" viewBox="0 0 256 256" fill="none" xmlns="http://www.w3.org/2000/svg" id="reactnative">
<style>
#reactnative {
    rect {fill: #15191C}

    @media (prefers-color-scheme: light) {
        rect {fill: #F4F2ED}
    }
}
</style>
<rect width="256" height="256" rx="40" fill="#15191C"/>
<path fill-rule="evenodd" clip-rule="evenodd" d="M90.256 49.2999C83.1195 50.5959 78.6551 55.3802 76.4562 64.0859C75.4766 67.9673 75.1768 70.8159 75.1801 76.2132C75.1835 82.4701 75.6232 86.4781 77.1258 93.9744C77.5856 96.26 77.9254 98.1557 77.8821 98.189C77.8421 98.2223 76.1396 98.812 74.1007 99.495C64.8519 102.6 57.8154 106.025 52.2648 110.13C49.8393 111.922 45.6081 116.087 44.4153 117.856C42.483 120.721 41.3269 123.656 41.0737 126.348C40.5273 132.132 43.0094 137.436 48.8865 143.027C54.6769 148.537 63.8691 153.598 74.4172 157.083C76.7227 157.846 77.7055 158.263 77.7022 158.476C77.7022 158.646 77.4223 160.212 77.0792 161.957C73.2877 181.195 74.847 194.921 81.6469 202.194C84.7454 205.506 88.4036 206.975 93.531 206.975C103.226 206.972 114.761 201.181 127.341 190.007L129.607 187.995L132.662 190.657C138.802 196.007 144.219 199.899 148.954 202.357C151.086 203.467 154.797 205.133 155.134 205.133C155.187 205.133 154.867 204.077 154.421 202.787C153.745 200.838 153.581 200.055 153.461 198.163L153.318 195.887L151.169 194.651C146.618 192.033 141.214 187.975 136.856 183.907L135.127 182.294L137.593 179.339C140.781 175.514 144.089 171.3 147.258 167.028L149.797 163.61L150.736 163.483C151.256 163.417 152.049 163.293 152.499 163.214L153.318 163.07L153.361 153.252C153.398 144.473 153.371 143.48 153.095 143.846C152.925 144.07 151.569 146.235 150.076 148.654C146.012 155.247 145.645 155.764 144.929 155.9C144.589 155.964 140.714 156.117 136.313 156.244C127.544 156.49 114.347 156.26 113.574 155.847C113.171 155.634 110.543 151.633 106.971 145.809C104.812 142.287 102.06 137.336 99.4215 132.235L97.3325 128.197L99.688 123.536C102.333 118.306 105.292 113.062 109.01 107.011C112.168 101.877 113.011 100.631 113.514 100.361C114.257 99.9648 119.905 99.7549 129.886 99.7549C139.895 99.7549 144.326 99.9382 145.312 100.388C145.988 100.694 149.243 105.765 154.318 114.418C155.85 117.03 156.257 117.429 156.567 116.623C156.726 116.2 159.682 113.915 160.798 113.352C161.337 113.075 161.841 112.752 161.917 112.632C162.057 112.405 160.664 109.807 157.916 105.169C157.05 103.706 156.183 102.204 155.993 101.834L155.647 101.158L156.323 101.267C166.218 102.86 170.53 103.68 170.876 104.026C170.973 104.119 170.493 105.885 169.813 107.948C169.134 110.01 168.597 111.719 168.624 111.742C168.647 111.769 170.336 111.856 172.372 111.936C176.886 112.115 176.613 112.279 177.716 108.73C178.139 107.361 178.612 106.198 178.762 106.138C179.375 105.902 187.441 108.76 191.836 110.769L194.131 111.819H201.094C204.923 111.819 208.058 111.749 208.058 111.659C208.058 111.392 204.689 108.977 202.351 107.568C197.54 104.666 192.162 102.234 184.833 99.645C182.694 98.8887 180.914 98.2457 180.881 98.2157C180.851 98.1857 181.191 96.3299 181.641 94.0944C184.729 78.7053 183.906 65.172 179.402 57.2992C177.539 54.0409 175.311 51.8753 172.322 50.4127C170.143 49.3465 168.431 49.0067 165.266 49C162.03 48.9967 159.925 49.3598 156.31 50.5459C148.717 53.0347 140.355 58.392 131.469 66.4514C130.373 67.4509 129.39 68.2338 129.29 68.1972C129.19 68.1605 128.077 67.211 126.815 66.0849C113.058 53.821 99.5447 47.614 90.256 49.2999ZM161.911 57.1093C157.106 58.1288 151.009 61.1307 145.299 65.2886C140.761 68.5937 135.157 73.4446 135.25 73.9877C135.284 74.1776 136.496 75.7235 137.949 77.4193C141.187 81.2108 144.782 85.7685 147.491 89.5133C148.614 91.0659 149.693 92.3985 149.89 92.4752C150.086 92.5518 152.412 92.8816 155.057 93.2081C160.601 93.8911 166.212 94.804 170.27 95.6869C171.826 96.0234 173.142 96.26 173.192 96.21C173.372 96.0301 174.701 89.0935 175.044 86.5348C175.57 82.6034 175.574 70.7359 175.047 68.1572C173.975 62.8698 172.109 59.3083 169.67 57.879C167.788 56.7728 164.862 56.4863 161.911 57.1093ZM90.186 57.3526C87.9005 58.2021 86.7311 59.3782 85.3684 62.1968C83.5393 65.9816 83.1262 68.7436 83.1362 77.0328C83.1429 81.9071 83.2228 83.8128 83.506 85.7285C83.9824 88.9569 85.4084 95.6636 85.6783 95.9335C85.8249 96.0801 86.9243 95.9435 89.2165 95.497C95.5101 94.271 103.35 93.0715 106.325 92.8783C107.298 92.815 108.3 92.7217 108.55 92.6717C108.857 92.6084 109.943 91.3357 111.812 88.847C115.247 84.2726 117.736 81.1741 121.287 77.0395L124.006 73.871L123.11 73.0814C115.753 66.5847 110.986 63.1897 105.122 60.2778C102.157 58.8052 99.4348 57.819 96.8994 57.2992C94.8071 56.8728 91.4054 56.8994 90.186 57.3526ZM126.658 82.71C123.763 86.0617 119.452 91.3824 119.452 91.6056C119.452 91.6956 123.916 91.7655 129.377 91.7655C134.834 91.7655 139.298 91.7089 139.298 91.6423C139.298 91.4923 137.066 88.6571 134.404 85.422C131.785 82.2469 129.633 79.8981 129.333 79.8981C129.2 79.8981 127.994 81.1641 126.658 82.71ZM101.85 101.238C95.7366 102.174 88.5302 103.496 88.1037 103.76C87.9871 103.833 87.9571 104.189 88.0304 104.586C88.1737 105.352 90.5692 112.052 92.1417 116.09C93.2612 118.955 93.1512 118.935 94.3773 116.527C95.2635 114.781 98.7385 108.687 101.171 104.609C102.237 102.823 103.076 101.297 103.043 101.214C103.006 101.131 102.47 101.141 101.85 101.238ZM76.2729 106.885C62.4964 111.426 52.4414 118.092 49.5695 124.586C48.8731 126.162 48.6166 127.774 48.8631 129.064C50.0092 135.114 58.575 142.227 70.8456 147.325C74.7703 148.954 79.4647 150.573 79.8445 150.426C79.9944 150.37 80.4608 149.28 80.8806 148.004C82.1034 144.303 84.772 137.25 86.7377 132.529C87.7339 130.13 88.5502 128.064 88.5502 127.931C88.5502 127.801 87.7772 125.895 86.8344 123.696C85.1552 119.792 83.0662 114.351 81.0739 108.7C80.2276 106.305 80.0177 105.889 79.6612 105.895C79.428 105.902 77.9054 106.345 76.2729 106.885ZM126.535 112.135C123.256 112.755 120.991 113.995 118.322 116.63C116.246 118.679 115.234 120.208 114.277 122.714C113.651 124.363 113.634 124.493 113.634 127.781C113.634 130.443 113.711 131.416 114.001 132.375C115.843 138.469 121.487 143.143 127.714 143.73C132.968 144.226 137.293 142.57 140.988 138.642C142.1 137.46 142.763 136.513 143.463 135.114C144.816 132.412 145.112 131.099 145.116 127.781C145.122 124.796 144.772 123.16 143.656 120.931C140.478 114.604 133.218 110.873 126.535 112.135ZM168.97 117.963C165.152 118.396 162.16 120.878 160.664 124.846L160.171 126.155L160.178 159.862C160.185 192.622 160.285 198.936 160.804 200.428C161.201 201.558 162.364 203.26 163.483 204.353C164.979 205.806 166.575 206.549 168.74 206.789C169.8 206.909 178.162 206.965 189.44 206.932L208.364 206.872L209.557 206.392C212.199 205.326 215.001 202.321 215.647 199.852C215.97 198.626 216.124 158.039 215.88 138.319L215.714 124.816L215.031 123.486C214.101 121.687 212.042 119.658 210.243 118.779C209.094 118.216 208.501 118.066 206.868 117.936C204.376 117.733 170.773 117.759 168.97 117.963ZM176.237 125.102C168.914 125.229 168.624 125.269 168.121 126.202C167.644 127.088 167.518 136.633 167.578 167.175C167.638 195.964 167.664 197.91 168.001 198.526C168.237 198.959 168.617 199.262 169.127 199.429C169.697 199.612 174.664 199.699 188.441 199.762L206.988 199.845L207.841 198.959L208.697 198.073L208.561 162.264C208.438 129.397 208.398 126.422 208.088 126.065C207.208 125.059 207.102 125.049 194.754 125.016C188.397 124.999 180.062 125.036 176.237 125.102ZM184.013 128.701C183.9 128.737 183.546 128.827 183.227 128.897C182.91 128.967 182.424 129.267 182.154 129.56C181.737 130.01 181.661 130.3 181.661 131.409C181.661 132.589 181.721 132.785 182.257 133.322L182.857 133.921H193.968L194.568 133.322C195.094 132.795 195.164 132.579 195.164 131.509C195.164 130.573 195.064 130.163 194.721 129.73C193.918 128.707 193.325 128.601 188.571 128.617C186.179 128.624 184.126 128.664 184.013 128.701ZM92.878 137.826C92.7714 138.099 92.3883 139.059 92.0285 139.958C90.4193 143.956 87.7306 151.669 87.7306 152.296C87.7306 152.585 88.9533 152.852 94.4073 153.748C100.444 154.741 103.053 155.094 103.206 154.941C103.27 154.874 103.053 154.425 102.723 153.938C101.697 152.432 98.342 146.702 95.9132 142.311C94.6372 140.005 93.4777 137.939 93.3311 137.723C93.0779 137.346 93.0613 137.35 92.878 137.826ZM85.3784 160.318C85.2052 160.601 83.8692 167.531 83.546 169.834C82.7497 175.504 82.5798 182.207 83.1329 186.096C84.0491 192.552 86.3313 197.053 89.4131 198.486C90.4093 198.952 90.7324 198.992 93.5777 198.992C97.1426 198.996 98.7151 198.679 102.253 197.257C108.704 194.665 115.224 190.427 121.647 184.653L124.183 182.371L123.789 181.934C120.651 178.469 114.264 170.62 110.942 166.152C109.94 164.799 109.043 163.64 108.95 163.573C108.857 163.503 107.897 163.39 106.821 163.32C102.93 163.064 93.0879 161.641 86.961 160.452C86.1447 160.292 85.4317 160.232 85.3784 160.318ZM119.455 164.33C119.465 164.599 122.907 168.891 126.471 173.072L129.58 176.717L130.093 176.12C134.021 171.559 139.608 164.653 139.475 164.52C139.298 164.343 119.452 164.156 119.455 164.33ZM186.768 190.45C185.412 191.136 184.876 192.056 184.979 193.525C185.139 195.777 186.865 197.08 189.127 196.654C190.107 196.47 191.413 195.171 191.596 194.198C191.799 193.109 191.536 192.113 190.826 191.306C189.603 189.91 188.357 189.65 186.768 190.45Z" fill="#04DBFB"/>
</svg>