<svg width="256" height="256" title="React Hook Form" viewBox="0 0 256 256" fill="none" xmlns="http://www.w3.org/2000/svg">
<rect width="256" height="256" rx="40" fill="#EC5990"/>
<path fill-rule="evenodd" clip-rule="evenodd" d="M174.514 56.569H144.397C142.189 49.6776 135.766 45 128.509 45C121.253 45 114.829 49.6776 112.621 56.569H82.4847C70.6189 56.569 61 66.1585 61 77.9877V189.581C61 201.41 70.6189 211 82.4847 211H174.515C186.381 211 196 201.41 196 189.581V77.9877C196 66.1585 186.38 56.569 174.514 56.569ZM114.124 60.4629C115.06 60.4832 115.88 59.8383 116.076 58.9244C117.355 53.0741 122.55 48.9011 128.557 48.9011C134.564 48.9011 139.759 53.0727 141.038 58.9244C141.234 59.8383 142.054 60.4832 142.99 60.4629H153.498V73.2176C153.498 76.4435 150.874 79.0592 147.639 79.0592H109.455C106.219 79.0592 103.596 76.4435 103.596 73.2176V60.4629H114.124ZM192.092 189.581C192.092 199.26 184.222 207.106 174.514 207.106H82.4833C72.775 207.106 64.9053 199.26 64.9053 189.581V77.9877C64.9053 68.3086 72.775 60.4629 82.4833 60.4629H99.6904V73.2176C99.6904 78.595 104.063 82.9531 109.456 82.9531H147.542C152.935 82.9531 157.308 78.5936 157.308 73.2176V60.4629H174.515C184.224 60.4629 192.093 68.3086 192.093 77.9877L192.092 189.581Z" fill="white"/>
<path d="M170.685 120.203H136.31C136.054 120.203 135.801 120.253 135.564 120.35C135.327 120.448 135.112 120.591 134.931 120.772C134.75 120.953 134.606 121.168 134.507 121.404C134.409 121.641 134.358 121.895 134.357 122.151C134.358 122.408 134.409 122.661 134.507 122.898C134.606 123.134 134.75 123.349 134.931 123.53C135.112 123.711 135.327 123.854 135.564 123.952C135.801 124.049 136.054 124.099 136.31 124.099H170.685C170.941 124.099 171.194 124.049 171.431 123.952C171.668 123.854 171.883 123.711 172.064 123.53C172.245 123.349 172.389 123.134 172.488 122.898C172.586 122.661 172.637 122.408 172.638 122.151C172.637 121.895 172.586 121.641 172.488 121.404C172.389 121.168 172.245 120.953 172.064 120.772C171.883 120.591 171.668 120.448 171.431 120.35C171.194 120.253 170.941 120.203 170.685 120.203Z" fill="white"/>
<path d="M119.905 120.203H85.5299C85.2741 120.203 85.0205 120.253 84.7839 120.35C84.5473 120.448 84.3323 120.591 84.151 120.772C83.9696 120.953 83.8256 121.168 83.7272 121.404C83.6287 121.641 83.5778 121.895 83.5773 122.151C83.5778 122.408 83.6287 122.661 83.7272 122.898C83.8256 123.134 83.9696 123.349 84.151 123.53C84.3323 123.711 84.5473 123.854 84.7839 123.952C85.0205 124.049 85.2741 124.099 85.5299 124.099H119.905C120.161 124.099 120.414 124.049 120.651 123.952C120.888 123.854 121.103 123.711 121.284 123.53C121.465 123.349 121.609 123.134 121.708 122.898C121.806 122.661 121.857 122.408 121.858 122.151C121.857 121.895 121.806 121.641 121.708 121.404C121.609 121.168 121.465 120.953 121.284 120.772C121.103 120.591 120.888 120.448 120.651 120.35C120.414 120.253 120.161 120.203 119.905 120.203Z" fill="white"/>
<path fill-rule="evenodd" clip-rule="evenodd" d="M170.783 167.325H136.311C136.055 167.325 135.802 167.375 135.565 167.472C135.329 167.57 135.114 167.713 134.932 167.894C134.751 168.075 134.607 168.29 134.509 168.526C134.41 168.763 134.359 169.017 134.359 169.273C134.359 169.529 134.41 169.783 134.509 170.02C134.607 170.256 134.751 170.471 134.932 170.652C135.114 170.833 135.329 170.976 135.565 171.074C135.802 171.171 136.055 171.221 136.311 171.221H170.783C171.039 171.221 171.292 171.171 171.529 171.074C171.766 170.976 171.981 170.833 172.162 170.652C172.343 170.471 172.487 170.256 172.586 170.02C172.684 169.783 172.735 169.529 172.736 169.273C172.735 169.017 172.684 168.763 172.586 168.526C172.487 168.29 172.343 168.075 172.162 167.894C171.981 167.713 171.766 167.57 171.529 167.472C171.292 167.375 171.039 167.325 170.783 167.325ZM120.002 167.325H85.5298C85.274 167.325 85.0205 167.375 84.7839 167.472C84.5473 167.57 84.3323 167.713 84.151 167.894C83.9696 168.075 83.8256 168.29 83.7272 168.526C83.6287 168.763 83.5778 169.017 83.5773 169.273C83.5778 169.529 83.6287 169.783 83.7272 170.02C83.8256 170.256 83.9696 170.471 84.151 170.652C84.3323 170.833 84.5473 170.976 84.7839 171.074C85.0205 171.171 85.274 171.221 85.5298 171.221H120.002C120.258 171.221 120.511 171.171 120.748 171.074C120.984 170.976 121.199 170.833 121.381 170.652C121.562 170.471 121.706 170.256 121.804 170.02C121.903 169.783 121.954 169.529 121.954 169.273C121.954 169.017 121.903 168.763 121.804 168.526C121.706 168.29 121.562 168.075 121.381 167.894C121.199 167.713 120.984 167.57 120.748 167.472C120.511 167.375 120.258 167.325 120.002 167.325Z" fill="white"/>
</svg>