<svg width="256" height="256" title="React Datepicker" viewBox="0 0 256 256" fill="none" xmlns="http://www.w3.org/2000/svg">
<rect width="256" height="256" rx="40" fill="#0414FB"/>
<path d="M0 25C0 11.1929 11.1929 0 25 0H231C244.807 0 256 11.1929 256 25V50C256 63.8071 244.807 75 231 75H25C11.1929 75 0 63.8071 0 50V25Z" fill="#4493F8"/>
<path d="M0 55H256V79H0V55Z" fill="#4493F8"/>
<path fill-rule="evenodd" clip-rule="evenodd" d="M126.855 25.2144C124.755 25.6476 123.346 26.8609 122.138 29.2771C121.849 29.8547 119.576 36.2942 117.088 43.587C112.21 57.878 111.972 58.8615 113.041 60.3177C114.218 61.922 116.916 62.4682 118.599 61.4428C119.772 60.7284 120.34 59.7046 121.479 56.2558L122.455 53.3019H134.64L135.576 56.27C136.09 57.9021 136.783 59.645 137.116 60.1429C138.257 61.8493 140.773 62.4705 142.748 61.5337C144.34 60.7785 145.003 59.2105 144.656 57.0186C144.387 55.3192 136.035 30.7525 135.127 28.9901C134.261 27.3097 133.283 26.3019 131.955 25.7217C130.609 25.134 128.34 24.9082 126.855 25.2144ZM146.681 25.2147C144.334 25.9178 143.487 28.6493 144.77 31.3776C145.11 32.0997 147.473 36.1133 150.023 40.2968L154.657 47.9031V53.4293C154.657 59.8031 154.797 60.3309 156.762 61.3693C158.935 62.5175 161.655 61.8485 162.753 59.8961C163.293 58.9369 163.327 58.5441 163.327 53.3584V47.8413L168.5 39.2759C173.376 31.2014 173.678 30.6246 173.778 29.2062C173.865 27.954 173.779 27.5476 173.265 26.7827C172.389 25.4793 170.974 24.8415 169.461 25.0684C167.519 25.3593 166.535 26.6081 162.834 33.4795C161.045 36.8002 159.433 39.7312 159.251 39.9924C158.88 40.5252 158.747 40.3023 154.254 31.6678C152.985 29.228 151.601 26.8381 151.178 26.3571C150.098 25.1277 148.406 24.6979 146.681 25.2147ZM83.3247 25.4297C81.8043 25.7075 80.7024 26.4527 79.9996 27.6781L79.3837 28.752L79.3028 42.2421C79.2526 50.5888 79.3246 56.3918 79.4912 57.4626C79.7912 59.388 80.3199 60.2678 81.6446 61.0477C82.4793 61.5392 83.0089 61.5728 89.8931 61.5728C97.9254 61.5728 98.9758 61.431 102.04 59.9344C103.74 59.1039 106.009 57.1302 107.071 55.5595C107.878 54.3646 109.038 51.6562 109.462 49.9768C110.024 47.7487 110.26 43.5402 109.986 40.6373C109.217 32.4883 105.421 27.5276 98.6715 25.8535C96.8171 25.3935 85.2676 25.0744 83.3247 25.4297ZM88.1853 54.6662L91.686 54.5749C94.9717 54.489 95.282 54.4349 96.7436 53.69C97.8833 53.109 98.5299 52.5547 99.1568 51.6218C100.588 49.4921 100.928 47.923 100.928 43.4557C100.928 38.9411 100.554 37.2533 99.1444 35.4067C97.3297 33.0289 95.3579 32.2966 90.7688 32.2966H88.1853V54.6662ZM128.129 34.2002C127.888 34.8729 125.873 41.4562 124.432 46.2783L124.217 47.0003H132.817L132.322 45.228C132.049 44.2531 131.217 41.4471 130.473 38.9921C129.728 36.5371 129.058 34.2624 128.983 33.9376C128.793 33.1085 128.487 33.2025 128.129 34.2002ZM97.8132 105.952C93.5779 107.023 89.4123 110.447 87.4365 114.48C84.7824 119.898 84.1904 126.699 85.5606 136.028C85.8309 137.869 86.2955 140.399 86.5931 141.652C86.8908 142.904 87.1344 144.033 87.1344 144.161C87.1344 144.288 86.6318 144.52 86.0177 144.676C83.4679 145.323 77.9024 147.164 75.5741 148.13C66.7872 151.777 60.7199 156.989 58.7678 162.567C58.0306 164.674 57.7713 168.69 58.2242 170.99C59.8143 179.067 68.4393 185.955 82.799 190.616C84.6773 191.226 86.2807 191.765 86.3617 191.816C86.4428 191.866 86.1728 193.243 85.7613 194.876C83.4695 203.972 83.1369 212.005 84.7963 218.179C86.2616 223.631 90.1716 228.027 95.0891 229.752C97.1335 230.469 101.408 230.736 103.751 230.293C110.104 229.092 117.741 224.692 124.903 218.108C125.952 217.144 126.878 216.356 126.961 216.356C127.044 216.356 128.433 217.591 130.047 219.099C138.459 226.964 145.483 231.003 152.251 231.87C159.177 232.757 165.721 229.052 168.732 222.539C170.239 219.281 170.717 216.834 170.873 211.599C171.029 206.318 170.763 203.391 169.591 197.499C169.151 195.288 168.842 193.428 168.904 193.366C168.966 193.304 170.641 192.779 172.626 192.198C189.353 187.31 198 179.661 198 169.75C198 165.101 196.364 161.412 192.63 157.638C188.192 153.154 182.358 149.925 173.234 146.904C171.386 146.292 169.875 145.687 169.876 145.561C169.877 145.435 170.293 143.618 170.801 141.524C172.325 135.236 172.613 133.009 172.634 127.346C172.65 123.387 172.551 121.762 172.197 120.178C170.98 114.718 168.579 111.017 164.568 108.418C162.285 106.939 160.213 106.31 157.088 106.148C152.904 105.932 149.782 106.689 144.897 109.104C140.417 111.319 135.876 114.568 130.639 119.305L128.643 121.112L125.689 118.254C119.543 112.308 113.476 108.351 107.628 106.474C104.833 105.577 100.256 105.333 97.8132 105.952ZM100.787 114.722C95.0574 115.844 92.764 121.737 94.0981 131.908C94.4943 134.929 96.1309 141.973 96.5179 142.323C96.6314 142.426 97.7882 142.352 99.0887 142.16C102.527 141.652 109.047 140.999 110.686 140.999C111.712 140.999 112.203 140.873 112.479 140.54C112.687 140.287 114.09 138.426 115.595 136.404C117.101 134.383 119.23 131.648 120.326 130.328L122.319 127.928L119.374 124.944C113.572 119.064 108.671 115.74 104.505 114.857C102.627 114.46 102.207 114.444 100.787 114.722ZM152.584 115.42C148.338 116.561 142.588 120.523 137.124 126.07L134.961 128.267L136.434 130.104C137.703 131.688 141.067 136.334 143.774 140.243L144.582 141.411L147.899 141.74C151.036 142.051 158.583 143.151 159.975 143.5C160.596 143.656 160.648 143.555 161.583 140.377C164.441 130.664 164.792 123.745 162.646 119.44C161.81 117.763 159.659 115.894 157.999 115.402C156.353 114.913 154.447 114.92 152.584 115.42ZM126.662 138.045L124.928 140.343L128.298 140.474C130.151 140.546 131.707 140.518 131.754 140.412C131.838 140.225 128.718 135.748 128.504 135.748C128.445 135.748 127.617 136.782 126.662 138.045ZM116.673 152.314C114.738 155.323 111.98 159.902 109.438 164.328L107.122 168.358L108.135 170.367C109.324 172.728 114.699 182.388 116.192 184.848L117.228 186.555L119.85 186.721C121.292 186.812 126.019 186.895 130.354 186.906L138.236 186.925L139.929 184.246C142.281 180.524 146.455 173.563 147.782 171.151L148.889 169.137L146.476 164.586C142.986 158.007 139.032 151.207 138.533 150.927C138.296 150.795 133.562 150.615 128.013 150.528L117.924 150.369L116.673 152.314ZM101.734 151.539C100.732 151.668 99.8696 151.816 99.817 151.868C99.6841 152.001 101.595 156.729 101.844 156.882C101.955 156.951 102.824 155.71 103.774 154.123L105.501 151.239L104.528 151.272C103.993 151.291 102.736 151.411 101.734 151.539ZM151.777 153.406C152.222 154.164 152.959 155.524 153.416 156.428C153.873 157.332 154.346 158.039 154.466 157.998C154.724 157.912 157.002 152.998 156.858 152.838C156.738 152.703 152.378 152.04 151.564 152.033C150.972 152.027 150.973 152.036 151.777 153.406ZM85.9521 154.253C77.7028 156.38 72.7169 158.77 69.6274 162.079C67.6882 164.157 67.0655 165.746 67.2105 168.248C67.448 172.347 70.5919 175.696 77.0183 178.697C81.2528 180.675 89.0084 183.099 89.4785 182.593C89.6006 182.461 90.4117 180.64 91.2811 178.546C92.1505 176.452 93.5314 173.321 94.3501 171.588C95.1992 169.79 95.787 168.212 95.7187 167.912C95.653 167.624 94.8976 165.792 94.0401 163.843C93.1828 161.893 91.899 158.732 91.1876 156.819C90.4761 154.905 89.7754 153.347 89.6306 153.356C89.4861 153.365 87.8306 153.769 85.9521 154.253ZM165.075 158.4C164.23 160.455 162.748 163.787 161.78 165.806L160.021 169.476L161.626 173.158C162.509 175.183 163.855 178.51 164.618 180.552L166.005 184.264L167.622 183.895C178.758 181.349 185.871 177.611 188.041 173.164C188.944 171.312 188.953 167.923 188.059 166.234C186.34 162.983 182.167 159.962 176.029 157.525C174.274 156.828 167.21 154.642 166.769 154.659C166.682 154.662 165.92 156.346 165.075 158.4ZM126.282 156.522C120.755 157.411 116.329 162.643 116.304 168.317C116.272 175.574 122.909 181.3 130.025 180.155C134.1 179.499 137.326 177.088 139.086 173.385C139.913 171.645 140.065 171.032 140.159 169.063C140.455 162.889 136.588 157.892 130.523 156.607C128.581 156.196 128.341 156.191 126.282 156.522ZM100.309 182.127C99.7022 183.519 99.2406 184.693 99.2834 184.736C99.3265 184.779 100.576 184.981 102.061 185.185C104.151 185.473 104.743 185.484 104.683 185.236C104.558 184.715 101.73 179.607 101.564 179.601C101.481 179.599 100.916 180.736 100.309 182.127ZM152.215 183.318C151.233 184.917 150.469 186.264 150.517 186.312C150.607 186.403 156.046 185.879 156.178 185.767C156.266 185.692 154.779 181.898 154.313 181.009C154.017 180.445 153.899 180.576 152.215 183.318ZM95.0568 195.941C93.3491 201.73 92.5932 206.012 92.5651 210.054C92.5264 215.644 93.9394 218.916 97.1621 220.7C98.4566 221.417 98.7632 221.475 101.191 221.467C103.555 221.459 104.014 221.374 105.783 220.614C109.44 219.043 112.833 216.689 117.28 212.637C121.333 208.945 121.271 209.698 117.888 205.227C116.302 203.13 114.225 200.246 113.272 198.815L111.539 196.215L107.547 195.755C105.352 195.503 101.847 195.013 99.7592 194.667C97.6716 194.321 95.8858 194.038 95.7909 194.038C95.6961 194.038 95.3658 194.895 95.0568 195.941ZM155.708 195.624C153.902 195.878 150.391 196.24 147.906 196.428L143.388 196.77L142.272 198.357C140.722 200.565 136.731 205.657 135.01 207.626L133.574 209.267L135.086 210.987C135.917 211.934 137.619 213.649 138.866 214.799C146.104 221.469 151.89 224.009 156.372 222.483C158.208 221.858 160.465 219.574 161.185 217.613C162.614 213.722 162.624 208.952 161.219 201.945C160.542 198.572 159.579 195.271 159.255 195.211C159.11 195.184 157.514 195.37 155.708 195.624ZM124.18 197.142C124.18 197.367 127.257 201.652 127.419 201.652C127.614 201.652 130.748 197.462 130.748 197.202C130.748 197.024 129.584 196.926 127.464 196.926C125.658 196.926 124.18 197.023 124.18 197.142Z" fill="#F8F8FB"/>
</svg>