<svg width="256" height="256" title="Readarr" viewBox="0 0 256 256" fill="none" xmlns="http://www.w3.org/2000/svg">
<rect width="256" height="256" rx="40" fill="#F4F2ED"/>
<path d="M128.5 210.871C173.992 210.871 210.871 173.992 210.871 128.5C210.871 83.0077 173.992 46.1289 128.5 46.1289C83.0077 46.1289 46.1289 83.0077 46.1289 128.5C46.1289 173.992 83.0077 210.871 128.5 210.871Z" fill="#EEEEEE"/>
<path d="M128.5 211C117.35 211 106.554 208.809 96.4023 204.522C86.5732 200.365 77.7432 194.403 70.1699 186.83C62.5967 179.257 56.6348 170.427 52.4775 160.598C48.1914 150.446 46 139.65 46 128.5C46 117.35 48.1914 106.554 52.4775 96.4023C56.6348 86.5732 62.5967 77.7432 70.1699 70.1699C77.7432 62.5967 86.5732 56.6348 96.4023 52.4775C106.554 48.1914 117.35 46 128.5 46C139.65 46 150.446 48.1914 160.598 52.4775C170.427 56.6348 179.257 62.5967 186.83 70.1699C194.403 77.7432 200.365 86.5732 204.522 96.4023C208.809 106.586 211 117.382 211 128.5C211 139.618 208.809 150.446 204.522 160.598C200.365 170.427 194.403 179.257 186.83 186.83C179.257 194.403 170.427 200.365 160.598 204.522C150.446 208.809 139.65 211 128.5 211ZM128.5 46.2578C83.1572 46.2578 46.2578 83.1572 46.2578 128.5C46.2578 173.843 83.1572 210.742 128.5 210.742C173.843 210.742 210.742 173.843 210.742 128.5C210.742 83.1572 173.843 46.2578 128.5 46.2578ZM194.113 100.785C190.536 92.3096 185.38 84.7041 178.87 78.1621C172.36 71.6201 164.69 66.4961 156.215 62.8867C147.449 59.1807 138.104 57.2793 128.5 57.2793C118.896 57.2793 109.551 59.1484 100.785 62.8867C92.3096 66.4639 84.7041 71.6201 78.1621 78.1299C71.6201 84.6396 66.4961 92.3096 62.8867 100.785C59.1807 109.551 57.2793 118.896 57.2793 128.5C57.2793 138.104 59.1484 147.449 62.8867 156.215C66.4639 164.69 71.6201 172.296 78.1299 178.838C84.6396 185.38 92.2773 190.504 100.753 194.081C109.519 197.787 118.864 199.688 128.468 199.688C138.071 199.688 147.417 197.819 156.183 194.081C164.658 190.504 172.264 185.348 178.806 178.838C185.348 172.328 190.472 164.69 194.049 156.215C197.755 147.449 199.656 138.104 199.656 128.5C199.688 118.896 197.819 109.551 194.113 100.785Z" fill="#443C3C"/>
<path d="M183.253 101.462C183.285 99.4316 183.317 98.2715 183.35 98.2393C183.253 89.6348 180.514 90.5049 178.419 90.2471C177.646 90.2793 176.904 90.3437 176.195 90.376C164.98 76.3896 147.804 67.4307 128.5 67.4307C109.196 67.4307 91.9551 76.3896 80.7725 90.4082C79.9346 90.3438 79.0645 90.2793 78.1621 90.2471C76.0674 90.5049 73.3604 89.6348 73.2315 98.2393C73.2637 98.2715 73.2959 99.7539 73.3281 102.268C69.5254 110.228 67.3984 119.122 67.3984 128.5C67.3984 138.651 69.8799 148.223 74.2627 156.634C74.3594 157.021 74.5527 157.472 74.875 157.794C85.252 176.711 105.361 189.569 128.468 189.569C162.177 189.569 189.537 162.241 189.537 128.5C189.569 118.8 187.281 109.615 183.253 101.462ZM128.274 171.651C127.694 171.651 127.114 171.651 126.534 171.619C126.47 157.923 126.019 107.263 125.922 107.166C126.019 107.263 124.794 102.944 122.635 102.139C122.151 101.881 116.641 97.3369 103.202 93.8887C110.453 88.6357 119.154 85.7998 128.274 85.7998C137.395 85.7998 146.096 88.6357 153.347 93.8564C139.94 97.3047 134.43 101.881 133.946 102.106L133.044 102.751C131.143 103.879 130.917 105.361 131.046 105.265C130.949 105.361 130.208 157.375 130.079 171.587C129.467 171.619 128.887 171.651 128.274 171.651Z" fill="#EEEEEE"/>
<path d="M191.02 128.5C191.02 118.188 188.538 108.455 184.091 99.8828C184.091 99.2705 184.123 98.8193 184.123 98.5615L184.155 98.5293V98.207C184.059 90.4082 181.835 89.6348 179.16 89.4736C178.935 89.4736 178.709 89.4414 178.516 89.4092H178.387C178.032 89.4414 177.678 89.4414 177.355 89.4736C165.883 75.165 148.255 65.9805 128.5 65.9805C108.681 65.9805 90.9883 75.2295 79.5479 89.6348C79.1289 89.6025 78.6777 89.5703 78.2588 89.5703H78.1299C77.9365 89.6025 77.7109 89.6025 77.4854 89.6348C74.8105 89.7959 72.5869 90.5693 72.4902 98.3682V98.6904L72.5225 98.7227C72.5225 99.0772 72.5547 99.7217 72.5547 100.656C68.3652 109.003 65.9805 118.478 65.9805 128.5C65.9805 139.07 68.623 149.028 73.2314 157.762C73.2637 160.372 73.2959 162.854 73.3281 165.077C73.3281 166.012 73.8115 167.816 75.6484 167.945C75.7451 167.978 75.9062 168.01 76.1641 168.042C77.4531 168.268 79.0322 168.59 80.8369 168.977C92.3418 182.479 109.422 191.02 128.5 191.02C147.578 191.02 164.658 182.479 176.131 169.009C177.774 168.654 179.225 168.364 180.417 168.171C180.675 168.139 180.836 168.106 180.933 168.074C182.77 167.945 183.253 166.141 183.253 165.206C183.285 163.176 183.317 160.92 183.35 158.567C188.216 149.641 191.02 139.393 191.02 128.5ZM67.5596 128.5C67.5596 119.863 69.3643 111.678 72.6191 104.233V104.395C72.5225 105.297 72.458 106.328 72.4258 107.488V107.649C72.5225 109.712 72.9092 134.72 73.1992 154.056C69.5898 146.289 67.5596 137.62 67.5596 128.5ZM127.372 184.22V181.319C127.372 180.159 127.372 178.677 127.34 176.904C127.437 176.421 127.469 175.809 127.372 175.1V172.199C127.372 170.395 127.34 167.816 127.34 164.497C127.308 158.342 127.243 150.092 127.146 141.197C127.082 132.335 126.985 124.053 126.921 117.897C126.889 114.578 126.856 112 126.824 110.195C126.824 109.261 126.792 108.52 126.792 108.036C126.792 107.778 126.792 107.585 126.76 107.424V107.263C126.76 107.23 126.76 107.198 126.728 107.134C126.728 107.069 126.695 107.005 126.695 106.973C126.437 105.909 125.245 102.429 123.021 101.526C122.957 101.494 122.86 101.43 122.764 101.365C117.543 97.7236 105.329 91.5684 81.4492 89.7959C92.6318 76.2285 109.551 67.5918 128.468 67.5918C147.288 67.5918 164.143 76.1641 175.325 89.6348C151.284 91.375 139.038 97.5947 133.785 101.269C133.688 101.333 133.592 101.397 133.527 101.43C131.304 102.332 130.111 105.812 129.854 106.876C129.821 106.908 129.821 106.973 129.821 107.037C129.821 107.102 129.789 107.134 129.789 107.166V107.295C129.789 107.456 129.789 107.649 129.757 107.939C129.757 108.455 129.725 109.164 129.725 110.099C129.692 111.903 129.66 114.481 129.628 117.801C129.563 123.956 129.467 132.271 129.402 141.165C129.338 150.06 129.241 158.342 129.209 164.497C129.177 167.816 129.177 170.395 129.177 172.199V175.1C129.08 175.744 129.112 176.292 129.177 176.775C129.177 178.645 129.145 180.224 129.145 181.416V184.316C128.822 186.54 129.66 187.475 130.434 187.829C130.756 187.99 131.175 188.087 131.529 188.087C131.787 188.087 131.98 188.055 132.109 187.958C145.645 177.484 162.596 172.135 173.424 169.589C162.273 181.771 146.257 189.44 128.468 189.44C110.679 189.44 94.6621 181.803 83.5117 169.621C94.3398 172.199 111.033 177.549 124.407 187.861C124.536 187.958 124.729 187.99 124.987 187.99C125.342 187.99 125.729 187.894 126.083 187.732C126.856 187.346 127.694 186.443 127.372 184.22ZM184.155 107.617V107.424C184.155 106.328 184.091 105.361 183.994 104.523C183.994 104.137 183.994 103.782 184.026 103.428C187.507 111.098 189.44 119.573 189.44 128.532C189.44 138.007 187.281 146.998 183.382 154.99C183.672 135.461 184.059 109.68 184.155 107.617ZM178.387 91.0205C178.612 91.0527 178.838 91.0527 179.063 91.085C180.804 91.1816 182.447 91.3105 182.544 98.207C182.544 98.3682 182.512 98.5615 182.512 98.8516C182.512 99.1738 182.479 99.625 182.479 100.173C181.577 99.2061 180.481 99.1416 179.515 99.0771C179.289 99.0771 179.063 99.0449 178.838 99.0127H178.773C152.444 100.431 139.231 106.973 133.721 110.743C133.592 110.84 133.463 110.904 133.431 110.937C132.722 111.549 132.013 112.451 131.4 113.354C131.433 109.712 131.497 107.359 131.497 107.069C131.723 106.231 132.818 103.363 134.236 102.848L134.301 102.815C134.397 102.751 134.526 102.687 134.752 102.525C140.069 98.8516 152.831 92.4385 178.387 91.0205ZM77.582 91.2139C77.8076 91.2139 78.0332 91.1816 78.2588 91.1494C103.847 92.5674 116.576 98.9482 121.894 102.654C122.119 102.815 122.248 102.88 122.345 102.944L122.409 102.977C123.892 103.524 125.02 106.65 125.148 107.295L125.181 107.714C125.213 108.52 125.213 110.324 125.245 112.902C124.697 112.064 123.988 111.323 123.183 111.001C123.118 110.969 123.021 110.872 122.893 110.808C117.382 107.037 104.169 100.527 77.8398 99.1094H77.7754C77.5498 99.1416 77.3242 99.1416 77.0986 99.1738C76.1318 99.2383 75.0361 99.3027 74.1338 100.237C74.1338 99.7217 74.1016 99.3027 74.1016 99.0127C74.1016 98.7227 74.1016 98.4971 74.0693 98.3682C74.166 91.4395 75.8096 91.3428 77.582 91.2139Z" fill="#8E2222"/>
</svg>