<svg width="256" height="256" title="Read the Docs" viewBox="0 0 256 256" fill="none" xmlns="http://www.w3.org/2000/svg" id="readthedocs">
<style>
#readthedocs {
    rect {fill: #15191C}
    path.readthedocs {fill: #FFFFFF}

    @media (prefers-color-scheme: light) {
        rect {fill: #F4F2ED}
        path.readthedocs {fill: #32322A}
    }
}
</style>
<rect width="256" height="256" rx="40" fill="#15191C"/>
<path d="M120.311 125.709C118.27 125.982 116.855 127.836 117.127 129.881C117.317 131.353 118.379 132.58 119.821 132.962C119.821 132.962 128.857 135.961 144.235 137.215C156.592 138.224 170.608 136.343 170.608 136.343C172.65 136.288 174.283 134.571 174.201 132.526C174.119 130.481 172.432 128.845 170.391 128.926C170.146 128.926 169.901 128.954 169.683 129.008C169.683 129.008 155.966 130.699 144.834 129.799C130.137 128.599 122.135 125.9 122.135 125.9C121.536 125.709 120.91 125.627 120.311 125.709ZM120.311 107.277C118.27 107.55 116.855 109.404 117.127 111.449C117.317 112.921 118.379 114.148 119.821 114.53C119.821 114.53 128.857 117.529 144.235 118.783C156.592 119.792 170.608 117.911 170.608 117.911C172.65 117.856 174.283 116.139 174.201 114.094C174.119 112.049 172.432 110.413 170.391 110.495C170.146 110.495 169.901 110.522 169.683 110.576C169.683 110.576 155.966 112.267 144.834 111.367C130.137 110.167 122.135 107.468 122.135 107.468C121.536 107.277 120.91 107.195 120.311 107.277ZM120.311 88.8453C118.27 89.1179 116.855 90.9721 117.127 93.017C117.317 94.4894 118.379 95.7163 119.821 96.0981C119.821 96.0981 128.857 99.0973 144.235 100.352C156.592 101.36 170.608 99.4791 170.608 99.4791C172.65 99.4245 174.283 97.7068 174.201 95.6618C174.119 93.6168 172.432 91.9809 170.391 92.0627C170.146 92.0627 169.901 92.0899 169.683 92.1445C169.683 92.1445 155.966 93.835 144.834 92.9352C130.137 91.7355 122.135 89.0362 122.135 89.0362C121.536 88.8453 120.91 88.7635 120.311 88.8453ZM120.311 70.4407C118.27 70.7133 116.855 72.5675 117.127 74.6124C117.317 76.0848 118.379 77.3117 119.821 77.6935C119.821 77.6935 128.857 80.6928 144.235 81.947C156.592 82.9558 170.608 81.0745 170.608 81.0745C172.65 81.0199 174.283 79.3022 174.201 77.2572C174.119 75.2123 172.432 73.5763 170.391 73.6581C170.146 73.6581 169.901 73.6853 169.683 73.7399C169.683 73.7399 155.966 75.4304 144.834 74.5306C130.137 73.3309 122.135 70.6316 122.135 70.6316C121.536 70.4134 120.91 70.3589 120.311 70.4407ZM94.5366 51C75.2125 51.1363 68 57.0803 68 57.0803V201.672C68 201.672 75.022 195.592 97.6666 196.519C120.311 197.446 124.965 205.408 152.781 205.953C180.597 206.526 187.592 201.672 187.592 201.672L188 54.2719C188 54.2719 175.48 57.8165 151.121 58.0074C126.762 58.1982 120.91 51.7907 98.5375 51.0545C97.1495 51.0273 95.8158 51 94.5366 51ZM110.704 60.4341C110.704 60.4341 122.407 64.3058 144.044 65.3965C162.334 66.2962 180.651 63.5969 180.651 63.5969V194.61C180.651 194.61 171.37 199.491 148.181 197.828C130.218 196.546 110.431 189.73 110.431 189.73L110.704 60.4341ZM99.4085 63.8423C101.477 63.8423 103.137 65.5328 103.137 67.5778C103.137 69.6227 101.45 71.3132 99.4085 71.3132C99.4085 71.3132 93.3391 71.3405 89.6648 71.7222C83.4593 72.3493 79.2406 74.6124 79.2406 74.6124C77.4171 75.5667 75.1581 74.8851 74.2055 73.0582C73.2529 71.2314 73.9333 68.9683 75.7569 68.014C75.7569 68.014 81.2547 65.0965 88.9299 64.3331C93.3663 63.8696 99.4085 63.8423 99.4085 63.8423ZM95.8158 82.3287C97.8843 82.2742 99.4357 82.3287 99.4357 82.3287C101.477 82.5741 102.947 84.4555 102.702 86.5004C102.484 88.2182 101.15 89.5542 99.4357 89.7723C99.4357 89.7723 93.3663 89.7996 89.692 90.1813C83.4865 90.8084 79.2679 93.0715 79.2679 93.0715C77.4443 94.0258 75.1853 93.3169 74.2327 91.4901C73.2801 89.6633 73.9877 87.4002 75.8113 86.4459C75.8113 86.4459 81.3091 83.5284 88.9843 82.765C91.1345 82.5196 93.7473 82.3832 95.8158 82.3287ZM99.4085 100.733C101.477 100.733 103.137 102.424 103.137 104.469C103.137 106.541 101.45 108.204 99.4085 108.204C99.4085 108.204 93.3391 108.177 89.6648 108.531C83.4593 109.159 79.2406 111.422 79.2406 111.422C77.4171 112.376 75.1581 111.667 74.2055 109.84C73.2529 108.013 73.9605 105.75 75.7841 104.796C75.7841 104.796 81.2819 101.878 88.9571 101.115C93.3663 100.706 99.4085 100.733 99.4085 100.733Z" class="readthedocs" fill="#FFFFFF"/>
</svg>