<svg width="256" height="256" title="Redoc" viewBox="0 0 256 256" fill="none" xmlns="http://www.w3.org/2000/svg">
<rect width="256" height="256" rx="40" fill="#566179"/>
<path d="M77.6491 59H148.331L153.517 59.544L160.339 61.1761L164.706 62.8082L170.437 65.5284L175.349 68.5205L179.715 72.0568L183.263 75.3209L186.538 79.1292L189.813 83.7534L193.088 89.7378L195.271 95.1781L196.908 100.89L197.727 105.515L198 108.507V116.123L196.908 123.196L195.271 129.18L192.815 135.164L190.632 139.245L187.903 143.325L184.355 147.677L179.715 152.301L175.895 155.294L171.801 158.014L166.889 160.734L166.616 161.278L167.708 161.822L182.172 176.239L185.173 180.047L186.265 182.223L186.811 183.855V187.935L185.719 190.928L184.082 193.648L182.172 195.552L179.442 197.184L177.532 197.728L174.803 198H76.5575L72.4639 197.184L69.1891 195.824L66.46 194.192L63.731 191.744L61.2749 189.023L59.0916 184.671L58.2729 181.951L58 180.047V76.681L58.8187 72.8728L60.1832 69.6086L62.3665 66.3444L65.6413 63.0802L69.7349 60.6321L74.1014 59.272L77.6491 59ZM91.5673 67.1605L76.0117 67.4325L72.7368 68.5205L70.2807 70.4247L68.0975 72.8728L66.7329 75.593L66.1871 78.3131L66.46 82.1213L67.8246 85.3855L70.0078 88.3777L72.7368 90.2818L76.0117 91.3699L78.1949 91.6419L96.4795 91.9139L98.9357 93.818L157.883 152.573L160.066 154.205L161.704 153.661L167.981 150.397L172.62 147.133L175.895 144.141L179.17 140.877L182.172 136.796L184.628 132.716L186.811 127.82L188.448 122.38L189.54 115.035V109.051L188.721 103.339L187.357 98.1703L185.719 93.818L182.717 88.1057L179.988 84.2975L176.441 80.2172L173.711 77.7691L169.345 74.5049L164.433 71.7847L159.52 69.6086L154.881 68.2485L149.15 67.4325L136.869 67.1605H91.5673ZM66.46 96.2661L66.1871 96.5382V177.327L66.7329 180.863L68.0975 184.127L70.5536 186.847L73.0097 188.479L76.2846 189.568L78.1949 189.84H170.71L175.622 189.568L177.259 188.751L178.351 186.847L178.078 184.399L175.076 181.135L119.949 126.188L117.766 124.284L93.7505 100.346L93.2047 100.074L76.8304 99.8023L72.7368 98.9863L68.6433 97.3542L66.46 96.2661Z" fill="white"/>
<path d="M76.5575 156.926H136.596L138.234 157.742L139.326 159.646L139.598 162.094L138.234 164.27L136.051 165.358H77.1033L75.193 164.542L73.8285 162.638L73.5556 160.19L74.6472 158.014L76.5575 156.926Z" fill="white"/>
<path d="M78.7407 140.061H116.947L119.949 140.333L121.314 141.149L122.133 141.965L122.678 143.325V145.501L121.86 147.133L120.495 148.221L118.858 148.765H77.3762L75.4659 147.949L73.8285 146.045L73.5556 145.229V143.325L74.9201 141.149L76.2846 140.333L78.7407 140.061Z" fill="white"/>
<path d="M77.1033 123.468H103.848L105.758 124.284L106.85 125.644L107.396 127.276L107.123 129.18L106.304 130.812L104.121 131.9L99.2086 132.172H85.2904L76.5575 131.9L74.9201 130.812L73.5556 128.636V126.732L74.6472 124.828L76.0117 123.74L77.1033 123.468Z" fill="white"/>
</svg>