<svg width="256" height="256" title="Refine" viewBox="0 0 256 256" fill="none" xmlns="http://www.w3.org/2000/svg" id="refine">
<style>
#refine {
    rect {fill: #15191C}
    path.refine {fill: white}

    @media (prefers-color-scheme: light) {
        rect {fill: #F4F2ED}
        path.refine {fill: black}
    }
}
</style>
<rect width="256" height="256" rx="40" fill="#15191C"/>
<path fill-rule="evenodd" clip-rule="evenodd" d="M139.18 55.6393C132.142 52.1202 123.858 52.1202 116.82 55.6393L66.8196 80.6393C58.3501 84.8741 53 93.5307 53 103V153C53 162.469 58.3501 171.126 66.8196 175.36L116.82 200.361C123.858 203.88 132.142 203.88 139.18 200.361L189.18 175.36C197.65 171.126 203 162.469 203 153V103C203 93.5307 197.65 84.8741 189.18 80.6393L139.18 55.6393ZM103 103C103 89.1928 114.193 77.9999 128 77.9999C141.807 77.9999 153 89.1928 153 103V153C153 166.807 141.807 178 128 178C114.193 178 103 166.807 103 153V103Z" class="refine" fill="white"/>
<path d="M140.5 103C140.5 109.903 134.903 115.5 128 115.5C121.096 115.5 115.5 109.903 115.5 103C115.5 96.0963 121.096 90.4999 128 90.4999C134.903 90.4999 140.5 96.0963 140.5 103Z" class="refine" fill="white"/>
</svg>