<svg width="256" height="256" title="Regle.js" viewBox="0 0 256 256" fill="none" xmlns="http://www.w3.org/2000/svg" id="reglejs">
<style>
#reglejs {
    rect {fill: #15191C}
    path.reglejs {fill: white}

    @media (prefers-color-scheme: light) {
        rect {fill: #F4F2ED}
        path.reglejs {fill: black}
    }
}
</style>
<rect width="256" height="256" rx="40" fill="#15191C"/>
<path fill-rule="evenodd" clip-rule="evenodd" d="M68 88.2692L69.6127 88.5587C70.4994 88.7176 86.1608 90.9556 104.415 93.5318C122.67 96.1084 137.7 98.3107 137.815 98.4259C137.931 98.5411 122.285 112.011 103.047 128.359L68.069 158.082L68.0347 181.793C68.0154 194.833 68.1111 205.503 68.2466 205.503C68.8728 205.503 168.855 119.845 171.239 117.266C185.964 101.337 179.065 71.5236 159.149 65.0285C157.46 64.4773 136.874 60.9959 113.403 57.291C89.9325 53.5867 70.1149 50.431 69.3646 50.2781L68 50V88.2692Z" fill="#04BC7C"/>
<path fill-rule="evenodd" clip-rule="evenodd" d="M140.695 157.131C132.507 164.111 125.611 170.016 125.368 170.252C125.115 170.5 128.881 178.173 134.245 188.341L143.563 206H165.859C185.262 206 188.135 205.905 187.995 205.267C187.777 204.268 156.141 144.446 155.829 144.442C155.693 144.44 148.882 150.15 140.695 157.131Z" class="reglejs" fill="white"/>
</svg>