<svg width="256" height="256" viewBox="0 0 256 256" xmlns="http://www.w3.org/2000/svg" fill="none">
  <rect width="256" height="256" rx="60" fill="#FFFFFF"/>
  <g transform="translate(30, 20) scale(0.8)">
    <path d="M191.45 0.071c-32.315-1.52-59.479 21.888-64.15 52.776-.19 1.43-.465 2.81-.693 4.19-7.21 38.3-40.79 67.325-81.135 67.325a82.18 82.18 0 0 1-39.65-10.13.93.93 0 0 0-1.25.82v132.64H128v-96.09c0-17.26 13.95-31.29 31.12-31.29h31.13c35.255 0 63.61-29.365 62.24-65.1C251.86 27.69 225.11 1.507 191.45 0.07Z" fill="#000000"/>
  </g>
</svg>
