<svg width="256" height="256" title="Renovate" viewBox="0 0 256 256" fill="none" xmlns="http://www.w3.org/2000/svg">
<rect width="256" height="256" rx="40" fill="#308CE3"/>
<path d="M94.377 37.0077C92.6563 36.9484 90.941 37.2313 89.3309 37.84C87.7208 38.4487 86.248 39.371 84.9982 40.5533C83.7457 41.728 82.7376 43.1378 82.0318 44.7021C81.3261 46.2665 80.9365 47.9545 80.8854 49.6694C80.8343 51.3843 81.1227 53.0924 81.7341 54.6959C82.3455 56.2993 83.2679 57.7665 84.4483 59.0133L84.4636 59.0286L104.397 80.0887C104.838 80.5437 105.184 81.0822 105.414 81.6724C105.643 82.2627 105.752 82.8928 105.735 83.5258C105.717 84.1587 105.573 84.7818 105.31 85.3582C105.048 85.9347 104.672 86.453 104.206 86.8825C103.749 87.3189 103.209 87.6601 102.618 87.8862C102.027 88.1124 101.397 88.219 100.765 88.1998C100.132 88.1807 99.5097 88.0361 98.9336 87.7747C98.3576 87.5132 97.8393 87.1399 97.4091 86.6767L87.7859 76.5202C85.3911 74.0085 82.1005 72.5412 78.6286 72.437C75.1568 72.3328 71.7839 73.6 69.2422 75.9636C67.9869 77.1368 66.9761 78.5459 66.2676 80.1101C65.5592 81.6743 65.1671 83.3628 65.1139 85.0786C65.0607 86.7945 65.3474 88.504 65.9575 90.1089C66.5677 91.7139 67.4892 93.1828 68.6694 94.4312V94.4465L83.0278 109.605C83.4656 110.062 83.808 110.601 84.0353 111.191C84.2626 111.782 84.3701 112.411 84.3516 113.043C84.3331 113.675 84.189 114.298 83.9277 114.874C83.6663 115.45 83.2929 115.968 82.8292 116.399C82.3726 116.837 81.833 117.18 81.2419 117.407C80.6509 117.634 80.0203 117.742 79.3872 117.723C78.7541 117.703 78.1312 117.558 77.555 117.295C76.9789 117.033 76.461 116.658 76.0319 116.193H76.009L70.7773 110.634L70.6704 110.482C68.2728 107.978 64.9848 106.516 61.5166 106.412C58.0484 106.307 54.6784 107.569 52.1344 109.925C50.8785 111.099 49.8673 112.509 49.1588 114.074C48.4503 115.639 48.0586 117.329 48.0061 119.046C47.9536 120.762 48.2413 122.472 48.8528 124.078C49.4642 125.683 50.3874 127.152 51.5692 128.4L68.7763 147.036L68.8222 147.097L71.5105 149.865C71.5309 149.56 71.564 149.262 71.6098 148.973C71.3278 151.001 71.5173 153.067 72.1636 155.011C72.81 156.955 73.8957 158.724 75.3369 160.181L76.4138 161.272L86.2661 171.032C91.4595 176.216 99.9753 176.216 105.161 171.032L109.155 167.051L121.284 154.989L129.7 146.677L143.218 133.212L162.556 113.997V113.974C165.045 111.48 166.442 108.104 166.442 104.584C166.442 101.064 165.045 97.6875 162.556 95.1937L159.173 91.8235C161.066 90.7088 163.276 90.2552 165.456 90.5341C167.635 90.813 169.66 91.8086 171.21 93.3637L179.282 101.4C186.187 108.301 186.194 119.342 179.298 126.166V126.182L152.597 152.716H152.582C148.305 156.986 148.305 163.978 152.612 168.195L156.462 171.992L151.299 177.131C150.606 177.819 150.196 178.741 150.153 179.716C150.109 180.691 150.433 181.646 151.062 182.393L152.208 183.803H152.269L171.271 164.817L169.865 163.673C169.099 163.05 168.126 162.735 167.139 162.789C166.179 162.856 165.275 163.261 164.588 163.933L159.639 168.866L155.744 165.023H155.729C155.12 164.425 154.637 163.711 154.308 162.923C153.979 162.136 153.811 161.291 153.814 160.438C153.817 159.585 153.991 158.741 154.325 157.956C154.659 157.171 155.146 156.46 155.759 155.865L182.444 129.331C184.49 127.292 186.114 124.871 187.222 122.206C188.33 119.541 188.901 116.684 188.902 113.798C188.904 110.912 188.335 108.055 187.23 105.388C186.124 102.722 184.503 100.299 182.46 98.259L174.364 90.207C173.03 88.8762 171.446 87.8209 169.703 87.1013C167.96 86.3817 166.092 86.012 164.206 86.0133C161.304 86.0133 158.402 86.8978 155.935 88.6287L151.627 84.3358C150.386 83.1 148.912 82.1216 147.291 81.4568C145.67 80.792 143.933 80.454 142.18 80.4623V80.4471C141.656 80.4559 141.134 80.4915 140.614 80.5538L133.458 72.7001L133.397 72.662L123.621 62.3073L103.557 41.11C101.16 38.597 97.8668 37.1286 94.3923 37.023L94.377 37.0077ZM94.2395 41.8496C95.3277 41.8847 96.3982 42.1346 97.3892 42.5848C98.3801 43.0349 99.272 43.6765 100.013 44.4726L120.1 65.6547L129.861 75.9712L135.543 82.2237C134.517 82.8001 133.574 83.5132 132.74 84.3434L102.877 114.043L75.3369 141.393C74.3978 142.355 73.6052 143.45 72.9846 144.642L73.0609 144.481L72.343 143.734L55.1359 125.106L55.1053 125.091C54.3503 124.315 53.7586 123.396 53.3651 122.387C52.9716 121.379 52.7843 120.303 52.8142 119.221C52.8441 118.139 53.0906 117.075 53.5392 116.09C53.9878 115.105 54.6294 114.219 55.4261 113.486L55.4566 113.471C56.2429 112.727 57.1683 112.144 58.1799 111.757C59.1916 111.37 60.2697 111.186 61.3527 111.215C62.4357 111.244 63.5023 111.486 64.4917 111.927C65.4811 112.367 66.3739 112.998 67.119 113.783L67.1343 113.875L72.4881 119.517C74.2471 121.378 76.6723 122.469 79.2338 122.55C81.7954 122.631 84.2851 121.697 86.1591 119.952C88.022 118.195 89.1127 115.773 89.1928 113.216C89.273 110.658 88.3361 108.173 86.5868 106.303H86.5716L72.2132 91.1373V91.122C71.4553 90.3473 70.861 89.4285 70.4658 88.42C70.0705 87.4116 69.8822 86.3341 69.9121 85.2516C69.942 84.1691 70.1895 83.1037 70.6399 82.1185C71.0903 81.1334 71.7344 80.2486 72.5339 79.5168C73.3231 78.7677 74.253 78.182 75.2701 77.7935C76.2871 77.405 77.3712 77.2214 78.4596 77.2533C79.5481 77.2852 80.6195 77.532 81.612 77.9794C82.6044 78.4268 83.4983 79.0659 84.2421 79.86L93.8348 90.0011C95.594 91.8644 98.0208 92.9561 100.584 93.0376C103.148 93.119 105.639 92.1835 107.513 90.4358C109.375 88.6776 110.464 86.2553 110.543 83.6979C110.622 81.1406 109.684 78.6561 107.933 76.7871H107.918L87.9845 55.7194C87.2289 54.9449 86.6367 54.027 86.2428 53.02C85.8489 52.013 85.6614 50.9374 85.6913 49.8567C85.7212 48.7761 85.9679 47.7124 86.4169 46.7286C86.8659 45.7449 87.508 44.861 88.3053 44.1294C89.0941 43.3763 90.0248 42.787 91.0435 42.3957C92.0622 42.0043 93.1485 41.8187 94.2395 41.8496ZM72.8318 144.969C72.2745 146.111 71.8786 147.325 71.6556 148.576C71.8685 147.323 72.2647 146.108 72.8318 144.969ZM175.151 168.126L155.622 187.623L177.373 213.815C177.704 214.196 178.06 214.578 178.442 214.959C185.125 221.615 196.138 221.745 202.928 214.959C204.629 213.271 205.957 211.247 206.828 209.017C207.698 206.786 208.091 204.398 207.982 202.007C207.873 199.615 207.263 197.273 206.193 195.131C205.123 192.988 203.615 191.093 201.767 189.568L175.151 168.126Z" fill="#053B8B"/>
</svg>