<svg width="256" height="256" title="Resend" viewBox="0 0 256 256" fill="none" xmlns="http://www.w3.org/2000/svg">
<rect width="256" height="256" rx="40" fill="black"/>
<path d="M73 200.33V56H137.949C147.158 56 155.474 57.9933 162.897 61.9793C170.457 65.9654 176.368 71.4638 180.629 78.4744C184.89 85.3469 187.021 93.1823 187.021 101.979C187.021 111.051 184.89 119.23 180.629 126.515C176.368 133.663 170.526 139.299 163.103 143.422C155.681 147.546 147.295 149.608 137.949 149.608H106.402V200.33H73ZM153 200.33L116.299 135.175L152.175 130.021L193 200.33H153ZM106.402 122.804H134.856C138.43 122.804 141.522 122.048 144.134 120.536C146.883 118.886 148.945 116.619 150.319 113.732C151.832 110.845 152.588 107.546 152.588 103.835C152.588 100.124 151.763 96.8934 150.113 94.1443C148.464 91.2579 146.058 89.0585 142.897 87.5462C139.873 86.0344 136.161 85.2785 131.763 85.2785H106.402V122.804Z" fill="white"/>
</svg>