<svg width="256" height="256" title="Riverpod" viewBox="0 0 256 256" fill="none" xmlns="http://www.w3.org/2000/svg" id="riverpod">
<style>
#riverpod {
    rect {fill: #15191C}

    @media (prefers-color-scheme: light) {
        rect {fill: #F4F2ED}
    }
}
</style>
<rect width="256" height="256" rx="40" fill="#15191C"/>
<path d="M136.947 209.736C136.961 209.743 136.975 209.749 136.99 209.755C139.902 210.986 143.136 211.348 146.217 210.644C176.435 203.751 199 176.649 199 144.261V108.633C196.344 109.213 193.59 109.866 190.91 110.605H190.885C177.717 114.228 166.197 119.847 174.545 127.624C190.762 142.721 160.774 148.574 140.316 152.986C108.348 159.863 79.9466 185.422 136.947 209.736Z" fill="#2855A3"/>
<path d="M49 130.089V144.207C49 150.006 54.6596 154.082 60.154 152.264C66.6776 150.106 74.2257 148.214 82.9343 146.664C156.619 133.577 145.332 128.179 139.689 124.642C134.045 121.093 124.307 112.774 154.516 106.699C170.033 103.568 186.581 101.843 199 100.906V62H116.93C79.4134 62 49 92.4847 49 130.089Z" fill="#6DD0F6"/>
<path d="M190.91 110.605C194.171 109.67 199 108.633 199 108.633C196.344 109.213 193.59 109.866 190.91 110.605Z" fill="#C4C2C1"/>
<path d="M136.947 209.736C113.178 199.598 104.259 189.242 104.257 180.115C104.253 167.355 121.678 156.995 140.316 152.986C156.689 149.455 179.164 145.001 179.176 135.625C179.18 133.285 177.784 130.638 174.545 127.624C172.58 125.794 171.716 124.083 171.715 122.49C171.71 117.313 180.817 113.375 190.885 110.605H190.91C193.59 109.866 196.344 109.213 199 108.633L199 120.082C189.065 123.655 182.402 128.61 189.299 135.019C205.517 150.115 175.528 155.968 155.069 160.38C126.336 166.567 100.479 187.838 136.947 209.736Z" fill="#22427A"/>
</svg>