<svg width="256" height="256" title="Robot Operating System" viewBox="0 0 256 256" fill="none" xmlns="http://www.w3.org/2000/svg" id="robotoperatingsystem">
<style>
#robotoperatingsystem {
    rect {fill: #15191C}
    path.ros { fill: #F1F1F1 }

    @media (prefers-color-scheme: light) {
        rect {fill: #F4F2ED}
        path.ros { fill: #22314E }
    }
}
</style>
<rect width="256" height="256" rx="40" fill="#15191C"/>
<path d="M86.4113 69.2419C86.4113 78.7641 78.9309 86.4837 69.7048 86.4837C60.4795 86.4837 53 78.7641 53 69.2419C53 59.7214 60.4804 52 69.7048 52C78.9309 52 86.4113 59.7214 86.4113 69.2419Z" class="ros" fill="#F1F1F1"/>
<path d="M86.4113 128C86.4113 137.522 78.9309 145.241 69.7048 145.241C60.4795 145.241 53 137.522 53 128C53 118.477 60.4804 110.758 69.7048 110.758C78.9309 110.758 86.4113 118.477 86.4113 128Z" class="ros" fill="#F1F1F1"/>
<path d="M86.4113 186.758C86.4113 196.279 78.9309 204 69.7048 204C60.4795 204 53 196.279 53 186.758C53 177.238 60.4804 169.516 69.7048 169.516C78.9309 169.516 86.4113 177.237 86.4113 186.758Z" class="ros" fill="#F1F1F1"/>
<path d="M144.706 128C144.706 137.522 137.226 145.241 128 145.241C118.774 145.241 111.295 137.522 111.295 128C111.295 118.477 118.775 110.758 128 110.758C137.226 110.758 144.706 118.477 144.706 128Z" class="ros" fill="#F1F1F1"/>
<path d="M144.706 69.2419C144.706 78.7641 137.226 86.4837 128 86.4837C118.774 86.4837 111.295 78.7641 111.295 69.2419C111.295 59.7214 118.775 52 128 52C137.226 52 144.706 59.7214 144.706 69.2419Z" class="ros" fill="#F1F1F1"/>
<path d="M203 128C203 137.522 195.52 145.241 186.293 145.241C177.068 145.241 169.589 137.522 169.589 128C169.589 118.477 177.069 110.758 186.293 110.758C195.52 110.758 203 118.477 203 128Z" class="ros" fill="#F1F1F1"/>
<path d="M203 69.2419C203 78.7641 195.52 86.4837 186.293 86.4837C177.068 86.4837 169.589 78.7641 169.589 69.2419C169.589 59.7214 177.069 52 186.293 52C195.52 52 203 59.7214 203 69.2419Z" class="ros" fill="#F1F1F1"/>
<path d="M203 186.758C203 196.279 195.52 204 186.293 204C177.068 204 169.589 196.279 169.589 186.758C169.589 177.238 177.069 169.516 186.293 169.516C195.52 169.516 203 177.237 203 186.758Z" class="ros" fill="#F1F1F1"/>
<path d="M144.706 186.758C144.706 196.279 137.226 204 128 204C118.774 204 111.295 196.279 111.295 186.758C111.295 177.238 118.775 169.516 128 169.516C137.226 169.516 144.706 177.237 144.706 186.758Z" class="ros" fill="#F1F1F1"/>
</svg>