<svg width="256" height="256" title="RocketMQ" viewBox="0 0 256 256" fill="none" xmlns="http://www.w3.org/2000/svg" id="rocketmq">
<style>
#rocketmq {
    rect {fill: #15191C}

    @media (prefers-color-scheme: light) {
        rect {fill: #F4F2ED}
    }
}
</style>
<rect width="256" height="256" rx="40" fill="#15191C"/>
<path fill-rule="evenodd" clip-rule="evenodd" d="M133.325 131.621C133.924 131.671 134.478 131.957 134.866 132.416C135.253 132.875 135.443 133.469 135.393 134.068C135.343 134.667 135.057 135.221 134.599 135.609C134.141 135.997 133.547 136.187 132.948 136.137C132.652 136.112 132.364 136.03 132.099 135.893C131.835 135.757 131.6 135.57 131.408 135.343C131.216 135.115 131.071 134.853 130.98 134.569C130.89 134.286 130.856 133.987 130.881 133.691C130.906 133.394 130.988 133.105 131.125 132.841C131.261 132.576 131.448 132.341 131.675 132.149C131.902 131.957 132.164 131.812 132.448 131.721C132.731 131.63 133.029 131.597 133.325 131.621ZM126.072 131.621C126.671 131.671 127.225 131.957 127.612 132.416C128 132.875 128.19 133.469 128.14 134.068C128.09 134.667 127.804 135.221 127.346 135.609C126.887 135.997 126.294 136.187 125.695 136.137C125.097 136.087 124.543 135.801 124.155 135.343C123.767 134.884 123.578 134.29 123.628 133.691C123.678 133.092 123.963 132.537 124.422 132.149C124.88 131.761 125.474 131.571 126.072 131.621ZM118.652 131.611L118.819 131.621C119.418 131.671 119.973 131.958 120.361 132.417C120.75 132.876 120.94 133.471 120.89 134.071C120.84 134.67 120.554 135.225 120.095 135.614C119.636 136.002 119.041 136.193 118.442 136.143C117.843 136.093 117.287 135.806 116.898 135.346C116.51 134.886 116.319 134.291 116.369 133.691C116.419 133.09 116.705 132.535 117.165 132.145C117.624 131.756 118.219 131.566 118.819 131.616L118.652 131.611ZM126.072 119.707C122.369 119.789 118.845 121.318 116.254 123.967C113.662 126.615 112.208 130.172 112.202 133.879C112.208 137.586 113.662 141.144 116.254 143.792C118.845 146.44 122.369 147.969 126.072 148.052C128.602 148.115 131.102 147.5 133.315 146.273C135.529 145.045 137.374 143.248 138.662 141.068C139.946 138.891 140.623 136.41 140.623 133.882C140.623 131.354 139.946 128.873 138.662 126.696C137.375 124.515 135.53 122.717 133.316 121.488C131.103 120.26 128.602 119.644 126.072 119.707ZM153.383 105.534C156.431 108.573 156.975 113.315 154.692 116.969C153.578 118.744 151.897 120.09 149.923 120.789C147.948 121.488 145.795 121.497 143.815 120.817L140.955 123.667C143.213 126.921 144.327 130.832 144.124 134.787C143.922 138.743 142.413 142.519 139.835 145.525L142.501 149.151C144.264 148.53 146.149 148.34 148.001 148.598C149.852 148.856 151.614 149.553 153.141 150.632C154.668 151.711 155.914 153.14 156.776 154.8C157.638 156.459 158.09 158.301 158.095 160.172C158.089 162.566 157.347 164.901 155.971 166.86C154.594 168.818 152.65 170.306 150.4 171.122C148.148 171.941 145.7 172.051 143.383 171.436C141.067 170.822 138.995 169.512 137.445 167.684C135.898 165.858 134.951 163.6 134.733 161.216C134.514 158.833 135.034 156.44 136.222 154.362L133.298 150.375C130.202 151.733 126.786 152.192 123.441 151.699C120.096 151.206 116.957 149.782 114.382 147.589L111.114 150.412C111.418 151.828 111.275 153.302 110.705 154.633C110.135 155.963 109.166 157.083 107.932 157.838C106.695 158.594 105.255 158.95 103.809 158.855C102.364 158.76 100.982 158.221 99.8546 157.31C98.7287 156.403 97.9125 155.167 97.5189 153.775C97.1253 152.383 97.1738 150.903 97.6577 149.539C98.144 148.175 99.0409 146.994 100.225 146.16C101.409 145.327 102.822 144.881 104.27 144.883C105.11 144.883 105.907 145.056 106.65 145.331L110.128 142.313C108.508 139.283 107.794 135.85 108.073 132.424C108.352 128.999 109.611 125.726 111.701 122.999L108.045 119.033C107.775 119.071 107.517 119.119 107.253 119.119C104.722 119.119 102.461 117.529 101.626 115.147C101.216 113.986 101.178 112.726 101.517 111.542C101.856 110.358 102.554 109.309 103.516 108.541C104.48 107.77 105.659 107.318 106.89 107.245C108.121 107.173 109.345 107.484 110.392 108.137C111.439 108.785 112.257 109.744 112.734 110.88C113.211 112.016 113.322 113.272 113.052 114.474L116.741 118.478C119.475 116.816 122.603 115.913 125.801 115.862C129 115.811 132.155 116.613 134.941 118.187L138.064 115.077C136.664 111.003 138.258 106.509 141.919 104.224C143.697 103.116 145.797 102.642 147.878 102.879C149.959 103.116 151.899 104.049 153.383 105.528V105.534ZM128 47.0643C115.077 64.0932 89.9792 102.785 89.9792 146.419C89.9792 159.04 92.3485 169.613 94.75 177.077H161.25C163.646 169.613 166.021 159.04 166.021 146.414C166.021 102.78 140.923 64.0878 128 47.0643ZM182.869 165.291L195.405 177.459L198 193.34H174.593C177.975 188.285 182.869 176.311 182.869 165.291ZM73.1308 165.296C73.1308 176.317 78.02 188.296 81.4069 193.351H58L60.5954 177.465L73.1308 165.296ZM128 31C128.016 31.0162 176.203 83.1106 176.203 146.425C176.203 175.169 165.165 194.138 165.165 194.138L153.351 187.24H102.649L90.8354 194.138C90.8354 194.138 79.7969 175.169 79.7969 146.425C79.7969 83.1052 127.984 31.0162 128 31ZM128 225C112.686 210.816 113.311 194.741 113.311 194.741H142.689C142.689 194.741 143.314 210.816 128 225Z" fill="#FF6A00"/>
</svg>