<svg width="256" height="256" title="Rolldown" viewBox="0 0 256 256" fill="none" xmlns="http://www.w3.org/2000/svg">
<rect width="256" height="256" rx="40" fill="url(#linearGradient)"/>
<path d="M205.798 114.671H177.958L182.248 108.856L151.486 108.785L136.46 129.626H165.663L152.764 149.109H130.73L157.486 171.959L211 149.109H184.52L205.798 114.671ZM199.851 85H168.635L164.35 90.9467H195.463L199.851 85ZM191.349 96.521H160.329L155.629 103.041H186.54L191.349 96.521ZM128.212 111.442C128.212 116.705 126.785 121.467 123.931 125.728C121.077 129.987 116.923 133.12 111.467 135.127L130.732 171.217H99.5068L84.1484 139.762H73.8248V171.217H46V85H99.0051C105.215 85 110.504 86.2107 114.867 88.6345C119.316 90.9734 122.631 94.1887 124.812 98.2825C127.08 102.294 128.212 106.68 128.212 111.442ZM99.8859 112.568C99.8859 110.314 99.13 108.434 97.6182 106.929C96.1087 105.427 94.2625 104.675 92.0796 104.675H73.8248V120.589H92.0796C94.2625 120.589 96.1087 119.837 97.6182 118.334C99.13 116.747 99.8859 114.825 99.8859 112.568Z" fill="white"/>
<linearGradient id="linearGradient" x1="128" y1="0" x2="128" y2="256" gradientUnits="userSpaceOnUse">
<stop stop-color="#F0DB4F"/>
<stop offset="0.92" stop-color="#FF5D13"/>
</linearGradient>
</svg>