<svg width="256" height="256" title="RubyMine" viewBox="0 0 256 256" fill="none" xmlns="http://www.w3.org/2000/svg" id="rubymine">
<style>
#rubymine {
    rect {fill: #15191C}

    @media (prefers-color-scheme: light) {
        rect {fill: #F4F2ED}
    }
}
</style>
<rect width="256" height="256" rx="40" fill="#15191C"/>
<path d="M196.136 51H113.869C109.924 51 106.357 53.3518 104.803 56.9773L65.8885 147.775C65.3629 149.002 65.0909 150.325 65.0909 151.661V196.136C65.0909 201.584 69.507 206 74.9545 206H118.466C120.415 206 122.32 205.422 123.941 204.34L201.608 152.504C204.35 150.675 205.995 147.596 205.995 144.3L206 60.8636C206 55.4161 201.584 51 196.136 51Z" fill="url(#linearGradient1)"/>
<path d="M86.1638 65.0897H60.8636C55.4161 65.0897 51 69.5058 51 74.9534V106.662C51 107.129 51.0338 107.595 51.0986 108.057L63.8791 197.53C64.5738 202.39 68.7348 205.999 73.6441 205.999H111.602C117.051 205.999 121.467 201.581 121.466 196.132L121.454 151.235C121.454 150.175 121.284 149.122 120.949 148.117L95.5216 71.8337C94.1786 67.8065 90.4095 65.0897 86.1638 65.0897Z" fill="url(#linearGradient2)"/>
<path d="M89.6232 65.0897L60.8622 65.094C55.4161 65.0954 51 69.5115 51 74.9576V102.825C51 105.704 52.2583 108.44 54.4438 110.315L146.865 189.533C148.653 191.065 150.93 191.908 153.284 191.908H182.045C187.493 191.908 191.909 187.492 191.909 182.044V154.172C191.909 151.294 190.651 148.557 188.465 146.683L96.0444 67.4655C94.2561 65.9324 91.9792 65.0897 89.6232 65.0897Z" fill="#FF8100"/>
<path d="M176.937 80.0625H80.0625V176.937H176.937V80.0625Z" fill="black"/>
<path fill-rule="evenodd" clip-rule="evenodd" d="M152.464 92.1718L145.251 116.019L144.706 119.132L144.083 116.019L136.61 92.1718H126.75V128.5H133.73V102.578L133.625 100.865L141.981 128.5H147.119L155.578 100.683L155.475 102.578V128.5H162.481V92.1718H152.464ZM114.612 113.372C116.585 112.421 118.097 111.088 119.154 109.376C120.225 107.646 120.762 105.656 120.762 103.407C120.762 101.158 120.234 99.2127 119.179 97.5171C118.14 95.8211 116.653 94.5075 114.715 93.5733C112.777 92.6391 110.538 92.1722 107.994 92.1722H92.3991V128.499H99.4826V114.772H105.587L113.418 128.499H121.54L112.883 113.945C113.056 113.89 113.232 113.839 113.408 113.789C113.823 113.67 114.238 113.551 114.612 113.372ZM99.4855 98.0618H107.53C108.724 98.0618 109.761 98.2856 110.644 98.7361C111.543 99.1668 112.235 99.791 112.719 100.604C113.203 101.398 113.446 102.351 113.446 103.458C113.446 104.565 113.204 105.508 112.719 106.338C112.235 107.153 111.543 107.781 110.644 108.233C109.761 108.664 108.724 108.882 107.53 108.882H99.4855V98.0618ZM92.1566 157.563H130.907V164.828H92.1566V157.563Z" fill="white"/>
<linearGradient id="linearGradient1" x1="46.7483" y1="196.358" x2="188.281" y2="40.6704" gradientUnits="userSpaceOnUse">
<stop offset="0.29" stop-color="#FF2358"/>
<stop offset="0.75" stop-color="#7256FF"/>
</linearGradient>
<linearGradient id="linearGradient2" x1="47.1783" y1="55.805" x2="85.3687" y2="220.522" gradientUnits="userSpaceOnUse">
<stop offset="0.29" stop-color="#FF8100"/>
<stop offset="0.56" stop-color="#FF2358"/>
</linearGradient>
</svg>