<svg width="256" height="256" title="RxJS" viewBox="0 0 256 256" fill="none" xmlns="http://www.w3.org/2000/svg" id="rxjs">
<style>
#rxjs {
    rect {fill: #15191C}

    @media (prefers-color-scheme: light) {
        rect {fill: #F4F2ED}
    }
}
</style>
<rect width="256" height="256" rx="40" fill="#15191C"/>
<path d="M59.9318 148.921C56.7537 139.02 55.8369 128.569 57.6705 117.812C58.465 113.351 59.6873 109.072 61.0319 104.733C61.0319 104.733 69.4662 77.0466 98.0083 64.3952C98.0083 64.3952 107.848 59.2002 122.639 58.8335C122.639 58.8335 120.622 56.8777 119.338 56.0221C112.371 51.3771 101.981 49.8492 95.6858 56.3888C93.7911 58.3446 92.2021 60.4837 90.4297 62.4395C88.4128 64.6397 85.968 66.4732 83.1566 67.5123C80.7119 68.429 78.2672 68.2457 75.7614 68.6735C73.1944 69.1013 70.5663 70.0181 68.4883 71.6683C66.227 73.5018 65.3102 75.9465 65.0657 78.7579C64.8212 80.9582 64.8824 83.2196 64.7601 85.4198C64.4545 91.8983 62.3765 93.7318 57.7316 97.3378C55.7758 98.8046 54.1256 100.76 52.9033 102.838C49.2362 109.317 55.1035 116.04 55.4091 122.579C55.4702 123.924 55.348 125.269 54.859 126.552C54.3701 127.958 53.3922 128.875 52.5977 130.036C51.4975 131.564 50.7641 133.397 51.0697 135.292C51.3753 137.187 52.3532 138.959 53.27 140.609C55.0424 143.543 57.2426 146.171 59.5651 148.677C59.6873 148.677 59.8096 148.799 59.9318 148.921Z" fill="#E32286"/>
<path d="M176.545 172.391C190.602 166.279 196.591 155.705 196.591 155.705C209.732 137.798 205.27 118.912 205.27 118.912C196.897 137.126 189.257 142.137 189.257 142.137C209.854 110.784 189.38 91.8372 189.38 91.8372C197.753 109.684 186.629 131.442 186.629 131.442C177.278 151.122 164.016 158.15 164.016 158.15C178.806 160.9 189.685 150.938 189.685 150.938C168.477 173.857 145.497 172.757 145.497 172.757C155.154 183.575 169.638 182.658 169.638 182.658C150.692 187.12 132.907 180.825 118.299 168.662C115.549 166.401 112.921 163.956 110.476 161.328C110.476 161.328 108.276 159.006 107.848 158.395L107.787 158.333C107.482 169.64 119.277 180.153 119.277 180.153C104.487 174.041 97.7027 160.778 97.7027 160.778C97.7027 160.778 87.7405 143.787 94.9524 124.413C102.164 105.039 123.983 100.883 123.983 100.883C142.013 109.622 157.293 112.373 157.293 112.373C189.502 117.751 187.668 101.983 187.668 101.983C187.974 88.4146 167.499 73.9907 167.499 73.9907C131.012 46.9155 98.0083 64.3952 98.0083 64.3952C69.4662 77.0466 61.0319 104.733 61.0319 104.733C59.6873 109.072 58.465 113.351 57.6705 117.812C54.5534 135.964 59.2595 153.138 69.4662 168.418C85.3569 192.132 111.149 200.321 111.149 200.321C149.347 213.278 175.445 194.21 175.445 194.21C199.464 177.708 204.292 158.639 204.292 158.639C184.918 173.796 176.545 172.391 176.545 172.391ZM146.719 83.2196C148.553 83.2196 150.02 84.6864 150.02 86.5199C150.02 88.3535 148.553 89.8203 146.719 89.8203C144.886 89.8203 143.419 88.3535 143.419 86.5199C143.419 84.6864 144.886 83.2196 146.719 83.2196Z" fill="url(#linearGradient1)"/>
<path d="M187.607 101.922C187.913 88.3535 167.438 73.9296 167.438 73.9296C130.951 46.9155 97.9472 64.3952 97.9472 64.3952C69.4051 77.0466 60.9708 104.733 60.9708 104.733C59.3206 109.439 57.8538 116.651 57.8538 116.651C56.0814 125.697 56.8759 134.07 56.8759 134.07C57.6093 142.076 59.3817 147.454 59.3817 147.454C61.2153 153.2 62.0709 154.972 62.0709 154.972C62.0098 154.789 61.7042 153.444 61.7042 153.444C61.7042 153.444 59.1373 141.098 61.5209 129.241C61.5209 129.241 63.5989 116.896 72.0332 107.361C72.0332 107.361 85.7236 87.8645 111.21 95.5043C111.21 95.5043 116.71 97.46 118.605 98.4379C120.5 99.3547 123.8 100.76 123.8 100.76C141.83 109.5 157.109 112.251 157.109 112.251C189.441 117.69 187.607 101.922 187.607 101.922ZM146.719 89.8814C144.886 89.8814 143.419 88.4146 143.419 86.581C143.419 84.7475 144.886 83.2807 146.719 83.2807C148.553 83.2807 150.02 84.7475 150.02 86.581C150.02 88.4146 148.553 89.8814 146.719 89.8814Z" fill="url(#radialGradient1)"/>
<path d="M125.817 77.3522L104.976 70.8737C104.853 70.8737 104.242 70.5681 103.142 70.8737C103.142 70.8737 90.8575 73.9908 92.9966 80.7137C92.9966 80.7137 94.2801 84.9309 97.7638 89.0258L120.683 87.9256L125.817 77.3522Z" fill="url(#linearGradient2)"/>
<linearGradient id="linearGradient1" x1="69.4994" y1="192.625" x2="149.155" y2="108.578" gradientUnits="userSpaceOnUse">
<stop stop-color="#E01D84"/>
<stop offset="0.401" stop-color="#DF1D85"/>
<stop offset="0.77" stop-color="#932C87"/>
<stop offset="1" stop-color="#5D2F88"/>
</linearGradient>
<radialGradient id="radialGradient1" cx="0" cy="0" r="1" gradientUnits="userSpaceOnUse" gradientTransform="translate(171.215 102.819) rotate(0.183882) scale(87.9711 98.7796)">
<stop stop-color="#E01D84"/>
<stop offset="0.139" stop-color="#DE1E85"/>
<stop offset="0.285" stop-color="#D62085"/>
<stop offset="0.434" stop-color="#C92386"/>
<stop offset="0.586" stop-color="#B72786"/>
<stop offset="0.739" stop-color="#9D2B87"/>
<stop offset="0.891" stop-color="#7C2E88"/>
<stop offset="1" stop-color="#5D2F88"/>
</radialGradient>
<linearGradient id="linearGradient3" x1="92.6984" y1="79.8801" x2="125.799" y2="79.8801" gradientUnits="userSpaceOnUse">
<stop stop-color="#E01D84"/>
<stop offset="0.238" stop-color="#DA1E85"/>
<stop offset="0.658" stop-color="#C72085"/>
<stop offset="0.999" stop-color="#B52284"/>
</linearGradient>
</svg>