<svg width="256" height="256" title="Sanity" viewBox="0 0 256 256" fill="none" xmlns="http://www.w3.org/2000/svg">
<rect width="256" height="256" rx="40" fill="#F03E2F"/>
<path d="M79.3563 67.5649C79.3563 89.298 93.0169 102.229 120.366 109.048L149.346 115.65C175.229 121.49 190.992 135.997 190.992 159.632C191.193 169.928 187.786 179.98 181.341 188.102C181.341 164.522 168.924 151.781 138.976 144.12L110.521 137.763C87.7352 132.655 70.1479 120.73 70.1479 95.0573C70.028 85.1434 73.2675 75.472 79.3563 67.5649Z" fill="white"/>
<path d="M163.532 153.845C175.893 161.615 181.313 172.481 181.313 188.075C171.082 200.952 153.107 208.178 131.98 208.178C96.4184 208.178 71.5306 190.982 66 161.099H100.151C104.548 174.818 116.19 181.174 131.731 181.174C150.701 181.174 163.311 171.232 163.56 153.791" fill="#F9B1AB"/>
<path d="M97.1096 99.7841C91.4651 96.4887 86.8345 91.7533 83.7086 86.0806C80.5828 80.408 79.079 74.0096 79.3563 67.5649C89.2286 54.7968 106.401 47 127.335 47C163.56 47 184.521 65.7992 189.692 92.2592H156.84C153.218 81.8272 144.147 73.7045 127.611 73.7045C109.941 73.7045 97.884 83.8106 97.1926 99.7841" fill="#F9B1AB"/>
</svg>