<svg width="256" height="256" title="SAP" viewBox="0 0 256 256" fill="none" xmlns="http://www.w3.org/2000/svg">
<rect width="256" height="256" rx="40" fill="url(#linearGradient)"/>
<path d="M40 81V174.993H136.026L230 81H40ZM65.8338 98.48H65.8771C72.7078 98.48 81.0338 100.423 87.0582 103.491L80.5704 114.811C73.959 111.622 70.6379 111.313 66.878 111.116C61.2738 110.807 58.4563 112.818 58.413 114.978C58.3574 117.61 63.7052 119.992 68.7472 121.611C76.378 124.036 86.0789 127.274 87.5618 136.656L101.511 99.7807H117.715L134.052 143.932L133.99 99.7961H152.764C170.633 99.7961 179.024 105.845 179.024 119.732C179.024 132.201 170.374 139.634 155.776 139.634H149.733L149.675 156.221L121.252 156.194L119.281 149.005C116.13 150.012 112.839 150.516 109.531 150.497C106.138 150.518 102.765 149.984 99.5457 148.915L96.7065 156.187L80.8732 156.237L81.5837 152.579C81.3582 152.777 81.142 152.978 80.8979 153.169C76.6654 156.567 71.3392 158.146 64.7772 158.264H63.0842C55.5429 158.264 48.9068 156.478 42.6538 152.925L48.4341 141.457C54.6933 145.164 58.6293 145.992 63.9153 145.878C66.6618 145.822 68.6483 145.322 69.9459 143.984C70.705 143.198 71.1454 142.157 71.1816 141.065C71.2341 138.086 66.9924 136.687 61.8021 135.08C57.5943 133.777 52.818 131.991 49.0829 129.263C44.6619 126.01 42.558 121.944 42.6631 116.204C42.6871 112.125 44.2918 108.215 47.1397 105.295C51.2517 101.044 57.8785 98.4615 65.8431 98.4615L65.8338 98.48ZM149.727 111.703V126.779H153.852C159.345 126.779 163.738 124.95 163.738 119.142C163.738 113.532 159.354 111.7 153.852 111.7L149.727 111.703ZM109.466 117.773L103.543 136.477C105.46 137.184 107.488 137.538 109.531 137.524C111.53 137.529 113.515 137.193 115.401 136.529L109.571 117.773H109.466Z" fill="white"/>
<linearGradient id="linearGradient" x1="0" y1="0" x2="0" y2="256" gradientUnits="userSpaceOnUse">
<stop stop-color="#00AAEE"/>
<stop offset="1" stop-color="#0055AA"/>
</linearGradient>
</svg>