<svg width="256" height="256" title="SciPy" viewBox="0 0 256 256" fill="none" xmlns="http://www.w3.org/2000/svg" id="scipy">
<style>
#scipy {
    rect {fill: #15191C}

    @media (prefers-color-scheme: light) {
        rect {fill: #F4F2ED}
    }
}
</style>
<rect width="256" height="256" rx="40" fill="#15191C"/>
<path fill-rule="evenodd" clip-rule="evenodd" d="M198.7 97.8712L202.828 95.9483L205.618 88.313L208.546 89.3402L206.031 96.1673L213 98.5725L211.949 101.432L204.167 98.7104L199.876 100.687" fill="#0054A6"/>
<path d="M123.896 209C168.574 209 204.793 172.735 204.793 128C204.793 83.2649 168.574 47 123.896 47C79.2186 47 43 83.2649 43 128C43 172.735 79.2186 209 123.896 209Z" fill="#0054A6"/>
<path fill-rule="evenodd" clip-rule="evenodd" d="M153.97 138.953C148.398 131.322 137.387 126.885 127.942 124.802C118.496 122.719 112.747 121.107 108.156 118.62C102.915 115.78 98.7951 107.408 100.404 100.149C102.929 88.7562 113.09 80.5587 124.695 82.1811C130.49 83.0017 135.404 86.0739 138.644 90.3988L151.493 107.301C158.837 116.771 167.094 119.59 176.077 115.118L180.448 113.049C180.811 112.88 181.251 112.539 181.964 112.766C182.676 112.993 183.025 113.608 183.425 114.328C183.825 115.047 184.247 115.711 184.999 115.892C185.751 116.073 186.799 115.949 187.288 115.481C190.618 112.303 197.372 105.832 197.372 105.832C199.198 104.266 198.66 102.829 198.66 102.829L196.145 97.0945C196.145 97.0945 195.457 95.7197 193.08 96.0359L179.093 97.3232C178.28 97.4389 177.554 97.9809 177.241 98.8076C177.054 99.29 177.041 99.7941 177.179 100.251L177.679 101.864C177.78 102.199 177.78 102.575 177.642 102.92C177.479 103.345 177.154 103.646 176.766 103.806L172.813 105.482C168.256 107.029 163.967 106.358 160.827 102.513L147.015 84.154C142.161 77.7087 134.842 73.1113 126.197 71.9026C108.888 69.4756 92.8237 81.4765 90.3088 98.7073C89.0389 107.392 90.2321 114.736 96.7847 122.24C103.337 129.743 116.081 132.601 127.12 135.135C128.301 135.415 131.624 136.237 133.59 136.948C135.408 137.607 139.596 139.153 142.999 141.942C147.065 146.08 149.217 151.993 148.303 158.194C146.765 168.767 136.906 176.133 126.284 174.642C120.964 173.903 116.472 171.08 113.498 167.126L101.225 150.816C98.7223 147.491 94.9379 145.116 90.4652 144.477C85.9988 143.851 81.6763 145.091 78.3265 147.604L52.7401 166.566C54.6599 169.916 56.2219 172.395 58.4209 175.58L84.5156 155.589C85.7259 154.762 87.2274 154.386 88.785 154.599C90.4427 154.837 91.8532 155.709 92.7792 156.942L105.762 174.412C110.335 180.029 116.979 184.008 124.757 185.103C141.122 187.395 156.31 176.046 158.687 159.748C159.788 152.164 157.936 144.841 153.97 138.953Z" fill="white"/>
</svg>