<svg width="256" height="256" title="Seaborn" viewBox="0 0 256 256" fill="none" xmlns="http://www.w3.org/2000/svg" id="seaborn">
<style>
#seaborn {
    rect {fill: #15191C}

    @media (prefers-color-scheme: light) {
        rect {fill: #F4F2ED}
    }
}
</style>
<rect width="256" height="256" rx="40" fill="#15191C"/>
<path d="M128.601 44.5891C106.639 44.5895 85.5756 53.3143 70.0456 68.8443C54.5156 84.3742 45.7908 105.437 45.7905 127.4C45.7912 149.362 54.5161 170.425 70.0461 185.955C85.576 201.485 106.639 210.209 128.601 210.21C150.381 210.209 171.285 201.628 186.783 186.325C202.281 171.022 211.127 150.23 211.404 128.451L211.411 127.399L211.404 126.347C211.127 104.569 202.281 83.7766 186.783 68.4738C171.285 53.1709 150.381 44.5898 128.601 44.5891Z" fill="white"/>
<path d="M109.692 92.1287C110.11 92.1287 110.525 92.0462 110.912 91.8859C111.299 91.7256 111.651 91.4907 111.947 91.1945C112.243 90.8983 112.478 90.5467 112.638 90.1597C112.799 89.7727 112.881 89.358 112.881 88.9391C112.881 88.5202 112.799 88.1055 112.638 87.7185C112.478 87.3315 112.243 86.9799 111.947 86.6837C111.651 86.3876 111.299 86.1526 110.912 85.9923C110.525 85.832 110.11 85.7495 109.692 85.7495C108.846 85.7495 108.034 86.0856 107.436 86.6838C106.838 87.2821 106.502 88.0934 106.502 88.9394C106.502 89.7855 106.838 90.5968 107.436 91.195C108.034 91.7933 108.846 92.1287 109.692 92.1287ZM102.823 96.938C103.642 96.938 104.428 96.6125 105.008 96.0331C105.587 95.4538 105.912 94.668 105.912 93.8487C105.912 93.0293 105.587 92.2435 105.008 91.6642C104.428 91.0848 103.642 90.7594 102.823 90.7594C102.004 90.7594 101.218 91.0848 100.639 91.6642C100.059 92.2435 99.7337 93.0293 99.7337 93.8487C99.7337 94.668 100.059 95.4538 100.639 96.0331C101.218 96.6125 102.004 96.938 102.823 96.938ZM96.2161 99.998C96.6017 100.004 96.9847 99.933 97.3426 99.7894C97.7006 99.6459 98.0264 99.4326 98.3012 99.1619C98.576 98.8913 98.7942 98.5687 98.9431 98.2129C99.092 97.8572 99.1687 97.4754 99.1687 97.0897C99.1687 96.704 99.092 96.3222 98.9431 95.9665C98.7942 95.6107 98.576 95.2881 98.3012 95.0175C98.0264 94.7468 97.7006 94.5335 97.3426 94.39C96.9847 94.2465 96.6017 94.1755 96.2161 94.1814C95.4447 94.1814 94.7048 94.4878 94.1594 95.0333C93.6139 95.5788 93.3074 96.3186 93.3074 97.09C93.3074 97.8615 93.6139 98.6013 94.1594 99.1468C94.7048 99.6923 95.4447 99.998 96.2161 99.998ZM115.486 88.3295C115.921 88.3357 116.353 88.2553 116.757 88.093C117.161 87.9308 117.528 87.6898 117.838 87.3842C118.148 87.0787 118.394 86.7145 118.562 86.313C118.73 85.9115 118.817 85.4805 118.817 85.0453C118.817 84.61 118.73 84.1791 118.562 83.7776C118.394 83.376 118.148 83.0119 117.838 82.7063C117.528 82.4007 117.161 82.1598 116.757 81.9975C116.353 81.8352 115.921 81.7549 115.486 81.7611C114.626 81.7783 113.808 82.1319 113.206 82.7459C112.604 83.3598 112.267 84.1853 112.267 85.0449C112.267 85.9046 112.604 86.73 113.206 87.344C113.808 87.958 114.626 88.3122 115.486 88.3295ZM91.2587 93.1016C91.8441 93.1016 92.4055 92.869 92.8194 92.4551C93.2333 92.0412 93.4658 91.4798 93.4658 90.8945C93.4658 90.3091 93.2333 89.7478 92.8194 89.3339C92.4055 88.92 91.8441 88.6874 91.2587 88.6874C90.6734 88.6874 90.112 88.92 89.6981 89.3339C89.2842 89.7478 89.0517 90.3091 89.0517 90.8945C89.0517 91.4798 89.2842 92.0412 89.6981 92.4551C90.112 92.869 90.6734 93.1016 91.2587 93.1016ZM85.81 105.19C86.5053 105.19 87.1722 104.914 87.6639 104.423C88.1555 103.931 88.4318 103.264 88.4318 102.569C88.4318 101.873 88.1555 101.206 87.6639 100.715C87.1722 100.223 86.5053 99.9469 85.81 99.9469C85.1146 99.9469 84.4478 100.223 83.9561 100.715C83.4644 101.206 83.1882 101.873 83.1882 102.569C83.1882 103.264 83.4644 103.931 83.9561 104.423C84.4478 104.914 85.1146 105.19 85.81 105.19ZM89.145 84.4307C89.9828 84.4307 90.7863 84.0978 91.3787 83.5054C91.9712 82.913 92.304 82.1095 92.304 81.2716C92.304 80.4338 91.9712 79.6303 91.3787 79.0379C90.7863 78.4454 89.9828 78.1126 89.145 78.1126C88.3071 78.1126 87.5036 78.4454 86.9112 79.0379C86.3188 79.6303 85.9859 80.4338 85.9859 81.2716C85.9859 82.1095 86.3188 82.913 86.9112 83.5054C87.5036 84.0978 88.3071 84.4307 89.145 84.4307ZM97.6698 90.343C97.9954 90.3506 98.3193 90.293 98.6223 90.1736C98.9254 90.0543 99.2015 89.8755 99.4345 89.6479C99.6675 89.4203 99.8527 89.1484 99.9791 88.8482C100.105 88.548 100.171 88.2255 100.171 87.8998C100.171 87.5741 100.105 87.2517 99.9791 86.9515C99.8527 86.6513 99.6675 86.3794 99.4345 86.1518C99.2015 85.9241 98.9254 85.7454 98.6223 85.626C98.3193 85.5067 97.9954 85.4491 97.6698 85.4567C97.0317 85.4715 96.4247 85.7355 95.9787 86.192C95.5326 86.6486 95.2829 87.2615 95.2829 87.8998C95.2829 88.5381 95.5326 89.151 95.9787 89.6076C96.4247 90.0642 97.0317 90.3281 97.6698 90.343ZM139.802 83.0507C140.559 83.0507 141.286 82.7497 141.822 82.2138C142.358 81.678 142.659 80.9513 142.659 80.1935C142.659 79.4357 142.358 78.709 141.822 78.1731C141.286 77.6373 140.559 77.3363 139.802 77.3363C139.044 77.3363 138.317 77.6373 137.781 78.1731C137.246 78.709 136.945 79.4357 136.945 80.1935C136.945 80.9513 137.246 81.678 137.781 82.2138C138.317 82.7497 139.044 83.0507 139.802 83.0507ZM79.8797 98.1957C80.1072 98.1957 80.3324 98.1509 80.5425 98.0639C80.7526 97.9769 80.9436 97.8493 81.1044 97.6885C81.2652 97.5276 81.3928 97.3367 81.4798 97.1266C81.5668 96.9165 81.6116 96.6912 81.6116 96.4638C81.6116 96.2364 81.5668 96.0112 81.4798 95.801C81.3928 95.5909 81.2652 95.4 81.1044 95.2392C80.9436 95.0783 80.7526 94.9508 80.5425 94.8637C80.3324 94.7767 80.1072 94.7319 79.8797 94.7319C79.4204 94.7319 78.9799 94.9144 78.6551 95.2392C78.3303 95.564 78.1478 96.0045 78.1478 96.4638C78.1478 96.9231 78.3303 97.3637 78.6551 97.6885C78.9799 98.0133 79.4204 98.1957 79.8797 98.1957ZM85.634 96.5647C85.9082 96.5717 86.181 96.5237 86.4364 96.4236C86.6918 96.3235 86.9246 96.1733 87.121 95.9818C87.3174 95.7903 87.4735 95.5614 87.5801 95.3087C87.6866 95.0559 87.7416 94.7844 87.7416 94.5101C87.7416 94.2358 87.6866 93.9642 87.5801 93.7115C87.4735 93.4587 87.3174 93.2299 87.121 93.0384C86.9246 92.8469 86.6918 92.6967 86.4364 92.5966C86.181 92.4964 85.9082 92.4484 85.634 92.4554C85.0954 92.4651 84.5821 92.6859 84.2046 93.0702C83.8271 93.4545 83.6156 93.9717 83.6156 94.5104C83.6156 95.0491 83.8271 95.5663 84.2046 95.9506C84.5821 96.335 85.0954 96.5551 85.634 96.5647ZM75.1408 90.0534C75.5022 90.0591 75.8611 89.9928 76.1965 89.8584C76.532 89.724 76.8374 89.5242 77.095 89.2707C77.3525 89.0172 77.557 88.7149 77.6966 88.3816C77.8362 88.0482 77.9081 87.6904 77.9081 87.329C77.9081 86.9677 77.8362 86.6099 77.6966 86.2765C77.557 85.9432 77.3525 85.6409 77.095 85.3874C76.8374 85.1339 76.532 84.9341 76.1965 84.7997C75.8611 84.6653 75.5022 84.599 75.1408 84.6047C74.4257 84.6158 73.7435 84.9078 73.2417 85.4175C72.7399 85.9272 72.4587 86.6138 72.4587 87.329C72.4587 88.0443 72.7399 88.7309 73.2417 89.2406C73.7435 89.7503 74.4257 90.0423 75.1408 90.0534ZM85.8598 88.8521C86.0488 88.8562 86.2368 88.8225 86.4127 88.753C86.5886 88.6834 86.7488 88.5795 86.884 88.4472C87.0192 88.3149 87.1265 88.157 87.1999 87.9827C87.2732 87.8083 87.311 87.6211 87.311 87.432C87.311 87.2429 87.2732 87.0556 87.1999 86.8813C87.1265 86.707 87.0192 86.549 86.884 86.4168C86.7488 86.2845 86.5886 86.1805 86.4127 86.111C86.2368 86.0415 86.0488 86.0078 85.8598 86.0118C85.4884 86.0199 85.135 86.173 84.8753 86.4385C84.6155 86.7039 84.47 87.0606 84.47 87.432C84.47 87.8034 84.6155 88.16 84.8753 88.4255C85.135 88.6909 85.4884 88.8441 85.8598 88.8521ZM104.876 86.6381C105.224 86.6381 105.569 86.5695 105.89 86.4362C106.212 86.303 106.504 86.1077 106.751 85.8615C106.997 85.6153 107.192 85.323 107.325 85.0014C107.458 84.6797 107.527 84.3349 107.527 83.9867C107.527 83.6385 107.458 83.2938 107.325 82.9721C107.192 82.6504 106.997 82.3581 106.751 82.1119C106.504 81.8657 106.212 81.6704 105.89 81.5372C105.569 81.404 105.224 81.3354 104.876 81.3354C104.173 81.3354 103.498 81.6147 103.001 82.1119C102.504 82.6092 102.224 83.2835 102.224 83.9867C102.224 84.6899 102.504 85.3643 103.001 85.8615C103.498 86.3587 104.173 86.6381 104.876 86.6381ZM125.017 88.1728C125.321 88.1779 125.623 88.1226 125.905 88.0099C126.187 87.8972 126.444 87.7295 126.661 87.5166C126.877 87.3036 127.049 87.0496 127.167 86.7694C127.284 86.4892 127.345 86.1885 127.345 85.8847C127.345 85.5809 127.284 85.2801 127.167 84.9999C127.049 84.7198 126.877 84.4658 126.661 84.2528C126.444 84.0398 126.187 83.8721 125.905 83.7594C125.623 83.6468 125.321 83.5914 125.017 83.5966C124.42 83.611 123.852 83.8583 123.435 84.2858C123.018 84.7133 122.784 85.287 122.784 85.8843C122.784 86.4817 123.018 87.0554 123.435 87.4829C123.852 87.9104 124.42 88.1584 125.017 88.1728ZM129.206 73.8977C129.402 73.8977 129.597 73.8589 129.779 73.7837C129.96 73.7084 130.125 73.5981 130.265 73.4591C130.404 73.32 130.514 73.1549 130.589 72.9732C130.664 72.7916 130.703 72.5968 130.703 72.4002C130.703 72.2035 130.664 72.0088 130.589 71.8271C130.514 71.6454 130.404 71.4803 130.265 71.3413C130.125 71.2022 129.96 71.0919 129.779 71.0167C129.597 70.9414 129.402 70.9027 129.206 70.9027C128.808 70.9027 128.428 71.0604 128.147 71.3413C127.866 71.6221 127.708 72.003 127.708 72.4002C127.708 72.7973 127.866 73.1782 128.147 73.4591C128.428 73.7399 128.808 73.8977 129.206 73.8977ZM134.074 82.5181C134.738 82.5181 135.374 82.2545 135.843 81.7852C136.313 81.316 136.576 80.6795 136.576 80.0159C136.576 79.3522 136.313 78.7158 135.843 78.2465C135.374 77.7772 134.738 77.5136 134.074 77.5136C133.41 77.5136 132.774 77.7772 132.305 78.2465C131.835 78.7158 131.572 79.3522 131.572 80.0159C131.572 80.6795 131.835 81.316 132.305 81.7852C132.774 82.2545 133.41 82.5181 134.074 82.5181ZM109.076 81.0585C109.758 81.0585 110.412 80.7876 110.894 80.3053C111.376 79.8231 111.647 79.1691 111.647 78.4871C111.647 77.8052 111.376 77.1512 110.894 76.6689C110.412 76.1867 109.758 75.9158 109.076 75.9158C108.394 75.9158 107.74 76.1867 107.258 76.6689C106.776 77.1512 106.505 77.8052 106.505 78.4871C106.505 79.1691 106.776 79.8231 107.258 80.3053C107.74 80.7876 108.394 81.0585 109.076 81.0585ZM76.8668 105.77C77.4202 105.77 77.9509 105.55 78.3422 105.158C78.7335 104.767 78.9533 104.236 78.9533 103.683C78.9533 103.13 78.7335 102.599 78.3422 102.208C77.9509 101.816 77.4202 101.596 76.8668 101.596C76.3134 101.596 75.7827 101.816 75.3914 102.208C75.0001 102.599 74.7802 103.13 74.7802 103.683C74.7802 104.236 75.0001 104.767 75.3914 105.158C75.7827 105.55 76.3134 105.77 76.8668 105.77Z" fill="#AFDAD2"/>
<path d="M145.587 83.5966C146.43 83.5966 147.238 83.2618 147.834 82.6659C148.43 82.07 148.765 81.2617 148.765 80.419C148.765 79.5762 148.43 78.768 147.834 78.172C147.238 77.5761 146.43 77.2413 145.587 77.2413C144.744 77.2413 143.936 77.5761 143.34 78.172C142.744 78.768 142.41 79.5762 142.41 80.419C142.41 81.2617 142.744 82.07 143.34 82.6659C143.936 83.2618 144.744 83.5966 145.587 83.5966ZM114.926 81.4443C115.309 81.4443 115.688 81.3689 116.042 81.2223C116.396 81.0757 116.717 80.8609 116.988 80.59C117.259 80.3192 117.474 79.9977 117.621 79.6438C117.767 79.2899 117.843 78.9107 117.843 78.5277C117.843 78.1446 117.767 77.7654 117.621 77.4115C117.474 77.0576 117.259 76.7361 116.988 76.4653C116.717 76.1944 116.396 75.9796 116.042 75.833C115.688 75.6865 115.309 75.611 114.926 75.611C114.152 75.611 113.411 75.9183 112.864 76.4653C112.317 77.0123 112.009 77.7541 112.009 78.5277C112.009 79.3012 112.317 80.0431 112.864 80.59C113.411 81.137 114.152 81.4443 114.926 81.4443ZM81.0385 83.7951C81.7557 83.7951 82.4435 83.5102 82.9507 83.0031C83.4578 82.496 83.7427 81.8082 83.7427 81.091C83.7427 80.3738 83.4578 79.686 82.9507 79.1789C82.4435 78.6718 81.7557 78.3869 81.0385 78.3869C80.3214 78.3869 79.6336 78.6718 79.1264 79.1789C78.6193 79.686 78.3344 80.3738 78.3344 81.091C78.3344 81.8082 78.6193 82.496 79.1264 83.0031C79.6336 83.5102 80.3214 83.7951 81.0385 83.7951ZM96.0879 76.8137C96.9171 76.8137 97.7124 76.4843 98.2987 75.8979C98.885 75.3116 99.2144 74.5164 99.2144 73.6872C99.2144 72.858 98.885 72.0627 98.2987 71.4764C97.7124 70.8901 96.9171 70.5607 96.0879 70.5607C95.2587 70.5607 94.4635 70.8901 93.8772 71.4764C93.2909 72.0627 92.9615 72.858 92.9615 73.6872C92.9615 74.5164 93.2909 75.3116 93.8772 75.8979C94.4635 76.4843 95.2587 76.8137 96.0879 76.8137ZM154.743 81.0239C155.255 81.0239 155.746 80.8205 156.108 80.4583C156.471 80.0962 156.674 79.605 156.674 79.0928C156.674 78.5806 156.471 78.0894 156.108 77.7273C155.746 77.3651 155.255 77.1616 154.743 77.1616C154.231 77.1616 153.74 77.3651 153.377 77.7273C153.015 78.0894 152.812 78.5806 152.812 79.0928C152.812 79.605 153.015 80.0962 153.377 80.4583C153.74 80.8205 154.231 81.0239 154.743 81.0239ZM87.4781 73.138C87.8042 73.1433 88.128 73.0838 88.4308 72.9627C88.7335 72.8416 89.0092 72.6615 89.2416 72.4329C89.4741 72.2042 89.6587 71.9316 89.7847 71.6308C89.9107 71.3301 89.9756 71.0073 89.9756 70.6812C89.9756 70.3551 89.9107 70.0323 89.7847 69.7316C89.6587 69.4309 89.4741 69.1582 89.2416 68.9296C89.0092 68.7009 88.7335 68.5208 88.4308 68.3997C88.128 68.2787 87.8042 68.2191 87.4781 68.2244C86.8336 68.235 86.219 68.4985 85.7669 68.9581C85.3148 69.4177 85.0614 70.0365 85.0614 70.6812C85.0614 71.3259 85.3148 71.9447 85.7669 72.4043C86.219 72.8639 86.8336 73.1274 87.4781 73.138ZM98.5557 84.1398C99.1101 84.1398 99.6418 83.9196 100.034 83.5275C100.426 83.1355 100.646 82.6037 100.646 82.0493C100.646 81.4948 100.426 80.9631 100.034 80.571C99.6418 80.179 99.1101 79.9587 98.5557 79.9587C98.0011 79.9587 97.4693 80.179 97.0772 80.5711C96.6851 80.9633 96.4648 81.4951 96.4648 82.0496C96.4648 82.6041 96.6851 83.136 97.0772 83.5281C97.4693 83.9202 98.0011 84.1398 98.5557 84.1398ZM103.564 79.6028C103.846 79.6078 104.126 79.5565 104.388 79.452C104.65 79.3475 104.889 79.1919 105.09 78.9941C105.291 78.7964 105.451 78.5606 105.56 78.3004C105.669 78.0402 105.725 77.7609 105.725 77.4787C105.725 77.1966 105.669 76.9173 105.56 76.6571C105.451 76.3969 105.291 76.1611 105.09 75.9633C104.889 75.7656 104.65 75.61 104.388 75.5054C104.126 75.4009 103.846 75.3497 103.564 75.3547C103.007 75.3645 102.476 75.5926 102.086 75.9899C101.695 76.3872 101.477 76.9218 101.477 77.4787C101.477 78.0357 101.695 78.5703 102.086 78.9676C102.476 79.3648 103.007 79.593 103.564 79.6028ZM70.7599 84.9985C71.327 84.9985 71.8709 84.7732 72.2719 84.3721C72.673 83.9711 72.8982 83.4272 72.8982 82.8601C72.8982 82.293 72.673 81.7491 72.2719 81.3481C71.8709 80.9471 71.327 80.7218 70.7599 80.7218C70.1928 80.7218 69.6489 80.9471 69.2479 81.3481C68.8469 81.7491 68.6216 82.293 68.6216 82.8601C68.6216 83.4272 68.8469 83.9711 69.2479 84.3721C69.6489 84.7732 70.1928 84.9985 70.7599 84.9985ZM76.649 76.6835C77.1692 76.6835 77.6682 76.4768 78.0361 76.1089C78.404 75.741 78.6107 75.2421 78.6107 74.7218C78.6107 74.2015 78.404 73.7026 78.0361 73.3347C77.6682 72.9668 77.1692 72.7601 76.649 72.7601C76.1287 72.7601 75.6297 72.9668 75.2619 73.3347C74.894 73.7026 74.6873 74.2015 74.6873 74.7218C74.6873 75.2421 74.894 75.741 75.2619 76.1089C75.6297 76.4768 76.1287 76.6835 76.649 76.6835ZM121.909 82.7738C122.345 82.7738 122.763 82.6006 123.071 82.2922C123.38 81.9838 123.553 81.5656 123.553 81.1295C123.553 80.6934 123.38 80.2752 123.071 79.9669C122.763 79.6585 122.345 79.4853 121.909 79.4853C121.473 79.4853 121.054 79.6585 120.746 79.9669C120.438 80.2752 120.264 80.6934 120.264 81.1295C120.264 81.5656 120.438 81.9838 120.746 82.2922C121.054 82.6006 121.473 82.7738 121.909 82.7738ZM69.2511 95.8236C69.9719 95.8236 70.6632 95.5373 71.1729 95.0276C71.6825 94.518 71.9689 93.8267 71.9689 93.1059C71.9689 92.3851 71.6825 91.6938 71.1729 91.1841C70.6632 90.6745 69.9719 90.3881 69.2511 90.3881C68.5303 90.3881 67.8391 90.6745 67.3294 91.1841C66.8197 91.6938 66.5334 92.3851 66.5334 93.1059C66.5334 93.8267 66.8197 94.518 67.3294 95.0276C67.8391 95.5373 68.5303 95.8236 69.2511 95.8236ZM63.1814 91.2415C63.4528 91.2464 63.7225 91.1971 63.9746 91.0967C64.2268 90.9962 64.4564 90.8465 64.6501 90.6563C64.8437 90.4661 64.9975 90.2392 65.1025 89.9889C65.2075 89.7386 65.2616 89.4699 65.2616 89.1984C65.2616 88.927 65.2075 88.6583 65.1025 88.408C64.9975 88.1577 64.8437 87.9308 64.6501 87.7406C64.4564 87.5504 64.2268 87.4007 63.9746 87.3002C63.7225 87.1997 63.4528 87.1505 63.1814 87.1554C62.646 87.165 62.1357 87.3845 61.7604 87.7666C61.3851 88.1487 61.1749 88.6629 61.1749 89.1984C61.1749 89.734 61.3851 90.2481 61.7604 90.6302C62.1357 91.0123 62.646 91.2318 63.1814 91.2415ZM127.517 82.2963C128.062 82.2963 128.585 82.0798 128.97 81.6943C129.356 81.3089 129.572 80.7861 129.572 80.241C129.572 79.6959 129.356 79.1731 128.97 78.7876C128.585 78.4022 128.062 78.1857 127.517 78.1857C126.972 78.1857 126.449 78.4022 126.064 78.7876C125.678 79.1731 125.462 79.6959 125.462 80.241C125.462 80.7861 125.678 81.3089 126.064 81.6943C126.449 82.0798 126.972 82.2963 127.517 82.2963ZM80.7955 92.9674C81.6358 92.9674 82.4417 92.6336 83.0358 92.0394C83.63 91.4453 83.9638 90.6394 83.9638 89.7991C83.9638 88.9588 83.63 88.1529 83.0358 87.5588C82.4417 86.9646 81.6358 86.6308 80.7955 86.6308C79.9552 86.6308 79.1493 86.9646 78.5552 87.5588C77.961 88.1529 77.6272 88.9588 77.6272 89.7991C77.6272 90.6394 77.961 91.4453 78.5552 92.0394C79.1493 92.6336 79.9552 92.9674 80.7955 92.9674Z" fill="#AFDAD2"/>
<path d="M150.588 78.5628C151.009 78.5689 151.427 78.4913 151.817 78.3344C152.208 78.1775 152.564 77.9446 152.863 77.649C153.163 77.3535 153.401 77.0014 153.564 76.613C153.726 76.2246 153.81 75.8079 153.81 75.3869C153.81 74.9659 153.726 74.5491 153.564 74.1608C153.401 73.7724 153.163 73.4202 152.863 73.1247C152.564 72.8292 152.208 72.5962 151.817 72.4394C151.427 72.2825 151.009 72.2048 150.588 72.2109C149.753 72.223 148.957 72.5629 148.371 73.1572C147.786 73.7515 147.457 74.5524 147.457 75.3869C147.457 76.2213 147.786 77.0223 148.371 77.6166C148.957 78.2109 149.753 78.5508 150.588 78.5628ZM70.9359 108.49C71.4248 108.49 71.8937 108.295 72.2394 107.95C72.5852 107.604 72.7794 107.135 72.7794 106.646C72.7794 106.157 72.5852 105.688 72.2394 105.343C71.8937 104.997 71.4248 104.803 70.9359 104.803C70.447 104.803 69.9781 104.997 69.6324 105.343C69.2866 105.688 69.0924 106.157 69.0924 106.646C69.0924 107.135 69.2866 107.604 69.6324 107.95C69.9781 108.295 70.447 108.49 70.9359 108.49ZM116.983 72.5317C117.32 72.5371 117.654 72.4756 117.966 72.3507C118.278 72.2257 118.562 72.0399 118.802 71.804C119.042 71.5681 119.232 71.2869 119.362 70.9767C119.492 70.6665 119.559 70.3335 119.559 69.9972C119.559 69.6609 119.492 69.3279 119.362 69.0177C119.232 68.7075 119.042 68.4263 118.802 68.1904C118.562 67.9545 118.278 67.7687 117.966 67.6438C117.654 67.5188 117.32 67.4573 116.983 67.4627C116.318 67.4735 115.684 67.7453 115.217 68.2194C114.751 68.6935 114.489 69.332 114.489 69.9972C114.489 70.6624 114.751 71.3009 115.217 71.775C115.684 72.2491 116.318 72.5209 116.983 72.5317ZM169.641 76.0221C170.328 76.0221 170.986 75.7493 171.472 75.2637C171.957 74.7781 172.23 74.1195 172.23 73.4328C172.23 72.7461 171.957 72.0875 171.472 71.602C170.986 71.1164 170.328 70.8436 169.641 70.8436C168.954 70.8436 168.296 71.1164 167.81 71.602C167.324 72.0875 167.052 72.7461 167.052 73.4328C167.052 74.1195 167.324 74.7781 167.81 75.2637C168.296 75.7493 168.954 76.0221 169.641 76.0221ZM135.199 74.7032C135.746 74.7032 136.27 74.486 136.657 74.0993C137.044 73.7126 137.261 73.1881 137.261 72.6412C137.261 72.0944 137.044 71.5699 136.657 71.1832C136.27 70.7965 135.746 70.5793 135.199 70.5793C134.652 70.5793 134.128 70.7965 133.741 71.1832C133.354 71.5699 133.137 72.0944 133.137 72.6412C133.137 73.1881 133.354 73.7126 133.741 74.0993C134.128 74.486 134.652 74.7032 135.199 74.7032ZM90.2547 101.899C90.9674 101.899 91.651 101.616 92.155 101.112C92.6591 100.608 92.9422 99.9246 92.9422 99.2118C92.9422 98.499 92.6591 97.8154 92.155 97.3114C91.651 96.8074 90.9674 96.5242 90.2547 96.5242C89.5419 96.5242 88.8583 96.8074 88.3543 97.3114C87.8503 97.8154 87.5671 98.499 87.5671 99.2118C87.5671 99.9246 87.8503 100.608 88.3543 101.112C88.8583 101.616 89.5419 101.899 90.2547 101.899ZM142.191 75.5904C142.874 75.5904 143.528 75.3193 144.011 74.8367C144.493 74.3541 144.764 73.6996 144.764 73.0171C144.764 72.3346 144.493 71.6801 144.011 71.1975C143.528 70.7149 142.874 70.4438 142.191 70.4438C141.509 70.4438 140.854 70.7149 140.371 71.1975C139.889 71.6801 139.618 72.3346 139.618 73.0171C139.618 73.6996 139.889 74.3541 140.371 74.8367C140.854 75.3193 141.509 75.5904 142.191 75.5904ZM160.412 78.0987C160.978 78.0987 161.52 77.874 161.92 77.474C162.32 77.074 162.545 76.5316 162.545 75.966C162.545 75.4003 162.32 74.8579 161.92 74.4579C161.52 74.058 160.978 73.8333 160.412 73.8333C159.847 73.8333 159.304 74.058 158.904 74.4579C158.504 74.8579 158.279 75.4003 158.279 75.966C158.279 76.5316 158.504 77.074 158.904 77.474C159.304 77.874 159.847 78.0987 160.412 78.0987ZM180.543 82.7207C181.053 82.7207 181.542 82.5181 181.902 82.1576C182.263 81.797 182.466 81.308 182.466 80.7981C182.466 80.2883 182.263 79.7993 181.902 79.4387C181.542 79.0782 181.053 78.8756 180.543 78.8756C180.033 78.8756 179.544 79.0782 179.184 79.4387C178.823 79.7993 178.621 80.2883 178.621 80.7981C178.621 81.308 178.823 81.797 179.184 82.1576C179.544 82.5181 180.033 82.7207 180.543 82.7207ZM108.613 68.5963C109.052 68.5963 109.473 68.4218 109.784 68.111C110.095 67.8003 110.269 67.3789 110.269 66.9394C110.269 66.5 110.095 66.0786 109.784 65.7679C109.473 65.4571 109.052 65.2826 108.613 65.2826C108.173 65.2826 107.752 65.4571 107.441 65.7679C107.13 66.0786 106.956 66.5 106.956 66.9394C106.956 67.3789 107.13 67.8003 107.441 68.111C107.752 68.4218 108.173 68.5963 108.613 68.5963ZM123.676 64.0487C124.319 64.0487 124.936 63.7932 125.391 63.3383C125.846 62.8834 126.101 62.2664 126.101 61.6231C126.101 60.9799 125.846 60.3629 125.391 59.908C124.936 59.4531 124.319 59.1976 123.676 59.1976C123.033 59.1976 122.416 59.4531 121.961 59.908C121.506 60.3629 121.25 60.9799 121.25 61.6231C121.25 62.2664 121.506 62.8834 121.961 63.3383C122.416 63.7932 123.033 64.0487 123.676 64.0487ZM180.114 77.0501C180.962 77.0501 181.774 76.7134 182.374 76.1141C182.973 75.5148 183.31 74.702 183.31 73.8545C183.31 73.007 182.973 72.1942 182.374 71.5949C181.774 70.9956 180.962 70.659 180.114 70.659C179.267 70.659 178.454 70.9956 177.854 71.5949C177.255 72.1942 176.919 73.007 176.919 73.8545C176.919 74.702 177.255 75.5148 177.854 76.1141C178.454 76.7134 179.267 77.0501 180.114 77.0501ZM120.016 78.3557C120.817 78.3557 121.585 78.0375 122.152 77.4711C122.718 76.9048 123.036 76.1367 123.036 75.3358C123.036 74.5348 122.718 73.7667 122.152 73.2004C121.585 72.634 120.817 72.3158 120.016 72.3158C119.215 72.3158 118.447 72.634 117.881 73.2004C117.314 73.7667 116.996 74.5348 116.996 75.3358C116.996 76.1367 117.314 76.9048 117.881 77.4711C118.447 78.0375 119.215 78.3557 120.016 78.3557ZM131.188 67.0397C131.987 67.0397 132.753 66.7223 133.318 66.1574C133.883 65.5924 134.201 64.8261 134.201 64.0271C134.201 63.2281 133.883 62.4619 133.318 61.8969C132.753 61.3319 131.987 61.0145 131.188 61.0145C130.389 61.0145 129.623 61.3319 129.058 61.8968C128.493 62.4617 128.176 63.2279 128.176 64.0268C128.176 64.8257 128.493 65.5919 129.058 66.1568C129.623 66.7217 130.389 67.0397 131.188 67.0397ZM157.302 70.7088C157.715 70.7148 158.126 70.6385 158.51 70.4844C158.894 70.3303 159.243 70.1014 159.538 69.811C159.833 69.5206 160.067 69.1745 160.226 68.7929C160.386 68.4112 160.468 68.0016 160.468 67.5879C160.468 67.1742 160.386 66.7646 160.226 66.383C160.067 66.0013 159.833 65.6553 159.538 65.3649C159.243 65.0745 158.894 64.8456 158.51 64.6914C158.126 64.5373 157.715 64.461 157.302 64.4671C156.482 64.479 155.7 64.8131 155.124 65.3971C154.549 65.981 154.226 66.768 154.226 67.5879C154.226 68.4078 154.549 69.1948 155.124 69.7788C155.7 70.3627 156.482 70.6968 157.302 70.7088ZM189.608 90.3264C190.002 90.3347 190.393 90.2645 190.758 90.1197C191.124 89.975 191.457 89.7587 191.738 89.4835C192.02 89.2083 192.243 88.8798 192.395 88.5172C192.548 88.1546 192.626 87.7652 192.626 87.3719C192.626 86.9785 192.548 86.5891 192.395 86.2265C192.243 85.8639 192.02 85.5354 191.738 85.2602C191.457 84.9851 191.124 84.7688 190.758 84.624C190.393 84.4793 190.002 84.409 189.608 84.4174C188.836 84.4338 188.1 84.7522 187.559 85.3045C187.019 85.8568 186.716 86.599 186.716 87.3719C186.716 88.1448 187.019 88.8869 187.559 89.4392C188.1 89.9915 188.836 90.31 189.608 90.3264ZM122.994 54.559C123.215 54.559 123.435 54.5154 123.639 54.4306C123.844 54.3458 124.03 54.2216 124.187 54.0649C124.343 53.9083 124.467 53.7224 124.552 53.5177C124.637 53.3131 124.681 53.0937 124.681 52.8722C124.681 52.6507 124.637 52.4314 124.552 52.2267C124.467 52.0221 124.343 51.8361 124.187 51.6795C124.03 51.5229 123.844 51.3986 123.639 51.3139C123.435 51.2291 123.215 51.1855 122.994 51.1855C122.546 51.1855 122.117 51.3632 121.801 51.6795C121.485 51.9958 121.307 52.4249 121.307 52.8722C121.307 53.3196 121.485 53.7486 121.801 54.0649C122.117 54.3813 122.546 54.559 122.994 54.559Z" fill="#AFDAD2"/>
<path d="M149.932 72.4653C150.683 72.4653 151.404 72.1668 151.935 71.6355C152.466 71.1042 152.765 70.3836 152.765 69.6323C152.765 68.8809 152.466 68.1604 151.935 67.6291C151.404 67.0978 150.683 66.7993 149.932 66.7993C149.188 66.8107 148.478 67.1142 147.956 67.6441C147.435 68.1741 147.142 68.8881 147.142 69.632C147.142 70.3758 147.435 71.0898 147.956 71.6198C148.478 72.1498 149.188 72.4539 149.932 72.4653ZM146.142 67.0238C146.442 67.0238 146.739 66.9646 147.017 66.8497C147.294 66.7348 147.546 66.5664 147.758 66.3541C147.971 66.1418 148.139 65.8897 148.254 65.6123C148.369 65.3349 148.428 65.0376 148.428 64.7374C148.428 64.4371 148.369 64.1398 148.254 63.8624C148.139 63.585 147.971 63.3329 147.758 63.1206C147.546 62.9083 147.294 62.7399 147.017 62.625C146.739 62.5101 146.442 62.4509 146.142 62.4509C145.535 62.4509 144.954 62.6918 144.525 63.1206C144.096 63.5494 143.855 64.131 143.855 64.7374C143.855 65.3438 144.096 65.9253 144.525 66.3541C144.954 66.7829 145.535 67.0238 146.142 67.0238ZM134.652 62.0458C135.037 62.0458 135.419 61.9699 135.775 61.8225C136.13 61.6751 136.454 61.4589 136.726 61.1865C136.999 60.9141 137.215 60.5906 137.362 60.2347C137.51 59.8787 137.586 59.4972 137.586 59.1119C137.586 58.7266 137.51 58.3451 137.362 57.9892C137.215 57.6332 136.999 57.3098 136.726 57.0373C136.454 56.7649 136.13 56.5488 135.775 56.4013C135.419 56.2539 135.037 56.178 134.652 56.178C133.874 56.178 133.127 56.4871 132.577 57.0373C132.027 57.5875 131.718 58.3338 131.718 59.1119C131.718 59.89 132.027 60.6363 132.577 61.1865C133.127 61.7367 133.874 62.0458 134.652 62.0458ZM102.29 74.0092C102.722 74.0092 103.15 73.9242 103.549 73.7589C103.948 73.5937 104.31 73.3514 104.616 73.0461C104.921 72.7407 105.163 72.3782 105.329 71.9792C105.494 71.5802 105.579 71.1526 105.579 70.7207C105.579 70.2889 105.494 69.8612 105.329 69.4622C105.163 69.0633 104.921 68.7007 104.616 68.3954C104.31 68.09 103.948 67.8478 103.549 67.6825C103.15 67.5172 102.722 67.4322 102.29 67.4322C101.418 67.4322 100.582 67.7787 99.9651 68.3954C99.3484 69.0121 99.0019 69.8485 99.0019 70.7207C99.0019 71.5929 99.3484 72.4293 99.9651 73.0461C100.582 73.6628 101.418 74.0092 102.29 74.0092ZM82.0008 69.1668C82.2389 69.1714 82.4754 69.1284 82.6967 69.0405C82.918 68.9526 83.1195 68.8214 83.2895 68.6547C83.4595 68.4879 83.5945 68.289 83.6867 68.0694C83.7788 67.8499 83.8263 67.6142 83.8263 67.3761C83.8263 67.138 83.7788 66.9023 83.6867 66.6827C83.5945 66.4632 83.4595 66.2642 83.2895 66.0975C83.1195 65.9308 82.918 65.7996 82.6967 65.7117C82.4754 65.6237 82.2389 65.5808 82.0008 65.5854C81.5318 65.5944 81.0851 65.787 80.7567 66.1219C80.4282 66.4567 80.2443 66.907 80.2443 67.3761C80.2443 67.8451 80.4282 68.2954 80.7567 68.6303C81.0851 68.9651 81.5318 69.1577 82.0008 69.1668ZM90.515 67.9661C91.1308 67.9661 91.7214 67.7215 92.1568 67.286C92.5923 66.8506 92.8369 66.26 92.8369 65.6442C92.8369 65.0283 92.5923 64.4377 92.1568 64.0023C91.7214 63.5668 91.1308 63.3222 90.515 63.3222C89.8992 63.3222 89.3085 63.5668 88.8731 64.0023C88.4376 64.4377 88.193 65.0283 88.193 65.6442C88.193 66.26 88.4376 66.8506 88.8731 67.286C89.3085 67.7215 89.8992 67.9661 90.515 67.9661ZM168.522 82.0313C168.901 82.0371 169.278 81.9674 169.631 81.8261C169.983 81.6849 170.303 81.475 170.574 81.2087C170.844 80.9424 171.059 80.6249 171.206 80.2749C171.352 79.9248 171.428 79.549 171.428 79.1695C171.428 78.7899 171.352 78.4142 171.206 78.0641C171.059 77.714 170.844 77.3966 170.574 77.1303C170.303 76.8639 169.983 76.6541 169.631 76.5128C169.278 76.3716 168.901 76.3018 168.522 76.3076C167.763 76.3076 167.035 76.6092 166.498 77.1459C165.961 77.6827 165.66 78.4107 165.66 79.1698C165.66 79.9289 165.961 80.6569 166.498 81.1937C167.035 81.7305 167.763 82.0313 168.522 82.0313ZM137.125 66.9467C137.547 66.9467 137.951 66.7793 138.249 66.4813C138.547 66.1833 138.715 65.7791 138.715 65.3576C138.715 64.9361 138.547 64.5319 138.249 64.2339C137.951 63.9359 137.547 63.7685 137.125 63.7685C136.704 63.7685 136.3 63.9359 136.002 64.2339C135.704 64.5319 135.536 64.9361 135.536 65.3576C135.536 65.7791 135.704 66.1833 136.002 66.4813C136.3 66.7793 136.704 66.9467 137.125 66.9467ZM103.381 67.2668C104.18 67.2668 104.947 66.9493 105.512 66.384C106.078 65.8187 106.395 65.052 106.395 64.2526C106.395 63.4531 106.078 62.6864 105.512 62.1212C104.947 61.5559 104.18 61.2383 103.381 61.2383C102.581 61.2383 101.815 61.5559 101.249 62.1212C100.684 62.6864 100.367 63.4531 100.367 64.2526C100.367 65.052 100.684 65.8187 101.249 66.384C101.815 66.9493 102.581 67.2668 103.381 67.2668ZM59.1544 104.214C59.4985 104.214 59.8393 104.146 60.1572 104.014C60.4752 103.882 60.764 103.689 61.0074 103.446C61.2507 103.203 61.4437 102.914 61.5754 102.596C61.7071 102.278 61.7749 101.937 61.7749 101.593C61.7749 101.249 61.7071 100.908 61.5754 100.59C61.4437 100.272 61.2507 99.9835 61.0074 99.7402C60.764 99.4969 60.4752 99.3039 60.1572 99.1722C59.8393 99.0405 59.4985 98.9727 59.1544 98.9727C58.4594 98.9727 57.7929 99.2488 57.3015 99.7402C56.81 100.232 56.534 100.898 56.534 101.593C56.534 102.288 56.81 102.955 57.3015 103.446C57.7929 103.938 58.4594 104.214 59.1544 104.214ZM66.1352 105.118C66.9428 105.118 67.7172 104.797 68.2882 104.226C68.8593 103.655 69.1801 102.881 69.1801 102.073C69.1801 101.266 68.8593 100.491 68.2882 99.9203C67.7172 99.3493 66.9428 99.0285 66.1352 99.0285C65.3277 99.0285 64.5532 99.3493 63.9822 99.9203C63.4112 100.491 63.0904 101.266 63.0904 102.073C63.0904 102.881 63.4112 103.655 63.9822 104.226C64.5532 104.797 65.3277 105.118 66.1352 105.118ZM90.7388 78.276C91.1235 78.276 91.5045 78.2002 91.86 78.0529C92.2155 77.9057 92.5385 77.6899 92.8105 77.4178C93.0826 77.1457 93.2984 76.8227 93.4457 76.4673C93.5929 76.1118 93.6687 75.7308 93.6687 75.346C93.6687 74.9613 93.5929 74.5803 93.4457 74.2248C93.2984 73.8693 93.0826 73.5463 92.8105 73.2743C92.5385 73.0022 92.2155 72.7864 91.86 72.6391C91.5045 72.4919 91.1235 72.4161 90.7388 72.4161C89.9616 72.4161 89.2163 72.7248 88.6668 73.2744C88.1172 73.8239 87.8085 74.5692 87.8085 75.3464C87.8085 76.1235 88.1172 76.8688 88.6668 77.4184C89.2163 77.9679 89.9616 78.276 90.7388 78.276ZM60.0157 97.691C60.6181 97.691 61.1958 97.4517 61.6217 97.0258C62.0476 96.5999 62.2869 96.0222 62.2869 95.4199C62.2869 94.8175 62.0476 94.2398 61.6217 93.8139C61.1958 93.388 60.6181 93.1487 60.0157 93.1487C59.4134 93.1487 58.8357 93.388 58.4098 93.8139C57.9839 94.2398 57.7446 94.8175 57.7446 95.4199C57.7446 96.0222 57.9839 96.5999 58.4098 97.0258C58.8357 97.4517 59.4134 97.691 60.0157 97.691ZM151.586 64.7241C152.246 64.7241 152.878 64.4622 153.344 63.9961C153.81 63.53 154.072 62.8979 154.072 62.2387C154.072 61.5796 153.81 60.9474 153.344 60.4814C152.878 60.0153 152.246 59.7534 151.586 59.7534C150.927 59.7534 150.295 60.0153 149.829 60.4814C149.363 60.9474 149.101 61.5796 149.101 62.2387C149.101 62.8979 149.363 63.53 149.829 63.9961C150.295 64.4622 150.927 64.7241 151.586 64.7241ZM82.4026 75.1594C83.0024 75.1594 83.5776 74.9212 84.0017 74.497C84.4258 74.0729 84.6641 73.4977 84.6641 72.8979C84.6641 72.2981 84.4258 71.7229 84.0017 71.2988C83.5776 70.8746 83.0024 70.6364 82.4026 70.6364C81.8029 70.6364 81.2277 70.8746 80.8037 71.2987C80.3796 71.7227 80.1414 72.2979 80.1414 72.8976C80.1414 73.4973 80.3796 74.0724 80.8037 74.4965C81.2277 74.9205 81.8029 75.1594 82.4026 75.1594Z" fill="#AFDAD2"/>
<path d="M71.4393 102.399C72.2804 102.399 73.0872 102.065 73.682 101.47C74.2768 100.875 74.6109 100.068 74.6109 99.2271C74.6109 98.3859 74.2768 97.5792 73.682 96.9844C73.0872 96.3896 72.2804 96.0554 71.4393 96.0554C70.5981 96.0554 69.7914 96.3896 69.1966 96.9844C68.6018 97.5792 68.2676 98.3859 68.2676 99.2271C68.2676 100.068 68.6018 100.875 69.1966 101.47C69.7914 102.065 70.5981 102.399 71.4393 102.399ZM174.544 80.8147C174.956 80.8208 175.365 80.7448 175.747 80.5914C176.129 80.4379 176.477 80.21 176.771 79.9208C177.064 79.6316 177.297 79.287 177.456 78.907C177.615 78.527 177.697 78.1191 177.697 77.7072C177.697 77.2952 177.615 76.8874 177.456 76.5074C177.297 76.1273 177.064 75.7827 176.771 75.4936C176.477 75.2044 176.129 74.9765 175.747 74.823C175.365 74.6695 174.956 74.5936 174.544 74.5996C173.719 74.5996 172.929 74.9271 172.346 75.5099C171.763 76.0927 171.436 76.8833 171.436 77.7075C171.436 78.5318 171.763 79.3223 172.346 79.9051C172.929 80.488 173.719 80.8147 174.544 80.8147ZM185.747 80.4449C186.031 80.4499 186.313 80.3983 186.577 80.2931C186.841 80.1879 187.081 80.0313 187.283 79.8323C187.486 79.6334 187.647 79.3961 187.756 79.1343C187.866 78.8725 187.923 78.5914 187.923 78.3075C187.923 78.0236 187.866 77.7426 187.756 77.4808C187.647 77.219 187.486 76.9817 187.283 76.7827C187.081 76.5837 186.841 76.4271 186.577 76.3219C186.313 76.2168 186.031 76.1652 185.747 76.1702C185.187 76.18 184.653 76.4096 184.26 76.8093C183.868 77.2091 183.647 77.7471 183.647 78.3075C183.647 78.8679 183.868 79.4059 184.26 79.8057C184.653 80.2055 185.187 80.435 185.747 80.4449ZM111.858 75.1548C112.489 75.1548 113.095 74.904 113.541 74.4575C113.988 74.011 114.239 73.4055 114.239 72.7741C114.239 72.1427 113.988 71.5371 113.541 71.0906C113.095 70.6442 112.489 70.3933 111.858 70.3933C111.226 70.3933 110.621 70.6442 110.174 71.0906C109.728 71.5371 109.477 72.1427 109.477 72.7741C109.477 73.4055 109.728 74.011 110.174 74.4575C110.621 74.904 111.226 75.1548 111.858 75.1548ZM164.116 72.4785C164.381 72.4834 164.644 72.4354 164.891 72.3373C165.137 72.2393 165.361 72.0932 165.55 71.9076C165.739 71.722 165.889 71.5005 165.992 71.2562C166.094 71.0119 166.147 70.7496 166.147 70.4846C166.147 70.2197 166.094 69.9574 165.992 69.7131C165.889 69.4688 165.739 69.2473 165.55 69.0617C165.361 68.8761 165.137 68.73 164.891 68.6319C164.644 68.5339 164.381 68.4859 164.116 68.4907C163.594 68.5003 163.096 68.7145 162.73 69.0874C162.364 69.4603 162.159 69.962 162.159 70.4846C162.159 71.0072 162.364 71.509 162.73 71.8819C163.096 72.2547 163.594 72.469 164.116 72.4785ZM163.26 67.4827C164.122 67.4827 164.949 67.14 165.559 66.5302C166.169 65.9203 166.512 65.0931 166.512 64.2307C166.512 63.3682 166.169 62.541 165.559 61.9311C164.949 61.3213 164.122 60.9787 163.26 60.9787C162.397 60.9787 161.57 61.3213 160.96 61.9311C160.35 62.541 160.008 63.3682 160.008 64.2307C160.008 65.0931 160.35 65.9203 160.96 66.5302C161.57 67.14 162.397 67.4827 163.26 67.4827ZM123.167 73.0251C123.938 73.0251 124.677 72.7187 125.223 72.1734C125.768 71.6281 126.074 70.8886 126.074 70.1174C126.074 69.3462 125.768 68.6067 125.223 68.0614C124.677 67.5161 123.938 67.2097 123.167 67.2097C122.395 67.2097 121.656 67.5161 121.11 68.0614C120.565 68.6067 120.259 69.3462 120.259 70.1174C120.259 70.8886 120.565 71.6281 121.11 72.1734C121.656 72.7187 122.395 73.0251 123.167 73.0251ZM184.605 87.079C184.933 87.079 185.257 87.0145 185.56 86.8892C185.862 86.7638 186.137 86.5801 186.369 86.3485C186.601 86.1168 186.784 85.8419 186.91 85.5393C187.035 85.2366 187.1 84.9123 187.1 84.5847C187.1 84.2572 187.035 83.9328 186.91 83.6302C186.784 83.3276 186.601 83.0526 186.369 82.821C186.137 82.5894 185.862 82.4057 185.56 82.2803C185.257 82.155 184.933 82.0904 184.605 82.0904C183.944 82.0904 183.309 82.3532 182.842 82.821C182.374 83.2888 182.111 83.9232 182.111 84.5847C182.111 85.2463 182.374 85.8807 182.842 86.3485C183.309 86.8162 183.944 87.079 184.605 87.079ZM65.5376 109.599C65.9256 109.599 66.2977 109.445 66.5721 109.171C66.8464 108.896 67.0005 108.524 67.0005 108.136C67.0005 107.748 66.8464 107.376 66.5721 107.102C66.2977 106.828 65.9256 106.673 65.5376 106.673C65.1496 106.673 64.7775 106.828 64.5031 107.102C64.2287 107.376 64.0746 107.748 64.0746 108.136C64.0746 108.524 64.2287 108.896 64.5031 109.171C64.7775 109.445 65.1496 109.599 65.5376 109.599ZM96.2805 69.0359C97.0049 69.0359 97.6997 68.7482 98.2119 68.236C98.7241 67.7237 99.0119 67.029 99.0119 66.3046C99.0119 65.5802 98.7241 64.8855 98.2119 64.3732C97.6997 63.861 97.0049 63.5732 96.2805 63.5732C95.5561 63.5732 94.8614 63.861 94.3492 64.3732C93.8369 64.8855 93.5492 65.5802 93.5492 66.3046C93.5492 67.029 93.8369 67.7237 94.3492 68.236C94.8614 68.7482 95.5561 69.0359 96.2805 69.0359ZM116.217 64.5826C116.476 64.5874 116.734 64.5405 116.975 64.4446C117.215 64.3487 117.435 64.2058 117.62 64.0242C117.805 63.8426 117.952 63.6259 118.052 63.3868C118.152 63.1478 118.204 62.8911 118.204 62.6319C118.204 62.3726 118.152 62.116 118.052 61.8769C117.952 61.6379 117.805 61.4212 117.62 61.2396C117.435 61.058 117.215 60.9151 116.975 60.8192C116.734 60.7233 116.476 60.6764 116.217 60.6812C115.706 60.6906 115.219 60.9002 114.861 61.2651C114.502 61.6299 114.302 62.1207 114.302 62.6319C114.302 63.1431 114.502 63.6339 114.861 63.9987C115.219 64.3635 115.706 64.5732 116.217 64.5826ZM172.832 70.5899C173.483 70.5899 174.108 70.3313 174.568 69.8709C175.029 69.4106 175.287 68.7862 175.287 68.1351C175.287 67.4841 175.029 66.8597 174.568 66.3993C174.108 65.939 173.483 65.6804 172.832 65.6804C172.181 65.6804 171.557 65.939 171.097 66.3993C170.636 66.8597 170.378 67.4841 170.378 68.1351C170.378 68.7862 170.636 69.4106 171.097 69.8709C171.557 70.3313 172.181 70.5899 172.832 70.5899ZM110.765 60.6433C111.166 60.6433 111.563 60.5643 111.933 60.4109C112.303 60.2575 112.64 60.0327 112.923 59.7493C113.207 59.4658 113.431 59.1293 113.585 58.759C113.738 58.3886 113.817 57.9917 113.817 57.5909C113.817 57.19 113.738 56.7931 113.585 56.4227C113.431 56.0524 113.207 55.7159 112.923 55.4324C112.64 55.149 112.303 54.9242 111.933 54.7708C111.563 54.6174 111.166 54.5384 110.765 54.5384C109.955 54.5384 109.179 54.86 108.606 55.4324C108.034 56.0049 107.712 56.7813 107.712 57.5909C107.712 58.4004 108.034 59.1768 108.606 59.7493C109.179 60.3217 109.955 60.6433 110.765 60.6433Z" fill="#AFDAD2"/>
<path d="M158.65 63.5586C159.399 63.5586 160.117 63.2612 160.646 62.7319C161.176 62.2025 161.473 61.4846 161.473 60.7359C161.473 59.9873 161.176 59.2694 160.646 58.74C160.117 58.2106 159.399 57.9133 158.65 57.9133C157.902 57.9133 157.184 58.2106 156.655 58.7399C156.125 59.2692 155.828 59.9871 155.828 60.7356C155.828 61.4841 156.125 62.202 156.655 62.7313C157.184 63.2606 157.902 63.5586 158.65 63.5586ZM97.0077 60.549C97.6074 60.549 98.1825 60.3108 98.6066 59.8867C99.0307 59.4626 99.2689 58.8875 99.2689 58.2878C99.2689 57.6881 99.0307 57.1129 98.6066 56.6889C98.1825 56.2648 97.6074 56.0266 97.0077 56.0266C96.408 56.0266 95.8328 56.2648 95.4088 56.6889C94.9847 57.1129 94.7465 57.6881 94.7465 58.2878C94.7465 58.8875 94.9847 59.4626 95.4088 59.8867C95.8328 60.3108 96.408 60.549 97.0077 60.549ZM102.437 58.8011C102.765 58.8011 103.089 58.7366 103.392 58.6112C103.695 58.4859 103.97 58.3021 104.201 58.0705C104.433 57.8388 104.617 57.5638 104.742 57.2612C104.867 56.9585 104.932 56.6341 104.932 56.3065C104.932 55.9789 104.867 55.6545 104.742 55.3519C104.617 55.0492 104.433 54.7742 104.201 54.5426C103.97 54.3109 103.695 54.1272 103.392 54.0018C103.089 53.8764 102.765 53.8119 102.437 53.8119C101.776 53.8119 101.141 54.0747 100.673 54.5426C100.205 55.0104 99.9426 55.6449 99.9426 56.3065C99.9426 56.9681 100.205 57.6026 100.673 58.0705C101.141 58.5383 101.776 58.8011 102.437 58.8011ZM140.885 55.6746C141.661 55.6746 142.405 55.3663 142.954 54.8175C143.503 54.2686 143.811 53.5242 143.811 52.748C143.811 51.9719 143.503 51.2275 142.954 50.6786C142.405 50.1298 141.661 49.8214 140.885 49.8214C140.109 49.8214 139.364 50.1298 138.815 50.6786C138.267 51.2275 137.958 51.9719 137.958 52.748C137.958 53.5242 138.267 54.2686 138.815 54.8175C139.364 55.3663 140.109 55.6746 140.885 55.6746ZM129.126 56.2949C129.425 56.2949 129.721 56.236 129.998 56.1215C130.274 56.007 130.525 55.8393 130.737 55.6277C130.948 55.4162 131.116 55.1651 131.23 54.8888C131.345 54.6124 131.404 54.3162 131.404 54.0171C131.404 53.718 131.345 53.4218 131.23 53.1454C131.116 52.8691 130.948 52.618 130.737 52.4065C130.525 52.1949 130.274 52.0272 129.998 51.9127C129.721 51.7982 129.425 51.7393 129.126 51.7393C128.522 51.7393 127.942 51.9793 127.515 52.4065C127.088 52.8336 126.848 53.413 126.848 54.0171C126.848 54.6212 127.088 55.2006 127.515 55.6277C127.942 56.0549 128.522 56.2949 129.126 56.2949ZM146.729 59.0747C146.961 59.0793 147.191 59.0376 147.406 58.9521C147.622 58.8666 147.818 58.739 147.983 58.5768C148.148 58.4147 148.28 58.2212 148.369 58.0076C148.459 57.7941 148.505 57.5648 148.505 57.3332C148.505 57.1016 148.459 56.8723 148.369 56.6587C148.28 56.4452 148.148 56.2517 147.983 56.0895C147.818 55.9274 147.622 55.7998 147.406 55.7143C147.191 55.6288 146.961 55.5871 146.729 55.5916C146.273 55.6005 145.839 55.7879 145.52 56.1136C145.2 56.4392 145.022 56.8771 145.022 57.3332C145.022 57.7893 145.2 58.2272 145.52 58.5528C145.839 58.8784 146.273 59.0658 146.729 59.0747Z" fill="#AFDAD2"/>
<path d="M140.913 61.749C141.338 61.749 141.758 61.6654 142.149 61.5031C142.541 61.3408 142.897 61.1029 143.197 60.8029C143.497 60.503 143.735 60.1469 143.898 59.755C144.06 59.3631 144.143 58.9431 144.143 58.5189C144.143 58.0947 144.06 57.6747 143.898 57.2828C143.735 56.8909 143.497 56.5348 143.197 56.2349C142.897 55.9349 142.541 55.697 142.149 55.5347C141.758 55.3724 141.338 55.2888 140.913 55.2888C140.057 55.2888 139.235 55.6291 138.629 56.2349C138.024 56.8406 137.683 57.6622 137.683 58.5189C137.683 59.3756 138.024 60.1972 138.629 60.8029C139.235 61.4087 140.057 61.749 140.913 61.749ZM153.732 58.6145C154.324 58.6145 154.892 58.3794 155.31 57.9608C155.729 57.5422 155.964 56.9745 155.964 56.3825C155.964 55.7906 155.729 55.2229 155.31 54.8043C154.892 54.3857 154.324 54.1506 153.732 54.1506C153.14 54.1506 152.572 54.3857 152.154 54.8043C151.735 55.2229 151.5 55.7906 151.5 56.3825C151.5 56.9745 151.735 57.5422 152.154 57.9608C152.572 58.3794 153.14 58.6145 153.732 58.6145ZM53.5762 113.061C54.3198 113.061 55.0329 112.766 55.5587 112.24C56.0845 111.714 56.3799 111.001 56.3799 110.257C56.3799 109.514 56.0845 108.801 55.5587 108.275C55.0329 107.749 54.3198 107.454 53.5762 107.454C52.8326 107.454 52.1194 107.749 51.5936 108.275C51.0678 108.801 50.7724 109.514 50.7724 110.257C50.7724 111.001 51.0678 111.714 51.5936 112.24C52.1194 112.766 52.8326 113.061 53.5762 113.061ZM117.192 58.4226C117.593 58.4226 117.977 58.2635 118.26 57.9804C118.543 57.6973 118.702 57.3132 118.702 56.9128C118.702 56.5124 118.543 56.1284 118.26 55.8452C117.977 55.5621 117.593 55.403 117.192 55.403C116.792 55.403 116.408 55.5621 116.125 55.8452C115.842 56.1284 115.683 56.5124 115.683 56.9128C115.683 57.3132 115.842 57.6973 116.125 57.9804C116.408 58.2635 116.792 58.4226 117.192 58.4226ZM169.049 65.333C169.532 65.333 169.996 65.1411 170.337 64.7994C170.679 64.4577 170.871 63.9943 170.871 63.5111C170.871 63.0279 170.679 62.5645 170.337 62.2228C169.996 61.8812 169.532 61.6892 169.049 61.6892C168.566 61.6892 168.103 61.8811 167.761 62.2227C167.42 62.5644 167.228 63.0277 167.228 63.5108C167.228 63.9939 167.42 64.4572 167.761 64.7988C168.103 65.1404 168.566 65.333 169.049 65.333ZM135.003 56.2198C135.702 56.2198 136.372 55.9423 136.866 55.4482C137.36 54.9542 137.637 54.2841 137.637 53.5854C137.637 52.8868 137.36 52.2167 136.866 51.7226C136.372 51.2286 135.702 50.951 135.003 50.951C134.304 50.951 133.634 51.2286 133.14 51.7226C132.646 52.2167 132.369 52.8868 132.369 53.5854C132.369 54.2841 132.646 54.9542 133.14 55.4482C133.634 55.9423 134.304 56.2198 135.003 56.2198ZM74.8427 96.2241C75.2413 96.2241 75.636 96.1456 76.0043 95.993C76.3726 95.8405 76.7072 95.6169 76.9891 95.335C77.271 95.0531 77.4946 94.7185 77.6471 94.3502C77.7997 93.9819 77.8782 93.5872 77.8782 93.1886C77.8782 92.7899 77.7997 92.3952 77.6471 92.0269C77.4946 91.6586 77.271 91.324 76.9891 91.0421C76.7072 90.7603 76.3726 90.5367 76.0043 90.3841C75.636 90.2316 75.2413 90.153 74.8427 90.153C74.0376 90.153 73.2655 90.4729 72.6962 91.0421C72.127 91.6114 71.8072 92.3835 71.8072 93.1886C71.8072 93.9936 72.127 94.7657 72.6962 95.335C73.2655 95.9043 74.0376 96.2241 74.8427 96.2241Z" fill="#AFDAD2"/>
<path d="M158.778 81.8886L155.645 81.8142L152.512 81.8859L149.38 82.1037L146.249 82.4643L143.121 82.9644L139.996 83.5959L136.876 84.353L133.761 85.2256L130.65 86.2044L127.545 87.2776L124.446 88.4338L121.351 89.661L118.261 90.9466L115.176 92.2781L112.096 93.6435L109.02 95.0294L102.88 97.8185L99.8154 99.2005L96.754 100.561L93.6959 101.89L90.6412 103.182L87.5891 104.429L84.5389 105.625L81.4908 106.767L78.4447 107.849L75.3999 108.871L72.3564 109.83L69.3142 110.725L66.2714 111.556L63.2299 112.325L60.1878 113.032L57.1449 113.679L54.1021 114.267L51.058 114.801L47.719 115.329L47.5715 116.345C46.5754 123.219 46.4647 130.193 47.2422 137.095L47.4547 138.983L51.8642 137.026L54.9389 135.639L61.079 132.85L64.143 131.469L67.2031 130.113L70.2592 128.794L73.31 127.524L76.3568 126.316L79.3983 125.181L82.4345 124.132L85.4653 123.178L88.4915 122.33L91.5124 121.597L94.528 120.986L97.5396 120.506L100.548 120.16L103.553 119.95L106.557 119.881L109.56 119.954L112.562 120.165L115.568 120.514L118.576 120.997L121.587 121.609L124.604 122.342L127.624 123.19L130.65 124.144L133.681 125.193L136.718 126.326L139.759 127.533L142.805 128.801L145.857 130.118L148.912 131.473L151.972 132.851L158.105 135.637L161.177 137.023L164.251 138.389L167.33 139.727L170.411 141.03L173.495 142.29L176.581 143.501L179.668 144.657L182.759 145.757L185.85 146.794L188.943 147.769L192.036 148.68L195.131 149.526L198.224 150.308L201.319 151.027L205.67 151.954L206.031 150.712C208.082 143.665 209.169 136.372 209.263 129.033L209.269 128.009L209.263 126.977L209.241 125.872C208.98 115.919 206.893 106.099 203.083 96.9001L202.802 96.2294L202.3 95.0686L199.137 93.6461L196.062 92.2834L192.981 90.9539L189.897 89.6696L186.807 88.4444L183.712 87.2889L180.613 86.2164L177.508 85.2382L174.397 84.3656L171.282 83.6079L168.161 82.9743L165.037 82.473L161.91 82.1097L158.778 81.8886ZM155.613 83.2068L158.681 83.2785L161.749 83.493L164.817 83.8483L167.885 84.3397L170.953 84.9613L174.021 85.7064L177.089 86.5663L180.157 87.5326L183.225 88.5938L186.293 89.7387L189.361 90.9559L192.429 92.2323L195.498 93.5571L198.566 94.9165L201.238 96.1185C205.334 105.528 207.579 115.64 207.849 125.899L207.87 126.986L207.877 128L207.87 129.015C207.778 136.228 206.71 143.396 204.694 150.322L201.634 149.671L198.566 148.958L195.498 148.182L192.429 147.344L189.361 146.441L186.293 145.474L183.225 144.444L180.157 143.353L177.089 142.204L174.021 141L170.953 139.747L167.885 138.45L164.817 137.116L161.749 135.753L158.681 134.37L152.545 131.582L149.477 130.199L146.409 128.84L143.341 127.516L140.273 126.239L137.205 125.021L134.136 123.876L131.068 122.815L128 121.85L124.932 120.989L121.864 120.244L118.796 119.622L115.728 119.131L112.66 118.776L109.592 118.561L106.524 118.489L103.456 118.561L100.388 118.776L97.3198 119.131L94.2518 119.622L91.1837 120.244L88.1157 120.989L85.0476 121.85L81.9796 122.815L78.9115 123.876L75.8435 125.021L72.7754 126.239L69.7074 127.516L66.6393 128.84L63.5712 130.199L60.5032 131.582L54.3671 134.37L51.299 135.753L48.6261 136.94C47.862 130.155 47.9709 123.301 48.9502 116.544L51.2984 116.173L54.3664 115.635L57.4345 115.041L60.5025 114.388L63.5706 113.675L66.6386 112.9L69.7067 112.061L72.7747 111.158L75.8428 110.191L78.9108 109.162L81.9789 108.071L85.047 106.922L88.115 105.718L91.1831 104.465L94.2511 103.167L97.3192 101.834L100.387 100.47L103.455 99.0869L109.591 96.2991L112.659 94.9165L115.727 93.5571L118.796 92.2323L121.864 90.9559L124.932 89.7387L128 88.5938L131.068 87.5326L134.136 86.5663L137.204 85.7064L140.272 84.9613L143.34 84.339L146.409 83.8476L149.477 83.493L152.545 83.2785L155.613 83.2068Z" fill="white"/>
<path d="M155.613 82.8747L158.696 82.9464L161.779 83.1623L164.862 83.5189L167.944 84.0123L171.025 84.6365L174.105 85.3849L177.184 86.2483L180.262 87.2178L183.338 88.281L186.416 89.4299L189.489 90.6491L192.561 91.9275L195.632 93.2536L198.702 94.6137L201.492 95.8708C205.693 105.48 207.969 115.819 208.191 126.304L208.202 126.984L208.209 128.002L208.202 129.019C208.109 136.365 207.006 143.664 204.926 150.71L201.559 149.995L198.485 149.28L195.41 148.503L192.336 147.662L189.261 146.757L186.188 145.789L183.114 144.757L180.041 143.664L176.968 142.513L173.896 141.308L170.824 140.053L167.753 138.754L164.682 137.42L161.613 136.056L158.543 134.672L152.409 131.885L149.342 130.503L146.277 129.145L143.213 127.822L140.15 126.547L137.089 125.333L134.024 124.189L130.964 123.131L127.905 122.168L124.848 121.31L121.792 120.568L118.737 119.949L115.682 119.46L112.63 119.106L109.576 118.893L106.524 118.821L103.471 118.893L100.418 119.106L97.365 119.46L94.3102 119.949L91.2554 120.568L88.1993 121.31L85.1419 122.167L82.0832 123.131L79.0237 124.189L75.9656 125.33L72.9029 126.545L69.8388 127.82L66.7734 129.143L63.7074 130.502L60.64 131.884L54.5032 134.672L51.4338 136.056L48.3479 137.428C47.5146 130.388 47.6185 123.268 48.6567 116.255L51.2413 115.846L54.3033 115.308L57.3661 114.716L60.4275 114.065L63.4896 113.353L66.551 112.58L69.613 111.743L72.6751 110.841L75.7379 109.876L78.7999 108.849L81.8627 107.76L84.9261 106.612L87.9902 105.41L91.0542 104.159L94.119 102.863L97.185 101.53L100.251 100.167L103.318 98.7841L109.455 95.9963L112.525 94.613L115.597 93.2516L118.669 91.9261L121.741 90.6471L124.816 89.4279L127.888 88.281L130.964 87.2171L134.041 86.2483L137.12 85.3849L140.2 84.6372L143.282 84.013L146.363 83.5189L149.446 83.1623L152.53 82.9464L155.613 82.8747Z" fill="#7DB0BC"/>
<path d="M106.524 120.023L109.592 120.095L112.66 120.31L115.728 120.665L118.796 121.156L121.864 121.778L124.932 122.523L128 123.384L131.068 124.349L134.136 125.41L137.204 126.555L140.273 127.773L143.341 129.05L146.409 130.374L149.477 131.733L152.545 133.116L158.681 135.904L161.749 137.287L164.817 138.65L167.885 139.984L170.953 141.281L174.021 142.534L177.089 143.738L180.157 144.887L183.225 145.978L186.293 147.008L189.361 147.975L192.429 148.878L195.498 149.716L198.566 150.492L201.634 151.205L204.26 151.763C200.777 162.942 194.878 173.219 186.982 181.865C179.086 190.511 169.385 197.316 158.567 201.796C138.995 209.903 117.005 209.902 97.4332 201.795C77.8615 193.688 62.3117 178.139 54.2044 158.567C51.5291 152.109 49.7132 145.327 48.8034 138.395L51.2984 137.287L54.3664 135.904L60.5025 133.116L63.5706 131.733L66.6386 130.374L69.7067 129.05L72.7747 127.773L75.8428 126.555L78.9108 125.41L81.9789 124.349L85.0469 123.384L88.115 122.523L91.183 121.778L94.2511 121.156L97.3191 120.665L100.387 120.31L103.455 120.095L106.524 120.023Z" fill="#5C7DA2"/>
<path d="M112.66 140.706V150.995H131.068V165.203H149.477V174.922H167.885V179.024H186.293V182.609C175.189 194.463 160.735 202.65 144.859 206.078C128.983 209.506 112.438 208.012 97.4327 201.796C80.2777 194.69 66.1344 181.829 57.4345 165.425V155.839H75.8428V143.017H94.2511V140.706H112.66Z" fill="#444876"/>
<path d="M113.288 140.078V150.367H131.697V164.575H150.105V174.293H168.513V178.395H186.922L186.923 181.93C186.509 182.381 186.089 182.83 185.664 183.273L185.664 179.651H168.513V196.84C168.096 197.085 167.677 197.327 167.255 197.565V175.55L150.105 175.549V204.757C149.687 204.878 149.268 204.995 148.847 205.108V165.831H131.697V207.791C131.278 207.81 130.858 207.826 130.439 207.839V151.623H113.288V206.509C112.868 206.431 112.449 206.349 112.03 206.264L112.031 141.334H94.8793L94.88 200.686C94.4583 200.494 94.0393 200.299 93.6216 200.1L93.6222 143.646H76.471V189.032C76.0482 188.675 75.6292 188.314 75.2139 187.949V156.467H58.0627L58.062 166.585C57.6304 165.802 57.2107 165.012 56.8049 164.214L56.8063 155.21H75.2146V142.39H93.6229V140.078H113.288Z" fill="white"/>
<path d="M128 43C150.356 43.0006 171.812 51.8085 187.721 67.516C203.629 83.2234 212.709 104.566 212.993 126.92L213 128L212.993 129.08C212.709 151.434 203.629 172.777 187.721 188.484C171.812 204.191 150.356 212.999 128 213C105.457 212.999 83.8376 204.044 67.8971 188.104C51.9566 172.164 43.0009 150.544 43 128.001C43.0004 105.458 51.9558 83.8375 67.8964 67.8968C83.8369 51.9562 105.457 43.0005 128 43ZM128 45.7911C106.197 45.7917 85.2873 54.4531 69.8702 69.8702C54.4531 85.2873 45.7917 106.197 45.7911 128C45.7918 149.803 54.4534 170.713 69.8705 186.13C85.2876 201.547 106.197 210.208 128 210.209C149.622 210.208 170.373 201.689 185.759 186.498C201.145 171.306 209.927 150.665 210.202 129.045L210.209 128L210.202 126.956C209.927 105.335 201.145 84.694 185.76 69.5023C170.374 54.3106 149.622 45.7918 128 45.7911Z" fill="#444876"/>
</svg>