<svg width="256" height="256" title="Semantic UI" viewBox="0 0 256 256" fill="none" xmlns="http://www.w3.org/2000/svg">
<rect width="256" height="256" rx="40" fill="#00B5AD"/>
<path d="M162.807 94.3303C151.235 87.6165 140.963 82.3368 127.525 82.5696C119.837 82.7032 113.237 86.882 111.849 94.5298C110.557 101.645 116.882 105.592 123.462 108.015C134.375 112.033 143.876 116.276 154.599 120.745C174.092 128.868 184.088 142.025 182.906 158.905C181.403 180.383 168.477 195.787 147.934 200.866C121.091 207.503 95.024 197.393 73 183.281C78.5589 174.813 85.0081 169.032 90.5336 160.616C103.257 166.031 113.254 173.35 126.565 174.491C135.951 175.296 146.585 174.848 148.694 163.824C150.595 153.882 141.943 148.553 133.504 145.576C123.457 142.032 113.429 137.698 103.577 133.674C85.3643 126.235 77.9536 111.685 79.201 94.5444C79.201 84.4942 87.5397 64.1807 107.985 57.8625C139.398 48.1539 156.706 58.0953 179.485 72.7344C173.435 80.7358 168.783 86.4248 162.807 94.3303Z" fill="white"/>
</svg>