<svg version="1.1" xmlns="http://www.w3.org/2000/svg" width="225" height="225">
<path d="M0 0 C74.25 0 148.5 0 225 0 C225 74.25 225 148.5 225 225 C150.75 225 76.5 225 0 225 C0 150.75 0 76.5 0 0 Z " fill="#032D42" transform="translate(0,0)"/>
<path d="M0 0 C18.11381658 14.48842236 30.3750362 34.44502655 33.7421875 57.55859375 C34.02423351 61.33465253 34.07655845 65.08551794 34.0546875 68.87109375 C34.04731567 70.38884399 34.04731567 70.38884399 34.03979492 71.93725586 C33.92152771 79.4972599 33.09356678 86.3426201 30.7421875 93.55859375 C30.41347656 94.68007812 30.08476562 95.8015625 29.74609375 96.95703125 C25.37156741 110.67094429 16.49898833 126.0500485 4.2421875 134.18359375 C-0.5702094 136.07417825 -5.35436885 136.67776716 -10.29345703 134.77392578 C-12.27865765 133.69581302 -14.1720558 132.53302902 -16.0703125 131.30859375 C-31.40268213 122.05213137 -48.33337409 119.16825582 -66.03515625 122.20703125 C-72.76943035 124.11711627 -78.58142469 127.17653794 -84.50390625 130.875 C-89.92498966 134.18916589 -93.78985452 136.33920937 -100.2578125 135.55859375 C-112.69827095 131.42816486 -120.52163219 118.88508191 -126.28125 107.76953125 C-129.80850128 100.62316371 -132.64479719 93.38792192 -134.2578125 85.55859375 C-134.43957031 84.69105469 -134.62132812 83.82351562 -134.80859375 82.9296875 C-137.96637319 59.23261225 -132.98663724 38.3212326 -119.4453125 18.74609375 C-105.38471748 0.53557554 -85.85205107 -12.10968673 -62.97265625 -16 C-40.86151104 -18.62729696 -17.8887816 -13.73434054 0 0 Z " fill="#61D64D" transform="translate(163.2578125,50.44140625)"/>
<path d="M0 0 C12.55586132 -0.41561213 23.79630767 3.49753939 33.05078125 12.09765625 C40.74398815 20.63463423 44.4419476 30.51208882 44.3046875 41.86328125 C44.29711426 42.74145508 44.28954102 43.61962891 44.28173828 44.52441406 C43.95283806 57.56038616 39.53358755 66.81780942 30.2421875 75.80078125 C20.67217618 83.87432362 8.9541542 85.87091601 -3.15771484 85.28369141 C-14.23029483 84.32835632 -24.08017356 79.02653451 -31.265625 70.6171875 C-39.79298807 58.8965232 -41.302861 47.2941416 -40.1328125 33.11328125 C-38.60128679 25.62193264 -35.12711088 19.81066047 -30.1328125 14.11328125 C-29.39804688 13.20449219 -29.39804688 13.20449219 -28.6484375 12.27734375 C-22.97557036 5.84622209 -14.38170369 1.46457417 -5.8828125 0.23828125 C-3.92135647 0.17289938 -1.95978305 0.10409104 0 0 Z " fill="#032D42" transform="translate(110.1328125,75.88671875)"/>
</svg>
