<svg width="256" height="256" title="ServiceNow" viewBox="0 0 256 256" fill="none" xmlns="http://www.w3.org/2000/svg" id="servicenow">
<style>
#servicenow {
    rect {fill: #15191C}

    @media (prefers-color-scheme: light) {
        rect {fill: #F4F2ED}
    }
}
</style>
<rect width="256" height="256" rx="40" fill="#15191C"/>
<path fill-rule="evenodd" clip-rule="evenodd" d="M128.988 54.0221C112.394 53.9875 96.1732 58.9383 82.4273 68.2328C68.6814 77.5272 58.0446 90.7366 51.8958 106.148C45.7469 121.561 44.3697 138.464 47.9426 154.668C51.5154 170.872 59.8736 185.629 71.9336 197.026C74.7623 199.72 78.4619 201.312 82.3627 201.514C86.2635 201.717 90.1079 200.517 93.2004 198.13C103.404 190.537 115.783 186.437 128.502 186.437C141.22 186.437 153.6 190.537 163.803 198.13C166.925 200.522 170.803 201.712 174.729 201.482C178.655 201.253 182.368 199.621 185.191 196.883C197.156 185.528 205.458 170.858 209.032 154.755C212.607 138.651 211.29 121.847 205.252 106.496C199.214 91.1454 188.729 77.9477 175.141 68.5948C161.554 59.2418 145.482 54.1597 128.988 54M128.502 178.144C123.048 178.292 117.621 177.327 112.553 175.308C107.485 173.289 102.881 170.258 99.0227 166.401C95.1645 162.543 92.1326 157.94 90.1122 152.872C88.0917 147.805 87.1249 142.378 87.2709 136.925C87.2709 125.99 91.6149 115.503 99.347 107.771C107.079 100.038 117.566 95.6944 128.502 95.6944C139.436 95.6944 149.924 100.038 157.656 107.771C165.389 115.503 169.732 125.99 169.732 136.925C169.879 142.378 168.911 147.805 166.891 152.872C164.87 157.94 161.838 162.543 157.981 166.401C154.122 170.258 149.518 173.289 144.45 175.308C139.382 177.327 133.955 178.292 128.502 178.144Z" fill="#62D84E"/>
</svg>