<svg width="256" height="256" title="Signal" viewBox="0 0 256 256" fill="none" xmlns="http://www.w3.org/2000/svg">
<rect width="256" height="256" rx="40" fill="#3A76F0"/>
<path d="M108.794 50.3355L110.59 57.6087C103.513 59.3578 96.7394 62.1621 90.4973 65.9275L86.6561 59.4952C93.5269 55.3344 100.992 52.2456 108.794 50.3355ZM147.206 50.3355L145.41 57.6087C152.487 59.3578 159.261 62.1621 165.503 65.9275L169.389 59.4952C162.5 55.338 155.021 52.2496 147.206 50.3355ZM59.4951 86.6335C55.3381 93.5144 52.2497 100.986 50.3354 108.794L57.6086 110.59C59.3577 103.513 62.162 96.7395 65.9274 90.4974L59.4951 86.6335ZM55.4948 128C55.4943 124.363 55.7678 120.731 56.3131 117.136L48.9035 115.999C47.6988 123.947 47.6988 132.031 48.9035 139.978L56.3131 138.865C55.7687 135.269 55.4951 131.637 55.4948 128ZM169.344 196.482L165.503 190.073C159.27 193.842 152.504 196.646 145.433 198.391L147.229 205.665C155.021 203.736 162.477 200.64 169.344 196.482ZM200.505 128C200.505 131.637 200.231 135.269 199.687 138.865L207.097 139.978C208.301 132.031 208.301 123.947 207.097 115.999L199.687 117.136C200.232 120.731 200.506 124.363 200.505 128ZM205.665 147.183L198.391 145.388C196.646 152.473 193.842 159.255 190.073 165.503L196.505 169.367C200.666 162.48 203.754 155 205.665 147.183ZM138.864 199.687C131.663 200.778 124.337 200.778 117.136 199.687L116.022 207.097C123.962 208.301 132.038 208.301 139.978 207.097L138.864 199.687ZM186.368 171.003C182.048 176.861 176.868 182.034 171.003 186.345L175.458 192.391C181.918 187.636 187.632 181.944 192.414 175.503L186.368 171.003ZM171.003 69.6323C176.868 73.952 182.048 79.1318 186.368 84.997L192.414 80.4967C187.649 74.0504 181.95 68.3509 175.503 63.5864L171.003 69.6323ZM69.6322 84.997C73.9519 79.1318 79.1317 73.952 84.9969 69.6323L80.4966 63.5864C74.0503 68.3509 68.3508 74.0504 63.5863 80.4967L69.6322 84.997ZM196.505 86.6335L190.073 90.4974C193.841 96.7297 196.646 103.496 198.391 110.567L205.665 108.771C203.75 100.971 200.662 93.5064 196.505 86.6335ZM117.136 56.3132C124.337 55.2221 131.663 55.2221 138.864 56.3132L139.978 48.9036C132.038 47.6988 123.962 47.6988 116.022 48.9036L117.136 56.3132ZM73.4734 194.391L57.995 197.982L61.6089 182.504L54.3129 180.799L50.699 196.278C50.4729 197.237 50.4382 198.232 50.5969 199.205C50.7556 200.178 51.1046 201.111 51.6239 201.949C52.1432 202.787 52.8227 203.514 53.6234 204.089C54.4241 204.665 55.3304 205.076 56.2904 205.301C57.413 205.551 58.577 205.551 59.6997 205.301L75.1781 201.733L73.4734 194.391ZM55.8585 174.117L63.1772 175.799L65.6774 165.071C62.0263 158.946 59.3069 152.313 57.6086 145.388L50.3354 147.183C51.9714 153.812 54.446 160.205 57.6995 166.207L55.8585 174.117ZM90.861 190.345L80.133 192.846L81.8376 200.164L89.7245 198.323C95.7225 201.587 102.117 204.062 108.749 205.687L110.544 198.414C103.641 196.694 97.0306 193.959 90.9292 190.3L90.861 190.345ZM128 62.9955C92.0884 63.0182 63.0181 92.1339 63.0181 128.023C63.0379 140.247 66.4955 152.219 72.9961 162.571L66.7456 189.254L93.4066 183.004C123.795 202.119 163.934 193.005 183.049 162.639C202.164 132.273 193.073 92.1339 162.707 72.9962C152.311 66.4589 140.28 62.9921 128 62.9955Z" fill="white"/>
</svg>