<svg width="256" height="256" title="Simple DirectMedia Layer" viewBox="0 0 256 256" fill="none" xmlns="http://www.w3.org/2000/svg">
<rect width="256" height="256" rx="40" fill="white"/>
<path d="M121.913 172.914C101.234 172.209 81.5653 167.557 66.2702 159.758C64.83 159.023 61.6866 157.283 61.6866 157.22C61.6866 157.199 62.1855 157.433 62.7953 157.743C70.2818 161.544 79.6906 164.792 89.1896 166.854C104.255 170.127 120.755 170.998 136.929 169.37C152.19 167.834 166.445 164.108 178.618 158.473C189.561 153.407 198.324 146.925 204.159 139.592C213.121 128.311 214.319 115.235 207.459 103.639C203.017 96.1234 195.604 89.503 185.426 83.9646C184.452 83.434 183.687 83 183.727 83C183.861 83 188.167 85.0645 189.513 85.7753C196.088 89.2395 201.315 92.927 205.877 97.318C211.607 102.835 215.205 108.516 216.966 114.824C218.594 120.658 218.29 127.128 216.119 132.865C213.199 140.585 207.223 147.688 198.482 153.838C184.285 163.825 163.965 170.441 141.425 172.406C135.309 172.939 128.127 173.126 121.912 172.915L121.913 172.914Z" fill="url(#radialGradient)"/>
<path d="M173.628 146.471H173.518C173.467 146.453 173.394 146.441 173.297 146.433C173.201 146.424 173.095 146.421 172.978 146.421C172.839 146.421 172.693 146.439 172.54 146.478C172.386 146.517 172.238 146.562 172.093 146.615V149.315H170.763V145.283H172.093V145.861C172.154 145.808 172.238 145.742 172.346 145.662C172.453 145.582 172.552 145.518 172.64 145.47C172.737 145.415 172.849 145.367 172.977 145.328C173.105 145.288 173.226 145.269 173.34 145.269C173.383 145.269 173.431 145.27 173.484 145.272C173.537 145.274 173.585 145.277 173.628 145.284L173.628 146.471ZM168.791 149.421C167.985 149.421 167.368 149.239 166.938 148.875C166.509 148.511 166.294 147.993 166.294 147.321C166.294 146.663 166.494 146.138 166.895 145.745C167.295 145.352 167.855 145.156 168.575 145.156C169.228 145.156 169.72 145.322 170.049 145.655C170.378 145.988 170.543 146.464 170.543 147.084V147.536H167.628C167.64 147.723 167.682 147.879 167.753 148.005C167.824 148.13 167.918 148.23 168.035 148.304C168.149 148.378 168.282 148.432 168.434 148.464C168.586 148.496 168.752 148.512 168.931 148.512C169.086 148.512 169.238 148.497 169.387 148.464C169.537 148.432 169.673 148.389 169.798 148.336C169.907 148.291 170.007 148.242 170.1 148.189C170.192 148.137 170.267 148.09 170.326 148.049H170.466V149.087C170.357 149.128 170.258 149.165 170.168 149.2C170.078 149.235 169.954 149.27 169.797 149.306C169.653 149.342 169.504 149.37 169.351 149.39C169.198 149.411 169.011 149.421 168.79 149.421L168.791 149.421ZM169.232 146.779C169.223 146.513 169.159 146.311 169.036 146.172C168.913 146.034 168.725 145.964 168.472 145.964C168.213 145.964 168.011 146.037 167.866 146.183C167.72 146.329 167.64 146.528 167.624 146.779L169.232 146.779ZM166.573 145.282L164.418 150.791H162.989L163.635 149.216L162.07 145.281H163.468L164.365 147.808L165.205 145.281L166.573 145.282ZM160.75 148.261V147.421C160.525 147.442 160.342 147.462 160.203 147.477C160.063 147.492 159.927 147.523 159.792 147.568C159.676 147.607 159.585 147.665 159.521 147.743C159.456 147.821 159.424 147.924 159.424 148.053C159.424 148.242 159.478 148.372 159.585 148.442C159.693 148.513 159.852 148.548 160.062 148.548C160.179 148.548 160.298 148.524 160.42 148.473C160.541 148.423 160.651 148.352 160.75 148.261ZM160.75 148.886C160.659 148.958 160.577 149.022 160.505 149.08C160.432 149.137 160.336 149.195 160.214 149.252C160.095 149.307 159.979 149.349 159.866 149.378C159.753 149.408 159.596 149.421 159.393 149.421C159.016 149.421 158.702 149.301 158.452 149.062C158.203 148.823 158.078 148.521 158.078 148.157C158.078 147.858 158.141 147.617 158.268 147.432C158.395 147.248 158.577 147.102 158.815 146.994C159.056 146.884 159.343 146.808 159.678 146.765C160.012 146.721 160.372 146.688 160.757 146.664V146.643C160.757 146.42 160.67 146.267 160.497 146.182C160.323 146.097 160.063 146.054 159.716 146.054C159.559 146.054 159.375 146.081 159.165 146.135C158.954 146.189 158.749 146.258 158.549 146.341H158.435V145.368C158.567 145.332 158.78 145.29 159.073 145.241C159.367 145.192 159.664 145.168 159.963 145.168C160.697 145.168 161.233 145.283 161.568 145.514C161.904 145.745 162.072 146.097 162.072 146.571V149.313H160.749L160.75 148.886ZM158.267 149.313H154.49V143.969H155.912V148.294H158.268L158.267 149.313ZM150.758 148.261V147.421C150.533 147.442 150.35 147.462 150.211 147.477C150.072 147.492 149.935 147.523 149.801 147.568C149.684 147.607 149.593 147.665 149.529 147.743C149.464 147.821 149.432 147.924 149.432 148.053C149.432 148.242 149.486 148.372 149.594 148.442C149.701 148.513 149.861 148.548 150.071 148.548C150.187 148.548 150.306 148.524 150.428 148.473C150.549 148.423 150.659 148.352 150.758 148.261ZM150.758 148.886C150.667 148.958 150.585 149.022 150.513 149.08C150.441 149.137 150.344 149.195 150.222 149.252C150.103 149.307 149.987 149.349 149.875 149.378C149.762 149.408 149.604 149.421 149.401 149.421C149.024 149.421 148.711 149.301 148.461 149.062C148.211 148.823 148.087 148.521 148.087 148.157C148.087 147.858 148.15 147.617 148.277 147.432C148.403 147.248 148.586 147.102 148.824 146.994C149.064 146.884 149.352 146.808 149.686 146.765C150.021 146.721 150.381 146.688 150.766 146.664V146.643C150.766 146.42 150.679 146.267 150.505 146.182C150.332 146.097 150.072 146.054 149.724 146.054C149.567 146.054 149.384 146.081 149.173 146.135C148.963 146.189 148.758 146.258 148.558 146.341H148.444V145.368C148.576 145.332 148.788 145.29 149.082 145.241C149.376 145.192 149.672 145.168 149.971 145.168C150.706 145.168 151.241 145.283 151.577 145.514C151.913 145.745 152.08 146.097 152.08 146.571V149.313H150.758L150.758 148.886ZM147.853 149.313H146.523V145.281H147.853V149.313ZM147.891 144.709H146.485V143.729H147.891V144.709ZM145.974 149.313H144.644V148.893C144.558 148.96 144.46 149.032 144.35 149.109C144.24 149.185 144.143 149.243 144.059 149.281C143.953 149.329 143.848 149.364 143.744 149.389C143.64 149.413 143.516 149.425 143.371 149.425C142.885 149.425 142.5 149.234 142.216 148.854C141.932 148.473 141.79 147.965 141.79 147.328C141.79 146.976 141.839 146.671 141.935 146.413C142.031 146.154 142.164 145.929 142.334 145.738C142.488 145.563 142.676 145.425 142.896 145.323C143.117 145.221 143.35 145.171 143.595 145.171C143.818 145.171 144.001 145.192 144.145 145.237C144.288 145.282 144.454 145.35 144.644 145.444V143.728H145.974L145.974 149.313ZM144.644 148.2V146.222C144.578 146.191 144.493 146.166 144.386 146.145C144.28 146.124 144.188 146.115 144.112 146.115C143.793 146.115 143.553 146.22 143.392 146.431C143.231 146.641 143.151 146.935 143.151 147.314C143.151 147.711 143.215 147.998 143.343 148.175C143.471 148.352 143.678 148.441 143.964 148.441C144.081 148.441 144.198 148.42 144.318 148.376C144.437 148.333 144.545 148.274 144.644 148.2ZM140.129 149.421C139.323 149.421 138.706 149.239 138.277 148.875C137.847 148.512 137.633 147.993 137.633 147.321C137.633 146.663 137.833 146.138 138.233 145.745C138.633 145.352 139.193 145.156 139.913 145.156C140.566 145.156 141.058 145.322 141.387 145.655C141.716 145.988 141.881 146.464 141.881 147.084V147.536H138.966C138.978 147.723 139.02 147.879 139.092 148.005C139.163 148.13 139.256 148.23 139.373 148.304C139.487 148.378 139.62 148.432 139.772 148.464C139.924 148.496 140.09 148.512 140.27 148.512C140.424 148.512 140.576 148.497 140.726 148.464C140.875 148.432 141.012 148.389 141.136 148.336C141.245 148.291 141.346 148.242 141.438 148.189C141.53 148.137 141.606 148.09 141.664 148.049H141.805V149.087C141.696 149.128 141.596 149.165 141.506 149.2C141.416 149.235 141.293 149.27 141.136 149.306C140.991 149.342 140.843 149.37 140.689 149.39C140.536 149.411 140.349 149.421 140.129 149.421L140.129 149.421ZM140.57 146.779C140.561 146.513 140.497 146.311 140.374 146.172C140.252 146.034 140.063 145.964 139.81 145.964C139.552 145.964 139.349 146.037 139.204 146.183C139.058 146.329 138.978 146.528 138.963 146.779L140.57 146.779ZM136.086 149.314V147.3C136.086 147.102 136.083 146.934 136.074 146.798C136.065 146.661 136.043 146.55 136.006 146.464C135.968 146.378 135.909 146.315 135.829 146.275C135.749 146.236 135.637 146.216 135.492 146.216C135.391 146.216 135.291 146.237 135.192 146.279C135.093 146.321 134.985 146.38 134.869 146.456V149.314H133.531V147.3C133.531 147.104 133.528 146.937 133.519 146.8C133.51 146.662 133.487 146.55 133.449 146.464C133.411 146.378 133.352 146.315 133.272 146.276C133.192 146.236 133.081 146.216 132.939 146.216C132.83 146.216 132.724 146.241 132.62 146.288C132.516 146.336 132.415 146.393 132.316 146.457V149.315H130.986V145.283H132.316V145.728C132.534 145.553 132.739 145.417 132.932 145.319C133.125 145.221 133.341 145.172 133.582 145.172C133.843 145.172 134.072 145.23 134.27 145.347C134.467 145.465 134.618 145.639 134.722 145.871C134.978 145.646 135.219 145.474 135.446 145.353C135.673 145.232 135.903 145.171 136.136 145.171C136.333 145.171 136.511 145.202 136.668 145.261C136.825 145.321 136.958 145.411 137.067 145.531C137.186 145.66 137.275 145.814 137.335 145.992C137.394 146.17 137.424 146.403 137.424 146.69V149.315L136.086 149.314ZM129.851 149.393C129.309 149.393 128.914 149.288 128.668 149.077C128.42 148.866 128.297 148.522 128.297 148.043V146.159H127.788V145.283H128.297V144.131H129.627V145.283H130.908V146.159H129.627V147.588C129.627 147.729 129.627 147.852 129.63 147.957C129.633 148.063 129.652 148.157 129.691 148.241C129.726 148.325 129.789 148.391 129.879 148.44C129.969 148.489 130.1 148.514 130.272 148.514C130.343 148.514 130.436 148.499 130.551 148.47C130.666 148.44 130.747 148.415 130.793 148.392H130.906V149.278C130.762 149.314 130.609 149.342 130.447 149.363C130.284 149.384 130.086 149.393 129.85 149.393L129.851 149.393ZM126.678 149.423C126.325 149.423 126.003 149.381 125.711 149.297C125.418 149.214 125.164 149.084 124.949 148.91C124.736 148.735 124.57 148.516 124.451 148.251C124.332 147.987 124.272 147.675 124.272 147.316C124.272 146.931 124.337 146.603 124.466 146.332C124.595 146.062 124.77 145.839 124.99 145.665C125.203 145.497 125.453 145.373 125.741 145.293C126.029 145.213 126.328 145.173 126.64 145.173C126.876 145.173 127.111 145.2 127.347 145.25C127.582 145.301 127.819 145.384 128.057 145.496V146.573H127.886C127.833 146.525 127.768 146.472 127.691 146.415C127.613 146.357 127.529 146.305 127.438 146.257C127.342 146.207 127.233 146.164 127.111 146.129C126.99 146.095 126.854 146.077 126.704 146.077C126.365 146.077 126.102 146.189 125.916 146.413C125.73 146.637 125.637 146.938 125.637 147.316C125.637 147.72 125.736 148.022 125.935 148.22C126.134 148.419 126.398 148.518 126.728 148.518C126.895 148.518 127.042 148.5 127.168 148.465C127.295 148.429 127.404 148.386 127.495 148.335C127.584 148.285 127.66 148.233 127.723 148.179C127.787 148.125 127.841 148.077 127.887 148.034H128.058V149.111C127.982 149.142 127.894 149.178 127.794 149.218C127.694 149.259 127.592 149.293 127.488 149.319C127.359 149.352 127.238 149.378 127.125 149.396C127.012 149.414 126.864 149.423 126.679 149.423L126.678 149.423ZM122.618 149.423C121.813 149.423 121.195 149.241 120.766 148.878C120.337 148.514 120.122 147.996 120.122 147.323C120.122 146.665 120.322 146.14 120.722 145.747C121.123 145.355 121.682 145.159 122.402 145.159C123.055 145.159 123.547 145.325 123.876 145.658C124.205 145.99 124.37 146.466 124.37 147.086V147.538H121.455C121.467 147.725 121.509 147.881 121.58 148.007C121.651 148.133 121.745 148.232 121.862 148.307C121.976 148.381 122.109 148.434 122.261 148.467C122.413 148.499 122.579 148.515 122.759 148.515C122.913 148.515 123.065 148.5 123.215 148.467C123.364 148.434 123.501 148.392 123.625 148.339C123.734 148.293 123.835 148.244 123.927 148.192C124.019 148.139 124.095 148.093 124.153 148.052H124.294V149.089C124.185 149.13 124.085 149.168 123.996 149.202C123.906 149.237 123.782 149.272 123.625 149.308C123.481 149.344 123.332 149.372 123.179 149.393C123.025 149.414 122.839 149.423 122.618 149.423L122.618 149.423ZM123.059 146.781C123.054 146.516 122.986 146.313 122.864 146.175C122.74 146.036 122.552 145.966 122.299 145.966C122.041 145.966 121.838 146.039 121.693 146.185C121.547 146.331 121.467 146.53 121.452 146.781L123.059 146.781ZM120.388 146.472H120.278C120.227 146.454 120.153 146.442 120.058 146.435C119.961 146.426 119.855 146.423 119.738 146.423C119.599 146.423 119.453 146.441 119.299 146.48C119.146 146.518 118.997 146.564 118.853 146.616V149.317H117.523V145.285H118.853V145.862C118.914 145.81 118.998 145.743 119.106 145.663C119.213 145.583 119.311 145.519 119.4 145.471C119.496 145.416 119.608 145.369 119.736 145.33C119.864 145.29 119.985 145.27 120.099 145.27C120.142 145.27 120.19 145.271 120.243 145.273C120.297 145.276 120.345 145.279 120.388 145.286L120.388 146.472ZM116.97 149.316H115.64V145.284H116.97V149.316ZM117.008 144.711H115.602V143.731H117.008V144.711ZM115.346 146.65C115.346 147.147 115.231 147.593 115 147.987C114.77 148.38 114.478 148.682 114.126 148.893C113.833 149.073 113.512 149.188 113.167 149.239C112.821 149.291 112.453 149.317 112.063 149.317H110.292V143.972H112.048C112.445 143.972 112.818 143.997 113.165 144.044C113.512 144.092 113.838 144.208 114.142 144.392C114.514 144.617 114.808 144.921 115.023 145.302C115.239 145.684 115.346 146.133 115.346 146.65L115.346 146.65ZM113.887 146.637C113.887 146.286 113.823 145.985 113.695 145.735C113.567 145.485 113.37 145.289 113.104 145.148C112.911 145.047 112.709 144.992 112.498 144.983C112.286 144.974 112.034 144.967 111.74 144.967H111.712V148.313H111.74C112.059 148.313 112.328 148.307 112.547 148.298C112.766 148.286 112.975 148.223 113.172 148.106C113.405 147.967 113.583 147.775 113.704 147.531C113.826 147.287 113.887 146.989 113.887 146.638L113.887 146.637ZM106.435 149.425C105.629 149.425 105.011 149.243 104.582 148.879C104.153 148.516 103.938 147.997 103.938 147.325C103.938 146.667 104.138 146.142 104.538 145.749C104.939 145.356 105.499 145.16 106.218 145.16C106.872 145.16 107.363 145.326 107.693 145.659C108.022 145.992 108.187 146.468 108.187 147.088V147.54H105.271C105.284 147.727 105.326 147.883 105.397 148.009C105.468 148.134 105.562 148.234 105.678 148.308C105.792 148.382 105.925 148.436 106.077 148.468C106.229 148.5 106.395 148.516 106.575 148.516C106.73 148.516 106.882 148.501 107.031 148.468C107.181 148.436 107.317 148.393 107.441 148.34C107.55 148.295 107.651 148.246 107.743 148.193C107.836 148.141 107.911 148.094 107.969 148.053H108.11V149.091C108.001 149.132 107.902 149.169 107.812 149.204C107.722 149.239 107.598 149.274 107.441 149.31C107.297 149.346 107.148 149.374 106.995 149.394C106.841 149.415 106.655 149.425 106.434 149.425L106.435 149.425ZM106.875 146.783C106.87 146.517 106.802 146.315 106.68 146.176C106.557 146.038 106.369 145.968 106.115 145.968C105.857 145.968 105.655 146.041 105.509 146.187C105.363 146.333 105.283 146.532 105.268 146.783L106.875 146.783ZM103.697 149.318H102.367V143.734H103.697V149.318ZM102.122 147.247C102.122 147.891 101.95 148.41 101.604 148.805C101.258 149.2 100.832 149.397 100.325 149.397C100.112 149.397 99.9272 149.373 99.7703 149.329C99.6133 149.283 99.4461 149.213 99.2688 149.117V150.797H97.9388V145.287H99.2688V145.707C99.4638 145.549 99.6628 145.422 99.8655 145.323C100.068 145.225 100.302 145.176 100.569 145.176C101.062 145.176 101.445 145.362 101.716 145.732C101.987 146.103 102.123 146.608 102.123 147.247L102.122 147.247ZM100.762 147.271C100.762 146.878 100.698 146.594 100.57 146.417C100.442 146.239 100.243 146.151 99.9713 146.151C99.8522 146.151 99.7337 146.169 99.6159 146.205C99.498 146.241 99.3823 146.294 99.2683 146.366V148.394C99.3391 148.425 99.4172 148.443 99.5019 148.455C99.5867 148.468 99.6875 148.474 99.8039 148.474C100.128 148.474 100.369 148.374 100.526 148.174C100.683 147.974 100.762 147.673 100.762 147.271L100.762 147.271ZM96.0807 149.318V147.304C96.0807 147.106 96.0775 146.938 96.0685 146.802C96.0629 146.665 96.0382 146.554 96.0002 146.468C95.9622 146.382 95.9033 146.319 95.8234 146.279C95.7435 146.24 95.6314 146.22 95.487 146.22C95.3855 146.22 95.2855 146.241 95.1869 146.283C95.0881 146.325 94.9803 146.384 94.8639 146.46V149.318H93.5262V147.304C93.5262 147.108 93.523 146.941 93.5141 146.804C93.5051 146.666 93.4818 146.554 93.4438 146.468C93.4059 146.382 93.347 146.319 93.267 146.28C93.1872 146.24 93.0766 146.22 92.9346 146.22C92.8258 146.22 92.7192 146.245 92.6155 146.292C92.5115 146.34 92.4101 146.397 92.3115 146.461V149.319H90.9816V145.287H92.3115V145.732C92.5294 145.557 92.7345 145.421 92.9272 145.323C93.1198 145.224 93.3363 145.175 93.5771 145.175C93.8381 145.175 94.0674 145.234 94.265 145.351C94.4628 145.469 94.6133 145.643 94.7173 145.875C94.9732 145.65 95.2144 145.477 95.4413 145.357C95.6679 145.236 95.8979 145.175 96.1309 145.175C96.3284 145.175 96.5058 145.206 96.6629 145.265C96.82 145.325 96.953 145.415 97.062 145.534C97.1811 145.664 97.2704 145.817 97.3299 145.995C97.3893 146.174 97.4191 146.406 97.4191 146.694V149.319L96.0807 149.318ZM90.4287 149.318H89.0987V145.286H90.4287V149.318ZM90.4666 144.714H89.0606V143.733H90.4666V144.714ZM86.4636 149.415C86.0303 149.415 85.6498 149.375 85.3217 149.297C84.9936 149.218 84.6889 149.12 84.4077 149.002V147.732H84.5368C84.8205 147.959 85.1334 148.134 85.4754 148.256C85.8174 148.378 86.1495 148.439 86.471 148.439C86.5521 148.439 86.659 148.43 86.792 148.414C86.9251 148.396 87.032 148.371 87.113 148.336C87.2118 148.295 87.2953 148.238 87.3638 148.165C87.4321 148.092 87.4665 147.996 87.4665 147.876C87.4665 147.742 87.4109 147.633 87.2994 147.55C87.188 147.466 87.0547 147.405 86.9003 147.366C86.7077 147.319 86.502 147.273 86.2829 147.23C86.0639 147.187 85.8592 147.134 85.6692 147.072C85.2308 146.926 84.9169 146.73 84.7268 146.483C84.5369 146.237 84.4419 145.928 84.4419 145.557C84.4419 145.057 84.6661 144.652 85.1144 144.342C85.5628 144.032 86.1226 143.877 86.794 143.877C87.1309 143.877 87.466 143.909 87.799 143.974C88.1322 144.039 88.4306 144.126 88.694 144.236V145.457H88.5685C88.3583 145.287 88.1019 145.143 87.7989 145.026C87.4964 144.909 87.1852 144.85 86.8661 144.85C86.7418 144.85 86.6303 144.859 86.5316 144.874C86.4329 144.892 86.329 144.923 86.2201 144.971C86.1314 145.01 86.0549 145.066 85.9901 145.142C85.9254 145.217 85.8932 145.301 85.8932 145.395C85.8932 145.531 85.9445 145.64 86.0473 145.72C86.15 145.8 86.3481 145.872 86.642 145.937C86.8319 145.978 87.015 146.017 87.1911 146.055C87.3673 146.094 87.5553 146.146 87.7554 146.213C88.1481 146.348 88.4401 146.528 88.6314 146.754C88.8228 146.98 88.9182 147.278 88.9182 147.649C88.9182 148.181 88.6974 148.608 88.2552 148.931C87.8132 149.254 87.2158 149.415 86.4635 149.415L86.4636 149.415Z" fill="#173556"/>
<path d="M173.14 140.333H136.598V88.6362H150.347V130.484H173.138L173.14 140.333ZM133.012 114.521C133.012 119.337 131.897 123.648 129.668 127.456C127.437 131.265 124.618 134.186 121.213 136.224C118.371 137.96 115.275 139.077 111.931 139.574C108.587 140.072 105.025 140.32 101.251 140.32H84.1218V88.6234H101.105C104.952 88.6234 108.555 88.8548 111.911 89.3179C115.268 89.781 118.417 90.9037 121.359 92.6851C124.962 94.8612 127.804 97.7966 129.887 101.489C131.97 105.181 133.012 109.528 133.012 114.528V114.521ZM118.895 114.417C118.895 111.013 118.277 108.102 117.039 105.683C115.801 103.264 113.897 101.372 111.324 100.007C109.461 99.0344 107.506 98.5021 105.459 98.4094C103.413 98.317 100.968 98.2705 98.1264 98.2705H97.869V130.633H98.1264C101.215 130.633 103.817 130.581 105.937 130.476C108.057 130.372 110.072 129.753 111.985 128.619C114.239 127.276 115.956 125.424 117.132 123.063C118.308 120.702 118.896 117.821 118.896 114.417L118.895 114.417ZM57.886 141.248C53.6951 141.248 50.0141 140.866 46.8404 140.102C43.6667 139.338 40.7199 138.389 38 137.254V124.962H39.2499C41.9943 127.161 45.0216 128.85 48.3294 130.032C51.6372 131.213 54.8475 131.803 57.9602 131.803C58.7444 131.803 59.7797 131.722 61.0655 131.56C62.3521 131.398 63.3876 131.143 64.1709 130.796C65.1266 130.403 65.9353 129.853 66.5971 129.147C67.2587 128.441 67.5897 127.509 67.5897 126.352C67.5897 125.056 67.0506 124.002 65.9721 123.191C64.8937 122.381 63.6071 121.79 62.113 121.42C60.2505 120.957 58.2587 120.517 56.1389 120.101C54.0191 119.684 52.0407 119.175 50.2014 118.573C45.9617 117.161 42.9222 115.261 41.0854 112.879C39.2473 110.495 38.3288 107.508 38.3288 103.92C38.3288 99.0826 40.4977 95.1647 44.8347 92.1663C49.172 89.1678 54.5874 87.6685 61.0836 87.6685C64.3426 87.6686 67.5846 87.981 70.807 88.6062C74.0295 89.2313 76.9153 90.0763 79.4645 91.1413V102.948H78.2513C76.2171 101.305 73.736 99.916 70.8063 98.7806C67.8766 97.6462 64.8688 97.079 61.7805 97.079C60.5796 97.0791 59.5014 97.16 58.5459 97.3219C57.5901 97.4841 56.5853 97.7964 55.5308 98.2595C54.6731 98.63 53.9317 99.1797 53.3068 99.9089C52.6818 100.638 52.3693 101.454 52.3693 102.357C52.3693 103.676 52.8655 104.724 53.8581 105.498C54.8507 106.274 56.7683 106.974 59.6102 107.599C61.4483 107.993 63.218 108.375 64.9232 108.745C66.6264 109.115 68.4457 109.625 70.3826 110.273C74.1807 111.569 77.0055 113.31 78.857 115.498C80.7073 117.686 81.6331 120.573 81.6331 124.161C81.6331 129.3 79.4947 133.433 75.2175 136.558C70.9412 139.683 65.1623 141.245 57.8855 141.245L57.886 141.248Z" fill="#173556"/>
<path fill-rule="evenodd" clip-rule="evenodd" d="M80.3455 164.156C80.0067 164.156 79.7325 164.393 79.7325 164.685C79.7325 164.976 80.007 165.213 80.3455 165.213C80.6839 165.213 80.9586 164.976 80.9586 164.685C80.9586 164.393 80.6839 164.156 80.3455 164.156ZM106.618 168.896C106.089 168.896 105.66 169.266 105.66 169.723C105.66 170.179 106.089 170.549 106.618 170.549C107.147 170.549 107.576 170.179 107.576 169.723C107.576 169.266 107.147 168.896 106.618 168.896ZM92.9841 167.106C92.5606 167.106 92.2174 167.402 92.2174 167.768C92.2174 168.133 92.5606 168.429 92.9841 168.429C93.4076 168.429 93.7503 168.133 93.7503 167.768C93.7503 167.402 93.4073 167.106 92.9841 167.106ZM121.549 169.428C120.888 169.428 120.352 169.89 120.352 170.461C120.352 171.031 120.888 171.493 121.549 171.493C122.211 171.493 122.747 171.031 122.747 170.461C122.747 169.89 122.211 169.428 121.549 169.428ZM136.969 168.631C136.143 168.631 135.473 169.209 135.473 169.922C135.473 170.635 136.143 171.213 136.969 171.213C137.796 171.213 138.466 170.635 138.466 169.922C138.466 169.209 137.796 168.631 136.969 168.631ZM152.423 166.006C151.389 166.006 150.552 166.729 150.552 167.62C150.552 168.511 151.389 169.234 152.423 169.234C153.456 169.234 154.294 168.511 154.294 167.62C154.294 166.728 153.456 166.006 152.423 166.006ZM167.886 161.202C166.594 161.202 165.547 162.105 165.547 163.219C165.547 164.333 166.594 165.237 167.886 165.237C169.178 165.237 170.225 164.333 170.225 163.219C170.225 162.105 169.178 161.202 167.886 161.202ZM182.693 154.81C181.258 154.81 180.095 155.814 180.095 157.052C180.095 158.29 181.258 159.293 182.693 159.293C184.128 159.293 185.291 158.29 185.291 157.052C185.291 155.814 184.128 154.81 182.693 154.81ZM196.19 145.621C194.596 145.621 193.302 146.735 193.302 148.11C193.302 149.485 194.595 150.601 196.19 150.601C197.785 150.601 199.079 149.486 199.079 148.11C199.079 146.734 197.786 145.621 196.19 145.621ZM207.321 132.69C205.248 132.69 203.567 134.14 203.567 135.929C203.567 137.717 205.248 139.168 207.321 139.168C209.395 139.168 211.076 137.718 211.076 135.929C211.076 134.141 209.395 132.69 207.321 132.69ZM212.103 119.277C210.508 119.277 209.214 120.392 209.214 121.769C209.214 123.144 210.507 124.258 212.103 124.258C213.698 124.258 214.991 123.143 214.991 121.769C214.991 120.393 213.698 119.277 212.103 119.277ZM210.491 110.905C211.63 110.905 212.554 110.109 212.554 109.127C212.554 108.144 211.63 107.348 210.491 107.348C209.352 107.348 208.429 108.144 208.429 109.127C208.429 110.109 209.352 110.905 210.491 110.905ZM205.453 101.231C206.267 101.231 206.926 100.661 206.926 99.9598C206.926 99.2582 206.267 98.6896 205.453 98.6896C204.64 98.6896 203.98 99.2582 203.98 99.9598C203.98 100.661 204.64 101.231 205.453 101.231ZM199.916 93.1181C199.373 93.1181 198.934 93.4976 198.934 93.9655C198.934 94.433 199.374 94.8124 199.916 94.8124C200.458 94.8124 200.898 94.433 200.898 93.9655C200.898 93.4976 200.459 93.1181 199.916 93.1181ZM194.022 89.7946C194.384 89.7946 194.677 89.5418 194.677 89.2298C194.677 88.9181 194.384 88.6651 194.022 88.6651C193.66 88.6651 193.368 88.9179 193.368 89.2298C193.368 89.5416 193.66 89.7946 194.022 89.7946Z" fill="#173556"/>
<radialGradient id="radialGradient" cx="0" cy="0" r="1" gradientUnits="userSpaceOnUse" gradientTransform="translate(200.681 142.635) rotate(-120.683) scale(59.8628 109.911)">
<stop stop-color="#656F71"/>
<stop offset="1" stop-color="#D3D4CF"/>
</radialGradient>
</svg>