<svg width="256" height="256" title="Singularity" viewBox="0 0 256 256" fill="none" xmlns="http://www.w3.org/2000/svg">
<rect width="256" height="256" rx="40" fill="white"/>
<path d="M127.731 36C78.2648 36.1492 38.1894 77.1173 38 127.71H56.5188C56.7082 87.7148 88.4993 55.3396 127.727 55.2406L127.73 36H127.731Z" fill="#23A0DA"/>
<path d="M131.865 36.0832V55.3511C169.337 57.4419 199.115 89.0063 199.298 127.71H218C217.815 78.3499 179.662 38.1496 131.865 36.0832Z" fill="#88C233"/>
<path d="M127.729 200.898C89.6832 200.803 58.6325 170.348 56.6221 132.025H38.0789C40.1008 180.949 79.4415 219.992 127.729 220.139V200.898Z" fill="#BBBDBF"/>
<path d="M199.196 132.025C197.253 169.071 168.171 198.764 131.867 200.788V220.054C178.497 218.038 215.949 179.727 217.921 132.025H199.196Z" fill="#F49300"/>
<path d="M146.973 117.279C146.973 117.279 142.656 115.66 136.183 112.964C127.552 109.368 129.169 105.591 129.169 105.591C129.169 105.591 130.968 99.2967 141.576 101.455C152.648 103.707 160.819 115.301 160.819 115.301L171.428 84.9108C155.063 78.2567 130.511 77.941 119.998 78.977C96.2612 81.3147 86.3712 95.306 86.3712 109.458C86.3712 120.294 90.3275 128.249 99.5833 133.306C110.598 140.183 120.623 140.753 123.416 145.873C127.114 152.653 118.38 153.965 118.38 153.965C103.996 155.044 92.8459 139.039 92.8459 139.039L82.4148 170.868C122.876 184.535 150.748 175.184 150.748 175.184C163.516 170.868 173.406 162.057 173.406 147.131C173.401 132.434 164.951 123.755 146.97 117.28L146.973 117.279Z" fill="#162C50"/>
</svg>