<svg width="256" height="256" title="Skeleton UI" viewBox="0 0 256 256" fill="none" xmlns="http://www.w3.org/2000/svg" id="skeletonui">
<style>
#skeletonui {
    rect {fill: #15191C}
    path {fill: #F4F2ED}

    @media (prefers-color-scheme: light) {
        rect {fill: #F4F2ED}
        path {fill: #15191C}
    }
}
</style>
<rect width="256" height="256" rx="40" fill="#15191C"/>
<path fill-rule="evenodd" clip-rule="evenodd" d="M127.378 85.2515C149.106 85.2515 167.655 92.7751 180.929 105.135C182.701 104.588 184.202 104.027 185.434 103.452C189.198 101.697 194.142 98.0985 200.263 92.6552C199.269 102.136 198.201 109.096 197.062 113.536C196.45 115.913 195.506 118.793 194.224 122.172C197.702 128.501 200.169 135.334 201.537 142.425C206.774 168.674 197.805 180.281 176.996 186.76C177.152 187.54 177.275 188.378 177.361 189.275C178.105 196.954 174.222 209.354 169.56 209.354C166.495 209.354 164.501 205.084 162.363 198.852C161.694 206.069 158.405 214.354 154.593 214.354C151.383 214.354 149.349 209.673 147.092 202.957L146.774 202.008C146.246 200.405 145.7 198.697 145.12 196.92C144.976 197.605 144.824 198.307 144.667 199.018L144.473 199.875C142.867 206.888 140.535 214.354 136.769 214.354C132.396 214.354 134.794 200.588 127.422 194.755C90.0457 196.792 58.6037 182.975 58.6037 143.11C58.6037 135.774 60.3401 128.607 63.5226 121.956C62.968 120.871 62.4382 119.772 61.9335 118.663C59.4531 113.187 56.4743 104.898 53 93.8007C61.8887 100.432 68.7059 104.383 73.4514 105.652C73.9267 105.78 74.4208 105.891 74.9351 105.985C87.3833 93.5133 105.994 85.2515 127.378 85.2515ZM118.658 139.032C106.029 139.032 95.791 148.974 95.791 161.238C95.791 173.503 106.029 183.445 118.658 183.445C131.285 183.445 141.523 173.503 141.523 161.238C141.523 149.124 131.534 139.274 119.117 139.035L118.658 139.032ZM151.113 166.768C147.292 166.768 145.276 174.928 145.276 178.588C145.276 181.447 146.236 183.025 147.799 183.312C151.592 183.665 150.435 178.136 152.323 178.136C154.337 178.136 156.695 183.792 158.668 183.025C161.011 181.629 160.115 178.59 159.306 176.186C156.456 170.147 154.934 166.768 151.113 166.768ZM119.187 142.237C130.092 142.237 138.932 150.706 138.932 161.152C138.932 171.598 130.091 180.066 119.187 180.066C118.516 180.066 117.853 180.034 117.199 179.971C127.171 179.017 134.956 170.955 134.956 161.152C134.956 151.348 127.17 143.286 117.2 142.331C117.853 142.269 118.516 142.237 119.187 142.237ZM175.974 137.73C167.272 137.73 160.218 146.461 160.218 157.232C160.218 168.003 167.272 176.736 175.974 176.736C184.677 176.736 191.731 168.003 191.731 157.234C191.731 146.461 184.677 137.73 175.974 137.73ZM176.483 140.949C183.749 140.949 189.639 148.228 189.639 157.208C189.639 166.186 183.749 173.466 176.483 173.466C175.82 173.466 175.158 173.405 174.507 173.284C180.834 172.105 185.687 165.357 185.687 157.208C185.687 149.059 180.834 142.31 174.507 141.131C175.158 141.009 175.82 140.948 176.483 140.949ZM179.508 78.4112C180.014 78.7392 180.155 79.4138 179.829 79.9194L177.24 83.9066C177.098 84.1256 176.882 84.2863 176.631 84.3595C176.381 84.4326 176.112 84.4134 175.875 84.3053L175.733 84.2273C175.613 84.1494 175.51 84.0486 175.429 83.9308C175.348 83.8129 175.291 83.6802 175.261 83.5403C175.231 83.4004 175.229 83.256 175.255 83.1153C175.281 82.9747 175.335 82.8405 175.412 82.7205L178.001 78.7334C178.079 78.6133 178.18 78.5097 178.297 78.4285C178.415 78.3473 178.548 78.2901 178.688 78.2602C178.828 78.2302 178.972 78.2282 179.113 78.2541C179.254 78.28 179.388 78.3334 179.508 78.4112ZM76.0734 77.3596L76.1745 77.4852L78.561 80.8945C78.7211 81.1313 78.7818 81.4214 78.7299 81.7025C78.678 81.9835 78.5177 82.2329 78.2836 82.3968C78.0495 82.5608 77.7604 82.6262 77.4785 82.5789C77.1967 82.5316 76.9447 82.3755 76.7769 82.1441L74.3904 78.7348C74.2307 78.5097 74.1624 78.2323 74.1994 77.9587C74.2364 77.6852 74.3758 77.4358 74.5896 77.2612C74.8034 77.0865 75.0755 76.9995 75.3509 77.0177C75.6264 77.036 75.8846 77.1582 76.0734 77.3596ZM130.943 41L133.412 61.9123L142.615 51.5674L142.854 77.3191L141.029 76.9146C135.707 75.7329 130.879 75.145 126.548 75.145C122.249 75.145 118.22 75.7257 114.454 76.8843L112.426 77.5098L114.087 45.3006L122.506 61.2174L130.943 41ZM129.321 52.6003L122.823 68.1704L116.498 56.2133L115.607 73.4779L115.796 73.4316C119.119 72.6125 122.61 72.1936 126.274 72.1748L126.548 72.1734C130.518 72.1734 134.851 72.6386 139.55 73.5674L139.849 73.6267L139.716 59.2961L131.236 68.8262L129.321 52.6003ZM162.997 69.2711C163.275 69.3508 163.51 69.5375 163.651 69.7902C163.791 70.0429 163.825 70.341 163.746 70.619L163.418 71.7617C163.345 72.0148 163.184 72.2331 162.963 72.3763C162.742 72.5194 162.477 72.5777 162.216 72.5403L162.071 72.5085C161.934 72.4693 161.805 72.4032 161.693 72.3142C161.581 72.2252 161.487 72.115 161.418 71.9898C161.348 71.8646 161.304 71.7269 161.288 71.5847C161.272 71.4424 161.284 71.2983 161.323 71.1607L161.651 70.018C161.731 69.7405 161.917 69.506 162.17 69.3659C162.422 69.2259 162.72 69.1918 162.997 69.2711ZM97.1966 68.0432L97.8091 69.9299C97.8944 70.1924 97.8768 70.4776 97.7599 70.7277C97.643 70.9777 97.4354 71.1741 97.1793 71.277C96.9232 71.38 96.6375 71.3818 96.38 71.2822C96.1226 71.1825 95.9126 70.9889 95.7924 70.7403L95.7375 70.6031L95.125 68.7179C95.0409 68.4446 95.0676 68.1492 95.1994 67.8954C95.3312 67.6416 95.5575 67.4499 95.8294 67.3615C96.1014 67.2731 96.3972 67.2952 96.6529 67.423C96.9087 67.5509 97.104 67.7741 97.1966 68.0447V68.0432Z" fill="white"/>
</svg>