<svg width="256" height="256" title="Slint" viewBox="0 0 256 256" fill="none" xmlns="http://www.w3.org/2000/svg" id="slint">
<style>
#slint {
    rect {fill: #15191C}

    @media (prefers-color-scheme: light) {
        rect {fill: #F4F2ED}
    }
}
</style>
<rect width="256" height="256" rx="40" fill="#15191C"/>
<path d="M90.2105 210.409L136.994 178.101L183.778 145.794C183.778 145.794 188 143.377 188 139.563C188 134.483 182.66 132.831 182.66 132.831L131.186 112.533C129.349 111.815 126.821 113.826 129.188 116.375L146.23 133.369C146.23 133.369 150.963 138.005 150.963 141.045C150.963 144.085 148.057 146.795 148.057 146.795L86.0448 206.5C83.8389 208.624 86.8211 212.476 90.2105 210.409Z" fill="#2379F4"/>
<path d="M165.79 46.596L72.2225 111.202C72.2225 111.202 68 113.619 68 117.433C68 122.512 73.3397 124.164 73.3397 124.164L124.814 144.472C126.651 145.18 129.188 143.169 126.812 140.63L109.77 123.579C109.77 123.579 105.037 118.953 105.037 115.903C105.037 112.854 107.943 110.154 107.943 110.154L169.917 50.4952C172.161 48.371 169.188 44.519 165.79 46.596Z" fill="#2379F4"/>
</svg>