<svg width="256" height="256" title="Slurm" viewBox="0 0 256 256" fill="none" xmlns="http://www.w3.org/2000/svg" id="slurm">
<style>
#slurm {
    rect {fill: #15191C}
    path.slurm {fill: #F4F2ED}

    @media (prefers-color-scheme: light) {
        rect {fill: #F4F2ED}
        path.slurm {fill: #15191C}
    }
}
</style>
<rect width="256" height="256" rx="40" fill="#15191C"/>
<path d="M122.675 50.3907C119.783 50.3907 117.439 52.7178 117.439 55.5892V65.595C117.439 68.4645 119.783 70.7943 122.675 70.7943H133.075C135.967 70.7943 138.314 68.4645 138.314 65.595V55.5892C138.314 52.7178 135.967 50.3907 133.075 50.3907H122.675ZM148.237 66.2227C146.065 66.2227 144.303 68.0023 144.303 70.1916V77.8268C144.303 80.0184 146.065 81.7968 148.237 81.7968H156.051C158.223 81.7968 159.984 80.0184 159.984 77.8268V70.1916C159.984 68.0023 158.223 66.2227 156.051 66.2227H148.237ZM99.6986 66.2227C97.5269 66.2227 95.7649 68.0023 95.7649 70.1916V77.8268C95.7649 80.0184 97.5269 81.7968 99.6986 81.7968H107.512C109.683 81.7968 111.446 80.0184 111.446 77.8268V70.1916C111.446 68.0023 109.683 66.2227 107.512 66.2227H99.6986ZM122.675 74.9804C119.783 74.9804 117.439 77.3062 117.439 80.1795V90.1845C117.439 93.0555 119.783 95.3845 122.675 95.3845H133.075C135.967 95.3845 138.314 93.0555 138.314 90.1845V80.1795C138.314 77.3062 135.967 74.9804 133.075 74.9804H122.675ZM168.337 79.671C166.722 79.671 165.412 80.9923 165.412 82.624V88.3039C165.412 89.9321 166.722 91.2543 168.337 91.2543H174.15C175.765 91.2543 177.075 89.9321 177.075 88.3039V82.624C177.075 80.9923 175.765 79.671 174.15 79.671H168.337ZM81.856 79.671C80.2408 79.671 78.9297 80.9923 78.9297 82.624V88.3039C78.9297 89.9321 80.2408 91.2543 81.856 91.2543H87.6671C89.2843 91.2543 90.5939 89.9321 90.5939 88.3039V82.624C90.5939 80.9923 89.2843 79.671 87.6671 79.671H81.856ZM148.237 85.6489C146.065 85.6489 144.303 87.4257 144.303 89.6153V97.253C144.303 99.4428 146.065 101.22 148.237 101.22H156.051C158.223 101.22 159.984 99.4428 159.984 97.253V89.6153C159.984 87.4257 158.223 85.6489 156.051 85.6489H148.237ZM99.6986 85.6489C97.5269 85.6489 95.7649 87.4257 95.7649 89.6153V97.253C95.7649 99.4428 97.5269 101.22 99.6986 101.22H107.512C109.683 101.22 111.446 99.4428 111.446 97.253V89.6153C111.446 87.4257 109.683 85.6489 107.512 85.6489H99.6986ZM168.337 95.2703C166.722 95.2703 165.412 96.5909 165.412 98.2205V103.901C165.412 105.529 166.722 106.852 168.337 106.852H174.15C175.765 106.852 177.075 105.529 177.075 103.901V98.2205C177.075 96.5909 175.765 95.2703 174.15 95.2703H168.337ZM81.856 95.2703C80.2408 95.2703 78.9297 96.5909 78.9297 98.2205V103.901C78.9297 105.529 80.2408 106.852 81.856 106.852H87.6671C89.2843 106.852 90.5939 105.529 90.5939 103.901V98.2205C90.5939 96.5909 89.2843 95.2703 87.6671 95.2703H81.856ZM122.675 99.3562C119.783 99.3562 117.439 101.684 117.439 104.556V114.562C117.439 117.433 119.783 119.759 122.675 119.759H133.075C135.967 119.759 138.314 117.433 138.314 114.562V104.556C138.314 101.684 135.967 99.3562 133.075 99.3562H122.675ZM185.516 103.631C184.314 103.631 183.342 104.613 183.342 105.823V110.039C183.342 111.248 184.314 112.229 185.516 112.229H189.83C191.028 112.229 191.999 111.248 191.999 110.039V105.823C191.999 104.613 191.028 103.631 189.83 103.631H185.516ZM66.1769 103.631C64.9772 103.631 64.0052 104.613 64.0052 105.823V110.039C64.0052 111.248 64.9772 112.229 66.1769 112.229H70.4896C71.6901 112.229 72.6618 111.248 72.6618 110.039V105.823C72.6618 104.613 71.6901 103.631 70.4896 103.631H66.1769ZM148.237 105.079C146.065 105.079 144.303 106.854 144.303 109.044V116.68C144.303 118.872 146.065 120.649 148.237 120.649H156.051C158.223 120.649 159.984 118.872 159.984 116.68V109.044C159.984 106.854 158.223 105.079 156.051 105.079H148.237ZM99.6986 105.079C97.5269 105.079 95.7649 106.854 95.7649 109.044V116.68C95.7649 118.872 97.5269 120.649 99.6986 120.649H107.512C109.683 120.649 111.446 118.872 111.446 116.68V109.044C111.446 106.854 109.683 105.079 107.512 105.079H99.6986ZM168.337 110.986C166.722 110.986 165.412 112.31 165.412 113.941V119.62C165.412 121.252 166.722 122.571 168.337 122.571H174.15C175.765 122.571 177.075 121.252 177.075 119.62V113.941C177.075 112.31 175.765 110.986 174.15 110.986H168.337ZM81.856 110.986C80.2408 110.986 78.9297 112.31 78.9297 113.941V119.62C78.9297 121.252 80.2408 122.571 81.856 122.571H87.6671C89.2843 122.571 90.5939 121.252 90.5939 119.62V113.941C90.5939 112.31 89.2843 110.986 87.6671 110.986H81.856ZM185.516 116.473C184.314 116.473 183.342 117.454 183.342 118.663V122.879C183.342 124.087 184.314 125.071 185.516 125.071H189.83C191.028 125.071 191.999 124.087 191.999 122.879V118.663C191.999 117.454 191.028 116.473 189.83 116.473H185.516ZM66.1769 116.473C64.9772 116.473 64.0052 117.454 64.0052 118.663V122.879C64.0052 124.087 64.9772 125.071 66.1769 125.071H70.4896C71.6901 125.071 72.6618 124.087 72.6618 122.879V118.663C72.6618 117.454 71.6901 116.473 70.4896 116.473H66.1769ZM199.76 120.686C198.854 120.686 198.118 121.425 198.118 122.339V125.519C198.118 126.43 198.854 127.171 199.76 127.171H203.014C203.916 127.171 204.651 126.43 204.651 125.519V122.339C204.651 121.425 203.916 120.686 203.014 120.686H199.76ZM52.9934 120.686C52.0883 120.686 51.3535 121.425 51.3535 122.339V125.519C51.3535 126.43 52.0883 127.171 52.9934 127.171H56.2457C57.1511 127.171 57.8838 126.43 57.8838 125.519V122.339C57.8838 121.425 57.1511 120.686 56.2457 120.686H52.9934Z" fill="#42AFEB"/>
<path d="M78.8936 187.764V201.944H80.0411V197.081C80.7242 197.574 83.4936 199.553 85.1504 200.715C86.4017 201.531 86.3635 201.84 86.3799 201.944H87.9099C87.9099 201.208 87.075 200.841 86.134 200.196C85.5624 199.801 81.3253 196.835 81.3253 196.835C81.3253 196.835 85.4509 194.113 86.0247 193.72C86.9635 193.075 87.7187 192.71 87.7187 191.972H86.2433C86.2302 192.073 86.2947 192.384 85.0411 193.201C83.4739 194.306 80.8881 196.149 80.0411 196.753V187.764H78.8936ZM89.6585 187.764V201.944H90.8061V187.764H89.6585ZM123.921 187.764V199.677V199.704V199.841C123.922 200.018 123.891 200.339 123.784 200.551C123.656 200.762 123.606 200.863 123.265 200.879H117.637C117.298 200.862 117.246 200.762 117.117 200.551C117.038 200.393 116.994 200.183 116.981 200.005V194.185V194.158V194.048C116.977 193.866 117.009 193.523 117.117 193.311C117.246 193.099 117.294 193.006 117.637 192.983H123.265V191.835H117.637C116.861 191.816 116.282 192.331 116.079 192.819C115.853 193.302 115.837 193.774 115.833 194.048V194.24V199.622V199.841V200.032V200.223H115.861C115.887 200.467 115.941 200.774 116.079 201.07C116.282 201.554 116.861 202.046 117.636 202.026H123.265H123.32C124.07 202.026 124.619 201.544 124.822 201.07C125.046 200.586 125.067 200.112 125.068 199.841V199.622V187.764H123.921ZM72.4455 191.89C71.8141 191.981 71.3685 192.422 71.1887 192.846C70.9625 193.329 70.9483 193.802 70.9428 194.076V194.294V201.944H72.0903V194.24V194.212V194.076C72.0886 193.892 72.1198 193.549 72.227 193.338C72.3537 193.126 72.3789 193.058 72.7188 193.037H76.981V191.89H72.7188C72.6218 191.887 72.5357 191.877 72.4455 191.89ZM134.795 191.89C134.021 191.87 133.446 192.388 133.238 192.873C133.012 193.358 132.995 193.831 132.992 194.103V194.294V201.972H134.166V194.24L134.139 194.212V194.103C134.139 193.921 134.169 193.579 134.276 193.365C134.4 193.153 134.456 193.083 134.795 193.065H139.221V201.972H140.369V193.065H144.85C145.189 193.083 145.215 193.152 145.341 193.365C145.447 193.579 145.481 193.921 145.478 194.103V194.212V194.24V201.972H146.625V194.294V194.103C146.622 193.831 146.606 193.356 146.38 192.873C146.176 192.388 145.627 191.87 144.85 191.89H134.795ZM162.336 191.89C161.559 191.871 160.985 192.389 160.778 192.873C160.553 193.358 160.535 193.831 160.532 194.103V194.294V201.972H161.707V194.24L161.68 194.212V194.103C161.673 193.921 161.713 193.579 161.817 193.365C161.944 193.154 161.993 193.057 162.336 193.037L167.773 193.065C168.116 193.083 168.167 193.152 168.292 193.365C168.399 193.579 168.433 193.922 168.429 194.103V194.212V194.24V201.972H169.576V194.294V194.103C169.573 193.831 169.556 193.357 169.33 192.874C169.128 192.389 168.547 191.871 167.773 191.89L162.336 191.89ZM207.527 191.89C206.896 191.98 206.447 192.421 206.27 192.846C206.04 193.329 206.027 193.801 206.024 194.076V194.294V201.944H207.171V194.24V194.212V194.076C207.166 193.891 207.198 193.549 207.308 193.338C207.428 193.125 207.486 193.057 207.827 193.037H212.089V191.89H207.827C207.73 191.887 207.617 191.877 207.527 191.89ZM43.8118 191.972V199.622C43.8083 199.657 43.8118 199.741 43.8118 199.841C43.8136 200.112 43.8294 200.586 44.0577 201.07C44.2588 201.544 44.8096 202.026 45.5604 202.026H45.6151H55.6424C56.4194 202.046 56.9943 201.554 57.1997 201.07C57.4249 200.586 57.4434 200.112 57.4456 199.841V199.622V191.972H56.2981V199.677V199.704V199.841C56.3016 200.018 56.2664 200.339 56.1615 200.551C56.0336 200.763 55.9844 200.862 55.6424 200.879H51.2435V191.972H50.0959V200.879H45.6151C45.2741 200.862 45.2249 200.763 45.096 200.551C44.9889 200.339 44.9561 200.018 44.9594 199.841V199.704V199.677V191.972H43.8118ZM60.9702 191.972C60.3395 192.059 59.8922 192.501 59.7134 192.928C59.485 193.411 59.4686 193.885 59.4675 194.158V194.349V199.622V199.841C59.4683 200.112 59.485 200.586 59.7134 201.07C59.9123 201.544 60.4642 202.026 61.2161 202.026H61.2707H66.9538C67.7297 202.046 68.3057 201.554 68.5111 201.07C68.7385 200.586 68.7548 200.112 68.757 199.841L68.7298 199.649V194.349L68.757 194.158C68.7553 193.885 68.7384 193.411 68.5111 192.928C68.3057 192.44 67.7297 191.95 66.9538 191.972H61.2707C61.1739 191.969 61.0603 191.959 60.9702 191.972ZM94.4126 191.972C93.7815 192.059 93.3346 192.501 93.1558 192.928C92.9285 193.411 92.8869 193.885 92.8826 194.158L92.9099 194.349V199.622L92.8826 199.841C92.8869 200.112 92.9285 200.586 93.1558 201.07C93.358 201.544 93.9044 202.026 94.6585 202.026H94.6858H100.396C101.167 202.046 101.721 201.554 101.926 201.07C102.152 200.586 102.169 200.112 102.172 199.841V199.649V194.349V194.158C102.169 193.885 102.152 193.411 101.926 192.928C101.721 192.44 101.167 191.95 100.396 191.972H94.6858C94.5889 191.969 94.5028 191.959 94.4126 191.972ZM104.358 191.972V193.119H112.008C112.349 193.138 112.402 193.208 112.527 193.42C112.633 193.632 112.669 193.979 112.664 194.158V194.294V194.322V199.677V199.704V199.841C112.667 200.018 112.633 200.339 112.527 200.551C112.402 200.763 112.349 200.861 112.008 200.879H105.888C105.5 200.862 105.472 200.771 105.369 200.633C105.28 200.487 105.232 200.222 105.232 200.087V200.005V199.977V197.873V197.846V197.709C105.232 197.531 105.261 197.185 105.369 196.972C105.493 196.76 105.546 196.691 105.888 196.671H112.008V195.524H105.888C105.111 195.504 104.539 195.996 104.331 196.48C104.104 196.965 104.087 197.436 104.085 197.709V197.928V199.923V200.087C104.086 200.329 104.114 200.766 104.358 201.207C104.59 201.654 105.158 202.045 105.888 202.026H112.008H112.063C112.817 202.026 113.366 201.543 113.566 201.07C113.792 200.585 113.809 200.112 113.811 199.841V199.622V194.349V194.158C113.81 193.885 113.792 193.411 113.566 192.928C113.36 192.441 112.783 191.951 112.008 191.972L104.358 191.972ZM148.948 191.972V193.119H156.625C156.962 193.138 156.99 193.208 157.117 193.42C157.224 193.632 157.254 193.98 157.254 194.158V194.294V194.322V199.677V199.704V199.841C157.254 200.018 157.224 200.339 157.117 200.551C156.99 200.763 156.962 200.861 156.625 200.879H150.478C150.136 200.861 150.087 200.763 149.959 200.551C149.854 200.338 149.822 200.018 149.822 199.841V199.704V199.677V197.873V197.846V197.819V197.709C149.819 197.531 149.854 197.185 149.959 196.972C150.087 196.76 150.136 196.691 150.478 196.671H156.625V195.524H150.478C149.704 195.504 149.126 195.996 148.92 196.48C148.698 196.965 148.675 197.436 148.675 197.709V197.928V199.622V199.841C148.676 200.112 148.697 200.585 148.92 201.07C149.126 201.553 149.704 202.046 150.478 202.026H156.625H156.653C157.403 202.026 157.955 201.543 158.155 201.07C158.382 200.585 158.399 200.112 158.401 199.841V199.649V194.349V194.158C158.4 193.884 158.382 193.412 158.155 192.928C157.953 192.441 157.399 191.951 156.625 191.972H148.948ZM171.98 191.972V193.119H179.631C179.969 193.138 180.023 193.208 180.15 193.42C180.257 193.632 180.29 193.98 180.286 194.158V194.294V194.322V199.677V199.704V199.841C180.29 200.018 180.257 200.339 180.15 200.551C180.023 200.763 179.969 200.861 179.631 200.879H173.483C173.098 200.862 173.062 200.771 172.964 200.633C172.873 200.487 172.855 200.222 172.855 200.087V200.005V199.977V197.873V197.846V197.819V197.709C172.855 197.531 172.88 197.185 172.991 196.972C173.115 196.76 173.141 196.691 173.483 196.671H179.631V195.524H173.483C172.706 195.504 172.159 195.996 171.953 196.48C171.727 196.965 171.709 197.436 171.707 197.709V197.928V199.923V200.086C171.707 200.329 171.737 200.765 171.98 201.207C172.211 201.651 172.78 202.045 173.51 202.026H179.631H179.685C180.433 202.026 180.988 201.543 181.188 201.07C181.413 200.585 181.432 200.112 181.434 199.841V199.649V194.349V194.158C181.431 193.884 181.413 193.412 181.188 192.928C180.981 192.441 180.404 191.951 179.631 191.972H171.98ZM184.494 191.972C183.863 192.062 183.415 192.502 183.237 192.928C183.098 193.225 183.044 193.504 183.019 193.748H182.991V193.966V194.158V194.349V198.994V199.185C182.996 199.458 183.012 199.904 183.237 200.387C183.438 200.864 183.989 201.371 184.74 201.371H184.795H190.724V200.223H184.795C184.456 200.204 184.403 200.107 184.275 199.895C184.168 199.683 184.137 199.367 184.139 199.185V199.048V199.021V193.994C184.153 193.814 184.2 193.58 184.275 193.42C184.403 193.209 184.456 193.139 184.795 193.119H190.915C191.257 193.139 191.306 193.209 191.434 193.42C191.541 193.634 191.573 193.979 191.571 194.157V194.294V194.321V202.955V202.983V203.119C191.572 203.3 191.541 203.645 191.434 203.857C191.306 204.068 191.257 204.139 190.915 204.158H185.423V205.305H190.915H190.969C191.719 205.305 192.269 204.822 192.472 204.349C192.697 203.862 192.714 203.391 192.718 203.119V202.928V194.349V194.158C192.718 193.885 192.697 193.412 192.472 192.928C192.266 192.441 191.691 191.951 190.915 191.972H184.795C184.698 191.969 184.584 191.959 184.494 191.972ZM196.106 191.972C195.476 192.06 195.032 192.502 194.849 192.928C194.626 193.411 194.607 193.885 194.603 194.158V194.349V199.622V199.841C194.603 200.112 194.626 200.585 194.849 201.07C195.056 201.553 195.634 202.046 196.407 202.026H204.057V200.879H196.407C196.066 200.861 196.015 200.763 195.887 200.551C195.784 200.339 195.746 200.018 195.751 199.841V199.704V199.677V194.321V194.294V194.267V194.157C195.746 193.981 195.784 193.634 195.887 193.42C196.015 193.208 196.066 193.138 196.407 193.119H202.527C202.866 193.138 202.918 193.208 203.046 193.42C203.138 193.608 203.176 193.886 203.182 194.075V196.125V196.152V196.179V196.234C203.184 196.345 203.152 196.554 203.073 196.671C202.989 196.779 202.932 196.874 202.527 196.89H196.407V198.065H202.527H202.581C203.272 198.065 203.814 197.716 204.057 197.3C204.308 196.881 204.328 196.462 204.33 196.234V196.07V194.349V194.157C204.328 193.884 204.31 193.412 204.084 192.928C203.881 192.441 203.299 191.951 202.527 191.972H196.407C196.31 191.969 196.196 191.959 196.106 191.972ZM61.2707 193.119H66.9538C67.2915 193.138 67.3472 193.207 67.4729 193.42C67.5767 193.632 67.6117 193.979 67.6095 194.158L67.5822 194.294V194.322V199.677V199.704L67.6095 199.841C67.6113 200.018 67.5767 200.339 67.4729 200.551C67.3472 200.763 67.2915 200.863 66.9538 200.879H61.2707C60.9308 200.862 60.8784 200.763 60.7516 200.551C60.6467 200.339 60.6117 200.018 60.615 199.841V199.704V199.677V194.322V194.294V194.158C60.6115 193.979 60.6467 193.632 60.7516 193.42C60.8784 193.207 60.9287 193.138 61.2707 193.119ZM94.6858 193.119H100.396C100.734 193.138 100.761 193.207 100.888 193.42C100.995 193.632 101.027 193.979 101.025 194.158V194.294V194.322V199.677V199.704V199.841C101.026 200.018 100.995 200.339 100.888 200.551C100.761 200.763 100.734 200.863 100.396 200.879H94.6858C94.3449 200.862 94.3219 200.763 94.194 200.551C94.0902 200.339 94.0541 200.018 94.0574 199.841V199.704V199.677V194.322V194.294V194.158C94.0539 193.979 94.0902 193.632 94.194 193.42C94.3219 193.207 94.3449 193.138 94.6858 193.119Z" class="slurm" fill="#F4F2ED"/>
<path d="M210.422 145.139C209.148 144.114 206.735 143.885 205.34 143.84C204.696 143.823 204.264 143.84 204.264 143.84H171.498C171.498 143.84 170.505 143.764 169.29 143.84C168.106 143.917 166.713 144.139 165.84 144.731C163.624 146.225 163.345 148.666 163.345 150.88V179.01H171.498V154.313C171.498 150.768 174.534 151.156 174.534 151.156H183.999V178.976H191.769V151.156H201.454C204.062 151.156 204.255 153.424 204.264 153.932V154.038V179.01H212.424V151.156V150.958C212.412 150.091 212.254 146.612 210.422 145.139ZM141.481 143.84C140.295 143.917 138.902 144.139 138.027 144.731C135.811 146.225 135.536 148.666 135.536 150.88V179.01H143.688V154.313C143.688 150.768 146.725 151.156 146.725 151.156H157.54V143.84H143.688C143.688 143.84 142.694 143.764 141.481 143.84ZM120.704 168.506C120.704 172.049 117.669 171.663 117.669 171.663H106.535C103.931 171.663 103.735 169.392 103.726 168.882V168.78V143.803H95.5698V171.663V171.861C95.5796 172.722 95.7381 176.205 97.5709 177.68C98.843 178.704 101.255 178.933 102.651 178.976C103.295 178.996 103.726 178.976 103.726 178.976H120.704C120.704 178.976 121.699 179.054 122.911 178.976C124.096 178.9 125.489 178.675 126.363 178.085C128.577 176.588 128.858 174.154 128.858 171.938V143.803H120.704V168.506ZM80.3174 178.976H88.4704V128.948H80.3174V178.976ZM73.0792 162.923C73.0792 162.923 73.1535 160.339 71.5393 159.223C70.053 158.204 67.9164 158.204 67.9164 158.204H53.0695C53.0695 158.204 50.8345 158.354 50.8345 155.969V153.464C50.8345 153.464 50.6378 150.819 53.4793 150.819H72.7328V143.803H51.9023C51.9023 143.803 48.451 143.756 47.0805 144.081C45.2663 144.51 43.2881 145.439 43.2881 149.566V159.521C43.2881 164.928 48.4422 164.361 48.4422 164.361H62.2815C65.5612 164.361 65.3285 166.782 65.3285 166.782V169.176C65.3285 172.34 61.7427 171.836 61.7427 171.836H43.2881V178.976H67.1929C67.1929 178.976 70.323 179.083 71.7623 177.421C73.2038 175.758 73.0792 173.029 73.0792 173.029V162.923Z" class="slurm" fill="#F4F2ED"/>
</svg>