<svg width="256" height="256" title="Snipcart" viewBox="0 0 256 256" fill="none" xmlns="http://www.w3.org/2000/svg" id="snipcart">
<style>
#snipcart {
    rect {fill: #15191C}

    @media (prefers-color-scheme: light) {
        rect {fill: #F4F2ED}
    }
}
</style>
<rect width="256" height="256" rx="40" fill="#15191C"/>
<path d="M194.013 79.8065L137.051 47.1734C132.114 44.2755 123.886 44.2755 118.949 47.1734L61.9873 79.8065C57.0506 82.7044 53 89.6342 53 95.304V160.57C53 166.24 57.0506 173.296 61.9873 176.194L118.949 208.827C123.886 211.724 132.114 211.724 137.051 208.827L194.013 176.194C198.949 173.296 203 166.366 203 160.57V95.304C203 89.7602 198.949 82.7044 194.013 79.8065ZM178.57 114.959H172.62V105.006C172.62 97.4459 166.671 95.052 155.278 95.052H154.772C127.43 95.052 129.835 84.8463 129.076 81.1924H128.696C127.937 84.9723 130.595 95.052 103.253 95.052H102.494C91.1013 95.052 85.1519 97.4459 85.1519 105.006V112.691L178.443 139.529V141.041V150.616C178.443 161.578 173.127 167.626 155.278 167.626H154.392C140.468 167.626 131.861 170.524 131.861 181.485H125.911C125.911 170.524 117.304 167.626 103.38 167.626H102.494C84.6456 167.626 79.3291 161.578 79.3291 150.616V141.041H85.2785V150.994C85.2785 158.68 91.2278 160.948 102.62 160.948H103.127C130.468 160.948 128.063 171.154 128.823 174.808H129.203C129.962 171.028 127.43 160.948 154.646 160.948H155.405C166.797 160.948 172.747 158.554 172.747 150.994V145.198L79.4557 118.361V114.959V105.384C79.4557 94.422 84.7722 88.3742 102.62 88.3742H103.506C117.43 88.3742 126.038 85.4763 126.038 74.5146H131.987C131.987 85.4763 140.595 88.3742 154.519 88.3742H155.405C173.253 88.3742 178.57 94.422 178.57 105.384V114.959Z" fill="#F6E767"/>
</svg>