<svg width="256" height="256" title="Snowflake" viewBox="0 0 256 256" fill="none" xmlns="http://www.w3.org/2000/svg">
<rect width="256" height="256" rx="40" fill="#249EDC"/>
<path fill-rule="evenodd" clip-rule="evenodd" d="M203.013 117.1L184.06 128.007L203.013 138.88C204.15 139.523 205.146 140.387 205.944 141.421C206.742 142.455 207.325 143.638 207.66 144.9C207.999 146.165 208.086 147.484 207.914 148.783C207.743 150.081 207.316 151.333 206.66 152.467C205.313 154.747 203.126 156.407 200.58 157.087C198.031 157.763 195.318 157.403 193.033 156.087L159.101 136.593C156.92 135.351 155.298 133.321 154.567 130.92C154.234 129.876 154.08 128.782 154.114 127.687C154.169 125.993 154.654 124.34 155.522 122.885C156.391 121.43 157.616 120.219 159.081 119.367L193.013 99.8933C194.147 99.2378 195.4 98.8122 196.698 98.6407C197.997 98.4693 199.316 98.5553 200.582 98.894C201.847 99.2326 203.033 99.8172 204.073 100.614C205.112 101.412 205.984 102.406 206.64 103.54C207.301 104.666 207.731 105.913 207.907 107.207C208.082 108.501 207.999 109.817 207.661 111.078C207.324 112.34 206.739 113.522 205.941 114.555C205.143 115.589 204.148 116.454 203.013 117.1ZM185.067 169.947L151.154 150.48C149.407 149.464 147.389 149.01 145.374 149.18C142.875 149.35 140.534 150.465 138.828 152.3C137.114 154.14 136.161 156.56 136.141 159.08V198.06C136.14 199.369 136.398 200.665 136.9 201.874C137.401 203.083 138.137 204.181 139.065 205.105C139.992 206.028 141.093 206.76 142.304 207.257C143.515 207.753 144.812 208.006 146.121 208C151.641 208 156.101 203.547 156.101 198.06V176.26L175.094 187.167C176.226 187.826 177.477 188.254 178.775 188.429C180.074 188.603 181.394 188.519 182.66 188.182C183.926 187.846 185.113 187.262 186.153 186.465C187.193 185.669 188.065 184.674 188.72 183.54C189.376 182.408 189.803 181.157 189.974 179.86C190.146 178.563 190.059 177.244 189.72 175.981C189.38 174.717 188.794 173.533 187.996 172.496C187.197 171.459 186.202 170.597 185.067 169.947ZM145.934 131.82L131.828 145.833C131.345 146.282 130.72 146.547 130.061 146.58H125.921C125.264 146.543 124.639 146.279 124.155 145.833L110.055 131.82C109.615 131.341 109.356 130.723 109.322 130.073V125.94C109.357 125.284 109.616 124.661 110.055 124.173L124.148 110.16C124.633 109.72 125.254 109.461 125.908 109.427H130.061C130.718 109.457 131.343 109.717 131.828 110.16L145.934 124.173C146.371 124.662 146.628 125.285 146.661 125.94V130.073C146.623 130.722 146.37 131.338 145.934 131.82ZM134.668 127.933C134.623 127.274 134.357 126.65 133.915 126.16L129.835 122.113C129.345 121.673 128.719 121.414 128.061 121.38H127.901C127.248 121.414 126.626 121.673 126.141 122.113L122.061 126.16C121.631 126.654 121.379 127.279 121.348 127.933V128.093C121.348 128.66 121.661 129.44 122.061 129.84L126.141 133.907C126.548 134.307 127.335 134.64 127.901 134.64H128.061C128.719 134.604 129.344 134.346 129.835 133.907L133.915 129.84C134.355 129.36 134.619 128.744 134.661 128.093V127.933H134.668ZM70.9092 86.0266L104.835 105.52C106.662 106.567 108.688 106.98 110.622 106.82C113.122 106.647 115.462 105.527 117.175 103.687C118.881 101.853 119.841 99.42 119.861 96.9066V57.9267C119.868 52.4467 115.402 48 109.895 48C104.368 48 99.9086 52.4467 99.9086 57.9333V79.7333L80.909 68.8067C79.775 68.1499 78.5226 67.723 77.2236 67.5505C75.9245 67.378 74.6042 67.4632 73.3381 67.8013C72.072 68.1393 70.8849 68.7236 69.8447 69.5207C68.8045 70.3177 67.9316 71.312 67.2759 72.4466C66.6213 73.5768 66.1961 74.8251 66.0248 76.1199C65.8535 77.4147 65.9393 78.7306 66.2775 79.9921C66.6156 81.2537 67.1994 82.4361 67.9953 83.4716C68.7913 84.5071 69.7771 85.3754 70.9092 86.0266ZM145.374 106.82C147.308 106.98 149.334 106.567 151.147 105.52L185.06 86.0333C186.196 85.3889 187.191 84.5246 187.989 83.491C188.787 82.4574 189.371 81.2751 189.707 80.0133C190.392 77.4591 190.035 74.7374 188.713 72.4466C187.388 70.1581 185.208 68.4896 182.653 67.8083C180.097 67.1269 177.376 67.4884 175.087 68.8133L156.101 79.7333V57.9267C156.101 52.4467 151.641 48 146.121 48C140.588 48 136.141 52.4467 136.141 57.9333V96.9C136.142 99.4136 137.094 101.834 138.807 103.673C140.521 105.513 142.867 106.635 145.374 106.813V106.82ZM110.622 149.18C108.606 149.007 106.586 149.459 104.835 150.473L70.9092 169.94C69.7739 170.587 68.7789 171.454 67.9823 172.49C67.1856 173.526 66.6033 174.71 66.2693 175.973C65.5836 178.527 65.9384 181.248 67.2559 183.54C68.5835 185.826 70.7646 187.492 73.3198 188.171C75.8749 188.849 78.5951 188.486 80.8823 187.16L99.8886 176.253V198.053C99.8886 203.553 104.355 207.993 109.875 207.993C115.382 207.993 119.848 203.547 119.848 198.06V159.08C119.842 156.564 118.887 154.143 117.175 152.3C115.469 150.465 113.128 149.349 110.628 149.18H110.622ZM101.422 130.913C101.755 129.873 101.902 128.78 101.875 127.687C101.818 125.988 101.328 124.333 100.452 122.877C99.5758 121.421 98.3424 120.212 96.8686 119.367L62.976 99.9C60.6837 98.5795 57.9613 98.2218 55.4058 98.9054C52.8502 99.589 50.6699 101.258 49.343 103.547C48.6852 104.675 48.2579 105.923 48.0859 107.218C47.9139 108.513 48.0007 109.83 48.3411 111.091C48.6815 112.352 49.2689 113.533 50.0691 114.566C50.8693 115.599 51.8665 116.462 53.0029 117.107L71.9425 128.013L53.0029 138.887C51.8651 139.529 50.8673 140.393 50.0682 141.427C49.2691 142.46 48.6848 143.644 48.3496 144.907C48.0099 146.172 47.9234 147.491 48.095 148.79C48.2666 150.088 48.693 151.34 49.3496 152.473C50.6963 154.76 52.8829 156.42 55.4295 157.093C57.9761 157.773 60.6894 157.413 62.976 156.093L96.882 136.6C99.1819 135.3 100.729 133.233 101.442 130.92L101.422 130.913Z" fill="white"/>
</svg>