<svg width="256" height="256" title="Snyk" viewBox="0 0 256 256" fill="none" xmlns="http://www.w3.org/2000/svg" id="snyk">
<style>
#snyk {
    rect {fill: #15191C}

    @media (prefers-color-scheme: light) {
        rect {fill: #F4F2ED}
    }
}
</style>
<rect width="256" height="256" rx="40" fill="15191C" />
<path d="M171.559 74.9406C167.461 62.1899 158.144 44.2726 156.816 41.7505L155.66 39.546C154.906 38.0342 154.136 36.5299 153.351 35.0334L149.153 27.0295L143.139 69.8988L142.929 71.458C138.152 71.1866 133.368 71.0516 128.583 71.0531C123.491 71.0531 118.676 71.2025 114.153 71.4628L113.967 69.8979L111.857 54.8709C111.859 54.8458 107.944 27.0295 107.944 27.0295L103.657 35.0334C102.607 37.0303 101.58 39.0394 100.577 41.0603L100.207 41.7505C98.8757 44.275 89.4696 62.2241 85.3457 74.9768C73.4493 77.282 67 79.7477 67 79.7477V183.955L128.5 228.642L190 183.955V79.7477C190 79.7477 183.53 77.2559 171.559 74.9406Z" fill="#F4F2ED"/>
<path d="M154.961 155.846H128.452V110.315L101.554 154.515L97.3724 199.902L128.038 222.37L128.452 222.674L159.814 199.74L154.961 155.846Z" fill="#3B3B63"/>
<path d="M127.997 222.207L70.9302 180.706V83.9301C70.9302 83.9301 92.0315 75.8559 128.075 75.8559C164.12 75.8559 185.067 83.9301 185.067 83.9301V180.706L127.998 222.208L127.997 222.207Z" fill="#DBDBDB"/>
<path d="M128.824 75.8559L128.746 75.8568V222.205H128.747L185.816 180.704V83.9301C185.816 83.9301 164.868 75.8559 128.824 75.8559Z" fill="#C6C6C6"/>
<path d="M159.657 199.647L154.814 155.846H128.303V222.572L159.657 199.647Z" fill="#3B3B63"/>
<path d="M97.3719 199.902L128.452 222.674V110.315L101.554 154.515L97.3719 199.902Z" fill="#53537A"/>
<path d="M141.828 186.964C141.828 194.474 134.95 198.196 128.641 198.196C122.331 198.196 115.314 194.474 115.314 186.964" fill="#BC9375"/>
<path d="M137.961 182.708C137.961 191.515 133.312 193.877 128.571 193.877C123.831 193.877 119.18 191.515 119.18 182.708" fill="#073251"/>
<path d="M128.571 190.848C123.505 190.848 121.042 187.057 121.042 179.266H123.457C123.457 188.388 126.91 188.388 128.571 188.388C130.231 188.388 133.684 188.388 133.684 179.266H136.099C136.099 187.057 133.635 190.848 128.571 190.848Z" fill="white"/>
<path d="M168.779 89.5025C168.779 80.0012 153.034 50.1072 153.034 50.1072L147.708 88.0195L142.928 96.0234L128.6 96.6177L128.544 96.7353V96.6177L114.215 96.0234L109.436 88.0195L104.11 50.1067C104.11 50.1067 88.3636 80.0012 88.3636 89.5025L95.0156 107.759C95.0156 107.759 91.6586 138.424 93.1913 142.439C94.7192 146.455 105.333 159.884 105.333 159.884C105.333 159.884 105.301 171.173 108.207 179.289C110.28 185.085 114.848 187.436 119.222 187.436C125.921 187.436 128.543 181.168 128.543 181.168C128.543 181.168 131.226 187.436 137.926 187.436C142.299 187.436 146.862 185.089 148.94 179.289C151.843 171.176 151.813 159.884 151.813 159.884C151.813 159.884 162.424 146.455 163.955 142.439C165.487 138.423 162.129 107.759 162.129 107.759L168.779 89.5025Z" fill="#C49A7E"/>
<path d="M128.571 96.6784L128.543 96.7353V96.6182L114.214 96.0244L109.435 88.02L104.108 50.1077C104.108 50.1077 88.3626 80.0021 88.3626 89.5035L95.0133 107.76C95.0133 107.76 91.6572 138.425 93.1875 142.44C94.7187 146.456 105.328 159.885 105.328 159.885C105.328 159.885 105.301 171.174 108.203 179.29C110.279 185.086 114.848 187.437 119.217 187.437C125.92 187.437 128.541 181.169 128.541 181.169C128.541 181.169 128.553 181.191 128.572 181.232V96.6784H128.571Z" fill="#D8B7A0"/>
<path d="M162.273 109.555C161.052 106.951 162.787 100.789 162.787 100.789C152.844 90.3951 150.358 68.7219 150.358 68.7219C148.501 75.5513 144.466 95.687 144.466 95.687C144.466 95.687 137.046 92.8685 128.604 92.855H128.541C128.077 92.8574 127.62 92.8695 127.164 92.884V177.85L127.794 178.791V178.326H128.184V178.791L128.188 178.326H128.957H129.351V178.791L136.224 168.556L137.718 139.815L146.275 149.77L157.299 153.054C157.299 153.054 161.424 150.055 161.424 150.067C163.175 147.566 163.756 145.436 164.179 144.331C165.71 140.309 162.273 109.556 162.273 109.556" fill="#3B3B63"/>
<path d="M128.648 92.8541L128.619 92.8531V92.8541C120.173 92.8685 112.752 95.6851 112.752 95.6851C112.752 95.6851 108.716 75.5503 106.861 68.7204C106.861 68.7204 104.376 90.3937 94.4309 100.787C94.4309 100.787 96.1659 106.95 94.946 109.554C94.946 109.554 91.5078 140.309 93.0395 144.324C93.4623 145.431 94.0475 147.559 95.7964 150.06C95.7964 150.049 99.9227 153.048 99.9227 153.048L110.945 149.763L119.5 139.81L120.998 168.551L127.867 178.786V178.321H128.261H128.647V92.8541H128.648Z" fill="#53537A"/>
<path d="M148.574 128.792H135.695V128.931C135.695 133.513 139.584 137.224 144.146 137.224C148.709 137.224 152.597 133.512 152.597 128.931V128.792H148.574Z" fill="#333152"/>
<path d="M138.915 128.792V128.931C138.915 131.656 141.068 133.864 143.745 133.864C146.421 133.864 148.574 131.656 148.574 128.931V128.792H138.915Z" fill="white"/>
<path d="M145.235 128.792H142.972C142.95 128.792 142.931 128.803 142.911 128.808C143.192 128.868 143.347 129.516 143.287 129.948C143.245 130.258 143.093 130.542 142.859 130.749C142.625 130.957 142.325 131.072 142.013 131.076C142.197 131.939 142.887 132.631 143.803 132.763C144.974 132.931 146.056 132.114 146.223 130.922C146.342 130.044 145.927 128.792 145.235 128.792ZM117.486 128.792H104.608V128.931C104.608 133.513 108.498 137.224 113.059 137.224C117.622 137.224 121.511 133.512 121.511 128.931V128.792H117.486Z" fill="#333152"/>
<path d="M107.828 128.792V128.931C107.828 131.656 109.983 133.864 112.657 133.864C115.334 133.864 117.487 131.656 117.487 128.931V128.792H107.828Z" fill="white"/>
<path d="M114.148 128.792H111.883C111.863 128.792 111.842 128.803 111.824 128.808C112.104 128.868 112.259 129.516 112.2 129.948C112.108 130.607 111.56 131.065 110.924 131.076C111.11 131.939 111.8 132.631 112.715 132.763C113.886 132.931 114.97 132.114 115.134 130.922C115.255 130.044 114.84 128.792 114.148 128.792Z" fill="#333152"/>
<path d="M147.602 124.882C148.143 124.278 152.734 118.973 146.593 118.973C141.046 118.973 137.054 123.532 135.996 124.882H147.602Z" fill="#C49A7E"/>
<path d="M121.119 124.882C120.062 123.532 116.07 118.973 110.52 118.973C104.384 118.973 108.975 124.278 109.512 124.882H121.119Z" fill="#D8B7A0"/>
<path d="M101.646 128.744H125.132V126.494H101.646V128.744Z" fill="#53537A"/>
<path d="M162.698 96.8481C155.869 87.0701 153.727 71.1741 153.541 69.7215L154.786 60.8606C159.857 71.3703 165.178 83.8429 165.542 89.048L162.698 96.8481ZM160.954 141.33C160.022 143.77 153.581 152.49 149.303 157.904L148.589 158.812L148.593 159.97C148.593 160.075 148.589 170.763 145.913 178.243C143.978 183.649 139.681 184.234 137.925 184.234C133.48 184.234 131.561 180.083 131.494 179.934L131.24 176.046H125.836L125.592 179.911C125.515 180.087 123.643 184.223 119.221 184.223C117.461 184.223 113.164 183.645 111.228 178.239C108.561 170.785 108.548 160.075 108.548 159.966L108.552 158.808L107.838 157.904C103.563 152.494 97.122 143.774 96.2125 141.393C95.4856 138.817 96.6858 122.16 98.2137 108.202L98.2977 107.428L97.0922 104.122C101.234 99.6998 104.141 93.6136 106.145 87.82L106.34 89.2302L112.918 100.24L115.489 99.1157C115.553 99.0877 122.144 96.2316 128.544 96.2316C134.903 96.2316 141.603 99.0901 141.665 99.1186L144.232 100.232L150.802 89.2278L151.059 87.3901C153.044 93.2411 155.947 99.4357 160.108 103.956L158.846 107.425L158.93 108.199C160.457 122.16 161.657 138.817 160.954 141.33ZM124.563 189.644C125.383 189.273 126.161 188.816 126.884 188.28C127.51 188.466 128.11 188.466 128.571 188.466C129.029 188.466 129.623 188.471 130.244 188.283C130.969 188.817 131.748 189.273 132.568 189.644C131.489 190.465 130.161 190.927 128.574 190.927C126.977 190.927 125.643 190.469 124.563 189.644ZM128.641 196.637C125.106 196.637 120.081 195.032 118.831 190.777C118.958 190.781 119.084 190.792 119.215 190.792C119.898 190.792 120.538 190.728 121.157 190.639C122.95 193.181 125.742 193.96 128.572 193.96C131.405 193.96 134.204 193.188 136 190.642C136.615 190.727 137.247 190.792 137.925 190.792C138.058 190.792 138.186 190.781 138.319 190.778C137.081 195.031 132.122 196.637 128.641 196.637ZM91.6029 89.0466C91.968 83.8414 97.2844 71.3698 102.356 60.8592L103.708 70.4695C103.193 74.0625 100.837 88.154 94.516 97.0365L91.6029 89.0466ZM171.917 89.5806C171.917 79.5453 157.479 51.7709 155.83 48.6362L151.214 39.8361L144.601 86.9689L141.55 92.0882C138.603 91.0809 133.589 89.6741 128.54 89.6741C123.496 89.6741 118.516 91.0756 115.582 92.0849L112.529 86.9679L110.208 70.4463C110.211 70.4189 110.215 70.3822 110.215 70.3654L110.197 70.363L105.906 39.8361L101.193 48.6367C99.5412 51.7704 84.9878 79.5453 84.9878 89.5806V90.1696L91.6519 108.248C90.5862 118.105 88.5519 139.517 90.1499 143.702C91.1455 146.319 94.9777 151.722 98.2189 156.051L93.8534 197.494L99.8641 201.813L103.041 171.666C103.497 174.598 104.171 177.694 105.171 180.491C106.55 184.345 108.986 187.263 112.104 188.994C112.29 198.221 120.709 203.196 128.641 203.196C136.507 203.196 144.857 198.217 145.039 188.987C148.151 187.259 150.584 184.341 151.961 180.491C153.002 177.583 153.685 174.343 154.14 171.31L157.335 201.565L163.346 197.092L158.992 155.927C162.207 151.616 165.968 146.292 166.954 143.704C168.551 139.521 166.435 118.105 165.371 108.25L171.916 90.1686V89.5806H171.917Z" fill="#333152"/>
<path d="M136.15 164.784H121.042C121.042 164.784 119.01 168.391 119.01 169.561C119.01 173.036 128.309 178.57 128.309 178.57C128.309 178.57 138.131 172.872 138.131 169.561C138.131 167.982 136.15 164.784 136.15 164.784Z" fill="#333152"/>
<path d="M133.237 175.379C132.395 173.857 131.307 173.579 130.808 174.752C130.31 175.927 130.595 178.112 131.438 179.63C132.281 181.153 133.369 181.43 133.865 180.256C134.365 179.083 134.081 176.897 133.237 175.379Z" fill="#C49A7E"/>
<path d="M123.904 175.379C123.06 176.897 122.779 179.083 123.276 180.256C123.773 181.431 124.859 181.152 125.706 179.63C126.548 178.112 126.83 175.927 126.332 174.752C125.835 173.579 124.748 173.857 123.904 175.379Z" fill="#D8B7A0"/>
</svg>