<svg width="256" height="256" title="SOAP" viewBox="0 0 256 256" fill="none" xmlns="http://www.w3.org/2000/svg">
<rect width="256" height="256" rx="40" fill="#087ED6"/>
<path d="M78.72 214.46C76.604 214.46 74.6873 214.215 72.97 213.724C71.2833 213.203 69.7807 212.467 68.462 211.516C67.1433 210.535 65.9627 209.385 64.92 208.066L69.658 202.684C71.1913 204.739 72.7247 206.119 74.258 206.824C75.822 207.529 77.432 207.882 79.088 207.882C79.916 207.882 80.6673 207.775 81.342 207.56C82.0167 207.345 82.538 207.039 82.906 206.64C83.274 206.211 83.458 205.689 83.458 205.076C83.458 204.616 83.3353 204.202 83.09 203.834C82.8753 203.466 82.5687 203.144 82.17 202.868C81.7713 202.592 81.296 202.347 80.744 202.132C80.192 201.887 79.6093 201.687 78.996 201.534C78.3827 201.35 77.754 201.197 77.11 201.074C75.3313 200.675 73.7827 200.185 72.464 199.602C71.1453 199.019 70.0413 198.314 69.152 197.486C68.2933 196.627 67.6493 195.661 67.22 194.588C66.7907 193.484 66.576 192.257 66.576 190.908C66.576 189.467 66.898 188.148 67.542 186.952C68.2167 185.725 69.106 184.683 70.21 183.824C71.3447 182.935 72.648 182.26 74.12 181.8C75.592 181.309 77.1253 181.064 78.72 181.064C80.836 181.064 82.6453 181.294 84.148 181.754C85.6813 182.183 86.9847 182.812 88.058 183.64C89.162 184.468 90.0973 185.465 90.864 186.63L86.034 191.276C85.39 190.479 84.6847 189.819 83.918 189.298C83.182 188.777 82.3847 188.378 81.526 188.102C80.698 187.826 79.8393 187.688 78.95 187.688C78.03 187.688 77.2327 187.811 76.558 188.056C75.914 188.271 75.408 188.593 75.04 189.022C74.672 189.421 74.488 189.911 74.488 190.494C74.488 191.015 74.6413 191.46 74.948 191.828C75.2547 192.196 75.6687 192.533 76.19 192.84C76.7113 193.116 77.3093 193.361 77.984 193.576C78.6587 193.76 79.364 193.913 80.1 194.036C81.7867 194.373 83.3047 194.818 84.654 195.37C86.034 195.922 87.2147 196.597 88.196 197.394C89.208 198.191 89.9747 199.142 90.496 200.246C91.048 201.319 91.324 202.577 91.324 204.018C91.324 206.257 90.772 208.158 89.668 209.722C88.5947 211.255 87.1073 212.436 85.206 213.264C83.3353 214.061 81.1733 214.46 78.72 214.46Z" fill="white"/>
<path d="M111.876 214.46C109.423 214.46 107.184 214.046 105.16 213.218C103.136 212.39 101.373 211.225 99.8703 209.722C98.3676 208.219 97.2023 206.456 96.3743 204.432C95.5463 202.408 95.1323 200.185 95.1323 197.762C95.1323 195.339 95.5463 193.116 96.3743 191.092C97.2023 189.068 98.3676 187.305 99.8703 185.802C101.373 184.299 103.136 183.134 105.16 182.306C107.184 181.478 109.408 181.064 111.83 181.064C114.253 181.064 116.476 181.478 118.5 182.306C120.524 183.134 122.288 184.299 123.79 185.802C125.293 187.305 126.443 189.068 127.24 191.092C128.068 193.116 128.482 195.339 128.482 197.762C128.482 200.154 128.068 202.377 127.24 204.432C126.443 206.456 125.293 208.219 123.79 209.722C122.288 211.225 120.524 212.39 118.5 213.218C116.476 214.046 114.268 214.46 111.876 214.46ZM111.83 207.1C113.088 207.1 114.238 206.87 115.28 206.41C116.354 205.95 117.274 205.306 118.04 204.478C118.838 203.619 119.451 202.623 119.88 201.488C120.31 200.353 120.524 199.111 120.524 197.762C120.524 196.413 120.31 195.171 119.88 194.036C119.451 192.901 118.838 191.92 118.04 191.092C117.274 190.233 116.354 189.574 115.28 189.114C114.238 188.654 113.088 188.424 111.83 188.424C110.573 188.424 109.408 188.654 108.334 189.114C107.292 189.574 106.372 190.233 105.574 191.092C104.777 191.92 104.164 192.901 103.734 194.036C103.336 195.171 103.136 196.413 103.136 197.762C103.136 199.111 103.336 200.369 103.734 201.534C104.164 202.669 104.777 203.65 105.574 204.478C106.372 205.306 107.292 205.95 108.334 206.41C109.408 206.87 110.573 207.1 111.83 207.1Z" fill="white"/>
<path d="M129.54 214L142.282 181.8H148.906L161.556 214H153.644L147.572 197.67C147.327 197.026 147.081 196.336 146.836 195.6C146.591 194.864 146.345 194.113 146.1 193.346C145.855 192.549 145.609 191.782 145.364 191.046C145.149 190.279 144.965 189.574 144.812 188.93L146.192 188.884C146.008 189.651 145.793 190.402 145.548 191.138C145.333 191.874 145.103 192.61 144.858 193.346C144.643 194.051 144.398 194.772 144.122 195.508C143.846 196.213 143.585 196.949 143.34 197.716L137.268 214H129.54ZM135.612 207.836L138.05 201.948H152.862L155.254 207.836H135.612Z" fill="white"/>
<path d="M165.573 214V181.8H179.465C181.489 181.8 183.283 182.26 184.847 183.18C186.442 184.1 187.699 185.357 188.619 186.952C189.57 188.547 190.045 190.341 190.045 192.334C190.045 194.419 189.57 196.29 188.619 197.946C187.699 199.571 186.442 200.859 184.847 201.81C183.283 202.761 181.489 203.236 179.465 203.236H173.393V214H165.573ZM173.255 196.382H178.361C179.036 196.382 179.649 196.213 180.201 195.876C180.753 195.539 181.198 195.079 181.535 194.496C181.873 193.913 182.041 193.239 182.041 192.472C182.041 191.675 181.873 191 181.535 190.448C181.198 189.896 180.753 189.467 180.201 189.16C179.649 188.853 179.036 188.7 178.361 188.7H173.255V196.382Z" fill="white"/>
<path fill-rule="evenodd" clip-rule="evenodd" d="M158.319 66.1656C154.649 58.7015 148.614 52.6516 141.149 48.9517C133.685 45.2519 125.206 44.1082 117.024 45.6977C108.842 47.2871 101.413 51.521 95.8865 57.7446C90.3597 63.9682 87.043 71.8346 86.4492 80.1273C71.7389 84.3106 61 97.1429 61 112.336C61 130.302 75.9333 144.965 94.7521 146H158.036C178.982 146 196 128.103 196 106.023C195.998 95.8403 192.096 86.043 185.092 78.6344C178.088 71.2258 168.511 66.7655 158.319 66.1656Z" fill="white"/>
<path d="M156 98.8452V104.113C155.986 104.596 155.809 105.059 155.499 105.429C155.188 105.799 154.762 106.053 154.29 106.15L149.96 106.901C149.822 106.918 149.682 106.918 149.543 106.901C149.04 108.87 148.259 110.756 147.224 112.503C147.334 112.591 147.432 112.692 147.516 112.804L150.019 116.394C150.283 116.798 150.404 117.28 150.361 117.762C150.319 118.243 150.116 118.696 149.785 119.049L146.056 122.789C145.703 123.117 145.249 123.318 144.769 123.359C144.288 123.4 143.807 123.278 143.403 123.014L139.825 120.51C139.707 120.429 139.601 120.333 139.507 120.226C137.743 121.263 135.842 122.047 133.86 122.555C133.893 122.768 133.893 122.985 133.86 123.198L133.192 127.055C133.082 127.593 132.792 128.078 132.371 128.431C131.95 128.785 131.422 128.985 130.873 129H126.085C125.536 128.985 125.008 128.785 124.587 128.431C124.166 128.078 123.877 127.593 123.766 127.055L123.098 123.198C123.065 122.985 123.065 122.768 123.098 122.555C121.116 122.047 119.215 121.263 117.451 120.226C117.358 120.328 117.255 120.421 117.142 120.501L113.555 123.006C113.151 123.27 112.669 123.391 112.188 123.349C111.707 123.306 111.254 123.103 110.902 122.772L107.165 119.04C106.836 118.688 106.635 118.235 106.596 117.755C106.557 117.274 106.681 116.795 106.948 116.394L109.451 112.804C109.529 112.69 109.621 112.586 109.726 112.495C108.697 110.746 107.919 108.86 107.415 106.893C107.277 106.91 107.137 106.91 106.998 106.893L102.668 106.142C102.204 106.035 101.789 105.777 101.487 105.408C101.185 105.04 101.014 104.581 101 104.105V98.8452C101.014 98.3687 101.185 97.9103 101.487 97.5417C101.789 97.1731 102.204 96.9151 102.668 96.8081L106.998 96.0568C107.137 96.0399 107.277 96.0399 107.415 96.0568C107.919 94.0929 108.697 92.2098 109.726 90.4633C109.621 90.3695 109.529 90.2629 109.451 90.146L106.948 86.5645C106.681 86.1618 106.558 85.681 106.597 85.1995C106.637 84.718 106.836 84.2637 107.165 83.9097L110.902 80.1695C111.256 79.8409 111.709 79.6402 112.19 79.5994C112.671 79.5585 113.151 79.6799 113.555 79.9441L117.142 82.4487C117.257 82.5325 117.361 82.6307 117.451 82.7409C119.194 81.7049 121.076 80.9233 123.04 80.42C123.023 80.2814 123.023 80.1412 123.04 80.0026L123.791 75.6697C123.895 75.2039 124.152 74.7864 124.521 74.4838C124.89 74.1811 125.349 74.0108 125.826 74H131.099C131.575 74.0108 132.035 74.1811 132.404 74.4838C132.773 74.7864 133.03 75.2039 133.134 75.6697L133.885 80.0026C133.902 80.1412 133.902 80.2814 133.885 80.42C135.849 80.9233 137.731 81.7049 139.474 82.7409C139.567 82.6309 139.674 82.5327 139.791 82.4487L143.37 79.9441C143.774 79.6799 144.254 79.5585 144.735 79.5994C145.216 79.6402 145.669 79.8409 146.023 80.1695L149.752 83.9097C150.083 84.2618 150.286 84.7151 150.328 85.1966C150.37 85.6781 150.25 86.1599 149.985 86.5645L147.483 90.146C147.399 90.2633 147.301 90.3699 147.191 90.4633C148.226 92.2077 149.007 94.0913 149.51 96.0568C149.648 96.0399 149.788 96.0399 149.927 96.0568L154.256 96.8081C154.729 96.9056 155.155 97.1597 155.465 97.5294C155.775 97.899 155.952 98.3626 155.967 98.8452H156ZM137.872 101.483C137.872 99.629 137.323 97.8164 136.294 96.2746C135.264 94.7328 133.801 93.5312 132.089 92.8216C130.377 92.112 128.494 91.9263 126.677 92.2881C124.859 92.6498 123.19 93.5427 121.88 94.8539C120.57 96.1651 119.677 97.8356 119.316 99.6543C118.954 101.473 119.14 103.358 119.849 105.071C120.558 106.784 121.759 108.248 123.299 109.279C124.84 110.309 126.651 110.859 128.504 110.859C130.989 110.859 133.372 109.871 135.129 108.113C136.885 106.354 137.872 103.97 137.872 101.483Z" fill="#087ED6"/>
</svg>