<svg width="256" height="256" title="Solr" viewBox="0 0 256 256" fill="none" xmlns="http://www.w3.org/2000/svg" id="solr">
<style>
#solr {
    rect {fill: #15191C}

    @media (prefers-color-scheme: light) {
        rect {fill: #F4F2ED}
    }
}
</style>
<rect width="256" height="256" rx="40" fill="#15191C"/>
<path d="M182.181 76.7314L108.465 156.657L201.168 113.896C198.421 99.7239 191.719 87.0299 182.248 76.9552" fill="#D93321"/>
<path d="M126.336 53C116.127 53 106.388 55.0552 97.5198 58.7537L87.624 142.261L136.991 53.8284C133.484 53.3201 129.91 53.0493 126.269 53.0493" fill="#D93321"/>
<path d="M202.285 118.373L114.497 167.627L196.924 157.821C200.833 148.709 203 138.701 203 128.269C203 124.955 202.765 121.687 202.354 118.485" fill="#D93321"/>
<path d="M168.778 190.463C178.585 183.813 186.738 174.881 192.457 164.493L115.167 179.851L168.778 190.463Z" fill="#D93321"/>
<path d="M141.973 54.556L99.0835 147.914L178.83 74.0336C168.845 64.4067 156.269 57.5112 142.196 54.5784" fill="#D93321"/>
<path d="M133.037 203C141.347 202.308 149.255 200.291 156.492 197.09L113.156 191.94L133.037 203Z" fill="#D93321"/>
<path d="M59.3217 97.3284C55.9486 104.806 53.7595 112.955 53 121.507L64.6382 142.373L59.3217 97.3284Z" fill="#D93321"/>
<path d="M92.8286 61.8433C82.2403 67.5298 73.1934 75.6567 66.4697 85.5746L77.3483 140.425L92.8286 61.8433Z" fill="#D93321"/>
</svg>