<svg width="256" height="256" title="Sonarr" viewBox="0 0 256 256" fill="none" xmlns="http://www.w3.org/2000/svg">
<rect width="256" height="256" rx="40" fill="#F4F2ED"/>
<path fill-rule="evenodd" clip-rule="evenodd" d="M216 128.5C216 152.563 207.483 173.207 190.482 190.399C189.901 191.083 189.285 191.698 188.601 192.245C185.796 194.979 182.854 197.475 179.707 199.696C164.964 210.565 147.929 216 128.603 216C109.242 216 92.2412 210.565 77.5667 199.696C73.7013 196.962 70.0412 193.852 66.6548 190.365C53.4169 177.274 45.31 161.996 42.2998 144.633C41.7183 141.249 41.3079 137.797 41.1368 134.311C41.0684 132.362 41 130.448 41 128.5C41 126.449 41.0342 124.501 41.1368 122.655C41.1368 122.45 41.2052 122.279 41.3079 122.074C42.5735 100.609 51.0225 82.084 66.6548 66.4297C83.8606 49.4766 104.487 41 128.568 41C152.752 41 173.379 49.4766 190.448 66.4639C207.483 83.7588 216 104.437 216 128.5Z" fill="#EEEEEE"/>
<path fill-rule="evenodd" clip-rule="evenodd" d="M198.179 75.2822L180.083 93.3633C169.514 103.925 168.59 113.119 168.59 129.354C168.59 143.812 170.882 157.074 181.657 167.841C189.524 175.702 197.015 183.119 197.015 183.119C194.997 185.58 192.808 188.007 190.482 190.365C189.901 191.049 189.285 191.664 188.601 192.211C186.548 194.228 184.428 196.107 182.238 197.816L168.077 183.666C155.489 171.088 145.466 169.857 128.842 169.857C112.868 169.857 102.024 171.327 90.3257 183.017C83.3476 189.989 75.3433 198.021 75.3433 198.021C72.2989 195.697 69.4256 193.168 66.6891 190.365C64.4314 188.109 62.3106 185.785 60.3609 183.427C60.3609 183.427 68.2625 175.497 75.8222 167.943C87.0077 156.767 88.8206 143.812 88.8206 129.32C88.8206 115.204 86.4946 102.045 76.2326 91.7568C69.0493 84.6475 59.1636 74.8379 59.1636 74.8379C61.4555 71.9326 63.9525 69.1299 66.6206 66.4639C68.9809 64.1396 71.4095 61.9863 73.8724 59.9697L90.2915 76.376C100.793 86.8691 114.236 89.5693 128.739 89.5693C143.653 89.5693 157.062 86.6982 167.974 75.7607C174.679 69.0615 183.572 60.2432 183.572 60.2432C185.898 62.1572 188.19 64.208 190.448 66.4639C193.287 69.3008 195.852 72.2402 198.179 75.2822Z" fill="#3A3F51"/>
<path fill-rule="evenodd" clip-rule="evenodd" d="M104.556 132.978C104.384 132.021 104.282 131.098 104.248 130.106C104.213 129.56 104.213 129.047 104.213 128.5C104.213 127.919 104.213 127.406 104.248 126.894C104.248 126.825 104.248 126.791 104.282 126.723C104.624 120.775 106.984 115.648 111.294 111.308C116.049 106.591 121.761 104.232 128.466 104.232C135.17 104.232 140.883 106.591 145.637 111.308C150.358 116.093 152.718 121.835 152.718 128.5C152.718 135.165 150.358 140.873 145.637 145.658C145.466 145.829 145.295 146.034 145.124 146.171C144.338 146.923 143.517 147.606 142.661 148.222C138.557 151.229 133.836 152.733 128.5 152.733C120.496 152.733 118.443 151.229 114.373 148.222C113.312 147.47 112.286 146.615 111.328 145.624C107.634 142.001 105.411 137.797 104.556 132.978ZM169.274 90.0479L168.658 89.4326L191.371 67.3525L190.893 66.874L168.179 88.9541L167.564 88.3389L153.881 102.216L155.591 103.925L169.274 90.0479ZM87.7602 90.7656L101.648 104.608L103.358 102.899L89.4705 89.0566L88.8548 89.6719L66.1075 67.0107L65.6286 67.4893L88.3759 90.1504L87.7602 90.7656ZM168.111 167.294L153.539 152.802L151.829 154.511L166.401 169.003L167.016 168.388L189.387 191.527L189.866 191.049L167.495 167.909L168.111 167.294ZM88.3075 168.012L88.9232 168.593L66.8943 190.639L67.3731 191.117L89.4021 169.071L90.0178 169.652L103.529 155.604L101.819 153.964L88.3075 168.012Z" fill="#00CCFF"/>
</svg>