<svg width="256" height="256" title="Sphinx" viewBox="0 0 256 256" fill="none" xmlns="http://www.w3.org/2000/svg">
<rect width="256" height="256" rx="40" fill="#0A507A"/>
<path d="M177.908 131.342C185.111 126.22 194.875 123.979 206.4 119.657L201.438 108.452C180.949 112.134 162.541 99.9688 142.533 97.2476C111.96 91.005 83.7886 109.413 53.6961 111.654V123.819C83.6285 130.381 111.96 143.987 143.333 140.145C123.965 159.514 97.8745 182.403 68.2621 173.279C58.0179 171.358 53.536 156.952 63.3001 152.631C67.6219 169.278 88.4305 157.433 79.3067 144.307C73.0641 136.624 56.5773 140.145 51.7753 147.829C37.8495 174.24 65.2209 188.806 88.7507 184.964C118.523 180.962 141.413 157.593 161.261 136.624C160.941 146.388 164.142 167.997 154.698 176.641L154.858 191.047C161.741 185.604 167.664 173.92 169.584 166.076C172.145 155.992 170.225 149.749 171.185 141.586C171.985 137.905 172.786 135.023 177.908 131.342ZM78.3463 117.256C90.6715 113.574 103.637 107.972 116.602 106.692C109.879 128.781 145.574 131.342 141.573 106.692C151.817 109.253 157.579 111.494 172.626 117.896C139.652 134.223 107.799 126.86 78.3463 117.256Z" fill="white"/>
<path d="M53.6957 107.972V95.1667C57.3773 95.1667 67.1413 92.2855 76.7453 89.5644C92.752 84.7624 112.76 79 127.166 79C143.173 79 159.98 84.4423 172.305 88.2839L186.871 92.2855C196.795 93.406 202.558 91.005 202.558 91.005L208 102.69C207.04 103.01 199.036 106.531 185.431 105.091C181.109 104.611 175.506 102.85 168.464 100.449C156.298 96.6073 141.092 91.8053 127.166 91.8053C114.521 91.8053 95.6332 97.4077 80.4269 101.89C68.5819 105.251 59.2981 107.972 53.6957 107.972Z" fill="white"/>
</svg>