<svg width="256" height="256" title="Splunk" viewBox="0 0 256 256" fill="none" xmlns="http://www.w3.org/2000/svg">
<rect width="256" height="256" rx="40" fill="url(#linearGradient)"/>
<path d="M55.73 134.312C55.73 135.537 55.4712 136.675 54.9536 137.728C54.4359 138.766 53.7025 139.659 52.782 140.381C51.8473 141.116 50.7401 141.678 49.4598 142.081C48.18 142.485 46.7709 142.686 45.2464 142.686C43.4197 142.686 41.7807 142.441 40.3431 141.937C38.9051 141.447 37.4528 140.611 36 139.457L38.402 135.55C39.5523 136.516 40.5873 137.222 41.5228 137.67C42.4431 138.117 43.3922 138.333 44.3704 138.333C45.5639 138.333 46.513 138.03 47.247 137.41C47.9804 136.79 48.3255 135.969 48.3255 134.917C48.3255 134.47 48.2536 134.052 48.1242 133.663C47.9948 133.273 47.7503 132.87 47.4053 132.452C47.0601 132.048 46.5713 131.587 45.9529 131.111C45.3489 130.636 44.5581 130.03 43.5799 129.324C42.8465 128.805 42.1132 128.257 41.4083 127.709C40.7038 127.147 40.0711 126.556 39.4809 125.921C38.9058 125.287 38.4457 124.581 38.0861 123.788C37.7409 123.01 37.5541 122.101 37.5541 121.107C37.5541 119.954 37.7986 118.887 38.2731 117.935C38.7475 116.983 39.409 116.176 40.2432 115.499C41.0772 114.822 42.0699 114.303 43.248 113.929C44.4127 113.554 45.6775 113.367 47.0585 113.367C48.5109 113.367 49.9062 113.554 51.2567 113.943C52.6083 114.332 53.8602 114.894 55.0245 115.644L52.853 119.161C51.3719 118.123 49.8039 117.59 48.1649 117.59C47.1727 117.59 46.3382 117.85 45.6912 118.369C45.0442 118.887 44.7133 119.536 44.7133 120.329C44.7133 121.078 45.001 121.756 45.5761 122.347C46.1513 122.953 47.1434 123.774 48.5535 124.87C49.9771 125.908 51.1569 126.83 52.0771 127.608C53.0118 128.386 53.7451 129.136 54.2914 129.828C54.8379 130.52 55.1974 131.212 55.4131 131.932C55.6287 132.667 55.73 133.446 55.73 134.312ZM80.391 127.725C80.391 128.806 80.276 129.974 80.046 131.227C79.8302 132.481 79.442 133.635 78.8957 134.701C78.3492 135.768 77.6446 136.648 76.7668 137.325C75.8896 138.017 74.7677 138.363 73.4309 138.363C71.1876 138.363 69.4189 137.469 68.1248 135.667C66.8305 133.88 66.1836 131.415 66.1836 128.288C66.1836 125.073 66.8307 122.537 68.1538 120.648C69.4624 118.76 71.2456 117.823 73.4889 117.823C75.6177 117.823 77.2994 118.717 78.5355 120.475C79.7722 122.248 80.391 124.669 80.391 127.725ZM88.1846 127.451C88.1846 125.361 87.8826 123.459 87.2931 121.758C86.6891 120.042 85.8551 118.572 84.7476 117.333C83.6405 116.094 82.3456 115.142 80.8363 114.45C79.3271 113.758 77.6591 113.412 75.8324 113.412C73.8196 113.412 72.0509 113.802 70.5263 114.551C69.0021 115.315 67.578 116.511 66.2839 118.154L66.2409 114.074H59.0654V156H66.2271V138.292C66.9317 139.113 67.6075 139.805 68.269 140.367C68.916 140.929 69.5776 141.39 70.2529 141.736C70.9286 142.082 71.6332 142.341 72.3802 142.485C73.1279 142.629 73.9337 142.702 74.7822 142.702C76.6806 142.702 78.463 142.312 80.102 141.563C81.741 140.799 83.1648 139.732 84.3582 138.348C85.5515 136.964 86.487 135.35 87.163 133.52C87.8533 131.674 88.1846 129.642 88.1846 127.451ZM91.3771 142.024H98.7388V101H91.3771V142.024ZM130.139 142.038V114.047H122.777V129.109C122.777 130.45 122.72 131.488 122.605 132.223C122.489 132.958 122.303 133.607 122.044 134.213C121.008 136.518 119.095 137.687 116.321 137.687C114.149 137.687 112.64 136.909 111.776 135.337C111.431 134.746 111.201 134.069 111.072 133.319C110.942 132.569 110.871 131.488 110.871 130.061V114.049H103.509V129.954C103.509 131.035 103.523 131.957 103.538 132.692C103.552 133.427 103.61 134.105 103.681 134.682C103.753 135.258 103.84 135.777 103.94 136.225C104.027 136.672 104.17 137.104 104.357 137.508C105.033 139.223 106.112 140.521 107.622 141.399C109.131 142.278 110.987 142.711 113.172 142.711C115.142 142.711 116.882 142.365 118.377 141.673C119.873 140.981 121.326 139.856 122.734 138.286L122.748 142.034L130.139 142.048L130.139 142.038ZM161.865 142.024V126.149C161.865 125.068 161.851 124.146 161.837 123.382C161.822 122.618 161.779 121.955 161.693 121.393C161.621 120.831 161.52 120.341 161.42 119.923C161.305 119.49 161.175 119.072 161.031 118.668C160.356 116.997 159.277 115.7 157.767 114.791C156.258 113.882 154.402 113.421 152.202 113.421C150.232 113.421 148.492 113.767 146.996 114.459C145.501 115.151 144.048 116.29 142.639 117.846L142.625 114.099H135.219V142.029H142.639V126.951C142.639 125.654 142.682 124.63 142.783 123.909C142.869 123.188 143.056 122.511 143.315 121.862C143.789 120.737 144.537 119.902 145.529 119.325C146.521 118.749 147.701 118.461 149.08 118.461C151.252 118.461 152.761 119.239 153.625 120.811C153.956 121.402 154.186 122.079 154.315 122.814C154.444 123.549 154.516 124.644 154.516 126.057V141.993L161.864 142.008L161.865 142.024ZM192.325 140.178L181.111 126.21L190.586 116.035L185.007 113.628L175.142 125.087H174.366V101.008H166.946V142.032H174.366V127.171L185.466 142.588L192.324 140.18L192.325 140.178ZM221 130.146V125.576L198.689 114.361V119.391L215.979 127.824L198.689 136.371V141.286L221 130.146ZM200.856 107.105C199.49 107.105 198.382 108.23 198.382 109.614C198.382 111.027 199.49 112.137 200.856 112.137C202.237 112.137 203.33 111.027 203.33 109.614C203.33 108.216 202.237 107.105 200.856 107.105ZM200.871 107.495C201.978 107.495 202.869 108.446 202.869 109.628C202.869 110.81 201.978 111.761 200.871 111.747C199.75 111.747 198.857 110.81 198.857 109.614C198.857 108.446 199.75 107.495 200.871 107.495ZM200.397 109.874H200.697C201.058 109.874 201.23 110.003 201.302 110.364C201.36 110.739 201.431 110.984 201.489 111.07H201.964C201.92 110.984 201.848 110.811 201.792 110.378C201.734 109.96 201.575 109.744 201.317 109.701V109.672C201.619 109.585 201.863 109.355 201.863 108.994C201.863 108.735 201.776 108.533 201.604 108.418C201.431 108.288 201.158 108.202 200.742 108.202C200.411 108.202 200.18 108.23 199.951 108.274V111.07H200.397V109.874ZM200.397 108.576C200.468 108.562 200.569 108.547 200.713 108.547C201.216 108.547 201.389 108.793 201.389 109.038C201.389 109.384 201.071 109.513 200.713 109.513H200.397V108.576Z" fill="white"/>
<linearGradient id="linearGradient" x1="19.053" y1="-5.23165e-06" x2="236.947" y2="256" gradientUnits="userSpaceOnUse">
<stop stop-color="#EE2980"/>
<stop offset="1" stop-color="#F2731D"/>
</linearGradient>
</svg>