<svg width="256" height="256" title="Spring Security" viewBox="0 0 256 256" fill="none" xmlns="http://www.w3.org/2000/svg" id="springsecurity">
<style>
#springsecurity {
    rect {fill: #15191C}

    @media (prefers-color-scheme: light) {
        rect {fill: #F4F2ED}
    }
}
</style>
<rect width="256" height="256" rx="40" fill="#15191C"/>
<path d="M188 66.4636L127.956 52L68 66.4636V112.747H99.832C99.5526 114.963 99.5526 117.206 99.832 119.423H68V141.162C68 191.073 127.956 220 127.956 220C127.956 220 187.911 191.073 187.911 141.196V119.445H156.157C156.451 117.229 156.451 114.985 156.157 112.769H188V66.4636ZM127.956 137.836C123.667 137.827 119.476 136.544 115.915 134.15C112.353 131.756 109.579 128.358 107.944 124.385C106.308 120.411 105.885 116.042 106.727 111.827C107.569 107.613 109.639 103.744 112.675 100.708C115.711 97.6719 119.577 95.6058 123.784 94.7706C127.991 93.9353 132.351 94.3684 136.313 96.0152C140.274 97.6619 143.66 100.448 146.042 104.023C148.424 107.597 149.695 111.798 149.695 116.096C149.695 118.955 149.132 121.785 148.039 124.426C146.946 127.066 145.344 129.465 143.325 131.484C141.306 133.503 138.909 135.104 136.272 136.194C133.634 137.284 130.808 137.842 127.956 137.836Z" fill="#6BB344"/>
<path d="M127.956 105.782C126.695 105.781 125.47 106.204 124.479 106.984C123.487 107.765 122.786 108.857 122.489 110.084C122.192 111.312 122.315 112.604 122.839 113.753C123.364 114.902 124.259 115.841 125.38 116.419V117.876L127.034 119.534V120.646L128.144 121.759V122.872L127.167 123.851L128.211 125.575V126.688L127.101 128.012L128.655 129.569L130.376 127.845V116.53C131.548 115.992 132.5 115.067 133.072 113.909C133.644 112.751 133.801 111.432 133.517 110.172C133.233 108.912 132.526 107.788 131.513 106.989C130.501 106.19 129.244 105.764 127.956 105.782ZM127.956 111.634C127.543 111.634 127.139 111.512 126.796 111.282C126.453 111.052 126.185 110.725 126.027 110.343C125.869 109.961 125.828 109.54 125.908 109.135C125.989 108.729 126.188 108.356 126.48 108.064C126.772 107.771 127.143 107.572 127.548 107.491C127.953 107.411 128.373 107.452 128.754 107.61C129.136 107.769 129.462 108.037 129.691 108.381C129.921 108.725 130.043 109.129 130.043 109.543C130.043 110.098 129.823 110.63 129.432 111.022C129.04 111.414 128.509 111.634 127.956 111.634Z" fill="#6BB344"/>
</svg>