<svg width="256" height="256" title="Spring AI" viewBox="0 0 256 256" fill="none" xmlns="http://www.w3.org/2000/svg" id="springai">
<style>
#springai {
    rect {fill: #15191C}

    @media (prefers-color-scheme: light) {
        rect {fill: #F4F2ED}
    }
}
</style>
<rect width="256" height="256" rx="40" fill="#15191C"/>
<path d="M120.408 141.128H82.4512L88.2194 127.386C86.3837 127.693 84.5446 128.153 82.6846 128.875C65.0701 135.61 64.7984 156.082 73.799 161.883L74.4503 160.335H86.2583C90.372 159.32 94.8688 158.086 98.251 156.842C106.064 153.952 114.399 148.263 120.408 141.128Z" fill="#6DB33F"/>
<path d="M72.0609 165.09C71.0368 165.09 70.0337 165.525 69.3545 166.397C68.1667 167.924 68.32 170.116 69.8073 171.333L72.4336 165.11C72.3082 165.097 72.1828 165.09 72.0609 165.09Z" fill="#6DB33F"/>
<path d="M160.931 176.021L141.195 130.447C142.669 143.442 140.572 153.569 134.887 161.119C134.431 161.726 133.929 162.308 133.393 162.869L142.031 183.422C143.905 188.002 147.308 191 152.244 191C157.862 191 162.119 186.42 162.119 180.602C162.119 179.193 161.777 177.607 160.927 176.021H160.931Z" fill="#6DB33F"/>
<path d="M67.0904 174.969C63.6072 172.26 63.022 167.164 65.7807 163.615C66.4982 162.691 67.4004 161.963 68.407 161.443C64.5616 158.627 63.1474 154.82 63.4539 148.103C63.6769 143.282 65.2478 138.628 68.0065 134.644C71.0926 130.189 75.6068 126.728 81.0475 124.65C84.2207 123.423 87.2755 122.855 90.2536 122.545L103.389 91.259L114.469 117.65C118.851 115.228 122.762 111.927 125.277 108.347C126.461 106.66 128.377 105.638 130.425 105.589L116.663 73.8123C114.281 68.3499 110.195 65 104.235 65H103.215C97.2548 65 93.0018 68.3499 90.6158 73.8123L46.3619 176.021C45.512 177.785 45 179.368 45 180.954C45 186.594 49.2565 191 54.7042 191C59.1313 191 62.705 188.532 64.4083 184.126L68.0169 175.582C67.6965 175.397 67.3865 175.195 67.0939 174.965L67.0904 174.969Z" fill="#6DB33F"/>
<path d="M132.407 111.463C132.139 110.588 131.366 110.118 130.582 110.118C129.986 110.118 129.387 110.386 128.987 110.954C125.845 115.43 121.198 119.191 116.235 121.851L122.943 137.83C122.971 137.788 123.003 137.746 123.034 137.705C123.198 137.464 123.427 137.363 123.65 137.363C124.159 137.363 124.65 137.879 124.361 138.472C124.159 138.883 123.946 139.294 123.73 139.702L124.33 141.131H122.94C118.206 149.306 110.686 156.357 103.117 160.338H129.506C130.153 159.732 130.753 159.087 131.275 158.393C140.822 145.705 136.838 125.888 132.414 111.463H132.407Z" fill="#6DB33F"/>
<path d="M86.5997 168.656C88.6513 168.725 91.1209 168.788 93.8378 168.788C106.464 168.788 124.5 167.387 131.268 158.393C140.816 145.705 136.831 125.888 132.407 111.463C132.139 110.588 131.366 110.118 130.582 110.118C129.986 110.118 129.387 110.386 128.987 110.954C123.898 118.198 114.873 123.576 106.935 125.434C98.251 127.498 90.682 125.78 82.6846 128.878C64.4536 135.85 64.7984 157.536 74.7743 162.44L75.3769 162.785C75.3769 162.785 90.0829 159.861 98.251 156.849C107.279 153.51 117.004 146.433 123.034 137.708C123.198 137.468 123.427 137.367 123.65 137.367C124.159 137.367 124.65 137.882 124.361 138.475C119.742 147.908 111.233 156.194 102.723 160.551C99.0068 162.454 91.5215 165.051 86.3315 166.759C85.297 167.101 85.513 168.624 86.5997 168.663V168.656Z" fill="#6DB33F"/>
<path d="M74.8579 170.873C74.1822 171.744 73.1755 172.18 72.1515 172.18C71.3538 172.18 70.5457 171.915 69.87 171.389C68.3234 170.182 68.1493 167.948 69.3545 166.397C70.0302 165.525 71.0368 165.09 72.0609 165.09C72.8586 165.09 73.6666 165.355 74.3424 165.881C75.8053 167.087 76.0631 169.321 74.8579 170.873Z" fill="#6DB33F"/>
<path d="M174.028 106.283C174.028 100.455 178.493 95.7906 184.317 95.7906C190.141 95.7906 194.801 100.455 194.801 106.283V179.929C194.801 185.757 190.141 190.226 184.317 190.226C178.493 190.226 174.028 185.757 174.028 179.929V106.283Z" fill="#6DB33F"/>
<path d="M195 78.1975C195 84.0258 190.339 88.6899 184.516 88.6899C178.692 88.6899 174.031 84.0258 174.031 78.1975C174.031 72.3691 178.692 67.705 184.516 67.705C190.148 67.5098 195 72.1739 195 78.1975Z" fill="#6DB33F"/>
</svg>