<svg width="256" height="256" title="Spring GraphQL" viewBox="0 0 256 256" fill="none" xmlns="http://www.w3.org/2000/svg" id="springgraphql">
<style>
#springgraphql {
    rect {fill: #15191C}

    @media (prefers-color-scheme: light) {
        rect {fill: #F4F2ED}
    }
}
</style>
<rect width="256" height="256" rx="40" fill="#15191C"/>
<path d="M181.169 94.2419C181.162 93.8529 181.191 93.4641 181.254 93.0802L132.274 64.8369C131.114 65.7677 129.674 66.2796 128.186 66.2896C126.698 66.2996 125.251 65.8071 124.079 64.8921L74.9896 93.1975C75.0272 93.467 75.0486 93.7384 75.0537 94.0105C75.0825 95.3486 74.6987 96.6633 73.9545 97.7764C73.2103 98.8895 72.1416 99.7472 70.893 100.233V156.67C72.0767 157.156 73.0917 157.978 73.8123 159.034C74.5329 160.09 74.9274 161.334 74.9469 162.612C74.9543 163.061 74.9161 163.51 74.8329 163.952L123.89 192.241C125.088 191.238 126.605 190.696 128.168 190.711C129.731 190.726 131.238 191.297 132.416 192.323L181.297 164.135C180.997 162.592 181.262 160.993 182.043 159.628C182.825 158.264 184.07 157.225 185.554 156.7V100.312C184.29 99.8687 183.192 99.0494 182.408 97.9642C181.624 96.879 181.191 95.58 181.169 94.2419ZM94.6531 155.717C93.7141 155.734 92.7913 155.472 92.0012 154.965C91.2112 154.457 90.5895 153.728 90.2147 152.868C89.84 152.008 89.7289 151.056 89.8957 150.133C90.0625 149.21 90.4996 148.357 91.1517 147.682C91.8038 147.007 92.6417 146.54 93.5593 146.341C94.477 146.141 95.4332 146.218 96.3071 146.562C97.181 146.905 97.9333 147.5 98.4689 148.27C99.0045 149.041 99.2993 149.953 99.316 150.89C99.3383 152.148 98.8596 153.363 97.9852 154.268C97.1107 155.173 95.9121 155.694 94.6531 155.717ZM158.048 144.954C144.373 160.856 114.103 146.925 102.802 154.08C104.168 153.136 106.583 151.709 109.418 151.059C119.418 148.75 123.913 147.975 129.983 145.352C141.37 140.4 153.175 128.84 156.221 116.23C151.221 128.231 137.777 137.966 125.846 141.492C117.738 143.904 101.101 145.708 101.017 145.708C100.872 145.579 100.718 145.46 100.556 145.352C91.0819 139.96 92.1951 118.769 110.407 113.105C118.388 110.607 127.737 112.895 136.306 111.425C145.424 109.894 156.262 103.831 161.072 95.3129C164.897 109.664 169.161 132.008 158.048 144.954ZM181.169 94.2419C181.162 93.8529 181.191 93.4641 181.254 93.0802L132.274 64.8369C131.114 65.7677 129.674 66.2796 128.186 66.2896C126.698 66.2996 125.251 65.8071 124.079 64.8921L74.9896 93.1975C75.0272 93.467 75.0486 93.7384 75.0537 94.0105C75.0825 95.3486 74.6987 96.6633 73.9545 97.7764C73.2103 98.8895 72.1416 99.7472 70.893 100.233V156.67C72.0767 157.156 73.0917 157.978 73.8123 159.034C74.5329 160.09 74.9274 161.334 74.9469 162.612C74.9543 163.061 74.9161 163.51 74.8329 163.952L123.89 192.241C125.088 191.238 126.605 190.696 128.168 190.711C129.731 190.726 131.238 191.297 132.416 192.323L181.297 164.135C180.997 162.592 181.262 160.993 182.043 159.628C182.825 158.264 184.07 157.225 185.554 156.7V100.312C184.29 99.8687 183.192 99.0494 182.408 97.9642C181.624 96.879 181.191 95.58 181.169 94.2419ZM94.6531 155.717C93.7141 155.734 92.7913 155.472 92.0012 154.965C91.2112 154.457 90.5895 153.728 90.2147 152.868C89.84 152.008 89.7289 151.056 89.8957 150.133C90.0625 149.21 90.4996 148.357 91.1517 147.682C91.8038 147.007 92.6417 146.54 93.5593 146.341C94.477 146.141 95.4332 146.218 96.3071 146.562C97.181 146.905 97.9333 147.5 98.4689 148.27C99.0045 149.041 99.2993 149.953 99.316 150.89C99.3383 152.148 98.8596 153.363 97.9852 154.268C97.1107 155.173 95.9121 155.694 94.6531 155.717ZM158.048 144.954C144.373 160.856 114.103 146.925 102.802 154.08C104.168 153.136 106.583 151.709 109.418 151.059C119.418 148.75 123.913 147.975 129.983 145.352C141.37 140.4 153.175 128.84 156.221 116.23C151.221 128.231 137.777 137.966 125.846 141.492C117.738 143.904 101.101 145.708 101.017 145.708C100.872 145.579 100.718 145.46 100.556 145.352C91.0819 139.96 92.1951 118.769 110.407 113.105C118.388 110.607 127.737 112.895 136.306 111.425C145.424 109.894 156.262 103.831 161.072 95.3129C164.897 109.664 169.161 132.008 158.048 144.954ZM181.169 94.2419C181.162 93.8529 181.191 93.4641 181.254 93.0802L132.274 64.8369C131.114 65.7677 129.674 66.2796 128.186 66.2896C126.698 66.2996 125.251 65.8071 124.079 64.8921L74.9896 93.1975C75.0272 93.467 75.0486 93.7384 75.0537 94.0105C75.0825 95.3486 74.6987 96.6633 73.9545 97.7764C73.2103 98.8895 72.1416 99.7472 70.893 100.233V156.67C72.0767 157.156 73.0917 157.978 73.8123 159.034C74.5329 160.09 74.9274 161.334 74.9469 162.612C74.9543 163.061 74.9161 163.51 74.8329 163.952L123.89 192.241C125.088 191.238 126.605 190.696 128.168 190.711C129.731 190.726 131.238 191.297 132.416 192.323L181.297 164.135C180.997 162.592 181.262 160.993 182.043 159.628C182.825 158.264 184.07 157.225 185.554 156.7V100.312C184.29 99.8687 183.192 99.0494 182.408 97.9642C181.624 96.879 181.191 95.58 181.169 94.2419ZM94.6531 155.717C93.7141 155.734 92.7913 155.472 92.0012 154.965C91.2112 154.457 90.5895 153.728 90.2147 152.868C89.84 152.008 89.7289 151.056 89.8957 150.133C90.0625 149.21 90.4996 148.357 91.1517 147.682C91.8038 147.007 92.6417 146.54 93.5593 146.341C94.477 146.141 95.4332 146.218 96.3071 146.562C97.181 146.905 97.9333 147.5 98.4689 148.27C99.0045 149.041 99.2993 149.953 99.316 150.89C99.3383 152.148 98.8596 153.363 97.9852 154.268C97.1107 155.173 95.9121 155.694 94.6531 155.717ZM158.048 144.954C144.373 160.856 114.103 146.925 102.802 154.08C104.168 153.136 106.583 151.709 109.418 151.059C119.418 148.75 123.913 147.975 129.983 145.352C141.37 140.4 153.175 128.84 156.221 116.23C151.221 128.231 137.777 137.966 125.846 141.492C117.738 143.904 101.101 145.708 101.017 145.708C100.872 145.579 100.718 145.46 100.556 145.352C91.0819 139.96 92.1951 118.769 110.407 113.105C118.388 110.607 127.737 112.895 136.306 111.425C145.424 109.894 156.262 103.831 161.072 95.3129C164.897 109.664 169.161 132.008 158.048 144.954ZM127.999 42L53 85.2509V171.749L127.999 215L203 171.749V85.2509L127.999 42ZM187.866 169.426C186.373 169.463 184.913 168.984 183.734 168.07L134.602 196.401C134.635 196.647 134.653 196.896 134.657 197.144C134.675 198.052 134.504 198.954 134.154 199.793C133.805 200.631 133.285 201.388 132.627 202.015C131.969 202.642 131.187 203.125 130.333 203.434C129.478 203.744 128.568 203.872 127.66 203.811C126.753 203.75 125.868 203.502 125.062 203.081C124.256 202.661 123.547 202.077 122.978 201.368C122.41 200.659 121.996 199.84 121.762 198.962C121.527 198.085 121.478 197.168 121.617 196.271L72.4285 167.905C71.465 168.649 70.3134 169.111 69.1022 169.24C67.891 169.369 66.6677 169.16 65.5688 168.635C64.4698 168.11 63.5384 167.291 62.8785 166.268C62.2185 165.245 61.8558 164.06 61.8309 162.843C61.8093 161.459 62.2263 160.103 63.0225 158.969C63.8187 157.836 64.9533 156.983 66.2641 156.532V100.291C65.3608 99.9634 64.5404 99.442 63.861 98.7634C63.1816 98.0848 62.6597 97.2654 62.3321 96.3631C62.0046 95.4609 61.8795 94.4978 61.9656 93.5419C62.0517 92.5861 62.3469 91.6607 62.8304 90.8314C63.3139 90.002 63.9739 89.2888 64.7637 88.7422C65.5535 88.1956 66.4539 87.8289 67.4011 87.6681C68.3484 87.5073 69.3195 87.5562 70.2458 87.8114C71.172 88.0666 72.0309 88.5219 72.7616 89.1451H72.7634L121.683 60.9338C121.508 59.9921 121.542 59.0234 121.782 58.096C122.022 57.1686 122.463 56.305 123.073 55.5662C123.683 54.8273 124.448 54.2311 125.314 53.8195C126.18 53.4079 127.126 53.191 128.085 53.184C129.044 53.177 129.993 53.3801 130.865 53.779C131.737 54.1779 132.511 54.7629 133.132 55.4927C133.753 56.2226 134.206 57.0796 134.46 58.0034C134.714 58.9272 134.761 59.8953 134.6 60.8395L183.559 89.0722C184.29 88.4729 185.141 88.0383 186.056 87.7983C186.97 87.5582 187.925 87.5184 188.856 87.6815C189.787 87.8445 190.672 88.2067 191.45 88.7431C192.228 89.2795 192.881 89.9775 193.364 90.7893C193.847 91.6011 194.148 92.5075 194.247 93.4465C194.347 94.3855 194.242 95.3348 193.94 96.2295C193.638 97.1243 193.146 97.9432 192.497 98.6303C191.849 99.3174 191.059 99.8564 190.183 100.21V156.796C191.586 157.36 192.751 158.391 193.481 159.713C194.21 161.036 194.46 162.57 194.187 164.056C193.915 165.542 193.137 166.888 191.985 167.866C190.833 168.845 189.378 169.395 187.866 169.426V169.426ZM181.169 94.2419C181.162 93.8529 181.191 93.4641 181.254 93.0802L132.274 64.8369C131.114 65.7677 129.674 66.2796 128.186 66.2896C126.698 66.2996 125.251 65.8071 124.079 64.8921L74.9896 93.1975C75.0272 93.467 75.0486 93.7384 75.0537 94.0105C75.0825 95.3486 74.6987 96.6633 73.9545 97.7764C73.2103 98.8895 72.1416 99.7472 70.893 100.233V156.67C72.0767 157.156 73.0917 157.978 73.8123 159.034C74.5329 160.09 74.9274 161.334 74.9469 162.612C74.9543 163.061 74.9161 163.51 74.8329 163.952L123.89 192.241C125.088 191.238 126.605 190.696 128.168 190.711C129.731 190.726 131.238 191.297 132.416 192.323L181.297 164.135C180.997 162.592 181.262 160.993 182.043 159.628C182.825 158.264 184.07 157.225 185.554 156.7V100.312C184.29 99.8687 183.192 99.0494 182.408 97.9642C181.624 96.879 181.191 95.58 181.169 94.2419H181.169ZM94.6532 155.717C93.7143 155.734 92.7914 155.472 92.0014 154.965C91.2114 154.457 90.5897 153.728 90.2149 152.868C89.8401 152.008 89.7291 151.056 89.8959 150.133C90.0627 149.21 90.4996 148.357 91.1517 147.682C91.8038 147.007 92.6418 146.54 93.5595 146.341C94.4772 146.141 95.4334 146.218 96.3073 146.562C97.1812 146.905 97.9335 147.5 98.4691 148.27C99.0046 149.041 99.2993 149.953 99.316 150.89C99.3383 152.148 98.8596 153.363 97.9852 154.268C97.1107 155.173 95.9121 155.694 94.6531 155.717H94.6532ZM158.048 144.954C144.373 160.856 114.103 146.925 102.802 154.08C104.168 153.136 106.583 151.709 109.419 151.059C119.418 148.75 123.913 147.975 129.983 145.352C141.37 140.4 153.175 128.84 156.221 116.23C151.221 128.231 137.777 137.966 125.846 141.492C117.738 143.904 101.101 145.708 101.017 145.708C100.872 145.579 100.718 145.46 100.556 145.352C91.0821 139.96 92.1953 118.769 110.407 113.105C118.388 110.607 127.737 112.895 136.306 111.425C145.424 109.894 156.262 103.831 161.072 95.3129C164.897 109.664 169.161 132.008 158.048 144.954H158.048ZM181.169 94.2419C181.162 93.8529 181.191 93.4641 181.254 93.0802L132.274 64.8369C131.114 65.7677 129.674 66.2796 128.186 66.2896C126.698 66.2996 125.251 65.8071 124.079 64.8921L74.9896 93.1975C75.0272 93.467 75.0486 93.7384 75.0537 94.0105C75.0825 95.3486 74.6987 96.6633 73.9545 97.7764C73.2103 98.8895 72.1416 99.7472 70.893 100.233V156.67C72.0767 157.156 73.0917 157.978 73.8123 159.034C74.5329 160.09 74.9274 161.334 74.9469 162.612C74.9543 163.061 74.9161 163.51 74.8329 163.952L123.89 192.241C125.088 191.238 126.605 190.696 128.168 190.711C129.731 190.726 131.238 191.297 132.416 192.323L181.297 164.135C180.997 162.592 181.262 160.993 182.043 159.628C182.825 158.264 184.07 157.225 185.554 156.7V100.312C184.29 99.8687 183.192 99.0494 182.408 97.9642C181.624 96.879 181.191 95.58 181.169 94.2419H181.169ZM94.6532 155.717C93.7143 155.734 92.7914 155.472 92.0014 154.965C91.2114 154.457 90.5897 153.728 90.2149 152.868C89.8401 152.008 89.7291 151.056 89.8959 150.133C90.0627 149.21 90.4996 148.357 91.1517 147.682C91.8038 147.007 92.6418 146.54 93.5595 146.341C94.4772 146.141 95.4334 146.218 96.3073 146.562C97.1812 146.905 97.9335 147.5 98.4691 148.27C99.0046 149.041 99.2993 149.953 99.316 150.89C99.3383 152.148 98.8596 153.363 97.9852 154.268C97.1107 155.173 95.9121 155.694 94.6531 155.717H94.6532ZM158.048 144.954C144.373 160.856 114.103 146.925 102.802 154.08C104.168 153.136 106.583 151.709 109.419 151.059C119.418 148.75 123.913 147.975 129.983 145.352C141.37 140.4 153.175 128.84 156.221 116.23C151.221 128.231 137.777 137.966 125.846 141.492C117.738 143.904 101.101 145.708 101.017 145.708C100.872 145.579 100.718 145.46 100.556 145.352C91.0821 139.96 92.1953 118.769 110.407 113.105C118.388 110.607 127.737 112.895 136.306 111.425C145.424 109.894 156.262 103.831 161.072 95.3129C164.897 109.664 169.161 132.008 158.048 144.954H158.048ZM181.169 94.2419C181.162 93.8529 181.191 93.4641 181.254 93.0802L132.274 64.8369C131.114 65.7677 129.674 66.2796 128.186 66.2896C126.698 66.2996 125.251 65.8071 124.079 64.8921L74.9896 93.1975C75.0272 93.467 75.0486 93.7384 75.0537 94.0105C75.0825 95.3486 74.6987 96.6633 73.9545 97.7764C73.2103 98.8895 72.1416 99.7472 70.893 100.233V156.67C72.0767 157.156 73.0917 157.978 73.8123 159.034C74.5329 160.09 74.9274 161.334 74.9469 162.612C74.9543 163.061 74.9161 163.51 74.8329 163.952L123.89 192.241C125.088 191.238 126.605 190.696 128.168 190.711C129.731 190.726 131.238 191.297 132.416 192.323L181.297 164.135C180.997 162.592 181.262 160.993 182.043 159.628C182.825 158.264 184.07 157.225 185.554 156.7V100.312C184.29 99.8687 183.192 99.0494 182.408 97.9642C181.624 96.879 181.191 95.58 181.169 94.2419H181.169ZM94.6532 155.717C93.7143 155.734 92.7914 155.472 92.0014 154.965C91.2114 154.457 90.5897 153.728 90.2149 152.868C89.8401 152.008 89.7291 151.056 89.8959 150.133C90.0627 149.21 90.4996 148.357 91.1517 147.682C91.8038 147.007 92.6418 146.54 93.5595 146.341C94.4772 146.141 95.4334 146.218 96.3073 146.562C97.1812 146.905 97.9335 147.5 98.4691 148.27C99.0046 149.041 99.2993 149.953 99.316 150.89C99.3383 152.148 98.8596 153.363 97.9852 154.268C97.1107 155.173 95.9121 155.694 94.6531 155.717H94.6532ZM158.048 144.954C144.373 160.856 114.103 146.925 102.802 154.08C104.168 153.136 106.583 151.709 109.419 151.059C119.418 148.75 123.913 147.975 129.983 145.352C141.37 140.4 153.175 128.84 156.221 116.23C151.221 128.231 137.777 137.966 125.846 141.492C117.738 143.904 101.101 145.708 101.017 145.708C100.872 145.579 100.718 145.46 100.556 145.352C91.0821 139.96 92.1953 118.769 110.407 113.105C118.388 110.607 127.737 112.895 136.306 111.425C145.424 109.894 156.262 103.831 161.072 95.3129C164.897 109.664 169.161 132.008 158.048 144.954H158.048ZM181.169 94.2419C181.162 93.8529 181.191 93.4641 181.254 93.0802L132.274 64.8369C131.114 65.7677 129.674 66.2796 128.186 66.2896C126.698 66.2996 125.251 65.8071 124.079 64.8921L74.9896 93.1975C75.0272 93.467 75.0486 93.7384 75.0537 94.0105C75.0825 95.3486 74.6987 96.6633 73.9545 97.7764C73.2103 98.8895 72.1416 99.7472 70.893 100.233V156.67C72.0767 157.156 73.0917 157.978 73.8123 159.034C74.5329 160.09 74.9274 161.334 74.9469 162.612C74.9543 163.061 74.9161 163.51 74.8329 163.952L123.89 192.241C125.088 191.238 126.605 190.696 128.168 190.711C129.731 190.726 131.238 191.297 132.416 192.323L181.297 164.135C180.997 162.592 181.262 160.993 182.043 159.628C182.825 158.264 184.07 157.225 185.554 156.7V100.312C184.29 99.8687 183.192 99.0494 182.408 97.9642C181.624 96.879 181.191 95.58 181.169 94.2419H181.169ZM94.6532 155.717C93.7143 155.734 92.7914 155.472 92.0014 154.965C91.2114 154.457 90.5897 153.728 90.2149 152.868C89.8401 152.008 89.7291 151.056 89.8959 150.133C90.0627 149.21 90.4996 148.357 91.1517 147.682C91.8038 147.007 92.6418 146.54 93.5595 146.341C94.4772 146.141 95.4334 146.218 96.3073 146.562C97.1812 146.905 97.9335 147.5 98.4691 148.27C99.0046 149.041 99.2993 149.953 99.316 150.89C99.3383 152.148 98.8596 153.363 97.9852 154.268C97.1107 155.173 95.9121 155.694 94.6531 155.717H94.6532ZM158.048 144.954C144.373 160.856 114.103 146.925 102.802 154.08C104.168 153.136 106.583 151.709 109.419 151.059C119.418 148.75 123.913 147.975 129.983 145.352C141.37 140.4 153.175 128.84 156.221 116.23C151.221 128.231 137.777 137.966 125.846 141.492C117.738 143.904 101.101 145.708 101.017 145.708C100.872 145.579 100.718 145.46 100.556 145.352C91.0821 139.96 92.1953 118.769 110.407 113.105C118.388 110.607 127.737 112.895 136.306 111.425C145.424 109.894 156.262 103.831 161.072 95.3129C164.897 109.664 169.161 132.008 158.048 144.954H158.048Z" fill="#6DB33F"/>
</svg>