<svg width="256" height="256" title="SQLAlchemy" viewBox="0 0 256 256" fill="none" xmlns="http://www.w3.org/2000/svg" id="sqlalchemy">
<style>
#sqlalchemy {
    rect {fill: #15191C}
    path.sqlal  {fill: #F4F2ED}

    @media (prefers-color-scheme: light) {
        rect {fill: #F4F2ED}
        path.sqlal {fill: #15191C}
    }
}
</style>
<rect width="256" height="256" rx="40" fill="#15191C"/>
<path d="M55.4758 140.297C54.4687 140.136 51.8886 139.491 49.7527 138.907L45.8608 137.817L49.8518 130.481L48.2398 128.484C45.9614 125.663 43.0196 119.476 43.0001 117.482C42.979 112.825 49.0248 106.074 56.4424 102.446C61.5411 99.9471 65.5921 99.8871 70.6712 102.266L74.5001 104.058L75.6093 102.467C76.2127 101.6 76.717 100.451 76.717 99.9471C76.717 99.4428 77.2213 99 77.8262 99C78.431 99 78.9338 99.1606 78.9338 99.3422C78.9338 99.7865 74.4806 111.031 74.1984 111.314C74.0768 111.434 72.8671 110.871 71.4967 110.065C67.6273 107.786 62.7703 106.275 59.0015 106.174C50.2345 105.952 47.1907 114.52 53.379 122.015L55.5553 124.657L61.5005 119.839C68.1722 114.458 68.9376 114.337 74.1384 117.925C79.9815 121.955 80.0821 128.082 74.4386 134.491C69.4405 140.195 64.3028 141.768 55.4743 140.295L55.4758 140.297ZM70.4311 134.15C73.3324 131.873 73.1312 127.66 69.9868 124.315C66.0363 120.123 64.8086 120.304 57.8548 126.108C50.9415 131.872 50.901 131.651 59.1651 134.291C64.6255 136.064 68.0521 136.004 70.4311 134.15ZM126.581 156.36C124.604 155.635 119.283 153.437 114.73 151.462C102.435 146.101 100.702 146 97.0336 150.455C96.187 151.483 95.261 152.127 94.9983 151.866C94.2118 151.079 96.5503 147.31 99.372 144.832C101.668 142.817 102.434 142.535 104.975 142.817C106.587 142.997 111.948 144.873 116.885 146.968C128.031 151.704 131.295 152.712 135.549 152.712C140.727 152.712 143.388 149.085 141.755 144.268C141.353 143.058 141.473 142.655 142.281 142.655C143.791 142.655 144.558 148.298 143.469 151.543C143.004 152.933 141.655 154.908 140.466 155.896C138.692 157.388 137.563 157.71 134.237 157.689C132.001 157.67 128.556 157.086 126.581 156.36ZM97.8606 139.129C93.2857 136.992 89.1537 132.921 86.7747 128.165C82.9668 120.546 84.1346 115.669 91.351 109.079C97.4163 103.536 102.375 101.379 109.047 101.379C113.862 101.379 114.89 101.642 118.014 103.555C125.41 108.132 127.244 116.858 122.791 126.369C117.571 137.536 106.546 143.16 97.8606 139.129ZM113.178 133.828C116.603 132.135 118.962 124.315 117.994 117.825C116.784 109.825 105.963 104.361 98.0212 107.749C89.8591 111.236 89.7375 120.526 97.76 128.89C103.361 134.755 108.179 136.286 113.178 133.828ZM128.717 140.6C128.717 140.256 129.985 139.653 131.558 139.268L134.399 138.563L135.004 128.327C135.669 116.999 135.184 105.853 133.956 104.363C133.512 103.838 132.163 103.192 130.934 102.911C125.935 101.802 129.26 101.037 138.955 101.037C148.649 101.037 151.732 101.742 147.117 102.911C143.147 103.899 143.126 103.959 143.126 120.123C143.126 129.091 143.448 135.843 143.912 136.709C144.558 137.919 145.524 138.18 149.233 138.18C156.891 138.18 159.531 136.367 161.608 129.655C162.233 127.641 163.845 128.004 163.28 130.039C163.017 130.985 162.596 133.867 162.333 136.487L161.85 141.224H145.283C136.172 141.224 128.717 140.942 128.717 140.6Z" class="sqlal" fill="#F4F2ED"/>
<path d="M166.344 140.115C166.344 139.512 166.929 138.907 167.896 138.443C169.186 137.838 170.031 136.568 173.095 130.583C177.952 121.112 185.611 104.846 186.336 102.407C186.9 100.553 187.022 100.453 189.117 100.211C190.327 100.07 191.334 99.9891 191.354 100.03C191.375 100.07 193.048 103.737 195.083 108.192C197.099 112.645 201.15 121.11 204.092 126.995C209.011 136.891 209.555 137.778 211.206 138.583C212.215 139.067 213 139.813 213 140.256C213 140.962 212.134 141.043 204.677 141.043C197.2 141.043 196.353 140.962 196.353 140.237C196.353 139.753 196.999 139.229 198.025 138.886C198.974 138.584 199.699 138.02 199.699 137.596C199.699 137.193 198.711 134.533 197.501 131.692L195.306 126.512H178.657L177.066 130.018C174.082 136.589 174.022 138.141 176.804 138.886C178.195 139.268 178.578 139.572 178.416 140.196C178.235 140.923 177.509 141.022 172.269 141.022C166.645 141.064 166.344 141.022 166.344 140.115ZM193.632 123.81C193.914 123.308 187.646 109.622 187.062 109.481C186.639 109.361 180.149 122.743 180.149 123.75C180.149 124.255 193.33 124.315 193.632 123.81Z" fill="#CA2727"/>
</svg>
