<svg width="256" height="256" title="SST" viewBox="0 0 256 256" fill="none" xmlns="http://www.w3.org/2000/svg" id="sst">
<style>
#sst {
    rect {fill: #15191C}

    @media (prefers-color-scheme: light) {
        rect {fill: #F4F2ED}
    }
}
</style>
<rect width="256" height="256" rx="40" fill="#15191C"/>
<path fill-rule="evenodd" clip-rule="evenodd" d="M92.664 162.111C92.7159 162.035 92.7459 161.946 92.7509 161.854C92.7559 161.763 92.7357 161.671 92.6924 161.59C92.6492 161.508 92.5845 161.44 92.5054 161.393C92.4263 161.345 92.3357 161.32 92.2433 161.32H62.3659C61.135 161.321 59.9162 161.079 58.779 160.61C57.6419 160.141 56.6088 159.453 55.7389 158.585C54.869 157.717 54.1793 156.687 53.7093 155.554C53.2394 154.421 52.9983 153.206 53 151.98L53.0366 108.655C53.0366 106.821 53.5195 105.022 54.4342 103.435L70.3927 75.7205C71.2191 74.2859 72.4108 73.094 73.8474 72.2652C75.2841 71.4363 76.9149 70.9999 78.575 71H175.416C176.417 70.9997 177.4 71.2665 178.263 71.7726C179.125 72.2788 179.836 73.0059 180.321 73.8784C180.806 74.7509 181.048 75.7369 181.021 76.7339C180.994 77.7309 180.7 78.7026 180.169 79.5479L169.755 96.1335C169.599 96.3818 169.513 96.6671 169.505 96.9598C169.497 97.2524 169.568 97.5418 169.711 97.7979C169.853 98.054 170.062 98.2675 170.315 98.4161C170.568 98.5647 170.857 98.6432 171.151 98.6432H194.745C196.934 98.6432 199.034 99.5098 200.582 101.052C202.13 102.595 203 104.687 203 106.869V148.44C203 153.082 201.818 157.655 199.566 161.719C196.727 166.845 192.121 174.106 189.218 179.348C188.103 181.363 186.465 183.043 184.475 184.213C182.486 185.383 180.218 186 177.908 186H87.0207C85.998 186.001 84.9945 185.724 84.1183 185.199C83.242 184.673 82.5265 183.919 82.0488 183.018C81.5703 182.12 81.3468 181.108 81.4022 180.092C81.4577 179.076 81.79 178.095 82.3634 177.253C86.3256 171.427 91.0835 164.439 92.664 162.111ZM106.673 157.759C105.736 157.758 104.813 157.981 103.981 158.411C103.15 158.84 102.434 159.462 101.895 160.225C98.8744 164.495 92.7006 173.224 89.5927 177.612C89.4144 177.864 89.309 178.16 89.2879 178.468C89.2669 178.775 89.331 179.082 89.4733 179.356C89.6157 179.63 89.8307 179.859 90.095 180.019C90.3593 180.179 90.6626 180.264 90.972 180.264H175.808C177.343 180.263 178.851 179.859 180.179 179.092C181.508 178.325 182.61 177.222 183.374 175.896C185.593 172.059 189.401 166.465 191.686 162.512C191.965 162.03 192.112 161.483 192.112 160.926C192.111 160.369 191.964 159.822 191.683 159.34C191.403 158.858 191.001 158.459 190.516 158.181C190.032 157.903 189.483 157.758 188.924 157.759H106.673ZM82.7512 133.551C81.1742 133.557 79.6189 133.919 78.2026 134.61C76.7862 135.301 75.5457 136.303 74.5744 137.541L64.5335 150.336C64.157 150.815 63.9234 151.39 63.8592 151.996C63.7951 152.601 63.9031 153.213 64.1709 153.76C64.4387 154.307 64.8554 154.769 65.3737 155.091C65.8919 155.414 66.4908 155.585 67.1018 155.585H96.425C96.9322 154.517 97.733 153.616 98.7342 152.984C99.7354 152.352 100.896 152.017 102.081 152.016H158.754C159.894 152.017 161.015 151.726 162.01 151.171C163.004 150.617 163.84 149.817 164.435 148.848L172.146 136.3C172.332 135.995 172.434 135.647 172.44 135.291C172.446 134.934 172.357 134.582 172.181 134.272C172.006 133.961 171.75 133.703 171.441 133.523C171.132 133.344 170.78 133.25 170.423 133.251L82.7512 133.551ZM172.823 147.352C172.533 147.814 172.372 148.345 172.358 148.89C172.344 149.434 172.476 149.973 172.742 150.449C173.008 150.926 173.396 151.322 173.868 151.598C174.34 151.874 174.877 152.019 175.424 152.018H191.869C193.138 152.018 194.357 151.513 195.253 150.625C196.149 149.729 196.654 148.517 196.654 147.25V109.056C196.654 107.817 196.159 106.628 195.28 105.752C194.4 104.876 193.208 104.384 191.964 104.384H115.252C113.836 104.384 112.443 104.74 111.202 105.419C109.961 106.098 108.912 107.078 108.152 108.268C105.43 112.533 102.262 119.335 99.5823 123.536C99.3492 123.903 99.2191 124.325 99.2055 124.758C99.1919 125.192 99.2953 125.621 99.505 126.001C99.7147 126.381 100.023 126.699 100.397 126.92C100.772 127.141 101.199 127.257 101.635 127.258H174.478C175.557 127.258 176.617 127.546 177.547 128.091C178.477 128.636 179.243 129.42 179.767 130.36C180.291 131.3 180.553 132.362 180.527 133.437C180.5 134.512 180.185 135.56 179.615 136.473L172.823 147.352ZM159.427 98.6451C160.058 98.6451 160.643 98.3279 160.989 97.803L171.886 81.1755C172.095 80.8569 172.214 80.4879 172.229 80.1075C172.245 79.7272 172.158 79.3497 171.976 79.0149C171.794 78.6801 171.525 78.4004 171.197 78.2055C170.869 78.0106 170.494 77.9077 170.112 77.9076H87.1195C85.9457 77.9074 84.7834 78.1376 83.6989 78.585C82.6144 79.0324 81.629 79.6884 80.799 80.5153C79.969 81.3423 79.3107 82.3241 78.8616 83.4046C78.4125 84.4852 78.1815 85.6433 78.1817 86.8128V118.307C78.1818 119.534 78.4319 120.749 78.9167 121.877C79.4016 123.005 80.1112 124.023 81.0025 124.87C81.8939 125.717 82.9484 126.375 84.1024 126.804C85.2563 127.232 86.4856 127.424 87.7159 127.365H88.8866C88.9177 127.114 98.3476 110.895 103.552 102.945C104.416 101.624 105.597 100.54 106.988 99.7891C108.379 99.0384 109.936 98.6451 111.518 98.6451H159.427Z" fill="#E27152"/>
</svg>