<svg width="256" height="256" title="Stan.js" viewBox="0 0 256 256" fill="none" xmlns="http://www.w3.org/2000/svg" id="stanjs">
<style>
#stanjs {
    rect {fill: #15191C}

    @media (prefers-color-scheme: light) {
        rect {fill: #F4F2ED}
    }
}
</style>
<rect width="256" height="256" rx="40" fill="#15191C"/>
<path d="M88.2564 77.2645C87.0073 74.0261 83.8324 71.9901 80.7355 70.423C78.0074 69.0382 75.045 67.8096 71.9915 68.0224C68.6301 68.2524 65.5897 70.2276 63.3126 72.7151C59.2268 77.1777 57.2317 83.6328 58.6283 89.5237C60.0249 95.4145 65.0041 100.433 70.9809 101.357C72.486 96.4824 74.1992 91.6161 76.9057 87.288C79.6122 82.96 83.403 79.1702 88.2521 77.2645H88.2564Z" fill="#6B3519"/>
<path d="M163.309 73.5528C156.4 66.6245 145.899 64.9401 136.132 64.493C125.31 63.9981 114.328 64.6015 103.944 67.6924C93.5609 70.7876 83.7672 76.5134 77.0141 84.9872C70.5255 93.1311 67.1771 103.254 62.9005 112.753C58.6239 122.251 52.8076 131.775 43.504 136.446C45.8115 136.742 48.1146 137.032 50.422 137.328C45.291 140.167 40.945 144.421 38 149.496C41.2573 147.668 44.5146 145.84 47.7676 144.013C42.9749 150.959 41.8732 160.309 44.9223 168.184C43.9421 164.646 45.9763 160.535 49.3811 159.168C47.0259 164.251 48.2707 170.771 52.3305 174.626C51.7449 172.664 52.0182 170.463 53.0635 168.705C56.7588 176.037 63.6812 181.35 71.2107 184.611C78.7403 187.871 86.9248 189.286 95.0399 190.514C110.19 192.802 125.527 194.526 140.811 193.462C156.096 192.398 171.42 188.418 184.258 180.052C196.702 171.943 211.072 161.147 209.003 146.431C208.213 140.813 206.613 137.414 204.136 132.309C202.627 129.197 193.445 122.924 191.935 119.811C189.012 113.782 188.804 105.946 185.729 99.9943C182.198 93.1615 178.429 86.3677 173.363 80.581C168.297 74.7944 161.804 70.0192 163.3 73.5398L163.309 73.5528Z" fill="#663519"/>
<path d="M156.79 70.1842C157.501 66.5333 161.184 63.8115 164.901 63.907C168.618 64.0025 172.036 66.7113 173.285 70.2102C174.534 73.7135 173.701 77.7984 171.433 80.746C168.011 75.1764 161.986 72.4025 156.794 70.1842H156.79Z" fill="#6B3519"/>
<path d="M147.946 134.536C142.694 128.958 139.81 121.656 136.513 114.758C133.217 107.86 129.088 100.88 122.426 97.0771C113.291 91.8635 100.887 94.2511 93.3354 101.553C85.7885 108.854 82.9345 120.176 83.6979 131.367C72.5077 132.136 61.7208 137.614 54.5339 146.183C58.1295 144.673 61.9984 143.809 65.8976 143.64C60.3762 146.739 56.4163 152.452 55.4664 158.686C56.5637 156.858 58.6326 155.647 60.7709 155.577C60.5671 160.466 60.3632 165.358 60.155 170.246C61.1569 168.24 62.8355 166.578 64.861 165.592C65.8586 172.356 67.5328 179.024 70.0527 184.524C80.6618 191.127 112.966 196.844 135.711 193.827C127.461 185.57 123.697 173.124 126 161.711C128.303 150.299 136.604 140.262 147.946 134.536Z" fill="#A1582E"/>
<path d="M196.459 171.01C200.679 166.773 204.761 162.25 207.302 156.841C209.844 151.432 209.879 142.415 206.296 135.17C203.672 129.861 198.159 126.683 195.496 123.809C193.137 121.266 191.332 117.181 189.554 111.259C188.149 106.588 187.845 105.872 186.314 101.24C184.783 96.6083 178.676 86.2896 174.972 83.8803C170.886 81.2235 165.335 83.1423 162.997 87.4269C161.37 90.4092 161.891 94.0557 162.459 97.4027C164.454 109.197 166.449 120.988 168.444 132.782C176.672 136.043 184.753 140.488 190.144 147.512C195.535 154.536 197.678 164.594 196.459 171.014V171.01Z" fill="#A0572D"/>
<path d="M111.895 136.082C116.757 136.082 120.699 131.831 120.699 126.588C120.699 121.345 116.757 117.094 111.895 117.094C107.032 117.094 103.09 121.345 103.09 126.588C103.09 131.831 107.032 136.082 111.895 136.082Z" fill="black"/>
<path d="M179.149 130.46C183.291 130.46 186.648 126.818 186.648 122.325C186.648 117.832 183.291 114.19 179.149 114.19C175.007 114.19 171.65 117.832 171.65 122.325C171.65 126.818 175.007 130.46 179.149 130.46Z" fill="black"/>
<path d="M193.332 173.853C199.083 169.868 201.573 162.106 200.181 155.243C198.788 148.38 193.978 142.52 188.032 138.834C182.085 135.148 175.089 133.455 168.119 132.835C155.819 131.741 143.102 133.929 132.319 139.954C121.537 145.979 112.832 155.973 109.232 167.793C107.601 173.159 107.072 179.189 109.57 184.211C112.194 189.481 117.793 192.772 123.549 193.974C129.305 195.177 135.273 194.565 141.102 193.783C160.937 191.135 179.444 183.465 193.323 173.853H193.332Z" fill="#FCE6CB"/>
<path d="M111.912 73.44C121.814 73.8437 131.53 77.8983 138.786 84.653C138.179 80.4595 135.746 76.5612 132.241 74.178C134.362 74.4211 136.396 75.3717 137.94 76.8434C137.637 75.515 137.012 74.2648 136.127 73.2316C139.515 73.5745 142.733 75.3587 144.823 78.0545C144.143 76.1097 143.076 74.3038 141.701 72.7671C144.481 73.5789 146.957 75.3935 148.575 77.7984C149.061 75.7407 148.545 73.4704 147.213 71.8294C150.423 72.6238 153.359 74.4731 155.454 77.03C155.081 75.9535 154.704 74.8769 154.331 73.8003C156.786 74.8204 159.059 76.279 161.006 78.0936C158.083 72.359 152.349 68.5519 146.402 66.1036C140.451 63.6552 134.102 62.3138 128.099 60C129.656 61.5541 130.801 63.5163 131.395 65.6347C126.62 62.3746 120.777 60.7163 115.005 60.9767C117.984 62.2877 120.526 64.5625 122.165 67.3755C118.405 64.6232 113.491 63.5032 108.911 64.3584C111.5 64.6276 113.929 66.1383 115.321 68.3392C113.387 68.0266 111.335 68.5215 109.752 69.6806C111.699 70.2015 113.547 71.0871 115.169 72.2809C113.712 72.0118 112.146 72.4242 111.908 73.4487L111.912 73.44Z" fill="#6A361B"/>
<path d="M166.736 151.779C169.264 149.947 171.867 148.024 173.393 145.302C174.92 142.576 175.05 138.804 172.847 136.594C170.99 134.736 168.115 134.475 165.491 134.324C160.49 134.033 155.307 133.768 150.64 135.587C148.345 136.481 146.103 138.04 145.335 140.384C144.455 143.062 145.752 146.023 147.638 148.115C152.214 153.194 161.262 155.755 166.736 151.783V151.779Z" fill="#2C201D"/>
<path d="M81.6593 83.3724C81.1865 80.3857 79.1914 77.6509 76.4372 76.4006C73.683 75.1504 70.2521 75.476 67.8536 77.3166C65.4551 79.1572 64.2494 82.4695 65.0127 85.3953C65.5419 87.4226 66.9124 89.146 68.5389 90.4657C70.1654 91.7854 72.0435 92.7448 73.9085 93.6955C73.3837 92.5277 73.1408 91.2341 73.2146 89.9535C73.8435 89.6756 74.6415 89.8276 75.123 90.3181C74.8714 89.3284 74.6198 88.3386 74.3682 87.3532L76.0555 87.5572C75.2184 86.2983 74.7586 84.7919 74.7413 83.2812C77.0704 82.3696 79.894 82.8862 81.6506 83.3724H81.6593Z" fill="#A0572D"/>
<path d="M168.262 78.4843C168.431 76.0924 168.588 73.6136 167.75 71.3693C167.46 70.5879 167.013 69.8108 166.289 69.3984C165.296 68.8341 163.994 69.1076 163.058 69.7674C162.121 70.4273 161.474 71.4083 160.845 72.3677C163.604 74.1215 166.107 76.2747 168.262 78.4886V78.4843Z" fill="#A0572D"/>
<path d="M184.375 143.722C194.178 134.84 207.094 129.331 220.288 128.415C207.302 130.59 194.941 135.856 184.375 143.722Z" fill="black"/>
<path d="M188.123 148.271C200.614 143.084 214.68 141.538 228 143.9C214.563 142.802 201.005 144.286 188.123 148.271Z" fill="black"/>
<path d="M189.554 155.725C200.159 156.402 210.312 162.949 215.3 172.343C209.25 163.73 199.89 157.683 189.554 155.725Z" fill="black"/>
<path d="M193.705 151.961C203.95 151.015 216.844 151.657 222.925 161.299C215.769 152.552 204.08 152.378 193.705 151.961Z" fill="black"/>
<path d="M88.2564 141.035C101.936 140.579 115.764 143.11 128.394 148.389C115.36 144.299 101.893 141.825 88.2564 141.035Z" fill="black"/>
<path d="M86.2438 158.291C100.141 152.461 115.685 150.381 130.614 152.461C115.603 151.649 100.54 153.654 86.2438 158.291Z" fill="black"/>
<path d="M162.997 165.128C160.06 169.621 155.667 173.302 150.514 175.59C149.729 175.941 148.796 176.428 148.805 177.226C148.814 178.194 150.15 178.603 151.204 178.698C159.596 179.436 168.258 177.187 174.972 172.529C169.694 172.46 164.788 168.562 162.997 165.123V165.128Z" fill="#6E3544"/>
<path d="M87.0246 171.8C100.045 163.717 115.49 159.445 130.81 159.697C115.568 160.713 100.626 164.837 87.0246 171.8Z" fill="black"/>
<path d="M156.04 173.298C156.547 177.183 156.69 181.112 156.465 185.023C159.857 185.44 163.361 184.875 166.449 183.412C167.208 183.052 167.95 182.631 168.523 182.019C169.785 180.656 169.958 178.637 170.062 176.784C170.149 175.247 170.231 173.649 169.668 172.217C169.047 170.628 167.729 169.443 166.571 168.188C165.413 166.934 164.337 165.406 164.402 163.704C162.828 167.706 160.078 171.244 156.035 173.302L156.04 173.298Z" fill="#F5F5F5"/>
<path d="M130.979 163.977C114.497 170.741 100.223 182.301 90.1735 197C99.1604 181.567 114.024 169.551 130.979 163.977Z" fill="black"/>
<path d="M164.016 153.685C166.35 160.795 162.893 168.913 157.085 173.628C151.277 178.342 143.592 180.144 136.119 180.482C128.108 180.847 119.259 179.28 114.111 173.124" fill="#FCE6CB"/>
<path d="M164.016 153.685C166.983 162.154 161.886 171.618 154.478 175.95C147.161 180.404 137.671 181.533 129.266 180.617C123.584 179.927 117.737 177.743 114.107 173.124C117.971 177.422 123.718 179.393 129.344 179.922C137.728 180.612 146.689 179.54 154.049 175.247C161.318 171.04 166.397 162.098 164.012 153.68L164.016 153.685Z" fill="#A18F85"/>
<path d="M164.445 162.211C163.869 165.723 165.898 169.321 168.865 171.288C171.832 173.254 175.553 173.78 179.097 173.523C184.41 173.137 189.593 171.066 193.709 167.676" fill="#FCE6CB"/>
<path d="M164.445 162.211C164.133 165.314 165.721 168.288 168.045 170.224C172.942 174.066 179.83 173.58 185.49 171.852C188.431 170.923 191.202 169.491 193.709 167.676C191.415 169.777 188.687 171.453 185.72 172.521C181.283 174.118 176.273 174.656 171.732 173.141C167.247 171.726 163.409 167.064 164.445 162.211Z" fill="#A18F85"/>
<path d="M114.107 124.699C115.417 124.699 116.479 123.636 116.479 122.325C116.479 121.013 115.417 119.95 114.107 119.95C112.796 119.95 111.734 121.013 111.734 122.325C111.734 123.636 112.796 124.699 114.107 124.699Z" fill="#F2F2F2"/>
<path d="M180.116 120.84C181.426 120.84 182.489 119.777 182.489 118.466C182.489 117.154 181.426 116.091 180.116 116.091C178.806 116.091 177.744 117.154 177.744 118.466C177.744 119.777 178.806 120.84 180.116 120.84Z" fill="#F2F2F2"/>
<path d="M162.789 167.333C163.261 171.31 163.4 175.325 163.209 179.327C164.337 174.852 164.424 169.261 163.994 164.663C163.504 165.271 163.287 166.808 162.789 167.333Z" fill="#D9D9D9"/>
</svg>