<svg width="256" height="256" title="Starlight" viewBox="0 0 256 256" fill="none" xmlns="http://www.w3.org/2000/svg" id="starlight">
<style>
#starlight {
    rect {fill: #15191C}

    @media (prefers-color-scheme: light) {
        rect {fill: #F4F2ED}
    }
}
</style>
<rect width="256" height="256" rx="40" fill="#15191C"/>
<path fill-rule="evenodd" clip-rule="evenodd" d="M148.766 94.8728L128.468 51L108.234 94.8728L107.27 96.7356L95.9648 85.4302C95.2562 84.7216 94.415 84.1595 93.4892 83.776C92.5634 83.3925 91.5711 83.1952 90.569 83.1952C89.5669 83.1952 88.5746 83.3925 87.6488 83.776C86.723 84.1595 85.8818 84.7216 85.1732 85.4302C84.4646 86.1388 83.9026 86.98 83.5191 87.9058C83.1356 88.8316 82.9382 89.8239 82.9382 90.8259C82.9382 91.828 83.1356 92.8203 83.5191 93.7461C83.9026 94.6719 84.4646 95.5131 85.1732 96.2217L96.4144 107.399L94.8728 108.17L51 128.468L94.8728 148.766L96.4144 149.473L85.1732 160.778C83.7507 162.209 82.9549 164.147 82.9609 166.165C82.9639 167.164 83.1637 168.152 83.5488 169.074C83.9339 169.996 84.4968 170.833 85.2053 171.538C85.9139 172.242 86.7543 172.8 87.6785 173.18C88.6027 173.559 89.5926 173.753 90.5917 173.75C92.6095 173.744 94.5422 172.937 95.9648 171.506L107.27 160.2L108.234 162.127L128.468 205.936L148.766 162.063L149.537 160.521L160.521 171.506C161.226 172.214 162.063 172.777 162.985 173.162C163.907 173.547 164.895 173.747 165.894 173.75C166.894 173.753 167.883 173.559 168.808 173.18C169.732 172.8 170.572 172.242 171.281 171.538C171.989 170.833 172.552 169.996 172.937 169.074C173.322 168.152 173.522 167.164 173.525 166.165C173.528 165.166 173.334 164.176 172.955 163.251C172.575 162.327 172.017 161.487 171.313 160.778L160.2 149.666L162.063 148.702L206 128.468L162.127 108.17L160.2 107.27L171.313 96.1575C172.017 95.4489 172.575 94.6085 172.955 93.6843C173.334 92.7601 173.528 91.7702 173.525 90.7711C173.522 89.772 173.322 88.7833 172.937 87.8614C172.552 86.9395 171.989 86.1024 171.281 85.3981C170.572 84.6937 169.732 84.1358 168.808 83.7562C167.883 83.3766 166.894 83.1828 165.894 83.1858C164.895 83.1887 163.907 83.3885 162.985 83.7736C162.063 84.1587 161.226 84.7216 160.521 85.4302L149.601 96.3502C149.331 95.9081 149.074 95.4583 148.83 95.0012L148.766 94.8085V94.8728ZM128.404 97.1852L125.706 102.966C121.054 113.034 112.97 121.118 102.902 125.77L97.121 128.468L102.902 131.166C112.97 135.818 121.054 143.901 125.706 153.969L128.404 159.751L131.102 153.969C135.754 143.901 143.837 135.818 153.905 131.166L159.686 128.468L153.905 125.77C143.837 121.118 135.754 113.034 131.102 102.966L128.404 97.1852Z" fill="url(#linearGradient1)"/>
<path d="M194.052 73.4182C194.761 72.7138 195.324 71.8768 195.709 70.9548C196.094 70.0329 196.294 69.0442 196.297 68.0451C196.3 67.046 196.106 66.0561 195.726 65.1319C195.347 64.2077 194.789 63.3673 194.084 62.6587C193.38 61.9501 192.543 61.3872 191.621 61.0021C190.699 60.617 189.71 60.4173 188.711 60.4143C187.712 60.4113 186.722 60.6052 185.798 60.9848C184.874 61.3643 184.033 61.9222 183.325 62.6266L179.663 66.288C178.241 67.7191 177.445 69.6566 177.451 71.6744C177.457 73.6922 178.265 75.6249 179.696 77.0475C181.127 78.47 183.064 79.2658 185.082 79.2597C187.1 79.2537 189.032 78.4464 190.455 77.0153L194.052 73.4182ZM77.9789 78.2358C75.024 81.1906 70.2706 81.1906 67.2516 78.2358L63.6544 74.6386C62.2233 73.2161 61.416 71.2833 61.41 69.2656C61.4039 67.2478 62.1997 65.3102 63.6223 63.8792C65.0448 62.4481 66.9775 61.6408 68.9953 61.6348C71.0131 61.6288 72.9506 62.4245 74.3817 63.8471L78.0431 67.5085C80.9979 70.4633 80.9979 75.2167 78.0431 78.2358H77.9789ZM77.9789 178.7C77.2749 177.995 76.4388 177.436 75.5184 177.054C74.5981 176.672 73.6115 176.476 72.6152 176.476C71.6189 176.476 70.6323 176.672 69.712 177.054C68.7916 177.436 67.9555 177.995 67.2516 178.7L63.6544 182.297C62.2233 183.72 61.416 185.652 61.41 187.67C61.4039 189.688 62.1997 191.626 63.6223 193.057C65.0448 194.488 66.9775 195.295 68.9953 195.301C71.0131 195.307 72.9506 194.511 74.3817 193.089L78.0431 189.427C80.9979 186.472 80.9979 181.719 78.0431 178.7H77.9789ZM194.052 183.518C194.761 184.222 195.324 185.059 195.709 185.981C196.094 186.903 196.294 187.892 196.297 188.891C196.3 189.89 196.106 190.88 195.726 191.804C195.347 192.728 194.789 193.568 194.084 194.277C193.38 194.986 192.543 195.549 191.621 195.934C190.699 196.319 189.71 196.518 188.711 196.521C187.712 196.524 186.722 196.331 185.798 195.951C184.874 195.571 184.033 195.014 183.325 194.309L179.663 190.648C178.461 189.178 177.849 187.312 177.947 185.416C178.045 183.519 178.845 181.727 180.192 180.388C181.539 179.049 183.336 178.259 185.233 178.173C187.131 178.087 188.992 178.709 190.455 179.92L194.052 183.518Z" fill="url(#linearGradient2)"/>
<linearGradient id="linearGradient1" x1="51" y1="58.7725" x2="199.32" y2="209.083" gradientUnits="userSpaceOnUse">
<stop stop-color="#FCECC5"/>
<stop offset="1" stop-color="#EEBD52"/>
</linearGradient>
<linearGradient id="linearGradient2" x1="51.0001" y1="58.7725" x2="199.32" y2="209.083" gradientUnits="userSpaceOnUse">
<stop stop-color="#FCECC5"/>
<stop offset="1" stop-color="#EEBD52"/>
</linearGradient>
</svg>