<svg width="256" height="256" title="Stata" viewBox="0 0 256 256" fill="none" xmlns="http://www.w3.org/2000/svg">
<rect width="256" height="256" rx="40" fill="#1D5F6D"/>
<path d="M216.005 99.776H218.932C219.5 99.776 219.942 99.8888 220.237 100.133C220.553 100.359 220.721 100.66 220.721 101.036C220.721 101.262 220.658 101.45 220.532 101.619C220.405 101.807 220.237 101.938 219.984 102.051C219.753 102.145 219.395 102.221 218.889 102.277C219.268 102.352 219.5 102.446 219.647 102.521C219.795 102.615 219.9 102.728 219.984 102.86C220.068 102.992 220.153 103.274 220.258 103.687C220.342 103.988 220.426 104.195 220.511 104.308C220.574 104.383 220.637 104.421 220.721 104.421C220.805 104.421 220.868 104.383 220.953 104.27C221.016 104.176 221.058 103.988 221.058 103.725H221.332C221.289 104.496 220.953 104.891 220.363 104.891C220.174 104.891 220.026 104.853 219.879 104.759C219.753 104.684 219.647 104.552 219.584 104.383C219.521 104.27 219.458 103.951 219.395 103.424C219.353 103.123 219.289 102.898 219.205 102.766C219.121 102.653 218.995 102.54 218.826 102.465C218.658 102.39 218.447 102.352 218.195 102.352H217.732V104.345C217.732 104.421 217.753 104.477 217.795 104.515C217.858 104.552 217.963 104.571 218.089 104.571H218.637V104.834H216.005V104.571H216.553C216.679 104.571 216.763 104.552 216.826 104.515C216.889 104.477 216.911 104.421 216.911 104.345V100.302C216.911 100.208 216.889 100.152 216.826 100.096C216.763 100.058 216.679 100.039 216.553 100.039H216.005V99.776ZM217.732 102.108H218.405C218.847 102.108 219.205 102.033 219.458 101.882C219.711 101.732 219.837 101.45 219.837 101.073C219.837 100.81 219.795 100.585 219.689 100.434C219.605 100.284 219.479 100.171 219.311 100.114C219.163 100.058 218.847 100.039 218.405 100.039C218.089 100.039 217.9 100.058 217.837 100.096C217.774 100.133 217.732 100.19 217.732 100.284V102.108Z" fill="white"/>
<path d="M73.6407 104.985L69.8813 114.898H44.9406C39.6543 114.898 39.5951 121.851 44.9406 121.851H59.5301C78.121 121.825 78.121 148.218 59.5301 148.218H31L34.919 138.536H59.9164C65.2979 138.536 65.4267 131.507 59.9164 131.507H45.4994C26.6613 131.507 26.602 104.985 45.4994 104.985H73.6407Z" fill="white"/>
<path d="M74.6964 104.985L70.937 114.898H82.8074V148.218H92.5663V114.898H101.939L105.698 104.985H74.6964Z" fill="white"/>
<path d="M106.471 104.985L102.712 114.898H130.649C132.529 114.898 134.126 116.031 134.126 118.143V121.851H112.007C94.9353 121.851 94.858 148.218 112.007 148.218H143.859V117.988C143.859 111.731 138.606 104.985 130.134 104.985H106.471ZM112.522 131.507H134.126V138.536H112.522C107.475 138.536 107.63 131.507 112.522 131.507Z" fill="white"/>
<path d="M179.676 104.985L175.916 114.898H203.854C205.76 114.898 207.356 116.031 207.356 118.143V121.851H185.238C168.166 121.851 168.089 148.218 185.238 148.218H217.064V117.988C217.064 111.731 211.811 104.985 203.365 104.985H179.676ZM185.727 131.507H207.356V138.536H185.727C180.706 138.536 180.835 131.507 185.727 131.507Z" fill="white"/>
<path d="M147.721 104.985L143.962 114.898H155.832V148.218H165.565V114.898H174.938L178.723 104.985H147.721Z" fill="white"/>
<path d="M226 157.487H225.303V158.364H226V157.487Z" fill="#FF0000"/>
</svg>