<svg width="256" height="256" title="Stimulus" viewBox="0 0 256 256" fill="none" xmlns="http://www.w3.org/2000/svg" id="stimulus">
<style>
#stimulus {
    rect {fill: #15191C}

    @media (prefers-color-scheme: light) {
        rect {fill: #F4F2ED}
    }
}
</style>
<rect width="256" height="256" rx="40" fill="#15191C"/>
<path d="M203 136.9V163.375H172.125C169.539 163.272 167.001 162.64 164.669 161.517L163.9 161.125L156.4 156.775C155.32 156.217 154.129 155.907 152.914 155.868C151.699 155.829 150.49 156.061 149.376 156.548L148.9 156.775L139.3 162.4C138.908 162.595 138.574 162.891 138.331 163.256C138.089 163.621 137.947 164.044 137.92 164.481C137.893 164.918 137.981 165.355 138.175 165.748C138.37 166.141 138.664 166.475 139.029 166.718L139.3 166.875L159.5 178.725C161.771 179.954 164.27 180.701 166.842 180.921L167.7 180.975H203V198.625C202.988 199.72 202.569 200.772 201.826 201.577C201.083 202.381 200.068 202.882 198.978 202.982L198.6 203H57.3998C56.3164 202.994 55.2726 202.591 54.4665 201.867C53.6603 201.144 53.1477 200.149 53.0258 199.072L53 198.699V181.051H88.2002C90.7794 180.948 93.3099 180.316 95.634 179.193L96.3998 178.8L163.9 139.15C166.183 137.933 168.688 137.187 171.265 136.958L172.125 136.9H203ZM203 92.7002V119.175H167.8C165.222 119.288 162.694 119.921 160.367 121.036L159.6 121.425L92.0996 161.1C89.8169 162.318 87.3125 163.064 84.7355 163.293L83.8748 163.35H53V136.875H88.2002C90.7778 136.762 93.306 136.129 95.6328 135.014L96.4004 134.625L163.9 94.9502C166.183 93.7323 168.687 92.9865 171.264 92.757L172.125 92.7002H203ZM198.6 53C199.689 52.9998 200.74 53.4036 201.548 54.1333C202.357 54.8631 202.866 55.8668 202.978 56.9504L203 57.3254V74.975H167.8C165.221 75.0774 162.69 75.7099 160.366 76.833L159.6 77.225L92.1002 116.875C89.8215 118.103 87.3151 118.85 84.7361 119.071L83.8748 119.125H53V92.6504H83.8748C86.4597 92.7642 88.9952 93.3973 91.3303 94.5119L92.1002 94.9004L99.6002 99.2756C100.68 99.8332 101.871 100.143 103.086 100.182C104.301 100.221 105.51 99.9891 106.624 99.5023L107.1 99.2756L116.7 93.6254C117.086 93.4276 117.414 93.1327 117.652 92.7697C117.889 92.4068 118.029 91.9883 118.055 91.5553C118.082 91.1223 117.996 90.6898 117.805 90.3002C117.614 89.9107 117.325 89.5775 116.967 89.3334L96.5 77.3C94.2255 76.0818 91.7282 75.3358 89.1582 75.1068L88.2998 75.05H53V57.3998C53.0001 56.2954 53.4155 55.2314 54.1637 54.419C54.9119 53.6067 55.9382 53.1054 57.0389 53.0146L57.4004 53H198.601H198.6Z" fill="#77E8B9"/>
</svg>