<svg width="256" height="256" title="Storyblok" viewBox="0 0 256 256" fill="none" xmlns="http://www.w3.org/2000/svg">
<rect width="256" height="256" rx="40" fill="#09B3AF"/>
<path d="M141.444 131.939H107.938V148.055H140.638C142.573 148.055 144.343 147.242 145.796 145.955C147.084 144.667 147.89 142.731 147.89 140.314C147.937 138.241 147.316 136.208 146.12 134.515C144.825 132.904 143.379 131.939 141.444 131.939ZM142.573 112.449C144.019 111.485 144.667 109.384 144.667 106.643C144.667 104.233 144.019 102.456 142.897 101.333C141.739 100.312 140.253 99.7396 138.709 99.7218H107.938V114.219H138.062C139.674 114.219 141.285 113.413 142.573 112.449ZM191.705 53H65.2521C61.2231 53 58 56.2231 58 60.0937V186.712C58 190.583 61.2231 192.993 65.0937 192.993H83.7782V218.289L106.974 193.152H191.712C195.583 193.152 198 190.741 198 186.712V60.2521C198 56.3815 195.583 53.1584 191.554 53.1584L191.705 53ZM170.445 155.617C168.786 158.54 166.4 160.984 163.517 162.711C160.452 164.639 157.07 166.416 153.207 167.222C149.336 168.186 145.149 168.992 140.803 168.992H83.7713V78.7714H148.53C151.753 78.7714 154.494 79.4187 157.07 80.8719C159.488 82.1598 161.747 83.9298 163.517 86.0234C167.125 90.4311 169.067 95.9614 168.992 101.657C168.992 105.844 167.862 109.866 165.769 113.737C163.598 117.625 160.2 120.684 156.106 122.435C161.258 123.882 165.287 126.464 168.351 130.169C171.244 134.033 172.697 139.026 172.697 145.314C172.697 149.336 171.891 152.725 170.287 155.624L170.445 155.617Z" fill="white"/>
</svg>