<svg width="256" height="256" title="Storybook" viewBox="0 0 256 256" fill="none" xmlns="http://www.w3.org/2000/svg">
<rect width="256" height="256" rx="40" fill="#FF4785"/>
<path d="M161.518 45.7007L160.677 64.6978C160.666 64.9381 160.725 65.1763 160.846 65.3844C160.966 65.5924 161.144 65.7617 161.357 65.8722C161.571 65.9827 161.812 66.0298 162.051 66.008C162.291 65.9863 162.519 65.8965 162.709 65.7493L170.14 60.1413L176.449 65.0483C176.634 65.1725 176.849 65.2454 177.072 65.2596C177.294 65.2737 177.517 65.2286 177.716 65.1289C177.916 65.0292 178.085 64.8783 178.207 64.6918C178.329 64.5052 178.4 64.2896 178.412 64.0669L177.711 44.7193L187.034 44.0183C188.185 43.9424 189.338 44.1037 190.424 44.4923C191.509 44.881 192.503 45.4886 193.344 46.2774C194.184 47.0662 194.854 48.0194 195.311 49.0779C195.768 50.1363 196.002 51.2774 196 52.4303V203.819C196.001 204.96 195.771 206.089 195.322 207.138C194.873 208.187 194.216 209.134 193.389 209.921C192.563 210.707 191.585 211.318 190.516 211.715C189.446 212.112 188.307 212.288 187.167 212.231L74.3342 207.183C72.2121 207.096 70.2016 206.209 68.7063 204.701C67.211 203.193 66.3416 201.174 66.2726 199.052L61.0151 60.2745C60.9488 59.1694 61.1012 58.062 61.4637 57.016C61.8262 55.9699 62.3916 55.0057 63.1275 54.1786C63.8634 53.3515 64.7554 52.6778 65.7522 52.1962C66.749 51.7145 67.8311 51.4343 68.9364 51.3718L161.448 45.5534L161.518 45.7007ZM139.997 109.19C139.997 112.485 162.149 110.873 165.163 108.63C165.163 86.1975 153.106 74.3506 131.101 74.3506C109.02 74.3506 96.7592 86.4078 96.7592 104.424C96.7592 135.618 138.812 136.179 138.812 153.206C138.812 158.113 136.569 160.917 131.452 160.917C124.722 160.917 121.988 157.482 122.339 145.776C122.339 143.252 96.7592 142.411 95.918 145.776C94.0253 174.026 111.55 182.228 131.662 182.228C151.22 182.228 166.495 171.783 166.495 152.926C166.495 119.488 123.741 120.399 123.741 103.863C123.741 97.063 128.788 96.1517 131.662 96.1517C134.817 96.1517 140.425 96.6424 140.004 109.26L139.997 109.19Z" fill="white"/>
</svg>