<svg width="256" height="256" title="Strapi" viewBox="0 0 256 256" fill="none" xmlns="http://www.w3.org/2000/svg">
<rect width="256" height="256" rx="40" fill="#4945FF"/>
<path fill-rule="evenodd" clip-rule="evenodd" d="M187.04 67H88.0776V117.461H138.539V167.922H189V68.9597C189 67.8774 188.123 67 187.04 67Z" fill="white"/>
<path d="M138.539 117.461H136.579V119.421H138.539V117.461Z" fill="white"/>
<path d="M88.0776 117.461H136.579C137.661 117.461 138.539 118.339 138.539 119.421V167.922H90.0373C88.9551 167.922 88.0776 167.045 88.0776 165.963V117.461Z" fill="#9593FF"/>
<path d="M138.539 167.922H189L140.211 216.711C139.594 217.328 138.539 216.891 138.539 216.018V167.922Z" fill="#9593FF"/>
<path d="M88.0776 117.461H39.9817C39.1087 117.461 38.6717 116.406 39.289 115.789L88.0776 67V117.461Z" fill="#9593FF"/>
</svg>