<svg width="256" height="256" title="Stripe" viewBox="0 0 256 256" fill="none" xmlns="http://www.w3.org/2000/svg">
<rect width="256" height="256" rx="40" fill="#635BFF"/>
<path d="M221 129.775C221 116.619 214.628 106.239 202.449 106.239C190.218 106.239 182.818 116.62 182.818 129.672C182.818 145.14 191.554 152.951 204.093 152.951C210.208 152.951 214.833 151.564 218.328 149.611V139.333C214.834 141.081 210.825 142.16 205.738 142.16C200.753 142.16 196.333 140.412 195.768 134.349H220.897C220.897 133.68 221 131.008 221 129.775ZM195.614 124.893C195.614 119.086 199.16 116.671 202.397 116.671C205.532 116.671 208.872 119.086 208.872 124.893H195.614ZM162.982 106.239C157.946 106.239 154.708 108.603 152.91 110.247L152.241 107.061H140.936V166.98L153.783 164.257L153.835 149.714C155.685 151.05 158.408 152.951 162.931 152.951C172.129 152.951 180.506 145.551 180.506 129.261C180.454 114.358 171.975 106.239 162.982 106.239M159.898 141.646C156.866 141.646 155.067 140.567 153.835 139.231L153.783 120.165C155.119 118.675 156.969 117.647 159.898 117.647C164.575 117.647 167.812 122.889 167.812 129.621C167.812 136.507 164.626 141.646 159.898 141.646ZM123.258 103.207L136.157 100.432V90L123.258 92.7237V103.207ZM123.258 107.112H136.157V152.078H123.258V107.112ZM109.435 110.915L108.613 107.112H97.5125V152.078H110.36V121.604C113.391 117.647 118.531 118.367 120.124 118.932V107.112C118.479 106.496 112.467 105.365 109.435 110.915ZM83.7401 95.9612L71.2013 98.6332L71.15 139.796C71.15 147.402 76.8543 153.003 84.4599 153.003C88.6737 153.003 91.7569 152.232 93.4526 151.307V140.875C91.8086 141.543 83.6888 143.907 83.6888 136.301V118.058H93.4526V107.112H83.6888L83.7401 95.9612ZM49.0013 120.165C49.0013 118.161 50.6457 117.39 53.3698 117.39C57.275 117.39 62.2082 118.572 66.1138 120.679V108.603C61.8487 106.907 57.6349 106.239 53.3698 106.239C42.9375 106.239 36 111.686 36 120.782C36 134.965 55.5276 132.704 55.5276 138.82C55.5276 141.183 53.4724 141.954 50.5944 141.954C46.3293 141.954 40.8819 140.207 36.5651 137.843V150.074C41.3444 152.129 46.175 153.003 50.5944 153.003C61.2832 153.003 68.6319 147.71 68.6319 138.511C68.5806 123.197 49.0013 125.921 49.0013 120.165Z" fill="white"/>
</svg>