<svg width="256" height="256" title="SuiteCRM" viewBox="0 0 256 256" fill="none" xmlns="http://www.w3.org/2000/svg" id="suitecrm">
<style>
#suitecrm {
    rect {fill: #15191C}

    @media (prefers-color-scheme: light) {
        rect {fill: #F4F2ED}
    }
}
</style>
<rect width="256" height="256" rx="40" fill="#15191C"/>
<path fill-rule="evenodd" clip-rule="evenodd" d="M151.595 116.911C146.777 117.687 143.418 120.994 142.553 125.815C142.346 126.971 142.383 129.575 142.623 130.724C143.577 135.282 146.606 138.359 150.873 139.104C153.924 139.637 157.192 139.051 159.248 137.603C160.046 137.042 161.111 136.007 161.111 135.794C161.111 135.738 160.566 135.157 159.9 134.501C158.766 133.385 158.665 133.315 158.304 133.387C158.092 133.43 157.638 133.681 157.296 133.945C156.408 134.631 155.729 134.895 154.495 135.033C152.234 135.287 150.681 134.741 149.307 133.211C148.154 131.927 147.643 130.311 147.646 127.958C147.65 125.618 148.146 124.082 149.321 122.773C150.394 121.577 151.598 121.081 153.424 121.081C154.767 121.081 155.673 121.332 156.842 122.029C158.38 122.945 158.549 122.892 159.92 121.053L160.916 119.717L160.498 119.363C159.276 118.328 157.872 117.596 156.323 117.187C155.364 116.935 152.492 116.767 151.595 116.911ZM163.415 139.046H168.506V130.888L169.534 130.931C170.442 130.969 170.598 131.01 170.869 131.281C171.038 131.45 172.065 133.144 173.152 135.044C174.939 138.169 175.175 138.526 175.624 138.775C176.102 139.041 176.212 139.05 178.721 139.018L181.322 138.985L178.907 135.04C176.377 130.908 176.251 130.729 175.49 130.169L175.019 129.822L175.49 129.627C176.194 129.334 177.374 128.455 177.862 127.858C178.417 127.18 178.977 126.054 179.181 125.208C179.535 123.738 179.313 121.823 178.631 120.479C178.27 119.765 177.097 118.65 176.261 118.226C174.309 117.236 173.125 117.077 167.688 117.076L163.415 117.075V139.046ZM183.175 139.046H187.659L187.721 124.62L190.692 130.391C194.131 137.073 193.878 136.74 195.514 136.74C196.549 136.74 196.993 136.605 197.381 136.175C197.492 136.052 198.878 133.438 200.459 130.367C202.04 127.296 203.367 124.745 203.408 124.698C203.448 124.651 203.466 127.86 203.447 131.829L203.413 139.046H207.906V117.075H205.489C203.154 117.075 203.06 117.084 202.761 117.348C202.469 117.606 197.221 127.763 196.072 130.295L195.554 131.436L195.345 130.901C195.134 130.361 190.702 121.529 189.286 118.826C188.741 117.784 188.428 117.32 188.205 117.218C187.999 117.124 187.085 117.075 185.534 117.075H183.175V139.046ZM168.506 127.42L170.234 127.369C171.731 127.324 172.039 127.28 172.545 127.035C173.619 126.514 174.117 125.84 174.309 124.643C174.577 122.978 173.923 121.722 172.513 121.191C172 120.997 171.445 120.921 170.173 120.869L168.506 120.802V127.42ZM53.3632 121.944C52.1603 122.145 51.1753 122.834 50.6667 123.831C50.4166 124.321 50.3668 124.592 50.3668 125.46C50.3668 126.407 50.4 126.555 50.7331 127.095C51.2257 127.893 51.8174 128.271 53.3669 128.779C54.9341 129.294 55.2982 129.473 55.6296 129.895C56.1387 130.543 55.8237 131.72 55.0266 132.148C54.5509 132.403 53.4732 132.444 52.8398 132.231C52.6132 132.155 52.1183 131.904 51.7403 131.673C50.8947 131.158 50.6884 131.205 50.184 132.026L49.8058 132.641L50.0838 132.937C50.2367 133.1 50.7448 133.421 51.213 133.65C53.6971 134.864 56.5721 134.196 57.6239 132.159C58.1526 131.136 58.1024 129.467 57.5162 128.58C57.0931 127.94 56.4761 127.569 54.9185 127.02C53.3533 126.468 52.9966 126.297 52.6836 125.951C52.3934 125.63 52.3828 124.841 52.663 124.413C53.1545 123.662 54.6822 123.536 55.8548 124.15C56.8041 124.647 57.002 124.604 57.4547 123.8C57.8198 123.153 57.8273 123.113 57.6178 122.944C57.1375 122.555 55.8554 122.029 55.1319 121.925C54.2624 121.799 54.2339 121.799 53.3632 121.944ZM64.6114 126.032C64.6114 130.347 64.6781 130.93 65.2911 131.978C66.2718 133.654 68.298 134.51 70.5307 134.193C72.2312 133.952 73.7269 132.815 74.3287 131.307C74.5972 130.634 74.6085 130.459 74.6486 126.331L74.6902 122.052H72.3702V126.013C72.3702 130.308 72.3341 130.607 71.7251 131.347C71.2301 131.948 70.5448 132.243 69.6425 132.243C68.7402 132.243 68.0548 131.948 67.5599 131.347C66.9509 130.607 66.9148 130.308 66.9148 126.013V122.052H64.6114V126.032ZM81.9474 134.069H84.2508V122.052H81.9474V134.069ZM90.6761 123.873H94.313V134.069H96.6164V123.873H100.253V122.052H90.6761V123.873ZM106.557 134.069H114.195V132.374L108.921 132.309V128.91L113.104 128.844V127.15H108.854L108.921 123.812L114.195 123.747V122.052H106.557V134.069Z" fill="white"/>
<path fill-rule="evenodd" clip-rule="evenodd" d="M87.4461 107.091L137.618 107.122L136.926 107.871C132.508 112.648 129.679 118.719 128.789 125.329C128.543 127.156 128.515 130.908 128.734 132.673C129.43 138.288 131.56 143.646 134.769 147.853L135.597 148.939L220.999 149L221 148.393C221 148.059 221 138.855 221 127.939C221 117.023 221 107.847 221 107.546L220.999 107L129.137 107.03C78.3379 107.047 59.7015 107.074 87.4461 107.091ZM150.941 117.02C148.655 117.517 146.838 118.496 145.405 120.004C144.052 121.428 143.247 122.911 142.74 124.912C141.987 127.884 142.315 131.057 143.656 133.766C145.094 136.67 147.681 138.576 150.98 139.161C151.907 139.326 154.434 139.326 155.361 139.161C156.406 138.976 157.539 138.591 158.483 138.101C159.36 137.646 161.147 136.082 161.086 135.823C161.014 135.512 158.937 133.469 158.609 133.386C158.252 133.297 158.012 133.41 156.851 134.217C155.929 134.857 154.964 135.075 153.294 135.022C152.023 134.982 151.892 134.953 151.034 134.528C148.835 133.44 147.659 131.164 147.659 128C147.659 126.437 147.887 125.307 148.435 124.152C149.455 122.001 151.261 120.97 153.762 121.112C155.061 121.185 155.799 121.414 156.84 122.068C158.284 122.973 158.571 122.885 159.892 121.128C160.429 120.414 160.869 119.784 160.869 119.729C160.869 119.583 159.58 118.583 158.868 118.176C158.064 117.716 156.652 117.216 155.554 117.004C154.44 116.789 151.966 116.797 150.941 117.02ZM163.293 139.046H168.506L168.506 130.887L169.468 130.931C170.192 130.964 170.509 131.035 170.751 131.217C170.933 131.354 171.928 132.95 173.034 134.877C174.112 136.757 175.099 138.41 175.225 138.55C175.619 138.986 176.191 139.06 178.834 139.022L181.342 138.985L178.973 135.101C176.556 131.137 176.291 130.761 175.522 130.193L175.082 129.869L175.886 129.453C176.953 128.9 178.171 127.678 178.671 126.657C179.373 125.227 179.565 123.68 179.234 122.115C178.725 119.712 177.074 118.172 174.204 117.423C173.24 117.172 172.854 117.151 168.234 117.106L163.293 117.058V139.046ZM183.175 139.046H187.798L187.76 131.9C187.732 126.758 187.758 124.81 187.852 124.951C187.924 125.059 189.201 127.523 190.689 130.428C192.177 133.332 193.5 135.859 193.629 136.043C193.949 136.502 194.483 136.755 195.288 136.827C196.191 136.908 196.862 136.709 197.316 136.226C197.521 136.008 198.964 133.352 200.524 130.324L203.36 124.819L203.423 139.046H207.906V117.075H203.061L202.707 117.409C202.382 117.715 196.843 128.438 195.952 130.487C195.765 130.916 195.604 131.256 195.593 131.242C195.583 131.228 194.036 128.158 192.156 124.419C190.261 120.652 188.602 117.5 188.434 117.348C188.142 117.084 188.054 117.075 185.654 117.075H183.175V139.046ZM168.506 127.424L170.173 127.369C171.996 127.309 172.694 127.109 173.401 126.446C174.301 125.601 174.627 123.723 174.072 122.576C173.485 121.362 172.504 120.959 170.129 120.959H168.506V127.424Z" fill="#5C546C"/>
<path fill-rule="evenodd" clip-rule="evenodd" d="M36.7792 107.35C35.942 107.861 36.0009 106.295 36.0009 128.061C36.0009 149.827 35.942 148.26 36.7792 148.771C37.1429 148.993 38.4307 148.999 86.394 148.999L135.636 149L134.68 147.728C131.494 143.491 129.425 138.253 128.734 132.673C128.515 130.908 128.543 127.156 128.789 125.329C129.679 118.719 132.508 112.648 136.926 107.871L137.618 107.121L87.3856 107.122C38.4522 107.122 37.1429 107.128 36.7792 107.35ZM163.351 128.061C163.351 134.136 163.366 136.604 163.384 133.544C163.402 130.485 163.402 125.514 163.384 122.498C163.366 119.482 163.351 121.985 163.351 128.061ZM169.147 120.928C169.533 120.952 170.133 120.952 170.481 120.927C170.828 120.903 170.513 120.883 169.779 120.883C169.046 120.884 168.761 120.904 169.147 120.928ZM53.3632 121.944C52.1603 122.145 51.1753 122.834 50.6667 123.831C50.4166 124.321 50.3668 124.592 50.3668 125.46C50.3668 126.407 50.4 126.555 50.7331 127.095C51.2257 127.893 51.8174 128.271 53.3669 128.779C54.9341 129.294 55.2982 129.473 55.6296 129.895C56.1387 130.543 55.8237 131.72 55.0266 132.148C54.5509 132.403 53.4732 132.444 52.8398 132.231C52.6132 132.155 52.1183 131.904 51.7403 131.673C50.8947 131.158 50.6884 131.205 50.184 132.026L49.8058 132.641L50.0838 132.937C50.2367 133.1 50.7448 133.421 51.213 133.65C53.6971 134.864 56.5721 134.196 57.6239 132.159C58.1526 131.136 58.1024 129.467 57.5162 128.58C57.0931 127.94 56.4761 127.569 54.9185 127.02C53.3533 126.468 52.9966 126.297 52.6836 125.951C52.3934 125.63 52.3828 124.841 52.663 124.413C53.1545 123.662 54.6822 123.536 55.8548 124.15C56.8041 124.647 57.002 124.604 57.4547 123.8C57.8198 123.153 57.8273 123.113 57.6178 122.944C57.1375 122.555 55.8554 122.029 55.1319 121.925C54.2624 121.799 54.2339 121.799 53.3632 121.944ZM64.6114 126.032C64.6114 130.347 64.6781 130.93 65.2911 131.978C66.2718 133.654 68.298 134.51 70.5307 134.193C72.2312 133.952 73.7269 132.815 74.3287 131.307C74.5972 130.634 74.6085 130.459 74.6486 126.331L74.6902 122.052H72.3702V126.013C72.3702 130.308 72.3341 130.607 71.7251 131.347C71.2301 131.948 70.5448 132.243 69.6425 132.243C68.7402 132.243 68.0548 131.948 67.5599 131.347C66.9509 130.607 66.9148 130.308 66.9148 126.013V122.052H64.6114V126.032ZM81.9474 134.069H84.2508V122.052H81.9474V134.069ZM90.6761 123.873H94.313V134.069H96.6164V123.873H100.253V122.052H90.6761V123.873ZM106.557 134.069H114.195V132.374L108.921 132.309V128.91L113.104 128.844V127.15H108.854L108.921 123.812L114.195 123.747V122.052H106.557V134.069ZM187.717 132.37C187.717 136.075 187.733 137.591 187.752 135.738C187.77 133.885 187.77 130.854 187.752 129.001C187.733 127.149 187.717 128.664 187.717 132.37Z" fill="#EB645C"/>
</svg>