<svg width="256" height="256" title="SurrealDB" viewBox="0 0 256 256" fill="none" xmlns="http://www.w3.org/2000/svg" id="surrealdb">
<style>
#surrealdb {
    rect {fill: #15191C}

    @media (prefers-color-scheme: light) {
        rect {fill: #F4F2ED}
    }
}
</style>
<rect width="256" height="256" rx="40" fill="#15191C"/>
<path d="M128.5 82.6393L174.327 108.018V97.8429L128.5 72.5232C121.684 76.2946 88.7429 94.5036 82.6732 97.8429C88.3107 100.966 147.514 133.671 183.5 153.55V163.686C178.609 166.396 128.5 194.073 128.5 194.073C114.789 186.511 87.1911 171.268 73.5 163.686V133.298L128.5 163.686L137.673 158.618L64.3268 118.114V168.773L128.5 204.209C134.825 200.712 187.979 171.346 192.654 168.754V148.502L101 97.8429L128.5 82.6393ZM64.3268 87.7071V107.979L155.98 158.637L128.48 173.841L82.6536 148.462V158.637L128.48 183.957C135.296 180.186 168.238 161.977 174.307 158.637C168.67 155.514 109.486 122.809 73.5 102.911V92.775C78.3911 90.0643 128.5 62.3875 128.5 62.3875C142.191 69.9696 169.789 85.2125 183.5 92.775V123.163L128.5 92.775L119.327 97.8429L192.654 138.366V87.7071L128.5 52.2518C122.155 55.7679 69.0214 85.1339 64.3268 87.7071ZM128.5 32L46 77.5911V178.889L128.5 224.48L211 178.909V77.5911L128.5 32ZM201.807 173.821L128.5 214.345L55.1732 173.821V82.6589L128.5 42.1357L201.827 82.6589L201.807 173.821Z" fill="url(#linearGradient)"/>
<linearGradient id="linearGradient" x1="5168.75" y1="2284.98" x2="13116.7" y2="16051.2" gradientUnits="userSpaceOnUse">
<stop stop-color="#FF00A0"/>
<stop offset="1" stop-color="#9600FF"/>
</linearGradient>
</svg>