<svg width="256" height="256" title="SWC" viewBox="0 0 256 256" fill="none" xmlns="http://www.w3.org/2000/svg" id="swc">
<style>
#swc {
    rect {fill: #15191C}

    @media (prefers-color-scheme: light) {
        rect {fill: #F4F2ED}
    }
}
</style>
<rect width="256" height="256" rx="40" fill="#15191C"/>
<path d="M199.099 157.538C194.527 157.538 190.219 155.751 186.979 152.511L161.741 127.273C159.201 124.733 157.537 121.563 156.942 118.113C156.591 116.099 156.609 114.032 156.994 112.018H149.533C147.712 112.018 146.941 113.226 146.643 113.945C146.346 114.663 146.03 116.064 147.326 117.36L158.238 128.271C160.777 130.811 162.441 133.981 163.037 137.431C163.597 140.619 163.212 143.912 161.968 146.959C160.707 149.989 158.641 152.581 155.996 154.455C153.124 156.469 149.726 157.538 146.135 157.538H145.785C141.214 157.538 136.905 155.751 133.665 152.511L131.248 150.094C130.092 151.793 128.656 153.264 126.975 154.438C124.102 156.452 120.705 157.52 117.114 157.52C112.543 157.52 108.235 155.734 104.994 152.494L65.4121 112.911C64.8166 112.316 64.0284 112 63.2053 112C61.3838 112 60.6131 113.209 60.3154 113.927C60.0177 114.645 59.7024 116.046 60.9985 117.342L71.9099 128.254C74.4494 130.793 76.1133 133.963 76.7088 137.414C77.2692 140.601 76.8839 143.894 75.6404 146.942C74.3794 149.971 72.3127 152.564 69.668 154.438C66.7957 156.452 63.3979 157.52 59.8075 157.52H54.8159C50.9452 157.52 47.8102 154.385 47.8102 150.514C47.8102 146.644 50.9452 143.509 54.8159 143.509H59.7374C61.5589 143.509 62.3295 142.3 62.6273 141.582C62.925 140.864 63.2403 139.463 61.9442 138.167L51.0503 127.273C48.5108 124.733 46.8469 121.563 46.2514 118.113C45.691 114.925 46.0763 111.633 47.3198 108.585C48.5808 105.555 50.6475 102.963 53.2922 101.089C56.1645 99.0749 59.5798 98.0066 63.1702 98.0066C67.7415 98.0066 72.05 99.793 75.2901 103.033L114.872 142.615C115.468 143.211 116.256 143.526 117.079 143.526C118.901 143.526 119.671 142.318 119.969 141.6C120.267 140.882 120.582 139.48 119.304 138.202L91.0705 109.969C88.3383 107.237 88.3383 102.805 91.0705 100.056C93.8027 97.306 98.2338 97.3235 100.984 100.056L129.199 128.271C129.217 128.289 129.217 128.289 129.234 128.306L143.543 142.615C144.139 143.211 144.927 143.526 145.75 143.526H146.1C147.922 143.526 148.693 142.318 148.99 141.6C149.288 140.882 149.603 139.48 148.307 138.184L137.413 127.273C134.874 124.733 133.21 121.563 132.614 118.113C132.054 114.925 132.439 111.633 133.683 108.585C134.944 105.555 137.011 102.963 139.655 101.089C142.528 99.0749 145.943 98.0066 149.533 98.0066H178.064C181.935 98.0066 185.07 101.142 185.07 105.012C185.07 108.883 181.935 112.018 178.064 112.018H173.861C172.039 112.018 171.268 113.226 170.971 113.945C170.673 114.663 170.358 116.064 171.654 117.36L196.892 142.598C197.487 143.193 198.276 143.509 199.099 143.509C200.692 143.509 201.989 142.213 201.989 140.619C201.989 136.748 205.124 133.613 208.994 133.613C212.865 133.613 216 136.748 216 140.619C216.017 149.954 208.416 157.538 199.099 157.538Z" fill="url(#linearGradient)"/>
<path d="M199.099 151.408C196.156 151.408 193.389 150.269 191.305 148.185L166.067 122.947C162.862 119.742 161.951 115.136 163.685 110.95C164.578 108.813 166.032 107.079 167.836 105.906H149.533C145.715 105.906 142.44 108.095 140.969 111.615C139.498 115.136 140.286 119.006 142.983 121.703L153.894 132.615C157.099 135.82 158.01 140.426 156.276 144.612C154.542 148.798 150.637 151.408 146.1 151.408H145.75C142.808 151.408 140.04 150.269 137.956 148.185L127.886 138.114C128.341 140.234 128.131 142.475 127.255 144.612C125.521 148.798 121.615 151.408 117.079 151.408C114.137 151.408 111.37 150.269 109.285 148.185L69.7031 108.603C67.9516 106.851 65.6222 105.888 63.1527 105.888C59.3346 105.888 56.0594 108.077 54.5882 111.598C53.1345 115.118 53.9052 118.989 56.6024 121.686L67.5138 132.597C70.7189 135.802 71.6296 140.409 69.8957 144.595C68.1618 148.781 64.2561 151.39 59.7199 151.39H54.8159C54.3255 151.39 53.9402 151.005 53.9402 150.514C53.9402 150.024 54.3255 149.639 54.8159 149.639H59.7374C63.5555 149.639 66.8307 147.449 68.3019 143.929C69.7731 140.409 68.985 136.538 66.2878 133.841L55.3764 122.929C52.1713 119.742 51.2605 115.136 52.9944 110.95C54.7283 106.746 58.6165 104.137 63.1702 104.137C66.1126 104.137 68.8799 105.275 70.9641 107.359L110.546 146.942C112.298 148.693 114.627 149.656 117.097 149.656C120.915 149.656 124.19 147.467 125.661 143.947C127.115 140.426 126.362 136.573 123.665 133.876L95.4141 105.643C95.0638 105.293 95.0638 104.75 95.4141 104.399C95.7643 104.049 96.3073 104.049 96.6576 104.399L139.2 146.942C140.951 148.693 143.281 149.656 145.75 149.656H146.1C149.919 149.656 153.194 147.467 154.665 143.947C156.119 140.426 155.348 136.556 152.651 133.858L141.739 122.947C138.534 119.742 137.624 115.136 139.357 110.95C141.091 106.764 144.997 104.154 149.533 104.154H178.064C178.554 104.154 178.94 104.539 178.94 105.03C178.94 105.52 178.554 105.906 178.064 105.906H173.861C170.042 105.906 166.767 108.095 165.296 111.615C163.842 115.136 164.613 119.006 167.31 121.703L192.548 146.942C194.3 148.693 196.629 149.656 199.099 149.656C204.073 149.656 208.119 145.61 208.119 140.636C208.119 140.146 208.504 139.761 208.994 139.761C209.485 139.761 209.87 140.146 209.87 140.636C209.887 146.574 205.054 151.408 199.099 151.408Z" fill="white"/>
<linearGradient id="linearGradient" x1="46" y1="127.778" x2="216.009" y2="127.778" gradientUnits="userSpaceOnUse">
<stop stop-color="#FFA588"/>
<stop offset="0.271" stop-color="#FCB371"/>
<stop offset="0.8357" stop-color="#F4D837"/>
<stop offset="1" stop-color="#F1E425"/>
</linearGradient>
</svg>