<svg width="256" height="256" title="Swiper" viewBox="0 0 256 256" fill="none" xmlns="http://www.w3.org/2000/svg" id="swiper">
<style>
#swiper {
    rect {fill: #15191C}

    @media (prefers-color-scheme: light) {
        rect {fill: #F4F2ED}
    }
}
</style>
<rect width="256" height="256" rx="40" fill="#15191C"/>
<path d="M169.984 59.8887C192.798 73.981 208 99.2152 208 128C208 172.183 172.183 208 128 208C118.365 208 109.128 206.297 100.576 203.172L99.6621 202.832L101.15 202.354L103.062 201.727L104.006 201.412L104.941 201.096L106.786 200.46L108.597 199.82L110.374 199.176L112.118 198.528L112.977 198.202L114.67 197.548C116.458 196.847 118.188 196.139 119.861 195.423L121.105 194.885L122.629 194.208C123.299 193.907 123.959 193.603 124.609 193.299L125.577 192.841L127 192.15L127.699 191.803L128.389 191.455L129.745 190.755C141.127 184.785 148.86 178.299 152.966 171.187C161.665 156.12 154.068 140.019 132.258 123.604L130.483 122.273L129.405 121.446L128.358 120.626L127.343 119.812L126.359 119.004L125.878 118.602L125.405 118.202L124.483 117.406L123.812 116.813L123.157 116.224L122.312 115.444L121.497 114.67L120.713 113.901L120.332 113.519L119.959 113.139L119.235 112.383C110.614 103.218 108.689 95.3721 112.603 88.5928C114.595 85.1423 118.048 81.75 122.958 78.4462L123.554 78.0502L124.493 77.4461C124.917 77.1781 125.351 76.9107 125.795 76.644L126.468 76.2443L127.505 75.6466L128.574 75.051L129.397 74.6058L130.239 74.1619L131.39 73.572C132.266 73.1304 133.169 72.6908 134.099 72.2532L135.039 71.8164L136.32 71.236L136.973 70.9468L138.303 70.3702L138.98 70.0828L140.359 69.5101L141.061 69.2247L142.489 68.6559L143.215 68.3725L144.692 67.8078L146.201 67.2458L146.968 66.9658L148.526 66.408L150.117 65.853L151.74 65.3009L152.563 65.026L154.235 64.4783L155.94 63.9337L157.676 63.392L159.446 62.8535L161.247 62.3181L163.545 61.6532L165.893 60.9934L168.778 60.2084L169.984 59.8887ZM128 48C137.729 48 147.052 49.7366 155.676 52.9167L156.598 53.263L156.014 53.4398L153.164 54.3182L152.231 54.6132L150.39 55.2068L148.583 55.8049L146.809 56.4078L145.069 57.0153L143.362 57.6276L142.521 57.9356L140.456 58.7107L138.443 59.4934L136.87 60.1251L136.097 60.4428L134.574 61.082C119.015 67.7125 108.819 75.147 103.942 83.5928C95.4317 98.3337 103.151 114.225 124.963 130.635L126.738 131.966L127.815 132.793L128.862 133.615L129.373 134.023L130.372 134.836L131.101 135.441L131.812 136.044L132.733 136.842L133.181 137.239L134.056 138.028C134.533 138.465 134.996 138.899 135.444 139.331L136.107 139.977L137.06 140.938L137.966 141.89C146.55 151.119 148.385 159.122 144.306 166.187C141.666 170.759 136.627 175.26 129.199 179.629L128.517 180.026L127.412 180.652L126.274 181.276C125.632 181.622 124.976 181.968 124.304 182.312L123.285 182.828L122.032 183.445L120.746 184.061L119.427 184.674L118.755 184.979L117.387 185.589L115.986 186.197L114.552 186.802L113.823 187.104L112.34 187.706L111.586 188.007L110.824 188.306L109.276 188.903L107.694 189.498L106.08 190.091L104.433 190.681L102.753 191.268L101.901 191.561L100.172 192.145L99.2956 192.435L97.5176 193.015L95.7069 193.592L93.3974 194.309L91.0369 195.022L89.1116 195.589L86.4246 196.362C63.384 182.319 48 156.956 48 128C48 83.8172 83.8172 48 128 48Z" fill="#0080FF"/>
</svg>