<svg width="256" height="256" title="SWR" viewBox="0 0 256 256" fill="none" xmlns="http://www.w3.org/2000/svg" id="swr">
<style>
#swr {
    rect {fill: #15191C}
    path.swr {fill: white}

    @media (prefers-color-scheme: light) {
        rect {fill: #F4F2ED}
        path.swr {fill: black}
    }
}
</style>
<rect width="256" height="256" rx="40" fill="#15191C"/>
<path d="M84.5988 107.022C84.5906 107.03 84.2953 107.054 83.9508 107.087C83.3603 107.135 83.024 107.184 83.024 107.208C83.024 107.217 82.8927 107.233 82.7369 107.249C82.3678 107.289 82.1955 107.322 81.3015 107.525C80.35 107.752 80.35 107.752 80.1121 107.841C79.9973 107.881 79.8907 107.922 79.8661 107.922C79.7512 107.938 78.8408 108.246 78.5127 108.384C77.8565 108.651 77.0117 109.049 76.5523 109.292C76.2817 109.438 75.9864 109.584 75.9125 109.608C75.8305 109.64 75.7649 109.689 75.7649 109.73C75.7649 109.77 75.7239 109.803 75.6747 109.803C75.6255 109.803 75.2892 110.005 74.9283 110.249C74.5674 110.492 74.2475 110.694 74.2065 110.694C74.1655 110.694 74.1244 110.719 74.108 110.759C74.0998 110.792 73.9194 110.946 73.7143 111.1C73.1894 111.505 73.173 111.513 72.7875 111.854C71.7048 112.827 70.5564 114.026 70.4006 114.351C70.3596 114.432 70.294 114.505 70.2611 114.505C70.2283 114.505 70.0889 114.659 69.9577 114.845C69.8264 115.04 69.5475 115.437 69.3425 115.745C69.1292 116.045 68.957 116.321 68.957 116.361C68.957 116.402 68.9242 116.45 68.8832 116.467C68.6453 116.548 67.1525 119.815 66.8572 120.869C66.5947 121.809 66.4225 122.506 66.3815 122.733C66.3568 122.863 66.283 123.301 66.2092 123.706C66.0616 124.574 65.9959 125.709 65.9713 128.408C65.9549 129.519 65.9221 130.54 65.8893 130.678C65.5612 132.194 65.2331 132.981 64.4785 134.059C63.7485 135.096 62.6494 136.037 61.5339 136.572C61.2632 136.702 60.9515 136.856 60.8367 136.921C60.7218 136.977 60.2297 137.123 59.7294 137.245C58.7123 137.496 57.3753 137.545 56.4074 137.366C56.1121 137.31 55.8333 137.261 55.7758 137.253C55.7184 137.245 55.6446 137.212 55.62 137.18C55.5872 137.148 55.497 137.123 55.4149 137.123C55.1525 137.123 53.9303 136.548 53.2413 136.11C52.5687 135.672 51.4122 134.505 50.9447 133.791C50.5592 133.199 49.985 131.927 49.8948 131.481C49.8702 131.351 49.8128 131.075 49.7717 130.857C49.7225 130.646 49.6651 130.135 49.6405 129.722C49.5831 128.805 49.5831 128.805 49.3862 128.408C49.1156 127.849 48.5004 127.322 47.9344 127.176C47.836 127.144 45.9495 127.119 43.7348 127.119L39.7157 127.111L39.322 127.298C38.8463 127.533 38.3623 127.995 38.1491 128.416C38.0178 128.684 37.9932 128.903 38.0014 129.908C38.0014 130.921 38.0424 131.529 38.1573 132.219C38.2475 132.762 38.3459 133.321 38.3951 133.516C38.4115 133.605 38.4689 133.84 38.5182 134.043C38.8463 135.478 39.8305 137.902 40.5359 139.028C40.6508 139.207 40.7738 139.426 40.8148 139.515C40.9707 139.855 42.1928 141.525 42.7096 142.109C43.2181 142.677 44.0629 143.56 44.186 143.657C44.2516 143.714 44.4402 143.876 44.5961 144.014C45.4163 144.752 46.9419 145.863 47.836 146.373C48.4512 146.722 49.7225 147.338 49.8292 147.338C49.8784 147.338 49.9276 147.37 49.9276 147.411C49.9276 147.452 50.0096 147.5 50.108 147.525C50.2147 147.549 50.6494 147.703 51.0759 147.865C51.5024 148.027 51.9126 148.173 51.9782 148.189C52.2735 148.262 53.7663 148.627 53.9877 148.676C54.1272 148.708 54.3486 148.749 54.4799 148.765C54.6193 148.773 54.8408 148.805 54.972 148.83C55.6036 148.951 56.4074 149 57.8428 149C59.4095 148.992 60.3363 148.927 61.1648 148.757C61.2796 148.732 61.4929 148.692 61.6487 148.668C62.1244 148.587 63.404 148.27 63.6255 148.173C63.6911 148.149 63.8223 148.108 63.9126 148.092C64.0028 148.084 64.1504 148.035 64.2406 147.995C64.3309 147.954 64.741 147.792 65.1429 147.638C65.553 147.484 66.0616 147.257 66.283 147.143C66.5045 147.03 66.7095 146.933 66.7506 146.933C66.849 146.933 68.1942 146.146 68.875 145.7C70.1217 144.865 71.7376 143.463 72.8203 142.263C73.214 141.825 74.3541 140.293 74.6658 139.782C74.8298 139.499 75.0267 139.207 75.0923 139.126C75.1579 139.053 75.1907 138.988 75.1579 138.988C75.1333 138.988 75.1907 138.85 75.2974 138.68C75.7075 138.023 76.5769 135.988 76.7902 135.178C76.8066 135.113 76.8968 134.797 76.9788 134.488C77.1921 133.735 77.3972 132.778 77.4464 132.34C77.471 132.137 77.5038 131.886 77.5284 131.773C77.6104 131.375 77.6678 129.997 77.6842 127.8C77.7007 126.552 77.7581 125.376 77.8073 125.125C77.9795 124.306 78.3732 123.244 78.6521 122.831C78.7423 122.709 78.7916 122.612 78.767 122.612C78.6603 122.612 79.5872 121.404 80.0219 120.982C80.8668 120.147 81.6132 119.661 83.024 119.037C83.5079 118.818 85.1073 118.534 85.8127 118.542C86.633 118.542 87.8879 118.761 88.5851 119.012C89.0937 119.199 89.9959 119.636 90.0205 119.709C90.0369 119.742 90.1026 119.774 90.16 119.774C90.2256 119.774 90.324 119.823 90.3814 119.872C90.4389 119.928 90.6357 120.082 90.8162 120.22C90.9966 120.35 91.3821 120.698 91.6774 120.99L92.2106 121.517H98.6248L105.039 121.525L104.99 121.315C104.965 121.201 104.924 121.071 104.891 121.031C104.867 120.982 104.834 120.885 104.826 120.804C104.768 120.439 104.161 118.98 103.628 117.918C102.882 116.442 102.89 116.45 102.816 116.45C102.775 116.45 102.751 116.418 102.751 116.377C102.751 116.28 102.086 115.283 101.996 115.251C101.963 115.234 101.93 115.186 101.93 115.145C101.93 115.08 101.766 114.861 101.545 114.626C101.487 114.561 101.438 114.48 101.438 114.44C101.438 114.391 101.414 114.343 101.381 114.326C101.34 114.31 101.167 114.14 100.995 113.937C99.97 112.77 98.3459 111.262 97.7799 110.954C97.6733 110.897 97.5831 110.816 97.5831 110.775C97.5831 110.727 97.5339 110.694 97.4764 110.694C97.4108 110.694 97.296 110.621 97.214 110.532C97.132 110.443 97.0171 110.37 96.9597 110.37C96.9023 110.37 96.8449 110.338 96.8285 110.305C96.771 110.151 94.8435 109.097 93.81 108.643C93.2687 108.4 92.2598 108.027 92.0711 107.987C91.9645 107.97 91.7922 107.914 91.6774 107.865C91.4888 107.784 90.6439 107.565 90.242 107.484C90.1518 107.468 89.9959 107.435 89.8975 107.411C89.4628 107.314 89.3315 107.289 89.0117 107.241C88.011 107.087 87.1415 107.022 85.8292 107.014C85.1566 107.006 84.607 107.014 84.5988 107.022ZM140.957 107.006C140.941 107.022 140.637 107.054 140.276 107.079C139.374 107.152 138.865 107.225 137.938 107.411C137.824 107.435 137.643 107.468 137.528 107.492C137.102 107.573 135.412 108.092 134.846 108.327C134.518 108.457 134.247 108.554 134.247 108.546C134.247 108.53 133.755 108.765 133.165 109.065C132.033 109.632 131.188 110.111 131.147 110.224C131.131 110.257 131.081 110.289 131.04 110.289C130.991 110.289 130.794 110.411 130.597 110.548C130.409 110.694 130.146 110.889 130.015 110.978C129.892 111.067 129.753 111.173 129.703 111.221C129.654 111.262 129.392 111.481 129.121 111.708C127.997 112.632 126.422 114.343 125.733 115.388C125.569 115.64 125.414 115.859 125.389 115.883C125.291 115.964 124.815 116.783 124.815 116.856C124.815 116.904 124.79 116.937 124.757 116.937C124.716 116.937 124.585 117.172 124.446 117.464C124.314 117.748 124.175 117.991 124.142 117.991C124.101 117.991 124.077 118.056 124.077 118.137C124.077 118.218 124.027 118.347 123.962 118.437C123.748 118.753 122.797 121.315 122.895 121.315C122.92 121.315 122.895 121.388 122.846 121.469C122.805 121.558 122.74 121.769 122.715 121.939C122.69 122.109 122.649 122.271 122.625 122.304C122.584 122.377 122.543 122.579 122.477 123.017C122.453 123.179 122.412 123.398 122.395 123.503C122.354 123.706 122.305 124.079 122.223 124.679C122.206 124.857 122.165 126.171 122.149 127.598C122.133 129.024 122.1 130.297 122.075 130.435C122.042 130.565 122.001 130.808 121.977 130.962C121.952 131.116 121.837 131.538 121.723 131.894C121.075 133.945 119.483 135.729 117.441 136.71C116.957 136.937 116.055 137.245 115.628 137.318C115.513 137.342 115.423 137.358 115.423 137.366C115.423 137.407 114.66 137.456 113.988 137.464C112.987 137.472 112.421 137.391 111.527 137.115C110.239 136.71 109.107 136.021 108.156 135.072L107.582 134.497L101.25 134.488C97.7635 134.488 94.8927 134.497 94.8681 134.505C94.7861 134.537 95.0486 135.534 95.1552 135.599C95.2044 135.632 95.2208 135.664 95.188 135.664C95.1388 135.664 95.6719 137.099 95.8524 137.423C95.8934 137.504 96.0656 137.845 96.2297 138.177C96.6316 138.996 97.5421 140.504 97.7471 140.69C97.7717 140.715 97.8866 140.877 98.0096 141.055C98.1326 141.233 98.3213 141.477 98.4197 141.59C98.5263 141.712 98.7642 141.987 98.9529 142.206C100.388 143.876 102.496 145.579 104.391 146.592C104.809 146.819 105.58 147.208 105.621 147.216C105.646 147.216 105.81 147.289 105.99 147.37C106.581 147.638 106.975 147.792 107.262 147.865C107.286 147.873 107.418 147.922 107.549 147.979C108.098 148.206 109.944 148.668 110.666 148.765C110.895 148.789 111.092 148.822 111.125 148.838C111.363 148.984 115.005 149.057 115.997 148.935C116.268 148.903 116.653 148.854 116.859 148.83C117.064 148.805 117.572 148.716 117.999 148.627C118.417 148.53 118.827 148.449 118.901 148.433C118.975 148.416 119.278 148.327 119.59 148.23C119.893 148.133 120.189 148.043 120.246 148.035C120.295 148.019 120.418 147.979 120.509 147.946C120.599 147.914 120.935 147.784 121.247 147.662C124.503 146.398 127.546 144.144 129.638 141.42C129.966 140.998 130.302 140.561 130.392 140.447C130.483 140.334 130.556 140.204 130.556 140.147C130.556 140.099 130.589 140.042 130.622 140.026C130.704 139.993 131.27 139.036 131.713 138.193C132.287 137.083 132.91 135.421 133.23 134.164C133.263 134.026 133.296 133.905 133.304 133.88C133.337 133.751 133.427 133.321 133.468 133.11C133.493 132.972 133.526 132.778 133.55 132.664C133.567 132.551 133.608 132.275 133.64 132.056C133.665 131.829 133.706 131.521 133.722 131.367C133.747 131.213 133.78 130.022 133.796 128.732C133.846 125.628 133.862 125.368 134.157 124.395C134.403 123.544 134.945 122.368 135.084 122.368C135.117 122.368 135.15 122.328 135.15 122.279C135.15 122.182 135.625 121.558 136.003 121.152C138.086 118.955 141.113 118.072 144.008 118.801C144.599 118.947 145.78 119.409 145.895 119.531C145.919 119.555 146.075 119.645 146.247 119.726C146.411 119.815 146.551 119.912 146.551 119.953C146.551 119.985 146.592 120.017 146.641 120.017C146.797 120.017 147.56 120.674 148.191 121.363C148.839 122.069 149.528 123.301 149.815 124.274C150.127 125.328 150.152 125.579 150.201 127.557C150.25 129.738 150.308 131.197 150.365 131.57C150.529 132.672 150.677 133.499 150.783 133.921C150.956 134.626 151.39 135.996 151.522 136.248C151.587 136.361 151.636 136.507 151.636 136.564C151.636 136.742 152.76 138.947 153.211 139.661C153.605 140.293 154.45 141.444 154.967 142.069C155.237 142.393 156.869 144.014 157.304 144.379C157.747 144.76 159.33 145.895 159.396 145.879C159.429 145.871 159.478 145.903 159.502 145.944C159.576 146.065 160.339 146.495 161.397 147.014C162.841 147.735 164.735 148.376 166.245 148.668C166.31 148.684 166.491 148.716 166.647 148.749C166.942 148.805 167.081 148.822 168.082 148.935C168.804 149.016 171.445 149.016 172.101 148.943C173.233 148.805 173.709 148.732 174.299 148.595C174.554 148.538 174.767 148.514 174.767 148.538C174.767 148.562 174.808 148.546 174.865 148.489C174.923 148.433 175.029 148.392 175.111 148.392C175.267 148.392 177.055 147.824 177.531 147.622C178.384 147.257 179.803 146.544 180.41 146.171C180.787 145.944 181.189 145.709 181.296 145.652C181.403 145.595 181.493 145.514 181.493 145.465C181.493 145.425 181.55 145.392 181.616 145.392C181.681 145.392 181.739 145.368 181.739 145.328C181.739 145.295 181.911 145.157 182.108 145.028C182.313 144.89 182.477 144.76 182.477 144.719C182.477 144.687 182.51 144.663 182.551 144.663C182.723 144.663 184.503 142.968 185.274 142.069C185.865 141.379 186.48 140.561 186.595 140.317C186.644 140.212 186.709 140.123 186.742 140.123C186.775 140.123 186.849 140.009 186.906 139.88C186.964 139.742 187.038 139.636 187.079 139.636C187.12 139.636 187.152 139.563 187.152 139.474C187.152 139.385 187.177 139.312 187.218 139.312C187.251 139.312 187.316 139.231 187.366 139.126C187.423 139.028 187.595 138.688 187.768 138.38C188.375 137.229 189.367 134.667 189.244 134.537C189.219 134.521 186.34 134.497 182.846 134.497L176.498 134.488L175.948 135.04C175.653 135.34 175.144 135.777 174.816 135.996C174.242 136.394 173.069 137.002 172.7 137.083C172.593 137.099 172.306 137.172 172.06 137.245C170.756 137.585 169.025 137.553 167.795 137.148C167.59 137.083 167.368 137.018 167.295 137.002C167.221 136.985 167.09 136.937 167.008 136.896C166.917 136.848 166.671 136.726 166.442 136.629C166.22 136.523 165.999 136.41 165.949 136.369C165.908 136.337 165.703 136.199 165.498 136.069C165.293 135.94 164.998 135.713 164.826 135.567C164.662 135.421 164.465 135.234 164.375 135.161C163.932 134.764 163.423 134.107 163.021 133.426C162.71 132.899 162.103 131.375 162.176 131.302C162.193 131.278 162.176 131.213 162.127 131.148C162.078 131.092 162.053 131.043 162.078 131.043C162.103 131.043 162.086 130.921 162.045 130.775C162.004 130.638 161.947 129.786 161.93 128.895C161.873 126.56 161.807 124.784 161.766 124.565C161.75 124.46 161.709 124.168 161.676 123.917C161.61 123.317 161.438 122.498 161.184 121.558C161.069 121.136 160.962 120.747 160.954 120.707C160.938 120.658 160.889 120.52 160.839 120.398C160.782 120.269 160.741 120.131 160.741 120.09C160.741 120.042 160.651 119.807 160.536 119.563C160.421 119.32 160.331 119.109 160.331 119.085C160.331 119.069 160.29 118.955 160.232 118.826C160.183 118.704 160.134 118.583 160.126 118.558C160.126 118.534 160.068 118.428 160.003 118.315C159.937 118.201 159.88 118.096 159.88 118.072C159.872 118.015 159.494 117.31 159.224 116.856C159.109 116.653 158.969 116.41 158.92 116.304C158.871 116.207 158.797 116.126 158.756 116.126C158.723 116.126 158.69 116.086 158.69 116.037C158.69 115.932 158.059 115.048 157.378 114.221C155.418 111.813 152.424 109.608 149.627 108.506C149.266 108.368 148.897 108.214 148.807 108.181C148.331 107.979 146.346 107.444 145.69 107.338C145.558 107.322 145.444 107.298 145.444 107.289C145.444 107.273 145.353 107.257 145.239 107.249C145.124 107.241 144.886 107.208 144.705 107.184C144.033 107.079 143.442 107.038 142.228 107.014C141.539 106.998 140.965 106.998 140.957 107.006ZM197.053 107.014C197.044 107.022 196.741 107.054 196.38 107.087C196.019 107.111 195.634 107.152 195.519 107.168C195.404 107.184 195.182 107.225 195.027 107.241C194.379 107.338 194.223 107.371 193.591 107.525C191.516 108.027 189.974 108.643 188.178 109.665C187.612 109.989 186.66 110.597 186.578 110.686C186.554 110.719 186.398 110.824 186.234 110.938C186.062 111.051 185.922 111.165 185.922 111.197C185.922 111.238 185.889 111.262 185.84 111.262C185.799 111.262 185.692 111.327 185.602 111.4C185.52 111.481 185.2 111.765 184.897 112.032C184.077 112.745 183.224 113.653 182.518 114.537C182.387 114.707 182.223 114.902 182.174 114.959C182.116 115.015 182.067 115.097 182.067 115.137C182.067 115.186 182.042 115.234 182.01 115.251C181.911 115.291 181.411 116.021 181.411 116.11C181.411 116.159 181.378 116.207 181.345 116.223C181.239 116.264 180.066 118.412 180.057 118.574C180.057 118.607 180.008 118.68 179.959 118.728C179.902 118.785 179.852 118.891 179.852 118.964C179.852 119.037 179.828 119.126 179.795 119.158C179.754 119.191 179.729 119.247 179.721 119.272C179.721 119.304 179.68 119.418 179.631 119.531C179.442 119.969 179.032 121.25 179.032 121.388C179.032 121.525 179.352 121.533 185.397 121.533H191.762L192.32 120.998C193.198 120.155 193.616 119.847 194.493 119.418C195.527 118.915 196.487 118.647 197.446 118.599C197.766 118.583 198.037 118.558 198.062 118.55C198.152 118.534 198.611 118.55 199.046 118.599C203.016 119.028 206.108 122.279 206.305 126.219C206.362 127.33 206.567 127.857 207.109 128.327C207.65 128.797 208.224 128.976 209.135 128.943C209.381 128.935 209.643 128.927 209.709 128.927C210.135 128.943 211.735 128.943 211.8 128.935C211.85 128.927 211.899 128.919 211.923 128.935C212.063 128.984 213.154 128.968 213.154 128.911C213.154 128.87 213.195 128.87 213.244 128.903C213.326 128.951 214.212 128.976 214.425 128.935C214.474 128.919 214.532 128.927 214.573 128.935C214.712 128.968 215.68 128.943 216.025 128.895C216.935 128.773 217.722 128.068 217.977 127.152C218.018 126.998 218.001 125.441 217.952 124.963C217.903 124.476 217.829 123.844 217.78 123.544C217.755 123.406 217.722 123.212 217.706 123.098C217.665 122.782 217.255 121.128 217.173 120.95C217.132 120.861 217.042 120.585 216.968 120.342C216.828 119.888 216.648 119.434 216.517 119.191C216.468 119.109 216.435 119.012 216.435 118.964C216.435 118.704 215.172 116.418 214.614 115.664C214.442 115.429 214.302 115.218 214.302 115.194C214.302 115.161 214.253 115.097 214.204 115.04C214.146 114.983 214.007 114.813 213.892 114.667C212.522 112.867 210.439 111.027 208.355 109.786C207.347 109.187 205.468 108.335 204.336 107.97C204.189 107.922 202.778 107.525 202.655 107.5C202.056 107.362 200.826 107.168 200.03 107.079C199.587 107.03 197.094 106.973 197.053 107.014Z" class="swr" fill="white"/>
</svg>