<svg width="256" height="256" title="Symfony" viewBox="0 0 256 256" fill="none" xmlns="http://www.w3.org/2000/svg" id="symfony">
<style>
#symfony {
    rect {fill: #15191C}
    path {fill: #FEFEFE}

    @media (prefers-color-scheme: light) {
        rect {fill: #F4F2ED}
        path {fill: #212121}
    }
}
</style>
<rect width="256" height="256" rx="40" fill="#15191C"/>
<path d="M121.978 46H135.199L135.287 46.0882L139.782 46.6176L143.66 47.2353L147.098 47.9412L150.271 48.7353L152.651 49.4412L155.912 50.5L158.732 51.5588L161.288 52.6176L163.668 53.6765L165.079 54.3824L167.987 55.8824L170.103 57.1176L172.042 58.2647L173.54 59.2353L174.862 60.1176L176.625 61.3529L178.3 62.5882L179.534 63.5588L180.944 64.7059L181.913 65.5L183.236 66.6471L185.527 68.7647L188.877 72.1176L189.494 72.8235L190.463 73.8824L191.256 74.8529L192.05 75.7353L193.019 76.9706L194.077 78.2941L195.223 79.8824L195.928 80.8529L196.721 82L197.779 83.5882L198.837 85.2647L200.247 87.6471L201.304 89.5882L202.538 91.9706L204.037 95.1471L205.447 98.5882L206.417 101.235L207.562 104.765L208.62 108.647L209.325 111.824L210.03 115.794L210.471 119.235L210.736 122.059L210.912 124.971L211 129.206L210.912 132.294L210.647 136.176L210.207 139.971L209.59 143.765L208.885 147.206L207.915 151L206.769 154.706L205.8 157.441L204.301 161.147L202.979 164.059L201.216 167.588L200.071 169.618L199.013 171.382L197.867 173.235L196.809 174.824L195.752 176.324L194.87 177.559L193.724 179.059L192.755 180.294L191.785 181.441L191.08 182.324L190.022 183.471L189.405 184.176L188.171 185.5L187.995 185.765H187.819L187.643 186.118L186.585 187.176H186.409L186.232 187.529H186.056L185.88 187.882L185.175 188.5L183.764 189.824L182.795 190.706L181.825 191.5L180.679 192.471L178.212 194.412L176.537 195.647L175.127 196.618L173.276 197.853L171.601 198.912L170.103 199.794L168.252 200.853L166.224 201.912L164.726 202.706L162.258 203.853L159.614 205L156.353 206.235L153.179 207.294L150.183 208.176L147.01 208.971L143.572 209.676L140.84 210.118L138.284 210.471L134.582 210.824L131.937 211H124.974L121.008 210.735L117.13 210.294L112.811 209.588L108.756 208.706L105.143 207.735L101.793 206.676L98.4439 205.441L95.4471 204.206L92.9792 203.059L90.7756 202L88.484 200.765L86.3686 199.529L84.6058 198.471L81.6971 196.529L80.1987 195.471L78.524 194.235L77.1138 193.088L75.9679 192.206L74.6458 191.059L73.4119 190L71.9135 188.588L67.5946 184.265L66.9776 183.559L64.6859 180.912L63.7163 179.676L62.4824 178.088L60.1907 174.912L58.8686 172.882L57.7228 171.029L56.4888 168.912L55.2548 166.618L54.5497 165.294L53.5801 163.265L52.258 160.265L51.2885 157.794L50.2308 154.794L49.2612 151.794L48.2917 148.176L47.4984 144.471L46.9696 141.471L46.5288 138.382L46.1763 134.765L46 131.412V125.147L46.1763 122.147L46.5288 118.529L47.0577 114.824L47.5865 112L48.2917 108.824L48.9968 106.088L49.7901 103.441L51.024 99.8235L52.1699 96.9118L53.3157 94.2647L54.3734 92.0588L55.0785 90.6471L56.1362 88.6176L57.3702 86.5L58.1635 85.1765L59.2212 83.5L61.0721 80.7647L62.3061 79.0882L63.3638 77.6765L65.7436 74.7647L66.4487 73.9706L66.5369 73.7941H66.7131L66.8894 73.4412L69.4455 70.7059L71.649 68.5L72.3542 67.8824L73.0593 67.1765L73.7644 66.5588L76.0561 64.6176L77.2901 63.6471L78.6122 62.5882L80.2869 61.3529L82.0497 60.1176L84.3413 58.6176L86.1923 57.4706L88.484 56.1471L91.3045 54.6471L94.3894 53.1471L96.8574 52.0882L100.03 50.8529L103.644 49.6176L107.346 48.5588L109.462 48.0294L112.811 47.3235L117.13 46.6176L120.655 46.1765L121.978 46ZM163.228 76.6176L160.76 76.9706L158.556 77.5L156.441 78.2059L154.061 79.2647L152.122 80.3235L150.006 81.7353L148.508 82.8824L147.274 83.9412L145.864 85.2647L144.542 86.5882L143.925 87.2941L143.131 88.1765L142.162 89.4118L141.104 90.7353L140.046 92.2353L139.077 93.6471L137.843 95.5882L136.609 97.7059L135.287 100.176L134.317 102.118L132.907 105.294L132.202 107.059L131.409 109.088L130.615 111.471V111.647L130.175 111.559V111.382L129.381 110.765L128.059 109.529H127.883V109.353L127.178 108.735L126.561 108.118L125.856 107.5L124.974 106.706L123.829 105.647L122.595 104.676L121.272 103.618L119.686 102.559L118.011 101.588L116.601 100.882L114.926 100.176L112.811 99.4706L110.96 99.0294L109.373 98.7647L107.258 98.5882H105.848L103.38 98.8529L101.353 99.2941L99.6779 99.8235L98.3558 100.353L96.8574 101.059L95.359 101.941L93.9487 102.912L92.8029 103.882L91.2163 105.471L90.0705 107.059L89.2772 108.382L88.5721 109.794L88.0433 111.118L87.5144 113.147L87.3381 114.029L87.25 115V117.294L87.5144 119.147L87.9551 120.912L88.5721 122.676L89.4535 124.618L90.1587 125.853L90.9519 127.088L91.7452 128.147L92.891 129.559L93.5962 130.265L94.2131 130.971L95.0064 131.765L95.6234 132.471L96.4167 133.265L97.0337 133.971L98.3558 135.382L99.2372 136.529L99.9423 137.853L100.383 139.265L100.559 140.588L100.383 142.088L99.9423 143.5L99.2372 144.824L98.3558 145.971L97.2099 146.941L95.7997 147.735L94.742 148.176L93.508 148.529L91.6571 148.794L90.2468 148.706L88.7484 148.441L86.8974 147.824L85.4872 147.118L84.3413 146.324L83.7244 145.706L83.1955 144.824L83.0192 144.118L83.1074 143.412L83.3718 142.618L84.0769 141.382L84.5176 140.676L85.1346 139.176L85.399 138.118L85.4872 137.5V135.912L85.1346 134.324L84.6939 133.265L84.0769 132.294L83.6362 131.765L82.6667 131.059L81.5208 130.529L80.4631 130.265L79.8462 130.176H78.524L77.4663 130.353L76.0561 131.059L75.1747 131.853L74.3814 133.088L73.9407 134.147L73.5881 135.471L73.5 136.265V138.029L73.7644 139.529L74.2933 141.294L74.9984 142.794L75.8798 144.118L76.4968 144.912L77.2901 145.794L78.1715 146.676L79.4054 147.647L80.7276 148.529L82.1378 149.324L83.1955 149.853L85.399 150.735L87.6907 151.441L89.7179 151.882L92.0096 152.235L93.2436 152.324H95.6234L97.6506 152.147L99.9423 151.706L101.705 151.176L103.38 150.559L105.054 149.765L106.641 148.794L108.051 147.735L108.933 146.941L109.638 146.324L110.607 145.265L111.753 143.676L112.635 142.176L113.516 139.971L114.045 137.765L114.133 137.147V133.794L113.78 131.941L113.163 130.088L112.106 127.882L110.96 126.029L110.079 124.794L108.933 123.294L107.875 122.059L107.082 121.088L106.024 119.941L105.054 118.882L104.966 118.706H104.79L104.614 118.353L103.38 117.029L102.498 116.059L101.705 114.912L101.088 113.676L100.647 112.176L100.559 111.647V109.882L100.912 108.471L101.353 107.412L101.97 106.353L103.027 105.206L103.909 104.412L105.143 103.706L106.377 103.265L107.875 103H109.638L111.489 103.265L113.252 103.706L115.103 104.324L116.513 104.941L118.276 105.912L119.95 107.059L121.096 107.941L122.242 108.912L123.476 109.971L124.974 111.382L125.856 112.176L126.913 113.147L127.883 113.941L128.941 114.824L129.293 115.088L129.205 115.794L128.147 119.5L126.825 124.794L125.768 129.471L124.357 136.353L123.564 141.029L122.771 145.353L121.625 151.088L120.303 157L119.157 161.5L117.923 165.647L116.689 169.176L115.72 171.471L114.574 173.853L113.516 175.706L112.635 177.029L111.841 178.088L111.136 178.971L110.079 180.206L109.462 180.824L108.756 181.441L107.699 182.235L106.377 183.118L105.054 183.824L103.909 184.265L102.058 184.706L101.441 184.794H100.207L99.4135 184.529L98.7083 184L98.3558 183.206V182.5L98.7965 181.618L99.5897 180.912L101.264 179.765L101.97 178.971L102.322 178.265L102.587 177.206V175.176L102.234 173.853L101.529 172.441L100.824 171.559L99.9423 170.765L98.7965 170.059L97.6506 169.618L96.1522 169.353H94.9183L93.508 169.618L92.0978 170.147L90.9519 170.853L90.0705 171.559L89.5417 172L88.7484 172.971L88.0433 174.118L87.6026 175.265L87.25 176.676L87.1619 177.647L87.25 179.059L87.6026 180.559L88.1314 181.882L88.8365 183.029L89.5417 183.912L90.5994 184.971L91.4808 185.588L92.8029 186.382L94.4776 187.088L96.0641 187.529L98.0032 187.882L99.3253 187.971H101.088L103.027 187.794L104.614 187.529L106.817 187L109.197 186.206L111.401 185.235L113.34 184.265L115.367 183.029L116.865 181.971L118.011 181.088L119.51 179.853L121.625 177.912L122.771 176.765L123.388 176.059L124.357 175L125.062 174.118L126.032 172.971L127.354 171.206L128.5 169.618L129.381 168.294L130.439 166.618L131.761 164.324L132.995 162.029L134.141 159.559L134.934 157.794L135.992 155.147L137.05 152.147L137.931 149.412L139.077 145.353L140.135 141.029L140.928 137.412L141.545 134.412L143.308 124.706L143.925 121.176V120.824L147.274 121.088H151.681L154.413 120.824L156.793 120.382L158.997 119.765L160.671 119.147L162.258 118.441L163.668 117.647L165.079 116.676L166.312 115.618L167.37 114.559L168.252 113.412L168.78 112.529L169.309 111.294L169.662 109.971V107.676L169.309 106.353L168.692 105.118L167.899 104.147L167.018 103.441L166.048 103L165.079 102.824L163.845 102.912L162.699 103.265L161.817 103.706L161.024 104.324L160.583 104.765L160.054 105.382L159.526 106.441L159.261 107.235V108.382L159.79 109.706L160.936 111.824L161.2 112.618V113.676L160.76 114.559L160.319 115L159.349 115.706L157.675 116.5L155.824 117.118L153.885 117.559L151.946 117.824L150.623 117.912H148.42L146.04 117.735L144.63 117.559L144.718 116.853L145.952 109.971L147.098 104.324L147.891 100.794L148.772 97.3529L149.742 94.2647L150.712 91.5294L151.505 89.7647L152.386 87.9118L153.091 86.7647L153.885 85.5294L154.854 84.2941L155.647 83.4118L156.617 82.4412L158.115 81.3824L159.173 80.7647L160.495 80.2353L161.641 79.8824L163.316 79.6176H165.519L166.577 79.7941L167.458 80.1471L168.075 80.5882L168.516 81.4706V82.2647L168.163 83.2353L167.106 85.2647L166.665 86.2353L166.489 86.9412V88.8824L166.841 90.2059L167.282 91.0882L168.075 91.9706L168.78 92.5882L169.926 93.2059L171.337 93.5588L173.011 93.6471L174.245 93.4706L175.303 93.1176L176.537 92.4118L177.683 91.2647L178.3 90.2941L178.829 89.0588L179.181 87.6471L179.269 87.0294V85.5294L179.005 84.1176L178.476 82.7059L177.683 81.3824L176.713 80.3235L175.92 79.6176L174.598 78.7353L172.571 77.7647L170.896 77.2353L168.78 76.7941L167.282 76.6176H163.228Z" fill="#FEFEFE"/>
</svg>