<svg width="256" height="256" title="t0ggles" viewBox="0 0 256 256" fill="none" xmlns="http://www.w3.org/2000/svg" id="t0ggles">
<style>
#t0ggles {
    rect {fill: #15191C}

    @media (prefers-color-scheme: light) {
        rect {fill: #F4F2ED}
    }
}
</style>
<rect width="256" height="256" rx="40" fill="#15191C"/>
<path fill-rule="evenodd" clip-rule="evenodd" d="M112.681 153.06V103.555C112.681 88.4708 100.488 76.2423 85.4469 76.2423C70.4058 76.2423 58.2128 88.4708 58.2128 103.555V153.06C58.2128 168.145 70.4058 180.373 85.4469 180.373C100.488 180.373 112.681 168.145 112.681 153.06ZM85.4469 66C64.7655 66 48 82.8142 48 103.555V153.06C48 173.801 64.7655 190.615 85.4469 190.615C106.128 190.615 122.893 173.801 122.893 153.06V103.555C122.893 82.8142 106.128 66 85.4469 66Z" fill="#D7FF38"/>
<path d="M104.17 128.308C104.17 138.678 95.7873 147.085 85.4469 147.085C75.1062 147.085 66.7234 138.678 66.7234 128.308C66.7234 117.937 75.1062 109.53 85.4469 109.53C95.7873 109.53 104.17 117.937 104.17 128.308Z" fill="#D7FF38"/>
<path d="M197.787 153.06V103.555C197.787 88.4708 185.594 76.2423 170.553 76.2423C155.512 76.2423 143.319 88.4708 143.319 103.555V128.308H133.107V103.555C133.107 82.8142 149.872 66 170.553 66C191.235 66 208 82.8142 208 103.555V153.06C208 173.801 191.235 190.615 170.553 190.615C160.602 190.615 151.558 186.723 144.852 180.373L152.068 173.118C156.924 177.621 163.418 180.373 170.553 180.373C185.594 180.373 197.787 168.145 197.787 153.06Z" fill="#D7FF38"/>
<path d="M189.277 103.555C189.277 113.926 180.894 122.333 170.553 122.333C160.213 122.333 151.83 113.926 151.83 103.555C151.83 93.1846 160.213 84.7777 170.553 84.7777C180.894 84.7777 189.277 93.1846 189.277 103.555Z" fill="#D7FF38"/>
</svg>