<svg width="256" height="256" title="Tableau" viewBox="0 0 256 256" fill="none" xmlns="http://www.w3.org/2000/svg" id="tableau">
<style>
#tableau {
    rect {fill: #15191C}

    @media (prefers-color-scheme: light) {
        rect {fill: #F4F2ED}
    }
}
</style>
<rect width="256" height="256" rx="40" fill="#15191C"/>
<path d="M156.046 123.125H132.606V97.6625H123.656V123.125H100.216V132.05H123.656V157.475H132.606V132.05H156.046" fill="#E87A3C"/>
<path d="M109.165 164.75H88.2335V141.837H80.4075V164.75H59.4758V171.462H80.4075V194.413H88.2335V171.462H109.165" fill="#C83543"/>
<path d="M196.824 83.15H175.855V60.2H168.066V83.15H147.134V90.125H168.066V112.775H175.855V90.125H196.824" fill="#608B9E"/>
<path d="M145.711 189.913H131.782V173.975H124.78V189.913H110.551V196.062H124.78V212H131.782V196.062H145.711" fill="#626C94"/>
<path d="M109.165 83.15H87.9339V60.2H80.4075V83.15H59.4758V89.825H80.4075V112.775H87.9339V89.825H109.165" fill="#EB943C"/>
<path d="M213 124.512H198.771V108.575H192.068V124.512H177.839V130.663H192.068V146.6H198.771V130.663H213" fill="#626C94"/>
<path d="M196.824 164.75H175.855V141.837H168.066V164.75H147.134V171.462H168.066V194.413H175.855V171.462H196.824" fill="#344E82"/>
<path d="M144.888 59.6375H130.921V44H125.641V59.6375H111.674V64.4H125.641V80.075H130.921V64.4H144.888" fill="#759CA8"/>
<path d="M76.2137 125.075H62.2467V109.962H57.2291V125.075H43V130.1H57.2291V145.475H62.2467V130.1L76.2137 129.8" fill="#759CA8"/>
</svg>