<svg width="256" height="256" title="Taiga" viewBox="0 0 256 256" fill="none" xmlns="http://www.w3.org/2000/svg" id="taiga">
<style>
#taiga {
    rect {fill: #15191C}

    @media (prefers-color-scheme: light) {
        rect {fill: #F4F2ED}
    }
}
</style>
<rect width="256" height="256" rx="40" fill="#15191C"/>
<g opacity="0.90">
<path d="M190.827 74.0538L183.087 128.527L128.605 120.788L136.345 66.3143L190.827 74.0538Z" fill="#A295AE"/>
<path d="M66.3318 182.984L74.0725 128.511L128.555 136.25L120.814 190.724L66.3318 182.984Z" fill="#5D6F6D"/>
<path d="M74.0725 66.3868L128.555 74.1256L120.814 128.599L66.3318 120.859L74.0725 66.3868Z" fill="#8CD592"/>
<path d="M183.023 190.73L128.54 182.991L136.281 128.517L190.763 136.257L183.023 190.73Z" fill="#665E74"/>
<path d="M123.116 211L90.0639 167.009L134.062 133.963L167.114 177.954L123.116 211Z" fill="#3C3647"/>
<path d="M210.999 133.88L167.001 166.926L133.95 122.935L177.948 89.8886L211 133.88H210.999Z" fill="#837193"/>
<path d="M133.983 46.0006L167.034 89.9915L123.036 123.038L89.9843 79.0463L133.983 46V46.0006Z" fill="#A2F4AC"/>
<path d="M46 123.082L89.9985 90.0361L123.05 134.028L79.0516 167.074L46 123.082Z" fill="#7EA685"/>
<path d="M128.5 107.583L149.42 128.501L128.5 149.418L107.579 128.501L128.5 107.583Z" fill="#3C3647"/>
</g>
</svg>