<svg width="256" height="256" title="Tailwind Merge" viewBox="0 0 256 256" fill="none" xmlns="http://www.w3.org/2000/svg" id="tailwindmerge">
<style>
#tailwindmerge {
    rect {fill: #15191C}

    @media (prefers-color-scheme: light) {
        rect {fill: #F4F2ED}
    }
}
</style>
<rect width="256" height="256" rx="40" fill="#15191C"/>
<path opacity="0.1" d="M145.273 98.5455C124.545 98.5455 111.591 108.909 106.409 129.636C114.182 119.273 123.25 115.386 133.614 117.977C139.527 119.454 143.753 123.746 148.431 128.493C156.051 136.229 164.871 145.182 184.136 145.182C204.864 145.182 217.818 134.818 223 114.091C215.227 124.455 206.159 128.341 195.795 125.75C189.882 124.273 185.656 119.981 180.978 115.234C173.358 107.499 164.538 98.5455 145.273 98.5455ZM106.409 145.182C85.6818 145.182 72.7272 155.545 67.5454 176.273C75.3181 165.909 84.3863 162.023 94.75 164.614C100.663 166.093 104.889 170.383 109.567 175.13C117.187 182.865 126.008 191.818 145.273 191.818C166 191.818 178.955 181.455 184.136 160.727C176.364 171.091 167.295 174.977 156.932 172.386C151.019 170.91 146.793 166.617 142.115 161.87C134.495 154.135 125.674 145.182 106.409 145.182Z" fill="#6366F1"/>
<path opacity="0.25" d="M133.758 87.0303C113.03 87.0303 100.076 97.394 94.8939 118.121C102.667 107.758 111.735 103.871 122.098 106.462C128.011 107.939 132.238 112.231 136.916 116.978C144.536 124.714 153.356 133.667 172.621 133.667C193.348 133.667 206.303 123.303 211.485 102.576C203.712 112.939 194.644 116.826 184.28 114.235C178.367 112.758 174.141 108.466 169.463 103.719C161.843 95.9833 153.022 87.0303 133.758 87.0303ZM94.8939 133.667C74.1666 133.667 61.212 144.03 56.0302 164.758C63.8029 154.394 72.8711 150.508 83.2348 153.098C89.1478 154.578 93.3739 158.868 98.0519 163.615C105.672 171.35 114.493 180.303 133.758 180.303C154.485 180.303 167.439 169.939 172.621 149.212C164.848 159.576 155.78 163.462 145.417 160.871C139.504 159.394 135.278 155.102 130.599 150.355C122.979 142.62 114.159 133.667 94.8939 133.667Z" fill="#6366F1"/>
<path opacity="0.5" d="M122.242 75.5152C101.515 75.5152 88.5607 85.8788 83.3788 106.606C91.1516 96.2424 100.22 92.3561 110.583 94.947C116.496 96.4238 120.722 100.716 125.401 105.463C133.021 113.198 141.841 122.152 161.106 122.152C181.833 122.152 194.788 111.788 199.97 91.0606C192.197 101.424 183.129 105.311 172.765 102.72C166.852 101.243 162.626 96.9506 157.948 92.2035C150.328 84.4682 141.507 75.5152 122.242 75.5152ZM83.3788 122.152C62.6516 122.152 49.697 132.515 44.5152 153.242C52.2879 142.879 61.3561 138.992 71.7198 141.583C77.6328 143.063 81.8588 147.352 86.5369 152.1C94.157 159.835 102.978 168.788 122.242 168.788C142.97 168.788 155.924 158.424 161.106 137.697C153.333 148.061 144.265 151.947 133.902 149.356C127.989 147.879 123.762 143.587 119.084 138.84C111.464 131.105 102.644 122.152 83.3788 122.152Z" fill="#6366F1"/>
<path d="M110.727 64C90 64 77.0455 74.3636 71.8636 95.0909C79.6364 84.7273 88.7046 80.8409 99.0682 83.4318C104.981 84.9086 109.207 89.2009 113.885 93.948C121.505 101.683 130.326 110.636 149.591 110.636C170.318 110.636 183.273 100.273 188.455 79.5455C180.682 89.9091 171.614 93.7954 161.25 91.2045C155.337 89.7277 151.111 85.4355 146.433 80.6883C138.813 72.953 129.992 64 110.727 64ZM71.8636 110.636C51.1364 110.636 38.1818 121 33 141.727C40.7727 131.364 49.8409 127.477 60.2046 130.068C66.1176 131.548 70.3436 135.837 75.0217 140.584C82.6418 148.32 91.4624 157.273 110.727 157.273C131.455 157.273 144.409 146.909 149.591 126.182C141.818 136.545 132.75 140.432 122.386 137.841C116.473 136.364 112.247 132.072 107.569 127.325C99.9491 119.589 91.1285 110.636 71.8636 110.636Z" fill="#6366F1"/>
</svg>