<svg width="256" height="256" title="Telegram" viewBox="0 0 256 256" fill="none" xmlns="http://www.w3.org/2000/svg">
<rect width="256" height="256" rx="40" fill="url(#linearGradient)"/>
<path d="M83.5821 135.496L100.05 181.078C100.05 181.078 102.109 185.343 104.314 185.343C106.519 185.343 139.311 151.229 139.311 151.229L175.776 80.796L84.1697 123.73L83.5821 135.496Z" fill="#C8DAEA"/>
<path d="M105.418 147.186L102.256 180.784C102.256 180.784 100.933 191.079 111.225 180.784C121.518 170.489 131.37 162.551 131.37 162.551" fill="#A9C6D8"/>
<path d="M83.8794 137.123L50.0035 126.085C50.0035 126.085 45.955 124.443 47.2586 120.718C47.527 119.95 48.0683 119.296 49.6878 118.173C57.1937 112.941 188.617 65.7042 188.617 65.7042C188.617 65.7042 192.328 64.4538 194.517 65.2854C195.058 65.453 195.545 65.7614 195.928 66.1791C196.311 66.5968 196.577 67.1087 196.697 67.6625C196.933 68.6407 197.032 69.6471 196.991 70.6526C196.98 71.5225 196.875 72.3287 196.795 73.593C195.995 86.5079 172.041 182.895 172.041 182.895C172.041 182.895 170.608 188.536 165.474 188.729C164.212 188.769 162.955 188.556 161.777 188.1C160.6 187.645 159.526 186.957 158.62 186.077C148.544 177.41 113.717 154.005 106.021 148.858C105.848 148.739 105.702 148.585 105.593 148.406C105.484 148.226 105.415 148.025 105.39 147.817C105.282 147.274 105.872 146.602 105.872 146.602C105.872 146.602 166.515 92.6986 168.128 87.0399C168.253 86.6015 167.781 86.3852 167.147 86.5773C163.12 88.059 93.2974 132.152 85.5913 137.019C85.0366 137.186 84.4503 137.222 83.8794 137.123Z" fill="white"/>
<linearGradient id="linearGradient" x1="128" y1="256" x2="128" y2="0" gradientUnits="userSpaceOnUse">
<stop stop-color="#1D93D2"/>
<stop offset="1" stop-color="#38B0E3"/>
</linearGradient>
</svg>