<svg width="256" height="256" title="Tempo" viewBox="0 0 256 256" fill="none" xmlns="http://www.w3.org/2000/svg" id="tempo">
<style>
#tempo {
    rect {fill: #15191C}

    @media (prefers-color-scheme: light) {
        rect {fill: #F4F2ED}
    }
}
</style>
<rect width="256" height="256" rx="40" fill="#15191C"/>
<path d="M49.0245 98.8571H46.1557C44.4344 98.8571 43 100.286 43 102C43 103.714 44.4344 105.143 46.1557 105.143H49.0245C50.7458 105.143 52.1803 103.714 52.1803 102C52.1803 100.286 50.7458 98.8571 49.0245 98.8571ZM106.687 144H103.818C102.097 144 100.663 145.429 100.663 147.143C100.663 148.857 102.097 150.286 103.818 150.286H106.687C108.408 150.286 109.843 148.857 109.843 147.143C109.556 145.429 108.408 144 106.687 144ZM104.105 114.286C104.105 112.572 102.671 111.143 100.95 111.143H90.6222C88.9012 111.143 87.4663 112.572 87.4663 114.286C87.4663 116 88.9012 117.429 90.6222 117.429H100.95C102.671 117.429 104.105 116 104.105 114.286ZM202.793 94.8572L199.636 77.1429C198.201 70.0001 193.039 66 186.153 66H63.9423C58.4915 66 54.7622 70.5714 55.6228 76L59.0653 94.8572C59.0653 95.143 59.0653 95.143 59.0653 95.4287C59.3521 97.7144 58.2046 98.5715 57.344 98.8571C56.1964 99.4286 55.336 100.286 55.336 101.714C55.336 103.428 56.7704 104.857 58.4915 104.857H194.473C200.211 105.143 203.939 100.571 202.793 94.8572ZM161.481 166C160.047 159.143 156.317 156.572 151.727 156.572H119.883H119.31C117.59 156.572 116.155 158 116.155 159.714C116.155 161.429 117.301 162.571 119.024 162.857C120.17 163.143 121.031 164.286 121.893 167.714L125.335 186C126.196 191.429 131.645 196 137.383 196H156.605C162.343 196 166.071 191.429 165.212 186L161.481 166ZM118.736 150.572H153.736C154.023 150.572 154.309 150.572 154.596 150.572C157.751 150 158.04 147.143 157.465 144.571L152.875 120.286C151.727 114 147.999 111.429 143.121 111.429H111.563H110.99C109.27 111.429 107.835 112.857 107.835 114.571C107.835 116.286 108.983 117.429 110.704 117.714C111.852 118 112.998 119.429 113.573 122.857L117.015 141.429C117.301 143.143 116.155 144 115.007 144.571C113.859 144.857 112.998 146 112.998 147.429C112.998 149.143 114.432 150.572 116.155 150.572H118.736Z" fill="url(#linearGradient0)"/>
<linearGradient id="linearGradient0" x1="264.482" y1="83.5426" x2="78.7136" y2="141.069" gradientUnits="userSpaceOnUse">
<stop stop-color="#FFF100"/>
<stop offset="1" stop-color="#F05A28"/>
</linearGradient>
</svg>