<svg width="256" height="256" title="Testcontainers" viewBox="0 0 256 256" fill="none" xmlns="http://www.w3.org/2000/svg" id="testcontainers">
<style>
#testcontainers {
    rect {fill: #15191C}

    @media (prefers-color-scheme: light) {
        rect {fill: #F4F2ED}
    }
}
</style>
<rect width="256" height="256" rx="40" fill="#15191C"/>
<path fill-rule="evenodd" clip-rule="evenodd" d="M202.963 87.5006C202.97 87.406 202.972 87.311 202.972 87.2153C202.972 86.9516 202.948 86.6907 202.902 86.4356C202.682 85.1603 201.893 84.0373 200.751 83.3765C200.623 83.3023 200.491 83.2353 200.357 83.1755L130.219 42.5884C128.864 41.8045 127.195 41.8039 125.839 42.5863L55.228 83.3622C53.8728 84.1448 53.0374 85.5921 53.0367 87.1587L53 168.773C52.9995 170.34 53.8335 171.788 55.1882 172.572L125.763 213.412C126.429 213.797 127.185 214 127.954 214H128.046C128.815 214 129.571 213.797 130.237 213.412L200.812 172.572C202.166 171.788 203.001 170.34 203 168.773L202.963 87.5006Z" fill="#361E5B"/>
<path d="M128 51.4244L61.7686 89.7159V166.284L128 204.575L194.231 166.284V89.7159L128 51.4244Z" fill="#16D6C7"/>
<path d="M194.231 89.7159V166.284L128 204.575L128 128.007L194.231 89.7159Z" fill="#027F9E"/>
<path d="M194.231 89.7159L128 128.007L61.7686 89.7159L128 51.4244L194.231 89.7159Z" fill="#17A6B2"/>
</svg>