<svg width="256" height="256" title="Thunderbird" viewBox="0 0 256 256" fill="none" xmlns="http://www.w3.org/2000/svg" id="thunderbird">
<style>
#thunderbird {
    rect {fill: #15191C}

    @media (prefers-color-scheme: light) {
        rect {fill: #F4F2ED}
    }
}
</style>
<rect width="256" height="256" rx="40" fill="#15191C"/>
<path d="M173.024 68.4319C163.042 61.9116 150.277 59.8011 143.231 59.0638C135.691 58.2756 129.141 58.4147 123.381 59.26C122.893 59.2538 122.408 59.2345 121.917 59.2345C121.543 59.2345 121.174 59.2504 120.797 59.2545C120.952 59.0652 121.059 58.9482 121.059 58.9482C121.059 58.9482 120.756 58.9957 120.162 59.2648C118.291 59.2951 116.43 59.3598 114.596 59.4851C117.151 56.6848 119.243 55.2172 119.243 55.2172C119.243 55.2172 116.76 55.5807 112.227 59.6889C110.071 59.8871 107.945 60.1501 105.855 60.477C110.617 54.0325 115.598 51.319 115.598 51.319C115.598 51.319 109.56 50.0895 100.105 59.5904C99.3143 60.3855 98.5805 61.2122 97.8708 62.0493C70.3146 68.7175 50.5927 86.5126 50.5927 107.426C50.5927 111.527 49.3337 116.038 50.6912 120.542C50.1487 127.738 51.3038 147.372 51.3038 147.372C51.3038 147.372 58.7637 187.744 87.4502 194.763C87.9059 194.872 81.4566 184.699 78.604 172.431C84.1584 178.081 90.7778 182.549 98.2074 183.324C99.1195 183.418 93.9636 177.376 89.4479 170.084L154.635 192.047C188.73 177.403 184.761 178.722 192.081 170.793C208.208 153.336 210.466 143.431 206.403 114.185C203.654 94.4434 189.083 74.8909 173.024 68.4319Z" fill="url(#paint0_linear_1_7)"/>
<path d="M58.6171 86.8692L48.8828 142.217L54.2803 158.94L162.027 194.764L182.009 109.802L58.6171 86.8692Z" fill="#FBFBFB"/>
<path d="M58.9207 88.7512C59.461 89.9139 59.302 90.1892 58.9654 90.1892C58.814 90.1892 58.6267 90.1335 58.4512 90.0784C58.2757 90.0227 58.1111 89.9676 58.0051 89.9676C57.7071 89.9676 57.875 90.4075 59.5629 92.5283C61.9502 95.5613 97.0097 148.488 98.9254 148.488C98.9357 148.488 98.9447 148.487 98.9529 148.484C115.274 142.669 184.685 118.844 184.685 118.844L177.584 108.499L58.9207 88.7512Z" fill="#999999"/>
<path d="M59.9388 87.4509C59.9388 87.4509 60.4619 90.1576 62.8857 93.1534C65.295 96.1767 97.6553 145.174 99.2792 144.743C120.478 139.115 197.389 109.172 197.389 109.172L59.9388 87.4509Z" fill="#F8F8F8"/>
<path d="M158.179 193.488L55.7817 159.442L56.1438 161.834L159.318 196.139L158.179 193.488Z" fill="#999999"/>
<path d="M82.7218 85.1614C82.7218 85.1614 45.4657 96.0721 62.5608 134.058C62.5608 134.058 54.7223 126.882 50.0551 117.705C49.8452 117.294 57.8344 88.9109 57.8344 88.9109L82.7218 85.1614Z" fill="url(#paint1_linear_1_7)"/>
<path d="M62.5608 134.058C59.3206 134.003 54.1151 131.33 52.4266 128.094C50.316 163.268 64.6672 183.81 87.4509 194.765C80.0062 193.911 43 174.383 43 127.39C43 87.4316 74.7064 51.7155 124.326 50.0792C124.63 52.3192 99.726 57.9363 98.9295 60.5776C97.6932 64.6885 94.8516 69.1636 92.4547 72.7507C89.207 77.6113 96.9683 81.7677 91.2645 83.077C82.6819 85.0464 71.2343 83.956 62.7928 94.9301C50.1033 111.427 58.571 130.298 62.5608 134.058Z" fill="url(#paint2_radial_1_7)"/>
<path d="M137.34 51.3651C105.205 48.8993 88.6673 61.7574 78.0505 76.7089C74.1839 82.1511 74.6073 87.1487 75.9386 93.1864C76.5106 95.7637 77.0889 96.9986 76.3922 99.6261C76.0081 101.076 76.0721 102.429 75.5951 103.284C74.9349 104.466 74.0944 105.758 73.8129 107.88C73.1094 113.18 74.9852 114.868 76.1575 116.651C77.8275 114.993 81.0897 111.09 86.9718 108.758C92.8539 106.427 96.724 102.923 104.096 99.1615C114.168 94.0242 125.974 101.818 148.358 94.4833C155.246 92.2261 171.076 68.7768 174.834 67.8764C164.368 56.3035 146.564 52.072 137.34 51.3651Z" fill="url(#paint3_linear_1_7)"/>
<path d="M116.11 44.0222C116.11 44.0222 110.372 46.7936 107.874 51.8015C113.643 48.8931 116.992 47.3044 118.575 47.1151C118.575 47.1151 117.058 47.8496 115.178 51.8442C118.503 50.7793 119.647 50.1081 120.56 50.0978C120.56 50.0978 120.295 50.5177 120.053 54.5047C114.947 52.8499 105.12 54.778 99.8925 58.0519C98.1193 48.5971 116.11 44.0222 116.11 44.0222Z" fill="#3F6499"/>
<path d="M138.945 49.9408C129.095 48.6646 120.861 48.9158 113.861 50.2644C116.062 48.1545 118.609 47.1151 118.609 47.1151C115.309 47.4069 111.188 49.5615 107.653 51.8428C105.871 52.4114 104.174 53.053 102.565 53.7696C103.55 52.472 104.695 51.0856 105.815 50.0214C109.972 46.0681 116.144 44.0222 116.144 44.0222C110.876 43.6353 93.2436 48.149 82.6337 69.6386C80.8949 71.7567 79.2724 73.9306 77.7263 76.1079C73.7351 81.7278 74.1729 86.8864 75.5497 93.121C76.1361 95.783 76.2442 100.032 75.6653 102.778C75.5497 103.328 74.0387 104.749 73.6511 108.58C73.2367 112.645 74.6871 114.64 76.1169 116.292C81.1971 108.863 86.2091 107.39 86.2091 107.39C93.32 104.477 96.28 101.366 103.892 97.4825C114.292 92.1759 150.659 109.495 173.77 101.921C180.882 99.5917 171.032 69.3206 174.915 68.3913C164.108 56.4411 148.417 51.1682 138.945 49.9408Z" fill="url(#paint4_linear_1_7)"/>
<path d="M211.084 115.101C205.387 85.3376 177.976 58.2605 155.934 56.7598C146.151 56.0935 149.155 61.1097 143.034 63.0199C116.656 71.2521 116.252 76.0584 116.252 76.0584C172.184 78.6872 173.032 133.926 158.053 147.901C162.268 146.918 166.838 141.765 171.035 133.675C170.531 137.069 170.099 141.233 169.47 145.879C167.551 160.056 170.036 189.669 129.299 209.488C129.299 209.488 151.583 207.667 162.633 195.227C158.14 205.561 145.809 211.143 145.809 211.143C154.883 209.816 178.72 202.782 193.904 183.793C211.09 162.298 216.258 142.133 211.084 115.101Z" fill="url(#paint5_linear_1_7)"/>
<path d="M156.577 169.436C156.577 169.436 174.747 164.356 180.603 154.544C179.892 165.984 169.515 177.716 169.515 177.716C169.515 177.716 184.685 174.646 191.155 163.971C190.312 173.604 178.633 186.623 178.633 186.623C190.573 184.48 220.575 165.528 211.085 115.101C205.48 85.3204 177.977 58.2605 155.934 56.7598C146.152 56.0935 149.156 61.1097 143.035 63.0199C116.656 71.2521 116.253 76.0584 116.253 76.0584C172.185 78.6872 187.048 107.96 158.054 147.12C162.269 146.136 163.959 143.82 167.125 140.029C167.124 140.029 168.56 155.021 156.577 169.436Z" fill="url(#paint6_linear_1_7)"/>
<path d="M84.7215 102.902C84.7215 102.902 81.4731 105.174 79.1209 104.595C76.3365 103.912 75.8649 101.214 75.8649 101.214C75.8037 101.766 75.7328 102.3 75.6302 102.778C75.5146 103.328 74.0036 104.749 73.616 108.58C73.2016 112.645 74.7277 114.999 76.1575 116.65C81.2384 109.221 86.1747 107.39 86.1747 107.39C84.241 106.714 84.7215 102.902 84.7215 102.902Z" fill="url(#paint7_linear_1_7)"/>
<path d="M155.558 56.6896C156.319 56.4921 159.427 56.8301 161.467 57.7449C163.507 58.6597 167.024 60.2774 164.211 60.9809C161.397 61.6845 159.779 60.559 158.372 59.3626C156.965 58.1662 153.659 57.1818 155.558 56.6896Z" fill="url(#paint8_linear_1_7)"/>
<path d="M85.0258 102.457C85.0258 102.457 102.846 73.0901 118.957 65.1649C120.453 64.4125 96.6503 71.4917 87.0716 82.0644C81.3781 88.3485 84.3932 100.652 85.0258 102.457Z" fill="url(#paint9_linear_1_7)"/>
<path opacity="0.1" d="M85.0258 102.457C85.0423 102.447 85.0602 102.437 85.0774 102.426C89.6854 99.5793 97.5824 97.9396 100.128 92.7789C109.928 72.9063 118.958 65.1649 118.958 65.1649C102.846 73.0901 85.0258 102.457 85.0258 102.457Z" fill="#F2F2F2"/>
<path d="M86.7199 97.086C86.7199 97.086 83.5079 92.158 88.1331 87.6643C90.5741 85.2963 94.2727 86.6118 94.7002 87.0379C96.5202 88.8428 95.3761 92.6522 93.7378 94.8082C92.812 96.0225 90.1177 97.9128 86.7199 97.086Z" fill="#2F4282"/>
<path d="M88.5613 96.7804C88.5613 96.7804 86.342 93.3736 89.5401 90.2691C91.2239 88.6335 93.7812 89.5422 94.0779 89.8354C95.3348 91.0827 94.5432 93.7158 93.4115 95.2047C92.772 96.0466 90.9093 97.3518 88.5613 96.7804Z" fill="url(#paint10_linear_1_7)"/>
<path d="M92.9916 93.1451C92.9421 94.5067 91.7897 95.5696 90.4185 95.5228C89.0445 95.4753 87.9693 94.3346 88.0182 92.973C88.067 91.6121 89.2187 90.5493 90.5934 90.5961C91.9646 90.6436 93.0391 91.7849 92.9916 93.1451Z" fill="black"/>
<path d="M88.9316 93.1658C89.3635 93.1658 89.7136 92.8157 89.7136 92.3838C89.7136 91.9519 89.3635 91.6018 88.9316 91.6018C88.4997 91.6018 88.1496 91.9519 88.1496 92.3838C88.1496 92.8157 88.4997 93.1658 88.9316 93.1658Z" fill="white"/>
<path d="M200.296 88.7512C188.098 70.1817 178.433 65.4629 178.433 65.4629C178.433 65.4629 178.877 78.9894 185.65 85.5138C186.424 86.2593 177.545 79.7095 177.545 79.7095C177.545 79.7095 175.646 85.9571 179.997 93.1396C178.733 91.4607 177.897 90.8246 177.897 90.8246C177.897 90.8246 169.7 94.6045 167.28 99.8485C166.031 97.4901 165.094 96.101 165.094 96.101C165.094 96.101 159.424 107.416 160.137 120.535C161.296 141.866 156.142 149.724 156.142 149.724C156.142 149.724 169.949 144.427 176.57 127.374C179.306 134.625 176.487 142.256 176.487 142.256C176.487 142.256 187.643 133.921 190.042 118.728C192.701 123.016 191.919 131.576 191.919 131.576C191.919 131.576 199.039 121.662 199.213 110.865C202.513 113.166 202.817 122.154 202.817 122.154C202.817 122.154 213.373 108.658 200.296 88.7512Z" fill="url(#paint11_linear_1_7)"/>
<path d="M188.441 75.7741C185.253 69.8334 179.627 66.0474 174.683 62.9827C162.355 55.3384 154.426 54.2645 154.426 54.2645C154.426 54.2645 143.049 56.3806 145.003 59.5457C145.103 59.7081 145.338 59.914 145.669 60.1494C135.689 55.5524 130.028 66.1224 130.028 66.1224C124.326 65.7761 117.382 68.5833 115.358 76.1031C115.148 76.8837 117.912 76.4445 119.334 76.7536C127.649 78.5613 135.477 82.4809 139.073 84.4179C147.44 88.9254 152.404 96.4307 155.269 102.06C158.737 108.871 160.153 120.856 160.153 120.856C160.153 120.856 169.276 108.324 167.096 101.889C170.709 104.134 171.422 112.14 171.422 112.14C171.422 112.14 177.504 102.614 175.706 94.3174C180.397 97.1762 180.553 102.992 180.553 102.992C180.553 102.992 185.33 96.3619 183.171 85.4884C187.892 89.242 188.88 94.1047 188.88 94.1047C188.88 94.1047 192.739 83.7839 188.441 75.7741Z" fill="url(#paint12_linear_1_7)"/>
<linearGradient id="paint0_linear_1_7" x1="180.353" y1="182.987" x2="70.3137" y2="72.9481" gradientUnits="userSpaceOnUse">
<stop stop-color="#130036"/>
<stop offset="0.2297" stop-color="#18023B"/>
<stop offset="0.5122" stop-color="#26094A"/>
<stop offset="0.8211" stop-color="#3D1563"/>
<stop offset="1" stop-color="#4E1D75"/>
</linearGradient>
<linearGradient id="paint1_linear_1_7" x1="50.0509" y1="109.61" x2="82.7217" y2="109.61" gradientUnits="userSpaceOnUse">
<stop stop-color="#3156A8"/>
<stop offset="0.2474" stop-color="#3351A4"/>
<stop offset="0.5365" stop-color="#3B4397"/>
<stop offset="0.8453" stop-color="#472C82"/>
<stop offset="1" stop-color="#4E1D75"/>
</linearGradient>
<radialGradient id="paint2_radial_1_7" cx="0" cy="0" r="1" gradientUnits="userSpaceOnUse" gradientTransform="translate(83.6643 122.422) scale(58.6814 85.088)">
<stop offset="0.1654" stop-color="#14CDDA"/>
<stop offset="0.5478" stop-color="#2061BD"/>
<stop offset="0.6546" stop-color="#2658AC"/>
<stop offset="0.864" stop-color="#373F81"/>
<stop offset="1" stop-color="#432D62"/>
</radialGradient>
<linearGradient id="paint3_linear_1_7" x1="73.6592" y1="83.8552" x2="174.834" y2="83.8552" gradientUnits="userSpaceOnUse">
<stop stop-color="#2061BD"/>
<stop offset="0.1846" stop-color="#2B51AC"/>
<stop offset="0.6826" stop-color="#442C84"/>
<stop offset="0.9409" stop-color="#4E1D75"/>
</linearGradient>
<linearGradient id="paint4_linear_1_7" x1="88.552" y1="59.9743" x2="158.14" y2="120.466" gradientUnits="userSpaceOnUse">
<stop offset="0.0202" stop-color="#48A8E0"/>
<stop offset="0.3883" stop-color="#2061BD"/>
<stop offset="0.4968" stop-color="#2B51AC"/>
<stop offset="0.7892" stop-color="#442C84"/>
<stop offset="0.9409" stop-color="#4E1D75"/>
</linearGradient>
<linearGradient id="paint5_linear_1_7" x1="56.5445" y1="276.266" x2="192.952" y2="74.0345" gradientUnits="userSpaceOnUse">
<stop offset="0.3787" stop-color="#3156A8"/>
<stop offset="1" stop-color="#4E1D75"/>
</linearGradient>
<linearGradient id="paint6_linear_1_7" x1="109.597" y1="235.812" x2="185.023" y2="66.4014" gradientUnits="userSpaceOnUse">
<stop stop-color="#29ABE2"/>
<stop offset="0.7733" stop-color="#385AA6"/>
<stop offset="0.8575" stop-color="#414293"/>
<stop offset="1" stop-color="#4E1D75"/>
</linearGradient>
<linearGradient id="paint7_linear_1_7" x1="76.2267" y1="107.354" x2="80.3382" y2="109.718" gradientUnits="userSpaceOnUse">
<stop stop-color="#B0DCD6"/>
<stop offset="1" stop-color="#53ACE0"/>
</linearGradient>
<linearGradient id="paint8_linear_1_7" x1="164.301" y1="59.8913" x2="156.058" y2="58.1499" gradientUnits="userSpaceOnUse">
<stop stop-color="#3092B9"/>
<stop offset="0.2199" stop-color="#258DB6"/>
<stop offset="0.6564" stop-color="#1685B1"/>
<stop offset="1" stop-color="#1082AF"/>
</linearGradient>
<linearGradient id="paint9_linear_1_7" x1="98.6093" y1="70.1757" x2="105.392" y2="97.3795" gradientUnits="userSpaceOnUse">
<stop offset="0.0074" stop-color="#1398D1" stop-opacity="0"/>
<stop offset="0.2482" stop-color="#1187C2" stop-opacity="0.6197"/>
<stop offset="0.6422" stop-color="#3F6499" stop-opacity="0.71"/>
<stop offset="1" stop-color="#2F4282" stop-opacity="0.5"/>
</linearGradient>
<linearGradient id="paint10_linear_1_7" x1="93.1121" y1="94.379" x2="89.3753" y2="92.1337" gradientUnits="userSpaceOnUse">
<stop stop-color="#F9C21B"/>
<stop offset="0.1479" stop-color="#F3BA1B"/>
<stop offset="0.3787" stop-color="#E3A41B"/>
<stop offset="0.6634" stop-color="#C9801C"/>
<stop offset="0.9884" stop-color="#A44E1C"/>
<stop offset="1" stop-color="#A34C1C"/>
</linearGradient>
<linearGradient id="paint11_linear_1_7" x1="184.95" y1="133.584" x2="159.631" y2="76.716" gradientUnits="userSpaceOnUse">
<stop stop-color="#409EC3"/>
<stop offset="0.62" stop-color="#2061BD"/>
</linearGradient>
<linearGradient id="paint12_linear_1_7" x1="164.677" y1="114.944" x2="146.536" y2="59.1124" gradientUnits="userSpaceOnUse">
<stop stop-color="#14B2DA"/>
<stop offset="0.4028" stop-color="#297CCC"/>
<stop offset="0.5077" stop-color="#256FC5"/>
<stop offset="0.6492" stop-color="#2164BF"/>
<stop offset="0.8162" stop-color="#2061BD"/>
<stop offset="0.9835" stop-color="#2061BD"/>
</linearGradient>
</svg>