<svg width="256" height="256" title="TikTok" viewBox="0 0 256 256" fill="none" xmlns="http://www.w3.org/2000/svg">
<rect width="256" height="256" rx="40" fill="black"/>
<path d="M116.588 112.996V107.09C114.399 106.8 112.193 106.65 109.985 106.641C82.9772 106.641 61 127.228 61 152.533C61 168.053 69.2826 181.796 81.9131 190.103C73.4557 181.629 68.7506 170.461 68.7585 158.86C68.7585 133.917 90.1084 113.576 116.588 112.996Z" fill="#00F2EA"/>
<path d="M117.887 178.179C129.306 178.179 138.617 169.146 139.042 157.882L139.082 57.3629H157.545C157.15 55.265 156.949 53.1349 156.945 51H131.732L131.688 151.523C131.267 162.779 121.949 171.813 110.533 171.813C107.108 171.813 103.735 170.981 100.702 169.388C102.667 172.11 105.25 174.326 108.237 175.854C111.224 177.383 114.532 178.179 117.887 178.179ZM192.025 91.4828V85.8949C185.247 85.9024 178.613 83.9405 172.927 80.2473C177.917 85.9564 184.614 89.8975 192.025 91.4828Z" fill="#00F2EA"/>
<path d="M172.176 81.6741C166.632 75.4046 163.57 67.3216 163.568 58.9487H156.83C157.712 63.5814 159.527 67.9857 162.166 71.8929C164.804 75.8 168.211 79.1281 172.176 81.6741ZM109.937 130.746C98.264 130.761 88.806 140.129 88.7941 151.69C88.8063 155.523 89.8695 159.279 91.8677 162.548C93.866 165.817 96.7226 168.475 100.126 170.231C97.529 166.689 96.1271 162.411 96.1238 158.018C96.1357 146.452 105.594 137.081 117.267 137.069C119.451 137.069 121.536 137.426 123.509 138.038V112.603C121.441 112.312 119.356 112.16 117.267 112.149C116.902 112.149 116.541 112.173 116.179 112.177V131.715C114.159 131.079 112.055 130.752 109.937 130.746Z" fill="#FF004F"/>
<path d="M188.666 94.7179V114.129C176.124 114.147 163.889 110.241 153.674 102.957V153.697C153.674 179.042 132.907 199.661 107.384 199.661C97.5175 199.661 88.3693 196.569 80.8529 191.327C85.1921 195.963 90.4367 199.658 96.2614 202.182C102.086 204.707 108.367 206.006 114.714 206C140.241 206 161.007 185.381 161.007 160.04V109.296C171.223 116.579 183.458 120.484 196 120.464V95.4929C193.535 95.4922 191.077 95.2324 188.666 94.7179Z" fill="#FF004F"/>
<path d="M156.211 152.028V101.204C166.723 108.519 179.226 112.425 192.029 112.396V92.9613C184.501 91.4016 177.667 87.4748 172.526 81.7536C164.299 76.5591 158.621 68.3203 156.818 58.9487H137.97L137.93 159.162C137.493 170.386 127.984 179.392 116.33 179.392C109.366 179.384 102.838 176.125 98.7802 170.632C91.6569 167.004 87.19 159.838 87.186 152.024C87.1979 140.419 96.8743 131.02 108.826 131.004C111.049 131.004 113.185 131.362 115.21 131.978V112.372C89.5962 112.956 68.9412 133.357 68.9412 158.371C68.9412 170.473 73.7813 181.486 81.6669 189.709C89.6744 195.163 99.1402 198.071 108.826 198.051C134.952 198.051 156.211 177.404 156.211 152.028Z" fill="white"/>
</svg>