<svg width="256" height="256" title="TinaCMS" viewBox="0 0 256 256" fill="none" xmlns="http://www.w3.org/2000/svg" id="tinacms">
<style>
#tinacms {
    rect {fill: #15191C}

    @media (prefers-color-scheme: light) {
        rect {fill: #F4F2ED}
    }
}
</style>
<rect width="256" height="256" rx="40" fill="#15191C"/>
<path d="M145.049 118.906C153.134 112.218 156.717 72.6976 160.217 58.4916C163.717 44.2856 178.192 45.0061 178.192 45.0061C178.192 45.0061 174.434 51.5461 175.967 56.4266C177.499 61.307 188 65.6695 188 65.6695L185.735 71.6401C185.735 71.6401 181.006 71.0352 178.192 76.6646C175.378 82.2936 181.717 137.46 181.717 137.46C181.717 137.46 163.087 171.393 163.087 185.479C163.087 199.564 169.754 211.369 169.754 211.369H160.398C160.398 211.369 146.674 195.036 143.859 186.874C141.045 178.711 142.17 170.549 142.17 170.549C142.17 170.549 127.252 169.705 114.024 170.549C100.796 171.393 91.9736 182.765 90.3814 189.126C88.7892 195.486 88.1297 211.369 88.1297 211.369H80.7324C76.23 197.474 72.6541 192.494 74.594 185.479C79.9673 166.046 78.9119 155.024 77.6677 150.115C76.4236 145.205 68 140.921 68 140.921C72.1263 132.514 76.3383 128.474 94.4561 128.053C112.574 127.632 136.963 125.593 145.049 118.906Z" fill="#EC4815"/>
<path d="M96.6089 184.665C96.6089 184.665 98.5204 202.354 108.676 211.369H117.378C108.676 201.51 107.727 175.812 107.727 175.812C103.3 177.253 97.1719 182.413 96.6089 184.665Z" fill="#EC4815"/>
</svg>