<svg width="256" height="256" title="tinyhttp" viewBox="0 0 256 256" fill="none" xmlns="http://www.w3.org/2000/svg" id="tinyhttp">
<style>
#tinyhttp {
    rect {fill: #15191C}

    @media (prefers-color-scheme: light) {
        rect {fill: #F4F2ED}
    }
}
</style>
<rect width="256" height="256" rx="40" fill="#15191C"/>
<path fill-rule="evenodd" clip-rule="evenodd" d="M58.6405 132.918H65.2136L69.2585 108.836H62.6855L58.6405 132.918ZM66.562 105.784C68.5844 105.784 70.4383 104.257 70.6068 102.392C70.7754 100.526 69.4271 99 67.4045 99C65.3821 99 63.6967 100.526 63.3597 102.392C63.1911 104.257 64.7079 105.784 66.562 105.784ZM61.1686 108.836H56.618L57.6293 103.07H50.8877L50.045 108.836H46.8427L46 113.924H49.2023L47.1798 126.474C46.3371 131.053 49.0337 133.427 53.9214 133.257C55.6068 133.257 56.9551 132.918 57.6293 132.579L57.4607 127.661H57.2922L55.7753 127.83C54.427 127.83 53.5843 127.322 53.9214 125.456L55.7753 113.924H60.3259L61.1686 108.836ZM82.0675 114.094C79.371 114.094 77.18 115.959 76.6744 119.012L74.3147 132.918H67.7417L71.7867 108.836H78.0227L77.3485 113.076H77.6856C79.2024 110.363 82.0675 108.497 85.6069 108.497C90.4946 108.497 93.3598 112.059 92.3486 117.655L89.8204 132.918H83.2474L85.6069 118.842C85.944 115.79 84.7642 114.094 82.0675 114.094ZM103.809 135.462C102.967 137.327 101.787 138.854 100.438 139.871H165.832L170.888 108.836H177.461L176.787 112.906H177.124C178.304 110.871 180.664 108.497 184.709 108.497C189.933 108.497 193.641 112.737 192.293 120.877C190.945 129.018 186.057 133.257 180.495 133.257C176.619 133.257 175.102 131.053 174.428 129.018H174.259L172.405 139.871H200.046L192.798 132.579L197.012 128.339L211 142.415L210.833 142.754L211 142.924L197.012 157L192.798 152.76L199.709 145.807H46.1685V139.871H90.4946L92.1799 136.14C94.371 136.988 95.888 136.819 97.2363 134.614L97.9104 133.596L93.3598 108.836H100.101L102.124 126.643H102.292L110.214 108.836H117.63L103.809 135.462ZM128.416 114.094C125.72 114.094 123.528 115.959 123.023 119.012L120.832 132.918H114.09L119.483 100.865H125.888L123.866 113.076H124.203C125.72 110.193 128.416 108.497 132.124 108.497C137.012 108.497 139.708 111.889 138.866 117.655L136.338 132.918H129.596L131.955 118.842C132.461 115.79 131.113 114.094 128.416 114.094ZM155.046 108.836H150.832L151.675 103.07H145.102L144.09 108.836H140.888L140.045 113.924H143.416L141.225 126.474C140.383 131.053 143.248 133.427 148.135 133.257C149.821 133.257 151.169 132.918 151.843 132.579L151.675 127.661H151.506L149.989 127.83C148.641 127.83 147.798 127.322 147.967 125.456L149.989 113.924H157.574L155.551 126.474C154.708 131.053 157.405 133.427 162.293 133.257C163.978 133.257 165.326 132.918 166.001 132.579L165.832 127.661H165.664L164.147 127.83C162.798 127.83 161.956 127.322 162.293 125.456L164.147 113.924H168.697L169.54 108.836H164.989L166.001 103.07H159.259L158.416 108.836H155.046ZM175.439 120.877C176.113 116.638 178.473 113.924 181.675 113.924C184.877 113.924 186.225 116.807 185.551 120.877C184.709 125.117 182.518 128 179.315 128C176.113 128 174.765 125.117 175.439 120.877Z" fill="url(#linearGradient)"/>
<linearGradient id="linearGradient" x1="128.483" y1="98.983" x2="128.483" y2="157.034" gradientUnits="userSpaceOnUse">
<stop stop-color="#C75975"/>
<stop offset="1" stop-color="#9A84CD"/>
</linearGradient>
</svg>