<svg width="256" height="256" title="Traefik" viewBox="0 0 256 256" fill="none" xmlns="http://www.w3.org/2000/svg" id="traefik">
<style>
#traefik {
    rect {fill: #15191C}
    path.traefik {fill: #F4F2ED}

    @media (prefers-color-scheme: light) {
        rect {fill: #F4F2ED}
        path.traefik {fill: #333333}
    }
}
</style>
<rect width="256" height="256" rx="40" fill="#15191C"/>
<path d="M79.1923 93.9401C79.1923 93.9401 90.704 83.9337 124.775 83.9337C156.032 83.9337 164.815 91.0137 173.737 93.9401L127.193 116.65L79.1923 93.9401Z" fill="#C9781F"/>
<path d="M74.3327 124.059C74.5436 128.399 78.8863 126.391 80.8534 125.034C82.7206 123.745 83.2665 124.816 83.4303 122.274C83.5377 120.602 83.7307 118.931 83.6355 117.253C80.8122 116.998 77.741 117.669 75.4263 119.348C74.2342 120.214 71.9986 122.975 74.3327 124.059Z" fill="#F6D2A2"/>
<path d="M74.3327 124.059C74.9648 123.824 75.6345 123.657 76.0635 123.086Z" fill="#C6B198"/>
<path d="M84.3688 72.3473C67.7272 67.6745 80.1016 46.5347 93.4652 55.2299L84.3688 72.3473Z" fill="#37ABC8"/>
<path d="M158.307 53.6434C171.48 44.4049 183.383 65.2485 168.075 70.493L158.307 53.6434Z" fill="#37ABC8"/>
<path d="M161.141 177.481C164.487 179.548 170.602 185.799 165.583 188.83C160.761 193.239 158.061 183.99 153.828 182.709C155.651 180.237 157.962 177.983 161.141 177.481Z" fill="#F6D2A2"/>
<path d="M101.365 184.545C97.438 185.152 95.2274 188.69 91.9536 190.486C88.8687 192.323 87.6885 189.898 87.4105 189.406C86.9269 189.186 86.9675 189.611 86.2211 188.86C83.3611 184.353 89.201 181.059 92.2418 178.82C96.4774 177.965 99.1319 181.632 101.365 184.545Z" fill="#F6D2A2"/>
<path d="M85.0633 66.5086C82.8676 65.3489 81.257 63.774 82.6 61.2381C83.8435 58.8908 86.1534 59.1455 88.349 60.3052L85.0633 66.5086Z" fill="#077E91"/>
<path d="M164.606 64.3039C166.802 63.1443 168.412 61.5694 167.069 59.0335C165.826 56.6859 163.516 56.9409 161.32 58.1006L164.606 64.3039Z" fill="#077E91"/>
<path d="M179.719 123.507C179.508 127.848 175.166 125.84 173.198 124.482C171.331 123.194 170.785 124.265 170.622 121.723C170.514 120.051 170.321 118.38 170.416 116.702C173.24 116.447 176.311 117.118 178.626 118.797C179.818 119.662 182.053 122.424 179.719 123.507Z" fill="#F6D2A2"/>
<path d="M179.719 123.507C179.087 123.272 178.417 123.106 177.988 122.535Z" fill="#C6B198"/>
<path d="M125.358 44.863C142.019 44.863 157.637 47.2422 165.779 63.225C173.086 81.1399 170.488 100.458 171.602 119.391C172.559 135.649 174.681 154.431 167.128 169.496C159.182 185.347 139.327 189.334 122.969 188.75C110.12 188.291 94.598 184.105 87.3464 172.383C78.8385 158.631 82.8665 138.183 83.4843 122.881C84.2164 104.756 78.5674 86.575 84.5308 68.8383C90.7171 50.4397 107.402 46.2815 125.358 44.863Z" fill="#37ABC8"/>
<path d="M128.299 67.1958C131.291 84.5586 159.714 79.968 155.631 62.4565C151.971 46.7534 127.305 51.1001 128.299 67.1958Z" fill="white"/>
<path d="M94.334 70.0039C98.211 85.1198 122.448 81.2498 121.534 66.087C120.44 47.927 90.6273 51.4313 94.334 70.0039Z" fill="white"/>
<path d="M133.817 87.435C133.83 89.7554 134.367 92.0232 133.903 94.6282C133.326 95.7172 132.194 95.8325 131.218 96.2725C129.869 96.061 128.734 95.1763 128.192 93.9157C127.846 91.1746 128.322 88.5207 128.409 85.7787L133.817 87.435Z" fill="white"/>
<path d="M101.019 71.9651C103.279 71.9651 105.111 69.9833 105.111 67.5386C105.111 65.0939 103.279 63.1121 101.019 63.1121C98.7585 63.1121 96.9261 65.0939 96.9261 67.5386C96.9261 69.9833 98.7585 71.9651 101.019 71.9651Z" fill="black"/>
<path d="M102.88 69.6625C103.413 69.6625 103.845 69.1588 103.845 68.5374C103.845 67.916 103.413 67.4123 102.88 67.4123C102.347 67.4123 101.916 67.916 101.916 68.5374C101.916 69.1588 102.347 69.6625 102.88 69.6625Z" fill="white"/>
<path d="M135.31 70.8627C137.533 70.8627 139.335 68.8809 139.335 66.4362C139.335 63.9915 137.533 62.0097 135.31 62.0097C133.088 62.0097 131.286 63.9915 131.286 66.4362C131.286 68.8809 133.088 70.8627 135.31 70.8627Z" fill="black"/>
<path d="M137.141 68.5604C137.665 68.5604 138.09 68.0566 138.09 67.4353C138.09 66.8139 137.665 66.3102 137.141 66.3102C136.617 66.3102 136.192 66.8139 136.192 67.4353C136.192 68.0566 136.617 68.5604 137.141 68.5604Z" fill="white"/>
<path d="M122.121 87.7847C120.335 92.106 123.117 100.747 127.962 94.3735C127.616 91.6324 128.091 88.9786 128.179 86.2366L122.121 87.7847Z" fill="white"/>
<path d="M121.837 79.4628C118.509 79.7461 115.788 83.6975 117.519 86.8234C119.811 90.964 124.926 86.457 128.112 86.8794C131.778 86.9545 134.782 90.7507 137.727 87.5657C141.003 84.0233 136.317 80.5733 132.655 79.0309L121.837 79.4628Z" fill="#F6D2A2"/>
<path d="M79.1923 93.9401C79.1923 93.9401 80.246 105.337 80.1738 110.25C80.1016 115.163 84.8157 112.061 85.0603 119.787C85.305 127.513 82.2048 126.048 80.5715 129.83C78.9382 133.611 77.8281 151.32 77.8281 151.32C77.8281 151.32 79.5041 154.629 84.739 157.609C89.974 160.588 98.3918 162.261 105.681 161.932C112.97 161.602 118.176 160.043 119.478 159.18C120.779 158.318 122.94 155.591 123.752 153.482C124.565 151.372 126.263 134 126.144 124.059C126.026 114.117 124.381 104.945 124.381 104.945L79.1923 93.9401Z" fill="#EF9325"/>
<path d="M125.364 142.343C103.899 144.736 78.9931 138.122 78.9931 138.122C78.9931 138.122 79.3588 131.413 80.9697 129.052C103.294 135.959 125.816 133.769 125.816 133.769C126.15 136.901 125.915 139.39 125.364 142.343Z" fill="#E5E5E5"/>
<path d="M122.662 155.565C101.197 157.958 77.8281 151.078 77.8281 151.078C77.8281 151.078 77.7532 144.635 78.6058 141.805C100.93 148.711 124.775 146.99 124.775 146.99C124.574 150.39 124.096 153.736 122.662 155.565Z" fill="#E5E5E5"/>
<path d="M173.737 93.9401C173.737 93.9401 173.591 105.337 173.664 110.25C173.737 115.163 170.807 112.061 170.559 119.787C170.311 127.513 173.45 126.048 175.104 129.83C176.758 133.611 177.882 151.32 177.882 151.32C177.882 151.32 176.185 154.629 170.884 157.609C165.584 160.588 157.06 162.261 149.68 161.932C142.299 161.602 137.027 160.043 135.709 159.18C134.391 158.318 132.204 155.591 131.381 153.482C130.558 151.372 128.839 134 128.959 124.059C129.079 114.117 130.744 104.945 130.744 104.945L173.737 93.9401Z" fill="#EF9325"/>
<path d="M129.749 142.343C151.484 144.736 176.703 138.122 176.703 138.122C176.703 138.122 176.332 131.413 174.701 129.052C152.096 135.959 129.291 133.769 129.291 133.769C128.953 136.901 129.191 139.39 129.749 142.343Z" fill="#E5E5E5"/>
<path d="M132.485 155.565C154.219 157.958 177.882 151.078 177.882 151.078C177.882 151.078 177.958 144.635 177.094 141.805C154.489 148.711 130.345 146.99 130.345 146.99C130.548 150.39 131.033 153.736 132.485 155.565Z" fill="#E5E5E5"/>
<path d="M182.407 114.844C181.732 116.117 180.395 116.731 179.421 116.216L178.641 115.803C177.668 115.288 177.425 113.839 178.101 112.566L193.311 83.8997C193.986 82.6272 195.323 82.0129 196.297 82.5283L197.077 82.9408C198.05 83.4559 198.293 84.9054 197.617 86.1779L182.407 114.844Z" fill="#D2E261"/>
<path d="M175.224 128.382C174.831 129.123 173.723 129.307 172.749 128.792L171.969 128.379C170.995 127.864 170.524 126.845 170.918 126.104L178.054 112.655C178.447 111.913 179.555 111.73 180.529 112.245L181.309 112.658C182.283 113.173 182.754 114.192 182.36 114.933L175.224 128.382Z" fill="black"/>
<path d="M181.569 112.168L180.789 111.755C179.815 111.24 178.819 111.212 178.564 111.693L178.108 112.552C178.363 112.071 179.359 112.099 180.333 112.615L181.113 113.027C182.087 113.542 182.67 114.35 182.415 114.83L182.871 113.971C183.126 113.49 182.543 112.683 181.569 112.168Z" fill="#9B9B9B"/>
<path d="M174.24 122.369C175.973 123.013 177.782 122.45 178.281 121.111C178.78 119.772 177.78 118.165 176.047 117.521C174.313 116.877 172.504 117.44 172.005 118.779C171.506 120.117 172.506 121.725 174.24 122.369Z" fill="#F6D2A2"/>
<path d="M72.1946 115.307C72.8106 116.609 74.1179 117.284 75.1143 116.814L75.9123 116.437C76.9087 115.967 77.2171 114.531 76.6011 113.228L62.7237 83.8956C62.1077 82.5932 60.8005 81.9185 59.8041 82.3886L59.0061 82.7651C58.0097 83.2352 57.7012 84.6718 58.3172 85.9742L72.1946 115.307Z" fill="#D2E261"/>
<path d="M78.7484 129.159C79.1073 129.918 80.2061 130.152 81.2027 129.682L82.0008 129.306C82.9972 128.836 83.5141 127.84 83.155 127.081L76.6441 113.319C76.2852 112.56 75.1865 112.326 74.1898 112.796L73.3918 113.173C72.3954 113.643 71.8784 114.639 72.2376 115.398L78.7484 129.159Z" fill="black"/>
<path d="M73.1549 112.672L73.9529 112.295C74.9493 111.825 75.9457 111.843 76.1784 112.335L76.5946 113.214C76.3619 112.723 75.3655 112.705 74.3691 113.175L73.5711 113.551C72.5747 114.021 71.9554 114.801 72.188 115.293L71.7719 114.413C71.5395 113.922 72.1585 113.142 73.1549 112.672Z" fill="#9B9B9B"/>
<path d="M78.9882 117.895C77.2551 118.539 76.2546 120.147 76.7536 121.485C77.2526 122.824 79.0621 123.387 80.7952 122.743C82.5284 122.099 83.5288 120.492 83.0298 119.153C82.5308 117.814 80.7213 117.251 78.9882 117.895Z" fill="#F6D2A2"/>
<path d="M86.321 78.8622C85.6594 80.0636 84.0985 80.475 82.8345 79.7809L81.3808 78.9829C80.1168 78.2888 79.6288 76.7524 80.2901 75.551L95.4193 48.0775C96.0809 46.8761 97.6418 46.4647 98.9058 47.1588L100.359 47.9568C101.623 48.6509 101.95 49.9493 101.45 51.3887C96.1504 66.6575 86.321 78.8622 86.321 78.8622Z" fill="#960000"/>
<path d="M90.323 63.1696C94.9238 54.8149 97.9467 47.6295 97.2265 46.8144L97.2435 46.7838C97.2238 46.773 97.2029 46.7659 97.1833 46.7552C97.1809 46.7537 97.1803 46.7489 97.1776 46.7474L97.1755 46.7516C90.1056 42.9265 80.5939 46.7147 75.895 55.2478C71.1961 63.7808 73.0878 73.8299 80.1097 77.7419L80.1076 77.7461C80.1103 77.7476 80.1144 77.7455 80.1171 77.7467C80.1368 77.7577 80.1538 77.7714 80.1735 77.7821L80.1905 77.7514C81.2651 77.9221 85.7223 71.5243 90.323 63.1696Z" fill="#595959"/>
<path d="M166.14 78.9197C166.767 80.1396 168.316 80.5959 169.599 79.9385L171.075 79.1825C172.358 78.5253 172.891 77.0035 172.264 75.7836L157.936 47.8856C157.309 46.6658 155.761 46.2095 154.477 46.8669L153.001 47.6229C151.718 48.28 151.354 49.569 151.812 51.0217C156.668 66.4367 166.14 78.9197 166.14 78.9197Z" fill="#960000"/>
<path d="M162.594 63.1184C158.236 54.6347 155.422 47.3649 156.166 46.5711L156.15 46.5398C156.17 46.5297 156.191 46.5231 156.211 46.513C156.214 46.5115 156.214 46.5068 156.217 46.5056L156.219 46.5097C163.396 42.8899 172.795 46.9506 177.245 55.6156C181.695 64.2807 179.514 74.271 172.382 77.979L172.384 77.9832C172.381 77.9844 172.377 77.9823 172.375 77.9835C172.355 77.9939 172.337 78.0073 172.317 78.0175L172.301 77.9862C171.222 78.1256 166.951 71.602 162.594 63.1184Z" fill="#595959"/>
<path d="M176.781 59.5408C176.781 59.5408 171.487 46.3012 165.347 39.3013C159.208 32.3017 99.1385 29.9145 89.2741 39.3013C79.4098 48.6881 75.6906 59.5408 75.6906 59.5408V56.6085C75.6906 56.6085 80.2535 43.7198 89.2741 36.369C98.2948 29.0182 157.574 29.4051 165.222 36.369C172.869 43.3328 176.781 56.6085 176.781 56.6085V59.5408Z" fill="#353535"/>
<path d="M174.394 51.5634C173.375 52.0851 173.584 54.5223 174.86 57.0072C176.136 59.4921 177.997 61.0837 179.015 60.562C180.034 60.0404 179.825 57.6031 178.549 55.1182C177.273 52.6333 175.413 51.0418 174.394 51.5634Z" fill="#960000"/>
<path d="M73.9894 60.1485C74.9927 60.6993 76.8984 59.162 78.2459 56.7148C79.5934 54.2676 79.8724 51.8373 78.8691 51.2865C77.8658 50.7357 75.9601 52.273 74.6127 54.7202C73.2652 57.1674 72.9861 59.5977 73.9894 60.1485Z" fill="#960000"/>
<path d="M154.147 56.7476H98.119C88.0596 56.7476 88.0942 83.4395 97.5388 84.978L117.069 83.724C119.43 83.724 124.145 74.5924 125.029 73.8745C125.914 73.1566 128.827 73.0691 129.974 73.8745C131.121 74.68 133.731 82.8038 136.092 82.8038L155.622 84.9777C164.744 80.786 162.444 56.7476 154.147 56.7476Z" opacity="0.6" fill="white"/>
<path d="M121.418 79.2897C121.172 73.5323 132.165 72.8126 133.463 77.6317C134.758 82.4398 121.96 83.5566 121.418 79.2897Z" fill="black"/>
<path d="M79.0442 225H80.3685C80.9072 225 81.3412 224.985 81.6704 224.955C82.0145 224.925 82.3512 224.858 82.6804 224.753C83.0246 224.649 83.279 224.485 83.4436 224.26C83.6082 224.021 83.6905 223.715 83.6905 223.341C83.6905 222.923 83.5483 222.557 83.264 222.243C82.9797 221.929 82.5906 221.773 82.0968 221.773H81.9622L80.4359 221.84H80.189C79.2462 221.84 78.5579 221.504 78.124 220.831C77.69 220.144 77.473 219.031 77.473 217.492V205.277H81.603C82.5906 205.277 83.0844 204.851 83.0845 203.999C83.0844 203.596 82.9572 203.267 82.7029 203.013C82.4634 202.759 82.0968 202.632 81.603 202.632H77.473V196.133C77.473 195.61 77.3234 195.214 77.0241 194.945C76.7248 194.661 76.3507 194.519 75.9018 194.519C75.423 194.519 74.9815 194.691 74.5775 195.034C74.1885 195.378 73.979 195.789 73.949 196.267L73.4103 202.632H70.6495C70.1557 202.632 69.7816 202.759 69.5272 203.013C69.2728 203.252 69.1457 203.566 69.1457 203.955C69.1457 204.358 69.2728 204.679 69.5272 204.918C69.7966 205.157 70.1782 205.277 70.672 205.277H73.4103V218.187C73.4103 220.503 73.9191 222.221 74.9367 223.341C75.9542 224.447 77.3234 225 79.0442 225Z" class="traefik" fill="#F4F2ED"/>
<path d="M90.4467 224.686C91.0003 224.686 91.4792 224.522 91.8832 224.193C92.3022 223.864 92.5117 223.401 92.5117 222.804V211.261C92.5117 209.513 93.0653 208.116 94.1726 207.07C95.2949 206.024 96.8661 205.501 98.8862 205.501C99.3651 205.501 99.7317 205.344 99.9861 205.03C100.24 204.702 100.368 204.313 100.368 203.865C100.368 203.387 100.225 202.969 99.9412 202.61C99.6718 202.251 99.2977 202.072 98.8189 202.072C97.2327 202.072 95.871 202.543 94.7338 203.484C93.6115 204.41 92.8633 205.568 92.4892 206.958L92.5117 204.268C92.5117 203.701 92.3096 203.26 91.9056 202.946C91.5166 202.617 91.0452 202.453 90.4915 202.453C89.9379 202.453 89.459 202.617 89.055 202.946C88.651 203.26 88.449 203.716 88.449 204.313V222.804C88.449 223.401 88.6435 223.864 89.0326 224.193C89.4216 224.522 89.893 224.686 90.4467 224.686Z" class="traefik" fill="#F4F2ED"/>
<path d="M145.353 224.686C145.906 224.686 146.385 224.514 146.789 224.171C147.193 223.812 147.395 223.319 147.395 222.692V205.277H151.188C152.146 205.277 152.625 204.844 152.625 203.977C152.625 203.589 152.505 203.267 152.266 203.013C152.041 202.759 151.682 202.632 151.188 202.632H147.395V200.884C147.395 199.674 147.44 198.718 147.53 198.015C147.635 197.298 147.822 196.753 148.091 196.379C148.375 195.991 148.697 195.744 149.056 195.64C149.415 195.52 149.916 195.46 150.56 195.46H152.468C152.917 195.46 153.261 195.311 153.5 195.012C153.755 194.713 153.882 194.355 153.882 193.936C153.882 193.518 153.755 193.159 153.5 192.86C153.261 192.547 152.924 192.39 152.49 192.39H149.752C147.747 192.39 146.176 192.958 145.038 194.093C143.901 195.214 143.332 197.111 143.332 199.786V202.632H140.392C139.898 202.632 139.532 202.759 139.292 203.013C139.053 203.267 138.933 203.589 138.933 203.977C138.933 204.351 139.053 204.664 139.292 204.918C139.532 205.157 139.898 205.277 140.392 205.277H143.332V222.692C143.332 223.319 143.527 223.812 143.916 224.171C144.32 224.514 144.799 224.686 145.353 224.686Z" class="traefik" fill="#F4F2ED"/>
<path d="M159.516 197.231C160.309 197.231 160.945 197.007 161.424 196.559C161.903 196.095 162.142 195.498 162.142 194.766C162.142 194.018 161.903 193.421 161.424 192.973C160.945 192.509 160.316 192.278 159.538 192.278C158.745 192.278 158.102 192.509 157.608 192.973C157.129 193.436 156.89 194.033 156.89 194.766C156.89 195.498 157.129 196.095 157.608 196.559C158.087 197.007 158.723 197.231 159.516 197.231ZM159.493 224.686C160.047 224.686 160.526 224.507 160.93 224.148C161.349 223.775 161.558 223.274 161.558 222.647V204.425C161.558 203.798 161.356 203.305 160.952 202.946C160.563 202.588 160.099 202.408 159.561 202.408C159.007 202.408 158.521 202.588 158.102 202.946C157.698 203.305 157.496 203.798 157.496 204.425V222.647C157.496 223.304 157.69 223.812 158.079 224.171C158.468 224.514 158.94 224.686 159.493 224.686Z" class="traefik" fill="#F4F2ED"/>
<path d="M170.29 224.686C170.843 224.686 171.322 224.507 171.726 224.148C172.145 223.79 172.355 223.289 172.355 222.647V212.875L182.904 224.081C183.278 224.499 183.727 224.709 184.251 224.709C184.745 224.709 185.179 224.522 185.553 224.148C185.942 223.775 186.136 223.349 186.136 222.871C186.136 222.438 185.972 222.049 185.643 221.705L176.732 212.337L184.879 205.053C185.239 204.709 185.418 204.328 185.418 203.91C185.418 203.447 185.231 203.028 184.857 202.655C184.498 202.281 184.079 202.094 183.6 202.094C183.226 202.094 182.874 202.236 182.545 202.52L172.355 211.844V194.698C172.355 194.071 172.153 193.578 171.749 193.219C171.36 192.86 170.896 192.681 170.357 192.681C169.803 192.681 169.317 192.86 168.898 193.219C168.494 193.578 168.292 194.071 168.292 194.698V222.647C168.292 223.304 168.487 223.812 168.876 224.171C169.265 224.514 169.736 224.686 170.29 224.686Z" class="traefik" fill="#F4F2ED"/>
<path d="M109.311 224.679C106.724 224.456 104.748 223.677 103.311 222.314C101.849 220.927 101.221 219.118 101.469 217.005C101.754 214.572 102.911 212.854 104.941 211.852C106.505 211.08 108.066 210.786 110.607 210.785C112.413 210.785 113.926 210.932 116.234 211.333C116.804 211.432 117.298 211.513 117.332 211.514C117.38 211.514 117.418 211.332 117.523 210.607C117.712 209.295 117.746 208.843 117.695 208.317C117.635 207.706 117.556 207.414 117.324 206.94C116.725 205.717 115.304 204.969 113.022 204.675C112.369 204.591 110.862 204.579 110.208 204.653C109.113 204.777 108.501 204.934 107.138 205.445C106.34 205.743 106.337 205.744 106.018 205.725C105.471 205.693 105.098 205.446 104.859 204.957C104.76 204.756 104.743 204.673 104.743 204.402C104.743 203.994 104.849 203.778 105.219 203.433C106.048 202.658 107.443 201.999 108.852 201.715C109.753 201.534 110.197 201.496 111.385 201.498C112.615 201.501 113.401 201.569 114.494 201.772C116.311 202.109 117.691 202.704 118.731 203.598C119.04 203.863 119.505 204.386 119.705 204.69C119.766 204.783 119.829 204.86 119.844 204.86C119.86 204.86 119.961 204.748 120.069 204.611C121.644 202.606 124.298 201.472 127.407 201.473C129.605 201.473 131.649 202.03 133.173 203.04C134.381 203.842 135.363 205.077 135.76 206.294C135.987 206.993 136.022 207.251 136.024 208.266C136.025 208.898 136.008 209.324 135.973 209.521C135.616 211.517 134.767 212.899 133.293 213.883C132.107 214.675 130.617 215.138 128.669 215.321C127.689 215.413 125.895 215.405 124.733 215.302C123.747 215.215 122.536 215.062 122.02 214.959C121.587 214.873 120.107 214.626 120.095 214.638C120.089 214.643 120.019 215.086 119.938 215.621C119.809 216.475 119.791 216.688 119.788 217.371C119.785 218.064 119.795 218.186 119.879 218.506C120.149 219.536 120.743 220.224 121.82 220.757C122.88 221.281 123.992 221.507 125.671 221.542C126.414 221.558 126.795 221.547 127.26 221.498C128.388 221.378 128.902 221.247 130.4 220.697C130.773 220.56 131.153 220.436 131.246 220.42C131.443 220.388 131.812 220.456 132.027 220.565C132.415 220.761 132.741 221.286 132.739 221.711C132.737 222.207 132.569 222.507 132.078 222.898C130.902 223.832 129.401 224.405 127.609 224.603C126.97 224.674 125.511 224.684 124.806 224.623C122.821 224.451 121.443 224.112 120.184 223.486C119.202 222.998 118.452 222.392 117.892 221.634C117.755 221.448 117.638 221.291 117.632 221.285C117.627 221.279 117.536 221.387 117.429 221.524C116.958 222.131 116.238 222.782 115.535 223.239C114.519 223.899 113.061 224.402 111.585 224.602C111.145 224.662 109.685 224.711 109.311 224.679ZM111.844 221.84C113.049 221.573 114.123 220.972 114.902 220.128C115.613 219.358 116.196 218.205 116.517 216.934C116.698 216.218 116.999 214.224 116.932 214.183C116.906 214.167 116.747 214.141 116.579 214.126C116.411 214.111 115.933 214.055 115.516 214.001C113.039 213.681 111.519 213.557 110.667 213.604C109.048 213.695 108.387 213.836 107.415 214.3C106.917 214.537 106.573 214.795 106.301 215.135C105.911 215.622 105.675 216.107 105.511 216.76C105.392 217.235 105.379 218.479 105.49 218.88C105.677 219.555 105.899 219.937 106.398 220.443C107.08 221.136 107.981 221.599 109.097 221.83C109.668 221.948 109.651 221.947 110.607 221.932C111.301 221.922 111.561 221.902 111.844 221.84ZM127.626 212.491C128.634 212.402 129.253 212.246 130.015 211.889C130.648 211.592 131.016 211.289 131.364 210.776C131.876 210.021 132.076 209.307 132.071 208.246C132.067 207.49 132.003 207.176 131.742 206.633C131.157 205.42 129.785 204.551 127.985 204.254C127.536 204.18 126.331 204.194 125.87 204.277C124.985 204.439 124.236 204.733 123.576 205.179C122.356 206.003 121.514 207.244 121.046 208.911C120.861 209.566 120.812 209.818 120.648 210.946L120.497 211.988L120.7 212.01C121.312 212.078 122.694 212.245 123.496 212.348C124.001 212.413 124.621 212.482 124.873 212.502C125.603 212.559 126.911 212.554 127.626 212.491Z" fill="#37ABC8"/>
</svg>