<svg width="256" height="256" title="tRPC" viewBox="0 0 256 256" fill="none" xmlns="http://www.w3.org/2000/svg">
<rect width="256" height="256" rx="40" fill="#398CCB"/>
<path fill-rule="evenodd" clip-rule="evenodd" d="M127.336 42L161.128 61.4961V72.2159L202.029 95.8358V136.24L213 142.574V181.588L179.23 201.083L164.238 192.413L127.786 213.459L91.552 192.535L76.7697 201.083L43 181.554V142.574L53.5434 136.487V95.8358L93.5664 72.7303L93.5887 72.7294V61.4961L127.336 42ZM161.128 82.3533V100.488L127.358 119.984L93.5887 100.488V82.8559L93.5664 82.8568L62.3202 100.905V131.419L76.7697 123.078L110.539 142.574V181.554L100.323 187.463L127.786 203.322L155.468 187.342L145.461 181.554V142.574L179.23 123.078L193.251 131.173V100.905L161.128 82.3533ZM154.238 176.53V152.733L174.842 164.626V188.423L154.238 176.53ZM204.223 152.7L183.619 164.593V188.423L204.223 176.497V152.7ZM51.7768 176.497V152.7L72.3811 164.593V188.39L51.7768 176.497ZM101.762 152.7L81.1579 164.593V188.39L101.762 176.497V152.7ZM158.626 145.13L179.23 133.237L199.834 145.13L179.23 157.034L158.626 145.13ZM76.7697 133.204L56.1654 145.13L76.7697 157.001L97.3735 145.13L76.7697 133.204ZM102.365 95.4194V71.6226L122.947 83.5262V107.312L102.365 95.4194ZM152.329 71.6226L131.747 83.5262V107.301L152.329 95.4194V71.6226ZM106.754 64.0301L127.336 52.1374L147.94 64.0301L127.336 75.9233L106.754 64.0301Z" fill="white"/>
</svg>