<svg width="256" height="256" title="TrueNAS Enterprise" viewBox="0 0 256 256" fill="none" xmlns="http://www.w3.org/2000/svg" id="truenasenterprise">
<style>
#truenasenterprise {
    rect {fill: #15191C}

    @media (prefers-color-scheme: light) {
        rect {fill: #F4F2ED}
    }
}
</style>
<rect width="256" height="256" rx="40" fill="#15191C"/>
<path d="M134.591 178.174V210.105L203 170.615V138.684L172.087 156.519C172.053 156.546 172.016 156.568 171.976 156.586L134.591 178.174Z" fill="#31BEEC"/>
<path d="M121.409 178.174V210.105L53 170.615V138.684L83.9125 156.519C83.9468 156.546 83.9843 156.568 84.0244 156.586L121.409 178.174Z" fill="#0095D5"/>
<path d="M134.591 132.727V164.657L203 125.167V93.2369L172.087 111.071C172.053 111.098 172.016 111.121 171.976 111.138L134.591 132.727Z" fill="#31BEEC"/>
<path d="M121.409 132.727V164.657L53 125.167V93.2369L83.9125 111.071C83.9468 111.098 83.9843 111.121 84.0244 111.138L121.409 132.727Z" fill="#0095D5"/>
<path d="M155.21 105.278L127.557 121.256L99.879 105.278L127.557 89.3005L155.21 105.278Z" fill="#AEADAE"/>
<path d="M121.339 46V77.9609L87.1192 97.6933L59.4414 81.7408L121.339 46Z" fill="#31BEEC"/>
<path d="M196.259 81.9029L168.582 97.8806L134.412 78.1315V46.1789L196.259 81.9029Z" fill="#0095D5"/>
</svg>