<svg width="256" height="256" title="TrueNAS Scale" viewBox="0 0 256 256" fill="none" xmlns="http://www.w3.org/2000/svg" id="truenasscale">
<style>
#truenasscale {
    rect {fill: #15191C}

    @media (prefers-color-scheme: light) {
        rect {fill: #F4F2ED}
    }
}
</style>
<rect width="256" height="256" rx="40" fill="#15191C"/>
<path d="M131.999 174.535V193.907L173.501 169.949V150.578L154.747 161.397C154.726 161.414 154.703 161.427 154.679 161.438L131.999 174.535Z" fill="#31BEEC"/>
<path d="M124.001 174.535V193.907L82.4993 169.949V150.578L101.253 161.397C101.274 161.414 101.297 161.427 101.321 161.438L124.001 174.535Z" fill="#0095D5"/>
<path d="M144.507 157.883L127.731 167.576L110.94 157.883L127.731 148.19L144.507 157.883Z" fill="#AEADAE"/>
<path d="M123.959 121.92V141.31L103.199 153.281L86.4071 143.603L123.959 121.92Z" fill="#31BEEC"/>
<path d="M169.411 143.702L152.62 153.395L131.89 141.414V122.029L169.411 143.702Z" fill="#0095D5"/>
<path d="M74.5021 144.575V163.946L33 139.989V120.618L51.7539 131.437C51.7747 131.454 51.7975 131.467 51.8217 131.478L74.5021 144.575Z" fill="#0095D5"/>
<path d="M95.0081 127.923L78.2319 137.616L61.4404 127.923L78.2319 118.229L95.0081 127.923Z" fill="#AEADAE"/>
<path d="M74.4597 91.9601V111.35L53.6993 123.321L36.9078 113.643L74.4597 91.9601Z" fill="#31BEEC"/>
<path d="M119.912 113.742L103.121 123.435L82.3907 111.453V92.0686L119.912 113.742Z" fill="#0095D5"/>
<path d="M181.498 144.575V163.946L223 139.989V120.618L204.246 131.437C204.225 131.454 204.203 131.467 204.178 131.478L181.498 144.575Z" fill="#31BEEC"/>
<path d="M194.007 127.923L177.23 137.616L160.439 127.923L177.23 118.229L194.007 127.923Z" fill="#AEADAE"/>
<path d="M173.458 91.9601V111.35L152.698 123.321L135.906 113.643L173.458 91.9601Z" fill="#31BEEC"/>
<path d="M218.911 113.742L202.119 123.435L181.389 111.453V92.0686L218.911 113.742Z" fill="#0095D5"/>
<path d="M144.507 97.9626L127.731 107.656L110.94 97.9626L127.731 88.2694L144.507 97.9626Z" fill="#AEADAE"/>
<path d="M123.959 62V81.3899L103.199 93.3611L86.4071 83.6831L123.959 62Z" fill="#31BEEC"/>
<path d="M169.411 83.7815L152.62 93.4747L131.89 81.4934V62.1086L169.411 83.7815Z" fill="#0095D5"/>
</svg>