<svg width="256" height="256" title="Turborepo" viewBox="0 0 256 256" fill="none" xmlns="http://www.w3.org/2000/svg" id="turborepo">
<style>
#turborepo {
    rect {fill: #15191C}
    path.turborepo {fill: white}

    @media (prefers-color-scheme: light) {
        rect {fill: #F4F2ED}
        path.turborepo {fill: #212121}
    }
}
</style>
<rect width="256" height="256" rx="40" fill="#15191C"/>
<path d="M128.434 74.8463C98.8722 74.8463 74.8215 98.9159 74.8215 128.501C74.8215 158.086 98.8722 182.155 128.434 182.155C157.995 182.155 182.046 158.086 182.046 128.501C182.046 98.9159 157.995 74.8463 128.434 74.8463ZM128.434 156.267C113.109 156.267 100.689 143.838 100.689 128.501C100.689 113.164 113.109 100.734 128.434 100.734C143.759 100.734 156.178 113.164 156.178 128.501C156.178 143.838 143.759 156.267 128.434 156.267Z" class="turborepo" fill="white"/>
<path fill-rule="evenodd" clip-rule="evenodd" d="M132.928 66.033V46C176.437 48.328 211 84.3774 211 128.5C211 172.623 176.437 208.662 132.928 211V190.967C165.355 188.649 191.033 161.532 191.033 128.5C191.033 95.468 165.355 68.351 132.928 66.033ZM81.1525 169.465C72.5565 159.534 67.0156 146.884 66.0272 132.996H46C47.0383 152.43 54.8056 170.065 66.9757 183.643L81.1425 169.465H81.1525ZM123.943 211V190.967C110.056 189.978 97.4162 184.443 87.4925 175.83L73.3257 190.008C86.9034 202.197 104.525 209.961 123.933 211H123.943Z" fill="url(#linearGradient)"/>
<linearGradient id="linearGradient" x1="136.163" y1="57.6013" x2="54.9522" y2="138.748" gradientUnits="userSpaceOnUse">
<stop stop-color="#0096FF"/>
<stop offset="1" stop-color="#FF1E56"/>
</linearGradient>
</svg>