<svg width="256" height="256" title="Turso" viewBox="0 0 256 256" fill="none" xmlns="http://www.w3.org/2000/svg">
<rect width="256" height="256" rx="40" fill="#35C0A1"/>
<path d="M201 56.1474L197.391 53.4551L190.276 61.0769L184.564 52.8333L181.282 54.3397L185.795 65.8654L183.705 68.109L167.487 51L163.808 52.8205L178.231 83.8205L164.718 88.5705H164.397L157.071 79.859L149.737 88.5769H107.263L99.9295 79.859L92.5833 88.5962H92.3462L78.7564 83.8205L93.1859 52.8205L89.5192 51L73.3013 68.1026L71.2051 65.8654L75.7244 54.3397L72.4423 52.8269L66.7372 61.0769L59.609 53.4487L56 56.1538L67.0897 74.6538L61.3846 80.6731L63.3782 95.8974L76.5897 100.942L76.5769 107.519H64.0577V110.365L68.8974 117.276L76.5705 120.051V164.737L96.1667 193.904L100.66 204.846L107.718 194.551L115.038 204.846L121.442 194.551L128.5 204.846L135.564 194.551L141.962 204.846L149.276 194.551L156.34 204.846L160.833 193.91L180.436 164.744V120.051L188.103 117.276L192.949 110.365V107.519H180.436L180.455 100.917L193.622 95.891L195.615 80.6667L189.91 74.6474L201 56.1474ZM143.756 176.135H103.071L108.154 165.782L113.244 176.135L118.327 169.192L123.41 176.135L128.5 169.192L133.583 176.135L138.673 169.192L143.756 176.135L148.84 165.782L153.929 176.135H143.756ZM168.667 128.763L147.513 135.712L146.596 155.333L128.474 159.353L110.359 155.333L109.449 135.718L88.2949 128.763V118.282L115.641 126.038L115.308 152.487H141.647L141.314 126.032L168.66 118.282L168.667 128.763Z" fill="white"/>
</svg>