<svg width="256" height="256" title="Twilio" viewBox="0 0 256 256" fill="none" xmlns="http://www.w3.org/2000/svg">
<rect width="256" height="256" rx="40" fill="#F22F46"/>
<path d="M128 48.0001C83.8733 47.9467 48.0533 83.6801 48 127.807V128C48 172.267 83.7267 208 128 208C172.267 208 208 172.267 208 128C208 83.7267 172.267 48.0001 128 48.0001ZM128 186.673C95.6933 186.773 69.4267 160.647 69.3267 128.34V128C69.2333 95.6934 95.3533 69.4267 127.66 69.3267H128C160.313 69.2334 186.573 95.3534 186.673 127.66V128C186.773 160.313 160.647 186.573 128.34 186.673H128ZM164.267 108.273C164.267 117.333 156.8 124.8 147.727 124.8C138.62 124.753 131.247 117.38 131.2 108.273C131.2 99.2001 138.667 91.7334 147.727 91.7334C156.8 91.7334 164.267 99.2001 164.267 108.273ZM164.267 147.733C164.267 156.8 156.8 164.267 147.727 164.267C138.613 164.213 131.24 156.84 131.2 147.733C131.2 138.673 138.667 131.207 147.727 131.207C156.8 131.2 164.267 138.673 164.267 147.733ZM124.807 147.733C124.807 156.8 117.34 164.267 108.28 164.267C99.16 164.22 91.78 156.847 91.74 147.733C91.74 138.673 99.2067 131.207 108.28 131.207C117.333 131.2 124.807 138.673 124.807 147.733ZM124.807 108.273C124.807 117.333 117.34 124.8 108.28 124.8C99.1667 124.753 91.78 117.387 91.74 108.273C91.74 99.2001 99.2067 91.7334 108.28 91.7334C117.333 91.7334 124.807 99.2001 124.807 108.273Z" fill="white"/>
</svg>