<svg width="256" height="256" title="typescript-eslint" viewBox="0 0 256 256" fill="none" xmlns="http://www.w3.org/2000/svg" id="typescripteslint">
<style>
#typescripteslint {
    rect {fill: #15191C}

    @media (prefers-color-scheme: light) {
        rect {fill: #F4F2ED}
    }
}
</style>
<rect width="256" height="256" rx="40" fill="#15191C"/>
<path d="M127.721 64.0832L187.468 99.3733L188.812 160.078C188.812 160.078 130.039 207.156 130.131 193.169C63.8309 172.239 69.5197 134.984 69.5197 169.704L69.9692 100.411L111.123 64.0832H127.721Z" fill="white"/>
<path d="M207.01 125.217L170.702 59.1508C169.383 56.762 166.947 55 164.31 55H91.6913C89.0535 55 86.6165 56.762 85.2976 59.1508L48.9892 125.071C47.6703 127.461 47.6703 130.476 48.9892 132.865L85.2976 198.39C86.6165 200.779 89.0535 202 91.6913 202H164.309C166.946 202 169.383 200.815 170.701 198.426L207.01 132.795C208.33 130.406 208.33 127.606 207.01 125.217ZM176.945 156.986C176.945 157.957 176.386 158.856 175.581 159.342L129.332 187.25C128.527 187.736 127.52 187.736 126.715 187.25L80.4305 159.342C79.6262 158.856 79.0633 157.958 79.0633 156.986V101.169C79.0633 100.197 79.618 99.2988 80.423 98.8126L126.67 70.9042C127.475 70.4179 128.481 70.4179 129.285 70.9042L175.573 98.8126C176.378 99.2988 176.945 100.197 176.945 101.169V156.986Z" fill="#374FBE"/>
<path d="M98.7973 115.133V118.658H109.551V150.671H117.182V118.658H127.936V115.197C127.936 113.251 127.936 111.672 127.853 111.629C127.853 111.564 121.298 111.542 113.336 111.542L98.8591 111.607V115.154L98.7973 115.133ZM147.127 111.521C149.237 112.04 150.85 113.035 152.298 114.613C153.063 115.479 154.2 116.993 154.283 117.382C154.283 117.512 150.705 120.043 148.534 121.449C148.451 121.513 148.12 121.146 147.789 120.583C146.714 118.983 145.618 118.291 143.901 118.161C141.42 117.988 139.765 119.35 139.765 121.622C139.765 122.314 139.889 122.703 140.138 123.265C140.696 124.455 141.73 125.169 144.935 126.64C150.85 129.3 153.414 131.052 154.965 133.561C156.723 136.373 157.116 140.786 155.937 144.095C154.614 147.707 151.388 150.151 146.776 150.952C145.328 151.211 142.019 151.168 140.469 150.887C137.159 150.238 133.996 148.507 132.052 146.28C131.286 145.415 129.818 143.1 129.901 142.949L130.687 142.43L133.789 140.548L136.125 139.12L136.663 139.877C137.346 141.002 138.876 142.516 139.765 143.035C142.454 144.484 146.052 144.29 147.83 142.603C148.596 141.867 148.927 141.088 148.927 140.007C148.927 139.012 148.782 138.558 148.306 137.801C147.645 136.849 146.321 136.07 142.598 134.34C138.318 132.436 136.498 131.225 134.802 129.365C133.83 128.241 132.941 126.489 132.527 125.039C132.217 123.784 132.113 120.713 132.403 119.48C133.292 115.154 136.415 112.126 140.882 111.261C142.33 110.958 145.742 111.088 147.169 111.477L147.127 111.521Z" fill="#374FBE"/>
</svg>