<svg width="256" height="256" title="TypeORM" viewBox="0 0 256 256" fill="none" xmlns="http://www.w3.org/2000/svg" id="typeorm">
<style>
#typeorm {
    rect {fill: #15191C}

    @media (prefers-color-scheme: light) {
        rect {fill: #F4F2ED}
    }
}
</style>
<rect width="256" height="256" rx="40" fill="#15191C"/>
<path d="M134.644 75.1437C135.567 75.1451 136.452 75.5062 137.113 76.1505C137.774 76.7948 138.157 77.6713 138.181 78.5937V119.212C138.182 120.136 137.821 121.024 137.177 121.686C136.532 122.348 135.655 122.732 134.731 122.756H101.594C100.671 122.755 99.7851 122.394 99.1245 121.749C98.4639 121.105 98.0807 120.229 98.0562 119.306V78.6875C98.0559 77.7637 98.4164 76.8762 99.0608 76.2143C99.7053 75.5523 100.583 75.1682 101.506 75.1437H134.644ZM134.644 76.7187H101.594C101.085 76.72 100.597 76.9178 100.231 77.2708C99.8657 77.6238 99.6506 78.1045 99.6313 78.6125V119.212C99.6313 120.275 100.475 121.144 101.525 121.181H134.644C135.706 121.181 136.575 120.338 136.612 119.288V78.6875C136.612 78.1654 136.405 77.6646 136.036 77.2954C135.667 76.9262 135.166 76.7187 134.644 76.7187ZM106.319 112.919V115.275H103.956V112.919H106.319ZM132.681 112.919V115.275H107.494V112.919H132.681ZM106.313 102.688V105.05H103.95V102.688H106.313ZM132.675 102.688V105.05H107.488V102.688H132.675ZM106.313 92.85V95.2125H103.95V92.85H106.313ZM132.675 92.85V95.2125H107.488V92.85H132.675ZM132.675 83.8V86.1625H103.956V83.8H132.681H132.675ZM134.644 131.012V131.038C135.562 131.039 136.445 131.396 137.104 132.035C137.764 132.674 138.15 133.544 138.181 134.462V175.081C138.18 176.004 137.819 176.89 137.174 177.55C136.53 178.211 135.654 178.594 134.731 178.619H101.594C100.674 178.618 99.791 178.259 99.1309 177.619C98.4708 176.978 98.0854 176.107 98.0562 175.188V134.563C98.0559 133.639 98.4164 132.751 99.0608 132.089C99.7053 131.427 100.583 131.043 101.506 131.019H134.644V131.012ZM134.644 132.587H101.594C101.085 132.589 100.597 132.787 100.231 133.14C99.8657 133.493 99.6506 133.973 99.6313 134.481V175.081C99.6313 176.144 100.475 177.012 101.525 177.05H134.644C135.706 177.05 136.562 176.212 136.612 175.162V134.569C136.612 133.506 135.769 132.638 134.713 132.6H134.644V132.587ZM106.319 168.794V171.156H103.956V168.794H106.319ZM132.681 168.813V171.138H107.494V168.813H132.681ZM106.313 158.562V160.925H103.95V158.569H106.313V158.562ZM132.675 158.581V160.906H107.488V158.581H132.675ZM106.313 148.731V151.094H103.95V148.731H106.313ZM132.675 148.75V151.075H107.488V148.75H132.675ZM132.675 139.688V142.044H103.956V139.681H132.681L132.675 139.688ZM144.175 98.95V100.912H155.975V154.369H144.175V156.337H157.944V98.95H144.175Z" fill="#8E8F8F"/>
<path d="M60.0812 64.25C62.4125 60.4313 66.2438 58.2062 70.1125 56.9125L70.6437 56.7375L71.1687 56.5812L71.9625 56.3625L72.4812 56.2313L72.7438 56.1688L73.2625 56.0437L73.5188 55.9938L74.0313 55.8875L74.5313 55.7937L75.0312 55.7062L75.5312 55.625L76.0125 55.5562L76.4875 55.4938L76.95 55.4312L77.4062 55.3813L77.8438 55.3375L78.4875 55.2812L79.0938 55.2375L79.6687 55.2063L80.2937 55.1812L80.8688 55.1625H81.2188L81.5437 55.1562H82.225L82.4438 55.1625L82.8375 55.1812L83.0125 55.1875V64.6312C74.6563 63.8375 70.9313 66.3625 69.2875 69.05L69.1375 69.3C68.925 69.6812 68.75 70.0625 68.6125 70.4375L68.5188 70.6875C68.5059 70.7291 68.4934 70.7707 68.4813 70.8125L68.4063 71.05L68.3375 71.2875L68.275 71.525L68.25 71.6437L68.2 71.8687L68.1813 71.9813L68.1437 72.2L68.1125 72.4125L68.0875 72.6188L68.0563 72.9125L68.0375 73.1875L68.025 73.4V73.9437L68.0312 74.0875L68.0437 74.2625L68.0625 74.4687V77.9437L68.0437 85.025L68.0187 90.1312L67.9875 94.425L67.9563 98.0562L67.925 100.912L67.8875 103.7L67.85 106.075L67.8063 108.581L67.775 109.894L67.7438 111.131L67.7 112.506L67.6875 112.944V114.225L67.675 114.556L67.6625 115.056L67.6438 115.538L67.6312 115.831L67.6063 116.125L67.5875 116.419L67.5438 116.869L67.5062 117.162L67.4687 117.463L67.425 117.756L67.35 118.206L67.3187 118.356L67.2562 118.65L67.1937 118.95L67.0313 119.538L66.9375 119.831L66.8375 120.119L66.7312 120.413C65.5187 123.538 62.7813 126.319 56.575 127.613C62.6125 128.863 65.3687 131.531 66.6312 134.55L66.7437 134.837C66.8562 135.125 66.9562 135.419 67.0375 135.712L67.125 136.006L67.2687 136.6L67.3313 136.9L67.4562 137.65L67.4938 137.944L67.5312 138.244L67.5625 138.544L67.5875 138.837L67.6125 139.137L67.6375 139.575L67.6563 139.875L67.6687 140.369L67.6812 141.012V141.494L67.6875 142.288L67.7312 143.669L67.7687 145.131L67.8 146.694L67.8375 148.356L67.8688 150.387L67.9125 153.75L67.9625 158.2L67.9937 162.288L68.0312 168.356L68.0563 174.931L68.0688 174.925V180.75L68.0563 180.831L68.0437 180.956V181.069L68.0312 181.275V181.812L68.0375 182.025L68.0563 182.3L68.075 182.487L68.1125 182.788L68.1437 183L68.1813 183.212L68.225 183.438L68.25 183.55L68.3 183.781L68.3312 183.894L68.3938 184.131L68.4688 184.369L68.5125 184.494L68.6 184.738L68.6938 184.987L68.8 185.231C70.1125 188.169 73.575 191.356 82.525 190.625L83.0187 190.581V200.025L82.7688 200.037L82.3 200.05L81.9188 200.056H81.125L80.75 200.05L80.3563 200.037L79.8438 200.013L79.4812 200L79.1063 199.975L78.7125 199.95L78.3125 199.919L77.8938 199.881L77.4688 199.838L77.0313 199.788L76.5812 199.738L75.8875 199.644L75.4125 199.569C75.3333 199.556 75.2541 199.544 75.175 199.531L74.6937 199.45L74.45 199.406L73.9562 199.312L73.7063 199.263L73.2063 199.156L72.7062 199.038L72.2062 198.912L71.6937 198.781C67.0062 197.5 62.0938 194.981 59.5625 190.031C60.1125 183.963 62.6062 178.781 67.1 175.556C67.3062 175.406 67.525 175.263 67.7375 175.119L67.9875 174.969C67.675 175.156 67.3813 175.356 67.0875 175.562C62.6063 178.781 60.1125 183.963 59.5625 190.013C58.4364 187.739 57.8463 185.237 57.8375 182.7L57.775 180.094L57.7125 176.938L57.4875 168.531L57.375 164.45L57.2188 159.1L57.0438 153.369L56.675 142.262C56.4938 137.531 54.6 135.225 52.6187 134.113L52.3875 133.987C52.3481 133.966 52.3085 133.945 52.2687 133.925L52.0375 133.819L51.8063 133.719L51.575 133.631C51.5 133.6 51.425 133.569 51.35 133.55L51.1187 133.475L50.9 133.412L50.7187 133.362L50.55 133.325L50.375 133.288L50.2062 133.25L49.9625 133.212L49.8063 133.187L49.6563 133.169L49.4312 133.144H49.2375L48.8375 133.137H48V122.075C48.5187 122.087 48.9812 122.075 49.4375 122.056L49.6563 122.031L49.8063 122.013L49.9625 121.988L50.2125 121.944L50.375 121.912L50.55 121.875L50.7187 121.831L50.9 121.788L51.1187 121.725L51.35 121.65L51.575 121.569C53.875 120.706 56.4688 118.5 56.675 112.931L56.9438 104.931L57.15 98.3875L57.2625 94.675L57.55 84.5813L57.6312 81.425L57.7938 74.575L57.8375 72.4937C57.9 69.2125 58.7125 66.5563 60 64.3875L60.0812 64.25ZM172.981 64.4813V55.0313L173.238 55.0187L173.594 55.0062H173.819L174.225 55H174.869L175.388 55.0125L176.05 55.0375L176.406 55.0563L176.781 55.075L177.362 55.1187L177.762 55.15L178.181 55.1875L178.606 55.2313L179.044 55.275L179.494 55.3375L180.419 55.4625L180.894 55.5375L181.131 55.5813L181.619 55.6625L182.106 55.7625L182.606 55.8625L183.106 55.975L183.606 56.1L184.362 56.2937L184.875 56.4375C189.625 57.8375 194.519 60.5625 196.813 65.8312C197.688 67.8937 198.15 70.1063 198.162 72.3438L198.225 74.95L198.288 78.1063L198.35 80.2187L198.425 83.3812L198.538 87.5437L198.781 95.9438L198.956 101.675L199.325 112.781C199.506 117.594 201.469 119.894 203.481 120.981L203.712 121.106L203.825 121.163L204.056 121.269L204.287 121.363L204.406 121.406L204.631 121.487L204.744 121.525L204.969 121.594L205.081 121.625L205.413 121.712L205.625 121.762L206.038 121.838L206.194 121.856L206.344 121.881L206.569 121.906C206.956 121.925 207.356 121.931 207.781 121.925L208 121.919V132.994C207.521 132.976 207.041 132.98 206.562 133.006L206.419 133.025L206.269 133.044L206.038 133.075L205.788 133.119L205.625 133.15L205.45 133.187L205.281 133.231L205.1 133.275L204.994 133.306L204.769 133.375L204.65 133.412L204.425 133.494L204.306 133.538L204.075 133.637C201.875 134.587 199.525 136.844 199.325 142.131L199.056 150.131L198.85 156.675L198.737 160.387L198.45 170.481L198.369 173.638L198.206 180.481L198.162 182.563C198.147 184.51 197.802 186.442 197.144 188.275L197.062 188.488V188.506C194.713 194.594 189.012 197.45 183.75 198.781L182.981 198.969L182.469 199.081L182.219 199.131L181.713 199.231L181.462 199.281L180.969 199.362L180.725 199.406L180.244 199.481L179.769 199.544L179.306 199.606L178.85 199.663L178.406 199.706L177.969 199.75L176.95 199.831L176.375 199.862L175.837 199.888L175.181 199.906H174.806L174.469 199.913H173.625L173.331 199.9L173.081 199.888H172.987V190.437C181.737 191.269 185.412 188.463 186.931 185.638L187.062 185.387L187.187 185.138L187.294 184.888L187.481 184.388L187.563 184.137L187.594 184.019L187.663 183.781L187.725 183.544L187.775 183.313L187.819 183.088L187.856 182.869L187.888 182.656L187.913 182.45L187.944 182.156L187.956 181.969L187.975 181.669V181.125L187.969 180.981L187.963 180.856L187.944 180.681L187.937 180.6V175.419L187.95 170.594L188 161.425L188.037 157.144L188.081 153.3L188.138 149.269L188.175 147.206L188.206 145.894L188.231 144.656L188.262 143.481L188.306 142.131V140.85L188.319 140.525V140.194L188.344 139.694L188.356 139.362L188.375 139.069L188.425 138.469L188.487 137.869L188.531 137.569L188.55 137.419L188.6 137.119L188.656 136.819L188.781 136.219C188.862 135.869 188.963 135.525 189.075 135.181L189.175 134.887C189.319 134.494 189.481 134.113 189.675 133.731L189.819 133.45C191.25 130.825 194.025 128.575 199.419 127.45C192.613 126.044 189.981 122.837 188.956 119.35L188.869 119.056L188.725 118.463L188.662 118.169L188.538 117.419L188.5 117.119L188.463 116.825L188.431 116.525L188.406 116.225L188.381 115.931L188.356 115.487L188.337 115.194L188.325 114.7L188.312 114.05V113.575L188.306 112.781L188.275 111.856L188.244 110.681L188.206 109.175L188.144 105.875L188.106 103.5L188.063 100.1L188.031 96.9187L188 93.2312L187.963 86.6812L187.937 79.5813C188.475 79.2875 189 78.9563 189.5 78.6063C192 76.8125 193.881 74.4 195.156 71.5562L195.244 71.3563C194.026 74.253 192.037 76.7604 189.494 78.6063C189.069 78.9063 188.637 79.1812 188.194 79.4375L187.925 79.5875V74.3125L187.937 74.2313L187.95 74.1062V74L187.963 73.7875V73.25L187.956 73.0375L187.944 72.8562L187.919 72.575L187.881 72.275L187.85 72.0625L187.812 71.85L187.769 71.625L187.694 71.2875L187.663 71.1625L187.6 70.9312L187.525 70.6938L187.481 70.5687L187.394 70.325L187.3 70.0812L187.194 69.8312C185.881 66.8937 182.419 63.7125 173.469 64.4437L172.975 64.4875L172.981 64.4813Z" fill="#FE0902"/>
<path d="M67.4813 77.5625L67.7687 77.75L68.0625 77.9375V74.4687L68.0563 74.3875L68.0437 74.2625L68.0375 74.15L68.025 73.9437V73.4L68.0375 73.1875L68.05 73.0062L68.0625 72.8188L68.0875 72.6188L68.1125 72.4125L68.1437 72.2L68.1813 71.9813L68.225 71.7562L68.25 71.6437L68.3063 71.4062L68.3688 71.1688L68.4063 71.05L68.4813 70.8063C68.4934 70.7645 68.5059 70.7228 68.5188 70.6813L68.6125 70.4375C68.75 70.0625 68.925 69.6875 69.1375 69.3062L69.2875 69.0562C70.9313 66.3625 74.6625 63.8375 83.0125 64.6312V55.1875L82.8375 55.1812L82.5375 55.1688L82.3375 55.1625L81.8375 55.1562H81.2188L80.6875 55.1688L80.2 55.1812L79.6687 55.2063L79.0938 55.2375L78.4875 55.2812L78.0625 55.3187L77.4062 55.3813L76.95 55.4312L76.4875 55.4938L76.0125 55.5562L75.525 55.625L75.0375 55.7062L74.5375 55.7937L74.0313 55.8875L73.5188 55.9938L73.2625 56.05L72.7438 56.1688L72.4812 56.2313L71.9625 56.3625L71.1687 56.5812L70.6437 56.7375L70.1125 56.9125C66.2375 58.2062 62.4125 60.4313 60.0812 64.25C60.8312 69.8188 63.2938 74.5687 67.4813 77.5625ZM83.0187 200.031V190.588C73.875 191.456 70.2687 188.356 68.8812 185.413L68.7625 185.162L68.6125 184.788L68.4813 184.412L68.4063 184.169L68.2813 183.694L68.2312 183.462L68.1813 183.237L68.1437 183.019L68.1125 182.806L68.0875 182.6L68.0563 182.306L68.0375 182.031L68.0312 181.819V181.131L68.0437 181.006L68.0563 180.831L68.0688 180.744V174.925C67.7375 175.125 67.4125 175.337 67.1 175.562C62.6062 178.787 60.1125 183.969 59.5625 190.044C62.0938 194.981 67.0063 197.506 71.6875 198.787L72.2 198.919L72.7062 199.044L73.2063 199.163L73.7063 199.269L74.2063 199.362L74.4563 199.412L74.9375 199.5L75.8875 199.65L76.5812 199.744L77.025 199.794L77.4625 199.844L77.9 199.888L78.3125 199.925L78.7125 199.956L79.1063 199.981L79.4812 200.006L80.0187 200.031L80.3563 200.044L80.7562 200.056H81.125L81.4625 200.063H82.3L82.6062 200.05L83.0187 200.031ZM196.813 65.8312C194.375 60.225 189 57.5 183.969 56.1875L183.469 56.0625L182.969 55.9437L182.719 55.8875L182.225 55.7875L181.981 55.7375L181.5 55.6437L181.019 55.5562L180.544 55.4812L180.081 55.4125L179.625 55.35L179.175 55.2875L178.737 55.2437L178.312 55.2L177.894 55.1625L177.288 55.1125L176.719 55.075L176.175 55.0438L175.662 55.025L175.35 55.0125L174.962 55.0062H174.606L174.281 55H173.731L173.419 55.0125L173.181 55.025L172.981 55.0313V64.4813C182.125 63.6063 185.731 66.7063 187.119 69.6563L187.237 69.9063L187.388 70.2813L187.519 70.6562L187.594 70.8938L187.656 71.1375L187.719 71.3688L187.769 71.6L187.819 71.825L187.856 72.0438L187.888 72.2563L187.913 72.4625L187.944 72.7562L187.963 73.0313L187.969 73.2438V73.9313L187.956 74.1062L187.931 74.3187V79.5875C188.469 79.2875 188.994 78.9625 189.494 78.6125C193.556 75.7062 195.988 71.1687 196.819 65.8312H196.813ZM189.888 176.619C189.263 176.175 188.612 175.775 187.937 175.419V180.6L187.944 180.681L187.956 180.806L187.963 180.919L187.975 181.125V181.663L187.956 181.975L187.944 182.163L187.913 182.45L187.888 182.656L187.856 182.869L187.819 183.088L187.775 183.313L187.725 183.544L187.663 183.781L187.6 184.019L187.563 184.144L187.481 184.388L187.294 184.888L187.181 185.138L187.062 185.387L186.938 185.638C185.413 188.463 181.731 191.269 172.987 190.437V199.881L173.531 199.906L174.025 199.913H174.844L175.219 199.906L175.631 199.894L176.138 199.875L176.681 199.844L177.056 199.819L177.65 199.775L178.063 199.738L178.487 199.7L178.919 199.65L179.362 199.6L179.812 199.537L180.275 199.475L180.744 199.4L180.981 199.362L181.462 199.281L181.95 199.187L182.194 199.137L182.688 199.031L182.937 198.981L183.437 198.856C188.781 197.569 194.663 194.713 197.062 188.506C196.119 183.55 193.719 179.356 189.894 176.619H189.888Z" fill="#FFAB00"/>
</svg>