<svg width="256" height="256" title="Typst" viewBox="0 0 256 256" fill="none" xmlns="http://www.w3.org/2000/svg" id="typst">
<style>
#typst {
    rect {fill: #15191C}

    @media (prefers-color-scheme: light) {
        rect {fill: #F4F2ED}
    }
}
</style>
<rect width="256" height="256" rx="40" fill="#15191C"/>
<path d="M53.6023 129.777C53.6023 132.01 53.9237 133.508 54.5665 134.272C55.2093 135.035 56.378 135.417 58.0726 135.417C59.8257 135.417 62.0754 134.536 64.822 132.774L66.5751 135.682C61.4327 139.971 57.1961 142.115 53.8653 142.115C50.5345 142.115 47.9049 141.322 45.9764 139.736C44.0481 138.09 43.0839 135.212 43.0839 131.1V108.011H38.7012L38 104.751L43.0839 103.165V98.8467L53.6023 94V103.693L63.9455 102.9L62.9812 108.628L53.6023 108.276V129.777Z" fill="#00AFC6"/>
<path d="M72.7807 162.207H71.2905C69.888 159.798 68.807 156.361 68.0472 151.896L70.0632 150.663C71.758 151.721 73.2481 152.249 74.5336 152.249C77.2801 152.249 79.3839 150.986 80.8447 148.46L83.825 141.498L70.414 110.038C69.7128 108.452 69.0991 107.454 68.5732 107.042C68.0472 106.631 67.0539 106.337 65.5929 106.161L64.9794 102.9C69.6542 103.37 73.0142 103.605 75.0596 103.605C77.1048 103.605 80.757 103.37 86.0162 102.9L85.6657 105.985C85.5488 106.043 85.2274 106.132 84.7015 106.249C84.234 106.367 83.825 106.484 83.4742 106.602C83.1821 106.66 82.8316 106.748 82.4226 106.865C81.6045 107.219 81.1954 107.659 81.1954 108.188C81.1954 108.599 81.3122 109.216 81.5459 110.038L89.2593 129.866L96.7976 109.686C96.9729 109.157 97.0607 108.658 97.0607 108.188C97.0607 107.13 95.5121 106.425 92.4149 106.073L92.2397 102.988C95.103 103.4 97.4988 103.605 99.4272 103.605C101.356 103.605 104.541 103.4 108.981 102.988L108.367 106.249C106.965 106.308 105.973 106.572 105.388 107.042C104.862 107.454 104.307 108.334 103.723 109.686L85.315 152.954C82.6855 159.123 78.5072 162.207 72.7807 162.207Z" fill="#00AFC6"/>
<path d="M135.273 137.621C137.552 137.621 139.48 136.357 141.058 133.831C142.694 131.246 143.512 127.486 143.512 122.552C143.512 113.387 140.853 108.805 135.536 108.805C133.374 108.805 131.007 110.009 128.436 112.418V132.686C129.078 134.096 130.043 135.27 131.328 136.211C132.614 137.151 133.929 137.621 135.273 137.621ZM135.448 163C130.013 162.471 126.332 162.207 124.404 162.207C122.475 162.207 118.618 162.471 112.833 163L111.957 159.828C114.061 159.358 115.58 158.829 116.515 158.241C117.45 157.654 117.917 156.743 117.917 155.509V111.536C117.917 109.539 117.158 108.54 115.638 108.54L111.606 109.069L111.168 105.72C116.194 103.488 120.956 102.166 125.456 101.755L127.296 103.782C127.296 105.074 127.589 106.543 128.173 108.188L132.029 105.28C134.718 103.223 137.143 102.195 139.305 102.195C144.622 102.195 148.538 103.811 151.05 107.042C153.563 110.274 154.819 114.915 154.819 120.966C154.819 126.958 152.92 131.98 149.122 136.034C145.323 140.088 140.444 142.115 134.484 142.115C132.556 142.115 130.54 141.469 128.436 140.176V155.686C128.436 156.802 128.904 157.684 129.838 158.329C131.182 158.917 132.936 159.387 135.097 159.74L136.061 159.915L135.448 163Z" fill="#00AFC6"/>
<path d="M171.187 137.885C172.59 137.885 173.759 137.444 174.694 136.563C175.629 135.682 176.096 134.595 176.096 133.302C176.096 131.951 175.921 130.953 175.57 130.306C175.219 129.602 174.635 128.955 173.817 128.368C172.648 127.428 170.983 126.429 168.821 125.372C166.717 124.314 165.052 123.404 163.825 122.64C162.656 121.876 161.487 120.642 160.318 118.938C159.208 117.176 158.653 115.149 158.653 112.858C158.653 109.568 159.938 106.983 162.51 105.104C165.139 103.165 168.383 102.195 172.24 102.195C176.096 102.195 180.479 102.871 185.388 104.222C185.212 108.041 184.715 111.272 183.897 113.916L180.391 114.709C178.989 109.069 176.33 106.249 172.415 106.249C169.785 106.249 168.47 107.806 168.47 110.919C168.47 112.153 168.967 113.21 169.961 114.092C171.012 114.973 172.531 115.913 174.518 116.912C176.506 117.852 177.937 118.586 178.813 119.115C179.69 119.585 180.859 120.378 182.32 121.494C185.008 123.609 186.352 126.576 186.352 130.394C186.352 134.213 184.891 137.121 181.969 139.119C179.047 141.116 175.191 142.115 170.399 142.115C165.665 142.115 161.516 141.322 157.952 139.736C157.835 138.737 157.777 137.004 157.777 134.536C157.777 132.01 157.835 130.247 157.952 129.249L162.247 128.28C162.715 131.158 163.737 133.479 165.315 135.241C166.893 137.004 168.85 137.885 171.187 137.885Z" fill="#00AFC6"/>
<path d="M205.027 129.777C205.027 132.01 205.349 133.508 205.991 134.272C206.635 135.035 207.803 135.417 209.498 135.417C211.251 135.417 213.501 134.536 216.247 132.774L218 135.682C212.857 139.971 208.621 142.115 205.29 142.115C201.959 142.115 199.33 141.322 197.402 139.736C195.473 138.09 194.509 135.212 194.509 131.1V108.011H190.126L189.425 104.751L194.509 103.165V98.8467L205.027 94V103.693L215.37 102.9L214.406 108.628L205.027 108.276V129.777Z" fill="#00AFC6"/>
</svg>