<svg width="256" height="256" title="Udemy" viewBox="0 0 256 256" fill="none" xmlns="http://www.w3.org/2000/svg" id="udemy">
<style>
#udemy {
    rect {fill: #15191C}
    path.ude {fill: #F4F2ED}

    @media (prefers-color-scheme: light) {
        rect {fill: #F4F2ED}
        path.ude {fill: #15191C}
    }
}
</style>
<rect width="256" height="256" rx="40" fill="#15191C"/>
<path d="M168 96.1779L127.972 73.1174L88 96.121V73.1174L128.028 50L168 73.1174V96.1779Z" fill="#A435F0"/>
<path d="M88 115.594H108.954V166.498C108.819 169.062 109.217 171.627 110.121 174.03C111.025 176.433 112.417 178.623 114.208 180.463C116 182.302 118.152 183.751 120.531 184.719C122.909 185.686 125.462 186.152 128.028 186.085C130.599 186.12 133.149 185.627 135.521 184.636C137.893 183.646 140.036 182.18 141.819 180.328C143.602 178.476 144.985 176.278 145.884 173.87C146.783 171.461 147.179 168.894 147.046 166.327V115.594H168V167.694C168 179.822 164.185 189.16 156.612 195.594C148.483 202.16 138.241 205.54 127.801 205.103C117.446 205.55 107.29 202.165 99.274 195.594C91.8149 189.16 88 180.221 88 168.263V115.594Z" class="ude" fill="#F4F2ED"/>
</svg>