<svg width="256" height="256" title="Umami" viewBox="0 0 256 256" fill="none" xmlns="http://www.w3.org/2000/svg" id="umami">
<style>
#umami {
    rect {fill: #15191C}

    @media (prefers-color-scheme: light) {
        rect {fill: #F4F2ED}
    }
}
</style>
<rect width="256" height="256" rx="40" fill="#15191C"/>
<path d="M193 107C193 134.614 164.122 157 128.5 157C92.8776 157 64 134.614 64 107C64 79.3858 92.8776 57 128.5 57C164.122 57 193 79.3858 193 107Z" fill="white"/>
<path d="M123.196 49.0891C123.155 49.13 122.622 49.1914 122.007 49.2323C120.982 49.3141 120.08 49.4164 118.338 49.6823C117.949 49.7232 117.354 49.805 117.006 49.8664C116.043 49.9891 112.169 50.7664 111.267 50.9915C110.816 51.1142 110.263 51.2369 110.037 51.2983C109.34 51.421 108.849 51.5642 107.373 52.0347C106.594 52.3006 105.897 52.5052 105.836 52.5256C105.241 52.6483 101.859 53.8757 100.425 54.4893C99.4205 54.9394 98.4777 55.2871 98.3342 55.2871C98.1908 55.2871 97.9448 55.4303 97.7604 55.5939C97.5964 55.778 97.3914 55.9008 97.33 55.8803C97.1865 55.8599 93.2923 57.7622 93.1283 57.9463C93.0669 58.0077 92.6979 58.2122 92.3085 58.4372C90.6894 59.2964 89.7875 59.8487 87.6765 61.2396C85.7499 62.5079 82.6345 64.7784 81.9377 65.4125C81.8147 65.5148 81.3433 65.9239 80.8719 66.2921C78.0845 68.5627 74.1288 72.531 71.5054 75.7426C71.075 76.2539 70.6651 76.704 70.6036 76.7653C70.5216 76.8267 70.1527 77.2972 69.8042 77.829C69.4353 78.3404 69.0254 78.8927 68.8819 79.0563C68.1851 79.7723 64.6393 85.3566 63.5736 87.4022C63.3071 87.9135 63.0612 88.3636 62.9997 88.4249C62.7742 88.6499 60.5197 93.5388 59.7409 95.5025C58.88 97.6503 57.4043 102.069 57.1584 103.153L57.0149 103.767H51.6246C46.6031 103.767 46.1317 103.807 45.0454 104.196C43.1189 104.912 41.5407 106.692 41.1308 108.614C40.9463 109.412 40.9668 126.043 41.1308 127.802C41.3152 129.581 41.4587 130.87 41.6022 131.79C41.6637 132.179 41.7251 132.772 41.7661 133.12C41.8276 133.713 42.0531 135.104 42.217 135.984C42.2785 136.209 42.3605 136.72 42.422 137.109C42.4835 137.498 42.6065 138.152 42.7089 138.541C42.8114 138.929 42.9344 139.482 42.9959 139.768C43.5903 142.591 45.1274 147.971 45.9678 150.098C46.0702 150.323 46.4392 151.285 46.8286 152.246C47.1975 153.207 47.6894 154.394 47.8944 154.905C48.1198 155.417 48.3248 155.907 48.3453 156.03C48.4067 156.235 50.5793 160.612 51.7065 162.78C52.0755 163.456 52.7313 164.601 53.1617 165.317C53.6126 166.012 53.9816 166.626 53.9816 166.667C53.9816 166.831 56.1131 169.96 56.3181 170.083C56.4411 170.165 56.4615 170.247 56.3796 170.247C56.2976 170.247 56.4615 170.492 56.7485 170.799C57.0354 171.106 57.2609 171.454 57.2609 171.535C57.2609 171.638 57.3839 171.822 57.5273 171.965C57.6503 172.108 57.9577 172.476 58.1832 172.804C58.4086 173.11 58.88 173.704 59.208 174.113C59.5564 174.542 60.0483 175.176 60.3352 175.545C60.6017 175.913 61.0116 176.424 61.2575 176.69C61.483 176.956 62.1184 177.693 62.6922 178.347C64.7418 180.761 70.0502 185.895 72.5917 187.941C73.2885 188.493 73.8624 189.025 73.8624 189.107C73.8624 189.209 73.9854 189.27 74.1288 189.27C74.2723 189.27 74.5183 189.454 74.6822 189.679C74.8462 189.904 75.0716 190.089 75.2151 190.089C75.3381 190.089 75.6045 190.273 75.8095 190.498C76.0144 190.723 76.2604 190.907 76.3629 190.907C76.4653 190.907 76.8343 191.173 77.2032 191.52C77.5721 191.848 77.9615 192.134 78.105 192.134C78.228 192.134 78.3714 192.216 78.4124 192.298C78.4739 192.461 82.2246 194.998 82.3886 194.998C82.4296 194.998 82.942 195.305 83.5364 195.693C86.2418 197.391 91.2632 199.928 94.9729 201.421C95.7108 201.728 96.4896 202.055 96.7151 202.157C97.9858 202.689 101.224 203.814 103.274 204.387C104.893 204.857 107.188 205.471 107.66 205.553C107.947 205.614 108.234 205.696 108.295 205.737C108.377 205.778 108.705 205.88 109.033 205.921C109.361 205.982 109.853 206.085 110.14 206.146C110.427 206.207 110.878 206.31 111.165 206.371C111.451 206.412 111.902 206.514 112.189 206.576C112.456 206.637 113.009 206.739 113.419 206.78C113.808 206.821 114.362 206.923 114.649 206.985C115.756 207.189 118.154 207.496 121.207 207.803C123.052 207.987 133.771 208.048 134.243 207.885C134.468 207.782 134.817 207.803 135.001 207.905C135.185 208.028 135.349 208.028 135.349 207.926C135.349 207.844 135.554 207.762 135.821 207.742C136.415 207.742 138.977 207.496 139.756 207.373C140.104 207.312 140.699 207.23 141.088 207.189C142.523 206.985 143.773 206.78 144.839 206.535C145.167 206.473 145.618 206.392 145.864 206.351C146.786 206.207 149.246 205.614 151.029 205.123C152.053 204.837 153.078 204.551 153.324 204.51C153.57 204.448 154.021 204.305 154.308 204.203C154.595 204.101 154.82 204.06 154.82 204.121C154.82 204.203 154.943 204.162 155.087 204.06C155.21 203.937 155.702 203.732 156.153 203.61C156.603 203.466 157.116 203.303 157.28 203.241C157.444 203.16 157.628 203.098 157.69 203.098C157.895 203.057 161.358 201.707 162.609 201.175C164.576 200.357 169.618 197.923 170.705 197.268C171.053 197.064 171.791 196.655 172.344 196.327C172.918 196.021 174.004 195.366 174.763 194.875C175.521 194.384 176.238 193.975 176.32 193.975C176.423 193.975 176.546 193.914 176.587 193.811C176.628 193.73 177.202 193.3 177.878 192.85C178.554 192.4 179.149 191.991 179.21 191.93C179.272 191.868 180.235 191.152 181.362 190.314C182.49 189.495 183.514 188.698 183.617 188.575C183.74 188.452 184.109 188.125 184.437 187.879C186.179 186.55 193.967 179.083 193.967 178.736C193.967 178.674 194.131 178.47 194.336 178.265C194.521 178.061 195.053 177.447 195.504 176.915C195.955 176.363 196.468 175.77 196.632 175.586C196.796 175.402 197.492 174.522 198.148 173.622C198.804 172.722 199.603 171.658 199.89 171.27C202.76 167.526 207.228 159.487 209.339 154.291C209.585 153.678 209.913 152.88 210.077 152.553C210.569 151.407 212.598 145.291 212.475 145.291C212.413 145.291 212.454 145.168 212.577 145.025C212.7 144.902 212.864 144.411 212.946 143.961C213.151 142.98 213.131 143.021 213.295 142.632C213.397 142.366 214.053 139.461 214.36 137.927C214.545 137.068 215.078 133.938 215.18 133.202C215.877 128.395 216 125.899 216 116.756V108.164L215.508 107.264C214.565 105.485 212.577 104.053 210.774 103.869C210.384 103.828 207.822 103.787 205.117 103.787L200.157 103.767L199.419 101.353C198.989 100.044 198.476 98.5095 198.271 97.9572C198.046 97.4049 197.861 96.8935 197.861 96.7912C197.861 96.6889 197.636 96.1162 197.349 95.5025C197.062 94.8889 196.837 94.3161 196.837 94.2547C196.837 93.8865 193.721 87.5249 193.516 87.4431C193.414 87.4022 193.352 87.2385 193.352 87.0749C193.352 86.9112 193.27 86.7885 193.147 86.7885C193.045 86.7885 192.963 86.7271 192.983 86.6249C193.045 86.4408 192.163 84.9475 190.36 82.186C189.069 80.2018 188.351 79.22 186.527 76.8881C183.801 73.3902 178.739 68.2968 175.07 65.3512C173.615 64.2057 172.365 63.2647 172.242 63.2647C172.139 63.2647 172.037 63.2034 172.037 63.1011C172.037 63.0193 171.524 62.6306 170.909 62.242C170.295 61.8533 169.782 61.4646 169.782 61.3624C169.782 61.2805 169.659 61.2192 169.516 61.2192C169.372 61.2192 169.065 61.0555 168.839 60.851C168.614 60.6669 168.081 60.3191 167.63 60.0941C167.2 59.8691 166.728 59.5827 166.605 59.4805C165.765 58.7236 158.141 54.9803 155.538 54.0393C154.984 53.8552 154.287 53.5893 154.001 53.487C153.714 53.3847 153.427 53.2825 153.345 53.262C153.263 53.2416 152.771 53.0575 152.258 52.8324C151.746 52.6074 151.316 52.4438 151.275 52.4642C151.234 52.4847 149.041 51.871 148.467 51.646C148.2 51.5642 147.811 51.4619 147.134 51.3187C147.032 51.2983 146.807 51.2165 146.684 51.1346C146.54 51.0324 146.417 51.0119 146.417 51.0733C146.417 51.1142 146.11 51.0733 145.761 50.971C145.392 50.8687 144.859 50.746 144.573 50.6846C144.286 50.6233 143.835 50.5414 143.548 50.4801C143.261 50.4187 142.523 50.296 141.908 50.1732C141.293 50.0505 140.596 49.9278 140.371 49.8869C140.145 49.846 139.449 49.7641 138.834 49.6823C138.219 49.6005 137.379 49.4982 136.989 49.4368C136.6 49.3755 135.903 49.3141 135.452 49.2937C135.001 49.2732 134.55 49.1914 134.427 49.13C134.202 48.9868 123.318 48.9459 123.196 49.0891ZM124.364 57.3531C124.507 57.1485 133.3 57.1895 134.837 57.4145C135.288 57.4758 136.067 57.5781 136.579 57.6395C137.092 57.6804 137.727 57.7622 138.014 57.8236C138.301 57.8645 138.895 57.9668 139.346 58.0281C140.125 58.1304 140.535 58.2122 141.703 58.4577C141.99 58.5191 142.4 58.6009 142.625 58.6418C142.851 58.6827 143.814 58.9282 144.777 59.1736C145.741 59.4191 146.663 59.6441 146.827 59.685C147.544 59.8282 152.545 61.6078 153.14 61.9147C153.488 62.0988 153.837 62.242 153.898 62.242C153.96 62.2215 154.308 62.3647 154.677 62.5283C155.025 62.692 156.071 63.1624 156.972 63.5716C157.874 63.9807 158.653 64.2875 158.694 64.2875C158.735 64.267 158.838 64.3489 158.899 64.4511C158.96 64.5534 159.78 65.0239 160.703 65.4944C161.625 65.9648 162.486 66.4762 162.609 66.6399C162.752 66.8035 162.957 66.9467 163.06 66.9467C163.306 66.9467 166.995 69.4218 167.077 69.6468C167.118 69.7286 167.241 69.8105 167.343 69.8105C167.548 69.8105 169.782 71.5696 171.852 73.3288C173.943 75.1084 177.099 78.3199 179.005 80.6314C179.518 81.2451 180.092 81.9201 180.296 82.1247C180.481 82.3292 180.645 82.5747 180.645 82.6974C180.645 82.7997 180.706 82.902 180.809 82.902C180.891 82.902 181.321 83.4543 181.752 84.1293C182.203 84.8043 182.633 85.3566 182.735 85.3566C182.817 85.3566 182.899 85.4589 182.899 85.5816C182.899 85.7044 183.125 86.093 183.412 86.4612C183.699 86.8294 183.924 87.2385 183.924 87.3612C183.924 87.5044 184.006 87.6067 184.088 87.6067C184.191 87.6067 184.416 87.9135 184.601 88.2613C184.785 88.6295 185.215 89.3863 185.564 89.9591C186.507 91.5342 188.864 96.198 188.72 96.198C188.638 96.198 188.679 96.3207 188.802 96.4435C188.925 96.5867 189.274 97.4049 189.622 98.2435C189.95 99.0822 190.298 99.9618 190.38 100.187C190.483 100.412 190.565 100.637 190.585 100.698C190.585 100.76 190.811 101.435 191.077 102.191C191.344 102.969 191.508 103.623 191.467 103.685C191.405 103.726 163.06 103.746 128.442 103.726L65.5001 103.664L66.279 101.414C67.2423 98.6117 68.677 95.2571 70.0092 92.7206C71.2799 90.3068 73.432 86.6862 73.9239 86.1748C74.1083 85.9498 74.2723 85.7248 74.2723 85.6634C74.2723 85.5203 75.0716 84.3748 75.4611 83.9656C75.584 83.8225 75.9939 83.2497 76.3629 82.7383C76.7318 82.2065 77.1212 81.6746 77.2442 81.5724C77.3671 81.4496 77.941 80.8155 78.4944 80.1405C79.4782 78.9336 84.0487 74.2902 85.2375 73.2879C85.5859 73.0015 86.3238 72.4083 86.8772 71.9583C87.451 71.5083 87.9429 71.0992 88.0044 71.0378C88.0659 70.9764 88.4348 70.6901 88.8242 70.4241C89.2137 70.1378 89.6441 69.8514 89.7465 69.7696C90.5664 69.115 91.8986 68.174 91.9806 68.174C92.0421 68.174 92.5545 67.8467 93.1078 67.4581C93.6407 67.0694 94.1941 66.7422 94.2966 66.7422C94.3991 66.7422 94.6655 66.5785 94.891 66.374C95.2394 66.0671 95.9772 65.658 99.318 63.9398C101.737 62.7124 107.762 60.3396 107.967 60.5442C108.029 60.626 108.09 60.5851 108.09 60.4623C108.09 60.3396 108.336 60.1964 108.664 60.135C108.972 60.0737 109.73 59.8896 110.345 59.7055C110.96 59.5214 111.636 59.3168 111.841 59.2759C112.046 59.235 112.394 59.1327 112.599 59.0714C112.804 59.01 113.194 58.9077 113.46 58.8668C113.727 58.8054 114.444 58.6623 115.059 58.5395C115.674 58.3963 116.309 58.2941 116.452 58.2941C116.575 58.2941 116.698 58.2122 116.698 58.11C116.698 58.0077 116.801 57.9872 116.903 58.0486C117.026 58.1304 117.6 58.0895 118.195 57.9668C119.24 57.7418 119.65 57.7008 122.232 57.4349C122.97 57.3531 123.605 57.2508 123.646 57.2099C123.687 57.169 123.851 57.2304 123.995 57.3531C124.159 57.4758 124.282 57.4963 124.364 57.3531Z" fill="black"/>
</svg>