<svg width="256" height="256" title="Umbraco" viewBox="0 0 256 256" fill="none" xmlns="http://www.w3.org/2000/svg" id="umbraco">
<style>
#umbraco {
    rect {fill: #15191C}

    @media (prefers-color-scheme: light) {
        rect {fill: #F4F2ED}
    }
}
</style>
<rect width="256" height="256" rx="40" fill="#15191C"/>
<path d="M53.0001 127.888C53.0223 113.059 57.4399 98.5693 65.6945 86.2505C73.9491 73.9316 85.6703 64.3362 99.3767 58.6768C113.083 53.0175 128.16 51.5483 142.701 54.4549C157.242 57.3615 170.595 64.5134 181.073 75.0068C191.55 85.5002 198.682 98.8641 201.567 113.41C204.452 127.955 202.96 143.029 197.28 156.727C191.6 170.425 181.987 182.132 169.656 190.368C157.325 198.604 142.829 203 128 203C118.141 203 108.38 201.056 99.2728 197.28C90.166 193.504 81.8931 187.97 74.9273 180.993C67.9614 174.017 62.4393 165.736 58.6768 156.623C54.9143 147.511 52.9853 137.746 53.0001 127.888ZM126.475 153.575C120.657 153.737 114.839 153.212 109.144 152.013C107.074 151.59 105.135 150.678 103.489 149.354C101.843 148.03 100.537 146.331 99.6813 144.4C97.973 140.471 97.148 134.44 97.2063 126.306C97.2347 122.045 97.4997 117.788 98.0001 113.556C98.4917 109.44 98.9834 106.046 99.4751 103.375L99.9876 100.719C99.9951 100.64 99.9951 100.56 99.9876 100.481C99.9815 100.128 99.8529 99.7877 99.6238 99.5186C99.3946 99.2496 99.0792 99.0685 98.7313 99.0063L89.0813 97.4688H88.8751C88.533 97.4715 88.2019 97.5896 87.9353 97.804C87.6687 98.0184 87.4823 98.3165 87.4063 98.65C87.1936 99.4959 87.0081 100.348 86.8501 101.206C86.3001 104.05 85.7876 106.831 85.2251 110.881C84.6235 115.275 84.2563 119.698 84.1251 124.131C83.9188 127.224 83.9188 130.326 84.1251 133.419C84.3334 141.656 85.7397 148.229 88.3438 153.138C90.9522 158.05 95.3397 161.581 101.506 163.731C107.681 165.885 116.296 166.94 127.35 166.894H128.725C139.788 166.935 148.4 165.881 154.563 163.731C160.721 161.573 165.096 158.042 167.688 153.138C170.283 148.229 171.696 141.673 171.925 133.469C172.131 130.378 172.131 127.278 171.925 124.188C171.794 119.752 171.427 115.327 170.825 110.931C170.368 107.693 169.826 104.467 169.2 101.256C169.043 100.397 168.86 99.542 168.65 98.6938C168.573 98.3604 168.385 98.0629 168.117 97.8496C167.849 97.6363 167.517 97.5198 167.175 97.5188H166.925L157.25 99.0313C156.896 99.0813 156.571 99.2585 156.338 99.5299C156.105 99.8013 155.978 100.148 155.981 100.506C155.974 100.583 155.974 100.661 155.981 100.738L156.488 103.4C156.979 106.079 157.471 109.475 157.963 113.588C158.457 117.818 158.72 122.072 158.75 126.331C158.829 134.456 158.004 140.481 156.275 144.406C155.428 146.331 154.134 148.026 152.502 149.352C150.87 150.678 148.945 151.596 146.888 152.031C141.2 153.225 135.391 153.743 129.581 153.575H126.475Z" fill="#3544B1"/>
</svg>