<svg width="256" height="256" title="UML" viewBox="0 0 256 256" fill="none" xmlns="http://www.w3.org/2000/svg" id="uml">
<style>
#uml {
    rect {fill: #15191C}

    @media (prefers-color-scheme: light) {
        rect {fill: #F4F2ED}
    }
}
</style>
<rect width="256" height="256" rx="40" fill="#15191C"/>
<path d="M71.8502 192.962V139.077L82.1529 197.273L98.9267 205.656L109.709 157.278V210.206L128.639 219.545V130.216L99.8849 116.564L90.7799 159.194L81.5952 107.783L53 94.0532V183.462L71.8502 192.962Z" fill="#FBBD16"/>
<path d="M131.274 130.193L161.307 114.545V179.366L202.84 157.814L203 182.241L131.355 220L131.274 130.193Z" fill="#452E7F"/>
<path d="M119.165 36L97.9283 54.8272C97.9283 54.8272 139.364 76.1825 144.397 78.7063C149.431 81.2294 156.595 86.0829 148.85 93.2668C141.106 100.45 132.586 99.4792 126.778 96.5671C120.969 93.6551 77.9855 71.9115 77.9855 71.9115L56.1071 90.5481C56.1071 90.5481 98.3156 112.098 105.287 115.786C112.257 119.476 138.202 128.599 162.792 109.38C187.382 90.1598 183.897 83.1708 183.897 81.8119C183.897 80.4529 183.316 73.2697 179.057 68.8045C174.796 64.3394 162.405 57.9328 157.178 55.2148C151.95 52.4969 119.165 36 119.165 36Z" fill="#962444"/>
<path d="M202.109 145.357C202.109 148.514 199.639 150.99 196.423 150.99C193.242 150.99 190.704 148.513 190.704 145.357C190.704 142.269 193.242 139.792 196.423 139.792C199.639 139.792 202.109 142.269 202.109 145.357ZM192.126 145.357C192.126 147.835 193.953 149.804 196.458 149.804C198.895 149.804 200.689 147.835 200.689 145.391C200.689 142.913 198.895 140.911 196.423 140.911C193.953 140.912 192.126 142.914 192.126 145.357ZM195.544 148.276H194.258V142.711C194.766 142.608 195.476 142.541 196.39 142.541C197.439 142.541 197.913 142.711 198.319 142.948C198.623 143.185 198.86 143.626 198.86 144.169C198.86 144.779 198.387 145.255 197.71 145.459V145.527C198.252 145.731 198.556 146.137 198.725 146.884C198.894 147.733 198.996 148.073 199.13 148.276H197.743C197.574 148.073 197.472 147.563 197.303 146.918C197.201 146.308 196.863 146.036 196.151 146.036H195.543L195.544 148.276ZM196.187 145.12C196.898 145.12 197.473 144.883 197.473 144.306C197.473 143.797 197.101 143.458 196.288 143.458C195.949 143.458 195.713 143.492 195.577 143.526V145.12H196.187Z" fill="#6D6E71"/>
</svg>