<svg width="256" height="256" title="UnoCSS" viewBox="0 0 256 256" fill="none" xmlns="http://www.w3.org/2000/svg" id="unocss">
<style>
#unocss {
    rect {fill: #15191C}

    @media (prefers-color-scheme: light) {
        rect {fill: #F4F2ED}
    }
}
</style>
<rect width="256" height="256" rx="40" fill="#15191C"/>
<path d="M133.752 172.732C133.752 151.393 151.05 134.095 172.389 134.095C193.727 134.095 211.025 151.393 211.025 172.732C211.025 194.07 193.727 211.368 172.389 211.368C151.05 211.368 133.752 194.07 133.752 172.732Z" fill="#858585"/>
<path d="M133.752 83.9545C133.752 62.6163 151.05 45.3182 172.389 45.3182C193.727 45.3182 211.025 62.6163 211.025 83.9545V118.727C211.025 120.861 209.295 122.591 207.161 122.591H137.616C135.482 122.591 133.752 120.861 133.752 118.727V83.9545Z" fill="#CCCCCC"/>
<path d="M121.818 172.732C121.818 194.07 104.52 211.368 83.1818 211.368C61.8436 211.368 44.5455 194.07 44.5455 172.732L44.5455 137.959C44.5455 135.825 46.2753 134.095 48.4091 134.095H117.955C120.088 134.095 121.818 135.825 121.818 137.959V172.732Z" fill="#4D4D4D"/>
</svg>