<svg width="256" height="256" title="Upstage AI" viewBox="0 0 256 256" fill="none" xmlns="http://www.w3.org/2000/svg" id="upstageai">
<style>
#upstageai {
    rect {fill: #15191C}

    @media (prefers-color-scheme: light) {
        rect {fill: #F4F2ED}
    }
}
</style>
<rect width="256" height="256" rx="40" fill="#15191C"/>
<path d="M180.606 48L178.102 56.7007H195.516L198 48H180.606ZM156.632 63.2279L154.108 71.9353H191.166L193.65 63.2279H156.632ZM134.512 78.4558L131.988 87.1632H186.809L189.293 78.4558H134.512ZM67.063 93.6838L64.5321 102.391H182.452L184.936 93.6905H67.0496L67.063 93.6838ZM74.0046 108.918L71.4804 117.619H178.102L180.586 108.918H73.9912H74.0046ZM75.3741 209L77.8983 200.299H60.4571L58 209H75.3741ZM99.3676 193.772L101.892 185.071H64.814L62.3637 193.772H99.3676ZM121.488 178.537L124.012 169.837H69.1643L66.7072 178.537H121.488ZM188.944 163.31L191.468 154.609H73.5212L71.0642 163.31H188.944ZM181.975 148.082L184.499 139.381H77.8782L75.4211 148.082H181.975ZM174.047 132.854L176.571 124.153H76.5288L74.0717 132.854H174.054H174.047Z" fill="url(#linearGradient)"/>
<linearGradient id="linearGradient" x1="128" y1="48" x2="128" y2="209" gradientUnits="userSpaceOnUse">
<stop stop-color="#AEBCFE"/>
<stop offset="1" stop-color="#805DFA"/>
</linearGradient>
</svg>