<svg width="256" height="256" title="Upstash" viewBox="0 0 256 256" fill="none" xmlns="http://www.w3.org/2000/svg" id="upstash">
<style>
#upstash {
    rect {fill: #15191C}

    @media (prefers-color-scheme: light) {
        rect {fill: #F4F2ED}
    }
}
</style>
<rect width="256" height="256" rx="40" fill="#15191C"/>
<path d="M68 187.883C94.5097 214.392 137.491 214.392 164 187.883C190.51 161.373 190.51 118.392 164 91.8824L152 103.882C171.883 123.765 171.883 156 152 175.882C132.118 195.765 99.8825 195.765 80 175.882L68 187.882V187.883Z" fill="#00C98D"/>
<path d="M92 163.882C105.255 177.137 126.745 177.137 140 163.882C153.255 150.628 153.255 129.137 140 115.882L128 127.882C134.628 134.51 134.628 145.255 128 151.882C121.373 158.51 110.628 158.51 104 151.882L92 163.882ZM188 67.8819C161.49 41.3727 118.509 41.3727 92 67.8819C65.4898 94.3921 65.4898 137.373 92 163.882L104 151.882C84.118 132 84.1175 99.7644 104 79.8824C123.882 59.9999 156.118 59.9999 176 79.8824L188 67.8819Z" fill="#00C98D"/>
<path d="M164 91.8824C150.746 78.6275 129.254 78.6275 116 91.8824C102.745 105.137 102.745 126.628 116 139.882L128 127.882C121.372 121.255 121.372 110.51 128 103.882C134.627 97.2547 145.372 97.2547 152 103.882L164 91.8824Z" fill="#00C98D"/>
<path d="M188 67.8819C161.49 41.3727 118.509 41.3727 92 67.8819C65.4898 94.3921 65.4898 137.373 92 163.882L104 151.882C84.118 132 84.1175 99.7644 104 79.8824C123.882 59.9999 156.118 59.9999 176 79.8824L188 67.8819Z" fill="white" fill-opacity="0.4"/>
<path d="M164 91.8824C150.746 78.6275 129.254 78.6275 116 91.8824C102.745 105.137 102.745 126.628 116 139.882L128 127.882C121.372 121.255 121.372 110.51 128 103.882C134.627 97.2547 145.372 97.2547 152 103.882L164 91.8824Z" fill="white" fill-opacity="0.4"/>
</svg>