<svg width="256" height="256" title="v0" viewBox="0 0 256 256" fill="none" xmlns="http://www.w3.org/2000/svg">
<rect width="256" height="256" rx="40" fill="black"/>
<path fill-rule="evenodd" clip-rule="evenodd" d="M143.013 103.003H180.507C181.093 103.003 181.68 103.043 182.24 103.123L143.107 142.262C143.023 141.677 142.981 141.087 142.98 140.495V103.003H127.98V140.495C127.979 144.108 128.69 147.685 130.072 151.022C131.453 154.359 133.479 157.392 136.033 159.946C138.586 162.5 141.618 164.526 144.955 165.908C148.292 167.29 151.868 168.001 155.48 168H192.973V152.998H155.48C154.88 152.998 154.287 152.957 153.713 152.877L192.873 113.704C192.961 114.3 193.005 114.902 193.007 115.505V152.998H208V115.498C208 111.887 207.289 108.311 205.907 104.975C204.526 101.639 202.5 98.6074 199.947 96.054C197.394 93.5005 194.364 91.4751 191.028 90.0932C187.692 88.7113 184.117 88 180.507 88H143.013V103.003ZM48 98.0017V98.0417L99.24 163.306C105.4 171.147 117.993 166.793 117.993 156.818V98.0017H103V143.809L67.04 98.0017H48Z" fill="white"/>
</svg>