<svg width="256" height="256" title="Vagrant" viewBox="0 0 256 256" fill="none" xmlns="http://www.w3.org/2000/svg" id="vagrant">
<style>
#vagrant {
    rect {fill: #15191C}

    @media (prefers-color-scheme: light) {
        rect {fill: #F4F2ED}
    }
}
</style>
<rect width="256" height="256" rx="40" fill="#15191C"/>
<path d="M182.554 51L203 62.935L168.906 82.7233L168.905 82.7459L203 62.935V77.1175L157.218 189.157L127.986 205.997L127.987 206L127.985 205.998L127.984 206L127.983 205.997L99.0341 189.286L53 77.5567V62.935L73.4495 51L107.57 70.9692L107.452 71.0357L107.544 71.0725V84.5575L127.987 132.272L127.986 148.212L127.99 148.211V132.272L148.459 84.5575V70.9433H148.485L182.554 51Z" fill="#1159CC"/>
<path d="M182.554 51L148.485 70.9433H148.459V84.5575L127.99 132.272V148.211L114.368 156.116L87.0977 94.7358V82.7233L107.57 70.9692L73.4495 51L53 62.935V77.5567L99.0341 189.286L127.987 206V164.021L141.635 156.116L141.454 156.012L168.906 94.7358V82.7233L203 62.935L182.554 51Z" fill="#127EFF"/>
</svg>