<svg width="256" height="256" title="Valibot" viewBox="0 0 256 256" fill="none" xmlns="http://www.w3.org/2000/svg" id="valibot">
<style>
#valibot {
    rect {fill: #15191C}

    @media (prefers-color-scheme: light) {
        rect {fill: #F4F2ED}
    }
}
</style>
<rect width="256" height="256" rx="40" fill="#15191C"/>
<path d="M90.5386 69.0116C66.6756 69.0116 47.9588 88.567 46.9677 114.222L46.0528 148.339C44.6424 176.433 71.7835 186.039 91.4152 186.039L90.5386 69.0116Z" fill="url(#linearGradient1)"/>
<path d="M92.4063 69.0116H173.601C182.688 68.7758 191.497 72.156 198.094 78.4098C204.691 84.6636 208.537 93.2798 208.786 102.366L210.997 150.893C211.264 174.946 193.805 184.82 173.64 184.972L92.4063 186.001C71.4785 186.154 58.9371 170.372 59.3183 150.893L60.6525 102.366C61.9866 81.0193 71.2498 69.3927 92.4444 69.0116H92.4063Z" fill="url(#linearGradient2)"/>
<path d="M96.9807 72.7473H173.144C181.631 72.4906 189.873 75.6154 196.056 81.4343C202.24 87.2532 205.859 95.2899 206.118 103.777L208.176 148.911C208.405 171.325 192.051 180.474 173.144 180.626L96.9807 181.579C77.3871 181.732 65.57 167.056 65.9512 148.911L67.2472 103.777C68.4289 83.9164 77.1202 73.1285 96.9807 72.7473Z" fill="#111827"/>
<path d="M177.375 109.419C179.328 109.419 181.237 109.998 182.86 111.082C184.484 112.167 185.749 113.709 186.497 115.513C187.244 117.317 187.44 119.303 187.059 121.218C186.678 123.133 185.737 124.892 184.357 126.273C182.976 127.654 181.217 128.594 179.301 128.975C177.386 129.356 175.401 129.16 173.597 128.413C171.793 127.666 170.251 126.4 169.166 124.777C168.081 123.153 167.502 121.244 167.502 119.292C167.502 116.673 168.542 114.162 170.394 112.31C172.245 110.459 174.757 109.419 177.375 109.419Z" fill="url(#linearGradient3)"/>
<path d="M101.212 109.419C103.165 109.419 105.074 109.998 106.697 111.082C108.321 112.167 109.586 113.709 110.333 115.513C111.081 117.317 111.276 119.303 110.895 121.218C110.514 123.133 109.574 124.892 108.193 126.273C106.812 127.654 105.053 128.594 103.138 128.975C101.223 129.356 99.2378 129.16 97.4337 128.413C95.6297 127.666 94.0877 126.4 93.0028 124.777C91.918 123.153 91.3389 121.244 91.3389 119.292C91.3389 116.673 92.3791 114.162 94.2307 112.31C96.0822 110.459 98.5935 109.419 101.212 109.419Z" fill="url(#linearGradient4)"/>
<linearGradient id="linearGradient1" x1="64.6202" y1="99.4388" x2="15.8783" y2="130.349" gradientUnits="userSpaceOnUse">
<stop stop-color="#EAB308"/>
<stop offset="1" stop-color="#CA8A04"/>
</linearGradient>
<linearGradient id="linearGradient2" x1="110.884" y1="71.34" x2="141.007" y2="187.278" gradientUnits="userSpaceOnUse">
<stop stop-color="#FDE68A"/>
<stop offset="1" stop-color="#FBBF24"/>
</linearGradient>
<linearGradient id="linearGradient3" x1="167.502" y1="119.292" x2="187.248" y2="119.292" gradientUnits="userSpaceOnUse">
<stop stop-color="#7DD3FC"/>
<stop offset="1" stop-color="#0EA5E9"/>
</linearGradient>
<linearGradient id="linearGradient4" x1="91.3389" y1="119.292" x2="111.085" y2="119.292" gradientUnits="userSpaceOnUse">
<stop stop-color="#7DD3FC"/>
<stop offset="1" stop-color="#0EA5E9"/>
</linearGradient>
</svg>