<svg width="256" height="256" title="HashiCorp Vault" viewBox="0 0 256 256" fill="none" xmlns="http://www.w3.org/2000/svg" id="vault">
<style>
#vault {
    rect {fill: #15191C}

    @media (prefers-color-scheme: light) {
        rect {fill: #F4F2ED}
    }
}
</style>
<rect width="256" height="256" rx="40" fill="#15191C"/>
<path d="M51 65L128.209 215L206 65H51ZM116.198 124.536H103.899V112.271H116.197L116.198 124.536ZM116.198 106.131H103.899V93.8519H116.197L116.198 106.131ZM134.652 142.954H122.409V130.676H134.649L134.652 142.954ZM134.652 124.536H122.409V112.271H134.649L134.652 124.536ZM134.652 106.131H122.409V93.8519H134.649L134.652 106.131ZM152.994 124.536H140.642V112.271H152.944L152.994 124.536ZM140.642 106.131V93.8519H152.944V106.131H140.642Z" fill="#FFD814"/>
</svg>