<svg width="256" height="256" title="Velocity" viewBox="0 0 256 256" fill="none" xmlns="http://www.w3.org/2000/svg">
<rect width="256" height="256" rx="40" fill="#009DC2"/>
<path d="M122.265 121.322L99.9679 90.9947C99.4165 90.2441 98.6611 89.6664 97.791 89.3299C96.9208 88.9935 95.9723 88.9123 95.0573 89.0959L59.4918 96.2595C58.7997 96.4014 58.1466 96.6908 57.5772 97.1079C57.0079 97.5251 56.5358 98.06 56.1934 98.6762L38.6127 130.352C38.1599 131.165 37.9506 132.092 38.0098 133.02C38.069 133.949 38.3942 134.842 38.9467 135.592L61.2977 166.005C61.8491 166.756 62.6045 167.334 63.4746 167.67C64.3448 168.007 65.2933 168.088 66.2083 167.904L101.667 160.765C102.359 160.624 103.013 160.334 103.583 159.916C104.152 159.498 104.624 158.962 104.965 158.344L122.603 126.574C123.057 125.759 123.267 124.83 123.207 123.899C123.147 122.968 122.82 122.073 122.265 121.322ZM97.7538 151.822C97.3357 152.128 96.8611 152.349 96.3572 152.472C95.8534 152.596 95.33 152.619 94.8172 152.54C94.3045 152.461 93.8122 152.283 93.3688 152.014C92.9254 151.746 92.5394 151.393 92.233 150.975L79.4515 133.615C78.7087 132.609 77.6937 131.834 76.5255 131.382C75.3572 130.93 74.0839 130.819 72.8547 131.063L51.1757 135.431C50.6672 135.534 50.1435 135.536 49.6344 135.437C49.1253 135.337 48.6408 135.139 48.2086 134.853C47.7763 134.567 47.4048 134.2 47.1152 133.771C46.8256 133.342 46.6236 132.86 46.5207 132.353C46.3126 131.331 46.5196 130.269 47.0962 129.399C47.6728 128.529 48.572 127.923 49.5965 127.713L73.0979 122.978C74.0327 122.789 74.9153 122.4 75.6848 121.838C76.4542 121.276 77.0923 120.555 77.5549 119.723L89.351 98.4912C89.8578 97.5794 90.7066 96.9051 91.7114 96.6162C92.7162 96.3272 93.7949 96.4473 94.711 96.95C95.6257 97.4552 96.3022 98.3013 96.592 99.3029C96.8819 100.304 96.7614 101.38 96.2571 102.293L85.3887 121.918C84.7824 123.014 84.5027 124.26 84.5823 125.51C84.6619 126.759 85.0976 127.96 85.8382 128.971L98.6196 146.327C99.2347 147.17 99.489 148.223 99.3267 149.253C99.1644 150.283 98.5987 151.207 97.7538 151.822Z" fill="white"/>
<path d="M196.559 126.825C198.797 126.825 200.612 125.016 200.612 122.785C200.612 120.554 198.797 118.745 196.559 118.745C194.32 118.745 192.506 120.554 192.506 122.785C192.506 125.016 194.32 126.825 196.559 126.825Z" fill="white"/>
<path d="M213.814 134.905H140.518C139.443 134.905 138.412 134.48 137.652 133.722C136.892 132.964 136.465 131.937 136.465 130.865C136.465 129.794 136.892 128.766 137.652 128.009C138.412 127.251 139.443 126.825 140.518 126.825H184.313C185.366 126.792 186.365 126.351 187.098 125.597C187.831 124.842 188.241 123.833 188.241 122.783C188.241 121.733 187.831 120.724 187.098 119.969C186.365 119.215 185.366 118.774 184.313 118.741H155.369C154.294 118.741 153.264 118.315 152.503 117.558C151.743 116.8 151.316 115.772 151.316 114.701C151.316 113.629 151.743 112.602 152.503 111.844C153.264 111.086 154.294 110.661 155.369 110.661H199.222C200.275 110.627 201.274 110.187 202.007 109.432C202.74 108.678 203.15 107.669 203.15 106.619C203.15 105.568 202.74 104.559 202.007 103.805C201.274 103.051 200.275 102.61 199.222 102.577H108.486L122.265 121.322C122.817 122.073 123.141 122.965 123.201 123.893C123.26 124.822 123.051 125.748 122.599 126.562L104.961 158.332C104.798 158.625 104.604 158.901 104.384 159.154H191.912C192.987 159.154 194.018 158.728 194.778 157.971C195.538 157.213 195.965 156.185 195.965 155.114C195.965 154.042 195.538 153.015 194.778 152.257C194.018 151.5 192.987 151.074 191.912 151.074H169.841C169.298 151.091 168.757 150.999 168.249 150.804C167.742 150.609 167.28 150.314 166.889 149.937C166.499 149.56 166.188 149.108 165.976 148.609C165.764 148.11 165.655 147.574 165.655 147.032C165.655 146.49 165.764 145.953 165.976 145.454C166.188 144.955 166.499 144.504 166.889 144.127C167.28 143.75 167.742 143.455 168.249 143.259C168.757 143.064 169.298 142.972 169.841 142.99H213.814C214.357 143.007 214.898 142.915 215.405 142.72C215.913 142.524 216.375 142.229 216.766 141.852C217.156 141.475 217.467 141.024 217.679 140.525C217.891 140.026 218 139.489 218 138.947C218 138.406 217.891 137.869 217.679 137.37C217.467 136.871 217.156 136.42 216.766 136.043C216.375 135.666 215.913 135.371 215.405 135.175C214.898 134.98 214.357 134.888 213.814 134.905Z" fill="white"/>
</svg>