<svg width="256" height="256" title="VeraCrypt" viewBox="0 0 256 256" fill="none" xmlns="http://www.w3.org/2000/svg" id="veracrypt">
<style>
#veracrypt {
    rect {fill: #15191C}
    path.veracrypt {fill: white}

    @media (prefers-color-scheme: light) {
        rect {fill: #F4F2ED}
        path.veracrypt {fill: #212121}
    }
}
</style>
<rect width="256" height="256" rx="40" fill="#15191C"/>
<path d="M82.25 48H174.75L176.402 50.7523L187.414 69.8349L189.983 74.2385L203.748 98.0917L206.317 102.495L220.082 126.349L221 127.817L220.633 128.734L218.063 133.321L216.228 136.44L210.722 145.982L208.153 150.385L194.388 174.239L191.818 178.642L178.054 202.495L175.484 206.899L174.75 208H82.0665L80.2311 204.697L77.6617 200.294L66.6498 181.211L64.0804 176.807L50.3155 152.954L47.746 148.55L36.7341 129.468L36 128.183L36.3671 127.083L38.2024 123.963L40.9554 119.193L43.5248 114.789L57.2897 90.9358L59.8591 86.5321L73.624 62.6789L76.1935 58.2752L81.6994 48.7339L82.25 48Z" class="veracrypt" fill="white"/>
<path d="M69.4028 94.2385H89.2242L90.3254 95.8899L92.5278 99.9266L95.0972 104.33L97.2996 108.367L99.8691 112.771L102.071 116.807L104.641 121.211L106.843 125.248L109.413 129.651L111.615 133.688L114.185 138.092L116.387 142.128L117.855 144.514L120.058 140.661L127.215 128L129.785 123.413L144.1 98.0917L146.303 94.2385H186.129L184.844 96.8073L182.275 101.211L180.072 105.248L177.503 109.651L176.769 111.119H156.764L156.397 112.037L153.644 116.991L151.074 121.394L148.872 125.431L147.587 127.633L147.771 128.734L150.157 132.587L156.397 142.862L157.498 144.697L177.503 144.881L179.338 148L187.047 160.661L187.597 161.761H147.771L139.512 148.183L137.677 145.248L135.841 148.367L133.088 153.321L130.886 157.174L128.316 161.761H108.128L99.8691 148.183L97.1161 143.596L94.5466 139.009L70.6875 96.8073L69.4028 94.6055V94.2385Z" fill="#2589C9"/>
<path d="M146.303 94.2385H186.129L184.844 96.8073L182.275 101.211L180.072 105.248L177.503 109.651L176.769 111.119H156.764L156.397 112.037L153.644 116.991L151.074 121.394L148.872 125.431L147.587 127.633L147.22 128.183L127.399 128L127.766 127.083L130.702 121.761L132.905 117.908L135.474 113.321L137.677 109.468L140.246 104.881L142.448 101.028L145.018 96.4404L146.303 94.2385Z" fill="#3DB395"/>
<path d="M127.399 128L147.22 128L148.505 129.835L151.441 134.789L153.277 137.725L156.397 142.862L157.498 144.697L177.503 144.881L179.338 148L187.047 160.661L187.597 161.761H147.771L139.512 148.183L137.31 144.514L129.051 130.936L127.399 128.183V128Z" fill="#288A6C"/>
<path d="M69.4028 94.2385H89.2242L90.3254 95.8899L92.5278 99.9266L95.0972 104.33L97.2996 108.367L98.9514 111.303L97.8502 112.771L94.7302 117.908L89.5913 126.349L88.4901 128L87.756 127.083L85.003 122.128L70.6875 96.8073L69.4028 94.6055V94.2385Z" fill="#0AA7D4"/>
<path d="M146.303 94.2385H186.129L184.844 96.8073L182.275 101.211L180.072 105.248L177.503 109.651L176.769 111.119H156.58L147.22 95.7064L146.303 94.2385Z" fill="#8DCBB5"/>
<path d="M127.215 128L127.766 128.55L137.126 143.963L137.677 145.064L135.474 149.101L133.272 152.954L130.702 157.541L128.5 161.394L128.316 161.761L127.949 161.761L125.013 156.807L123.178 153.872L120.058 148.734L117.855 145.064L118.039 144.33L120.975 139.009L123.178 135.156L125.747 130.569L127.215 128Z" fill="#2F98AF"/>
<path d="M127.399 128L147.22 128L148.505 129.835L151.441 134.789L153.277 137.725L156.397 142.862L157.498 144.697L157.498 144.881H137.493L134.557 139.927L132.721 136.991L129.601 131.853L127.399 128.183V128Z" fill="#2E9B7E"/>
<path d="M98.0337 144.881H117.855L120.792 149.651L127.032 159.927L127.949 161.394L127.949 161.761L108.128 161.761L99.8691 148.183L98.0337 145.248V144.881Z" fill="#2A69B1"/>
<path d="M177.136 144.881H177.503L179.338 148L187.047 160.661L187.597 161.761H167.776L169.06 159.193L171.63 154.789L173.832 150.752L176.402 146.349L177.136 144.881Z" fill="#3DB395"/>
<path d="M98.5843 110.936L98.9514 111.486L98.0337 112.404L95.0972 117.358L93.2619 120.294L90.1419 125.431L88.4901 128L87.756 127.083L85.003 122.128L80.2312 113.688L78.9464 111.486V111.119L98.5843 110.936Z" fill="#199CD0"/>
<path d="M146.303 94.2385H166.124L165.757 95.3394L158.599 108L156.764 111.119L156.03 110.202L147.22 95.7064L146.303 94.2385Z" fill="#6BBFA4"/>
<path d="M157.498 144.881L177.136 144.881L176.769 145.982L169.611 158.642L167.776 161.761L167.042 160.844L158.232 146.349L157.498 144.881Z" fill="#2E9B7E"/>
<path d="M127.215 128L127.766 128.55L137.126 143.963L137.493 144.881L117.855 144.881L118.222 143.963L120.975 139.009L123.178 135.156L125.747 130.569L127.215 128Z" fill="#2DA4AC"/>
<path d="M127.399 128L147.037 128L146.67 129.101L144.467 132.954L139.695 141.394L137.86 144.514H137.31L129.051 130.936L127.399 128.183V128Z" fill="#20674F"/>
<path d="M108.128 128.183L108.679 128.367L110.881 132.404L113.083 136.257L115.653 140.844L117.855 144.697L117.855 144.881L98.2173 144.881L98.5843 143.963L100.97 139.927L103.356 136.073L106.476 130.936L108.128 128.183Z" fill="#2077BC"/>
<path d="M117.672 145.064H118.039L119.874 148.183L127.582 160.844L127.949 161.761L108.312 161.761L111.615 155.706L114.185 151.303L116.387 147.266L117.672 145.064Z" fill="#0D657A"/>
</svg>