<svg width="256" height="256" title="VHDL" viewBox="0 0 256 256" fill="none" xmlns="http://www.w3.org/2000/svg">
<rect width="256" height="256" rx="40" fill="white"/>
<path d="M170.905 187.144H85.0953C75.9181 187.144 68.4095 179.635 68.4095 170.458V84.6483C68.4095 75.4711 75.9181 67.9625 85.0953 67.9625H170.905C180.082 67.9625 187.591 75.4711 187.591 84.6483V170.458C187.591 179.635 180.082 187.144 170.905 187.144ZM156.896 98.1774H100.543V154.531H156.896V98.1774ZM102.108 38H91.6131V63.2308H102.108V38ZM123.159 38H112.664V63.2308H123.159V38ZM144.21 38H133.716V63.2308H144.21V38ZM165.262 38H154.767V63.2308H165.262V38ZM63.6779 153.905H38V164.399H63.6779V153.905ZM63.6779 132.854H38V143.348H63.6779V132.854ZM63.6779 111.802H38V122.297H63.6779V111.802ZM63.6779 90.7507H38V101.245H63.6779V90.7507ZM218 153.905H192.322V164.399H218V153.905ZM218 132.854H192.322V143.348H218V132.854ZM218 111.802H192.322V122.297H218V111.802ZM218 90.7507H192.322V101.245H218V90.7507ZM102.107 192.769H91.6129V218H102.107V192.769ZM123.159 192.769H112.664V218H123.159V192.769ZM144.21 192.769H133.716V218H144.21V192.769ZM165.262 192.769H154.767V218H165.262V192.769ZM91.2795 83.3169C91.2795 79.0028 86.5772 76.2918 82.8357 78.4489C79.0942 80.6059 79.0942 86.0278 82.8357 88.1848C86.5772 90.3419 91.2795 87.6309 91.2795 83.3169Z" fill="black"/>
</svg>