<svg width="256" height="256" title="Video.js" viewBox="0 0 256 256" fill="none" xmlns="http://www.w3.org/2000/svg" id="videojs">
<style>
#videojs {
    rect {fill: #15191C}

    @media (prefers-color-scheme: light) {
        rect {fill: #F4F2ED}
    }
}
</style>
<rect width="256" height="256" rx="40" fill="#15191C"/>
<path d="M84.8067 75H172.193L172.988 75.6808L174.236 77.2694L175.598 78.8579L176.392 79.8791L177.981 81.8081L179.003 83.0562L180.478 84.8717L182.067 86.8006L183.088 88.0488L184.564 89.8643L185.812 91.3393L186.606 92.3606L187.855 93.8356L188.649 94.8568L189.898 96.3319L190.692 97.3531L191.94 98.8282L192.735 99.8494L193.983 101.324L194.778 102.346L196.026 103.821L197.274 105.409L198.409 106.771L199.431 108.019L201.019 109.948L202.041 111.196L202.949 112.331L204.197 113.806L205.446 115.394L206.58 116.756L207.602 118.004L209.191 119.933L210.212 121.181L211.687 122.997L213.276 124.926L214.298 126.174L215.206 127.309L216 128.216V128.784L215.092 129.805L213.844 131.393L212.595 132.869L211.687 134.003L209.645 136.499L208.056 138.428L206.807 140.017L205.446 141.606L204.197 143.194L202.949 144.669L201.7 146.258L200.339 147.846L199.431 148.981L197.388 151.477L195.799 153.406L194.778 154.654L193.302 156.47L191.713 158.399L190.692 159.647L189.217 161.462L187.628 163.391L186.606 164.639L185.131 166.455L183.542 168.384L182.521 169.632L181.045 171.448L179.457 173.376L178.435 174.625L176.96 176.44L175.711 177.915L174.917 178.936L173.669 180.411L172.874 181.433L172.307 182H84.6933L83.4449 180.525L82.537 179.39L80.9481 177.461L79.9267 176.213L79.0188 175.078L77.7704 173.603L76.522 172.015L75.2737 170.54L74.3658 169.405L72.7769 167.476L71.7555 166.228L70.2802 164.413L68.6913 162.484L67.6699 161.235L66.1946 159.42L64.6057 157.491L63.5843 156.243L62.1089 154.427L60.5201 152.498L59.4987 151.25L58.0233 149.435L56.4345 147.506L55.4131 146.258L53.9377 144.442L52.3489 142.513L51.3275 141.265L49.8521 139.45L48.2633 137.521L47.2419 136.273L45.7665 134.457L44.1777 132.528L43.1563 131.28L41.6809 129.464L41 128.557L41.227 128.103L42.4754 126.628L43.7237 125.039L45.0856 123.451L45.9935 122.316L47.5824 120.387L48.6038 119.139L50.0791 117.323L52.1219 114.827L53.7108 112.898L54.9591 111.31L56.321 109.721L57.5694 108.133L58.8178 106.657L60.0661 105.069L61.428 103.48L62.3359 102.346L64.3787 99.8494L65.9676 97.9205L66.989 96.6723L68.4643 94.8568L70.0532 92.9279L71.0746 91.6797L72.5499 89.8643L74.1388 87.9353L75.1602 86.6872L76.6355 84.8717L78.2244 82.9427L79.2458 81.6946L80.8346 79.7656L81.856 78.5175L83.3314 76.702L84.5798 75.1135L84.8067 75Z" fill="#717980"/>
<path d="M90.2542 86.4602H143.594L143.367 87.0276L142.005 88.7296L140.87 90.2047L138.374 93.3818L137.466 94.5164L136.331 95.9915L134.742 98.0339L133.38 99.7359L130.997 102.8L129.748 104.388L128.16 106.431L126.798 108.133L125.322 110.062L123.96 111.764L122.826 113.239L121.577 114.827L119.988 116.87L118.626 118.572L117.151 120.501L116.13 121.749L114.995 123.224L113.633 124.926L112.385 126.514L111.477 127.762L111.704 128.216L112.952 129.805L114.314 131.507L115.449 132.982L116.697 134.571L118.286 136.613L119.534 138.201L121.123 140.244L122.485 141.946L123.62 143.421L125.209 145.463L130.202 151.818L131.791 153.86L133.04 155.449L134.628 157.491L135.99 159.193L137.125 160.668L138.374 162.257L139.962 164.299L141.324 166.001L143.594 168.951L143.481 169.178H90.1407L88.8923 167.703L87.7575 166.228L86.1686 164.186L82.4235 159.42L80.8346 157.378L77.0895 152.612L75.5006 150.569L74.2523 148.981L72.6634 146.938L71.3016 145.236L69.8262 143.308L68.4643 141.606L66.989 139.677L65.5136 137.861L64.4922 136.499L63.1303 134.797L61.655 132.869L60.2931 131.166L59.0447 129.578L57.9099 128.103L58.0233 127.422L59.6122 125.493L60.6336 124.131L61.882 122.543L63.2438 120.841L64.1518 119.593L65.1732 118.345L66.6485 116.416L68.1239 114.6L69.2588 113.125L70.5071 111.537L71.642 110.062L72.5499 108.927L73.6848 107.452L74.9332 105.863L76.2951 104.161L77.43 102.686L78.6783 101.098L79.8132 99.6225L80.7211 98.4878L81.856 97.0127L83.2179 95.3107L84.6933 93.3818L86.0551 91.6797L87.3035 90.0912L88.7789 88.1622L90.0272 86.6872L90.2542 86.4602Z" fill="#FAFAFB"/>
<path d="M150.176 87.368H166.746L167.427 87.9353L168.789 89.7508L170.264 91.5663L171.739 93.4952L173.101 95.1972L174.236 96.6723L175.484 98.2609L177.073 100.303L178.322 101.892L179.911 103.934L183.656 108.7L185.244 110.742L186.493 112.331L188.082 114.373L191.827 119.139L193.416 121.181L193.87 121.749V121.976H194.097L194.778 122.883L195.912 124.358L196.707 125.38L197.955 126.968L198.296 127.422V127.649H198.523L198.75 127.989V128.557L197.615 129.918L195.912 132.188L194.437 134.003L192.167 136.953L189.671 140.13L188.763 141.265L187.628 142.74L186.039 144.783L185.131 145.917L183.996 147.392L182.748 148.981L181.386 150.683L179.911 152.612L178.549 154.314L177.754 155.335L176.619 156.81L175.711 157.945L174.577 159.42L173.328 161.008L171.966 162.71L170.831 164.186L169.583 165.774L168.448 167.249L167.54 168.384L166.859 169.178H150.176L149.609 168.611L148.588 167.363L147.339 165.774L145.75 163.845L144.502 162.257L142.913 160.328L141.665 158.739L140.189 156.924L138.941 155.335L137.466 153.52L136.217 151.931L134.742 150.116L133.834 148.981L132.586 147.392L131.791 146.485L131.905 145.917L133.267 144.215L134.855 142.059L135.99 140.584L137.693 138.315L139.281 136.273L141.665 133.095L142.913 131.507L143.934 130.145L145.069 128.67L145.183 127.989L144.275 126.855L143.14 125.38L141.778 123.564L140.189 121.522L138.827 119.706L137.352 117.777L136.217 116.302L135.196 114.941L133.72 113.012L132.699 111.65L131.791 110.515V110.062H132.018L132.245 109.608L133.72 107.792L134.969 106.204L136.444 104.388L137.693 102.8L139.168 100.984L140.416 99.3955L141.438 98.1474L144.615 94.176L145.864 92.5875L147.112 91.1124L148.247 89.6373L149.268 88.3892L150.176 87.368Z" fill="#C8CED1"/>
</svg>