<svg width="256" height="256" title="Vike" viewBox="0 0 256 256" fill="none" xmlns="http://www.w3.org/2000/svg" id="vike">
<style>
#vike {
    rect {fill: #15191C}

    @media (prefers-color-scheme: light) {
        rect {fill: #F4F2ED}
    }
}
</style>
<rect width="256" height="256" rx="40" fill="#15191C"/>
<path d="M59.9033 91.4878V104.741L134.347 184.05L146.532 185.707L171.436 182.714L210.288 142.74V126.12L140.545 54.883L113.236 44.7293L100.892 46.4394L59.9033 91.4878Z" fill="#8F8F8F"/>
<path d="M54.4261 197.475C48.1586 190.799 46.1398 185.877 49.813 186.222C53.482 186.57 61.2131 192.037 67.4806 198.712C73.7481 205.389 75.7669 210.311 72.0979 209.966C68.4247 209.617 60.6933 204.151 54.4261 197.475Z" fill="#A6A6A6"/>
<path fill-rule="evenodd" clip-rule="evenodd" d="M75.3979 210.513C74.571 211.828 73.0464 212.047 71.912 211.941C70.6356 211.819 69.2049 211.288 67.7853 210.582C66.3305 209.858 64.735 208.875 63.0899 207.713C59.799 205.386 56.1993 202.261 52.9803 198.832C49.8015 195.446 47.5266 192.333 46.5568 189.967C46.114 188.887 45.7056 187.409 46.2896 186.091C46.5196 185.572 46.8412 185.187 47.2124 184.906L54.653 176.736L82.8065 202.378L75.3979 210.513Z" fill="url(#linearGradient1)"/>
<path fill-rule="evenodd" clip-rule="evenodd" d="M82.4495 199.109C82.2077 199.595 81.6517 199.821 80.7607 199.737C77.0914 199.388 69.3603 193.922 63.0932 187.246C57.7976 181.61 55.5341 177.222 57.1697 176.203L87.9233 142.268L113.144 165.239L82.4495 199.109Z" fill="url(#linearGradient2)"/>
<path d="M94.0059 153.138C100.273 159.817 108.004 165.279 111.674 165.628C115.347 165.978 113.328 161.055 107.06 154.375C100.793 147.699 93.0618 142.237 89.3886 141.888C85.7196 141.539 87.7384 146.462 94.0059 153.138Z" fill="#A56C4A"/>
<path fill-rule="evenodd" clip-rule="evenodd" d="M114.824 164.872C114.287 165.784 113.235 166 112.231 165.906C111.134 165.802 109.833 165.333 108.453 164.647C107.056 163.952 105.505 162.998 103.889 161.856C100.656 159.57 97.1062 156.49 93.9298 153.107C90.7737 149.745 88.6006 146.738 87.7006 144.545C87.2718 143.5 87.015 142.365 87.4209 141.449C87.5821 141.085 87.8139 140.813 88.0912 140.616L95.6061 132.36L122.299 156.66L114.824 164.872Z" fill="url(#linearGradient3)"/>
<path d="M102.429 143.894C108.696 150.571 116.427 156.032 120.1 156.382C123.769 156.731 121.751 151.808 115.483 145.128C109.216 138.452 101.485 132.99 97.8115 132.641C94.1425 132.292 96.1614 137.215 102.429 143.894Z" fill="#9E9E9E"/>
<path d="M210.995 126.211V126.804L187.539 124.564L112.15 44.4461L112.93 44L140.581 54.2433L210.995 126.211Z" fill="url(#linearGradient4)"/>
<path d="M171.688 183.486L146.617 186.39L146.402 186.234L187.759 140.642H188.003L211 142.686V143L171.688 183.486Z" fill="#B6B6B6"/>
<path d="M100.598 45.6756L112.926 44.0022L113.841 45.0557L99.9371 52.5901L100.598 45.6756Z" fill="#E5E5E5"/>
<path d="M59.1413 97.6417L59.141 104.619L134.29 184.674L134.65 184.74V176.162L59.494 97.2601L59.1413 97.6417Z" fill="#8B8A8B"/>
<path d="M100.601 45.6598L59.1399 91.1761V98.4985L100.605 53.0482L100.601 45.6598Z" fill="#E2E1E1"/>
<path d="M100.601 45.6756L112.93 44.0022L100.601 52.106V45.6756Z" fill="#E5E5E5"/>
<path d="M101.355 51.6681L100.638 52.119L59.1382 97.6249L134.892 178.285L176.979 132.129L101.355 51.6681Z" fill="url(#linearGradient5)"/>
<path d="M140.162 103.233L123.284 91.2335C123.006 91.0389 122.637 91.0709 122.387 91.3127L106.853 106.486C106.488 106.846 106.54 107.477 106.953 107.75L111.788 110.94C112.244 111.241 112.252 111.947 111.804 112.273L104.922 117.306C104.457 117.644 104.489 118.393 104.981 118.667L108.142 120.444C108.635 120.718 108.666 121.464 108.202 121.805L97.365 129.686C96.6868 130.178 97.1312 131.309 97.9245 131.114L98.4519 130.983L132.906 118.036C133.481 117.818 133.589 116.985 133.085 116.624L128.258 113.173C127.805 112.848 127.837 112.114 128.317 111.821L140.106 104.586C140.586 104.292 140.618 103.558 140.162 103.233Z" fill="url(#linearGradient6)"/>
<path d="M146.618 186.388L134.289 184.712V177.574L134.433 177.425L146.816 186.223L146.618 186.388Z" fill="#939493"/>
<path d="M188.076 124.057L175.747 132.161L100.598 52.1052L112.926 44.0022L188.076 124.057Z" fill="url(#linearGradient7)"/>
<path d="M210.988 143.005L187.831 140.862V124.047L210.988 126.186V143.005Z" fill="#F2F2F2"/>
<path d="M188.061 140.857L146.618 186.388L134.27 177.668L175.873 132.048L188.062 140.559L188.061 140.857Z" fill="#9B9B9B"/>
<path d="M188.079 140.871V124.057L187.98 123.919L175.67 132.035L175.75 132.161L188.079 140.871Z" fill="#A7A6A7"/>
<path fill-rule="evenodd" clip-rule="evenodd" d="M57.3776 176.025C57.3776 176.718 57.4302 176.86 57.6215 177.571C57.7757 178.145 58.0826 179.019 58.6916 180.171C59.9099 182.475 62.3398 185.89 67.1819 190.221C72.0278 194.555 75.7688 196.79 78.2755 197.941C79.5289 198.516 80.4747 198.821 81.097 198.98C81.4084 199.06 81.6391 199.104 81.7871 199.128C82.029 199.166 82.2135 199.15 82.4282 199.15C82.2708 199.412 81.8323 199.94 81.6467 200.133C81.4612 200.326 80.9563 200.186 80.7509 200.133C80.057 199.955 79.0945 199.626 77.7792 199.023C75.1485 197.815 71.3095 195.509 66.3885 191.108C61.4633 186.703 58.9365 183.18 57.6397 180.727C56.9911 179.5 56.6507 178.543 56.4723 177.879C56.383 177.548 56.3726 177.469 56.3461 177.287C56.2755 176.804 56.9363 176.279 57.3776 176.025Z" fill="#E4E4E4"/>
<linearGradient id="linearGradient1" x1="59.4424" y1="75.1273" x2="191.106" y2="188.494" gradientUnits="userSpaceOnUse">
<stop stop-color="#C4C4C4"/>
<stop offset="0.25" stop-color="#F8F8F8"/>
<stop offset="0.46763" stop-color="#A6A6A6"/>
<stop offset="0.68" stop-color="#B8B8B8"/>
<stop offset="1" stop-color="#A9AAA9"/>
</linearGradient>
<linearGradient id="linearGradient2" x1="100.837" y1="92.9926" x2="170.369" y2="156.71" gradientUnits="userSpaceOnUse">
<stop stop-color="#A67333"/>
<stop offset="0.235" stop-color="#AE7C3F"/>
<stop offset="0.47" stop-color="#C6832F"/>
<stop offset="0.715" stop-color="#E3983D"/>
<stop offset="1" stop-color="#E79934"/>
</linearGradient>
<linearGradient id="linearGradient3" x1="46.0136" y1="87.7967" x2="163.695" y2="204.676" gradientUnits="userSpaceOnUse">
<stop stop-color="#D5D5D4"/>
<stop offset="0.49" stop-color="#7D7E7C"/>
<stop offset="1" stop-color="#838283"/>
</linearGradient>
<linearGradient id="linearGradient4" x1="80.7072" y1="44.0044" x2="230.408" y2="183.853" gradientUnits="userSpaceOnUse">
<stop stop-color="#AFAFAF"/>
<stop offset="1" stop-color="#BFBEBF"/>
</linearGradient>
<linearGradient id="linearGradient5" x1="110.46" y1="57.5099" x2="158.38" y2="198.598" gradientUnits="userSpaceOnUse">
<stop stop-color="#BABAB9"/>
<stop offset="1" stop-color="#8F8F8F"/>
</linearGradient>
<linearGradient id="linearGradient6" x1="204.942" y1="96.0076" x2="34.8452" y2="158.978" gradientUnits="userSpaceOnUse">
<stop stop-color="#FBCC56"/>
<stop offset="1" stop-color="#FEAD01"/>
</linearGradient>
<linearGradient id="linearGradient7" x1="65.8522" y1="44.0016" x2="198.276" y2="193.832" gradientUnits="userSpaceOnUse">
<stop stop-color="#E4E3E4"/>
<stop offset="1" stop-color="#ADADAC"/>
</linearGradient>
</svg>