<svg width="256" height="256" title="VirtualBox" viewBox="0 0 256 256" fill="none" xmlns="http://www.w3.org/2000/svg" id="virtualbox">
<style>
#virtualbox {
    rect {fill: #15191C}

    @media (prefers-color-scheme: light) {
        rect {fill: #F4F2ED}
    }
}
</style>
<rect width="256" height="256" rx="40" fill="#15191C"/>
<path d="M149.855 64L134.855 115.65H203V82.5449C203 77.0664 200.656 72.1152 196.906 68.7461C195.324 67.3105 193.537 66.168 191.604 65.377C189.436 64.4687 186.887 64 184.543 64H149.855ZM163.039 81.5781H184.777C185.158 81.5781 185.48 81.9004 185.48 82.2813V98.1016H158.264L163.039 81.5781Z" fill="#F29111"/>
<path d="M53 64L85.4023 178.229C86.2227 181.07 86.9551 182.564 88.0391 184.146C88.4199 184.732 88.8594 185.26 89.2988 185.787C90.3828 187.076 91.6133 188.16 92.9902 189.068C94.5137 190.094 96.0371 190.855 97.7656 191.412C99.7871 192.057 101.574 192.262 103.977 192.262H131.018L143 150.836H185.48V173.98C185.48 174.361 185.158 174.684 184.777 174.684H154.279L149.182 192.262H184.514C189.318 192.262 193.479 190.562 196.701 187.721C200.568 184.322 203 179.518 203 173.746V133.258H129.758L117.775 174.684H102.629L76.2324 81.5781H94.4844L104.152 115.65H122.375L107.727 64H53Z" fill="#00758A"/>
</svg>