<svg width="256" height="256" title="Visual Studio Code Insiders" viewBox="0 0 256 256" fill="none" xmlns="http://www.w3.org/2000/svg" id="vscodeinsiders">
<style>
#vscodeinsiders {
    rect {fill: #15191C}

    @media (prefers-color-scheme: light) {
        rect {fill: #F4F2ED}
    }
}
</style>
<rect width="256" height="256" rx="40" fill="#15191C"/>
<path d="M152.716 57.6975C155.824 54.8662 160.819 57.0692 160.819 61.272V96.1938L114.537 132.836L90.7031 114.769L152.716 57.6975Z" fill="#009A7C"/>
<path d="M73.2169 131.7L53.105 149.024C50.2954 151.586 50.2986 156.008 53.113 158.564L61.6474 166.318C63.948 168.407 67.4132 168.562 69.8903 166.683L93.0481 149.768L73.2169 131.7Z" fill="#009A7C"/>
<path d="M160.819 159.805L69.8903 89.3154C67.4132 87.4369 63.948 87.5911 61.6474 89.6807L53.113 97.4345C50.2986 99.9918 50.2954 104.412 53.105 106.974L152.702 198.244C155.808 201.091 160.819 198.888 160.819 194.677V159.805Z" fill="#00B294"/>
<path d="M168.602 204.046C164.907 205.823 160.491 205.072 157.592 202.174C161.165 205.744 167.273 203.215 167.273 198.166V57.8333C167.273 52.7842 161.165 50.2556 157.592 53.8259C160.491 50.9283 164.906 50.1774 168.602 51.9534L200.514 67.2892C203.868 68.9007 206 72.29 206 76.0082V179.992C206 183.71 203.868 187.1 200.514 188.711L168.602 204.046Z" fill="#24BFA5"/>
</svg>