<svg xmlns="http://www.w3.org/2000/svg" width="256" height="256" fill="none" viewBox="0 0 256 256">
    <rect width="256" height="256" fill="#F4F2ED" rx="60"/>
    <g transform="translate(128, 128) scale(0.16) translate(-500, -512)">
        <path d="M987.68 110.336L777.024 8.992a63.68 63.68 0 0 0-72.832 12.32L300.704 389.472 124.864 256.128a42.56 42.56 0 0 0-54.496 2.336L14.048 309.792a42.56 42.56 0 0 0-0.16 63.008L166.4 511.968 13.888 651.136a42.56 42.56 0 0 0 0.16 63.008l56.32 51.328a42.56 42.56 0 0 0 54.496 2.336l175.84-133.504 403.68 368.32a63.424 63.424 0 0 0 72.672 12.32l210.848-101.504a63.776 63.776 0 0 0 36.16-57.664V167.936c0-24.512-14.176-47.008-36.32-57.664z m-219.52 634.176L461.824 512l306.336-232.512z"
              fill="#1890ff">
        </path>
    </g>
</svg>