<svg width="256" height="256" title="Vivaldi" viewBox="0 0 256 256" fill="none" xmlns="http://www.w3.org/2000/svg">
<rect width="256" height="256" rx="40" fill="#EF3939"/>
<path d="M188.085 67.8397C154.916 34.7201 101.097 34.7201 67.8771 67.8397C34.7076 100.959 34.7076 154.629 67.8771 187.699C101.047 220.819 154.866 220.819 188.085 187.699C221.305 154.579 221.305 100.909 188.085 67.8397ZM182.998 106.795C168.982 131.086 154.966 155.377 140.95 179.718C138.356 184.257 134.565 186.951 129.378 187.35C123.592 187.749 119.003 185.305 116.06 180.317C107.182 165.104 98.4031 149.791 89.6244 134.528C84.2873 125.25 78.9004 115.973 73.5633 106.646C68.1764 97.2683 74.2616 85.846 85.0355 85.2974C90.7217 84.9981 95.1111 87.6417 98.004 92.5797C101.944 99.3134 105.835 106.147 109.775 112.93C112.619 117.818 115.362 122.756 118.255 127.545C122.445 134.578 128.63 138.518 136.86 139.017C148.482 139.715 159.305 131.286 160.702 118.966C160.802 118.068 160.852 117.12 160.901 116.671C160.852 112.681 160.103 109.289 158.507 106.147C154.168 97.4678 158.807 87.7414 168.234 85.6465C175.915 83.9506 183.896 89.587 184.893 97.3681C185.392 100.71 184.694 103.852 182.998 106.795Z" fill="white"/>
</svg>