<svg width="256" height="256" title="VMware" viewBox="0 0 256 256" fill="none" xmlns="http://www.w3.org/2000/svg" id="vmware">
<style>
#vmware {
    rect {fill: #15191C}

    @media (prefers-color-scheme: light) {
        rect {fill: #F4F2ED}
    }
}
</style>
<rect width="256" height="256" rx="40" fill="#15191C"/>
<path d="M108.427 55.006C103.743 55.006 99.251 56.8666 95.9391 60.1785C92.6273 63.4904 90.7667 67.9822 90.7667 72.6659V150.369C90.7667 155.053 92.6273 159.545 95.9391 162.857C97.579 164.496 99.5258 165.797 101.668 166.685C103.811 167.572 106.107 168.029 108.427 168.029H185.334C187.654 168.03 189.951 167.574 192.094 166.686C194.237 165.799 196.185 164.499 197.825 162.859C199.466 161.219 200.767 159.272 201.655 157.129C202.543 154.986 203 152.689 203 150.369V72.6599C203 67.9762 201.139 63.4844 197.828 60.1725C194.516 56.8606 190.024 55 185.34 55H108.433L108.427 55.006ZM183.399 137.597C183.399 143.233 178.831 147.801 173.195 147.801H120.578C119.237 147.802 117.909 147.539 116.671 147.027C115.432 146.514 114.306 145.763 113.358 144.815C112.41 143.867 111.658 142.742 111.145 141.504C110.631 140.265 110.367 138.938 110.367 137.597V85.4316C110.367 79.8022 114.936 75.2335 120.571 75.2335H173.189C178.825 75.2335 183.393 79.8022 183.393 85.4316V137.597H183.399Z" fill="#068BEF"/>
<path d="M70.6599 87.969C65.9762 87.969 61.4843 89.8296 58.1725 93.1415C54.8606 96.4533 53 100.945 53 105.629V182.94C53 187.624 54.8606 192.116 58.1725 195.428C61.4843 198.74 65.9762 200.6 70.6599 200.6H147.971C152.655 200.6 157.147 198.74 160.459 195.428C163.771 192.116 165.631 187.624 165.631 182.94V105.629C165.631 100.945 163.771 96.4534 160.459 93.1415C157.147 89.8297 152.655 87.969 147.971 87.969H70.6599ZM145.826 170.362C145.826 175.997 141.257 180.572 135.621 180.572H83.0036C81.6631 180.572 80.3357 180.308 79.0973 179.794C77.8588 179.281 76.7337 178.529 75.786 177.581C74.8384 176.633 74.0869 175.507 73.5744 174.268C73.062 173.03 72.7986 171.702 72.7994 170.362V118.202C72.7994 112.566 77.3681 107.998 83.0036 107.998H135.621C141.257 107.998 145.826 112.56 145.826 118.196V170.362Z" fill="#FF8B02"/>
<path d="M144.946 147.801H166.119V168.023H144.94L144.946 147.801Z" fill="#068BEF"/>
<path d="M110.367 107.998L90.7667 119.311V107.998H110.367Z" fill="#057EAF"/>
<path d="M145.826 168.023L165.625 178.727V168.023H145.826Z" fill="#D77D06"/>
</svg>