<svg width="256" height="256" title="VuePress" viewBox="0 0 256 256" fill="none" xmlns="http://www.w3.org/2000/svg" id="vuepress">
<style>
#vuepress {
    rect {fill: #15191C}

    @media (prefers-color-scheme: light) {
        rect {fill: #F4F2ED}
    }
}
</style>
<rect width="256" height="256" rx="40" fill="#15191C"/>
<path d="M189.131 189.809C189.131 189.809 188.243 193.903 186.112 194.436L81.853 216.863C78.656 217.575 75.459 215.439 74.7485 212.235C47.2184 84.7967 47.0408 87.6445 48.4617 84.4407C50.9483 81.415 48.2841 82.6609 147.392 68.5999C149.879 68.2439 152.366 69.8458 153.254 72.3376L188.954 187.851C189.131 188.563 189.131 189.809 189.131 189.809Z" fill="url(#paint0_linear_6_2)"/>
<path d="M48.284 86.5766C47.9288 84.6187 49.1721 82.6609 51.1258 82.3049L147.392 68.5999C149.879 68.2439 152.366 69.8458 153.254 72.3376L188.954 187.851C189.664 189.987 188.421 192.123 186.29 192.835C186.112 192.835 186.112 192.835 185.934 193.013L82.741 214.905C79.544 215.617 76.3469 213.481 75.6365 210.455L48.284 86.5766Z" fill="url(#paint1_linear_6_2)"/>
<path d="M195.17 177.172L93.7531 198.53C90.5561 199.242 87.5366 197.284 86.8262 194.08C56.2767 69.8458 56.2767 72.6936 57.52 69.4898C57.52 69.4898 59.1185 67.176 60.5394 66.998L153.254 54.361C155.74 54.005 158.049 55.4289 158.937 57.9207L198.367 170.764C199.255 172.544 197.124 176.816 195.17 177.172Z" fill="url(#paint2_linear_6_2)"/>
<path d="M57.52 71.4477C56.9872 69.4898 58.2305 67.532 60.1842 66.998L153.254 54.361C155.74 54.005 158.049 55.4289 158.937 57.9207L198.367 170.764C199.078 172.9 198.012 175.036 195.881 175.748L94.8188 196.928C91.6218 197.64 88.6023 195.682 87.8919 192.479C87.7143 192.479 57.52 71.4477 57.52 71.4477Z" fill="url(#paint3_linear_6_2)"/>
<path d="M204.229 160.975L105.298 181.443C102.279 182.155 99.0815 180.198 98.371 177.172C66.223 55.4289 66.0454 58.0987 67.6439 55.0729C67.6439 55.0729 69.0648 52.5811 70.6634 52.4031L162.845 39.0541C165.331 38.6982 167.818 40.122 168.528 42.6139L207.781 154.389C208.491 156.169 206.538 160.441 204.229 160.975Z" fill="url(#paint4_linear_6_2)"/>
<path d="M67.6439 57.0308C67.111 55.0729 68.3543 53.1151 70.3081 52.5811L162.845 39.0541C165.331 38.6982 167.818 40.122 168.528 42.6139L207.781 154.389C208.491 156.525 207.426 158.661 205.294 159.373L106.008 180.02C102.989 180.731 99.7919 178.774 99.0814 175.748L67.6439 57.0308Z" fill="url(#paint5_linear_6_2)"/>
<path d="M131.585 65.7521L128.033 76.9653L118.441 67.71L96.595 71.2697L138.156 110.961L153.431 62.1924L131.585 65.7521Z" fill="url(#paint6_linear_6_2)"/>
<path d="M131.585 65.7521L128.033 76.9653L118.441 67.71L107.962 69.3119L133.006 93.1621L142.064 64.1503L131.585 65.7521Z" fill="url(#paint7_linear_6_2)"/>
<path d="M168.351 144.956L127.855 152.432C126.079 152.788 124.125 151.542 123.592 149.762L117.553 127.869C117.02 126.268 118.086 124.488 119.685 123.954C120.217 123.954 119.685 123.954 160.358 116.478C162.134 116.122 164.088 117.368 164.621 119.148L170.66 141.04C171.192 142.82 170.304 144.6 168.351 144.956ZM120.573 126.09C120.04 126.268 119.685 126.802 119.685 127.335C125.901 150.118 125.546 150.83 127.144 150.296L167.463 142.82C168.173 142.642 168.351 142.108 168.351 141.574C162.134 118.97 162.489 118.258 160.891 118.792L120.573 126.09ZM129.453 145.134L125.191 129.827L129.631 128.937L135.67 133.565L138.689 127.158L143.13 126.268L147.392 141.574L142.952 142.464L140.465 133.743L137.446 140.151L131.407 135.701L133.894 144.422L129.453 145.134ZM157.694 139.973L148.813 133.921L153.254 133.031L151.122 125.2L155.563 124.31L157.694 132.141L162.134 131.251L157.694 139.973Z" fill="#BCC0CF"/>
<path d="M170.482 143.532C170.482 142.286 170.66 143.532 164.266 120.216C163.733 118.436 161.779 117.19 160.003 117.546C117.376 125.378 118.264 124.844 117.553 126.624C117.731 125.378 118.797 124.31 120.04 123.954L160.358 116.478C162.134 116.122 164.088 117.368 164.621 119.148C171.37 143.354 171.192 141.752 170.482 143.532ZM119.685 127.335C125.901 150.118 125.546 150.83 127.144 150.296C167.995 142.642 167.818 142.642 167.995 142.642C168.528 144.244 169.772 143.354 126.967 151.186C125.368 151.542 125.723 151.008 119.507 128.403C119.329 128.047 119.329 127.691 119.685 127.335ZM129.276 130.183L135.315 134.811L138.334 128.403L142.774 127.513L146.859 141.93L147.392 141.752L143.13 126.446L138.689 127.335L135.67 133.743L129.631 129.115L125.191 130.005C125.368 131.251 124.658 131.073 129.276 130.183ZM131.94 137.303L131.229 136.769L133.361 144.6L133.894 144.422L131.94 137.303ZM161.957 132.141L157.694 132.853L155.562 125.022L151.655 125.734L151.477 124.844L155.918 123.954L158.049 131.785L162.489 130.895L161.957 132.141ZM150.056 134.633L153.253 134.099L153.076 133.209L149.168 133.921C148.991 133.921 150.056 134.633 150.056 134.633Z" fill="black"/>
<linearGradient id="paint0_linear_6_2" x1="46.7736" y1="127.922" x2="209.436" y2="128.07" gradientUnits="userSpaceOnUse">
<stop stop-color="#3E4359"/>
<stop offset="0.299" stop-color="#191C2A"/>
<stop offset="1" stop-color="#1D2130"/>
</linearGradient>
<linearGradient id="paint1_linear_6_2" x1="128.076" y1="38.2814" x2="127.89" y2="218.422" gradientUnits="userSpaceOnUse">
<stop stop-color="#61698B"/>
<stop offset="1" stop-color="#282C41"/>
</linearGradient>
<linearGradient id="paint2_linear_6_2" x1="46.6644" y1="127.919" x2="209.471" y2="128.063" gradientUnits="userSpaceOnUse">
<stop stop-color="#75B17D"/>
<stop offset="0.299" stop-color="#1D6E4B"/>
<stop offset="1" stop-color="#277551"/>
</linearGradient>
<linearGradient id="paint3_linear_6_2" x1="128.073" y1="38.1421" x2="127.882" y2="218.294" gradientUnits="userSpaceOnUse">
<stop stop-color="#9CECA6"/>
<stop offset="1" stop-color="#289365"/>
</linearGradient>
<linearGradient id="paint4_linear_6_2" x1="47.9832" y1="128" x2="208.243" y2="128" gradientUnits="userSpaceOnUse">
<stop stop-color="#DBDBDB"/>
<stop offset="0.299" stop-color="#C8CACC"/>
<stop offset="1" stop-color="#CCCFD0"/>
</linearGradient>
<linearGradient id="paint5_linear_6_2" x1="128" y1="38.3523" x2="128" y2="218.308" gradientUnits="userSpaceOnUse">
<stop stop-color="white"/>
<stop offset="1" stop-color="#EBEEF0"/>
</linearGradient>
<linearGradient id="paint6_linear_6_2" x1="148.16" y1="220.911" x2="114.733" y2="58.5028" gradientUnits="userSpaceOnUse">
<stop stop-color="#329A6B"/>
<stop offset="1" stop-color="#70C98B"/>
</linearGradient>
<linearGradient id="paint7_linear_6_2" x1="148.175" y1="221.772" x2="114.212" y2="58.1101" gradientUnits="userSpaceOnUse">
<stop stop-color="#31374E"/>
<stop offset="1" stop-color="#586080"/>
</linearGradient>
</svg>