<svg width="256" height="256" title="VueUse" viewBox="0 0 256 256" fill="none" xmlns="http://www.w3.org/2000/svg" id="vueuse">
<style>
#vueuse {
    rect {fill: #15191C}

    @media (prefers-color-scheme: light) {
        rect {fill: #F4F2ED}
    }
}
</style>
<rect width="256" height="256" rx="40" fill="#15191C"/>
<path d="M166.069 58V133.23C166.069 154.256 149.026 171.3 128 171.3C106.974 171.3 89.9306 154.256 89.9306 133.23V58H116.863V133.23C116.863 134.693 117.151 136.141 117.711 137.492C118.27 138.844 119.091 140.071 120.125 141.106C121.159 142.14 122.387 142.96 123.738 143.52C125.089 144.08 126.537 144.368 128 144.368C129.463 144.368 130.911 144.08 132.262 143.52C133.613 142.96 134.841 142.14 135.875 141.106C136.909 140.071 137.73 138.844 138.289 137.492C138.849 136.141 139.137 134.693 139.137 133.23V58H166.069Z" fill="#35495E"/>
<path d="M193 58V133.23C193 169.13 163.899 198.24 128 198.24C92.1007 198.24 63 169.13 63 133.23V58H89.9306V133.23C89.9306 154.256 106.976 171.3 128 171.3C149.024 171.3 166.069 154.256 166.069 133.23V58H193Z" fill="#41B883"/>
</svg>