<svg width="256" height="256" title="Weblate" viewBox="0 0 256 256" fill="none" xmlns="http://www.w3.org/2000/svg" id="weblate">
<style>
#weblate {
    rect {fill: #15191C}

    @media (prefers-color-scheme: light) {
        rect {fill: #F4F2ED}
    }
}
</style>
<rect width="256" height="256" rx="40" fill="#15191C"/>
<path d="M150.502 158.861C148.168 158.849 145.842 158.374 143.65 157.419C138.712 155.268 134.363 151.205 130.826 145.707C131.834 143.914 132.744 142.057 133.555 140.17C137.115 131.893 138.807 122.83 138.937 113.834C138.918 113.656 138.904 113.477 138.893 113.297L138.883 112.835C138.875 109.308 138.338 105.733 137.124 102.405C135.726 98.5702 133.497 94.7324 129.961 93.2357C129.319 92.9643 128.643 92.8503 127.97 92.8662C123.522 84.5528 123.381 76.586 127.97 69C128.052 69 128.137 69.0003 128.218 69.001C133.633 69.0606 138.997 70.7316 143.588 73.6499C156.087 81.5966 162.319 97.0827 162.456 112.287C162.458 112.466 162.456 112.644 162.451 112.822H162.521C162.502 128.891 158.638 145.185 150.502 158.861ZM122.787 184.084C111.113 188.885 97.5547 188.628 85.9832 183.256C72.6707 177.076 62.4985 165.066 56.2336 151.356C45.5176 127.907 45.2725 99.8741 55.4352 76.0651C63.0675 79.1183 69.8542 74.2554 69.8542 74.2554C69.8542 74.2554 69.8385 81.7379 77.0841 85.4906C69.6498 102.908 69.829 123.602 77.279 140.575C80.8656 148.741 86.3447 156.346 93.9392 160.647C96.6499 162.182 99.6284 163.173 102.692 163.545C102.704 163.562 102.715 163.58 102.726 163.598C108.137 172.041 114.953 179.077 122.787 184.084Z" fill="url(#linearGradient1)"/>
<path opacity="0.3" fill-rule="evenodd" clip-rule="evenodd" d="M150.498 158.867C148.166 158.855 145.841 158.38 143.65 157.425C138.711 155.273 134.362 151.209 130.824 145.71C131.833 143.916 132.743 142.058 133.555 140.17C134.629 137.674 135.532 135.108 136.274 132.493C137.993 126.434 160.823 134.123 157.34 144.105C155.543 149.254 153.268 154.212 150.498 158.867ZM122.782 184.086C111.109 188.885 97.553 188.627 85.9832 183.256C72.6707 177.076 86.3447 156.346 93.9393 160.647C96.6487 162.181 99.6259 163.172 102.688 163.544C102.701 163.564 102.714 163.584 102.726 163.603C108.136 172.044 114.95 179.079 122.782 184.086Z" fill="url(#linearGradient2)"/>
<path d="M93.5495 112.822C93.5441 112.644 93.542 112.466 93.5438 112.287C93.6812 97.0827 99.9131 81.5966 112.412 73.6499C117.003 70.7316 122.367 69.0606 127.782 69.001C127.863 69.0003 127.948 69 128.03 69V92.8662C127.357 92.8503 126.681 92.9643 126.039 93.2357C122.503 94.7324 120.274 98.5702 118.876 102.405C117.662 105.733 117.125 109.308 117.117 112.835L117.107 113.297C117.096 113.477 117.082 113.656 117.063 113.834C117.193 122.83 118.885 131.893 122.445 140.17C126.431 149.439 132.767 157.966 141.713 161.864C148.462 164.804 155.944 164.111 162.061 160.647C169.655 156.346 175.134 148.741 178.721 140.575C186.171 123.602 186.35 102.908 178.916 85.4906C186.162 81.7379 186.146 74.2554 186.146 74.2554C186.146 74.2554 192.933 79.1183 200.565 76.0651C210.728 99.8741 210.482 127.907 199.766 151.356C193.502 165.066 183.329 177.076 170.017 183.256C158.166 188.757 144.231 188.895 132.371 183.727C121.713 179.082 113.045 170.713 106.808 160.982C97.7758 146.888 93.4985 129.73 93.4794 112.822H93.5495Z" fill="url(#linearGradient3)"/>
<linearGradient id="linearGradient1" x1="48" y1="114.095" x2="126.172" y2="114.095" gradientUnits="userSpaceOnUse">
<stop stop-color="#00D2E6"/>
<stop offset="1" stop-color="#2ECCAA"/>
</linearGradient>
<linearGradient id="linearGradient2" x1="93.7495" y1="164.476" x2="135.215" y2="138.047" gradientUnits="userSpaceOnUse">
<stop stop-opacity="0"/>
<stop offset="0.514125"/>
<stop offset="1" stop-opacity="0"/>
</linearGradient>
<linearGradient id="linearGradient3" x1="208" y1="116.065" x2="129.96" y2="116.065" gradientUnits="userSpaceOnUse">
<stop stop-color="#1FA385"/>
<stop offset="1" stop-color="#2ECCAA"/>
</linearGradient>
</svg>