<svg width="256" height="256" title="WebSocket" viewBox="0 0 256 256" fill="none" xmlns="http://www.w3.org/2000/svg" id="websocket">
<style>
#websocket {
    rect {fill: #15191C}

    @media (prefers-color-scheme: light) {
        rect {fill: #F4F2ED}
    }
}
</style>
<rect width="256" height="256" rx="40" fill="#15191C"/>
<path d="M170.792 160.377H191.896V109.535L168.12 85.6779L153.197 100.651L170.792 118.306V160.377ZM191.952 170.993H161.215H118.339L100.743 153.337L108.205 145.851L122.738 160.433H152.64L123.183 130.821L130.701 123.279L160.157 152.835V122.832L145.679 108.306L153.085 100.875L116.501 64H80.4189H43L64.0481 85.1192V85.175H64.1595H107.704L123.128 100.651L100.576 123.279L85.152 107.803V95.7905H64.0481V116.574L100.576 153.226L85.7088 168.143L109.485 192H145.568H213L191.952 170.993Z" fill="#FF9200"/>
</svg>