<svg width="256" height="256" title="WebStudio" viewBox="0 0 256 256" fill="none" xmlns="http://www.w3.org/2000/svg" id="webstudio">
<style>
#webstudio {
    rect {fill: #15191C}

    @media (prefers-color-scheme: light) {
        rect {fill: #F4F2ED}
    }
}
</style>
<rect width="256" height="256" rx="40" fill="#15191C"/>
<path fill-rule="evenodd" clip-rule="evenodd" d="M177.366 178.466L207.323 86.0738C209.673 78.8299 205.708 71.0339 198.48 68.6821C191.251 66.3304 183.472 70.3 181.125 77.5439L151.167 169.932C148.817 177.176 152.782 184.972 160.01 187.324C167.239 189.679 175.019 185.71 177.366 178.466Z" fill="url(#paint0_linear_6_2)"/>
<path fill-rule="evenodd" clip-rule="evenodd" d="M177.366 178.466L207.323 86.0738C209.673 78.8299 205.708 71.0339 198.48 68.6821C191.251 66.3304 183.472 70.3 181.125 77.5439L151.167 169.932C148.817 177.176 152.782 184.972 160.01 187.324C167.239 189.679 175.019 185.71 177.366 178.466Z" fill="url(#paint1_linear_6_2)"/>
<path fill-rule="evenodd" clip-rule="evenodd" d="M177.366 178.466L207.323 86.0738C209.673 78.8299 205.708 71.0339 198.48 68.6821C191.251 66.3304 183.472 70.3 181.125 77.5439L151.167 169.932C148.817 177.176 152.782 184.972 160.01 187.324C167.239 189.679 175.019 185.71 177.366 178.466Z" fill="url(#paint2_linear_6_2)" fill-opacity="0.8"/>
<path fill-rule="evenodd" clip-rule="evenodd" d="M177.366 178.466L207.323 86.0738C209.673 78.8299 205.708 71.0339 198.48 68.6821C191.251 66.3304 183.472 70.3 181.125 77.5439L151.167 169.932C148.817 177.176 152.782 184.972 160.01 187.324C167.239 189.679 175.019 185.71 177.366 178.466Z" fill="url(#paint3_radial_6_2)"/>
<path fill-rule="evenodd" clip-rule="evenodd" d="M177.366 178.466L207.323 86.0738C209.673 78.8299 205.708 71.0339 198.48 68.6821C191.251 66.3304 183.472 70.3 181.125 77.5439L151.167 169.932C148.817 177.176 152.782 184.972 160.01 187.324C167.239 189.679 175.019 185.71 177.366 178.466Z" fill="url(#paint4_radial_6_2)"/>
<path fill-rule="evenodd" clip-rule="evenodd" d="M177.366 178.466L207.323 86.0738C209.673 78.8299 205.708 71.0339 198.48 68.6821C191.251 66.3304 183.472 70.3 181.125 77.5439L151.167 169.932C148.817 177.176 152.782 184.972 160.01 187.324C167.239 189.679 175.019 185.71 177.366 178.466Z" fill="url(#paint5_radial_6_2)"/>
<path fill-rule="evenodd" clip-rule="evenodd" d="M127.996 123.705C131.396 123.705 133.903 125.7 136.04 128.202C138.416 130.987 140.312 134.44 141.923 138.105C149.166 154.56 150.523 175.146 150.523 175.146C151.042 182.746 157.622 188.491 165.207 187.97C172.791 187.449 178.523 180.852 178.004 173.255C178.004 173.255 176.184 147.543 167.128 126.965C159.362 109.318 146.213 96.0988 127.999 96.0988C109.787 96.0988 96.6369 109.318 88.8713 126.965C79.8119 147.543 77.9951 173.255 77.9951 173.255C77.4755 180.855 83.2082 187.449 90.7926 187.97C98.377 188.491 104.957 182.746 105.477 175.146C105.477 175.146 106.833 154.564 114.075 138.105C115.687 134.443 117.584 130.987 119.958 128.202C122.092 125.7 124.6 123.705 127.996 123.705Z" fill="#E63CFE"/>
<path fill-rule="evenodd" clip-rule="evenodd" d="M127.996 123.705C131.396 123.705 133.903 125.7 136.04 128.202C138.416 130.987 140.312 134.44 141.923 138.105C149.166 154.56 150.523 175.146 150.523 175.146C151.042 182.746 157.622 188.491 165.207 187.97C172.791 187.449 178.523 180.852 178.004 173.255C178.004 173.255 176.184 147.543 167.128 126.965C159.362 109.318 146.213 96.0988 127.999 96.0988C109.787 96.0988 96.6369 109.318 88.8713 126.965C79.8119 147.543 77.9951 173.255 77.9951 173.255C77.4755 180.855 83.2082 187.449 90.7926 187.97C98.377 188.491 104.957 182.746 105.477 175.146C105.477 175.146 106.833 154.564 114.075 138.105C115.687 134.443 117.584 130.987 119.958 128.202C122.092 125.7 124.6 123.705 127.996 123.705Z" fill="url(#paint6_radial_6_2)"/>
<path fill-rule="evenodd" clip-rule="evenodd" d="M127.996 123.705C131.396 123.705 133.903 125.7 136.04 128.202C138.416 130.987 140.312 134.44 141.923 138.105C149.166 154.56 150.523 175.146 150.523 175.146C151.042 182.746 157.622 188.491 165.207 187.97C172.791 187.449 178.523 180.852 178.004 173.255C178.004 173.255 176.184 147.543 167.128 126.965C159.362 109.318 146.213 96.0988 127.999 96.0988C109.787 96.0988 96.6369 109.318 88.8713 126.965C79.8119 147.543 77.9951 173.255 77.9951 173.255C77.4755 180.855 83.2082 187.449 90.7926 187.97C98.377 188.491 104.957 182.746 105.477 175.146C105.477 175.146 106.833 154.564 114.075 138.105C115.687 134.443 117.584 130.987 119.958 128.202C122.092 125.7 124.6 123.705 127.996 123.705Z" fill="url(#paint7_radial_6_2)"/>
<path fill-rule="evenodd" clip-rule="evenodd" d="M127.996 123.705C131.396 123.705 133.903 125.7 136.04 128.202C138.416 130.987 140.312 134.44 141.923 138.105C149.166 154.56 150.523 175.146 150.523 175.146C151.042 182.746 157.622 188.491 165.207 187.97C172.791 187.449 178.523 180.852 178.004 173.255C178.004 173.255 176.184 147.543 167.128 126.965C159.362 109.318 146.213 96.0988 127.999 96.0988C109.787 96.0988 96.6369 109.318 88.8713 126.965C79.8119 147.543 77.9951 173.255 77.9951 173.255C77.4755 180.855 83.2082 187.449 90.7926 187.97C98.377 188.491 104.957 182.746 105.477 175.146C105.477 175.146 106.833 154.564 114.075 138.105C115.687 134.443 117.584 130.987 119.958 128.202C122.092 125.7 124.6 123.705 127.996 123.705Z" fill="url(#paint8_radial_6_2)"/>
<path fill-rule="evenodd" clip-rule="evenodd" d="M127.996 123.705C131.396 123.705 133.903 125.7 136.04 128.202C138.416 130.987 140.312 134.44 141.923 138.105C149.166 154.56 150.523 175.146 150.523 175.146C151.042 182.746 157.622 188.491 165.207 187.97C172.791 187.449 178.523 180.852 178.004 173.255C178.004 173.255 176.184 147.543 167.128 126.965C159.362 109.318 146.213 96.0988 127.999 96.0988C109.787 96.0988 96.6369 109.318 88.8713 126.965C79.8119 147.543 77.9951 173.255 77.9951 173.255C77.4755 180.855 83.2082 187.449 90.7926 187.97C98.377 188.491 104.957 182.746 105.477 175.146C105.477 175.146 106.833 154.564 114.075 138.105C115.687 134.443 117.584 130.987 119.958 128.202C122.092 125.7 124.6 123.705 127.996 123.705Z" fill="url(#paint9_radial_6_2)"/>
<path fill-rule="evenodd" clip-rule="evenodd" d="M127.996 123.705C131.396 123.705 133.903 125.7 136.04 128.202C138.416 130.987 140.312 134.44 141.923 138.105C149.166 154.56 150.523 175.146 150.523 175.146C151.042 182.746 157.622 188.491 165.207 187.97C172.791 187.449 178.523 180.852 178.004 173.255C178.004 173.255 176.184 147.543 167.128 126.965C159.362 109.318 146.213 96.0988 127.999 96.0988C109.787 96.0988 96.6369 109.318 88.8713 126.965C79.8119 147.543 77.9951 173.255 77.9951 173.255C77.4755 180.855 83.2082 187.449 90.7926 187.97C98.377 188.491 104.957 182.746 105.477 175.146C105.477 175.146 106.833 154.564 114.075 138.105C115.687 134.443 117.584 130.987 119.958 128.202C122.092 125.7 124.6 123.705 127.996 123.705Z" fill="url(#paint10_radial_6_2)"/>
<path fill-rule="evenodd" clip-rule="evenodd" d="M127.996 123.705C131.396 123.705 133.903 125.7 136.04 128.202C138.416 130.987 140.312 134.44 141.923 138.105C149.166 154.56 150.523 175.146 150.523 175.146C151.042 182.746 157.622 188.491 165.207 187.97C172.791 187.449 178.523 180.852 178.004 173.255C178.004 173.255 176.184 147.543 167.128 126.965C159.362 109.318 146.213 96.0988 127.999 96.0988C109.787 96.0988 96.6369 109.318 88.8713 126.965C79.8119 147.543 77.9951 173.255 77.9951 173.255C77.4755 180.855 83.2082 187.449 90.7926 187.97C98.377 188.491 104.957 182.746 105.477 175.146C105.477 175.146 106.833 154.564 114.075 138.105C115.687 134.443 117.584 130.987 119.958 128.202C122.092 125.7 124.6 123.705 127.996 123.705Z" fill="url(#paint11_radial_6_2)"/>
<path fill-rule="evenodd" clip-rule="evenodd" d="M127.996 123.705C131.396 123.705 133.903 125.7 136.04 128.202C138.416 130.987 140.312 134.44 141.923 138.105C149.166 154.56 150.523 175.146 150.523 175.146C151.042 182.746 157.622 188.491 165.207 187.97C172.791 187.449 178.523 180.852 178.004 173.255C178.004 173.255 176.184 147.543 167.128 126.965C159.362 109.318 146.213 96.0988 127.999 96.0988C109.787 96.0988 96.6369 109.318 88.8713 126.965C79.8119 147.543 77.9951 173.255 77.9951 173.255C77.4755 180.855 83.2082 187.449 90.7926 187.97C98.377 188.491 104.957 182.746 105.477 175.146C105.477 175.146 106.833 154.564 114.075 138.105C115.687 134.443 117.584 130.987 119.958 128.202C122.092 125.7 124.6 123.705 127.996 123.705Z" fill="url(#paint12_radial_6_2)"/>
<path fill-rule="evenodd" clip-rule="evenodd" d="M127.996 123.705C131.396 123.705 133.903 125.7 136.04 128.202C138.416 130.987 140.312 134.44 141.923 138.105C149.166 154.56 150.523 175.146 150.523 175.146C151.042 182.746 157.622 188.491 165.207 187.97C172.791 187.449 178.523 180.852 178.004 173.255C178.004 173.255 176.184 147.543 167.128 126.965C159.362 109.318 146.213 96.0988 127.999 96.0988C109.787 96.0988 96.6369 109.318 88.8713 126.965C79.8119 147.543 77.9951 173.255 77.9951 173.255C77.4755 180.855 83.2082 187.449 90.7926 187.97C98.377 188.491 104.957 182.746 105.477 175.146C105.477 175.146 106.833 154.564 114.075 138.105C115.687 134.443 117.584 130.987 119.958 128.202C122.092 125.7 124.6 123.705 127.996 123.705Z" fill="url(#paint13_radial_6_2)"/>
<path fill-rule="evenodd" clip-rule="evenodd" d="M104.833 169.932L74.8755 77.5403C72.5287 70.2965 64.7525 66.3234 57.5203 68.6786C50.2917 71.0338 46.3269 78.8263 48.6772 86.0702L78.6345 178.462C80.9848 185.706 88.761 189.679 95.9897 187.324C103.218 184.968 107.183 177.176 104.833 169.932Z" fill="url(#paint14_linear_6_2)"/>
<path fill-rule="evenodd" clip-rule="evenodd" d="M104.833 169.932L74.8755 77.5403C72.5287 70.2965 64.7525 66.3234 57.5203 68.6786C50.2917 71.0338 46.3269 78.8263 48.6772 86.0702L78.6345 178.462C80.9848 185.706 88.761 189.679 95.9897 187.324C103.218 184.968 107.183 177.176 104.833 169.932Z" fill="url(#paint15_radial_6_2)"/>
<path fill-rule="evenodd" clip-rule="evenodd" d="M104.833 169.932L74.8755 77.5403C72.5287 70.2965 64.7525 66.3234 57.5203 68.6786C50.2917 71.0338 46.3269 78.8263 48.6772 86.0702L78.6345 178.462C80.9848 185.706 88.761 189.679 95.9897 187.324C103.218 184.968 107.183 177.176 104.833 169.932Z" fill="url(#paint16_linear_6_2)"/>
<path fill-rule="evenodd" clip-rule="evenodd" d="M104.833 169.932L74.8755 77.5403C72.5287 70.2965 64.7525 66.3234 57.5203 68.6786C50.2917 71.0338 46.3269 78.8263 48.6772 86.0702L78.6345 178.462C80.9848 185.706 88.761 189.679 95.9897 187.324C103.218 184.968 107.183 177.176 104.833 169.932Z" fill="url(#paint17_radial_6_2)"/>
<path fill-rule="evenodd" clip-rule="evenodd" d="M104.833 169.932L74.8755 77.5403C72.5287 70.2965 64.7525 66.3234 57.5203 68.6786C50.2917 71.0338 46.3269 78.8263 48.6772 86.0702L78.6345 178.462C80.9848 185.706 88.761 189.679 95.9897 187.324C103.218 184.968 107.183 177.176 104.833 169.932Z" fill="url(#paint18_radial_6_2)"/>
<linearGradient id="paint0_linear_6_2" x1="223.346" y1="37.7347" x2="178.486" y2="182.792" gradientUnits="userSpaceOnUse">
<stop stop-color="#4A4EFA"/>
<stop offset="0.548576" stop-color="#E63CFE"/>
</linearGradient>
<linearGradient id="paint1_linear_6_2" x1="167.004" y1="121.356" x2="192.417" y2="129.581" gradientUnits="userSpaceOnUse">
<stop offset="0.160046" stop-color="#4A4EFA"/>
<stop offset="0.946031" stop-color="#4A4EFA" stop-opacity="0"/>
</linearGradient>
<linearGradient id="paint2_linear_6_2" x1="170.855" y1="109.159" x2="186.823" y2="114.266" gradientUnits="userSpaceOnUse">
<stop stop-color="#39FBBB"/>
<stop offset="1" stop-color="#39FBBB" stop-opacity="0"/>
</linearGradient>
<radialGradient id="paint3_radial_6_2" cx="0" cy="0" r="1" gradientUnits="userSpaceOnUse" gradientTransform="translate(164.955 142.944) rotate(-64.1652) scale(83.2614 83.2607)">
<stop offset="0.832168" stop-color="#4A4EFA" stop-opacity="0"/>
<stop offset="1" stop-color="#4A4EFA" stop-opacity="0.75"/>
</radialGradient>
<radialGradient id="paint4_radial_6_2" cx="0" cy="0" r="1" gradientUnits="userSpaceOnUse" gradientTransform="translate(163.34 137.449) scale(18.5627 39.699)">
<stop offset="0.169047" stop-color="#11417A"/>
<stop offset="0.926198" stop-color="#4069D4" stop-opacity="0"/>
</radialGradient>
<radialGradient id="paint5_radial_6_2" cx="0" cy="0" r="1" gradientUnits="userSpaceOnUse" gradientTransform="translate(184.827 188.002) rotate(-90) scale(61.3989 29.426)">
<stop offset="0.34895" stop-color="#E63CFE"/>
<stop offset="1" stop-color="#E63CFE" stop-opacity="0"/>
</radialGradient>
<radialGradient id="paint6_radial_6_2" cx="0" cy="0" r="1" gradientUnits="userSpaceOnUse" gradientTransform="translate(123.331 144.558) rotate(-85.7675) scale(63.2589 56.169)">
<stop stop-color="#39FBBB" stop-opacity="0.5"/>
<stop offset="0.688731" stop-color="#39FBBB"/>
<stop offset="1" stop-color="#39FBBB" stop-opacity="0"/>
</radialGradient>
<radialGradient id="paint7_radial_6_2" cx="0" cy="0" r="1" gradientUnits="userSpaceOnUse" gradientTransform="translate(213.46 180.174) rotate(-122.629) scale(151.655 36.895)">
<stop stop-color="#E63CFE"/>
<stop offset="1" stop-color="#E63CFE" stop-opacity="0"/>
</radialGradient>
<radialGradient id="paint8_radial_6_2" cx="0" cy="0" r="1" gradientUnits="userSpaceOnUse" gradientTransform="translate(125.845 164.083) rotate(-85.0199) scale(68.2416 58.7013)">
<stop offset="0.556793" stop-color="#4A4EFA"/>
<stop offset="0.934777" stop-color="#4A4EFA" stop-opacity="0"/>
</radialGradient>
<radialGradient id="paint9_radial_6_2" cx="0" cy="0" r="1" gradientUnits="userSpaceOnUse" gradientTransform="translate(107.34 184.737) rotate(-68.6369) scale(71.266 42.5294)">
<stop offset="0.61345" stop-color="#E63CFE"/>
<stop offset="1" stop-color="#E63CFE" stop-opacity="0"/>
</radialGradient>
<radialGradient id="paint10_radial_6_2" cx="0" cy="0" r="1" gradientUnits="userSpaceOnUse" gradientTransform="translate(176.294 136.475) rotate(176.233) scale(88.4852 223.693)">
<stop offset="0.813918" stop-color="#4A98D0" stop-opacity="0"/>
<stop offset="0.972647" stop-color="#11417A"/>
</radialGradient>
<radialGradient id="paint11_radial_6_2" cx="0" cy="0" r="1" gradientUnits="userSpaceOnUse" gradientTransform="translate(102.026 188.002) rotate(-90) scale(63.4171 52.6183)">
<stop offset="0.457769" stop-color="#FFAE3C"/>
<stop offset="1" stop-color="#FFAE3C" stop-opacity="0"/>
</radialGradient>
<radialGradient id="paint12_radial_6_2" cx="0" cy="0" r="1" gradientUnits="userSpaceOnUse" gradientTransform="translate(178.924 188.002) rotate(-90) scale(57.1618 57.1611)">
<stop offset="0.191715" stop-color="#E63CFE"/>
<stop offset="1" stop-color="#E63CFE" stop-opacity="0"/>
</radialGradient>
<radialGradient id="paint13_radial_6_2" cx="0" cy="0" r="1" gradientUnits="userSpaceOnUse" gradientTransform="translate(145.39 188.002) rotate(-90) scale(43.014 20.4323)">
<stop offset="0.173611" stop-color="#FFAE3C"/>
<stop offset="1" stop-color="#FFAE3C" stop-opacity="0"/>
</radialGradient>
<linearGradient id="paint14_linear_6_2" x1="43.2931" y1="73.7664" x2="81.9722" y2="194.101" gradientUnits="userSpaceOnUse">
<stop offset="0.169527" stop-color="#E63CFE"/>
<stop offset="0.708644" stop-color="#FFAE3C"/>
</linearGradient>
<radialGradient id="paint15_radial_6_2" cx="0" cy="0" r="1" gradientUnits="userSpaceOnUse" gradientTransform="translate(74.9563 104.677) rotate(161.042) scale(19.2978 94.2328)">
<stop offset="0.120383" stop-color="#4A4EFA"/>
<stop offset="1" stop-color="#4A4EFA" stop-opacity="0"/>
</radialGradient>
<linearGradient id="paint16_linear_6_2" x1="91.9285" y1="130.009" x2="86.5119" y2="131.782" gradientUnits="userSpaceOnUse">
<stop stop-color="#E63CFE" stop-opacity="0.33"/>
<stop offset="1" stop-color="#E63CFE" stop-opacity="0"/>
</linearGradient>
<radialGradient id="paint17_radial_6_2" cx="0" cy="0" r="1" gradientUnits="userSpaceOnUse" gradientTransform="translate(105.51 188.002) rotate(-90) scale(62.0014 67.7316)">
<stop offset="0.465389" stop-color="#FFAE3C"/>
<stop offset="0.92565" stop-color="#FFAE3C" stop-opacity="0"/>
</radialGradient>
<radialGradient id="paint18_radial_6_2" cx="0" cy="0" r="1" gradientUnits="userSpaceOnUse" gradientTransform="translate(105.51 188.002) rotate(-90) scale(135.662 135.66)">
<stop offset="0.843756" stop-color="#E63CFE" stop-opacity="0"/>
<stop offset="1" stop-color="#E63CFE"/>
</radialGradient>
</svg>