<svg width="256" height="256" title="WebStorm" viewBox="0 0 256 256" fill="none" xmlns="http://www.w3.org/2000/svg" id="webstorm">
<style>
#webstorm {
    rect {fill: #15191C}

    @media (prefers-color-scheme: light) {
        rect {fill: #F4F2ED}
    }
}
</style>
<rect width="256" height="256" rx="40" fill="#15191C"/>
<path d="M65.0909 166.377L65.0952 195.138C65.0952 200.585 69.5112 205 74.9588 205H102.826C105.705 205 108.441 203.742 110.316 201.556L189.535 109.134C191.066 107.346 191.909 105.069 191.909 102.714V73.9534C191.909 68.5058 187.493 64.0898 182.045 64.0898H154.174C151.295 64.0898 148.558 65.3481 146.684 67.5336L67.4652 159.956C65.9322 161.744 65.0909 164.021 65.0909 166.377Z" fill="#F0EB18"/>
<path d="M65.0909 169.834V195.134C65.0909 200.582 69.507 204.998 74.9545 204.998H106.663C107.13 204.998 107.596 204.964 108.058 204.899L197.531 192.119C202.391 191.424 206 187.263 206 182.354V144.396C206 138.947 201.583 134.531 196.133 134.532L151.236 134.543C150.176 134.543 149.123 134.714 148.119 135.049L71.8348 160.478C67.8077 161.821 65.0909 165.589 65.0909 169.834Z" fill="url(#linearGradient1)"/>
<path d="M51 59.8636V142.131C51 146.076 53.3518 149.642 56.9773 151.197L147.775 190.112C149.002 190.637 150.325 190.909 151.661 190.909H196.136C201.584 190.909 206 186.493 206 181.045V137.534C206 135.585 205.422 133.68 204.34 132.058L152.504 54.3921C150.675 51.65 147.597 50.0042 144.3 50.0042L60.8636 50C55.4161 50 51 54.4161 51 59.8636Z" fill="url(#linearGradient2)"/>
<path d="M176.938 79.0625H80.0625V175.937H176.938V79.0625Z" fill="black"/>
<path d="M102.436 117.718L96.5694 91.1906H89.226L97.999 127.53H106.046L112.249 101.132L118.374 127.53H126.447L135.272 91.1906H128.082L122.397 117.718L115.856 91.1906H108.692L102.436 117.718Z" fill="white"/>
<path d="M143.571 126.726C145.612 127.677 147.948 128.154 150.579 128.154C153.21 128.154 155.548 127.67 157.589 126.699C159.63 125.729 161.214 124.398 162.339 122.702C163.481 120.989 164.052 119.057 164.052 116.913C164.052 115.164 163.663 113.555 162.884 112.085C162.105 110.596 161.015 109.35 159.614 108.347C158.229 107.325 156.646 106.634 154.864 106.271L148.685 104.921C147.561 104.646 146.669 104.178 146.012 103.519C145.37 102.86 145.051 102.03 145.051 101.027C145.051 100.146 145.284 99.3768 145.751 98.7178C146.219 98.0432 146.868 97.5233 147.698 97.1603C148.545 96.7806 149.524 96.5888 150.631 96.5888C151.737 96.5888 152.715 96.7864 153.563 97.1852C154.428 97.5649 155.095 98.11 155.561 98.8204C156.029 99.5118 156.262 100.3 156.262 101.183H163.349C163.33 99.1072 162.777 97.2743 161.687 95.6807C160.613 94.0707 159.109 92.8148 157.171 91.9165C155.232 91.0168 152.992 90.5664 150.551 90.5664C148.111 90.5664 145.931 91.0336 144.01 91.9682C142.09 92.8859 140.594 94.1734 139.52 95.8351C138.448 97.48 137.911 99.3394 137.911 101.415C137.911 103.128 138.266 104.671 138.975 106.036C139.686 107.403 140.68 108.554 141.961 109.489C143.242 110.407 144.747 111.056 146.477 111.435L152.889 112.864C154.118 113.16 155.078 113.685 155.77 114.447C156.479 115.209 156.834 116.17 156.834 117.329C156.834 118.263 156.574 119.093 156.055 119.82C155.553 120.548 154.836 121.118 153.901 121.534C152.984 121.933 151.963 122.13 150.682 122.13C149.401 122.13 148.268 121.906 147.282 121.456C146.296 121.005 145.526 120.382 144.973 119.587C144.419 118.793 144.142 117.864 144.142 116.81H137.03C137.065 119.042 137.653 121.015 138.795 122.728C139.954 124.441 141.546 125.775 143.571 126.726Z" fill="white"/>
<path d="M92.1565 156.562H130.906V163.828H92.1565V156.562Z" fill="white"/>
<linearGradient id="linearGradient1" x1="55.8034" y1="208.822" x2="220.521" y2="170.631" gradientUnits="userSpaceOnUse">
<stop offset="0.22" stop-color="#F0EB18"/>
<stop offset="0.59" stop-color="#00C4F4"/>
</linearGradient>
<linearGradient id="linearGradient2" x1="196.358" y1="209.252" x2="40.6705" y2="67.7191" gradientUnits="userSpaceOnUse">
<stop offset="0.19" stop-color="#00C4F4"/>
<stop offset="0.83" stop-color="#007DFE"/>
</linearGradient>
</svg>