<svg width="256" height="256" title="WhatsApp" viewBox="0 0 256 256" fill="none" xmlns="http://www.w3.org/2000/svg">
<rect width="256" height="256" rx="40" fill="#25D366"/>
<path d="M162.363 143.317C160.498 142.381 151.323 137.872 149.615 137.244C147.901 136.622 146.657 136.315 145.407 138.186C144.17 140.051 140.591 144.252 139.504 145.496C138.418 146.745 137.325 146.896 135.46 145.967C133.595 145.025 127.579 143.059 120.451 136.704C114.906 131.755 111.157 125.645 110.071 123.774C108.985 121.909 109.958 120.898 110.887 119.968C111.729 119.133 112.759 117.789 113.688 116.703C114.624 115.61 114.932 114.831 115.56 113.582C116.181 112.338 115.874 111.252 115.403 110.316C114.932 109.38 111.201 100.193 109.65 96.4566C108.13 92.8206 106.592 93.3167 105.449 93.2539C104.363 93.2036 103.119 93.1911 101.87 93.1911C100.626 93.1911 98.604 93.6558 96.8959 95.5272C95.1878 97.3923 90.3649 101.907 90.3649 111.095C90.3649 120.276 97.0529 129.149 97.9823 130.399C98.918 131.642 111.145 150.494 129.865 158.576C134.317 160.498 137.79 161.647 140.503 162.501C144.974 163.927 149.043 163.726 152.252 163.242C155.838 162.709 163.292 158.727 164.85 154.369C166.407 150.011 166.407 146.274 165.936 145.496C165.471 144.717 164.234 144.252 162.363 143.317ZM128.314 189.806H128.289C117.172 189.807 106.26 186.818 96.6949 181.152L94.4279 179.809L70.9352 185.975L77.2024 163.067L75.7266 160.718C69.5124 150.823 66.2249 139.371 66.2441 127.686C66.2504 93.4611 94.1014 65.6164 128.339 65.6164C144.918 65.6164 160.504 72.0846 172.222 83.8153C178.004 89.5715 182.587 96.4172 185.705 103.956C188.824 111.495 190.416 119.578 190.39 127.736C190.371 161.961 162.526 189.806 128.314 189.806ZM181.146 74.9042C174.227 67.9395 165.994 62.4171 156.925 58.6571C147.856 54.8972 138.131 52.9744 128.314 53.0003C87.1496 53.0003 53.6468 86.5031 53.628 127.68C53.628 140.842 57.063 153.691 63.6003 165.013L53 203.716L92.5942 193.329C103.544 199.294 115.813 202.421 128.282 202.422H128.314C169.472 202.422 202.981 168.919 203 127.736C203.03 117.923 201.114 108.2 197.363 99.132C193.612 90.0635 188.1 81.8288 181.146 74.9042Z" fill="white"/>
</svg>