<svg width="256" height="256" title="Whisparr" viewBox="0 0 256 256" fill="none" xmlns="http://www.w3.org/2000/svg" id="whisparr">
<rect width="256" height="256" rx="40" fill="#F4F2ED"/>
<path d="M128.5 206.843C171.768 206.843 206.843 171.768 206.843 128.5C206.843 85.2325 171.768 50.1572 128.5 50.1572C85.2325 50.1572 50.1572 85.2325 50.1572 128.5C50.1572 171.768 85.2325 206.843 128.5 206.843Z" fill="#FF69B4"/>
<path d="M204.522 96.4023C204.071 95.3389 203.62 94.3076 203.104 93.2764C203.201 93.2764 203.298 93.2441 203.395 93.2441C204.555 93.083 205.586 92.6641 206.521 92.0518C208.229 91.1494 209.195 90.2148 209.421 89.248C209.55 88.7002 209.324 88.4424 208.68 88.4424C207.487 88.4424 206.263 88.9902 205.038 90.0537C204.104 90.8594 203.169 91.375 202.299 91.5684C198.335 83.6728 193.146 76.4863 186.83 70.1699C179.257 62.5967 170.427 56.6348 160.63 52.4775C150.446 48.1914 139.65 46 128.5 46C117.35 46 106.554 48.1914 96.4023 52.4775C86.5732 56.6348 77.7432 62.5967 70.1699 70.1699C62.5967 77.7432 56.6348 86.5732 52.4775 96.3701C48.1914 106.554 46 117.35 46 128.5C46 139.65 48.1914 150.446 52.4775 160.598C56.6348 170.427 62.5967 179.257 70.1699 186.83C77.7432 194.403 86.5732 200.365 96.3701 204.522C106.554 208.809 117.35 211 128.5 211C139.65 211 150.446 208.809 160.598 204.522C170.427 200.365 179.257 194.403 186.83 186.83C194.403 179.257 200.365 170.427 204.522 160.662C208.809 150.479 211 139.683 211 128.532C211 117.382 208.841 106.586 204.522 96.4023ZM128.5 54.3145C154.217 54.3145 176.937 67.4951 190.246 87.4434C190.214 87.5078 190.214 87.6045 190.182 87.6689C189.924 88.8291 190.246 89.9248 191.181 90.9883C192.051 92.1484 192.921 92.9541 193.855 93.4375C194.403 94.4687 194.951 95.5 195.435 96.5635V96.5957C194.113 102.171 190.246 109.68 183.833 119.09C175.647 131.078 165.786 142.229 154.281 152.509C151.059 155.441 147.675 158.213 144.13 160.888C140.585 163.53 137.137 165.722 133.785 167.397C130.434 169.073 127.404 169.911 124.729 169.911C122.28 169.911 120.476 169.202 119.315 167.784C118.155 166.366 117.962 164.046 118.703 160.855C119.992 155.441 124.117 147.514 131.078 137.04C140.843 122.377 150.575 110.002 160.211 99.8828C159.792 98.626 158.438 98.0137 156.15 98.0137C153.959 98.0137 151.252 99.1416 148.062 101.462C144.871 103.782 141.552 106.36 138.136 109.196C134.172 112.58 130.724 115.545 127.759 118.059C124.794 120.572 122.28 122.699 120.218 124.375C116.028 127.759 111.388 131.69 106.36 136.17C101.301 140.649 95.8545 145.741 90.0215 151.413C80.5147 160.533 75.6484 165.109 75.4229 165.109C75.4873 165.109 80.3857 159.728 90.1182 148.996C101.849 136.041 111.484 124.858 118.993 115.448C129.725 101.784 135.751 92.1807 137.072 86.5732C138.168 81.9648 135.59 79.6445 129.37 79.6445C125.922 79.6445 121.797 80.3857 117.027 81.8359C112.29 83.2861 107.456 85.1553 102.59 87.4111C97.6914 89.667 93.373 92.0518 89.5381 94.5332C80.2568 100.463 72.0068 107.263 64.8525 114.9C60.083 119.96 56.5703 124.536 54.3145 128.597V128.532C54.3145 87.6045 87.6045 54.3145 128.5 54.3145ZM66.8828 169.75C61.8555 162.241 58.1494 153.798 56.1191 144.71C57.5371 145.322 59.1807 145.645 61.0176 145.645C62.9834 145.645 65.3359 145.258 68.0752 144.517C70.8145 143.775 73.6182 142.712 76.4541 141.326C79.3223 139.94 81.8359 138.394 84.0596 136.718C86.2832 135.042 87.8623 133.27 88.7646 131.4C88.9902 130.788 88.958 130.466 88.6357 130.466C88.3135 130.466 86.8955 131.433 84.3818 133.398C81.0947 135.88 77.8721 137.91 74.6494 139.521C71.4268 141.101 68.3975 141.906 65.5615 141.906C64.0469 141.906 62.7578 141.713 61.6621 141.358C58.6973 140.553 57.666 138.232 58.5684 134.43C59.7285 129.467 63.5635 123.344 70.0088 116.061C73.2959 112.419 76.7441 109.003 80.3535 105.813C83.9629 102.59 87.7656 99.7217 91.7617 97.1436C105.941 87.8945 116.383 83.2861 123.086 83.2861C124.182 83.2861 125.342 83.415 126.534 83.6729C127.727 83.9307 128.726 84.4141 129.499 85.123C130.305 85.832 130.498 86.8955 130.176 88.3135C129.467 91.3105 126.566 96.499 121.442 103.75C116.318 111.001 108.906 120.314 99.2061 131.69L67.624 168.687C67.3662 169.041 67.1084 169.396 66.8828 169.75ZM128.5 202.686C105.49 202.686 84.8975 192.147 71.2656 175.647C71.459 175.454 71.6523 175.293 71.8457 175.1L90.0537 156.183C95.9189 150.06 101.011 144.936 105.297 140.811C109.583 136.686 112.999 133.527 115.48 131.304C117.769 129.338 119.734 127.694 121.346 126.309C122.957 124.923 124.665 123.569 126.438 122.248C128.242 120.895 130.434 119.283 133.044 117.382C135.687 115.48 139.07 113.031 143.26 110.002L129.789 130.917C126.534 135.977 123.569 141.068 120.862 146.16C118.155 151.252 116.318 155.796 115.384 159.792C113.354 168.332 116.415 172.586 124.536 172.586C131.948 172.586 141.487 168.074 153.186 159.019C159.051 154.571 164.497 149.834 169.557 144.774C174.616 139.715 179.321 134.333 183.672 128.661C191.277 118.735 196.208 110.421 198.432 103.718C201.203 111.484 202.686 119.799 202.686 128.5C202.686 169.396 169.396 202.686 128.5 202.686Z" fill="#333333"/>
</svg>