<svg width="256" height="256" title="Windsurf" viewBox="0 0 256 256" fill="none" xmlns="http://www.w3.org/2000/svg" id="windsurf">
<style>
#windsurf {
    rect {fill: #15191C}
    path.windsurf {fill: white}

    @media (prefers-color-scheme: light) {
        rect {fill: #F4F2ED}
        path.windsurf {fill: #0B100F}
    }
}
</style>
<rect width="256" height="256" rx="40" fill="#15191C"/>
<path d="M211.433 79.0265H209.813C201.286 79.0133 194.367 85.8992 194.367 94.4008V128.785C194.367 135.651 188.676 141.213 181.903 141.213C177.879 141.213 173.862 139.193 171.478 135.803L136.264 85.6477C133.342 81.4829 128.588 79 123.441 79C115.413 79 108.188 85.8065 108.188 94.2089V128.791C108.188 135.657 102.544 141.219 95.7245 141.219C91.6872 141.219 87.6763 139.2 85.2923 135.81L45.8885 79.682C44.9987 78.4107 43 79.0398 43 80.5892V110.576C43 112.093 43.4649 113.563 44.3346 114.807L83.1143 170.034C85.4053 173.299 88.7854 175.722 92.6831 176.603C102.438 178.814 111.416 171.326 111.416 161.785V127.222C111.416 120.356 116.994 114.794 123.88 114.794H123.899C128.05 114.794 131.941 116.813 134.325 120.204L169.545 170.352C172.474 174.524 176.983 177 182.361 177C190.569 177 197.601 170.187 197.601 161.791V127.215C197.601 120.349 203.179 114.787 210.065 114.787H211.439C212.303 114.787 213 114.092 213 113.231V80.5825C213 79.7218 212.303 79.0265 211.439 79.0265H211.433Z" class="windsurf" fill="white"/>
</svg>