<svg width="256" height="256" title="WinUI" viewBox="0 0 256 256" fill="none" xmlns="http://www.w3.org/2000/svg" id="winui">
<style>
#winui {
    rect {fill: #15191C}

    @media (prefers-color-scheme: light) {
        rect {fill: #F4F2ED}
    }
}
</style>
<rect width="256" height="256" rx="40" fill="#15191C"/>
<path d="M157.037 55H98.9633C91.1683 55 83.9655 59.1585 80.0681 65.9091L51.1373 116.019C49.082 119.579 48 123.617 48 127.727H128C128 127.266 128.121 126.901 128.352 126.502L167.946 57.9231C164.683 56.0396 160.935 55 157.037 55Z" fill="url(#paint0_linear_6_2)"/>
<path d="M157.037 200.454H98.9633C91.1683 200.454 83.9655 196.296 80.0682 189.545L51.1373 139.435C49.0967 135.901 48.0153 131.807 48 127.727H128C128 128.074 128.091 128.501 128.264 128.801L167.946 197.532C164.684 199.415 160.935 200.454 157.037 200.454Z" fill="url(#paint1_linear_6_2)"/>
<path d="M204.863 139.434L175.932 189.545C173.983 192.92 171.208 195.647 167.946 197.531L128.264 128.8C128.091 128.5 128 128.16 128 127.814C128 127.353 128.121 126.9 128.352 126.501L167.946 57.9224C171.208 59.8058 173.983 62.533 175.932 65.9083L204.863 116.018C206.918 119.578 208 123.616 208 127.726C208 131.837 206.918 135.875 204.863 139.434Z" fill="url(#paint2_linear_6_2)"/>
<path d="M204.863 139.434L175.932 189.545C173.983 192.92 171.208 195.647 167.946 197.531L128.264 128.8C128.091 128.5 128 128.16 128 127.814C128 127.353 128.121 126.9 128.352 126.501L167.946 57.9224C171.208 59.8058 173.983 62.533 175.932 65.9083L204.863 116.018C206.918 119.578 208 123.616 208 127.726C208 131.837 206.918 135.875 204.863 139.434Z" fill="url(#paint3_linear_6_2)"/>
<path d="M204.863 139.434L175.932 189.545C173.983 192.92 171.208 195.647 167.946 197.531L128.264 128.8C128.091 128.5 128 128.16 128 127.814C128 127.353 128.121 126.9 128.352 126.501L167.946 57.9224C171.208 59.8058 173.983 62.533 175.932 65.9083L204.863 116.018C206.918 119.578 208 123.616 208 127.726C208 131.837 206.918 135.875 204.863 139.434Z" fill="url(#paint4_linear_6_2)"/>
<path d="M204.863 139.434L175.932 189.545C173.983 192.92 171.208 195.647 167.946 197.531L128.264 128.8C128.091 128.5 128 128.16 128 127.814C128 127.353 128.121 126.9 128.352 126.501L167.946 57.9224C171.208 59.8058 173.983 62.533 175.932 65.9083L204.863 116.018C206.918 119.578 208 123.616 208 127.726C208 131.837 206.918 135.875 204.863 139.434Z" fill="url(#paint5_linear_6_2)"/>
<path d="M128.052 76.8182L113.356 102.273L99.1299 126.928C98.9891 127.171 98.9155 127.452 98.9155 127.733L98.9181 127.815H70.459L70.4583 127.727C70.4583 126.796 70.6979 125.866 71.1771 125.027C73.6726 120.661 78.9001 111.595 84.2825 102.273H84.2651L96.8618 80.4545C98.1611 78.2043 100.562 76.8182 103.16 76.8182H128.052Z" fill="#D9D9D9"/>
<path d="M128.052 76.8182L113.356 102.273L99.1299 126.928C98.9891 127.171 98.9155 127.452 98.9155 127.733L98.9181 127.815H70.459L70.4583 127.727C70.4583 126.796 70.6979 125.866 71.1771 125.027C73.6726 120.661 78.9001 111.595 84.2825 102.273H84.2651L96.8618 80.4545C98.1611 78.2043 100.562 76.8182 103.16 76.8182H128.052Z" fill="url(#paint6_linear_6_2)"/>
<path d="M128.052 76.8182L113.356 102.273L99.1299 126.928C98.9891 127.171 98.9155 127.452 98.9155 127.733L98.9181 127.815H70.459L70.4583 127.727C70.4583 126.796 70.6979 125.866 71.1771 125.027C73.6726 120.661 78.9001 111.595 84.2825 102.273H84.2651L96.8618 80.4545C98.1611 78.2043 100.562 76.8182 103.16 76.8182H128.052Z" fill="url(#paint7_linear_6_2)"/>
<path d="M113.328 153.233H113.339L99.1299 128.528C99.0041 128.309 98.9317 128.066 98.9181 127.816L98.9155 127.734H70.4583C70.4593 128.663 70.6989 129.592 71.1771 130.428C73.6771 134.802 78.9185 143.892 84.3107 153.231H84.2934L96.8618 175C98.1607 177.25 100.562 178.636 103.16 178.636H128.058L113.328 153.233Z" fill="#D9D9D9"/>
<path d="M113.328 153.233H113.339L99.1299 128.528C99.0041 128.309 98.9317 128.066 98.9181 127.816L98.9155 127.734H70.4583C70.4593 128.663 70.6989 129.592 71.1771 130.428C73.6771 134.802 78.9185 143.892 84.3107 153.231H84.2934L96.8618 175C98.1607 177.25 100.562 178.636 103.16 178.636H128.058L113.328 153.233Z" fill="url(#paint8_linear_6_2)"/>
<path d="M142.346 102.273L157.07 127.779L142.375 153.231L143.161 154.6L157.033 178.636L183.719 132.437L184.869 130.422C185.346 129.585 185.585 128.657 185.585 127.728C185.585 126.799 185.346 125.871 184.869 125.034L183.708 123.001L171.766 102.324H171.758L157.033 76.8182L142.346 102.273Z" fill="#D9D9D9"/>
<path d="M142.346 102.273L157.07 127.779L142.375 153.231L143.161 154.6L157.033 178.636L183.719 132.437L184.869 130.422C185.346 129.585 185.585 128.657 185.585 127.728C185.585 126.799 185.346 125.871 184.869 125.034L183.708 123.001L171.766 102.324H171.758L157.033 76.8182L142.346 102.273Z" fill="url(#paint9_linear_6_2)"/>
<linearGradient id="paint0_linear_6_2" x1="91.6363" y1="58.6364" x2="60.4604" y2="108.063" gradientUnits="userSpaceOnUse">
<stop stop-color="#3BD5FF"/>
<stop offset="1" stop-color="#0FAFFF"/>
</linearGradient>
<linearGradient id="paint1_linear_6_2" x1="91.6364" y1="127.727" x2="86.0596" y2="201.183" gradientUnits="userSpaceOnUse">
<stop stop-color="#0FAFFF"/>
<stop offset="1" stop-color="#0078D4"/>
</linearGradient>
<linearGradient id="paint2_linear_6_2" x1="128" y1="57.9224" x2="248.449" y2="126.943" gradientUnits="userSpaceOnUse">
<stop stop-color="#0FAFFF"/>
<stop offset="1" stop-color="#0078D4"/>
</linearGradient>
<linearGradient id="paint3_linear_6_2" x1="128" y1="57.9224" x2="248.449" y2="126.943" gradientUnits="userSpaceOnUse">
<stop stop-color="#3BD5FF"/>
<stop offset="1" stop-color="#0FAFFF"/>
</linearGradient>
<linearGradient id="paint4_linear_6_2" x1="128" y1="57.9224" x2="248.449" y2="126.943" gradientUnits="userSpaceOnUse">
<stop stop-color="#0FAFFF"/>
<stop offset="1" stop-color="#0078D4"/>
</linearGradient>
<linearGradient id="paint5_linear_6_2" x1="134.667" y1="57.9224" x2="249.617" y2="118.303" gradientUnits="userSpaceOnUse">
<stop stop-color="#0078D4"/>
<stop offset="1" stop-color="#004695"/>
</linearGradient>
<linearGradient id="paint6_linear_6_2" x1="99.2552" y1="76.8182" x2="110.213" y2="125.341" gradientUnits="userSpaceOnUse">
<stop offset="0.173594" stop-color="#E6F9FE"/>
<stop offset="1" stop-color="#9DEAFF"/>
</linearGradient>
<linearGradient id="paint7_linear_6_2" x1="70.4583" y1="76.8182" x2="121.08" y2="133.988" gradientUnits="userSpaceOnUse">
<stop stop-color="#FEFEFE"/>
<stop offset="1" stop-color="#E6F9FE"/>
</linearGradient>
<linearGradient id="paint8_linear_6_2" x1="70.4583" y1="134.067" x2="113.601" y2="189.823" gradientUnits="userSpaceOnUse">
<stop stop-color="#E6F9FE"/>
<stop offset="1" stop-color="#9DEAFF"/>
</linearGradient>
<linearGradient id="paint9_linear_6_2" x1="142.346" y1="76.8182" x2="215.611" y2="107.931" gradientUnits="userSpaceOnUse">
<stop stop-color="#9DEAFF"/>
<stop offset="1" stop-color="#3BD5FF"/>
</linearGradient>
</svg>