<svg width="256" height="256" title="WooCommerce" viewBox="0 0 256 256" fill="none" xmlns="http://www.w3.org/2000/svg">
<rect width="256" height="256" rx="40" fill="#873EFF"/>
<path d="M59.5947 152C65.0146 152 69.3145 149.323 72.6025 143.174L79.8652 129.537V141.076C79.8652 147.876 84.2734 151.964 91.0664 151.964C96.4141 151.964 100.353 149.613 104.146 143.138L120.912 114.888C124.598 108.666 121.996 104 113.902 104C109.566 104 106.784 105.411 104.219 110.149L92.6924 131.852V112.537C92.6924 106.785 89.9463 104 84.8877 104C80.877 104 77.6973 105.736 75.2041 110.547L64.3281 131.852V112.754C64.3281 106.604 61.7988 104 55.6563 104H43.1182C38.3848 104 36 106.206 36 110.258C36 114.309 38.5293 116.66 43.1182 116.66H48.2852V141.04C48.2852 147.913 52.874 152 59.5947 152Z" fill="white"/>
<path fill-rule="evenodd" clip-rule="evenodd" d="M145.374 104C131.716 104 121.237 114.2 121.237 128.018C121.237 141.836 131.788 152 145.374 152C158.96 152 169.366 141.8 169.438 128.018C169.438 114.2 158.996 104 145.374 104ZM145.374 137.242C140.243 137.242 136.702 133.372 136.702 128.018C136.702 122.665 140.243 118.722 145.374 118.722C150.505 118.722 154.046 122.665 154.046 128.018C154.046 133.372 150.577 137.242 145.374 137.242Z" fill="white"/>
<path fill-rule="evenodd" clip-rule="evenodd" d="M172.835 128.018C172.835 114.2 183.313 104 196.899 104C210.485 104 221 114.273 221 128.018C221 141.763 210.521 152 196.936 152C183.35 152 172.835 141.872 172.835 128.018ZM188.336 128.018C188.336 133.372 191.732 137.242 196.936 137.242C202.066 137.242 205.607 133.372 205.607 128.018C205.607 122.665 202.066 118.722 196.936 118.722C191.805 118.722 188.336 122.701 188.336 128.018Z" fill="white"/>
</svg>