<svg width="256" height="256" title="WXT" viewBox="0 0 256 256" fill="none" xmlns="http://www.w3.org/2000/svg" id="wxt">
<style>
#wxt {
    rect {fill: #15191C}

    @media (prefers-color-scheme: light) {
        rect {fill: #F4F2ED}
    }
}
</style>
<rect width="256" height="256" rx="40" fill="#15191C"/>
<path d="M165.468 198C176.234 198 184.962 189.272 184.962 178.506V159.012H188.506C199.272 159.012 208 150.285 208 139.519C208 128.753 199.272 120.025 188.506 120.025H184.962V100.532C184.962 89.7657 176.234 81.038 165.468 81.038H145.975V77.4936C145.975 66.7276 137.247 58 126.481 58C115.715 58 106.987 66.7276 106.987 77.4936V81.038H87.4935C76.7276 81.038 68 89.7657 68 100.532V120.025H71.5443C82.3103 120.025 91.038 128.753 91.038 139.519C91.038 150.285 82.3103 159.012 71.5443 159.012H68V198H106.987V194.456C106.987 183.69 115.715 174.962 126.481 174.962C137.247 174.962 145.975 183.69 145.975 194.456V198H165.468Z" stroke="#67D55E" stroke-width="12"/>
</svg>