<svg width="256" height="256" title="XAML" viewBox="0 0 256 256" fill="none" xmlns="http://www.w3.org/2000/svg" id="xaml">
<style>
#xaml {
    rect {fill: #15191C}

    @media (prefers-color-scheme: light) {
        rect {fill: #F4F2ED}
    }
}
</style>
<rect width="256" height="256" rx="40" fill="#15191C"/>
<path d="M50.6881 82.0449C50.8536 82.0445 50.8536 82.0445 51.0225 82.0442C51.3938 82.0437 51.7651 82.044 52.1364 82.0442C52.4058 82.044 52.6752 82.0437 52.9447 82.0434C53.6107 82.0427 54.2768 82.0426 54.9428 82.0427C55.7461 82.0428 56.5494 82.0422 57.3527 82.0416C58.854 82.0405 60.3554 82.04 61.8567 82.0397C63.3785 82.0395 64.9004 82.039 66.4222 82.0382C66.5182 82.0381 66.6143 82.0381 66.7133 82.038C67.1045 82.0378 67.4958 82.0376 67.8871 82.0374C72.631 82.0349 77.3749 82.0336 82.1189 82.0326C83.6572 82.0323 85.1956 82.0319 86.734 82.0314C86.8968 82.0314 86.8968 82.0314 87.0629 82.0313C87.502 82.0312 87.941 82.0311 88.3801 82.031C95.8908 82.0289 103.401 82.0271 110.912 82.0262C111.502 82.0262 112.092 82.0261 112.682 82.026C112.799 82.026 112.916 82.026 113.037 82.026C114.222 82.0259 115.408 82.0257 116.594 82.0256C116.832 82.0256 117.069 82.0255 117.307 82.0255C124.941 82.0246 132.576 82.022 140.21 82.0182C145.695 82.0155 151.181 82.013 156.666 82.0122C156.835 82.0122 156.835 82.0122 157.008 82.0121C159.485 82.0118 161.962 82.0115 164.439 82.0114C165.435 82.0114 166.432 82.0113 167.429 82.0112C167.538 82.0112 167.647 82.0112 167.759 82.0112C171.272 82.011 174.784 82.0093 178.297 82.0069C181.835 82.0045 185.374 82.0036 188.912 82.0047C189.402 82.0049 189.891 82.005 190.38 82.0052C190.524 82.0052 190.524 82.0052 190.671 82.0052C192.188 82.0056 193.705 82.0044 195.222 82.0025C196.714 82.0008 198.207 82.0006 199.7 82.0023C200.498 82.0031 201.296 82.0032 202.094 82.0012C202.821 81.9994 203.548 81.9997 204.274 82.0018C204.535 82.0021 204.795 82.0017 205.056 82.0004C209.419 81.9802 213.298 83.3925 216.435 86.4716C216.526 86.556 216.617 86.6404 216.711 86.7274C219.091 88.9844 220.81 92.5935 220.952 95.8939C220.957 96.1838 220.957 96.4734 220.957 96.7633C220.957 96.8745 220.957 96.9857 220.958 97.1003C220.958 97.4736 220.958 97.847 220.958 98.2204C220.959 98.4905 220.959 98.7606 220.96 99.0307C220.961 99.6957 220.961 100.361 220.961 101.026C220.962 101.822 220.963 102.619 220.964 103.416C220.966 105.341 220.967 107.267 220.968 109.193C220.969 110.105 220.97 111.016 220.97 111.928C220.972 115.05 220.974 118.172 220.975 121.294C220.975 121.49 220.975 121.686 220.975 121.882C220.975 122.027 220.975 122.027 220.975 122.176C220.975 122.668 220.975 123.161 220.975 123.653C220.976 123.751 220.976 123.848 220.976 123.949C220.976 127.114 220.979 130.28 220.983 133.446C220.987 136.794 220.989 140.143 220.99 143.492C220.99 143.86 220.99 144.228 220.99 144.596C220.99 144.687 220.99 144.777 220.99 144.871C220.99 146.326 220.992 147.781 220.994 149.236C220.997 150.7 220.997 152.164 220.996 153.629C220.996 154.421 220.996 155.214 220.998 156.006C221 156.733 221 157.459 220.998 158.186C220.998 158.448 220.998 158.71 221 158.971C221.021 163.361 219.616 167.254 216.55 170.412C216.47 170.501 216.39 170.59 216.308 170.682C215.039 172.052 213.389 173.029 211.697 173.779C211.509 173.863 211.509 173.863 211.317 173.948C209.728 174.605 208.028 174.959 206.312 174.955C206.202 174.955 206.091 174.956 205.978 174.956C205.606 174.956 205.235 174.956 204.864 174.956C204.594 174.956 204.325 174.956 204.055 174.957C203.389 174.957 202.723 174.957 202.057 174.957C201.254 174.957 200.451 174.958 199.647 174.958C198.146 174.959 196.645 174.96 195.143 174.96C193.621 174.961 192.1 174.961 190.578 174.962C190.482 174.962 190.386 174.962 190.287 174.962C189.895 174.962 189.504 174.962 189.113 174.963C184.369 174.965 179.625 174.966 174.881 174.967C173.343 174.968 171.804 174.968 170.266 174.969C170.157 174.969 170.049 174.969 169.937 174.969C169.498 174.969 169.059 174.969 168.62 174.969C161.109 174.971 153.599 174.973 146.088 174.974C145.498 174.974 144.908 174.974 144.318 174.974C144.201 174.974 144.084 174.974 143.963 174.974C142.778 174.974 141.592 174.974 140.406 174.974C140.169 174.974 139.931 174.974 139.693 174.975C132.059 174.975 124.424 174.978 116.79 174.982C111.305 174.984 105.819 174.987 100.334 174.988C100.165 174.988 100.165 174.988 99.9922 174.988C97.5152 174.988 95.0382 174.988 92.5613 174.989C91.5646 174.989 90.5679 174.989 89.5713 174.989C89.4622 174.989 89.3531 174.989 89.2407 174.989C85.7282 174.989 82.2157 174.991 78.7032 174.993C75.1647 174.995 71.6261 174.996 68.0875 174.995C67.5982 174.995 67.1089 174.995 66.6196 174.995C66.5237 174.995 66.4277 174.995 66.3289 174.995C64.812 174.994 63.2951 174.996 61.7782 174.997C60.2855 174.999 58.7928 174.999 57.3001 174.998C56.5021 174.997 55.7041 174.997 54.9061 174.999C54.1792 175.001 53.4525 175 52.7256 174.998C52.4651 174.998 52.2046 174.998 51.9441 175C47.5813 175.02 43.7022 173.607 40.5651 170.528C40.4284 170.402 40.4284 170.402 40.2889 170.273C37.9095 168.016 36.1895 164.406 36.0479 161.106C36.0434 160.816 36.0426 160.527 36.0431 160.237C36.0428 160.125 36.0426 160.014 36.0423 159.9C36.0415 159.526 36.0416 159.153 36.0416 158.78C36.0412 158.51 36.0408 158.239 36.0403 157.969C36.0393 157.304 36.0388 156.639 36.0385 155.974C36.0382 155.178 36.0372 154.381 36.0362 153.584C36.0338 151.659 36.0326 149.733 36.0315 147.807C36.0311 146.895 36.0305 145.984 36.0298 145.072C36.0278 141.95 36.026 138.828 36.0252 135.706C36.0251 135.51 36.0251 135.314 36.025 135.118C36.025 135.021 36.025 134.924 36.0249 134.824C36.0248 134.332 36.0247 133.839 36.0245 133.347C36.0245 133.249 36.0245 133.152 36.0244 133.051C36.0235 129.886 36.0208 126.72 36.0171 123.554C36.0131 120.206 36.0108 116.857 36.0104 113.508C36.0104 113.14 36.0103 112.772 36.0103 112.404C36.0103 112.313 36.0102 112.223 36.0102 112.129C36.01 110.674 36.0082 109.219 36.0058 107.764C36.0034 106.3 36.0028 104.836 36.0039 103.371C36.0045 102.579 36.0042 101.786 36.002 100.994C35.9999 100.267 36.0001 99.5405 36.0018 98.8138C36.0021 98.5521 36.0016 98.2904 36.0002 98.0288C35.9786 93.6418 37.3824 89.7424 40.4496 86.5877C40.5336 86.4961 40.6176 86.4045 40.7042 86.3102C43.1997 83.6542 47.072 82.0365 50.6881 82.0449Z" fill="#4DB6AC"/>
<path d="M111.996 109.097C112.106 109.098 112.217 109.098 112.331 109.098C112.456 109.098 112.581 109.098 112.709 109.098C112.913 109.099 112.913 109.099 113.121 109.1C113.26 109.1 113.398 109.1 113.54 109.1C113.984 109.101 114.428 109.102 114.872 109.104C115.172 109.105 115.472 109.105 115.772 109.106C116.51 109.107 117.247 109.109 117.985 109.111C118.112 109.566 118.24 110.021 118.367 110.475C118.42 110.666 118.42 110.666 118.474 110.86C118.711 111.706 118.937 112.555 119.155 113.407C119.37 114.245 119.598 115.077 119.846 115.906C120.047 116.581 120.223 117.26 120.397 117.942C120.636 118.876 120.891 119.804 121.162 120.729C121.642 122.363 122.091 124.005 122.514 125.656C122.809 126.804 123.125 127.944 123.461 129.081C123.73 129.999 123.973 130.922 124.21 131.849C124.376 132.498 124.552 133.141 124.745 133.783C124.97 134.535 125.171 135.292 125.366 136.054C125.601 136.976 125.854 137.891 126.124 138.804C126.462 139.948 126.768 141.098 127.057 142.255C127.212 142.868 127.376 143.475 127.563 144.078C127.857 145.033 128.118 145.997 128.384 146.96C128.442 128.225 128.442 128.225 128.5 109.111C131.817 109.111 135.135 109.111 138.553 109.111C138.82 110.184 139.087 111.257 139.362 112.362C139.539 112.994 139.539 112.994 139.721 113.624C139.929 114.357 140.105 115.098 140.286 115.838C140.654 117.337 141.039 118.829 141.451 120.317C141.822 121.662 142.161 123.014 142.494 124.369C142.824 125.711 143.172 127.047 143.551 128.377C143.879 129.545 144.165 130.724 144.453 131.902C144.668 132.782 144.9 133.656 145.152 134.526C145.279 134.969 145.398 135.413 145.515 135.858C145.554 136.005 145.592 136.152 145.632 136.303C145.66 136.41 145.688 136.517 145.717 136.627C145.93 136.142 146.051 135.648 146.165 135.132C146.342 134.355 146.536 133.584 146.743 132.815C146.898 132.239 147.048 131.661 147.198 131.083C147.241 130.915 147.241 130.915 147.286 130.742C147.549 129.726 147.811 128.71 148.073 127.694C148.431 126.306 148.792 124.919 149.153 123.532C149.526 122.094 149.898 120.656 150.269 119.218C150.512 118.275 150.757 117.332 151.002 116.39C151.155 115.802 151.307 115.213 151.458 114.624C151.807 113.264 152.16 111.905 152.52 110.548C152.555 110.417 152.589 110.286 152.625 110.151C152.657 110.032 152.689 109.912 152.722 109.789C152.764 109.63 152.764 109.63 152.807 109.468C152.881 109.227 152.881 109.227 152.997 109.111C156.353 109.111 159.708 109.111 163.166 109.111C163.166 121.831 163.166 134.551 163.166 147.657C160.573 147.657 157.98 147.657 155.308 147.657C155.292 145.782 155.278 143.908 155.272 142.033C155.271 141.892 155.271 141.75 155.27 141.604C155.253 135.84 155.466 130.1 155.798 124.346C155.807 124.189 155.807 124.189 155.816 124.029C155.827 123.838 155.838 123.648 155.849 123.457C155.883 122.854 155.89 122.254 155.886 121.65C155.865 121.727 155.845 121.804 155.823 121.883C155.61 122.674 155.386 123.462 155.156 124.248C154.898 125.135 154.642 126.022 154.391 126.911C154.082 128.003 153.761 129.092 153.439 130.181C153.212 130.948 152.989 131.715 152.772 132.485C152.604 133.075 152.432 133.665 152.26 134.254C151.997 135.158 151.737 136.062 151.48 136.968C151.256 137.759 151.029 138.549 150.797 139.338C150.59 140.043 150.385 140.747 150.18 141.452C150.146 141.57 150.112 141.687 150.077 141.808C149.972 142.171 149.867 142.534 149.762 142.896C149.622 143.378 149.482 143.859 149.343 144.34C149.312 144.446 149.281 144.552 149.25 144.66C148.96 145.66 148.667 146.658 148.375 147.657C146.621 147.657 144.867 147.657 143.06 147.657C142.402 145.542 142.402 145.542 142.15 144.638C142.091 144.429 142.032 144.221 141.973 144.013C141.943 143.906 141.913 143.8 141.882 143.69C141.721 143.122 141.556 142.556 141.391 141.989C141.357 141.873 141.324 141.757 141.289 141.637C141.22 141.401 141.151 141.165 141.083 140.928C140.913 140.346 140.744 139.764 140.575 139.181C140.508 138.949 140.44 138.717 140.373 138.485C139.969 137.091 139.969 137.091 139.867 136.743C139.8 136.511 139.733 136.279 139.665 136.047C139.496 135.465 139.328 134.883 139.16 134.301C138.828 133.153 138.491 132.008 138.141 130.866C137.847 129.901 137.573 128.933 137.313 127.959C137.038 126.934 136.741 125.916 136.444 124.897C136.139 123.855 135.844 122.81 135.549 121.766C135.619 124.241 135.712 126.714 135.826 129.187C135.845 129.605 135.864 130.023 135.883 130.442C135.905 130.917 135.926 131.392 135.948 131.867C135.961 132.163 135.975 132.46 135.988 132.756C136.004 133.127 136.023 133.498 136.041 133.869C136.121 135.499 136.142 137.125 136.138 138.756C136.138 138.986 136.137 139.217 136.137 139.447C136.137 140.285 136.135 141.123 136.134 141.96C136.131 143.84 136.129 145.72 136.126 147.657C131.207 147.657 126.288 147.657 121.22 147.657C120.146 143.206 120.146 143.206 119.834 141.75C119.799 141.591 119.764 141.433 119.729 141.274C119.487 140.155 119.487 140.155 119.487 139.762C116.398 139.762 113.31 139.762 110.127 139.762C110.089 140.145 110.051 140.528 110.012 140.923C109.953 141.228 109.889 141.532 109.819 141.835C109.8 141.917 109.781 141.999 109.762 142.083C109.701 142.345 109.64 142.606 109.578 142.867C109.536 143.048 109.495 143.229 109.453 143.41C109.39 143.681 109.327 143.952 109.264 144.222C109.141 144.753 109.02 145.284 108.902 145.816C108.875 145.935 108.849 146.055 108.822 146.177C108.774 146.394 108.726 146.611 108.678 146.828C108.522 147.528 108.522 147.528 108.394 147.657C108.171 147.667 107.947 147.67 107.723 147.67C107.508 147.67 107.508 147.67 107.289 147.67C107.131 147.669 106.973 147.669 106.816 147.668C106.655 147.668 106.495 147.668 106.334 147.667C105.911 147.667 105.488 147.666 105.065 147.665C104.634 147.663 104.202 147.663 103.771 147.662C102.924 147.661 102.077 147.659 101.23 147.657C101.718 145.54 101.718 145.54 101.966 144.674C102.016 144.499 102.065 144.324 102.114 144.149C102.139 144.059 102.165 143.969 102.191 143.876C102.333 143.367 102.471 142.856 102.609 142.345C102.653 142.184 102.653 142.184 102.697 142.02C102.843 141.482 102.988 140.945 103.133 140.407C103.432 139.293 103.743 138.183 104.068 137.077C104.348 136.125 104.604 135.171 104.838 134.207C105.054 133.321 105.297 132.444 105.543 131.566C105.687 131.048 105.827 130.528 105.967 130.009C106.177 129.235 106.388 128.461 106.603 127.687C106.905 126.598 107.201 125.506 107.497 124.415C107.67 123.774 107.844 123.134 108.018 122.493C108.164 121.955 108.31 121.417 108.456 120.879C108.745 119.812 109.036 118.746 109.331 117.682C109.609 116.676 109.882 115.669 110.154 114.663C110.242 114.34 110.329 114.018 110.417 113.695C110.445 113.59 110.474 113.485 110.503 113.376C110.56 113.166 110.618 112.955 110.675 112.745C110.828 112.183 110.979 111.62 111.13 111.057C111.161 110.939 111.193 110.821 111.226 110.7C111.287 110.472 111.348 110.244 111.408 110.016C111.449 109.863 111.449 109.863 111.491 109.708C111.515 109.617 111.539 109.527 111.564 109.434C111.658 109.137 111.68 109.115 111.996 109.097Z" fill="#FEFEFE"/>
<path d="M71.7641 109.111C74.7003 109.111 77.6364 109.111 80.6616 109.111C81.3906 110.909 82.1183 112.705 82.8187 114.514C83.0384 115.081 83.2591 115.648 83.4795 116.215C83.546 116.386 83.546 116.386 83.6138 116.561C84.0369 117.65 84.4612 118.738 84.8874 119.826C84.9635 120.021 85.0395 120.215 85.1153 120.409C85.2194 120.676 85.3239 120.943 85.4285 121.21C85.4593 121.289 85.49 121.368 85.5216 121.449C85.6465 121.809 85.6465 121.809 85.8614 122.114C85.9036 122.003 85.9459 121.892 85.9894 121.778C87.0472 118.998 88.1254 116.226 89.2178 113.46C89.4669 112.829 89.7149 112.197 89.9617 111.565C90.0072 111.448 90.0072 111.448 90.0537 111.329C90.192 110.975 90.3301 110.62 90.468 110.266C90.5148 110.145 90.5616 110.025 90.6099 109.902C90.65 109.799 90.6902 109.695 90.7315 109.589C90.8301 109.343 90.8301 109.343 90.9457 109.111C93.8819 109.111 96.818 109.111 99.8432 109.111C99.6634 109.653 99.4632 110.143 99.2126 110.65C99.1734 110.731 99.1342 110.811 99.0939 110.894C99.0098 111.066 98.9255 111.239 98.8411 111.411C98.6164 111.87 98.3933 112.329 98.1704 112.788C98.1255 112.881 98.0807 112.973 98.0345 113.068C97.6379 113.888 97.254 114.713 96.8749 115.54C96.3735 116.634 95.8604 117.722 95.3367 118.806C94.7421 120.036 94.1633 121.272 93.5935 122.514C93.0582 123.677 92.5057 124.831 91.9473 125.983C91.8222 126.242 91.6979 126.501 91.5744 126.76C91.4696 126.978 91.3621 127.195 91.2509 127.41C91.2063 127.5 91.1618 127.59 91.1159 127.682C91.077 127.757 91.0381 127.832 90.9981 127.909C90.8665 128.518 91.3126 129.157 91.5763 129.691C91.6154 129.771 91.6546 129.852 91.6949 129.934C91.779 130.107 91.8632 130.279 91.9477 130.451C92.1729 130.911 92.3967 131.372 92.6203 131.832C92.6652 131.925 92.7102 132.018 92.7565 132.113C93.143 132.912 93.5163 133.716 93.885 134.523C94.4668 135.794 95.0713 137.053 95.6833 138.31C96.3618 139.704 97.0277 141.102 97.6719 142.512C98.0076 143.245 98.3508 143.973 98.703 144.697C98.7433 144.78 98.7836 144.863 98.8251 144.949C99.0221 145.354 99.2199 145.759 99.419 146.164C99.4901 146.309 99.5613 146.455 99.6324 146.601C99.6954 146.73 99.7585 146.858 99.8235 146.99C99.9587 147.308 99.9587 147.308 99.9587 147.657C97.0226 147.657 94.0864 147.657 91.0612 147.657C90.2918 145.759 89.5261 143.862 88.7863 141.953C88.6983 141.726 88.6102 141.5 88.5221 141.273C88.3418 140.809 88.1615 140.345 87.9815 139.88C87.7097 139.18 87.4376 138.479 87.1654 137.779C86.7305 136.66 86.2959 135.54 85.8614 134.421C85.5146 135.093 85.2235 135.77 84.9551 136.477C84.9132 136.586 84.8714 136.695 84.8283 136.807C84.7379 137.043 84.6478 137.278 84.5578 137.514C84.3157 138.148 84.0719 138.781 83.8284 139.414C83.7778 139.546 83.7272 139.678 83.6751 139.814C83.1488 141.183 82.6183 142.552 82.0856 143.919C81.984 144.18 81.8826 144.44 81.7813 144.701C81.6395 145.067 81.4972 145.432 81.3549 145.797C81.3131 145.905 81.2713 146.012 81.2282 146.124C81.189 146.224 81.1498 146.324 81.1094 146.428C81.0757 146.514 81.042 146.601 81.0073 146.69C80.8679 147.018 80.7051 147.337 80.546 147.657C77.6099 147.657 74.6737 147.657 71.6486 147.657C71.9086 146.873 71.9086 146.873 72.0818 146.508C72.1205 146.426 72.1593 146.344 72.1993 146.259C72.2618 146.128 72.2618 146.128 72.3256 145.994C72.3696 145.901 72.4136 145.809 72.459 145.713C72.6025 145.41 72.7466 145.107 72.8907 144.805C72.9908 144.594 73.0908 144.383 73.1907 144.173C73.8304 142.825 74.476 141.481 75.1244 140.137C75.5644 139.223 75.9923 138.304 76.4151 137.382C76.9637 136.185 77.5307 134.998 78.1068 133.814C78.4975 133.011 78.8866 132.207 79.275 131.403C79.3328 131.283 79.3328 131.283 79.3918 131.161C79.6324 130.662 79.8698 130.162 80.1055 129.661C80.1646 129.538 80.2236 129.416 80.2845 129.29C80.3367 129.178 80.3889 129.065 80.4427 128.95C80.5109 128.806 80.5109 128.806 80.5804 128.659C80.749 128.088 80.4842 127.635 80.2337 127.124C80.1688 126.991 80.104 126.858 80.0372 126.721C80.0025 126.65 79.9678 126.58 79.932 126.507C79.7455 126.128 79.5613 125.747 79.377 125.367C79.3391 125.289 79.3013 125.211 79.2622 125.13C78.895 124.372 78.5424 123.606 78.1917 122.84C77.6046 121.56 76.9974 120.291 76.3827 119.025C75.8523 117.931 75.3326 116.834 74.8262 115.729C74.2599 114.493 73.6773 113.266 73.0857 112.043C73.046 111.96 73.0062 111.878 72.9653 111.793C72.8513 111.558 72.7372 111.322 72.6231 111.087C72.5877 111.014 72.5524 110.941 72.516 110.866C72.3282 110.479 72.1367 110.095 71.9415 109.712C71.7641 109.343 71.7641 109.343 71.7641 109.111Z" fill="#FEFEFE"/>
<path d="M111.996 109.097C112.106 109.098 112.217 109.098 112.331 109.098C112.456 109.098 112.581 109.098 112.709 109.098C112.913 109.099 112.913 109.099 113.121 109.1C113.26 109.1 113.398 109.1 113.54 109.1C113.984 109.101 114.428 109.102 114.872 109.104C115.172 109.105 115.472 109.105 115.772 109.106C116.51 109.107 117.247 109.109 117.985 109.111C118.112 109.566 118.24 110.021 118.367 110.475C118.42 110.666 118.42 110.666 118.474 110.86C118.711 111.706 118.937 112.555 119.155 113.407C119.37 114.245 119.598 115.077 119.846 115.906C120.047 116.581 120.223 117.26 120.397 117.942C120.636 118.876 120.891 119.804 121.162 120.729C121.642 122.363 122.091 124.005 122.514 125.656C122.809 126.804 123.125 127.944 123.461 129.081C123.73 129.999 123.973 130.922 124.21 131.849C124.376 132.498 124.552 133.141 124.745 133.783C124.97 134.535 125.171 135.292 125.366 136.054C125.601 136.976 125.854 137.891 126.124 138.804C126.462 139.948 126.768 141.098 127.057 142.255C127.248 143.01 127.462 143.754 127.694 144.497C127.874 145.091 128.028 145.691 128.182 146.292C128.229 146.472 128.229 146.472 128.276 146.655C128.5 147.524 128.5 147.524 128.5 147.657C126.098 147.657 123.695 147.657 121.22 147.657C120.74 145.691 120.265 143.727 119.834 141.75C119.816 141.669 119.798 141.589 119.78 141.506C119.73 141.278 119.681 141.05 119.631 140.822C119.603 140.693 119.575 140.563 119.547 140.43C119.487 140.11 119.487 140.11 119.487 139.762C116.398 139.762 113.31 139.762 110.127 139.762C110.089 140.145 110.051 140.528 110.012 140.923C109.953 141.228 109.889 141.532 109.819 141.835C109.8 141.917 109.781 141.999 109.762 142.083C109.701 142.345 109.64 142.606 109.578 142.867C109.536 143.048 109.495 143.229 109.453 143.41C109.39 143.681 109.327 143.952 109.264 144.222C109.141 144.753 109.02 145.284 108.902 145.816C108.875 145.935 108.849 146.055 108.822 146.177C108.774 146.394 108.726 146.611 108.678 146.828C108.522 147.528 108.522 147.528 108.394 147.657C108.171 147.667 107.947 147.67 107.723 147.67C107.508 147.67 107.508 147.67 107.289 147.67C107.131 147.669 106.973 147.669 106.816 147.668C106.655 147.668 106.495 147.668 106.334 147.667C105.911 147.667 105.488 147.666 105.065 147.665C104.634 147.663 104.202 147.663 103.771 147.662C102.924 147.661 102.077 147.659 101.23 147.657C101.718 145.54 101.718 145.54 101.966 144.674C102.016 144.499 102.065 144.324 102.114 144.149C102.139 144.059 102.165 143.969 102.191 143.876C102.333 143.367 102.471 142.856 102.609 142.345C102.653 142.184 102.653 142.184 102.697 142.02C102.843 141.482 102.988 140.945 103.133 140.407C103.432 139.293 103.743 138.183 104.068 137.077C104.348 136.125 104.604 135.171 104.838 134.207C105.054 133.321 105.297 132.444 105.543 131.566C105.687 131.048 105.827 130.528 105.967 130.009C106.177 129.235 106.388 128.461 106.603 127.687C106.905 126.598 107.201 125.506 107.497 124.415C107.67 123.774 107.844 123.134 108.018 122.493C108.164 121.955 108.31 121.417 108.456 120.879C108.745 119.812 109.036 118.746 109.331 117.682C109.609 116.676 109.882 115.669 110.154 114.663C110.242 114.34 110.329 114.018 110.417 113.695C110.445 113.59 110.474 113.485 110.503 113.376C110.56 113.166 110.618 112.955 110.675 112.745C110.828 112.183 110.979 111.62 111.13 111.057C111.161 110.939 111.193 110.821 111.226 110.7C111.287 110.472 111.348 110.244 111.408 110.016C111.449 109.863 111.449 109.863 111.491 109.708C111.515 109.617 111.539 109.527 111.564 109.434C111.658 109.137 111.68 109.115 111.996 109.097Z" fill="#FEFEFE"/>
<path d="M166.979 109.111C169.534 109.111 172.088 109.111 174.721 109.111C174.721 119.686 174.721 130.26 174.721 141.155C178.534 141.155 182.347 141.155 186.276 141.155C186.276 143.3 186.276 145.446 186.276 147.657C179.908 147.657 173.54 147.657 166.979 147.657C166.979 134.937 166.979 122.217 166.979 109.111Z" fill="#FDFEFE"/>
<path d="M114.749 119.676C115.052 119.98 115.065 120.205 115.152 120.626C115.183 120.775 115.215 120.925 115.247 121.079C115.272 121.199 115.272 121.199 115.297 121.321C115.385 121.746 115.476 122.171 115.567 122.596C115.585 122.682 115.604 122.769 115.623 122.859C115.799 123.678 115.994 124.493 116.194 125.307C116.528 126.673 116.832 128.044 117.126 129.419C117.328 130.359 117.544 131.292 117.797 132.22C117.869 132.564 117.869 132.564 117.869 133.26C115.848 133.26 113.827 133.26 111.745 133.26C111.818 132.675 111.893 132.133 112.016 131.563C112.048 131.418 112.079 131.273 112.111 131.124C112.146 130.967 112.18 130.811 112.214 130.655C112.232 130.574 112.25 130.494 112.268 130.411C112.557 129.088 112.868 127.771 113.19 126.455C113.585 124.837 113.952 123.212 114.313 121.586C114.456 120.949 114.602 120.312 114.749 119.676Z" fill="#4EB6AC"/>
</svg>