<svg width="256" height="256" title="XAMPP" viewBox="0 0 256 256" fill="none" xmlns="http://www.w3.org/2000/svg">
<rect width="256" height="256" rx="40" fill="#FB7A24"/>
<path d="M128.049 159.653C127.429 163.453 126.993 166.887 125.628 170.052C119.238 184.882 108.348 193.919 92.022 195.718C72.7237 197.844 54.8999 185.934 49.5407 167.435C47.5984 160.731 47.7929 153.897 48.497 147.074C49.2489 139.784 51.3966 132.87 54.7501 126.348C55.2303 125.415 55.2211 124.711 54.6204 123.808C49.4712 116.063 47.4733 107.508 48.199 98.2736C48.5865 93.3374 49.7847 88.6159 52.0235 84.194C58.5823 71.2399 72.9831 60.2467 92.2706 62.0717C109.23 63.6759 124.938 78.3052 127.39 94.7579C127.514 95.5839 127.745 96.3945 128.017 97.6127C128.423 95.4064 128.716 93.586 129.096 91.7826C132.255 76.8353 146.886 61.1947 167.625 61.0017C188.645 60.8072 204.211 77.2923 207.148 92.6041C208.389 99.0749 208.173 105.54 207.149 112.001C206.126 118.457 204.23 124.662 201.458 130.577C200.847 131.882 200.91 132.82 201.693 134.032C206.22 141.048 208.218 148.75 207.962 157.113C207.426 174.565 195.083 190.215 178.102 194.308C154.395 200.021 136.222 185.842 130.106 168.689C129.109 165.897 128.636 162.982 128.049 159.653ZM171.121 128.993C171.374 128.006 172.138 127.415 172.688 126.684C178.632 118.785 181.759 109.962 181.061 100.026C180.553 92.7739 174.588 87.6664 167.369 87.9366C160.144 88.2068 154.7 93.779 154.598 101.008C154.591 101.599 154.626 102.192 154.589 102.78C154.092 110.485 149.841 114.705 143.4 115.176C142.223 115.262 141.044 115.367 139.866 115.37C131.505 115.389 123.146 115.386 114.785 115.378C111.133 115.375 107.513 115.772 104.036 116.845C87.8038 121.853 78.3392 132.953 75.2049 149.497C74.5842 152.77 74.0253 156.167 75.0984 159.53C76.6377 164.352 79.508 167.938 84.5893 169.138C89.8558 170.381 94.443 169.005 98.0868 164.869C100.443 162.195 101.186 159.017 101.362 155.529C101.817 146.559 106.702 142.075 114.848 142.143C127.345 142.246 139.844 142.165 152.343 142.174C154.561 142.175 154.581 142.205 154.592 144.399C154.614 148.452 154.489 152.509 154.645 156.558C154.899 163.166 160.714 168.659 167.455 168.852C174.406 169.052 180.602 163.91 181.055 157.198C181.445 151.39 181.42 145.544 181.039 139.731C180.744 135.23 178.309 132.024 174.184 130.162C173.194 129.717 172.153 129.383 171.121 128.993ZM92.7801 115.358C95.4682 115.358 97.6622 115.333 99.8547 115.369C100.942 115.386 101.345 114.918 101.335 113.852C101.3 109.636 101.518 105.405 101.249 101.204C100.894 95.6611 97.9463 91.6545 92.7863 89.6334C87.495 87.5614 82.6531 88.7441 78.5584 92.6519C74.4453 96.5783 73.8971 101.38 75.3361 106.636C76.6578 111.465 79.7813 114.209 84.6927 115.038C87.546 115.518 90.4147 115.288 92.7801 115.358Z" fill="white"/>
<path d="M171.121 128.993C172.155 129.383 173.196 129.717 174.185 130.163C178.311 132.024 180.746 135.232 181.041 139.733C181.42 145.546 181.447 151.391 181.056 157.2C180.604 163.912 174.406 169.052 167.457 168.854C160.717 168.661 154.902 163.167 154.646 156.559C154.49 152.512 154.615 148.453 154.594 144.4C154.581 142.206 154.563 142.177 152.344 142.175C139.846 142.166 127.347 142.248 114.85 142.144C106.704 142.077 101.819 146.562 101.363 155.531C101.186 159.019 100.444 162.196 98.0883 164.87C94.4445 169.005 89.8573 170.382 84.5908 169.14C79.5095 167.94 76.6393 164.353 75.0999 159.531C74.0268 156.17 74.5858 152.772 75.2064 149.498C78.3407 132.955 87.8038 121.855 104.037 116.846C107.514 115.773 111.133 115.376 114.787 115.379C123.147 115.387 131.506 115.39 139.867 115.373C141.045 115.37 142.225 115.265 143.401 115.179C149.843 114.708 154.093 110.488 154.591 102.784C154.629 102.195 154.592 101.601 154.6 101.011C154.702 93.7837 160.146 88.2114 167.37 87.9397C174.59 87.6695 180.554 92.777 181.062 100.029C181.759 109.965 178.634 118.789 172.689 126.688C172.138 127.415 171.372 128.006 171.121 128.993Z" fill="#FB7A24"/>
<path d="M92.7801 115.358C90.4132 115.288 87.546 115.52 84.6927 115.038C79.7813 114.209 76.6578 111.465 75.3361 106.636C73.8971 101.38 74.4453 96.5783 78.5584 92.6519C82.6531 88.7441 87.495 87.5629 92.7863 89.6334C97.9463 91.653 100.894 95.6611 101.249 101.204C101.518 105.405 101.3 109.636 101.335 113.852C101.345 114.918 100.94 115.387 99.8547 115.369C97.6622 115.332 95.4697 115.358 92.7801 115.358Z" fill="#FB7A24"/>
</svg>