<svg version="1.1" xmlns="http://www.w3.org/2000/svg" xmlns:xlink="http://www.w3.org/1999/xlink" x="0px" y="0px"
	 viewBox="0 0 256 256" style="enable-background:new 0 0 256 256;" xml:space="preserve" width="256px" height="256px">
<style type="text/css">
	.st0{fill:#F4F2ED;}
	.st1{fill:url(#SVGID_1_);}
	.st2{fill:#FFFFFF;}
	.st3{fill:#69C5F3;}
	.st4{fill:#68C5F4;}
	.st5{fill:#0A93E9;}
	.st6{fill:#1694EA;}
	.st7{fill:#319DEC;}
	.st8{fill:#65B1EE;}
	.st9{fill:#8EC6F3;}
	.st10{fill:#95CAF3;}
	.st11{fill:url(#SVGID_00000181083683500837560810000007314295791121146030_);}
	.st12{fill:url(#SVGID_00000117639070157841489650000016653671836289642135_);}
	.st13{fill:url(#SVGID_00000054248611108076395450000004709501907570603944_);}
	.st14{fill:url(#SVGID_00000088854900044467140280000004877823213602876861_);}
	.st15{fill:url(#SVGID_00000146458717018309443220000004644137554545829277_);}
	.st16{fill:url(#SVGID_00000111152249651459315170000001654064528518068370_);}
	.st17{fill:url(#SVGID_00000098901365553170694980000001628095610494994074_);}
	.st18{fill:url(#SVGID_00000017487442975703979750000004413267428816550279_);}
	.st19{fill:url(#SVGID_00000127742297246157814150000015648375390274460830_);}
	.st20{fill:url(#SVGID_00000018935070164275752880000006396958938140917936_);}
	.st21{fill:url(#SVGID_00000155868086707966655550000010787130987717952137_);}
	.st22{fill:url(#SVGID_00000108285782109261133150000013426709629440548487_);}
	.st23{fill:url(#SVGID_00000134945202153780874160000013217063195490418599_);}
	.st24{fill:url(#SVGID_00000126312979127441556070000007470200579192271749_);}
	.st25{fill:url(#SVGID_00000009579126127648941800000008973078607436881292_);}
	.st26{fill:#3C98EA;}
	.st27{fill:#4CA4ED;}
	.st28{fill:#4DA7EE;}
	.st29{fill:url(#SVGID_00000082359685309988302750000004655369368223102352_);}
	.st30{fill:url(#SVGID_00000096040512307834639830000001994809119056963740_);}
	.st31{fill:#9DD4F7;}
	.st32{fill:url(#SVGID_00000072281546040619676580000015465662525444718489_);}
	.st33{fill:url(#SVGID_00000096056307492078897290000005792616616914249391_);}
	.st34{fill:url(#SVGID_00000171716886939274536130000011761946712530702782_);}
	.st35{fill:url(#SVGID_00000026145619782742229180000012490613320077786810_);}
	.st36{fill:url(#SVGID_00000042695561237622217150000007887776267651722392_);}
	.st37{fill:url(#SVGID_00000114767757927101937580000001904612552354283914_);}
	.st38{fill:url(#SVGID_00000098198205244785017900000001420776664089634986_);}
	.st39{fill:url(#SVGID_00000085220665608820362050000009794637843823329974_);}
	.st40{fill:url(#SVGID_00000069398023218253195310000017529660061696028068_);}
	.st41{fill:url(#SVGID_00000162321959584574752150000017094904085291692942_);}
	.st42{fill:url(#SVGID_00000041989257099293990350000009544115101526330510_);}
	.st43{fill:url(#SVGID_00000140711183991297055960000002500091372461947839_);}
	.st44{fill:url(#SVGID_00000170259082007466733060000006234545962686587023_);}
	.st45{fill:url(#SVGID_00000077306192206353642080000012422781201966732168_);}
	.st46{fill:url(#SVGID_00000008126953413371010000000016977970997457336196_);}
	.st47{fill:url(#SVGID_00000013185750504143409930000010841537971639647620_);}
	.st48{fill:#73B9F1;}
	.st49{fill:url(#SVGID_00000055682310802196979000000008439280436393716882_);}
	.st50{fill:url(#SVGID_00000025406218475820864180000005991369510999574177_);}
	.st51{fill:url(#SVGID_00000062187827594726275250000011623441134683879354_);}
	.st52{fill:url(#SVGID_00000127765872237188253120000017579587940289007526_);}
	.st53{fill:url(#SVGID_00000088824803530870359390000006235159634815949217_);}
	.st54{fill:url(#SVGID_00000044895360543544039610000004657318164639483058_);}
	.st55{fill:url(#SVGID_00000075880957820969335850000012594826090936595369_);}
	.st56{fill:url(#SVGID_00000066490287778580123120000014581465371366861968_);}
	.st57{fill:url(#SVGID_00000051360354864929648690000003817859477371543966_);}
	.st58{fill:url(#SVGID_00000093167364952372077060000015987390269033422231_);}
	.st59{fill:url(#SVGID_00000058575968912055894050000001164629364750382249_);}
	.st60{fill:url(#SVGID_00000018219393431739101880000001104592326336791978_);}
	.st61{fill:url(#SVGID_00000008863857535070426130000012594287333705636763_);}
	.st62{fill:url(#SVGID_00000048490701008640779460000008795543483321532588_);}
	.st63{fill:url(#SVGID_00000147927083926416439370000003046562852397070238_);}
	.st64{fill:#BFC0D0;}
</style>
<path class="st0" d="M60,0.5h136c33.1,0,60,26.9,60,60v136c0,33.1-26.9,60-60,60H60c-33.1,0-60-26.9-60-60v-136
	C0,27.4,26.9,0.5,60,0.5z"/>
<g>

		<linearGradient id="SVGID_1_" gradientUnits="userSpaceOnUse" x1="-574.1139" y1="620.6157" x2="-574.1139" y2="799.4279" gradientTransform="matrix(1 0 0 -1 702.5 837)">
		<stop  offset="0" style="stop-color:#1578E4"/>
		<stop  offset="1" style="stop-color:#00C3F2"/>
	</linearGradient>
	<path class="st1" d="M78,37.6h100.7c21.6,0,39,17.5,39,39v100.7c0,21.6-17.5,39-39,39H78c-21.6,0-39-17.5-39-39V76.6
		C39,55,56.5,37.6,78,37.6z"/>
	<path class="st2" d="M175.7,47.2H81.1c-18,0-32.6,14.6-32.6,32.6v94.7c0,18,14.6,32.6,32.6,32.6h94.7c18,0,32.6-14.6,32.6-32.6
		V79.6C208.3,61.6,193.7,47.2,175.7,47.2z M205.7,174.8c0,16.4-13.2,29.6-29.6,29.6H80.7c-16.2,0-29.6-13.2-29.6-29.6V79.3
		c0-16.4,13.2-29.6,29.6-29.6h95.6c16.2,0,29.6,13.2,29.6,29.6v95.6H205.7z"/>
	<path class="st3" d="M128.7,53.6c-40.3,0-73.1,32.8-73.1,73.1s32.8,73.1,73.1,73.1c40.5,0,73.1-32.8,73.1-73.1
		S168.9,53.6,128.7,53.6z M128.7,198.7c-39.8,0-72-32.3-72-72s32.3-72,72-72s72,32.3,72,72S168.4,198.7,128.7,198.7z"/>
	<path class="st4" d="M128.7,68.6c-32.3,0-58.3,26-58.3,58.3s26,58.1,58.3,58.1s58.3-26,58.3-58.3S160.7,68.6,128.7,68.6z
		 M128.7,183.8c-31.6,0-57-25.5-57-57s25.5-57,57-57s57,25.5,57,57S160,183.8,128.7,183.8z"/>
	<path class="st2" d="M72.9,140.1h111.2c4.6,0,8.2,3.7,8.2,8.2c0,4.6-3.7,8.2-8.2,8.2H72.9c-4.6,0-8.2-3.7-8.2-8.2
		C64.5,143.8,68.2,140.1,72.9,140.1z"/>
	<path class="st5" d="M72.5,141.7h111.6c3.6,0,6.6,2.9,6.6,6.6v0.2c0,3.6-2.9,6.6-6.6,6.6H72.5c-3.6,0-6.6-2.9-6.6-6.6v-0.4
		C66.1,144.5,68.9,141.7,72.5,141.7z"/>
	<path class="st6" d="M69.8,154.3H187l0.9-0.5H68.9L69.8,154.3z"/>
	<path class="st7" d="M67.1,152.2h122.3l0.4-0.5h-123C66.8,151.7,67.1,152.2,67.1,152.2z"/>
	<path class="st8" d="M66.1,148.8h124.6v-0.7H66.1V148.8z"/>
	<path class="st9" d="M67.3,144.4h122.3l0.2,0.4l0.2,0.4H67l0.2-0.4L67.3,144.4z"/>
	<path class="st10" d="M70,142.2H187l0.5,0.2l0.5,0.4H68.9l0.5-0.4C69.5,142.4,70,142.2,70,142.2z"/>

		<linearGradient id="SVGID_00000062905739999565953410000012351575627349186992_" gradientUnits="userSpaceOnUse" x1="-520.5415" y1="682.0037" x2="-520.5415" y2="695.3424" gradientTransform="matrix(1 0 0 -1 702.5 837)">
		<stop  offset="0" style="stop-color:#1492E7"/>
		<stop  offset="1" style="stop-color:#DBEDFB"/>
	</linearGradient>
	<path style="fill:url(#SVGID_00000062905739999565953410000012351575627349186992_);" d="M180.9,141.7H180c0,0,3,2.1,3,7
		c0,4.5-3,6.4-3,6.4h0.9c0,0,3-1.4,3-6.4C183.9,143.3,180.9,141.7,180.9,141.7z"/>

		<linearGradient id="SVGID_00000078024219342354701780000015768972625718533815_" gradientUnits="userSpaceOnUse" x1="-529.2771" y1="682.0037" x2="-529.2771" y2="695.3424" gradientTransform="matrix(1 0 0 -1 702.5 837)">
		<stop  offset="0" style="stop-color:#1492E7"/>
		<stop  offset="1" style="stop-color:#DBEDFB"/>
	</linearGradient>
	<path style="fill:url(#SVGID_00000078024219342354701780000015768972625718533815_);" d="M172.3,141.7h-0.9c0,0,2.7,2.5,2.7,7
		c0,3.9-2.7,6.4-2.7,6.4h0.9c0,0,2.7-2,2.7-6.4C174.8,143.8,172.3,141.7,172.3,141.7z"/>

		<linearGradient id="SVGID_00000160172765823431307940000014695535621857929911_" gradientUnits="userSpaceOnUse" x1="-574.1139" y1="682.0037" x2="-574.1139" y2="695.3424" gradientTransform="matrix(1 0 0 -1 702.5 837)">
		<stop  offset="0" style="stop-color:#1492E7"/>
		<stop  offset="1" style="stop-color:#DBEDFB"/>
	</linearGradient>
	<path style="fill:url(#SVGID_00000160172765823431307940000014695535621857929911_);" d="M127.9,141.7h0.9v13.4h-0.9
		C127.9,155.1,127.9,141.7,127.9,141.7z"/>

		<linearGradient id="SVGID_00000034056210496963444200000004469290874413821626_" gradientUnits="userSpaceOnUse" x1="-583.0278" y1="682.0037" x2="-583.0278" y2="695.3424" gradientTransform="matrix(1 0 0 -1 702.5 837)">
		<stop  offset="0" style="stop-color:#1492E7"/>
		<stop  offset="1" style="stop-color:#DBEDFB"/>
	</linearGradient>
	<path style="fill:url(#SVGID_00000034056210496963444200000004469290874413821626_);" d="M119.2,141.7h0.9c0,0-0.4,3.4-0.4,7
		c0,3.2,0.4,6.4,0.4,6.4h-0.9c0,0-0.4-3.2-0.4-6.4C118.8,145.1,119.2,141.7,119.2,141.7z"/>

		<linearGradient id="SVGID_00000145029505308359389130000010401384602004637609_" gradientUnits="userSpaceOnUse" x1="-591.8525" y1="682.0037" x2="-591.8525" y2="695.3424" gradientTransform="matrix(1 0 0 -1 702.5 837)">
		<stop  offset="0" style="stop-color:#1492E7"/>
		<stop  offset="1" style="stop-color:#DBEDFB"/>
	</linearGradient>
	<path style="fill:url(#SVGID_00000145029505308359389130000010401384602004637609_);" d="M110.6,141.7h0.9c0,0-0.9,3.4-0.9,7
		c0,3.2,0.9,6.4,0.9,6.4h-0.9c0,0-0.9-3.2-0.9-6.4C109.8,145.1,110.6,141.7,110.6,141.7z"/>

		<linearGradient id="SVGID_00000064320918323941413560000010729481283020924579_" gradientUnits="userSpaceOnUse" x1="-600.7664" y1="682.0037" x2="-600.7664" y2="695.3424" gradientTransform="matrix(1 0 0 -1 702.5 837)">
		<stop  offset="0" style="stop-color:#1492E7"/>
		<stop  offset="1" style="stop-color:#DBEDFB"/>
	</linearGradient>
	<path style="fill:url(#SVGID_00000064320918323941413560000010729481283020924579_);" d="M101.9,141.7h0.9c0,0-1.2,3.4-1.2,7
		c0,3.2,1.2,6.4,1.2,6.4h-0.9c0,0-1.2-3.2-1.2-6.4C100.7,145.1,101.9,141.7,101.9,141.7z"/>

		<linearGradient id="SVGID_00000133494845281086346720000015221144226846438030_" gradientUnits="userSpaceOnUse" x1="-609.7693" y1="682.0037" x2="-609.7693" y2="695.3424" gradientTransform="matrix(1 0 0 -1 702.5 837)">
		<stop  offset="0" style="stop-color:#1492E7"/>
		<stop  offset="1" style="stop-color:#DBEDFB"/>
	</linearGradient>
	<path style="fill:url(#SVGID_00000133494845281086346720000015221144226846438030_);" d="M93.2,141.7h0.9c0,0-1.8,2.9-1.8,7
		c0,3.6,1.8,6.4,1.8,6.4h-0.9c0,0-1.8-2.9-1.8-6.4C91.4,144.5,93.2,141.7,93.2,141.7z"/>

		<linearGradient id="SVGID_00000080897048238803952340000008775911716675272373_" gradientUnits="userSpaceOnUse" x1="-618.9506" y1="682.0037" x2="-618.9506" y2="695.3424" gradientTransform="matrix(1 0 0 -1 702.5 837)">
		<stop  offset="0" style="stop-color:#1492E7"/>
		<stop  offset="1" style="stop-color:#DBEDFB"/>
	</linearGradient>
	<path style="fill:url(#SVGID_00000080897048238803952340000008775911716675272373_);" d="M84.4,141.7h0.9c0,0-2.7,2.5-2.7,7
		c0,3.9,2.7,6.4,2.7,6.4h-0.9c0,0-2.7-2-2.7-6.4C81.9,143.8,84.4,141.7,84.4,141.7z"/>

		<linearGradient id="SVGID_00000034054585100486353450000016231844729273395616_" gradientUnits="userSpaceOnUse" x1="-627.6862" y1="682.0037" x2="-627.6862" y2="695.3424" gradientTransform="matrix(1 0 0 -1 702.5 837)">
		<stop  offset="0" style="stop-color:#1492E7"/>
		<stop  offset="1" style="stop-color:#DBEDFB"/>
	</linearGradient>
	<path style="fill:url(#SVGID_00000034054585100486353450000016231844729273395616_);" d="M75.9,141.7h0.9c0,0-3,2.1-3,7
		c0,4.5,3,6.4,3,6.4h-0.9c0,0-3-1.4-3-6.4C72.9,143.3,75.9,141.7,75.9,141.7z"/>
	<path class="st2" d="M124.9,73.8l55.6,96.3c2.3,3.9,0.9,8.9-3,11.2c-3.9,2.3-8.9,0.9-11.2-3L110.6,82c-2.3-3.9-0.9-8.9,3-11.2
		C117.6,68.4,122.6,69.8,124.9,73.8z"/>

		<linearGradient id="SVGID_00000055665320825047426320000005077914971428116922_" gradientUnits="userSpaceOnUse" x1="-556.9101" y1="655.9409" x2="-556.9101" y2="765.8792" gradientTransform="matrix(1 0 0 -1 702.5 837)">
		<stop  offset="0" style="stop-color:#1285E7"/>
		<stop  offset="1" style="stop-color:#00B5EF"/>
	</linearGradient>
	<path style="fill:url(#SVGID_00000055665320825047426320000005077914971428116922_);" d="M123.5,74.5l55.8,96.6
		c1.8,3,0.7,7.1-2.3,8.9l-0.4,0.2c-3,1.8-7.1,0.7-8.9-2.3l-55.8-96.8c-1.8-3-0.7-7.1,2.3-8.9l0.2-0.2
		C117.6,70.2,121.7,71.3,123.5,74.5z"/>

		<linearGradient id="SVGID_00000120535034652603186560000001070686989646884739_" gradientUnits="userSpaceOnUse" x1="-532.2366" y1="656.463" x2="-591.7415" y2="759.5302" gradientTransform="matrix(1 0 0 -1 702.5 837)">
		<stop  offset="0" style="stop-color:#2B90E7"/>
		<stop  offset="1" style="stop-color:#00B6EF"/>
	</linearGradient>
	<path style="fill:url(#SVGID_00000120535034652603186560000001070686989646884739_);" d="M111,78.4l58.5,101.4l0.4,0.2l0.4,0.2
		l0.4,0.2L111,77.3L111,78.4L111,78.4z"/>

		<linearGradient id="SVGID_00000106111449292969445170000004185690333821802372_" gradientUnits="userSpaceOnUse" x1="-529.3697" y1="655.9365" x2="-590.8326" y2="762.3927" gradientTransform="matrix(1 0 0 -1 702.5 837)">
		<stop  offset="0" style="stop-color:#3795EA"/>
		<stop  offset="1" style="stop-color:#49C4F2"/>
	</linearGradient>
	<path style="fill:url(#SVGID_00000106111449292969445170000004185690333821802372_);" d="M111.5,75l61.1,105.9h0.7L111.9,74.5
		l-0.2,0.4C111.7,74.8,111.5,75,111.5,75z"/>

		<linearGradient id="SVGID_00000061440994039824113500000006410912835891578554_" gradientUnits="userSpaceOnUse" x1="-525.8373" y1="656.9392" x2="-588.1611" y2="764.8871" gradientTransform="matrix(1 0 0 -1 702.5 837)">
		<stop  offset="0" style="stop-color:#3696EA"/>
		<stop  offset="1" style="stop-color:#90D9F6"/>
	</linearGradient>
	<path style="fill:url(#SVGID_00000061440994039824113500000006410912835891578554_);" d="M114,72.3l62.4,107.9l0.5-0.4L114.6,72
		C114.6,72,114,72.3,114,72.3z"/>

		<linearGradient id="SVGID_00000119803905231427576320000011281115727288917683_" gradientUnits="userSpaceOnUse" x1="-523.0811" y1="659.4825" x2="-584.6212" y2="766.0725" gradientTransform="matrix(1 0 0 -1 702.5 837)">
		<stop  offset="0" style="stop-color:#3097EA"/>
		<stop  offset="1" style="stop-color:#B5E5F9"/>
	</linearGradient>
	<path style="fill:url(#SVGID_00000119803905231427576320000011281115727288917683_);" d="M118.5,71.3l61,105.7l-0.2,0.4l-0.2,0.4
		L117.6,71.1h0.4C118,71.1,118.5,71.3,118.5,71.3z"/>

		<linearGradient id="SVGID_00000026877396006701622360000001534044551218849467_" gradientUnits="userSpaceOnUse" x1="-522.1508" y1="662.4327" x2="-581.5793" y2="765.3658" gradientTransform="matrix(1 0 0 -1 702.5 837)">
		<stop  offset="0" style="stop-color:#3A98EA"/>
		<stop  offset="1" style="stop-color:#BCE7FA"/>
	</linearGradient>
	<path style="fill:url(#SVGID_00000026877396006701622360000001534044551218849467_);" d="M121.7,72.3l58.5,101.3v1.1L120.6,71.8
		L121,72l0.4,0.2C121.3,72.2,121.7,72.3,121.7,72.3z"/>
	<path class="st26" d="M177.5,167.9l-0.4-0.7c0,0-0.4,3.6-4.3,6.1c-3.7,2.3-7.1,0.7-7.1,0.7l0.4,0.7c0,0,2.9,2,7.1-0.7
		C177.5,171.5,177.5,167.9,177.5,167.9z M173,160.4l-0.4-0.7c0,0-0.9,3.6-4.6,5.7c-3.4,2.1-6.8,1.1-6.8,1.1l0.4,0.7c0,0,3,1.2,7-1.1
		C172.5,163.8,173,160.4,173,160.4z"/>
	<path class="st27" d="M168.8,152.9l-0.4-0.7c0,0-1.6,3-5,5c-3,1.8-6.4,1.8-6.4,1.8l0.4,0.7c0,0,3.2,0,6.4-1.8
		C167.2,155.9,168.8,152.9,168.8,152.9z"/>
	<path class="st28" d="M164.5,145.4l-0.4-0.7c0,0-2.3,3-5.3,4.6c-2.9,1.6-6.2,2.1-6.2,2.1l0.4,0.7c0,0,3.4-0.5,6.2-2.1
		C162,148.5,164.5,145.4,164.5,145.4z"/>

		<linearGradient id="SVGID_00000124842203448047973030000012280062075522790797_" gradientUnits="userSpaceOnUse" x1="-567.0039" y1="715.0104" x2="-555.4587" y2="721.6762" gradientTransform="matrix(1 0 0 -1 702.5 837)">
		<stop  offset="0" style="stop-color:#00A4EC"/>
		<stop  offset="1" style="stop-color:#B9DFF6"/>
	</linearGradient>
	<path style="fill:url(#SVGID_00000124842203448047973030000012280062075522790797_);" d="M146.8,115.1l0.4,0.7c0,0-3,1.4-6.1,3
		c-2.9,1.6-5.3,3.7-5.3,3.7l-0.4-0.7c0,0,2.7-2.1,5.3-3.7C143.8,116.5,146.8,115.1,146.8,115.1z"/>

		<linearGradient id="SVGID_00000051359190792234932560000003192933059191331717_" gradientUnits="userSpaceOnUse" x1="-571.3503" y1="722.5391" x2="-559.8069" y2="729.2049" gradientTransform="matrix(1 0 0 -1 702.5 837)">
		<stop  offset="0" style="stop-color:#00A4EC"/>
		<stop  offset="1" style="stop-color:#B9DFF6"/>
	</linearGradient>
	<path style="fill:url(#SVGID_00000051359190792234932560000003192933059191331717_);" d="M142.6,107.6l0.4,0.7c0,0-3.4,1.1-6.2,2.9
		c-2.9,1.6-5.2,4.1-5.2,4.1l-0.4-0.7c0,0,2.3-2.5,5.2-4.1C139.2,108.5,142.6,107.6,142.6,107.6z"/>
	<path class="st31" d="M134.5,101.8c2.3-0.7,4.1-1.1,4.1-1.1l-0.4-0.7c0,0-1.6,0.2-3.4,0.9C133.8,101.2,133.6,102.1,134.5,101.8z"/>

		<linearGradient id="SVGID_00000150075405381193543120000006736221499119254409_" gradientUnits="userSpaceOnUse" x1="-584.8038" y1="745.8374" x2="-573.3334" y2="752.4586" gradientTransform="matrix(1 0 0 -1 702.5 837)">
		<stop  offset="0" style="stop-color:#00B4EF"/>
		<stop  offset="1" style="stop-color:#C3E9FA"/>
	</linearGradient>
	<path style="fill:url(#SVGID_00000150075405381193543120000006736221499119254409_);" d="M129.5,85.2l0.4,0.7c0,0-3.4-0.9-7.3,1.2
		c-3.4,2.1-4.1,5.5-4.1,5.5l-0.4-0.7c0,0,0.4-3,4.1-5.3C126.2,84.1,129.5,85.2,129.5,85.2z"/>

		<linearGradient id="SVGID_00000104681176210967269340000013247625284280649378_" gradientUnits="userSpaceOnUse" x1="-589.3112" y1="753.647" x2="-577.7659" y2="760.3127" gradientTransform="matrix(1 0 0 -1 702.5 837)">
		<stop  offset="0" style="stop-color:#00B4EF"/>
		<stop  offset="1" style="stop-color:#C3E9FA"/>
	</linearGradient>
	<path style="fill:url(#SVGID_00000104681176210967269340000013247625284280649378_);" d="M125.3,77.5l0.5,0.7c0,0-3.6-1.4-7.7,0.9
		c-3.9,2.5-3.9,5.9-3.9,5.9l-0.5-0.7c0,0-0.4-3,3.9-5.7C122.1,75.9,125.3,77.5,125.3,77.5z"/>
	<path class="st2" d="M113.3,140.1c15.5-26.7,33.3-57.8,33.3-57.8c2.3-3.9,0.9-8.9-3-11.2s-8.9-0.9-11.2,3c0,0-21.7,37.8-38.2,66
		C94.2,140.1,113.3,140.1,113.3,140.1z M103.7,156.5C96.2,169.3,91,178.6,91,178.6c-2.3,3.9-7.3,5.3-11.2,3s-5.3-7.3-3-11.2
		c0,0,3-5.5,7.8-13.7C90.7,156.5,101.7,156.5,103.7,156.5z"/>

		<linearGradient id="SVGID_00000111899504259105797730000001692369723733195181_" gradientUnits="userSpaceOnUse" x1="-590.8719" y1="655.7345" x2="-590.8719" y2="765.5659" gradientTransform="matrix(1 0 0 -1 702.5 837)">
		<stop  offset="0" style="stop-color:#1285E7"/>
		<stop  offset="1" style="stop-color:#00B5EF"/>
	</linearGradient>
	<path style="fill:url(#SVGID_00000111899504259105797730000001692369723733195181_);" d="M111.4,140.1
		c15.7-27.1,33.9-58.7,33.9-58.7c1.8-3,0.7-7.1-2.3-8.9l-0.2-0.2c-3-1.8-7.1-0.7-8.9,2.3c0,0-21.4,37.1-37.8,65.4H111.4z
		 M101.9,156.5c-7.1,12.5-12.3,21.4-12.3,21.4c-1.8,3-5.7,4.1-8.9,2.3h-0.4c-3-1.8-4.1-5.7-2.3-8.9c0,0,3.4-5.9,8.6-14.8
		C86.6,156.5,101.9,156.5,101.9,156.5z"/>

		<linearGradient id="SVGID_00000005231182842420857850000001354205828942121861_" gradientUnits="userSpaceOnUse" x1="-615.5649" y1="656.2444" x2="-556.0911" y2="759.2543" gradientTransform="matrix(1 0 0 -1 702.5 837)">
		<stop  offset="0" style="stop-color:#3194E9"/>
		<stop  offset="1" style="stop-color:#71CFF4"/>
	</linearGradient>
	<path style="fill:url(#SVGID_00000005231182842420857850000001354205828942121861_);" d="M110.8,140.1l35.5-61.3v-1.1
		c0,0-19.6,34.1-36,62.4H110.8z M101.2,156.5L87.6,180l-0.5,0.4l-0.5,0.2c0,0,6.1-10.5,13.9-24.1
		C100.5,156.5,101.2,156.5,101.2,156.5z"/>

		<linearGradient id="SVGID_00000114768558324785315970000011429119317803575183_" gradientUnits="userSpaceOnUse" x1="-618.5471" y1="655.6278" x2="-557.085" y2="762.0846" gradientTransform="matrix(1 0 0 -1 702.5 837)">
		<stop  offset="0" style="stop-color:#5AA6EC"/>
		<stop  offset="1" style="stop-color:#A2DEF8"/>
	</linearGradient>
	<path style="fill:url(#SVGID_00000114768558324785315970000011429119317803575183_);" d="M108.2,140.1l37.4-64.7l-0.2-0.4l-0.2-0.4
		c0,0-20.5,35.5-37.6,65.2C107.6,139.9,108.2,140.1,108.2,140.1z M98.7,156.5l-14.3,24.6h-0.7c0,0,6.1-10.5,14.3-24.8
		C98.3,156.5,98.7,156.5,98.7,156.5z"/>

		<linearGradient id="SVGID_00000133502027436057498920000017140538168080068009_" gradientUnits="userSpaceOnUse" x1="-621.9615" y1="656.6439" x2="-559.6823" y2="764.5145" gradientTransform="matrix(1 0 0 -1 702.5 837)">
		<stop  offset="0" style="stop-color:#66ABEE"/>
		<stop  offset="1" style="stop-color:#BEE8FA"/>
	</linearGradient>
	<path style="fill:url(#SVGID_00000133502027436057498920000017140538168080068009_);" d="M104.2,140.1
		c17.6-30.5,38.9-67.4,38.9-67.4l-0.5-0.4l-39.2,67.7C103.3,140.1,104.2,140.1,104.2,140.1z M94.6,156.7
		c-7.8,13.7-13.7,23.9-13.7,23.9l-0.5-0.4c0,0,5.7-10,13.5-23.5C94.2,156.5,94.1,156.5,94.6,156.7z"/>

		<linearGradient id="SVGID_00000042726392312767727280000008611272471166014862_" gradientUnits="userSpaceOnUse" x1="-624.7209" y1="659.2642" x2="-563.1849" y2="765.8474" gradientTransform="matrix(1 0 0 -1 702.5 837)">
		<stop  offset="0" style="stop-color:#7BB6F0"/>
		<stop  offset="1" style="stop-color:#B1E3F9"/>
	</linearGradient>
	<path style="fill:url(#SVGID_00000042726392312767727280000008611272471166014862_);" d="M100,140.1c17.6-30.5,39.6-68.6,39.6-68.6
		h-0.7c0,0-21.9,38-39.6,68.6H100z M89.6,156.5c-7.1,12.3-11.9,20.7-11.9,20.7l0.2,0.4l0.2,0.4c0,0,5.2-8.9,12.5-21.4
		C90.5,156.5,89.6,156.5,89.6,156.5z"/>

		<linearGradient id="SVGID_00000006698307541731400210000007967303025608502163_" gradientUnits="userSpaceOnUse" x1="-625.6732" y1="662.1519" x2="-566.2016" y2="765.1605" gradientTransform="matrix(1 0 0 -1 702.5 837)">
		<stop  offset="0" style="stop-color:#5AA6EC"/>
		<stop  offset="1" style="stop-color:#AFE3F9"/>
	</linearGradient>
	<path style="fill:url(#SVGID_00000006698307541731400210000007967303025608502163_);" d="M97.3,140.1l39.2-67.9l-0.4,0.2l-0.4,0.2
		l-0.2,0.2c0,0-21.7,37.6-38.9,67.4H97.3z M87.8,156.5C81.6,167.4,77.1,175,77.1,175v-1.4c0,0,3.9-6.8,10-17.3
		C87.5,156.5,87.5,156.5,87.8,156.5z"/>

		<linearGradient id="SVGID_00000135690297033856782050000008252537240778512319_" gradientUnits="userSpaceOnUse" x1="-569.7867" y1="760.4516" x2="-558.2415" y2="753.7858" gradientTransform="matrix(1 0 0 -1 702.5 837)">
		<stop  offset="0" style="stop-color:#C1E7FA"/>
		<stop  offset="1" style="stop-color:#89D4F5"/>
	</linearGradient>
	<path style="fill:url(#SVGID_00000135690297033856782050000008252537240778512319_);" d="M132,77.5l-0.4,0.7c0,0,3.2-1.6,7.5,0.7
		c3.9,2.1,4.1,5.9,4.1,5.9l0.4-0.7c0,0,0.4-3.4-4.1-5.9C135.1,75.7,132,77.5,132,77.5z"/>

		<linearGradient id="SVGID_00000087390562922180488470000014837915346054725049_" gradientUnits="userSpaceOnUse" x1="-574.2746" y1="752.6776" x2="-562.7294" y2="746.0135" gradientTransform="matrix(1 0 0 -1 702.5 837)">
		<stop  offset="0" style="stop-color:#C1E7FA"/>
		<stop  offset="1" style="stop-color:#89D4F5"/>
	</linearGradient>
	<path style="fill:url(#SVGID_00000087390562922180488470000014837915346054725049_);" d="M127.8,85.2l-0.4,0.7c0,0,3.6-1.1,7.3,1.1
		c3.6,2,4.3,5.3,4.3,5.3l0.4-0.7c0,0-0.4-3.2-4.3-5.3C131,83.9,127.8,85.2,127.8,85.2z"/>

		<linearGradient id="SVGID_00000069384223216011534440000012195431552977607855_" gradientUnits="userSpaceOnUse" x1="-578.8904" y1="744.6808" x2="-567.3469" y2="738.0168" gradientTransform="matrix(1 0 0 -1 702.5 837)">
		<stop  offset="0" style="stop-color:#C1E7FA"/>
		<stop  offset="1" style="stop-color:#89D4F5"/>
	</linearGradient>
	<path style="fill:url(#SVGID_00000069384223216011534440000012195431552977607855_);" d="M123.3,92.7l-0.4,0.7c0,0,3.2-0.2,6.8,2
		c3.2,1.8,4.8,4.6,4.8,4.6l0.4-0.7c0,0-1.6-2.9-4.8-4.6C126.7,92.7,123.3,92.7,123.3,92.7z"/>

		<linearGradient id="SVGID_00000081610872616628011830000009930607018031500198_" gradientUnits="userSpaceOnUse" x1="-583.3797" y1="736.9067" x2="-571.8362" y2="730.241" gradientTransform="matrix(1 0 0 -1 702.5 837)">
		<stop  offset="0" style="stop-color:#B0DFF8"/>
		<stop  offset="1" style="stop-color:#52BDF2"/>
	</linearGradient>
	<path style="fill:url(#SVGID_00000081610872616628011830000009930607018031500198_);" d="M119,100.3l-0.4,0.7c0,0,3.6,0.5,6.6,2.3
		c2.9,1.6,5,4.3,5,4.3l0.4-0.7c0,0-2.1-2.7-5-4.3C122.6,100.9,119,100.3,119,100.3z"/>

		<linearGradient id="SVGID_00000142143945421854678760000010057775522546522503_" gradientUnits="userSpaceOnUse" x1="-587.8359" y1="729.1887" x2="-576.2889" y2="722.5228" gradientTransform="matrix(1 0 0 -1 702.5 837)">
		<stop  offset="0" style="stop-color:#B4DEF8"/>
		<stop  offset="1" style="stop-color:#4EB5F0"/>
	</linearGradient>
	<path style="fill:url(#SVGID_00000142143945421854678760000010057775522546522503_);" d="M114.6,107.8l-0.4,0.7
		c0,0,3.4,0.9,6.4,2.7c2.9,1.6,5.2,3.9,5.2,3.9l0.4-0.7c0,0-2.3-2.3-5.2-3.9C118.1,108.9,114.6,107.8,114.6,107.8z"/>

		<linearGradient id="SVGID_00000036951303750565490250000016735939634644895146_" gradientUnits="userSpaceOnUse" x1="-592.2904" y1="721.4705" x2="-580.7429" y2="714.8041" gradientTransform="matrix(1 0 0 -1 702.5 837)">
		<stop  offset="0" style="stop-color:#B4DEF8"/>
		<stop  offset="1" style="stop-color:#4EB5F0"/>
	</linearGradient>
	<path style="fill:url(#SVGID_00000036951303750565490250000016735939634644895146_);" d="M110.3,115.3l-0.5,0.7c0,0,3.2,1.2,6.2,3
		c2.9,1.6,5.3,3.6,5.3,3.6l0.4-0.7c0,0-2.5-2-5.3-3.6C113.5,116.7,110.3,115.3,110.3,115.3z"/>

		<linearGradient id="SVGID_00000121991425268875482390000012775725956972001464_" gradientUnits="userSpaceOnUse" x1="-596.7824" y1="713.688" x2="-585.2408" y2="707.024" gradientTransform="matrix(1 0 0 -1 702.5 837)">
		<stop  offset="0" style="stop-color:#B5DDF8"/>
		<stop  offset="1" style="stop-color:#46AEEE"/>
	</linearGradient>
	<path style="fill:url(#SVGID_00000121991425268875482390000012775725956972001464_);" d="M105.5,123.7l0.4-0.7l11.6,6.6l-0.4,0.7
		C117.1,130.3,105.5,123.7,105.5,123.7z"/>

		<linearGradient id="SVGID_00000075144601916812982410000015341349324224131492_" gradientUnits="userSpaceOnUse" x1="-601.2394" y1="705.9737" x2="-589.6923" y2="699.3068" gradientTransform="matrix(1 0 0 -1 702.5 837)">
		<stop  offset="0" style="stop-color:#96CEF4"/>
		<stop  offset="1" style="stop-color:#46AAEE"/>
	</linearGradient>
	<path style="fill:url(#SVGID_00000075144601916812982410000015341349324224131492_);" d="M101.2,131.3l0.4-0.7c0,0,2.9,2.1,5.9,3.7
		c2.9,1.6,5.7,2.9,5.7,2.9l-0.4,0.5c0,0-3-1.2-5.9-2.9C103.9,133.3,101.2,131.3,101.2,131.3z"/>
	<path class="st48" d="M98.3,140.1c-0.9-0.7-1.4-1.2-1.4-1.2l0.4-0.7c0,0,1.1,0.9,2.5,2C99.8,140.1,98.3,140.1,98.3,140.1z"/>

		<linearGradient id="SVGID_00000142877409661698487020000011734973349157087879_" gradientUnits="userSpaceOnUse" x1="-611.8907" y1="681.2944" x2="-603.0446" y2="676.1867" gradientTransform="matrix(1 0 0 -1 702.5 837)">
		<stop  offset="0" style="stop-color:#8FC1F2"/>
		<stop  offset="1" style="stop-color:#3193EA"/>
	</linearGradient>
	<path style="fill:url(#SVGID_00000142877409661698487020000011734973349157087879_);" d="M91.4,156.5c0.7,0.5,1.4,1.1,2.3,1.6
		c3.2,1.8,6.4,1.6,6.4,1.6l-0.4,0.7c0,0-3.2,0.2-6.4-1.6c-1.2-0.7-2.3-1.6-3-2.3C90.3,156.5,91.4,156.5,91.4,156.5z"/>

		<linearGradient id="SVGID_00000011713810296821824990000016764042420560622763_" gradientUnits="userSpaceOnUse" x1="-619.228" y1="674.8315" x2="-607.6827" y2="668.1658" gradientTransform="matrix(1 0 0 -1 702.5 837)">
		<stop  offset="0" style="stop-color:#8FC1F2"/>
		<stop  offset="1" style="stop-color:#3193EA"/>
	</linearGradient>
	<path style="fill:url(#SVGID_00000011713810296821824990000016764042420560622763_);" d="M83.7,161.5l0.4-0.7c0,0,0.9,3.6,4.8,5.7
		c3.6,2,6.8,0.9,6.8,0.9l-0.4,0.7c0,0-2.9,1.2-6.8-0.9C84.4,164.9,83.7,161.5,83.7,161.5z"/>

		<linearGradient id="SVGID_00000110440114878485900800000002603375277973008831_" gradientUnits="userSpaceOnUse" x1="-623.7767" y1="666.9379" x2="-612.2299" y2="660.2701" gradientTransform="matrix(1 0 0 -1 702.5 837)">
		<stop  offset="0" style="stop-color:#8FC1F2"/>
		<stop  offset="1" style="stop-color:#3193EA"/>
	</linearGradient>
	<path style="fill:url(#SVGID_00000110440114878485900800000002603375277973008831_);" d="M79.3,169.1l0.4-0.7c0,0,0.4,3.7,4.6,6.1
		c3.9,2.1,7,0.5,7,0.5l-0.5,0.7c0,0-2.7,2-7-0.5C79.3,172.7,79.3,169.1,79.3,169.1z"/>

		<linearGradient id="SVGID_00000183958713711508354160000005099502781132877479_" gradientUnits="userSpaceOnUse" x1="-551.3915" y1="708.1724" x2="-529.1835" y2="697.342" gradientTransform="matrix(1 0 0 -1 702.5 837)">
		<stop  offset="1.000000e-03" style="stop-color:#000000"/>
		<stop  offset="1" style="stop-color:#000000;stop-opacity:0"/>
	</linearGradient>
	<path style="fill:url(#SVGID_00000183958713711508354160000005099502781132877479_);" d="M137,216.6l76.3-160.3l-19.3-9.1
		l-79.5,166.7c0,0,2.5,1.2,5.7,2.7H137z"/>

		<radialGradient id="SVGID_00000031901611949857190480000013377392992811373503_" cx="-601.4581" cy="1321.0911" r="28.8471" fx="-629.3621" fy="1322.5922" gradientTransform="matrix(-0.4494 0.8933 1.5457 0.7777 -2128.1367 -432.359)" gradientUnits="userSpaceOnUse">
		<stop  offset="0" style="stop-color:#000000"/>
		<stop  offset="1" style="stop-color:#000000;stop-opacity:0"/>
	</radialGradient>
	<path style="fill:url(#SVGID_00000031901611949857190480000013377392992811373503_);" d="M182.1,37.6l35.7,16.9v51.2
		c-12.3-5.9-94.7-45.1-94.7-45.1s5.7-11.9,11.1-23C134.2,37.6,182.1,37.6,182.1,37.6z"/>

		<radialGradient id="SVGID_00000049920273248125511540000001831256267023284126_" cx="-445.6967" cy="563.4687" r="14.07" fx="-445.7234" fy="567.6339" gradientTransform="matrix(0.8979 0.4402 0.2506 -0.5111 364.6755 702.1081)" gradientUnits="userSpaceOnUse">
		<stop  offset="0.417" style="stop-color:#0C0C12"/>
		<stop  offset="1" style="stop-color:#3D4651"/>
	</radialGradient>
	<path style="fill:url(#SVGID_00000049920273248125511540000001831256267023284126_);" d="M93.7,209.4c-0.5,1.1-1.4,2.3-1.2,4.3
		c0.2,7.3,12.1,14.1,19.1,14.1c4.8,0,6.4-2,8.2-5.5C121.5,218.7,95.7,205.2,93.7,209.4z"/>

		<linearGradient id="SVGID_00000124138724022786112780000010729157983631105925_" gradientUnits="userSpaceOnUse" x1="-537.076" y1="754.0777" x2="-519.6691" y2="745.2084" gradientTransform="matrix(1 0 0 -1 702.5 837)">
		<stop  offset="0" style="stop-color:#344351"/>
		<stop  offset="0.1" style="stop-color:#9697A0"/>
		<stop  offset="0.181" style="stop-color:#8B8C95"/>
		<stop  offset="0.351" style="stop-color:#787A83"/>
		<stop  offset="0.47" style="stop-color:#71747D"/>
		<stop  offset="0.591" style="stop-color:#777982"/>
		<stop  offset="0.749" style="stop-color:#87898F"/>
		<stop  offset="0.8" style="stop-color:#8E8F94"/>
		<stop  offset="0.849" style="stop-color:#3D3B42"/>
		<stop  offset="0.9" style="stop-color:#606E84"/>
	</linearGradient>
	<path style="fill:url(#SVGID_00000124138724022786112780000010729157983631105925_);" d="M175.9,57.7c0,0,18.4,4.5,19.8,5.7
		s-2.3,8.4-3,9.4c-5.9,7.1-24.2,46.5-24.2,46.5l-16.9-9.6c0,0,15.2-28.2,20.5-38.2C175.4,64.8,175.9,57.7,175.9,57.7z"/>

		<linearGradient id="SVGID_00000087375105582841584770000001070202434077248670_" gradientUnits="userSpaceOnUse" x1="-477.9098" y1="771.91" x2="-497.5577" y2="798.4608" gradientTransform="matrix(1 0 0 -1 702.5 837)">
		<stop  offset="0.27" style="stop-color:#262B33"/>
		<stop  offset="0.45" style="stop-color:#74747E"/>
		<stop  offset="0.54" style="stop-color:#B0B0BC"/>
		<stop  offset="0.73" style="stop-color:#74747E"/>
	</linearGradient>
	<path style="fill:url(#SVGID_00000087375105582841584770000001070202434077248670_);" d="M218.3,48.4c3.2,2.3,7.5,1.8,10.9,1.2
		c2.3-0.4-1.2,3-5.2,10.9c-3.9,7.8-3.7,8.4-4.3,7.8c-0.5-0.5-18.2-10.5-17.6-11.4c0.7-0.9,3.6-20.3,5-19.8
		C212.3,38.5,213.2,44.7,218.3,48.4z"/>

		<linearGradient id="SVGID_00000057130997077700347270000014955072518643865264_" gradientUnits="userSpaceOnUse" x1="-512.4543" y1="769.7075" x2="-483.4686" y2="773.4516" gradientTransform="matrix(1 0 0 -1 702.5 837)">
		<stop  offset="0.14" style="stop-color:#606E84"/>
		<stop  offset="0.4" style="stop-color:#9899A5"/>
		<stop  offset="0.73" style="stop-color:#475768"/>
		<stop  offset="0.92" style="stop-color:#262B33"/>
	</linearGradient>
	<path style="fill:url(#SVGID_00000057130997077700347270000014955072518643865264_);" d="M190.9,70.4c1.2-2,7-14.1,16-14.1
		c4.1,0,11.9,10.3,12.7,11.8c0.5,1.2-1.2,6.2-2.1,3.9c-1.1-2.7-5.5-8.4-10.3-8.4c-4.8,0-11.4,5.5-13,7.5
		C192.5,72.9,189.6,72.3,190.9,70.4z"/>

		<linearGradient id="SVGID_00000039844114759455670250000017487110285608788373_" gradientUnits="userSpaceOnUse" x1="-498.8882" y1="767.3293" x2="-501.7031" y2="783.2922" gradientTransform="matrix(1 0 0 -1 702.5 837)">
		<stop  offset="0" style="stop-color:#101215;stop-opacity:0.1"/>
		<stop  offset="0.46" style="stop-color:#101215;stop-opacity:0.7"/>
		<stop  offset="0.7" style="stop-color:#474951"/>
		<stop  offset="0.91" style="stop-color:#7B7D88"/>
	</linearGradient>
	<path style="fill:url(#SVGID_00000039844114759455670250000017487110285608788373_);" d="M190.5,69.7c0.9-1.4,5-7.7,7-9.6
		c2-2,7-7.1,11.2-7.8c4.3-0.7,8.7,8,7.3,9.8c-1.1,1.2-2.9-0.2-5-2c-2.1-1.6-3.6-4.8-10.3,0.4c-2.3,1.8-4.6,3.2-10,10.9
		C189.3,73.2,189.6,71.1,190.5,69.7z"/>

		<linearGradient id="SVGID_00000056398574869702717630000016563030522949345181_" gradientUnits="userSpaceOnUse" x1="-584.4541" y1="678.4086" x2="-557.5236" y2="665.1572" gradientTransform="matrix(1 0 0 -1 702.5 837)">
		<stop  offset="0.115" style="stop-color:#2C3952"/>
		<stop  offset="0.374" style="stop-color:#3D414E"/>
		<stop  offset="0.55" style="stop-color:#474A54"/>
		<stop  offset="0.754" style="stop-color:#4E5057"/>
		<stop  offset="0.892" style="stop-color:#323945"/>
		<stop  offset="1" style="stop-color:#143052"/>
	</linearGradient>
	<path style="fill:url(#SVGID_00000056398574869702717630000016563030522949345181_);" d="M168.4,121.7c0.7-1.4,1.6-3.6-0.4-5.2
		c-2.1-1.6-12.1-7-13.9-7.3s-3.2,0-3.9,1.2c-0.7,1.2-55.4,95-56.5,97.7s-1.2,4.6,0.4,5.2s20,9.3,21.7,11.2c1.8,2,2.7-0.2,3.4-1.2
		C122.6,219.1,167.5,123.1,168.4,121.7z"/>

		<linearGradient id="SVGID_00000147180593292705184930000013813043270695132349_" gradientUnits="userSpaceOnUse" x1="-542.6476" y1="767.4788" x2="-521.8212" y2="813.1748" gradientTransform="matrix(1 0 0 -1 702.5 837)">
		<stop  offset="0.118" style="stop-color:#6D7078;stop-opacity:0"/>
		<stop  offset="0.2" style="stop-color:#6D7078;stop-opacity:0.7"/>
		<stop  offset="0.34" style="stop-color:#35363A"/>
		<stop  offset="0.374" style="stop-color:#1D1F22"/>
		<stop  offset="0.4" style="stop-color:#101215"/>
		<stop  offset="0.5" style="stop-color:#16171A"/>
		<stop  offset="0.56" style="stop-color:#292A2E"/>
		<stop  offset="0.688" style="stop-color:#4B4D51"/>
		<stop  offset="0.807" style="stop-color:#63666B"/>
		<stop  offset="0.915" style="stop-color:#72757B"/>
		<stop  offset="1" style="stop-color:#777A80"/>
	</linearGradient>
	<path style="fill:url(#SVGID_00000147180593292705184930000013813043270695132349_);" d="M191.8,69.3c0.9-1.2,3-4.8,5.7-8
		c1.8-2.1,11.4-6.8,13.5-14.3c1.2-4.1-0.7-8.2-3.4-10c-9.1-5.5-24.8-14.3-47.8-14.3c-15.5,0-22.1,5.2-22.1,5.2h7.8l27.3,10.7
		l3.4,14.3c0,0,0.4,4.8-1.2,10.3c-1.1,4.5-1.4,7.1-3,11.6c1.2,0.5,4.1-1.4,7.3-0.5c2.9,0.7,4.6,4.6,6.6,2.3
		C189.3,72.2,190.3,71.3,191.8,69.3z"/>

		<linearGradient id="SVGID_00000158712206114218791320000017542960175970387117_" gradientUnits="userSpaceOnUse" x1="-564.9968" y1="794.015" x2="-525.8435" y2="794.015" gradientTransform="matrix(1 0 0 -1 702.5 837)">
		<stop  offset="0" style="stop-color:#4A4D56"/>
		<stop  offset="1" style="stop-color:#29292D"/>
	</linearGradient>
	<path style="fill:url(#SVGID_00000158712206114218791320000017542960175970387117_);" d="M175.7,58.3c-1.4-13.2-4.6-25.7-38.2-25.5
		c2.1-2.1,7.3-4.3,7.3-4.3l-7.3-0.5c0,0,1.1-0.9,3.2-1.1c19.6-1.6,37.1,2.5,35.8,28C176.4,59,176.1,60.7,175.7,58.3z"/>

		<linearGradient id="SVGID_00000073682813117299108160000009588484536970018202_" gradientUnits="userSpaceOnUse" x1="-564.9968" y1="803.1321" x2="-531.1419" y2="803.1321" gradientTransform="matrix(1 0 0 -1 702.5 837)">
		<stop  offset="0" style="stop-color:#767880"/>
		<stop  offset="0.41" style="stop-color:#0C0A0B"/>
	</linearGradient>
	<path style="fill:url(#SVGID_00000073682813117299108160000009588484536970018202_);" d="M137.6,32.8c2.3-0.9,5.5-1.4,11.6-1.1
		c7.5,0.4,16.9,3.2,20.9,6.8c2,1.8,1.8,0.4-0.4-2c-5.5-6.4-13.9-7.8-24.8-8C143.6,28.3,139.5,30.6,137.6,32.8z"/>

		<linearGradient id="SVGID_00000145018429132914408630000007184822986196985753_" gradientUnits="userSpaceOnUse" x1="-480.6928" y1="762.0474" x2="-467.5495" y2="784.8126" gradientTransform="matrix(1 0 0 -1 702.5 837)">
		<stop  offset="0" style="stop-color:#858997"/>
		<stop  offset="0.23" style="stop-color:#244668"/>
		<stop  offset="0.282" style="stop-color:#1A3249"/>
		<stop  offset="0.4" style="stop-color:#040506"/>
		<stop  offset="0.464" style="stop-color:#313236"/>
		<stop  offset="0.546" style="stop-color:#65656E"/>
		<stop  offset="0.607" style="stop-color:#868691"/>
		<stop  offset="0.64" style="stop-color:#92929E"/>
	</linearGradient>
	<path style="fill:url(#SVGID_00000145018429132914408630000007184822986196985753_);" d="M229.6,49.7l9.8,5c0,0-3.7,5-6.8,10.7
		c-3.2,6.1-5.3,12.7-5.3,12.7l-9.4-5.7c0,0,2.3-6.4,5.7-12.7C226.2,54.5,229.6,49.7,229.6,49.7z"/>
	<path class="st64" d="M239.4,54.7c0.7,0.4-1.6,5.9-5,12.3c-3.4,6.4-6.6,11.4-7.1,11.1c-0.7-0.4,1.6-5.9,5-12.3
		C235.4,59.3,238.7,54.3,239.4,54.7z"/>
</g>
</svg>
