<svg width="256" height="256" title="Xftp" viewBox="0 0 256 256" fill="none" xmlns="http://www.w3.org/2000/svg" id="xftp">
<style>
#xftp {
    rect {fill: #15191C}

    @media (prefers-color-scheme: light) {
        rect {fill: #F4F2ED}
    }
}
</style>
<rect width="256" height="256" rx="40" fill="#15191C"/>
<path d="M57.322 60.2206C57.8031 60.2159 58.2842 60.2112 58.7799 60.2064C60.3744 60.1924 61.9689 60.1842 63.5634 60.1771C64.3798 60.1727 64.3798 60.1727 65.2127 60.1683C68.0928 60.1535 70.9729 60.1433 73.853 60.1367C76.8292 60.1288 79.805 60.1044 82.781 60.0762C85.0684 60.0577 87.3558 60.0517 89.6433 60.0492C90.7405 60.0457 91.8376 60.0375 92.9347 60.0243C94.4702 60.0071 96.0047 60.0077 97.5403 60.0126C98.4139 60.0085 99.2875 60.0043 100.188 60C102.953 60.4308 103.6 60.9518 105.254 63.1855C106.356 65.095 107.326 67.0529 108.276 69.0414C108.534 69.5703 108.793 70.0991 109.059 70.644C109.692 71.941 110.318 73.2414 110.942 74.5425C111.652 74.544 111.652 74.544 112.376 74.5456C123.889 74.5719 135.401 74.6138 146.914 74.673C152.482 74.7012 158.049 74.7242 163.617 74.7348C168.47 74.744 173.322 74.7632 178.175 74.7942C180.744 74.8102 183.314 74.8214 185.883 74.8206C188.752 74.82 191.62 74.8415 194.489 74.8648C195.766 74.8594 195.766 74.8594 197.069 74.854C202.828 74.9266 202.828 74.9266 205.666 76.6074C207.811 79.1205 207.737 80.6776 207.749 83.9426C207.751 84.4022 207.754 84.8617 207.756 85.3353C207.764 86.8822 207.767 88.4292 207.77 89.9762C207.774 91.0826 207.779 92.1889 207.784 93.2953C207.796 96.3062 207.804 99.3171 207.81 102.328C207.813 104.208 207.818 106.089 207.822 107.969C207.836 113.85 207.846 119.731 207.852 125.612C207.859 132.404 207.877 139.197 207.906 145.989C207.927 151.237 207.938 156.484 207.94 161.732C207.942 164.868 207.948 168.003 207.966 171.138C207.983 174.088 207.986 177.038 207.979 179.987C207.978 181.07 207.983 182.152 207.992 183.235C208.005 184.713 208 186.191 207.991 187.669C207.992 188.497 207.994 189.324 207.996 190.176C207.569 192.836 206.665 194.01 204.8 195.92C202.513 197.062 200.02 196.735 197.508 196.735C196.894 196.737 196.279 196.74 195.646 196.743C193.576 196.75 191.506 196.753 189.435 196.756C187.955 196.76 186.476 196.765 184.996 196.77C180.968 196.782 176.94 196.79 172.912 196.796C170.397 196.799 167.882 196.804 165.367 196.808C157.504 196.822 149.641 196.832 141.778 196.838C132.691 196.845 123.605 196.863 114.518 196.892C107.501 196.913 100.485 196.924 93.4676 196.926C89.2736 196.928 85.0797 196.934 80.8857 196.952C76.941 196.969 72.9966 196.972 69.0519 196.964C67.6029 196.964 66.1539 196.968 64.705 196.978C62.7289 196.991 60.7535 196.986 58.7774 196.976C58.2022 196.984 57.627 196.992 57.0343 197C54.3511 196.969 52.8027 196.736 50.5197 195.278C48.0171 192.691 48.2773 190.915 48.2658 187.374C48.2619 186.593 48.2619 186.593 48.2579 185.797C48.25 184.044 48.2473 182.291 48.2446 180.538C48.2401 179.285 48.2354 178.032 48.2304 176.778C48.218 173.367 48.2105 169.956 48.2047 166.545C48.201 164.415 48.1967 162.285 48.1922 160.154C48.1787 153.494 48.1686 146.833 48.1626 140.172C48.1557 132.477 48.137 124.781 48.1083 117.086C48.0868 111.142 48.0763 105.198 48.0739 99.2546C48.0722 95.7026 48.0658 92.1507 48.048 88.5987C48.0315 85.2574 48.0284 81.9164 48.0357 78.5751C48.0361 77.3484 48.0316 76.1217 48.0218 74.895C48.0093 73.2206 48.0143 71.5472 48.0236 69.8728C48.0158 69.387 48.008 68.9012 48 68.4006C48.045 65.0695 48.8708 63.4004 51.2146 61.056C53.2605 60.0348 55.0356 60.2389 57.322 60.2206ZM100.988 105.774C97.6486 109.345 95.3644 112.742 93.1661 117.131C105.368 117.131 117.569 117.131 130.14 117.131C130.14 113.618 130.14 110.104 130.14 106.484C134.487 109.196 138.478 112.223 142.45 115.445C143.19 116.044 143.19 116.044 143.944 116.655C146.333 118.608 148.631 120.569 150.761 122.81C145.739 126.763 140.712 130.708 135.651 134.61C135.261 134.912 134.871 135.214 134.47 135.525C131.729 137.632 131.729 137.632 130.14 138.426C130.14 134.912 130.14 131.398 130.14 127.778C116.766 127.778 103.391 127.778 89.6109 127.778C86.824 136.124 89.3496 146.274 92.6578 154.064C97.4042 163.461 105.216 170.554 115.12 174.227C125.785 177.332 136.14 176.191 145.914 170.93C151.726 167.236 158.473 161.465 160.715 154.751C146.871 154.751 133.027 154.751 118.764 154.751C118.764 158.031 118.764 161.31 118.764 164.689C112.033 159.592 105.337 154.482 98.8544 149.073C101.351 146.479 103.97 144.225 106.854 142.063C107.668 141.446 108.481 140.829 109.295 140.211C109.693 139.911 110.09 139.61 110.5 139.3C112.154 138.046 113.793 136.773 115.431 135.498C116.296 134.824 117.161 134.151 118.053 133.457C118.405 138.376 118.405 138.376 118.764 143.394C134.015 143.394 149.267 143.394 164.981 143.394C165.959 129.734 164.672 118.949 155.471 108.303C140.096 92.514 117.852 90.927 100.988 105.774Z" fill="#9BC43C"/>
</svg>
