<svg width="256" height="256" title="Xshell" viewBox="0 0 256 256" fill="none" xmlns="http://www.w3.org/2000/svg" id="xshell">
<style>
#xshell {
    rect {fill: #15191C}

    @media (prefers-color-scheme: light) {
        rect {fill: #F4F2ED}
    }
}
</style>
<rect width="256" height="256" rx="40" fill="#15191C"/>
<path d="M189.865 65.7037C204.606 75.5643 213.888 90.1113 217.692 107.446C218.092 110.734 217.988 114.068 217.988 117.381L199.989 118.132L200.739 120.383C201.715 135.976 200.887 150.383 193.989 164.651L192.987 166.747C185.308 181.796 172.393 191.569 156.873 197.422C148.145 200.18 139.604 201.08 130.478 200.994L128.903 200.987C102.7 200.818 80.4756 190.64 61.9984 172.154C47.8056 156.401 38 134.179 38 112.879H88.2466C89.2115 115.765 90.1234 118.668 90.9817 121.588C96.1436 138.889 106.785 152.971 122.744 161.65C131.115 165.608 139.665 167.949 148.946 167.887L150.948 167.874C155.622 167.786 159.708 167.397 163.991 165.401L166.004 164.487C178.15 158.42 184.958 148.66 189.275 136.078C192.51 124.859 191.218 112.627 185.74 102.375C180.709 94.1517 174.186 88.3856 164.835 85.6807C157.125 84.0083 149.925 85.2695 143.18 89.3385C137.854 93.1515 134.451 98.9597 133.244 105.376C132.382 113.836 134.09 120.606 139.416 127.27C144.05 132.039 149.41 134.629 156.023 134.92C159.996 134.822 163.128 134.203 166.241 131.637C167.724 129.741 168.907 127.781 169.991 125.635L168.679 126.291L166.991 127.135L165.62 127.959C161.49 129.676 155.767 129.458 151.602 127.953C146.614 124.985 143.494 120.895 141.871 115.348C140.646 109.781 141.577 104.454 144.542 99.5524C147.163 96.1175 150.467 94.0722 154.57 92.8087C161.879 92.0959 168.143 93.2168 173.975 98.0143C181.103 104.911 183.531 112.433 183.771 122.258C183.537 132.25 180.665 141.628 173.744 149.032C166.309 155.775 157.393 157.756 147.592 157.412C135.003 156.587 124.098 150.754 115.526 141.673C105.871 130.004 102.091 115.854 103.246 100.874C105.069 87.2428 112.03 74.8042 122.63 66.0263C142.274 51.8304 169.618 53.6132 189.865 65.7037Z" fill="#F9503A"/>
</svg>
