<svg width="256" height="256" title="Xubuntu" viewBox="0 0 256 256" fill="none" xmlns="http://www.w3.org/2000/svg" id="xubuntu">
<style>
#xubuntu {
    rect {fill: #15191C}

    @media (prefers-color-scheme: light) {
        rect {fill: #F4F2ED}
    }
}
</style>
<rect width="256" height="256" rx="40" fill="#15191C"/>
<path d="M128.5 211C174.063 211 211 174.063 211 128.5C211 82.9365 174.063 46 128.5 46C82.9365 46 46 82.9365 46 128.5C46 174.063 82.9365 211 128.5 211Z" fill="#0044AA"/>
<path d="M104.527 91.691C103.334 97.6088 105.048 104.383 107.443 112.574C107.588 113.068 107.307 113.7 107.054 113.774C105.967 114.091 104.102 113.753 103.741 113.013C101.875 109.18 100.987 105.261 98.8066 101.488C97.2984 98.8781 95.7383 96.388 93.8799 94.7042C91.6227 92.659 89.8538 92.257 87.4386 93.2661C84.3919 94.539 82.5512 97.591 81.9198 100.328C81.2792 103.105 81.5472 106.311 82.0485 109.093C82.6385 112.368 83.3891 114.952 84.3538 118.016C83.6178 120.193 79.1879 132.137 78.1169 140.418C76.742 151.048 72.8753 183.211 108.315 179.635C121.387 178.316 132.039 173.735 142.119 169.035C146.738 166.881 152.533 164.102 158.103 161.043C163.676 157.981 168.847 154.719 172.798 151.246C176.757 147.767 179.64 143.956 179.115 140.16C178.269 134.041 174.211 129.493 168.802 125.98C163.373 122.454 154.103 119.178 147.404 117.22C138.613 114.652 131.807 113.653 123.556 113.205C123.094 104.845 124.209 93.8455 118.916 87.4374C117.69 85.9533 115.903 85.0097 113.759 84.8593C110.315 84.998 105.633 86.1976 104.527 91.691Z" fill="white"/>
<path d="M176.788 82.515C174.166 80.3461 153.604 112.789 158.15 116.155C160.884 118.2 177.959 83.6716 176.788 82.515Z" fill="white"/>
<path d="M153.15 77.9694C151.852 76.4626 144.966 111.424 148.15 112.972C150.884 115.017 155.646 79.7881 153.15 77.9694Z" fill="white"/>
</svg>