<svg width="256" height="256" title="Yaak" viewBox="0 0 256 256" fill="none" xmlns="http://www.w3.org/2000/svg">
<rect width="256" height="256" rx="40" fill="url(#linearGradient)"/>
<path fill-rule="evenodd" clip-rule="evenodd" d="M173.114 55.9628C197.066 71.0059 213 97.657 213 128C213 162.416 192.503 192.082 163.06 205.445C158.589 185.764 149.322 177.416 132.711 171.73C132.402 177.331 133.943 188.733 129.829 189.021C121.971 189.571 94.2776 175.875 92.3643 163.084C90.5391 150.884 90.9099 132.221 89.4823 122.738C52.7396 122.885 80.8371 91.0373 80.8371 91.0373L83.7183 102.565H89.4823C89.4823 102.565 90.1234 89.7579 92.3643 88.1553C95.1548 86.1604 102.228 82.42 121.183 82.3913C129.329 71.0939 159.903 61.0041 173.114 55.9628ZM128.676 128.854C133.066 128.854 136.63 132.418 136.63 136.808C136.63 141.198 133.066 144.762 128.676 144.762C124.286 144.762 120.722 141.198 120.722 136.808C120.722 132.418 124.286 128.854 128.676 128.854ZM144.238 99.6825C143.33 100.784 146.105 105.474 147.724 108.466C150.659 113.887 156.392 118.672 171.955 118.215C175.597 118.108 180.528 118.215 184.585 116.723C200.191 102.713 155.189 83.5441 152.883 85.2733C148.745 88.3771 157.293 97.6283 158.647 99.6825C154.843 99.459 148.987 99.6897 144.238 99.6825Z" fill="white"/>
<path fill-rule="evenodd" clip-rule="evenodd" d="M153.606 209.069C145.526 211.623 136.923 213 128 213C81.0867 213 43 174.913 43 128C43 81.0867 81.0867 43 128 43C140.333 43 152.057 45.6324 162.642 50.3667C156.787 52.7289 148.403 55.9287 147.124 55.592C98.176 42.6867 54.8055 87.5439 54.8055 127.999C54.8055 172.24 103.962 212.471 148.511 198.475C150.171 197.953 151.682 203.212 153.606 209.069Z" fill="white"/>
<linearGradient id="linearGradient" x1="25.3615" y1="12.9901" x2="233.343" y2="240.841" gradientUnits="userSpaceOnUse">
<stop stop-color="#4CC48C"/>
<stop offset="0.5" stop-color="#476CC9"/>
<stop offset="1" stop-color="#BA1AB7"/>
</linearGradient>
</svg>