<svg width="256" height="256" title="Yii PHP Framework" viewBox="0 0 256 256" fill="none" xmlns="http://www.w3.org/2000/svg" id="yii">
<style>
#yii {
    rect {fill: #15191C}

    @media (prefers-color-scheme: light) {
        rect {fill: #F4F2ED}
    }
}
</style>
<rect width="256" height="256" rx="40" fill="#15191C"/>
<path d="M156.949 152.963C155.705 136.573 150.408 125.949 147.828 119.928C145.25 113.908 141.286 108.273 141.283 108.282C141.276 108.308 137.714 127.461 131.311 141.319C130.242 143.634 128.822 146.523 127.389 148.85L127.39 148.85C122.969 156.639 116.555 164.091 112.731 171.644C108.94 179.13 108.236 186.544 108.589 194.972C108.945 203.448 110.906 211.761 112.79 220C119.891 218.471 126.072 215.855 131.418 212.511C145.489 203.708 153.991 189.627 156.407 174.459C156.407 174.459 156.525 173.843 156.577 173.091C157.667 161.368 157.306 157.669 156.949 152.963Z" fill="#40B3D8"/>
<path d="M156.949 152.963C155.705 136.573 150.408 125.949 147.828 119.928C145.25 113.908 141.286 108.273 141.283 108.282L141.282 108.286C141.283 108.284 141.283 108.281 141.283 108.281L140.337 106.877C119.588 77.8093 79.7938 63.2966 46.1722 76.7476C44.5534 97.1219 54.0189 132.178 88.5507 141.956C102.511 146.242 113.69 145.131 127.39 148.849C127.39 148.849 127.39 148.849 127.389 148.85C127.389 148.85 141.315 153.693 149.417 160.956C153.062 164.223 156.711 168.521 156.527 173.634C157.682 161.466 157.312 157.743 156.949 152.963Z" fill="#83C933"/>
<path fill-rule="evenodd" clip-rule="evenodd" d="M141.87 91.2242C136.964 76.8994 139.043 67.3006 148.019 53.9423C152.3 47.5687 159.692 40.1759 166.17 36C192.308 52.3454 201.973 82.7909 192.36 111.066C185.365 131.64 178.801 140.266 162.205 161.434C164.14 138.763 156.144 123.047 148.294 105.583C146.296 101.14 143.534 96.0811 141.87 91.2242Z" fill="#F18A2A"/>
<path d="M156.528 173.634C156.711 168.521 153.062 164.223 149.417 160.956C141.315 153.693 127.39 148.85 127.39 148.85C128.823 146.523 130.242 143.633 131.311 141.319C137.715 127.461 141.276 108.308 141.284 108.282C141.286 108.273 145.25 113.908 147.829 119.928C150.409 125.949 155.705 136.573 156.95 152.963C157.312 157.743 157.682 161.466 156.528 173.634Z" fill="#7FB93C"/>
</svg>