<svg width="256" height="256" title="YOLO" viewBox="0 0 256 256" fill="none" xmlns="http://www.w3.org/2000/svg" id="yolo">
<style>
#yolo {
    rect {fill: #15191C}

    @media (prefers-color-scheme: light) {
        rect {fill: #F4F2ED}
    }
}
</style>
<rect width="256" height="256" rx="40" fill="#15191C"/>
<path d="M85.5193 47.0153C64.8309 47.0153 48 63.837 48 84.5139C48 105.189 64.8309 122.012 85.5193 122.012C106.208 122.012 123.039 105.189 123.039 84.5139C123.039 63.837 106.208 47.0153 85.5193 47.0153Z" fill="#0B23A9"/>
<path d="M127.971 164.436C114.456 164.436 101.687 161.016 90.4766 155.011V172.024C90.4766 192.669 106.971 209.799 127.626 209.998C148.484 210.2 165.516 193.301 165.516 172.502V154.996C154.296 161.015 141.505 164.436 127.971 164.436Z" fill="#0B23A9"/>
<path d="M132.882 84.5181C132.844 110.603 111.655 131.788 85.4612 131.852C75.3568 131.878 65.875 128.735 58.1375 123.246C71.8515 147.747 98.02 164.452 127.942 164.395C171.409 164.429 207.275 129.06 208 85.6807L207.897 85.5878C207.94 84.507 207.887 85.3923 207.94 84.507C207.961 63.8156 191.104 46.9282 170.504 47.0002C149.707 47.0823 132.903 63.8265 132.882 84.5181Z" fill="url(#linearGradient)"/>
<linearGradient id="linearGradient" x1="93.383" y1="163.068" x2="186.181" y2="60.2112" gradientUnits="userSpaceOnUse">
<stop stop-color="#09DBF0"/>
<stop offset="1" stop-color="#0B23A9"/>
</linearGradient>
</svg>