<svg width="256" height="256" title="YouTube" viewBox="0 0 256 256" fill="none" xmlns="http://www.w3.org/2000/svg" id="youtube">
<style>
#youtube {
    rect {fill: #15191C}

    @media (prefers-color-scheme: light) {
        rect {fill: #F4F2ED}
    }
}
</style>
<rect width="256" height="256" rx="40" fill="#15191C"/>
<path d="M209.445 86.5841C207.486 79.2652 201.734 73.5137 194.415 71.5545C181.164 68 128 68 128 68C128 68 74.8365 68 61.5841 71.5545C54.2652 73.5137 48.5137 79.2652 46.5545 86.5841C43 99.8365 43 127.503 43 127.503C43 127.503 43 155.169 46.5545 168.422C48.5137 175.74 54.2652 181.492 61.5841 183.451C74.8365 187.006 128 187.006 128 187.006C128 187.006 181.164 187.006 194.415 183.451C201.734 181.492 207.486 175.74 209.445 168.422C213 155.169 213 127.503 213 127.503C213 127.503 212.986 99.8365 209.445 86.5841Z" fill="#FF0000"/>
<path d="M110.984 153.002L155.149 127.505L110.984 102.008V153.002Z" fill="white"/>
</svg>