<svg width="256" height="256" title="Zed" viewBox="0 0 256 256" fill="none" xmlns="http://www.w3.org/2000/svg">
<rect width="256" height="256" rx="40" fill="black"/>
<path fill-rule="evenodd" clip-rule="evenodd" d="M58.9375 53.625C57.5285 53.625 56.1773 54.1847 55.181 55.181C54.1847 56.1773 53.625 57.5285 53.625 58.9375V175.813H43V58.9375C43 54.7106 44.6791 50.6568 47.668 47.668C50.6568 44.6791 54.7106 43 58.9375 43H201.275C208.375 43 211.929 51.5832 206.91 56.6035L119.243 144.269H143.938V133.313H154.563V146.927C154.563 149.04 153.723 151.067 152.229 152.561C150.734 154.056 148.707 154.895 146.594 154.895H108.618L90.3574 173.156H173.156V106.75H183.781V173.156C183.781 175.974 182.662 178.677 180.669 180.669C178.677 182.662 175.974 183.781 173.156 183.781H79.7324L61.1386 202.375H197.063C198.471 202.375 199.823 201.815 200.819 200.819C201.815 199.823 202.375 198.471 202.375 197.063V80.1875H213V197.063C213 201.289 211.321 205.343 208.332 208.332C205.343 211.321 201.289 213 197.063 213H54.7247C47.6254 213 44.0714 204.417 49.0899 199.396L136.424 112.063H112.063V122.688H101.438V109.406C101.438 107.293 102.277 105.266 103.771 103.771C105.266 102.277 107.293 101.438 109.406 101.438H147.049L165.643 82.8438H82.8438V149.25H72.2188V82.8438C72.2188 80.0258 73.3382 77.3233 75.3307 75.3307C77.3233 73.3382 80.0258 72.2188 82.8438 72.2188H176.268L194.861 53.625H58.9375Z" fill="white"/>
</svg>