<svg width="256" height="256" title="Zen" viewBox="0 0 256 256" fill="none" xmlns="http://www.w3.org/2000/svg" id="zen">
<style>
#zen {
    rect {fill: #15191C}

    @media (prefers-color-scheme: light) {
        rect {fill: #F4F2ED}
    }
}
</style>
<rect width="256" height="256" rx="40" fill="#15191C"/>
<path fill-rule="evenodd" clip-rule="evenodd" d="M128 158.77C144.993 158.77 158.77 144.995 158.77 128C158.77 111.008 144.995 97.23 128 97.23C111.008 97.23 97.23 111.005 97.23 128C97.23 144.992 111.005 158.77 128 158.77ZM152.615 128C152.615 141.595 141.595 152.615 128 152.615C114.405 152.615 103.385 141.595 103.385 128C103.385 114.405 114.405 103.385 128 103.385C141.595 103.385 152.615 114.405 152.615 128Z" fill="#F76F53"/>
<path fill-rule="evenodd" clip-rule="evenodd" d="M181.332 128C181.332 157.455 157.457 181.332 128 181.332C98.545 181.332 74.6675 157.457 74.6675 128C74.6675 98.545 98.5425 74.6675 128 74.6675C157.455 74.6675 181.332 98.5425 181.332 128ZM128 171.075C151.79 171.075 171.075 151.79 171.075 128C171.075 104.21 151.792 84.925 128 84.925C104.207 84.925 84.925 104.207 84.925 128C84.925 151.792 104.207 171.075 128 171.075Z" fill="#F76F53"/>
<path fill-rule="evenodd" clip-rule="evenodd" d="M208 128C208 172.183 172.183 208 128 208C83.8175 208 48 172.183 48 128C48 83.8175 83.8175 48 128 48C172.183 48 208 83.8175 208 128ZM128 193.64C164.253 193.64 193.64 164.253 193.64 128C193.64 91.7475 164.253 62.36 128 62.36C91.7475 62.36 62.36 91.7475 62.36 128C62.36 164.253 91.7475 193.64 128 193.64Z" fill="#F76F53"/>
</svg>