<svg width="256" height="256" title="Zerops" viewBox="0 0 256 256" fill="none" xmlns="http://www.w3.org/2000/svg" id="zerops">
<style>
#zerops {
    rect {fill: #15191C}

    @media (prefers-color-scheme: light) {
        rect {fill: #F4F2ED}
    }
}
</style>
<rect width="256" height="256" rx="40" fill="#15191C"/>
<path d="M124.331 54.7673L73.5095 74.1557C71.2934 75.0231 69.3909 76.5375 68.0511 78.5015C66.7112 80.4654 65.9966 82.7872 66 85.1631V133.974L89.356 120.576V93.1311L128.5 78.1396V54C127.075 54.0031 125.663 54.263 124.331 54.7673Z" fill="#7CC7BA"/>
<path d="M89.77 164.076L128.5 141.795V114.881L68.6608 149.32C67.8553 149.791 67.1865 150.463 66.7199 151.27C66.2535 152.078 66.0054 152.992 66 153.924V171.955C66.0201 174.31 66.7461 176.606 68.0844 178.547C69.4225 180.488 71.312 181.984 73.5095 182.844L124.331 202.232C125.663 202.737 127.075 202.997 128.5 203V178.86L89.77 164.076Z" fill="#7CC7BA"/>
<path d="M188.516 107.208C189.28 106.771 189.913 106.139 190.35 105.376C190.786 104.613 191.01 103.748 191 102.87V85.1633C191.004 82.7872 190.289 80.4654 188.949 78.5015C187.609 76.5377 185.706 75.0231 183.49 74.1557L132.639 54.7673C131.316 54.2665 129.914 54.0066 128.5 54V78.1396L166.934 92.8951L128.5 114.999V141.912L188.516 107.208Z" fill="#6DAEA3"/>
<path d="M132.639 202.232L183.49 182.843C185.688 181.983 187.577 180.487 188.916 178.546C190.254 176.606 190.98 174.31 191 171.954V122.642L167.643 136.099V163.927L128.5 178.86V203C129.914 202.994 131.316 202.733 132.639 202.232Z" fill="#6DAEA3"/>
</svg>