<svg width="256" height="256" title="ZShell" viewBox="0 0 256 256" fill="none" xmlns="http://www.w3.org/2000/svg" id="zshell">
<style>
#zshell {
    rect {fill: #15191C}
    path.zshell {fill: white}

    @media (prefers-color-scheme: light) {
        rect {fill: #F4F2ED}
        path.zshell {fill: #212121}
    }
}
</style>
<rect width="256" height="256" rx="40" fill="#15191C"/>
<path d="M92.8622 98.4794L94.9054 100.195L70.1316 129.699L68.0884 127.984L92.8622 98.4794ZM87.5156 115.044C91.4904 115.044 94.7126 118.266 94.7126 122.241C94.7126 126.216 91.4904 129.438 87.5156 129.438C83.5408 129.438 80.3186 126.216 80.3186 122.241C80.3186 118.266 83.5408 115.044 87.5156 115.044ZM87.5156 119.211C85.842 119.211 84.4852 120.567 84.4852 122.241C84.4852 123.914 85.842 125.271 87.5156 125.271C89.189 125.271 90.5458 123.914 90.5458 122.241C90.5458 120.567 89.189 119.211 87.5156 119.211ZM75.3943 98.7561C79.3691 98.7561 82.5913 101.978 82.5913 105.953C82.5913 109.928 79.3691 113.15 75.3943 113.15C71.4195 113.15 68.1974 109.928 68.1974 105.953C68.1974 101.978 71.4195 98.7561 75.3943 98.7561ZM75.3943 102.923C73.7207 102.923 72.364 104.279 72.364 105.953C72.364 107.627 73.7207 108.984 75.3943 108.984C77.0679 108.984 78.4247 107.627 78.4247 105.953C78.4247 104.279 77.0679 102.923 75.3943 102.923ZM121.823 126.769H104.132V129.437H121.823V126.769Z" fill="#F15A24"/>
<path d="M180.427 57C192.894 57 203 67.1065 203 79.5735V194.178H195.408V90.7212L60.592 90.7217L60.5924 175.401C60.5924 183.675 67.2995 190.382 75.5735 190.382H127.085V197.974H75.5735C63.1064 197.974 53 187.868 53 175.401V79.5735C53 67.1065 63.1064 57 75.5735 57H180.427ZM180.427 64.5924H75.5735C67.2995 64.5924 60.592 71.2997 60.592 79.5735V83.1295L195.408 83.1293V79.5735C195.408 71.2997 188.701 64.5924 180.427 64.5924Z" class="zshell" fill="white"/>
<path d="M156.52 194.11C156.52 193.073 156.108 192.079 155.375 191.345C154.641 190.612 153.647 190.201 152.61 190.201C152.581 190.201 152.551 190.201 152.522 190.205H143.735C143.661 190.205 143.588 190.188 143.523 190.152C143.457 190.118 143.401 190.067 143.36 190.006C143.318 189.945 143.293 189.875 143.285 189.801C143.276 189.728 143.285 189.653 143.315 189.585L156.166 157.543C156.377 157.016 156.457 156.445 156.396 155.881C156.336 155.317 156.138 154.776 155.82 154.306C155.502 153.836 155.074 153.451 154.573 153.185C154.072 152.919 153.513 152.78 152.945 152.78H139.4C139.323 152.776 139.248 152.767 139.17 152.767C138.67 152.767 138.174 152.866 137.712 153.057C137.25 153.249 136.829 153.529 136.476 153.883C136.121 154.237 135.841 154.657 135.649 155.119C135.458 155.581 135.359 156.077 135.359 156.578C135.359 157.078 135.457 157.574 135.649 158.036C135.84 158.498 136.121 158.918 136.475 159.272C136.828 159.626 137.249 159.906 137.711 160.097C138.174 160.289 138.669 160.387 139.17 160.387C139.23 160.387 139.288 160.382 139.347 160.378H146.366C146.443 160.378 146.519 160.399 146.587 160.433C146.655 160.467 146.713 160.522 146.757 160.585C146.8 160.649 146.827 160.723 146.835 160.799C146.843 160.876 146.835 160.954 146.805 161.025L135.661 188.857C135.462 189.352 135.361 189.881 135.361 190.414V193.827C135.361 194.938 135.802 196.004 136.588 196.79C137.374 197.576 138.439 198.017 139.551 198.017H152.614C153.127 198.017 153.635 197.916 154.109 197.72C154.583 197.523 155.014 197.236 155.376 196.873C155.739 196.51 156.027 196.08 156.223 195.605C156.42 195.131 156.521 194.623 156.521 194.11L156.52 194.11ZM179.143 162.469C179.167 161.096 179.051 159.725 178.794 158.376L178.727 158.04C178.489 156.813 178.013 155.835 177.3 155.106C176.625 154.339 175.674 153.802 174.445 153.495C173.255 153.15 171.728 152.978 169.865 152.978C168.081 152.978 166.037 153.15 164.808 153.495C163.695 153.758 162.682 154.338 161.894 155.163C161.18 155.969 160.665 157.062 160.348 158.443C160.045 159.724 159.886 161.337 159.873 163.282L159.872 164.121C159.876 165.859 159.897 167.284 159.931 168.394C159.983 169.398 160.102 170.397 160.288 171.385C160.438 172.038 160.699 172.661 161.061 173.226C161.403 173.713 161.802 174.157 162.251 174.549C162.874 175.096 163.551 175.578 164.273 175.987C164.907 176.355 165.554 176.711 166.214 177.054L166.711 177.31C167.544 177.732 168.337 178.173 169.09 178.633C169.8 179.032 170.459 179.515 171.053 180.071C171.288 180.326 171.507 180.594 171.707 180.876C171.852 181.047 171.964 181.241 172.039 181.452C172.107 181.639 172.165 181.831 172.211 182.026C172.277 182.329 172.307 182.638 172.302 182.947C172.34 183.407 172.362 184.04 172.362 184.846C172.379 185.942 172.319 187.037 172.183 188.124C172.145 188.744 171.983 189.35 171.707 189.908C171.498 190.269 171.157 190.537 170.756 190.655C170.359 190.77 168.989 190.828 168.394 190.828C167.912 190.836 167.431 190.779 166.966 190.655C166.592 190.486 166.28 190.205 166.074 189.85C165.839 189.299 165.679 188.718 165.599 188.124C165.509 187.17 165.47 186.212 165.48 185.254C165.479 185.147 165.475 185.04 165.463 184.933H165.437C165.328 184.171 164.946 183.472 164.361 182.967C163.776 182.462 163.027 182.184 162.253 182.184C161.479 182.184 160.73 182.462 160.145 182.967C159.56 183.472 159.178 184.171 159.069 184.933H159.052C159.039 185.05 159.034 185.168 159.034 185.285V185.43L159.054 186.979L159.056 187.204C159.056 189.467 159.215 191.308 159.532 192.727C159.888 194.107 160.443 195.2 161.197 196.005C161.936 196.746 162.865 197.269 163.882 197.52L164.052 197.559C165.335 197.868 166.65 198.024 167.97 198.022L168.676 198.016C170.512 197.994 172.726 197.822 173.908 197.501C175.108 197.2 176.175 196.513 176.941 195.545C177.734 194.586 178.289 193.264 178.606 191.576C178.949 189.92 179.127 187.821 179.141 185.281L179.142 184.961C179.142 183.005 179.082 181.433 178.963 180.244C178.929 179.246 178.747 178.257 178.428 177.31C178.197 176.619 177.81 175.989 177.298 175.47C176.78 174.943 176.201 174.48 175.573 174.089C174.998 173.728 174.402 173.401 173.789 173.111C173.114 172.728 172.401 172.364 171.647 172.018C170.894 171.635 170.181 171.251 169.506 170.868C168.908 170.499 168.332 170.096 167.781 169.66C167.524 169.45 167.286 169.219 167.068 168.969C166.896 168.707 166.774 168.414 166.711 168.107C166.619 167.671 166.559 167.229 166.532 166.784V164.598C166.524 163.771 166.562 162.946 166.652 162.124C166.697 161.623 166.839 161.135 167.068 160.686C167.27 160.367 167.59 160.139 167.96 160.054C168.317 159.938 169.31 159.881 169.865 159.881C171.134 159.881 171.926 160.245 172.243 160.974C172.494 161.435 172.636 161.946 172.658 162.47L172.665 162.766C172.674 163.132 172.679 163.56 172.679 164.004H172.7V164.025C172.7 164.875 173.039 165.691 173.643 166.292C174.248 166.894 175.066 167.231 175.921 167.231C176.775 167.231 177.594 166.894 178.198 166.292C178.772 165.721 179.107 164.956 179.139 164.152L179.142 164.004V162.47L179.143 162.469ZM202.955 156.546C202.955 156.023 202.852 155.506 202.643 155.027C202.435 154.547 202.129 154.117 201.744 153.763C201.36 153.409 200.907 153.139 200.412 152.97C199.918 152.801 199.393 152.737 198.873 152.783C198.352 152.828 197.847 152.981 197.389 153.232C196.931 153.484 196.53 153.828 196.213 154.243C195.895 154.658 195.668 155.135 195.545 155.643C195.422 156.151 195.406 156.678 195.499 157.193V170.585C195.499 170.807 195.411 171.02 195.254 171.177C195.096 171.335 194.883 171.423 194.661 171.423H190.014C189.792 171.423 189.579 171.335 189.422 171.177C189.265 171.02 189.176 170.807 189.176 170.585V156.545C189.176 155.548 188.78 154.592 188.076 153.888C187.371 153.183 186.415 152.787 185.418 152.787C184.422 152.787 183.466 153.183 182.761 153.888C182.089 154.56 181.697 155.462 181.663 156.409L181.66 156.63V194.286C181.66 195.283 182.057 196.239 182.761 196.943C183.466 197.648 184.422 198.044 185.418 198.044C186.415 198.044 187.371 197.648 188.076 196.943C188.748 196.271 189.139 195.369 189.174 194.422L189.176 194.269V179.36C189.176 179.137 189.265 178.924 189.422 178.767C189.579 178.61 189.792 178.521 190.014 178.521H194.661C194.883 178.521 195.096 178.61 195.254 178.767C195.411 178.924 195.499 179.137 195.499 179.36V193.622C195.402 194.162 195.424 194.717 195.565 195.248C195.706 195.778 195.962 196.271 196.315 196.692C196.668 197.112 197.109 197.45 197.608 197.68C198.056 197.888 198.541 198.005 199.033 198.024L199.227 198.027C199.717 198.027 200.202 197.93 200.654 197.743C201.106 197.556 201.518 197.281 201.864 196.935C202.21 196.589 202.484 196.178 202.672 195.725C202.859 195.273 202.955 194.788 202.955 194.299V156.546Z" class="zshell" fill="white"/>
</svg>